<svg xmlns="http://www.w3.org/2000/svg" fill="none" viewBox="0 0 115 115"><mask id="crests-ai-research-path-1-outside-1_180_5204" width="74" height="100" x="21.38" y="6.38" fill="#000" maskUnits="userSpaceOnUse"><path fill="#fff" d="M21.38 6.38h74v100h-74z"/><path d="M72.74 9.4c.4-.07.81.03 1.14.27l9.64 6.96.03.02.23.22.04.05.06.08.02.02.02.04.03.06.03.05.03.07.03.07.03.08.02.05.02.1.01.04v.03l.01.08v.05l.01.09v.12a1.5 1.5 0 0 1-.29.78l-4.92 6.7 1.27.77a1.5 1.5 0 0 1 .72 1.43q.05.54-.29 1.03l-2.98 4.02-1.17 1.7a22 22 0 0 1 2.36 3.51c.68 1.3 1.12 2.64 1.42 4.26 6.4 4.69 10.54 10.93 11.04 17.69.27 3.58-.5 7.2-2.4 10.7a24 24 0 0 1-4.55 6.03q-1.33 1.35-2.93 2.66l10.05 19.3a1.5 1.5 0 0 1-1.26 2.18l-44.82 2.17q-.28 0-.55-.08L32.6 98.73l-.68-.18a1.5 1.5 0 0 1-1.11-1.44 1.5 1.5 0 0 1 .2-.81l.5-.87 4.96-9.01a16 16 0 0 1-1.43-2.8q-.3-.81-.42-1.7-.12-.5-.21-1h-3.18l-.36-.04h-.02l-.22-.08-.04-.02-.24-.14-.05-.04-5.36-4.29a1.5 1.5 0 0 1-.56-1.17v-4.82c0-.83.67-1.5 1.5-1.5h20.6l3.3-5.2.1-.13q.38-.46.97-.55l12.32-1.6.2-.02h8.03c.52 0 1.01.28 1.28.73l2.18 3.64a14 14 0 0 0 2.38-3.63q.29-.83.37-1.68c.2-2.23-.67-4.9-3.79-8.34l-.43.2c-1.05.45-2.28.5-3.38.41a20 20 0 0 1-3.36-.6c-1.05-.27-2-.58-2.69-.82l-.03-.01-6.08 8.21a1.5 1.5 0 0 1-1.33.6 1.5 1.5 0 0 1-1.08-.34l-2.01-1.68-4.4 5.73a1.5 1.5 0 0 1-2.05.32l-6.96-4.82a1.5 1.5 0 0 1-.4-2.05l4.04-6.3-2.59-1.84a1.5 1.5 0 0 1-.62-1.35 1.5 1.5 0 0 1 .29-1.04l9.39-12.69L63.22 15.9a1.5 1.5 0 0 1 1.37-.61q.57-.05 1.04.3l1.63 1.21 4.5-6.74c.22-.34.58-.57.98-.65"/></mask><path fill="#fff" d="M72.74 9.4c.4-.07.81.03 1.14.27l9.64 6.96.03.02.23.22.04.05.06.08.02.02.02.04.03.06.03.05.03.07.03.07.03.08.02.05.02.1.01.04v.03l.01.08v.05l.01.09v.12a1.5 1.5 0 0 1-.29.78l-4.92 6.7 1.27.77a1.5 1.5 0 0 1 .72 1.43q.05.54-.29 1.03l-2.98 4.02-1.17 1.7a22 22 0 0 1 2.36 3.51c.68 1.3 1.12 2.64 1.42 4.26 6.4 4.69 10.54 10.93 11.04 17.69.27 3.58-.5 7.2-2.4 10.7a24 24 0 0 1-4.55 6.03q-1.33 1.35-2.93 2.66l10.05 19.3a1.5 1.5 0 0 1-1.26 2.18l-44.82 2.17q-.28 0-.55-.08L32.6 98.73l-.68-.18a1.5 1.5 0 0 1-1.11-1.44 1.5 1.5 0 0 1 .2-.81l.5-.87 4.96-9.01a16 16 0 0 1-1.43-2.8q-.3-.81-.42-1.7-.12-.5-.21-1h-3.18l-.36-.04h-.02l-.22-.08-.04-.02-.24-.14-.05-.04-5.36-4.29a1.5 1.5 0 0 1-.56-1.17v-4.82c0-.83.67-1.5 1.5-1.5h20.6l3.3-5.2.1-.13q.38-.46.97-.55l12.32-1.6.2-.02h8.03c.52 0 1.01.28 1.28.73l2.18 3.64a14 14 0 0 0 2.38-3.63q.29-.83.37-1.68c.2-2.23-.67-4.9-3.79-8.34l-.43.2c-1.05.45-2.28.5-3.38.41a20 20 0 0 1-3.36-.6c-1.05-.27-2-.58-2.69-.82l-.03-.01-6.08 8.21a1.5 1.5 0 0 1-1.33.6 1.5 1.5 0 0 1-1.08-.34l-2.01-1.68-4.4 5.73a1.5 1.5 0 0 1-2.05.32l-6.96-4.82a1.5 1.5 0 0 1-.4-2.05l4.04-6.3-2.59-1.84a1.5 1.5 0 0 1-.62-1.35 1.5 1.5 0 0 1 .29-1.04l9.39-12.69L63.22 15.9a1.5 1.5 0 0 1 1.37-.61q.57-.05 1.04.3l1.63 1.21 4.5-6.74c.22-.34.58-.57.98-.65"/><path fill="#fff" d="m72.74 9.4-.54-2.95zm1.14.27-1.75 2.43zm9.64 6.96 1.76-2.44zm.03.02 1.81-2.4zm.07.06-1.96 2.27zm.05.04 2.06-2.18zm.05.05-2.16 2.08zm.06.07 2.28-1.95zm.04.05-2.36 1.85zm.06.08 2.49-1.68zm.02.02-2.51 1.64.01.03zm.02.04 2.56-1.57-.06-.1zm.03.06 2.63-1.45zm.03.05-2.68 1.35zm.03.07 2.75-1.2zm.03.07-2.8 1.07zm.03.08 2.86-.9zm.02.05-2.9.8zm.02.1 2.94-.6zm.01.04 2.95-.52zm0 .01-2.96.5zm0 .02 2.97-.47zm.01.08-2.98.3zm0 .05 3-.2zm.01.09-3 .03zm0 .07 3 .1zm0 .05-3-.22zm-.29.78 2.42 1.77zm-4.92 6.7-2.41-1.77a3 3 0 0 0 .87 4.35zm1.27.77 1.55-2.58zm.7.97 2.93-.64zm.02.46-2.98-.3a3 3 0 0 0 0 .57zm-.29 1.03 2.42 1.78zm-2.98 4.02-2.4-1.78q-.05.03-.06.08zm-1.17 1.7-2.47-1.71a3 3 0 0 0 .11 3.56zm2.36 3.51 2.66-1.38zm1.42 4.26-2.94.56a3 3 0 0 0 1.17 1.86zM91.3 59.84l3-.22zm-2.4 10.7-2.64-1.43-.02.03zm-4.55 6.03-2.1-2.15q0 .03-.04.05zm-2.93 2.66-1.9-2.33a3 3 0 0 0-.76 3.71zm10.05 19.3 2.66-1.4zm-.03 1.43 2.6 1.5zm-1.23.75-.14-3zm-44.82 2.17.14 3zm-.55-.08-.94 2.85zM32.6 98.73l.95-2.85-.17-.05zm-.68-.18-.78 2.9zm-1-.87-2.76 1.18zm-.11-.57 3-.03V97zm.2-.81 2.6 1.5zm.5-.87 2.6 1.5.02-.05zm4.96-9.01 2.62 1.45a3 3 0 0 0-.05-3zm-1.43-2.8-2.83 1zm-.42-1.7 2.98-.41-.07-.33zm-.21-1 2.94-.56a3 3 0 0 0-2.94-2.43zm-3.4-.01.45-2.97zm-.04 0-.52 2.94zm-.1-.03.73-2.91zm-.02 0-.77 2.9zm-.22-.08 1.2-2.75zm-.04-.02-1.3 2.7h.01zm-.24-.14 1.77-2.43zm-.05-.04-1.88 2.34zm-5.36-4.29-1.87 2.34zm-.56-1.17h-3zm0-4.82h-3zm22.1-1.5v3A3 3 0 0 0 49 70.43zm3.3-5.2-2.43-1.74-.1.14zm.1-.13-2.34-1.88-.1.13zm.97-.55-.38-2.97zm12.32-1.6-.39-2.98zm9.51.71 2.58-1.54zm2.18 3.64-2.57 1.54a3 3 0 0 0 4.85.42zm2.38-3.63 2.78 1.13.05-.16zm.37-1.68 2.99.29zm-3.79-8.34 2.22-2.02a3 3 0 0 0-3.5-.7zm-.43.2 1.2 2.74zm-3.38.41-.23 3zm-3.36-.6-.75 2.9zm-2.69-.82-1 2.83zm-.03-.01 1-2.83a3 3 0 0 0-3.41 1.04zm-6.08 8.21 2.4 1.79h.01zm-.99.6.44 2.96zm-.34 0 .24-2.99h-.48zm-1.08-.34L53.52 62zm-2.01-1.68 1.92-2.3a3 3 0 0 0-4.3.48zm-4.4 5.73 2.37 1.83zm-2.05.32-1.7 2.47zm-6.96-4.82 1.7-2.47zm-.61-1.55 2.93.63zm.2-.5-2.52-1.62zm4.05-6.3 2.52 1.63a3 3 0 0 0-.78-4.06zm-2.59-1.84 1.75-2.44zm-.6-.98-2.97.49zm-.02-.37 2.99.27a3 3 0 0 0 0-.57zm.29-1.04-2.41-1.79zm9.39-12.69 2.4 1.79.03-.03zM63.22 15.9l-2.43-1.76zm1.37-.61-.3 2.98a3 3 0 0 0 .58 0zm1.04.3-1.8 2.4zm1.63 1.21-1.8 2.4a3 3 0 0 0 4.3-.74zm4.5-6.74 2.5 1.66zm.98-.65.53 2.96a1.5 1.5 0 0 1-1.14-.26l1.75-2.43 1.76-2.44a4.5 4.5 0 0 0-3.44-.78zm1.14.27-1.75 2.43 9.63 6.96 1.76-2.43 1.76-2.44-9.64-6.96zm9.64 6.96-1.76 2.43-.11-.1v.01l.02.01.07.06 1.8-2.4 1.82-2.38.06.04-.04-.03-.1-.08zm.03.02-1.81 2.39-.08-.06 1.96-2.27 1.96-2.27-.22-.18zm.07.06-1.96 2.27-.05-.05 2.06-2.18 2.06-2.18q-.07-.08-.15-.13zm.05.04-2.06 2.18-.05-.05 2.16-2.08 2.16-2.08-.15-.15zm.05.05-2.16 2.08-.05-.05v-.01l2.27-1.95 2.28-1.95-.18-.2zm.06.07-2.28 1.95.04.04-.02-.02-.06-.07 2.36-1.85 2.36-1.86-.13-.16.01.02zm.04.05-2.36 1.85-.07-.1v.01L83.9 17l2.48-1.68-.06-.08-.13-.18zm.06.08-2.48 1.68.1.15.03.04h.01v.01-.02q-.03 0-.04-.04l-.11-.16 2.5-1.64 2.52-1.64-.17-.24v.01l.03.03.1.14zm.02.02-2.5 1.67.03.03 2.5-1.66 2.49-1.67-.03-.03zm.02.04-2.56 1.57-.07-.13-.03-.06.07.13 2.62-1.45 2.63-1.45.04.07-.14-.25zm.03.06-2.62 1.45v.02l-.03-.07 2.68-1.35 2.68-1.35-.07-.14zm.03.05-2.68 1.35-.04-.1v.03l2.75-1.2 2.75-1.21v-.01l-.1-.21zm.03.07-2.74 1.2.01.04-.01-.03-.03-.07 2.8-1.07 2.8-1.08-.07-.17-.01-.03zm.03.07-2.8 1.07-.03-.08 2.86-.91 2.86-.9-.09-.26zm.03.08-2.86.9.01.05v-.03l-.02-.07 2.89-.8 2.89-.8-.05-.16v-.01.01zm.02.05-2.9.8-.02-.08v-.01l2.94-.61 2.94-.6-.07-.3zm.02.1-2.94.6.03.12v.03l-.03-.19 2.95-.52 2.95-.52-.03-.16-.02-.08v.02l.03.1zm.01.04-2.95.52-.04-.34v-.02.02l.03.33zl2.96-.5.03.26v.08-.1l-.04-.27zm0 .01-2.96.5.05.23v.01-.01l-.05-.24 2.96-.47 2.97-.47-.05-.25v-.02l.04.22zm0 .02-2.96.47-.02-.13v-.06.1l3-.3 2.98-.3v.05-.03l-.03-.27zm.01.08-2.98.3v.1l.01.01-.01-.16 2.99-.2 3-.2-.02-.14-.01-.07v-.01.07zm0 .05-2.98.2-.01-.11v.03l3-.03 3-.04v-.25zm.01.09-3 .03v.02-.09l3 .1 3 .11v-.21zm0 .07-3-.11v-.11.05l3 .22 2.99.22v.01-.17zm0 .05-3-.21q.02-.4.3-.78l2.41 1.77 2.42 1.77c.52-.7.8-1.52.86-2.34zm-.29.78-2.42-1.77-4.91 6.7 2.41 1.77 2.42 1.78 4.92-6.7zm-4.92 6.7-1.54 2.58 1.27.76 1.54-2.57 1.55-2.58-1.27-.76zm1.27.77-1.54 2.57a1.5 1.5 0 0 1-.7-.97l2.94-.63 2.93-.64a4.5 4.5 0 0 0-2.08-2.9zm.7.97-2.94.63a2 2 0 0 1-.02-.47l2.98.3 2.99.3a5 5 0 0 0-.08-1.4zm.02.46-2.99.27a1.5 1.5 0 0 1 .3-1.03l2.4 1.79 2.42 1.78a4.5 4.5 0 0 0 .86-3.08zm-.29 1.03-2.4-1.79-2.99 4.03 2.41 1.78 2.41 1.79 2.98-4.03zm-2.98 4.02-2.47-1.7-1.17 1.69 2.47 1.7 2.47 1.71 1.17-1.69zm-1.17 1.7-2.36 1.85a20 20 0 0 1 2.06 3.04l2.66-1.38 2.66-1.38a25 25 0 0 0-2.66-4zm2.36 3.51-2.66 1.38c.52 1 .87 2.06 1.14 3.44l2.94-.56 2.95-.56a18 18 0 0 0-1.7-5.08zm1.42 4.26-1.77 2.42c5.9 4.33 9.4 9.85 9.82 15.49l3-.22 2.98-.22c-.58-7.88-5.38-14.85-12.25-19.89zM91.3 59.84l-3 .22c.23 2.98-.4 6.03-2.04 9.05l2.64 1.42 2.64 1.43a22.3 22.3 0 0 0 2.75-12.34zm-2.4 10.7-2.66-1.4a21 21 0 0 1-3.98 5.28l2.1 2.15 2.09 2.15a27 27 0 0 0 5.11-6.8zm-4.55 6.03-2.14-2.1q-1.2 1.23-2.68 2.43l1.89 2.33 1.9 2.33a39 39 0 0 0 3.17-2.88zm-2.93 2.66-2.66 1.38 10.05 19.3 2.66-1.39 2.66-1.38-10.05-19.3zm10.05 19.3-2.66 1.38a1.5 1.5 0 0 1 .03-1.44l2.6 1.5 2.6 1.49a4.5 4.5 0 0 0 .1-4.32zm-.03 1.43-2.6-1.5a1.5 1.5 0 0 1 1.23-.74l.14 3 .15 3a4.5 4.5 0 0 0 3.68-2.26zm-1.23.75-.14-3-44.82 2.17.14 3 .14 3 44.83-2.17zm-44.82 2.17-.14-3q.28 0 .54.08l-.95 2.84-.94 2.85q.8.26 1.63.23zm-.55-.08.95-2.84-12.24-4.08-.95 2.85-.95 2.84 12.25 4.08zM32.6 98.73l.78-2.9-.69-.18-.77 2.9-.78 2.9.68.18zm-.68-.18.78-2.9c.44.12.8.43.99.86l-2.76 1.17-2.76 1.18a4.5 4.5 0 0 0 2.97 2.58zm-1-.87 2.77-1.17q.12.3.12.57l-3 .03-3 .03q0 .86.36 1.72zm-.11-.57 3-.12q0 .43-.2.81L31 96.3l-2.6-1.5a4.5 4.5 0 0 0-.6 2.43zm.2-.81 2.6 1.5.5-.86-2.6-1.5-2.6-1.5-.5.86zm.5-.87 2.62 1.45 4.96-9.01-2.62-1.45-2.63-1.45L28.88 94zm4.96-9.01 2.57-1.54a13 13 0 0 1-1.18-2.28l-2.82 1.01-2.83 1.02c.45 1.25 1.1 2.36 1.68 3.33zm-1.43-2.8 2.82-1.02q-.18-.5-.26-1.1l-2.98.42-2.97.4q.17 1.2.56 2.3zm-.42-1.7 2.91-.74-.18-.82-2.94.57-2.95.56q.11.57.25 1.16zm-.21-1v-3h-3.18v6h3.18zm-3.18 0v-3l.23.02-.45 2.97-.45 2.96q.24.05.67.06zm-.22-.01.45-2.97h.04l-.53 2.96-.52 2.95.1.02zm-.04 0 .53-2.96h.02l.08.02-.73 2.91-.72 2.91.3.06zm-.1-.03.72-2.91.06.01h.02V78l-.05-.02-.77 2.9-.76 2.9h-.04l.1.02zm-.02 0 .77-2.9q.09.01.22.07l-1.2 2.75-1.22 2.74q.34.15.66.23zm-.22-.08 1.2-2.75.1.04.03.02-.08-.04-1.3 2.7-1.28 2.72-.05-.03.07.04.1.05zm-.04-.02 1.3-2.71.23.14-1.77 2.43-1.76 2.42q.35.25.7.43zm-.24-.14 1.77-2.43-.04-.03h-.01l.1.07-1.87 2.35-1.88 2.34.16.12h.01v.01h.01-.01zm-.05-.04 1.87-2.35-5.35-4.28-1.88 2.34-1.87 2.35 5.35 4.28zm-5.36-4.29 1.88-2.34c.35.29.56.72.56 1.17h-6a4.5 4.5 0 0 0 1.69 3.52zm-.56-1.17h3v-4.82h-6v4.82zm0-4.82h3c0 .83-.67 1.5-1.5 1.5v-6a4.5 4.5 0 0 0-4.5 4.5zm1.5-1.5v3h20.6v-6h-20.6zm20.6 0L49 70.43l3.3-5.2-2.53-1.6-2.53-1.61-3.3 5.2zm3.3-5.2 2.44 1.76.1-.14-2.44-1.75-2.44-1.75-.1.14zm.1-.13 2.34 1.88q-.38.46-.98.55l-.39-2.98-.38-2.97a4.5 4.5 0 0 0-2.93 1.64zm.97-.55.4 2.98 12.3-1.6-.38-2.98-.39-2.98-12.31 1.6zm12.32-1.6.39 2.97-.2.01v-6q-.3 0-.58.04zm.2-.02v3h8.03v-6h-8.04zm8.03 0v3a1.5 1.5 0 0 1-1.29-.72l2.57-1.55 2.58-1.54a4.5 4.5 0 0 0-3.86-2.19zm1.28.73-2.57 1.55 2.18 3.63 2.57-1.54 2.58-1.55-2.18-3.63zm2.18 3.64 2.28 1.96a16 16 0 0 0 2.88-4.46l-2.78-1.13-2.78-1.13c-.27.67-.81 1.57-1.87 2.8zm2.38-3.63 2.83.97q.4-1.13.53-2.36l-3-.29-2.98-.28q-.04.44-.22.99zm.37-1.68 2.99.28c.31-3.38-1.13-6.85-4.56-10.64l-2.22 2.02-2.22 2c2.8 3.11 3.12 4.99 3.02 6.06zm-3.79-8.34-1.28-2.72-.35.16 1.2 2.75 1.2 2.75.5-.23zm-.43.2-1.2-2.76a4.4 4.4 0 0 1-1.96.18l-.22 3-.23 2.98c1.27.1 3.1.09 4.8-.66zm-3.38.41.22-3a17 17 0 0 1-2.83-.5l-.75 2.9-.75 2.9c1.13.3 2.5.59 3.88.7zm-3.36-.6.75-2.9c-.95-.25-1.81-.53-2.44-.75l-1 2.83-1 2.83c.74.26 1.78.6 2.94.9zm-2.69-.82 1-2.83.03.01h-.01l-.05-.02-1 2.83-1 2.83-.03-.01h.02l.04.02zm-.03-.01-2.41-1.79-6.08 8.22 2.4 1.78 2.42 1.79L66.34 53zm-6.08 8.21-2.41-1.78c.24-.32.6-.54.99-.6l.43 2.97.44 2.97a4.5 4.5 0 0 0 2.96-1.77zm-.99.6-.43-2.97q.23-.03.33-.02l-.24 3-.24 2.98q.45.05 1.02-.03zm-.34 0-.24-2.99c.38-.03.77.09 1.08.35l-1.92 2.3-1.92 2.3a4.5 4.5 0 0 0 3.25 1.03zm-1.08-.34 1.92-2.3-2.01-1.68-1.92 2.3-1.92 2.3L53.52 62zm-2.01-1.68-2.38-1.82-4.4 5.72 2.37 1.83 2.38 1.83 4.4-5.73zm-4.4 5.73-2.38-1.83a1.5 1.5 0 0 1 2.04-.32l-1.7 2.47-1.72 2.47a4.5 4.5 0 0 0 6.13-.96zm-2.05.32 1.7-2.47-6.95-4.82-1.71 2.47-1.7 2.47 6.95 4.82zm-6.96-4.82 1.7-2.47c.53.36.74.99.62 1.55l-2.93-.63-2.93-.63a4.5 4.5 0 0 0 1.83 4.65zm-.61-1.55 2.93.63q-.05.23-.2.5l-2.53-1.63-2.52-1.62q-.45.74-.62 1.5zm.2-.5 2.53 1.63 4.04-6.3-2.52-1.62-2.52-1.62-4.05 6.3zm4.05-6.3 1.74-2.43-2.58-1.85-1.75 2.44-1.74 2.44 2.58 1.85zm-2.59-1.84 1.75-2.44q.5.36.6.98l-2.96.48-2.96.49a4.5 4.5 0 0 0 1.83 2.93zm-.6-.98 2.96-.48q.03.23.01.38l-2.99-.27-2.99-.28q-.05.53.04 1.14zm-.02-.37 2.99-.3c.03.34-.06.72-.29 1.04l-2.41-1.78-2.41-1.79a4.5 4.5 0 0 0-.86 3.12zm.29-1.04 2.4 1.78 9.4-12.68-2.41-1.79-2.41-1.78-9.4 12.68zm9.39-12.69 2.43 1.76 13.09-18.08-2.43-1.76-2.43-1.76-13.1 18.08zM63.22 15.9l2.43 1.76a1.5 1.5 0 0 1-1.37.61l.31-2.98.3-2.99a4.5 4.5 0 0 0-4.1 1.84zm1.37-.61.28 2.99a1.5 1.5 0 0 1-1.04-.3l1.8-2.4 1.8-2.4a4.5 4.5 0 0 0-3.12-.88zm1.04.3-1.8 2.4 1.63 1.21 1.8-2.4 1.8-2.4-1.64-1.22zm1.63 1.21 2.5 1.66 4.5-6.74-2.5-1.66-2.5-1.67-4.5 6.75zm4.5-6.74 2.5 1.66a1.5 1.5 0 0 1-.99.65l-.53-2.96-.54-2.95a4.5 4.5 0 0 0-2.94 1.94z" mask="url(#crests-ai-research-path-1-outside-1_180_5204)"/><path fill="#598d9d" stroke="#40396e" stroke-linecap="round" stroke-linejoin="round" stroke-width="3" d="m67.65 18.91 5.35-7.5 9.64 6.43-5.89 8.03z"/><path fill="#9cadb2" stroke="#40396e" stroke-linecap="round" stroke-linejoin="round" stroke-width="3" d="M74.07 69.1c5.56-5.6 7.86-10.95 0-18.98l5-6.57c13.56 8.76 14.82 25.56 0 35.34z"/><path fill="#c9d8dc" fill-rule="evenodd" d="M71.34 63.13H63.4l-18.07 38.25 44.82-2.16z" clip-rule="evenodd"/><path fill="#9cadb2" d="m45.32 101.38 18.07-38.25-12.29 1.44-18.8 32.48z"/><path fill="#c9d8dc" d="M63.4 49.41s6.54 2.69 9.39 1.45c3.31-1.45 5.26-3.65 5.78-7.22.53-3.63-3.61-8.66-3.61-8.66z"/><path stroke="#4b6e78" stroke-linecap="round" stroke-linejoin="round" stroke-width="3" d="m45.32 101.38 18.07-38.25m0 0L51.1 64.57 32.3 97.05l13.02 4.33 44.82-2.16-18.8-36.1zm0-13.72s6.55 2.69 9.4 1.45c3.31-1.45 5.26-3.65 5.78-7.22.53-3.63-3.61-8.66-3.61-8.66z"/><path fill="#c9d8dc" stroke="#1a5c6e" stroke-linecap="round" stroke-linejoin="round" stroke-width="3" d="M41.94 90.67c-5-4.91-6.33-8.47-6.42-13.92l7.5-1.07v.04c.1 3 .15 4.67 3.74 7.45z"/><path fill="#dff8ff" d="m50.51 73-19.28.53v5.9h19.28zm-4.28-2.68H26.95l4.28 3.21L50.51 73z"/><path fill="#dff8ff" d="m31.23 73.53-4.28-3.2v4.81l4.28 4.28z"/><path stroke="#1a5c6e" stroke-linecap="round" stroke-linejoin="round" stroke-width="3" d="M31.23 79.42h19.28V73l-4.28-2.68H26.95v4.82zm-4.28-9.1 4.28 3.21M50.51 73l-19.28.53m0 0v5.9"/><path fill="#598d9d" stroke="#40396e" stroke-linecap="round" stroke-linejoin="round" stroke-width="3" d="m40.87 58 4.82-7.5 7.5 5.36-5.35 6.96z"/><path fill="#c9d8dc" stroke="#4b6e78" stroke-linecap="round" stroke-linejoin="round" stroke-width="3" d="m41.94 47.55 22.79-30.78 14.7 11-22.79 30.77z"/><path stroke="#40396e" stroke-linecap="round" stroke-linejoin="round" stroke-width="3" d="m41.94 47.83 3.75 2.68-4.82 7.5 6.97 4.81 5.35-6.96 3.21 2.68 6.96-9.64c4.18 1.88 7.38 3.22 11.25 1.07 5.5 7.65 6.74 11.31 0 18.21l-3.21-5.36h-8.04l-12.31 1.61-3.75 5.9H25.88v4.81l5.35 4.29h4.82c-.2 3.21.54 4.28 2.15 6.96l-5.9 10.7 13.93 3.75L89.6 98.7 79.43 78.9c15.53-11.78 12.32-26.78-.54-35.88-.58-3.56-1.68-5.4-4.28-8.57l4.82-6.96-2.68-1.6 5.9-8.04L73 10.88l-5.35 8.03-3.21-2.14z"/><path stroke="#fff" stroke-linecap="round" stroke-linejoin="round" stroke-width="3" d="m69.8 28.55-10.72 15"/></svg>