<svg xmlns="http://www.w3.org/2000/svg" fill="none" viewBox="0 0 115 115"><g filter="url(#crests-analytics-platform-filter0_d_26_11166)"><path fill="#fff" d="M90.17 14.61a2 2 0 0 1 1.42.59l13.82 13.83a2 2 0 0 1 .59 1.4v56.74a2 2 0 0 1-2 2H77.22v9.22a2 2 0 0 1-2 2H33.8a2 2 0 0 1-1.5-.69L21.71 87.62a2 2 0 0 1-.35-.58 2 2 0 0 1-1.3-.67L9.49 74.29A2 2 0 0 1 9 72.97V35.72a2 2 0 0 1 1.88-2h36.07q.14 0 .27.02V16.61c0-1.1.9-2 2-2z"/></g><path fill="#bd7f68" stroke="#80503e" stroke-width="3.27" d="M52.5 19.63h35.67q.16 0 .26.11l12.33 12.33q.1.1.1.26V84c0 .2-.16.36-.36.36H61.9q-.16 0-.27-.12l-9.4-10.75a.4.4 0 0 1-.1-.24V20c0-.2.17-.37.37-.37Z"/><path fill="#acbb7a" stroke="#57713b" stroke-width="3.27" d="M52.83 19.63h35.34q.16 0 .26.11l9.5 9.5q.1.11.1.19.03.1-.02.2a.4.4 0 0 1-.13.18.3.3 0 0 1-.2.05H62.32a.4.4 0 0 1-.26-.1l-9.5-9.5a.3.3 0 0 1-.1-.2.4.4 0 0 1 .02-.2.4.4 0 0 1 .13-.17q.06-.05.2-.06Z"/><path stroke="#80503e" stroke-width="3.27" d="M62.5 30.5V84"/><path fill="#dab6a8" stroke="#80503e" stroke-width="3.27" d="M14.5 38.63h35.67q.16 0 .26.11l12.33 12.33q.1.1.1.26V83c0 .2-.16.36-.36.36H23.9q-.16 0-.27-.12l-9.4-10.75a.4.4 0 0 1-.1-.24V39c0-.2.17-.37.37-.37Z"/><path fill="#acbb7a" stroke="#57713b" stroke-width="3.27" d="M14.83 38.63h35.34q.16 0 .26.11l9.5 9.5q.1.11.1.19.03.1-.02.2a.4.4 0 0 1-.13.18.3.3 0 0 1-.2.05H24.32a.4.4 0 0 1-.26-.1l-9.5-9.5a.3.3 0 0 1-.1-.2.4.4 0 0 1 .02-.2.4.4 0 0 1 .13-.17q.05-.05.2-.06Z"/><path stroke="#80503e" stroke-width="3.27" d="M24.5 49.5v34"/><path fill="#bd7f68" stroke="#80503e" stroke-width="3.27" d="M25.5 65.63h35.67q.16 0 .26.11l9.83 9.83q.1.1.1.26V95c0 .2-.16.36-.36.36H34.9q-.16 0-.27-.12l-9.4-10.75a.4.4 0 0 1-.1-.24V66c0-.2.17-.37.37-.37Z"/><path fill="#acbb7a" stroke="#57713b" stroke-width="3.27" d="M25.83 65.63h35.34q.16 0 .26.11l9.5 9.5q.1.11.1.19.03.1-.02.2a.4.4 0 0 1-.13.18.3.3 0 0 1-.2.05H35.32a.4.4 0 0 1-.26-.1l-9.5-9.5a.3.3 0 0 1-.1-.2.4.4 0 0 1 .02-.2.4.4 0 0 1 .13-.17q.05-.05.2-.06Z"/><path stroke="#80503e" stroke-width="3.27" d="M35.5 76v20"/><mask id="crests-analytics-platform-path-11-inside-1_26_11166" fill="#fff"><path d="M88.67 18a2 2 0 0 1 1.42.58l12.33 12.33a2 2 0 0 1 .58 1.42V84a2 2 0 0 1-2 2H73.5v9a2 2 0 0 1-2 2H35.4a2 2 0 0 1-1.5-.68l-9.4-10.76a2 2 0 0 1-.36-.58 2 2 0 0 1-1.24-.66l-9.4-10.76a2 2 0 0 1-.5-1.31V39c0-1.1.9-2 2-2h35.67q.16 0 .33.03V20c0-1.1.9-2 2-2z"/></mask><path fill="#40396e" d="M88.67 18v-3.27zm1.42.58 2.3-2.3zm12.33 12.33-2.32 2.31zm.58 1.42h3.27zM103 84h3.27zm-29.5 2v-3.27h-3.27V86zm-2 11v3.27zm-36.1 0v3.27zm-1.5-.68-2.46 2.15zm-9.4-10.76 2.46-2.15zm-.36-.58 3.04-1.2-.7-1.79-1.9-.25zm-1.24-.66-2.46 2.15zm-9.4-10.76-2.47 2.16zm-.5-1.31h3.27zM13 39H9.73zm37.67-2v-3.27zm.33.03-.54 3.22 3.81.64v-3.86zM88.67 18v3.27q-.53-.01-.9-.37l2.32-2.32 2.3-2.3a5.3 5.3 0 0 0-3.72-1.55zm1.42.58-2.32 2.32 12.33 12.32 2.32-2.3 2.3-2.32L92.4 16.27zm12.33 12.33-2.32 2.31a1.3 1.3 0 0 1-.37-.9h6.54c0-1.4-.55-2.73-1.54-3.72zm.58 1.42h-3.27V84h6.54V32.33zM103 84h-3.27c0-.7.57-1.27 1.27-1.27v6.54a5.27 5.27 0 0 0 5.27-5.27zm-2 2v-3.27H73.5v6.54H101zm-27.5 0h-3.27v9h6.54v-9zm0 9h-3.27c0-.7.57-1.27 1.27-1.27v6.54A5.27 5.27 0 0 0 76.77 95zm-2 2v-3.27H35.4v6.54h36.1zm-36.1 0v-3.27c.37 0 .72.16.96.43l-2.46 2.16-2.46 2.15c1 1.14 2.45 1.8 3.97 1.8zm-1.5-.68 2.46-2.16-9.4-10.75-2.46 2.15-2.47 2.16 9.41 10.75zm-9.4-10.76 2.46-2.15q.15.18.22.37l-3.04 1.2-3.04 1.2q.32.83.93 1.54zm-.36-.58.44-3.24q.45.06.78.42l-2.46 2.16-2.46 2.15a5.3 5.3 0 0 0 3.26 1.75zm-1.24-.66 2.46-2.16-9.4-10.75-2.47 2.15-2.46 2.16 9.41 10.75zm-9.4-10.76 2.46-2.15q.3.36.31.84H9.73c0 1.27.46 2.5 1.3 3.47zm-.5-1.31h3.27V39H9.73v33.25zM13 39h3.27c0 .7-.57 1.27-1.27 1.27v-6.54A5.27 5.27 0 0 0 9.73 39zm2-2v3.27h35.67v-6.54H15zm35.67 0v3.27l-.2-.02.53-3.22.54-3.23a5 5 0 0 0-.87-.07zm.33.03h3.27V20h-6.54v17.03zM51 20h3.27c0 .7-.57 1.27-1.27 1.27v-6.54A5.27 5.27 0 0 0 47.73 20zm2-2v3.27h35.67v-6.54H53z" mask="url(#crests-analytics-platform-path-11-inside-1_26_11166)"/><ellipse cx="75.5" cy="53.5" fill="#d5d5d5" rx="2.5" ry="1.5"/><ellipse cx="91.5" cy="37.5" fill="#d5d5d5" rx="2.5" ry="1.5"/><ellipse cx="84.5" cy="40.5" fill="#d5d5d5" rx="2.5" ry="1.5"/><ellipse cx="87.5" cy="75.5" fill="#d5d5d5" rx="2.5" ry="1.5"/><ellipse cx="45.5" cy="82.5" fill="#d5d5d5" rx="2.5" ry="1.5"/><ellipse cx="80.5" cy="59" fill="#d5d5d5" rx="1.5" ry="1"/><ellipse cx="49.5" cy="86" fill="#d5d5d5" rx="1.5" ry="1"/><ellipse cx="35" cy="58.5" fill="#8d8d8d" rx="2" ry="1.5"/><ellipse cx="39.5" cy="55" fill="#8d8d8d" rx="1.5" ry="1"/><ellipse cx="82.5" cy="55.5" fill="#d5d5d5" rx="2.5" ry="1.5"/><defs><filter id="crests-analytics-platform-filter0_d_26_11166" width="100" height="88.78" x="9" y="14.61" color-interpolation-filters="sRGB" filterUnits="userSpaceOnUse"><feFlood flood-opacity="0" result="BackgroundImageFix"/><feColorMatrix in="SourceAlpha" result="hardAlpha" values="0 0 0 0 0 0 0 0 0 0 0 0 0 0 0 0 0 0 127 0"/><feOffset dx="3" dy="3"/><feComposite in2="hardAlpha" operator="out"/><feColorMatrix values="0 0 0 0 0 0 0 0 0 0 0 0 0 0 0 0 0 0 0.4 0"/><feBlend in2="BackgroundImageFix" result="effect1_dropShadow_26_11166"/><feBlend in="SourceGraphic" in2="effect1_dropShadow_26_11166" result="shape"/></filter></defs></svg>