<svg xmlns="http://www.w3.org/2000/svg" fill="none" viewBox="0 0 115 115"><g filter="url(#crests-array-filter0_d_23_6984)"><path fill="#fff" d="M99.75 27.29c-8.28-14.12-31.73-14.5-41.72-3.88a1.1 1.1 0 0 1-1.58.01c-11.2-11.5-33.47-10.8-41.48 3.47q-.22.39-.36.81c-1.23 3.52-9.88 28.51-9.36 34.09.25 2.66.73 6.44.92 7.9q.07.6.05 1.2c-.62 13.84 10.7 20.99 18.11 12.4.27-.3.66-.5 1.07-.5.75 0 1.35.6 1.35 1.34v.5l-.02.3c-1.78 11.22 7.4 17.12 16.37 12.77 1.1-.53 2.3-.89 3.53-.83l19.37.88q.76.03 1.47.25c12.9 3.75 16.38.79 18.78-9.21l.75-2c.45-1.2 1.6-2 2.88-2q.86.01 1.62.43c8.59 4.59 17.77-1.48 17.3-13.08q-.04-.84.11-1.7c.32-1.73 1-5.81.84-8.65-.67-12.5-10-34.5-10-34.5"/><path stroke="#000" d="M99.75 27.29c-8.28-14.12-31.73-14.5-41.72-3.88a1.1 1.1 0 0 1-1.58.01c-11.2-11.5-33.47-10.8-41.48 3.47q-.22.39-.36.81c-1.23 3.52-9.88 28.51-9.36 34.09.25 2.66.73 6.44.92 7.9q.07.6.05 1.2c-.62 13.84 10.7 20.99 18.11 12.4.27-.3.66-.5 1.07-.5.75 0 1.35.6 1.35 1.34v.5l-.02.3c-1.78 11.22 7.4 17.12 16.37 12.77 1.1-.53 2.3-.89 3.53-.83l19.37.88q.76.03 1.47.25c12.9 3.75 16.38.79 18.78-9.21l.75-2c.45-1.2 1.6-2 2.88-2q.86.01 1.62.43c8.59 4.59 17.77-1.48 17.3-13.08q-.04-.84.11-1.7c.32-1.73 1-5.81.84-8.65-.67-12.5-10-34.5-10-34.5Z"/></g><mask id="crests-array-path-2-inside-1_23_6984" fill="#fff"><path fill-rule="evenodd" d="M36.7 19.28a21.7 21.7 0 0 0-21.04 16.33L9.45 59.8a16 16 0 0 0 .88 10.58 10 10 0 0 0 .46 6.6c1.74 4.27 5.68 6.7 8.78 5.43a5 5 0 0 0 2.63-2.67q1.42.26 2.92.26H48.8a17 17 0 0 0 1.8-.1 5 5 0 0 0 2.55 2.51c3.1 1.27 7.04-1.16 8.79-5.42.64-1.57.9-3.16.81-4.62 2.5-3.87 3.4-8.8 1.93-13.7l-7.16-23.9a21.7 21.7 0 0 0-20.82-15.5" clip-rule="evenodd"/></mask><path fill="#d47f56" fill-rule="evenodd" d="M36.7 19.28a21.7 21.7 0 0 0-21.04 16.33L9.45 59.8a16 16 0 0 0 .88 10.58 10 10 0 0 0 .46 6.6c1.74 4.27 5.68 6.7 8.78 5.43a5 5 0 0 0 2.63-2.67q1.42.26 2.92.26H48.8a17 17 0 0 0 1.8-.1 5 5 0 0 0 2.55 2.51c3.1 1.27 7.04-1.16 8.79-5.42.64-1.57.9-3.16.81-4.62 2.5-3.87 3.4-8.8 1.93-13.7l-7.16-23.9a21.7 21.7 0 0 0-20.82-15.5" clip-rule="evenodd"/><path fill="#915234" d="m15.66 35.6-2.9-.74zM9.45 59.8l2.9.75zm.88 10.6 2.86.9.34-1.1-.46-1.03zm.46 6.6L8 78.13zm8.78 5.42 1.14 2.78zm2.63-2.67.54-2.95-2.31-.42-.96 2.14zm28.4.17 2.7-1.31-.92-1.9-2.1.22zm2.55 2.5 1.14-2.77zM61.94 77l-2.78-1.14zm.81-4.62-2.52-1.62-.53.82.06.97zm1.93-13.7-2.88.86zm-7.16-23.9-2.88.86zm-41.86.83 2.9.75A18.7 18.7 0 0 1 36.7 22.28v-6a24.7 24.7 0 0 0-23.95 18.58zM9.45 59.8l2.9.74 6.22-24.2-2.91-.74-2.9-.75-6.22 24.2zm.88 10.58 2.74-1.22a13 13 0 0 1-.72-8.62l-2.9-.74-2.9-.75A19 19 0 0 0 7.59 71.6zm.46 6.6 2.77-1.13a7 7 0 0 1-.37-4.57l-2.86-.9-2.87-.9a13 13 0 0 0 .55 8.64zm8.78 5.43-1.14-2.77c-.44.18-1.19.2-2.18-.42a7 7 0 0 1-2.69-3.37L10.8 77 8 78.13a13 13 0 0 0 5.08 6.2c2.19 1.36 4.96 1.96 7.62.87zm2.63-2.67-2.73-1.23c-.3.66-.68.98-1.04 1.13l1.14 2.77 1.14 2.78a8 8 0 0 0 4.23-4.22zm2.92.26v-3q-1.23 0-2.38-.21l-.54 2.95-.53 2.95q1.68.3 3.45.31zm23.68 0v-3H25.12v6H48.8zm1.8-.1-.32-2.98q-.72.08-1.48.08v6a20 20 0 0 0 2.12-.11zm0 0-2.7 1.31a8 8 0 0 0 4.12 3.98l1.13-2.78 1.14-2.77c-.34-.14-.7-.44-1-1.04zm2.55 2.51-1.13 2.78c2.65 1.09 5.43.49 7.61-.86a13 13 0 0 0 5.08-6.2L61.94 77l-2.78-1.14a7 7 0 0 1-2.68 3.37c-1 .62-1.75.6-2.2.42zM61.94 77l2.77 1.13c.8-1.96 1.15-4 1.04-5.92l-3 .17-3 .17a8 8 0 0 1-.59 3.31zm2.74-18.32-2.88.86c1.2 4.02.47 8.04-1.57 11.22l2.52 1.62L65.28 74c2.93-4.57 4-10.39 2.27-16.18zm-7.16-23.9-2.88.86 7.16 23.9 2.88-.86 2.87-.86-7.16-23.9zM36.7 19.28v3c8.28 0 15.57 5.43 17.94 13.36l2.88-.86 2.87-.86A24.7 24.7 0 0 0 36.7 16.28z" mask="url(#crests-array-path-2-inside-1_23_6984)"/><path fill="#fccf8b" stroke="#915234" stroke-linecap="round" stroke-width="3" d="M38.35 48.28h-10.1a11 11 0 0 0-11 11v8.61a11 11 0 0 0 11 11h10.1a11 11 0 0 0 11-11v-8.6a11 11 0 0 0-11-11Z"/><path fill="#fccf8b" stroke="#915234" stroke-width="3" d="M41.7 28.98a4.95 4.95 0 0 1 1.88 6.75l-1.3 2.33-8.64-4.86 1.32-2.33a4.95 4.95 0 0 1 6.74-1.89Zm-21.8 2.59c-2 1.86-2.12 5-.26 7l1.82 1.96 7.26-6.75-1.83-1.96c-1.86-2-5-2.11-7-.25Z"/><path fill="#fccf8b" stroke="#915234" stroke-width="3" d="M30.93 31.3a11.03 11.03 0 0 1 12.24 9.66l.76 6.42-21.9 2.6-.76-6.43a11 11 0 0 1 9.66-12.24Z"/><path fill="#d47f56" stroke="#915234" stroke-linecap="round" stroke-width="3" d="M19.82 64.7V52.86c0-.38-.46-.6-.75-.34-3.4 2.99-5.24 4.73-4.74 13.95a6 6 0 0 0 2.03 4.12l2.42 2.15a3.19 3.19 0 0 0 4.38-4.64l-3.29-3.28a.2.2 0 0 1-.05-.12Z"/><path fill="#d47f56" stroke="#915234" stroke-width="3" d="M13.44 68.51c1-.4 2.25-.27 3.54.53 1.3.8 2.52 2.2 3.29 4.08.76 1.87.88 3.74.52 5.21-.36 1.48-1.16 2.45-2.16 2.86s-2.25.28-3.54-.52a8.6 8.6 0 0 1-3.29-4.08 8.6 8.6 0 0 1-.52-5.22c.36-1.47 1.16-2.45 2.16-2.86Z"/><path fill="#d47f56" stroke="#915234" stroke-linecap="round" stroke-width="3" d="M51.6 64.22V51.39c3.75 3.45 5.82 4.74 5.27 14.77A5.7 5.7 0 0 1 55 70.03l-2.3 2.13a3.13 3.13 0 0 1-4.38-4.46l3.23-3.36a.2.2 0 0 0 .05-.12Z"/><path fill="#d47f56" stroke="#915234" stroke-width="3" d="M58.54 68.51c-1-.4-2.25-.27-3.55.53s-2.51 2.2-3.28 4.08a8.6 8.6 0 0 0-.52 5.21c.36 1.48 1.16 2.45 2.16 2.86s2.25.28 3.54-.52a8.6 8.6 0 0 0 3.28-4.08c.77-1.88.89-3.74.53-5.22-.37-1.47-1.16-2.45-2.16-2.86Z"/><mask id="crests-array-path-12-inside-2_23_6984" fill="#fff"><path d="M36.52 19.28c9.6 0 18.06 6.3 20.81 15.5l7.16 23.9c1.47 4.9.56 9.83-1.93 13.7.08 1.46-.17 3.05-.81 4.62-1.75 4.26-5.68 6.7-8.79 5.42a5 5 0 0 1-2.55-2.5q-.9.09-1.8.09H24.93q-1.5-.01-2.92-.26a5 5 0 0 1-2.63 2.67c-3.1 1.27-7.03-1.16-8.78-5.42a10 10 0 0 1-.46-6.6 16 16 0 0 1-.88-10.6l6.21-24.2a21.7 21.7 0 0 1 21.05-16.32"/></mask><path fill="#915234" d="M36.52 19.28v-3zm20.81 15.5-2.87.86zm7.16 23.9 2.87-.86zm-1.93 13.7-2.52-1.62-.53.82.05.97zM61.75 77l2.77 1.13zm-8.79 5.42-1.14 2.78zm-2.55-2.5 2.7-1.31-.92-1.9-2.1.22zm-1.8.09v3zm-23.68 0v3zm-2.92-.26.54-2.95-2.31-.42-.96 2.14zm-2.63 2.67 1.14 2.78zM10.6 77l-2.78 1.13zm-.46-6.6 2.86.9.34-1.1-.46-1.03zm-.88-10.6-2.9-.74zm6.21-24.2 2.9.76zm21.05-16.32v3c8.27 0 15.56 5.43 17.94 13.36l2.87-.86 2.87-.86a24.7 24.7 0 0 0-23.68-17.64zm20.81 15.5-2.87.86 7.15 23.9 2.88-.86 2.87-.86-7.16-23.9zm7.16 23.9-2.88.86c1.2 4.02.47 8.04-1.57 11.22l2.52 1.62 2.52 1.63a19.5 19.5 0 0 0 2.28-16.19zm-1.93 13.7-3 .17c.06 1-.11 2.14-.59 3.3L61.75 77l2.77 1.13c.8-1.96 1.14-4 1.03-5.92zM61.75 77l-2.78-1.14a7 7 0 0 1-2.68 3.37c-1 .62-1.75.6-2.2.42l-1.13 2.77-1.14 2.78c2.66 1.09 5.44.49 7.62-.86a13 13 0 0 0 5.08-6.2zm-8.79 5.42 1.14-2.77c-.34-.14-.7-.44-1-1.04l-2.7 1.3-2.7 1.3a8 8 0 0 0 4.12 3.99zm-2.55-2.5-.32-2.99q-.73.08-1.48.08v6a20 20 0 0 0 2.12-.11zm-1.8.09v-3H24.93v6h23.68zm-23.68 0v-3q-1.23 0-2.38-.21L22 79.75l-.53 2.95q1.68.3 3.45.31zm-2.92-.26-2.73-1.23c-.3.66-.68.98-1.03 1.13l1.13 2.77 1.14 2.78a8 8 0 0 0 4.23-4.22zm-2.63 2.67-1.13-2.77c-.45.18-1.2.2-2.2-.42a7 7 0 0 1-2.67-3.37L10.6 77l-2.78 1.13a13 13 0 0 0 5.09 6.2c2.18 1.36 4.95 1.96 7.6.87zM10.6 77l2.78-1.14a7 7 0 0 1-.38-4.57l-2.86-.9-2.86-.9c-.84 2.65-.64 5.76.54 8.64zm-.46-6.6 2.74-1.23a13 13 0 0 1-.71-8.62l-2.9-.74-2.92-.75A19 19 0 0 0 7.4 71.61zm-.88-10.6 2.9.75 6.22-24.2-2.9-.74-2.91-.75-6.22 24.2zm6.21-24.2 2.9.76a18.7 18.7 0 0 1 18.15-14.08v-6a24.7 24.7 0 0 0-23.95 18.58z" mask="url(#crests-array-path-12-inside-2_23_6984)"/><mask id="crests-array-path-14-inside-3_23_6984" fill="#fff"><path fill-rule="evenodd" d="M76.93 19.28c9.92 0 18.58 6.72 21.05 16.33l6.2 24.2a16 16 0 0 1-.87 10.58 10 10 0 0 1-.46 6.6c-1.75 4.27-5.68 6.7-8.78 5.43a5 5 0 0 1-2.64-2.67q-1.41.26-2.91.26H64.84a17 17 0 0 1-1.8-.1 5 5 0 0 1-2.56 2.51c-3.1 1.27-7.03-1.16-8.78-5.42-.64-1.57-.9-3.16-.82-4.62a16.5 16.5 0 0 1-1.92-13.7l7.16-23.9a21.7 21.7 0 0 1 20.81-15.5" clip-rule="evenodd"/></mask><path fill="#d47f56" fill-rule="evenodd" d="M76.93 19.28c9.92 0 18.58 6.72 21.05 16.33l6.2 24.2a16 16 0 0 1-.87 10.58 10 10 0 0 1-.46 6.6c-1.75 4.27-5.68 6.7-8.78 5.43a5 5 0 0 1-2.64-2.67q-1.41.26-2.91.26H64.84a17 17 0 0 1-1.8-.1 5 5 0 0 1-2.56 2.51c-3.1 1.27-7.03-1.16-8.78-5.42-.64-1.57-.9-3.16-.82-4.62a16.5 16.5 0 0 1-1.92-13.7l7.16-23.9a21.7 21.7 0 0 1 20.81-15.5" clip-rule="evenodd"/><path fill="#915234" d="m97.98 35.6 2.9-.74zm6.2 24.2-2.9.75zm-.87 10.6-2.86.9-.34-1.1.46-1.03zm-.46 6.6 2.78 1.13zm-8.78 5.42-1.14 2.78zm-2.64-2.67-.53-2.95 2.3-.42.97 2.14zm-28.4.17-2.7-1.31.93-1.9 2.1.22zm-2.55 2.5-1.13-2.77zM51.7 77l2.78-1.14zm-.82-4.62 2.53-1.62.53.82-.06.97zm-1.92-13.7 2.87.86zm7.16-23.9 2.87.86zm41.86.83-2.91.75a18.7 18.7 0 0 0-18.14-14.08v-6a24.7 24.7 0 0 1 23.95 18.58zm6.2 24.2-2.9.74-6.21-24.2 2.9-.74 2.91-.75 6.21 24.2zm-.87 10.58-2.74-1.22c1.15-2.59 1.5-5.58.71-8.62l2.9-.74 2.91-.75c1.13 4.4.64 8.78-1.04 12.55zm-.46 6.6-2.78-1.13c.72-1.76.74-3.42.38-4.57l2.86-.9 2.86-.9c.84 2.65.64 5.76-.55 8.64zm-8.78 5.43 1.13-2.77c.45.18 1.2.2 2.19-.42 1-.61 2.02-1.76 2.68-3.37l2.78 1.14 2.78 1.13a13 13 0 0 1-5.09 6.2c-2.18 1.36-4.95 1.96-7.61.87zm-2.64-2.67 2.74-1.23c.3.66.68.98 1.03 1.13l-1.13 2.77-1.14 2.78a8 8 0 0 1-4.23-4.22zm-2.91.26v-3q1.23 0 2.38-.21l.53 2.95.54 2.95q-1.69.3-3.45.31zm-23.68 0v-3h23.68v6H64.84zm-1.8-.1.32-2.98q.72.08 1.48.08v6a20 20 0 0 1-2.12-.11zm0 0 2.7 1.31a8 8 0 0 1-4.12 3.98l-1.14-2.78-1.13-2.77c.34-.14.7-.44.99-1.04zm-2.56 2.51 1.14 2.78c-2.66 1.09-5.43.49-7.61-.86a13 13 0 0 1-5.09-6.2L51.7 77l2.78-1.14a7 7 0 0 0 2.68 3.37c1 .62 1.74.6 2.19.42zM51.7 77l-2.78 1.13c-.8-1.96-1.14-4-1.03-5.92l3 .17 2.99.17c-.06.99.12 2.14.6 3.31zm-2.74-18.32 2.87.86a13.5 13.5 0 0 0 1.58 11.22l-2.53 1.62L48.36 74a19.5 19.5 0 0 1-2.27-16.18zm7.16-23.9 2.87.86-7.16 23.9-2.87-.86-2.87-.86 7.15-23.9zm20.81-15.5v3A18.7 18.7 0 0 0 59 35.64l-2.87-.86-2.88-.86a24.7 24.7 0 0 1 23.7-17.64z" mask="url(#crests-array-path-14-inside-3_23_6984)"/><path fill="#fccf8b" stroke="#915234" stroke-linecap="round" stroke-width="3" d="M75.28 48.28h10.1a11 11 0 0 1 11 11v8.61a11 11 0 0 1-11 11h-10.1a11 11 0 0 1-11-11v-8.6a11 11 0 0 1 11-11Z"/><path fill="#fccf8b" stroke="#915234" stroke-width="3" d="M71.93 28.98a4.95 4.95 0 0 0-1.88 6.75l1.31 2.33L80 33.2l-1.31-2.33a4.95 4.95 0 0 0-6.75-1.89Zm21.81 2.59c2 1.86 2.12 5 .25 7l-1.82 1.96-7.25-6.75 1.82-1.96c1.86-2 5-2.11 7-.25Z"/><path fill="#fccf8b" stroke="#915234" stroke-width="3" d="M82.71 31.3a11.03 11.03 0 0 0-12.25 9.66l-.76 6.42 21.9 2.6.76-6.43a11 11 0 0 0-9.65-12.24Z"/><path fill="#d47f56" stroke="#915234" stroke-linecap="round" stroke-width="3" d="M93.81 64.7V52.86c0-.38.46-.6.76-.34 3.4 2.99 5.24 4.73 4.73 13.95a6 6 0 0 1-2.02 4.12l-2.43 2.15a3.19 3.19 0 0 1-4.37-4.64l3.28-3.28a.2.2 0 0 0 .05-.12Z"/><path fill="#d47f56" stroke="#915234" stroke-width="3" d="M100.2 68.51c-1-.4-2.25-.27-3.55.53s-2.51 2.2-3.28 4.08a8.6 8.6 0 0 0-.52 5.21C93.2 79.81 94 80.78 95 81.2s2.25.28 3.54-.52a8.6 8.6 0 0 0 3.28-4.08c.77-1.88.89-3.74.53-5.22-.37-1.47-1.17-2.45-2.16-2.86Z"/><path fill="#d47f56" stroke="#915234" stroke-linecap="round" stroke-width="3" d="M62.03 64.22V51.39c-3.75 3.45-5.81 4.74-5.26 14.77a5.7 5.7 0 0 0 1.85 3.87l2.3 2.13a3.13 3.13 0 0 0 4.38-4.46l-3.22-3.36a.2.2 0 0 1-.05-.12Z"/><path fill="#d47f56" stroke="#915234" stroke-width="3" d="M55.1 68.51c1-.4 2.25-.27 3.54.53 1.3.8 2.52 2.2 3.29 4.08.76 1.87.88 3.74.52 5.21-.36 1.48-1.16 2.45-2.16 2.86s-2.25.28-3.54-.52a8.6 8.6 0 0 1-3.29-4.08 8.6 8.6 0 0 1-.52-5.22c.36-1.47 1.16-2.45 2.16-2.86Z"/><mask id="crests-array-path-24-inside-4_23_6984" fill="#fff"><path d="M77.12 19.28c-9.6 0-18.06 6.3-20.81 15.5l-7.16 23.9a16.5 16.5 0 0 0 1.93 13.7 11 11 0 0 0 .81 4.62c1.75 4.26 5.68 6.7 8.78 5.42 1.14-.46 2-1.35 2.56-2.5q.88.09 1.8.09H88.7q1.5-.01 2.92-.26a5 5 0 0 0 2.63 2.67c3.1 1.27 7.04-1.16 8.79-5.42a10 10 0 0 0 .46-6.6 16 16 0 0 0 .87-10.6l-6.2-24.2a21.7 21.7 0 0 0-21.05-16.32"/></mask><path fill="#915234" d="M77.12 19.28v-3zm-20.81 15.5 2.87.86zm-7.16 23.9-2.88-.86zm1.93 13.7 2.52-1.62.53.82-.06.97zm.81 4.62-2.78 1.13zm8.78 5.42 1.14 2.78zm2.56-2.5-2.7-1.31.92-1.9 2.1.22zm1.8.09v3zm23.67 0v3zm2.92-.26-.53-2.95 2.3-.42.97 2.14zm2.63 2.67-1.13 2.78zm8.79-5.42 2.77 1.13zm.46-6.6-2.86.9-.35-1.1.47-1.03zm.87-10.6 2.91-.74zm-6.2-24.2-2.91.76zM77.11 19.29v3a18.7 18.7 0 0 0-17.94 13.36l-2.87-.86-2.88-.86a24.7 24.7 0 0 1 23.69-17.64zM56.3 34.79l2.87.86-7.16 23.9-2.87-.86-2.88-.86 7.16-23.9zm-7.16 23.9 2.87.86a13.5 13.5 0 0 0 1.58 11.22l-2.52 1.62-2.53 1.63a19.5 19.5 0 0 1-2.28-16.19zm1.93 13.7 3 .17c-.06 1 .1 2.14.59 3.3L51.89 77l-2.78 1.13c-.8-1.96-1.14-4-1.03-5.92zm.81 4.62 2.78-1.14a7 7 0 0 0 2.68 3.37c1 .62 1.74.6 2.19.42l1.13 2.77 1.14 2.78c-2.66 1.09-5.43.49-7.61-.86a13 13 0 0 1-5.09-6.2zm8.78 5.42-1.13-2.77a2 2 0 0 0 .99-1.04l2.7 1.3 2.7 1.31a8 8 0 0 1-4.12 3.98zm2.56-2.5.31-2.99q.75.08 1.48.08v6q-1.08 0-2.11-.11zm1.8.09v-3H88.7v6H65.02zm23.67 0v-3q1.23 0 2.39-.21l.53 2.95.54 2.95q-1.68.3-3.46.31zm2.92-.26 2.74-1.23c.3.66.68.98 1.03 1.13l-1.14 2.77-1.13 2.78a8 8 0 0 1-4.23-4.22zm2.63 2.67 1.14-2.77c.44.18 1.19.2 2.19-.42 1-.61 2.02-1.76 2.68-3.37l2.78 1.14 2.77 1.13a13 13 0 0 1-5.08 6.2c-2.18 1.36-4.96 1.96-7.61.87zm8.79-5.42-2.78-1.14c.72-1.76.74-3.42.38-4.57l2.86-.9 2.86-.9a13 13 0 0 1-.55 8.64zm.46-6.6-2.74-1.23a13 13 0 0 0 .7-8.62l2.91-.74 2.91-.75c1.13 4.4.64 8.78-1.04 12.55zm.87-10.6-2.9.75-6.21-24.2 2.9-.74 2.9-.75 6.22 24.2zm-6.2-24.2-2.91.76a18.7 18.7 0 0 0-18.14-14.08v-6a24.7 24.7 0 0 1 23.95 18.58z" mask="url(#crests-array-path-24-inside-4_23_6984)"/><mask id="crests-array-path-26-inside-5_23_6984" fill="#fff"><path fill-rule="evenodd" d="M56.57 32.42a21.7 21.7 0 0 0-21.04 16.32l-6.21 24.2c-.96 3.72-.55 7.4.87 10.59a10 10 0 0 0 .46 6.6c1.75 4.27 5.68 6.7 8.79 5.43a5 5 0 0 0 2.63-2.68q1.41.26 2.92.26h23.68a17 17 0 0 0 1.8-.1 5 5 0 0 0 2.55 2.52c3.1 1.27 7.04-1.16 8.78-5.43.64-1.57.9-3.16.82-4.62a16.4 16.4 0 0 0 1.92-13.7l-7.16-23.9a21.7 21.7 0 0 0-20.8-15.5" clip-rule="evenodd"/></mask><path fill="#d47f56" fill-rule="evenodd" d="M56.57 32.42a21.7 21.7 0 0 0-21.04 16.32l-6.21 24.2c-.96 3.72-.55 7.4.87 10.59a10 10 0 0 0 .46 6.6c1.75 4.27 5.68 6.7 8.79 5.43a5 5 0 0 0 2.63-2.68q1.41.26 2.92.26h23.68a17 17 0 0 0 1.8-.1 5 5 0 0 0 2.55 2.52c3.1 1.27 7.04-1.16 8.78-5.43.64-1.57.9-3.16.82-4.62a16.4 16.4 0 0 0 1.92-13.7l-7.16-23.9a21.7 21.7 0 0 0-20.8-15.5" clip-rule="evenodd"/><path fill="#915234" d="m35.53 48.74-2.9-.74zm-6.21 24.2 2.9.75zm.87 10.59 2.86.9.35-1.09-.47-1.04zm.46 6.6-2.77 1.14zm8.79 5.43 1.13 2.77zm2.63-2.68.53-2.95-2.3-.42-.97 2.14zm28.4.17 2.7-1.3-.92-1.9-2.1.21zm2.55 2.5 1.14-2.77zm8.78-5.42-2.77-1.14zm.82-4.62-2.53-1.62-.52.82.05.98zm1.92-13.7-2.87.87zm-7.16-23.9-2.87.86zm-41.85.83 2.9.75a18.7 18.7 0 0 1 18.14-14.07v-6A24.7 24.7 0 0 0 32.62 48zm-6.21 24.2 2.9.75 6.21-24.2-2.9-.75-2.9-.74-6.22 24.2zm.87 10.59 2.74-1.23a13 13 0 0 1-.7-8.61l-2.91-.75-2.91-.74a19 19 0 0 0 1.04 12.55zm.46 6.6 2.78-1.14a7 7 0 0 1-.38-4.56l-2.86-.9-2.86-.9c-.83 2.65-.63 5.75.55 8.64zm8.79 5.43-1.14-2.78c-.44.18-1.19.2-2.19-.41a7 7 0 0 1-2.68-3.38l-2.78 1.14-2.77 1.14a13 13 0 0 0 5.08 6.2c2.18 1.35 4.96 1.95 7.61.86zm2.63-2.68-2.74-1.23c-.3.66-.67.98-1.03 1.13l1.14 2.78 1.13 2.77a8 8 0 0 0 4.24-4.22zm2.92.26v-3q-1.23 0-2.39-.2l-.53 2.94-.53 2.96q1.68.3 3.45.3zm23.68 0v-3H44.99v6h23.68zm1.8-.1-.32-2.98q-.73.08-1.48.08v6a20 20 0 0 0 2.11-.1zm0 0-2.7 1.31a8 8 0 0 0 4.11 3.98l1.14-2.77 1.14-2.78c-.34-.14-.7-.44-1-1.04zm2.55 2.52-1.14 2.77c2.66 1.1 5.44.49 7.62-.86a13 13 0 0 0 5.08-6.2l-2.78-1.14-2.77-1.14a7 7 0 0 1-2.69 3.38c-1 .61-1.74.6-2.18.4zm8.78-5.43 2.78 1.14c.8-1.96 1.14-4 1.03-5.93l-3 .17-2.99.18c.06.98-.11 2.13-.6 3.3zm2.74-18.31-2.87.86c1.2 4.02.47 8.03-1.58 11.21l2.53 1.62 2.52 1.62a19.5 19.5 0 0 0 2.28-16.18zm-7.16-23.9-2.87.85 7.16 23.9 2.87-.86 2.88-.86-7.16-23.9zm-20.8-15.5v3c8.26 0 15.56 5.43 17.93 13.35l2.87-.86 2.88-.86a24.7 24.7 0 0 0-23.69-17.63z" mask="url(#crests-array-path-26-inside-5_23_6984)"/><path fill="#fccf8b" stroke="#915234" stroke-linecap="round" stroke-width="3" d="M62.4 61.53H52.3a11 11 0 0 0-11 11v8.61a11 11 0 0 0 11 11h10.1a11 11 0 0 0 11-11v-8.6a11 11 0 0 0-11-11Z"/><path fill="#fccf8b" stroke="#915234" stroke-width="3" d="M67.86 42.66a4.95 4.95 0 0 1 1.08 6.92l-1.58 2.16-8-5.84 1.58-2.16a4.95 4.95 0 0 1 6.92-1.08Zm-21.96 0a4.95 4.95 0 0 0-1.07 6.92l1.58 2.16 8-5.84-1.59-2.16a4.95 4.95 0 0 0-6.92-1.08Z"/><path fill="#fccf8b" stroke="#915234" stroke-width="3" d="M56.89 43.7c6.09 0 11.02 4.93 11.02 11.02v6.47H45.86v-6.47c0-6.09 4.94-11.02 11.03-11.02Z"/><path fill="#d47f56" stroke="#915234" stroke-linecap="round" stroke-width="3" d="M42.4 77.83V66c0-.4-.47-.6-.76-.34-3.4 2.98-5.24 4.72-4.73 13.94a6 6 0 0 0 2.02 4.12l2.42 2.15a3.19 3.19 0 0 0 4.38-4.64l-3.29-3.28a.2.2 0 0 1-.05-.12Z"/><path fill="#d47f56" stroke="#915234" stroke-width="3" d="M33.3 81.65c1-.41 2.26-.28 3.55.52 1.3.8 2.52 2.21 3.28 4.08.77 1.87.89 3.74.53 5.22-.37 1.47-1.16 2.45-2.16 2.85-1 .41-2.25.28-3.55-.52a8.6 8.6 0 0 1-3.28-4.08 8.6 8.6 0 0 1-.52-5.21c.36-1.48 1.16-2.45 2.16-2.86Z"/><path fill="#d47f56" stroke="#915234" stroke-linecap="round" stroke-width="3" d="M71.47 77.35V65.56c0-.4.48-.6.78-.33 3.25 2.97 5 4.74 4.49 14.06a5.7 5.7 0 0 1-1.86 3.88l-2.3 2.13a3.13 3.13 0 0 1-4.38-4.47l3.23-3.36a.2.2 0 0 0 .04-.12Z"/><path fill="#d47f56" stroke="#915234" stroke-width="3" d="M78.4 81.65c-1-.41-2.25-.28-3.54.52a8.5 8.5 0 0 0-3.28 4.08 8.6 8.6 0 0 0-.52 5.22c.36 1.47 1.16 2.45 2.15 2.85 1 .41 2.25.28 3.55-.52a8.6 8.6 0 0 0 3.28-4.08c.77-1.87.88-3.74.52-5.21-.36-1.48-1.16-2.45-2.16-2.86Z"/><mask id="crests-array-path-36-inside-6_23_6984" fill="#fff"><path d="M56.38 32.42c9.6 0 18.06 6.3 20.82 15.5l7.16 23.9a16.5 16.5 0 0 1-1.93 13.7c.08 1.45-.18 3.04-.82 4.6-1.74 4.28-5.68 6.7-8.78 5.44a5 5 0 0 1-2.55-2.51q-.9.1-1.8.1H44.8q-1.5 0-2.92-.27a5 5 0 0 1-2.63 2.68c-3.1 1.27-7.04-1.16-8.78-5.43a10 10 0 0 1-.46-6.6 16 16 0 0 1-.88-10.59l6.2-24.2a21.7 21.7 0 0 1 21.05-16.32"/></mask><path fill="#915234" d="M56.38 32.42v-3zm20.82 15.5-2.88.85zm7.16 23.9 2.87-.87zm-1.93 13.7-2.53-1.63-.52.82.05.98zm-.82 4.6 2.78 1.15zm-8.78 5.44-1.14 2.77zm-2.55-2.51 2.7-1.31-.92-1.9-2.1.22zm-28.4-.17.53-2.95-2.3-.42-.97 2.14zm-2.63 2.68 1.14 2.77zm-8.78-5.43-2.78 1.14zm-.46-6.6 2.86.9.34-1.09-.46-1.04zm-.88-10.59-2.9-.75zm6.2-24.2 2.91.75zm21.05-16.32v3c8.28 0 15.57 5.43 17.94 13.35l2.88-.86 2.87-.86a24.7 24.7 0 0 0-23.69-17.63zm20.82 15.5-2.88.85 7.16 23.9 2.88-.86 2.87-.86-7.16-23.9zm7.16 23.9-2.88.86c1.2 4.02.47 8.03-1.58 11.21l2.53 1.63 2.52 1.62a19.5 19.5 0 0 0 2.28-16.19zm-1.93 13.7-3 .17c.06.98-.11 2.13-.6 3.3l2.78 1.14 2.78 1.14c.8-1.96 1.14-4 1.03-5.93zm-.82 4.6L78.84 89a7 7 0 0 1-2.69 3.38c-1 .61-1.74.6-2.18.4l-1.14 2.79-1.14 2.77c2.66 1.1 5.43.49 7.62-.86a13 13 0 0 0 5.08-6.2zm-8.78 5.44 1.14-2.78c-.34-.14-.7-.44-1-1.04l-2.7 1.3-2.7 1.31c.83 1.7 2.2 3.2 4.12 3.98zm-2.55-2.51-.32-2.99q-.75.08-1.48.08v6a20 20 0 0 0 2.11-.11zm-1.8.1v-3H44.8v6h23.68zm-23.68 0v-3q-1.23 0-2.39-.22l-.53 2.95-.53 2.95q1.67.3 3.45.31zm-2.92-.27-2.74-1.23c-.3.66-.68.99-1.03 1.13l1.14 2.78 1.14 2.77a8 8 0 0 0 4.23-4.22zm-2.63 2.68-1.14-2.78c-.44.18-1.19.2-2.18-.41a7 7 0 0 1-2.69-3.38l-2.77 1.14-2.78 1.14a13 13 0 0 0 5.08 6.2c2.18 1.35 4.96 1.95 7.62.86zm-8.78-5.43 2.77-1.14a7 7 0 0 1-.37-4.56l-2.86-.9-2.87-.9c-.83 2.64-.63 5.75.55 8.64zm-.46-6.6 2.74-1.23a13 13 0 0 1-.72-8.61l-2.9-.75-2.9-.75a19 19 0 0 0 1.04 12.56zm-.88-10.59 2.9.75 6.21-24.2-2.9-.75-2.9-.74-6.22 24.2zm6.2-24.2 2.91.75a18.7 18.7 0 0 1 18.14-14.07v-6A24.7 24.7 0 0 0 32.43 48z" mask="url(#crests-array-path-36-inside-6_23_6984)"/><mask id="crests-array-path-38-inside-7_23_6984" fill="#fff"><path d="M77.63 19.28c9.91 0 18.57 6.72 21.04 16.33l6.21 24.2c.94 3.65.55 7.27-.8 10.41a9.7 9.7 0 0 1-.35 6.93c-1.75 4.27-5.68 6.7-8.79 5.43l-.24-.1-.13-.06a5 5 0 0 1-2.62-2.64q-1.33.23-2.74.23H85.4a17 17 0 0 1-2.28 5.5 11 11 0 0 1-.81 4.62c-1.1 2.66-3.03 4.61-5.1 5.39a5 5 0 0 1-4.06.2 5 5 0 0 1-2.6-2.63q-.69.05-1.38.05H45.31q-1.41 0-2.75-.23a5 5 0 0 1-2.62 2.65l-.13.04-.24.11c-3.1 1.27-7.03-1.16-8.78-5.42a9.7 9.7 0 0 1-.35-6.93q-.69-1.62-1.03-3.35h-3.97q-1.42 0-2.74-.23a5 5 0 0 1-2.62 2.64l-.13.05-.24.11c-3.1 1.27-7.04-1.16-8.79-5.43a9.7 9.7 0 0 1-.35-6.93 16 16 0 0 1-.8-10.41l6.2-24.2a21.7 21.7 0 0 1 21.05-16.33h.19c8.75 0 16.56 5.24 19.95 13.14h.32a21.7 21.7 0 0 1 19.96-13.14z"/></mask><path fill="#40396e" d="M77.63 19.28v-3.3zm21.04 16.33 3.2-.82zm6.21 24.2 3.2-.82zm-.8 10.41-3.03-1.3a3.3 3.3 0 0 0-.07 2.45zm-.35 6.93 3.05 1.25zm-8.79 5.43-1.25 3.05zm-.24-.1 1.43-2.98-.27-.12zm-.13-.06-1.25 3.06zm-2.62-2.64 3-1.37a3.3 3.3 0 0 0-3.55-1.89zm-2.74.23v3.3zm-3.81 0v-3.3a3.3 3.3 0 0 0-3.23 2.61zm-2.28 5.5-2.77-1.78a3.3 3.3 0 0 0-.52 1.97zm-.81 4.62 3.05 1.25zm-5.1 5.39-1.16-3.09-.19.08zm-4.06.2-1.25 3.05zm-2.6-2.63 2.99-1.38a3.3 3.3 0 0 0-3.26-1.91zm-1.38.05v3.3zm-23.86 0v3.3zm-2.75-.23.55-3.25a3.3 3.3 0 0 0-3.55 1.88zm-2.62 2.65 1.25 3.05zm-.13.04-1.15-3.09-.27.12zm-.24.11 1.25 3.06zM30.8 90.3l-3.06 1.25zm-.35-6.93 3.1 1.14a3.3 3.3 0 0 0-.07-2.45zM29.41 80l3.24-.62a3.3 3.3 0 0 0-3.24-2.68zm-3.97 0v3.3zm-2.74-.23.55-3.26a3.3 3.3 0 0 0-3.56 1.9zm-2.62 2.64 1.25 3.06zm-.13.05-1.16-3.1-.27.13zm-.24.11 1.25 3.05zm-8.79-5.43L7.87 78.4zm-.35-6.93 3.1 1.15c.3-.8.27-1.68-.07-2.46zm-.8-10.41-3.2-.82zm6.2-24.2-3.19-.82zm21.05-16.33v-3.3zm.1 0-.02 3.3h.03zm.09 0v-3.3zm19.95 13.14-3.03 1.3c.52 1.2 1.7 2 3.02 2zm.32 0-.06 3.3a3.3 3.3 0 0 0 3.1-2zm19.96-13.14v-3.3zm.1 0-.02 3.3h.03zm.09 0v3.3c8.4 0 15.75 5.7 17.84 13.85l3.2-.82 3.2-.82a25 25 0 0 0-24.24-18.8zM98.67 35.6l-3.2.82 6.22 24.2 3.2-.82 3.19-.82-6.21-24.2zm6.21 24.2-3.2.82c.75 2.91.45 5.78-.64 8.28l3.03 1.31 3.03 1.31c1.64-3.79 2.1-8.15.98-12.54zm-.8 10.41-3.1 1.15c.4 1.06.43 2.73-.3 4.53l3.05 1.25 3.05 1.25a13 13 0 0 0 .39-9.32zm-.35 6.93-3.06-1.25a7 7 0 0 1-2.56 3.24c-.94.58-1.58.52-1.92.39l-1.25 3.05-1.25 3.05c2.77 1.14 5.65.5 7.89-.88a13.4 13.4 0 0 0 5.2-6.35zm-8.79 5.43 1.25-3.05q.03 0 0 0l-.06-.03-1.43 2.97-1.42 2.98.41.18zm-.24-.1 1.16-3.1-.08-.03h-.03v-.01l.07.03-1.25 3.05-1.25 3.06.21.08h.03-.01zm-.13-.06 1.25-3.05c-.27-.11-.6-.37-.86-.96l-3 1.37-3.01 1.37a8.3 8.3 0 0 0 4.37 4.33zm-2.62-2.64-.55-3.26q-1.07.2-2.19.19v6.6q1.7 0 3.3-.28zm-2.74.23v-3.3H85.4v6.6h3.81zm-3.81 0-3.23-.69a13 13 0 0 1-1.82 4.41l2.78 1.78 2.77 1.79a20 20 0 0 0 2.72-6.6zm-2.28 5.5-3.29.2c.05.93-.11 2.04-.57 3.17l3.05 1.25 3.05 1.25c.82-2 1.17-4.08 1.06-6.06zm-.81 4.62-3.05-1.25c-.81 1.97-2.16 3.15-3.21 3.55l1.17 3.09 1.16 3.09c3.07-1.16 5.61-3.88 6.98-7.23zm-5.1 5.39-1.35-3.01c-.7.32-1.17.27-1.46.15l-1.25 3.05-1.25 3.06c2.29.93 4.67.66 6.67-.24zm-4.06.2 1.25-3.06c-.27-.11-.6-.36-.86-.95l-3 1.38-3 1.37a8.3 8.3 0 0 0 4.36 4.3zm-2.6-2.63-.27-3.3q-.56.06-1.1.05v6.6q.83 0 1.63-.06zm-1.38.05v-3.3H45.31v6.6h23.86zm-23.86 0v-3.3q-1.12 0-2.2-.18l-.55 3.25-.55 3.25q1.6.28 3.3.28zm-2.75-.23-3-1.37c-.27.6-.6.85-.87.96l1.25 3.06 1.26 3.05a8.3 8.3 0 0 0 4.37-4.33zm-2.62 2.65L38.7 92.5l.08-.03h.02-.04q-.03.03-.1.04l1.16 3.1 1.16 3.08-.02.01h-.01.03l.22-.09zm-.13.04-1.43-2.97-.04.02-.03.01h.01l1.25 3.05 1.25 3.06.42-.2zm-.24.11-1.25-3.05c-.33.14-.98.19-1.91-.4a7 7 0 0 1-2.57-3.22l-3.05 1.25-3.06 1.25a13.4 13.4 0 0 0 5.2 6.34c2.25 1.39 5.12 2.02 7.9.89zm-8.77-5.4 3.05-1.25a6.5 6.5 0 0 1-.3-4.54l-3.1-1.14-3.1-1.15a13 13 0 0 0 .4 9.33zm-.35-6.93 3.03-1.31q-.55-1.28-.82-2.66l-3.24.62-3.24.62q.41 2.1 1.24 4.04zM29.41 80v-3.3h-3.97v6.6h3.97zm-3.97 0v-3.3q-1.12 0-2.2-.19l-.54 3.26-.56 3.25q1.6.28 3.3.28zm-2.74-.23-3-1.37c-.28.6-.6.85-.87.96l1.25 3.05 1.25 3.06a8.3 8.3 0 0 0 4.37-4.33zm-2.62 2.64-1.25-3.05.07-.03h.02-.03l-.1.04 1.16 3.1 1.15 3.08-.02.01h-.01.03l.23-.1zm-.13.05-1.43-2.97-.05.02-.03.01h.01l1.26 3.05 1.25 3.05.41-.18zm-.24.11-1.26-3.05c-.33.13-.97.19-1.91-.4a7 7 0 0 1-2.57-3.23l-3.05 1.25-3.05 1.25a13.4 13.4 0 0 0 5.2 6.35c2.24 1.39 5.12 2.02 7.89.88zm-8.79-5.43 3.05-1.25a6.5 6.5 0 0 1-.3-4.53l-3.1-1.15-3.1-1.14a13 13 0 0 0 .4 9.32zm-.35-6.93 3.03-1.3a12.7 12.7 0 0 1-.64-8.3l-3.2-.81-3.19-.82a19.3 19.3 0 0 0 .97 12.54zm-.8-10.41 3.2.82 6.2-24.2-3.2-.82-3.19-.82-6.21 24.2zm6.2-24.2 3.2.82a18.4 18.4 0 0 1 17.85-13.85v-6.6a25 25 0 0 0-24.24 18.8zm21.05-16.33v3.3h-.01.09l.01-3.3.02-3.3h-.11zm.1 0v3.3h.09q.02 0 0 0v-6.6h-.11zm.09 0v3.3c7.42 0 14.04 4.45 16.92 11.14l3.03-1.3 3.04-1.3a25 25 0 0 0-23-15.14zm19.95 13.14v3.3h.26l.06-3.3.06-3.3h-.36zm.32 0 3.03 1.3a18.4 18.4 0 0 1 16.93-11.14v-6.6a25 25 0 0 0-22.99 15.14zm19.96-13.14v3.3q-.02 0 0 0h.08l.01-3.3.02-3.3h-.12zm.1 0v3.3h.09v-6.6h-.12z" mask="url(#crests-array-path-38-inside-7_23_6984)"/><defs><filter id="crests-array-filter0_d_23_6984" width="108.54" height="88.13" x="4.73" y="14.93" color-interpolation-filters="sRGB" filterUnits="userSpaceOnUse"><feFlood flood-opacity="0" result="BackgroundImageFix"/><feColorMatrix in="SourceAlpha" result="hardAlpha" values="0 0 0 0 0 0 0 0 0 0 0 0 0 0 0 0 0 0 127 0"/><feOffset dx="3" dy="3"/><feComposite in2="hardAlpha" operator="out"/><feColorMatrix values="0 0 0 0 0 0 0 0 0 0 0 0 0 0 0 0 0 0 0.4 0"/><feBlend in2="BackgroundImageFix" result="effect1_dropShadow_23_6984"/><feBlend in="SourceGraphic" in2="effect1_dropShadow_23_6984" result="shape"/></filter></defs></svg>