<svg xmlns="http://www.w3.org/2000/svg" fill="none" viewBox="0 0 115 115"><g filter="url(#crests-batch-exports-filter0_d_23_17861)"><path fill="#fff" d="m14.8 46.4 9-13.37a6 6 0 0 1 3.25-2.4l2.95-.88-3.74-6.04a6 6 0 0 1 1.29-7.8l8.17-6.73a6 6 0 0 1 8.56.97l4.72 6.1h3v-.47a9 9 0 0 1 18 0v2.02l2.86.1a10 10 0 0 1 9.64 10v1.35h2.82a6 6 0 0 1 4.97 2.63l9.84 14.5a6 6 0 0 1-4.96 9.37H91.5v27c5.8 0 10.5 4.7 10.5 10.5v3a13.5 13.5 0 0 1-13.5 13.5H25.25c-7.6 0-13.75-6.16-13.75-13.75v-1.25c0-6.9 5.6-12.5 12.5-12.5v-26.5h-4.23a6 6 0 0 1-4.97-9.35"/></g><rect width="79" height="17" x="17.5" y="87.25" fill="#d9d9d9" stroke="#596473" stroke-width="3" rx="8.5"/><rect width="72" height="10" x="21" y="90.75" fill="#76808e" rx="5"/><mask id="crests-batch-exports-path-4-inside-1_23_17861" fill="#fff"><rect width="51" height="51" x="28" y="34.75" rx="2"/></mask><rect width="51" height="51" x="28" y="34.75" fill="#cd965e" stroke="#aa7540" stroke-width="6" mask="url(#crests-batch-exports-path-4-inside-1_23_17861)" rx="2"/><path fill="#cd965e" stroke="#aa7540" stroke-width="3" d="M29.09 36.25h11.23c.4 0 .64.44.42.77l-8.4 13a.5.5 0 0 1-.43.23H20.68a.5.5 0 0 1-.42-.77l8.4-13a.5.5 0 0 1 .43-.23Z"/><mask id="crests-batch-exports-path-6-inside-2_23_17861" fill="#fff"><rect width="45" height="51" x="42" y="34.75" rx="2"/></mask><rect width="45" height="51" x="42" y="34.75" fill="#e7b079" stroke="#aa7540" stroke-width="6" mask="url(#crests-batch-exports-path-6-inside-2_23_17861)" rx="2"/><path fill="#e7b079" stroke="#aa7540" stroke-width="3" d="M45.68 36.25H85.9a.5.5 0 0 1 .42.23l8.41 13a.5.5 0 0 1-.42.77H54.1a.5.5 0 0 1-.42-.23l-8.41-13a.5.5 0 0 1 .42-.77Z"/><circle cx="26" cy="95.75" r="3" fill="#4b5768"/><circle cx="88" cy="95.75" r="3" fill="#4b5768"/><path stroke="#40396e" stroke-linecap="round" stroke-width="3" d="M86 36.25H28.5l-8 12.46a1 1 0 0 0 .83 1.54h8.17v37H26a8.5 8.5 0 0 0 0 17h62a8.5 8.5 0 0 0 0-17h-2v-37h8.06a1 1 0 0 0 .81-1.58z"/><circle cx="46" cy="26.75" r="3" fill="#fff" stroke="#40396e" stroke-width="3"/><circle cx="61" cy="15.75" r="3" fill="#fff" stroke="#40396e" stroke-width="3"/><circle cx="73" cy="26.75" r="3" fill="#fff" stroke="#40396e" stroke-width="3"/><rect width="12" height="6" x="30.01" y="20.96" fill="#fff" stroke="#40396e" stroke-width="3" rx="2.5" transform="rotate(-41.33 30.01 20.96)"/><rect width="12" height="6" x="58.33" y="24.66" fill="#fff" stroke="#40396e" stroke-width="3" rx="2.5" transform="rotate(34.76 58.33 24.66)"/><defs><filter id="crests-batch-exports-filter0_d_23_17861" width="93.5" height="105.97" x="11.5" y="6.78" color-interpolation-filters="sRGB" filterUnits="userSpaceOnUse"><feFlood flood-opacity="0" result="BackgroundImageFix"/><feColorMatrix in="SourceAlpha" result="hardAlpha" values="0 0 0 0 0 0 0 0 0 0 0 0 0 0 0 0 0 0 127 0"/><feOffset dx="3" dy="3"/><feComposite in2="hardAlpha" operator="out"/><feColorMatrix values="0 0 0 0 0 0 0 0 0 0 0 0 0 0 0 0 0 0 0.4 0"/><feBlend in2="BackgroundImageFix" result="effect1_dropShadow_23_17861"/><feBlend in="SourceGraphic" in2="effect1_dropShadow_23_17861" result="shape"/></filter></defs></svg>