<svg xmlns="http://www.w3.org/2000/svg" fill="none" viewBox="0 0 115 115"><g filter="url(#crests-billing-filter0_d_26_8966)"><path fill="#fff" d="m75.79 38.99-30.64-27.2a6 6 0 0 0-8.52.57l-8.26 9.53a2 2 0 0 1-1.9.65l-.7-.14a6 6 0 0 0-7.01 4.48l-1.54 6.4a2 2 0 0 1-.45.86l-2.65 3a4 4 0 0 0-1.01 2.65v4.65a2 2 0 0 1-.11.64L8.07 59.53a6 6 0 0 0 3.8 7.64l39.35 12.97a2 2 0 0 1 .7.4l22.44 19.59a6 6 0 0 0 8.65-.8l5-6.3a2 2 0 0 1 1.56-.76h2.33a4 4 0 0 0 3.71-2.52l3.88-9.68a2 2 0 0 1 .32-.55l6.5-7.73a5.83 5.83 0 0 0-.78-8.26 2 2 0 0 1-.66-1.93l1.94-8.76a4 4 0 0 0-2.7-4.68l-27.6-8.76a2 2 0 0 1-.72-.41"/></g><rect width="36" height="81" x="13.38" y="61.69" fill="#597f32" stroke="#416021" stroke-width="3" rx="2.5" transform="rotate(-71.46 13.38 61.69)"/><rect width="22.62" height="68.74" x="21.32" y="57.29" fill="#8db464" stroke="#416021" stroke-width="3" rx="2.5" transform="rotate(-71.46 21.32 57.3)"/><path fill="#8db464" stroke="#416021" stroke-width="3" d="M43.01 52.8c1.88-5.58 9.6-8.66 17.82-5.9 8.2 2.77 12.5 9.9 10.61 15.48-1.88 5.58-9.6 8.66-17.81 5.9-8.21-2.77-12.5-9.9-10.62-15.48Zm-13.92-5.18c.49-1.47 2.77-2.66 5.66-1.68 2.88.97 3.98 3.3 3.48 4.76-.49 1.46-2.77 2.65-5.65 1.68-2.89-.98-3.99-3.3-3.5-4.76ZM75.88 64.2c.5-1.45 2.77-2.64 5.66-1.67s3.98 3.3 3.49 4.76c-.5 1.46-2.77 2.65-5.66 1.68s-3.98-3.3-3.49-4.76Z"/><rect width="36" height="81" x="17.24" y="42.16" fill="#8db464" stroke="#577f2e" stroke-width="3" rx="2.5" transform="rotate(-48.52 17.24 42.16)"/><rect width="22.62" height="68.74" x="26.26" y="41.21" fill="#d6e080" stroke="#577f2e" stroke-width="3" rx="2.5" transform="rotate(-48.52 26.26 41.21)"/><path fill="#d6e080" stroke="#577f2e" stroke-width="3" d="M48 45.53c3.9-4.41 12.21-4.24 18.7 1.51s7.65 13.98 3.74 18.39c-3.9 4.4-12.22 4.23-18.7-1.52s-7.65-13.98-3.75-18.38ZM37.19 35.32c1.02-1.15 3.58-1.36 5.86.66s2.38 4.6 1.36 5.75-3.59 1.36-5.86-.66-2.38-4.6-1.36-5.75Zm36.63 33.52c1.02-1.15 3.58-1.36 5.86.66s2.38 4.6 1.36 5.75-3.59 1.36-5.87-.66-2.38-4.6-1.35-5.75Z"/><path stroke="#40396e" stroke-width="3" d="m39.79 16.75-9.8 11.03a2 2 0 0 1-2.13.57l-1.26-.42a2 2 0 0 0-2.56 1.37l-1.84 6.62a2 2 0 0 1-.3.64l-3.14 4.31a2 2 0 0 0-.24 1.92l.31.79a2 2 0 0 1 .04 1.39l-5.1 14.89a2 2 0 0 0 1.25 2.55l39.7 13.23a2 2 0 0 1 .7.4l21 18.87a2 2 0 0 0 2.84-.18l6.51-7.5a2 2 0 0 1 2.06-.61l.6.17a2 2 0 0 0 2.38-1.13l3.42-7.85a2 2 0 0 1 .34-.53l6.12-6.92a2 2 0 0 0-.27-2.9l-1.7-1.32a2 2 0 0 1-.67-2.21l2.92-8.75a2 2 0 0 0-1.27-2.54L74.5 44.4a2 2 0 0 1-.7-.4L42.6 16.58a2 2 0 0 0-2.81.17Z"/><defs><filter id="crests-billing-filter0_d_26_8966" width="102.93" height="94.32" x="7.74" y="10.28" color-interpolation-filters="sRGB" filterUnits="userSpaceOnUse"><feFlood flood-opacity="0" result="BackgroundImageFix"/><feColorMatrix in="SourceAlpha" result="hardAlpha" values="0 0 0 0 0 0 0 0 0 0 0 0 0 0 0 0 0 0 127 0"/><feOffset dx="3" dy="3"/><feComposite in2="hardAlpha" operator="out"/><feColorMatrix values="0 0 0 0 0 0 0 0 0 0 0 0 0 0 0 0 0 0 0.4 0"/><feBlend in2="BackgroundImageFix" result="effect1_dropShadow_26_8966"/><feBlend in="SourceGraphic" in2="effect1_dropShadow_26_8966" result="shape"/></filter></defs></svg>