<svg xmlns="http://www.w3.org/2000/svg" fill="none" viewBox="0 0 115 115"><g filter="url(#crests-blank-crest-filter0_d_24_1369)"><path fill="#fff" d="M15.66 67.62 26.23 32c1-3.4 2.36-6.75 4.68-9.44 13.45-15.63 38.73-16.08 51.8.6 1.85 2.35 3 5.15 3.91 8l11.84 37.05a20 20 0 0 1-.7 14.06l-2.01 4.6c0 12-11.5 23-23.5 13.5h-33c-10 10-24.5-.5-23-18l-1.03-5.14a20 20 0 0 1 .44-9.6"/></g><mask id="crests-blank-crest-path-2-inside-1_24_1369" fill="#fff"><path fill-rule="evenodd" d="M56.7 14.87a29.1 29.1 0 0 0-28.19 21.87L20.2 69.15a21.5 21.5 0 0 0 1.17 14.18c-.8 2.54-.65 5.74.62 8.85 2.34 5.71 7.6 8.97 11.76 7.27a6.7 6.7 0 0 0 3.53-3.59q1.9.35 3.9.35H72.9q1.23 0 2.41-.13a6.6 6.6 0 0 0 3.42 3.37c4.16 1.7 9.43-1.56 11.77-7.27.86-2.1 1.2-4.24 1.1-6.18a22 22 0 0 0 2.57-18.36l-9.59-32.01A29.1 29.1 0 0 0 56.7 14.87" clip-rule="evenodd"/></mask><path fill="#d47f56" fill-rule="evenodd" d="M56.7 14.87a29.1 29.1 0 0 0-28.19 21.87L20.2 69.15a21.5 21.5 0 0 0 1.17 14.18c-.8 2.54-.65 5.74.62 8.85 2.34 5.71 7.6 8.97 11.76 7.27a6.7 6.7 0 0 0 3.53-3.59q1.9.35 3.9.35H72.9q1.23 0 2.41-.13a6.6 6.6 0 0 0 3.42 3.37c4.16 1.7 9.43-1.56 11.77-7.27.86-2.1 1.2-4.24 1.1-6.18a22 22 0 0 0 2.57-18.36l-9.59-32.01A29.1 29.1 0 0 0 56.7 14.87" clip-rule="evenodd"/><path fill="#40396e" d="m28.51 36.74 2.91.74zM20.2 69.15l-2.91-.74zm1.17 14.18 2.86.9.34-1.08-.46-1.04zm.62 8.85L19.2 93.3zm11.76 7.27-1.13-2.78zm3.53-3.59.53-2.95-2.3-.41-.97 2.14zm38.03.22 2.7-1.3-.92-1.9-2.1.22zm3.42 3.37-1.13 2.77zm11.77-7.27 2.77 1.13zM91.6 86l-2.53-1.63-.53.82.06.98zm2.57-18.36-2.87.86zm-9.59-32.01 2.88-.86zm-56.07 1.1 2.91.75a26.1 26.1 0 0 1 25.28-19.6v-6a32.1 32.1 0 0 0-31.1 24.11zM20.2 69.16l2.9.75 8.32-32.42-2.9-.74-2.91-.75-8.32 32.42zm1.17 14.18 2.74-1.22a18.5 18.5 0 0 1-1-12.21l-2.91-.75-2.91-.74a24.5 24.5 0 0 0 1.34 16.14zm.62 8.85 2.77-1.14a10.3 10.3 0 0 1-.53-6.8l-2.86-.91-2.86-.9c-1.04 3.3-.8 7.21.7 10.88zm11.76 7.27-1.13-2.78c-.97.4-2.32.32-3.85-.63a10.6 10.6 0 0 1-4-5l-2.78 1.14-2.78 1.13a16.5 16.5 0 0 0 6.4 7.83c2.72 1.69 6.1 2.39 9.28 1.08zm3.53-3.59-2.74-1.22a3.7 3.7 0 0 1-1.92 2.03l1.13 2.78 1.14 2.77a9.7 9.7 0 0 0 5.13-5.13zm3.9.35v-3q-1.73 0-3.37-.3l-.53 2.95-.53 2.96q2.16.4 4.44.4zm31.72 0v-3H41.2v6h31.7zm2.41-.13-.32-2.98q-1.02.1-2.09.11v6q1.38 0 2.73-.14zm0 0-2.7 1.31a9.6 9.6 0 0 0 4.99 4.83l1.13-2.77 1.14-2.78c-.73-.3-1.38-.9-1.86-1.9zm3.42 3.37-1.13 2.77c3.18 1.3 6.55.6 9.27-1.08a16.5 16.5 0 0 0 6.4-7.83l-2.77-1.13-2.78-1.14a10.6 10.6 0 0 1-4 5c-1.54.95-2.88 1.03-3.85.63zm11.77-7.27 2.77 1.13a17 17 0 0 0 1.32-7.49l-3 .18-3 .17c.09 1.48-.17 3.17-.87 4.87zm3.67-24.54-2.87.86c1.7 5.7.65 11.38-2.23 15.87L91.59 86l2.52 1.62a25 25 0 0 0 2.93-20.84zm-9.59-32.01-2.87.86 9.59 32 2.87-.86 2.87-.86-9.58-32.01zM56.7 14.87v3a26.1 26.1 0 0 1 25 18.62l2.88-.86 2.88-.86a32.1 32.1 0 0 0-30.76-22.9z" mask="url(#crests-blank-crest-path-2-inside-1_24_1369)"/><path fill="#fccf8b" stroke="#986a59" stroke-width="3" d="M72.13 26.18a7.14 7.14 0 0 1 1.55 9.98l-2.41 3.3-11.54-8.42 2.42-3.3a7.14 7.14 0 0 1 9.98-1.56Zm-30.02 0a7.14 7.14 0 0 0-1.55 9.98l2.42 3.3 11.53-8.42-2.42-3.3a7.14 7.14 0 0 0-9.98-1.56Z"/><path fill="#fccf8b" stroke="#986a59" stroke-width="3" d="M57.13 27.47c8.43 0 15.27 6.84 15.27 15.28v9.17H41.85v-9.17c0-8.44 6.84-15.28 15.28-15.28Z"/><path fill="#accbf4" d="M73.25 48.87h-32a2 2 0 0 0-2 2v32c0 1.1.9 2 2 2h32a2 2 0 0 0 2-2v-32a2 2 0 0 0-2-2"/><path fill="#accbf4" d="M79.35 96.06H33.62a2 2 0 0 1-1.51-3.31l6.2-7.19a2 2 0 0 1 1.51-.69h34.63a2 2 0 0 1 1.66.87l4.9 7.19a2 2 0 0 1-1.66 3.13"/><path fill="#fff" stroke="#5b8ac5" stroke-linecap="round" stroke-width="3" d="M68.25 54.87h-22a1 1 0 0 0-1 1v22a1 1 0 0 0 1 1h22a1 1 0 0 0 1-1v-22a1 1 0 0 0-1-1Z"/><path stroke="#5b8ac5" stroke-linecap="round" stroke-width="3" d="M42.25 84.87h29"/><path fill="#d47f56" stroke="#986a59" stroke-linecap="round" stroke-width="3" d="M37.71 75.7V58.5c-5.2 4.61-8.07 6.34-7.35 19.57a8 8 0 0 0 2.71 5.52l3.25 2.88a4.27 4.27 0 0 0 5.86-6.21l-4.4-4.4a.2.2 0 0 1-.07-.16Z"/><path fill="#d47f56" stroke="#986a59" stroke-width="3" d="M25.35 80.34c1.52-.62 3.37-.39 5.2.74a12 12 0 0 1 4.6 5.71c1.07 2.6 1.24 5.2.73 7.3s-1.67 3.55-3.2 4.18c-1.52.62-3.37.39-5.2-.74a12 12 0 0 1-4.6-5.71 12 12 0 0 1-.73-7.3c.52-2.1 1.67-3.55 3.2-4.18Z"/><path fill="#d47f56" stroke="#986a59" stroke-linecap="round" stroke-width="3" d="M76.66 75.06V57.87c5.02 4.63 7.8 6.35 7.05 19.8a7.7 7.7 0 0 1-2.48 5.18l-3.08 2.85a4.19 4.19 0 0 1-5.87-5.98l4.32-4.5q.06-.07.06-.16Z"/><path fill="#d47f56" stroke="#986a59" stroke-width="3" d="M86.14 80.34c-1.52-.62-3.37-.39-5.2.74a12 12 0 0 0-4.6 5.71 12 12 0 0 0-.73 7.3c.51 2.09 1.67 3.55 3.2 4.18 1.52.62 3.37.39 5.2-.74a12 12 0 0 0 4.6-5.71c1.06-2.6 1.24-5.2.72-7.3-.5-2.1-1.66-3.55-3.19-4.18Z"/><mask id="crests-blank-crest-path-15-inside-2_24_1369" fill="#fff"><path fill-rule="evenodd" d="M56.45 14.87a29.1 29.1 0 0 0-28.19 21.87l-8.32 32.41a21.5 21.5 0 0 0 1.18 14.18c-.8 2.54-.66 5.74.61 8.85 2.34 5.71 7.61 8.97 11.77 7.27a6.7 6.7 0 0 0 3.53-3.59q1.89.35 3.9.35h31.72q1.22 0 2.4-.13a6.6 6.6 0 0 0 3.43 3.37c4.16 1.7 9.42-1.56 11.76-7.27.86-2.1 1.2-4.24 1.1-6.18a22 22 0 0 0 2.58-18.36l-9.6-32.01a29.1 29.1 0 0 0-27.87-20.76" clip-rule="evenodd"/></mask><path fill="#40396e" d="m28.26 36.74 2.9.74zm-8.32 32.41 2.9.75zm1.18 14.18 2.86.9.34-1.08-.46-1.04zm.61 8.85-2.77 1.13zm11.77 7.27 1.14 2.77zm3.53-3.59.53-2.95-2.31-.41-.96 2.14zm38.03.22 2.7-1.3-.92-1.9-2.1.22zm3.42 3.37-1.14 2.77zm11.76-7.27 2.78 1.13zm1.1-6.18-2.53-1.63-.52.82.05.98zm2.58-18.36-2.88.86zm-9.6-32.01 2.88-.86zm-56.06 1.1 2.9.75a26.1 26.1 0 0 1 25.29-19.6v-6a32.1 32.1 0 0 0-31.1 24.11zm-8.32 32.42 2.9.75 8.33-32.42-2.9-.74-2.91-.75-8.32 32.42zm1.18 14.18 2.74-1.22a18.5 18.5 0 0 1-1.01-12.21l-2.9-.75-2.91-.74a24.5 24.5 0 0 0 1.34 16.14zm.61 8.85 2.78-1.14a10.3 10.3 0 0 1-.53-6.8l-2.86-.91-2.86-.9c-1.04 3.3-.8 7.21.7 10.88zm11.77 7.27-1.14-2.78c-.97.4-2.31.32-3.85-.63a10.6 10.6 0 0 1-4-5l-2.78 1.14-2.77 1.13a16.5 16.5 0 0 0 6.4 7.83c2.72 1.69 6.1 2.39 9.28 1.08zm3.53-3.59-2.74-1.22a3.7 3.7 0 0 1-1.93 2.03l1.14 2.78 1.14 2.77a9.7 9.7 0 0 0 5.12-5.13zm3.9.35v-3q-1.74 0-3.37-.3l-.53 2.95-.54 2.96q2.16.4 4.44.4zm31.72 0v-3H40.93v6h31.72zm2.4-.13-.31-2.98q-1.02.1-2.1.11v6q1.4 0 2.73-.14zm0 0-2.7 1.31a9.6 9.6 0 0 0 5 4.83l1.13-2.77 1.14-2.78c-.73-.3-1.38-.9-1.86-1.9zm3.43 3.37-1.14 2.77c3.19 1.3 6.56.6 9.28-1.08a16.5 16.5 0 0 0 6.4-7.83l-2.78-1.13-2.77-1.14a10.6 10.6 0 0 1-4 5c-1.54.95-2.88 1.03-3.85.63zm11.76-7.27 2.78 1.13a17 17 0 0 0 1.31-7.49l-3 .18-2.99.17c.09 1.48-.17 3.17-.87 4.87zm3.68-24.54-2.88.86c1.7 5.7.66 11.38-2.23 15.87L91.34 86l2.52 1.62a25 25 0 0 0 2.93-20.84zm-9.6-32.01-2.87.86 9.6 32.01 2.87-.86 2.87-.86-9.59-32.01zM56.46 14.87v3a26.1 26.1 0 0 1 25 18.62l2.88-.86 2.87-.86a32.1 32.1 0 0 0-30.75-22.9z" mask="url(#crests-blank-crest-path-15-inside-2_24_1369)"/><defs><filter id="crests-blank-crest-filter0_d_24_1369" width="87.58" height="96.51" x="14.83" y="10.75" color-interpolation-filters="sRGB" filterUnits="userSpaceOnUse"><feFlood flood-opacity="0" result="BackgroundImageFix"/><feColorMatrix in="SourceAlpha" result="hardAlpha" values="0 0 0 0 0 0 0 0 0 0 0 0 0 0 0 0 0 0 127 0"/><feOffset dx="3" dy="3"/><feComposite in2="hardAlpha" operator="out"/><feColorMatrix values="0 0 0 0 0 0 0 0 0 0 0 0 0 0 0 0 0 0 0.4 0"/><feBlend in2="BackgroundImageFix" result="effect1_dropShadow_24_1369"/><feBlend in="SourceGraphic" in2="effect1_dropShadow_24_1369" result="shape"/></filter></defs></svg>