<svg xmlns="http://www.w3.org/2000/svg" fill="none" viewBox="0 0 115 115"><g clip-path="url(#crests-blitzscale-clip0_23_392)"><g filter="url(#crests-blitzscale-filter0_d_23_392)"><path fill="#fff" d="M71 0H26.5a8 8 0 0 0-8 8v1.5c0 .9-.57 1.68-1.4 2C12.8 13.22 0 19.61 0 35c0 17.47 12.21 22.4 16.8 23.63.96.26 1.7 1.12 1.7 2.12V67a6 6 0 0 0 6 6h22.25C49.1 73 51 74.9 51 77.25s1.9 4.25 4.25 4.25h49.25a4 4 0 0 0 4-4V37a4 4 0 0 0-4-4H86.36a10 10 0 0 1-4.47-1.06l-.68-.33a4 4 0 0 1-2.2-3.58V8a8 8 0 0 0-8-8"/></g><mask id="crests-blitzscale-path-2-inside-1_23_392" fill="#fff"><path d="M70.5 4.5a4 4 0 0 1 4 4v24.07a4 4 0 0 1 2.22 1.24l1.59 1.75a4 4 0 0 0 2.96 1.3h19.23a4 4 0 0 1 4 4V73a4 4 0 0 1-4 4h-42a4 4 0 0 1-4-4v-4.5h-28a4 4 0 0 1-4-4v-9.04q-.5.04-1 .04c-9.39 0-17-8.95-17-20s7.61-20 17-20q.5 0 1 .04V8.5a4 4 0 0 1 4-4zM23 28.5a6.5 6.5 0 0 0-6.5 6.5v.53A7 7 0 0 0 23 42.5z"/></mask><path fill="#ffe8c7" d="M70.5 4.5a4 4 0 0 1 4 4v24.07a4 4 0 0 1 2.22 1.24l1.59 1.75a4 4 0 0 0 2.96 1.3h19.23a4 4 0 0 1 4 4V73a4 4 0 0 1-4 4h-42a4 4 0 0 1-4-4v-4.5h-28a4 4 0 0 1-4-4v-9.04q-.5.04-1 .04c-9.39 0-17-8.95-17-20s7.61-20 17-20q.5 0 1 .04V8.5a4 4 0 0 1 4-4zM23 28.5a6.5 6.5 0 0 0-6.5 6.5v.53A7 7 0 0 0 23 42.5z"/><path fill="#40396e" d="M74.5 32.57h-3v2.49l2.45.46zm2.22 1.24-2.22 2.02zm1.59 1.75 2.22-2.02zm22.19 1.3v-3zm4 36.14h3zm-50 0h-3zm0-4.5h3v-3h-3zm-32-13.04h3v-3.2l-3.2.21zm0-39.92-.2 2.99 3.2.22v-3.21zM23 28.5h3v-3h-3zm-6.5 7.03h-3zM23 42.5l-.2 3 3.2.22V42.5zm47.5-38v3a1 1 0 0 1 1 1h6a7 7 0 0 0-7-7zm4 4h-3v24.07h6V8.5zm0 24.07-.55 2.95a1 1 0 0 1 .55.3l2.22-2.01 2.22-2.02a7 7 0 0 0-3.89-2.17zm2.22 1.24-2.22 2.02 1.59 1.74 2.22-2.01 2.22-2.02-1.59-1.75zm1.59 1.75-2.22 2.01a7 7 0 0 0 5.18 2.3v-6a1 1 0 0 1-.74-.33zm2.96 1.3v3h19.23v-6H81.27zm19.23 0v3a1 1 0 0 1 1 1h6a7 7 0 0 0-7-7zm4 4h-3V73h6V40.87zm0 32.14h-3a1 1 0 0 1-1 1v6a7 7 0 0 0 7-7zm-4 4v-3h-42v6h42zm-42 0v-3a1 1 0 0 1-1-1h-6a7 7 0 0 0 7 7zm-4-4h3v-4.5h-6V73zm0-4.5v-3h-28v6h28zm-28 0v-3a1 1 0 0 1-1-1h-6a7 7 0 0 0 7 7zm-4-4h3v-9.04h-6v9.04zm0-9.04-.2-2.99-.8.03v6q.63 0 1.2-.04zm-1 .04v-3c-7.3 0-14-7.14-14-17h-6c0 12.23 8.52 23 20 23zm-17-20h3c0-9.86 6.7-17 14-17v-6c-11.48 0-20 10.77-20 23zm17-20v3l.8.03.2-3 .2-2.99q-.59-.03-1.2-.04zm1 .04h3V8.5h-6v7.04zm0-7.04h3a1 1 0 0 1 1-1v-6a7 7 0 0 0-7 7zm4-4v3h44v-6h-44zm-3.5 24v-3a9.5 9.5 0 0 0-9.5 9.5h6a3.5 3.5 0 0 1 3.5-3.5zM16.5 35h-3v.53h6V35zm0 .53h-3c0 5.25 4.06 9.6 9.3 9.96l.2-2.99.2-3a4 4 0 0 1-3.7-3.97zM23 42.5h3v-14h-6v14z" mask="url(#crests-blitzscale-path-2-inside-1_23_392)"/><path stroke="#d1ae7c" stroke-linecap="round" stroke-width="3" d="M24.5 22.5v5M24 49v9.5"/><path fill="#5e8ac3" d="M54.5 34.5h21.03l3.97 4.37h25v29.76h-50z"/><path fill="#84abdd" d="M54.5 45.5h46a4 4 0 0 1 4 4v24a4 4 0 0 1-4 4h-42a4 4 0 0 1-4-4z"/><path stroke="#3369b0" stroke-linecap="round" stroke-width="3" d="M101.5 45.5h-46"/><path stroke="#3369b0" stroke-linecap="square" stroke-width="3" d="M55.5 66.5v-28a4 4 0 0 1 4-4H73"/><mask id="crests-blitzscale-path-10-inside-2_23_392" fill="#fff"><path d="M70.5 4.5a4 4 0 0 1 4 4v24.07a4 4 0 0 1 2.22 1.24l1.59 1.75a4 4 0 0 0 2.96 1.3h19.23a4 4 0 0 1 4 4V73a4 4 0 0 1-4 4h-42a4 4 0 0 1-4-4v-4.5h-28a4 4 0 0 1-4-4v-9.04q-.5.04-1 .04c-9.39 0-17-8.95-17-20s7.61-20 17-20q.5 0 1 .04V8.5a4 4 0 0 1 4-4zM23 28.5a6.5 6.5 0 0 0-6.5 6.5v.53A7 7 0 0 0 23 42.5z"/></mask><path fill="#40396e" d="M74.5 32.57h-3v2.49l2.45.46zm2.22 1.24-2.22 2.02zm1.59 1.75 2.22-2.02zm22.19 1.3v-3zm4 36.14h3zm-50 0h-3zm0-4.5h3v-3h-3zm-32-13.04h3v-3.2l-3.2.21zm0-39.92-.2 2.99 3.2.22v-3.21zM23 28.5h3v-3h-3zm-6.5 7.03h-3zM23 42.5l-.2 3 3.2.22V42.5zm47.5-38v3a1 1 0 0 1 1 1h6a7 7 0 0 0-7-7zm4 4h-3v24.07h6V8.5zm0 24.07-.55 2.95a1 1 0 0 1 .55.3l2.22-2.01 2.22-2.02a7 7 0 0 0-3.89-2.17zm2.22 1.24-2.22 2.02 1.59 1.74 2.22-2.01 2.22-2.02-1.59-1.75zm1.59 1.75-2.22 2.01a7 7 0 0 0 5.18 2.3v-6a1 1 0 0 1-.74-.33zm2.96 1.3v3h19.23v-6H81.27zm19.23 0v3a1 1 0 0 1 1 1h6a7 7 0 0 0-7-7zm4 4h-3V73h6V40.87zm0 32.14h-3a1 1 0 0 1-1 1v6a7 7 0 0 0 7-7zm-4 4v-3h-42v6h42zm-42 0v-3a1 1 0 0 1-1-1h-6a7 7 0 0 0 7 7zm-4-4h3v-4.5h-6V73zm0-4.5v-3h-28v6h28zm-28 0v-3a1 1 0 0 1-1-1h-6a7 7 0 0 0 7 7zm-4-4h3v-9.04h-6v9.04zm0-9.04-.2-2.99-.8.03v6q.63 0 1.2-.04zm-1 .04v-3c-7.3 0-14-7.14-14-17h-6c0 12.23 8.52 23 20 23zm-17-20h3c0-9.86 6.7-17 14-17v-6c-11.48 0-20 10.77-20 23zm17-20v3l.8.03.2-3 .2-2.99q-.59-.03-1.2-.04zm1 .04h3V8.5h-6v7.04zm0-7.04h3a1 1 0 0 1 1-1v-6a7 7 0 0 0-7 7zm4-4v3h44v-6h-44zm-3.5 24v-3a9.5 9.5 0 0 0-9.5 9.5h6a3.5 3.5 0 0 1 3.5-3.5zM16.5 35h-3v.53h6V35zm0 .53h-3c0 5.25 4.06 9.6 9.3 9.96l.2-2.99.2-3a4 4 0 0 1-3.7-3.97zM23 42.5h3v-14h-6v14z" mask="url(#crests-blitzscale-path-10-inside-2_23_392)"/></g><defs><clipPath id="crests-blitzscale-clip0_23_392"><path fill="#fff" d="M0 0h115v115H0z"/></clipPath><filter id="crests-blitzscale-filter0_d_23_392" width="111.5" height="84.5" x="0" y="0" color-interpolation-filters="sRGB" filterUnits="userSpaceOnUse"><feFlood flood-opacity="0" result="BackgroundImageFix"/><feColorMatrix in="SourceAlpha" result="hardAlpha" values="0 0 0 0 0 0 0 0 0 0 0 0 0 0 0 0 0 0 127 0"/><feOffset dx="3" dy="3"/><feComposite in2="hardAlpha" operator="out"/><feColorMatrix values="0 0 0 0 0 0 0 0 0 0 0 0 0 0 0 0 0 0 0.4 0"/><feBlend in2="BackgroundImageFix" result="effect1_dropShadow_23_392"/><feBlend in="SourceGraphic" in2="effect1_dropShadow_23_392" result="shape"/></filter></defs></svg>