<svg xmlns="http://www.w3.org/2000/svg" fill="none" viewBox="0 0 115 115"><g clip-path="url(#crests-brand-clip0_24_10)"><g filter="url(#crests-brand-filter0_d_24_10)"><path fill="#fff" d="M55.02-.16C47.74-2.56 42.2-2.58 34.6-.1a9 9 0 0 0-5.82 6.54L18.38 50c-.92 3.86-.63 7.92.85 11.6l5 12.5a9.6 9.6 0 0 1 .06 6.96L19.7 93.2a9.6 9.6 0 0 0 6.4 12.65l17.3 4.86 3.93.9c1.52.35 3.1.33 4.6-.06l26.13-6.86a2.1 2.1 0 0 1 1.69.27 7.1 7.1 0 0 0 8.51-.65l2.98-2.61a9.1 9.1 0 0 0 2.77-9.74c-4.98-14.52-12.23-22.71-23.44-28.29a3 3 0 0 1-1.6-3.37l.74-2.93c.7-2.85.76-5.83.14-8.7L60.8 6.53a8.9 8.9 0 0 0-5.77-6.7"/></g><path fill="#ffb9ec" d="M55.45 20.36h-22.6l-7.72 33.72 7.72 21.07h22.6l7.17-21.07z"/><path fill="#c1dcff" d="M56.85 19.71c0 3.01-4.97 5.45-12.5 5.45-7.52 0-12.49-2.44-12.49-5.45 0-3 3.4-14.7 12.5-13.62 9.08-1.64 12.5 10.61 12.5 13.62"/><ellipse cx="44.36" cy="9.3" fill="#e5f1ff" rx="7.69" ry="3.36"/><path fill="#c1dcff" d="m29.7 70.63 2.79 6.83c.4 1 1.22 1.79 2.24 2.16l7.39 2.68c.95.35 2 .3 2.91-.12l8.78-4.02a4 4 0 0 0 1.95-2.03L58 70.7c.64-1.57-.95-3.25-2.6-2.87a55 55 0 0 1-23.13-.03c-1.64-.38-3.22 1.28-2.58 2.84"/><path fill="#8bbeff" d="m32.43 79.04-5.05 16.1a3.85 3.85 0 0 0 2.92 4.93l13.97 2.77q.96.18 1.89-.1l12.7-3.95a3.84 3.84 0 0 0 2.5-4.9l-5.05-14.9a1.97 1.97 0 0 0-2.55-1.2c-7.07 2.56-11.7 2.52-18.78 0a1.97 1.97 0 0 0-2.55 1.25"/><ellipse cx="39.07" cy="40.54" fill="#f3367b" rx="6.25" ry="5.77"/><ellipse cx="42.91" cy="47.27" fill="#f3367b" rx="5.29" ry="4.81"/><circle cx="47.24" cy="60.73" r="4.81" fill="#f3367b"/><ellipse cx="51.57" cy="55.92" fill="#f3367b" rx="3.36" ry="2.88"/><circle cx="49.16" cy="32.86" r="3.84" fill="#f3367b"/><path fill="#d09b66" d="M55.05 65.9c.8-.8 2-1.07 3.06-.65 15.97 6.32 22.63 13 29.7 29.26a2.85 2.85 0 0 1-.6 3.15l-1.18 1.18a2.9 2.9 0 0 1-4.3-.21q-.46-.57-.93-1.12l-29.67 7.22a2.88 2.88 0 0 1-3.45-3.61l8.41-28.85q-.79-.68-1.59-1.34a2.9 2.9 0 0 1-.2-4.28z"/><path fill="#eda840" d="m48.5 100.27 7.58-28.37a.95.95 0 0 1 1.31-.63c9.56 4.22 19.36 10.37 23.7 24.54a.95.95 0 0 1-.7 1.2l-28.44 6.81a2.88 2.88 0 0 1-3.46-3.55"/><circle cx="61.66" cy="81.88" r="3.84" fill="#df6133"/><circle cx="69.35" cy="90.53" r="3.84" fill="#df6133"/><circle cx="57.81" cy="93.41" r="3.84" fill="#df6133"/><path stroke="#c08245" stroke-width="3.32" d="M55.9 72.27c13.02 4.98 18.26 10.51 24.5 24.99m-24.5-25-8.66 28.84m8.65-28.83-1.15-.66a2.9 2.9 0 0 1-1.23-3.62l.53-1.27a2.9 2.9 0 0 1 3.17-1.73l3 .55"/><path fill="#40396e" d="m51.37 6 .44-1.6zm-13.74.04-.42-1.6zm16.31 2.79-1.62.33zm8.53 41.52 1.62-.34zm-1 11.05-1.54-.62zm26.07 32.64 1.53-.66zm-.6 3.15-1.18-1.17zm-1.18 1.18-1.17-1.18zm-4.3-.22 1.29-1.06zm-30.6 6.1-.4-1.6zm-21.23-4.68.47-1.59zm-2.46-4.84 1.57.54zm5.58-16.34-1.57-.54zm-.1-2.76 1.52-.66zm-5.96-13.85-1.52.65zm-1.08-11.87L24 49.56zm9.37-41.08 1.62.36zm12.63 93.95 1.47-.77zm-1.15-.77.1 1.66zm34.46-4.52 1.28-1.06zm-.96-.31-.4-1.62zm-19.82-32.5 1.54.63zm.52 1.26-.65 1.52zm-9.3-59.95.45-1.6c-5.15-1.44-9.02-1.42-14.6.04l.42 1.6.42 1.6c5.06-1.32 8.33-1.31 12.87-.04zm2.58 2.84 1.63-.34a5.3 5.3 0 0 0-3.76-4.1L51.37 6l-.45 1.6c.68.2 1.24.78 1.4 1.57zm8.53 41.52 1.62-.34L55.57 8.5l-1.63.34-1.62.33 8.52 41.52zm-1 11.05 1.53.62a21 21 0 0 0 1.09-12l-1.62.33-1.63.33c.7 3.38.38 6.9-.91 10.1zm-1.33 3.29 1.54.62L63 62l-1.53-.61-1.54-.62-1.33 3.29zm27.4 29.35 1.53-.66c-3.36-7.72-6.68-13.45-11.02-18.01-4.35-4.58-9.62-7.9-16.73-10.96l-.66 1.53-.65 1.52c6.85 2.95 11.7 6.04 15.64 10.2s7.09 9.48 10.37 17.04zm-.6 3.15 1.17 1.17c1.3-1.3 1.7-3.27.96-4.98l-1.53.66-1.52.66c.2.44.1.96-.26 1.32zm-1.18 1.18 1.17 1.17 1.18-1.18-1.17-1.17-1.18-1.17-1.17 1.17zm-4.3-.22-1.27 1.06a4.56 4.56 0 0 0 6.74.33l-1.17-1.17-1.17-1.18c-.51.51-1.37.48-1.84-.1zm-.54-.66-1.27 1.06.54.66 1.28-1.06 1.28-1.06-.55-.66zm-30.06 6.76.39 1.61 29.1-7.07-.4-1.61-.38-1.62-29.1 7.08zm-3.25-1.47-1.47.76a4.54 4.54 0 0 0 5.11 2.32l-.4-1.6-.38-1.62a1.2 1.2 0 0 1-1.39-.63zm-17.98-3.2-.47 1.58c6.67 1.96 12.03 2.8 17.4 2.5l-.1-1.65-.09-1.66c-4.86.27-9.82-.48-16.27-2.37zm-2.46-4.85-1.57-.54a5.4 5.4 0 0 0 3.56 6.97l.47-1.59.47-1.59a2.1 2.1 0 0 1-1.36-2.71zm5.58-16.34-1.57-.54-5.58 16.34 1.57.54 1.57.54 5.58-16.35zm-.1-2.76-1.53.65c.21.5.24 1.06.06 1.57l1.57.54 1.57.53a5.5 5.5 0 0 0-.15-3.95zm-5.96-13.85-1.52.65 5.95 13.85 1.52-.65 1.53-.66-5.95-13.85zm-1.08-11.87L24 49.56a21 21 0 0 0 1.17 12.88l1.52-.65 1.53-.66a17.6 17.6 0 0 1-.99-10.84zm9.37-41.08-1.61-.37L24 49.55l1.61.37 1.62.36L36.6 9.2zm2.65-2.8-.42-1.6a5.4 5.4 0 0 0-3.84 4.03l1.61.37 1.62.36c.18-.78.75-1.37 1.45-1.55zm9.98 96.75 1.47-.77c-.4-.77-1.33-1.73-2.7-1.66l.08 1.66.1 1.66a.6.6 0 0 1-.38-.1l-.04-.03zm33.31-5.29 1.28-1.06a2.6 2.6 0 0 0-2.63-.87l.39 1.62.4 1.6a.7.7 0 0 1-.71-.23zM60.14 64.7l-1.54-.62a2.63 2.63 0 0 0 1.4 3.39l.66-1.52.66-1.53c.32.14.5.53.36.9z"/></g><defs><clipPath id="crests-brand-clip0_24_10"><path fill="#fff" d="M0 0h115v115H0z"/></clipPath><filter id="crests-brand-filter0_d_24_10" width="79.5" height="116.72" x="17.85" y="-1.96" color-interpolation-filters="sRGB" filterUnits="userSpaceOnUse"><feFlood flood-opacity="0" result="BackgroundImageFix"/><feColorMatrix in="SourceAlpha" result="hardAlpha" values="0 0 0 0 0 0 0 0 0 0 0 0 0 0 0 0 0 0 127 0"/><feOffset dx="2.88" dy="2.88"/><feComposite in2="hardAlpha" operator="out"/><feColorMatrix values="0 0 0 0 0 0 0 0 0 0 0 0 0 0 0 0 0 0 0.4 0"/><feBlend in2="BackgroundImageFix" result="effect1_dropShadow_24_10"/><feBlend in="SourceGraphic" in2="effect1_dropShadow_24_10" result="shape"/></filter></defs></svg>