<svg xmlns="http://www.w3.org/2000/svg" fill="none" viewBox="0 0 115 115"><g filter="url(#crests-buisness-sales-filter0_d_23_11788)"><path fill="#fff" d="M94 63.46c0 21.54-8 38.5-39 38.5S15 85 15 63.46s10-38 40-38c27 0 39 16.46 39 38"/></g><mask id="crests-buisness-sales-path-2-inside-1_23_11788" fill="#fff"><path d="M61.32 30.46h.25c14.97.38 27.01 15 27.01 33s-12.04 32.62-27 32.99H48c-15.24 0-27.6-14.77-27.6-33 0-18.22 12.36-33 27.6-33z"/></mask><path fill="#b57d43" d="M61.32 30.46h.25c14.97.38 27.01 15 27.01 33s-12.04 32.62-27 32.99H48c-15.24 0-27.6-14.77-27.6-33 0-18.22 12.36-33 27.6-33z"/><path fill="#40396e" d="m61.57 30.47-.19 3h.12zm27.01 32.99h3zm-27 32.99-.08-3h-.12zm-13.57 0v3zm-27.6-33h-3zm27.6-33v-3zm13.3 0v3l.07.01.2-3 .18-2.99-.44-.01zm.26.02-.07 3c12.88.32 24.08 13.12 24.08 29.99h6c0-19.12-12.88-35.57-29.93-36zm27.01 32.99h-3c0 16.87-11.2 29.67-24.08 29.99l.07 3 .08 3c17.05-.43 29.93-16.87 29.93-36zm-27 32.99-.2-3h-.06v6h.44zm-.26 0v-3H48v6h13.3zm-13.31 0v-3c-13.1 0-24.6-12.9-24.6-30h-6c0 19.37 13.22 36 30.6 36zm-27.6-33h3c0-17.08 11.5-30 24.6-30v-6c-17.38 0-30.6 16.65-30.6 36zm27.6-33v3h13.3v-6h-13.3z" mask="url(#crests-buisness-sales-path-2-inside-1_23_11788)"/><path fill="#f4a22d" stroke="#40396e" stroke-width="3" d="M61 31.96c14.41 0 26.5 13.86 26.5 31.5S75.4 94.96 61 94.96 34.5 81.1 34.5 63.46s12.08-31.5 26.5-31.5Z"/><ellipse cx="62" cy="63.46" fill="#fad196" rx="16" ry="22"/><path fill="#b57d43" stroke="#b57d43" stroke-width=".5" d="M63.36 47.2v3.33c2.47.59 4.26 2.87 4.63 6.03l.02.16-.14.08-1.92 1.1-.32.2-.05-.38a5.6 5.6 0 0 0-1.17-2.98 3 3 0 0 0-2.32-1.07q-1.48.02-2.26.86a3.4 3.4 0 0 0-.81 2.4q0 .97.36 1.56.35.6.97 1.01t1.44.74c.51.22 1.13.45 1.7.7a8 8 0 0 1 3.26 2.3c.91 1.17 1.5 2.81 1.5 5.26 0 3.73-1.89 6.37-4.9 6.93v3.28h-2.39v-3.32c-2.72-.65-4.73-3.56-5.21-7.47l-.02-.18.16-.08 1.98-.96.33-.16.03.36c.16 1.65.66 3 1.37 3.92.7.93 1.6 1.43 2.58 1.43q1.6-.02 2.47-1c.59-.63.93-1.55.93-2.71 0-1.54-.54-2.46-1.35-3.14-.82-.7-1.93-1.13-3.1-1.65a9 9 0 0 1-3.24-2.14c-.9-1.04-1.5-2.5-1.5-4.68 0-3.41 1.82-5.92 4.57-6.44V47.2z"/><mask id="crests-buisness-sales-path-7-inside-2_23_11788" fill="#fff"><path d="M60.9 30.46h.26c14.96.38 27 15 27 33s-12.04 32.62-27 32.99H47.59c-15.24 0-27.6-14.77-27.6-33 0-18.22 12.36-33 27.6-33z"/></mask><path fill="#40396e" d="m61.16 30.47-.2 3h.12zm27 32.99h3zm-27 32.99-.08-3h-.11zm-13.57 0v3zm-27.6-33h-3zm27.6-33v-3zm13.3 0v3l.08.01.19-3 .19-2.99-.45-.01zm.27.02-.08 3c12.88.32 24.08 13.12 24.08 29.99h6c0-19.12-12.87-35.57-29.93-36zm27 32.99h-3c0 16.87-11.2 29.67-24.08 29.99l.08 3 .07 3c17.06-.43 29.93-16.87 29.93-36zm-27 32.99-.2-3h-.06v6h.45zm-.26 0v-3H47.59v6h13.3zm-13.31 0v-3c-13.1 0-24.6-12.9-24.6-30h-6c0 19.37 13.22 36 30.6 36zm-27.6-33h3c0-17.08 11.5-30 24.6-30v-6c-17.38 0-30.6 16.65-30.6 36zm27.6-33v3h13.3v-6H47.6z" mask="url(#crests-buisness-sales-path-7-inside-2_23_11788)"/><defs><filter id="crests-buisness-sales-filter0_d_23_11788" width="82" height="79.5" x="15" y="25.46" color-interpolation-filters="sRGB" filterUnits="userSpaceOnUse"><feFlood flood-opacity="0" result="BackgroundImageFix"/><feColorMatrix in="SourceAlpha" result="hardAlpha" values="0 0 0 0 0 0 0 0 0 0 0 0 0 0 0 0 0 0 127 0"/><feOffset dx="3" dy="3"/><feComposite in2="hardAlpha" operator="out"/><feColorMatrix values="0 0 0 0 0 0 0 0 0 0 0 0 0 0 0 0 0 0 0.4 0"/><feBlend in2="BackgroundImageFix" result="effect1_dropShadow_23_11788"/><feBlend in="SourceGraphic" in2="effect1_dropShadow_23_11788" result="shape"/></filter></defs></svg>