<svg xmlns="http://www.w3.org/2000/svg" fill="none" viewBox="0 0 115 115"><g filter="url(#crests-clickhouse-filter0_d_23_1558)"><path fill="#fff" d="M86 40a4 4 0 0 0 4 4h7a4 4 0 0 1 4 4v19a4 4 0 0 1-4 4h-7a4 4 0 0 0-4 4v16a4 4 0 0 1-4 4H18a4 4 0 0 1-4-4V24a4 4 0 0 1 4-4h64a4 4 0 0 1 4 4z"/></g><mask id="crests-clickhouse-path-2-inside-1_23_1558" fill="#fff"><rect width="13" height="63" x="20" y="26" rx="2"/></mask><rect width="13" height="63" x="20" y="26" fill="#f4a22d" stroke="#40396e" stroke-width="6" mask="url(#crests-clickhouse-path-2-inside-1_23_1558)" rx="2"/><mask id="crests-clickhouse-path-3-inside-2_23_1558" fill="#fff"><rect width="13" height="63" x="37" y="26" rx="2"/></mask><rect width="13" height="63" x="37" y="26" fill="#f4a22d" stroke="#40396e" stroke-width="6" mask="url(#crests-clickhouse-path-3-inside-2_23_1558)" rx="2"/><mask id="crests-clickhouse-path-4-inside-3_23_1558" fill="#fff"><rect width="13" height="63" x="52" y="26" rx="2"/></mask><rect width="13" height="63" x="52" y="26" fill="#f4a22d" stroke="#40396e" stroke-width="6" mask="url(#crests-clickhouse-path-4-inside-3_23_1558)" rx="2"/><mask id="crests-clickhouse-path-5-inside-4_23_1558" fill="#fff"><rect width="12" height="63" x="68" y="26" rx="2"/></mask><rect width="12" height="63" x="68" y="26" fill="#f4a22d" stroke="#40396e" stroke-width="6" mask="url(#crests-clickhouse-path-5-inside-4_23_1558)" rx="2"/><mask id="crests-clickhouse-path-6-inside-5_23_1558" fill="#fff"><rect width="13" height="15" x="83" y="50" rx="2"/></mask><rect width="13" height="15" x="83" y="50" fill="#f4a22d" stroke="#40396e" stroke-width="6" mask="url(#crests-clickhouse-path-6-inside-5_23_1558)" rx="2"/><rect width="13" height="15" x="20" y="74" fill="#ef4b0f" rx="2"/><mask id="crests-clickhouse-path-8-inside-6_23_1558" fill="#fff"><rect width="13" height="63" x="20" y="26" rx="2"/></mask><rect width="13" height="63" x="20" y="26" stroke="#40396e" stroke-width="6" mask="url(#crests-clickhouse-path-8-inside-6_23_1558)" rx="2"/><defs><filter id="crests-clickhouse-filter0_d_23_1558" width="90" height="78" x="14" y="20" color-interpolation-filters="sRGB" filterUnits="userSpaceOnUse"><feFlood flood-opacity="0" result="BackgroundImageFix"/><feColorMatrix in="SourceAlpha" result="hardAlpha" values="0 0 0 0 0 0 0 0 0 0 0 0 0 0 0 0 0 0 127 0"/><feOffset dx="3" dy="3"/><feComposite in2="hardAlpha" operator="out"/><feColorMatrix values="0 0 0 0 0 0 0 0 0 0 0 0 0 0 0 0 0 0 0.4 0"/><feBlend in2="BackgroundImageFix" result="effect1_dropShadow_23_1558"/><feBlend in="SourceGraphic" in2="effect1_dropShadow_23_1558" result="shape"/></filter></defs></svg>