<svg xmlns="http://www.w3.org/2000/svg" fill="none" viewBox="0 0 115 115"><g filter="url(#crests-client-libraries-filter0_d_24_2000)"><path fill="#cdedf1" stroke="#fff" stroke-width="6" d="M81.03 22.4v43.33H45.91V22.39z"/><path fill="#c1b9ef" stroke="#fff" stroke-width="6" d="M71.33 30.6v43.34H36.2V30.6z"/><path fill="#ffba36" stroke="#fff" stroke-width="6" d="M79.5 40.31a9 9 0 0 1 9 9v34.3a9 9 0 0 1-9 9h-44a9 9 0 0 1-9-9V54.7a9 9 0 0 1 9-9h30.34a5.45 5.45 0 0 1 5.45-5.4z"/><path stroke="#fff" stroke-width="6" d="M44.8 40.7h16.06m-15.31 4.1h9.34"/><path fill="#cdedf1" d="M78.03 25.4H48.91v37.33h29.12z"/><path stroke="#40396e" stroke-width="3" d="M48.91 63.47v-.74m0 0V25.39h29.12v37.34z"/><path fill="#c1b9ef" d="M68.33 33.6H39.2v37.34h29.12z"/><path stroke="#40396e" stroke-width="3" d="M39.2 71.69v-.75m0 0V33.6h29.13v37.33z"/><path fill="#ffba36" stroke="#40396e" stroke-width="3" d="M29.5 83.6V54.72a6 6 0 0 1 6-6h30.39a2.95 2.95 0 0 0 2.95-2.94c0-1.36 1.1-2.46 2.45-2.46h8.21a6 6 0 0 1 6 6v34.3a6 6 0 0 1-6 6h-44a6 6 0 0 1-6-6Z"/><path stroke="#40396e" stroke-width="3" d="M44.8 40.7h16.06m-15.31 4.1h9.34"/></g><defs><filter id="crests-client-libraries-filter0_d_24_2000" width="71" height="79.21" x="23.5" y="19.39" color-interpolation-filters="sRGB" filterUnits="userSpaceOnUse"><feFlood flood-opacity="0" result="BackgroundImageFix"/><feColorMatrix in="SourceAlpha" result="hardAlpha" values="0 0 0 0 0 0 0 0 0 0 0 0 0 0 0 0 0 0 127 0"/><feOffset dx="3" dy="3"/><feComposite in2="hardAlpha" operator="out"/><feColorMatrix values="0 0 0 0 0 0 0 0 0 0 0 0 0 0 0 0 0 0 0.4 0"/><feBlend in2="BackgroundImageFix" result="effect1_dropShadow_24_2000"/><feBlend in="SourceGraphic" in2="effect1_dropShadow_24_2000" result="shape"/></filter></defs></svg>