<svg xmlns="http://www.w3.org/2000/svg" fill="none" viewBox="0 0 115 115"><g filter="url(#crests-customer-analytics-filter0_d_23_19095)"><path fill="#fff" d="M58.86 11.25A34.5 34.5 0 1 1 54.66 80L45.2 98.34a10 10 0 0 1-13.48 4.3l-4.65-2.42a10 10 0 0 1-4.3-13.47l9.7-18.78a34.5 34.5 0 0 1 26.39-56.72"/></g><mask id="crests-customer-analytics-path-2-outside-1_23_19095" width="64" height="84" x="24.97" y="16.25" fill="#000" maskUnits="userSpaceOnUse"><path fill="#fff" d="M24.97 16.25h64v84h-64z"/><path d="M58.97 19.25a26.63 26.63 0 1 1-7.3 52.24L39.7 94.37a4 4 0 0 1-5.4 1.7l-3.18-1.67a4 4 0 0 1-1.7-5.4l12.05-23.05a26.63 26.63 0 0 1 17.5-46.7"/></mask><path fill="#a6c4e0" d="M58.97 19.25a26.63 26.63 0 1 1-7.3 52.24L39.7 94.37a4 4 0 0 1-5.4 1.7l-3.18-1.67a4 4 0 0 1-1.7-5.4l12.05-23.05a26.63 26.63 0 0 1 17.5-46.7"/><path fill="#40396e" d="M58.97 19.25v-3zM85.6 45.88h3zM58.97 72.51v3zm-7.3-1.02.81-2.88-2.34-.67L49 70.1zM39.7 94.37l2.66 1.4zm-5.4 1.7-1.39 2.65zm-3.18-1.67-1.4 2.66zm-1.7-5.4 2.66 1.39zm12.05-23.05 2.66 1.4 1.1-2.1-1.78-1.56zm-9.13-20.07h-3zm26.63-26.63v3A23.63 23.63 0 0 1 82.6 45.88h6a29.63 29.63 0 0 0-29.63-29.63zM85.6 45.88h-3a23.63 23.63 0 0 1-23.63 23.63v6A29.63 29.63 0 0 0 88.6 45.88zM58.97 72.51v-3q-3.4-.01-6.49-.9l-.82 2.88-.82 2.89q3.9 1.11 8.13 1.13zm-7.3-1.02L49 70.1 37.04 92.98l2.66 1.4 2.66 1.38 11.96-22.88zM39.7 94.37l-2.66-1.39a1 1 0 0 1-1.35.42l-1.39 2.66-1.39 2.66a7 7 0 0 0 9.45-2.96zm-5.4 1.7 1.4-2.67-3.2-1.66-1.38 2.66-1.4 2.66 3.2 1.66zm-3.18-1.67 1.39-2.66a1 1 0 0 1-.43-1.35l-2.66-1.4-2.65-1.38a7 7 0 0 0 2.96 9.45zm-1.7-5.4 2.66 1.39 12.05-23.05-2.66-1.39-2.65-1.39-12.05 23.05zm12.05-23.05 1.98-2.26a23.6 23.6 0 0 1-8.11-17.81h-6A29.6 29.6 0 0 0 39.5 68.22zm-9.13-20.07h3a23.63 23.63 0 0 1 23.63-23.63v-6a29.63 29.63 0 0 0-29.63 29.63z" mask="url(#crests-customer-analytics-path-2-outside-1_23_19095)"/><circle cx="58.97" cy="45.88" r="19.53" fill="#e6f3ff" stroke="#557fa7" stroke-width="3"/><rect width="12.73" height="29.67" x="40.81" y="66.03" fill="#96a75d" rx="4" transform="rotate(27.61 40.81 66.03)"/><path fill="#bd9168" d="m41.13 66.02 10.9 5.7-2.83 5.44-10.91-5.7z"/><path stroke="#99693c" stroke-width="3" d="m39.44 66.74 12.87 6.66"/><path stroke="#677633" stroke-width="3" d="m37.67 72.5 12.87 6.66"/><mask id="crests-customer-analytics-path-9-outside-2_23_19095" width="64" height="84" x="24.97" y="16.25" fill="#000" maskUnits="userSpaceOnUse"><path fill="#fff" d="M24.97 16.25h64v84h-64z"/><path d="M58.97 19.25a26.63 26.63 0 1 1-7.3 52.24L39.7 94.37a4 4 0 0 1-5.4 1.7l-3.18-1.67a4 4 0 0 1-1.7-5.4l12.05-23.05a26.63 26.63 0 0 1 17.5-46.7"/></mask><path fill="#40396e" d="M58.97 19.25v-3zM85.6 45.88h3zM58.97 72.51v3zm-7.3-1.02.81-2.88-2.34-.67L49 70.1zM39.7 94.37l2.66 1.4zm-5.4 1.7-1.39 2.65zm-3.18-1.67-1.4 2.66zm-1.7-5.4 2.66 1.39zm12.05-23.05 2.66 1.4 1.1-2.1-1.78-1.56zm-9.13-20.07h-3zm26.63-26.63v3A23.63 23.63 0 0 1 82.6 45.88h6a29.63 29.63 0 0 0-29.63-29.63zM85.6 45.88h-3a23.63 23.63 0 0 1-23.63 23.63v6A29.63 29.63 0 0 0 88.6 45.88zM58.97 72.51v-3q-3.4-.01-6.49-.9l-.82 2.88-.82 2.89q3.9 1.11 8.13 1.13zm-7.3-1.02L49 70.1 37.04 92.98l2.66 1.4 2.66 1.38 11.96-22.88zM39.7 94.37l-2.66-1.39a1 1 0 0 1-1.35.42l-1.39 2.66-1.39 2.66a7 7 0 0 0 9.45-2.96zm-5.4 1.7 1.4-2.67-3.2-1.66-1.38 2.66-1.4 2.66 3.2 1.66zm-3.18-1.67 1.39-2.66a1 1 0 0 1-.43-1.35l-2.66-1.4-2.65-1.38a7 7 0 0 0 2.96 9.45zm-1.7-5.4 2.66 1.39 12.05-23.05-2.66-1.39-2.65-1.39-12.05 23.05zm12.05-23.05 1.98-2.26a23.6 23.6 0 0 1-8.11-17.81h-6A29.6 29.6 0 0 0 39.5 68.22zm-9.13-20.07h3a23.63 23.63 0 0 1 23.63-23.63v-6a29.63 29.63 0 0 0-29.63 29.63z" mask="url(#crests-customer-analytics-path-9-outside-2_23_19095)"/><defs><filter id="crests-customer-analytics-filter0_d_23_19095" width="74.71" height="95.5" x="21.64" y="11.25" color-interpolation-filters="sRGB" filterUnits="userSpaceOnUse"><feFlood flood-opacity="0" result="BackgroundImageFix"/><feColorMatrix in="SourceAlpha" result="hardAlpha" values="0 0 0 0 0 0 0 0 0 0 0 0 0 0 0 0 0 0 127 0"/><feOffset dx="3" dy="3"/><feComposite in2="hardAlpha" operator="out"/><feColorMatrix values="0 0 0 0 0 0 0 0 0 0 0 0 0 0 0 0 0 0 0.4 0"/><feBlend in2="BackgroundImageFix" result="effect1_dropShadow_23_19095"/><feBlend in="SourceGraphic" in2="effect1_dropShadow_23_19095" result="shape"/></filter></defs></svg>