<svg xmlns="http://www.w3.org/2000/svg" fill="none" viewBox="0 0 115 115"><path fill="#b1c74b" stroke="#6c7d21" stroke-linecap="round" stroke-linejoin="round" stroke-width="3" d="M26.94 35.18c15.04.21 27.43-1.99 32.6 9.93h-5.17c-3.98-6.36-12.3-7.24-23.06-4.77 0 0-.2 10.83-5.96 13.92-3.58 1.92-7.55 1.58-7.55 1.58s-1-6.43 0-9.53c1.52-4.77 6.35-6.72 8.3-7.33-2.04.52-7.35 1.6-10.29-.23-2.74-1.7-4.77-6.75-4.77-6.75s6.38-4.65 10.34-3.18c3.1 1.15 5.56 6.36 5.56 6.36"/><path stroke="#6c7d21" stroke-linecap="round" stroke-linejoin="round" stroke-width="3" d="m17.8 34.1 11.13 3.97-7.55 13.11"/><path fill="#6286b6" d="M35.03 26.15c4.35-3.93 10.12-5.67 15.81-5.45 11.38.42 22.9 8.68 22.9 23.55v6.21L80 42.6l3.1-15.73.05-.15a1.5 1.5 0 0 1 1.8-1.01c5.4 1.37 9.48 2.9 12.54 5.6 3.1 2.74 5 6.5 6.43 11.95a1.5 1.5 0 0 1-1.02 1.81l-14.65 4.45L73.75 68v19.97a1.5 1.5 0 0 1-.96 1.4c-8.48 3.27-15.2 4.95-22 4.95s-13.52-1.7-22-4.95a1.5 1.5 0 0 1-.96-1.4V44.25c0-8.12 2.82-14.16 7.2-18.1m15.65 2.48c-3.78-.13-6.75.71-9.05 2.13a14 14 0 0 0-4.87 5.22 19 19 0 0 0-2.17 7.4v.2l1.5.05-1.5-.05a1.5 1.5 0 0 0 1.5 1.55h28.6c.84 0 1.5-.67 1.5-1.5h-1.5 1.5v-.06l-.02-.61q-.04-.61-.22-1.63a17 17 0 0 0-1.69-4.97c-1.99-3.75-5.97-7.47-13.58-7.73"/><path fill="#0e2e46" d="m35.03 26.15-1-1.12zm15.81-5.45.06-1.5zm22.9 23.55h1.51zm.01 6.21h-1.5a1.5 1.5 0 0 0 2.67.93zm6.24-7.86 1.17.93q.23-.29.3-.64zm3.1-15.73-1.45-.36-.01.07zm.05-.15-1.44-.44-.02.08zm.63-.83-.8-1.26zm1.17-.18.37-1.46zm12.54 5.6 1-1.12zm6.43 11.95 1.45-.38zm-1.02 1.81.44 1.44zm-14.65 4.45-.44-1.43q-.45.15-.74.5zM73.75 68l-1.18-.92q-.31.4-.32.92zm-.96 21.37.54 1.4zm-22 4.95v1.5zm-22-4.95-.54 1.4zm-.96-45.12h-1.5zm22.85-15.62.05-1.5zm-9.05 2.13-.78-1.28zm-4.87 5.22-1.32-.72zm-1.85 5.18-1.47-.3zm-.27 1.71-1.5-.15zm-.05.5-1.5-.1zm0 .15-1.5-.08zm0 .04 1.5.07zm0 .01-1.5-.05v.05zm0 .01h-1.5c0 .48.22.93.6 1.21zm1.5.05-.06 1.5a1.5 1.5 0 0 0 .1-3zm-1.5-.05.04-1.5a1.5 1.5 0 0 0-1.55 1.45zm.41 1.1-1.07 1.04zm1.08.45v1.5zm30.12-1.5h1.5a1.5 1.5 0 0 0-1.5-1.5zm-1.5 0-1.06 1.06q.44.43 1.06.44zm0 0v-1.5a1.5 1.5 0 0 0-1.06 2.56zm1.5 0 .39 1.45a1.5 1.5 0 0 0 1.1-1.45zm0-.06h1.5v-.03zm0-.14 1.5-.05zm-.03-.47 1.5-.12zm-.22-1.63 1.48-.27zm-1.69-4.97 1.33-.7zM35.03 26.15l1 1.11c4.03-3.63 9.4-5.26 14.76-5.07l.05-1.5.06-1.5c-6.03-.22-12.19 1.62-16.88 5.84zm15.81-5.45-.05 1.5c10.73.4 21.46 8.15 21.46 22.05h3c0-15.83-12.34-24.6-24.35-25.05zm22.9 23.55h-1.49v6.21h3v-6.2zm.01 6.21 1.17.93 6.24-7.86L80 42.6l-1.18-.94-6.24 7.87zm6.24-7.86 1.47.29 3.11-15.73-1.47-.29-1.47-.29-3.11 15.72zm3.1-15.73 1.46.36.04-.15-1.45-.36-1.46-.36-.04.15zm.05-.15 1.43.44-.8-1.27-.8-1.26a3 3 0 0 0-1.27 1.65zm.63-.83.8 1.27.37-1.45.37-1.46a3 3 0 0 0-2.34.38zm1.17-.18-.37 1.45c5.35 1.37 9.14 2.83 11.92 5.28l1-1.12.98-1.13c-3.34-2.94-7.71-4.55-13.16-5.94zm12.54 5.6-.99 1.13c2.79 2.45 4.58 5.9 5.96 11.2l1.46-.38 1.45-.38c-1.46-5.6-3.47-9.68-6.89-12.69zm6.43 11.95-1.46.38.44 1.43.44 1.44a3 3 0 0 0 2.03-3.63zm-1.02 1.81-.44-1.43-14.65 4.45.44 1.43.43 1.44 14.66-4.45zm-14.65 4.45-1.18-.92-14.5 18.48 1.19.92 1.18.93 14.49-18.48zM73.75 68h-1.5v19.97h3V68zm0 19.97h-1.5l.54 1.4.54 1.4a3 3 0 0 0 1.92-2.8zm-.96 1.4-.54-1.4c-8.4 3.24-14.93 4.85-21.46 4.85v3c7.06 0 13.98-1.75 22.54-5.05zm-22 4.95v-1.5c-6.53 0-13.07-1.62-21.46-4.85l-.54 1.4-.54 1.4c8.56 3.29 15.48 5.05 22.54 5.05zm-22-4.95.54-1.4h-3a3 3 0 0 0 1.92 2.8zm-.96-1.4h1.5V44.25h-3v43.72zm0-43.72h1.5c0-7.75 2.68-13.36 6.7-16.99l-1-1.11-1-1.12c-4.74 4.27-7.7 10.74-7.7 19.22zm22.85-15.62.05-1.5c-4.04-.14-7.3.77-9.88 2.35l.78 1.28.79 1.28c2.02-1.25 4.69-2.03 8.2-1.9zm-9.05 2.13-.78-1.28a15.3 15.3 0 0 0-5.4 5.78l1.31.72 1.32.72a12.3 12.3 0 0 1 4.34-4.66zm-4.87 5.22-1.32-.72a20 20 0 0 0-2 5.6l1.47.3 1.47.3c.26-1.3.76-3.04 1.7-4.76zm-1.85 5.18-1.47-.3q-.22 1.16-.3 1.86l1.5.15 1.49.16q.05-.58.25-1.57zm-.27 1.71-1.5-.15-.04.55 1.5.1 1.5.1.03-.44zm-.05.5-1.5-.1v.17l1.5.08 1.5.07v-.11zm0 .15-1.5-.08v.06l1.5.06 1.5.06v-.03zm0 .04-1.5-.07v-.05.08zl1.5.06-.01.07v-.07zm0 .01h-1.5v.01h3zm0 .01-.9 1.21a1.5 1.5 0 0 0 .86.3h.19l1.3.04.04-1.5.05-1.5-1.29-.04h-.17.07l.13.02a2 2 0 0 1 .6.26zm1.5.05.04-1.5-1.5-.05-.05 1.5-.05 1.5 1.5.05zm-1.5-.05-1.5-.05a3 3 0 0 0 .84 2.19L35 44.68l1.08-1.05zm.41 1.1-1.07 1.04a3 3 0 0 0 2.15.91v-3zm1.08.45v1.5H64.7v-3H36.08zm28.62 0v1.5a3 3 0 0 0 3-3h-3zm1.5-1.5v-1.5h-1.5v3h1.5zm-1.5 0 1.06-1.06zl-1.06 1.06zm0 0v1.5h1.64l.25-.05-.4-1.45-.38-1.45.24-.04h.12-1.47zm1.5 0h1.5v-.06h-3v.06zm0-.06 1.5-.03v-.16l-1.5.05-1.5.06v.1zm0-.14 1.5-.05-.04-.54-1.5.12-1.49.11.02.42zm-.03-.47 1.5-.12q-.05-.67-.24-1.78l-1.48.27-1.47.26q.14.94.2 1.48zm-.22-1.63 1.48-.27c-.26-1.44-.78-3.4-1.84-5.4l-1.33.7-1.32.7c.88 1.66 1.32 3.3 1.54 4.53zm-1.69-4.97 1.33-.7c-2.22-4.19-6.67-8.25-14.86-8.53l-.05 1.5-.06 1.5c7.04.24 10.56 3.62 12.32 6.93z"/><path fill="#fff" stroke="#98c1d1" stroke-linecap="round" stroke-linejoin="round" stroke-width="3" d="M18.96 36.05c1.2 2.93 2.26 5.07 5.17 5.56-5.02.03-5.71.7-7.95 3.98-.4 6.36 3.18 7.95 5.56 9.14 3.18-.8 5.17-.8 6.76-5.17.8 3.18 1.2 5.35 4.37 6.76 7.06.14 8.35-3.58 9.14-8.35-1.86-3.12-3.3-3.51-5.96-3.97 3.1-.02 4.8-.5 7.55-3.98.24-6.02-2.11-6.87-6.35-8.34-3.33 1.82-4.74 3.1-5.97 6.75 0-3.57.4-5.56-3.18-8.74-6.37-.25-8.34 1.99-9.14 6.36"/><circle cx="29.69" cy="43.99" r="2.47" fill="#e4aa3e" stroke="#b27000" stroke-width="3"/><path fill="#385f93" stroke="#0e2e46" stroke-linecap="round" stroke-linejoin="round" stroke-width="3" d="M78.98 30.88s3.18 17.49 19.87 18.68c0 0-3.18-18.68-19.87-18.68"/><circle cx="86.53" cy="36.45" r="1.19" fill="#0e2e46"/><circle cx="88.12" cy="41.21" r="1.19" fill="#0e2e46"/><circle cx="92.89" cy="43.6" r="1.19" fill="#0e2e46"/><path fill="#a7eeea" stroke="#76b4cd" stroke-linecap="round" stroke-linejoin="round" stroke-width="3" d="M53.73 67.8c-1.29-4.32 4.5-11.09 4.5-11.09s5.13 6.77 3.85 11.08a4.31 4.31 0 0 1-8.35 0M44.19 82.1c-1.29-4.31 4.5-11.08 4.5-11.08s5.13 6.77 3.85 11.08a4.31 4.31 0 0 1-8.35 0"/></svg>