<svg xmlns="http://www.w3.org/2000/svg" fill="none" viewBox="0 0 115 115"><g filter="url(#crests-customer-success-filter0_d_26_10372)"><path fill="#fff" d="M80.25 8h-45.5a10 10 0 0 0-10 10v59.96c0 .57-.47 1.04-1.04 1.04a6.96 6.96 0 0 0-6.96 6.96v11.7a9.33 9.33 0 0 0 9.33 9.34h62.84a9.33 9.33 0 0 0 9.33-9.33V85.96A6.96 6.96 0 0 0 91.29 79c-.57 0-1.04-.47-1.04-1.04V18a10 10 0 0 0-10-10"/></g><rect width="44.55" height="72.73" x="34.98" y="17.5" fill="#699bdc" rx="2"/><path fill="#d9d9d9" stroke="#a79483" stroke-width="3.27" d="M30.8 88.23h52.9a2.37 2.37 0 0 1 2.37 2.36v4.91c0 .2-.16.37-.36.37H28.8a.37.37 0 0 1-.37-.37v-4.9a2.37 2.37 0 0 1 2.37-2.37Z"/><mask id="crests-customer-success-path-4-outside-1_26_10372" width="69" height="88" x="22.79" y="13.5" fill="#000" maskUnits="userSpaceOnUse"><path fill="#fff" d="M22.79 13.5h69v88h-69z"/><path d="M77.7 17.5c1 0 1.82.82 1.82 1.82v67.27h4.55c2 0 3.63 1.63 3.63 3.64v5.45c0 1-.81 1.82-1.81 1.82H28.6c-1 0-1.82-.81-1.82-1.82v-5.45a3.64 3.64 0 0 1 3.64-3.64h4.55V19.32c0-1 .81-1.82 1.81-1.82z"/></mask><path fill="#40396e" d="M79.52 86.6h-3.27c0 1.8 1.47 3.26 3.27 3.26zm4.55 0v-3.28zm1.82 10.9v3.27zm-57.28 0v3.27zm1.82-10.9v-3.28zm4.55 0v3.26c1.8 0 3.27-1.46 3.27-3.27zM77.7 17.5v3.27c-.8 0-1.45-.65-1.45-1.45h6.54a5.1 5.1 0 0 0-5.09-5.09zm1.82 1.82h-3.27v67.27h6.54V19.32zm0 67.27v3.27h4.55v-6.54h-4.55zm4.55 0v3.27c.2 0 .36.17.36.37h6.54a6.9 6.9 0 0 0-6.9-6.9zm3.63 3.64h-3.27v5.45h6.54v-5.45zm0 5.45h-3.27c0-.8.65-1.45 1.46-1.45v6.54a5.1 5.1 0 0 0 5.08-5.09zm-1.8 1.82v-3.27H28.6v6.54h57.3zm-57.28 0v-3.27c.8 0 1.45.65 1.45 1.45h-6.54a5.1 5.1 0 0 0 5.1 5.1zm-1.82-1.82h3.27v-5.45h-6.54v5.45zm0-5.45h3.27c0-.2.17-.37.37-.37v-6.54a6.9 6.9 0 0 0-6.9 6.9zm3.64-3.64v3.27h4.55v-6.54h-4.55zm4.55 0h3.27V19.32H31.7v67.27zm0-67.27h3.27c0 .8-.65 1.45-1.46 1.45v-6.54a5.1 5.1 0 0 0-5.08 5.09zm1.81-1.82v3.27h40.9v-6.54H36.8z" mask="url(#crests-customer-success-path-4-outside-1_26_10372)"/><rect width="10.91" height="24.55" x="43.16" y="25.68" fill="#a5ccff" stroke="#3971b9" stroke-width="3.27" rx="2"/><rect width="10.91" height="24.55" x="43.16" y="56.59" fill="#a5ccff" stroke="#3971b9" stroke-width="3.27" rx="2"/><rect width="10.91" height="24.55" x="61.34" y="25.68" fill="#a5ccff" stroke="#3971b9" stroke-width="3.27" rx="2"/><rect width="10.91" height="24.55" x="61.34" y="56.59" fill="#a5ccff" stroke="#3971b9" stroke-width="3.27" rx="2"/><circle cx="44.52" cy="54.32" r="4.09" fill="#f4a22d" stroke="#40396e" stroke-width="3.27"/><defs><filter id="crests-customer-success-filter0_d_26_10372" width="84.5" height="102" x="16.75" y="8" color-interpolation-filters="sRGB" filterUnits="userSpaceOnUse"><feFlood flood-opacity="0" result="BackgroundImageFix"/><feColorMatrix in="SourceAlpha" result="hardAlpha" values="0 0 0 0 0 0 0 0 0 0 0 0 0 0 0 0 0 0 127 0"/><feOffset dx="3" dy="3"/><feComposite in2="hardAlpha" operator="out"/><feColorMatrix values="0 0 0 0 0 0 0 0 0 0 0 0 0 0 0 0 0 0 0.4 0"/><feBlend in2="BackgroundImageFix" result="effect1_dropShadow_26_10372"/><feBlend in="SourceGraphic" in2="effect1_dropShadow_26_10372" result="shape"/></filter></defs></svg>