<svg xmlns="http://www.w3.org/2000/svg" fill="none" viewBox="0 0 115 115"><mask id="crests-customer-success-na-path-1-outside-1_180_5061" width="105" height="108" x="7.91" y="3.86" fill="#000" maskUnits="userSpaceOnUse"><path fill="#fff" d="M7.91 3.86h105v108h-105z"/><path d="M78.88 23.85q.9-.12 1.83.04a5.1 5.1 0 0 1 3.94 2.32c1 1.5 1.35 3.48 1.44 5.25a28 28 0 0 1-.35 5.95 62 62 0 0 1-.61 4.58l-.04.22 1.1 2.77.35.81.03.08.37.98 1.42 3.55a27 27 0 0 1 1.85-.15 17.6 17.6 0 0 1 17.72 9.23 15.8 15.8 0 0 1 1.23 11.8l-.01.02a17.6 17.6 0 0 1-4.37 7.65 23 23 0 0 1-1.67 1.6q-1.05.95-2.28 1.88l2.12 5.94c.16.46.09.97-.2 1.37-5.13 7.18-10.84 12.02-18.1 14.9a41 41 0 0 1-5.29 1.68 50 50 0 0 1-17.42 1.67q-1.94-.03-3.98-.12a1.5 1.5 0 0 1-1.3-.91l-3-7-4.78-10.38L28.28 76l-12.04 3.05q-.59.14-1.18.11l-.67.17a1.5 1.5 0 0 1-1.72-.84l-.17-.4a4 4 0 0 1-1.25-2.25l-.03-.2c-.87-6.52.04-12.62 2.99-17.58l.29-.46a21 21 0 0 1 6.74-6.63 19 19 0 0 1 4.5-2.13q1.25-.44 2.59-.76.71-.17 1.4-.09.78-.1 1.58-.1l.1-.02h.75a1.5 1.5 0 0 1 1.33 1.16l3.3 14.16 2.33 1.5c-2.72-7.25-3.25-13.5-2.2-18.76a22.6 22.6 0 0 1 9.45-14.36 27.6 27.6 0 0 1 15.2-4.77c4.2-.05 8.3.9 11.5 2.95q.33-.83.76-1.62c.5-1.06 1.15-2 1.93-2.73.85-.8 1.9-1.37 3.12-1.55m12.8 34.8 5.56 15.3a16 16 0 0 0 2.36-2.43q.84-1.09 1.37-2.33a7.5 7.5 0 0 0-.44-5.53c-1.67-3.54-4.68-4.69-7.3-4.95q-.82-.08-1.54-.06M60.39 36.8q-.66.05-1.26.14c-2.16.36-4.13 1.3-5.83 2.66-3.46 2.77-5.75 7.27-6.11 12.07q-.06 1.29.07 2.67l1.59-1a32 32 0 0 1 2.66-5.16c1-1.5 2.13-2.76 3.42-3.5a5 5 0 0 1 2.93-.65q1.16-.01 2.33.54a6 6 0 0 1 2.63 2.58l6.52-1.54 1.42-4.96q-.63-.63-1.27-1.14a15.7 15.7 0 0 0-8.08-2.73q-.52 0-1.02.02m13.3-29.13a5.14 5.14 0 0 1 7.47 2.26c.57 1.4.4 3.04-.7 4.5-1.67 2.24-2.8 3.05-3.58 3.8-.67.62-1.31 1.38-2.37 3.91a9 9 0 0 1-.95 1.78c-.28.4-.8 1-1.6 1.15-1.07.2-1.76-.52-2.05-1.01a4 4 0 0 1-.5-1.57c-.32-2.12 0-5.85 1.12-10.01.62-2.3 1.72-3.9 3.16-4.81"/></mask><path fill="#fff" d="M78.88 23.85q.9-.12 1.83.04a5.1 5.1 0 0 1 3.94 2.32c1 1.5 1.35 3.48 1.44 5.25a28 28 0 0 1-.35 5.95 62 62 0 0 1-.61 4.58l-.04.22 1.1 2.77.35.81.03.08.37.98 1.42 3.55a27 27 0 0 1 1.85-.15 17.6 17.6 0 0 1 17.72 9.23 15.8 15.8 0 0 1 1.23 11.8l-.01.02a17.6 17.6 0 0 1-4.37 7.65 23 23 0 0 1-1.67 1.6q-1.05.95-2.28 1.88l2.12 5.94c.16.46.09.97-.2 1.37-5.13 7.18-10.84 12.02-18.1 14.9a41 41 0 0 1-5.29 1.68 50 50 0 0 1-17.42 1.67q-1.94-.03-3.98-.12a1.5 1.5 0 0 1-1.3-.91l-3-7-4.78-10.38L28.28 76l-12.04 3.05q-.59.14-1.18.11l-.67.17a1.5 1.5 0 0 1-1.72-.84l-.17-.4a4 4 0 0 1-1.25-2.25l-.03-.2c-.87-6.52.04-12.62 2.99-17.58l.29-.46a21 21 0 0 1 6.74-6.63 19 19 0 0 1 4.5-2.13q1.25-.44 2.59-.76.71-.17 1.4-.09.78-.1 1.58-.1l.1-.02h.75a1.5 1.5 0 0 1 1.33 1.16l3.3 14.16 2.33 1.5c-2.72-7.25-3.25-13.5-2.2-18.76a22.6 22.6 0 0 1 9.45-14.36 27.6 27.6 0 0 1 15.2-4.77c4.2-.05 8.3.9 11.5 2.95q.33-.83.76-1.62c.5-1.06 1.15-2 1.93-2.73.85-.8 1.9-1.37 3.12-1.55m12.8 34.8 5.56 15.3a16 16 0 0 0 2.36-2.43q.84-1.09 1.37-2.33a7.5 7.5 0 0 0-.44-5.53c-1.67-3.54-4.68-4.69-7.3-4.95q-.82-.08-1.54-.06M60.39 36.8q-.66.05-1.26.14c-2.16.36-4.13 1.3-5.83 2.66-3.46 2.77-5.75 7.27-6.11 12.07q-.06 1.29.07 2.67l1.59-1a32 32 0 0 1 2.66-5.16c1-1.5 2.13-2.76 3.42-3.5a5 5 0 0 1 2.93-.65q1.16-.01 2.33.54a6 6 0 0 1 2.63 2.58l6.52-1.54 1.42-4.96q-.63-.63-1.27-1.14a15.7 15.7 0 0 0-8.08-2.73q-.52 0-1.02.02m13.3-29.13a5.14 5.14 0 0 1 7.47 2.26c.57 1.4.4 3.04-.7 4.5-1.67 2.24-2.8 3.05-3.58 3.8-.67.62-1.31 1.38-2.37 3.91a9 9 0 0 1-.95 1.78c-.28.4-.8 1-1.6 1.15-1.07.2-1.76-.52-2.05-1.01a4 4 0 0 1-.5-1.57c-.32-2.12 0-5.85 1.12-10.01.62-2.3 1.72-3.9 3.16-4.81"/><path fill="#fff" d="m78.88 23.85-.42-2.97zm1.83.04-.5 2.95.3.04zm1.79.43 1.23-2.73zm2.15 1.88 2.5-1.65zm1.44 5.26 3-.17zm-.22 4.97 2.98.38zm-.13.98-2.97-.46-.02.18zm-.34 2.87-2.97-.42zM85.13 42l-2.96-.5zm-.04.22-2.96-.52a3 3 0 0 0 .17 1.63zm1.1 2.77-2.78 1.11q0 .04.03.08zm.35.81v3a3 3 0 0 0 2.77-4.13zm0 0v-3a3 3 0 0 0-2.79 4.12zm.03.08L83.78 47a3 3 0 0 0 .66 1zm0 0 2.8-1.08a3 3 0 0 0-.68-1.04zm.37.98-2.8 1.08.02.04zm1.42 3.55-2.78 1.11a3 3 0 0 0 3.12 1.87zm1.85-.15.14 3 .24-.02zm17.72 9.23 2.65-1.4zm1.23 11.8 2.88.82zm-.01.02-2.89-.83-.02.08zm-4.37 7.65 2.18 2.06zm-1.67 1.6-1.96-2.28-.07.06zm-2.28 1.88-1.8-2.41a3 3 0 0 0-1.03 3.4zm2.12 5.94 2.82-1.01zm-.2 1.37 2.44 1.75zm-18.1 14.9 1.1 2.79zm-5.29 1.68-.72-2.91q-.06 0-.1.03zM61.94 108l.22-3h-.18zm-3.98-.12-.13 3zm-1.3-.91-2.76 1.18zm-3-7 2.75-1.18-.03-.07zm-4.78-10.38 2.73-1.26a3 3 0 0 0-1.08-1.25zM28.28 76l1.65-2.5a3 3 0 0 0-2.39-.4zm-12.04 3.05-.73-2.91a3 3 0 0 0-2.27 2.9zm0 0 .74 2.9a3 3 0 0 0 2.26-2.9zm-1.18.11.14-3a3 3 0 0 0-.85.09zm-.67.17.7 2.91zm-1.72-.84-2.73 1.24zm-.17-.4 2.76-1.17a3 3 0 0 0-.73-1.03zm-1.25-2.25-2.96.48.01.07zm-.03-.2-2.97.4v.08zm2.99-17.58-2.56-1.57-.02.04zm.29-.46L11.96 56l-.02.03zm6.74-6.63 1.57 2.56.05-.04zm4.5-2.13.92 2.86.07-.03zm2.59-.76v-3a3 3 0 0 0-.7.08zm0 0v3a3 3 0 0 0 .7-.09zm1.4-.09-.33 2.98a3 3 0 0 0 .66 0zm1.58-.1.1 2.99h.15zm.1-.02-.22-2.99zm.27 0-.29 2.99q.16.02.34.01zm.35 0 .14-3h-.14zm.13 0 .26-2.98-.12-.01zm1.33 1.16 2.93-.68zm3.3 14.16-2.91.68a3 3 0 0 0 1.29 1.84zm2.33 1.5-1.63 2.52a3 3 0 0 0 4.44-3.57zm-2.2-18.76-2.95-.59zm9.45-14.36-1.71-2.46zm15.2-4.77-.03-3zm11.5 2.95-1.62 2.52a3 3 0 0 0 4.4-1.4zm.76-1.62 2.63 1.45.07-.15zm1.93-2.73-2.06-2.2zm15.93 33.25-.05-3a3 3 0 0 0-2.77 4.02zm5.55 15.3-2.82 1.03a3 3 0 0 0 4.76 1.26zm2.36-2.43 2.37 1.82zm1.37-2.33 2.77 1.16.1-.27zm-.44-5.53 2.71-1.28zm-7.3-4.95.3-2.99zM60.37 36.8l-.17-3h-.04zm-1.26.14-.44-2.97-.05.01zm-5.83 2.66-1.88-2.34zm-6.11 12.07-3-.22v.1zm.07 2.67-3 .28a3 3 0 0 0 4.58 2.27zm1.59-1 1.59 2.55a3 3 0 0 0 1.17-1.37zm2.66-5.16L49 46.53zm3.42-3.5-1.47-2.6zm2.93-.65L57.57 47l.31.02zm2.33.54 1.3-2.71zm2.63 2.58-2.61 1.47a3 3 0 0 0 3.3 1.45zm6.52-1.54.7 2.92a3 3 0 0 0 2.19-2.1zm1.42-4.96 2.88.82a3 3 0 0 0-.75-2.93zm-1.27-1.14 1.86-2.35-.24-.18zm-8.08-2.73.07-3zM73.68 7.67l-1.6-2.54zm4.42-.54.96-2.84zm3.05 2.8 2.78-1.13zm-.7 4.5 2.41 1.79zm-3.58 3.8-2.06-2.19zm-2.37 3.91 2.76 1.17zm-.95 1.78 2.43 1.76zm-1.6 1.15.55 2.95zm-2.05-1.01-2.58 1.53zm-.5-1.57-2.97.46zm1.12-10.01-2.9-.78zm8.36 11.37.43 2.97q.39-.06.9.02l.5-2.95.5-2.96a9 9 0 0 0-2.75-.05zm1.83.04-.2 2.99q.45.04.75.18l1.24-2.74 1.23-2.73a8 8 0 0 0-2.8-.7zm1.79.43-1.24 2.74q.5.21.89.8l2.5-1.66 2.5-1.65a8 8 0 0 0-3.42-2.96zm2.15 1.88-2.5 1.65c.55.84.86 2.17.95 3.78l3-.17 2.99-.17c-.1-1.93-.5-4.56-1.93-6.74zm1.44 5.26-3 .17a23 23 0 0 1-.2 4.43l2.98.37 2.98.38c.18-1.44.35-3.45.24-5.52zm-.22 4.97-2.97-.37-.13.89 2.97.46 2.96.46.15-1.06zm-.13.98-3-.28c-.09 1.01-.2 1.95-.31 2.73l2.97.42 2.97.42c.12-.85.25-1.89.35-3.01zm-.34 2.87-2.97-.42-.26 1.62 2.96.51 2.95.51q.12-.66.29-1.8zM85.13 42l-2.96-.5-.04.2 2.96.52 2.95.53.02-.1.02-.14zm-.04.22-2.79 1.11 1.1 2.77 2.8-1.11 2.78-1.12-1.1-2.76zm1.1 2.77-2.75 1.19.32.75 2.78-1.13 2.77-1.13-.36-.87zm.35.81v-3zv3zm0 0-2.79 1.12.03.08 2.79-1.12 2.78-1.12-.03-.08zm.03.08L84.44 48zl2.12-2.12zm0 0-2.8 1.07.37.99 2.8-1.08 2.8-1.07-.37-.99zm.37.98-2.78 1.12 1.42 3.54 2.78-1.11 2.79-1.11-1.42-3.55zm1.42 3.55.34 2.98a24 24 0 0 1 1.65-.13l-.14-3-.13-3a30 30 0 0 0-2.06.17zm1.85-.15.38 2.98a14.6 14.6 0 0 1 14.68 7.65l2.66-1.4 2.65-1.4a20.6 20.6 0 0 0-20.75-10.8zm17.72 9.23-2.66 1.4a12.8 12.8 0 0 1 1 9.57l2.89.82 2.88.83c1.43-4.98.7-9.9-1.46-14.01zm1.23 11.8-2.89-.83.02-.07v-.01.03l-.03.07 2.89.83 2.88.83-.02.06v.01-.03l.03-.07zm-.01.02-2.9-.75a14.6 14.6 0 0 1-3.65 6.34l2.18 2.06 2.18 2.06a20.6 20.6 0 0 0 5.1-8.96zm-4.37 7.65-2.18-2.06q-.71.75-1.45 1.38l1.96 2.27 1.96 2.28q.94-.81 1.9-1.8zm-1.67 1.6-2.03-2.22q-.93.86-2.05 1.69l1.8 2.4 1.79 2.41q1.35-1 2.51-2.07zm-2.28 1.88-2.83 1 2.12 5.94 2.83-1 2.82-1.01-2.12-5.94zm2.12 5.94-2.83 1a1.5 1.5 0 0 1 .2-1.37l2.43 1.74 2.44 1.74a4.5 4.5 0 0 0 .58-4.12zm-.2 1.37L100.31 88c-4.86 6.81-10.15 11.22-16.77 13.85l1.1 2.79 1.11 2.79c7.9-3.13 14.05-8.4 19.44-15.95zm-18.1 14.9-1.1-2.8a39 39 0 0 1-4.91 1.57l.72 2.9.72 2.92a45 45 0 0 0 5.67-1.8zm-5.29 1.68-.83-2.88A47 47 0 0 1 62.16 105l-.22 2.99-.22 3c7.04.5 13.19-.27 18.47-1.79zM61.94 108l.04-3q-1.88-.03-3.88-.12l-.14 3-.13 3q2.08.09 4.06.12zm-3.98-.12.14-3a1.5 1.5 0 0 1 1.31.9l-2.75 1.19-2.76 1.18a4.5 4.5 0 0 0 3.93 2.72zm-1.3-.91 2.75-1.18-3-7-2.75 1.18-2.76 1.19 3 6.99zm-3-7 2.72-1.25-4.77-10.39-2.73 1.26-2.72 1.25 4.77 10.39zm-4.78-10.38 1.65-2.5-20.6-13.59-1.65 2.5-1.65 2.51 20.6 13.58zM28.28 76l-.74-2.9-12.03 3.04.73 2.9.74 2.91 12.04-3.04zm-12.04 3.05h-3zh3zm0 0-.73-2.91q-.15.03-.31.03l-.14 3-.15 2.99q1.03.05 2.07-.2zm-1.18.11-.71-2.91-.67.16.7 2.92.71 2.91.67-.16zm-.67.17-.7-2.92a1.5 1.5 0 0 1 1.7.84l-2.72 1.24-2.73 1.24a4.5 4.5 0 0 0 5.15 2.51zm-1.72-.84 2.73-1.24-.14-.33-2.76 1.18-2.76 1.17.2.46zm-.17-.4 2.03-2.2a1 1 0 0 1-.33-.6l-2.95.55-2.95.55a7 7 0 0 0 2.17 3.91zm-1.25-2.25 2.96-.47-.03-.2-2.96.47-2.96.48.03.2zm-.03-.2 2.97-.4c-.8-6.02.07-11.4 2.6-15.64l-2.58-1.54-2.58-1.53c-3.38 5.67-4.32 12.5-3.38 19.5zm2.99-17.58 2.56 1.57.28-.46-2.55-1.57-2.56-1.57-.29.46zm.29-.46 2.53 1.6a18 18 0 0 1 5.78-5.67l-1.57-2.56-1.57-2.56A24 24 0 0 0 11.96 56zm6.74-6.63 1.62 2.52a16 16 0 0 1 3.8-1.8l-.93-2.85-.92-2.85a22 22 0 0 0-5.19 2.45zm4.5-2.13.99 2.83q1.1-.38 2.3-.68l-.7-2.91-.7-2.92q-1.5.37-2.9.85zm2.59-.76v3zv-3zm0 0 .7 2.91q.2-.04.37-.02l.34-2.98.33-2.98a7 7 0 0 0-2.45.15zm1.4-.09.33 2.98q.66-.06 1.35-.1l-.1-2.99-.1-3q-.9.03-1.8.13zm1.58-.1.25 2.98h.09l-.23-3-.23-2.99-.12.01zm.1-.02.24 3-.26-.01.29-2.99.28-2.98a5 5 0 0 0-.77 0zm.27 0 .05 3h.3v-6h-.4zm.35 0-.13 3h.13l.13-3 .14-3h-.13zm.13 0-.26 3a1.5 1.5 0 0 1-1.33-1.16l2.92-.68 2.93-.69a4.5 4.5 0 0 0-4-3.45zm1.33 1.16-2.92.68 3.3 14.16 2.93-.68 2.92-.68-3.3-14.16zm3.3 14.16-1.62 2.52 2.32 1.5 1.63-2.52 1.63-2.52-2.32-1.5zm2.33 1.5 2.8-1.05c-2.55-6.84-2.98-12.53-2.06-17.13l-2.95-.58-2.94-.59c-1.18 5.92-.53 12.75 2.34 20.4zm-2.2-18.76 2.94.58a19.6 19.6 0 0 1 8.22-12.47l-1.71-2.47-1.71-2.46a25.6 25.6 0 0 0-10.69 16.23zm9.45-14.36 1.7 2.47a24.6 24.6 0 0 1 13.54-4.24l-.04-3-.03-3c-5.7.06-11.8 1.79-16.88 5.3zm15.2-4.77.04 3c3.76-.04 7.25.82 9.84 2.47l1.62-2.52 1.61-2.53c-3.8-2.43-8.5-3.47-13.14-3.42zm11.5 2.95 2.78 1.12q.27-.67.6-1.3l-2.62-1.44-2.63-1.45q-.53.98-.92 1.94zm.76-1.62 2.7 1.3q.6-1.22 1.28-1.84l-2.05-2.2-2.05-2.18a12 12 0 0 0-2.58 3.62zm1.93-2.73 2.05 2.19q.71-.67 1.5-.77l-.43-2.97-.42-2.97a8.7 8.7 0 0 0-4.75 2.33zm15.93 33.25-2.82 1.02 5.55 15.3 2.82-1.02 2.82-1.02-5.55-15.3zm5.55 15.3 1.94 2.29c.84-.7 1.86-1.69 2.8-2.9l-2.38-1.82-2.38-1.83c-.6.77-1.3 1.45-1.92 1.98zm2.36-2.43 2.37 1.82c.68-.87 1.3-1.88 1.77-3l-2.77-1.15-2.77-1.15a7 7 0 0 1-.98 1.65zm1.37-2.33 2.87.89c.7-2.3.7-4.94-.6-7.7l-2.71 1.28-2.72 1.28c.62 1.32.6 2.41.3 3.37zm-.44-5.53 2.71-1.28c-2.26-4.8-6.44-6.33-9.72-6.66l-.3 2.99-.3 2.98c1.98.2 3.82.98 4.9 3.25zm-7.3-4.95.3-2.99q-1-.09-1.9-.07l.06 3 .04 3q.6-.01 1.2.05zM60.37 36.8l-.2-3q-.81.06-1.5.17l.44 2.97.44 2.97q.5-.08 1.03-.12zm-1.26.14-.5-2.96a15.6 15.6 0 0 0-7.21 3.28l1.88 2.34 1.87 2.34a9.6 9.6 0 0 1 4.45-2.04zm-5.83 2.66-1.88-2.34c-4.15 3.33-6.8 8.63-7.23 14.19l3 .22 2.99.22a14.3 14.3 0 0 1 5-9.95zm-6.11 12.07-3-.12q-.06 1.5.08 3.07l2.99-.28 2.98-.27q-.1-1.2-.06-2.28zm.07 2.67 1.58 2.55 1.6-1-1.6-2.54-1.58-2.55-1.6 1zm1.59-1 2.76 1.18q1.2-2.86 2.4-4.68l-2.5-1.66-2.5-1.65a35 35 0 0 0-2.93 5.65zm2.66-5.16 2.5 1.66a8 8 0 0 1 2.4-2.54l-1.48-2.61-1.47-2.62A13.5 13.5 0 0 0 49 46.53zm3.42-3.5 1.47 2.62q.68-.36 1.18-.29l.28-2.98.3-2.99c-1.7-.16-3.3.25-4.7 1.03zm2.93-.65.03 3c.28 0 .61.05 1 .24l1.3-2.7 1.3-2.71a8 8 0 0 0-3.65-.83zm2.33.54-1.3 2.7c.55.26.95.7 1.32 1.35l2.6-1.47 2.62-1.48a9 9 0 0 0-3.95-3.81zm2.63 2.58.69 2.92 6.52-1.54-.69-2.92-.68-2.92-6.53 1.54zm6.52-1.54 2.89.82 1.41-4.96-2.88-.82-2.88-.82-1.42 4.96zm1.42-4.96 2.13-2.11q-.75-.77-1.54-1.38l-1.86 2.35-1.87 2.35q.5.39 1 .9zm-1.27-1.14 1.62-2.53a18.6 18.6 0 0 0-9.63-3.2l-.07 3-.08 3c1.84.05 4.05.65 6.53 2.25zm-8.08-2.73.07-3q-.65 0-1.26.02l.17 3 .17 3q.4-.03.77-.02zM73.68 7.67l1.6 2.54c.61-.4 1.28-.43 1.86-.23l.96-2.85.96-2.84a8.1 8.1 0 0 0-6.98.84zm4.42-.54-.96 2.85a2 2 0 0 1 1.23 1.08l2.78-1.13 2.78-1.13a8 8 0 0 0-4.87-4.5zm3.05 2.8-2.78 1.13c.15.38.18.9-.31 1.57l2.4 1.8 2.4 1.79a7.5 7.5 0 0 0 1.07-7.42zm-.7 4.5-2.4-1.8c-1.47 1.97-2.3 2.52-3.24 3.41l2.06 2.18 2.06 2.18c.62-.59 2.05-1.67 3.93-4.18zm-3.58 3.8-2.06-2.19c-1.06 1-1.9 2.16-3.08 4.94l2.77 1.16 2.76 1.17c.5-1.18.85-1.83 1.1-2.21.2-.34.37-.5.57-.7zm-2.37 3.91-2.77-1.16q-.4.9-.61 1.2l2.43 1.74 2.43 1.76c.52-.72.94-1.56 1.28-2.37zm-.95 1.78-2.43-1.75-.08.1q-.02.02 0 0a1 1 0 0 1 .37-.16l.55 2.96.54 2.95a5.6 5.6 0 0 0 3.48-2.34zm-1.6 1.15-.54-2.96q.18-.03.44.02.24.06.38.15.22.16.25.25l-2.58 1.53-2.58 1.53a5 5 0 0 0 5.18 2.43zm-2.05-1.01 2.58-1.53-.03-.1-.08-.4-2.97.46-2.96.46c.1.66.31 1.68.88 2.64zm-.5-1.57 2.97-.46c-.24-1.52-.02-4.8 1.05-8.78l-2.9-.77-2.9-.78c-1.16 4.34-1.6 8.54-1.19 11.25zm1.12-10.01 2.9.77c.48-1.78 1.23-2.65 1.85-3.04l-1.6-2.54-1.6-2.54c-2.24 1.41-3.7 3.77-4.45 6.57z" mask="url(#crests-customer-success-na-path-1-outside-1_180_5061)"/><path fill="#cd7f27" stroke="#b2441e" stroke-linecap="round" stroke-linejoin="round" stroke-width="3" d="M83.31 47.29c-13.24-2.57-34.18 3.41-41.45 17.09l12.4 2.56 20.93-8.12z"/><path fill="#fea138" stroke="#b2441e" stroke-linecap="round" stroke-linejoin="round" stroke-width="3" d="M52.84 30.05a23 23 0 0 1 17.8.22c5.93 2.6 11.15 7.85 14.5 16.09h0l.03.05 2.17 5.65.29-.05c1.54-.23 3.68-.41 6.02-.17 4.74.5 10.5 2.8 13.3 9.93 2.83 7.17.03 12.68-3.26 16.15a24 24 0 0 1-4.7 3.8l-.22.12 2.63 6.88s-12.53 21.66-43.28 17.36l-8.14-17.7-21.17-14.06-12.93 3.27c-.71.18-1.47.05-2.07-.36l-.11-.08a2.6 2.6 0 0 1-1-1.7c-.83-6.27.06-12.02 2.8-16.62 2.76-4.64 7.27-7.87 13.18-9.3a2.57 2.57 0 0 1 3.07 1.8l3.65 12.74 7.27 4.7-2.37-6.41c-6.15-15.21 1.46-27.89 12.54-32.3m40.53 27.17a16 16 0 0 0-3.77.1l7.08 19.47s2.84-2.31 3.77-3.51c1.88-2.4 3.42-6.02 1.43-10.26-1.96-4.17-5.56-5.5-8.5-5.8M53.98 36.9c-6.13 3.4-11.45 13.27-6.13 25.47 9.4 2.4 25.93-1.3 30.34-12.82l-3.28-5.81c-7.69-13.46-20.94-6.84-20.94-6.84"/><path fill="#cd7f27" stroke="#b2441e" stroke-linecap="round" stroke-linejoin="round" stroke-width="3" d="M14.03 77.37c-4.4-14.85 4.5-27 17.5-28 4.5 11.5-8.11 26.82-17.5 28"/><circle cx="24.96" cy="56.78" r="1.26" fill="#b2441e"/><circle cx="21.59" cy="59.31" r="1.26" fill="#b2441e"/><circle cx="22.44" cy="65.2" r="1.26" fill="#b2441e"/><circle cx="17.38" cy="63.52" r="1.26" fill="#b2441e"/><circle cx="17.38" cy="70.25" r="1.26" fill="#b2441e"/><path stroke="#fff" stroke-linecap="round" stroke-linejoin="round" stroke-width="3" d="m82.5 59.37 5 14.13"/><path fill="#a7eeea" stroke="#40396e" stroke-linecap="round" stroke-linejoin="round" stroke-width="3" d="M79.26 13.53c-3.16 4.22-3.91 2.72-6.15 8.03-2.23 5.32-3.33-.55-1.14-8.7s10.44-3.56 7.29.67"/><path fill="#a7eeea" stroke="#76b4cd" stroke-linecap="round" stroke-linejoin="round" stroke-width="3" d="M59.53 45.92c-7.23-3.46-11.5 17-11.5 17 9 2.5 17 0 24.5-5 4-2.67 10.29-12.53 11.5-19.5v0s3-14-4.5-13c-5.58.75-6.5 10-7 14s-1.87 14.65-7.5 13c-3.19-.93-2.5-5.07-5.5-6.5"/><path stroke="#fff" stroke-linecap="round" stroke-linejoin="round" stroke-width="3" d="m89.03 78.37 2 5.5"/><path stroke="#40396e" stroke-linecap="round" stroke-linejoin="round" stroke-width="3" d="M74.04 32.37c-12-11-49 0-31.5 36.5l-7-4.5-3.5-15c-15.5 0-23 17.5-18 28.5l14.5-3.5 22 14.5 7.5 17.5c21.5 1 33.5-3.5 43.5-17.5l-2.5-7c19.5-13.5 4.5-34.5-11.5-29.5l-4-10s2.83-14.5-1.5-16.5-7 1.5-8 6.5"/><path stroke="#40396e" stroke-linecap="round" stroke-linejoin="round" stroke-width="3" d="M72.53 39.87c-15.5-12.5-29.5 3-26.5 17l4-2.5c3.5-8.5 7.5-12 12-5.5l8.5-2zm24 36.5-7-19s8.5-2 12.5 5.5-5.5 13.5-5.5 13.5"/></svg>