<svg xmlns="http://www.w3.org/2000/svg" fill="none" viewBox="0 0 115 115"><g filter="url(#crests-data-warehouse-filter0_d_23_11394)"><path fill="#fff" d="M20.7 51.34 50.23 21.1a10 10 0 0 1 12.21-1.64l.55.32a10 10 0 0 0 5.06 1.37h8.98a10 10 0 0 1 10 10v8.57a10 10 0 0 0 2.82 6.96l7.21 7.45a6.24 6.24 0 0 1-.25 8.92l-2.25 2.08a3.62 3.62 0 0 0 .21 5.5 3.6 3.6 0 0 1 1 4.44l-.43.88a4.8 4.8 0 0 0 0 4.3l.03.07a5 5 0 0 1-1.16 5.97l-5.64 4.99a6 6 0 0 0-1.89 3.37 5.86 5.86 0 0 1-5.77 4.85H37.56a10 10 0 0 1-10-10V76.03a10 10 0 0 0-3.23-7.37l-3.24-2.97a10 10 0 0 1-.39-14.35"/></g><mask id="crests-data-warehouse-path-2-outside-1_23_11394" width="73" height="73" x="20.85" y="22.48" fill="#000" maskUnits="userSpaceOnUse"><path fill="#fff" d="M20.85 22.48h73v73h-73z"/><path fill-rule="evenodd" d="M59.64 26.64a4 4 0 0 0-5.64.02L25.02 55.64a4 4 0 0 0 .15 5.8l3.2 2.9a4 4 0 0 0 5.5-.11.2.2 0 0 1 .34.14v25.28c0 1.1.9 2 2 2h41.2a2 2 0 0 0 2-2V83.1l.64-.5a.75.75 0 0 1 1.03.1l2.94 3.34c.28.32.78.34 1.09.04l3.6-3.56c.3-.3.3-.78 0-1.07l-3.1-3.01a.75.75 0 0 1 .05-1.11l3.23-2.7a.75.75 0 0 0-.16-1.25l-9.32-4.42v-4.22c0-.6.72-.91 1.16-.5a4 4 0 0 0 5.51 0l2.94-2.8a4 4 0 0 0 .06-5.74l-9.07-8.96a2 2 0 0 1-.6-1.42v-16a2 2 0 0 0-2-2h-8.17a2 2 0 0 0-2 2c0 1.78-2.14 2.7-3.4 1.45z" clip-rule="evenodd"/></mask><path fill="#ffd699" fill-rule="evenodd" d="M59.64 26.64a4 4 0 0 0-5.64.02L25.02 55.64a4 4 0 0 0 .15 5.8l3.2 2.9a4 4 0 0 0 5.5-.11.2.2 0 0 1 .34.14v25.28c0 1.1.9 2 2 2h41.2a2 2 0 0 0 2-2V83.1l.64-.5a.75.75 0 0 1 1.03.1l2.94 3.34c.28.32.78.34 1.09.04l3.6-3.56c.3-.3.3-.78 0-1.07l-3.1-3.01a.75.75 0 0 1 .05-1.11l3.23-2.7a.75.75 0 0 0-.16-1.25l-9.32-4.42v-4.22c0-.6.72-.91 1.16-.5a4 4 0 0 0 5.51 0l2.94-2.8a4 4 0 0 0 .06-5.74l-9.07-8.96a2 2 0 0 1-.6-1.42v-16a2 2 0 0 0-2-2h-8.17a2 2 0 0 0-2 2c0 1.78-2.14 2.7-3.4 1.45z" clip-rule="evenodd"/><path fill="#40396e" d="m54 26.66-2.12-2.13zm5.64-.02 2.11-2.14zm-34.62 29 2.12 2.12zm.15 5.8-2.02 2.22zm3.2 2.9 2.02-2.23zm5.5-.11 2.1 2.14zM79.4 83.1l-1.85-2.36-1.15.9v1.46zm.64-.5-1.85-2.36zm1.03.1-2.25 1.97zm2.94 3.34-2.26 1.98zm1.09.04L83 83.95zm3.6-3.56-2.1-2.13zm0-1.07-2.09 2.15zm-3.1-3.01-2.08 2.15zm.05-1.11 1.93 2.3zm3.23-2.7-1.93-2.3zm-.16-1.25-1.29 2.7zm-9.32-4.42h-3v1.9l1.72.81zm1.16-4.72-2.07 2.18zm5.51 0 2.07 2.18zm2.94-2.8-2.06-2.17zm.06-5.74-2.1 2.14zM80 46.74l-2.1 2.16zM63.84 30.78l-2.1 2.14zM54 26.66l2.13 2.12a1 1 0 0 1 1.4 0l2.11-2.14 2.11-2.14a7 7 0 0 0-9.87.03zM25.02 55.64l2.12 2.12 28.99-28.98L54 26.66l-2.12-2.13L22.9 53.52zm.15 5.8 2-2.23a1 1 0 0 1-.03-1.45l-2.12-2.12-2.12-2.12a7 7 0 0 0 .25 10.14zm3.2 2.9 2.02-2.23-3.21-2.9-2.01 2.23-2.02 2.22 3.21 2.9zm5.5-.11-2.1-2.14a1 1 0 0 1-1.38.02l-2.01 2.23-2.02 2.22a7 7 0 0 0 9.6-.2zm.34.14h3a3.2 3.2 0 0 0-5.45-2.28l2.1 2.14 2.1 2.14a2.8 2.8 0 0 1-4.75-2zm0 25.28h3V64.37h-6v25.28zm2 2v-3a1 1 0 0 1 1 1h-6a5 5 0 0 0 5 5zm41.2 0v-3h-41.2v6h41.2zm2-2h-3a1 1 0 0 1 1-1v6a5 5 0 0 0 5-5zm0-6.54h-3v6.54h6V83.1zm0 0 1.86 2.36.64-.5-1.86-2.36-1.85-2.36-.64.5zm.64-.5 1.86 2.36c-.94.73-2.3.6-3.08-.3l2.25-1.97 2.26-1.98a3.75 3.75 0 0 0-5.14-.47zm1.03.1-2.25 1.97 2.93 3.35 2.26-1.98 2.25-1.98-2.93-3.35zm2.94 3.34-2.26 1.98a3.75 3.75 0 0 0 5.45.2l-2.1-2.14-2.1-2.14c.91-.9 2.4-.85 3.26.12zm1.09.04 2.1 2.14 3.61-3.56-2.1-2.14-2.11-2.13-3.6 3.55zm3.6-3.56 2.11 2.14a3.75 3.75 0 0 0-.01-5.36l-2.1 2.15-2.09 2.15c-.9-.88-.9-2.33-.01-3.21zm0-1.07 2.1-2.15-3.1-3.01-2.1 2.15-2.08 2.15 3.09 3.01zm-3.1-3.01 2.1-2.15c.96.93.9 2.48-.12 3.34l-1.93-2.3-1.92-2.3a3.75 3.75 0 0 0-.21 5.56zm.05-1.11 1.93 2.3 3.22-2.7-1.92-2.3-1.93-2.3-3.22 2.7zm3.23-2.7 1.92 2.3a3.75 3.75 0 0 0-.8-6.26l-1.28 2.7-1.29 2.72a2.25 2.25 0 0 1-.48-3.76zm-.16-1.25L90 70.68l-9.31-4.42-1.29 2.71-1.28 2.71 9.31 4.42zm-9.32-8.64h-3v4.22h6v-4.22zm1.16-.5 2.07-2.17a3.69 3.69 0 0 0-6.23 2.67h6a2.31 2.31 0 0 1-3.9 1.68zm5.51 0-2.06-2.17a1 1 0 0 1-1.38 0l-2.07 2.17-2.07 2.18a7 7 0 0 0 9.65 0zm2.94-2.8-2.06-2.17-2.94 2.8 2.06 2.17 2.07 2.18 2.94-2.8zm.06-5.74-2.1 2.14a1 1 0 0 1-.02 1.43l2.06 2.18 2.07 2.17a7 7 0 0 0 .1-10.05zm-9.07-8.96L77.9 48.9l9.07 8.96 2.11-2.14 2.1-2.13-9.06-8.96zm-.6-1.42h-3a5 5 0 0 0 1.49 3.56l2.1-2.14 2.12-2.13a1 1 0 0 1 .3.7zm0-16h-3v16h6v-16zm-2-2v3a1 1 0 0 1-1-1h6a5 5 0 0 0-5-5zm-8.17 0v3h8.17v-6h-8.17zm-2 2h3a1 1 0 0 1-1 1v-6a5 5 0 0 0-5 5zm-3.4 1.45-2.1 2.14c3.2 3.17 8.5.78 8.5-3.59h-6a1 1 0 0 1 .6-.9c.3-.13.78-.1 1.1.22zm-4.2-4.14-2.1 2.13 4.2 4.15 2.1-2.14 2.1-2.13-4.19-4.15z" mask="url(#crests-data-warehouse-path-2-outside-1_23_11394)"/><path stroke="#8799d8" stroke-linecap="round" stroke-linejoin="round" stroke-width="5" d="m70.5 67.5 5.42 19 4.58-3.72"/><path fill="#fff" d="M88.73 73.39 71.05 65a.75.75 0 0 0-1.05.87l5.22 19.2c.14.51.77.72 1.2.39l3.63-2.86a.75.75 0 0 1 1.03.1l2.94 3.34c.28.32.78.34 1.09.04l3.6-3.56c.3-.3.3-.78 0-1.07l-3.1-3.01a.75.75 0 0 1 .05-1.11l3.23-2.7a.75.75 0 0 0-.16-1.25"/><path fill="#df6133" d="M49.5 70.5a4 4 0 0 1 4-4h8a4 4 0 0 1 4 4v23h-16z"/><path fill="#f4a22d" d="M54.44 26.38 24.4 56.91a4 4 0 0 0 .15 5.75l3.52 3.24a4 4 0 0 0 5.53-.11l22.3-22.26a2 2 0 0 1 2.8-.03l23.09 22.31a4 4 0 0 0 5.56 0l3.24-3.12a4 4 0 0 0 .05-5.7l-30.5-30.63a4 4 0 0 0-5.69.02"/><path stroke="#b57d43" stroke-width="5" d="m29.5 65.5 24.23-22.52a4 4 0 0 1 5.38-.06L84.5 65.5"/><mask id="crests-data-warehouse-path-9-outside-2_23_11394" width="73" height="73" x="20.85" y="22.48" fill="#000" maskUnits="userSpaceOnUse"><path fill="#fff" d="M20.85 22.48h73v73h-73z"/><path fill-rule="evenodd" d="M59.64 26.64a4 4 0 0 0-5.64.02L25.02 55.64a4 4 0 0 0 .15 5.8l3.2 2.9a4 4 0 0 0 5.5-.11.2.2 0 0 1 .34.14v25.28c0 1.1.9 2 2 2h41.2a2 2 0 0 0 2-2V83.1l.64-.5a.75.75 0 0 1 1.03.1l2.94 3.34c.28.32.78.34 1.09.04l3.6-3.56c.3-.3.3-.78 0-1.07l-3.1-3.01a.75.75 0 0 1 .05-1.11l3.23-2.7a.75.75 0 0 0-.16-1.25l-9.32-4.42v-4.22c0-.6.72-.91 1.16-.5a4 4 0 0 0 5.51 0l2.94-2.8a4 4 0 0 0 .06-5.74z" clip-rule="evenodd"/></mask><path fill="#40396e" d="m54 26.66-2.12-2.13zm5.64-.02 2.11-2.14zm-34.62 29 2.12 2.12zm.15 5.8-2.02 2.22zm3.2 2.9 2.02-2.23zm5.5-.11 2.1 2.14zM79.4 83.1l-1.85-2.36-1.15.9v1.46zm.64-.5-1.85-2.36zm1.03.1-2.25 1.97zm2.94 3.34-2.26 1.98zm1.09.04L83 83.95zm3.6-3.56-2.1-2.13zm0-1.07-2.09 2.15zm-3.1-3.01-2.08 2.15zm.05-1.11 1.93 2.3zm3.23-2.7-1.93-2.3zm-.16-1.25-1.29 2.7zm-9.32-4.42h-3v1.9l1.72.81zm1.16-4.72-2.07 2.18zm5.51 0 2.07 2.18zm2.94-2.8-2.06-2.17zm.06-5.74-2.1 2.14zM54 26.66l2.13 2.12a1 1 0 0 1 1.4 0l2.11-2.14 2.11-2.14a7 7 0 0 0-9.87.03zM25.02 55.64l2.12 2.12 28.99-28.98L54 26.66l-2.12-2.13L22.9 53.52zm.15 5.8 2-2.23a1 1 0 0 1-.03-1.45l-2.12-2.12-2.12-2.12a7 7 0 0 0 .25 10.14zm3.2 2.9 2.02-2.23-3.21-2.9-2.01 2.23-2.02 2.22 3.21 2.9zm5.5-.11-2.1-2.14a1 1 0 0 1-1.38.02l-2.01 2.23-2.02 2.22a7 7 0 0 0 9.6-.2zm.34.14h3a3.2 3.2 0 0 0-5.45-2.28l2.1 2.14 2.1 2.14a2.8 2.8 0 0 1-4.75-2zm0 25.28h3V64.37h-6v25.28zm2 2v-3a1 1 0 0 1 1 1h-6a5 5 0 0 0 5 5zm41.2 0v-3h-41.2v6h41.2zm2-2h-3a1 1 0 0 1 1-1v6a5 5 0 0 0 5-5zm0-6.54h-3v6.54h6V83.1zm0 0 1.86 2.36.64-.5-1.86-2.36-1.85-2.36-.64.5zm.64-.5 1.86 2.36c-.94.73-2.3.6-3.08-.3l2.25-1.97 2.26-1.98a3.75 3.75 0 0 0-5.14-.47zm1.03.1-2.25 1.97 2.93 3.35 2.26-1.98 2.25-1.98-2.93-3.35zm2.94 3.34-2.26 1.98a3.75 3.75 0 0 0 5.45.2l-2.1-2.14-2.1-2.14c.91-.9 2.4-.85 3.26.12zm1.09.04 2.1 2.14 3.61-3.56-2.1-2.14-2.11-2.13-3.6 3.55zm3.6-3.56 2.11 2.14a3.75 3.75 0 0 0-.01-5.36l-2.1 2.15-2.09 2.15c-.9-.88-.9-2.33-.01-3.21zm0-1.07 2.1-2.15-3.1-3.01-2.1 2.15-2.08 2.15 3.09 3.01zm-3.1-3.01 2.1-2.15c.96.93.9 2.48-.12 3.34l-1.93-2.3-1.92-2.3a3.75 3.75 0 0 0-.21 5.56zm.05-1.11 1.93 2.3 3.22-2.7-1.92-2.3-1.93-2.3-3.22 2.7zm3.23-2.7 1.92 2.3a3.75 3.75 0 0 0-.8-6.26l-1.28 2.7-1.29 2.72a2.25 2.25 0 0 1-.48-3.76zm-.16-1.25L90 70.68l-9.31-4.42-1.29 2.71-1.28 2.71 9.31 4.42zm-9.32-8.64h-3v4.22h6v-4.22zm1.16-.5 2.07-2.17a3.69 3.69 0 0 0-6.23 2.67h6a2.31 2.31 0 0 1-3.9 1.68zm5.51 0-2.06-2.17a1 1 0 0 1-1.38 0l-2.07 2.17-2.07 2.18a7 7 0 0 0 9.65 0zm2.94-2.8-2.06-2.17-2.94 2.8 2.06 2.17 2.07 2.18 2.94-2.8zm.06-5.74-2.1 2.14a1 1 0 0 1-.02 1.43l2.06 2.18 2.07 2.17a7 7 0 0 0 .1-10.05zM59.64 26.64l-2.1 2.13 29.43 29.08 2.11-2.14 2.1-2.13L61.76 24.5z" mask="url(#crests-data-warehouse-path-9-outside-2_23_11394)"/><defs><filter id="crests-data-warehouse-filter0_d_23_11394" width="83.96" height="84.42" x="17.86" y="18.08" color-interpolation-filters="sRGB" filterUnits="userSpaceOnUse"><feFlood flood-opacity="0" result="BackgroundImageFix"/><feColorMatrix in="SourceAlpha" result="hardAlpha" values="0 0 0 0 0 0 0 0 0 0 0 0 0 0 0 0 0 0 127 0"/><feOffset dx="3" dy="3"/><feComposite in2="hardAlpha" operator="out"/><feColorMatrix values="0 0 0 0 0 0 0 0 0 0 0 0 0 0 0 0 0 0 0.4 0"/><feBlend in2="BackgroundImageFix" result="effect1_dropShadow_23_11394"/><feBlend in="SourceGraphic" in2="effect1_dropShadow_23_11394" result="shape"/></filter></defs></svg>