<svg xmlns="http://www.w3.org/2000/svg" fill="none" viewBox="0 0 115 115"><g filter="url(#crests-data-modelling-filter0_d_24_3216)"><path fill="#c86f1b" d="m65.35 27.52 6.05-4.85c14.25 6.27 18.46 17.11 7.48 29.93l-7.48-5.1c10.53-10.57 6.38-15.33-6.05-20"/><path stroke="#fff" stroke-opacity=".4" stroke-width="3" d="M72 21.3c7.32 3.22 12.4 7.76 14.04 13.47 1.66 5.76-.35 12.19-6.02 18.8l-.88 1.02-1.1-.75-7.48-5.09-1.5-1.02 1.28-1.28c2.58-2.58 4.15-4.71 4.94-6.48.77-1.72.76-3.02.32-4.1-.47-1.14-1.54-2.3-3.4-3.49a40 40 0 0 0-7.38-3.46L62.35 28l2.06-1.65 6.06-4.85.7-.57z"/><path fill="gray" d="M9.97 80.86h93.92v14.97c0 1.47-.92 2.78-2.3 3.27-29.06 10.17-60.21 11.6-89.46.05a3.4 3.4 0 0 1-2.16-3.2z"/><path stroke="#fff" stroke-opacity=".4" stroke-width="3" d="M105.39 79.36v16.47c0 2.1-1.3 3.99-3.3 4.69-29.34 10.26-60.86 11.73-90.51.03a4.9 4.9 0 0 1-3.1-4.6V79.36z"/><ellipse cx="56.93" cy="80.32" fill="#cacaca" rx="46.96" ry="11.52"/><path stroke="#fff" stroke-opacity=".4" stroke-width="3" d="M56.93 67.3c13.05 0 24.92 1.3 33.56 3.42 4.31 1.06 7.9 2.34 10.46 3.82 2.44 1.42 4.44 3.32 4.44 5.78s-2 4.36-4.44 5.78c-2.55 1.48-6.15 2.76-10.46 3.82-8.64 2.12-20.5 3.41-33.56 3.41-13.05 0-24.92-1.3-33.56-3.41-4.31-1.06-7.9-2.34-10.46-3.82-2.45-1.42-4.44-3.32-4.44-5.78s2-4.36 4.44-5.78c2.55-1.48 6.15-2.76 10.46-3.82C32 68.6 43.87 67.3 56.93 67.3Z"/><path stroke="#fff" stroke-opacity=".4" stroke-width="3" d="M56.93 72.3c10.14 0 19.36.74 26.08 1.94 3.34.6 6.14 1.32 8.14 2.16q1.52.62 2.53 1.48a3.3 3.3 0 0 1 1.26 2.44c0 1.06-.61 1.88-1.26 2.44a10 10 0 0 1-2.53 1.48c-2 .84-4.8 1.56-8.14 2.16-6.72 1.2-15.94 1.93-26.08 1.93s-19.36-.73-26.08-1.93a40 40 0 0 1-8.14-2.16 10 10 0 0 1-2.53-1.48 3.3 3.3 0 0 1-1.26-2.44c0-1.06.61-1.88 1.26-2.44a10 10 0 0 1 2.53-1.48c2-.84 4.8-1.57 8.14-2.16 6.72-1.2 15.94-1.93 26.08-1.93Z"/><path fill="#ee8f35" d="M39.87 21.17c-.76-4.03 2.29-7.65 6.3-8.51 7.8-1.68 13.65-1.83 21.06-.05 3.6.87 6.26 4.08 6 7.76-.34 5.03-2.15 8.39-6 12.22a4 4 0 0 0-1.18 2.76 4 4 0 0 0 2.46 3.59c17.99 7.63 18.25 23.12 8.98 41.38-16.08 5.8-25.04 5.47-41.12 0-7.14-16.48-10.69-33.2 8.37-41.35a4.1 4.1 0 0 0 2.55-3.7c0-1-.39-1.94-1.05-2.67-3.65-4-5.58-7.27-6.37-11.43"/><path stroke="#fff" stroke-opacity=".4" stroke-width="3" d="M45.85 11.19c7.99-1.72 14.07-1.88 21.73-.03 4.21 1.01 7.46 4.8 7.15 9.31-.37 5.47-2.4 9.16-6.45 13.19a2.4 2.4 0 0 0-.73 1.69c0 .92.6 1.8 1.55 2.2 9.37 3.99 14.35 10.14 15.6 17.85 1.23 7.57-1.18 16.36-5.87 25.6l-.27.53-.56.2c-8.13 2.93-14.57 4.36-21.08 4.31-6.5-.04-12.93-1.55-21.04-4.3l-.62-.22-.27-.6c-3.58-8.27-6.4-16.87-5.76-24.53a20.3 20.3 0 0 1 3.96-10.74c2.43-3.23 6.01-5.94 10.96-8.06a2.6 2.6 0 0 0 1.64-2.33c0-.6-.23-1.18-.66-1.65-3.75-4.12-5.87-7.63-6.73-12.17-.95-5 2.84-9.26 7.45-10.25Z"/><ellipse cx="56.79" cy="18.2" fill="#741f00" rx="10.29" ry="1.59"/><path stroke="#fff" stroke-opacity=".4" stroke-width="3" d="M56.8 15.1c2.89 0 5.54.19 7.5.5a13 13 0 0 1 2.49.57c.32.12.68.28.99.51.27.2.8.7.8 1.52 0 .81-.53 1.3-.8 1.51q-.48.35-1 .51c-.65.24-1.51.43-2.48.58-1.96.3-4.61.49-7.5.49-2.9 0-5.55-.18-7.51-.49-.97-.15-1.84-.34-2.5-.58a4 4 0 0 1-.98-.5c-.28-.21-.8-.7-.8-1.52s.52-1.31.8-1.52c.3-.23.67-.4.99-.51a14 14 0 0 1 2.49-.58 52 52 0 0 1 7.5-.48Z"/><path stroke="#fff" stroke-linecap="round" stroke-opacity=".4" stroke-width="3" d="M66.55 66.06c7.7 0 11.12 0 16.38-4.26M33.2 50.58c3.74 3.03 11.24 4.06 18.12 4.06m15.23-21.27c-3.02 1.91-5.38 1.91-8.8 1.91m-15.82-10.2c3.03 1.73 4.9 2.8 9.4 3.23m-4.03 44.4c6.42 1.4 10.2 1.51 17.1 0"/><mask id="crests-data-modelling-path-13-outside-1_24_3216" width="103" height="105" x="5.47" y="6.83" fill="#000" maskUnits="userSpaceOnUse"><path fill="#fff" d="M5.47 6.83h103v105h-103z"/><path d="M45.84 11.19c8-1.72 14.08-1.89 21.74-.04 4.21 1.02 7.46 4.82 7.15 9.32q-.07 1.05-.23 2.03c5.97 3.1 10.1 7.23 11.54 12.27 1.33 4.62.3 9.68-3.1 14.91q1.28 2.7 1.76 5.72c.7 4.3.23 8.97-1.17 13.9q3.76.64 6.96 1.42c4.31 1.05 7.9 2.34 10.46 3.82 2.12 1.23 3.9 2.82 4.33 4.82h.11v16.47c0 2.1-1.3 3.98-3.3 4.68-29.34 10.27-60.86 11.74-90.51.04a4.9 4.9 0 0 1-3.1-4.6v-16.6h.1c.43-2 2.21-3.6 4.33-4.82 2.55-1.48 6.15-2.77 10.46-3.82a96 96 0 0 1 7.38-1.48c-1.22-4.42-1.86-8.77-1.52-12.85a20.3 20.3 0 0 1 3.96-10.75c2.42-3.22 6.01-5.94 10.96-8.05a2.6 2.6 0 0 0 1.64-2.33c0-.6-.24-1.19-.66-1.66-3.75-4.11-5.88-7.62-6.73-12.16-.95-5 2.84-9.26 7.44-10.25M70.4 31.35q-.95 1.14-2.12 2.3a2.4 2.4 0 0 0-.73 1.7c0 .92.6 1.8 1.55 2.2a35 35 0 0 1 5.83 3.13l.35-.71c.77-1.72.76-3.02.32-4.1-.47-1.14-1.54-2.3-3.4-3.49q-.81-.52-1.8-1.03"/></mask><path fill="#fff" fill-opacity=".4" d="m45.84 11.19-.63-2.94zm21.74-.04.7-2.91zm7.15 9.32 3 .2zm-.23 2.03-2.96-.48-.34 2.14 1.92 1zm11.54 12.27 2.89-.83zm-3.1 14.91-2.52-1.63-.9 1.4.71 1.52zm1.76 5.72 2.96-.48zm-1.17 13.9-2.89-.81-.91 3.22 3.3.55zm6.96 1.42.72-2.92zm10.46 3.82 1.5-2.6zm4.33 4.82-2.93.64.52 2.36h2.41zm.11 0h3v-3h-3zm0 16.47h3zm-3.3 4.68.99 2.83zm-90.51.04-1.1 2.79zm-3.1-4.6h-3zm0-16.59v-3h-3v3zm.1 0v3h2.41l.52-2.36zm4.33-4.82-1.5-2.6zm10.46-3.82-.72-2.92zm7.38-1.48.48 2.96 3.3-.54-.9-3.22zm-1.52-12.85-2.99-.25zm3.96-10.75-2.4-1.8zm10.96-8.05-1.18-2.76zm1.64-2.33h3zm-.66-1.66-2.22 2.02zM38.4 21.44l-2.95.56zm32 9.9 1.39-2.65-2.15-1.13-1.55 1.88zm-2.12 2.32-2.11-2.13zm-.73 1.69h-3zm1.55 2.2-1.17 2.77zm5.83 3.13-1.68 2.48 2.76 1.86 1.56-2.93zm.35-.71L78 41.19zm.32-4.1 2.77-1.14zm-3.4-3.49 1.63-2.52zm-26.36-21.2.63 2.94c7.64-1.64 13.26-1.78 20.41-.05l.7-2.92.7-2.91c-8.17-1.98-14.72-1.78-23.07.01zm21.74-.03-.7 2.92c2.98.72 5.05 3.34 4.86 6.2l3 .2 2.98.2c.42-6.15-4-11.12-9.43-12.43zm7.15 9.32-3-.2q-.05.92-.19 1.75l2.96.48 2.97.47q.17-1.1.25-2.3zm-.23 2.03-1.38 2.66c5.57 2.9 8.9 6.48 10.04 10.43l2.88-.82 2.89-.83c-1.76-6.12-6.67-10.79-13.04-14.1zm11.54 12.27-2.88.82c1.02 3.57.33 7.73-2.74 12.46l2.52 1.63 2.52 1.63c3.72-5.74 5.1-11.68 3.47-17.37zm-3.1 14.91-2.71 1.29a18 18 0 0 1 1.51 4.91l2.96-.48 2.96-.48a24 24 0 0 0-2-6.52zm1.76 5.72-2.96.48c.61 3.74.22 7.97-1.1 12.6l2.89.82 2.89.82c1.47-5.22 2.03-10.36 1.24-15.2zm-1.17 13.9-.5 2.96q3.67.61 6.75 1.37l.71-2.91.72-2.92a98 98 0 0 0-7.19-1.45zm6.96 1.42-.71 2.91c4.18 1.03 7.47 2.23 9.67 3.5l1.5-2.6 1.5-2.59c-2.9-1.68-6.8-3.05-11.24-4.14zm10.46 3.82-1.5 2.6c1.95 1.13 2.75 2.15 2.9 2.86l2.94-.64 2.93-.64c-.72-3.3-3.48-5.46-5.76-6.78zm4.33 4.82v3h.11v-6h-.1zm.11 0h-3v16.47h6V79.36zm0 16.47h-3c0 .85-.53 1.58-1.3 1.85l1 2.83.99 2.83a7.95 7.95 0 0 0 5.31-7.5zm-3.3 4.68-1-2.83c-28.78 10.07-59.55 11.47-88.4.08l-1.11 2.79-1.1 2.79c30.44 12.01 62.72 10.46 92.6 0zm-90.51.04 1.1-2.8c-.72-.28-1.2-1-1.2-1.8h-6c0 3.2 1.92 6.17 5 7.39zm-3.1-4.6h3v-16.6h-6v16.58zm0-16.59v3h.1v-6h-.1zm.1 0 2.93.64c.15-.7.95-1.73 2.9-2.87l-1.5-2.6-1.5-2.59c-2.29 1.32-5.05 3.48-5.77 6.78zm4.33-4.82 1.5 2.6c2.2-1.28 5.49-2.48 9.67-3.51l-.71-2.91-.72-2.92c-4.43 1.1-8.34 2.46-11.25 4.14zm10.46-3.82.71 2.91a93 93 0 0 1 7.15-1.43l-.48-2.96-.49-2.96q-4.1.66-7.6 1.52zm7.38-1.48 2.89-.8c-1.16-4.21-1.72-8.19-1.42-11.8l-2.99-.25-2.99-.25c-.37 4.55.34 9.27 1.61 13.89zm-1.52-12.85 3 .25a17.3 17.3 0 0 1 3.36-9.2l-2.4-1.8-2.4-1.8a23.3 23.3 0 0 0-4.55 12.3zm3.96-10.75 2.4 1.8c2.04-2.7 5.16-5.14 9.74-7.1l-1.18-2.75-1.18-2.76Q35 38.25 30.8 43.84zm10.96-8.05 1.18 2.76a5.6 5.6 0 0 0 3.46-5.09h-6a.6.6 0 0 1 .1-.34l.08-.09zm1.64-2.33h3c0-1.38-.54-2.68-1.45-3.68l-2.21 2.02-2.22 2.02a.5.5 0 0 1-.12-.36zm-.66-1.66 2.21-2.02c-3.53-3.88-5.28-6.9-6-10.7l-2.94.56-2.95.56c1 5.27 3.49 9.27 7.46 13.62zM38.4 21.44l2.95-.55c-.58-3.03 1.7-6.03 5.12-6.77l-.63-2.93-.63-2.94C39.43 9.5 34.13 15.01 35.45 22zm32 9.9-2.31-1.9a29 29 0 0 1-1.92 2.09l2.11 2.13 2.12 2.12q1.25-1.24 2.31-2.52zm-2.12 2.32-2.11-2.13a5.4 5.4 0 0 0-1.62 3.82h6a.6.6 0 0 1-.15.43zm-.73 1.69h-3a5.5 5.5 0 0 0 3.38 4.97l1.17-2.76 1.17-2.76c.06.02.28.16.28.55zm1.55 2.2-1.17 2.77a32 32 0 0 1 5.32 2.84l1.68-2.48 1.67-2.5q-2.83-1.9-6.33-3.38zm5.83 3.13 2.64 1.41q.23-.44.44-.9l-2.73-1.22-2.74-1.22-.26.51zm.35-.71L78 41.19c1.03-2.29 1.19-4.45.36-6.46l-2.77 1.14L72.82 37q.1.18.08.5c-.02.23-.1.63-.36 1.24zm.32-4.1 2.77-1.14c-.8-1.95-2.45-3.53-4.54-4.87l-1.62 2.52-1.62 2.53c1.6 1.03 2.1 1.77 2.23 2.1zm-3.4-3.49 1.63-2.52q-.97-.62-2.04-1.17l-1.39 2.66L69.01 34q.9.45 1.58.9z" mask="url(#crests-data-modelling-path-13-outside-1_24_3216)"/></g><path fill="#c86f1b" stroke="#741f00" stroke-width="3" d="m65.35 27.52 6.05-4.85c14.25 6.27 18.46 17.11 7.48 29.93l-7.48-5.1c10.53-10.57 6.38-15.33-6.05-20Z"/><path fill="gray" stroke="#4c4c4c" stroke-width="3" d="M9.97 80.86h93.92v14.97c0 1.47-.92 2.78-2.3 3.27-29.06 10.17-60.21 11.6-89.46.05a3.4 3.4 0 0 1-2.16-3.2z"/><ellipse cx="56.93" cy="80.32" fill="#cacaca" stroke="#4c4c4c" stroke-width="3" rx="46.96" ry="11.52"/><ellipse cx="56.93" cy="80.32" stroke="#4c4c4c" stroke-opacity=".4" stroke-width="3" rx="36.51" ry="6.51"/><path fill="#ee8f35" stroke="#741f00" stroke-width="3" d="M39.87 21.17c-.76-4.03 2.29-7.65 6.3-8.51 7.8-1.68 13.65-1.83 21.06-.05 3.6.87 6.26 4.08 6 7.76-.34 5.03-2.15 8.39-6 12.22a4 4 0 0 0-1.18 2.76 4 4 0 0 0 2.46 3.59c17.99 7.63 18.25 23.12 8.98 41.38-16.08 5.8-25.04 5.47-41.12 0-7.14-16.48-10.69-33.2 8.37-41.35a4.1 4.1 0 0 0 2.55-3.7c0-1-.39-1.94-1.05-2.67-3.65-4-5.58-7.27-6.37-11.43Z"/><ellipse cx="56.79" cy="18.2" fill="#741f00" stroke="#741f00" stroke-width="3" rx="10.29" ry="1.59"/><path stroke="#741f00" stroke-linecap="round" stroke-opacity=".4" stroke-width="3" d="M66.55 66.06c7.7 0 11.12 0 16.38-4.26M33.2 50.58c3.74 3.03 11.24 4.06 18.12 4.06m15.23-21.27c-3.02 1.91-5.38 1.91-8.8 1.91m-15.82-10.2c3.03 1.73 4.9 2.8 9.4 3.23m-4.03 44.4c6.42 1.4 10.2 1.51 17.1 0"/><mask id="crests-data-modelling-path-22-inside-2_24_3216" fill="#fff"><path d="M45.84 11.19c8-1.72 14.08-1.89 21.74-.04 4.21 1.02 7.46 4.82 7.15 9.32q-.07 1.05-.23 2.03c5.97 3.1 10.1 7.23 11.54 12.27 1.33 4.62.3 9.68-3.1 14.91q1.28 2.7 1.76 5.72c.7 4.3.23 8.97-1.17 13.9q3.76.64 6.96 1.42c4.31 1.05 7.9 2.34 10.46 3.82 2.12 1.23 3.9 2.82 4.33 4.82h.11v16.47c0 2.1-1.3 3.98-3.3 4.68-29.34 10.27-60.86 11.74-90.51.04a4.9 4.9 0 0 1-3.1-4.6v-16.6h.1c.43-2 2.21-3.6 4.33-4.82 2.55-1.48 6.15-2.77 10.46-3.82a96 96 0 0 1 7.38-1.48c-1.22-4.42-1.86-8.77-1.52-12.85a20.3 20.3 0 0 1 3.96-10.75c2.42-3.22 6.01-5.94 10.96-8.05a2.6 2.6 0 0 0 1.64-2.33c0-.6-.24-1.19-.66-1.66-3.75-4.11-5.88-7.62-6.73-12.16-.95-5 2.84-9.26 7.44-10.25M70.4 31.35q-.95 1.14-2.12 2.3a2.4 2.4 0 0 0-.73 1.7c0 .92.6 1.8 1.55 2.2a35 35 0 0 1 5.83 3.13l.35-.71c.77-1.72.76-3.02.32-4.1-.47-1.14-1.54-2.3-3.4-3.49q-.81-.52-1.8-1.03"/></mask><path fill="#40396e" d="m45.84 11.19-.63-2.94zm21.74-.04.7-2.91zm7.15 9.32 3 .2zm-.23 2.03-2.96-.48-.34 2.14 1.92 1zm11.54 12.27 2.89-.83zm-3.1 14.91-2.52-1.63-.9 1.4.71 1.52zm1.76 5.72 2.96-.48zm-1.17 13.9-2.89-.81-.91 3.22 3.3.55zm6.96 1.42.72-2.92zm10.46 3.82 1.5-2.6zm4.33 4.82-2.93.64.52 2.36h2.41zm.11 0h3v-3h-3zm0 16.47h3zm-3.3 4.68.99 2.83zm-90.51.04-1.1 2.79zm-3.1-4.6h-3zm0-16.59v-3h-3v3zm.1 0v3h2.41l.52-2.36zm4.33-4.82-1.5-2.6zm10.46-3.82-.72-2.92zm7.38-1.48.48 2.96 3.3-.54-.9-3.22zm-1.52-12.85-2.99-.25zm3.96-10.75-2.4-1.8zm10.96-8.05-1.18-2.76zm1.64-2.33h3zm-.66-1.66-2.22 2.02zM38.4 21.44l-2.95.56zm32 9.9 1.39-2.65-2.15-1.13-1.55 1.88zm-2.12 2.32-2.11-2.13zm-.73 1.69h-3zm1.55 2.2-1.17 2.77zm5.83 3.13-1.68 2.49 2.76 1.85 1.56-2.93zm.35-.71L78 41.19zm.32-4.1 2.77-1.14zm-3.4-3.49 1.63-2.52zm-26.36-21.2.63 2.94c7.64-1.64 13.26-1.78 20.41-.05l.7-2.92.7-2.91c-8.17-1.98-14.72-1.78-23.07.01zm21.74-.03-.7 2.92c2.98.72 5.05 3.34 4.86 6.2l3 .2 2.98.2c.42-6.15-4-11.12-9.43-12.43zm7.15 9.32-3-.2q-.05.92-.19 1.75l2.96.48 2.97.47q.17-1.1.25-2.3zm-.23 2.03-1.38 2.66c5.57 2.9 8.9 6.48 10.04 10.43l2.88-.82 2.89-.83c-1.76-6.12-6.67-10.78-13.04-14.1zm11.54 12.27-2.88.82c1.02 3.57.33 7.73-2.74 12.46l2.52 1.63 2.52 1.64c3.72-5.75 5.1-11.7 3.47-17.38zm-3.1 14.91-2.71 1.29a18 18 0 0 1 1.51 4.91l2.96-.48 2.96-.48a24 24 0 0 0-2-6.52zm1.76 5.72-2.96.48c.61 3.74.22 7.97-1.1 12.6l2.89.82 2.89.82c1.47-5.22 2.03-10.36 1.24-15.2zm-1.17 13.9-.5 2.96q3.67.61 6.75 1.37l.71-2.91.72-2.92a98 98 0 0 0-7.19-1.45zm6.96 1.42-.71 2.91c4.18 1.03 7.47 2.23 9.67 3.5l1.5-2.6 1.5-2.59c-2.9-1.68-6.8-3.05-11.24-4.14zm10.46 3.82-1.5 2.6c1.95 1.13 2.75 2.15 2.9 2.86l2.94-.64 2.93-.64c-.72-3.3-3.48-5.46-5.76-6.78zm4.33 4.82v3h.11v-6h-.1zm.11 0h-3v16.47h6V79.36zm0 16.47h-3c0 .85-.53 1.58-1.3 1.85l1 2.83.99 2.83a7.95 7.95 0 0 0 5.31-7.5zm-3.3 4.68-1-2.83c-28.78 10.07-59.55 11.47-88.4.08l-1.11 2.79-1.1 2.79c30.44 12.01 62.72 10.46 92.6 0zm-90.51.04 1.1-2.8c-.72-.28-1.2-1-1.2-1.8h-6c0 3.2 1.92 6.17 5 7.39zm-3.1-4.6h3v-16.6h-6v16.58zm0-16.59v3h.1v-6h-.1zm.1 0 2.93.64c.15-.7.95-1.73 2.9-2.87l-1.5-2.6-1.5-2.59c-2.29 1.32-5.05 3.48-5.77 6.78zm4.33-4.82 1.5 2.6c2.2-1.28 5.49-2.48 9.67-3.51l-.71-2.91-.72-2.92c-4.43 1.1-8.34 2.46-11.25 4.14zm10.46-3.82.71 2.91a93 93 0 0 1 7.15-1.43l-.48-2.96-.49-2.96q-4.1.66-7.6 1.52zm7.38-1.48 2.89-.8c-1.16-4.21-1.72-8.19-1.42-11.8l-2.99-.25-2.99-.25c-.37 4.55.34 9.27 1.61 13.89zm-1.52-12.85 3 .25a17.3 17.3 0 0 1 3.36-9.2l-2.4-1.8-2.4-1.8a23.3 23.3 0 0 0-4.55 12.3zm3.96-10.75 2.4 1.8c2.04-2.7 5.16-5.14 9.74-7.1l-1.18-2.75-1.18-2.76Q35 38.25 30.8 43.84zm10.96-8.05 1.18 2.76a5.6 5.6 0 0 0 3.46-5.09h-6a.6.6 0 0 1 .1-.34l.08-.09zm1.64-2.33h3c0-1.38-.54-2.68-1.45-3.68l-2.21 2.02-2.22 2.02a.5.5 0 0 1-.12-.36zm-.66-1.66 2.21-2.02c-3.53-3.88-5.28-6.9-6-10.7l-2.94.56-2.95.56c1 5.27 3.49 9.27 7.46 13.62zM38.4 21.44l2.95-.55c-.58-3.03 1.7-6.03 5.12-6.77l-.63-2.93-.63-2.94C39.43 9.5 34.13 15.01 35.45 22zm32 9.9-2.31-1.9q-.84 1.02-1.92 2.09l2.11 2.13 2.12 2.12q1.25-1.24 2.31-2.52zm-2.12 2.32-2.11-2.13a5.4 5.4 0 0 0-1.62 3.82h6a.6.6 0 0 1-.15.43zm-.73 1.69h-3a5.5 5.5 0 0 0 3.38 4.97l1.17-2.76 1.17-2.76c.06.02.28.16.28.55zm1.55 2.2-1.17 2.77q3.02 1.29 5.32 2.85l1.68-2.5 1.67-2.48q-2.83-1.9-6.33-3.4zm5.83 3.13 2.64 1.41q.23-.44.44-.9l-2.73-1.22-2.74-1.22-.26.51zm.35-.71L78 41.19c1.03-2.29 1.19-4.45.36-6.46l-2.77 1.14L72.82 37q.1.18.08.5c-.02.23-.1.63-.36 1.24zm.32-4.1 2.77-1.14c-.8-1.95-2.45-3.52-4.54-4.87l-1.62 2.52-1.62 2.53c1.6 1.03 2.1 1.77 2.23 2.1zm-3.4-3.49 1.63-2.52q-.97-.62-2.04-1.17l-1.39 2.66L69.01 34q.9.45 1.58.9z" mask="url(#crests-data-modelling-path-22-inside-2_24_3216)"/><defs><filter id="crests-data-modelling-filter0_d_24_3216" width="105.92" height="107.94" x="5.47" y="6.83" color-interpolation-filters="sRGB" filterUnits="userSpaceOnUse"><feFlood flood-opacity="0" result="BackgroundImageFix"/><feColorMatrix in="SourceAlpha" result="hardAlpha" values="0 0 0 0 0 0 0 0 0 0 0 0 0 0 0 0 0 0 127 0"/><feOffset dx="3" dy="3"/><feComposite in2="hardAlpha" operator="out"/><feColorMatrix values="0 0 0 0 0 0 0 0 0 0 0 0 0 0 0 0 0 0 0.4 0"/><feBlend in2="BackgroundImageFix" result="effect1_dropShadow_24_3216"/><feBlend in="SourceGraphic" in2="effect1_dropShadow_24_3216" result="shape"/></filter></defs></svg>