<svg xmlns="http://www.w3.org/2000/svg" fill="none" viewBox="0 0 115 115"><mask id="crests-data-tools-path-1-outside-1_26_7148" width="88" height="100" x="17.38" y="10.43" fill="#000" maskUnits="userSpaceOnUse"><path fill="#fff" d="M17.38 10.43h88v100h-88z"/><path d="M42.5 15.46q5.05-1.87 9.08-.35c3.5 1.32 6.12 4.41 8.24 8.43q.74 1.2 1.44 2.57.14.26.34.3l1.55.44q.98.18 2.04.58l3.14.88a3.5 3.5 0 0 1 2.35 4.58h16.18l.12.14c.67.2 1.29.6 1.74 1.16l12.3 15.18c.5.63.77 1.4.77 2.2v52.21a3.5 3.5 0 0 1-3.5 3.5H31.68a3.5 3.5 0 0 1-3.5-3.5v-48.7a.5.5 0 0 0-.63-.47l-1.81.51a3.5 3.5 0 0 1-3.44-.89l-.9-.89a3.5 3.5 0 0 1 0-4.95l1.7-1.69a.5.5 0 0 0 .13-.51c-1.51-6-1.62-10.71.46-15.05 1-2.07 2.47-4 4.42-5.92a45 45 0 0 1 5.9-5.3 25 25 0 0 1 8.5-4.46"/></mask><path fill="#40396e" d="M42.5 15.46q5.05-1.87 9.08-.35c3.5 1.32 6.12 4.41 8.24 8.43q.74 1.2 1.44 2.57.14.26.34.3l1.55.44q.98.18 2.04.58l3.14.88a3.5 3.5 0 0 1 2.35 4.58h16.18l.12.14c.67.2 1.29.6 1.74 1.16l12.3 15.18c.5.63.77 1.4.77 2.2v52.21a3.5 3.5 0 0 1-3.5 3.5H31.68a3.5 3.5 0 0 1-3.5-3.5v-48.7a.5.5 0 0 0-.63-.47l-1.81.51a3.5 3.5 0 0 1-3.44-.89l-.9-.89a3.5 3.5 0 0 1 0-4.95l1.7-1.69a.5.5 0 0 0 .13-.51c-1.51-6-1.62-10.71.46-15.05 1-2.07 2.47-4 4.42-5.92a45 45 0 0 1 5.9-5.3 25 25 0 0 1 8.5-4.46"/><path fill="#fff" d="m42.5 15.46.8 2.9.12-.04.13-.04zm9.08-.35 1.06-2.8zm8.24 8.43-2.66 1.4.05.1.06.09zm1.44 2.57-2.68 1.36zm.34.3-.8 2.9zm1.55.44-.82 2.89.13.03.13.03zm2.04.58-1.03 2.81.11.04.11.03zm3.14.88.81-2.9zm2.35 4.58-2.83-1.01-1.44 4.01h4.27zm15.32 0v-3zm.04 0-.03 3h.03zm.82 0 2.27-1.95-.9-1.05h-1.37zm.12.14-2.28 1.95.58.68.86.25zm1.74 1.16 2.33-1.89zm12.3 15.18 2.32-1.88zm.77 54.41h3zm-.77 2.19-2.34-1.88zm-.2.22 2.18 2.07zm-.17.18-2.02-2.22zm-.22.19 1.83 2.37zm-.13.09-1.72-2.46zm-67.83.63v3zm-.04 0 .03-3h-.03zm-.75 0v3zm-3.5-3.5h-3zm-.63-49.17-.83-2.89zm-1.81.51-.83-2.88zm-3.44-.89-2.12 2.12zm-.9-.89-2.11 2.12zm0-4.95-2.11-2.12zm1.7-1.69 2.12 2.13zm.13-.51 2.9-.73zm.46-15.05-2.7-1.3zm4.42-5.92 2.1 2.14.06-.06.06-.06zm5.9-5.3-1.83-2.38zm8.5-4.46 1.04 2.82c2.86-1.07 5.1-1.06 6.98-.36l1.05-2.8 1.06-2.82c-3.53-1.32-7.3-1.09-11.18.35zm9.07-.35-1.05 2.81c2.49.94 4.65 3.26 6.63 7.02l2.66-1.4 2.65-1.4c-2.25-4.27-5.31-8.14-9.83-9.84zm8.24 8.43-2.55 1.59q.66 1.07 1.3 2.34l2.69-1.36 2.67-1.35q-.75-1.48-1.56-2.8zm1.44 2.57-2.68 1.36a3.6 3.6 0 0 0 2.21 1.84l.81-2.9.81-2.88c.73.2 1.25.68 1.52 1.23zm.34.3-.8 2.9 1.53.43.82-2.89.8-2.89-1.54-.43zm1.55.44-.56 2.95q.71.13 1.57.44l1.03-2.81 1.04-2.82q-1.28-.48-2.53-.7zm2.04.58-.8 2.88 3.13.89.81-2.9.81-2.88-3.14-.88zm3.14.88-.8 2.88q.16.06.2.1.06.05.1.14.1.23.02.45l2.83 1.01 2.82 1.02a6.5 6.5 0 0 0-4.36-8.5zm2.35 4.58v3H86v-6H70.68zm15.32 0v3h-.08.09l.03-3 .03-3h.05H86zm.04 0v3h.82v-6h-.82zm.82 0-2.28 1.96.12.13 2.28-1.95 2.27-1.95-.12-.14zm.12.14-.84 2.88q.15.05.25.17l2.33-1.9 2.33-1.88a6.5 6.5 0 0 0-3.24-2.15zm1.74 1.16-2.33 1.89 12.29 15.18 2.33-1.89 2.33-1.88L91.05 32.3zm12.3 15.18-2.34 1.89q.1.14.11.32h6a6.5 6.5 0 0 0-1.45-4.1zm.77 2.2h-3v52.21h6v-52.2zm0 52.21h-3q0 .18-.1.31l2.33 1.88 2.35 1.87a6.5 6.5 0 0 0 1.42-4.06zm-.77 2.19-2.34-1.87-.03.03 2.18 2.06 2.17 2.07.37-.42zm-.2.22-2.17-2.06-.03.03 2.03 2.21 2.02 2.22.33-.33zm-.17.18-2.02-2.22-.04.03 1.84 2.38 1.83 2.37q.18-.14.41-.35zm-.22.19-1.84-2.38-.01.01 1.72 2.46 1.73 2.45.23-.17zm-.13.09-1.73-2.46a.5.5 0 0 1-.28.1v6a6.5 6.5 0 0 0 3.74-1.19zm-2.01.63v-3H32.47v6h65.82zm-65.82 0v-3h.09-.1l-.03 3-.03 3h-.06.13zm-.04 0v-3h-.75v6h.75zm-.75 0v-3a.5.5 0 0 1-.5-.5h-6a6.5 6.5 0 0 0 6.5 6.5zm-3.5-3.5h3v-48.7h-6v48.7zm0-48.7h3c0-2.32-2.22-4-4.46-3.36l.83 2.89.82 2.88a2.5 2.5 0 0 1-3.19-2.4zm-.63-.47-.83-2.89-1.8.52.82 2.88.82 2.89 1.81-.52zm-1.81.51-.83-2.88a.5.5 0 0 1-.49-.13l-2.12 2.12-2.12 2.13A6.5 6.5 0 0 0 26.56 58zm-3.44-.89 2.12-2.12-.9-.89-2.11 2.12-2.12 2.12.89.9zm-.9-.89 2.13-2.12a.5.5 0 0 1 0-.7l-2.12-2.13-2.12-2.12a6.5 6.5 0 0 0 0 9.2zm0-4.95 2.13 2.12 1.69-1.68-2.12-2.12-2.13-2.13-1.68 1.7zm1.7-1.69 2.12 2.13a3.5 3.5 0 0 0 .92-3.37l-2.91.73-2.91.72c-.2-.8.02-1.69.65-2.33zm.13-.51 2.9-.73c-1.43-5.7-1.37-9.6.27-13.02l-2.7-1.3-2.7-1.3c-2.53 5.25-2.27 10.77-.68 17.08zm.46-15.05 2.7 1.3a19 19 0 0 1 3.82-5.08l-2.1-2.14-2.1-2.14a24 24 0 0 0-5.02 6.76zm4.42-5.92 2.22 2.02a42 42 0 0 1 5.5-4.94l-1.82-2.38-1.83-2.38a48 48 0 0 0-6.29 5.67zm5.9-5.3 1.83 2.38a22 22 0 0 1 7.45-3.94l-.78-2.9-.8-2.89c-3.48.95-6.71 2.8-9.53 4.97z" mask="url(#crests-data-tools-path-1-outside-1_26_7148)"/><path fill="#afd6dd" d="M49.3 54.78V35.95c0-.86.7-1.57 1.57-1.57h25.1a3.15 3.15 0 0 1 3.14 3.14v17.26c0 1.74-1.4 3.14-3.14 3.14H52.43a3.14 3.14 0 0 1-3.13-3.14"/><path fill="#c791c3" d="M30.47 38.3v65.48c0 1.1.9 2 2 2h65.82a2 2 0 0 0 2-2V51.6a2 2 0 0 0-.48-1.3L86.17 34.38h-10.2a3.15 3.15 0 0 1 3.14 3.14v17.26c0 1.74-1.4 3.14-3.14 3.14H52.43a3.14 3.14 0 0 1-3.13-3.14V35.95c0-.86.7-1.57 1.57-1.57h-20.4z"/><path stroke="#9f5f9a" stroke-width="3" d="M75.97 34.38h10.2L99.81 50.3a2 2 0 0 1 .48 1.3v52.18a2 2 0 0 1-2 2H32.47a2 2 0 0 1-2-2v-69.4h55.7m-55.7 0h20.4m25.1 0h-25.1m25.1 0a3.15 3.15 0 0 1 3.14 3.14v17.26c0 1.74-1.4 3.14-3.14 3.14H52.43a3.14 3.14 0 0 1-3.13-3.14V35.95c0-.86.7-1.57 1.57-1.57"/><path stroke="#5da8b6" stroke-width="3" d="M57.14 49.64V37.95c0-1.1.9-2 2-2H63a2 2 0 0 1 2 2v11.7a2 2 0 0 1-2 2h-3.85a2 2 0 0 1-2-2Z"/><path fill="#fffbe4" stroke="#9f5f9a" stroke-width="3" d="M40.67 94.36V74.04c0-1.1.9-2 2-2h45.42a2 2 0 0 1 2 2v20.32a2 2 0 0 1-2 2H42.67a2 2 0 0 1-2-2Z"/><path stroke="#9f5f9a" stroke-width="3" d="M48.51 79.1h32.17M48.5 88.52h32.17"/><path fill="#eda83f" stroke="#c28528" stroke-width="3" d="M68.22 33.49 26.09 52.74l-.36.16a1.96 1.96 0 1 1-1.61-3.57 2.1 2.1 0 0 0 1.09-2.62C21 34.48 27 27.18 34.92 21.11c8.14-6.26 18.1-8 25 5.67.26.52.72.92 1.28 1.07l6.73 1.9a2 2 0 0 1 .29 3.74Z"/><path stroke="#c28528" stroke-width="3" d="M32.04 49.3c-1.78-11.02-.01-22.84 21.18-29.03"/><path stroke="#40396e" stroke-width="3" d="M36.75 20.26c-12.17 8.37-15 13.84-12.07 25.55.18.7-.02 1.44-.52 1.95l-1.7 1.69a2 2 0 0 0 0 2.82l.9.9a2 2 0 0 0 1.96.5l1.81-.51a2 2 0 0 1 2.55 1.92v48.7c0 1.1.9 2 2 2H98.3a2 2 0 0 0 2-2V51.57a2 2 0 0 0-.44-1.26l-12.3-15.18a2 2 0 0 0-1.55-.75H70.13a2 2 0 0 1-2-2v-.73c0-.73-.4-1.41-1.05-1.75-2.37-1.21-3.82-1.62-5.46-1.75a2.2 2.2 0 0 1-1.86-1.27c-4.62-10.52-10.92-14.93-23.01-6.62Z"/></svg>