<svg xmlns="http://www.w3.org/2000/svg" fill="none" viewBox="0 0 115 115"><g filter="url(#crests-demand-gen-filter0_d_23_18879)"><path fill="#fff" d="m18.99 40.11 15.57-4.82a5.2 5.2 0 0 0 2.51-1.91c.32-.42.7-.84 1.1-1.09 1.5-.94 2.78-.24 4.2.61 1.07.65 2.06-.34 1.56-1.5a1.5 1.5 0 0 1 .02-1.21L52.1 12.6a4 4 0 0 1 3.62-2.32h4.95a4 4 0 0 1 4 4v1.17a4 4 0 0 0 3.27 3.93l.65.11c.98.18 1.8.86 2.14 1.8a2.83 2.83 0 0 0 3.49 1.7l6.71-2.06a4 4 0 0 1 4.98 2.56l11.26 33.8c1.38 4.1 1.5 7.8 1.5 11.7q0 .3-.04.58C96.1 86.4 90.94 95.4 71.67 101.8c-15.38 3.6-30.5-2.49-37.5-10.5-3.5-4-6.22-9.81-8.5-16l-9.32-30.18a4 4 0 0 1 2.64-5"/></g><path fill="#6e6e6e" d="m50.3 69.67.04-.02q.1.5.26.97a12 12 0 1 0 22.5-8.29l.04-.01-9.49-29.51 17.14-5.52 10.4 32.37-.06.02a30 30 0 0 1-56.99 18.33l-.06.02-10.41-32.36 17.13-5.52z"/><path fill="#40396e" d="m50.3 69.67-1.43.46a1.5 1.5 0 0 0 1.89.97zm.04-.02 1.46-.34a1.5 1.5 0 0 0-1.92-1.08zm.26.97-1.42.46zm22.5-8.29-.45-1.43a1.5 1.5 0 0 0-.93 2zm.04-.01.46 1.43a1.5 1.5 0 0 0 .97-1.9zM63.65 32.8l-.46-1.43a1.5 1.5 0 0 0-.97 1.88zm17.14-5.52 1.42-.46a1.5 1.5 0 0 0-1.88-.96zm10.4 32.37.47 1.43a1.5 1.5 0 0 0 .97-1.89zm-.06.02-.46-1.43a1.5 1.5 0 0 0-1 1.8zM34.14 78.01l1.4-.55a1.5 1.5 0 0 0-1.85-.88zm-.06.02-1.43.46a1.5 1.5 0 0 0 1.89.97zM23.67 45.67l-.46-1.43a1.5 1.5 0 0 0-.97 1.89zm17.13-5.52 1.43-.45a1.5 1.5 0 0 0-1.88-.97zm9.5 29.52.46 1.43.04-.02-.46-1.43-.46-1.42h-.04zm.04-.02-1.46.34q.12.55.3 1.09l1.42-.46 1.43-.46q-.14-.42-.23-.85zm.26.97-1.42.46a13.5 13.5 0 0 0 16.98 8.72l-.46-1.43-.46-1.43a10.5 10.5 0 0 1-13.2-6.78zm15.1 7.75.46 1.43a13.5 13.5 0 0 0 8.72-16.99l-1.43.46-1.43.46a10.5 10.5 0 0 1-6.78 13.21zm7.75-15.1 1.43-.46q-.18-.54-.39-1.05l-1.39.57-1.38.58q.16.4.3.82zm-.35-.94.46 1.43.04-.01-.46-1.43-.45-1.43-.04.01zm.04-.01 1.43-.46-9.49-29.51-1.43.46-1.43.45 9.5 29.52zM63.65 32.8l.46 1.42 17.14-5.5-.46-1.44-.46-1.42-17.14 5.5zm17.14-5.52-1.43.46 10.41 32.37 1.43-.46 1.43-.46L82.2 26.83zm10.4 32.37-.45-1.43-.07.02.46 1.43.46 1.43.07-.02zm-.06.02-1.45.37a28.5 28.5 0 0 1-18.93 34.03l.46 1.42.46 1.43a31.5 31.5 0 0 0 20.93-37.6zM71.21 95.5l-.46-1.42a28.5 28.5 0 0 1-35.21-16.62l-1.4.55-1.39.55a31.5 31.5 0 0 0 38.92 18.37zM34.14 78.01l-.45-1.43-.07.02.46 1.43.46 1.43.06-.02zm-.06.02 1.43-.46L25.1 45.21l-1.43.46-1.43.46 10.41 32.36zM23.67 45.67l.46 1.42 17.13-5.5-.46-1.44-.45-1.42-17.14 5.5zm17.13-5.52-1.42.46 9.49 29.52 1.43-.46 1.43-.46-9.5-29.51z"/><path fill="#5b95e2" d="m23.61 45.66 17.17-5.52 5.83 18.12-17.17 5.52z"/><path fill="#df6133" d="m63.67 32.78 17.17-5.52 5.83 18.12-17.17 5.53z"/><path stroke="#b24017" stroke-width="3" d="m69.67 50.79 16.5-5"/><path stroke="#215aa5" stroke-width="3" d="m29.67 63.3 16.5-5"/><path fill="#40396e" d="m50.3 69.67-1.43.46a1.5 1.5 0 0 0 1.89.97zm.04-.02 1.46-.34a1.5 1.5 0 0 0-1.92-1.08zm.26.97-1.42.46zm22.5-8.29-.45-1.43a1.5 1.5 0 0 0-.93 2zm.04-.01.46 1.43a1.5 1.5 0 0 0 .97-1.9zM63.65 32.8l-.46-1.43a1.5 1.5 0 0 0-.97 1.88zm17.14-5.52 1.42-.46a1.5 1.5 0 0 0-1.88-.96zm10.4 32.37.47 1.43a1.5 1.5 0 0 0 .97-1.89zm-.06.02-.46-1.43a1.5 1.5 0 0 0-1 1.8zM34.14 78.01l1.4-.55a1.5 1.5 0 0 0-1.85-.88zm-.06.02-1.43.46a1.5 1.5 0 0 0 1.89.97zM23.67 45.67l-.46-1.43a1.5 1.5 0 0 0-.97 1.89zm17.13-5.52 1.43-.45a1.5 1.5 0 0 0-1.88-.97zm9.5 29.52.46 1.43.04-.02-.46-1.43-.46-1.42h-.04zm.04-.02-1.46.34q.12.55.3 1.09l1.42-.46 1.43-.46q-.14-.42-.23-.85zm.26.97-1.42.46a13.5 13.5 0 0 0 16.98 8.72l-.46-1.43-.46-1.43a10.5 10.5 0 0 1-13.2-6.78zm15.1 7.75.46 1.43a13.5 13.5 0 0 0 8.72-16.99l-1.43.46-1.43.46a10.5 10.5 0 0 1-6.78 13.21zm7.75-15.1 1.43-.46q-.18-.54-.39-1.05l-1.39.57-1.38.58q.16.4.3.82zm-.35-.94.46 1.43.04-.01-.46-1.43-.45-1.43-.04.01zm.04-.01 1.43-.46-9.49-29.51-1.43.46-1.43.45 9.5 29.52zM63.65 32.8l.46 1.42 17.14-5.5-.46-1.44-.46-1.42-17.14 5.5zm17.14-5.52-1.43.46 10.41 32.37 1.43-.46 1.43-.46L82.2 26.83zm10.4 32.37-.45-1.43-.07.02.46 1.43.46 1.43.07-.02zm-.06.02-1.45.37a28.5 28.5 0 0 1-18.93 34.03l.46 1.42.46 1.43a31.5 31.5 0 0 0 20.93-37.6zM71.21 95.5l-.46-1.42a28.5 28.5 0 0 1-35.21-16.62l-1.4.55-1.39.55a31.5 31.5 0 0 0 38.92 18.37zM34.14 78.01l-.45-1.43-.07.02.46 1.43.46 1.43.06-.02zm-.06.02 1.43-.46L25.1 45.21l-1.43.46-1.43.46 10.41 32.36zM23.67 45.67l.46 1.42 17.13-5.5-.46-1.44-.45-1.42-17.14 5.5zm17.13-5.52-1.42.46 9.49 29.52 1.43-.46 1.43-.46-9.5-29.51z"/><path fill="#eda840" stroke="#40396e" stroke-linejoin="round" stroke-width="3" d="m51.5 54.35-3.44-4-3.4 2-1.77 1.04-.45-2-2.38-10.56 2.6-1.31 3.03 3.5 3.42-1.77 1.67-.86.47 1.81 2.83 10.78zm5.3-15.05v-7.2l-5.4-.98-2.03-.37.98-1.81 6.63-12.36 2.82.71v6.35l5.2 1.23 1.84.44-.83 1.69-6.38 12.95z"/><path fill="#eda840" d="m49.8 42.58 2.83 10.79-4.26-4.94-4.46 2.62-2.38-10.56 3.8 4.41z"/><defs><filter id="crests-demand-gen-filter0_d_23_18879" width="85.5" height="95.56" x="16.17" y="10.29" color-interpolation-filters="sRGB" filterUnits="userSpaceOnUse"><feFlood flood-opacity="0" result="BackgroundImageFix"/><feColorMatrix in="SourceAlpha" result="hardAlpha" values="0 0 0 0 0 0 0 0 0 0 0 0 0 0 0 0 0 0 127 0"/><feOffset dx="3" dy="3"/><feComposite in2="hardAlpha" operator="out"/><feColorMatrix values="0 0 0 0 0 0 0 0 0 0 0 0 0 0 0 0 0 0 0.4 0"/><feBlend in2="BackgroundImageFix" result="effect1_dropShadow_23_18879"/><feBlend in="SourceGraphic" in2="effect1_dropShadow_23_18879" result="shape"/></filter></defs></svg>