<svg xmlns="http://www.w3.org/2000/svg" fill="none" viewBox="0 0 116 115"><g filter="url(#crests-docs-and-wizard-filter0_d_23_22936)"><g filter="url(#crests-docs-and-wizard-filter1_d_23_22936)"><mask id="crests-docs-and-wizard-path-1-outside-1_23_22936" width="108" height="103" x="4" y="4.75" fill="#000" maskUnits="userSpaceOnUse"><path fill="#fff" d="M4 4.75h108v103H4z"/><path d="M54.12 10.75c.63 0 1.2.4 1.41.98L66.4 41.32h.63c3.89.04 7.73.82 12.47 2.15 4.84-1.44 8.75-2.27 12.66-2.32 4.04-.04 7.98.76 12.85 2.47.6.2 1 .78 1 1.41v39.62a1.5 1.5 0 0 1-2.02 1.41c-4.97-1.84-8.67-2.62-12.33-2.58-2.46.03-4.95.43-7.85 1.2l.87.47a102 102 0 0 1 6.64 3.98c2.22 1.46 4.42 3.09 5.62 4.55.54.67 1.21 1.69 1.04 2.83-.2 1.39-1.39 2.03-2.42 2.3-1 .27-3 .49-5.59.7-2.64.2-6.03.38-9.91.55-7.77.33-17.53.57-27.2.66-9.69.08-19.31.01-26.8-.28-3.75-.14-7-.34-9.45-.61a33 33 0 0 1-3.13-.46 6 6 0 0 1-2.15-.78c-.43-.3-.82-.7-1.07-1.2q-.37-.83-.2-1.65a4.5 4.5 0 0 1 1.57-2.32c1.36-1.19 3.53-2.34 5.68-3.33a88 88 0 0 1 8.45-3.33l.15-.05 5.73-16.02-.4-.42c-1.05-1.05-2.6-1.86-5.2-2.69a1.5 1.5 0 0 1 .02-2.86c4.35-1.35 6.58-4.33 7.49-8.4l.03-.11a1.5 1.5 0 0 1 2.82-.11l.24.59 16.08-44.94.05-.11a1.5 1.5 0 0 1 1.36-.89M38.47 60.46c1.35 2.25 2.86 3.6 4.97 4.26a1.5 1.5 0 0 1 .06 2.85c-2.34.82-3.73 1.63-4.7 2.68-.98 1.04-1.68 2.47-2.36 4.82a1.5 1.5 0 0 1-2.9-.06l-.11-.45-4.95 13.85q-.23.59-.8.86l-.15.06h-.01l-.04.02a75 75 0 0 0-2.86 1 85 85 0 0 0-6.06 2.46 23 23 0 0 0-4.97 2.87q-.35.3-.47.48l.15.06q.3.1.82.21 1.06.23 2.84.42c2.35.25 5.5.45 9.23.6a617 617 0 0 0 26.66.27 852 852 0 0 0 27.1-.66c3.86-.16 7.22-.35 9.8-.55q4-.31 5.06-.6l.06-.02-.23-.31c-.88-1.07-2.72-2.48-4.95-3.95a103 103 0 0 0-9.38-5.43l-.17-.08-.04-.03h-.01l-.3-.2-.57.19q-.48.15-.97-.01c-4.65-1.63-8.17-2.45-11.63-2.48-3.44-.03-6.95.73-11.56 2.47a1.5 1.5 0 0 1-2.03-1.4V45.02c0-.65.42-1.23 1.04-1.42 3.44-1.1 6.4-1.8 9.22-2.1l-9.12-24.86zm25.86-16.04c-2.51.2-5.17.76-8.33 1.72v36.39c3.9-1.32 7.24-1.97 10.62-1.94 3.73.03 7.41.88 11.87 2.4zm27.86-.27c-3.6.04-7.32.83-12.26 2.32a1.5 1.5 0 0 1-.84 0c-4.61-1.3-8.15-2.04-11.6-2.14l13.92 37.9a37 37 0 0 1 10.2-1.75c3.6-.04 7.15.63 11.39 2.05V46.11c-4.18-1.39-7.5-2-10.81-1.96m-65.31-5.5a1.5 1.5 0 0 1 1.51.95c1.99 4.96 3.8 7.62 7.05 8.62a1.5 1.5 0 0 1 .06 2.85c-2.34.82-3.73 1.63-4.7 2.68-.98 1.04-1.68 2.47-2.36 4.82a1.5 1.5 0 0 1-2.9-.06c-.56-2.32-1.27-3.72-2.3-4.74-1.06-1.05-2.62-1.86-5.2-2.69a1.5 1.5 0 0 1 .01-2.86c4.35-1.35 6.58-4.33 7.49-8.4l.03-.11c.18-.58.7-1 1.3-1.05"/></mask><path fill="#fff" d="M54.12 10.75c.63 0 1.2.4 1.41.98L66.4 41.32h.63c3.89.04 7.73.82 12.47 2.15 4.84-1.44 8.75-2.27 12.66-2.32 4.04-.04 7.98.76 12.85 2.47.6.2 1 .78 1 1.41v39.62a1.5 1.5 0 0 1-2.02 1.41c-4.97-1.84-8.67-2.62-12.33-2.58-2.46.03-4.95.43-7.85 1.2l.87.47a102 102 0 0 1 6.64 3.98c2.22 1.46 4.42 3.09 5.62 4.55.54.67 1.21 1.69 1.04 2.83-.2 1.39-1.39 2.03-2.42 2.3-1 .27-3 .49-5.59.7-2.64.2-6.03.38-9.91.55-7.77.33-17.53.57-27.2.66-9.69.08-19.31.01-26.8-.28-3.75-.14-7-.34-9.45-.61a33 33 0 0 1-3.13-.46 6 6 0 0 1-2.15-.78c-.43-.3-.82-.7-1.07-1.2q-.37-.83-.2-1.65a4.5 4.5 0 0 1 1.57-2.32c1.36-1.19 3.53-2.34 5.68-3.33a88 88 0 0 1 8.45-3.33l.15-.05 5.73-16.02-.4-.42c-1.05-1.05-2.6-1.86-5.2-2.69a1.5 1.5 0 0 1 .02-2.86c4.35-1.35 6.58-4.33 7.49-8.4l.03-.11a1.5 1.5 0 0 1 2.82-.11l.24.59 16.08-44.94.05-.11a1.5 1.5 0 0 1 1.36-.89M38.47 60.46c1.35 2.25 2.86 3.6 4.97 4.26a1.5 1.5 0 0 1 .06 2.85c-2.34.82-3.73 1.63-4.7 2.68-.98 1.04-1.68 2.47-2.36 4.82a1.5 1.5 0 0 1-2.9-.06l-.11-.45-4.95 13.85q-.23.59-.8.86l-.15.06h-.01l-.04.02a75 75 0 0 0-2.86 1 85 85 0 0 0-6.06 2.46 23 23 0 0 0-4.97 2.87q-.35.3-.47.48l.15.06q.3.1.82.21 1.06.23 2.84.42c2.35.25 5.5.45 9.23.6a617 617 0 0 0 26.66.27 852 852 0 0 0 27.1-.66c3.86-.16 7.22-.35 9.8-.55q4-.31 5.06-.6l.06-.02-.23-.31c-.88-1.07-2.72-2.48-4.95-3.95a103 103 0 0 0-9.38-5.43l-.17-.08-.04-.03h-.01l-.3-.2-.57.19q-.48.15-.97-.01c-4.65-1.63-8.17-2.45-11.63-2.48-3.44-.03-6.95.73-11.56 2.47a1.5 1.5 0 0 1-2.03-1.4V45.02c0-.65.42-1.23 1.04-1.42 3.44-1.1 6.4-1.8 9.22-2.1l-9.12-24.86zm25.86-16.04c-2.51.2-5.17.76-8.33 1.72v36.39c3.9-1.32 7.24-1.97 10.62-1.94 3.73.03 7.41.88 11.87 2.4zm27.86-.27c-3.6.04-7.32.83-12.26 2.32a1.5 1.5 0 0 1-.84 0c-4.61-1.3-8.15-2.04-11.6-2.14l13.92 37.9a37 37 0 0 1 10.2-1.75c3.6-.04 7.15.63 11.39 2.05V46.11c-4.18-1.39-7.5-2-10.81-1.96m-65.31-5.5a1.5 1.5 0 0 1 1.51.95c1.99 4.96 3.8 7.62 7.05 8.62a1.5 1.5 0 0 1 .06 2.85c-2.34.82-3.73 1.63-4.7 2.68-.98 1.04-1.68 2.47-2.36 4.82a1.5 1.5 0 0 1-2.9-.06c-.56-2.32-1.27-3.72-2.3-4.74-1.06-1.05-2.62-1.86-5.2-2.69a1.5 1.5 0 0 1 .01-2.86c4.35-1.35 6.58-4.33 7.49-8.4l.03-.11c.18-.58.7-1 1.3-1.05"/><path fill="#fff" d="m54.12 10.75-.02-6zm1.41.98 5.64-2.06zM66.4 41.32l-5.63 2.07a6 6 0 0 0 5.69 3.93zm.63 0 .06-6zm12.47 2.15-1.63 5.78a6 6 0 0 0 3.34-.03zm12.66-2.32-.06-6zM105 43.62l1.98-5.66zm1 1.41h6zm-.64 40.85 3.43 4.93zm-1.38.18-2.08 5.63zm-12.33-2.58-.07-6zm-7.85 1.2-1.54-5.8a6 6 0 0 0-1.33 11.07zm.87.47 2.9-5.25zm6.64 3.98 3.3-5.02zm5.62 4.55 4.64-3.8zm1.04 2.83 5.94.86zm-2.42 2.3 1.55 5.8zm-5.59.7.47 5.97zm-9.91.55.25 6zm-27.2.66.04 6zm-26.8-.28-.24 6zm-9.45-.61-.65 5.96zm-3.13-.46-1.23 5.87zm-2.15-.78-3.44 4.92zm-1.07-1.2-5.4 2.6zm-.2-1.65-5.87-1.22zm1.57-2.32L7.67 88.9zm5.68-3.33-2.5-5.46zm6.29-2.56-2.07-5.64zm2.16-.77 1.95 5.68zm.15-.05 1.93 5.68a6 6 0 0 0 3.71-3.66zm5.73-16.02 5.65 2.02a6 6 0 0 0-1.07-5.89zm-.4-.42L35.47 66zm-5.2-2.69-1.83 5.71zM25 66.14l-6-.03zm1.05-1.42 1.79 5.73zm7.49-8.4-5.8-1.53-.06.24zm.03-.11-5.74-1.77-.06.23zm1.3-1.05-.47-5.98zm1.52.94-5.57 2.22zm.24.59-5.54 2.3a6 6 0 0 0 11.2-.28zm16.08-44.94L47.15 9.5l-.09.21zm.05-.11-5.48-2.46-.1.22zM38.47 60.46l-5.65-2.02a6 6 0 0 0 .5 5.11zm4.97 4.26 1.77-5.73zm1.06 1.4 6-.12zm-1 1.45 2 5.65zm-4.7 2.68-4.4-4.1zm-2.36 4.82-5.76-1.67zm-1.47 1.08-.13 6zm-1.43-1.14-5.83 1.42zm-.11-.45 5.8-1.54a6 6 0 0 0-11.45-.48zm-4.95 13.85 5.65 2.02zm-.8.86 2.18 5.6.33-.15zm-.15.06-2.17-5.6-.52.23zm0 0 1.86 5.7a6 6 0 0 0 .82-.33zm-.01 0-1.85-5.7h-.02zm-.04.02-1.88-5.7zm-.16.05-1.9-5.7zm-.6.2 1.95 5.68zm-2.1.75-2.06-5.64zm-6.06 2.46-2.5-5.45zm-4.97 2.87-3.95-4.52zm-.47.48-4.73-3.7a6 6 0 0 0 2.47 9.26zm.15.06-1.9 5.69zm.82.21-1.23 5.87zm2.84.42-.65 5.96zm9.23.6-.24 5.99zm26.66.27.05 6zm27.1-.66-.26-6zm9.8-.55.47 5.98zm5.06-.6 1.55 5.8zm.06-.02 1.64 5.77a6 6 0 0 0 3.36-9.08zm-.23-.31 4.64-3.8zm-4.95-3.95 3.3-5.01zm-6.45-3.85 2.91-5.25zm-2.28-1.24-2.8 5.31zm-.65-.34 2.76-5.32zm-.17-.08 2.74-5.34zm-.04-.03-2.73 5.35zm-.01 0 2.77-5.32-.09-.05zm0 0-2.73 5.34.04.02zm-.3-.2 3.9-4.56a6 6 0 0 0-5.76-1.15zm-.57.19 1.9 5.7zm-.97-.01-1.97 5.66zM66.6 83.59l.05-6zm-11.56 2.47 2.1 5.61zm-1.38-.17-3.42 4.93zM53 45.03h-6zm1.04-1.42-1.82-5.72zm9.22-2.1.66 5.96a6 6 0 0 0 4.98-8.03zm-9.12-24.86 5.63-2.07a6 6 0 0 0-11.28.05zm10.2 27.77 5.63-2.07a6 6 0 0 0-6.14-3.91zM56 46.14l-1.74-5.74A6 6 0 0 0 50 46.14zm0 36.39h-6a6 6 0 0 0 7.92 5.68zm10.62-1.94.05-6zm11.87 2.4-1.93 5.68a6 6 0 0 0 7.56-7.75zm13.7-38.84-.07-6zm-12.26 2.32-1.73-5.74zm-.84 0-1.65 5.78zm-11.6-2.14.18-6a6 6 0 0 0-5.8 8.07zm13.92 37.9-5.63 2.07A6 6 0 0 0 83.1 88zm10.2-1.75-.06-6zM103 82.53l-1.9 5.7a6 6 0 0 0 7.9-5.7zm0-36.42h6a6 6 0 0 0-4.1-5.7zm-76.12-7.45-.48-5.98zm1.51.94-5.57 2.22zm7.05 8.62 1.77-5.73zm1.06 1.4 6-.12zm-1 1.45 2 5.65zm-4.7 2.68-4.4-4.1zm-2.36 4.82-5.76-1.67zm-1.47 1.08-.13 6zm-1.43-1.14-5.83 1.42zm-2.3-4.74 4.22-4.27zm-5.2-2.69-1.84 5.71zM17 49.64l-6-.03zm1.05-1.42 1.79 5.73zm7.49-8.4-5.8-1.53-.06.24zm.03-.11-5.74-1.77-.06.23zm28.55-28.96.02 6a4.5 4.5 0 0 1-4.24-2.95l5.63-2.07 5.64-2.06a7.5 7.5 0 0 0-7.07-4.92zm1.41.98L49.9 13.8l10.86 29.6 5.63-2.07 5.63-2.07L61.17 9.67zM66.4 41.32l.06 6h.5l.07-6 .06-6h-.74zm.63 0-.07 6c3.12.03 6.38.65 10.91 1.93l1.63-5.78 1.62-5.77c-4.93-1.4-9.36-2.33-14.03-2.38zm12.47 2.15 1.7 5.75c4.64-1.38 7.94-2.03 11.03-2.07l-.07-6-.06-6c-4.73.06-9.27 1.07-14.32 2.57zm12.66-2.32.07 6c3.12-.03 6.34.57 10.8 2.13l1.98-5.66 1.98-5.66c-5.28-1.86-9.94-2.86-14.9-2.8zM105 43.62l-2 5.66a4.5 4.5 0 0 1-3.01-4.25h12a7.5 7.5 0 0 0-5.02-7.07zm1 1.41h-6v39.62h12V45.03zm0 39.62h-6a4.5 4.5 0 0 1 1.93-3.69l3.43 4.92 3.43 4.93a7.5 7.5 0 0 0 3.21-6.16zm-.64 1.23-3.43-4.92a4.5 4.5 0 0 1 4.13-.53l-2.08 5.63-2.08 5.63a7.5 7.5 0 0 0 6.89-.88zm-1.38.18 2.08-5.63c-5.36-1.98-9.83-3-14.48-2.95l.07 6 .07 6c2.66-.03 5.6.52 10.18 2.2zm-12.33-2.58-.07-6c-3.1.04-6.1.55-9.32 1.4l1.54 5.8 1.54 5.8a26 26 0 0 1 6.38-1zm-7.85 1.2-2.87 5.27.83.45 2.9-5.25 2.91-5.25-.9-.49zm.87.47-2.9 5.25a107 107 0 0 1 6.25 3.74l3.3-5.01 3.29-5.02a112 112 0 0 0-7.04-4.2zm6.64 3.98-3.3 5.01c2.24 1.47 3.72 2.66 4.27 3.34l4.65-3.8 4.64-3.8c-1.84-2.25-4.75-4.32-6.96-5.77zm5.62 4.55-4.65 3.8c.11.13.05.08-.04-.13a3 3 0 0 1-.2-1.7l5.93.86 5.94.86c.56-3.87-1.67-6.68-2.34-7.49zm1.04 2.83-5.93-.85a3.6 3.6 0 0 1 1.26-2.24 3 3 0 0 1 .7-.4l1.55 5.79 1.55 5.8c1.66-.45 6.07-2.13 6.81-7.24zm-2.42 2.3L94.01 93l-.38.07q-.38.08-1 .14-1.25.15-3.13.3l.46 5.98.47 5.98c2.45-.19 5.03-.44 6.67-.87zm-5.59.7-.46-6a272 272 0 0 1-9.71.56l.26 6 .25 5.99c3.92-.17 7.39-.36 10.13-.58zm-9.91.55-.26-6c-7.69.33-17.37.57-27 .66l.05 6 .05 6c9.74-.09 19.57-.33 27.41-.66zm-27.2.66-.06-6c-9.63.08-19.15.01-26.52-.27l-.23 6-.23 5.99c7.63.3 17.36.36 27.08.28zm-26.8-.28.22-6c-3.69-.14-6.77-.33-9.02-.58l-.65 5.97-.65 5.96c2.66.3 6.06.5 9.86.65zm-9.45-.61.65-5.97a28 28 0 0 1-2.54-.37l-1.24 5.88-1.23 5.87c1.12.23 2.4.41 3.71.55zm-3.13-.46 1.24-5.88-.48-.11.1.04a2 2 0 0 1 .43.25l-3.44 4.92-3.43 4.92a12 12 0 0 0 4.35 1.73zm-2.15-.78 3.44-4.92c.15.1.58.44.9 1.1l-5.4 2.61L4.84 100a9 9 0 0 0 3.03 3.52zm-1.07-1.2 5.4-2.61c.36.74.42 1.52.28 2.18l-5.87-1.22-5.88-1.22a8.6 8.6 0 0 0 .67 5.47zm-.2-1.65 5.88 1.22c-.12.57-.35.91-.42 1.01q-.12.15.05-.03l-3.94-4.52-3.95-4.52a10.4 10.4 0 0 0-3.49 5.62zm1.57-2.32 3.94 4.52c.66-.57 2.14-1.43 4.25-2.4l-2.5-5.45-2.51-5.46c-2.2 1.01-5.07 2.47-7.13 4.27zm5.68-3.33 2.51 5.45a82 82 0 0 1 5.84-2.38l-2.06-5.63-2.07-5.64a94 94 0 0 0-6.72 2.74zm6.29-2.56 2.06 5.63 2.05-.72-1.95-5.68-1.94-5.68-2.29.81zm2.16-.77 1.95 5.68.13-.05-1.93-5.68-1.94-5.68-.1.04-.05.01zm.15-.05 5.64 2.02 5.74-16.02-5.65-2.02-5.65-2.02-5.73 16.02zm5.73-16.02 4.58-3.87q-.36-.43-.75-.82l-4.22 4.27-4.22 4.27.02.02zm-.4-.42L35.47 66c-2.07-2.04-4.71-3.2-7.58-4.13l-1.84 5.71-1.84 5.71c2.3.74 2.77 1.2 2.82 1.25zm-5.2-2.69 1.85-5.71a4.5 4.5 0 0 1 3.12 4.3l-6-.03-6-.03a7.5 7.5 0 0 0 5.2 7.18zM25 66.14l6 .04a4.5 4.5 0 0 1-3.16 4.27l-1.79-5.73-1.78-5.73A7.5 7.5 0 0 0 19 66.11zm1.05-1.42 1.79 5.73a16.5 16.5 0 0 0 7.8-5.01 18 18 0 0 0 3.75-7.81l-5.85-1.3-5.86-1.3a6 6 0 0 1-1.16 2.61c-.4.47-1.04.97-2.25 1.35zm7.49-8.4 5.8 1.54.03-.12-5.8-1.53-5.8-1.54-.03.12zm.03-.11 5.73 1.77a4.5 4.5 0 0 1-3.94 3.16l-.48-5.98-.49-5.98a7.5 7.5 0 0 0-6.56 5.26zm1.3-1.05.5 5.98a4.5 4.5 0 0 1-4.55-2.82l5.57-2.22 5.57-2.23a7.5 7.5 0 0 0-7.56-4.7zm1.52.94-5.57 2.22.27.66 5.54-2.3 5.55-2.28-.22-.53zm.24.59 5.65 2.02 16.08-44.94-5.65-2.02-5.65-2.03L31 54.67zm16.08-44.94 5.57 2.23.04-.1-5.56-2.24-5.57-2.24-.04.1zm.05-.11 5.47 2.45a4.5 4.5 0 0 1-4.09 2.66l-.02-6-.03-6a7.5 7.5 0 0 0-6.8 4.43zM38.47 60.46l-5.14 3.09c1.87 3.13 4.44 5.7 8.34 6.9l1.77-5.73 1.77-5.73c-.32-.1-.78-.26-1.6-1.61zm4.97 4.26-1.77 5.73a4.5 4.5 0 0 1-3.17-4.2l6-.13 6-.12a7.5 7.5 0 0 0-5.3-7zm1.06 1.4-6 .12a4.5 4.5 0 0 1 3-4.33l2 5.66 2 5.65a7.5 7.5 0 0 0 5-7.22zm-1 1.45-2-5.66c-2.73.96-5.16 2.18-7.1 4.24l4.4 4.1 4.38 4.1c.02-.03.37-.44 2.32-1.13zm-4.7 2.68-4.4-4.1c-1.91 2.06-2.94 4.55-3.72 7.25l5.76 1.67 5.76 1.67c.58-2 .95-2.36.98-2.4zm-2.36 4.82-5.76-1.67a4.5 4.5 0 0 1 4.42-3.25l-.13 6-.13 6a7.5 7.5 0 0 0 7.36-5.41zm-1.47 1.08.13-6a4.5 4.5 0 0 1 4.27 3.44L33.54 75l-5.83 1.42a7.5 7.5 0 0 0 7.13 5.72zm-1.43-1.14 5.83-1.42-.14-.57-5.8 1.54-5.8 1.54.08.33zm-.11-.45-5.65-2.02-4.95 13.85 5.65 2.02 5.65 2.02 4.95-13.85zm-4.95 13.85-5.65-2.02a4.5 4.5 0 0 1 2.36-2.58l2.5 5.46 2.5 5.45a7.5 7.5 0 0 0 3.94-4.29zm-.8.86-2.16-5.6-.16.07 2.17 5.59 2.17 5.6.16-.07zm-.15.06-2.69-5.37zl2.68 5.37zm0 0-1.87-5.7.12-.04.04-.01h.02l.01-.01h-.02l-.04.02-.12.03zl1.84 5.71-.17.05h.04l.04-.02.12-.04zm-.01 0-1.87-5.7-.03.01h-.02v.01h-.01.01l1.88 5.7 1.87 5.7.06-.02h-.03zm-.04.02-1.88-5.7-.17.05 1.9 5.7 1.89 5.69.13-.04zm-.16.05-1.9-5.7-.64.22 1.95 5.68 1.94 5.68.55-.19zm-.6.2-1.94-5.68c-.55.19-1.32.46-2.22.8l2.06 5.63 2.06 5.63q1.25-.46 1.99-.7zm-2.1.75-2.06-5.64c-1.8.66-4.21 1.6-6.5 2.65l2.5 5.45 2.5 5.45a79 79 0 0 1 5.62-2.28zm-6.06 2.46-2.5-5.45c-2.18 1-4.7 2.3-6.42 3.8l3.95 4.52 3.95 4.52c.3-.26 1.43-.97 3.52-1.94zm-4.97 2.87-3.95-4.52q-.72.64-1.25 1.3l4.73 3.7 4.73 3.7q-.28.33-.31.34zm-.47.48-2.26 5.56c-.01 0-.04-.02 0 0l.1.04.4.15 1.91-5.69 1.9-5.69.25.09.03.01h-.02l-.05-.03zm.15.06-1.9 5.69q.75.24 1.49.4l1.23-5.88 1.23-5.87-.19-.05h-.01l.06.02zm.82.21-1.23 5.87c.98.2 2.15.37 3.42.51l.65-5.96.64-5.97a25 25 0 0 1-2.25-.32zm2.84.42-.65 5.96c2.56.28 5.87.48 9.64.63l.24-6 .23-6a125 125 0 0 1-8.82-.56zm9.23.6-.24 5.99c7.57.3 17.25.36 26.95.28l-.05-6-.06-6c-9.6.08-19.08.01-26.37-.27zm26.66.27.05 6c9.7-.09 19.5-.33 27.3-.66l-.25-6-.26-6c-7.64.34-17.3.57-26.9.66zm27.1-.66.25 6c3.9-.17 7.33-.36 10.02-.57l-.46-5.98-.47-5.98c-2.5.2-5.77.38-9.6.54zm9.8-.55.47 5.98c2.52-.2 4.82-.43 6.14-.78l-1.55-5.8-1.54-5.8c.1-.03-.13.03-.96.13q-1.1.14-3.02.29zm5.06-.6 1.55 5.8.3-.1.13-.04q.02 0 0 0l-.04.02-.24.07-1.64-5.77-1.64-5.77-.27.08-.06.02h-.01l.21-.06.16-.05zm.06-.02 5-3.31q-.23-.36-.59-.8l-4.64 3.8-4.65 3.8-.13-.18zm-.23-.31 4.64-3.8c-1.52-1.86-4.08-3.7-6.3-5.16l-3.29 5.01-3.3 5.02q1.56 1.01 2.56 1.81.5.39.78.66t.26.26zm-4.95-3.95 3.3-5.01a109 109 0 0 0-6.84-4.09l-2.9 5.25-2.91 5.25a97 97 0 0 1 6.06 3.62zm-6.45-3.85 2.91-5.25c-.97-.54-1.8-.98-2.39-1.3l-2.8 5.31-2.8 5.31 2.18 1.18zm-2.28-1.24 2.8-5.3-.69-.36-2.76 5.32-2.76 5.33.61.32zm-.65-.34 2.76-5.32-.08-.05q-.05-.01-.1-.05l-2.75 5.34-2.74 5.33.15.08zm-.17-.08 2.74-5.34-.1-.06h-.02l.03.01.04.02-2.73 5.34-2.73 5.35.05.02.02.02h.02l-.06-.03zm-.04-.03 2.73-5.34.2.1h-.02l-.15-.08-2.77 5.32-2.78 5.32-.16-.09h.01l.2.12zm-.01 0 2.68-5.37zl-2.68 5.36zm0 0 2.72-5.35q.56.3.88.59l-3.9 4.56-3.9 4.56q.6.52 1.47.98zm-.3-.2-1.86-5.7q-.3.08-.6.2l1.9 5.69 1.88 5.7.54-.19zm-.57.19-1.89-5.7a4.5 4.5 0 0 1 2.9.02l-1.98 5.67-1.97 5.66a7.5 7.5 0 0 0 4.83.04zm-.97-.01 1.98-5.67c-4.9-1.71-9.14-2.77-13.56-2.81l-.05 6-.05 6c2.5.02 5.3.6 9.7 2.14zM66.6 83.59l.05-6c-4.44-.04-8.71.97-13.72 2.85l2.1 5.62 2.11 5.61c4.23-1.58 6.97-2.1 9.41-2.08zm-11.56 2.47-2.11-5.62a4.5 4.5 0 0 1 4.14.51l-3.41 4.94-3.42 4.93a7.5 7.5 0 0 0 6.9.85zm-1.38-.17 3.41-4.94a4.5 4.5 0 0 1 1.94 3.7H47a7.5 7.5 0 0 0 3.23 6.17zM53 84.65h6V45.03H47v39.62zm0-39.62h6a4.5 4.5 0 0 1-3.13 4.3l-1.83-5.72-1.82-5.72A7.5 7.5 0 0 0 47 45.03zm1.04-1.42 1.83 5.71a41 41 0 0 1 8.05-1.85l-.66-5.97-.65-5.96a53 53 0 0 0-10.4 2.35zm9.22-2.1 5.64-2.07-9.13-24.86-5.63 2.07-5.63 2.07 9.12 24.85zm-9.12-24.86-5.65-2.02-15.67 43.81 5.65 2.02 5.65 2.02 15.67-43.8zm10.2 27.77-.5-5.98c-3.06.25-6.14.92-9.58 1.96L56 46.14l1.74 5.74a34 34 0 0 1 7.1-1.48zM56 46.14h-6v36.39h12v-36.4zm0 36.39 1.92 5.68c3.47-1.17 6.12-1.64 8.65-1.62l.05-6 .05-6c-4.23-.04-8.25.79-12.59 2.25zm10.62-1.94-.05 6c2.82.02 5.8.66 9.99 2.08l1.93-5.68 1.93-5.68c-4.73-1.61-9.1-2.68-13.75-2.72zm11.87 2.4 5.63-2.07-14.15-38.57-5.64 2.07-5.63 2.06 14.16 38.58zm13.7-38.84-.07-6c-4.45.05-8.8 1.03-13.92 2.58l1.73 5.74 1.74 5.74c4.75-1.43 7.82-2.03 10.58-2.06zm-12.26 2.32-1.73-5.74a4.5 4.5 0 0 1 2.53-.02l-1.64 5.77-1.64 5.77a7.5 7.5 0 0 0 4.22-.04zm-.84 0 1.64-5.76c-4.78-1.37-8.88-2.25-13.06-2.38l-.17 6-.18 6c2.7.08 5.69.65 10.12 1.92zm-11.6-2.14-5.63 2.07 13.92 37.9 5.63-2.07 5.63-2.06-13.91-37.9zm13.92 37.9L83.1 88c3.43-1 6.08-1.48 8.58-1.51l-.06-6-.07-6c-4 .05-7.8.81-11.83 2zm10.2-1.75.07 6c2.74-.03 5.6.47 9.41 1.74l1.91-5.69 1.9-5.69c-4.67-1.56-8.9-2.41-13.35-2.36zM103 82.53h6V46.11H97v36.42zm0-36.42 1.9-5.7c-4.62-1.53-8.61-2.3-12.78-2.26l.07 6 .06 6c2.48-.02 5.12.4 8.86 1.65zm-76.12-7.45.48 5.98a4.5 4.5 0 0 1-4.54-2.82l5.57-2.22 5.57-2.23a7.5 7.5 0 0 0-7.56-4.7zm1.51.94-5.57 2.22c2.05 5.12 4.76 10.25 10.85 12.13l1.77-5.73 1.77-5.73c-.33-.1-.6-.25-1.05-.8-.57-.73-1.27-2-2.2-4.32zm7.05 8.62-1.77 5.73a4.5 4.5 0 0 1-3.17-4.2l6-.13 6-.12a7.5 7.5 0 0 0-5.29-7.01zm1.06 1.4-6 .12a4.5 4.5 0 0 1 3-4.33l2 5.66 2 5.65a7.5 7.5 0 0 0 5-7.22zm-1 1.45-2-5.66c-2.73.96-5.16 2.18-7.1 4.24l4.4 4.1 4.38 4.1c.02-.03.37-.44 2.32-1.13zm-4.7 2.68-4.4-4.1c-1.91 2.06-2.94 4.55-3.72 7.25l5.76 1.67 5.76 1.67c.58-2 .95-2.36.98-2.4zm-2.36 4.82-5.76-1.67a4.5 4.5 0 0 1 4.42-3.25l-.13 6-.13 6a7.5 7.5 0 0 0 7.36-5.41zm-1.47 1.08.13-6a4.5 4.5 0 0 1 4.27 3.44l-5.83 1.42-5.83 1.42a7.5 7.5 0 0 0 7.13 5.72zm-1.43-1.14 5.83-1.42c-.7-2.88-1.77-5.48-3.91-7.59l-4.22 4.27-4.22 4.27s.05.04.16.25c.13.26.32.74.53 1.64zm-2.3-4.74 4.22-4.27c-2.07-2.04-4.71-3.2-7.58-4.13l-1.84 5.71-1.84 5.71c2.3.74 2.77 1.2 2.82 1.25zm-5.2-2.69 1.84-5.71a4.5 4.5 0 0 1 3.12 4.3l-6-.03-6-.03a7.5 7.5 0 0 0 5.2 7.18zM17 49.64l6 .04a4.5 4.5 0 0 1-3.16 4.27l-1.79-5.73-1.78-5.73A7.5 7.5 0 0 0 11 49.61zm1.05-1.42 1.79 5.73a16.5 16.5 0 0 0 7.8-5.01 18 18 0 0 0 3.75-7.81l-5.85-1.3-5.86-1.3a6 6 0 0 1-1.16 2.61c-.4.47-1.04.97-2.25 1.35zm7.49-8.4 5.8 1.54.03-.12-5.8-1.53-5.8-1.54-.03.12zm.03-.11 5.73 1.77a4.5 4.5 0 0 1-3.94 3.16l-.48-5.98-.49-5.98a7.5 7.5 0 0 0-6.56 5.26z" mask="url(#crests-docs-and-wizard-path-1-outside-1_23_22936)"/></g><path fill="#6366b1" stroke="#40396e" stroke-linejoin="round" stroke-width="3" d="m27.06 87.9 27.06-75.65 26.61 72.5s21.2 10.8 14.44 12.6c-6.77 1.81-78.48 3.16-82.99 0-4.51-3.14 14.88-9.45 14.88-9.45Z"/><path fill="#f0c27b" stroke="#d4912b" stroke-linejoin="round" stroke-width="3" d="m43.5 42.15 1-3.5 6-15.5 1 11 7.9 2.7-8.54 3.44L52 51.15l-6.5-7-3.5 2zM32.67 80.6l-3.12.7 5.04-15.16 2.12 2.97 8.1-3.77-4.03 8.29 8.2 6.54-10.38-.6-1.85 8.75zM67.39 96l1.67 2.74-15.97.1 2.12-2.96-6.17-6.47 9.14 1.17 3.55-9.89 2.77 10.03 8.89-1.06z"/><path stroke="#40396e" stroke-linejoin="round" stroke-width="3" d="m27.06 87.9 27.06-75.65 26.61 72.5s21.2 10.8 14.44 12.6c-6.77 1.81-78.48 3.16-82.99 0-4.51-3.14 14.88-9.45 14.88-9.45Z"/><path stroke="#40396e" stroke-linejoin="round" stroke-width="3" d="m27.06 87.9 27.06-75.65 26.61 72.5s21.2 10.8 14.44 12.6c-6.77 1.81-78.48 3.16-82.99 0-4.51-3.14 14.88-9.45 14.88-9.45Z"/><path stroke="#40396e" stroke-linejoin="round" stroke-width="3" d="m27.06 87.9 27.06-75.65 26.61 72.5s21.2 10.8 14.44 12.6c-6.77 1.81-78.48 3.16-82.99 0-4.51-3.14 14.88-9.45 14.88-9.45Z"/><path fill="#fff" stroke="#40396e" stroke-linejoin="round" stroke-width="3" d="M54.5 84.65V45.03c9.77-3.12 15.23-2.78 25 0 9.97-3 15.48-3.33 25 0v39.62c-10.13-3.74-15.58-3.38-25.78 0-9.45-3.3-14.79-3.54-24.22 0Z"/><path stroke="#cae6ff" stroke-linejoin="round" stroke-width="3" d="M79.5 45.65v39M85 53.14c5.06-1.94 7.93-1.8 13 0m-13.5 5.92c5.06-1.95 7.93-1.8 13 0"/><path stroke="#cae6ff" stroke-linejoin="round" stroke-width="3" d="M54.5 84.65V45.03c9.77-3.12 15.23-2.78 25 0 9.97-3 15.48-3.33 25 0v39.62c-10.13-3.74-15.58-3.38-25.78 0-9.45-3.3-14.79-3.54-24.22 0Z"/><path fill="#fff" stroke="#40396e" stroke-linejoin="round" stroke-width="3" d="M18.5 49.65c4.94-1.53 7.5-5 8.5-9.5 2 5 4.04 8.28 8 9.5-4.88 1.73-6.59 3.63-8 8.5-1.2-4.92-3.19-6.78-8.5-8.5Zm8 16.5c4.94-1.53 7.5-6.5 8.5-11 2 5 1 8 8 11-4.88 1.73-6.59 4.13-8 9-1.2-4.92-3.19-7.28-8.5-9Z"/><path stroke="#40396e" stroke-linecap="round" stroke-linejoin="round" stroke-width="3" d="M65 42.65c7.5 0 9 1.5 13.5 2 10.41-2.68 16.56-2.53 26 .5v39.5c-10.7-3.55-15.92-3.3-24 .5l8.5 4.5m-52-29c-1-1.5-1.98-3.05-2-5.5-1.17 5.89-2.4 8.82-9 11 3.96 1.3 6.5 2 7.5 5l-3 7"/></g><defs><filter id="crests-docs-and-wizard-filter0_d_23_22936" width="123" height="123" x="-3.5" y="0" color-interpolation-filters="sRGB" filterUnits="userSpaceOnUse"><feFlood flood-opacity="0" result="BackgroundImageFix"/><feColorMatrix in="SourceAlpha" result="hardAlpha" values="0 0 0 0 0 0 0 0 0 0 0 0 0 0 0 0 0 0 127 0"/><feOffset dy="4"/><feGaussianBlur stdDeviation="2"/><feComposite in2="hardAlpha" operator="out"/><feColorMatrix values="0 0 0 0 0 0 0 0 0 0 0 0 0 0 0 0 0 0 0.25 0"/><feBlend in2="BackgroundImageFix" result="effect1_dropShadow_23_22936"/><feBlend in="SourceGraphic" in2="effect1_dropShadow_23_22936" result="shape"/></filter><filter id="crests-docs-and-wizard-filter1_d_23_22936" width="111" height="105" x="4" y="4.75" color-interpolation-filters="sRGB" filterUnits="userSpaceOnUse"><feFlood flood-opacity="0" result="BackgroundImageFix"/><feColorMatrix in="SourceAlpha" result="hardAlpha" values="0 0 0 0 0 0 0 0 0 0 0 0 0 0 0 0 0 0 127 0"/><feOffset dx="3" dy="3"/><feComposite in2="hardAlpha" operator="out"/><feColorMatrix values="0 0 0 0 0 0 0 0 0 0 0 0 0 0 0 0 0 0 0.4 0"/><feBlend in2="BackgroundImageFix" result="effect1_dropShadow_23_22936"/><feBlend in="SourceGraphic" in2="effect1_dropShadow_23_22936" result="shape"/></filter></defs></svg>