<svg xmlns="http://www.w3.org/2000/svg" fill="none" viewBox="0 0 115 115"><g filter="url(#crests-error-tracking-filter0_d_23_2705)"><path fill="#fff" d="M74.33 27.34 62 6.78c-2-3-7.5-2.5-9.5 0L41.38 26.02a4 4 0 0 1-5.25 1.58l-.63-.32a12 12 0 0 0-3.66-3.15c-1.14-.58-1.8-1.93-1.22-3.08l.76-1.52a4 4 0 0 0-.4-4.23l-1.16-1.5a3.8 3.8 0 0 0-5.37-.73C9.16 25.5 6.68 43 9.5 62.3l5.13 3.52a4 4 0 0 1 1.31 5.09l-3.76 7.52a6 6 0 0 0 2.69 8.05l2.63 1.31h41.03a4 4 0 0 1 3.96 3.44l.3 2.04a2.9 2.9 0 0 0 1.59 2.21c1 .5 1.62 1.52 1.62 2.63v.1a3.1 3.1 0 0 0 3.1 3.08H96a2.5 2.5 0 0 0 2.5-2.5 2.5 2.5 0 0 1 2.5-2.5h.86c1.03 0 2.05-.46 2.54-1.37 1.84-3.41 1.4-7.62.1-15.13l.28-.92a6 6 0 0 0-2.22-6.58l-.91-.66a4 4 0 0 1-1.52-2.2l-.83-3.14a2.9 2.9 0 0 1 2.24-3.6 2.9 2.9 0 0 0 2.3-2.36c2.92-18.24 1.7-34.3-13.37-46.64a3.8 3.8 0 0 0-4.86.1l-.85.7a4 4 0 0 0-.77 5.3l2.01 3c.87 1.31-.04 3.03-1.6 3.22-2.5.3-4 1.05-5.4 3.29h-1.24a4 4 0 0 1-3.43-1.95"/></g><path fill="#eda840" stroke="#40396e" stroke-width="3" d="M55.34 12.03a2.5 2.5 0 0 1 4.23-.15l.1.15L98.2 78.78a2.5 2.5 0 0 1-2.16 3.75H18.96a2.5 2.5 0 0 1-2.16-3.75z"/><path fill="#ffd18c" d="M55.77 25.28a2 2 0 0 1 3.46 0l27.28 47.25a2 2 0 0 1-1.73 3H30.22a2 2 0 0 1-1.73-3z"/><path fill="#40396e" d="M57.58 58.98a2.5 2.5 0 0 1-2.52-2.42l-.6-14.33a2.82 2.82 0 1 1 5.64-.12v14.34c0 1.4-1.13 2.52-2.52 2.52m-.12 10.13a3.11 3.11 0 0 1 0-6.22h.21a3.11 3.11 0 1 1 0 6.22z"/><path stroke="#749cd0" stroke-linecap="round" stroke-width="3" d="M29.83 30.17c-6.46 4.85-7.87 12.42-5.22 18.9m1.62-31.87C14.59 28.43 11.2 44.83 14.87 58.36m69.66-28.19c6.46 4.85 7.87 12.42 5.22 18.9M88.13 17.2c11.64 11.23 15.03 27.63 11.36 41.16"/><path fill="#df6133" stroke="#40396e" stroke-width="3" d="M84 69.78a16.5 16.5 0 0 1 16.5 16.5v2.84c0 1.47-1.2 2.66-2.67 2.66H70.17a2.67 2.67 0 0 1-2.67-2.66v-2.84A16.5 16.5 0 0 1 84 69.78Z"/><path fill="#ff9b76" d="M87.27 90.28c-1.31-7.91 2.29-12.32 6.85-14 5.2 2.05 6.14 5.96 5.83 12.16a1.96 1.96 0 0 1-1.97 1.84z"/><path stroke="#c03300" stroke-width="3" d="M95.5 75.28c-6.04 3.07-8.32 6.95-8.5 16"/><path stroke="#40396e" stroke-linecap="round" stroke-width="3" d="M72 92.28v4m7-4v4m7-4v4m7-4v4"/><path stroke="#40396e" stroke-width="3" d="M84 69.78a16.5 16.5 0 0 1 16.5 16.5v2.84c0 1.47-1.2 2.66-2.67 2.66H70.17a2.67 2.67 0 0 1-2.67-2.66v-2.84A16.5 16.5 0 0 1 84 69.78Z"/><path stroke="#40396e" stroke-linecap="round" stroke-width="3" d="m99 77.28 2-2"/><path stroke="#c03300" stroke-linecap="round" stroke-width="3" d="m89 78.28-3-2"/><circle cx="75.5" cy="80.78" r="1.5" fill="#c03300"/><circle cx="81.5" cy="85.78" r="1.5" fill="#c03300"/><circle cx="82.5" cy="79.78" r="1.5" fill="#c03300"/><circle cx="78.5" cy="74.78" r="1.5" fill="#c03300"/><circle cx="72.5" cy="85.78" r="1.5" fill="#c03300"/><defs><filter id="crests-error-tracking-filter0_d_23_2705" width="100.15" height="99.57" x="8.49" y="4.72" color-interpolation-filters="sRGB" filterUnits="userSpaceOnUse"><feFlood flood-opacity="0" result="BackgroundImageFix"/><feColorMatrix in="SourceAlpha" result="hardAlpha" values="0 0 0 0 0 0 0 0 0 0 0 0 0 0 0 0 0 0 127 0"/><feOffset dx="3" dy="3"/><feComposite in2="hardAlpha" operator="out"/><feColorMatrix values="0 0 0 0 0 0 0 0 0 0 0 0 0 0 0 0 0 0 0.4 0"/><feBlend in2="BackgroundImageFix" result="effect1_dropShadow_23_2705"/><feBlend in="SourceGraphic" in2="effect1_dropShadow_23_2705" result="shape"/></filter></defs></svg>