<svg xmlns="http://www.w3.org/2000/svg" fill="none" viewBox="0 0 115 115"><g filter="url(#crests-experiments-filter0_d_24_471)"><path fill="#fff" d="M69.23 18.5H43.98A6.97 6.97 0 0 0 37 25.47v1.01a5.4 5.4 0 0 0 3.2 4.95 2.2 2.2 0 0 1 1.3 1.98v13.38a8 8 0 0 1-2.23 5.53L30 62s-7.83 5.87-7.5 16.5c.14 4.29 2.84 10.54 6.5 13.5 5.44 4.38 12.5 4.5 12.5 4.5H74s7.27.13 13-4.5c3.35-2.7 5.5-8.07 5.5-12.5C92.5 67.5 84 62 84 62l-8.9-9.7a8 8 0 0 1-2.1-5.41V33.15a2 2 0 0 1 1-1.72 5 5 0 0 0 2.5-4.31v-1.34a7.3 7.3 0 0 0-7.27-7.28"/></g><path fill="#c1dcff" d="M26.5 77.78c0-3.9 1.54-7.64 4.3-10.4l12.53-12.57a11.5 11.5 0 0 0 3.37-8.15V29.41c0-1.15-.93-2.08-2.08-2.08h-.15a1.92 1.92 0 1 1 0-3.83h24.95a1.92 1.92 0 1 1-.01 3.83c-1.07 0-1.95.87-1.95 1.94v17.3c0 3.1 1.27 6.08 3.5 8.24l13.06 12.57A14.6 14.6 0 0 1 73.9 92.5H41.22c-8.13 0-14.72-6.6-14.72-14.72"/><path fill="#c1dcff" stroke="#40396e" stroke-width="3" d="M26.5 77.78c0-3.9 1.54-7.64 4.3-10.4l12.53-12.57a11.5 11.5 0 0 0 3.37-8.15V29.41c0-1.15-.93-2.08-2.08-2.08h-.15a1.92 1.92 0 1 1 0-3.83h24.95a1.92 1.92 0 1 1-.01 3.83c-1.07 0-1.95.87-1.95 1.94v17.3c0 3.1 1.27 6.08 3.5 8.24l13.06 12.57A14.6 14.6 0 0 1 73.9 92.5H41.22c-8.13 0-14.72-6.6-14.72-14.72Z"/><path fill="#df6133" d="M40.27 92.5c-11.62-1.07-17.15-12.88-11.62-22H86.1c5.6 9.12 1.18 20.39-11.27 22z"/><path fill="#ffb397" d="M85.5 70.94c0 2.77-12.54 5.56-28 5.56s-28-3.35-28-6.11 12.53-3.89 28-3.89 28 1.68 28 4.44"/><ellipse cx="54" cy="57.5" fill="#ff8b61" rx="4.5" ry="4"/><ellipse cx="61.5" cy="47" fill="#ffb397" rx="3" ry="2.5"/><circle cx="55" cy="37" r="1.5" fill="#ff8b61"/><path stroke="#40396e" stroke-width="3" d="M26.5 77.78c0-3.9 1.54-7.64 4.3-10.4l12.53-12.57a11.5 11.5 0 0 0 3.37-8.15V29.41c0-1.15-.93-2.08-2.08-2.08h-.15a1.92 1.92 0 1 1 0-3.83h24.95a1.92 1.92 0 1 1-.01 3.83c-1.07 0-1.95.87-1.95 1.94v17.3c0 3.1 1.27 6.08 3.5 8.24l13.06 12.57A14.6 14.6 0 0 1 73.9 92.5H41.22c-8.13 0-14.72-6.6-14.72-14.72Z"/><defs><filter id="crests-experiments-filter0_d_24_471" width="73.01" height="81" x="22.5" y="18.5" color-interpolation-filters="sRGB" filterUnits="userSpaceOnUse"><feFlood flood-opacity="0" result="BackgroundImageFix"/><feColorMatrix in="SourceAlpha" result="hardAlpha" values="0 0 0 0 0 0 0 0 0 0 0 0 0 0 0 0 0 0 127 0"/><feOffset dx="3" dy="3"/><feComposite in2="hardAlpha" operator="out"/><feColorMatrix values="0 0 0 0 0 0 0 0 0 0 0 0 0 0 0 0 0 0 0.4 0"/><feBlend in2="BackgroundImageFix" result="effect1_dropShadow_24_471"/><feBlend in="SourceGraphic" in2="effect1_dropShadow_24_471" result="shape"/></filter></defs></svg>