<svg xmlns="http://www.w3.org/2000/svg" fill="none" viewBox="0 0 115 115"><g stroke="#fff" stroke-width="4" filter="url(#crests-feature-flags-filter0_d_23_15324)"><rect width="83" height="48" x="94.5" y="79.25" fill="#bddaff" rx="24" transform="rotate(-180 94.5 79.25)"/><circle cx="69" cy="55.75" r="18.5" fill="#4571ab" transform="rotate(-180 69 55.75)"/><path stroke-linecap="round" stroke-linejoin="round" d="m74.5 54.25 6 22 5.5-4.5 4.5 4.5 3.5-3.5-4.5-4.5 6-4.5"/><path fill="#fff" d="M72 52.67a2.75 2.75 0 0 1 3.83-3.2l20.76 9.84a2.75 2.75 0 0 1 .59 4.6l-2.89 2.41L97.04 69a2.75 2.75 0 0 1 .01 3.93l-4.33 4.27a2.75 2.75 0 0 1-4-.15l-2.75-3.14-3.5 2.74a2.75 2.75 0 0 1-4.34-1.44z"/><path d="M74 31.25c6.37 0 11.95 2.79 15.76 7.64 3.57 4.55 5.53 10.81 5.3 18.12l2.14 1a6 6 0 0 1 1.69 9.68l-.64.64.17.2a6 6 0 0 1-.37 8.34l-3.35 3.17a6 6 0 0 1-8.36-.12l-.84-.84-.64.63a6 6 0 0 1-8.9-.46H37.5c-8.49 0-14.97-2.93-19.31-7.5a23.5 23.5 0 0 1-6.32-16.52 24.2 24.2 0 0 1 6.6-16.49c4.37-4.55 10.78-7.49 19.03-7.49z"/></g><rect width="79" height="44" x="92.5" y="77.25" fill="#bddaff" rx="22" transform="rotate(-180 92.5 77.25)"/><circle cx="69" cy="55.75" r="15" fill="#4571ab" stroke="#538ad2" stroke-width="3" transform="rotate(-180 69 55.75)"/><path stroke="#776db6" stroke-linecap="round" stroke-linejoin="round" stroke-width="5" d="m74.5 54.25 6 22 5.5-4.5 4.5 4.5 3.5-3.5-4.5-4.5 6-4.5"/><path fill="#fff" d="m95.74 61.12-20.77-9.85a.75.75 0 0 0-1.04.88l6.13 22.53c.14.52.76.73 1.18.4l4.43-3.48a.75.75 0 0 1 1.02.1l3.54 4.03c.28.33.78.34 1.09.04l4.33-4.27c.3-.3.3-.77 0-1.07L91.9 66.8a.75.75 0 0 1 .05-1.11l3.95-3.3a.75.75 0 0 0-.16-1.26"/><path stroke="#40396e" stroke-width="3" d="M74 33.25H37.5c-31 0-32 44 0 44H77l.3.44a4 4 0 0 0 6.15.6l2.05-2.04 2.25 2.25a4 4 0 0 0 5.58.08l3.35-3.17a4 4 0 0 0 .24-5.56l-1.42-1.6 1.98-1.98a4 4 0 0 0-1.13-6.44L93 58.25c1-15-7.5-25-19-25Z"/><defs><filter id="crests-feature-flags-filter0_d_23_15324" width="96.15" height="57.42" x="9.5" y="29.25" color-interpolation-filters="sRGB" filterUnits="userSpaceOnUse"><feFlood flood-opacity="0" result="BackgroundImageFix"/><feColorMatrix in="SourceAlpha" result="hardAlpha" values="0 0 0 0 0 0 0 0 0 0 0 0 0 0 0 0 0 0 127 0"/><feOffset dx="3" dy="3"/><feComposite in2="hardAlpha" operator="out"/><feColorMatrix values="0 0 0 0 0 0 0 0 0 0 0 0 0 0 0 0 0 0 0.4 0"/><feBlend in2="BackgroundImageFix" result="effect1_dropShadow_23_15324"/><feBlend in="SourceGraphic" in2="effect1_dropShadow_23_15324" result="shape"/></filter></defs></svg>