<svg xmlns="http://www.w3.org/2000/svg" fill="none" viewBox="0 0 115 115"><g filter="url(#crests-flags-platform-filter0_d_23_5294)"><path fill="#fff" d="M83.75 22.5a1 1 0 0 1 1 1V32a1 1 0 0 1-1 1h-.2a1 1 0 0 1-.3.05h-.42V80.5h.92a1 1 0 0 1 1 1v10a1 1 0 0 1-1 1h-52.5a1 1 0 0 1-1-1v-10a1 1 0 0 1 1-1h.42V33.05h-.42a1 1 0 0 1-1-1V23.5a1 1 0 0 1 1-1zm-46.5 59h.05q.14-2.19.47-4.15c1.72-11.16 8.58-18 12-21.43q.42-.4.37-.94l-.03-.26q-.14-.5-.54-1.2c-.78-1.38-2.09-3.03-3.62-5.11a52 52 0 0 1-3.96-6.05 23 23 0 0 1-2.26-5.26 23 23 0 0 1-.88-4.05h-1.6zm38.42-48.45c-.13 2.2-.67 4.33-1.43 6.34a41 41 0 0 1-4.89 9.35c-1.36 2.03-2.48 3.58-3.12 4.87-.64 1.3-.55 1.86-.22 2.24 1.4 1.64 4.42 4.42 6.91 8.64a30 30 0 0 1 3.2 7.61q.65 2.05 1.08 4.37V33.05z"/><path fill="#fff" d="M83.56 33v-2.5q-.4 0-.77.12zm-.73.05v-2.5a2.5 2.5 0 0 0-2.5 2.5zm0 47.45h-2.5a2.5 2.5 0 0 0 2.5 2.5zm-51.16 0V83a2.5 2.5 0 0 0 2.5-2.5zm0-47.45h2.5a2.5 2.5 0 0 0-2.5-2.5zm-1.42-9.55h-2.5zm.02-.2 2.45.5zm6.98 58.2h-2.5a2.5 2.5 0 0 0 2.5 2.5zm.05 0V84a2.5 2.5 0 0 0 2.5-2.35zm.47-4.15 2.47.42v-.04zm12-21.43 1.77 1.76zm.37-.94 2.5-.13zm-.03-.26 2.46-.42-.06-.28zm-.54-1.2 2.17-1.23zm-3.62-5.11-2.02 1.48zm-3.96-6.05 2.2-1.2-.03-.04zm-2.26-5.26 2.41-.67-.02-.07zm-.88-4.05 2.48-.3a2.5 2.5 0 0 0-2.48-2.2zm-1.6 0v-2.5a2.5 2.5 0 0 0-2.5 2.5zm38.42 0v-2.5a2.5 2.5 0 0 0-2.5 2.35zm-1.43 6.34-2.34-.88-.02.06zm-4.89 9.35 2.08 1.4zm-3.12 4.87L64 52.5zm-.22 2.24-1.9 1.63zm6.91 8.64 2.16-1.27zm3.2 7.61-2.42.65.03.1zm1.08 4.37-2.46.45a2.5 2.5 0 0 0 4.96-.45zm0-43.42h2.5a2.5 2.5 0 0 0-2.5-2.5zm6.55-10.55V25a1.5 1.5 0 0 1-1.5-1.5h5a3.5 3.5 0 0 0-3.5-3.5zm1 1h-2.5V32h5v-8.5zm0 8.5h-2.5c0-.83.67-1.5 1.5-1.5v5a3.5 3.5 0 0 0 3.5-3.5zm-1 1v-2.5h-.2v5h.2zm-.2 0-.76-2.38q.22-.07.46-.07v5q.57 0 1.08-.17zm-.3.05v-2.5h-.42v5h.42zm-.42 0h-2.5V80.5h5V33.05zm0 47.45V83h.92v-5h-.92zm.92 0V83a1.5 1.5 0 0 1-1.5-1.5h5a3.5 3.5 0 0 0-3.5-3.5zm1 1h-2.5v10h5v-10zm0 10h-2.5c0-.83.67-1.5 1.5-1.5v5a3.5 3.5 0 0 0 3.5-3.5zm-1 1V90h-52.5v5h52.5zm-52.5 0V90c.83 0 1.5.67 1.5 1.5h-5a3.5 3.5 0 0 0 3.5 3.5zm-1-1h2.5v-10h-5v10zm0-10h2.5c0 .83-.67 1.5-1.5 1.5v-5a3.5 3.5 0 0 0-3.5 3.5zm1-1V83h.42v-5h-.42zm.42 0h2.5V33.05h-5V80.5zm0-47.45v-2.5h-.42v5h.42zm-.42 0v-2.5c.83 0 1.5.67 1.5 1.5h-5a3.5 3.5 0 0 0 3.5 3.5zm-1-1h2.5V23.5h-5v8.55zm0-8.55h2.5l-.03.3-2.45-.5-2.45-.5a4 4 0 0 0-.07.7zm.02-.2 2.45.5a1.5 1.5 0 0 1-1.47 1.2v-5a3.5 3.5 0 0 0-3.43 2.8zm.98-.8V25h52.5v-5h-52.5zm6 59V84h.05v-5h-.05zm.05 0 2.5.15q.12-2.05.44-3.88l-2.47-.42-2.46-.41a42 42 0 0 0-.5 4.4zm.47-4.15 2.47.38c1.59-10.3 7.9-16.65 11.3-20.05l-1.76-1.76L48 54.15c-3.45 3.45-10.86 10.8-12.7 22.82zm12-21.43 1.77 1.76c.8-.8 1.15-1.78 1.1-2.83l-2.5.13-2.5.12c0-.07 0-.26.09-.5q.16-.35.28-.45zm.37-.94 2.5-.13-.07-.55-2.46.42-2.47.43v.02-.07zm-.03-.26 2.4-.7a8 8 0 0 0-.77-1.73l-2.17 1.22-2.18 1.23q.29.57.32.68zm-.54-1.2 2.17-1.23c-.87-1.55-2.34-3.42-3.78-5.37l-2.01 1.49-2.02 1.48c1.64 2.22 2.78 3.65 3.46 4.85zm-3.62-5.11 2-1.49a50 50 0 0 1-3.77-5.76l-2.2 1.2-2.19 1.2a55 55 0 0 0 4.14 6.33zm-3.96-6.05 2.17-1.24a21 21 0 0 1-2.02-4.69l-2.4.67-2.42.67a26 26 0 0 0 2.5 5.82zm-2.26-5.26 2.39-.74a21 21 0 0 1-.78-3.61l-2.49.3-2.48.3q.3 2.36.97 4.49zm-.88-4.05v-2.5h-1.6v5h1.6zm-1.6 0h-2.5V81.5h5V33.05zm38.42 0-2.5-.15a19 19 0 0 1-1.27 5.61l2.34.88 2.34.88a24 24 0 0 0 1.58-7.07zm-1.43 6.34-2.36-.82a38 38 0 0 1-4.6 8.78l2.07 1.4 2.08 1.38a43 43 0 0 0 5.17-9.92zm-4.89 9.35-2.08-1.39c-1.25 1.88-2.55 3.67-3.28 5.15l2.24 1.1 2.24 1.12c.54-1.1 1.5-2.4 2.96-4.59zm-3.12 4.87L64 52.5a6 6 0 0 0-.73 2.45 3.6 3.6 0 0 0 .85 2.53l1.9-1.63 1.9-1.63a1.5 1.5 0 0 1 .34.97q-.02.15.01.02.04-.14.21-.5zm-.22 2.24-1.9 1.63c1.63 1.9 4.31 4.3 6.66 8.28l2.15-1.27 2.16-1.27c-2.65-4.48-5.98-7.61-7.17-9zm6.91 8.64-2.15 1.27a28 28 0 0 1 2.93 7l2.42-.66 2.41-.65a33 33 0 0 0-3.45-8.23zm3.2 7.61-2.39.75q.6 1.91 1.01 4.07l2.46-.45 2.46-.46q-.46-2.47-1.16-4.66zm1.08 4.37h2.5V33.05h-5v43.42zm0-43.42v-2.5h-1.53v5h1.53z"/><path fill="#fccf8b" stroke="#b27000" stroke-linejoin="round" stroke-width="2" d="M32.67 30.63h3.56v52h-3.56zm45.6.71h3.56v52h-3.56z"/><path fill="#c1f4fe" stroke="#5da5b4" stroke-linejoin="round" stroke-width="2" d="M50.48 56.62c3.92-3.91-11.01-12.82-10.33-24.57H74.7c-.04 11.64-12.65 21.69-9.62 24.57a36.2 36.2 0 0 1 11.76 26s-38.47 13.9-38.47 0 8.2-22.08 12.11-26Z"/><path fill="#fccf8b" stroke="#b27000" stroke-linejoin="round" stroke-width="2" d="M31.25 32.05V23.5h52v8.55zm0 59.12v-8.55h52v8.55zm40.6-11.75H43.72a35 35 0 0 0 12.82-8.9c3.2-3.56 3.6-4.36 6.76-.36zM55.11 53.06c-1.42-2.13-5.79-7.3-8.9-12.46 2.4 1.44 2.13 1.78 7.48 3.91 5.34 2.14 6.76 1.43 7.48 1.43.7 0 5.7-1.43 5.7-1.43s-6.06 8.2-7.13 10.33-1.27 9.62-2.13 4.63c-.87-4.98-1.07-4.27-2.5-6.4Z"/><path stroke="#40396e" stroke-linejoin="round" stroke-width="2" d="M31.25 32v-8.5h52.5V32h-2v49.5h2v10h-52.5v-10h1.5V32z"/><path stroke="#40396e" stroke-linejoin="round" stroke-width="2" d="M36.25 82.5V32h3.5c1 13 14 21 11 24.5s-11.89 10.38-12.5 26zm41.95 0V32h-3.45c-.95 14-12.5 21-9.5 24.5s11.5 10.5 11 26z"/></g><defs><filter id="crests-flags-platform-filter0_d_23_5294" width="62.5" height="78" x="27.75" y="20" color-interpolation-filters="sRGB" filterUnits="userSpaceOnUse"><feFlood flood-opacity="0" result="BackgroundImageFix"/><feColorMatrix in="SourceAlpha" result="hardAlpha" values="0 0 0 0 0 0 0 0 0 0 0 0 0 0 0 0 0 0 127 0"/><feOffset dx="3" dy="3"/><feComposite in2="hardAlpha" operator="out"/><feColorMatrix values="0 0 0 0 0 0 0 0 0 0 0 0 0 0 0 0 0 0 0.4 0"/><feBlend in2="BackgroundImageFix" result="effect1_dropShadow_23_5294"/><feBlend in="SourceGraphic" in2="effect1_dropShadow_23_5294" result="shape"/></filter></defs></svg>