<svg xmlns="http://www.w3.org/2000/svg" fill="none" viewBox="0 0 115 115"><g filter="url(#crests-forward-deployed-engineer-filter0_d_23_7433)"><mask id="crests-forward-deployed-engineer-path-1-outside-1_23_7433" width="104" height="98" x="5.67" y="8.5" fill="#000" maskUnits="userSpaceOnUse"><path fill="#fff" d="M5.67 8.5h104v98h-104z"/><path d="M44.84 11.51h.06l.42.03h.06l.38.05.06.01.4.07.08.02a11 11 0 0 1 1.29.33l.03.01.67.24.13.06.48.21.08.04.42.2.1.06a13 13 0 0 1 .9.53l.06.03q.47.3.91.65l.08.07.36.29.07.06q.44.37.83.76h28.12v14.53l1.45.33.31.07.42.1.33.1q.75.19 1.49.4l.23.07a53 53 0 0 1 3 .98l.17.07.52.2q.13.03.25.09l.68.26.12.06.57.23.2.09.5.22.2.08.67.32.06.03.57.27.26.13 1.25.66.03.02q.3.15.58.33l.18.1a35 35 0 0 1 1.76 1.11l.2.13.41.3.19.13.34.24.2.15.51.4.17.14.88.74.14.12.5.46.05.05a24 24 0 0 1 1.42 1.47l.13.16q.14.14.27.32l.15.18.28.34.12.17q.38.5.73 1.02l.09.13.54.9.13.2.28.53.1.2.45.97.07.17.23.56.05.14.36 1.1.04.14.16.62.01.03.25 1.24.03.15.08.6.02.13.1 1.26v.2l.02.66V88H76.67a35 35 0 0 1-1.83 4.08l-.14.26-.48.83-.12.2-.19.3-.12.2-.21.32-.15.22-.19.27-.16.24-.15.2-.21.28-.16.2-.19.23-.23.29a18 18 0 0 1-1.65 1.74l-.18.17q-.47.45-.95.86l-.12.1-.46.38-.06.05-1.04.78-.2.13-.36.25-.2.13-.35.22-.26.16-.3.17-.24.14-.35.19-.18.1-.36.17-.24.11-.32.15a11 11 0 0 1-1.14.45l-.2.07-.36.12-.2.06-.32.1-.28.07-.28.07-.24.06-.37.08-.17.03-.35.06-.22.04-.55.07-.32.04-.23.02-.34.02-.2.01-.9.02h-.18l-.38-.02h-.14l-.36-.03-.2-.01-.29-.03-.24-.02-.32-.05q-.1 0-.2-.03l-.41-.06-.1-.02a18 18 0 0 1-2.4-.6l-.14-.04-.25-.09-.27-.1-.23-.08-.23-.08-.3-.12-.2-.08-.34-.14-.1-.05q-.16-.06-.28-.13l-.26-.12-.2-.09-.24-.12-.46-.23-.24-.14-.22-.11-.24-.14-.21-.12-.2-.12-.27-.16a15 15 0 0 1-1.03-.66l-.5-.34-.1-.07-.27-.2-.18-.14-.23-.17-.13-.1-.44-.34-.18-.15-.18-.15-.6-.5-.17-.16-.54-.5-.05-.05a29 29 0 0 1-1.88-1.93l-.58-.68q-.37-.45-.72-.92l-.1-.13a27 27 0 0 1-1-1.43l-.06-.1-.72-1.2-.08-.13-.78-1.46-.07-.15-.34-.72h-8.67V68.26l-1.04-.28h-.02a45 45 0 0 1-3.82-1.27l-.15-.06-.4-.16-.22-.1-.64-.26-.3-.14-.39-.18-.2-.1-.4-.2-.25-.11-.47-.25-.12-.06a27 27 0 0 1-2.76-1.75l-.08-.05-.16-.13-.22-.17-.17-.14-.19-.16-.17-.14-.16-.14-.2-.18-.14-.13-.2-.2q-.08-.05-.13-.11l-.18-.17-.16-.17-.16-.17-.15-.15-.48-.54-.1-.13-.15-.17-.15-.18-.43-.55-.06-.1-.57-.81-.07-.1-.13-.22-.28-.45-.04-.08-.16-.27-.06-.11-.17-.31-.04-.08-.13-.25-.07-.14-.07-.15q-.25-.5-.47-1.03l-.1-.27q-.67-1.65-1.08-3.4l-.02-.05a27 27 0 0 1-.39-2l-.05-.36-.08-.53-.04-.37-.05-.43-.05-.45-.03-.45-.03-.42-.03-.53-.02-.39-.01-.48-.01-.38V43.5q0-.62.04-1.23 0-.3.03-.57a50 50 0 0 1 .4-3.98l.04-.25.3-1.88.05-.31.08-.4.1-.5.08-.44.07-.31.3-1.4.04-.16.54-2.16.04-.15.34-1.22.17-.58.24-.78.24-.77.15-.48.25-.73.16-.5.22-.6.19-.53.26-.73.1-.23.22-.6.13-.32q.49-1.2.75-1.79l.15-.31c.31-.63.67-1.44 1.15-2.32a17 17 0 0 1 1.28-2 11 11 0 0 1 .84-.98 9.1 9.1 0 0 1 7.2-2.78q.45.03.86.13l.1.03.15.05.12.04.15.06.07.03.14.06.05.02.03.02a4 4 0 0 1 .61.39l.08.06.13.1.04.05.16.14.02.03a4 4 0 0 1 .62.8l.04.05.22.4.03.07.1.2.02.05.06.16.05.11.05.16.05.12.07.25.04.15.07.27.04.16.01.09.04.2.02.14.02.12.01.05a9 9 0 0 1 .08 1.15v.02a10 10 0 0 1-.45 3.1l-.03.12-.1.3-.04.1-.06.16-.11.26-.06.12-.07.15-.05.11-.06.12-.3.5-.04.08-.1.15-.06.07-.1.13-.06.09-.1.1-.07.1a5 5 0 0 1-.47.46l-.06.05-.14.11-.07.05-.13.1-.07.04-.15.09-.06.03-.12.07-.11.05-.39.15-.06.02-.2.05-.03.01-.15.03-.1.02-.24.02-.26.01h-6.22s-.55 1.45-1.24 3.76l-.43 1.53c-1.06 3.86-2.22 9.31-2.19 14.5a32 32 0 0 0 .08 1.96 25 25 0 0 0 .42 3.16 18 18 0 0 0 1.1 3.46 13 13 0 0 0 1.32 2.26 11 11 0 0 0 .94 1.1 23 23 0 0 0 6.41 4.6 24 24 0 0 0 3.25 1.3v-9.66l.02-.72v-.11a20 20 0 0 1 .11-1.45l.02-.1a19 19 0 0 1 .35-2.02l.05-.2.12-.44q0-.08.04-.15l.15-.5.04-.14q.2-.6.44-1.2l.06-.16.21-.48.06-.12a18 18 0 0 1 .9-1.71q.03-.08.07-.13.33-.55.7-1.07l.09-.13q.14-.23.32-.44l.06-.08a21 21 0 0 1 1.25-1.5l.13-.15a23 23 0 0 1 1.4-1.37l.15-.14q.5-.45 1.03-.88l.12-.1.46-.35.06-.05 1.17-.84.13-.08.45-.3.14-.09 1.2-.74.18-.1.4-.22.24-.14a36 36 0 0 1 2-1l.1-.05q1.06-.5 2.18-.94l.04-.02.73-.28.12-.04.63-.23.13-.05.63-.21.1-.04.15-.05.64-.2.06-.02.71-.22.13-.04.61-.18.2-.05.73-.2.16-.04.7-.18.08-.02.62-.15.26-.06.71-.15-.09-.27-2.88.72v-5.6h-5.3a4 4 0 0 1-1.55-.31l-.12-.06-.11-.06-.04-.02-.17-.1-.07-.05-.13-.1-.08-.05-.1-.1-.15-.12-.04-.04-.1-.1-.07-.08-.08-.09-.08-.1-.05-.06-.24-.35-.07-.1-.07-.13-.03-.05-.2-.42-.06-.14-.05-.1-.05-.14-.05-.14-.04-.13-.04-.12-.05-.16-.02-.1-.05-.2-.02-.08-.04-.15-.03-.15-.01-.09-.03-.18-.03-.15-.02-.16-.01-.1-.02-.2-.01-.1-.01-.16-.01-.19v-.09l-.02-.36v-.26l.03-.69v-.06l.02-.17.02-.17.01-.12q0-.1.03-.2l.01-.1.18-.93.03-.13.05-.18.02-.1.04-.13.05-.17.04-.12.04-.13.1-.28.05-.13.05-.11.06-.15.05-.12.08-.15.04-.1.05-.1.08-.15.04-.08.1-.15.05-.1.08-.11.05-.08.25-.34.05-.06.36-.4.07-.06.1-.09.08-.07.11-.09.07-.05.1-.07.09-.05.14-.08.05-.03.1-.05.1-.05.09-.03a3 3 0 0 1 1-.19zM43.06 88q.53.98 1.17 1.89c4.55 6.43 11.01 8.71 16.54 7.24a13 13 0 0 0 5.35-2.91l.66-.64q1.3-1.32 2.33-3.07a32 32 0 0 0 1-1.88l.31-.63zm14.13-63.98q.39 1.17.72 2.3l.08.25.26.9.05.18.29 1.06v.04q1.65-.19 3.3-.3h.12a71 71 0 0 1 10.07.06h.04q2.25.18 4.43.5l-2.57-.7v-6.85h-16.8z"/></mask><path fill="#fff" d="M44.84 11.51h.06l.42.03h.06l.38.05.06.01.4.07.08.02a11 11 0 0 1 1.29.33l.03.01.67.24.13.06.48.21.08.04.42.2.1.06a13 13 0 0 1 .9.53l.06.03q.47.3.91.65l.08.07.36.29.07.06q.44.37.83.76h28.12v14.53l1.45.33.31.07.42.1.33.1q.75.19 1.49.4l.23.07a53 53 0 0 1 3 .98l.17.07.52.2q.13.03.25.09l.68.26.12.06.57.23.2.09.5.22.2.08.67.32.06.03.57.27.26.13 1.25.66.03.02q.3.15.58.33l.18.1a35 35 0 0 1 1.76 1.11l.2.13.41.3.19.13.34.24.2.15.51.4.17.14.88.74.14.12.5.46.05.05a24 24 0 0 1 1.42 1.47l.13.16q.14.14.27.32l.15.18.28.34.12.17q.38.5.73 1.02l.09.13.54.9.13.2.28.53.1.2.45.97.07.17.23.56.05.14.36 1.1.04.14.16.62.01.03.25 1.24.03.15.08.6.02.13.1 1.26v.2l.02.66V88H76.67a35 35 0 0 1-1.83 4.08l-.14.26-.48.83-.12.2-.19.3-.12.2-.21.32-.15.22-.19.27-.16.24-.15.2-.21.28-.16.2-.19.23-.23.29a18 18 0 0 1-1.65 1.74l-.18.17q-.47.45-.95.86l-.12.1-.46.38-.06.05-1.04.78-.2.13-.36.25-.2.13-.35.22-.26.16-.3.17-.24.14-.35.19-.18.1-.36.17-.24.11-.32.15a11 11 0 0 1-1.14.45l-.2.07-.36.12-.2.06-.32.1-.28.07-.28.07-.24.06-.37.08-.17.03-.35.06-.22.04-.55.07-.32.04-.23.02-.34.02-.2.01-.9.02h-.18l-.38-.02h-.14l-.36-.03-.2-.01-.29-.03-.24-.02-.32-.05q-.1 0-.2-.03l-.41-.06-.1-.02a18 18 0 0 1-2.4-.6l-.14-.04-.25-.09-.27-.1-.23-.08-.23-.08-.3-.12-.2-.08-.34-.14-.1-.05q-.16-.06-.28-.13l-.26-.12-.2-.09-.24-.12-.46-.23-.24-.14-.22-.11-.24-.14-.21-.12-.2-.12-.27-.16a15 15 0 0 1-1.03-.66l-.5-.34-.1-.07-.27-.2-.18-.14-.23-.17-.13-.1-.44-.34-.18-.15-.18-.15-.6-.5-.17-.16-.54-.5-.05-.05a29 29 0 0 1-1.88-1.93l-.58-.68q-.37-.45-.72-.92l-.1-.13a27 27 0 0 1-1-1.43l-.06-.1-.72-1.2-.08-.13-.78-1.46-.07-.15-.34-.72h-8.67V68.26l-1.04-.28h-.02a45 45 0 0 1-3.82-1.27l-.15-.06-.4-.16-.22-.1-.64-.26-.3-.14-.39-.18-.2-.1-.4-.2-.25-.11-.47-.25-.12-.06a27 27 0 0 1-2.76-1.75l-.08-.05-.16-.13-.22-.17-.17-.14-.19-.16-.17-.14-.16-.14-.2-.18-.14-.13-.2-.2q-.08-.05-.13-.11l-.18-.17-.16-.17-.16-.17-.15-.15-.48-.54-.1-.13-.15-.17-.15-.18-.43-.55-.06-.1-.57-.81-.07-.1-.13-.22-.28-.45-.04-.08-.16-.27-.06-.11-.17-.31-.04-.08-.13-.25-.07-.14-.07-.15q-.25-.5-.47-1.03l-.1-.27q-.67-1.65-1.08-3.4l-.02-.05a27 27 0 0 1-.39-2l-.05-.36-.08-.53-.04-.37-.05-.43-.05-.45-.03-.45-.03-.42-.03-.53-.02-.39-.01-.48-.01-.38V43.5q0-.62.04-1.23 0-.3.03-.57a50 50 0 0 1 .4-3.98l.04-.25.3-1.88.05-.31.08-.4.1-.5.08-.44.07-.31.3-1.4.04-.16.54-2.16.04-.15.34-1.22.17-.58.24-.78.24-.77.15-.48.25-.73.16-.5.22-.6.19-.53.26-.73.1-.23.22-.6.13-.32q.49-1.2.75-1.79l.15-.31c.31-.63.67-1.44 1.15-2.32a17 17 0 0 1 1.28-2 11 11 0 0 1 .84-.98 9.1 9.1 0 0 1 7.2-2.78q.45.03.86.13l.1.03.15.05.12.04.15.06.07.03.14.06.05.02.03.02a4 4 0 0 1 .61.39l.08.06.13.1.04.05.16.14.02.03a4 4 0 0 1 .62.8l.04.05.22.4.03.07.1.2.02.05.06.16.05.11.05.16.05.12.07.25.04.15.07.27.04.16.01.09.04.2.02.14.02.12.01.05a9 9 0 0 1 .08 1.15v.02a10 10 0 0 1-.45 3.1l-.03.12-.1.3-.04.1-.06.16-.11.26-.06.12-.07.15-.05.11-.06.12-.3.5-.04.08-.1.15-.06.07-.1.13-.06.09-.1.1-.07.1a5 5 0 0 1-.47.46l-.06.05-.14.11-.07.05-.13.1-.07.04-.15.09-.06.03-.12.07-.11.05-.39.15-.06.02-.2.05-.03.01-.15.03-.1.02-.24.02-.26.01h-6.22s-.55 1.45-1.24 3.76l-.43 1.53c-1.06 3.86-2.22 9.31-2.19 14.5a32 32 0 0 0 .08 1.96 25 25 0 0 0 .42 3.16 18 18 0 0 0 1.1 3.46 13 13 0 0 0 1.32 2.26 11 11 0 0 0 .94 1.1 23 23 0 0 0 6.41 4.6 24 24 0 0 0 3.25 1.3v-9.66l.02-.72v-.11a20 20 0 0 1 .11-1.45l.02-.1a19 19 0 0 1 .35-2.02l.05-.2.12-.44q0-.08.04-.15l.15-.5.04-.14q.2-.6.44-1.2l.06-.16.21-.48.06-.12a18 18 0 0 1 .9-1.71q.03-.08.07-.13.33-.55.7-1.07l.09-.13q.14-.23.32-.44l.06-.08a21 21 0 0 1 1.25-1.5l.13-.15a23 23 0 0 1 1.4-1.37l.15-.14q.5-.45 1.03-.88l.12-.1.46-.35.06-.05 1.17-.84.13-.08.45-.3.14-.09 1.2-.74.18-.1.4-.22.24-.14a36 36 0 0 1 2-1l.1-.05q1.06-.5 2.18-.94l.04-.02.73-.28.12-.04.63-.23.13-.05.63-.21.1-.04.15-.05.64-.2.06-.02.71-.22.13-.04.61-.18.2-.05.73-.2.16-.04.7-.18.08-.02.62-.15.26-.06.71-.15-.09-.27-2.88.72v-5.6h-5.3a4 4 0 0 1-1.55-.31l-.12-.06-.11-.06-.04-.02-.17-.1-.07-.05-.13-.1-.08-.05-.1-.1-.15-.12-.04-.04-.1-.1-.07-.08-.08-.09-.08-.1-.05-.06-.24-.35-.07-.1-.07-.13-.03-.05-.2-.42-.06-.14-.05-.1-.05-.14-.05-.14-.04-.13-.04-.12-.05-.16-.02-.1-.05-.2-.02-.08-.04-.15-.03-.15-.01-.09-.03-.18-.03-.15-.02-.16-.01-.1-.02-.2-.01-.1-.01-.16-.01-.19v-.09l-.02-.36v-.26l.03-.69v-.06l.02-.17.02-.17.01-.12q0-.1.03-.2l.01-.1.18-.93.03-.13.05-.18.02-.1.04-.13.05-.17.04-.12.04-.13.1-.28.05-.13.05-.11.06-.15.05-.12.08-.15.04-.1.05-.1.08-.15.04-.08.1-.15.05-.1.08-.11.05-.08.25-.34.05-.06.36-.4.07-.06.1-.09.08-.07.11-.09.07-.05.1-.07.09-.05.14-.08.05-.03.1-.05.1-.05.09-.03a3 3 0 0 1 1-.19zM43.06 88q.53.98 1.17 1.89c4.55 6.43 11.01 8.71 16.54 7.24a13 13 0 0 0 5.35-2.91l.66-.64q1.3-1.32 2.33-3.07a32 32 0 0 0 1-1.88l.31-.63zm14.13-63.98q.39 1.17.72 2.3l.08.25.26.9.05.18.29 1.06v.04q1.65-.19 3.3-.3h.12a71 71 0 0 1 10.07.06h.04q2.25.18 4.43.5l-2.57-.7v-6.85h-16.8z"/><path fill="#fff" d="m44.84 11.51-.13 3zm.06 0 .15-3zm.42.03-.28 2.99zm.06 0 .3-2.98zm.38.05-.42 2.98zm.06.01.43-2.97zm.4.07-.56 2.95zm.08.02.57-2.95zm.8.19-.8 2.89zm.1.02.82-2.88zm.39.12-.93 2.85zm.03.01.94-2.85zm.28.1-1.02 2.82zm.39.14 1.1-2.78zm.13.06-1.15 2.77zm.48.21 1.27-2.72zm.08.04-1.29 2.7zm.42.2 1.38-2.66zm.1.06-1.4 2.65zm.38.2 1.5-2.59zm.13.09-1.53 2.58zm.39.24 1.62-2.53zm.06.03-1.64 2.52zm.91.65 1.84-2.37zm.08.07-1.85 2.36zm.36.29 1.93-2.3zm.07.06-1.94 2.28zm.83.76-2.12 2.12a3 3 0 0 0 2.12.88zm28.12 0h3a3 3 0 0 0-3-3zm0 14.53h-3a3 3 0 0 0 2.37 2.93zm.9.2-.68 2.92zm.55.13.7-2.92zm.31.07-.71 2.92zm.42.1.74-2.9zm.33.1-.76 2.9zm1.49.4.83-2.88zm.23.07-.85 2.88zm.5.15.88-2.87zm.3.1-.9 2.86zm1.43.46.98-2.83zm.2.07-.99 2.83zm.57.2L89.08 29zm.17.07-1.03 2.81zm.52.2 1.07-2.81zm.25.09-1.09 2.8zm.68.26 1.13-2.78zm.12.06-1.13 2.77zm.57.23 1.17-2.76zm.2.09-1.19 2.75zm.5.22 1.23-2.74zm.2.08-1.24 2.74zm.67.32 1.28-2.72zm.06.03-1.29 2.7zm.57.27 1.33-2.69zm.26.13-1.35 2.68zm.35.18 1.37-2.67zm.3.16-1.4 2.65zm.6.32 1.45-2.63zm.03.02 1.45-2.63zm.58.33-1.5 2.6zm.18.1 1.51-2.59zm.44.27-1.55 2.56zm.2.11 1.57-2.55zm1.12.73-1.67 2.49zm.2.13 1.7-2.47zm.41.3-1.74 2.44zm.19.13 1.76-2.44zm.34.24-1.8 2.41zm.2.15 1.8-2.39zm.51.4-1.86 2.35zm.17.14 1.88-2.34zm.32.26-1.92 2.3zm.23.2 1.95-2.29zm.33.28-1.99 2.25zm.14.12 2-2.23zm.5.46-2.07 2.18zm.05.05 2.06-2.18zm.4.4-2.12 2.12zm.15.15 2.14-2.1zm.3.3-2.18 2.06zm.17.18 2.2-2.04zm.4.44-2.25 1.99zm.13.16 2.27-1.97zm.27.32-2.3 1.91zm.15.18 2.34-1.89zm.28.34-2.37 1.85zm.12.17 2.39-1.82zm.73 1.02-2.5 1.66zm.09.13 2.5-1.64zm.23.37-2.54 1.59zm.13.2 2.56-1.55zm.18.32-2.6 1.5zm.13.21 2.61-1.46zm.28.53-2.66 1.38zm.1.2 2.68-1.35zm.18.37-2.71 1.28zm.09.19 2.72-1.26zm.18.41-2.75 1.19zm.07.17 2.77-1.16zm.23.56-2.81 1.06zm.05.14 2.81-1.04zm.16.47-2.84.95zm.05.15 2.86-.93zm.15.49-2.88.84zm.04.13 2.89-.82zm.16.62-2.91.7zm.01.03 2.92-.7zm.13.57-2.94.6zm.04.21 2.95-.57zm.08.46-2.96.49zm.03.15 2.96-.47zm.08.6-2.97.36zm.02.13 2.98-.35zm.05.57-2.98.25zm.02.22 3-.22zm.03.47-3 .14zm0 .2 3-.1zm.02.66h3zm0 35.46v3a3 3 0 0 0 3-3zm-29.66 0v-3a3 3 0 0 0-2.8 1.94zm-1.55 3.54-2.67-1.36zm-.08.16 2.66 1.38zm-.2.38-2.65-1.41zm-.14.26 2.63 1.44zm-.16.27-2.61-1.47zm-.13.25 2.6 1.5zm-.19.31-2.58-1.53zm-.12.2 2.56 1.56zm-.19.3-2.54-1.59zm-.12.2 2.53 1.62zm-.21.32-2.5-1.66zm-.15.22 2.48 1.69zm-.19.27-2.45-1.72zm-.16.24 2.43 1.75zm-.15.2-2.41-1.79zm-.21.28 2.38 1.82zm-.16.2-2.35-1.86zm-.19.23 2.33 1.9zm-.23.29-2.3-1.94zm-.54.61 2.2 2.04zm-1.1 1.13-2.1-2.16zm-.2.17 2.07 2.18zm-.94.86L67.4 96.6zm-.12.1 1.93 2.3zm-.46.38-1.88-2.34zm-.06.05 1.87 2.34zm-.48.37-1.81-2.4zm-.17.13 1.79 2.4zm-.4.28-1.73-2.45zm-.18.13 1.7 2.47zm-.37.25-1.65-2.5zm-.2.13 1.62 2.53zm-.35.22L65 98.37zm-.26.16 1.53 2.58zm-.3.17-1.48-2.6zm-.24.14 1.45 2.63zm-.35.19-1.39-2.66zm-.18.1 1.36 2.66zm-.36.17-1.3-2.7zm-.24.11 1.27 2.72zm-.32.15-1.21-2.75zm-.23.1 1.17 2.76zm-.35.14-1.1-2.79zm-.2.08 1.08 2.8zm-.36.13-1-2.83zm-.2.07.97 2.84zm-.36.12-.9-2.86zm-.2.06.86 2.88zm-.32.1-.81-2.9zm-.28.07.76 2.9zm-.28.07-.7-2.91zm-.24.06.67 2.92zm-.37.08-.59-2.94zm-.17.03.56 2.95zm-.35.06-.5-2.96zm-.22.04.45 2.96zm-.31.04-.4-2.97zm-.24.03.35 2.98zm-.32.04-.29-3zm-.23.02.25 2.99zm-.34.02-.18-3zm-.2.01.15 3zm-.35.01-.08-3zm-.18 0 .04 3zm-.37 0 .03-3zm-.18 0-.06 3zm-.38 0 .13-3zm-.14-.01-.16 3zm-.36-.03.22-2.99zm-.2-.01-.25 2.99zm-.29-.03.3-2.98zm-.24-.02-.35 2.97zm-.32-.05.4-2.97zm-.2-.03-.44 2.97zm-.41-.06.51-2.96zm-.1-.02-.54 2.95zm-1.55-.35.78-2.9zm-.85-.25-.91 2.86zm-.14-.04.93-2.85zm-.25-.09-.97 2.84zm-.27-.1 1-2.82zm-.23-.08-1.04 2.82zm-.23-.08 1.08-2.8zm-.3-.12-1.13 2.78zm-.2-.08 1.15-2.77zm-.34-.14-1.19 2.75zm-.1-.05 1.2-2.75zm-.28-.13-1.25 2.73zm-.26-.12 1.28-2.7v-.01zm-.2-.09-1.3 2.7zm-.24-.12 1.34-2.68zm-.25-.13-1.37 2.67zm-.2-.1 1.39-2.66zm-.25-.14-1.43 2.64zm-.22-.11 1.45-2.63zm-.24-.14-1.48 2.61zm-.21-.12 1.5-2.6zm-.2-.12-1.53 2.58zm-.27-.16 1.57-2.56zm-.19-.11-1.58 2.54zm-.2-.13 1.6-2.53zm-.28-.18-1.64 2.5zm-.15-.1 1.66-2.5zm-.21-.14-1.68 2.48zm-.24-.17 1.7-2.46zm-.26-.17-1.73 2.44zm-.1-.07 1.75-2.44zm-.27-.2-1.78 2.42zm-.18-.14 1.8-2.4zm-.23-.17-1.82 2.39zm-.13-.1 1.84-2.37zm-.26-.2-1.86 2.35zm-.18-.14L46.55 96zm-.18-.15-1.9 2.32zm-.18-.15 1.92-2.3zm-.6-.5-1.97 2.25zm-.17-.16 2-2.24zm-.54-.5-2.05 2.2zm-.05-.05L45 94.66zm-1.27-1.26-2.18 2.06zm-.6-.67-2.3 1.95q.03 0 .04.03zm-.59-.68-2.31 1.9.03.05zm-.72-.92 2.4-1.8zm-.1-.13-2.4 1.8zm-.27-.37 2.44-1.75zm-.1-.16-2.46 1.73zm-.62-.9 2.51-1.63zm-.07-.1-2.52 1.62zm-.3-.49 2.55-1.57zm-.42-.7-2.6 1.49zm-.08-.14 2.6-1.48zm-.78-1.46-2.68 1.33zm-.07-.15 2.7-1.32zm-.34-.72 2.73-1.24a3 3 0 0 0-2.73-1.76zm-8.67 0h-3a3 3 0 0 0 3 3zm0-19.73h3a3 3 0 0 0-2.25-2.9zm-1.04-.28.81-2.89zm-.02 0-.8 2.88zm-1.03-.3.88-2.87zm-.17-.06-.9 2.86zm-2.62-.91 1.08-2.8zm-.15-.06-1.1 2.8zm-.4-.16 1.13-2.78zm-.22-.1-1.16 2.78zm-.39-.15 1.2-2.76h-.01zm-.25-.11-1.2 2.74zm-.3-.14 1.23-2.73zm-.39-.18-1.27 2.72zm-.2-.1 1.3-2.7zm-.4-.2-1.34 2.7zm-.25-.11 1.36-2.68zm-.47-.25-1.41 2.65zm-.12-.06 1.43-2.64zm-.48-.27-1.47 2.61zm-.76-.45-1.57 2.56zm-.64-.4L16 66.47zm-.27-.19 1.7-2.47zm-.61-.44-1.8 2.4zm-.08-.05 1.81-2.4zm-.16-.13-1.83 2.38zm-.22-.17 1.87-2.34zm-.17-.14-1.9 2.33zm-.19-.16 1.93-2.3zm-.17-.14-1.96 2.27zm-.16-.14 1.98-2.25zm-.2-.18-2.02 2.22zm-.14-.13 2.03-2.2zm-.2-.2L13 64.09zm-.13-.11 2.08-2.16zm-.18-.17-2.12 2.12zm-.16-.17 2.14-2.1zm-.16-.17-2.17 2.07zm-.15-.15 2.2-2.05zm-.13-.15L11.95 63zm-.18-.19 2.25-1.99zm-.17-.2-2.28 1.95zm-.1-.13L16 58.53zm-.15-.17-2.32 1.91zm-.15-.18 2.34-1.87zm-.12-.15-2.36 1.86zm-.14-.17 2.39-1.83zm-.17-.23-2.4 1.78zm-.06-.1 2.42-1.76zm-.18-.24-2.45 1.74zm-.1-.14 2.46-1.71zm-.12-.18-2.49 1.68zm-.17-.25L14.87 57zm-.07-.1-2.52 1.62zm-.13-.22 2.54-1.59zm-.13-.2L9.47 59.7zm-.15-.25 2.59-1.52zm-.04-.08-2.6 1.5zm-.16-.27 2.62-1.47zm-.06-.11L9 58.87zm-.17-.31 2.65-1.4zm-.04-.08-2.66 1.4zm-.13-.25 2.68-1.36zm-.07-.14-2.69 1.33zm-.07-.15 2.7-1.31zm-.47-1.03-2.76 1.16zm-.1-.27 2.77-1.13zm-1.08-3.4 2.92-.69zm-.02-.05-2.92.7zm-.14-.67 2.93-.62zm-.1-.44-2.94.56zm-.06-.39 2.95-.53zm-.09-.5-2.96.47zm-.05-.36 2.96-.44zm-.08-.53-2.97.4zm-.04-.37 2.98-.35zm-.05-.43-2.98.31zm-.05-.45 3-.27zm-.03-.45-3 .23zm-.03-.42 3-.19zm-.03-.53-3 .15zm-.02-.39 3-.11zm-.01-.48-3 .08zm-.01-.38 3-.05zm0-.6h-3zm0-.3 3 .01zm0-.55-3-.06zm.04-1.23 3 .14zm.03-.57-3-.18zm.23-2.64 2.98.34zm.17-1.34-2.97-.41zm.04-.25 2.97.43zm.08-.57-2.96-.46zm.22-1.31 2.95.52zm.05-.31-2.95-.54zm.08-.4 2.95.56zm.1-.5-2.95-.58zm.08-.44 2.94.6zm.07-.31L6.93 33zm.3-1.4 2.93.68zm.04-.16L7.3 31.4zm.12-.5 2.92.7zm.31-1.24-2.9-.76zm.11-.42 2.9.77zm.04-.15-2.9-.78zm.34-1.22 2.89.83zm.17-.58-2.88-.85zm.24-.78 2.86.88zm.24-.77-2.86-.9zm.15-.48 2.85.93zm.25-.73-2.85-.96zm.16-.5 2.84.98zm.22-.6-2.83-1zm.19-.53 2.82 1.02zm.26-.73-2.8-1.05zm.1-.23 2.8 1.06zm.22-.6-2.8-1.09zm.13-.32 2.79 1.1zm.75-1.79-2.7-1.28-.02.03zm.15-.31-2.68-1.34-.03.05zm1.15-2.32 2.64 1.44zm.8-1.33-2.49-1.68zm.48-.67 2.38 1.82zm.54-.66-2.23-2zm.3-.32 2.15 2.1zm6.88-2.79v-3zm.31 0L25 8.52zm.87.14-.75 2.9zm.1.03.83-2.88zm.15.05-.93 2.85zm.12.04 1.03-2.82zm.15.06-1.14 2.77zm.07.03 1.18-2.76zm.14.06 1.34-2.68-.04-.02zm.05.02-1.35 2.69h.01zm.03.02 1.37-2.67zm.18.1-1.5 2.6zm.07.04 1.56-2.56zm.15.1-1.67 2.49zm.08.05 1.73-2.45zm.13.1-1.83 2.38zm.08.06 1.88-2.34zm.13.1-1.98 2.26zm.04.05 2.01-2.23zm.16.14-2.13 2.12zm.02.03 2.15-2.1zm.15.16-2.24 1.99zm.05.06 2.28-1.95zm.1.12-2.34 1.87zm.08.1 2.39-1.82zm.1.13-2.46 1.73zm.03.05 2.48-1.7zm.11.17-2.54 1.6zm.04.06L30.76 12zm.1.16-2.62 1.47zm.04.09 2.64-1.43zm.08.15-2.68 1.35zm.03.07 2.7-1.3zm.1.2-2.75 1.21zm.02.05 2.75-1.2zm.06.16-2.78 1.1zm.05.11 2.8-1.06zm.05.16-2.83.99zm.05.12 2.85-.93zm.03.1-2.87.9zm.04.15 2.89-.83zm.04.15L26 16zm.04.14 2.91-.71zm.03.13-2.92.67zm.04.16 2.94-.6zm.01.09-2.94.58zm.04.2 2.96-.5zm.02.14-2.96.46zm.02.12 2.97-.42zm.01.05-2.97.4zm.03.24 2.98-.32zm.03.43-2.99.19zm.02.48h3v-.04zm0 .02h-3v.03zm-.04 1.03-2.99-.27zm-.06.5 2.98.4zm-.15.85 2.92.66zm-.2.72-2.86-.88zm-.03.12 2.85.92zm-.05.15-2.84-.97zm-.05.15 2.82 1.02zm-.04.1L25.75 20zm-.06.16 2.79 1.1zm-.06.13-2.76-1.16zm-.05.13 2.75 1.2zm-.06.12-2.72-1.25zm-.07.15 2.7 1.3zm-.05.11-2.68-1.35zm-.06.12 2.65 1.4zm-.07.13-2.63-1.45zm-.07.12 2.6 1.5zm-.07.1-2.56-1.55zm-.08.15 2.52 1.61zm-.05.08-2.5-1.66zm-.1.15 2.45 1.72zm-.06.07-2.43-1.76zm-.1.13 2.38 1.84zm-.06.09-2.35-1.88zm-.1.1 2.3 1.95zm-.07.1-2.25-1.99zm-.09.1 2.2 2.03zm-.1.09L25 21.29zm-.1.1 2.09 2.16zm-.07.07-2.03-2.21zm-.11.1 1.95 2.28zm-.06.05-1.91-2.31zm-.14.11 1.8 2.4zm-.07.05-1.76-2.42zm-.13.1 1.66 2.5zm-.07.04-1.61-2.53zm-.15.09 1.49 2.6zm-.06.03-1.44-2.63zm-.12.07 1.34 2.68zm-.11.05-1.25-2.73zm-.39.15.92 2.86zm-.06.02-.86-2.87zm-.2.05.7 2.92zm-.03.01-.65-2.93zm-.15.03.51 2.95zm-.1.02-.43-2.97zm-.24.02.1 3h.12zm-.26.01v3h.1zm-6.22 0v-3a3 3 0 0 0-2.8 1.94zm-1.24 3.76-2.87-.85zm-.43 1.53 2.9.79zm-2.19 14.5-3 .02zm.04 1.31 3-.14zm.04.65-3 .22zm.3 2.54 2.96-.52zm.12.62-2.94.6zm.65 2.36 2.83-1.01zm.45 1.1-2.73 1.24zm.53 1.04 2.6-1.47zm.79 1.22-2.4 1.79zm.54.67 2.26-1.98zm.4.43-2.14 2.1zm1.65 1.52-1.92 2.3zm1.61 1.23 1.72-2.46zm.7.48-1.62 2.52zm1.77 1.03 1.4-2.65zm.68.34-1.31 2.7zm1.91.83 1.08-2.8zm1.34.47-.9 2.86a3 3 0 0 0 3.9-2.86zm0-9.66h-3zm.02-.72 3 .1zm0-.11-3-.13zm.03-.6 3 .22zm.02-.17-3-.24zm.06-.68 2.98.34zm.02-.1-2.98-.37zm.07-.53 2.96.44zm.02-.17-2.96-.48zm.1-.54 2.94.56zm.03-.14-2.95-.58zm.13-.64 2.92.69zm.05-.2-2.91-.72zm.12-.44 2.89.8zm.04-.15-2.89-.81zm.15-.5 2.86.9zm.04-.14L26 45.78zm.44-1.2 2.78 1.12zm.06-.16-2.77-1.15zm.21-.48 2.74 1.23zm.06-.12-2.73-1.26zm.56-1.12 2.63 1.43zm.1-.18-2.63-1.46zm.23-.41 2.59 1.53zm.08-.13-2.57-1.55zm.7-1.07 2.46 1.71zm.09-.13-2.45-1.74zm.32-.44 2.4 1.8zm.06-.08-2.4-1.81zm.8-1 2.28 1.95zm.14-.16-2.25-1.98zm.31-.35 2.22 2.03zm.13-.14-2.2-2.04zm.9-.91 2.08 2.16zm.16-.16-2.05-2.18zm.33-.3 2.02 2.22zm.16-.14-2-2.24zm1.03-.88-1.88-2.34zm.12-.1 1.87 2.35zm.46-.35-1.82-2.39zm.06-.05 1.81 2.4zm1.17-.84-1.69-2.48zm.13-.08 1.67 2.49zm.45-.3-1.63-2.52zm.14-.09 1.61 2.53zm1.2-.74-1.5-2.6zm.18-.1 1.49 2.6zm.4-.22-1.45-2.63zm.24-.14 1.44 2.64zm1.28-.66-1.32-2.69zm.14-.07 1.32 2.7zm.58-.27L41 30.4zm.1-.05 1.27 2.72zm2.18-.94-1.1-2.79zm.04-.02 1.1 2.8zm.73-.28-1.05-2.8zm.12-.04 1.05 2.81zm.63-.23-1.01-2.83zm.13-.05 1 2.83zm.63-.21-.96-2.85zm.1-.04-.95-2.84zm.15-.05-.95-2.85zm.64-.2-.9-2.86zm.06-.02.9 2.86zm.71-.22-.85-2.88zm.13-.04.85 2.88zm.61-.18-.81-2.88zm.2-.05.8 2.89zm.73-.2-.76-2.9zm.16-.04.75 2.9zm.7-.18-.72-2.91zm.08-.02.7 2.92zm.62-.15L51.05 27zm.26-.06.67 2.93zm.56-.12-.63-2.93zm.15-.03.63 2.93a3 3 0 0 0 2.21-3.89zm-.09-.27 2.84-.97a3 3 0 0 0-3.57-1.94zm-2.88.72h-3a3 3 0 0 0 3.73 2.91zm0-5.6h3a3 3 0 0 0-3-3zm-5.3 0v3zm-.33-.01-.24 2.99zm-1.22-.3 1.24-2.74zm-.12-.06-1.33 2.68zm-.11-.06 1.44-2.63zm-.04-.02-1.48 2.6zm-.17-.1 1.62-2.53zm-.07-.05-1.69 2.48zm-.13-.1 1.8-2.4zm-.08-.05-1.86 2.35zm-.1-.1L44 21.45zm-.15-.12-2.06 2.18zm-.04-.04 2.1-2.14zm-.1-.1-2.16 2.07zm-.07-.08 2.23-2zm-.08-.09-2.28 1.95zm-.08-.1 2.34-1.87zm-.05-.06-2.38 1.83zm-.24-.35 2.53-1.6zm-.07-.1L38.6 24.2zm-.07-.13 2.61-1.47zm-.03-.05-2.63 1.44zm-.2-.42 2.73-1.22zm-.06-.14-2.77 1.16zm-.05-.1 2.8-1.1zm-.05-.14-2.81 1.04zm-.05-.14 2.84-.98zm-.04-.13-2.86.92zm-.04-.12 2.87-.87zm-.05-.16-2.88.82zm-.02-.1 2.9-.77zm-.05-.2-2.92.7zm-.02-.08 2.92-.66zm-.04-.15-2.93.6zm-.03-.15 2.95-.56zm-.01-.09-2.96.53zm-.03-.18 2.96-.47zm-.03-.15-2.97.43zm-.02-.16 2.98-.38zm-.01-.1-2.98.34zm-.02-.2 2.98-.28zm-.01-.1-2.99.25zm-.01-.16 2.99-.21zm-.01-.19-3 .16zm0-.09 2.99-.13zm-.02-.22-3 .06zm0-.14 3-.03zm0-.04h-3v.02zm0-.16-3-.02v.02zm0-.06 3 .04zm0-.19-3-.09zm.01-.11 3 .12zm0-.15-2.99-.16zm.02-.24 3 .22zm0-.06-2.98-.24zm.02-.17 2.99.28zm.02-.17-2.98-.32zm.01-.12 2.98.35zm.03-.2-2.98-.4zm.01-.1 2.97.43zm.03-.17-2.96-.48zm.02-.13 2.96.51zm.03-.15-2.95-.56zm.04-.2 2.94.6zm.02-.1-2.93-.63zm.04-.18 2.92.69zm.03-.13-2.91-.72zm.05-.18 2.9.77zm.02-.1-2.89-.8zm.04-.13 2.88.84zm.05-.17-2.86-.9zm.04-.12 2.85.93zm.04-.13-2.84-.97zm.04-.12 2.83 1zm.06-.16-2.8-1.06zm.05-.13 2.8 1.1zm.05-.11-2.78-1.14zm.06-.15 2.75 1.2zm.05-.12-2.73-1.24zm.08-.15 2.7 1.3zm.04-.1-2.68-1.34zm.05-.1 2.67 1.37zm.08-.15 2.64 1.43zm.04-.08-2.61-1.46zm.1-.15 2.57 1.54zm.05-.1-2.55-1.58zm.08-.11 2.5 1.64zm.05-.08-2.5-1.67zm.25-.34 2.35 1.86zm.05-.06-2.32-1.9zm.26-.3 2.15 2.1zm.1-.1-2.08-2.16zm.07-.06 2.03 2.2zm.1-.09L40.52 10zm.08-.07 1.89 2.33zm.11-.09-1.8-2.4zm.07-.05 1.74 2.45zm.1-.07-1.64-2.5zm.09-.05 1.57 2.56zm.14-.08L41.64 9.2zm.05-.03 1.38 2.66zm.1-.05-1.28-2.71zm.1-.05 1.18 2.76zm.09-.03-1.09-2.8zm.55-.15.49 2.96zm.44-.04-.01-3zm.01 0v-3zm-1.35 76.49v-3a3 3 0 0 0-2.64 4.44zm1.17 1.89-2.45 1.73zm16.54 7.24-.77-2.9zm.82-.25.97 2.84zm.81-.3-1.15-2.77zm.79-.37 1.34 2.69zm.39-.2-1.43-2.64zm.75-.44 1.6 2.53zm.37-.24-1.69-2.49zm.72-.53 1.85 2.36zm.7-.58-2-2.24zm.66-.64 2.14 2.1zm2.33-3.07 2.6 1.5zm.72-1.32 2.66 1.39zm.29-.56 2.69 1.33v-.02zm.3-.63 2.7 1.3a3 3 0 0 0-2.7-4.3zM57.2 24.01h-3a3 3 0 0 0 .15.94zm.72 2.3-2.87.86zm.08.25 2.87-.85zm.26.9-2.9.82zm.05.18 2.89-.81zm.29 1.06-2.9.77zm0 .04-2.9.77a3 3 0 0 0 3.25 2.21zm3.3-.3.2 3zm.12 0-.19-3zm5.54-.15-.04 3zm.06 0 .05-3zm4.47.2-.24 3zm.04.01.24-2.99zm4.43.5-.43 2.96a3 3 0 0 0 1.22-5.86zm-2.57-.7h-3a3 3 0 0 0 2.22 2.89zm0-6.85h3a3 3 0 0 0-3-3zm-16.8 0v-3a3 3 0 0 0-3 3zm-12.34-9.94-.13 3h.08-.04l.15-3 .15-3h-.1.03zm.06 0-.15 3 .3.02.27-2.99.29-2.98-.56-.04zm.42.03-.28 2.99h-.03.07l.3-2.98.3-2.99h.02-.09zm.06 0-.3 3q.15 0 .26.03l.42-2.98.41-2.97-.5-.06zm.38.05-.42 2.98h.05l.43-2.97.43-2.97h-.08zm.06.01-.43 2.97.27.05.55-2.95.55-2.95-.5-.09zm.4.07-.55 2.95h.02l.04.01.57-2.94.57-2.95h-.03l-.08-.02zm.08.02-.57 2.94q.3.05.58.14l.8-2.9.8-2.89q-.51-.14-1.04-.24zm.8.19-.8 2.89.07.01.83-2.88.82-2.88-.11-.04zm.1.02-.83 2.88.29.1.93-2.86.93-2.85-.5-.15zm.39.12-.93 2.85-.08-.03.02.01.08.03.94-2.85.94-2.85.07.02h.01v.01l-.03-.01-.09-.03zm.03.01-.94 2.85.2.07 1.02-2.82 1-2.83-.34-.12zm.28.1-1.02 2.82.3.11 1.1-2.79L49.4 9.5l-.5-.19zm.39.14-1.12 2.79.05.02h.02l.01.01.02.01 1.15-2.77 1.15-2.77-.12-.05-.05-.02zm.13.06-1.15 2.77.37.16 1.26-2.72 1.27-2.72q-.3-.15-.6-.26zm.48.21-1.27 2.72h.02l.04.03 1.29-2.71 1.28-2.71v-.01l-.09-.04zm.08.04-1.29 2.7.32.16 1.39-2.66 1.38-2.66-.52-.25zm.42.2L48 15.44l.03.01v.01h.02l.04.03 1.42-2.65 1.41-2.64-.04-.03-.1-.05zm.1.06-1.4 2.65.28.16 1.5-2.6 1.5-2.6-.46-.25zm.38.2-1.5 2.6.1.07 1.53-2.58 1.53-2.58-.16-.1zm.13.09-1.53 2.58.3.18 1.62-2.52 1.62-2.53-.48-.3zm.39.24-1.62 2.52.03.02.02.01 1.63-2.52 1.63-2.51-.06-.04-.02-.01zm.06.03-1.63 2.52q.35.23.7.5l1.84-2.37 1.84-2.37q-.54-.41-1.12-.8zm.91.65-1.83 2.38q-.02-.02 0 0l.02.02.04.03 1.85-2.36 1.85-2.36-.02-.02-.07-.06zm.08.07-1.85 2.36q.16.11.28.23l1.93-2.3 1.93-2.3-.44-.35zm.36.29-1.93 2.3.06.04 1.94-2.28 1.95-2.29-.09-.07zm.07.06-1.94 2.28.65.6 2.12-2.12 2.12-2.12q-.48-.48-1-.93zm.83.76v3h28.12v-6H52.7zm28.12 0h-3v14.53h6V15.23zm0 14.53-.63 2.93.85.19.67-2.92.67-2.93-.93-.2zm.9.2-.68 2.92.52.12.7-2.91.7-2.92-.58-.14zm.55.13-.7 2.91.3.08.71-2.92.72-2.9-.33-.1zm.31.07-.71 2.92.39.1.74-2.91.74-2.9-.44-.12zm.42.1-.74 2.92.31.07.76-2.9.75-2.9-.34-.09zm.33.1-.76 2.9 1.41.38.84-2.88.83-2.88-1.57-.43zm1.49.4L84 33.64l.22.07.85-2.88.85-2.88-.25-.07zm.23.07-.85 2.88.48.14.87-2.87.88-2.87-.53-.16zm.5.15-.87 2.87.28.09.9-2.87.89-2.86-.32-.1zm.3.1-.9 2.86q.7.21 1.36.44l.97-2.84.98-2.83q-.75-.27-1.51-.5zm1.43.46-.97 2.84.18.06 1-2.83.98-2.83-.2-.07zm.2.07-.99 2.83.53.2 1.03-2.83L89.08 29l-.6-.21zm.57.2-1.03 2.82.17.06 1.03-2.81 1.03-2.82-.18-.07zm.17.07-1.03 2.81.48.19 1.07-2.8 1.07-2.81-.56-.21zm.52.2-1.07 2.8.23.08 1.09-2.8 1.08-2.8-.26-.1zm.25.09-1.09 2.8.64.24 1.13-2.78 1.13-2.78-.73-.28zm.68.26-1.13 2.78.12.05 1.13-2.77 1.14-2.78-.04-.02-.1-.04zm.12.06-1.13 2.77.53.22 1.17-2.76 1.17-2.76-.6-.25zm.57.23-1.17 2.76.18.08 1.2-2.75 1.18-2.76c-.03 0-.14-.06-.22-.09zm.2.09-1.19 2.75.47.2 1.22-2.73 1.23-2.74-.54-.24zm.5.22-1.22 2.74.18.08 1.24-2.74 1.23-2.73-.2-.09zm.2.08-1.24 2.74.62.29 1.29-2.71 1.28-2.72-.72-.33zm.67.32-1.29 2.7h-.02.02l.06.03 1.29-2.7 1.29-2.71h.02q0 .02 0 0h-.03l-.06-.04zm.06.03-1.29 2.7.53.26 1.33-2.69 1.33-2.69-.61-.3zm.57.27-1.33 2.69.24.12 1.35-2.68 1.35-2.67-.28-.15zm.26.13-1.35 2.68.32.16 1.38-2.66 1.37-2.67-.37-.18zm.35.18L91.8 36.7l.28.15 1.4-2.65 1.4-2.65-.33-.18zm.3.16-1.4 2.65.55.3 1.45-2.63 1.45-2.63-.64-.34zm.6.32-1.45 2.63-.07-.04-.01-.01.03.02.08.04 1.45-2.62 1.45-2.63.08.05-.11-.07zm.03.02-1.45 2.62.52.3 1.5-2.6 1.5-2.6-.62-.35zm.58.33-1.5 2.6.16.09 1.52-2.59 1.51-2.59-.2-.11zm.18.1-1.52 2.59.4.24 1.56-2.56 1.56-2.57-.49-.29zm.44.27-1.55 2.56.17.1 1.57-2.55 1.58-2.55-.21-.13zm.2.11-1.58 2.56q.53.32 1.02.66l1.68-2.49 1.68-2.49-1.23-.8zm1.12.73-1.67 2.49.17.12 1.7-2.48 1.7-2.47-.22-.15zm.2.13-1.7 2.48.37.26 1.74-2.45 1.74-2.44-.46-.32zm.41.3-1.74 2.44.17.12 1.76-2.43 1.76-2.44-.21-.14zm.19.13-1.76 2.43.3.22 1.8-2.4 1.79-2.41-.37-.28zm.34.24-1.8 2.41.19.13 1.8-2.39 1.82-2.39-.22-.16zm.2.15-1.81 2.4.46.35 1.86-2.35 1.87-2.35-.57-.44zm.51.4-1.86 2.35.14.12 1.89-2.33 1.88-2.34-.07-.05-.11-.1zm.17.14-1.89 2.33.29.23 1.92-2.3 1.92-2.3-.36-.3zm.32.26-1.92 2.3.2.18 1.95-2.28 1.95-2.29-.26-.22zm.23.2-1.94 2.28.28.25 1.99-2.25 1.98-2.25-.36-.32zm.33.28-1.99 2.25.13.1 2-2.23 2-2.23-.1-.1-.06-.04zm.14.12-2 2.24.43.4 2.07-2.18 2.06-2.18-.56-.51zm.5.46-2.07 2.18.02.02.03.02 2.06-2.17 2.07-2.18-.05-.05zm.05.05-2.07 2.17.35.35 2.12-2.13 2.12-2.12-.46-.45zm.4.4-2.12 2.12.14.13 2.13-2.1 2.14-2.1-.17-.18zm.15.15-2.13 2.1.25.26 2.17-2.06 2.18-2.07-.33-.34zm.3.3-2.18 2.06.15.16 2.2-2.04 2.2-2.04-.2-.2zm.17.18-2.2 2.04.35.39 2.25-1.99 2.25-1.98-.45-.5zm.4.44L99.4 42.4l.1.13 2.28-1.96 2.27-1.97-.05-.05-.1-.12zm.13.16-2.27 1.96.23.27 2.31-1.91 2.3-1.92-.3-.37zm.27.32-2.3 1.91.13.16 2.32-1.89 2.34-1.89-.18-.21zm.15.18-2.32 1.9.23.29 2.37-1.85 2.36-1.84-.3-.39zm.28.34-2.37 1.85.1.13 2.4-1.81 2.38-1.82-.15-.19zm.12.17-2.39 1.81q.32.43.62.87l2.5-1.66 2.5-1.67q-.4-.6-.84-1.17zm.73 1.02-2.5 1.66.08.11 2.5-1.64 2.52-1.64-.1-.16zm.09.13-2.51 1.64.2.32 2.54-1.59 2.55-1.58-.27-.43zm.23.37-2.54 1.59.1.16 2.56-1.55 2.57-1.55-.14-.23zm.13.2-2.57 1.55.16.27 2.6-1.5 2.6-1.5-.23-.37zm.18.32-2.6 1.5.1.18 2.63-1.47 2.61-1.46-.14-.25zm.13.21-2.62 1.47.24.44 2.66-1.38 2.67-1.38-.34-.61zm.28.53-2.66 1.38.08.16 2.68-1.34 2.68-1.35-.11-.23zm.1.2-2.68 1.34.15.31 2.7-1.28 2.72-1.29-.21-.43zm.18.37-2.71 1.28.07.16 2.73-1.25 2.72-1.26-.1-.22zm.09.19L102 46.37l.16.35 2.75-1.19 2.76-1.18-.22-.49zm.18.41-2.75 1.19.04.1.02.03 2.76-1.15 2.77-1.16-.06-.13-.02-.06zm.07.17-2.77 1.15.19.47 2.8-1.06 2.81-1.06-.26-.66zm.23.56-2.81 1.06v.02l.02.03.02.06 2.82-1.03 2.81-1.04-.01-.04-.05-.12zm.05.14-2.82 1.03.14.39 2.84-.95 2.85-.96-.2-.55zm.16.47-2.84.95.04.12 2.85-.92 2.86-.93-.06-.18zm.05.15-2.85.92.12.4 2.88-.83 2.88-.84-.17-.58zm.15.49-2.88.84.04.1 2.88-.8 2.89-.83-.05-.15zm.04.13-2.88.82.13.5 2.91-.7 2.92-.71q-.09-.37-.2-.73zm.16.62-2.91.7.02.08v.03-.01l-.01-.06 2.91-.71 2.92-.7-.03-.11.02.07zm.01.03-2.91.7.1.47 2.94-.6 2.94-.61-.15-.67zm.13.57-2.94.6.04.18 2.94-.57 2.95-.57-.06-.25zm.04.21-2.94.57.06.38 2.96-.5 2.96-.49-.1-.53zm.08.46-2.96.49.01.06.01.04v.03l2.97-.47 2.96-.47-.02-.13v-.05zm.03.15-2.96.47.06.5 2.98-.37 2.98-.37-.1-.7zm.08.6-2.97.36v.11l2.99-.34 2.98-.35-.02-.15zm.02.13-2.98.34.05.48 2.98-.25 3-.25-.07-.67zm.05.57-2.98.25v.18l3-.21 3-.22-.03-.25zm.02.22-3 .21q.03.2.03.4l3-.14 3-.14-.04-.55zm.03.47-3 .14v.16l3-.1 3-.1v-.24zm0 .2-3 .1.02.56h6q0-.4-.02-.77zm.02.66h-3V88h6V52.53zm0 35.46v-3H76.67v6h29.66zm-29.66 0-2.8-1.06q-.64 1.68-1.42 3.24l2.67 1.36 2.68 1.36a38 38 0 0 0 1.68-3.84zm-1.55 3.54-2.67-1.36-.08.15 2.67 1.37 2.66 1.38.1-.18zm-.08.16-2.67-1.37-.18.34 2.65 1.41 2.64 1.42.22-.42zm-.2.38-2.65-1.41-.12.22 2.63 1.45 2.63 1.44.15-.28zm-.14.26-2.63-1.45-.14.25 2.61 1.47 2.62 1.48.17-.31zm-.16.27-2.61-1.47-.12.22 2.6 1.5 2.6 1.5.15-.27zm-.13.25-2.6-1.5-.17.28 2.58 1.53 2.58 1.54.2-.35zm-.19.31-2.58-1.53-.1.17 2.56 1.56 2.56 1.56.14-.22zm-.12.2-2.56-1.56-.17.27 2.54 1.6 2.54 1.6.21-.35zm-.19.3-2.54-1.59-.1.17 2.52 1.62 2.53 1.62.13-.22zm-.12.2-2.52-1.62-.19.28 2.5 1.66 2.5 1.66.24-.36zm-.21.32-2.5-1.66-.13.2 2.48 1.68 2.48 1.69.17-.25zm-.15.22-2.48-1.69-.16.24 2.45 1.72 2.46 1.73.21-.31zm-.19.27-2.45-1.72-.14.2 2.43 1.76 2.43 1.75.19-.26zm-.16.24-2.43-1.76-.13.17 2.4 1.8 2.41 1.78.18-.24zm-.15.2-2.41-1.78-.18.23 2.38 1.83 2.38 1.82.23-.31zm-.21.28-2.38-1.83-.13.17 2.35 1.86 2.36 1.86.18-.24zm-.16.2-2.35-1.86-.16.2 2.32 1.9 2.33 1.89.22-.27zm-.19.23-2.32-1.89-.2.24 2.29 1.94 2.29 1.93.27-.32zm-.23.29-2.3-1.94q-.23.3-.44.5l2.2 2.05 2.2 2.04.63-.72zm-.54.61-2.2-2.04q-.5.53-1 1l2.1 2.17 2.08 2.15q.6-.58 1.22-1.24zm-1.1 1.13-2.1-2.16-.16.15 2.07 2.18 2.06 2.18.2-.2zm-.2.17-2.06-2.18q-.43.42-.83.76l1.95 2.28 1.95 2.28q.55-.47 1.06-.96zm-.94.86L67.4 96.6l-.02.02-.1.07 1.94 2.3 1.94 2.28.04-.03.1-.08zm-.12.1L67.3 96.7l-.4.33 1.88 2.34 1.88 2.34.51-.43zm-.46.38-1.88-2.34.01-.01-.07.05 1.88 2.35 1.87 2.34-.01.01.08-.06zm-.06.05-1.88-2.35-.41.33 1.8 2.4 1.82 2.38.54-.42zm-.48.37-1.81-2.4-.15.12 1.8 2.4 1.78 2.41.19-.14zm-.17.13-1.79-2.41q-.18.14-.34.24l1.74 2.45 1.73 2.45.45-.33zm-.4.28-1.73-2.45-.16.12 1.7 2.46 1.72 2.47.2-.15zm-.18.13-1.7-2.46-.32.21 1.65 2.5 1.65 2.5.43-.28zm-.37.25-1.65-2.5-.18.11 1.63 2.52 1.62 2.53.23-.15zm-.2.13-1.63-2.52-.29.19 1.57 2.55 1.58 2.56.4-.25zm-.35.22L65 98.37l-.23.13 1.54 2.58 1.53 2.58.3-.18zm-.26.16-1.54-2.58-.24.15 1.48 2.6 1.5 2.6.33-.19zm-.3.17-1.48-2.6-.21.11 1.45 2.63 1.45 2.63.28-.16zm-.24.14-1.45-2.63-.29.16 1.4 2.66 1.39 2.65.4-.21zm-.35.19-1.39-2.66-.15.08 1.36 2.67 1.36 2.67.22-.1zm-.18.1L63.88 99l-.3.15 1.3 2.7 1.3 2.7.42-.2zm-.36.17-1.3-2.7-.2.1 1.26 2.71 1.27 2.72.27-.13zm-.24.11-1.26-2.72-.27.12 1.2 2.75 1.21 2.75.39-.18zm-.32.15-1.21-2.75-.19.08 1.17 2.77 1.17 2.76.26-.11zm-.23.1-1.17-2.77-.28.12 1.1 2.79 1.11 2.79.41-.17zm-.35.14-1.1-2.79-.17.06 1.08 2.8 1.07 2.8.23-.08zm-.2.08-1.06-2.8-.3.1 1 2.83 1 2.83.44-.16zm-.36.13-1-2.83-.17.06.97 2.84.97 2.84.24-.08zm-.2.07L62 99.8l-.3.1.91 2.86.91 2.86.42-.14zm-.36.12-.9-2.86-.17.05.86 2.87.87 2.88.25-.08zm-.2.06-.87-2.87-.26.08.8 2.89.82 2.88.37-.1zm-.32.1-.81-2.9-.23.07.76 2.9.76 2.9.33-.09zm-.28.07-.76-2.9-.22.06.7 2.91.71 2.92.33-.09zm-.28.07-.7-2.91-.2.04.66 2.93.67 2.92.28-.06zm-.24.06-.66-2.93-.3.06.6 2.95.59 2.94.44-.1zm-.37.08-.59-2.94-.14.02.56 2.95.56 2.95.2-.04zm-.17.03-.56-2.95-.29.05.5 2.96.49 2.96.42-.07zm-.35.06-.5-2.96-.17.03.45 2.97.45 2.96.26-.04zm-.22.04-.45-2.97-.26.04.4 2.97.39 2.98.37-.06zm-.31.04-.4-2.97-.19.02.35 2.98.35 2.98.28-.03zm-.24.03-.35-2.98-.26.03.29 2.99.28 2.98.39-.04zm-.32.04-.29-3-.18.03.24 2.99.25 2.99.26-.03zm-.23.02-.24-3-.28.02.18 3 .17 3 .42-.03zm-.34.02-.18-3-.15.01.14 3 .14 3 .22-.02zm-.2.01-.13-3-.3.01.08 3 .07 3 .43-.01zm-.35.01-.08-3h-.14l.04 3 .04 3h.21zm-.18 0-.04-3h-.3l-.03 3-.03 3h.44zm-.37 0 .02-3h-.14l-.06 3-.06 3h.2zm-.18 0 .06-3h-.3l-.14 3-.13 2.99.45.02zm-.38 0 .13-3h-.11l-.16 2.99-.16 3h.17zm-.14-.01.15-3-.3-.02-.21 3-.23 2.98.43.03zm-.36-.03.22-2.99h-.12l-.03-.01h-.01l-.26 2.99-.25 2.99h.15l.07.01zm-.2-.01.26-3-.24-.02-.31 2.99-.3 2.98.34.04zm-.29-.03.3-2.98-.18-.03-.36 2.98-.35 2.98.28.03zm-.24-.02.36-2.98-.27-.04-.41 2.97-.4 2.97.37.05zm-.32-.05.4-2.97-.16-.02-.44 2.97-.44 2.96.15.02.08.01zm-.2-.03.44-2.96-.34-.06-.51 2.96-.51 2.95.48.08zm-.41-.06.51-2.96h-.07l-.01-.01-.54 2.95-.53 2.95.09.02h.04zm-.1-.02.52-2.95q-.66-.12-1.3-.3l-.77 2.9-.79 2.9q.9.25 1.8.4zm-1.55-.35.78-2.9-.71-.2-.92 2.85-.91 2.86.97.29zm-.85-.25.92-2.85-.13-.04-.93 2.85-.94 2.85.11.03.06.02zm-.14-.04.93-2.85-.21-.08-.97 2.84-.97 2.84.28.1zm-.25-.09.97-2.84-.23-.08-1.01 2.83-1.02 2.82.32.11zm-.27-.1 1-2.82-.18-.07-1.05 2.81-1.04 2.82.25.1zm-.23-.08 1.05-2.8-.2-.08-1.08 2.8-1.08 2.8.27.1zm-.23-.08 1.08-2.8-.27-.1-1.12 2.78-1.12 2.78.35.14zm-.3-.12 1.11-2.79-.16-.06-1.14 2.77-1.15 2.77.21.09zm-.2-.08 1.15-2.77-.3-.13-1.19 2.76-1.19 2.75.39.16zm-.34-.14 1.2-2.76-.08-.03h-.01l-1.22 2.74-1.2 2.74.08.04.04.02zm-.1-.05 1.2-2.75-.24-.1-1.24 2.72-1.25 2.73.31.14zm-.28-.13L51.33 99l-.22-.1-1.28 2.71-1.28 2.72.29.13zm-.26-.12 1.28-2.7-.17-.1-1.3 2.71-1.31 2.7.22.1zm-.2-.09 1.3-2.7-.2-.1-1.34 2.68-1.34 2.69.28.13zm-.24-.12 1.34-2.68-.22-.12-1.37 2.67-1.37 2.67.28.15zm-.25-.13 1.37-2.67-.18-.09-1.4 2.66-1.4 2.65.24.12zm-.2-.1 1.39-2.66-.22-.11-1.42 2.63-1.43 2.64.28.15zm-.25-.14 1.42-2.63q-.11-.07-.19-.1l-1.45 2.62-1.45 2.62.24.13zm-.22-.11 1.45-2.63-.2-.12-1.49 2.61-1.48 2.61.27.15zm-.24-.14 1.48-2.6-.18-.11-1.51 2.6-1.5 2.59.23.13zm-.21-.12 1.5-2.6-.17-.1-1.53 2.58-1.53 2.58.22.14zm-.2-.12 1.53-2.57-.23-.15-1.57 2.56-1.56 2.57.3.17zm-.27-.16 1.57-2.56-.17-.1-1.59 2.55-1.58 2.54.21.14zm-.19-.11 1.59-2.55-.18-.11-1.61 2.53-1.61 2.53.23.14zm-.2-.13 1.6-2.53-.24-.16-1.64 2.5-1.64 2.52.31.2zm-.28-.18 1.64-2.51-.13-.09-1.66 2.5-1.65 2.5.16.1zm-.15-.1 1.66-2.5-.2-.13-1.67 2.49-1.68 2.48.24.16zm-.21-.14 1.68-2.49-.22-.14-1.7 2.46-1.7 2.47.26.18zm-.24-.17 1.7-2.46-.22-.16-1.74 2.45-1.73 2.44.28.2zm-.26-.17 1.74-2.45-.09-.06-1.74 2.44-1.75 2.44.1.07zm-.1-.07 1.75-2.44-.24-.18-1.78 2.42-1.78 2.42.31.22zm-.27-.2 1.78-2.42-.16-.12-1.8 2.4-1.8 2.4.2.16zm-.18-.14 1.8-2.4-.2-.15-1.83 2.38-1.82 2.39.26.19zm-.23-.17 1.82-2.38-.11-.1-1.84 2.38-1.83 2.38.14.1zm-.13-.1 1.84-2.37-.24-.19-1.86 2.35-1.86 2.36.3.23zm-.26-.2 1.86-2.36-.16-.12-1.88 2.34-1.87 2.34.19.15zm-.18-.14L46.55 96l-.17-.14-1.9 2.33-1.9 2.32.22.17zm-.18-.15 1.9-2.33-.16-.13-1.92 2.31-1.91 2.3.19.17zm-.18-.15 1.92-2.3-.54-.46-1.97 2.25-1.98 2.26q.33.3.66.56zm-.6-.5 1.98-2.26-.15-.14-2 2.24-2 2.24.2.17zm-.17-.16 2-2.24-.5-.45L43 96.9l-2.05 2.18.6.55zm-.54-.5 2.05-2.19-.05-.04-2.05 2.18-2.06 2.19.06.05zm-.05-.05L45 94.66q-.6-.56-1.13-1.13l-2.19 2.05-2.18 2.06q.66.7 1.39 1.39zm-1.27-1.26 2.19-2.05-.55-.6-2.25 1.98-2.25 1.98.68.75zm-.6-.67 2.27-1.95-.57-.67-2.29 1.94-2.28 1.95.58.68zm-.59-.68 2.32-1.9-.64-.82-2.4 1.8-2.4 1.8.8 1.03zm-.72-.92 2.4-1.8-.09-.12-2.4 1.8-2.41 1.78c.03.05.1.13.1.15zm-.1-.13 2.41-1.79-.24-.33-2.44 1.75-2.44 1.75.3.41zm-.27-.37 2.44-1.75-.1-.14-2.45 1.73-2.45 1.73.12.18zm-.1-.16 2.44-1.73-.55-.8-2.51 1.63-2.52 1.63.68 1zm-.62-.9 2.51-1.64-.05-.08-2.53 1.62-2.52 1.62.07.11zm-.07-.1 2.53-1.62-.28-.44-2.55 1.57-2.56 1.57.34.54zm-.3-.49 2.55-1.57-.37-.63-2.6 1.5-2.6 1.49.46.78zm-.42-.7 2.6-1.5-.07-.12-2.61 1.48-2.6 1.48.08.15zm-.08-.14 2.6-1.48q-.36-.66-.69-1.31l-2.69 1.33-2.68 1.33q.4.81.85 1.61zm-.78-1.46 2.7-1.33-.07-.14-2.7 1.32-2.7 1.31.09.17zm-.07-.15 2.7-1.32-.3-.64-2.74 1.24-2.73 1.25.38.78zm-.34-.72v-3h-8.67v6h8.67zm-8.67 0h3V68.26h-6V88zm0-19.73.75-2.9-.98-.27-.8 2.9-.82 2.88 1.11.3zm-1.04-.28.81-2.89h-.03.01zl-.82 2.89h.04-.02zm-.02 0 .81-2.9-.96-.27-.88 2.86-.88 2.87q.56.18 1.1.32zm-1.03-.3.88-2.87-.16-.05-.9 2.86-.88 2.86.18.06zm-.17-.06.89-2.86q-1.2-.37-2.43-.85l-1.08 2.8-1.1 2.8q1.45.55 2.83.97zm-2.62-.91 1.08-2.8-.13-.05-1.1 2.8-1.1 2.78.11.04.05.02zm-.15-.06 1.1-2.79-.37-.15-1.13 2.78-1.14 2.78.44.17zm-.4-.16 1.13-2.78-.2-.08-1.15 2.77-1.16 2.77.25.1zm-.22-.1 1.15-2.76-.35-.15-1.19 2.76-1.18 2.75.41.18zm-.39-.15 1.19-2.76-.23-.1-1.2 2.75-1.22 2.74.28.12zm-.25-.11 1.21-2.75-.28-.12-1.23 2.73-1.24 2.73.33.15zm-.3-.14 1.23-2.73-.35-.17-1.27 2.72-1.27 2.72.42.2zm-.39-.18 1.28-2.72-.18-.08-1.3 2.7-1.29 2.72.22.1zm-.2-.1 1.3-2.7-.37-.18-1.34 2.69-1.33 2.68.45.23zm-.4-.2 1.33-2.68-.22-.1-1.36 2.67-1.36 2.67.27.13zm-.25-.11 1.36-2.68-.42-.22-1.41 2.65-1.41 2.65.52.27zm-.47-.25 1.4-2.65-.07-.04-.02-.01-1.43 2.64-1.42 2.64.1.05.03.02zm-.12-.06 1.43-2.64-.43-.24-1.48 2.61-1.47 2.61.53.3zm-.48-.27 1.48-2.6-.67-.4-1.57 2.55-1.57 2.56.86.5zm-.76-.45 1.57-2.55-.54-.35-1.67 2.5-1.66 2.5.73.46zm-.64-.4 1.67-2.5q-.14-.08-.24-.16l-1.7 2.47-1.7 2.47q.15.12.31.21zm-.27-.19 1.7-2.47-.51-.37-1.8 2.4-1.8 2.4.7.51zm-.61-.44 1.8-2.4-.04-.03-.02-.01q-.02-.01 0 0l-1.82 2.39-1.8 2.39.07.05.01.01zm-.08-.05 1.81-2.4-.13-.1-1.84 2.37-1.83 2.38.18.14zm-.16-.13 1.84-2.37-.19-.14-1.87 2.34-1.87 2.35.26.2zm-.22-.17 1.87-2.34-.14-.12-1.9 2.32-1.9 2.33.2.16zm-.17-.14 1.9-2.32-.16-.13-1.93 2.3-1.93 2.3.23.18zm-.19-.16 1.93-2.3c-.05-.04-.02 0-.15-.12l-1.95 2.28-1.96 2.27.07.06.13.11zm-.17-.14 1.95-2.28-.13-.11-1.98 2.25-1.98 2.25.18.16zm-.16-.14 1.98-2.25-.17-.16-2.02 2.23-2 2.22.23.21zm-.2-.18 2-2.23-.1-.1-2.04 2.2-2.04 2.2.1.1.06.05zm-.14-.13 2.03-2.2-.17-.16-2.07 2.17L13 64.08l.24.22zm-.2-.2 2.06-2.16-.1-.1-2.1 2.15-2.08 2.15.14.14zm-.13-.11 2.08-2.16-.14-.14-2.12 2.13-2.12 2.12.2.2zm-.18-.17 2.12-2.13-.14-.14-2.14 2.1-2.15 2.1.2.2zm-.16-.17 2.14-2.1-.13-.14-2.17 2.07-2.17 2.07.18.2zm-.16-.17 2.17-2.07q-.1-.08-.12-.13l-2.2 2.05-2.2 2.04.18.18zm-.15-.15 2.2-2.05-.12-.12-2.21 2.02L11.95 63l.16.17zm-.13-.15 2.21-2.02-.14-.16-2.25 2-2.24 1.98.2.22zm-.18-.19 2.25-1.99-.15-.17-2.27 1.96-2.28 1.95.2.24zm-.17-.2 2.27-1.96-.09-.1-2.29 1.93-2.3 1.94.13.14zm-.1-.13L16 58.53l-.12-.14-2.31 1.9-2.32 1.91.17.2zm-.15-.17 2.31-1.9-.12-.15-2.34 1.87L11.08 62l.17.21zm-.15-.18 2.34-1.87-.1-.13-2.36 1.85-2.36 1.86.14.17zm-.12-.15 2.36-1.85-.11-.15-2.39 1.83-2.38 1.82.16.2zm-.14-.17 2.39-1.83-.15-.2-2.4 1.8-2.42 1.78.2.27zm-.17-.23 2.41-1.79-.05-.07-2.42 1.77-2.42 1.77.05.07.02.03zm-.06-.1 2.42-1.76-.15-.2-2.45 1.72-2.45 1.74.2.28zm-.18-.24 2.45-1.73-.09-.12-2.46 1.7-2.47 1.72.12.17zm-.1-.14 2.46-1.71-.1-.15-2.48 1.68-2.49 1.68.14.2zm-.12-.18L15 57.22l-.14-.21-2.51 1.64-2.51 1.64q.09.15.2.29zm-.17-.25 2.5-1.65-.06-.1-2.52 1.63-2.52 1.63.08.12zm-.07-.1 2.52-1.63-.1-.18-2.55 1.6-2.55 1.58.16.25zm-.13-.22 2.54-1.59-.1-.17-2.57 1.56-2.56 1.56.14.23zm-.13-.2 2.57-1.56-.13-.21-2.59 1.52L9.3 59.4l.17.3zm-.15-.25 2.59-1.52-.04-.07-2.6 1.51-2.59 1.5.02.04.04.06zm-.04-.08 2.6-1.5-.14-.24-2.62 1.47-2.62 1.46.18.32zm-.16-.27 2.62-1.47-.05-.1-2.63 1.46L9 58.87l.07.12zm-.06-.11 2.63-1.45-.15-.26-2.65 1.4-2.65 1.4.2.36zm-.17-.31 2.65-1.4-.03-.07-2.66 1.39-2.66 1.4.05.08zm-.04-.08 2.66-1.39-.11-.22-2.68 1.36-2.68 1.35.15.3zm-.13-.25 2.68-1.36-.06-.11-2.69 1.33-2.69 1.33.05.1.03.06zm-.07-.14 2.69-1.33-.06-.13-2.7 1.3-2.7 1.31.08.18zm-.07-.15 2.7-1.31q-.22-.45-.4-.88l-2.77 1.16-2.76 1.16q.25.6.53 1.17zm-.47-1.03 2.77-1.16-.1-.24-2.78 1.13-2.78 1.12.13.31zm-.1-.27 2.77-1.13q-.57-1.41-.93-2.96l-2.92.7-2.92.7q.45 1.94 1.21 3.81zm-1.08-3.4 2.92-.69-.02-.07v-.02.04l-2.92.7-2.92.68.03.1-.01-.04zm-.02-.05 2.92-.69-.13-.6-2.93.62-2.94.61.16.75zm-.14-.67 2.93-.62-.08-.39-2.94.57-2.95.56.1.5zm-.1-.44 2.95-.57-.06-.35-2.95.53-2.96.53.08.42zm-.06-.39 2.95-.53-.08-.45-2.96.47-2.96.48.1.56zm-.09-.5 2.96-.48-.05-.32-2.96.44-2.97.44.06.39zm-.05-.36 2.96-.44-.06-.47-2.98.38-2.97.4.08.57zm-.08-.53 2.98-.38-.04-.34-2.98.35-2.98.35.05.41zm-.04-.37 2.98-.35-.05-.4-2.98.32-2.98.31.05.47zm-.05-.43 2.98-.31-.04-.41-2.99.27-2.98.27.05.49zm-.05-.45 3-.27-.04-.41-3 .23-2.98.23q0 .22.04.49zm-.03-.45 2.99-.23-.03-.38-3 .2-2.99.19.04.45zm-.03-.42 3-.19-.04-.49-3 .15-2.99.15.03.58zm-.03-.53 3-.15-.02-.35-3 .11-3 .12.02.42zm-.02-.39 3-.11-.02-.44-3 .08-3 .07.02.52zm-.01-.48 3-.07-.01-.36-3 .05-3 .05v.41zm-.01-.38 3-.05v-.55h-6V45zm0-.6h3v-.29l-3-.01-3-.02v.33zm0-.3 3 .01v-.5l-3-.06-3-.06v.59zm0-.55 3 .05q0-.59.04-1.14l-3-.14-3-.14-.04 1.3zm.04-1.23 3 .14.03-.53-3-.18-3-.18-.03.6zm.03-.57 3 .18q.07-1.25.21-2.48l-2.98-.34L6 38.72q-.16 1.38-.24 2.8zm.23-2.64 2.98.34.16-1.26-2.97-.42-2.97-.41L6 38.72zm.17-1.34 2.97.42.04-.24-2.97-.43-2.97-.43-.04.27zm.04-.25 2.97.43.08-.54-2.97-.46-2.96-.46-.1.6zm.08-.57 2.97.46.2-1.25-2.95-.52-2.96-.53-.22 1.38zm.22-1.31 2.95.52.06-.3-2.96-.53-2.95-.54-.06.32zm.05-.31 2.96.53.07-.37-2.95-.56-2.95-.56-.08.42zm.08-.4 2.95.55.09-.47-2.95-.58-2.94-.58-.1.52zm.1-.5 2.94.58.08-.42-2.94-.6-2.94-.6-.1.46zm.08-.44 2.94.6.06-.3-2.93-.62-2.94-.6-.07.32zm.07-.31 2.93.6.3-1.32-2.93-.67-2.92-.68-.32 1.45zm.3-1.4 2.93.68.03-.16-2.92-.68-2.92-.68-.04.17zm.04-.16 2.92.69.12-.5-2.92-.7-2.91-.7-.13.53zm.12-.5 2.92.7.3-1.19-2.9-.75-2.91-.76-.32 1.29zm.31-1.24 2.9.75.11-.4-2.9-.77-2.9-.77-.11.43zm.11-.42 2.9.77.04-.14-2.9-.78-2.9-.78-.04.16zm.04-.15 2.9.78.33-1.17-2.89-.83-2.88-.82-.35 1.26zm.34-1.22 2.89.83.16-.55-2.88-.86-2.88-.85-.17.6zm.17-.58 2.88.86.22-.76-2.86-.88-2.87-.88-.25.81zm.24-.78 2.86.88.24-.73-2.86-.91-2.86-.92-.25.8zm.24-.77 2.86.92.14-.47-2.85-.93L9.08 25l-.16.5zm.15-.48 2.85.93.24-.7-2.84-.96-2.85-.96-.25.76zm.25-.73 2.84.96.16-.48-2.84-.97-2.83-.98-.18.5zm.16-.5 2.84.98.2-.58-2.82-1-2.83-1-.22.63zm.22-.6 2.82 1 .19-.51-2.82-1.02-2.82-1.03-.2.56zm.19-.53 2.82 1.02.25-.7-2.8-1.05-2.81-1.05q-.15.35-.28.75zm.26-.73 2.81 1.06.09-.23-2.8-1.06-2.81-1.07-.06.15-.03.1zm.1-.23 2.8 1.06.21-.56-2.79-1.1-2.8-1.09-.23.62zm.22-.6 2.8 1.1.12-.31-2.79-1.11-2.79-1.11-.13.34zm.13-.32 2.79 1.1q.46-1.13.7-1.64L14.2 19.9l-2.72-1.25q-.31.67-.82 1.93zm.75-1.79 2.71 1.29.15-.32-2.7-1.28-2.72-1.29-.15.32zm.15-.31 2.69 1.33c.4-.8.64-1.38 1.1-2.21l-2.64-1.44-2.64-1.43c-.5.92-.97 1.96-1.2 2.41zm1.15-2.32 2.64 1.44q.3-.57.65-1.1l-2.49-1.67-2.49-1.68q-.54.83-.95 1.58zm.8-1.33 2.5 1.67q.17-.27.36-.52l-2.38-1.82-2.38-1.83-.59.82zm.48-.67 2.38 1.82.4-.48-2.24-2-2.23-2q-.37.42-.69.83zm.54-.66 2.24 2 .21-.23-2.15-2.09-2.16-2.08-.37.4zm.3-.32 2.15 2.1a6.1 6.1 0 0 1 4.73-1.89v-6c-4.1 0-7.01 1.62-9.04 3.7zm6.88-2.79v3h.13l.18-3L25 8.52l-.5-.01zm.31 0-.18 3 .3.05.75-2.9.75-2.91q-.69-.18-1.44-.23zm.87.14-.75 2.9h-.05.02l.05.02.83-2.89.83-2.88h-.02l-.16-.05zm.1.03-.83 2.89.05.01.93-2.85.94-2.85-.18-.06-.05-.01-.03-.01zm.15.05-.93 2.85q-.04 0-.05-.02h-.01.03l.06.03 1.02-2.82 1.03-2.82h-.03l-.18-.07zm.12.04-1.02 2.82.07.03-.04-.02 1.14-2.77 1.13-2.78-.18-.07-.04-.02h-.03zm.15.06-1.14 2.77-.1-.04h.01l.02.01.09.04 1.19-2.75 1.18-2.76.05.02-.06-.02-.1-.05zm.07.03-1.2 2.75.06.02.02.01-.04-.02 1.3-2.7 1.3-2.7-.18-.09-.05-.02h-.03zm.14.06-1.34 2.68.04.03 1.35-2.69 1.34-2.68-.05-.02zm.05.02-1.34 2.69-.08-.04-.02-.01.03.01.03.02q.02 0 .05.03l1.36-2.68 1.37-2.67.06.04h.02l-.15-.07zm.03.02-1.36 2.68.04.02 1.5-2.6 1.5-2.6-.31-.17zm.18.1-1.5 2.6h.02l1.55-2.56 1.56-2.56-.12-.08zm.07.04-1.55 2.57.03.02 1.67-2.5 1.68-2.48-.27-.17zm.15.1-1.67 2.49.02.01 1.73-2.45 1.73-2.45-.13-.1zm.08.05-1.73 2.45.03.02 1.83-2.37 1.83-2.38-.23-.17zm.13.1-1.83 2.38-.02-.02.04.03 1.89-2.33 1.88-2.34-.03-.02-.1-.08zm.08.06-1.89 2.33.03.02.01.01 1.98-2.25 1.98-2.25-.23-.2zm.13.1-1.98 2.26-.02-.02v.01l.03.02 2.01-2.22 2.01-2.23-.07-.06zm.04.05-2.01 2.22.04.04 2.13-2.12 2.12-2.12-.27-.25zm.16.14-2.13 2.12-.02-.03v.01l.03.03 2.14-2.1 2.15-2.1.01.02-.06-.07zm.02.03-2.14 2.1.05.05 2.24-2 2.24-1.99-.24-.26zm.15.16-2.24 1.99.01.02 2.28-1.95 2.28-1.95-.09-.1zm.05.06-2.28 1.95.04.04 2.34-1.87 2.34-1.88-.16-.2zm.1.12-2.34 1.87.02.04 2.4-1.81 2.39-1.82-.13-.16zm.08.1-2.4 1.8.04.06 2.45-1.73 2.45-1.73-.15-.22zm.1.13-2.46 1.73.02.02 2.47-1.7 2.48-1.7-.07-.08zm.03.05-2.47 1.7.04.07 2.54-1.6 2.55-1.59-.18-.27zm.11.17-2.54 1.6.02.02 2.56-1.56L30.76 12l-.05-.1zm.04.06-2.56 1.56.04.07 2.61-1.47 2.61-1.48-.14-.24zm.1.16-2.62 1.47v.01l.02.03 2.64-1.42 2.64-1.43-.08-.14zm.04.09-2.64 1.42.04.08 2.68-1.35 2.69-1.34-.13-.24zm.08.15-2.68 1.35v-.01.01l.02.03 2.7-1.3 2.7-1.32-.02-.02-.03-.08zm.03.07-2.7 1.3.05.11 2.75-1.2 2.75-1.21-.15-.3zm.1.2-2.75 1.21.01.02 2.76-1.18 2.75-1.2-.02-.03v-.02zm.02.05-2.76 1.18.04.09 2.78-1.11 2.8-1.11-.1-.24zm.06.16-2.78 1.1.01.04v.02l.01.01 2.8-1.06 2.81-1.06-.06-.16zm.05.11-2.8 1.06q-.02 0 0 0l.02.09 2.84-.99 2.83-.99-.09-.23zm.05.16-2.83.99.02.05v.02l2.86-.94 2.85-.93-.06-.18zm.05.12-2.85.94.01.05 2.87-.9 2.86-.89-.04-.13zm.03.1-2.87.9.03.08 2.88-.83 2.89-.83-.07-.22zm.04.15-2.88.83v.02l.01.03.02.04 2.9-.77 2.9-.78-.06-.2zm.04.15L26 16l.03.09 2.91-.72 2.91-.71-.05-.2zm.04.14-2.91.72.02.08 2.92-.67 2.93-.66-.05-.18zm.03.13-2.92.67.02.1 2.94-.6 2.94-.62-.05-.21zm.04.16-2.94.61v.02l.01.04 2.94-.58 2.95-.58v-.03l-.02-.09zm.01.09-2.94.58.03.13 2.95-.5 2.96-.51-.05-.28zm.04.2-2.95.5v.1l2.97-.46 2.97-.46-.03-.18zm.02.14-2.96.46v.06h.01v.01l2.97-.41 2.97-.42-.01-.12-.01-.04zm.02.12-2.97.41v.04l2.98-.4 2.97-.4v-.07zm.01.05-2.97.4.02.16 2.98-.32 2.98-.32-.04-.32zm.03.24-2.98.32.02.3 3-.19 2.99-.18-.05-.57zm.03.43-2.99.19.01.33 3-.04 3-.04q0-.33-.02-.62zm.02.48h-3v.02h6v-.02zm0 .02-3 .03q0 .36-.03.73l3 .27 2.98.27q.06-.66.05-1.34zm-.04 1.03-2.99-.27q0 .18-.04.35l2.97.42 2.98.4.07-.63zm-.06.5-2.97-.42q-.03.3-.1.6l2.92.67 2.92.66q.13-.54.2-1.1zm-.15.85L26 19.16l-.13.5 2.86.88 2.87.89q.15-.45.25-.95zm-.2.72-2.86-.88-.03.08 2.86.92 2.85.92.05-.15zm-.03.12-2.86-.92-.03.1 2.84.97 2.83.97.07-.2zm-.05.15-2.84-.97-.03.1 2.82 1.02 2.82 1.02.06-.2zm-.05.15-2.82-1.03v.02l-.02.02-.01.03 2.8 1.06 2.81 1.06.02-.05.04-.1zm-.04.1L25.75 20l-.02.06-.01.02v.02q-.02.03 0 0l2.78 1.12 2.79 1.1.05-.14.02-.06zm-.06.16L25.7 20.1l-.03.1 2.76 1.15 2.77 1.16.08-.18zm-.06.13-2.76-1.16-.04.08 2.75 1.2 2.75 1.21.07-.17zm-.05.13-2.75-1.2-.01.03-.02.02v.02l2.72 1.25 2.73 1.25.08-.17zm-.06.12-2.72-1.25-.05.09 2.7 1.3 2.7 1.31.1-.2zm-.07.15-2.7-1.31-.03.07 2.68 1.35 2.67 1.36q.05-.07.08-.17zm-.05.11-2.68-1.35-.04.07 2.66 1.4 2.65 1.4.08-.16zm-.06.12-2.66-1.4-.04.08 2.63 1.45 2.62 1.45.1-.18zm-.07.13-2.63-1.45-.04.06 2.6 1.5 2.6 1.5.09-.16zm-.07.12-2.6-1.5-.03.05 2.57 1.56 2.56 1.55.1-.16zm-.07.1-2.56-1.55-.05.08 2.53 1.62 2.52 1.61.13-.2zm-.08.15-2.53-1.62-.03.04 2.5 1.66 2.5 1.65.08-.12zm-.05.08-2.5-1.66-.06.08 2.45 1.73 2.46 1.72.15-.22zm-.1.15-2.46-1.73-.01.02-.01.01 2.42 1.77 2.43 1.76.08-.1zm-.06.07-2.43-1.76-.05.06 2.38 1.83 2.38 1.84.15-.21zm-.1.13-2.38-1.83-.02.03v.01q-.02 0 0 0L27.48 23l2.34 1.87.1-.12zm-.06.09-2.35-1.88q.02 0 0 0l-.01.02-.03.03 2.3 1.94 2.28 1.94.15-.18zm-.1.1-2.29-1.93v.01l-.02.02h-.01v.01l2.25 1.99 2.24 1.98.12-.13zm-.07.1-2.25-1.99-.04.04 2.2 2.04 2.2 2.04.13-.15zm-.09.1-2.2-2.05-.02.03H25l2.14 2.1 2.14 2.11.15-.16zm-.1.09L25 21.29l-.04.03 2.08 2.17 2.08 2.16.16-.16zm-.1.1-2.07-2.17-.02.02q-.02.02 0 0l2.02 2.22 2.03 2.2.13-.11zm-.07.07-2.03-2.21-.04.03 1.96 2.28 1.95 2.28.2-.17zm-.11.1-1.96-2.28-.02.02v.01-.01l1.92 2.31 1.9 2.32.08-.07.03-.02zm-.06.05-1.91-2.31q-.03 0-.04.03l1.8 2.4 1.82 2.39.24-.2zm-.14.11-1.81-2.39-.04.03h-.01v.01l.03-.02 1.76 2.42 1.76 2.43.1-.08h.02zm-.07.05-1.76-2.42.02-.02-.02.01-.02.01-.02.02 1.67 2.5 1.66 2.5c.01-.02.13-.1.23-.17zm-.13.1-1.67-2.5-.04.03h-.01v.01l.04-.03 1.6 2.53L28 26.54l.11-.07.01-.01zm-.07.04-1.61-2.53.02-.01h-.02l-.03.03 1.49 2.6 1.5 2.6.26-.16zm-.15.09-1.5-2.6-.08.05-.02.01h-.01.02l.04-.03.05-.03 1.44 2.63 1.44 2.63.12-.06.05-.03-.06.03zm-.06.03-1.44-2.63.03-.01h-.01l-.02.01-.02.01 1.34 2.69 1.34 2.68h.02l.2-.12zm-.12.07-1.36-2.7-.05.03h-.01l.04-.02 1.25 2.73 1.25 2.73.2-.1zm-.11.05-1.25-2.73-.05.02.91 2.86.92 2.86q.35-.12.72-.28zm-.39.15-.91-2.86-.04.01-.03.01-.02.01h.02l.06-.02.86 2.87.87 2.87.14-.05h.01l-.04.02zm-.06.02-.86-2.87h-.02l.69 2.92.69 2.92.37-.1zm-.2.05-.68-2.92-.06.01-.04.02h-.03.03l.04-.01.06-.02.65 2.93.66 2.93.12-.03.05-.02h-.02l-.08.03zm-.03.01-.65-2.93h.03-.05l.52 2.96.51 2.95.3-.05zm-.15.03-.52-2.96-.04.01h-.03l-.02.01.08-.01.43 2.97.43 2.97.18-.04h.02-.02zm-.1.02-.43-2.97h-.03l.22 3 .22 2.99.45-.05zm-.24.02-.1-3-.26.01.1 3 .1 3h.26zm-.26.01v-3H18.3v6h6.22zm-6.22 0-2.8-1.06h-.01v.03l-.03.06-.36 1.01q-.37 1.05-.91 2.87l2.87.85 2.88.85a66 66 0 0 1 1.16-3.54zm-1.24 3.76-2.87-.85-.45 1.59 2.89.79 2.9.79.41-1.47zm-.43 1.53-2.9-.8c-1.08 3.97-2.32 9.73-2.29 15.32l3-.02 3-.02c-.03-4.79 1.05-9.93 2.08-13.7zm-2.19 14.5-3 .02q0 .72.04 1.44l3-.15 3-.14q-.04-.6-.04-1.19zm.04 1.31-3 .15.04.72 3-.22 2.99-.2-.04-.59zm.04.65-3 .22q.1 1.43.35 2.85l2.95-.53 2.96-.52q-.2-1.06-.27-2.23zm.3 2.54-2.95.53.13.7 2.94-.61 2.94-.6-.1-.54zm.12.62-2.94.6q.3 1.42.77 2.76l2.82-1 2.83-1.01q-.33-.92-.54-1.96zm.65 2.36-2.82 1q.24.68.54 1.34l2.73-1.24 2.73-1.24-.35-.87zm.45 1.1-2.73 1.24q.29.65.65 1.28l2.6-1.48 2.62-1.47a10 10 0 0 1-.4-.8zm.53 1.04-2.61 1.48q.45.8 1 1.53l2.4-1.8 2.4-1.78a9 9 0 0 1-.58-.9zm.79 1.22-2.4 1.79q.32.44.69.86l2.25-1.98 2.26-1.98-.4-.48zm.54.67-2.25 1.98.5.55 2.15-2.1 2.14-2.1-.28-.3zm.4.43-2.14 2.1q.9.9 1.87 1.72l1.92-2.3 1.92-2.3q-.74-.62-1.43-1.32zm1.65 1.52-1.92 2.3q.89.74 1.82 1.4l1.71-2.47 1.72-2.46q-.73-.5-1.4-1.07zm1.61 1.23-1.71 2.46.79.54 1.62-2.52L23.88 57l-.61-.42zm.7.48-1.62 2.52q.98.63 2 1.16l1.4-2.65 1.4-2.65q-.8-.42-1.55-.9zm1.77 1.03-1.4 2.65q.39.21.77.39l1.31-2.7 1.31-2.7-.59-.3zm.68.34-1.31 2.7q1.05.52 2.15.93l1.07-2.8 1.07-2.8q-.84-.33-1.67-.72zm1.91.83-1.07 2.8q.75.3 1.5.53l.91-2.86.9-2.86q-.59-.18-1.16-.4zm1.34.47h3v-9.66h-6v9.66zm0-9.66h3l.01-.61-3-.1-3-.11v.82zm.02-.72 3 .1v-.1l-3-.11-3-.13v.14zm0-.11 3 .12q0-.27.03-.5l-3-.21-2.99-.21-.04.67zm.03-.6 3 .22v-.15l-2.98-.24-3-.24v.2zm.02-.17 2.99.24.05-.58-2.98-.34-2.98-.35-.07.79zm.06-.68 2.98.34.01-.04v-.05l-2.97-.36-2.98-.36v.03l-.02.1zm.02-.1 2.98.35.05-.44-2.96-.44-2.97-.45-.08.6zm.07-.53 2.96.44.03-.14-2.97-.47-2.96-.48q0 .1-.03.2zm.02-.17 2.97.47.07-.45-2.94-.56-2.95-.55q-.06.3-.1.61zm.1-.54 2.94.56.03-.12-2.94-.58-2.95-.58-.03.17zm.03-.14 2.94.58.11-.53-2.92-.69-2.92-.69-.16.75zm.13-.64 2.92.69.01-.04.04-.13-2.92-.72-2.91-.72-.02.07-.04.16zm.05-.2 2.91.72.1-.37-2.9-.8-2.89-.78-.13.51zm.12-.44 2.89.8c0-.05 0-.03.03-.13l-2.88-.82-2.89-.81-.05.17zm.04-.15 2.88.82.13-.42-2.86-.9-2.86-.9-.18.59zm.15-.5 2.86.9.03-.1v-.01l-2.85-.93-2.85-.92-.04.12-.01.03v.01zm.04-.14 2.85.93.37-1.01-2.78-1.12-2.78-1.13q-.29.7-.51 1.4zm.44-1.2 2.78 1.12.05-.13-2.77-1.15-2.77-1.15-.07.18zm.06-.16 2.77 1.15.18-.4-2.74-1.23-2.74-1.23-.24.56zm.21-.48 2.74 1.23.02-.05.02-.04-2.72-1.25-2.73-1.26-.05.12-.01.03zm.06-.12 2.72 1.25q.22-.48.47-.94l-2.63-1.43-2.64-1.44q-.35.64-.65 1.3zm.56-1.12 2.63 1.43.08-.15-2.62-1.46-2.62-1.46-.1.2zm.1-.18 2.61 1.46.2-.34-2.58-1.53-2.58-1.53-.28.48zm.23-.41 2.59 1.53.05-.1.01-.02-2.57-1.54-2.57-1.55-.06.1-.03.05zm.08-.13 2.57 1.54q.27-.45.59-.9l-2.47-1.71-2.46-1.72q-.42.6-.8 1.24zm.7-1.07 2.46 1.71.07-.11-2.44-1.73-2.45-1.74-.1.15zm.09-.13 2.44 1.73.28-.37-2.4-1.8-2.4-1.8-.37.5zm.32-.44 2.4 1.8.07-.1-.02.03-2.4-1.81-2.39-1.81-.06.09zm.06-.08 2.39 1.8q.33-.42.7-.85l-2.28-1.96-2.28-1.95q-.48.55-.93 1.15zm.8-1 2.28 1.95.12-.14-2.26-1.97-2.25-1.98-.16.18zm.14-.16 2.26 1.97.27-.3L33 39.68l-2.21-2.02-.35.39zm.31-.35 2.22 2.03c.09-.1.07-.08.1-.13l-2.19-2.04-2.2-2.04-.09.1-.05.06zm.13-.14 2.2 2.04q.36-.39.78-.79l-2.08-2.16-2.08-2.16q-.51.5-1.02 1.03zm.9-.91 2.08 2.16.14-.14-2.06-2.18-2.05-2.18-.2.18zm.16-.16 2.06 2.18.3-.26-2.03-2.22-2.02-2.22-.36.34zm.33-.3 2.02 2.22.14-.13-2-2.23-2-2.24-.18.16zm.16-.14 2 2.23q.44-.4.91-.77l-1.88-2.34-1.88-2.34q-.6.48-1.15.98zm1.03-.88 1.88 2.34.1-.09-1.86-2.35-1.86-2.35-.14.11zm.12-.1 1.87 2.35.4-.31-1.81-2.39-1.82-2.39-.5.4zm.46-.35 1.81 2.39.05-.04h.01l-1.8-2.4-1.82-2.4-.05.05-.02.01zm.06-.05 1.81 2.4q.51-.39 1.05-.75l-1.7-2.49-1.68-2.48q-.66.45-1.29.93zm1.17-.84 1.69 2.49c.05-.04.01-.02.11-.08l-1.67-2.5-1.68-2.48-.05.03-.09.06zm.13-.08 1.67 2.49.4-.27-1.62-2.52-1.63-2.52-.5.33zm.45-.3 1.63 2.52.12-.08-1.61-2.53-1.62-2.52-.15.1zm.14-.09 1.61 2.53q.54-.35 1.1-.67l-1.5-2.6-1.51-2.6q-.68.4-1.32.82zm1.2-.74 1.51 2.6.16-.1-1.5-2.6-1.48-2.6-.19.1zm.18-.1 1.49 2.6.37-.2-1.46-2.62-1.45-2.63-.44.25zm.4-.22 1.46 2.62.22-.12-1.44-2.64-1.43-2.63-.26.14zm.24-.14 1.44 2.64 1.17-.61-1.33-2.69-1.32-2.69q-.7.34-1.4.72zm1.28-.66 1.33 2.69.13-.06-1.32-2.7-1.32-2.7-.14.08zm.14-.07 1.32 2.7.54-.26-1.28-2.72-1.28-2.7-.63.3zm.58-.27 1.28 2.71.08-.04q.03 0 0 0l-1.26-2.72-1.27-2.72-.09.04q-.03.02 0 0zm.1-.05 1.27 2.72q.97-.46 2.02-.87l-1.1-2.79-1.12-2.79q-1.18.48-2.34 1zm2.18-.94 1.1 2.79.07-.02.02-.01-.04.01-1.1-2.78-1.11-2.8-.06.03h.01zm.04-.02 1.1 2.8.69-.27-1.06-2.8-1.05-2.82-.78.3zm.73-.28 1.06 2.81.11-.04-1.05-2.81-1.05-2.81-.12.04zm.12-.04 1.05 2.81.58-.21-1-2.83-1.01-2.83-.67.25zm.63-.23 1 2.83.13-.05-1-2.83-1-2.83-.05.02-.09.03zm.13-.05 1 2.83.6-.2-.97-2.84-.96-2.85-.67.23zm.63-.21.96 2.84.09-.03q.02 0 0 0l-.95-2.85-.96-2.84-.09.03h-.01zm.1-.04.94 2.85.16-.05-.95-2.85-.95-2.84-.15.05zm.15-.05.94 2.85.6-.2-.9-2.85-.9-2.86-.69.21zm.64-.2.9 2.86.06-.02-.9-2.86-.9-2.87-.04.02h-.03zm.06-.02.9 2.86.67-.2-.86-2.88-.85-2.88-.76.23zm.71-.22.86 2.87h.03l.1-.03-.86-2.88-.85-2.88-.03.01-.1.03zm.13-.04.85 2.88.58-.17-.82-2.89-.81-2.88-.65.18zm.61-.18.82 2.9.18-.06-.8-2.9-.8-2.88-.21.06zm.2-.05.8 2.89.7-.19-.77-2.9-.76-2.9-.77.2zm.73-.2.76 2.9.15-.04-.75-2.9-.76-2.9-.06.01-.1.03zm.16-.04.75 2.9.66-.16-.72-2.92-.71-2.91-.74.19zm.7-.18.71 2.92h-.01l.04-.01.05-.01-.71-2.92-.72-2.91h.01l-.1.02zm.08-.02.7 2.92.6-.14-.68-2.93-.67-2.92-.67.16zm.62-.15.68 2.93.25-.06-.67-2.93-.66-2.92-.27.06zm.26-.06.67 2.93.53-.12-.64-2.93-.63-2.93-.6.13zm.56-.12.64 2.93q.08 0 .14-.03l-.63-2.93-.63-2.94-.15.04zm.15-.03 2.84-.96-.1-.28-2.83.97-2.84.97.09.25zm-.09-.27-.73-2.9-2.87.71.72 2.91.73 2.91 2.88-.72zm-2.88.72h3v-5.6h-6v5.6zm0-5.6v-3h-5.3v6h5.3zm-5.3 0v-3h-.1l-.23 2.99-.24 2.99.56.02zm-.33-.01.23-3-.21-.04-1.24 2.74-1.23 2.73q1.05.48 2.21.56zm-1.22-.3 1.24-2.74.03.02h.01l-.03-.01-.03-.02-1.34 2.69-1.33 2.68c.08.05-.07-.03.05.03l.17.08zm-.12-.06 1.34-2.69h-.02l-.03-.02.04.02-1.44 2.63-1.44 2.63.15.08.05.02.02.01zm-.11-.06 1.44-2.63.04.02h.01-.01l-.04-.02-1.48 2.6-1.48 2.62-.02-.01.1.05zm-.04-.02 1.48-2.61-.03-.02h-.02.02l-1.62 2.53-1.62 2.52.31.19zm-.17-.1 1.62-2.53.09.06-.02-.01-.07-.05-1.7 2.48-1.68 2.48-.03-.03.06.05.1.07zm-.07-.05 1.69-2.48-.02-.02H44v-.01l.02.01-1.8 2.4-1.8 2.4.24.18zm-.13-.1 1.8-2.4.04.03v.01l-.01-.01-.02-.02-.02-.02-1.87 2.36-1.86 2.35.14.1zm-.08-.05 1.87-2.36-.02-.01-.03-.03.03.03-1.96 2.28-1.95 2.27.2.17zm-.1-.1L44 21.45l-.03-.03-2.07 2.18-2.06 2.18.25.22zm-.15-.12 2.07-2.18-.05-.04-.01-.01.05.05-2.1 2.14-2.1 2.15.1.09-.02-.02zm-.04-.04 2.1-2.14.02.01h-.02v-.02l-.02-.02-2.17 2.07-2.17 2.07.17.18zm-.1-.1 2.18-2.07-.04-.03v-.01h-.01l.03.02-2.23 2.01-2.23 2.01.13.14zm-.07-.08 2.23-2 .03.03-.05-.06-2.29 1.94-2.28 1.95.02.02.11.13zm-.08-.09 2.29-1.94-.03-.04-.02-.02.02.03-2.34 1.87-2.35 1.87.1.13.05.05zm-.08-.1 2.34-1.87-.01-.02-2.38 1.83-2.38 1.83.08.1zm-.05-.06 2.38-1.83-.09-.12-2.54 1.6-2.53 1.6.4.58zm-.24-.35 2.53-1.6v-.02l-.02-.01v-.02l-2.58 1.54-2.57 1.54q.01.05.1.17zm-.07-.1 2.58-1.55-.04-.05-2.61 1.47L38.48 24l.12.2zm-.07-.13 2.61-1.47.03.06v-.02l-.04-.06-2.63 1.44-2.63 1.44-.02-.04.06.11zm-.03-.05 2.63-1.44-.1-.2-2.74 1.22-2.74 1.21q.15.35.32.65zm-.2-.42 2.73-1.22-.02-.07-2.77 1.15-2.77 1.16.08.2zm-.06-.14 2.77-1.15-.02-.03v-.02q-.02-.02 0 0l-2.8 1.1-2.79 1.1.04.1.03.06zm-.05-.1 2.8-1.1-.01-.02-.01-.02-.02-.04-2.81 1.04-2.81 1.04.07.2zm-.05-.14 2.81-1.04-.02-.08-2.84.98-2.84.98.08.2zm-.05-.14 2.84-.98v-.01l-.02-.03v-.03l-2.86.92-2.86.92.07.2zm-.04-.13 2.85-.92v-.04l-.02-.02v-.01l-2.87.87-2.87.87.05.17zm-.04-.12 2.87-.87-.03-.1-2.89.81-2.88.82.06.21zm-.05-.16 2.9-.8-.02-.04v-.02q0-.02 0 0l-2.9.77-2.9.77.02.1.02.04zm-.02-.1 2.9-.77-.04-.12-2.91.7-2.92.7.07.27zm-.05-.2 2.91-.7v-.04h-.01v-.02.02l-2.92.66-2.93.67.03.1v.02zm-.02-.08 2.92-.66-.02-.1-2.94.6-2.93.62.04.21zm-.04-.15 2.94-.62-.02-.1-2.95.57-2.94.56.04.2zm-.03-.15 2.95-.56-.01-.06-2.95.53-2.96.53.03.12zm-.01-.09 2.95-.53-.02-.12-2.96.47-2.97.48.04.23zm-.03-.18 2.96-.47-.02-.1-2.97.42-2.97.43.03.2zm-.03-.15 2.97-.42-.01-.12-2.98.38-2.98.37.03.22zm-.02-.16 2.98-.38v-.03l-.01-.04-2.98.35-2.98.34v.04l.01.1zm-.01-.1 2.98-.35q0-.1-.02-.13l-2.98.29-2.99.28.03.25zm-.02-.2 2.98-.28v-.08l-3 .25-2.98.26.01.14zm-.01-.1 2.99-.26-.01-.11-3 .2-2.99.21.02.2zm-.01-.16 2.99-.21v-.13l-3 .15-3 .16.01.23zm-.01-.19 3-.15-.01-.07-3 .13-3 .13v.12q.01 0 0 0zm0-.09 2.99-.13v-.16l-3 .07-3 .06v.3zm-.02-.22 3-.07v-.1l-3 .03-3 .03v.17zm0-.14 3-.03v-.09.06l-3 .02-3 .02v.11-.06zm0-.04h3v-.16h-6v.16zm0-.16 3 .03v-.05l-3-.04-3-.04v.08zm0-.06 3 .04v-.14l-3-.09-3-.09v.24zm0-.19 3 .1v-.1l-2.99-.11-3-.12v.14zm.01-.11 3 .12v-.1l-3-.17-2.99-.16V18zm0-.15 3 .16.01-.18-2.99-.22-2.99-.22-.02.3zm.02-.24 3 .22v-.04l-3-.24-2.98-.24-.01.08zm0-.06 3 .24v-.13l-2.98-.28-2.99-.28-.01.21zm.02-.17 2.99.28.01-.12-2.98-.33-2.98-.32-.03.21zm.02-.17 2.98.33v-.07l.01-.02-2.98-.36-2.98-.36v.1l-.01.06zm.01-.12 2.98.35.02-.14-2.97-.4-2.98-.4-.03.23zm.03-.2 2.97.41v-.06l.01-.02-2.97-.44-2.97-.43v.1l-.02.04zm.01-.1 2.97.43.02-.12-2.96-.48-2.96-.48-.04.2zm.03-.17 2.96.48.02-.1-2.96-.51-2.95-.52-.03.17zm.02-.13 2.96.51.02-.11-2.95-.55-2.95-.56-.04.2zm.03-.15 2.95.55.03-.15-2.94-.6-2.94-.61-.05.25zm.04-.2 2.94.6.01-.06-2.93-.64-2.93-.63-.03.12zm.02-.1 2.93.64.03-.13-2.92-.69-2.92-.68-.05.23zm.04-.18 2.92.69v-.05l.02-.03v-.02l-2.91-.72-2.91-.72-.03.11-.01.06zm.03-.13 2.91.72.04-.13-2.9-.77-2.9-.77-.06.23zm.05-.18 2.9.77.01-.07-2.89-.8-2.89-.8-.03.13zm.02-.1 2.9.8.01-.06v-.02q.01-.03 0 0l-2.87-.85-2.88-.83-.04.11v.05zm.04-.13 2.88.84.04-.12-2.87-.9-2.86-.88-.07.23zm.05-.17 2.87.89.02-.08-2.85-.93-2.85-.92-.05.15zm.04-.12 2.85.93.02-.05V16l.01-.02-2.84-.96-2.84-.97-.04.12-.01.06zm.04-.13 2.84.96.03-.07-2.83-1.01-2.82-1-.06.15zm.04-.12 2.83 1 .04-.1-2.8-1.06-2.81-1.06-.08.22zm.06-.16 2.81 1.05.03-.08-2.79-1.1-2.79-1.1-.06.17zm.05-.13 2.8 1.1.01-.04v-.02l.01-.01q0-.02 0 0l-2.77-1.14-2.78-1.14-.04.1-.02.05zm.05-.11 2.77 1.14.04-.1-2.75-1.2-2.75-1.18-.09.2zm.06-.15 2.75 1.2.04-.09-2.74-1.23-2.73-1.24-.07.17zm.05-.12 2.74 1.23v-.01l.02-.03.02-.05-2.7-1.3-2.71-1.29-.1.2zm.08-.15 2.7 1.3.02-.04v-.02l.01-.01-2.69-1.34-2.68-1.33-.05.1-.02.04zm.04-.1 2.7 1.33.02-.06-2.67-1.37-2.66-1.38-.07.14zm.05-.1 2.67 1.37.02-.04.02-.03v-.02l-2.63-1.43-2.63-1.44-.11.21zm.08-.15 2.64 1.43-.03.05v.01l.05-.1-2.62-1.47-2.61-1.46.02-.04-.08.14zm.04-.08L44 15.12l.05-.08-2.58-1.54-2.57-1.53q-.09.13-.13.22zm.1-.15 2.57 1.54q0 .02 0 0v-.02l.03-.03-2.55-1.58-2.55-1.59-.02.04-.06.1zm.05-.1 2.54 1.6.03-.05.01-.02.01-.01-.01.02-2.51-1.64-2.52-1.64-.1.17zm.08-.11 2.5 1.64v.02q-.01 0 0 0v-.02l.03-.04-2.48-1.68-2.5-1.67h.01-.01l-.07.1zm.05-.08 2.48 1.68.12-.16-2.35-1.86L39.55 11l-.4.54zm.25-.34 2.35 1.86-.02.03.01-.02.03-.03-2.32-1.9-2.32-1.9v-.01l-.01.01-.07.1zm.05-.06 2.32 1.9q.06-.09.1-.1l-2.16-2.1-2.15-2.09-.43.48zm.26-.3 2.15 2.1v-.01l.03-.03-2.08-2.16-2.08-2.16-.17.17zm.1-.1 2.08 2.16.03-.02v-.01l-.01.02-2.03-2.21-2.03-2.21-.09.08-.03.03zm.07-.06 2.03 2.2-.02.02h.01l.02-.02.01-.01-1.95-2.28L40.52 10l-.02.01-.03.03-.12.11zm.1-.09 1.95 2.28.05-.05h.01l-.04.03-1.9-2.33-1.88-2.33-.14.12h-.01V10zm.08-.07 1.89 2.33-.05.04.01-.01h.01l.02-.02.03-.02-1.8-2.4-1.8-2.4-.04.03-.16.12zm.11-.09 1.8 2.4.04-.02.03-.03.02-.01-.02.01-.06.05-1.74-2.45L41 9.61l-.1.07-.05.04-.01.01.04-.03zm.07-.05 1.74 2.45-.06.04h.01v-.01l.03-.02.03-.02-1.64-2.5-1.65-2.51-.03.02-.17.1zm.1-.07 1.65 2.51.04-.02.03-.02.01-.01h-.01l-.06.05-1.57-2.56-1.57-2.56-.18.12.02-.01zm.09-.05 1.57 2.56-.03.01h-.01.03l.01-.02-1.43-2.63-1.43-2.64-.28.16zm.14-.08 1.43 2.63.1-.05.02-.01-.02.01-.1.05-1.38-2.66-1.38-2.66-.17.1v-.01l.07-.04zm.05-.03 1.38 2.66-.06.03h.01l.03-.01.03-.02-1.29-2.7-1.28-2.72-.2.1zm.1-.05 1.29 2.71.03-.01.02-.01.02-.01h-.02l-.06.03-1.17-2.76-1.18-2.76-.22.1zm.1-.05 1.18 2.76-.08.04h-.03l.1-.03-1.08-2.8-1.09-2.8.04-.01h-.01l-.2.08zm.09-.03 1.09 2.8h-.05l-.49-2.95-.49-2.96q-.63.1-1.15.32zm.55-.15.49 2.96h-.04v-3l-.02-3q-.44 0-.92.08zm.44-.04.01 3v-6h-.02zm.01 0v3h.3l.13-2.99.14-3-.57-.01zm-1.35 76.49-2.64 1.44q.6 1.11 1.36 2.18l2.45-1.73 2.45-1.73q-.54-.76-1-1.6zm1.17 1.89-2.45 1.73c5.14 7.28 12.82 10.26 19.76 8.4l-.77-2.9-.77-2.9c-4.12 1.1-9.37-.47-13.32-6.06zm16.54 7.24.77 2.9 1.02-.31-.97-2.84-.96-2.84-.63.19zm.82-.25.97 2.84q.5-.17 1-.38l-1.16-2.77-1.15-2.76-.62.23zm.81-.3 1.16 2.76q.5-.2.97-.44L63.2 96.2l-1.34-2.68-.6.28zm.79-.37 1.34 2.69.48-.25L63.58 96l-1.43-2.64-.3.16zm.39-.2L65 98.64q.46-.25.93-.55l-1.6-2.53-1.61-2.54-.58.34zm.75-.44 1.6 2.53.46-.3-1.69-2.47-1.69-2.49-.28.2zm.37-.24 1.69 2.48q.45-.3.88-.65l-1.85-2.36-1.85-2.36q-.26.2-.56.4zm.72-.53 1.85 2.36q.43-.33.85-.7l-2-2.24-2-2.24-.55.46zm.7-.58 2 2.24.8-.77-2.14-2.1-2.14-2.1-.52.5zm.66-.64 2.14 2.1a19 19 0 0 0 2.78-3.66l-2.6-1.51-2.58-1.5q-.85 1.42-1.88 2.47zm2.33-3.07 2.6 1.5q.42-.72.78-1.43l-2.66-1.39-2.66-1.38-.65 1.2zm.72-1.32 2.66 1.38.32-.6-2.7-1.34-2.68-1.33-.26.5zm.29-.56 2.7 1.3.3-.62-2.7-1.31-2.7-1.3-.3.62zm.3-.63v-3H43.06v6h27.36zM57.2 24.01l-2.85.94q.37 1.13.7 2.22l2.87-.85 2.88-.86-.75-2.39zm.72 2.3-2.87.87.07.23 2.88-.85 2.87-.85-.07-.25zm.08.25-2.88.85.25.87 2.89-.82 2.88-.82-.27-.93zm.26.9-2.9.82.06.17 2.89-.81 2.89-.81-.06-.19zm.05.18-2.9.8.29 1.03 2.9-.77 2.9-.77-.3-1.1zm.29 1.06-2.9.77v-.01.05l2.9-.77 2.9-.77.01.02v-.02l-.01-.04zm0 .04.35 2.98q1.57-.18 3.15-.29l-.2-2.99-.2-3q-1.73.12-3.44.32zm3.3-.3.2 3 .12-.01-.2-3-.19-2.99h-.13zm.12 0 .2 2.99a68 68 0 0 1 5.3-.14l.04-3 .04-3q-2.9-.03-5.77.15zm5.54-.15-.04 3h.06l.04-3 .05-3h-.07zm.06 0-.04 3q2.15.03 4.27.2l.24-3 .23-2.98q-2.32-.18-4.65-.22zm4.47.2-.24 3h.05l.23-2.99.24-2.99h.01-.06zm.04.01-.23 3q2.14.16 4.23.46l.43-2.97.43-2.97q-2.3-.33-4.62-.5zm4.43.5.79-2.9-2.57-.7-.79 2.9-.78 2.89 2.56.7zm-2.57-.7h3v-6.85h-6v6.84zm0-6.85v-3h-16.8v6h16.8zm-16.8 0h-3v2.56h6v-2.56z" mask="url(#crests-forward-deployed-engineer-path-1-outside-1_23_7433)"/><path fill="#80a6e8" stroke="#40396e" stroke-linejoin="round" stroke-width="3" d="M106.33 87.99H27.95V52.53c0-32.94 78.38-31.7 78.38 0z"/><path fill="#ffba36" stroke="#40396e" stroke-linejoin="round" stroke-width="3" d="M49.73 15.23v14.93l7.46-1.87v-6.84h16.8v6.84l6.84 1.87V15.23z"/><path fill="#eafafb" stroke="#5479ba" stroke-linejoin="round" stroke-width="3" d="M24.5 24.56h-6.2s-8.68 22.88 0 31.73c8.84 9.02 24.2 9.66 32.34 0 9.95-11.82 0-31.73 0-31.73h-6.22c-6.22 0-4.97-13.06 0-13.06 4.98 0 9.58 3.9 11.2 8.09 7.9 20.52 5.41 33.59 0 40.43s-15.74 9.33-15.74 9.33-1.4 12.4 4.36 20.53c7.28 10.3 19.46 9.95 24.88.62 5.78-9.95 4.98-21.15 4.98-21.15h6.22s-.63 18.66-8.71 27.37c-11.97 12.9-25.17 4.72-31.1-2.49-8.71-10.57-6.85-24.88-6.85-24.88s-8.74-.9-15.36-4.98c-18.24-11.2-5.17-42.3-3.93-44.78 1.24-2.5 3.3-8.09 10.15-8.09 6.84 0 5.6 13.06 0 13.06Z"/><path stroke="#40396e" stroke-linejoin="round" stroke-width="3" d="M77.32 86.14c-1.28 3.92-3.11 7.77-5.72 10.58-11.98 12.9-25.17 4.71-31.1-2.49a29 29 0 0 1-4.65-8.09M80.3 69.35h-6.22"/><path stroke="#40396e" stroke-linejoin="round" stroke-width="3" d="M71.23 86.15a34 34 0 0 1-2.12 4.35c-5.42 9.33-17.6 9.68-24.88-.62a21 21 0 0 1-2.2-4.03m16.93-55.69q-1.19-4.92-3.35-10.57C54 15.4 49.39 11.5 44.4 11.5s-6.5 13.06 0 13.06h4.7M29.95 68.73c-3.15-.67-7.77-1.97-11.66-4.36-18.24-11.2-5.17-42.3-3.93-44.78 1.24-2.5 3.3-8.09 10.15-8.09 6.84 0 5.6 13.06 0 13.06h-6.22s-8.68 22.88 0 31.73a23.5 23.5 0 0 0 11.66 6.44"/><circle cx="77.09" cy="65" r="10.94" fill="#eafafb" stroke="#5479ba" stroke-width="3"/><circle cx="77.09" cy="64.99" r="3.48" fill="#d9d9d9" stroke="#5479ba" stroke-width="3"/></g><defs><filter id="crests-forward-deployed-engineer-filter0_d_23_7433" width="106.66" height="101" x="5.67" y="8.5" color-interpolation-filters="sRGB" filterUnits="userSpaceOnUse"><feFlood flood-opacity="0" result="BackgroundImageFix"/><feColorMatrix in="SourceAlpha" result="hardAlpha" values="0 0 0 0 0 0 0 0 0 0 0 0 0 0 0 0 0 0 127 0"/><feOffset dx="3" dy="3"/><feComposite in2="hardAlpha" operator="out"/><feColorMatrix values="0 0 0 0 0 0 0 0 0 0 0 0 0 0 0 0 0 0 0.4 0"/><feBlend in2="BackgroundImageFix" result="effect1_dropShadow_23_7433"/><feBlend in="SourceGraphic" in2="effect1_dropShadow_23_7433" result="shape"/></filter></defs></svg>