<svg xmlns="http://www.w3.org/2000/svg" fill="none" viewBox="0 0 115 115"><g filter="url(#crests-graphics-filter0_d_24_2824)"><mask id="crests-graphics-path-1-outside-1_24_2824" width="98" height="104" x="4.66" y="6.55" fill="#000" maskUnits="userSpaceOnUse"><path fill="#fff" d="M4.66 6.55h98v104h-98z"/><path d="M67.86 11.77c2.38-.42 4.4-.25 6.02.6a6.8 6.8 0 0 1 3.24 3.95c.49 1.41.67 3.05.65 4.8a35 35 0 0 1-.9 6.98 77 77 0 0 1-2.58 8.82l21.78 27.21a5.2 5.2 0 0 1 1.06 3.4q-.01 1.16-.32 2.33a23 23 0 0 1-3.3 6.75C90.3 81.44 85.06 87 78.59 92.17s-13.04 9.07-18.46 11.16a23 23 0 0 1-7.3 1.74c-2.08.07-4.08-.4-5.32-1.96l-5.11-6.38a5 5 0 0 1-.51-.54l.04-.04-21.37-26.71a5 5 0 0 0-.16 1.62c.06 1.62.58 3.31 1.05 5.16.22.88.43 1.8.51 2.68q.04.37.04.77a5 5 0 0 1-.35 2.06c-.85 2-2.96 2.75-5.79 2.75-2.1 0-3.76-.9-4.82-2.47a9.6 9.6 0 0 1-1.37-5.49v-.11c.06-3.98 1.7-8.87 4.68-13.16l.3-.4a24 24 0 0 1 4.7-4.85q.6-1.2 1.4-2.45l.54-.84A52 52 0 0 1 25 49.9q.06-.21.2-.4l.06.04-.05-.04q0-.02.02-.03l.05-.08L26.32 48c.54-.7 1.26-1.65 2.14-2.76l.93-1.17a213 213 0 0 1 12.9-14.68 143 143 0 0 1 6.86-6.56 98 98 0 0 1 4.46-3.7c3.71-2.86 7.54-5.24 11.21-6.54a23 23 0 0 1 3.04-.82m4.63 3.37c-.84-.44-2.12-.66-4.1-.3-3.83.69-8.3 3.2-12.95 6.78a117 117 0 0 0-13.37 12.46l-1.97 2.14a69 69 0 0 1 13.76-7.9l.84-.33a24 24 0 0 1 6.9-1.72l.4-.02c2.08-.06 4.08.41 5.32 1.96l4.72 5.9c.71-2.16 1.4-4.48 1.9-6.76.5-2.29.8-4.43.83-6.3q.02-2.12-.49-3.64a3.8 3.8 0 0 0-1.79-2.27"/></mask><path fill="#fff" d="M67.86 11.77c2.38-.42 4.4-.25 6.02.6a6.8 6.8 0 0 1 3.24 3.95c.49 1.41.67 3.05.65 4.8a35 35 0 0 1-.9 6.98 77 77 0 0 1-2.58 8.82l21.78 27.21a5.2 5.2 0 0 1 1.06 3.4q-.01 1.16-.32 2.33a23 23 0 0 1-3.3 6.75C90.3 81.44 85.06 87 78.59 92.17s-13.04 9.07-18.46 11.16a23 23 0 0 1-7.3 1.74c-2.08.07-4.08-.4-5.32-1.96l-5.11-6.38a5 5 0 0 1-.51-.54l.04-.04-21.37-26.71a5 5 0 0 0-.16 1.62c.06 1.62.58 3.31 1.05 5.16.22.88.43 1.8.51 2.68q.04.37.04.77a5 5 0 0 1-.35 2.06c-.85 2-2.96 2.75-5.79 2.75-2.1 0-3.76-.9-4.82-2.47a9.6 9.6 0 0 1-1.37-5.49v-.11c.06-3.98 1.7-8.87 4.68-13.16l.3-.4a24 24 0 0 1 4.7-4.85q.6-1.2 1.4-2.45l.54-.84A52 52 0 0 1 25 49.9q.06-.21.2-.4l.06.04-.05-.04q0-.02.02-.03l.05-.08L26.32 48c.54-.7 1.26-1.65 2.14-2.76l.93-1.17a213 213 0 0 1 12.9-14.68 143 143 0 0 1 6.86-6.56 98 98 0 0 1 4.46-3.7c3.71-2.86 7.54-5.24 11.21-6.54a23 23 0 0 1 3.04-.82m4.63 3.37c-.84-.44-2.12-.66-4.1-.3-3.83.69-8.3 3.2-12.95 6.78a117 117 0 0 0-13.37 12.46l-1.97 2.14a69 69 0 0 1 13.76-7.9l.84-.33a24 24 0 0 1 6.9-1.72l.4-.02c2.08-.06 4.08.41 5.32 1.96l4.72 5.9c.71-2.16 1.4-4.48 1.9-6.76.5-2.29.8-4.43.83-6.3q.02-2.12-.49-3.64a3.8 3.8 0 0 0-1.79-2.27"/><path fill="#fff" d="m67.86 11.77-.88-4.92zm6.02.6 2.3-4.44zm3.24 3.95 4.73-1.63zm.65 4.8-5-.08v.03zm-.9 6.98 4.88 1.08zm-2.58 8.82-4.72-1.67a5 5 0 0 0 .81 4.79zm21.78 27.21 3.9-3.12zm1.06 3.4-5-.06v.07zm-.32 2.33 4.84 1.25zm-3.3 6.75 4.16 2.78zM78.59 92.17l3.12 3.9zm-18.46 11.16 1.8 4.67zm-7.3 1.74.15 5zm-5.32-1.96-3.9 3.13zm-5.11-6.38 3.9-3.13a5 5 0 0 0-.55-.58zm-.51-.54-3.2-3.85a5 5 0 0 0-.7 6.97zm.04-.04 3.2 3.85a5 5 0 0 0 .7-6.97zM20.55 69.44l3.9-3.12a5 5 0 0 0-8.73 1.83zm-.17 1.22-5-.13v.08zm0 .4-4.99.2zm1.06 5.16L26.28 75zm.51 2.68 4.98-.48zm.04.77h-5v.07zm-.35 2.06 4.6 1.93zm-5.79 2.75v5zm-4.82-2.47-4.14 2.8zm-1.37-5.49-5-.07zm0-.03 5 .08v-.03zm0-.08-5-.08zm4.68-13.16-4.08-2.89-.02.04zm.3-.4-4.06-2.94-.02.04zM19.35 58l3.1 3.93a5 5 0 0 0 1.37-1.68zm1.4-2.45-4.2-2.72q0 .03-.03.05zm.54-.84-4.15-2.78-.04.06zM25 49.9l3.8 3.25a5 5 0 0 0 .93-1.64zm.2-.4 2.95-4.05a5 5 0 0 0-6.98 1.1zm.06.04-2.94 4.04a5 5 0 0 0 5.9-8.07zm-.05-.04-4.48-2.24a5 5 0 0 0 1.39 6.17zm0 0-3.97-3.04a5 5 0 0 0-.5.8zm0 0 4 2.98.03-.03zm.02-.03 4.03 2.96zm.05-.08-4.02-2.96zm.22-.29-4.01-2.98zm.83-1.1-3.98-3.02zm2.14-2.76-3.91-3.12-.01.02zm.93-1.17-3.9-3.13v.01zm10.49-12.15-3.66-3.42zm2.41-2.53 3.58 3.5zm3.37-3.34-3.46-3.61zm3.49-3.22 3.3 3.75zm.88-.77-3.26-3.79zm3.58-2.93-3.05-3.96zm11.21-6.54 1.67 4.72zm.44-.15L63.7 7.69zm7.23 2.7 2.31-4.44zm-4.1-.3-.88-4.92zm-12.95 6.78-3.05-3.96zM42.07 34.08l-3.66-3.41zm-1.97 2.14-3.7-3.36a5 5 0 0 0 6.62 7.42zm13.76-7.9L52 23.68l-.05.02zm.84-.33-1.8-4.67-.05.02zm6.9-1.72-.24-5-.07.01zm.4-.02-.15-5h-.09zm5.32 1.96 4.47-2.24a5 5 0 0 0-.56-.88zm0 0-4.47 2.24a5 5 0 0 0 4.47 2.76zm0 0 3.9-3.12a5 5 0 0 0-3.9-1.88zm4.72 5.9-3.9 3.12a5 5 0 0 0 8.65-1.55zm1.9-6.76 4.88 1.07zm.83-6.3 5 .08v-.03zm-.49-3.64 4.73-1.63zm-6.42-5.64.89 4.92c1.7-.3 2.5-.06 2.82.1l2.31-4.43 2.3-4.44c-2.92-1.51-6.16-1.61-9.2-1.07zm6.02.6-2.3 4.43q.23.12.4.34.2.23.41.8l4.73-1.62 4.73-1.63a11.7 11.7 0 0 0-5.66-6.76zm3.24 3.95-4.73 1.62c.24.7.4 1.7.38 3.1l5 .07 5 .07a19 19 0 0 0-.92-6.5zm.65 4.8-5-.05c-.02 1.76-.31 3.8-.79 5.96l4.89 1.07 4.88 1.08c.56-2.53 1-5.32 1.02-8.03zm-.9 6.98-4.89-1.07a72 72 0 0 1-2.4 8.22l4.7 1.67L79 38.58a81 81 0 0 0 2.75-9.4zm-2.58 8.82-3.9 3.12 21.77 27.21 3.9-3.12 3.91-3.12L78.2 33.79zm21.78 27.21-3.9 3.12-.05-.06-.02-.04q.02 0 .03.32l5 .07 5 .06c.03-2.08-.47-4.49-2.16-6.6zm1.06 3.4-5 .01q.01.39-.16 1.07l4.84 1.25 4.84 1.25c.29-1.1.48-2.31.48-3.58zm-.32 2.33-4.84-1.25a19 19 0 0 1-2.61 5.22l4.16 2.78 4.15 2.78a28 28 0 0 0 3.98-8.28zm-3.3 6.75-4.15-2.78c-2.87 4.3-7.72 9.5-13.9 14.44l3.12 3.9 3.12 3.9c6.76-5.4 12.39-11.32 15.97-16.68zM78.59 92.17l-3.13-3.9c-6.18 4.95-12.3 8.54-17.13 10.4l1.8 4.66 1.8 4.67c6.02-2.32 13.03-6.52 19.78-11.92zm-18.46 11.16-1.8-4.66a19 19 0 0 1-5.67 1.4l.16 5 .16 5c2.89-.1 5.98-.92 8.95-2.07zm-7.3 1.74-.17-5a4 4 0 0 1-1.23-.12c-.16-.05-.1-.06-.02.04l-3.9 3.12-3.9 3.13c2.68 3.35 6.64 3.92 9.37 3.83zm-5.32-1.96 3.9-3.12-5.1-6.39-3.91 3.13-3.9 3.12 5.1 6.39zm-5.11-6.38 3.35-3.71.04.04-3.9 3.13-3.9 3.12q.48.62 1.06 1.13zm-.51-.54 3.2 3.84.04-.03-3.2-3.85-3.19-3.85-.04.04zm.04-.04 3.9-3.12-21.37-26.71-3.9 3.12-3.9 3.12 21.37 26.71zM20.55 69.44l-4.83-1.29q-.32 1.24-.33 2.38l5 .13 5 .13q0-.16-.01-.06zm-.17 1.22-5-.05.01.65 5-.2 5-.2v-.15zm0 .4-4.99.2c.1 2.3.83 4.72 1.2 6.19l4.85-1.23L26.28 75c-.56-2.22-.86-3.2-.9-4.13zm1.06 5.16-4.85 1.23c.22.85.34 1.46.39 1.92l4.97-.47 4.98-.48a23 23 0 0 0-.65-3.43zm.51 2.68-4.97.47.01.3h10q0-.61-.06-1.25zm.04.77-5 .07v.18l.03-.12 4.62 1.93 4.6 1.93c.64-1.5.77-2.95.75-4.07zm-.35 2.06-4.62-1.93q.07-.16.26-.37.2-.17.18-.14t-.45.11q-.41.08-1.16.08v10c3.32 0 8.32-.86 10.4-5.82zm-5.79 2.75v-5c-.32 0-.45-.06-.49-.08a1 1 0 0 1-.2-.2L11.04 82 6.9 84.81a10.6 10.6 0 0 0 8.96 4.67zm-4.82-2.47 4.14-2.81c-.23-.33-.53-1.14-.51-2.6l-5-.08-5-.07c-.04 2.62.44 5.72 2.23 8.36zm-1.37-5.49 5 .07v-.12.1l-5-.08-5-.08v.13-.09zm0-.03 5 .05v-.06l-5-.07-5-.08v.12zm0-.08 5 .07c.04-2.8 1.27-6.75 3.79-10.37l-4.1-2.86-4.11-2.85c-3.44 4.95-5.5 10.79-5.58 15.93zm4.68-13.16 4.08 2.9.3-.42-4.09-2.89-4.07-2.9-.3.42zm.3-.4 4.05 2.92a19 19 0 0 1 3.76-3.84L19.36 58l-3.08-3.94a29 29 0 0 0-5.7 5.85zM19.35 58l4.47 2.25q.48-.95 1.16-2.03l-4.23-2.67-4.23-2.67q-.9 1.42-1.63 2.86zm1.4-2.45 4.2 2.72.54-.83-4.2-2.73L17.11 52l-.54.84zm.54-.84 4.16 2.78q1.36-2.04 3.32-4.34l-3.8-3.25-3.8-3.25a56 56 0 0 0-4.03 5.28zM25 49.9l4.73 1.61a4 4 0 0 1-.49.94L25.2 49.5l-4.03-2.95a7 7 0 0 0-.9 1.74zm.2-.4-2.94 4.04.06.04 2.94-4.04 2.94-4.05-.05-.04zm.06.04 2.96-4.03-.02-.01.02.01.03.02.04.03-3.08 3.94-3.09 3.93.18.14zm-.05-.04 4.47 2.23zl-4.48-2.24zm0 0 3.97 3.04-.1.11v.02l.04-.06.04-.05.06-.08zl-4.02-3 .1-.11.04-.06v.02q-.03 0-.04.04l-.06.08zm0 0 4.03 2.95-.02.03-.02.02.06-.07-4.03-2.96-4.04-2.96.03-.03.01-.02v.01l-.02.02-.03.04zm.02-.03 4.03 2.96.02-.04.02-.02.01-.02v.01l-4.03-2.97-4.02-2.96-.08.1v.01h-.01q.02 0 .02-.03zm.05-.08 4.03 2.97.2-.27-4.01-2.99-4.01-2.98-.23.3zm.22-.29 4 2.99.8-1.06L26.33 48l-3.98-3.02-.86 1.14zm.83-1.1 3.98 3.03q.79-1.04 2.09-2.7l-3.93-3.1-3.92-3.1q-1.36 1.73-2.2 2.85zm2.14-2.76 3.91 3.11.94-1.17-3.92-3.11-3.91-3.12-.93 1.17zm.93-1.17 3.9 3.12c2.57-3.2 6.15-7.49 10.24-11.86l-3.65-3.41-3.66-3.42c-4.3 4.61-8.06 9.1-10.73 12.44zm10.49-12.15 3.65 3.41q1.14-1.22 2.34-2.45L42.3 29.4l-3.58-3.5q-1.28 1.32-2.48 2.61zm2.41-2.53 3.58 3.5q1.6-1.65 3.25-3.23l-3.46-3.61-3.46-3.61q-1.8 1.72-3.49 3.46zm3.37-3.34 3.46 3.6q1.66-1.58 3.34-3.07l-3.31-3.75-3.31-3.75a121 121 0 0 0-3.64 3.36zm3.49-3.22 3.3 3.75.85-.74-3.27-3.78-3.26-3.79-.93.81zm.88-.77 3.27 3.78a79 79 0 0 1 3.36-2.75l-3.05-3.96-3.05-3.96a89 89 0 0 0-3.8 3.1zm3.58-2.93 3.05 3.96c3.52-2.71 6.87-4.74 9.83-5.78l-1.67-4.72-1.66-4.71c-4.38 1.54-8.7 4.28-12.6 7.3zm11.21-6.54 1.67 4.72.34-.12-1.57-4.75-1.56-4.75-.54.19zm.44-.15 1.57 4.75q1.02-.34 1.92-.5l-.89-4.92-.88-4.92q-1.67.3-3.28.84zm7.23 2.7 2.31-4.44c-2.14-1.11-4.65-1.26-7.29-.78l.88 4.92.88 4.92c1.3-.23 1.38.05.92-.19zm-4.1-.3-.88-4.92c-5.04.9-10.3 4.02-15.12 7.74l3.05 3.96 3.05 3.96c4.47-3.44 8.16-5.35 10.78-5.82zm-12.95 6.78-3.05-3.96c-4.9 3.78-9.74 8.48-13.98 13l3.66 3.42 3.65 3.42c4.04-4.32 8.46-8.6 12.77-11.92zM42.07 34.08l-3.66-3.41q-1.03 1.1-2.01 2.2l3.7 3.35 3.7 3.36q.95-1.05 1.92-2.08zm-1.97 2.14 2.92 4.06c4.6-3.31 9.02-5.8 12.74-7.33l-1.9-4.63-1.9-4.62a74 74 0 0 0-14.78 8.46zm13.76-7.9 1.85 4.65.84-.34L54.7 28l-1.85-4.65-.84.34zm.84-.33 1.8 4.66c2.26-.87 4.1-1.3 5.42-1.39l-.31-4.99-.32-4.99a29 29 0 0 0-8.4 2.04zm6.9-1.72.25 5 .4-.02-.24-5-.25-5-.4.03zm.4-.02.17 5c.63-.02 1.03.05 1.23.12.16.05.1.07.02-.03l3.9-3.13 3.9-3.12c-2.68-3.35-6.65-3.92-9.37-3.84zm5.32 1.96-4.47 2.24zl4.48-2.23zm0 0v5zv-5zm0 0-3.9 3.13 4.72 5.89 3.9-3.12 3.9-3.13-4.71-5.9zm4.72 5.9 4.75 1.57a74 74 0 0 0 2.03-7.26l-4.88-1.07-4.89-1.08a64 64 0 0 1-1.76 6.26zm1.9-6.76 4.88 1.07c.55-2.48.91-4.99.94-7.3l-5-.06-5-.07c-.01 1.41-.25 3.2-.7 5.28zm.83-6.3 5 .05c0-1.73-.16-3.58-.76-5.32l-4.73 1.63-4.73 1.62c.1.28.22.9.22 1.99zm-.49-3.64 4.73-1.63c-.7-2.03-2-3.94-4.2-5.08l-2.32 4.44-2.3 4.43a2 2 0 0 1-.56-.45c-.12-.15-.12-.22-.07-.09z" mask="url(#crests-graphics-path-1-outside-1_24_2824)"/></g><ellipse cx="43.04" cy="47.66" fill="#a6c4e0" stroke="#3571aa" stroke-width="3" rx="29.6" ry="9.38" transform="rotate(-38.67 43.04 47.66)"/><path fill="#ff5c23" stroke="#a52b00" stroke-width="3" d="M59.88 44.93c1.76 3.12-5.59 10.6-16.41 16.72-5.73 3.23-18.4 4.57-22.65 4.57-6.3 5.48 5.72 16.66-4.97 16.66-6.47 0-6.04-10.8 0-19.15 5.55-7.68 16.04-10.46 21.23-13.38 10.83-6.12 21.04-8.54 22.8-5.42Z"/><path fill="#e6f3ff" d="M94.9 65.08c3.23 4.04-4.5 15.6-17.26 25.82s-25.73 15.22-28.97 11.17l-28.75-35.9c3.24 4.04 16.21-.96 28.98-11.18s20.49-21.77 17.25-25.82z"/><path fill="#3571aa" d="m94.9 65.08 1.17-.94zM77.64 90.9l.94 1.17zm-28.97 11.17-1.17.94zm-28.75-35.9 1.18-.94-2.35 1.88zm46.23-37 1.17-.93-2.34 1.87zM94.9 65.08l-1.18.94c.38.47.6 1.37.19 2.99a20 20 0 0 1-2.89 5.83C88.01 79.36 83 84.7 76.7 89.73l.94 1.17.94 1.17c6.47-5.18 11.7-10.73 14.94-15.56a24 24 0 0 0 3.3-6.75c.51-2 .49-4.07-.75-5.62zM77.64 90.9l-.94-1.17c-6.3 5.04-12.6 8.75-17.66 10.7a20 20 0 0 1-6.32 1.54c-1.67.06-2.5-.36-2.88-.83l-1.17.94-1.17.93c1.24 1.55 3.24 2.03 5.31 1.96 2.1-.07 4.6-.7 7.31-1.73 5.42-2.1 11.99-6 18.46-11.17zm-28.97 11.17 1.17-.93L21.1 65.22l-1.18.94-1.17.94L47.5 103zm-28.75-35.9-1.17.94c1.24 1.55 3.25 2.02 5.32 1.95 2.1-.06 4.6-.7 7.3-1.73 5.43-2.1 12-5.99 18.46-11.17l-.93-1.17-.94-1.17c-6.3 5.04-12.6 8.75-17.66 10.7a20 20 0 0 1-6.33 1.54c-1.67.06-2.5-.36-2.87-.83zM48.9 54.98l.93 1.17c6.47-5.17 11.71-10.73 14.94-15.56 1.61-2.4 2.77-4.7 3.3-6.75.52-2 .5-4.06-.75-5.61l-1.17.93-1.17.94c.38.47.6 1.37.18 3a20 20 0 0 1-2.88 5.83c-3.02 4.5-8.02 9.84-14.32 14.88zm17.25-25.82-1.17.94 28.74 35.92 1.18-.94 1.17-.94-28.75-35.91z"/><path stroke="#a6c1db" stroke-width="3" d="M89.28 58.16c3.23 4.04-4.5 15.6-17.26 25.81C59.26 94.2 46.3 99.2 43.05 95.15"/><circle cx="67.55" cy="48.85" r="3.77" fill="#ffaf36" stroke="#965d08" stroke-width="3" transform="rotate(-38.67 67.55 48.85)"/><path fill="#40396e" d="M25.2 49.51a1.5 1.5 0 1 0 2.42 1.77l-1.21-.88zm42.93-36.25-.27-1.47zM26.4 50.4l1.2.88h.01l.01-.02.05-.07 1.02-1.36a210 210 0 0 1 13.36-15.85 118 118 0 0 1 13.38-12.46c4.65-3.58 9.12-6.1 12.95-6.78l-.26-1.48-.27-1.47c-4.56.81-9.5 3.7-14.25 7.36a119 119 0 0 0-13.73 12.78 213 213 0 0 0-14.61 17.48l-.06.07-.01.02v.01zm41.72-37.14.26 1.48c1.98-.36 3.27-.14 4.1.3q1.22.61 1.8 2.27c.8 2.35.54 5.98-.35 10.05-.88 3.99-2.3 8.1-3.5 11.23a106 106 0 0 1-2.13 5.13l-.03.07-.01.02 1.36.63 1.36.63.05-.1.61-1.4c.41-.95.97-2.3 1.59-3.9A85 85 0 0 0 76.86 28c.9-4.11 1.35-8.47.25-11.67a6.7 6.7 0 0 0-3.24-3.95c-1.62-.85-3.64-1.02-6.02-.6z"/><mask id="crests-graphics-path-10-inside-2_24_2824" fill="#fff"><path d="M67.86 11.67q3.58-.66 6.02.59a6.7 6.7 0 0 1 3.24 3.96c1.1 3.2.65 7.55-.25 11.67a77 77 0 0 1-2.61 8.89l21.8 27.25c1.25 1.55 1.27 3.6.75 5.61a23 23 0 0 1-3.3 6.75c-3.22 4.84-8.46 10.39-14.93 15.57s-13.04 9.07-18.46 11.16a23 23 0 0 1-7.3 1.74c-2.08.06-4.08-.41-5.32-1.96l-5.11-6.39a5 5 0 0 1-.51-.54l.05-.04-21.38-26.7a6 6 0 0 0-.16 1.73c.06 1.61.58 3.31 1.05 5.16.22.88.43 1.8.51 2.68.09.86.06 1.82-.31 2.71-.85 2.01-2.96 2.76-5.79 2.76-2.1 0-3.76-.91-4.82-2.48-1.01-1.49-1.4-3.44-1.37-5.49.06-4.1 1.8-9.18 4.97-13.56a24 24 0 0 1 4.73-4.85 32 32 0 0 1 1.94-3.28 51 51 0 0 1 3.68-4.81q.08-.22.21-.4l.09.06-.09-.06.01-.01.01-.02.06-.08 1.05-1.39a213 213 0 0 1 13.56-16.08c4.19-4.49 8.94-9.1 13.73-12.79 4.75-3.66 9.7-6.54 14.25-7.36m4.63 3.25c-.84-.44-2.12-.65-4.1-.3-3.83.69-8.3 3.2-12.95 6.79a117 117 0 0 0-13.37 12.46q-1.16 1.23-2.26 2.46c5.28-3.83 10.46-6.74 14.89-8.44 2.7-1.05 5.2-1.67 7.3-1.74 2.08-.07 4.08.41 5.32 1.96l4.72 5.9c.71-2.16 1.4-4.48 1.9-6.76.89-4.07 1.15-7.7.34-10.06a3.8 3.8 0 0 0-1.79-2.27"/></mask><path fill="#40396e" d="m67.86 11.67-.53-2.95zm6.02.59 1.38-2.66zm3.24 3.96 2.84-.98zm-.25 11.67 2.93.64zm-2.61 8.89-2.83-1a3 3 0 0 0 .49 2.87zm21.8 27.25-2.34 1.87zm.75 5.61 2.9.76zm-3.3 6.75 2.5 1.67zM78.59 91.96l1.87 2.34zm-18.46 11.16 1.08 2.8zm-7.3 1.74.09 3zm-5.32-1.96 2.34-1.88zm-5.11-6.39 2.34-1.87-.33-.36zm-.51-.54-1.9-2.33a3 3 0 0 0-.44 4.2zm.05-.04 1.89 2.33a3 3 0 0 0 .45-4.2zm-21.38-26.7 2.34-1.88a3 3 0 0 0-5.24 1.1zm-.16 1.73-3 .12zm1.05 5.16 2.9-.74zm.51 2.68 2.99-.29zm-.31 2.71 2.76 1.16zm-5.79 2.76v3zm-4.82-2.48-2.48 1.69zM9.66 76.3l-3-.04zm4.97-13.56-2.43-1.76zm4.73-4.85 1.86 2.36a3 3 0 0 0 .82-1zm1.94-3.28-2.5-1.67zm3.68-4.81 2.28 1.95a3 3 0 0 0 .57-.99zm.21-.4 1.77-2.43a3 3 0 0 0-4.19.66zm.09.06-1.76 2.43a3 3 0 0 0 3.53-4.85zm-.09-.06-2.68-1.34a3 3 0 0 0 .67 3.56zm0 0-2.42-1.78a3 3 0 0 0-.26.43zm.01-.01 2.4 1.79.02-.02zm.01-.02L22.8 47.6zm.06-.08-2.41-1.78zm.22-.29-2.41-1.79zm.83-1.1-2.4-1.82zm3.07-3.93-2.34-1.88zm10.49-12.15-2.2-2.05zM53.6 19.03l-1.83-2.38zm18.88-4.1 1.39-2.67zm-4.1-.3-.53-2.96zM55.44 21.4l-1.83-2.38zM42.07 33.87l-2.2-2.05zm-2.26 2.46-2.23-2.01a3 3 0 0 0 4 4.43zm14.89-8.44-1.08-2.8zm7.3-1.74-.1-3zm5.32 1.96L70 26.77a3 3 0 0 0-.34-.54zm0 0-2.68 1.34a3 3 0 0 0 2.68 1.66zm0 0 2.35-1.87a3 3 0 0 0-2.35-1.13zm4.72 5.9-2.34 1.87a3 3 0 0 0 5.19-.93zm1.9-6.76 2.93.64zm.34-10.06 2.84-.97zm-6.42-5.52.53 2.95c1.98-.35 3.27-.13 4.1.3l1.39-2.66 1.38-2.66c-2.4-1.25-5.15-1.38-7.93-.88zm6.02.59-1.39 2.66q1.22.61 1.8 2.27l2.83-.98 2.84-.97a9.7 9.7 0 0 0-4.7-5.64zm3.24 3.96-2.84.97c.81 2.36.55 6-.34 10.05l2.93.65 2.93.64c.91-4.17 1.55-9.24.16-13.3zm-.25 11.67-2.93-.65a74 74 0 0 1-2.5 8.54l2.82 1 2.83 1c.98-2.77 2-6.01 2.7-9.25zm-2.61 8.89-2.34 1.87 21.8 27.25 2.35-1.87 2.34-1.88-21.8-27.24zm21.8 27.25-2.34 1.87c.38.47.6 1.37.19 3l2.9.74 2.9.76c.62-2.4.8-5.62-1.3-8.25zm.75 5.61-2.9-.75a20 20 0 0 1-2.89 5.84l2.5 1.66L96 78.06a26 26 0 0 0 3.7-7.66zm-3.3 6.75-2.49-1.66C88.01 79.24 83 84.57 76.7 89.6l1.88 2.35 1.87 2.34c6.64-5.32 12.12-11.09 15.56-16.24zM78.59 91.96 76.7 89.6c-6.3 5.04-12.6 8.76-17.66 10.71l1.08 2.8 1.08 2.8c5.78-2.23 12.61-6.3 19.25-11.62zm-18.46 11.16-1.08-2.8a20 20 0 0 1-6.32 1.54l.1 3 .09 3c2.57-.09 5.43-.84 8.3-1.94zm-7.3 1.74-.1-3c-1.68.05-2.5-.37-2.88-.84l-2.34 1.88-2.34 1.87c2.1 2.63 5.28 3.16 7.75 3.08zm-5.32-1.96 2.34-1.88-5.11-6.38-2.34 1.87-2.35 1.87 5.12 6.4zm-5.11-6.39 2-2.23-.17-.18-2.34 1.87-2.34 1.88q.4.49.83.89zm-.51-.54 1.89 2.33.05-.04-1.9-2.33-1.89-2.32-.04.03zm.05-.04 2.34-1.87L22.9 67.35l-2.34 1.87-2.34 1.88 21.37 26.7zm-21.38-26.7-2.9-.78q-.34 1.37-.26 2.63l3-.12 3-.12q-.02-.62.06-.84zm-.16 1.73-3 .12c.08 2.02.73 4.15 1.14 5.78l2.9-.74 2.91-.74c-.52-2.07-.9-3.33-.95-4.54zm1.05 5.16-2.91.74q.34 1.29.44 2.22l2.98-.28 2.99-.29c-.1-1.12-.37-2.23-.6-3.13zm.51 2.68-2.98.28q.07.93-.1 1.27l2.77 1.16 2.76 1.16a8.6 8.6 0 0 0 .54-4.16zm-.31 2.71-2.77-1.16c-.1.22-.22.38-.6.55-.45.2-1.22.37-2.42.37v6c3.12 0 6.97-.82 8.55-4.6zm-5.79 2.76v-3c-1.13 0-1.85-.44-2.34-1.16l-2.48 1.68-2.48 1.69a8.6 8.6 0 0 0 7.3 3.79zm-4.82-2.48 2.48-1.68c-.54-.8-.88-2.07-.85-3.76l-3-.05-3-.04c-.04 2.4.4 5.03 1.89 7.22zM9.66 76.3l3 .05c.05-3.38 1.53-7.88 4.4-11.85l-2.43-1.76-2.43-1.76c-3.46 4.79-5.47 10.46-5.54 15.28zm4.97-13.56 2.44 1.76q1.76-2.4 4.15-4.25l-1.86-2.36-1.85-2.35a27 27 0 0 0-5.3 5.44zm4.73-4.85 2.68 1.36q.7-1.41 1.76-2.97l-2.5-1.67-2.5-1.67q-1.2 1.8-2.11 3.6zm1.94-3.28 2.5 1.67a49 49 0 0 1 3.46-4.53l-2.28-1.95-2.27-1.95a55 55 0 0 0-3.9 5.1zm3.68-4.81 2.85.96a2 2 0 0 1-.21.4l-2.43-1.76-2.42-1.77a5 5 0 0 0-.63 1.2zm.21-.4-1.76 2.42.09.07 1.76-2.43 1.76-2.43-.08-.06zm.09.06 1.77-2.42-.06-.05.04.03.05.04.13.11-2.02 2.23-2.01 2.22.33.26zm-.09-.06 2.69 1.34zl-2.69-1.34zm0 0 2.43 1.77-.1.12-.01.02v-.02l.03-.02.03-.04.04-.05-2.41-1.79-2.4-1.79.08-.11v-.01l-.1.14zm.01-.01 2.42 1.77-.02.03.03-.05-2.42-1.77-2.41-1.77.02-.03h-.01l-.01.02-.02.03zm.01-.02 2.42 1.78.03-.05.01-.01.01-.02-2.41-1.78-2.41-1.78-.06.08-.01.01zm.06-.08 2.41 1.78.21-.28L25.5 49l-2.41-1.79-.22.3zm.22-.29 2.4 1.8.81-1.08-2.38-1.82-2.4-1.82-.84 1.13zm.83-1.1 2.38 1.82c.71-.93 1.74-2.27 3.03-3.88l-2.34-1.87-2.34-1.88a206 206 0 0 0-3.12 4zm3.07-3.93 2.34 1.87c2.59-3.23 6.2-7.56 10.34-11.97l-2.2-2.05-2.19-2.05a216 216 0 0 0-10.63 12.32zm10.49-12.15 2.19 2.05c4.13-4.43 8.76-8.91 13.37-12.46l-1.83-2.38-1.83-2.38a122 122 0 0 0-14.1 13.12zM53.6 19.03l1.83 2.38c4.65-3.58 9.12-6.1 12.95-6.79l-.53-2.95-.53-2.95c-5.28.94-10.7 4.19-15.55 7.93zm18.88-4.1 1.39-2.67q-2.44-1.25-6.02-.6l.53 2.96.53 2.96c1.57-.29 2.13-.03 2.2 0zm-4.1-.3-.53-2.96c-4.56.82-9.5 3.7-14.25 7.36l1.83 2.38 1.83 2.37c4.54-3.5 8.54-5.65 11.65-6.2zM55.44 21.4l-1.83-2.38a119 119 0 0 0-13.73 12.79l2.19 2.05 2.19 2.05c4.08-4.36 8.58-8.72 13.01-12.14zM42.07 33.87l-2.2-2.05-2.29 2.5 2.23 2 2.23 2.01q1.08-1.2 2.22-2.41zm-2.26 2.46 1.76 2.42c5.12-3.71 10.08-6.47 14.2-8.06l-1.07-2.8-1.08-2.8c-4.73 1.82-10.14 4.87-15.57 8.8zm14.89-8.44 1.08 2.8a20 20 0 0 1 6.32-1.54l-.1-3-.1-3c-2.56.08-5.42.83-8.28 1.94zm7.3-1.74.1 3c1.68-.05 2.5.37 2.88.83l2.34-1.87 2.34-1.87c-2.1-2.64-5.29-3.17-7.75-3.09zm5.32 1.96-2.68 1.34zl2.69-1.34zm0 0v3zv-3zm0 0L64.98 30l4.72 5.89L72.04 34l2.34-1.88-4.71-5.9zm4.72 5.9 2.85.94a72 72 0 0 0 1.98-7.06l-2.93-.64L71 26.6a66 66 0 0 1-1.82 6.46zm1.9-6.76 2.93.64c.9-4.12 1.35-8.47.25-11.67l-2.84.97-2.83.98c.51 1.5.44 4.42-.44 8.43zm.34-10.06 2.84-.98a6.7 6.7 0 0 0-3.24-3.95l-1.39 2.66-1.38 2.66q.04.02.09.08.08.07.25.5z" mask="url(#crests-graphics-path-10-inside-2_24_2824)"/><defs><filter id="crests-graphics-filter0_d_24_2824" width="100.47" height="106.53" x="4.66" y="6.55" color-interpolation-filters="sRGB" filterUnits="userSpaceOnUse"><feFlood flood-opacity="0" result="BackgroundImageFix"/><feColorMatrix in="SourceAlpha" result="hardAlpha" values="0 0 0 0 0 0 0 0 0 0 0 0 0 0 0 0 0 0 127 0"/><feOffset dx="3" dy="3"/><feComposite in2="hardAlpha" operator="out"/><feColorMatrix values="0 0 0 0 0 0 0 0 0 0 0 0 0 0 0 0 0 0 0.4 0"/><feBlend in2="BackgroundImageFix" result="effect1_dropShadow_24_2824"/><feBlend in="SourceGraphic" in2="effect1_dropShadow_24_2824" result="shape"/></filter></defs></svg>