<svg xmlns="http://www.w3.org/2000/svg" fill="none" viewBox="0 0 115 115"><g filter="url(#crests-growth-filter0_d_23_3239)"><path fill="url(#crests-growth-paint0_linear_23_3239)" d="m29.38 36.76 2.29-21.56a7 7 0 0 1 10.18-5.46l14.72 7.66a16.2 16.2 0 0 1 7.7 20l-1.04 2.79c-.41 1.1 1 1.95 1.79 1.07q.23-.26.58-.33l2.72-.56a18.84 18.84 0 0 1 21.67 12.56l5.82 17.68a4 4 0 0 1-4.23 5.22l-7.9-.85c-2.37-.26-3.3 1.43-3.36 3.81q0 .7-.24 1.46c-.98 3.06-3.48 5.65-3.72 8.86l-.9 11.66a10 10 0 0 1-9.97 9.23H36.94a10 10 0 0 1-9.97-9.15l-1.05-12.36a4.8 4.8 0 0 0-1.7-3.27 4.8 4.8 0 0 1-1.7-3.11L22 77.63a4.2 4.2 0 0 0-2.12-3.17 4.2 4.2 0 0 1-2.08-4.42l3.39-18.17a13.7 13.7 0 0 1 9.76-10.67 1.37 1.37 0 0 0 .06-2.61l-.57-.2a1.55 1.55 0 0 1-1.06-1.63"/></g><mask id="crests-growth-path-2-inside-1_23_3239" fill="#fff"><path d="M66.88 68.55a8 8 0 0 1 4.45 14.65l-.87 12.08a10 10 0 0 1-9.98 9.27H41.76a10 10 0 0 1-9.95-9.04l-1.18-12.18a8 8 0 0 1 4.25-14.78z"/></mask><path fill="#f4a22d" d="M66.88 68.55a8 8 0 0 1 4.45 14.65l-.87 12.08a10 10 0 0 1-9.98 9.27H41.76a10 10 0 0 1-9.95-9.04l-1.18-12.18a8 8 0 0 1 4.25-14.78z"/><path fill="#40396e" d="M66.88 68.55V65.1zm4.45 14.65-1.92-2.86-1.4.93-.12 1.68zm-.87 12.08 3.44.24zm-28.7 9.27V108zm-9.95-9.04 3.44-.33zm-1.18-12.18 3.44-.33-.16-1.7-1.44-.9zm4.25-14.78V65.1zm32 0V72a4.55 4.55 0 0 1 4.55 4.55h6.9c0-6.32-5.12-11.45-11.45-11.45zm8 8h-3.45c0 1.57-.8 2.96-2.02 3.79l1.92 2.86 1.92 2.87a11.4 11.4 0 0 0 5.08-9.52zm-3.55 6.65-3.44-.25L67 95.03l3.45.25 3.44.24.87-12.07zm-.87 12.08L67 95.03a6.55 6.55 0 0 1-6.53 6.07v6.9c7.05 0 12.9-5.44 13.42-12.48zm-9.98 9.27v-3.45H41.76v6.9h18.72zm-18.72 0v-3.45a6.55 6.55 0 0 1-6.51-5.92l-3.44.33-3.43.34A13.45 13.45 0 0 0 41.76 108zm-9.95-9.04 3.44-.33L34.07 83l-3.44.33-3.43.33 1.18 12.19zm-1.18-12.18 1.84-2.92a4.5 4.5 0 0 1-2.14-3.86h-6.9c0 4.1 2.15 7.68 5.37 9.7zm-3.75-6.78h3.45A4.55 4.55 0 0 1 34.88 72v-6.9a11.45 11.45 0 0 0-11.45 11.45zm8-8V72h32v-6.9h-32z" mask="url(#crests-growth-path-2-inside-1_23_3239)"/><mask id="crests-growth-path-4-inside-2_23_3239" fill="#fff"><path d="M37 16.89a2.8 2.8 0 0 1 3.9-2.16c5.2 2.23 15.02 6.87 17.36 11.08a12 12 0 0 1-1.38 13.67v14.04q1.01.82 1.82 1.84l2.74-2.2a12.03 12.03 0 0 1 18.41-5.46c5.33 3.94 9.63 22 9.65 22.09-.1 0-18.62 1.19-23.95-2.75q-1-.75-1.8-1.64l-4.22 3.38c-4.22 6.27-15.76 14.19-15.78 14.2-.01-.02-3.4-7.37-5.2-14.2a91 91 0 0 1-11.64 2.16 2.8 2.8 0 0 1-3.14-3.14c.71-5.62 2.48-16.34 5.88-19.74a12.03 12.03 0 0 1 16.23-.72v-3.81a12 12 0 0 1-8.64-6.04c-2.34-4.21-1.1-15-.23-20.6"/></mask><path fill="#96c362" d="M37 16.89a2.8 2.8 0 0 1 3.9-2.16c5.2 2.23 15.02 6.87 17.36 11.08a12 12 0 0 1-1.38 13.67v14.04q1.01.82 1.82 1.84l2.74-2.2a12.03 12.03 0 0 1 18.41-5.46c5.33 3.94 9.63 22 9.65 22.09-.1 0-18.62 1.19-23.95-2.75q-1-.75-1.8-1.64l-4.22 3.38c-4.22 6.27-15.76 14.19-15.78 14.2-.01-.02-3.4-7.37-5.2-14.2a91 91 0 0 1-11.64 2.16 2.8 2.8 0 0 1-3.14-3.14c.71-5.62 2.48-16.34 5.88-19.74a12.03 12.03 0 0 1 16.23-.72v-3.81a12 12 0 0 1-8.64-6.04c-2.34-4.21-1.1-15-.23-20.6"/><path fill="#40396e" d="m37 16.89-3.4-.53zm3.9-2.16 1.35-3.17zm17.36 11.08 3.02-1.68zm-1.38 13.67-2.62-2.25-.83.97v1.28zm0 14.04h-3.45v1.64l1.27 1.03zm1.82 1.84L56 57.5l2.15 2.71 2.7-2.16zm2.74-2.2 2.15 2.7.74-.6.34-.89zm1.6-2.94-2.78-2.05zm16.81-2.52 2.05-2.77zm9.65 22.1.22 3.44 4.08-.26-.94-3.98zm-23.95-2.75-2.05 2.78zm-1.8-1.64 2.56-2.3-2.17-2.43-2.55 2.04zm-4.22 3.38-2.16-2.7-.41.33-.3.44zm-15.78 14.2-3.13 1.45 1.7 3.71 3.38-2.31zm-5.2-14.2 3.33-.89-.89-3.35-3.34.9zM26.9 70.93l.44 3.43zm-3.14-3.14-3.42-.43zm5.88-19.74-2.44-2.44zm16.23-.72L43.66 50l5.67 4.76v-7.4zm0-3.81h3.45v-2.95l-2.9-.46zm-8.64-6.04-3.02 1.68zM37 16.9l3.41.53a.7.7 0 0 1-.33.45.7.7 0 0 1-.56.04l1.36-3.18 1.36-3.17a6.24 6.24 0 0 0-8.65 4.8zm3.88-2.16-1.36 3.18a91 91 0 0 1 9.4 4.6 37 37 0 0 1 4.21 2.8 9 9 0 0 1 2.1 2.18l3.02-1.68 3.02-1.68a15 15 0 0 0-3.83-4.21 42 42 0 0 0-5.07-3.38 98 98 0 0 0-10.13-4.98zm17.37 11.08-3.02 1.68a8.6 8.6 0 0 1-.98 9.74l2.62 2.25 2.62 2.24a15.5 15.5 0 0 0 1.78-17.59zm-1.38 13.67h-3.45v14.04h6.9V39.48zm0 14.04-2.18 2.67q.72.6 1.3 1.31l2.7-2.14 2.7-2.15a16 16 0 0 0-2.34-2.37zm1.82 1.84 2.15 2.7 2.74-2.2-2.15-2.7-2.16-2.69-2.74 2.2zm2.74-2.2 3.23 1.21q.4-1.1 1.14-2.1l-2.78-2.05-2.77-2.05a16 16 0 0 0-2.06 3.79zm1.6-2.94 2.77 2.05a8.57 8.57 0 0 1 11.99-1.8l2.05-2.77 2.05-2.77a15.5 15.5 0 0 0-21.64 3.24zm16.81-2.52-2.05 2.78c.65.48 1.62 1.73 2.73 3.9a56 56 0 0 1 2.88 6.94c1.68 4.86 2.73 9.27 2.73 9.26l3.36-.8 3.36-.8c-.02-.08-1.14-4.74-2.93-9.92-.9-2.59-2-5.38-3.26-7.83-1.19-2.33-2.76-4.82-4.77-6.3zM89.5 69.8l-.22-3.45s-1.13.08-2.91.12c-1.79.05-4.2.08-6.76-.02-2.57-.09-5.21-.3-7.48-.7-2.4-.43-3.87-1-4.52-1.47l-2.06 2.77-2.05 2.78c2.01 1.48 4.85 2.25 7.42 2.71 2.71.48 5.7.71 8.44.81 5.48.2 10.26-.1 10.36-.1zm-23.95-2.75 2.06-2.77a9 9 0 0 1-1.3-1.17l-2.56 2.3-2.57 2.31q1.05 1.15 2.32 2.1zm-1.8-1.64-2.16-2.7-4.22 3.38 2.16 2.7 2.15 2.7 4.22-3.38zm-4.22 3.38-2.87-1.93c-1.8 2.67-5.36 5.94-8.77 8.7-3.31 2.68-6.12 4.6-6.1 4.59l1.96 2.84 1.95 2.85c.05-.03 3.02-2.07 6.54-4.92 3.42-2.77 7.73-6.6 10.15-10.2zm-15.78 14.2 3.13-1.44c.01.02-.81-1.76-1.85-4.38a84 84 0 0 1-3.15-9.27l-3.34.88-3.33.88c1.89 7.16 5.39 14.75 5.4 14.78zm-5.2-14.2-.9-3.34a88 88 0 0 1-11.17 2.08l.43 3.42.44 3.43c3.1-.4 7.8-1.11 12.1-2.27zM26.9 70.93l-.43-3.42c.17-.02.38.04.53.19q.2.25.19.52l-3.43-.43-3.42-.43a6.24 6.24 0 0 0 7 7zm-3.14-3.14 3.43.43a92 92 0 0 1 1.85-10.3c.45-1.8.97-3.46 1.53-4.81a9 9 0 0 1 1.51-2.62l-2.44-2.44-2.44-2.44a15 15 0 0 0-3 4.84 42 42 0 0 0-1.86 5.8c-1 4-1.64 8.24-2 11.1zm5.88-19.74 2.44 2.44a8.6 8.6 0 0 1 11.57-.51l2.22-2.65 2.22-2.64a15.5 15.5 0 0 0-20.89.92zm16.23-.72h3.45v-3.81h-6.9v3.81zm0-3.81.54-3.41a8.6 8.6 0 0 1-6.17-4.3l-3.01 1.67-3.02 1.68c2.4 4.33 6.6 7.05 11.12 7.77zm-8.64-6.04 3.01-1.68a9 9 0 0 1-.73-2.93c-.17-1.46-.2-3.2-.15-5.06a91 91 0 0 1 1.05-10.4L37 16.88l-3.41-.52c-.44 2.86-1 7.1-1.13 11.23-.06 2.06-.03 4.16.2 6.09.21 1.86.64 3.84 1.55 5.48z" mask="url(#crests-growth-path-4-inside-2_23_3239)"/><path stroke="#b57d43" stroke-width="6" d="M33.88 84.55h34"/><mask id="crests-growth-path-7-inside-3_23_3239" fill="#fff"><path d="M66.88 68.55a8 8 0 0 1 4.45 14.65l-.87 12.08a10 10 0 0 1-9.98 9.27H41.76a10 10 0 0 1-9.95-9.04l-1.18-12.18a8 8 0 0 1 4.25-14.78z"/></mask><path fill="#40396e" d="M66.88 68.55V65.1zm4.45 14.65-1.92-2.86-1.4.93-.12 1.68zm-.87 12.08 3.44.24zm-28.7 9.27V108zm-9.95-9.04 3.44-.33zm-1.18-12.18 3.44-.33-.16-1.7-1.44-.9zm4.25-14.78V65.1zm32 0V72a4.55 4.55 0 0 1 4.55 4.55h6.9c0-6.32-5.12-11.45-11.45-11.45zm8 8h-3.45c0 1.57-.8 2.96-2.02 3.79l1.92 2.86 1.92 2.87a11.4 11.4 0 0 0 5.08-9.52zm-3.55 6.65-3.44-.25L67 95.03l3.45.25 3.44.24.87-12.07zm-.87 12.08L67 95.03a6.55 6.55 0 0 1-6.53 6.07v6.9c7.05 0 12.9-5.44 13.42-12.48zm-9.98 9.27v-3.45H41.76v6.9h18.72zm-18.72 0v-3.45a6.55 6.55 0 0 1-6.51-5.92l-3.44.33-3.43.34A13.45 13.45 0 0 0 41.76 108zm-9.95-9.04 3.44-.33L34.07 83l-3.44.33-3.43.33 1.18 12.19zm-1.18-12.18 1.84-2.92a4.5 4.5 0 0 1-2.14-3.86h-6.9c0 4.1 2.15 7.68 5.37 9.7zm-3.75-6.78h3.45A4.55 4.55 0 0 1 34.88 72v-6.9a11.45 11.45 0 0 0-11.45 11.45zm8-8V72h32v-6.9h-32z" mask="url(#crests-growth-path-7-inside-3_23_3239)"/><path fill="#739f4d" stroke="#40396e" stroke-width="3.45" d="M44.88 80.34c1.45-1.07 3.4-2.57 5.4-4.25a59 59 0 0 0 5.63-5.36c1.66-1.85 2.71-3.46 3.04-4.66a10.3 10.3 0 0 0-19.86-5.46c-.33 1.19-.24 3.11.23 5.55a60 60 0 0 0 2.1 7.5 106 106 0 0 0 2.46 6.4l.32.78z"/><path stroke="#40396e" stroke-width="3.45" d="M44.88 80.34c1.45-1.07 3.4-2.57 5.4-4.25a59 59 0 0 0 5.63-5.36c1.66-1.85 2.71-3.46 3.04-4.66a10.3 10.3 0 0 0-19.86-5.46c-.33 1.19-.24 3.11.23 5.55a60 60 0 0 0 2.1 7.5 106 106 0 0 0 2.46 6.4l.32.78z"/><defs><linearGradient id="crests-growth-paint0_linear_23_3239" x1="86.75" x2="20.75" y1="77.5" y2="57.5" gradientUnits="userSpaceOnUse"><stop stop-color="#fff"/><stop offset="1" stop-color="#f2f2f2"/></linearGradient><filter id="crests-growth-filter0_d_23_3239" width="81.28" height="104.06" x="17.73" y="8.94" color-interpolation-filters="sRGB" filterUnits="userSpaceOnUse"><feFlood flood-opacity="0" result="BackgroundImageFix"/><feColorMatrix in="SourceAlpha" result="hardAlpha" values="0 0 0 0 0 0 0 0 0 0 0 0 0 0 0 0 0 0 127 0"/><feOffset dx="3" dy="3"/><feComposite in2="hardAlpha" operator="out"/><feColorMatrix values="0 0 0 0 0 0 0 0 0 0 0 0 0 0 0 0 0 0 0.4 0"/><feBlend in2="BackgroundImageFix" result="effect1_dropShadow_23_3239"/><feBlend in="SourceGraphic" in2="effect1_dropShadow_23_3239" result="shape"/></filter></defs></svg>