<svg xmlns="http://www.w3.org/2000/svg" fill="none" viewBox="0 0 115 115"><g filter="url(#crests-infrastructure-filter0_d_23_2269)"><path fill="#fff" d="m20.16 95.9 12.38 6.31a6 6 0 0 0 8.13-2.73l26.18-54.1a2 2 0 0 1 3.13-.64l6.32 5.59q.2.17.45.26c6.06 2.31 12.92.3 16.78-4.9l1.11-1.5a16 16 0 0 0 3-7.1l.73-4.48a12.2 12.2 0 0 0-11.12-14.1 1 1 0 0 1-.48-.13l-6.07-3.22A10 10 0 0 0 76.02 14h-.78q-1.24 0-2.42-.36l-7.06-2.18a33 33 0 0 0-24.9 2.21l-6.05 3.13a16 16 0 0 0-5.53 4.69 9.6 9.6 0 0 0 4.58 14.77l1.7.6q.45.14.89.07l7.87-1.26a2 2 0 0 1 2.04 2.99L17.72 87.5a6 6 0 0 0 2.44 8.38"/></g><path fill="#c8c8c8" fill-rule="evenodd" d="M31.5 28.05c.64 3.35 4.3 5.1 7.56 4.07 5-1.6 9.64-1.82 14.71-.73.66.14.97.88.63 1.45L22.06 87.65a4 4 0 0 0 1.61 5.6l8.92 4.58A4 4 0 0 0 38.02 96l27.54-57.34c.31-.66 1.24-.77 1.83-.33q.25.19.54.34l7.4 4.31q.3.17.43.48a7 7 0 0 0 3.36 3.5c4.46 2.04 10.48-1.6 13.45-8.1 2.97-6.52 1.77-13.45-2.7-15.49a6.6 6.6 0 0 0-3.74-.48q-.37.06-.68-.11l-6.56-3.66a6 6 0 0 0-4.65-.5q-.39.1-.75-.04c-17.86-7.46-27.7-5.74-40.3 4.68a5 5 0 0 0-1.7 4.8" clip-rule="evenodd"/><path fill="#40396e" d="m39.06 32.12.45 1.42zm-7.56-4.07-1.47.29zm-9.44 59.6-1.3-.76zm1.61 5.6L23 94.57zm8.92 4.58-.69 1.33zM38.02 96l-1.35-.65zm29.9-57.33-.75 1.3zm11.2 8.3-.63 1.36zm13.45-8.12-1.37-.62zm-2.7-15.48.63-1.36zM78.9 19.12l-.73 1.3zm-45.7 4.14.95 1.16zm41.05-4.65.43 1.44zm-.75-.03.58-1.38zm12.64 4.31-.23-1.48zm-.68-.11.73-1.31zm-10.12 20.2.76-1.3zm.43.48-1.36.63zm-10.2-4.8 1.35.65zm1.83-.33.89-1.21zm-13.62-6.94-.3 1.47zm.63 1.45 1.29.77zm-15.34-.72-.46-1.43c-2.56.82-5.19-.62-5.63-2.92l-1.47.28-1.47.29c.84 4.4 5.55 6.46 9.48 5.2zm14.71-.73.32-1.47a29 29 0 0 0-15.5.77l.47 1.43.45 1.42a26 26 0 0 1 13.95-.68zM22.06 87.65l1.29.77L55.69 33.6l-1.3-.77-1.29-.76L20.76 86.9zm1.61 5.6.69-1.34a2.5 2.5 0 0 1-1.01-3.5l-1.3-.76-1.29-.76A5.5 5.5 0 0 0 23 94.58zm8.92 4.58.69-1.34-8.92-4.58-.69 1.33-.68 1.34 8.91 4.58zM38.02 96l-1.35-.65a2.5 2.5 0 0 1-3.4 1.14l-.68 1.34-.69 1.33a5.5 5.5 0 0 0 7.48-2.51zm27.54-57.34-1.36-.65-27.53 57.34 1.35.65 1.36.65L66.9 39.31zm2.37.01.75-1.3-.4-.25-.89 1.2-.88 1.22q.31.23.66.43zm7.4 4.31.76-1.3-7.41-4.3-.75 1.3-.76 1.3 7.4 4.3zm3.79 3.99.62-1.37a5.4 5.4 0 0 1-2.62-2.77l-1.36.63-1.36.63a8.4 8.4 0 0 0 4.1 4.24zm13.45-8.12-1.37-.62a15 15 0 0 1-5.57 6.6c-2.16 1.3-4.24 1.53-5.89.77l-.62 1.37-.63 1.36c2.82 1.29 5.97.71 8.69-.93a18 18 0 0 0 6.75-7.93zm-2.7-15.48-.62 1.37c1.65.75 2.85 2.47 3.28 4.95a15 15 0 0 1-1.33 8.54l1.37.62 1.36.62a18 18 0 0 0 1.56-10.3c-.55-3.12-2.18-5.88-5-7.16zm-3.74-.48.22 1.49a5 5 0 0 1 2.9.36l.63-1.37.62-1.36a8 8 0 0 0-4.6-.6zm-7.24-3.77-.73 1.3 6.55 3.67.74-1.31.73-1.31-6.56-3.66zm-4.65-.5.43 1.43a4.5 4.5 0 0 1 3.49.38l.73-1.31.73-1.31a7.5 7.5 0 0 0-5.81-.63zm-41.06 4.64.96 1.16c6.19-5.12 11.54-7.97 17.41-8.72 5.9-.75 12.54.58 21.36 4.27l.58-1.39.58-1.38c-9.04-3.78-16.25-5.32-22.9-4.47-6.66.85-12.53 4.07-18.95 9.37zm-1.68 4.8 1.47-.29a3.5 3.5 0 0 1 1.17-3.35l-.96-1.16-.96-1.16a6.5 6.5 0 0 0-2.2 6.24zm42.74-9.45-.43-1.43a.4.4 0 0 1 .26.02l-.58 1.38-.58 1.39c.6.25 1.22.24 1.76.08zm11.89 4.28-.23-1.48q.1-.02.28.06l-.73 1.3-.74 1.32c.53.3 1.12.36 1.64.29zM75.33 43l-.75 1.29a.4.4 0 0 1-.18-.2l1.36-.62 1.36-.63c-.2-.45-.55-.87-1.03-1.15zm-9.77-4.33 1.35.65-.17.2-.13.05-.1-.02.88-1.21.89-1.21a3 3 0 0 0-2.15-.52c-.74.12-1.52.56-1.93 1.41zM53.77 31.4l-.3 1.47a.53.53 0 0 1-.37-.78l1.3.76 1.29.77c.84-1.42.1-3.32-1.6-3.69z"/><path fill="#898989" d="M22.21 87.96 55 30.5l12 6-28.73 59.78a4 4 0 0 1-5.44 1.83l-8.97-4.61a4 4 0 0 1-1.65-5.54"/><path fill="#898989" d="m76 19 10.5 5-9 20.5L66 38c0-9 2.5-15.5 10-19"/><ellipse cx="85.65" cy="35.8" fill="#c8c8c8" rx="8.11" ry="12.97" transform="rotate(24.51 85.65 35.8)"/><path stroke="#6c6c6c" stroke-width="3" d="M76.5 18.5c-7.13 4.63-10.58 8.03-10.54 17.3 0 .76-.8 1.28-1.48.94L54 31.5m20.99 11c-.48-10.58 5.51-18 11-19.5"/><path fill="#40396e" d="m39.06 32.12.45 1.42zm-7.56-4.07-1.47.29zm-9.44 59.6-1.3-.76zm1.61 5.6L23 94.57zm8.92 4.58-.69 1.33zM38.02 96l-1.35-.65zm29.9-57.33-.75 1.3zm11.2 8.3-.63 1.36zm13.45-8.12-1.37-.62zm-2.7-15.48.63-1.36zM78.9 19.12l-.73 1.3zm-45.7 4.14.95 1.16zm41.05-4.65.43 1.44zm-.75-.03.58-1.38zm12.64 4.31-.23-1.48zm-.68-.11.73-1.31zm-10.12 20.2.76-1.3zm.43.48-1.36.63zm-10.2-4.8 1.35.65zm1.83-.33.89-1.21zm-13.62-6.94-.3 1.47zm.63 1.45 1.29.77zm-15.34-.72-.46-1.43c-2.56.82-5.19-.62-5.63-2.92l-1.47.28-1.47.29c.84 4.4 5.55 6.46 9.48 5.2zm14.71-.73.32-1.47a29 29 0 0 0-15.5.77l.47 1.43.45 1.42a26 26 0 0 1 13.95-.68zM22.06 87.65l1.29.77L55.69 33.6l-1.3-.77-1.29-.76L20.76 86.9zm1.61 5.6.69-1.34a2.5 2.5 0 0 1-1.01-3.5l-1.3-.76-1.29-.76A5.5 5.5 0 0 0 23 94.58zm8.92 4.58.69-1.34-8.92-4.58-.69 1.33-.68 1.34 8.91 4.58zM38.02 96l-1.35-.65a2.5 2.5 0 0 1-3.4 1.14l-.68 1.34-.69 1.33a5.5 5.5 0 0 0 7.48-2.51zm27.54-57.34-1.36-.65-27.53 57.34 1.35.65 1.36.65L66.9 39.31zm2.37.01.75-1.3-.4-.25-.89 1.2-.88 1.22q.31.23.66.43zm7.4 4.31.76-1.3-7.41-4.3-.75 1.3-.76 1.3 7.4 4.3zm3.79 3.99.62-1.37a5.4 5.4 0 0 1-2.62-2.77l-1.36.63-1.36.63a8.4 8.4 0 0 0 4.1 4.24zm13.45-8.12-1.37-.62a15 15 0 0 1-5.57 6.6c-2.16 1.3-4.24 1.53-5.89.77l-.62 1.37-.63 1.36c2.82 1.29 5.97.71 8.69-.93a18 18 0 0 0 6.75-7.93zm-2.7-15.48-.62 1.37c1.65.75 2.85 2.47 3.28 4.95a15 15 0 0 1-1.33 8.54l1.37.62 1.36.62a18 18 0 0 0 1.56-10.3c-.55-3.12-2.18-5.88-5-7.16zm-3.74-.48.22 1.49a5 5 0 0 1 2.9.36l.63-1.37.62-1.36a8 8 0 0 0-4.6-.6zm-7.24-3.77-.73 1.3 6.55 3.67.74-1.31.73-1.31-6.56-3.66zm-4.65-.5.43 1.43a4.5 4.5 0 0 1 3.49.38l.73-1.31.73-1.31a7.5 7.5 0 0 0-5.81-.63zm-41.06 4.64.96 1.16c6.19-5.12 11.54-7.97 17.41-8.72 5.9-.75 12.54.58 21.36 4.27l.58-1.39.58-1.38c-9.04-3.78-16.25-5.32-22.9-4.47-6.66.85-12.53 4.07-18.95 9.37zm-1.68 4.8 1.47-.29a3.5 3.5 0 0 1 1.17-3.35l-.96-1.16-.96-1.16a6.5 6.5 0 0 0-2.2 6.24zm42.74-9.45-.43-1.43a.4.4 0 0 1 .26.02l-.58 1.38-.58 1.39c.6.25 1.22.24 1.76.08zm11.89 4.28-.23-1.48q.1-.02.28.06l-.73 1.3-.74 1.32c.53.3 1.12.36 1.64.29zM75.33 43l-.75 1.29a.4.4 0 0 1-.18-.2l1.36-.62 1.36-.63c-.2-.45-.55-.87-1.03-1.15zm-9.77-4.33 1.35.65-.17.2-.13.05-.1-.02.88-1.21.89-1.21a3 3 0 0 0-2.15-.52c-.74.12-1.52.56-1.93 1.41zM53.77 31.4l-.3 1.47a.53.53 0 0 1-.37-.78l1.3.76 1.29.77c.84-1.42.1-3.32-1.6-3.69z"/><defs><filter id="crests-infrastructure-filter0_d_23_2269" width="84.64" height="95.87" x="16.89" y="10" color-interpolation-filters="sRGB" filterUnits="userSpaceOnUse"><feFlood flood-opacity="0" result="BackgroundImageFix"/><feColorMatrix in="SourceAlpha" result="hardAlpha" values="0 0 0 0 0 0 0 0 0 0 0 0 0 0 0 0 0 0 127 0"/><feOffset dx="3" dy="3"/><feComposite in2="hardAlpha" operator="out"/><feColorMatrix values="0 0 0 0 0 0 0 0 0 0 0 0 0 0 0 0 0 0 0.4 0"/><feBlend in2="BackgroundImageFix" result="effect1_dropShadow_23_2269"/><feBlend in="SourceGraphic" in2="effect1_dropShadow_23_2269" result="shape"/></filter></defs></svg>