<svg xmlns="http://www.w3.org/2000/svg" fill="none" viewBox="0 0 115 115"><g clip-path="url(#crests-ingestion-clip0_26_9881)"><g filter="url(#crests-ingestion-filter0_d_26_9881)"><path fill="#fff" d="M61.78 90.5h-24a20 20 0 0 0-5.93.9l-4.08 1.27A19.79 19.79 0 0 1 4 65.35l1.08-2.3a17.5 17.5 0 0 0 1.67-7.47c0-8.67 6.34-16.03 14.92-17.32l1.6-.24a19 19 0 0 1 6.92.21l16.77 3.57c.98.2 1.65-1 1-1.75-5.16-5.91-6.27-10.68-3.7-18.18 1.1-3.21 3.68-5.66 6.75-7.11a14.5 14.5 0 0 1 7.84-1.28l23.96 2.82a20 20 0 0 1 10.52 4.55l5.36 4.5a20 20 0 0 1 4.28 5.02l1.43 2.38a20 20 0 0 1 2.85 10.29v13.75a9.7 9.7 0 0 0 5 8.46c3.08 1.7 5 4.94 5 8.46v2.64A11.15 11.15 0 0 1 106.1 87.5H84.81a6.5 6.5 0 0 1-3.75-1.18 6.5 6.5 0 0 0-6.86-.4l-4.96 2.69a16 16 0 0 1-7.46 1.89"/></g><path stroke="#40396e" stroke-linecap="round" stroke-width="5" d="m64.75 61 4.95-5.21a9.88 9.88 0 0 0-3.26-15.87l-10.9-4.7c-5.66-2.43-4.75-10.72 1.31-11.87a13 13 0 0 1 3.72-.14l23.1 2.6c6.7.77 11.77 6.44 11.77 13.19"/><path fill="#df6133" stroke="#40396e" stroke-width="3.27" d="M24.94 46.33c18.63 1.07 34.63 4.89 44.81 17.05a10 10 0 0 1 2.13 6.46c0 6.61-5.36 11.97-11.97 11.97H36.78A22.07 22.07 0 0 1 14.7 59.74V56.3c0-5.7 4.65-10.29 10.23-9.97Z"/><path fill="#f3865f" d="M22.25 60.37c0-4.06 3.32-7.38 7.37-7.04 13.25 1.1 25.02 5.04 32.36 12.89a5 5 0 0 1 1.27 3.37 5.4 5.4 0 0 1-5.4 5.41H36.88a14.63 14.63 0 0 1-14.63-14.63"/><circle cx="23.15" cy="73.37" r="11.99" fill="#d9d9d9" stroke="#666" stroke-width="3.27"/><circle cx="23.15" cy="73.37" r="5.33" fill="#949494"/><rect width="7.11" height="34.37" x="91.89" y="39" fill="#c9c9c9" stroke="#40396e" stroke-width="3.27" rx="3.56"/><path fill="#c9c9c9" stroke="#40396e" stroke-width="3.27" d="M85.6 78.11a3.2 3.2 0 0 1-3.2-3.19c0-1.32.83-2.52 2.08-2.95 8.68-3 13.43-2.75 21.88.02a3.1 3.1 0 0 1 2.13 2.97 3.16 3.16 0 0 1-3.16 3.15z"/><path stroke="#40396e" stroke-linecap="round" stroke-width="3.27" d="M35.75 81.5c-2.27 0-4.42.84-6.4 1.94-13.14 7.27-22.51-7.68-16.23-16.83 1.24-1.8 2.13-3.97 1.63-6.11"/></g><defs><clipPath id="crests-ingestion-clip0_26_9881"><path fill="#fff" d="M0 0h115v115H0z"/></clipPath><filter id="crests-ingestion-filter0_d_26_9881" width="118.14" height="83.2" x="2.11" y="13.38" color-interpolation-filters="sRGB" filterUnits="userSpaceOnUse"><feFlood flood-opacity="0" result="BackgroundImageFix"/><feColorMatrix in="SourceAlpha" result="hardAlpha" values="0 0 0 0 0 0 0 0 0 0 0 0 0 0 0 0 0 0 127 0"/><feOffset dx="3" dy="3"/><feComposite in2="hardAlpha" operator="out"/><feColorMatrix values="0 0 0 0 0 0 0 0 0 0 0 0 0 0 0 0 0 0 0.4 0"/><feBlend in2="BackgroundImageFix" result="effect1_dropShadow_26_9881"/><feBlend in="SourceGraphic" in2="effect1_dropShadow_26_9881" result="shape"/></filter></defs></svg>