<svg xmlns="http://www.w3.org/2000/svg" fill="none" viewBox="0 0 115 115"><g filter="url(#crests-irl-events-filter0_d_23_3879)"><path fill="#fff" fill-rule="evenodd" d="M25.07 70h46.86c1.42 0 2.57-1.27 2.57-2.85V39.4h-52v27.76c0 1.58 1.15 2.85 2.57 2.85" clip-rule="evenodd"/><path fill="#db502c" d="M22.5 39.39h52v-8.54c0-1.58-1.15-2.85-2.57-2.85H25.07c-1.42 0-2.57 1.27-2.57 2.85z"/><path stroke="#fff" stroke-width="3" d="M71.93 26.5c2.39 0 4.07 2.1 4.07 4.35v36.3c0 2.25-1.68 4.35-4.07 4.35H25.07c-2.39 0-4.07-2.1-4.07-4.35v-36.3c0-2.25 1.68-4.35 4.07-4.35z"/><mask id="crests-irl-events-path-3-outside-1_23_3879" width="57" height="50" x="38.5" y="41" fill="#000" maskUnits="userSpaceOnUse"><path fill="#fff" d="M38.5 41h57v50h-57z"/><path d="M67 44c14.08 0 25.5 9.18 25.5 20.5 0 6.5-3.77 12.3-9.64 16.06-.54 2.85 3.97 6.89 1.14 6.4s-4.69-1.18-6.58-3.74A31 31 0 0 1 67 85.01c-14.08 0-25.5-9.18-25.5-20.5S52.92 44 67 44"/></mask><path fill="#ffba36" d="M67 44c14.08 0 25.5 9.18 25.5 20.5 0 6.5-3.77 12.3-9.64 16.06-.54 2.85 3.97 6.89 1.14 6.4s-4.69-1.18-6.58-3.74A31 31 0 0 1 67 85.01c-14.08 0-25.5-9.18-25.5-20.5S52.92 44 67 44"/><path fill="#fff" d="M67 44v-3zm25.5 20.5h3zm-9.64 16.06-1.61-2.53-1.1.7-.23 1.26zm1.14 6.4-.5 2.96zm-6.58-3.74 2.4-1.78-1.32-1.8-2.1.76zM67 85.01v3zM41.5 64.5h-3zM67 44v3c13.07 0 22.5 8.41 22.5 17.5h6C95.5 50.95 82.1 41 67 41zm25.5 20.5h-3c0 5.27-3.05 10.2-8.25 13.53l1.61 2.53 1.62 2.52C91.02 78.9 95.5 72.24 95.5 64.5zm-9.64 16.06-2.94-.57c-.3 1.55.12 2.98.5 3.93.38.99.92 1.94 1.23 2.52q.27.48.35.68c.1.2-.04 0-.06-.41a2.7 2.7 0 0 1 1.53-2.48c.74-.35 1.3-.18 1.04-.23L84 86.96l-.5 2.96a4.3 4.3 0 0 0 2.51-.26 3.3 3.3 0 0 0 1.93-3.23 5 5 0 0 0-.46-1.75c-.17-.38-.38-.78-.55-1.1-.4-.72-.71-1.29-.93-1.85-.23-.58-.17-.73-.2-.6zm1.14 6.4.5-2.96a9 9 0 0 1-2.75-.79c-.59-.3-1.2-.79-1.92-1.77l-2.41 1.78L75 85.01a11.6 11.6 0 0 0 3.95 3.51 15 15 0 0 0 4.53 1.4zm-6.58-3.74L76.4 80.4A28 28 0 0 1 67 82v6c4.05 0 7.92-.69 11.43-1.95zM67 85.01v-3c-13.07 0-22.5-8.42-22.5-17.5h-6C38.5 78.05 51.9 88 67 88zM41.5 64.5h3C44.5 55.4 53.93 47 67 47v-6c-15.1 0-28.5 9.95-28.5 23.5z" mask="url(#crests-irl-events-path-3-outside-1_23_3879)"/></g><path fill="#fff" fill-rule="evenodd" d="M25.07 70h46.86c1.42 0 2.57-1.27 2.57-2.85V39.4h-52v27.76c0 1.58 1.15 2.85 2.57 2.85" clip-rule="evenodd"/><path fill="#db502c" d="M22.5 39.39h52v-8.54c0-1.58-1.15-2.85-2.57-2.85H25.07c-1.42 0-2.57 1.27-2.57 2.85z"/><path stroke="#40396e" stroke-width="2" d="M22.5 39.39h52m-52 0v27.76m0-27.76v-8.54m52 8.54v-8.54m0 8.54v27.76M71.93 70H25.07m46.86 0c1.42 0 2.57-1.27 2.57-2.85M71.93 70a2.57 2.57 0 0 0 2.57-2.57v-.28M25.07 70c-1.42 0-2.57-1.27-2.57-2.85M25.07 70a2.57 2.57 0 0 1-2.57-2.57v-.28m0-36.3c0-1.58 1.15-2.85 2.57-2.85m-2.57 2.85v-.28A2.57 2.57 0 0 1 25.07 28m0 0h46.86m0 0c1.42 0 2.57 1.27 2.57 2.85M71.93 28a2.57 2.57 0 0 1 2.57 2.57v.28"/><mask id="crests-irl-events-path-7-inside-2_23_3879" fill="#fff"><path d="M67 44c14.08 0 25.5 9.18 25.5 20.5 0 6.5-3.77 12.3-9.64 16.06-.54 2.85 3.97 6.89 1.14 6.4s-4.69-1.18-6.58-3.74A31 31 0 0 1 67 85.01c-14.08 0-25.5-9.18-25.5-20.5S52.92 44 67 44"/></mask><path fill="#ffba36" d="M67 44c14.08 0 25.5 9.18 25.5 20.5 0 6.5-3.77 12.3-9.64 16.06-.54 2.85 3.97 6.89 1.14 6.4s-4.69-1.18-6.58-3.74A31 31 0 0 1 67 85.01c-14.08 0-25.5-9.18-25.5-20.5S52.92 44 67 44"/><path fill="#40396e" d="M67 44v-2zm25.5 20.5h2zm-9.64 16.06-1.08-1.69-.72.47-.16.84zm1.14 6.4-.34 1.97zm-6.58-3.74 1.6-1.19-.88-1.2-1.4.51zM67 85.01v2zM41.5 64.5h-2zM67 44v2c13.4 0 23.5 8.67 23.5 18.5h4C94.5 51.7 81.76 42 67 42zm25.5 20.5h-2c0 5.68-3.29 10.9-8.72 14.37l1.08 1.69 1.08 1.68C90.25 78.2 94.5 71.84 94.5 64.5zm-9.64 16.06-1.96-.38c-.24 1.27.1 2.48.45 3.38.35.91.85 1.8 1.18 2.4q.27.49.38.75c.1.23.04.17.03-.05 0-.14 0-.43.18-.77.19-.37.49-.62.78-.76.44-.2.73-.1.44-.14L84 86.96l-.34 1.97c.42.07 1.19.17 1.93-.18a2.3 2.3 0 0 0 1.35-2.28 4 4 0 0 0-.37-1.38q-.25-.53-.52-1.03-.59-1.03-.98-1.96c-.25-.65-.27-1-.24-1.17zm1.14 6.4.34-1.97a10 10 0 0 1-3.05-.9 6.6 6.6 0 0 1-2.27-2.06l-1.6 1.2-1.61 1.18a11 11 0 0 0 3.62 3.23c1.33.7 2.75 1.04 4.23 1.3zm-6.58-3.74-.68-1.88A29 29 0 0 1 67 83.01v4c3.94 0 7.7-.68 11.1-1.9zM67 85.01v-2c-13.4 0-23.5-8.67-23.5-18.5h-4C39.5 77.3 52.24 87 67 87zM41.5 64.5h2C43.5 54.66 53.6 46 67 46v-4c-14.76 0-27.5 9.7-27.5 22.5z" mask="url(#crests-irl-events-path-7-inside-2_23_3879)"/><defs><filter id="crests-irl-events-filter0_d_23_3879" width="79" height="68" x="19.5" y="25" color-interpolation-filters="sRGB" filterUnits="userSpaceOnUse"><feFlood flood-opacity="0" result="BackgroundImageFix"/><feColorMatrix in="SourceAlpha" result="hardAlpha" values="0 0 0 0 0 0 0 0 0 0 0 0 0 0 0 0 0 0 127 0"/><feOffset dx="3" dy="3"/><feComposite in2="hardAlpha" operator="out"/><feColorMatrix values="0 0 0 0 0 0 0 0 0 0 0 0 0 0 0 0 0 0 0.4 0"/><feBlend in2="BackgroundImageFix" result="effect1_dropShadow_23_3879"/><feBlend in="SourceGraphic" in2="effect1_dropShadow_23_3879" result="shape"/></filter></defs></svg>