<svg xmlns="http://www.w3.org/2000/svg" fill="none" viewBox="0 0 115 115"><g clip-path="url(#crests-marketing-clip0_26_8092)"><g filter="url(#crests-marketing-filter0_d_26_8092)"><path fill="#fff" d="M40.47 29.76h9.87a1 1 0 0 0 .99-1.15l-2.47-16.25a4 4 0 0 1 3.95-4.6h30.98a4 4 0 0 1 3.94 3.3l3.13 17.87a1 1 0 0 0 .98.83h9.37a4 4 0 0 1 3.93 3.22l7.42 37.5a4 4 0 0 1-3.93 4.78H66.47a1 1 0 0 0-1 .97c-.3 5.95-1.62 10.28-4.47 15.03-7 9-17.62 9.93-29.5 5.5-19.24-11-24-29-21-43.5 2.88-13.95 14.56-19.57 24.34-16.87.6.17 1.24-.21 1.33-.84l.34-2.36a4 4 0 0 1 3.96-3.43"/></g><path fill="#88a8d3" stroke="#4782d1" stroke-width="3" d="M50.91 72.26h-10.6a2 2 0 0 1-2-2.22l3.63-33a2 2 0 0 1 1.99-1.78h4.49a2 2 0 0 1 2 1.85l2.49 33a2 2 0 0 1-2 2.15Z"/><path fill="#8eb6e9" stroke="#4782d1" stroke-width="3" d="M100.41 36.82a.5.5 0 0 1 .5.4l6.23 32.58a.5.5 0 0 1-.49.6h-52.4a.5.5 0 0 1-.49-.42l-5.32-30.72a.5.5 0 0 1 .47-.59z"/><path fill="#c1dcff" stroke="#4782d1" stroke-width="3" d="M47.99 35.14h52.19a.5.5 0 0 1 .5.4l2.23 11.76a.5.5 0 0 1-.5.6H50.24a.5.5 0 0 1-.5-.41L47.5 35.73a.5.5 0 0 1 .49-.6Z"/><path fill="#fff" stroke="#a5c4ee" stroke-width="3" d="M54.5 12.76h27.43a.5.5 0 0 1 .49.4l5.1 26.39a.5.5 0 0 1-.49.6H59.6a.5.5 0 0 1-.5-.41L54 13.35a.5.5 0 0 1 .5-.6Z"/><path stroke="#5e88be" stroke-linecap="round" stroke-width="3" d="M63.07 20.82h11.82m-10.82 5.44h11.82m-10.82 5h5.63"/><circle cx="56.45" cy="55.02" r="2.25" fill="#ddecff"/><circle cx="56.45" cy="61.77" r="2.25" fill="#ddecff"/><circle cx="69.95" cy="55.02" r="2.25" fill="#ddecff"/><circle cx="69.95" cy="61.77" r="2.25" fill="#ddecff"/><circle cx="83.45" cy="55.02" r="2.25" fill="#ddecff"/><circle cx="83.45" cy="61.77" r="2.25" fill="#ddecff"/><circle cx="63.2" cy="55.02" r="2.25" fill="#ddecff"/><circle cx="63.2" cy="61.77" r="2.25" fill="#ddecff"/><circle cx="76.7" cy="55.02" r="2.25" fill="#ddecff"/><circle cx="76.7" cy="61.77" r="2.25" fill="#ddecff"/><circle cx="90.21" cy="55.02" r="2.25" fill="#ddecff"/><circle cx="90.21" cy="61.77" r="2.25" fill="#ddecff"/><circle cx="96.96" cy="55.02" r="2.25" fill="#ddecff"/><circle cx="96.96" cy="61.77" r="2.25" fill="#ddecff"/><mask id="crests-marketing-path-23-inside-1_26_8092" fill="#fff"><path d="M23.55 41.72c10.66-5.9 25.64.79 33.46 14.92 7.82 14.14 5.52 30.38-5.14 36.28s-25.64-.79-33.46-14.93-5.52-30.37 5.14-36.27m18.97 37.02c-1.8-2.01-5.83-.92-6.78 1.02s.52 4.63 3.3 6c2.8 1.38 7.68.92 8.69-2.35.96-1.94-3.13-2.36-5.21-4.67"/></mask><path fill="#e7b079" d="M23.55 41.72c10.66-5.9 25.64.79 33.46 14.92 7.82 14.14 5.52 30.38-5.14 36.28s-25.64-.79-33.46-14.93-5.52-30.37 5.14-36.27m18.97 37.02c-1.8-2.01-5.83-.92-6.78 1.02s.52 4.63 3.3 6c2.8 1.38 7.68.92 8.69-2.35.96-1.94-3.13-2.36-5.21-4.67"/><path fill="#aa7540" d="m23.55 41.72-1.45-2.63zM57 56.64l2.62-1.45zm-5.14 36.28 1.45 2.62zM18.41 77.99l-2.62 1.45zm24.1.75 2.24-2zm-6.77 1.02-2.7-1.33zm3.3 6-1.32 2.7zm8.69-2.35-2.7-1.32-.1.21-.07.23zM23.55 41.72 25 44.34c4.32-2.39 9.72-2.34 15.12.07s10.64 7.13 14.26 13.69l2.63-1.46 2.62-1.45c-4.2-7.58-10.36-13.27-17.07-16.26-6.7-3-14.13-3.34-20.46.16zM57 56.64l-2.63 1.46c3.63 6.55 4.85 13.49 4.02 19.35s-3.66 10.45-7.98 12.84l1.45 2.63 1.45 2.62c6.34-3.5 9.99-9.98 11.02-17.25s-.51-15.51-4.7-23.1zm-5.14 36.28-1.45-2.63c-4.33 2.4-9.72 2.35-15.12-.06s-10.64-7.14-14.26-13.69L18.4 78l-2.62 1.45c4.2 7.59 10.36 13.28 17.07 16.27 6.7 2.99 14.13 3.34 20.46-.17zM18.41 77.99l2.63-1.45C17.4 70 16.19 63.04 17.02 57.2S20.68 46.74 25 44.34l-1.45-2.62-1.45-2.63c-6.34 3.5-9.99 9.99-11.02 17.25s.51 15.52 4.7 23.1zm24.1.75 2.24-2c-1.87-2.1-4.59-2.3-6.52-1.92-1.86.36-4.14 1.49-5.18 3.6l2.69 1.34 2.68 1.33c-.07.14-.09.08.14-.06a2.5 2.5 0 0 1 1.6-.33c.14.03.15.07.13.04zm-6.77 1.02-2.7-1.33a6.4 6.4 0 0 0 .32 5.99 10 10 0 0 0 4.36 4.03l1.33-2.69 1.33-2.69a4 4 0 0 1-1.77-1.55c-.27-.5-.1-.6-.19-.44zm3.3 6-1.32 2.7c2.04 1 4.65 1.28 6.94.8 2.3-.47 4.99-1.9 5.93-4.96l-2.86-.89-2.87-.88c-.06.2-.32.63-1.41.86a5 5 0 0 1-3.07-.32zm8.69-2.35 2.69 1.33a4.1 4.1 0 0 0-.47-4.44 7 7 0 0 0-2.25-1.71c-1.5-.83-2.35-1.2-2.95-1.86l-2.23 2-2.23 2.01c.8.9 1.73 1.54 2.51 2 .71.43 1.62.89 2.02 1.1.62.35.6.4.46.23a2 2 0 0 1-.4-.96c-.05-.5.08-.86.16-1.02z" mask="url(#crests-marketing-path-23-inside-1_26_8092)"/><circle cx="27.65" cy="73.47" r="3.08" fill="#df6133" stroke="#a94a27" stroke-width="3" transform="rotate(-28.95 27.65 73.47)"/><circle cx="23.48" cy="61.7" r="3.08" fill="#ffc56e" stroke="#c28a35" stroke-width="3" transform="rotate(-28.95 23.48 61.7)"/><circle cx="28.08" cy="50.94" r="3.08" fill="#8db464" stroke="#6b884c" stroke-width="3" transform="rotate(-28.95 28.08 50.94)"/><circle cx="40.05" cy="51.36" r="3.08" fill="#83afe9" stroke="#4572ac" stroke-width="3" transform="rotate(-28.95 40.05 51.36)"/><ellipse cx="48.3" cy="61.53" fill="#c983e9" stroke="#8b45ab" stroke-width="3" rx="3.08" ry="3.18" transform="rotate(-28.95 48.3 61.53)"/><circle cx="51.07" cy="73.41" r="3.08" fill="#f66cce" stroke="#ab458e" stroke-width="3" transform="rotate(-28.95 51.07 73.41)"/><path stroke="#40396e" stroke-width="3" d="M81.18 12.76H55.19a1 1 0 0 0-.98 1.17l3.58 20.15a1 1 0 0 1-.98 1.18H42.88a1 1 0 0 0-1 .87l-.71 5.38a1.03 1.03 0 0 1-1.36.83c-7.6-2.52-15.08-1.76-20.31 4.42-4.64 7.77-5 14-3.5 21.5 3.5 11 7 15.5 15 21.5 6.5 4 11 4.5 18 3 7.28-2.92 11.54-9.66 11.06-21.44a1 1 0 0 1 1-1.06h44.74a1 1 0 0 0 .98-1.18l-6.13-33a1 1 0 0 0-.98-.82H87.32a1 1 0 0 1-.98-.8l-4.18-20.9a1 1 0 0 0-.98-.8Z"/></g><defs><clipPath id="crests-marketing-clip0_26_8092"><path fill="#fff" d="M0 0h115v115H0z"/></clipPath><filter id="crests-marketing-filter0_d_26_8092" width="105.96" height="94.58" x="9.68" y="7.76" color-interpolation-filters="sRGB" filterUnits="userSpaceOnUse"><feFlood flood-opacity="0" result="BackgroundImageFix"/><feColorMatrix in="SourceAlpha" result="hardAlpha" values="0 0 0 0 0 0 0 0 0 0 0 0 0 0 0 0 0 0 127 0"/><feOffset dx="3" dy="3"/><feComposite in2="hardAlpha" operator="out"/><feColorMatrix values="0 0 0 0 0 0 0 0 0 0 0 0 0 0 0 0 0 0 0.4 0"/><feBlend in2="BackgroundImageFix" result="effect1_dropShadow_26_8092"/><feBlend in="SourceGraphic" in2="effect1_dropShadow_26_8092" result="shape"/></filter></defs></svg>