<svg xmlns="http://www.w3.org/2000/svg" fill="none" viewBox="0 0 115 115"><g clip-path="url(#crests-mobile-clip0_26_6724)"><g filter="url(#crests-mobile-filter0_d_26_6724)"><path fill="#fff" d="M61.71-.15 23.94 10.43a5.9 5.9 0 0 0-4.29 6.53c1.44 10.04 4.96 32.7 9.47 48.79 4.53 16.15 13.85 36.97 18.05 46a5.9 5.9 0 0 0 6.96 3.17l36.94-10.35a5.9 5.9 0 0 0 4.29-6.52c-1.4-9.93-4.84-32.24-9.33-48.25-4.5-16.04-13.27-37.27-17.26-46.6a5.9 5.9 0 0 0-7.06-3.35"/></g><path fill="#a6c4e0" stroke="#40396e" stroke-width="3.3" d="m27.43 16.08 33.74-9.46A2.3 2.3 0 0 1 63.9 7.9c2.78 6.26 9 20.57 12.42 30.9 6.26 18.91 10.88 47.83 12.36 57.74a2.3 2.3 0 0 1-1.67 2.54l-33.64 9.43a2.3 2.3 0 0 1-2.77-1.36c-3.74-9.34-14.32-36.51-18.92-55.85-2.5-10.54-4.92-25.85-5.94-32.65a2.3 2.3 0 0 1 1.68-2.57Z"/><path fill="#a6c4e0" stroke="#6e8eac" stroke-width="3.3" d="m35.36 21.22 21.85-6.12a2.3 2.3 0 0 1 2.77 1.33c2.36 5.73 7.22 17.78 10.02 26.5 5.2 16.15 9.65 40.47 11.22 49.5a2.3 2.3 0 0 1-1.67 2.6l-21.75 6.1a2.3 2.3 0 0 1-2.8-1.4C51.77 91.14 43.28 68 39.24 51.56c-2.17-8.87-4.47-21.59-5.54-27.7-.2-1.17.51-2.3 1.67-2.63Z"/><rect width="8.28" height="7.09" x="52.96" y="89.47" fill="#cbe6ff" stroke="#6e8eac" stroke-width="3.3" rx="3.55" transform="rotate(-15.65 52.96 89.47)"/><rect width="8.28" height="7.09" x="49.76" y="78.09" fill="#cbe6ff" stroke="#6e8eac" stroke-width="3.3" rx="3.55" transform="rotate(-15.65 49.76 78.09)"/><rect width="9.46" height="7.09" x="45.43" y="67.02" fill="#cbe6ff" stroke="#6e8eac" stroke-width="3.3" rx="3.55" transform="rotate(-15.65 45.43 67.02)"/><rect width="9.46" height="7.09" x="60.92" y="87.23" fill="#cbe6ff" stroke="#6e8eac" stroke-width="3.3" rx="3.55" transform="rotate(-15.65 60.92 87.23)"/><rect width="9.46" height="7.09" x="57.73" y="75.85" fill="#cbe6ff" stroke="#6e8eac" stroke-width="3.3" rx="3.55" transform="rotate(-15.65 57.73 75.85)"/><rect width="9.46" height="7.09" x="54.54" y="64.47" fill="#cbe6ff" stroke="#6e8eac" stroke-width="3.3" rx="3.55" transform="rotate(-15.65 54.54 64.47)"/><rect width="8.28" height="7.09" x="70.03" y="84.69" fill="#cbe6ff" stroke="#6e8eac" stroke-width="3.3" rx="3.55" transform="rotate(-15.65 70.03 84.69)"/><rect width="8.28" height="7.09" x="66.84" y="73.3" fill="#cbe6ff" stroke="#6e8eac" stroke-width="3.3" rx="3.55" transform="rotate(-15.65 66.84 73.3)"/><rect width="9.46" height="7.09" x="63.65" y="61.91" fill="#cbe6ff" stroke="#6e8eac" stroke-width="3.3" rx="3.55" transform="rotate(-15.65 63.65 61.91)"/><path fill="#a2bb7a" stroke="#6b8d34" stroke-width="3.3" d="m41.06 33.13 17.83-5c1.18-.32 2.41.3 2.84 1.45l4.03 10.94 1.78 6.33a2.35 2.35 0 0 1-1.63 2.9l-19.62 5.5a2.35 2.35 0 0 1-2.9-1.63l-1.77-6.34-2.24-11.43c-.23-1.2.5-2.39 1.68-2.72Z"/></g><defs><clipPath id="crests-mobile-clip0_26_6724"><path fill="#fff" d="M0 0h115v115H0z"/></clipPath><filter id="crests-mobile-filter0_d_26_6724" width="78.83" height="118.52" x="19.59" y="-.38" color-interpolation-filters="sRGB" filterUnits="userSpaceOnUse"><feFlood flood-opacity="0" result="BackgroundImageFix"/><feColorMatrix in="SourceAlpha" result="hardAlpha" values="0 0 0 0 0 0 0 0 0 0 0 0 0 0 0 0 0 0 127 0"/><feOffset dx="3" dy="3"/><feComposite in2="hardAlpha" operator="out"/><feColorMatrix values="0 0 0 0 0 0 0 0 0 0 0 0 0 0 0 0 0 0 0.4 0"/><feBlend in2="BackgroundImageFix" result="effect1_dropShadow_26_6724"/><feBlend in="SourceGraphic" in2="effect1_dropShadow_26_6724" result="shape"/></filter></defs></svg>