<svg xmlns="http://www.w3.org/2000/svg" fill="none" viewBox="0 0 115 115"><g filter="url(#crests-onboarding-filter0_d_23_4422)"><path fill="#fff" d="M57.5 15a42.5 42.5 0 1 1 0 85 42.5 42.5 0 0 1 0-85m0 32a10.5 10.5 0 1 0 0 21 10.5 10.5 0 0 0 0-21"/></g><mask id="crests-onboarding-path-2-inside-1_23_4422" fill="#fff"><path d="M57.5 21a36.5 36.5 0 1 1 0 73 36.5 36.5 0 0 1 0-73m0 20a16.5 16.5 0 1 0 0 33 16.5 16.5 0 0 0 0-33"/></mask><path fill="#eda840" d="M57.5 21a36.5 36.5 0 1 1 0 73 36.5 36.5 0 0 1 0-73m0 20a16.5 16.5 0 1 0 0 33 16.5 16.5 0 0 0 0-33"/><path fill="#40396e" d="M57.5 21v3C76 24 91 39 91 57.5h6A39.5 39.5 0 0 0 57.5 18zM94 57.5h-3C91 76 76 91 57.5 91v6A39.5 39.5 0 0 0 97 57.5zM57.5 94v-3C39 91 24 76 24 57.5h-6A39.5 39.5 0 0 0 57.5 97zM21 57.5h3C24 39 39 24 57.5 24v-6A39.5 39.5 0 0 0 18 57.5zM57.5 41v-3A19.5 19.5 0 0 0 38 57.5h6A13.5 13.5 0 0 1 57.5 44zM41 57.5h-3A19.5 19.5 0 0 0 57.5 77v-6A13.5 13.5 0 0 1 44 57.5zM57.5 74v3A19.5 19.5 0 0 0 77 57.5h-6A13.5 13.5 0 0 1 57.5 71zM74 57.5h3A19.5 19.5 0 0 0 57.5 38v6A13.5 13.5 0 0 1 71 57.5z" mask="url(#crests-onboarding-path-2-inside-1_23_4422)"/><path fill="#fff" d="M92.87 67.26a36.6 36.6 0 0 1-25.4 25.55l-1.73-20.78a16.6 16.6 0 0 0 6.51-6.7zm-49.8-1.88a16.6 16.6 0 0 0 5.92 6.32l-1.44 21.03a36.6 36.6 0 0 1-25.11-25.45zm24.36-42.9a36.6 36.6 0 0 1 25.3 25.1l-21 1.46a16.6 16.6 0 0 0-6.06-5.81zM49.06 43.56a16.6 16.6 0 0 0-5.47 5.45l-21.03-1.45a36.6 36.6 0 0 1 25.02-25z"/><path stroke="#cb8722" stroke-width="3" d="m47 25 3 15.5M68.5 25 65 41.5m3.5 49L65 74M47 90.5 50.5 74m40-27L75 50m15.5 18.5L74 65m-49 3.5 15.5-3M25 47l16.5 3.5"/><mask id="crests-onboarding-path-9-inside-2_23_4422" fill="#fff"><path d="M57.5 21a36.5 36.5 0 1 1 0 73 36.5 36.5 0 0 1 0-73m0 20a16.5 16.5 0 1 0 0 33 16.5 16.5 0 0 0 0-33"/></mask><path fill="#40396e" d="M57.5 21v3C76 24 91 39 91 57.5h6A39.5 39.5 0 0 0 57.5 18zM94 57.5h-3C91 76 76 91 57.5 91v6A39.5 39.5 0 0 0 97 57.5zM57.5 94v-3C39 91 24 76 24 57.5h-6A39.5 39.5 0 0 0 57.5 97zM21 57.5h3C24 39 39 24 57.5 24v-6A39.5 39.5 0 0 0 18 57.5zM57.5 41v-3A19.5 19.5 0 0 0 38 57.5h6A13.5 13.5 0 0 1 57.5 44zM41 57.5h-3A19.5 19.5 0 0 0 57.5 77v-6A13.5 13.5 0 0 1 44 57.5zM57.5 74v3A19.5 19.5 0 0 0 77 57.5h-6A13.5 13.5 0 0 1 57.5 71zM74 57.5h3A19.5 19.5 0 0 0 57.5 38v6A13.5 13.5 0 0 1 71 57.5z" mask="url(#crests-onboarding-path-9-inside-2_23_4422)"/><defs><filter id="crests-onboarding-filter0_d_23_4422" width="88" height="88" x="15" y="15" color-interpolation-filters="sRGB" filterUnits="userSpaceOnUse"><feFlood flood-opacity="0" result="BackgroundImageFix"/><feColorMatrix in="SourceAlpha" result="hardAlpha" values="0 0 0 0 0 0 0 0 0 0 0 0 0 0 0 0 0 0 127 0"/><feOffset dx="3" dy="3"/><feComposite in2="hardAlpha" operator="out"/><feColorMatrix values="0 0 0 0 0 0 0 0 0 0 0 0 0 0 0 0 0 0 0.4 0"/><feBlend in2="BackgroundImageFix" result="effect1_dropShadow_23_4422"/><feBlend in="SourceGraphic" in2="effect1_dropShadow_23_4422" result="shape"/></filter></defs></svg>