<svg xmlns="http://www.w3.org/2000/svg" fill="none" viewBox="0 0 115 115"><g filter="url(#crests-pencil-filter0_d_23_13312)"><path fill="#fff" d="M68.3 75.18h7.64c26.5 12.5 32.52-20.86 22-43.5-10.37-22.35-33-33.5-43-6.5-8.41 9.18-24.14 18.36-31.07 22.17-2.2 1.2-3.98 3.12-4.52 5.57-2.92 13.2 1.83 31.72 17 30.46.93-.08 1.84.42 2.19 1.3l4.6 11.49a10 10 0 0 0 13.22 5.47L64.88 98a10 10 0 0 0 4.86-13.94l-3.2-5.92a2 2 0 0 1 1.76-2.95"/></g><mask id="crests-pencil-path-2-inside-1_23_13312" fill="#fff"><path fill-rule="evenodd" d="M89.36 72.17c8.88-3.26 11.35-18.75 5.53-34.6-5.83-15.85-17.75-26.05-26.63-22.78-4.35 1.6-7.17 6.15-8.21 12.24C49.7 37.42 41.17 43.9 28.15 50.89a7.6 7.6 0 0 0-4.1 6.04c-.6 8.47 1.44 13.63 6.96 19.35 2.25 2.35 5.8 2.71 8.78 1.39l1.06-.47 7.9 16.75a5.3 5.3 0 0 0 7.07 2.53l6.82-3.21a5.3 5.3 0 0 0 2.54-7.08l-6.84-14.5c5.94-1.16 11.97-1.7 18.82-2 4.15 2.83 8.45 3.86 12.2 2.48" clip-rule="evenodd"/></mask><path fill="#daeaff" fill-rule="evenodd" d="M89.36 72.17c8.88-3.26 11.35-18.75 5.53-34.6-5.83-15.85-17.75-26.05-26.63-22.78-4.35 1.6-7.17 6.15-8.21 12.24C49.7 37.42 41.17 43.9 28.15 50.89a7.6 7.6 0 0 0-4.1 6.04c-.6 8.47 1.44 13.63 6.96 19.35 2.25 2.35 5.8 2.71 8.78 1.39l1.06-.47 7.9 16.75a5.3 5.3 0 0 0 7.07 2.53l6.82-3.21a5.3 5.3 0 0 0 2.54-7.08l-6.84-14.5c5.94-1.16 11.97-1.7 18.82-2 4.15 2.83 8.45 3.86 12.2 2.48" clip-rule="evenodd"/><path fill="#40396e" d="M89.36 72.17 90.4 75zM68.26 14.8l-1.03-2.82zm-8.21 12.24 2.12 2.11.67-.67.16-.94zM28.15 50.9l-1.41-2.64zm-4.1 6.04 2.99.2zM31 76.28l-2.17 2.09zm8.78 1.39L41 80.4zm1.06-.47 2.71-1.28-1.24-2.63-2.66 1.16zm7.9 16.75 2.71-1.28zm7.07 2.53-1.28-2.7zm6.82-3.21 1.28 2.71zm2.54-7.08 2.71-1.28zm-6.84-14.5-.58-2.93-3.77.74 1.64 3.48zm18.82-2 1.7-2.48-.83-.57-1 .04zM94.9 37.56l-2.82 1.04c2.77 7.53 3.5 14.84 2.6 20.5-.92 5.78-3.38 9.16-6.34 10.25l1.03 2.81L90.4 75c5.91-2.18 9.12-8.18 10.2-14.93 1.1-6.85.16-15.21-2.9-23.53zM68.26 14.79l1.04 2.81c2.96-1.09 7.02-.11 11.47 3.7 4.36 3.72 8.53 9.77 11.3 17.3l2.82-1.03 2.81-1.04c-3.06-8.3-7.76-15.28-13.03-19.8-5.2-4.44-11.53-6.93-17.44-4.76zm-8.21 12.24 2.95.5c.96-5.6 3.39-8.86 6.3-9.93l-1.04-2.81-1.03-2.82c-5.8 2.14-9 7.96-10.14 14.55zm0 0-2.13-2.12C47.77 35.1 39.47 41.4 26.74 48.25l1.42 2.64 1.42 2.65c13.28-7.14 22.05-13.8 32.6-24.4zm-31.9 23.86-1.41-2.64a10.6 10.6 0 0 0-5.69 8.47l3 .2 2.99.22a4.6 4.6 0 0 1 2.54-3.6zm-4.1 6.04-3-.21c-.32 4.52.05 8.38 1.37 11.95 1.31 3.57 3.48 6.64 6.42 9.7l2.17-2.09 2.16-2.08c-2.57-2.66-4.18-5.04-5.12-7.6s-1.3-5.51-1.01-9.46zM31 76.28l-2.17 2.09c3.3 3.43 8.28 3.77 12.17 2.04l-1.22-2.74-1.22-2.74c-2.06.92-4.2.53-5.4-.73zm8.78 1.39L41 80.4l1.03-.45-1.2-2.76-1.18-2.75-1.1.48zm1.06-.47-2.72 1.28 7.9 16.75 2.72-1.28 2.71-1.28-7.9-16.75zm7.9 16.75-2.72 1.28A8.3 8.3 0 0 0 57.1 99.2l-1.28-2.72-1.28-2.7a2.3 2.3 0 0 1-3.08-1.11zm7.07 2.53 1.28 2.72 6.82-3.22-1.28-2.71-1.28-2.72-6.82 3.22zm6.82-3.21 1.28 2.71a8.3 8.3 0 0 0 3.97-11.07l-2.71 1.28-2.71 1.28a2.3 2.3 0 0 1-1.1 3.08zm2.54-7.08 2.71-1.28-6.83-14.5-2.72 1.29-2.71 1.28 6.84 14.5zm-6.84-14.5.58 2.95c5.73-1.12 11.6-1.65 18.38-1.96l-.14-3-.14-3c-6.91.32-13.11.87-19.26 2.08zm31.02.48-1.03-2.81c-2.51.92-5.78.38-9.47-2.15l-1.7 2.47-1.7 2.48c4.61 3.15 9.94 4.67 14.94 2.83z" mask="url(#crests-pencil-path-2-inside-1_23_13312)"/><ellipse cx="73.08" cy="46.54" fill="#c1dcff" rx="9.81" ry="21.68" transform="rotate(-20.19 73.08 46.54)"/><ellipse cx="69.75" cy="47.55" fill="#84abdd" rx="6.35" ry="14.04" transform="rotate(-20.19 69.75 47.55)"/><path stroke="#6b93c7" stroke-width="3" d="M61.44 27.18c-1.5 15 5 32 16 41"/><path fill="#c1dcff" d="m41.87 73.45 12.57-3.77 8.77 16.2a5.3 5.3 0 0 1-2.41 7.33l-3.06 1.44a5.3 5.3 0 0 1-7.08-2.54z"/><path fill="#84abdd" d="M35.94 48.68c-.13 10.68 2.34 15.97 10 24.5l-10 4-9.5-9v-14.5z"/><path stroke="#6b93c7" stroke-width="3" d="M40.94 75.68c5.8-3.11 9.75-4.33 16-5"/><mask id="crests-pencil-path-10-inside-2_23_13312" fill="#fff"><path fill-rule="evenodd" d="M89.36 72.17c8.88-3.26 11.35-18.75 5.53-34.6-5.83-15.85-17.75-26.05-26.63-22.78-4.35 1.6-7.17 6.15-8.21 12.24C49.7 37.42 41.17 43.9 28.15 50.89a7.6 7.6 0 0 0-4.1 6.04c-.6 8.47 1.44 13.63 6.96 19.35 2.25 2.35 5.8 2.71 8.78 1.39l1.06-.47 7.9 16.75a5.3 5.3 0 0 0 7.07 2.53l6.82-3.21a5.3 5.3 0 0 0 2.54-7.08l-6.84-14.5c5.94-1.16 11.97-1.7 18.82-2 4.15 2.83 8.45 3.86 12.2 2.48" clip-rule="evenodd"/></mask><path fill="#40396e" d="M89.36 72.17 90.4 75zM68.26 14.8l-1.03-2.82zm-8.21 12.24 2.12 2.11.67-.67.16-.94zM28.15 50.9l-1.41-2.64zm-4.1 6.04 2.99.2zM31 76.28l-2.17 2.09zm8.78 1.39L41 80.4zm1.06-.47 2.71-1.28-1.24-2.63-2.66 1.16zm7.9 16.75 2.71-1.28zm7.07 2.53-1.28-2.7zm6.82-3.21 1.28 2.71zm2.54-7.08 2.71-1.28zm-6.84-14.5-.58-2.93-3.77.74 1.64 3.48zm18.82-2 1.7-2.48-.83-.57-1 .04zM94.9 37.56l-2.82 1.04c2.77 7.53 3.5 14.84 2.6 20.5-.92 5.78-3.38 9.16-6.34 10.25l1.03 2.81L90.4 75c5.91-2.18 9.12-8.18 10.2-14.93 1.1-6.85.16-15.21-2.9-23.53zM68.26 14.79l1.04 2.81c2.96-1.09 7.02-.11 11.47 3.7 4.36 3.72 8.53 9.77 11.3 17.3l2.82-1.03 2.81-1.04c-3.06-8.3-7.76-15.28-13.03-19.8-5.2-4.44-11.53-6.93-17.44-4.76zm-8.21 12.24 2.95.5c.96-5.6 3.39-8.86 6.3-9.93l-1.04-2.81-1.03-2.82c-5.8 2.14-9 7.96-10.14 14.55zm0 0-2.13-2.12C47.77 35.1 39.47 41.4 26.74 48.25l1.42 2.64 1.42 2.65c13.28-7.14 22.05-13.8 32.6-24.4zm-31.9 23.86-1.41-2.64a10.6 10.6 0 0 0-5.69 8.47l3 .2 2.99.22a4.6 4.6 0 0 1 2.54-3.6zm-4.1 6.04-3-.21c-.32 4.52.05 8.38 1.37 11.95 1.31 3.57 3.48 6.64 6.42 9.7l2.17-2.09 2.16-2.08c-2.57-2.66-4.18-5.04-5.12-7.6s-1.3-5.51-1.01-9.46zM31 76.28l-2.17 2.09c3.3 3.43 8.28 3.77 12.17 2.04l-1.22-2.74-1.22-2.74c-2.06.92-4.2.53-5.4-.73zm8.78 1.39L41 80.4l1.03-.45-1.2-2.76-1.18-2.75-1.1.48zm1.06-.47-2.72 1.28 7.9 16.75 2.72-1.28 2.71-1.28-7.9-16.75zm7.9 16.75-2.72 1.28A8.3 8.3 0 0 0 57.1 99.2l-1.28-2.72-1.28-2.7a2.3 2.3 0 0 1-3.08-1.11zm7.07 2.53 1.28 2.72 6.82-3.22-1.28-2.71-1.28-2.72-6.82 3.22zm6.82-3.21 1.28 2.71a8.3 8.3 0 0 0 3.97-11.07l-2.71 1.28-2.71 1.28a2.3 2.3 0 0 1-1.1 3.08zm2.54-7.08 2.71-1.28-6.83-14.5-2.72 1.29-2.71 1.28 6.84 14.5zm-6.84-14.5.58 2.95c5.73-1.12 11.6-1.65 18.38-1.96l-.14-3-.14-3c-6.91.32-13.11.87-19.26 2.08zm31.02.48-1.03-2.81c-2.51.92-5.78.38-9.47-2.15l-1.7 2.47-1.7 2.48c4.61 3.15 9.94 4.67 14.94 2.83z" mask="url(#crests-pencil-path-10-inside-2_23_13312)"/><defs><filter id="crests-pencil-filter0_d_23_13312" width="87.3" height="96.11" x="18.54" y="9.35" color-interpolation-filters="sRGB" filterUnits="userSpaceOnUse"><feFlood flood-opacity="0" result="BackgroundImageFix"/><feColorMatrix in="SourceAlpha" result="hardAlpha" values="0 0 0 0 0 0 0 0 0 0 0 0 0 0 0 0 0 0 127 0"/><feOffset dx="3" dy="3"/><feComposite in2="hardAlpha" operator="out"/><feColorMatrix values="0 0 0 0 0 0 0 0 0 0 0 0 0 0 0 0 0 0 0.4 0"/><feBlend in2="BackgroundImageFix" result="effect1_dropShadow_23_13312"/><feBlend in="SourceGraphic" in2="effect1_dropShadow_23_13312" result="shape"/></filter></defs></svg>