<svg xmlns="http://www.w3.org/2000/svg" fill="none" viewBox="0 0 115 115"><g filter="url(#crests-people-and-ops-filter0_d_23_818)"><path fill="#fff" d="M14 96.97v-68.5a4 4 0 0 1 4-4h2s2.5-8.5 9.5-10c6.5-1.4 11 1.5 11 1.5s3.38-.98 5.5-1.5c3.65-.89 9 1.5 9 1.5s6.27-3.05 13-1.5c6.5 1.5 10 10 10 10h1a4 4 0 0 1 4 4v29c7.76 4.64 9 8.81 7 18.5l4.45 4.05a20 20 0 0 1 6.55 14.8v2.15a4 4 0 0 1-4 4H18a4 4 0 0 1-4-4"/></g><mask id="crests-people-and-ops-path-2-inside-1_23_818" fill="#fff"><path d="M77.5 27.97a2 2 0 0 1 2 2V59.4a11 11 0 0 1 5.42 17.65A21.7 21.7 0 0 1 97.15 92.9c.39 2.17-1.44 3.98-3.64 3.98l-15.53.04a2 2 0 0 1-.48.06h-58a2 2 0 0 1-2-2v-65c0-1.1.9-2 2-2z"/></mask><path fill="#fff" d="M77.5 27.97a2 2 0 0 1 2 2V59.4a11 11 0 0 1 5.42 17.65A21.7 21.7 0 0 1 97.15 92.9c.39 2.17-1.44 3.98-3.64 3.98l-15.53.04a2 2 0 0 1-.48.06h-58a2 2 0 0 1-2-2v-65c0-1.1.9-2 2-2z"/><path fill="#40396e" d="M79.5 59.39h-3v2.27l2.18.61zm5.42 17.65-2.3-1.93-2.51 3 3.55 1.65zM97.15 92.9l2.95-.53zm-3.64 3.98v3zm-15.53.04v-3h-.37l-.35.09zm-58.48.06v3zm0-69v-3zm58 0v3a1 1 0 0 1-1-1h6a5 5 0 0 0-5-5zm2 2h-3V59.4h6V29.97zm0 29.42-.82 2.88a8 8 0 0 1 5.82 7.7h6A14 14 0 0 0 80.32 56.5zm8 10.58h-3c0 1.96-.7 3.75-1.87 5.14l2.3 1.93 2.3 1.93a14 14 0 0 0 3.27-9zm-2.58 7.07-1.26 2.72A18.7 18.7 0 0 1 94.2 93.42l2.95-.53 2.95-.53a24.7 24.7 0 0 0-13.9-18.04zM97.15 92.9l-2.95.53v.1l-.08.11a1 1 0 0 1-.62.24l.01 3v3c3.69 0 7.38-3.14 6.6-7.5zm-3.64 3.98v-3l-15.54.04v3l.02 3 15.53-.04zm-15.53.04L77.26 94q.07-.02.24-.03v6a5 5 0 0 0 1.2-.15zm-.48.06v-3h-58v6h58zm-58 0v-3a1 1 0 0 1 1 1h-6a5 5 0 0 0 5 5zm-2-2h3v-65h-6v65zm0-65h3a1 1 0 0 1-1 1v-6a5 5 0 0 0-5 5zm2-2v3h58v-6h-58z" mask="url(#crests-people-and-ops-path-2-inside-1_23_818)"/><path fill="#f4a22d" stroke="#b57d43" stroke-width="3" d="M75.5 76.47a20.3 20.3 0 0 1 20.17 16.69c.2 1.07-.7 2.2-2.16 2.21l-36 .1c-1.48 0-2.37-1.15-2.18-2.22A20.4 20.4 0 0 1 75.5 76.47Z"/><circle cx="76.5" cy="69.97" r="9.5" fill="#f4a22d" stroke="#b57d43" stroke-width="3"/><mask id="crests-people-and-ops-path-6-inside-2_23_818" fill="#fff"><path d="M77.5 27.97a2 2 0 0 1 2 2V59.4a11 11 0 0 1 5.42 17.65A21.7 21.7 0 0 1 97.15 92.9c.39 2.17-1.44 3.98-3.64 3.98l-15.53.04a2 2 0 0 1-.48.06h-58a2 2 0 0 1-2-2v-65c0-1.1.9-2 2-2z"/></mask><path fill="#40396e" d="M79.5 59.39h-3v2.27l2.18.61zm5.42 17.65-2.3-1.93-2.51 3 3.55 1.65zM97.15 92.9l2.95-.53zm-3.64 3.98v3zm-15.53.04v-3h-.37l-.35.09zm-58.48.06v3zm0-69v-3zm58 0v3a1 1 0 0 1-1-1h6a5 5 0 0 0-5-5zm2 2h-3V59.4h6V29.97zm0 29.42-.82 2.88a8 8 0 0 1 5.82 7.7h6A14 14 0 0 0 80.32 56.5zm8 10.58h-3c0 1.96-.7 3.75-1.87 5.14l2.3 1.93 2.3 1.93a14 14 0 0 0 3.27-9zm-2.58 7.07-1.26 2.72A18.7 18.7 0 0 1 94.2 93.42l2.95-.53 2.95-.53a24.7 24.7 0 0 0-13.9-18.04zM97.15 92.9l-2.95.53v.1l-.08.11a1 1 0 0 1-.62.24l.01 3v3c3.69 0 7.38-3.14 6.6-7.5zm-3.64 3.98v-3l-15.54.04v3l.02 3 15.53-.04zm-15.53.04L77.26 94q.07-.02.24-.03v6a5 5 0 0 0 1.2-.15zm-.48.06v-3h-58v6h58zm-58 0v-3a1 1 0 0 1 1 1h-6a5 5 0 0 0 5 5zm-2-2h3v-65h-6v65zm0-65h3a1 1 0 0 1-1 1v-6a5 5 0 0 0-5 5zm2-2v3h58v-6h-58z" mask="url(#crests-people-and-ops-path-6-inside-2_23_818)"/><path fill="#c1dcff" stroke="#40396e" stroke-width="3" d="M65.97 39.55A10.5 10.5 0 1 0 52.5 29.47h6A4.5 4.5 0 1 1 65.79 33c-1.3 1.03-2.79 2.32-2.79 3.98 0 1.65 1.37 3.04 2.97 2.57Z"/><path fill="#c1dcff" stroke="#40396e" stroke-width="3" d="M50.97 39.55A10.5 10.5 0 1 0 37.5 29.47h6A4.5 4.5 0 1 1 50.79 33c-1.3 1.03-2.79 2.32-2.79 3.98 0 1.65 1.37 3.04 2.97 2.57Z"/><path fill="#c1dcff" stroke="#40396e" stroke-width="3" d="M36.97 39.55A10.5 10.5 0 1 0 23.5 29.47h6A4.5 4.5 0 1 1 36.79 33c-1.3 1.03-2.79 2.32-2.79 3.98 0 1.65 1.37 3.04 2.97 2.57Z"/><path stroke="#84abdd" stroke-linecap="round" stroke-width="3" d="M31.5 59.99h33.05M31.5 70.63h22.03M31.5 49.97h33.05"/><defs><filter id="crests-people-and-ops-filter0_d_23_818" width="90" height="89.94" x="14" y="14.03" color-interpolation-filters="sRGB" filterUnits="userSpaceOnUse"><feFlood flood-opacity="0" result="BackgroundImageFix"/><feColorMatrix in="SourceAlpha" result="hardAlpha" values="0 0 0 0 0 0 0 0 0 0 0 0 0 0 0 0 0 0 127 0"/><feOffset dx="3" dy="3"/><feComposite in2="hardAlpha" operator="out"/><feColorMatrix values="0 0 0 0 0 0 0 0 0 0 0 0 0 0 0 0 0 0 0.4 0"/><feBlend in2="BackgroundImageFix" result="effect1_dropShadow_23_818"/><feBlend in="SourceGraphic" in2="effect1_dropShadow_23_818" result="shape"/></filter></defs></svg>