<svg xmlns="http://www.w3.org/2000/svg" fill="none" viewBox="0 0 115 115"><g filter="url(#crests-platform-ux-filter0_d_26_8349)"><path fill="#fff" d="m51.7 23.15-3.5-3.75a4 4 0 0 0-5.86.02l-.19.2a4 4 0 0 1-5.83.04l-.3-.32a3.81 3.81 0 0 0-6.57 2.49l-.15 4.14a.9.9 0 0 1-1.23.8.9.9 0 0 0-1.24.89l.35 6.6c.04.81-.6 1.49-1.41 1.49-.82 0-1.47.7-1.4 1.5.61 7.2 2.3 11.62 7.93 17.92a1.8 1.8 0 0 1-.36 2.72 1.76 1.76 0 0 0-.13 2.9l4.27 3.2a3 3 0 0 1 1.1 3.27c-.26.94-.07 1.94.53 2.71l1.7 2.2a4 4 0 0 1 .85 2.45v1.33a4 4 0 0 0 1.98 3.46l1.64.95a4 4 0 0 1 1.93 4.11l-.06.37a4 4 0 0 0 2.15 4.23l2.61 1.3a4 4 0 0 1 2.13 2.8l.34 1.7a4 4 0 0 0 1.36 2.28l1.92 1.6 3.35 2.13a4 4 0 0 0 4.3 0l1.94-1.23a4 4 0 0 1 3.04-.52l2 .46a4 4 0 0 0 4.35-1.88l.86-1.48a4 4 0 0 1 3.46-1.98h.23a4 4 0 0 0 3.58-2.21l.65-1.3a4 4 0 0 1 2.31-2.01l.2-.07a4 4 0 0 0 2.73-3.8v-7.15a4 4 0 0 0-1.54-3.16l-.9-.7a4 4 0 0 1-1.43-4.13l.12-.47a4 4 0 0 0-1.97-4.48l-.7-.38a4 4 0 0 1-2.08-3.51V59.5a4 4 0 0 0-2.56-3.74l-1.8-.7a3.7 3.7 0 0 1-2.37-3.08l-.02-.21a3.4 3.4 0 0 0-2.73-3.02 3.4 3.4 0 0 1-2.73-3.06l-.52-6.16a1.75 1.75 0 0 0-2.84-1.23c-1.06.86-2.67.21-3.03-1.1-1.28-4.73-3.97-7.86-7.86-13.64a1 1 0 0 0-1.35-.27c-.4.27-.93.2-1.25-.14"/></g><path fill="#8db464" stroke="#577f2e" stroke-width="3" d="M33.02 34.56q.83.24 1.88.64c2.1.84 4.54 2.22 6.28 4.4a20 20 0 0 1 3.67 6.7c.28.96.35 1.73.3 2.29-.06.54-.23.75-.33.83s-.35.2-.89.13a6 6 0 0 1-2.17-.8 20 20 0 0 1-5.67-5.1 15 15 0 0 1-2.87-7.11q-.15-1.12-.2-1.98Z"/><path fill="#eda840" stroke="#c37f19" stroke-width="3" d="m62.37 54.48 5.95-1.17.7 2.99c.17.7.63 1.3 1.28 1.64l4.88 2.55-.1 4.14a2.5 2.5 0 0 0 .95 2.02l2.94 2.34-.47 4.06c-.1.87.26 1.73.96 2.26l3.63 2.82-.06 4.8-2.44 1.43a2.5 2.5 0 0 0-.99 1.06l-.08.2-1.17 3.02-3.48-.2a2.5 2.5 0 0 0-2.35 1.32l-.08.18-1.29 2.93-3.55-.35h-.2q-.69-.02-1.3.33l-3.33 1.95-3.7-2.55-.95-4.52a2.5 2.5 0 0 0-1.6-1.83l-3.84-1.38.1-3.88a2.5 2.5 0 0 0-1.34-2.26l-3.56-1.9.17-5.45A2.5 2.5 0 0 0 47.1 69l-2.36-1.88 4.15-4.73z"/><path fill="#8db464" stroke="#577f2e" stroke-width="3" d="M32.1 42.4q1 .3 2.25.8a29 29 0 0 1 9.33 5.9 40 40 0 0 1 6.92 8.57q1.04 1.89 1.26 3.03c.1.58.03.81 0 .87-.05.03-.28.11-.87.02q-1.14-.18-3.06-1.17a40 40 0 0 1-8.78-6.66c-3-2.91-4.96-6.38-6.17-9.14q-.54-1.24-.88-2.23Zm2.82-17.11q.85.6 1.88 1.48a29 29 0 0 1 6.97 8.55c2 3.85 3.31 7.52 3.85 10.32q.4 2.12.23 3.27c-.07.6-.22.79-.26.83-.06.01-.3.02-.83-.26a11 11 0 0 1-2.54-2.07A40 40 0 0 1 38 38.3a29 29 0 0 1-2.96-10.63q-.12-1.35-.13-2.4Zm16.58 6.44q.72.75 1.57 1.8a29 29 0 0 1 5.28 9.69 40 40 0 0 1 1.88 10.85q-.01 2.16-.38 3.26c-.18.57-.36.73-.41.77-.06 0-.3-.04-.77-.41q-.92-.7-2.11-2.51a40 40 0 0 1-4.43-10.1c-1.2-4-1.23-7.97-.94-10.98q.13-1.36.31-2.37Z"/><path fill="#8db464" stroke="#577f2e" stroke-width="3" d="M44.18 25.01q.71.76 1.57 1.8a29 29 0 0 1 5.28 9.7c1.25 4.14 1.86 8 1.88 10.85q-.01 2.16-.38 3.26c-.19.56-.36.73-.41.76-.07 0-.3-.04-.77-.4q-.92-.71-2.12-2.52a40 40 0 0 1-4.42-10.09 29 29 0 0 1-.95-10.99q.14-1.34.32-2.37Z"/><path stroke="#c37f19" stroke-linecap="round" stroke-linejoin="round" stroke-width="3" d="m54.82 61.04 4.1 1.1-.6 3.63m7.16 15.48 4.12 1.39-.54 4.34m-8.05-4.28-3.76-1.02.18-4.03m-.86-4.2-3.76-1.03.18-4.03m26.75 16.7-3.76-1.03.18-4.03m-9.33 12.45-3.76-1.03.19-4.03"/><path fill="#8db464" stroke="#577f2e" stroke-width="3" d="M44.92 46.2q.84.23 1.89.65c2.08.83 4.53 2.21 6.27 4.4a20 20 0 0 1 3.68 6.69q.4 1.46.29 2.3c-.06.54-.23.75-.33.83s-.34.2-.89.13a6 6 0 0 1-2.16-.8 20 20 0 0 1-5.68-5.1 15 15 0 0 1-2.86-7.12q-.17-1.12-.2-1.98Z"/><path fill="#8db464" stroke="#577f2e" stroke-width="3" d="M40.3 60.22q.56-.33 1.28-.69a12.5 12.5 0 0 1 6.3-1.37c2.54.2 4.74.82 6.23 1.6q1.12.6 1.54 1.12c.28.34.29.53.28.6 0 .05-.04.24-.37.53q-.5.45-1.7.86c-1.6.54-3.86.8-6.4.6a12.5 12.5 0 0 1-6-2.37q-.66-.46-1.16-.88ZM63.21 46.1q-.56.33-1.22.79a12.5 12.5 0 0 0-4.26 4.84 17 17 0 0 0-1.61 6.23q-.02 1.26.24 1.89c.15.4.31.5.37.53s.24.09.65-.07q.64-.22 1.58-1.06a17 17 0 0 0 3.62-5.32c.97-2.13 1.05-4.49.85-6.4q-.1-.78-.22-1.43Z"/><path stroke="#c37f19" stroke-linecap="round" stroke-linejoin="round" stroke-width="3" d="m63.88 61.31 4.12 1.4-.54 4.33m1.2 3.92 4.1 1.1-.6 3.64M60.6 70.6l3.14 1.47-.33 4.33"/><path stroke="#40396e" stroke-linecap="round" stroke-width="3" d="m69.2 56.7-.31-2.81a1 1 0 0 0-1.24-.86l-3.19.8c-.75.18-1.42-.52-1.24-1.28.53-2.3.6-4.25.04-6.8-1.5 1-2.5 2-3.5 3-1.5-7.5-3.5-12-8.5-17.5l-1 2c-1.87-3.65-3.08-5.52-6-8.5-.88 3.33-1 5.18-1 8.5-3-3.76-4.8-5.74-8.5-8.5-.08 4.3.5 6.71 2 11l-4-1.5c-.17 3.73 1.3 6.12 3 9.5l-4-1.5c1.4 4.44 3.22 6.65 5.96 10.44l.09.11a37 37 0 0 0 4.67 4.18c.68.52.5 1.63-.29 1.98-.77.34-1.49.75-2.43 1.29 1.94 1.55 3.3 2.43 5.2 3.04.76.24 1.05 1.2.49 1.77l-.87.87a1 1 0 0 0 .1 1.51l2.68 2.01a1 1 0 0 1 .4.8v5.88a1 1 0 0 0 .55.9l3.84 1.91a1 1 0 0 1 .55.99l-.36 3.99a1 1 0 0 0 .73 1.05l4.06 1.1a1 1 0 0 1 .73.82l.84 5.44a1 1 0 0 0 .4.67l2.62 1.86a1 1 0 0 0 1.1.04l3.15-1.97a1 1 0 0 1 .63-.15l3.94.4a1 1 0 0 0 1.01-.6L73 89.35a1 1 0 0 1 .91-.59h4.16a1 1 0 0 0 .93-.65l1.12-2.98a1 1 0 0 1 .5-.55l2.09-1.04a1 1 0 0 0 .55-.9v-3.9a1 1 0 0 0-.38-.78l-4.15-3.33a1 1 0 0 1-.36-.96l.77-4.24a1 1 0 0 0-.45-1.03l-2.96-1.85a1 1 0 0 1-.47-.84v-4.83a1 1 0 0 0-.55-.9l-4.96-2.48a1 1 0 0 1-.55-.78Z"/><defs><filter id="crests-platform-ux-filter0_d_26_8349" width="67.89" height="86.38" x="24.37" y="18.13" color-interpolation-filters="sRGB" filterUnits="userSpaceOnUse"><feFlood flood-opacity="0" result="BackgroundImageFix"/><feColorMatrix in="SourceAlpha" result="hardAlpha" values="0 0 0 0 0 0 0 0 0 0 0 0 0 0 0 0 0 0 127 0"/><feOffset dx="3" dy="3"/><feComposite in2="hardAlpha" operator="out"/><feColorMatrix values="0 0 0 0 0 0 0 0 0 0 0 0 0 0 0 0 0 0 0.4 0"/><feBlend in2="BackgroundImageFix" result="effect1_dropShadow_26_8349"/><feBlend in="SourceGraphic" in2="effect1_dropShadow_26_8349" result="shape"/></filter></defs></svg>