<svg xmlns="http://www.w3.org/2000/svg" fill="none" viewBox="0 0 115 115"><g filter="url(#crests-platform-features-filter0_d_26_10867)"><path fill="#fff" d="M10.25 102.25v-89.5a6 6 0 0 1 6-6h63a6 6 0 0 1 6 6v2.5l13.68 8.36a6 6 0 0 1 2.44 7.35l-.12.29.4.28a6 6 0 0 1 2.4 5.98l-.98 5.33a6 6 0 0 1-5.28 4.88l-3.25.34a2 2 0 0 0-1.79 1.99v10.2a6 6 0 0 1-6 6h-33.5a6 6 0 0 1-6-6v-9.5a2.5 2.5 0 0 0-5 0v19.5a6 6 0 0 0 6 6h49a6 6 0 0 1 6 6v20a6 6 0 0 1-6 6h-81a6 6 0 0 1-6-6"/></g><path fill="#dbcac0" d="M55.75 40.25a1.5 1.5 0 0 1 3 0v16a1.5 1.5 0 0 1-3 0zm27 0a1.5 1.5 0 0 1 3 0v15a1.5 1.5 0 0 1-3 0z"/><rect width="30" height="10" x="55.75" y="50.75" fill="#90abce" rx="1"/><path fill="#658048" d="M78.17 19.75a3 3 0 0 1 1.69.52l14.2 9.65a1 1 0 0 1-.56 1.83H15.75v-9a3 3 0 0 1 3-3z"/><path fill="#90abce" d="M17.75 88.75a1 1 0 0 1-1-1v-47a3 3 0 0 1 3-3h13a3 3 0 0 1 3 3v45a3 3 0 0 1-3 3z"/><path fill="#4d6237" d="M93.75 33.75a3 3 0 0 1 3 3v1a3 3 0 0 1-3 3h-76v-7z"/><path fill="#90abce" d="M75.75 12.75a3 3 0 0 1 0 6h-58v-3a3 3 0 0 1 3-3z"/><path stroke="#3e5228" stroke-width="3.27" d="M15.75 18.75h64m-62 14h76m-76 9h76"/><path stroke="#506b8e" stroke-width="3.27" d="M53.75 49.75h34"/><path stroke="#7d5f4e" stroke-width="3.27" d="M17.75 82.75h76"/><mask id="crests-platform-features-path-14-inside-1_26_10867" fill="#fff"><path d="M75.75 10.48a5.27 5.27 0 0 1 5.05 6.77q.32.17.61.38l13.65 9.63.16.12a4.2 4.2 0 0 1 1.24 5.2A6.01 6.01 0 0 1 93 43.51h-3.98v14.23c0 3.46-2.8 6.27-6.27 6.27h-24a6.27 6.27 0 0 1-6.27-6.27V43.52H38.02v36.96h55.23a5.77 5.77 0 0 1 5.77 5.77v11.5c0 3.46-2.8 6.27-6.27 6.27h-72a6.27 6.27 0 0 1-6.27-6.27v-76q0-.38.04-.73h-.04v-4.27c0-3.46 2.8-6.27 6.27-6.27zm-13.73 38h17.46v-4.96H62.02z"/></mask><path fill="#40396e" d="M75.75 10.48V7.21zm5.27 5.27h3.27zm-.22 1.5-3.13-.93-.75 2.53 2.32 1.27zm.61.38 1.89-2.67zm13.65 9.63L97 24.62l-.02-.01-.02-.02zm.16.12 1.99-2.6-.03-.02-.03-.02zm1.24 5.2-2.97-1.39-1.15 2.48 2.24 1.58zm2.56 4.92h3.27zM93 43.52v3.27zm-3.98 0v-3.27h-3.27v3.27zm-30.27 20.5v3.27zm-6.27-20.5h3.27v-3.27h-3.27zm-14.46 0v-3.27h-3.27v3.27zm0 36.96h-3.27v3.27h3.27zm55.23 0v-3.27zm5.77 5.77h3.27zm0 .24-3.27-.13-.01.13v.13zm-78.27 17.53v3.27zm-6.27-82.27h-3.27zm.04-.73 3.25.38.43-3.65h-3.68zm-.04 0h-3.27v3.27h3.27zm0-4.27h-3.27zm6.27-6.27V7.21zm41.27 38h-3.27v3.27h3.27zm17.46 0v3.27h3.27v-3.27zm0-4.96h3.27v-3.27h-3.27zm-17.46 0v-3.27h-3.27v3.27zm13.73-33.04v3.27a2 2 0 0 1 2 2h6.54a8.54 8.54 0 0 0-8.54-8.54zm5.27 5.27h-3.27a2 2 0 0 1-.08.57l3.13.93 3.14.92q.34-1.14.35-2.42zm-.22 1.5-1.56 2.87q.15.08.29.18l1.88-2.67 1.89-2.67q-.45-.33-.93-.58zm.61.38-1.88 2.67 13.65 9.63 1.88-2.67 1.89-2.67-13.65-9.63zm13.65 9.63-1.93 2.64.16.12 1.93-2.64 1.93-2.64-.16-.12zm.16.12-2 2.59c.24.18.33.37.37.54q.06.32-.1.68l2.97 1.38 2.96 1.39a7.5 7.5 0 0 0-2.21-9.18zm1.24 5.2-1.88 2.67c.71.5 1.17 1.32 1.17 2.25h6.54a9.3 9.3 0 0 0-3.95-7.6zm2.56 4.92h-3.27A2.75 2.75 0 0 1 93 40.25v6.54a9.3 9.3 0 0 0 9.29-9.29zM93 43.52v-3.27h-3.98v6.54H93zm-3.98 0h-3.27v14.23h6.54V43.52zm0 14.23h-3.27a3 3 0 0 1-3 3v6.54a9.54 9.54 0 0 0 9.54-9.54zm-6.27 6.27v-3.27h-24v6.54h24zm-24 0v-3.27a3 3 0 0 1-3-3h-6.54a9.54 9.54 0 0 0 9.54 9.54zm-6.27-6.27h3.27V43.52h-6.54v14.23zm0-14.23v-3.27H38.02v6.54h14.46zm-14.46 0h-3.27v36.96h6.54V43.52zm0 36.96v3.27h55.23v-6.54H38.02zm55.23 0v3.27a2.5 2.5 0 0 1 2.5 2.5h6.54c0-5-4.05-9.04-9.04-9.04zm5.77 5.77h-3.27v.11l3.26.13 3.27.13.01-.37zm0 .24-3.27.13v.13h6.54l-.01-.4zm0 .26h-3.27v11h6.54v-11zm0 11h-3.27a3 3 0 0 1-3 3v6.54a9.54 9.54 0 0 0 9.54-9.54zm-6.27 6.27v-3.27h-72v6.54h72zm-72 0v-3.27a3 3 0 0 1-3-3h-6.54a9.54 9.54 0 0 0 9.54 9.54zm-6.27-6.27h3.27v-76h-6.54v76zm0-76h3.27l.02-.35-3.25-.38-3.24-.38a10 10 0 0 0-.07 1.11zm.04-.73v-3.27h-.04v6.54h.04zm-.04 0h3.27v-4.27h-6.54v4.27zm0-4.27h3.27a3 3 0 0 1 3-3V7.21a9.54 9.54 0 0 0-9.54 9.54zm6.27-6.27v3.27h55V7.21h-55zm41.27 38v3.27h17.46v-6.54H62.02zm17.46 0h3.27v-4.96h-6.54v4.96zm0-4.96v-3.27H62.02v6.54h17.46zm-17.46 0h-3.27v4.96h6.54v-4.96z" mask="url(#crests-platform-features-path-14-inside-1_26_10867)"/><path fill="#bc7b57" d="M17.75 84.75a1 1 0 0 1 1-1h74a3 3 0 0 1 3 3v11a3 3 0 0 1-3 3h-72a3 3 0 0 1-3-3z"/><path fill="#dbcac0" d="M93.25 83.75a2.5 2.5 0 0 1 0 5h-75.5v-5z"/><defs><filter id="crests-platform-features-filter0_d_26_10867" width="96.91" height="104.5" x="10.25" y="6.75" color-interpolation-filters="sRGB" filterUnits="userSpaceOnUse"><feFlood flood-opacity="0" result="BackgroundImageFix"/><feColorMatrix in="SourceAlpha" result="hardAlpha" values="0 0 0 0 0 0 0 0 0 0 0 0 0 0 0 0 0 0 127 0"/><feOffset dx="3" dy="3"/><feComposite in2="hardAlpha" operator="out"/><feColorMatrix values="0 0 0 0 0 0 0 0 0 0 0 0 0 0 0 0 0 0 0.4 0"/><feBlend in2="BackgroundImageFix" result="effect1_dropShadow_26_10867"/><feBlend in="SourceGraphic" in2="effect1_dropShadow_26_10867" result="shape"/></filter></defs></svg>