<svg xmlns="http://www.w3.org/2000/svg" fill="none" viewBox="0 0 115 115"><mask id="crests-posthog-code-path-1-outside-1_26_7475" width="96" height="82" x="9.75" y="16.39" fill="#000" maskUnits="userSpaceOnUse"><path fill="#fff" d="M9.75 16.39h96v82h-96z"/><path d="M98.87 19.4q.44 0 .84.1h1.17c.7 0 1.26.57 1.26 1.27v1.17q.1.4.1.84v9.16q0 .45-.1.85V76.6c0 .7-.56 1.27-1.27 1.27H72.54l-.03.04-.06.05-.22.24-.05.06a9 9 0 0 1-.84.75l-.14.1-.15.12-.34.23-.08.05-.23.14-.06.03q-.96.55-2.1.8c-.42 4.11-2.27 7.37-4.87 9.33a9.7 9.7 0 0 1-9.18 1.48q-5.27 4.44-10.29 4.3c-3.33-.1-6.35-1.7-9.13-4.33-3.46.94-6.96.49-9.65-1.43-2.2-1.57-3.73-4.05-4.24-7.26a15 15 0 0 1-.2-2.07 8.4 8.4 0 0 1-5.25-3.55 14 14 0 0 1-2.35-5.67q-.2-1.02-.28-2.05v-.06c-.2-2.8.3-5.73 1.72-8.16a10.2 10.2 0 0 1 6.2-4.77q.09-1.65.43-3.1l.02-.06q.14-.55.31-1.09l.03-.09.14-.37.08-.22.38-.86.06-.11.2-.4.07-.12.17-.29.08-.13.23-.35.07-.1.24-.34.1-.13q.14-.15.26-.32l.05-.05.24-.27.08-.08a10 10 0 0 1 6.9-3.06l.5-.01V32.78q-.1-.4-.1-.84v-9.16q0-.44.1-.84v-1.17c0-.7.57-1.27 1.27-1.27h1.16q.41-.1.85-.1z"/></mask><path fill="#fff" d="M98.87 19.4q.44 0 .84.1h1.17c.7 0 1.26.57 1.26 1.27v1.17q.1.4.1.84v9.16q0 .45-.1.85V76.6c0 .7-.56 1.27-1.27 1.27H72.54l-.03.04-.06.05-.22.24-.05.06a9 9 0 0 1-.84.75l-.14.1-.15.12-.34.23-.08.05-.23.14-.06.03q-.96.55-2.1.8c-.42 4.11-2.27 7.37-4.87 9.33a9.7 9.7 0 0 1-9.18 1.48q-5.27 4.44-10.29 4.3c-3.33-.1-6.35-1.7-9.13-4.33-3.46.94-6.96.49-9.65-1.43-2.2-1.57-3.73-4.05-4.24-7.26a15 15 0 0 1-.2-2.07 8.4 8.4 0 0 1-5.25-3.55 14 14 0 0 1-2.35-5.67q-.2-1.02-.28-2.05v-.06c-.2-2.8.3-5.73 1.72-8.16a10.2 10.2 0 0 1 6.2-4.77q.09-1.65.43-3.1l.02-.06q.14-.55.31-1.09l.03-.09.14-.37.08-.22.38-.86.06-.11.2-.4.07-.12.17-.29.08-.13.23-.35.07-.1.24-.34.1-.13q.14-.15.26-.32l.05-.05.24-.27.08-.08a10 10 0 0 1 6.9-3.06l.5-.01V32.78q-.1-.4-.1-.84v-9.16q0-.44.1-.84v-1.17c0-.7.57-1.27 1.27-1.27h1.16q.41-.1.85-.1z"/><path fill="#fff" d="M98.87 19.4v-2.54zm.84.1-.63 2.46q.3.08.63.08zm2.43 2.44h-2.53q0 .3.08.63zm.1.84h2.55zm-.1 10-2.45-.62q-.09.3-.08.63zm0 43.83h2.54zm-29.61 1.27v-2.53c-.73 0-1.42.3-1.9.85zm-.03.04 1.89 1.69zm-.06.05-1.87-1.7zm-.22.24-1.82-1.76zm-.05.06 1.8 1.78zm-.56.52-1.65-1.93zm-.12.1 1.62 1.95zm-.16.13-1.57-2zm-.14.1 1.53 2.03zm-.15.12-1.48-2.07zm-.34.23 1.37 2.13zm-.08.05-1.35-2.15zm-.23.14 1.27 2.2zm-.06.03-1.25-2.2zm-2.1.8-.5-2.5a2.5 2.5 0 0 0-2.01 2.23zm-4.87 9.33 1.52 2.03zm-9.18 1.48.84-2.4a2.5 2.5 0 0 0-2.47.46zM43.9 95.6l-.08 2.54zm-9.13-4.33 1.74-1.84a2.5 2.5 0 0 0-2.41-.6zm-9.65-1.43-1.47 2.07zm-4.24-7.26 2.5-.4zm-.1-.65-2.51.3zm-.04-.5 2.52-.22zm-.04-.57-2.53.12zm-.01-.35 2.53-.07a2.54 2.54 0 0 0-2.09-2.43zm-5.26-3.55-2.06 1.48zm-2.17-4.85 2.46-.61zm-.18-.82-2.5.48zm-.28-2.05-2.53.18zm0-.06 2.53-.17zm1.72-8.16-2.19-1.27zm6.2-4.77.68 2.44a2.5 2.5 0 0 0 1.85-2.31zm.43-3.1 2.47.6zm.02-.06-2.47-.6zm.31-1.09 2.4.8zm.03-.09-2.4-.82zm.14-.37 2.37.88zm.08-.22-2.36-.93zm.13-.32 2.33 1zm.06-.15-2.31-1.02zm.19-.4 2.28 1.12zm.06-.1-2.27-1.14zm.2-.4 2.23 1.22zm.07-.12-2.21-1.24zm.17-.29 2.17 1.32zm.08-.13-2.15-1.34zm.23-.35 2.1 1.43zm.07-.1-2.07-1.46zm.24-.34 2.02 1.54zm.1-.13-1.99-1.57zm.26-.32 1.93 1.65zm.05-.05-1.91-1.66zm.24-.27 1.86 1.73zm.08-.08-1.84-1.75zm6.1-3-.3-2.51zm.31-.02.23 2.52zm.3-.03-.16-2.53zm.19 0 .13 2.53zm.43-.02-.04-2.54zm.07 0 .02 2.53a2.54 2.54 0 0 0 2.52-2.53zm0-11.92h2.54q0-.32-.08-.62zm-.1-10H28.7zm.1-.84 2.46.63q.08-.3.08-.63zm1.27-2.44v-2.54zm1.16 0v2.54q.33 0 .64-.08zm.85-.1v-2.54zm64.24 0v2.53l.21.03.63-2.46.63-2.46a6 6 0 0 0-1.47-.18zm.84.1v2.54h1.17v-5.08H99.7zm1.17 0v2.54c-.7 0-1.27-.57-1.27-1.27h5.07c0-2.1-1.7-3.8-3.8-3.8zm1.26 1.27h-2.53v1.17h5.07v-1.17zm0 1.17-2.45.63.02.2h5.08q0-.75-.19-1.46zm.1.84h-2.53v9.16h5.08v-9.16zm0 9.16h-2.53q0 .12-.02.22l2.45.63 2.46.62q.19-.7.19-1.47zm-.1.85h-2.53V76.6h5.07V32.8zm0 43.82h-2.53c0-.7.56-1.26 1.27-1.26v5.07c2.1 0 3.8-1.7 3.8-3.8zm-1.27 1.27v-2.53H72.54v5.07h28.35zm-28.34 0-1.9-1.68.02-.02-.01.01-.04.04 1.9 1.69 1.89 1.69-.02.02.02-.03.04-.04zm-.03.04-1.9-1.7-.01.02-.02.03 1.87 1.7 1.88 1.7h.02q.01-.03.05-.06zm-.06.05-1.87-1.7-.17.18 1.82 1.76 1.82 1.77.28-.3zm-.22.24-1.82-1.76.01-.02-.05.06 1.8 1.78 1.81 1.78.07-.07zm-.05.06-1.8-1.78-.41.37 1.65 1.93 1.65 1.92q.36-.3.71-.66zm-.56.52-1.65-1.93-.08.07 1.61 1.95 1.62 1.96.15-.13zm-.12.1-1.61-1.96-.12.1 1.57 1.99 1.57 2 .2-.18zm-.16.13-1.57-2-.1.08 1.53 2.02 1.53 2.03.18-.14zm-.14.1-1.52-2.02-.11.07 1.48 2.07 1.47 2.06.2-.15zm-.15.12-1.48-2.06-.23.15 1.37 2.14 1.37 2.13.45-.3zm-.34.23-1.37-2.14-.04.03h-.01l-.01.01 1.35 2.15 1.34 2.15.1-.06.01-.01zm-.08.05-1.35-2.15-.15.1 1.27 2.19 1.27 2.2.3-.19zm-.23.14-1.27-2.2-.05.03h-.01l-.01.01.03-.02 1.25 2.2 1.25 2.21q.04 0 .06-.03l.03-.02-.01.01zm-.06.03-1.25-2.2q-.65.36-1.35.5l.5 2.5.52 2.48a10 10 0 0 0 2.84-1.08zm-2.1.8-2.51-.27c-.37 3.51-1.91 6.09-3.89 7.58l1.53 2.02 1.52 2.03c3.24-2.44 5.39-6.37 5.88-11.1zm-4.87 9.33-1.53-2.02a7.2 7.2 0 0 1-6.81 1.1l-.84 2.4-.83 2.4a12.3 12.3 0 0 0 11.53-1.85zm-9.18 1.48-1.63-1.94c-3.23 2.71-6.05 3.78-8.58 3.7l-.08 2.54-.08 2.54c4.2.12 8.2-1.7 12-4.9zM43.9 95.6l.08-2.54q-3.74-.1-7.47-3.64l-1.74 1.85-1.74 1.85c3.06 2.88 6.64 4.9 10.8 5.02zm-9.13-4.33-.67-2.45c-2.85.78-5.54.36-7.5-1.04l-1.48 2.06-1.47 2.07c3.4 2.43 7.72 2.91 11.78 1.8zm-9.65-1.43 1.48-2.06c-1.6-1.14-2.8-2.99-3.22-5.6l-2.5.4-2.5.4c.6 3.81 2.45 6.91 5.27 8.93zm-4.24-7.26 2.5-.4-.07-.54-2.52.29-2.52.3.1.75zm-.1-.65 2.53-.3-.05-.42-2.52.21-2.53.21.06.6zm-.04-.5 2.52-.22-.03-.47-2.53.12-2.53.12q0 .33.04.65zm-.04-.57 2.53-.12v-.3l-2.54.07-2.54.07.02.4zm-.01-.35.44-2.5a6 6 0 0 1-3.64-2.53l-2.06 1.48-2.06 1.48a11 11 0 0 0 6.87 4.57zm-5.26-3.55 2.06-1.48a12 12 0 0 1-1.77-3.98l-2.46.6-2.46.62c.5 2.05 1.36 4.03 2.57 5.72zm-2.17-4.85 2.46-.61-.15-.7-2.5.49-2.48.48.2.95zm-.18-.82 2.49-.49q-.18-.87-.24-1.74l-2.53.18-2.53.18q.1 1.2.32 2.35zm-.28-2.05 2.53-.18V69l-2.53.17-2.53.17v.07zm0-.06 2.53-.17c-.16-2.41.28-4.81 1.39-6.7l-2.2-1.29-2.19-1.27a17 17 0 0 0-2.06 9.6zm1.72-8.16 2.2 1.28c.98-1.7 2.5-3 4.68-3.6l-.68-2.45-.68-2.45a12.7 12.7 0 0 0-7.7 5.95zm6.2-4.77 2.53.13q.08-1.43.37-2.63l-2.47-.6-2.46-.59a19 19 0 0 0-.5 3.56zm.43-3.1 2.47.6.01-.04v-.03.02l-2.46-.6-2.47-.6-.01.07zm.02-.06 2.46.6q.11-.45.26-.89l-2.4-.8-2.42-.8q-.2.63-.37 1.29zm.31-1.09 2.4.8.01-.01.01-.03.02-.03-2.4-.82-2.4-.82-.02.03-.03.09zm.03-.09 2.4.82.11-.3-2.37-.9-2.38-.88-.16.44zm.14-.37 2.37.88.07-.17-2.36-.93-2.36-.93-.1.26zm.08-.22 2.36.93.1-.25-2.33-1-2.33-1-.16.39zm.13-.32 2.33 1 .05-.12-2.32-1.03-2.31-1.02-.08.18zm.06-.15 2.32 1.03.15-.31-2.28-1.11-2.28-1.12-.22.49zm.19-.4 2.28 1.12v-.02l.01-.01.01-.02.02-.04-2.26-1.13-2.27-1.14-.02.04-.05.1zm.06-.1 2.26 1.13.17-.31-2.22-1.23-2.23-1.22-.25.49zm.2-.4 2.23 1.22v-.01l.02-.03.03-.05-2.21-1.24-2.21-1.25-.02.03-.06.1zm.07-.12 2.2 1.25.14-.22-2.17-1.32-2.17-1.31-.21.36zm.17-.29 2.17 1.32.06-.1-2.15-1.35-2.15-1.34-.1.16zm.08-.13 2.15 1.35.18-.27-2.1-1.43-2.1-1.43-.28.44zm.23-.35 2.1 1.43c0-.02 0-.01.05-.08l-2.08-1.46-2.07-1.45-.04.04-.06.09zm.07-.1 2.08 1.45.18-.25-2.02-1.54-2.02-1.53-.3.4zm.24-.34 2.02 1.54.08-.1-2-1.57-1.99-1.57-.13.17zm.1-.13 2 1.57q.1-.14.2-.24l-1.94-1.65-1.93-1.64-.32.39zm.26-.32 1.93 1.65-.01.02.02-.02.03-.04-1.92-1.66-1.91-1.66v-.02.01l-.07.08zm.05-.05 1.92 1.66.18-.2-1.86-1.73-1.85-1.73-.3.34zm.24-.27 1.86 1.73.04-.05.03-.02q0-.02 0 0h-.02l-1.83-1.74-1.84-1.75-.09.1zm.08-.08 1.83 1.75a7.3 7.3 0 0 1 4.57-2.22l-.3-2.52-.3-2.52c-2.92.35-5.58 1.6-7.64 3.76zm6.1-3 .3 2.53.24-.03-.23-2.52-.23-2.53-.38.04zm.31-.02.23 2.52.24-.02-.17-2.53-.16-2.53-.37.03zm.3-.03.17 2.53h.15l-.13-2.54-.13-2.53-.22.01zm.19 0 .13 2.53.33-.02-.03-2.53-.04-2.54-.52.02zm.43-.02.03 2.53h.06l-.02-2.53-.02-2.54h-.1zm.07 0h2.54V32.78h-5.1V44.7zm0-11.92 2.46-.62-.03-.22h-5.07q0 .76.18 1.47zm-.1-.84h2.53v-9.16h-5.07v9.16zm0-9.16h2.53q0-.12.03-.21l-2.46-.63-2.46-.63q-.18.71-.18 1.47zm.1-.84h2.54v-1.17h-5.1v1.17zm0-1.17h2.54c0 .7-.57 1.27-1.27 1.27v-5.08a3.8 3.8 0 0 0-3.8 3.81zm1.27-1.27v2.54h1.16v-5.08h-1.16zm1.16 0 .64 2.46.21-.03v-5.07q-.76 0-1.48.18zm.85-.1v2.53h64.24v-5.07H34.63z" mask="url(#crests-posthog-code-path-1-outside-1_26_7475)"/><path fill="#524c4c" d="M33.01 29.69h67.48V77H33.01z"/><rect width="68.47" height="13.4" x="32.52" y="20.67" fill="#a5cafb" stroke="#4175b9" stroke-width="2.54" rx="2.11"/><path stroke="#40396e" stroke-linecap="round" stroke-linejoin="round" stroke-width="2.54" d="M32.62 76.62V20.77h68.26v55.85z"/><circle cx="40.38" cy="27.75" r="3" fill="#e56161" stroke="#992424" stroke-width="2.54"/><circle cx="50.46" cy="27.75" r="3" fill="#ffd66d" stroke="#d48115" stroke-width="2.54"/><circle cx="60.54" cy="27.75" r="3" fill="#6ce561" stroke="#639924" stroke-width="2.54"/><path fill="#ff9fac" stroke="#40396e" stroke-width="2.54" d="M67.05 79.35c9.02-.37 11.28-20.96 0-22.09 0-8.6-5.64-12.73-13.12-10.85-4.17-5.62-13.56-6.37-19.16 0-7.18-1.88-12.82 2.24-12.82 10.85-12.03 2.25-9.02 22.1 0 22.1-.37 8.98 6.4 12.72 13.16 10.48 5.6 5.61 11.65 6.36 18.82 0 5.98 2.62 12.75-1.87 13.12-10.49Z"/><path fill="#b65256" d="M48.47 59.37a1.27 1.27 0 0 0 0 2.54zm12.68.87a1.27 1.27 0 1 0-1.39-2.12l.7 1.06zm-7.06-13.83-1.05.71c1.46 2.13 2.22 3.88 2.26 5.52.04 1.58-.6 3.28-2.5 5.3l.92.87.92.87c2.21-2.35 3.26-4.66 3.2-7.1-.06-2.38-1.16-4.63-2.7-6.89zm-.37 12.4-.6-1.11c-2.3 1.23-2.79 1.67-4.65 1.67v2.54c2.64 0 3.74-.85 5.84-1.98zm0 0-.64 1.1a10 10 0 0 0 3.96 1.5 6.3 6.3 0 0 0 4.1-1.17l-.68-1.06-.7-1.06c-1.02.66-1.78.83-2.48.76a8 8 0 0 1-2.93-1.16zm-5.25 18.07a1.27 1.27 0 0 1 0-2.53zm12.68-.87a1.27 1.27 0 0 1-1.39 2.13l.7-1.07zm-7.06 13.83-1.05-.71c1.46-2.13 2.22-3.88 2.26-5.52.04-1.58-.6-3.27-2.5-5.3l.92-.87.92-.87c2.21 2.35 3.26 4.66 3.2 7.1-.06 2.38-1.16 4.64-2.7 6.89zm-.37-12.4-.6 1.12c-2.3-1.23-2.79-1.68-4.65-1.68v-2.54c2.64 0 3.74.85 5.84 1.98zm0 0-.64-1.1a10 10 0 0 1 3.96-1.5 6.3 6.3 0 0 1 4.1 1.17l-.68 1.06-.7 1.07c-1.02-.67-1.78-.84-2.48-.77-.77.07-1.66.43-2.93 1.17zM32.17 53.27a1.27 1.27 0 0 0 2.48.5l-1.24-.25zm2.48 29.2a1.27 1.27 0 1 0-2.48.52l1.24-.26zm10.08 1.9a1.27 1.27 0 0 0 0-2.53v2.54m-4.02-5.76-1.27.06zm-12.2.51a1.27 1.27 0 0 0 2.5.49l-1.25-.25zm16.4-24.72a1.27 1.27 0 1 0-.36-2.5l.18 1.25zm-4.2 2.87-1.25-.21v.05l-.01.05zm-9.69-.22a1.27 1.27 0 1 0-2.52-.31l1.26.15zm3.85-10.64-1.24-.26-1.46 7.12 1.24.25 1.24.26 1.46-7.12zm0 43.44 1.24-.26-1.46-7.11-1.24.25-1.24.26 1.46 7.11zm9.86-6.74v-1.27c-1.54 0-2-.31-2.2-.57-.28-.36-.47-1.08-.55-2.72l-1.27.06-1.27.06c.08 1.57.25 3.1 1.11 4.18.95 1.2 2.42 1.53 4.18 1.53zm-4.02-4.5 1.27-.06a4 4 0 0 0-1.57-3.07 6.4 6.4 0 0 0-3.05-1.21 11.3 11.3 0 0 0-6.35.97l.58 1.13.57 1.13a9 9 0 0 1 4.83-.72q1.23.2 1.84.69c.37.29.59.65.61 1.2zm-9.12-2.24L31 75.24a4.7 4.7 0 0 0-2.02 2.39 8 8 0 0 0-.47 1.47v.02l2.49.49.06-.27q.09-.3.25-.7.4-.91.84-1.14zm13.14-23.22-.18-1.26c-1.3.19-2.53.5-3.46 1.4s-1.36 2.17-1.63 3.77l1.25.2 1.25.22c.25-1.46.57-2.06.89-2.37.32-.3.84-.53 2.05-.7zm-4.02 4.12-1.26-.11a2.4 2.4 0 0 1-.69 1.59q-.55.55-1.6.82a9.6 9.6 0 0 1-4.5-.15l-.34 1.22-.34 1.22c1.6.44 3.84.67 5.8.17 1-.25 1.99-.7 2.77-1.48q1.22-1.2 1.42-3.17zm-8.4 3.37.34-1.22c-.98-.27-1.34-.84-1.5-1.35a3 3 0 0 1-.13-1.03l-2.52-.3v.03l-.02.19a5 5 0 0 0 .26 1.9 4.5 4.5 0 0 0 3.24 3z"/><path stroke="#b65256" stroke-width="2.54" d="M74.69 68.12H15.52"/><path stroke="#40396e" stroke-width="2.54" d="M32.22 45.99c-5.92-.39-10.27 3.71-10.27 11.27-12.03 2.25-9.02 22.1 0 22.1-.37 8.98 6.4 12.72 13.16 10.48 5.6 5.61 11.65 6.36 18.82 0 5.98 2.62 12.75-1.87 13.12-10.49A6.4 6.4 0 0 0 71.62 77"/><path stroke="#b73f27" stroke-width="2.54" d="M33.49 46.14c.82.05.4.04 1.28.27 5.6-6.37 15-5.62 19.16 0 7.48-1.88 13.12 2.24 13.12 10.85 9.01.9 9.38 14.23 4.57 19.74"/><path fill="#eda840" stroke="#ffd493" stroke-width="2.54" d="M74.23 30.18a1.27 1.27 0 0 1 2.38 0l.78 2.1a3.8 3.8 0 0 0 2.25 2.25l2.1.78c1.1.4 1.1 1.97 0 2.38l-2.1.77a3.8 3.8 0 0 0-2.25 2.25l-.78 2.1a1.27 1.27 0 0 1-2.38 0l-.78-2.1a3.8 3.8 0 0 0-2.24-2.25l-2.1-.77a1.27 1.27 0 0 1 0-2.38l2.1-.78a3.8 3.8 0 0 0 2.24-2.25zm9.31 15.22a1.27 1.27 0 0 1 2.38 0l.78 2.1a3.8 3.8 0 0 0 2.25 2.25l2.1.78c1.1.4 1.1 1.97 0 2.38l-2.1.78a3.8 3.8 0 0 0-2.25 2.25l-.78 2.1a1.27 1.27 0 0 1-2.38 0l-.78-2.1a3.8 3.8 0 0 0-2.25-2.25l-2.1-.78a1.27 1.27 0 0 1 0-2.38l2.1-.78a3.8 3.8 0 0 0 2.25-2.25z"/></svg>