<svg xmlns="http://www.w3.org/2000/svg" fill="none" viewBox="0 0 115 115"><g filter="url(#crests-posthog-ai-filter0_d_23_14339)"><path fill="#fff" d="M68.57 16.02c-8.92-15.6-32.31-12.81-37.88 0-11.15 1.67-16.16 10.02-15.05 20.6-7.24 6.13-8.35 20.06 0 28.42-2.78 10.58 5.02 18.38 15.05 20.05 3.2 5.86 9.95 11.2 18.33 10.2.61-.07 1.18.39 1.21 1 .52 8.18 4.3 13.26 13.88 12.2 7.84-2.1 9.2-6.97 8.52-12.77-.08-.6.4-1.16 1-1.16h5.52l4.46 2.79s3.9 6.52 9.47 6.13c6.12-.44 6.12-6.13 6.12-6.13s7.94-2.23 7.25-8.91c-.56-5.4-7.25-7.25-7.25-7.25l-1.32-3.54c-.2-.5.05-1.08.53-1.35 1.57-.89 4.7-3.19 4.7-7.36 0-8-14.49-10.59-14.49-10.59 1.65-3.58 1.89-5.7 1.11-10.02 0 0 12.82-2.23 10.59-12.26C96.98 21.03 83.6 27.7 83.6 27.7c-4.25-6.96-7.32-9.77-15.04-11.7"/></g><path fill="#f09472" stroke="#40396e" stroke-width="3" d="M63.95 21.85c-.48-11.5-26.74-14.37-28.17 0-10.98 0-16.23 7.2-13.84 16.73-7.17 5.32-8.12 17.3 0 24.44-2.39 9.15 2.86 16.34 13.84 16.34 2.87 15.33 28.17 11.5 28.17 0 11.46.48 16.23-8.15 13.37-16.77 7.16-7.14 8.11-14.86 0-24 3.34-7.63-2.4-16.26-13.37-16.74Z"/><path fill="#df6133" d="M38.58 45.55a1.5 1.5 0 0 0 3 0zm.9-16.1a1.5 1.5 0 1 0-2.52 1.63l1.26-.81zm-17.55 8.93.85 1.24c2.71-1.86 4.98-2.85 7.1-2.9 2.05-.05 4.24.79 6.84 3.23l1.03-1.09 1.03-1.1c-2.98-2.8-5.9-4.11-8.97-4.04-3 .07-5.86 1.46-8.73 3.42zm15.82.48-1.32.7c1.56 2.93 2.15 3.58 2.15 5.99h3c0-3.33-1.07-4.7-2.5-7.4zm0 0 1.3.75c.98-1.7 1.74-3.32 1.9-5a8 8 0 0 0-1.48-5.16l-1.25.82-1.26.81c.86 1.33 1.08 2.31 1 3.25-.1 1-.57 2.15-1.51 3.78zm22.93 6.69a1.5 1.5 0 1 1-3 0zm-.9-16.1a1.5 1.5 0 0 1 2.51 1.63l-1.25-.81zm17.54 8.93-.85 1.24c-2.71-1.86-4.97-2.85-7.1-2.9-2.04-.05-4.24.79-6.84 3.23l-1.03-1.09-1.03-1.1c2.99-2.8 5.9-4.11 8.98-4.04 3 .07 5.85 1.46 8.72 3.42zm-15.82.48 1.33.7c-1.57 2.93-2.15 3.58-2.15 5.99h-3c0-3.33 1.06-4.7 2.5-7.4zm0 0-1.3.75c-.98-1.7-1.73-3.32-1.9-5a8 8 0 0 1 1.48-5.16l1.26.82 1.25.81c-.86 1.33-1.08 2.31-1 3.25.1 1 .57 2.15 1.51 3.78zM30.7 66.22a1.5 1.5 0 0 0 .6-2.94l-.3 1.47zm37.25-2.94a1.5 1.5 0 0 0 .6 2.94l-.3-1.47zm2.28-12.96a1.5 1.5 0 0 0-3 0zM63 55.44l.07 1.5zm-2.87 11.63 1.34-.68zm3.53 3.8a1.5 1.5 0 1 0 .58-2.94l-.29 1.47zM32.01 50.11a1.5 1.5 0 1 0-2.97.42l1.49-.21zm3.77 5.33-.25 1.48h.06l.06.01zm-.3 12.47a1.5 1.5 0 1 0-.36 2.98l.18-1.49zM21.94 62.9l-.3 1.47 9.07 1.86.3-1.47.3-1.47-9.07-1.86zm55.39 0-.3-1.47-9.07 1.86.3 1.47.3 1.47 9.07-1.86zm-8.6-12.57h-1.5c0 1.97-.4 2.6-.76 2.88-.5.4-1.45.64-3.54.74l.08 1.5.07 1.5c2-.1 3.9-.32 5.25-1.39 1.48-1.17 1.9-3 1.9-5.23zM63 55.44l-.08-1.5a5 5 0 0 0-3.83 1.96 8 8 0 0 0-1.52 3.83c-.4 2.7.12 5.87 1.23 8.03l1.33-.69 1.34-.68a11.3 11.3 0 0 1-.93-6.22q.25-1.59.9-2.4c.39-.5.89-.8 1.63-.83zm-2.87 11.63-1.33.69a6 6 0 0 0 2.99 2.52 11 11 0 0 0 1.85.59h.02l.58-2.94h-.01l-.07-.02a6 6 0 0 1-1.19-.4c-.76-.32-1.3-.72-1.5-1.12zm-29.6-16.75-1.49.21c.24 1.66.62 3.19 1.74 4.35s2.72 1.7 4.75 2.04l.25-1.48.25-1.48c-1.87-.31-2.66-.73-3.09-1.16-.42-.44-.7-1.14-.93-2.7zm5.25 5.12-.13 1.5c.98.08 1.63.43 2.1.9q.73.75 1.08 2.1a12 12 0 0 1-.2 5.8l1.45.4 1.44.4c.56-2.03.84-4.86.22-7.34a7.5 7.5 0 0 0-1.87-3.47 6.2 6.2 0 0 0-3.96-1.78zm4.3 10.7-1.45-.4c-.36 1.3-1.12 1.78-1.8 2a4 4 0 0 1-1.35.17l-.36 2.98h.03l.24.02a6 6 0 0 0 2.38-.32 5.6 5.6 0 0 0 3.75-4.05z"/><path stroke="#c03300" stroke-width="3" d="M49.63 12.12v75.44"/><path stroke="#40396e" stroke-width="3" d="M63.95 21.85c-.48-11.5-26.74-14.37-28.17 0-10.98 0-16.23 7.2-13.84 16.73-7.17 5.32-8.12 17.3 0 24.44-2.39 9.15 2.86 16.34 13.84 16.34 2.87 15.33 28.17 11.5 28.17 0 11.46.48 16.23-8.15 13.37-16.77 7.16-7.14 8.11-14.86 0-24 3.34-7.63-2.4-16.26-13.37-16.74Z"/><path fill="#eda840" stroke="#ffd493" stroke-width="3" d="M74.4 48.34a1.5 1.5 0 0 1 2.81 0l4.39 11.84a4.5 4.5 0 0 0 2.65 2.66l11.84 4.38a1.5 1.5 0 0 1 0 2.81l-11.84 4.38a4.5 4.5 0 0 0-2.65 2.66l-4.4 11.84a1.5 1.5 0 0 1-2.8 0L70 77.07a4.5 4.5 0 0 0-2.65-2.66l-11.84-4.38a1.5 1.5 0 0 1 0-2.81l11.84-4.38a4.5 4.5 0 0 0 2.66-2.66z"/><path stroke="#40396e" stroke-width="3" d="m82.5 54.7-1.17 2.71a3 3 0 0 0 0 2.37l.63 1.48a3 3 0 0 0 1.81 1.66l11.58 3.86a2 2 0 0 1 .03 3.78L83.3 74.82a3 3 0 0 0-1.84 1.86l-3.8 11.06a2 2 0 0 1-3.77.02l-2.51-7.04a3 3 0 0 0-4.17-1.67l-.32.16"/><path fill="#eda840" stroke="#40396e" stroke-width="3" d="M90.56 81.76a1.5 1.5 0 0 1 2.81 0l.92 2.49a4.5 4.5 0 0 0 2.66 2.66l2.49.92a1.5 1.5 0 0 1 0 2.81l-2.5.92a4.5 4.5 0 0 0-2.65 2.66l-.92 2.49a1.5 1.5 0 0 1-2.81 0l-.92-2.49a4.5 4.5 0 0 0-2.66-2.66l-2.5-.92a1.5 1.5 0 0 1 0-2.81l2.5-.92a4.5 4.5 0 0 0 2.66-2.66z"/><path fill="#eda840" stroke="#ffd493" stroke-width="3" d="M53.79 46.1a1.5 1.5 0 0 1 2.81 0l.92 2.5a4.5 4.5 0 0 0 2.66 2.65l2.49.93a1.5 1.5 0 0 1 0 2.8l-2.49.93a4.5 4.5 0 0 0-2.66 2.66l-.92 2.49a1.5 1.5 0 0 1-2.81 0l-.92-2.5a4.5 4.5 0 0 0-2.66-2.65l-2.49-.92a1.5 1.5 0 0 1 0-2.81l2.5-.93a4.5 4.5 0 0 0 2.65-2.65z"/><circle cx="89.73" cy="36.87" r="5.18" fill="#eda840" stroke="#40396e" stroke-width="3"/><circle cx="61.88" cy="98.15" r="5.18" fill="#eda840" stroke="#40396e" stroke-width="3"/><defs><filter id="crests-posthog-ai-filter0_d_23_14339" width="99.7" height="106.29" x="9.79" y="5.34" color-interpolation-filters="sRGB" filterUnits="userSpaceOnUse"><feFlood flood-opacity="0" result="BackgroundImageFix"/><feColorMatrix in="SourceAlpha" result="hardAlpha" values="0 0 0 0 0 0 0 0 0 0 0 0 0 0 0 0 0 0 127 0"/><feOffset dx="3" dy="3"/><feComposite in2="hardAlpha" operator="out"/><feColorMatrix values="0 0 0 0 0 0 0 0 0 0 0 0 0 0 0 0 0 0 0.4 0"/><feBlend in2="BackgroundImageFix" result="effect1_dropShadow_23_14339"/><feBlend in="SourceGraphic" in2="effect1_dropShadow_23_14339" result="shape"/></filter></defs></svg>