<svg xmlns="http://www.w3.org/2000/svg" fill="none" viewBox="0 0 115 115"><g clip-path="url(#crests-product-analytics-clip0_23_16113)"><g filter="url(#crests-product-analytics-filter0_d_23_16113)"><path fill="url(#crests-product-analytics-paint0_linear_23_16113)" d="m67.97 39.7 4.04-9.27a8.76 8.76 0 0 0-3.97-11.23 62.3 62.3 0 0 0-59.12.55 8.7 8.7 0 0 0-3.35 11.88L23.45 63.2a10 10 0 0 1 1.3 4.92V92.4a6.94 6.94 0 0 0 11 5.64l5.92-4.26a2 2 0 0 1 2.21-.08l4.42 2.71a2 2 0 0 1 .95 1.7v3.39a10 10 0 0 0 10 10h48.5a6 6 0 0 0 6-6v-17a6 6 0 0 0-6-6h-1.5a2 2 0 0 1-2-2v-32a6 6 0 0 0-6-6H69.8a2 2 0 0 1-1.83-2.8"/></g><mask id="crests-product-analytics-path-2-inside-1_23_16113" fill="#fff"><path fill-rule="evenodd" d="M18.47 19.36c5.24-1.9 12.37-3.03 20.15-2.96 7.8.06 14.9 1.3 20.11 3.3 2.6 1 4.8 2.2 6.38 3.62s2.66 3.17 2.64 5.18a6.3 6.3 0 0 1-1.64 4.04l-8.6 14.53h38.02a4 4 0 0 1 4 4v35h6a4 4 0 0 1 4 4v13a4 4 0 0 1-4 4h-13a4 4 0 0 1-2.5-.88c-.68.55-1.55.88-2.5.88h-12a4 4 0 0 1-2.5-.88c-.68.55-1.55.88-2.5.88h-12a4 4 0 0 1-4-4v-12h-5a4 4 0 0 1-4-4v-3.72L35.07 93.42a3.5 3.5 0 0 1-5.93-2.47l-.45-26.84-.07-.23L10.65 31.8A6.2 6.2 0 0 1 9.3 28c.02-2.01 1.13-3.74 2.73-5.13a21 21 0 0 1 6.44-3.52" clip-rule="evenodd"/></mask><path fill="#c1dcff" fill-rule="evenodd" d="M18.47 19.36c5.24-1.9 12.37-3.03 20.15-2.96 7.8.06 14.9 1.3 20.11 3.3 2.6 1 4.8 2.2 6.38 3.62s2.66 3.17 2.64 5.18a6.3 6.3 0 0 1-1.64 4.04l-8.6 14.53h38.02a4 4 0 0 1 4 4v35h6a4 4 0 0 1 4 4v13a4 4 0 0 1-4 4h-13a4 4 0 0 1-2.5-.88c-.68.55-1.55.88-2.5.88h-12a4 4 0 0 1-2.5-.88c-.68.55-1.55.88-2.5.88h-12a4 4 0 0 1-4-4v-12h-5a4 4 0 0 1-4-4v-3.72L35.07 93.42a3.5 3.5 0 0 1-5.93-2.47l-.45-26.84-.07-.23L10.65 31.8A6.2 6.2 0 0 1 9.3 28c.02-2.01 1.13-3.74 2.73-5.13a21 21 0 0 1 6.44-3.52" clip-rule="evenodd"/><path fill="#40396e" d="m38.62 16.4.03-3zm-20.15 2.96-1.03-2.82zm40.26.34 1.07-2.8zm6.38 3.62 2-2.23zm2.64 5.18 3 .03zm-1.64 4.04-2.28-1.94-.17.2-.13.21zm-8.6 14.53-2.58-1.53-2.68 4.53h5.26zm42.02 4h3zm0 35h-3v3h3zm10 4h3zm-4 17v3zm-15.5-.88 1.88-2.34-1.88-1.5-1.88 1.5zm-2.5.88v3zm-14.5-.88 1.88-2.34-1.88-1.5-1.88 1.5zm-2.5.88v3zm-16-16h3v-3h-3zm-5 0v3zm-4-7.72h3V76.3l-5.08 4.89zM35.07 93.42l2.08 2.16zm-5.93-2.47 3-.05zm-.45-26.84-3 .05zm-.07-.23 2.62-1.47zM10.65 31.8l2.61-1.47-.1-.18-.12-.16zM9.3 28l-3-.02zm2.73-5.13-1.97-2.26zm26.6-6.48.02-3c-8.05-.07-15.55 1.08-21.2 3.14l1.02 2.82 1.02 2.82c4.83-1.76 11.59-2.84 19.11-2.78zm20.1 3.3 1.07-2.8c-5.62-2.16-13.1-3.43-21.15-3.5l-.03 3-.02 3c7.52.06 14.26 1.26 19.06 3.1zm6.38 3.62 2-2.23a24 24 0 0 0-7.3-4.2l-1.08 2.8-1.07 2.8q3.62 1.41 5.45 3.07zm2.64 5.18 3 .03c.03-3.2-1.7-5.7-3.63-7.44l-2.01 2.23-2 2.23c1.2 1.1 1.65 2.09 1.64 2.93zm-1.64 4.04 2.29 1.94a9.3 9.3 0 0 0 2.35-5.95l-3-.03-3-.02a3.3 3.3 0 0 1-.92 2.12zm-8.6 14.53 2.59 1.53 8.6-14.53-2.59-1.53L63.53 31l-8.6 14.53zm38.02 0v-3H57.51v6h38.02zm4 4h3a7 7 0 0 0-7-7v6a1 1 0 0 1 1 1zm0 35h3v-35h-6v35zm6 0v-3h-6v6h6zm4 4h3a7 7 0 0 0-7-7v6a1 1 0 0 1 1 1zm0 13h3v-13h-6v13zm-4 4v3a7 7 0 0 0 7-7h-6a1 1 0 0 1-1 1zm-13 0v3h13v-6h-13zm-2.5-.88-1.88 2.34a7 7 0 0 0 4.38 1.54v-6a1 1 0 0 1-.62-.22zm-2.5.88v3c1.66 0 3.18-.58 4.38-1.54l-1.88-2.34-1.88-2.34a1 1 0 0 1-.62.22zm-12 0v3h12v-6h-12zm-2.5-.88-1.88 2.34a7 7 0 0 0 4.38 1.54v-6a1 1 0 0 1-.62-.22zm-2.5.88v3c1.66 0 3.18-.58 4.38-1.54l-1.88-2.34-1.88-2.34a1 1 0 0 1-.62.22zm-12 0v3h12v-6h-12zm-4-4h-3a7 7 0 0 0 7 7v-6a1 1 0 0 1-1-1zm0-12h-3v12h6v-12zm-5 0v3h5v-6h-5zm-4-4h-3a7 7 0 0 0 7 7v-6a1 1 0 0 1-1-1zm0-3.72h-3v3.72h6v-3.72zM35.07 93.42l2.08 2.16L47.6 85.51l-2.08-2.16-2.08-2.16L33 91.26zm-5.93-2.47-3 .06a6.5 6.5 0 0 0 11 4.57l-2.07-2.16-2.08-2.16q-.17.14-.26.14a1 1 0 0 1-.28-.04 1 1 0 0 1-.23-.18.5.5 0 0 1-.08-.28zm-.45-26.84-3 .05.45 26.85 3-.06 3-.05-.45-26.84zm-.07-.23-2.61 1.46a2.5 2.5 0 0 1-.32-1.18l3-.05 3-.05a3.5 3.5 0 0 0-.45-1.65zM10.65 31.8l-2.62 1.46L26 65.34l2.61-1.46 2.62-1.47-17.98-32.08zM9.3 28l-3-.02a9 9 0 0 0 1.95 5.61l2.4-1.8 2.4-1.81a3.2 3.2 0 0 1-.75-1.95zm2.73-5.13-1.97-2.26c-1.97 1.7-3.73 4.18-3.76 7.37l3 .02 3 .03c0-.84.46-1.82 1.7-2.9zm6.44-3.52-1.03-2.82a24 24 0 0 0-7.38 4.08l1.97 2.26L14 25.15a18 18 0 0 1 5.5-2.97z" mask="url(#crests-product-analytics-path-2-inside-1_23_16113)"/><path fill="#f4a22d" d="m29.91 62.46-18.5-33a2 2 0 0 1 1.34-2.93l27.44-5.72a2 2 0 0 1 .98.04l22.79 6.8a2 2 0 0 1 1.15 2.93L45.96 62.93a2 2 0 0 0-.28 1.07l.4 15.14a2 2 0 0 1-.61 1.5L34 91.65a2 2 0 0 1-3.38-1.4l-.45-26.85a2 2 0 0 0-.26-.95"/><rect width="16" height="47" x="57.33" y="58.62" fill="#fff" rx="2"/><rect width="17" height="34" x="73.33" y="71.62" fill="#fff" rx="2"/><rect width="17" height="17" x="90.33" y="88.62" fill="#fff" rx="1"/><ellipse cx="27.53" cy="8.85" fill="#fad196" rx="27.53" ry="8.85" transform="matrix(.9999 .01397 -.0028 1 11.03 18.33)"/><path stroke="#73a0db" stroke-linecap="round" stroke-width="3" d="m54.83 49.12-8 14.5v15.5m9 10 .44-26.07a4 4 0 0 1 4-3.93h8.56a4 4 0 0 1 4 4v8.5m0 32.5v-32.5m0 0h13.5a4 4 0 0 1 4 4v12.25m0 16.25V87.87m0 0h9.5"/><mask id="crests-product-analytics-path-11-inside-2_23_16113" fill="#fff"><path fill-rule="evenodd" d="M18.5 19.59c5.24-1.91 12.37-3.03 20.16-2.97 7.79.07 14.9 1.3 20.1 3.3 2.6 1 4.8 2.21 6.39 3.63 1.57 1.41 2.66 3.16 2.64 5.18a6.3 6.3 0 0 1-1.64 4.04l-8.6 14.53h38.02a4 4 0 0 1 4 4v35h6a4 4 0 0 1 4 4v13a4 4 0 0 1-4 4h-13c-.95 0-1.82-.33-2.5-.88a4 4 0 0 1-2.5.88h-12c-.95 0-1.82-.33-2.5-.88a4 4 0 0 1-2.5.88h-12a4 4 0 0 1-4-4v-12h-5a4 4 0 0 1-4-4v-3.72L35.1 93.64a3.5 3.5 0 0 1-5.92-2.46l-.46-26.84-.06-.24-17.98-32.08a6.2 6.2 0 0 1-1.35-3.78c.02-2.02 1.13-3.75 2.73-5.13 1.6-1.4 3.83-2.57 6.44-3.52" clip-rule="evenodd"/></mask><path fill="#40396e" d="m38.66 16.62.03-3zM18.5 19.6l-1.02-2.82zm40.26.33 1.08-2.8zm6.39 3.63 2-2.23zm2.64 5.18 3 .02zm-1.64 4.04-2.29-1.95-.16.2-.13.22zm-8.6 14.53-2.58-1.53-2.68 4.53h5.26zm42.02 4h3zm0 35h-3v3h3zm10 4h3zm-4 17v3zm-15.5-.88 1.87-2.34-1.87-1.5-1.88 1.5zm-2.5.88v3zm-14.5-.88 1.87-2.34-1.87-1.5-1.88 1.5zm-2.5.88v3zm-16-16h3v-3h-3zm-5 0v3zm-4-7.72h3v-7.05l-5.08 4.88zM35.1 93.64l2.08 2.17zm-5.92-2.46 3-.05zm-.46-26.84-3 .05zm-.06-.24 2.62-1.46zM10.68 32.02l2.62-1.47-.1-.17-.12-.17zm-1.35-3.78-3-.03zm2.73-5.13-1.96-2.27zm26.6-6.49.03-3c-8.06-.06-15.56 1.09-21.21 3.15l1.02 2.82 1.03 2.81c4.83-1.75 11.58-2.84 19.1-2.78zm20.1 3.3 1.08-2.8c-5.62-2.15-13.1-3.43-21.15-3.5l-.03 3-.02 3c7.52.07 14.26 1.26 19.05 3.1zm6.39 3.63 2-2.23a24 24 0 0 0-7.31-4.2l-1.08 2.8-1.07 2.8c2.4.92 4.24 1.97 5.45 3.06zm2.64 5.18 3 .02c.03-3.19-1.7-5.7-3.64-7.43l-2 2.23-2 2.23c1.2 1.09 1.65 2.08 1.64 2.92zm-1.64 4.04 2.28 1.94a9.3 9.3 0 0 0 2.36-5.96l-3-.02-3-.03a3.3 3.3 0 0 1-.93 2.12zm-8.6 14.53 2.58 1.52 8.6-14.53-2.58-1.52-2.58-1.53-8.6 14.53zm38.02 0v-3H57.55v6h38.02zm4 4h3a7 7 0 0 0-7-7v6a1 1 0 0 1 1 1zm0 35h3v-35h-6v35zm6 0v-3h-6v6h6zm4 4h3a7 7 0 0 0-7-7v6a1 1 0 0 1 1 1zm0 13h3v-13h-6v13zm-4 4v3a7 7 0 0 0 7-7h-6a1 1 0 0 1-1 1zm-13 0v3h13v-6h-13zm-2.5-.88-1.88 2.34a7 7 0 0 0 4.38 1.54v-6a1 1 0 0 1-.63-.22zm-2.5.88v3c1.65 0 3.18-.58 4.37-1.54l-1.87-2.34-1.88-2.34a1 1 0 0 1-.62.22zm-12 0v3h12v-6h-12zm-2.5-.88-1.88 2.34a7 7 0 0 0 4.38 1.54v-6a1 1 0 0 1-.63-.22zm-2.5.88v3c1.65 0 3.18-.58 4.37-1.54l-1.87-2.34-1.88-2.34a1 1 0 0 1-.62.22zm-12 0v3h12v-6h-12zm-4-4h-3a7 7 0 0 0 7 7v-6a1 1 0 0 1-1-1zm0-12h-3v12h6v-12zm-5 0v3h5v-6h-5zm-4-4h-3a7 7 0 0 0 7 7v-6a1 1 0 0 1-1-1zm0-3.72h-3v3.72h6v-3.72zM35.1 93.64l2.08 2.17 10.47-10.07-2.08-2.16-2.08-2.17-10.47 10.07zm-5.92-2.46-3 .05a6.5 6.5 0 0 0 11 4.58l-2.08-2.17-2.08-2.16q-.16.14-.25.14a1 1 0 0 1-.29-.04 1 1 0 0 1-.23-.17.5.5 0 0 1-.08-.28zm-.46-26.84-3 .05.46 26.84 3-.05 3-.05-.46-26.84zm-.06-.24-2.62 1.47a2.5 2.5 0 0 1-.32-1.18l3-.05 3-.05a3.5 3.5 0 0 0-.44-1.65zM10.68 32.02l-2.62 1.47 17.98 32.08 2.62-1.47 2.62-1.47L13.3 30.55zm-1.35-3.78-3-.03c-.01 2.2.81 4.1 1.96 5.61l2.4-1.8 2.39-1.8a3.2 3.2 0 0 1-.75-1.96zm2.73-5.13-1.96-2.27c-1.97 1.7-3.74 4.19-3.77 7.37l3 .03 3 .02c.01-.84.47-1.82 1.7-2.89zm6.44-3.52-1.02-2.82a24 24 0 0 0-7.38 4.07l1.96 2.27 1.97 2.26a18 18 0 0 1 5.5-2.97z" mask="url(#crests-product-analytics-path-11-inside-2_23_16113)"/></g><defs><linearGradient id="crests-product-analytics-paint0_linear_23_16113" x1="111.75" x2="6.75" y1="111.5" y2="19.5" gradientUnits="userSpaceOnUse"><stop stop-color="#fff"/><stop offset="1" stop-color="#f2f2f2"/></linearGradient><clipPath id="crests-product-analytics-clip0_23_16113"><path fill="#fff" d="M0 0h115v115H0z"/></clipPath><filter id="crests-product-analytics-filter0_d_23_16113" width="112.31" height="102.49" x="4.44" y="12.01" color-interpolation-filters="sRGB" filterUnits="userSpaceOnUse"><feFlood flood-opacity="0" result="BackgroundImageFix"/><feColorMatrix in="SourceAlpha" result="hardAlpha" values="0 0 0 0 0 0 0 0 0 0 0 0 0 0 0 0 0 0 127 0"/><feOffset dx="3" dy="3"/><feComposite in2="hardAlpha" operator="out"/><feColorMatrix values="0 0 0 0 0 0 0 0 0 0 0 0 0 0 0 0 0 0 0.4 0"/><feBlend in2="BackgroundImageFix" result="effect1_dropShadow_23_16113"/><feBlend in="SourceGraphic" in2="effect1_dropShadow_23_16113" result="shape"/></filter></defs></svg>