<svg xmlns="http://www.w3.org/2000/svg" fill="none" viewBox="0 0 115 115"><g filter="url(#crests-product-led-sales-filter0_d_23_12507)"><path fill="#fff" d="M20.62 37.23v-15a5 5 0 0 1 5-5h20a5 5 0 0 1 5 5v15.75a1.25 1.25 0 0 0 2.5 0V22.23a5 5 0 0 1 5-5h30a5 5 0 0 1 5 5v15c0 1.1.9 2 2 2h10.5a5 5 0 0 1 5 5v52.5a5 5 0 0 1-5 5h-93.5a5 5 0 0 1-5-5v-52.5a5 5 0 0 1 5-5h6.5a2 2 0 0 0 2-2"/></g><path fill="#81b1dd" d="M43.62 22.73a1 1 0 0 1 1 1v22h26v-5h-10a1 1 0 0 1-1-1v-15a1 1 0 0 1 1-1h25a1 1 0 0 1 1 1v15a1 1 0 0 1-1 1h-10v5h26a1 1 0 0 1 1 1v47a1 1 0 0 1-1 1h-87a1 1 0 0 1-1-1v-47a1 1 0 0 1 1-1h13v-22a1 1 0 0 1 1-1z"/><path fill="#40396e" d="M43.62 22.73v-1.5zm1 1h1.5zm0 22h-1.5v1.5h1.5zm26 0v1.5h1.5v-1.5zm0-5h1.5v-1.5h-1.5zm-11-16h-1.5zm1-1v-1.5zm26 1h1.5zm-1 16v1.5zm-10 0v-1.5h-1.5v1.5zm0 5h-1.5v1.5h1.5zm26 49v1.5zm-87-49v-1.5zm13 0v1.5h1.5v-1.5zm0-22h-1.5zm1-1v-1.5zm15 0v1.5a.5.5 0 0 1-.5-.5h3a2.5 2.5 0 0 0-2.5-2.5zm1 1h-1.5v22h3v-22zm0 22v1.5h26v-3h-26zm26 0h1.5v-5h-3v5zm0-5v-1.5h-10v3h10zm-10 0v-1.5c.28 0 .5.22.5.5h-3a2.5 2.5 0 0 0 2.5 2.5zm-1-1h1.5v-15h-3v15zm0-15h1.5a.5.5 0 0 1-.5.5v-3a2.5 2.5 0 0 0-2.5 2.5zm1-1v1.5h25v-3h-25zm25 0v1.5a.5.5 0 0 1-.5-.5h3a2.5 2.5 0 0 0-2.5-2.5zm1 1h-1.5v15h3v-15zm0 15h-1.5c0-.28.23-.5.5-.5v3a2.5 2.5 0 0 0 2.5-2.5zm-1 1v-1.5h-10v3h10zm-10 0h-1.5v5h3v-5zm0 5v1.5h26v-3h-26zm26 0v1.5a.5.5 0 0 1-.5-.5h3a2.5 2.5 0 0 0-2.5-2.5zm1 1h-1.5v47h3v-47zm0 47h-1.5c0-.28.23-.5.5-.5v3a2.5 2.5 0 0 0 2.5-2.5zm-1 1v-1.5h-87v3h87zm-87 0v-1.5c.28 0 .5.22.5.5h-3a2.5 2.5 0 0 0 2.5 2.5zm-1-1h1.5v-47h-3v47zm0-47h1.5a.5.5 0 0 1-.5.5v-3a2.5 2.5 0 0 0-2.5 2.5zm1-1v1.5h13v-3h-13zm13 0h1.5v-22h-3v22zm0-22h1.5a.5.5 0 0 1-.5.5v-3a2.5 2.5 0 0 0-2.5 2.5zm1-1v1.5h15v-3h-15z"/><rect width="26" height="8" x="22.62" y="50.73" fill="#124676" stroke="#2f72af" stroke-width="3" rx="1"/><rect width="27" height="17" x="59.62" y="23.73" fill="#81b1dd" stroke="#40396e" stroke-width="3" rx="1"/><rect width="19" height="9" x="63.62" y="27.73" fill="#0c2c49" rx="1"/><rect width="35" height="8" x="54.62" y="50.73" fill="#0c2c49" rx="1"/><rect width="7" height="7" x="21.62" y="62.73" fill="#cae6ff" stroke="#2f72af" stroke-width="3" rx="1"/><rect width="7" height="7" x="45.62" y="62.73" fill="#cae6ff" rx="1"/><rect width="7" height="7" x="57.62" y="62.73" fill="#cae6ff" rx="1"/><rect width="7" height="7" x="69.62" y="62.73" fill="#cae6ff" rx="1"/><rect width="7" height="7" x="81.62" y="62.73" fill="#cae6ff" rx="1"/><rect width="7" height="7" x="33.62" y="62.73" fill="#cae6ff" stroke="#2f72af" stroke-width="3" rx="1"/><rect width="12" height="25" x="17.62" y="62.96" fill="#80b258" stroke="#4f7830" stroke-width="3" rx="1" transform="rotate(-15.63 17.62 62.96)"/><rect width="12" height="25" x="29.42" y="60.59" fill="#80b258" stroke="#4f7830" stroke-width="3" rx="1" transform="rotate(2.97 29.42 60.59)"/><rect width="76" height="12" x="13.62" y="75.73" fill="#73a9db" stroke="#2f72af" stroke-width="3" rx="1"/><rect width="52" height="12" x="13.62" y="75.73" fill="#cae6ff" stroke="#2f72af" stroke-width="3" rx="1"/><path fill="#fff" d="M28.62 53.73a1 1 0 0 1-1-1v-29a1 1 0 0 1 1-1h15a1 1 0 0 1 1 1v29a1 1 0 0 1-1 1z"/><path fill="#4a7dab" d="M93.62 46.73h9v48h-9z"/><path stroke="#7d7d7d" stroke-width="3" d="M27.62 53.73v-30a1 1 0 0 1 1-1h15a1 1 0 0 1 1 1v30"/><path stroke="#2f5c85" stroke-linecap="round" stroke-width="3" d="M32.12 28.23h7"/><path stroke="#1d5487" stroke-linecap="round" stroke-width="3" d="M94.62 46.73v47"/><path stroke="#2f5c85" stroke-linecap="round" stroke-width="3" d="M32.62 32.73h2m-2 4h2m-2 4h2m-2 4h5m-5 4h5"/><path fill="#40396e" d="M43.62 22.73v-1.5zm1 1h1.5zm0 22h-1.5v1.5h1.5zm26 0v1.5h1.5v-1.5zm0-5h1.5v-1.5h-1.5zm-11-16h-1.5zm1-1v-1.5zm26 1h1.5zm-1 16v1.5zm-10 0v-1.5h-1.5v1.5zm0 5h-1.5v1.5h1.5zm27 0v-1.5zm0 49v1.5zm-88 0v1.5zm0-49v-1.5zm13 0v1.5h1.5v-1.5zm0-22h-1.5zm1-1v-1.5zm15 0v1.5a.5.5 0 0 1-.5-.5h3a2.5 2.5 0 0 0-2.5-2.5zm1 1h-1.5v22h3v-22zm0 22v1.5h26v-3h-26zm26 0h1.5v-5h-3v5zm0-5v-1.5h-10v3h10zm-10 0v-1.5c.28 0 .5.22.5.5h-3a2.5 2.5 0 0 0 2.5 2.5zm-1-1h1.5v-15h-3v15zm0-15h1.5a.5.5 0 0 1-.5.5v-3a2.5 2.5 0 0 0-2.5 2.5zm1-1v1.5h25v-3h-25zm25 0v1.5a.5.5 0 0 1-.5-.5h3a2.5 2.5 0 0 0-2.5-2.5zm1 1h-1.5v15h3v-15zm0 15h-1.5c0-.28.23-.5.5-.5v3a2.5 2.5 0 0 0 2.5-2.5zm-1 1v-1.5h-10v3h10zm-10 0h-1.5v5h3v-5zm0 5v1.5h27v-3h-27zm27 0v1.5a.5.5 0 0 1-.5-.5h3a2.5 2.5 0 0 0-2.5-2.5zm1 1h-1.5v47h3v-47zm0 47h-1.5c0-.28.23-.5.5-.5v3a2.5 2.5 0 0 0 2.5-2.5zm-1 1v-1.5h-88v3h88zm-88 0v-1.5c.28 0 .5.22.5.5h-3a2.5 2.5 0 0 0 2.5 2.5zm-1-1h1.5v-47h-3v47zm0-47h1.5a.5.5 0 0 1-.5.5v-3a2.5 2.5 0 0 0-2.5 2.5zm1-1v1.5h13v-3h-13zm13 0h1.5v-22h-3v22zm0-22h1.5a.5.5 0 0 1-.5.5v-3a2.5 2.5 0 0 0-2.5 2.5zm1-1v1.5h15v-3h-15z"/><defs><filter id="crests-product-led-sales-filter0_d_23_12507" width="106.5" height="87.5" x="7.12" y="17.23" color-interpolation-filters="sRGB" filterUnits="userSpaceOnUse"><feFlood flood-opacity="0" result="BackgroundImageFix"/><feColorMatrix in="SourceAlpha" result="hardAlpha" values="0 0 0 0 0 0 0 0 0 0 0 0 0 0 0 0 0 0 127 0"/><feOffset dx="3" dy="3"/><feComposite in2="hardAlpha" operator="out"/><feColorMatrix values="0 0 0 0 0 0 0 0 0 0 0 0 0 0 0 0 0 0 0.4 0"/><feBlend in2="BackgroundImageFix" result="effect1_dropShadow_23_12507"/><feBlend in="SourceGraphic" in2="effect1_dropShadow_23_12507" result="shape"/></filter></defs></svg>