<svg xmlns="http://www.w3.org/2000/svg" fill="none" viewBox="0 0 115 115"><g filter="url(#crests-product-lead-sales-east-filter0_d_23_25885)"><path fill="#fff" d="M95.75 35.25v-15a5 5 0 0 0-5-5h-20a5 5 0 0 0-5 5V36a1.25 1.25 0 1 1-2.5 0V20.25a5 5 0 0 0-5-5h-30a5 5 0 0 0-5 5v15a2 2 0 0 1-2 2h-10.5a5 5 0 0 0-5 5v52.5a5 5 0 0 0 5 5h93.5a5 5 0 0 0 5-5v-52.5a5 5 0 0 0-5-5h-6.5a2 2 0 0 1-2-2"/></g><path fill="#c78ee3" d="M72.75 20.75a1 1 0 0 0-1 1v22h-26v-5h10a1 1 0 0 0 1-1v-15a1 1 0 0 0-1-1h-25a1 1 0 0 0-1 1v15a1 1 0 0 0 1 1h10v5h-26a1 1 0 0 0-1 1v47a1 1 0 0 0 1 1h87a1 1 0 0 0 1-1v-47a1 1 0 0 0-1-1h-13v-22a1 1 0 0 0-1-1z"/><path fill="#40396e" d="M72.75 20.75v-1.5zm-1 1h-1.5zm0 22h1.5v1.5h-1.5zm-26 0v1.5h-1.5v-1.5zm0-5h-1.5v-1.5h1.5zm11-16h1.5zm-1-1v-1.5zm-26 1h-1.5zm1 16v1.5zm10 0v-1.5h1.5v1.5zm0 5h1.5v1.5h-1.5zm-26 49v1.5zm87-49v-1.5zm-13 0v1.5h-1.5v-1.5zm0-22h1.5zm-1-1v-1.5zm-15 0v1.5a.5.5 0 0 0 .5-.5h-3a2.5 2.5 0 0 1 2.5-2.5zm-1 1h1.5v22h-3v-22zm0 22v1.5h-26v-3h26zm-26 0h-1.5v-5h3v5zm0-5v-1.5h10v3h-10zm10 0v-1.5a.5.5 0 0 0-.5.5h3a2.5 2.5 0 0 1-2.5 2.5zm1-1h-1.5v-15h3v15zm0-15h-1.5c0 .28.22.5.5.5v-3a2.5 2.5 0 0 1 2.5 2.5zm-1-1v1.5h-25v-3h25zm-25 0v1.5a.5.5 0 0 0 .5-.5h-3a2.5 2.5 0 0 1 2.5-2.5zm-1 1h1.5v15h-3v-15zm0 15h1.5a.5.5 0 0 0-.5-.5v3a2.5 2.5 0 0 1-2.5-2.5zm1 1v-1.5h10v3h-10zm10 0h1.5v5h-3v-5zm0 5v1.5h-26v-3h26zm-26 0v1.5a.5.5 0 0 0 .5-.5h-3a2.5 2.5 0 0 1 2.5-2.5zm-1 1h1.5v47h-3v-47zm0 47h1.5a.5.5 0 0 0-.5-.5v3a2.5 2.5 0 0 1-2.5-2.5zm1 1v-1.5h87v3h-87zm87 0v-1.5a.5.5 0 0 0-.5.5h3a2.5 2.5 0 0 1-2.5 2.5zm1-1h-1.5v-47h3v47zm0-47h-1.5c0 .28.22.5.5.5v-3a2.5 2.5 0 0 1 2.5 2.5zm-1-1v1.5h-13v-3h13zm-13 0h-1.5v-22h3v22zm0-22h-1.5c0 .28.22.5.5.5v-3a2.5 2.5 0 0 1 2.5 2.5zm-1-1v1.5h-15v-3h15z"/><rect width="26" height="8" fill="#806c8a" stroke="#623578" stroke-width="3" rx="1" transform="matrix(-1 0 0 1 93.75 48.75)"/><rect width="27" height="17" fill="#c2a8cf" stroke="#40396e" stroke-width="3" rx="1" transform="matrix(-1 0 0 1 56.75 21.75)"/><rect width="19" height="9" fill="#623578" rx="1" transform="matrix(-1 0 0 1 52.75 25.75)"/><rect width="35" height="8" fill="#623578" rx="1" transform="matrix(-1 0 0 1 61.75 48.75)"/><rect width="7" height="7" fill="#cae6ff" stroke="#2f72af" stroke-width="3" rx="1" transform="matrix(-1 0 0 1 94.75 60.75)"/><rect width="7" height="7" fill="#c2a8cf" rx="1" transform="matrix(-1 0 0 1 70.75 60.75)"/><rect width="7" height="7" fill="#c2a8cf" rx="1" transform="matrix(-1 0 0 1 58.75 60.75)"/><rect width="7" height="7" fill="#c2a8cf" rx="1" transform="matrix(-1 0 0 1 46.75 60.75)"/><rect width="7" height="7" fill="#c2a8cf" rx="1" transform="matrix(-1 0 0 1 34.75 60.75)"/><rect width="7" height="7" fill="#c2a8cf" stroke="#2f72af" stroke-width="3" rx="1" transform="matrix(-1 0 0 1 82.75 60.75)"/><rect width="12" height="25" fill="#80b258" stroke="#4f7830" stroke-width="3" rx="1" transform="rotate(-164.37 53.56 23.72)scale(1 -1)"/><rect width="12" height="25" fill="#80b258" stroke="#4f7830" stroke-width="3" rx="1" transform="rotate(177.03 42.72 30.43)scale(1 -1)"/><rect width="76" height="12" fill="#c2a8cf" stroke="#8857a0" stroke-width="3" rx="1" transform="matrix(-1 0 0 1 102.75 73.75)"/><rect width="52" height="12" fill="#c2a8cf" stroke="#8857a0" stroke-width="3" rx="1" transform="matrix(-1 0 0 1 102.75 73.75)"/><path fill="#fff" d="M87.75 51.75a1 1 0 0 0 1-1v-29a1 1 0 0 0-1-1h-15a1 1 0 0 0-1 1v29a1 1 0 0 0 1 1z"/><path fill="#806c8a" d="M22.75 44.75h-9v48h9z"/><path stroke="#7d7d7d" stroke-width="3" d="M88.75 51.75v-30a1 1 0 0 0-1-1h-15a1 1 0 0 0-1 1v30"/><path stroke="#8857a0" stroke-linecap="round" stroke-width="3" d="M84.25 26.25h-7"/><path stroke="#623578" stroke-linecap="round" stroke-width="3" d="M21.75 44.75v47"/><path stroke="#8857a0" stroke-linecap="round" stroke-width="3" d="M83.75 30.75h-2m2 4h-2m2 4h-2m2 4h-5m5 4h-5"/><path fill="#40396e" d="M72.75 20.75v-1.5zm-1 1h-1.5zm0 22h1.5v1.5h-1.5zm-26 0v1.5h-1.5v-1.5zm0-5h-1.5v-1.5h1.5zm11-16h1.5zm-1-1v-1.5zm-26 1h-1.5zm1 16v1.5zm10 0v-1.5h1.5v1.5zm0 5h1.5v1.5h-1.5zm-27 0v-1.5zm0 49v1.5zm88 0v1.5zm0-49v-1.5zm-13 0v1.5h-1.5v-1.5zm0-22h1.5zm-1-1v-1.5zm-15 0v1.5a.5.5 0 0 0 .5-.5h-3a2.5 2.5 0 0 1 2.5-2.5zm-1 1h1.5v22h-3v-22zm0 22v1.5h-26v-3h26zm-26 0h-1.5v-5h3v5zm0-5v-1.5h10v3h-10zm10 0v-1.5a.5.5 0 0 0-.5.5h3a2.5 2.5 0 0 1-2.5 2.5zm1-1h-1.5v-15h3v15zm0-15h-1.5c0 .28.22.5.5.5v-3a2.5 2.5 0 0 1 2.5 2.5zm-1-1v1.5h-25v-3h25zm-25 0v1.5a.5.5 0 0 0 .5-.5h-3a2.5 2.5 0 0 1 2.5-2.5zm-1 1h1.5v15h-3v-15zm0 15h1.5a.5.5 0 0 0-.5-.5v3a2.5 2.5 0 0 1-2.5-2.5zm1 1v-1.5h10v3h-10zm10 0h1.5v5h-3v-5zm0 5v1.5h-27v-3h27zm-27 0v1.5a.5.5 0 0 0 .5-.5h-3a2.5 2.5 0 0 1 2.5-2.5zm-1 1h1.5v47h-3v-47zm0 47h1.5a.5.5 0 0 0-.5-.5v3a2.5 2.5 0 0 1-2.5-2.5zm1 1v-1.5h88v3h-88zm88 0v-1.5a.5.5 0 0 0-.5.5h3a2.5 2.5 0 0 1-2.5 2.5zm1-1h-1.5v-47h3v47zm0-47h-1.5c0 .28.22.5.5.5v-3a2.5 2.5 0 0 1 2.5 2.5zm-1-1v1.5h-13v-3h13zm-13 0h-1.5v-22h3v22zm0-22h-1.5c0 .28.22.5.5.5v-3a2.5 2.5 0 0 1 2.5 2.5zm-1-1v1.5h-15v-3h15z"/><defs><filter id="crests-product-lead-sales-east-filter0_d_23_25885" width="106.5" height="87.5" x="5.75" y="15.25" color-interpolation-filters="sRGB" filterUnits="userSpaceOnUse"><feFlood flood-opacity="0" result="BackgroundImageFix"/><feColorMatrix in="SourceAlpha" result="hardAlpha" values="0 0 0 0 0 0 0 0 0 0 0 0 0 0 0 0 0 0 127 0"/><feOffset dx="3" dy="3"/><feComposite in2="hardAlpha" operator="out"/><feColorMatrix values="0 0 0 0 0 0 0 0 0 0 0 0 0 0 0 0 0 0 0.4 0"/><feBlend in2="BackgroundImageFix" result="effect1_dropShadow_23_25885"/><feBlend in="SourceGraphic" in2="effect1_dropShadow_23_25885" result="shape"/></filter></defs></svg>