<svg xmlns="http://www.w3.org/2000/svg" fill="none" viewBox="0 0 115 115"><g filter="url(#crests-query-performance-2-filter0_d_23_8205)"><mask id="crests-query-performance-2-path-1-outside-1_23_8205" width="99" height="74" x="8" y="20.5" fill="#000" maskUnits="userSpaceOnUse"><path fill="#fff" d="M8 20.5h99v74H8z"/><path d="M93.2 23.5a1.5 1.5 0 0 1 1.34 1.26l9.44 57.35q.09.57-.23 1.07l-5.03 7.65a1.5 1.5 0 0 1-1.26.67h-77.4a1.5 1.5 0 0 1-1.5-1.3l-7.55-58.64q-.07-.62.31-1.12l5.04-6.37.11-.13a1.5 1.5 0 0 1 1.06-.44z"/></mask><path fill="#f1ecc7" d="M93.2 23.5a1.5 1.5 0 0 1 1.34 1.26l9.44 57.35q.09.57-.23 1.07l-5.03 7.65a1.5 1.5 0 0 1-1.26.67h-77.4a1.5 1.5 0 0 1-1.5-1.3l-7.55-58.64q-.07-.62.31-1.12l5.04-6.37.11-.13a1.5 1.5 0 0 1 1.06-.44z"/><path fill="#fff" d="m93.2 23.5.26-2.98-.14-.01zm1.34 1.26 2.96-.5zm9.44 57.35 2.96-.49zm-.23 1.07 2.5 1.65zm-5.03 7.65 2.5 1.65zm-78.67.67v3zm-1.49-1.3-2.97.37zm-7.55-58.64-2.97.39zm.31-1.12-2.35-1.86zm5.04-6.37-2.25-1.99-.1.13zm.11-.13-2.13-2.11-.12.12zm1.06-.44v-3zm75.53 0 .13-3h-.13zm.13 0-.27 3a1.5 1.5 0 0 1-1.34-1.26l2.96-.48 2.96-.5a4.5 4.5 0 0 0-4.04-3.74zm1.35 1.26-2.96.48 9.44 57.36 2.96-.5 2.96-.48-9.44-57.35zm9.44 57.35-2.96.49a1.5 1.5 0 0 1 .23-1.07l2.5 1.65 2.5 1.65a4.5 4.5 0 0 0 .69-3.2zm-.23 1.07-2.5-1.65-5.04 7.65 2.5 1.65 2.51 1.64 5.04-7.64zm-5.03 7.65-2.5-1.66a1.5 1.5 0 0 1 1.24-.67v6a4.5 4.5 0 0 0 3.76-2.02zm-1.26.67v-3h-77.4v6h77.4zm-77.4 0v-3c.75 0 1.38.56 1.48 1.3l-2.98.4-2.97.37a4.5 4.5 0 0 0 4.46 3.93zm-1.5-1.3 2.98-.4-7.55-58.62-2.98.38-2.97.39 7.55 58.62zm-7.55-58.64 2.98-.38c.05.4-.06.8-.31 1.12l-2.36-1.86-2.35-1.86a4.5 4.5 0 0 0-.93 3.37zm.31-1.12 2.36 1.86 5.03-6.37-2.35-1.86L14 22.21l-5.03 6.37zm5.04-6.37 2.24 1.99.12-.13-2.25-1.99-2.25-1.99-.1.13zm.11-.13 2.13 2.12a1.5 1.5 0 0 1-1.07.44v-6a4.5 4.5 0 0 0-3.19 1.33zm1.06-.44v3h75.53v-6H17.53zm75.53 0-.13 3h.14l.12-3 .13-3h-.13z" mask="url(#crests-query-performance-2-path-1-outside-1_23_8205)"/><path fill="#c3e2e9" fill-rule="evenodd" d="m17.53 25 7.56 57.35h77.41L93.06 25z" clip-rule="evenodd"/><path fill="#a8c5cc" d="M25.09 82.35 17.53 25l-5.03 6.37L20.05 90z"/><path fill="#a8c5cc" d="M102.5 82.35H25.09L20.05 90h77.41z"/><path stroke="#475a5e" stroke-linejoin="round" stroke-width="3" d="m17.53 25 7.56 57.35M20.05 90h77.41l5.04-7.65L93.06 25H17.53l-5.03 6.37zm5.04-7.65h77.41m-77.41 0L20.05 90"/><path fill="#f1ecc7" d="M82.7 62.2h-8.4l-6.7-7.78H76zm-15.1-7.78-1.7-11.07h8.4L76 54.42zM82.7 70.5h-8.4v-8.3h8.4z"/><path fill="#c2bea1" d="m74.3 70.5-5.58-6.65-1.12-9.43 6.7 7.77z"/><path fill="#918e77" d="m65.9 43.35-1.48.22a1.5 1.5 0 0 1 1.48-1.72zm2.82 20.5-1.15.96a1.5 1.5 0 0 1-.34-.79zm5.57 6.65V72c-.44 0-.86-.2-1.15-.53zm8.41 0h1.5c0 .83-.67 1.5-1.5 1.5zm0-8.3 1.14-.99q.35.42.36.98zm-8.4-18.85v-1.5c.73 0 1.36.54 1.47 1.27zm-5.58 20.5 1.15-.97 5.57 6.66-1.15.96-1.15.97-5.57-6.66zm5.57 6.65V69h8.41v3h-8.4zm8.41 0h-1.5v-8.3h3v8.3zm0-8.3v1.5h-8.4v-3h8.4zm-8.4 0h1.5v8.3h-3v-8.3zm-8.4-18.85 1.48-.23 1.7 11.07-1.48.23-1.48.23-1.7-11.08zm1.7 11.07 1.5-.18 1.11 9.43-1.49.18-1.49.17-1.12-9.42zm6.7 7.77-1.14.98-6.7-7.77 1.14-.98 1.14-.98 6.69 7.77zm8.4 0-1.13.98-6.71-7.77 1.13-.98 1.14-.98 6.7 7.77zM76 54.42v1.5h-8.4v-3H76zM65.9 43.35v-1.5h8.4v3h-8.4zm8.4 0 1.47-.23 1.7 11.07-1.48.23-1.48.23-1.7-11.08z"/><path fill="#f1ecc7" d="m53 41.24-1.15-6.74h-8.08l1.15 6.74zm-5.77 11.22L53 41.24h-8.08l-5.74 11.22zM41.46 66.5h8.65l-2.88-14.04h-8.05z"/><path fill="#c2bea1" d="m44.92 41.24-1.15-6.74L38 45.16l1.18 7.3z"/><path stroke="#918e77" stroke-linejoin="round" stroke-width="3" d="M47.23 52.46 53 41.24l-1.15-6.74h-8.08L38 45.16l1.18 7.3 2.28 14.04h8.65zm0 0h-8.05M53 41.24h-8.08m-1.15-6.74 1.15 6.74m0 0-5.74 11.22"/><path stroke="#40396e" stroke-linejoin="round" stroke-width="3" d="M19.5 90 12 31l6-6.5h75l9 58-5.5 7.5z"/></g><defs><filter id="crests-query-performance-2-filter0_d_23_8205" width="102" height="77" x="8" y="20.5" color-interpolation-filters="sRGB" filterUnits="userSpaceOnUse"><feFlood flood-opacity="0" result="BackgroundImageFix"/><feColorMatrix in="SourceAlpha" result="hardAlpha" values="0 0 0 0 0 0 0 0 0 0 0 0 0 0 0 0 0 0 127 0"/><feOffset dx="3" dy="3"/><feComposite in2="hardAlpha" operator="out"/><feColorMatrix values="0 0 0 0 0 0 0 0 0 0 0 0 0 0 0 0 0 0 0.4 0"/><feBlend in2="BackgroundImageFix" result="effect1_dropShadow_23_8205"/><feBlend in="SourceGraphic" in2="effect1_dropShadow_23_8205" result="shape"/></filter></defs></svg>