<svg xmlns="http://www.w3.org/2000/svg" fill="none" viewBox="0 0 115 115"><g filter="url(#crests-query-performance-filter0_d_23_10754)"><mask id="crests-query-performance-path-1-outside-1_23_10754" width="92" height="92" x="8.15" y="14.2" fill="#000" maskUnits="userSpaceOnUse"><path fill="#fff" d="M8.15 14.2h92v92h-92z"/><path d="M90.15 17.2c.83 0 1.5.67 1.5 1.5v7c0 .82-.67 1.5-1.5 1.5H79.94l-1.8 2.59-.7 1.18q-.17.27-.43.45l-7.63 11.03 3.53 3.12c.54.48.66 1.28.29 1.9l-2.09 3.45 5 4.68c.3.28.47.68.47 1.1v44.5c0 .82-.67 1.5-1.5 1.5H12.65a1.5 1.5 0 0 1-1.5-1.5V31.7c0-.83.67-1.5 1.5-1.5h35.88q.5.05.88.4l3.56 3.33 1.9-2.61a1.5 1.5 0 0 1 2.2-.25l3.43 3.03 4.38-4.7q.07-.11.16-.2l4.5-5q.22-.26.54-.39l5.71-6.14c.28-.3.68-.47 1.1-.47zm-.7 14.5a1.5 1.5 0 0 1 1.44.7v.01l.01.01.02.05.1.15.32.56q.43.75 1.16 2.14a84 84 0 0 1 3.5 7.83c.82 2.09.47 3.98-.73 5.33a6.3 6.3 0 0 1-4.38 1.96 6 6 0 0 1-4.57-1.6c-1.3-1.32-1.76-3.25-1.17-5.52a245 245 0 0 1 2.98-10.46l.04-.11.01-.03v-.01a1.5 1.5 0 0 1 1.26-1m-60.8 16.5h23.83l-7.45-7.5H28.65z"/></mask><path fill="#fff" d="M90.15 17.2c.83 0 1.5.67 1.5 1.5v7c0 .82-.67 1.5-1.5 1.5H79.94l-1.8 2.59-.7 1.18q-.17.27-.43.45l-7.63 11.03 3.53 3.12c.54.48.66 1.28.29 1.9l-2.09 3.45 5 4.68c.3.28.47.68.47 1.1v44.5c0 .82-.67 1.5-1.5 1.5H12.65a1.5 1.5 0 0 1-1.5-1.5V31.7c0-.83.67-1.5 1.5-1.5h35.88q.5.05.88.4l3.56 3.33 1.9-2.61a1.5 1.5 0 0 1 2.2-.25l3.43 3.03 4.38-4.7q.07-.11.16-.2l4.5-5q.22-.26.54-.39l5.71-6.14c.28-.3.68-.47 1.1-.47zm-.7 14.5a1.5 1.5 0 0 1 1.44.7v.01l.01.01.02.05.1.15.32.56q.43.75 1.16 2.14a84 84 0 0 1 3.5 7.83c.82 2.09.47 3.98-.73 5.33a6.3 6.3 0 0 1-4.38 1.96 6 6 0 0 1-4.57-1.6c-1.3-1.32-1.76-3.25-1.17-5.52a245 245 0 0 1 2.98-10.46l.04-.11.01-.03v-.01a1.5 1.5 0 0 1 1.26-1m-60.8 16.5h23.83l-7.45-7.5H28.65z"/><path fill="#fff" d="M79.94 27.2v-3a3 3 0 0 0-2.47 1.29zm-1.8 2.59-2.46-1.71q-.06.07-.11.17zm-.7 1.18L80 32.5zm-.43.45-1.73-2.45a3 3 0 0 0-.73.74zm-7.63 11.03-2.47-1.7a3 3 0 0 0 .48 3.95zm3.53 3.12 1.98-2.25zm.29 1.9 2.56 1.55zm-2.09 3.45-2.57-1.55a3 3 0 0 0 .52 3.74zm5 4.68 2.05-2.19zm-1.03 47.1v3zM48.39 30.2l.14-3h-.14zm.14 0 .28-2.98-.13-.01zm.88.4-2.05 2.19zm3.56 3.33-2.05 2.2a3 3 0 0 0 4.49-.44zm1.9-2.61 2.43 1.75zm1.04-.62-.33-2.98zm1.16.37 1.99-2.25zm3.43 3.03-1.99 2.25a3 3 0 0 0 4.19-.2zm4.38-4.7 2.2 2.04a3 3 0 0 0 .34-.44zm.16-.2 2.23 2zm4.5-5-2.23-2.02zm.54-.39 1.14 2.77a3 3 0 0 0 1.06-.73zm5.71-6.14 2.2 2.05zM89.45 31.7l-.33-2.98zm1.44.7h3a3 3 0 0 0-.45-1.57zm0 0h-3a3 3 0 0 0 .88 2.13zm0 .01 2.56-1.57a3 3 0 0 0-.44-.55zm0 0-2.55 1.57zm.01.01 2.56-1.56zm.02.05-2.56 1.55zm.1.15 2.58-1.53zm.32.56-2.6 1.48zm1.16 2.14 2.66-1.37zm3.5 7.83 2.8-1.09zm-.73 5.33 2.25 1.99zm-4.38 1.96.15 3zm-4.57-1.6-2.13 2.1zm-1.17-5.52-2.9-.76zm2.25-8.12-2.87-.86zm.58-1.88-2.85-.92zm.15-.46-2.84-.94zm.04-.11-2.84-.97zm.01-.03 2.84.97v-.02zm0-.01 2.85.94a3 3 0 0 0 .16-.94zm0 0-2.83-.99a3 3 0 0 0-.16.99zM28.66 48.2h-3a3 3 0 0 0 3 3zm23.83 0v3a3 3 0 0 0 2.13-5.12zm-7.45-7.5 2.13-2.12a3 3 0 0 0-2.13-.88zm-16.38 0v-3a3 3 0 0 0-3 3zm61.5-23.5v3a1.5 1.5 0 0 1-1.5-1.5h6a4.5 4.5 0 0 0-4.5-4.5zm1.5 1.5h-3v7h6v-7zm0 7h-3c0-.83.67-1.5 1.5-1.5v6a4.5 4.5 0 0 0 4.5-4.5zm-1.5 1.5v-3H79.94v6h10.21zm-10.21 0-2.47-1.71-1.8 2.59 2.47 1.7 2.47 1.71 1.8-2.59zm-1.8 2.59-2.57-1.54-.7 1.18 2.57 1.54L80 32.5l.7-1.18zm-.7 1.18-2.58-1.55q.2-.3.42-.45l1.73 2.45 1.74 2.45q.73-.52 1.26-1.36zm-.43.45-2.46-1.7-7.64 11.03 2.47 1.7 2.47 1.71 7.63-11.03zm-7.63 11.03L67.4 44.7l3.53 3.12 1.99-2.25 1.98-2.25-3.52-3.11zm3.53 3.12-1.99 2.25a1.5 1.5 0 0 1-.3-1.9l2.58 1.55 2.57 1.55a4.5 4.5 0 0 0-.88-5.7zm.29 1.9-2.57-1.55-2.09 3.45 2.57 1.55 2.57 1.55 2.08-3.45zm-2.09 3.45-2.05 2.2 5 4.67 2.05-2.19 2.05-2.19-5-4.68zm5 4.68-2.06 2.19a1.5 1.5 0 0 1-.47-1.1h6a4.5 4.5 0 0 0-1.42-3.28zm.47 1.1h-3v44.5h6V56.7zm0 44.5h-3c0-.83.67-1.5 1.5-1.5v6a4.5 4.5 0 0 0 4.5-4.5zm-1.5 1.5v-3H12.65v6h62.43zm-62.43 0v-3c.83 0 1.5.67 1.5 1.5h-6a4.5 4.5 0 0 0 4.5 4.5zm-1.5-1.5h3V31.7h-6v69.5zm0-69.5h3c0 .82-.67 1.5-1.5 1.5v-6a4.5 4.5 0 0 0-4.5 4.5zm1.5-1.5v3H48.4v-6H12.65zm35.74 0-.15 3h.15l.14-3 .15-3h-.15zm.14 0-.28 2.99a1.5 1.5 0 0 1-.89-.4l2.05-2.19 2.06-2.19a4.5 4.5 0 0 0-2.66-1.2zm.88.4-2.05 2.19 3.56 3.33 2.05-2.19 2.06-2.18-3.56-3.34zm3.56 3.33 2.44 1.76 1.89-2.62-2.44-1.75-2.43-1.76-1.89 2.62zm1.9-2.61 2.43 1.75a1.5 1.5 0 0 1-1.05.62l-.34-2.99-.33-2.98a4.5 4.5 0 0 0-3.15 1.84zm1.04-.62.34 2.99a1.5 1.5 0 0 1-1.16-.37l1.98-2.25 1.99-2.25a4.5 4.5 0 0 0-3.48-1.1zm1.16.37-1.98 2.25 3.42 3.03 2-2.25 1.98-2.25-3.43-3.03zm3.43 3.03 2.2 2.05 4.38-4.71-2.2-2.05-2.2-2.04-4.37 4.7zm4.38-4.7 2.54 1.6-.15.2-2.23-2-2.23-2.02q-.27.3-.46.6zm.16-.2 2.23 2 4.5-5-2.23-2-2.23-2.02-4.5 5zm4.5-5 2.23 2q-.24.26-.55.38l-1.14-2.77-1.14-2.77a4.5 4.5 0 0 0-1.63 1.14zm.54-.39 2.2 2.04 5.7-6.13-2.19-2.05-2.2-2.04-5.7 6.14zm5.71-6.14 2.2 2.05q-.45.46-1.1.48v-6a4.5 4.5 0 0 0-3.3 1.43zm1.1-.47v3h13.26v-6H76.9zm12.56 14.5.33 2.99a1.5 1.5 0 0 1-1.44-.7l2.55-1.58 2.55-1.58a4.5 4.5 0 0 0-4.32-2.1zm1.44.7h-3zh3zm0 0-2.12 2.13 2.12-2.12 2.12-2.12zm0 .01-2.55 1.57-.16-.28-.01-.03-.01-.02.01.03.17.3zl2.56-1.56.16.3.02.03-.01-.02-.02-.04-.02-.04-.13-.24zm0 0-2.55 1.57.02.04.01.02v.01h.01l-.01-.02-.03-.04 2.56-1.57 2.56-1.56-.03-.05-.02-.02.02.02.02.04zm.01.01L88.34 34l-.01-.02.03.05 2.56-1.55 2.57-1.56q0 .02 0 0t-.03-.05zm.02.05-2.56 1.55.07.13 2.58-1.53 2.59-1.53q-.09-.13-.1-.18zm.1.15-2.59 1.53.3.51 2.61-1.48 2.61-1.48-.35-.61zm.32.56-2.6 1.48q.4.7 1.09 2.03l2.67-1.37 2.66-1.37a63 63 0 0 0-1.2-2.25zm1.16 2.14-2.67 1.37a81 81 0 0 1 3.39 7.55l2.8-1.09 2.79-1.09a87 87 0 0 0-3.65-8.11zM96 43.15l-2.8 1.09c.46 1.17.2 1.84-.18 2.26l2.25 1.98 2.25 1.99c2.02-2.3 2.45-5.4 1.28-8.4zm-.73 5.33-2.25-1.98a3.3 3.3 0 0 1-2.28.95l.15 3 .15 2.99c2.17-.1 4.7-.95 6.48-2.97zm-4.38 1.96-.14-3a3 3 0 0 1-2.3-.73l-2.13 2.12-2.13 2.12c2 2 4.67 2.6 6.85 2.49zm-4.57-1.6 2.12-2.13c-.4-.4-.77-1.16-.39-2.64l-2.9-.75-2.9-.76c-.8 3.08-.26 6.17 1.94 8.39zm-1.17-5.52 2.9.75a237 237 0 0 1 2.23-8l-2.88-.87-2.87-.86a248 248 0 0 0-2.28 8.22zm2.25-8.12 2.88.86.56-1.82-2.86-.92-2.85-.92-.6 1.94zm.58-1.88 2.86.92.14-.43-2.85-.95-2.84-.94-.16.48zm.15-.46 2.85.95.01-.04.01-.03.01-.03-2.84-.96-2.84-.97-.04.14zm.04-.11 2.84.96v-.02l-2.83-.97-2.84-.97-.01.03zm.01-.03 2.85.95v-.02l-2.84-.94-2.85-.95zm0-.01h3zh-3zm0 0 2.84.98a1.5 1.5 0 0 1-1.25 1l-.33-2.99-.33-2.98a4.5 4.5 0 0 0-3.76 3zM28.66 48.2v3h23.83v-6H28.65zm23.83 0 2.13-2.12-7.45-7.5-2.13 2.12-2.13 2.1 7.45 7.5zm-7.45-7.5v-3H28.65v6h16.38zm-16.38 0h-3v7.5h6v-7.5z" mask="url(#crests-query-performance-path-1-outside-1_23_10754)"/><path fill="#e15d3d" fill-rule="evenodd" d="M12.65 31.7v69.5h62.43V56.7l-5.88-5.51-16-15-4.81-4.5zm33 7.5h-18.5v10.5h28.93z" clip-rule="evenodd"/><path fill="#e15d3d" fill-rule="evenodd" d="M12.65 31.7v69.5h62.43V56.7l-5.88-5.51-16-15-4.81-4.5zm33 7.5h-18.5v10.5h28.93z" clip-rule="evenodd"/><path fill="#e15d3d" fill-rule="evenodd" d="M12.65 31.7v69.5h62.43V56.7l-5.88-5.51-16-15-4.81-4.5zm33 7.5h-18.5v10.5h28.93z" clip-rule="evenodd"/><path fill="#9a97ac" d="M76.89 18.7 60.6 36.2l-4.52-4-2.89 4 16 14.99 2.72-4.5-4.52-4 11.76-17h11v-7z"/><path stroke="#40396e" stroke-linejoin="round" stroke-width="3" d="m69.2 51.19 5.88 5.5v44.5H12.65V31.7H48.4l4.8 4.5m16 15 2.72-4.5-4.52-4 11.76-17h11v-7H76.9L60.6 36.2l-4.52-4-2.89 4m16 15-16-15m-26.04 3h18.5l10.43 10.5H27.15z"/><path stroke="#6c6887" stroke-linejoin="round" stroke-width="3" d="m61.15 35.7 6.5 6 4.5-6-6-5.5 4.5-5 5.5 5 3-5-2-6.5h7v6.5"/><path fill="#be4123" d="M13.15 32.2h5v69h-5z"/><path stroke="#813b2a" stroke-linejoin="round" stroke-width="3" d="M18.15 32.2v68.5"/><path stroke="#40396e" stroke-linejoin="round" stroke-width="3" d="m69.2 51.19 5.88 5.5v44.5H12.65V31.7H48.4l4.8 4.5m16 15 2.72-4.5-4.52-4 11.76-17h11v-7H76.9L60.6 36.2l-4.52-4-2.89 4m16 15-16-15m-26.54 3h19l10.43 10.5H26.65z"/><path fill="#ffba36" stroke="#40396e" stroke-linejoin="round" stroke-width="3" d="M94.61 43.7c-2.53-6.5-5-10.5-5-10.5s-1.03 3-3 10.5c-1.96 7.5 10.54 6.5 8 0Z"/></g><defs><filter id="crests-query-performance-filter0_d_23_10754" width="94.3" height="94.5" x="8.15" y="14.2" color-interpolation-filters="sRGB" filterUnits="userSpaceOnUse"><feFlood flood-opacity="0" result="BackgroundImageFix"/><feColorMatrix in="SourceAlpha" result="hardAlpha" values="0 0 0 0 0 0 0 0 0 0 0 0 0 0 0 0 0 0 127 0"/><feOffset dx="3" dy="3"/><feComposite in2="hardAlpha" operator="out"/><feColorMatrix values="0 0 0 0 0 0 0 0 0 0 0 0 0 0 0 0 0 0 0.4 0"/><feBlend in2="BackgroundImageFix" result="effect1_dropShadow_23_10754"/><feBlend in="SourceGraphic" in2="effect1_dropShadow_23_10754" result="shape"/></filter></defs></svg>