<svg xmlns="http://www.w3.org/2000/svg" fill="none" viewBox="0 0 115 115"><g filter="url(#crests-security-filter0_d_23_8528)"><mask id="crests-security-path-1-outside-1_23_8528" width="101" height="104" x="7.31" y="4.06" fill="#000" maskUnits="userSpaceOnUse"><path fill="#fff" d="M7.31 4.06h101v104h-101z"/><path d="M41.45 7.06c5.67.03 11.45 1.27 15.9 3.84 4.47 2.58 7.77 6.64 7.77 12.18v14.7h5.19a2 2 0 0 1 2 2v25.34a2 2 0 0 1 .91.53l3.51 3.5 5.24-2.4.18-.08a2 2 0 0 1 1.29 0l8.07 2.68 3.69-2.45.17-.1a2 2 0 0 1 2.63.68l7 11a2 2 0 0 1-1.7 3.08h-31v20.5a2 2 0 0 1-2 2h-58a2 2 0 0 1-2-2V39.78c0-1.1.9-2 2-2h5.46v-14.7c0-5.64 3.28-9.73 7.78-12.31 4.45-2.55 10.24-3.74 15.91-3.71m.12 10.26c-3.39 0-6.66.62-9 1.75-2.38 1.13-3.36 2.54-3.36 4.02v14.7h24.73v-14.7c0-1.48-.99-2.89-3.35-4.02-2.35-1.13-5.62-1.75-9.02-1.75M19.83 21.8v.05-.15zm7.85-.88-.04.08zm2.6-2.85"/></mask><path fill="#fff" d="M41.45 7.06c5.67.03 11.45 1.27 15.9 3.84 4.47 2.58 7.77 6.64 7.77 12.18v14.7h5.19a2 2 0 0 1 2 2v25.34a2 2 0 0 1 .91.53l3.51 3.5 5.24-2.4.18-.08a2 2 0 0 1 1.29 0l8.07 2.68 3.69-2.45.17-.1a2 2 0 0 1 2.63.68l7 11a2 2 0 0 1-1.7 3.08h-31v20.5a2 2 0 0 1-2 2h-58a2 2 0 0 1-2-2V39.78c0-1.1.9-2 2-2h5.46v-14.7c0-5.64 3.28-9.73 7.78-12.31 4.45-2.55 10.24-3.74 15.91-3.71m.12 10.26c-3.39 0-6.66.62-9 1.75-2.38 1.13-3.36 2.54-3.36 4.02v14.7h24.73v-14.7c0-1.48-.99-2.89-3.35-4.02-2.35-1.13-5.62-1.75-9.02-1.75M19.83 21.8v.05-.15zm7.85-.88-.04.08zm2.6-2.85"/><path fill="#fff" d="m41.45 7.06.02-3zm15.9 3.84 1.5-2.6zm7.77 26.88h-3v3h3zm7.19 27.34h-3v2.33l2.25.58zm.91.53 2.12-2.13zm3.51 3.5-2.12 2.13 1.48 1.48 1.9-.88zm5.24-2.4-1.13-2.79-.06.03-.07.03zm.18-.08-1-2.83-.07.02-.06.03zm1.29 0-.95 2.84zm8.07 2.68-.95 2.85 1.4.46 1.22-.81zm3.69-2.45-1.54-2.58-.06.04-.07.04zm.17-.1-1.4-2.66-.07.04-.07.04zm1.35-.2.62-2.93zm1.28.88 2.53-1.6zm7 11 2.53-1.6zm.06 2.04 2.63 1.45zm-32.75 1.04v-3h-3v3zm0 20.5h3zm-62 0h-3zm7.45-64.28v3h3v-3zm0-14.7h-3zm7.78-12.31-1.5-2.6zm16.03 6.55v-3zm-9 1.75-1.3-2.7zm-3.36 4.02h-3zm0 14.7h-3v3h3zm24.73 0v3h3v-3zm0-14.7h3zm-3.35-4.02 1.3-2.7zm-30.76 2.72-2.98-.33zm0 .05-3-.3 5.97.62zm0-.15 2.99.35-5.96-.7zm.07-.42 2.96.46-5.93-.93zm-.03.2-2.97-.4 5.94.81zm7.8-.56 2.73 1.25-5.45-2.5zm-.03.08-2.75-1.2 5.5 2.4zm2.16-2.6 1.8 2.4L28 16zm-.28.23-1.9-2.33 3.8 4.65zm.76-.56v-3h-.9l-.75.5zm-.39.27-1.77-2.42 3.55 4.84zm.4-.27 1.65 2.5 8.32-5.5h-9.98zm11.16-11-.01 3c5.3.03 10.53 1.2 14.4 3.43l1.5-2.6 1.5-2.6c-5-2.88-11.33-4.2-17.37-4.23zm15.9 3.84-1.5 2.6c3.86 2.22 6.27 5.43 6.27 9.58h6c0-6.94-4.19-11.85-9.27-14.78zm7.77 12.18h-3v14.7h6v-14.7zm0 14.7v3h5.19v-6h-5.19zm5.19 0v3a1 1 0 0 1-1-1h6a5 5 0 0 0-5-5zm2 2h-3v25.34h6V39.78zm0 25.34-.75 2.9a1 1 0 0 1-.46-.25l2.12-2.12 2.12-2.13a5 5 0 0 0-2.28-1.3zm.91.53-2.12 2.12 3.51 3.5 2.12-2.11 2.13-2.12-3.52-3.52zm3.51 3.5L78 71.89l5.24-2.41-1.26-2.73-1.26-2.72-5.23 2.41zm5.24-2.4 1.13 2.77.17-.07-1.12-2.78-1.13-2.78-.18.07zm.18-.08.99 2.83a1 1 0 0 1-.65 0l.95-2.84.95-2.84a5 5 0 0 0-3.24.02zm1.29 0-.95 2.84 8.07 2.69.95-2.85.95-2.84-8.07-2.7zm8.07 2.68 1.67 2.5 3.68-2.46-1.66-2.5-1.67-2.5-3.68 2.47zm3.69-2.45 1.54 2.57.17-.1-1.54-2.58-1.54-2.57-.17.1zm.17-.1 1.4 2.64a1 1 0 0 1-.67.1l.62-2.94.62-2.93a5 5 0 0 0-3.38.47zm1.35-.2-.62 2.94a1 1 0 0 1-.64-.44L98 67.48l2.53-1.6a5 5 0 0 0-3.19-2.21zm1.28.88-2.54 1.62 7 11 2.54-1.62 2.53-1.6-7-11zm7 11-2.54 1.62a1 1 0 0 1-.03-1.02l2.63 1.44 2.63 1.45a5 5 0 0 0-.16-5.1zm.06 2.04-2.63-1.44a1 1 0 0 1 .88-.52v6a5 5 0 0 0 4.38-2.6zm-1.75 1.04v-3h-31v6h31zm-31 0h-3v20.5h6v-20.5zm0 20.5h-3a1 1 0 0 1 1-1v6a5 5 0 0 0 5-5zm-2 2v-3h-58v6h58zm-58 0v-3a1 1 0 0 1 1 1h-6a5 5 0 0 0 5 5zm-2-2h3V39.78h-6v62.28zm0-62.28h3a1 1 0 0 1-1 1v-6a5 5 0 0 0-5 5zm2-2v3h5.45v-6H12.3zm5.45 0h3v-14.7h-6v14.7zm0-14.7h3c0-4.27 2.42-7.5 6.27-9.7l-1.5-2.61-1.48-2.6c-5.14 2.94-9.3 7.9-9.3 14.92zm7.78-12.31 1.5 2.6c3.86-2.22 9.1-3.34 14.4-3.31l.01-3 .02-3c-6.04-.03-12.4 1.22-17.42 4.1zm16.03 6.55v-3c-3.69 0-7.44.66-10.3 2.04l1.3 2.7 1.3 2.7c1.82-.87 4.61-1.44 7.7-1.44zm-9 1.75-1.3-2.7c-2.89 1.38-5.06 3.6-5.06 6.72h6c0-.02-.01-.09.13-.27.18-.22.6-.6 1.52-1.05zm-3.36 4.02h-3v14.7h6v-14.7zm0 14.7v3h24.73v-6H29.21zm24.73 0h3v-14.7h-6v14.7zm0-14.7h3c0-3.12-2.17-5.34-5.06-6.73l-1.3 2.7-1.3 2.7c.92.45 1.35.84 1.53 1.06.14.18.13.25.13.27zm-3.35-4.02 1.3-2.7c-2.87-1.39-6.63-2.05-10.32-2.05v6c3.1 0 5.9.57 7.72 1.45zm-30.76 2.72-2.98-.33-.01.06v.01l2.98.31 2.98.32.01-.05zm0 .05 2.98.32v-.12l-2.97-.35-2.98-.35-.02.2zm0-.15-2.97-.35v.01l-.01.1 2.98.34 2.98.33v.01-.08zm.07-.42-2.97-.47-.03.26 2.97.41 2.97.41.02-.15zm-.03.2 2.97.41.02-.15-2.96-.46-2.97-.47q0 .13-.03.26zm7.8-.56-2.72-1.24-.02.03-.04.09 2.75 1.2 2.75 1.2v.02-.02l.01-.03zm-.03.08 2.75 1.2v.01-.01l.01-.03-2.72-1.25-2.73-1.25-.02.04-.03.08zm2.16-2.6L28 16l-.38.3 1.9 2.33 1.9 2.32.19-.15zm-.28.23 1.9 2.32.19-.15-1.8-2.4L28 16l-.38.3zm.76-.56-1.65-2.5q-.27.17-.51.35l1.77 2.42 1.78 2.42.27-.19zm-.39.27 1.78 2.42.27-.19-1.66-2.5-1.65-2.5q-.26.16-.51.35zm.4-.27v-3zv3z" mask="url(#crests-security-path-1-outside-1_23_8528)"/><path fill="#eda83f" d="M27.2 39.78v-16.7c0-10.35 28.74-10.35 28.74 0v16.7h7.18v-16.7c0-18.47-43.36-18.92-43.36 0v16.7z"/><path fill="#b0d2d6" d="M12.3 39.78v62.28h58V39.78H12.32"/><path stroke="#40396e" stroke-linejoin="round" stroke-width="3" d="M27.2 39.78v-16.7c0-10.35 28.74-10.35 28.74 0v16.7m-28.73 0h28.73m-28.73 0h-7.45m36.18 0h7.18m-43.36 0H12.3v62.28h58V39.78h-7.19m-43.36 0v-16.7c0-18.92 43.36-18.47 43.36 0v16.7"/><path fill="#eda83f" d="m96.3 68.56 7 11H66.8l1.5-11h1.5l2-1.5 4.5 4.5 6.5-3 9 3z"/><path stroke="#40396e" stroke-linejoin="round" stroke-width="3" d="M66.8 79.56h36.5l-7-11-4.5 3-9-3-6.5 3-4.5-4.5-2 1.5h-1.5l-1.5 11"/><circle cx="49.81" cy="72.56" r="19" fill="#eda83f" stroke="#b27000" stroke-width="3"/><path fill="#eda83f" d="M64.3 65.56c2.24 2.02 4.93 7.41 6 4l1 4.5-2 4.5c-1-1.5-3.5 1-4 2.5s-1-15.5-1-15.5"/><circle cx="40.31" cy="72.06" r="2.5" fill="#b0d2d6" stroke="#b27000" stroke-width="3"/></g><defs><filter id="crests-security-filter0_d_23_8528" width="104" height="106" x="7.31" y="4.06" color-interpolation-filters="sRGB" filterUnits="userSpaceOnUse"><feFlood flood-opacity="0" result="BackgroundImageFix"/><feColorMatrix in="SourceAlpha" result="hardAlpha" values="0 0 0 0 0 0 0 0 0 0 0 0 0 0 0 0 0 0 127 0"/><feOffset dx="3" dy="3"/><feComposite in2="hardAlpha" operator="out"/><feColorMatrix values="0 0 0 0 0 0 0 0 0 0 0 0 0 0 0 0 0 0 0.4 0"/><feBlend in2="BackgroundImageFix" result="effect1_dropShadow_23_8528"/><feBlend in="SourceGraphic" in2="effect1_dropShadow_23_8528" result="shape"/></filter></defs></svg>