<svg xmlns="http://www.w3.org/2000/svg" fill="none" viewBox="0 0 115 115"><g filter="url(#crests-session-reply-filter0_d_23_19859)"><path fill="url(#crests-session-reply-paint0_linear_23_19859)" d="m42.44 22.97-20.13 3.8a4.74 4.74 0 0 0-3.86 4.65c0 2.12-1.4 3.97-3.44 4.56l-4.2 1.2a4 4 0 0 0-2.9 3.8l-.44 43.54a4 4 0 0 0 2.18 3.6l15.01 7.71a4 4 0 0 0 2.7.35l69.46-15.49a4 4 0 0 0 3.13-3.9V35.82a4 4 0 0 0-2.03-3.48l-13.2-7.49a10 10 0 0 0-6.96-1.1L52.5 28.97a4 4 0 0 1-4.06-1.6l-2-2.8a4 4 0 0 0-4-1.6"/></g><path fill="#7faae1" fill-rule="evenodd" d="M20.85 40.1a4 4 0 0 0 2.87-5.57l-.24-.53a2 2 0 0 1 1.42-2.78l16.81-3.44a2 2 0 0 1 2.18 1.05l1.73 3.35a4 4 0 0 0 4.34 2.1l30.94-6.2a2 2 0 0 1 1.35.2l10.56 5.73a6.6 6.6 0 0 1 2.36 2.28q.28.45.28 1.02v36.87a2 2 0 0 1-1.58 1.95L28.71 90.25c-.72.15-1.53.21-2.26.16a2 2 0 0 1-.73-.19L13.58 84.4a2 2 0 0 1-1.13-1.8V45.05a4 4 0 0 1 3.21-3.93z" clip-rule="evenodd"/><path fill="#40396e" d="m23.48 34 1.36-.62zm1.42-2.78.3 1.47zm16.81-3.44.3 1.47zm2.18 1.05 1.33-.69zm37.01-.74-.29-1.47zm1.35.2.71-1.32zM92.8 34l-.72 1.32zm1.06 42.12-.32-1.47zM28.71 90.25l.32 1.47zm-2.99-.03-.65 1.35zM13.58 84.4l.65-1.36zm2.08-43.27-.29-1.47zm10.79 49.28-.1 1.5zM95.17 36.3l-1.29.76zm-49.55-4.1-1.33.68zm-21.9 2.34 1.36-.62-.24-.53-1.36.62-1.37.61.24.54zm-.24-.53 1.36-.62a.5.5 0 0 1 .36-.7l-.3-1.46-.3-1.47a3.5 3.5 0 0 0-2.5 4.86zm1.42-2.78.3 1.47L42 29.25l-.3-1.47-.3-1.46-16.81 3.43zm16.81-3.44.3 1.47a.5.5 0 0 1 .55.27l1.33-.7 1.33-.68a3.5 3.5 0 0 0-3.8-1.82zm2.18 1.05-1.33.69 1.73 3.35 1.33-.69 1.33-.68-1.73-3.36zm37.01-.74-.29-1.47-30.94 6.18.3 1.47.29 1.48 30.94-6.2zm1.35.2.71-1.32a3.5 3.5 0 0 0-2.35-.35l.3 1.47.29 1.47a.5.5 0 0 1 .33.05zM92.8 34l.71-1.32-10.56-5.72-.71 1.32-.72 1.32 10.56 5.72zm2.64 3.3h1.5q-.01-.99-.49-1.78l-1.29.76-1.29.76q.07.1.07.26zm0 36.87h1.5V37.3h-3v36.87zm-1.58 1.95.32 1.47a3.5 3.5 0 0 0 2.76-3.42h-3a.5.5 0 0 1-.4.48zM28.71 90.25l.32 1.47L94.19 77.6l-.32-1.47-.32-1.47L28.4 88.78zm-2.99-.03-.65 1.35q.61.3 1.28.34l.1-1.5.1-1.5-.18-.04zM13.58 84.4l-.65 1.35 12.14 5.82.65-1.35.65-1.35-12.14-5.83zm-1.13-1.8h-1.5a3.5 3.5 0 0 0 1.98 3.15l.65-1.35.65-1.36a.5.5 0 0 1-.28-.45zm0-37.54h-1.5v37.53h3V45.06zm8.4-4.96-.29-1.47-5.19 1.03.3 1.47.29 1.47 5.19-1.03zm-8.4 4.96h1.5c0-1.2.84-2.22 2-2.46l-.29-1.47-.29-1.47a5.5 5.5 0 0 0-4.42 5.4zM28.7 90.25l-.32-1.47a7 7 0 0 1-1.84.14l-.1 1.5-.1 1.5c.87.05 1.82-.02 2.68-.2zM92.8 34l-.72 1.32a5 5 0 0 1 1.8 1.72l1.28-.76 1.3-.76a8 8 0 0 0-2.95-2.84zm-47.19-1.83-1.33.7a5.5 5.5 0 0 0 5.97 2.87l-.3-1.48-.3-1.47a2.5 2.5 0 0 1-2.7-1.3zm-21.9 2.35-1.37.62a2.5 2.5 0 0 1-1.79 3.48l.3 1.47.29 1.47a5.5 5.5 0 0 0 3.93-7.66z"/><path fill="#c1dcff" d="M26.45 90.78V48.7l66.77-13.35a2 2 0 0 1 2.4 1.96v36.87a2 2 0 0 1-1.58 1.95z"/><path fill="#5284c4" d="M26.45 90.78V48.7l-11.67-5.33a2 2 0 0 0-2.83 1.82v36.6A2 2 0 0 0 13 83.57z"/><path fill="#fff" stroke="#40396e" stroke-linecap="round" stroke-width="3" d="M45.65 38.14 28.5 41.67a2 2 0 0 1-2.23-1.14l-2.78-6.18a2 2 0 0 1 1.42-2.78l16.81-3.43a2 2 0 0 1 2.18 1.04l3.14 6.08a2 2 0 0 1-1.38 2.88Z"/><ellipse cx="70.45" cy="60.99" fill="#5284c4" rx="18.5" ry="16"/><circle cx="75.45" cy="61.49" r="14" fill="#c8c8c8" stroke="#40396e" stroke-width="3"/><path fill="#5284c4" d="M35.45 76.33V56.58a2 2 0 0 1 1.57-1.96l5-1.1a2 2 0 0 1 2.43 1.96v19.38A2 2 0 0 1 43 76.78l-5 1.46a2 2 0 0 1-2.56-1.91"/><path fill="#40396e" d="m23.48 34.25 1.36-.62zm1.42-2.78.3 1.47zm16.81-3.44.3 1.47zm2.18 1.05 1.33-.69zm37.01-.74-.29-1.47zm1.35.2.71-1.32zm10.56 5.72-.72 1.32zm1.06 42.12-.32-1.47zM28.71 90.5l.32 1.47zm-2.99-.03-.65 1.35zm-12.14-5.82.65-1.36zm2.08-43.27-.29-1.47zm10.79 49.28-.1 1.5zm68.72-54.12-1.29.76zm-49.55-4.1-1.33.68zm-21.9 2.34 1.36-.62-.24-.53-1.36.62-1.37.61.24.54zm-.24-.53 1.36-.62a.5.5 0 0 1 .36-.7l-.3-1.46-.3-1.47a3.5 3.5 0 0 0-2.5 4.86zm1.42-2.78.3 1.47L42 29.5l-.3-1.47-.3-1.46L24.6 30zm16.81-3.44.3 1.47a.5.5 0 0 1 .55.27l1.33-.7 1.33-.68a3.5 3.5 0 0 0-3.8-1.82zm2.18 1.05-1.33.69 1.73 3.35 1.33-.69 1.33-.68-1.73-3.36zm37.01-.74-.29-1.47-30.94 6.18.3 1.47.29 1.48 30.94-6.2zm1.35.2.71-1.32a3.5 3.5 0 0 0-2.35-.35l.3 1.47.29 1.47a.5.5 0 0 1 .33.05zm10.56 5.72.71-1.32-10.56-5.72-.71 1.32-.72 1.32 10.56 5.72zm2.64 3.3h1.5q-.01-.99-.49-1.78l-1.29.76-1.29.76q.07.1.07.26zm0 36.87h1.5V37.56h-3v36.87zm-1.58 1.95.32 1.47a3.5 3.5 0 0 0 2.76-3.42h-3a.5.5 0 0 1-.4.48zM28.71 90.5l.32 1.47 65.16-14.12-.32-1.47-.32-1.47L28.4 89.03zm-2.99-.03-.65 1.35q.61.3 1.28.34l.1-1.5.1-1.5-.18-.04zm-12.14-5.82L12.93 86l12.14 5.82.65-1.35.65-1.35-12.14-5.83zm-1.13-1.8h-1.5A3.5 3.5 0 0 0 12.93 86l.65-1.35.65-1.36a.5.5 0 0 1-.28-.45zm0-37.54h-1.5v37.53h3V45.31zm8.4-4.96-.29-1.47-5.19 1.03.3 1.47.29 1.47 5.19-1.03zm-8.4 4.96h1.5c0-1.2.84-2.22 2-2.46l-.29-1.47-.29-1.47a5.5 5.5 0 0 0-4.42 5.4zM28.7 90.5l-.32-1.47a7 7 0 0 1-1.84.14l-.1 1.5-.1 1.5c.87.05 1.82-.02 2.68-.2zm64.1-56.24-.72 1.32a5 5 0 0 1 1.8 1.72l1.28-.76 1.3-.76a8 8 0 0 0-2.95-2.84zm-47.19-1.83-1.33.7A5.5 5.5 0 0 0 50.26 36l-.3-1.48-.3-1.47a2.5 2.5 0 0 1-2.7-1.3zm-21.9 2.35-1.37.62a2.5 2.5 0 0 1-1.79 3.48l.3 1.47.29 1.47a5.5 5.5 0 0 0 3.93-7.66z"/><defs><linearGradient id="crests-session-reply-paint0_linear_23_19859" x1="99.95" x2="18.45" y1="75.99" y2="31.49" gradientUnits="userSpaceOnUse"><stop stop-color="#fff"/><stop offset="1" stop-color="#f2f2f2"/></linearGradient><filter id="crests-session-reply-filter0_d_23_19859" width="95.48" height="76.38" x="7.47" y="22.9" color-interpolation-filters="sRGB" filterUnits="userSpaceOnUse"><feFlood flood-opacity="0" result="BackgroundImageFix"/><feColorMatrix in="SourceAlpha" result="hardAlpha" values="0 0 0 0 0 0 0 0 0 0 0 0 0 0 0 0 0 0 127 0"/><feOffset dx="3" dy="3"/><feComposite in2="hardAlpha" operator="out"/><feColorMatrix values="0 0 0 0 0 0 0 0 0 0 0 0 0 0 0 0 0 0 0.4 0"/><feBlend in2="BackgroundImageFix" result="effect1_dropShadow_23_19859"/><feBlend in="SourceGraphic" in2="effect1_dropShadow_23_19859" result="shape"/></filter></defs></svg>