<svg xmlns="http://www.w3.org/2000/svg" fill="none" viewBox="0 0 115 116"><g filter="url(#crests-support-filter0_d_23_1285)"><path fill="#fff" d="M72.35 9H13A12 12 0 0 0 1 21v27.24a10 10 0 0 0 8.11 9.82l1.82.35a4 4 0 0 1 3.24 3.7l.27 4.73a6 6 0 0 0 9.18 4.74L32.5 66l2.67-2.17c1.84-1.5 4.3.9 2.84 2.78l-6.22 8.07a10 10 0 0 0-2.04 5.24l-2.16 24.75a4 4 0 0 0 5.65 3.98l20.27-9.24a8.3 8.3 0 0 0 3.27-2.68l46.11-63.45a16.13 16.13 0 0 0-24.68-20.65l-.7.73a1.75 1.75 0 0 1-3.01-1.2v-1c0-1.2-.96-2.16-2.15-2.16"/></g><mask id="crests-support-path-2-inside-1_23_1285" fill="#fff"><path d="M79.82 17.36a11.5 11.5 0 0 1 18.71 13.37L52.75 94.8 34.22 104a2 2 0 0 1-2.88-2.06l2.7-20.5L52.92 55H36.13c-1.6 0-3.02.97-3.74 2.39-2.77 5.43-5.67 7.47-10.42 8.93a1.93 1.93 0 0 1-2.47-1.88V57a2 2 0 0 0-2-2h-2a10 10 0 0 1-10-10V24a10 10 0 0 1 10-10h46a10 10 0 0 1 10 10v5z"/></mask><path fill="#c1dcff" d="M79.82 17.36a11.5 11.5 0 0 1 18.71 13.37L52.75 94.8 34.22 104a2 2 0 0 1-2.88-2.06l2.7-20.5L52.92 55H36.13c-1.6 0-3.02.97-3.74 2.39-2.77 5.43-5.67 7.47-10.42 8.93a1.93 1.93 0 0 1-2.47-1.88V57a2 2 0 0 0-2-2h-2a10 10 0 0 1-10-10V24a10 10 0 0 1 10-10h46a10 10 0 0 1 10 10v5z"/><path fill="#40396e" d="m79.82 17.36 2.44 1.74zm16.04-2.67 1.75-2.44zm2.67 16.04 2.44 1.74zM52.75 94.8l1.33 2.7.67-.34.44-.61zM34.22 104l1.33 2.68zm-2.88-2.06-2.97-.39zm2.7-20.5-2.44-1.75-.44.6-.1.75zM52.92 55l2.44 1.75L58.75 52h-5.83zm-16.79 0v-3zm-3.73 2.4 2.67 1.36zm-10.42 8.93.88 2.87zm-2.47-1.88h-3zm0-7.44h3zm-2-2v-3zm-12-31h-3zm10-10v-3zm56 10h3zm0 5h-3v9.36l5.44-7.61zm8.32-11.64 2.44 1.74a8.5 8.5 0 0 1 11.86-1.97l1.74-2.44 1.75-2.44a14.5 14.5 0 0 0-20.23 3.36zm16.04-2.67-1.74 2.44A8.5 8.5 0 0 1 96.1 29l2.44 1.74 2.44 1.74a14.5 14.5 0 0 0-3.36-20.22zm2.67 16.04L96.1 29 50.31 93.05l2.44 1.74 2.44 1.75 45.79-64.07zM52.75 94.8l-1.33-2.68-18.54 9.19 1.34 2.69 1.33 2.68 18.53-9.19zM34.22 104l-1.34-2.7a1 1 0 0 1 1.44 1.03l-2.98-.39-2.97-.39a5 5 0 0 0 7.18 5.13zm-2.88-2.06 2.98.4 2.7-20.52-2.98-.39-2.98-.39-2.7 20.51zm2.7-20.5 2.44 1.74 18.88-26.42L52.92 55l-2.44-1.74L31.6 79.68zM52.92 55v-3H36.13v6h16.79zm-16.79 0v-3a7.3 7.3 0 0 0-6.42 4.03l2.68 1.36 2.67 1.36c.27-.53.72-.75 1.07-.75zm-3.73 2.4-2.68-1.36c-1.26 2.47-2.44 3.96-3.7 5a14 14 0 0 1-4.92 2.42l.88 2.87.88 2.87a20 20 0 0 0 6.98-3.53c2.07-1.71 3.72-3.95 5.23-6.91zm-10.42 8.93-.88-2.87c.81-.25 1.41.4 1.41.99h-6a4.93 4.93 0 0 0 6.35 4.75zm-2.47-1.88h3V57h-6v7.44zm0-7.44h3a5 5 0 0 0-5-5v6a1 1 0 0 1-1-1zm-2-2v-3h-2v6h2zm-2 0v-3a7 7 0 0 1-7-7h-6a13 13 0 0 0 13 13zm-10-10h3V24h-6v21zm0-21h3a7 7 0 0 1 7-7v-6a13 13 0 0 0-13 13zm10-10v3h46v-6h-46zm46 0v3a7 7 0 0 1 7 7h6a13 13 0 0 0-13-13zm10 10h-3v5h6v-5zm0 5 2.44 1.75 8.32-11.65-2.44-1.74-2.44-1.75-8.32 11.65z" mask="url(#crests-support-path-2-inside-1_23_1285)"/><path fill="#df6133" d="M79.99 17.12a11.21 11.21 0 1 1 18.24 13.04L52.96 93.52l-18.1 9.09a2 2 0 0 1-2.89-2.06l2.74-20.07z"/><path fill="#e4987b" d="m92.4 37.91 5.84-8.18a11 11 0 1 0-17.9-12.78l-5.83 8.18c10.21.67 13.9 3.77 17.89 12.78"/><path fill="#edc0af" d="M34.28 80.6c7.67-1.03 16.1 3.55 18.69 13.35l-17.68 7.96a2 2 0 0 1-2.82-2z"/><path fill="#df6133" d="M33.53 96.36c.28-2.58 2.4-4.82 4.71-3.61a8.3 8.3 0 0 1 3.71 3.94c.37.82-.3 1.65-1.2 1.65l-7.45 4.38a.28.28 0 0 1-.42-.28z"/><path stroke="#b94c24" stroke-width="3" d="M75.76 24.79c8.24-.29 13.74 3.2 16.74 11.2M37.03 80.44c8.55-.23 13.71 3.76 15.43 12.45M34.5 91.22c4.5.78 6 2.06 8 6.28"/><path stroke="#84abdd" stroke-width="3" d="m55 54 16.5-23"/><mask id="crests-support-path-12-inside-2_23_1285" fill="#fff"><path d="M79.82 16.81A11.5 11.5 0 0 1 98.53 30.2L52.75 94.25l-18.53 9.2a2 2 0 0 1-2.88-2.06l2.7-20.51 18.88-26.42H36.13c-1.6 0-3.02.96-3.74 2.39-2.77 5.43-5.67 7.46-10.42 8.93a1.93 1.93 0 0 1-2.47-1.88v-7.44a2 2 0 0 0-2-2h-2a10 10 0 0 1-10-10v-21a10 10 0 0 1 10-10h46a10 10 0 0 1 10 10v5z"/></mask><path fill="#40396e" d="m79.82 16.81 2.44 1.75zm16.04-2.67 1.75-2.44zm2.67 16.05 2.44 1.74zM52.75 94.25l1.33 2.69.67-.33.44-.61zm-18.53 9.2 1.33 2.68zm-2.88-2.06-2.97-.39zm2.7-20.51-2.44-1.75-.44.61-.1.75zm18.88-26.42 2.44 1.74 3.39-4.74h-5.83zm-16.79 0v-3zm-3.74 2.39 2.67 1.36zm-10.42 8.93.88 2.86zM19.5 63.9h-3zm0-7.44h3zm-2-2v-3zm-12-31h-3zm10-10v-3zm56 10h3zm0 5h-3v9.36l5.44-7.62zm8.32-11.65 2.44 1.75a8.5 8.5 0 0 1 11.86-1.97l1.74-2.45 1.75-2.44a14.5 14.5 0 0 0-20.23 3.37zm16.04-2.67-1.74 2.45a8.5 8.5 0 0 1 1.97 11.85l2.44 1.75 2.44 1.74a14.5 14.5 0 0 0-3.36-20.23zm2.67 16.05-2.44-1.75-45.78 64.07 2.44 1.74L55.19 96l45.79-64.07zM52.75 94.25l-1.33-2.69-18.54 9.2 1.34 2.68 1.33 2.69 18.53-9.19zm-18.53 9.2-1.34-2.7a1 1 0 0 1 1.44 1.03l-2.98-.39-2.97-.39a5 5 0 0 0 7.18 5.13zm-2.88-2.06 2.98.4 2.7-20.52-2.98-.4-2.98-.38-2.7 20.51zm2.7-20.51 2.44 1.74L55.36 56.2l-2.44-1.74-2.44-1.75L31.6 79.13zm18.88-26.42v-3H36.13v6h16.79zm-16.79 0v-3a7.3 7.3 0 0 0-6.42 4.02l2.68 1.37 2.67 1.36c.27-.53.72-.75 1.07-.75zm-3.74 2.39-2.68-1.37c-1.26 2.48-2.44 3.97-3.7 5a14 14 0 0 1-4.92 2.43l.88 2.87.88 2.86a20 20 0 0 0 6.98-3.52c2.07-1.71 3.72-3.95 5.23-6.91zm-10.42 8.93-.88-2.87c.81-.25 1.41.4 1.41.99h-6a4.93 4.93 0 0 0 6.35 4.74zM19.5 63.9h3v-7.44h-6v7.44zm0-7.44h3a5 5 0 0 0-5-5v6a1 1 0 0 1-1-1zm-2-2v-3h-2v6h2zm-2 0v-3a7 7 0 0 1-7-7h-6a13 13 0 0 0 13 13zm-10-10h3v-21h-6v21zm0-21h3a7 7 0 0 1 7-7v-6a13 13 0 0 0-13 13zm10-10v3h46v-6h-46zm46 0v3a7 7 0 0 1 7 7h6a13 13 0 0 0-13-13zm10 10h-3v5h6v-5zm0 5 2.44 1.74 8.32-11.64-2.44-1.75-2.44-1.74-8.32 11.64z" mask="url(#crests-support-path-12-inside-2_23_1285)"/><circle cx="22.5" cy="36" r="4" fill="#84abdd"/><circle cx="22.5" cy="34" r="4" fill="#fff"/><circle cx="38.5" cy="36" r="4" fill="#84abdd"/><circle cx="38.5" cy="34" r="4" fill="#fff"/><circle cx="54.5" cy="36" r="4" fill="#84abdd"/><circle cx="54.5" cy="34" r="4" fill="#fff"/><defs><filter id="crests-support-filter0_d_23_1285" width="107.98" height="104.35" x="1" y="7.67" color-interpolation-filters="sRGB" filterUnits="userSpaceOnUse"><feFlood flood-opacity="0" result="BackgroundImageFix"/><feColorMatrix in="SourceAlpha" result="hardAlpha" values="0 0 0 0 0 0 0 0 0 0 0 0 0 0 0 0 0 0 127 0"/><feOffset dx="3" dy="3"/><feComposite in2="hardAlpha" operator="out"/><feColorMatrix values="0 0 0 0 0 0 0 0 0 0 0 0 0 0 0 0 0 0 0.4 0"/><feBlend in2="BackgroundImageFix" result="effect1_dropShadow_23_1285"/><feBlend in="SourceGraphic" in2="effect1_dropShadow_23_1285" result="shape"/></filter></defs></svg>