<svg xmlns="http://www.w3.org/2000/svg" fill="none" viewBox="0 0 115 115"><g filter="url(#crests-surveys-filter0_d_23_1919)"><path fill="#fff" d="M27.03 31.53c3-18 29-20.5 37.5-11.5 4-3.5 20.6-2.3 23.5 7.5 14.5 2 21 21 7 31 2.9 13.73-8.88 22.1-23.39 16.7-6.71 7.47-17.98 6.6-26.11 3.32a11.5 11.5 0 0 1-14.1 11.18q.1.64.1 1.3a9 9 0 1 1-8.45-8.98A11.5 11.5 0 0 1 26.1 70.2c-21.95-6.65-15.03-36.01.92-38.67"/></g><path fill="#e7f1ff" stroke="#40396e" stroke-width="3" d="M64.26 26.26c-8.98-10.2-30.07-8.24-32.8 8.62-19.53 4.32-19.92 34.91 7.8 31.78 4.7 9.02 20.71 14.12 30.08 3.13 11.72 4.32 22.27-3.13 19.92-14.12 12.5-6.67 10.94-22.75-5.47-24.32-2.34-7.84-15.23-10.2-19.53-5.1Z"/><g filter="url(#crests-surveys-filter1_d_23_1919)"><path stroke="#df6133" stroke-linecap="round" stroke-width="4" d="m66.53 43.53 11 11m0-11-11 11"/></g><circle cx="34.03" cy="78.53" r="6" fill="#e7f1ff" stroke="#40396e" stroke-width="3"/><circle cx="22.53" cy="91.03" r="3.5" fill="#e7f1ff" stroke="#40396e" stroke-width="3"/><g filter="url(#crests-surveys-filter2_d_23_1919)"><path stroke="#80b258" stroke-linecap="round" stroke-linejoin="round" stroke-width="4" d="m34.53 48.53 7 6.5 11-13"/></g><defs><filter id="crests-surveys-filter0_d_23_1919" width="93.59" height="88.06" x="12.21" y="14.97" color-interpolation-filters="sRGB" filterUnits="userSpaceOnUse"><feFlood flood-opacity="0" result="BackgroundImageFix"/><feColorMatrix in="SourceAlpha" result="hardAlpha" values="0 0 0 0 0 0 0 0 0 0 0 0 0 0 0 0 0 0 127 0"/><feOffset dx="3" dy="3"/><feComposite in2="hardAlpha" operator="out"/><feColorMatrix values="0 0 0 0 0 0 0 0 0 0 0 0 0 0 0 0 0 0 0.4 0"/><feBlend in2="BackgroundImageFix" result="effect1_dropShadow_23_1919"/><feBlend in="SourceGraphic" in2="effect1_dropShadow_23_1919" result="shape"/></filter><filter id="crests-surveys-filter1_d_23_1919" width="15" height="17" x="64.53" y="41.53" color-interpolation-filters="sRGB" filterUnits="userSpaceOnUse"><feFlood flood-opacity="0" result="BackgroundImageFix"/><feColorMatrix in="SourceAlpha" result="hardAlpha" values="0 0 0 0 0 0 0 0 0 0 0 0 0 0 0 0 0 0 127 0"/><feOffset dy="2"/><feComposite in2="hardAlpha" operator="out"/><feColorMatrix values="0 0 0 0 0 0 0 0 0 0 0 0 0 0 0 0 0 0 0.25 0"/><feBlend in2="BackgroundImageFix" result="effect1_dropShadow_23_1919"/><feBlend in="SourceGraphic" in2="effect1_dropShadow_23_1919" result="shape"/></filter><filter id="crests-surveys-filter2_d_23_1919" width="22" height="19" x="32.53" y="40.03" color-interpolation-filters="sRGB" filterUnits="userSpaceOnUse"><feFlood flood-opacity="0" result="BackgroundImageFix"/><feColorMatrix in="SourceAlpha" result="hardAlpha" values="0 0 0 0 0 0 0 0 0 0 0 0 0 0 0 0 0 0 127 0"/><feOffset dy="2"/><feComposite in2="hardAlpha" operator="out"/><feColorMatrix values="0 0 0 0 0 0 0 0 0 0 0 0 0 0 0 0 0 0 0.25 0"/><feBlend in2="BackgroundImageFix" result="effect1_dropShadow_23_1919"/><feBlend in="SourceGraphic" in2="effect1_dropShadow_23_1919" result="shape"/></filter></defs></svg>