<svg xmlns="http://www.w3.org/2000/svg" fill="none" viewBox="0 0 115 115"><g filter="url(#crests-talent-filter0_d_23_7245)"><path fill="#fff" d="M45.77 32.33c-3 3.5-6.12 11.38-6.12 11.38l-10 1c-8.88 2.12-8.38 14.62-5.88 18.5l6.47 5.28a2 2 0 0 1 .66 2.12l-2.13 7.22c0 5.57 1.94 13.02 13.18 13.92a8.5 8.5 0 0 0 5.2-1.42l6.17-3.9a2 2 0 0 1 1.96-.1l8.2 4.1q.79.42 1.65.62c7.97 1.77 12.56-5.42 13.64-11.22l-2.64-9.23a2 2 0 0 1 .67-2.1l9.47-7.67c2.62-4.09 4.48-4.13 3.88-8.62 0 0 9-1.5 8-10.5-.6-5.49-8-8-8-8-3.5-8.19-4.88-10.88-11.38-9.38-3-10.5-15.12-9.56-19.5-4.5s-3.5 11.5-3.5 11.5-7.7-1.67-10 1"/></g><path fill="#f4a22d" d="M49.02 40.25a5 5 0 0 1 9.5 0l2.43 7.37a5 5 0 0 0 4.74 3.43h7.71a5 5 0 0 1 2.91 9.06L70.2 64.5a5 5 0 0 0-1.84 5.63l2.36 7.17a5 5 0 0 1-7.66 5.63l-6.38-4.57a5 5 0 0 0-5.82 0l-6.38 4.57a5 5 0 0 1-7.66-5.63l2.36-7.17a5 5 0 0 0-1.84-5.63l-6.11-4.39a5 5 0 0 1 2.91-9.06h7.7a5 5 0 0 0 4.76-3.43z"/><path fill="#ffc36b" d="M50.92 45.61a3 3 0 0 1 5.7 0l2.09 6.42a3 3 0 0 0 2.85 2.07h6.75a3 3 0 0 1 1.77 5.43l-5.46 3.97a3 3 0 0 0-1.1 3.35l2.1 6.42A3 3 0 0 1 61 76.63l-5.47-3.97a3 3 0 0 0-3.52 0l-5.46 3.97a3 3 0 0 1-4.62-3.36l2.09-6.42a3 3 0 0 0-1.1-3.35l-5.46-3.97a3 3 0 0 1 1.77-5.43h6.75a3 3 0 0 0 2.85-2.07z"/><path fill="#ffd492" stroke="#b57d43" stroke-width="3" d="M77.93 32.34a2.5 2.5 0 0 1 4.6-.2l.09.2 2.2 5.95 5.94 2.2a2.5 2.5 0 0 1 0 4.68l-5.95 2.2-2.2 5.95a2.5 2.5 0 0 1-4.68 0l-2.2-5.95-5.95-2.2a2.5 2.5 0 0 1 0-4.68l5.95-2.2z"/><path fill="#f4a22d" stroke="#40396e" stroke-width="3" d="M65.3 23.73a2.5 2.5 0 0 1 4.62-.2l.08.2.71 1.92 1.93.72a2.5 2.5 0 0 1 0 4.69l-1.93.71L70 33.7a2.5 2.5 0 0 1-4.7 0l-.7-1.93-1.93-.71a2.5 2.5 0 0 1 0-4.7l1.92-.7z"/><path fill="#40396e" d="m47.59 41 1.42.47zm12.36 0-1.42.47zm2.1 6.44 1.42-.46zm3.32 2.42v1.5zm6.77 0v-1.5zm3.82 11.76-.88-1.22zM70.5 65.6l.88 1.21zm-1.27 3.91-1.43.47zm2.09 6.44 1.42-.46zm-10 7.27-.89 1.21zm-5.48-3.98.88-1.22zm-4.12 0-.88-1.22zm-5.48 3.98.89 1.21zm-10-7.27-1.42-.46zm2.1-6.44 1.42.47zm-1.28-3.91-.88 1.21zm-5.47-3.98.88-1.22zm10.59-11.76v1.5zm3.33-2.42-1.43-.46zm32.42-15.1-1.4-.52zm4.61-.2 1.39-.57-.03-.05zm.08.2 1.41-.52-.02-.05zm2.2 5.95-1.4.52c.15.4.47.73.88.88zm5.94 2.2.53-1.41zm0 4.69.52 1.4zm-5.94 2.2-.52-1.41a1.5 1.5 0 0 0-.89.88zm-2.2 5.94 1.41.52zm-4.69 0-1.4.52zm-2.2-5.95 1.41-.52a1.5 1.5 0 0 0-.89-.88zm-5.94-2.2-.52 1.41zm0-4.68-.52-1.41zm5.94-2.2.52 1.4q.64-.24.9-.88zM47.6 41l1.42.47a5 5 0 0 1 9.52 0l1.42-.47 1.43-.46c-2.4-7.37-12.82-7.37-15.22 0zm12.36 0-1.42.47 2.09 6.44 1.42-.47 1.43-.46-2.1-6.44zm2.1 6.44-1.43.47a5 5 0 0 0 4.75 3.45v-3a2 2 0 0 1-1.9-1.38zm3.32 2.42v1.5h6.77v-3h-6.77zm6.77 0v1.5a5 5 0 0 1 2.94 9.04l.88 1.22.89 1.21c6.27-4.55 3.04-14.47-4.7-14.47zm3.82 11.76-.88-1.22-5.47 3.99.88 1.2.88 1.22 5.48-3.98zM70.5 65.6l-.88-1.21a5 5 0 0 0-1.82 5.59l1.43-.47 1.42-.46a2 2 0 0 1 .73-2.24zm-1.27 3.91-1.43.47 2.1 6.43 1.42-.46 1.42-.46-2.09-6.44zm2.09 6.44-1.43.46a5 5 0 0 1-7.7 5.6l-.87 1.2-.89 1.22c6.27 4.56 14.7-1.57 12.31-8.94zm-10 7.27.88-1.21-5.48-3.99-.88 1.22-.88 1.21 5.47 3.98zm-5.48-3.98.88-1.22a5 5 0 0 0-5.88 0l.88 1.22.88 1.21a2 2 0 0 1 2.36 0zm-4.12 0-.88-1.22-5.48 3.99.88 1.2.89 1.22 5.47-3.98zm-5.48 3.98L45.35 82a5 5 0 0 1-7.7-5.6l-1.42-.46-1.42-.46c-2.4 7.37 6.04 13.5 12.3 8.94zm-10-7.27 1.43.46 2.1-6.43-1.44-.47-1.42-.46-2.1 6.44zm2.1-6.44 1.42.47a5 5 0 0 0-1.81-5.6l-.89 1.22-.88 1.21a2 2 0 0 1 .73 2.24zm-1.28-3.91.89-1.21-5.48-3.99-.88 1.22-.89 1.21 5.48 3.98zm-5.47-3.98.88-1.22a5 5 0 0 1 2.94-9.04v-3c-7.75 0-10.98 9.92-4.7 14.47zm3.82-11.76v1.5h6.77v-3H35.4zm6.77 0v1.5a5 5 0 0 0 4.75-3.46l-1.42-.46-1.43-.46a2 2 0 0 1-1.9 1.38zm3.33-2.42 1.42.47 2.1-6.44L47.6 41l-1.43-.46-2.1 6.44zm32.42-15.1 1.41.53c.3-.84 1.48-.88 1.84-.1l1.36-.62 1.36-.63a4 4 0 0 0-7.37.3zm4.61-.2-1.38.58.08.2 1.38-.58 1.39-.57-.08-.2zm.08.2-1.4.53 2.2 5.94 1.4-.52 1.4-.52-2.19-5.95zm2.2 5.95-.52 1.4 5.94 2.2.52-1.4.53-1.41-5.95-2.2zm5.94 2.2-.52 1.4a1 1 0 0 1 0 1.88l.52 1.4.53 1.41a4 4 0 0 0 0-7.5zm0 4.69-.52-1.41-5.94 2.2.52 1.4.52 1.41 5.94-2.2zm-5.94 2.2-1.4-.53-2.2 5.95 1.4.52 1.41.52 2.2-5.95zm-2.2 5.94-1.4-.52a1 1 0 0 1-1.88 0l-1.4.52-1.41.52a4 4 0 0 0 7.5 0zm-4.69 0 1.41-.52-2.2-5.95-1.4.52-1.41.52 2.2 5.95zm-2.2-5.95.52-1.4-5.94-2.2-.52 1.4-.52 1.41 5.94 2.2zm-5.94-2.2.52-1.4a1 1 0 0 1 0-1.88l-.52-1.4-.52-1.41a4 4 0 0 0 0 7.5zm0-4.68.52 1.4 5.94-2.2-.52-1.4-.52-1.41-5.94 2.2zm5.94-2.2 1.41.52 2.2-5.94-1.4-.53-1.41-.52-2.2 5.95z"/><defs><filter id="crests-talent-filter0_d_23_7245" width="79.04" height="78.6" x="22.19" y="16.17" color-interpolation-filters="sRGB" filterUnits="userSpaceOnUse"><feFlood flood-opacity="0" result="BackgroundImageFix"/><feColorMatrix in="SourceAlpha" result="hardAlpha" values="0 0 0 0 0 0 0 0 0 0 0 0 0 0 0 0 0 0 127 0"/><feOffset dx="3" dy="3"/><feComposite in2="hardAlpha" operator="out"/><feColorMatrix values="0 0 0 0 0 0 0 0 0 0 0 0 0 0 0 0 0 0 0.4 0"/><feBlend in2="BackgroundImageFix" result="effect1_dropShadow_23_7245"/><feBlend in="SourceGraphic" in2="effect1_dropShadow_23_7245" result="shape"/></filter></defs></svg>