<svg xmlns="http://www.w3.org/2000/svg" fill="none" viewBox="0 0 115 115"><g filter="url(#crests-warehouse-sources-filter0_d_24_2572)"><path fill="#276178" d="M79.9 54.32h7.66a2 2 0 0 0 1.3-3.53L56.8 23.56a2 2 0 0 0-2.52-.05L19.56 50.74a2 2 0 0 0 1.23 3.58h7.31l26.14-20.7a2 2 0 0 1 2.57.08z"/><path fill="#77b3dd" d="M28.1 90.5c0 1.1.9 2 2 2h47.8a2 2 0 0 0 2-2V54.32L56.8 33.7a2 2 0 0 0-2.57-.08L28.1 54.32z"/><path stroke="#fff" stroke-width="4" d="M53.04 21.93a4 4 0 0 1 5.06.1l32.05 27.24a4 4 0 0 1-2.6 7.05H81.9V90.5a4 4 0 0 1-4 4H30.1a4 4 0 0 1-4-4V56.32h-5.3a4 4 0 0 1-2.47-7.15z"/><path fill="#63b98f" stroke="#fff" stroke-width="4" d="M26 60.5a3 3 0 0 1 3 3v12a3 3 0 0 1-3 3H9a3 3 0 0 1-3-3v-12a3 3 0 0 1 3-3z"/><path stroke="#fff" stroke-width="4" d="M21 64.5v11m-7-12v11"/><path fill="#63b98f" stroke="#fff" stroke-width="4" d="M104 41.5a4 4 0 0 1 4 4v21a7 7 0 0 1-7 7H79V60h15V45.5a4 4 0 0 1 4-4z"/><path stroke="#fff" stroke-width="4" d="M87 62.5v9m7-8.14v7.14m1.95-8.75 9.97 7.8M94.65 58H107m-12.35-7.5H107m-46 10a4 4 0 0 1 4 4v29H42v-29a4 4 0 0 1 4-4z"/><path fill="#40396e" stroke="#fff" stroke-width="4" d="M57.5 74.5c1.18 0 2.1.64 2.66 1.39s.84 1.67.84 2.61-.28 1.87-.84 2.61a3.3 3.3 0 0 1-2.66 1.39c-1.18 0-2.1-.64-2.66-1.39A4.4 4.4 0 0 1 54 78.5c0-.94.28-1.87.84-2.61a3.3 3.3 0 0 1 2.66-1.39Z"/><path fill="#276178" d="M79.9 54.32h7.66a2 2 0 0 0 1.3-3.53L56.8 23.56a2 2 0 0 0-2.52-.05L19.56 50.74a2 2 0 0 0 1.23 3.58h7.31l26.14-20.7a2 2 0 0 1 2.57.08z"/><path fill="#77b3dd" d="M28.1 90.5c0 1.1.9 2 2 2h47.8a2 2 0 0 0 2-2V54.32L56.8 33.7a2 2 0 0 0-2.57-.08L28.1 54.32z"/><path stroke="#40396e" stroke-width="3" d="M28.1 54.32V90.5c0 1.1.9 2 2 2h47.8a2 2 0 0 0 2-2V54.32m-51.8 0h-7.3a2 2 0 0 1-1.23-3.58l34.72-27.23a2 2 0 0 1 2.52.05l32.05 27.23a2 2 0 0 1-1.3 3.53H79.9m-51.8 0 26.14-20.7a2 2 0 0 1 2.57.08L79.9 54.32"/><path stroke="#44799f" stroke-width="3" d="M44 64.5v27h19v-27a2 2 0 0 0-2-2H46a2 2 0 0 0-2 2Z"/><path fill="#63b98f" stroke="#40396e" stroke-width="3" d="M9 62.5h17a1 1 0 0 1 1 1v12a1 1 0 0 1-1 1H9a1 1 0 0 1-1-1v-12a1 1 0 0 1 1-1Z"/><path stroke="#40396e" stroke-width="3" d="M21 63.5v12m-7-12v12"/><path fill="#63b98f" stroke="#40396e" stroke-width="3" d="M94 62H81v9.5h20a5 5 0 0 0 5-5v-21a2 2 0 0 0-2-2h-6a2 2 0 0 0-2 2V60a2 2 0 0 1-2 2Z"/><path stroke="#40396e" stroke-width="3" d="M87 62.5v9m7-8.14v7.14m1.95-8.75 9.97 7.8M94.65 58H107m-12.35-7.5H107"/><path fill="#44799f" stroke="#44799f" d="M57.5 77q.34 0 .66.39c.2.26.34.66.34 1.11s-.14.85-.34 1.11q-.32.4-.66.39-.34 0-.66-.39c-.2-.26-.34-.66-.34-1.11s.14-.85.34-1.11q.32-.4.66-.39Z"/><path stroke="#40396e" stroke-width="3" d="M28.1 54.32V90.5c0 1.1.9 2 2 2h47.8a2 2 0 0 0 2-2V54.32m-51.8 0h-7.3a2 2 0 0 1-1.23-3.58l34.72-27.23a2 2 0 0 1 2.52.05l32.05 27.23a2 2 0 0 1-1.3 3.53H79.9m-51.8 0 26.14-20.7a2 2 0 0 1 2.57.08L79.9 54.32"/></g><defs><filter id="crests-warehouse-sources-filter0_d_24_2572" width="109" height="80.42" x="4" y="19.08" color-interpolation-filters="sRGB" filterUnits="userSpaceOnUse"><feFlood flood-opacity="0" result="BackgroundImageFix"/><feColorMatrix in="SourceAlpha" result="hardAlpha" values="0 0 0 0 0 0 0 0 0 0 0 0 0 0 0 0 0 0 127 0"/><feOffset dx="3" dy="3"/><feComposite in2="hardAlpha" operator="out"/><feColorMatrix values="0 0 0 0 0 0 0 0 0 0 0 0 0 0 0 0 0 0 0.4 0"/><feBlend in2="BackgroundImageFix" result="effect1_dropShadow_24_2572"/><feBlend in="SourceGraphic" in2="effect1_dropShadow_24_2572" result="shape"/></filter></defs></svg>