<svg xmlns="http://www.w3.org/2000/svg" fill="none" viewBox="0 0 115 115"><g clip-path="url(#crests-web-analytics-clip0_23_17092)"><g filter="url(#crests-web-analytics-filter0_d_23_17092)"><path fill="#fff" d="M13.75 23.63v34.9a2 2 0 0 1-.34 1.1l-6.3 9.45a10 10 0 0 0 8.33 15.55h54.81a2 2 0 0 1 2 2v12c0 1.1.9 2 2 2h26a2 2 0 0 0 2-2V78.64c0-.83.68-1.51 1.52-1.51a7.58 7.58 0 0 0 6.23-11.9l-21.9-31.6a2 2 0 0 1-.35-1.14v-8.87a10 10 0 0 0-10-10h-54a10 10 0 0 0-10 10"/></g><path fill="#7cadee" fill-rule="evenodd" d="M20.75 23.63a4 4 0 0 1 4-4h52a4 4 0 0 1 4 4v28.73l5.56-8.44a1 1 0 0 1 1.68.01l15.89 25.04a1 1 0 0 1-.82 1.53l-7.12.21a1 1 0 0 0-.97 1v20.92a1 1 0 0 1-1 1H79.89a1 1 0 0 1-1-1v-15H16.5a4 4 0 0 1-3.1-6.52l6.48-8a4 4 0 0 1 1.17-.98 4 4 0 0 1-.29-1.5z" clip-rule="evenodd"/><path fill="#40396e" d="M80.75 52.36h-1.5v5L82 53.18zm5.56-8.44 1.26.82zm1.68.01 1.27-.8zm15.89 25.04 1.27-.8zm-.82 1.53-.04-1.5zm-7.12.21-.05-1.5zm-.97 1h-1.5zm0 20.92h1.5zm-1 1v1.5zm-6.8 0v1.5zm-8.28-1h-1.5zm0-15h1.5v-1.5h-1.5zM13.4 71.1l-1.17-.94zm6.48-8-1.17-.94zm1.17-.98.73 1.3 1.16-.63-.5-1.24zm3.71-42.5v-1.5a5.5 5.5 0 0 0-5.5 5.5h3a2.5 2.5 0 0 1 2.5-2.5zm52 0v-1.5h-52v3h52zm4 4h1.5a5.5 5.5 0 0 0-5.5-5.5v3a2.5 2.5 0 0 1 2.5 2.5zm0 28.73h1.5V23.63h-3v28.73zm0 0 1.25.82 5.57-8.44-1.26-.82-1.25-.83-5.56 8.44zm5.56-8.44 1.26.82a.5.5 0 0 1-.84 0l1.26-.8 1.27-.81a2.5 2.5 0 0 0-4.2-.04zm1.68.01-1.26.8 15.88 25.04 1.27-.8 1.27-.8-15.9-25.04zm15.89 25.04-1.27.8a.5.5 0 0 1 .4-.77l.05 1.5.05 1.5a2.5 2.5 0 0 0 2.03-3.84zm-.82 1.53-.04-1.5-7.13.21.05 1.5.04 1.5 7.13-.2zm-7.12.21-.05-1.5a2.5 2.5 0 0 0-2.42 2.5h3a.5.5 0 0 1-.49.5zm-.97 1h-1.5v20.92h3V71.7zm0 20.92h-1.5c0-.28.22-.5.5-.5v3a2.5 2.5 0 0 0 2.5-2.5zm-1 1v-1.5h-6.8v3h6.8zm-6.8 0v-1.5H79.9v3h7.27zm-7.28 0v-1.5c.28 0 .5.22.5.5h-3a2.5 2.5 0 0 0 2.5 2.5zm-1-1h1.5v-15h-3v15zm-62.4-15v1.5h62.4v-3H16.5zm-3.1-6.52-1.17-.94a5.5 5.5 0 0 0 4.27 8.96v-3a2.5 2.5 0 0 1-1.94-4.08zm6.48-8-1.17-.94-6.48 8 1.17.94 1.16.94 6.48-8zm1.17-.98-.73-1.32a6 6 0 0 0-1.6 1.36l1.16.94 1.16.94q.31-.38.74-.61zm-.29-1.5h-1.5q0 1.09.4 2.06l1.39-.56 1.4-.57q-.2-.43-.19-.93zm0-37h-1.5v37h3v-37z"/><mask id="crests-web-analytics-path-4-inside-1_23_17092" fill="#fff"><rect width="50" height="35" x="25.75" y="24.63" rx="2"/></mask><rect width="50" height="35" x="25.75" y="24.63" fill="#fff" stroke="#538ad2" stroke-width="6" mask="url(#crests-web-analytics-path-4-inside-1_23_17092)" rx="2"/><path stroke="#538ad2" stroke-linecap="round" stroke-width="3" d="M25.75 65.63h46.5m-50.5 6h55"/><path fill="#f4a22d" d="m88.4 43.93 15.88 25.04a1 1 0 0 1-.81 1.53l-7.13.21a1 1 0 0 0-.97 1v20.92a1 1 0 0 1-1 1H80.29a1 1 0 0 1-1-1V71.45a1 1 0 0 0-1-1h-7.21a1 1 0 0 1-.83-1.55l16.47-24.98a1 1 0 0 1 1.67.01"/><path stroke="#af741c" stroke-linecap="round" stroke-width="3" d="m86.75 43.63-9 13.5-6.93 10.39a2 2 0 0 0 1.67 3.1h4.76a2 2 0 0 1 2 2v6.5"/><path fill="#40396e" d="M81.01 52.36h-1.5v5l2.76-4.18zm5.57-8.44 1.25.82zm1.68.01 1.26-.8zm15.88 25.04 1.27-.8zm-.81 1.53-.05-1.5zm-7.13.21-.04-1.5zm-.97 1h-1.5zm0 20.92h1.5zm-1 1v1.5zm-6.8 0v1.5zm-8.27-1h-1.5zm0-15h1.5v-1.5h-1.5zM13.65 71.1l-1.17-.94zm6.48-8-1.17-.94zm1.17-.98.73 1.3 1.16-.63-.5-1.24zm3.71-42.5v-1.5a5.5 5.5 0 0 0-5.5 5.5h3a2.5 2.5 0 0 1 2.5-2.5zm52 0v-1.5h-52v3h52zm4 4h1.5a5.5 5.5 0 0 0-5.5-5.5v3a2.5 2.5 0 0 1 2.5 2.5zm0 28.73h1.5V23.63h-3v28.73zm0 0 1.26.82 5.56-8.44-1.25-.82-1.26-.83-5.56 8.44zm5.57-8.44 1.25.82a.5.5 0 0 1-.84 0l1.27-.8 1.26-.81a2.5 2.5 0 0 0-4.2-.04zm1.68.01-1.27.8 15.89 25.04 1.26-.8 1.27-.8-15.89-25.04zm15.88 25.04-1.27.8a.5.5 0 0 1 .41-.77l.05 1.5.04 1.5a2.5 2.5 0 0 0 2.04-3.84zm-.81 1.53-.05-1.5-7.12.21.04 1.5.05 1.5 7.12-.2zm-7.13.21-.04-1.5a2.5 2.5 0 0 0-2.43 2.5h3a.5.5 0 0 1-.48.5zm-.97 1h-1.5v20.92h3V71.7zm0 20.92h-1.5c0-.28.22-.5.5-.5v3a2.5 2.5 0 0 0 2.5-2.5zm-1 1v-1.5h-6.8v3h6.8zm-6.8 0v-1.5h-7.27v3h7.27zm-7.27 0v-1.5c.27 0 .5.22.5.5h-3a2.5 2.5 0 0 0 2.5 2.5zm-1-1h1.5v-15h-3v15zm-62.4-15v1.5h62.4v-3h-62.4zm-3.11-6.52-1.17-.94a5.5 5.5 0 0 0 4.28 8.96v-3a2.5 2.5 0 0 1-1.95-4.08zm6.48-8-1.17-.94-6.48 8 1.17.94 1.16.94 6.49-8zm1.17-.98-.72-1.32a6 6 0 0 0-1.62 1.36l1.17.94 1.17.94q.3-.38.73-.61zm-.29-1.5h-1.5q.01 1.09.4 2.06l1.4-.56 1.38-.57q-.17-.43-.18-.93zm0-37h-1.5v37h3v-37z"/></g><defs><clipPath id="crests-web-analytics-clip0_23_17092"><path fill="#fff" d="M0 0h115v115H0z"/></clipPath><filter id="crests-web-analytics-filter0_d_23_17092" width="108.94" height="90" x="5.42" y="13.63" color-interpolation-filters="sRGB" filterUnits="userSpaceOnUse"><feFlood flood-opacity="0" result="BackgroundImageFix"/><feColorMatrix in="SourceAlpha" result="hardAlpha" values="0 0 0 0 0 0 0 0 0 0 0 0 0 0 0 0 0 0 127 0"/><feOffset dx="3" dy="3"/><feComposite in2="hardAlpha" operator="out"/><feColorMatrix values="0 0 0 0 0 0 0 0 0 0 0 0 0 0 0 0 0 0 0.4 0"/><feBlend in2="BackgroundImageFix" result="effect1_dropShadow_23_17092"/><feBlend in="SourceGraphic" in2="effect1_dropShadow_23_17092" result="shape"/></filter></defs></svg>