<svg xmlns="http://www.w3.org/2000/svg" fill="none" viewBox="0 0 115 115"><g filter="url(#crests-workflows-filter0_d_23_18468)"><path fill="#fff" d="M72.42 14.81C66.74.08 48.08.56 42.5 15.04a2.3 2.3 0 0 1-2.08 1.46C32.2 16.64 26 21.71 26 32.53v7.5a2 2 0 0 1-2 2h-5.5a10 10 0 0 0-10 10v1a10 10 0 0 0 10 10H22l-.61.04a8.24 8.24 0 0 0 .48 16.46H33.2a2 2 0 0 1 1.95 1.52L39.1 97.2a6 6 0 0 0 10.92 1.75l6.13-9.87a2 2 0 0 1 .92-.78l7.16-3.03a6 6 0 0 0-.46-11.22l-16.1-5.29a1.6 1.6 0 0 1-.96-.87l-.7-1.64a3.4 3.4 0 0 0-1.72-1.74c-.68-.3-.44-1.33.3-1.29l1.45.07a4.7 4.7 0 0 0 4.95-4.7v-6.55a10 10 0 0 0-10-10h-4.5a2 2 0 0 1-2-2v-7.5c.3-5.46 1.8-7.28 6.15-7.86.8-.11 1.58.35 1.97 1.08 7.57 13.95 22.82 14.34 29.88-.13.32-.66.96-1.14 1.7-1.16 4.6-.12 7.16 1.55 7.7 6.13.12 1.07-.76 1.97-1.84 2l-5.84.16a10 10 0 0 0-9.72 10v.3a10 10 0 0 0 10.29 9.99H75a6.8 6.8 0 0 0-6.5 6.79v1.5a8.37 8.37 0 0 0 8.36 8.36l17.43.02a8.2 8.2 0 0 0 8.21-8.2v-2.16a6.03 6.03 0 0 0-6-6.03c5.52.02 10-4.45 10-9.97v-.82a10 10 0 0 0-10-10h-3.66c-1.23 0-2.21-1.1-2.29-2.33a16 16 0 0 0-4.05-9.67c-3.57-4.02-8.93-4.33-11.7-4.19a2.4 2.4 0 0 1-2.38-1.53"/></g><path stroke="#40396e" stroke-width="3" d="M86 61.53v-31a10 10 0 0 0-10-10H40.5a10 10 0 0 0-10 10v39"/><circle cx="57.5" cy="20.03" r="11.5" fill="#eda840" stroke="#40396e" stroke-width="3"/><rect width="33" height="13" x="13" y="46.53" fill="#84abdd" stroke="#40396e" stroke-width="3" rx="6.5"/><rect width="33" height="13" x="69" y="36.53" fill="#ed8e40" stroke="#40396e" stroke-width="3" rx="6.5"/><rect width="25" height="9" x="73" y="56.53" fill="#df6133" stroke="#40396e" stroke-width="3" rx="4.5"/><rect width="25" height="9" x="18" y="66.53" fill="#8db464" stroke="#40396e" stroke-width="3" rx="4.5"/><path fill="#fff" stroke="#567931" stroke-width="3" d="m42.83 95.35-5.47-21.88a2 2 0 0 1 2.52-2.4l22.04 6.75a2 2 0 0 1 .12 3.78l-8.4 3.19a2 2 0 0 0-1 .84l-6.16 10.26a2 2 0 0 1-3.65-.54Z"/><path stroke="#40396e" stroke-width="3" d="m31 75.53 5.55.4a2 2 0 0 1 1.8 1.5l4.48 17.92a2 2 0 0 0 3.65.54l6.16-10.26a2 2 0 0 1 1-.84l8.4-3.19a2 2 0 0 0-.13-3.78L44.18 72.4a2 2 0 0 1-1.38-1.58l-.3-1.78"/><defs><filter id="crests-workflows-filter0_d_23_18468" width="101" height="100.8" x="8.5" y="3.97" color-interpolation-filters="sRGB" filterUnits="userSpaceOnUse"><feFlood flood-opacity="0" result="BackgroundImageFix"/><feColorMatrix in="SourceAlpha" result="hardAlpha" values="0 0 0 0 0 0 0 0 0 0 0 0 0 0 0 0 0 0 127 0"/><feOffset dx="3" dy="3"/><feComposite in2="hardAlpha" operator="out"/><feColorMatrix values="0 0 0 0 0 0 0 0 0 0 0 0 0 0 0 0 0 0 0.4 0"/><feBlend in2="BackgroundImageFix" result="effect1_dropShadow_23_18468"/><feBlend in="SourceGraphic" in2="effect1_dropShadow_23_18468" result="shape"/></filter></defs></svg>