<svg xmlns="http://www.w3.org/2000/svg" fill="none" viewBox="0 0 477 572"><path fill="#000" d="M380.8 125.35v.03q0 .08-.03.14zm-1.74-3.63q.44-.14.85-.34c.34-.17.63-.44.91-.7l.11-.1.01.06-.13.19c-.29.44-.48.97-.55 1.48q-.16 1.16-.18 2.36-.5-1.5-1.02-2.97zM55.53 141.96c-2.52-.72-3-3.5-2.1-5.69q2-8.11 4.72-16a173.4 173.4 0 0 1 44.87-69.1c71.82-68.93 191.12-61.13 253.43 16.46q6.71 8.2 12.4 17.17a2 2 0 0 0-.52-.09 3 3 0 0 0-1.94.68l-.03.02q-.67.38-1.28.84a25 25 0 0 0-2.39 1.96 167 167 0 0 0-44.02-46.43c-67.83-49.45-166.76-38-221.56 25.53a168 168 0 0 0-32.4 55.38 188 188 0 0 0-4.88 16.84 3.5 3.5 0 0 1-4.3 2.44zm30.7 342.86c-50.3-8.55-88.59-57.77-84.26-108.63.58-4.55 2.14-28.9 8.68-26.2a3.55 3.55 0 0 1 2.45 4.3c-8.78 27.82-4.08 59.45 12.6 83.41 13.88 20.31 35.96 35.03 59.97 39.88a99 99 0 0 0 23.98 1.88c1.91-.07 3.5 1.66 3.5 3.5.94 6.89-22.69 2.34-26.9 1.85zM436.22 413l.06-.29c.44-2.11.9-4.23 1.18-6.38.15-1.12.34-2.21.45-3.32.16-1.74.41-3.5.3-5.22a1.9 1.9 0 0 0-1.18-1.58q.12-1.82.28-3.66l.34-2.7.02-.18-.04.27c.14-1.06.38-2.14.3-3.23-.09-.97-1-1.73-1.97-1.75q-.29 0-.54.08c.17-7.18-.5-14.4-2.09-21.54q-1.06-4.98-2.58-9.86c-1.26-4.31 5.56-6.26 6.75-1.85 7.23 21.54 6.25 44.53-1.1 65.27q-.11-2.03-.19-4.05zm-63.18 67.77-.08.03zm-28.34 1.59v.02l-.02.12v.06zm-.06.36v.08zm-10.27.83q-.01.08-.04.15zm-.16.53-.08.2zm19.8.05-.32-.4v-.83q.04-.83.16-1.66.03-.19.1-.37.22-.7.5-1.37.28-.6.6-1.21l.04-.09a98 98 0 0 0 15.64-4.02c16.56-5.51 30.85-15.81 41.76-28.93.32.18.7.27 1.05.27.41 0 .82-.12 1.14-.37q.49-.41.9-.88c.48.59 1.28.93 2.04.7q.68-.19 1.32-.44.55-.22 1.02-.6l.11-.08c.7.41 1.62.38 2.33 0l.05-.03c-12.07 16.87-29.05 30.22-49.39 36.95l.21-.07a101 101 0 0 1-18.03 4.57q-.62-.54-1.2-1.13zm-21.61 2.24c-2.23 0-3.38-1.75-3.39-3.5 0-1.66.95-3.3 2.93-3.49q.29.18.55.37a8 8 0 0 1 .66.58l.4.57.34.68q.15.34.26.7l.14.54q.05.29.05.56v.16l-.03.21-.09.29-.12.25q-.4.69-.86 1.38-.25.37-.52.7zm57.41-352.08a10 10 0 0 0-.2-.97l-.44-1.4.24.17.54 2.48-.13-.28m3.82 50.06-9.19-42.08q.61.69 1.41 1.2.41.27.9.37l.26.2.12.14c.5.62.97 1.26 1.52 1.82.62.64 1.24 1.35 2.12 1.62q.27.08.55.08a2 2 0 0 0 1.36-.54l2.43 11.12q4.71 21.66 9.46 43.3l2.03 9.31-1.48 4.15-1.26 2.46q-1.05 2.1-2.06 4.21l-8.16-37.39zm13.8 58.33-.09.19zm7.53 9.05-.07.14zm-2.95 1.91-.04.09z"/><path fill="#000" d="m430.56 353.43-8.4-38.49q-4.8-21.87-9.56-43.74l-.29-1.35.27-.3.41-.45q.26.5.77.8a2 2 0 0 0 2.42-.32c.81-.88 1.4-1.92 2-2.94l.44-.74 5.04 23.1 9.37 42.9 4.35 19.91a3.53 3.53 0 0 1-3.38 4.3 3.54 3.54 0 0 1-3.44-2.69zM6.97 361.5a3.55 3.55 0 0 1-2.43-4.53v-.03q4.51-20.24 9-40.52l9.54-43 9.8-44.17q4.86-21.8 9.7-43.63c3.15-14.35 6.36-28.69 9.54-43.04l1.73-7.73.06-.3.21-.93a3.52 3.52 0 0 1 6.4-.89c.5.84.57 1.76.38 2.7-1.3 6.28-2.79 12.55-4.18 18.82l-4.86 21.86-9.67 43.57-9.8 44.13-9.68 43.6-9.46 42.6-2 9a3.5 3.5 0 0 1-4.28 2.48m244.26 118.4-.06.1zm81.97.53q.02 0 .05.06zm11.5 1.96-.02.13v.06zm-.06.34v.08zm-10.27.83q-.01.08-.04.14zm-.16.53-.08.2zm-83.56 1.95-.39-.82a7 7 0 0 1-.3-1.26q-.05-.4-.06-.8l.03-.33a8 8 0 0 1 .3-1.08q.4-.85.88-1.67l.25-.33.14-.18q15.16-.06 30.28-.08 21.9-.08 43.77-.13l6.26-.03a10 10 0 0 1 1.13.82l.2.22.4.56.34.68q.15.33.26.7l.14.53.06.56v.17l-.03.21-.09.29-.12.25q-.4.72-.86 1.38l-.45.63-24.4.08-43.99.15-13.42.05-.34-.56zm-24.75.39-.04.07zm-116.54.58a3.54 3.54 0 0 1-3.57-3.43v-.09a3.53 3.53 0 0 1 3.43-3.48c13.3 0 26.61-.09 39.92-.12l44.2-.14 29.08-.09a14 14 0 0 1 2.1 2.36l.51.8a16 16 0 0 1 .72 1.63q.1.48.17.96l.04.72-.02.23-.02.03v.01l-.15.25-5.57.01-44.52.14-43.85.14q-11.22.05-22.46.07m277.37-336.76c-2.96-2.62-3.49-7.25-6.19-10.25-1.42-2.3-4.74-3.69-4.57-6.73 3.15-8.7 10.78 2.98 12.86 6.83a51 51 0 0 1 2.9 6.07c.98 2.83-2.44 5.56-5 4.09z"/><path fill="#000" d="m110.41 416.27.48-1.88q-.28.75-.59 1.48.08.2.11.4m14.21-66.9q.02-.6 0-1.19-.05-.56-.14-1.12-.15-.66-.36-1.31a16 16 0 0 0-.5-1.2q-.36-.67-.76-1.3a14.5 14.5 0 0 0-5.03-4.46l-.12-.08-.05-.02-.2-.12q-1-.47-2.03-.84a22 22 0 0 0-2.27-.62q-1.13-.22-2.25-.31-1.1-.07-2.2 0-1.02.09-2.03.28-.94.22-1.86.53-.72.28-1.42.6-.64.36-1.25.74-.53.37-1.04.79-.44.4-.86.83l-.78 1q-.3.48-.57 1-.22.46-.4.98-.17.5-.28 1l-.15 1.12v1.16q.06.56.16 1.13l.31 1.13q.27.73.61 1.43.34.6.71 1.19.48.67 1.01 1.3.6.63 1.23 1.22.7.57 1.44 1.1.87.57 1.78 1.05.99.46 2.01.86a27 27 0 0 0 2.18.6q1.18.21 2.38.31 1.1.05 2.2 0 .97-.09 1.94-.27.9-.2 1.77-.5.75-.29 1.48-.62.72-.37 1.41-.82l.94-.74q.47-.42.9-.88l.74-.97q.3-.45.54-.94.24-.5.43-1.03.16-.5.27-1.01.08-.47.13-.98zm13.71-116.16c-2.4-.43-4.8-.87-7.24-1.16l-.13.1c-9.6 6.88-19.27 13.66-28.89 20.5 2.32.66 4.63 1.36 6.96 1.8 9.73-7.14 19.54-14.16 29.3-21.25m13.08 91.44-.4-24.5-.05-2.03c-3.59-1-7.17-2.06-10.76-3.08q-9.43-2.7-18.88-5.37l-30.5-8.69c-3.07 3.6-6 7.27-9.15 10.82a283 283 0 0 0-6.53 7.71q15.75 5.22 31.5 10.38l38.72 12.78zm.71-33.48c-.2-6.99-.17-13.97-.68-20.93q0-.47-.05-.95c-2.7-1.08-5.45-1.99-8.2-2.9-.18 1.44-.44 2.86-.47 3.96-.32 2.71-.2 7.13-3.42 7.57q-.73.44-1.83.5a3.7 3.7 0 0 1-2.85-1.05 4 4 0 0 1-1.13-.2c-6.09-1.87-12.22-3.62-18.33-5.44l-2.58-.78q-.08 0-.14-.03l-.12-.05-.05-.01-.39-.12-.14-.05q-.3.07-.6.06a3.5 3.5 0 0 1-2.72-1.25 3.4 3.4 0 0 1-1.06-2.52c0-1.88-.14-3.75-.22-5.62-2.9-.78-5.79-1.75-8.74-2.44l-.77 6.58-.7 6.06a3 3 0 0 1-.69 1.56 3.2 3.2 0 0 1-.34 2.05l32.92 9.35 16.41 4.68zm.02 77.32-.02-1.54-.16-9.58-.3-18.32-.12-6.98c-11-3.68-22.05-7.26-33.08-10.9l-38.93-12.85-9.09-3-.88 32.36-.07 3.7q.41.07.82.08 6.84 2.2 13.8 3.97c.33-.94.8-1.87 1.1-2.72 1.06-3.95 4.61-4.08 7.08-2.56a16.4 16.4 0 0 1 6.58-7.44 21 21 0 0 1 9.15-2.88c3.52-.28 7 .3 10.3 1.49.98.36 1.95.8 2.65 1.2l.28.15.51.3c3.74 2.22 6.94 5.47 8.61 9.53a16 16 0 0 1 .74 10.25c2.17.58 4.33 1.7 5.02 3.93 2.36 1.5 1.35 5 1.66 7.9 3.5.7 6.82 2.25 10.31 2.97q2.04.38 4.05.94m2.5-120.1.18-.11c-1.72-.3-3.44-.6-5.17-.8-1.44-.36-2.78-.32-4-.52l-26.28 18.7 14.26 4.24c.68.22 1.36.4 2.04.62q.09-.6.14-1.13c.66-2.83-.36-7.5 2.43-9.07.2-.87.71-1.68 1.5-2.2l.3-.19c4.83-3.22 9.74-6.37 14.61-9.55zm27.4-1.5-8.39-2.53c-8.36 5.51-16.77 10.95-25.17 16.43l1.71.65c1.44.6 3.3.92 4.72 1.73q13.57-8.12 27.12-16.28m7.9 58.56q7.62-4.91 15.26-9.8l-16.89-20.17q-13.73 9.19-27.45 18.4l-1.8 1.2a3.2 3.2 0 0 1-1.14 1.7l.11 5.52.16 9.77.23 13.58q15.76-10.08 31.5-20.2zm19.82-18.38a20 20 0 0 0 3.33-9.37c-5.15-.53-10.96-.66-15.76-2.38l11.22 13.4q.55-.91 1.21-1.66m22.66 62.32q-.13-.15-.26-.25l-.08-.06c-.73.16-1.55.2-2.14.7a10 10 0 0 0-1.62 2.16c1.64-.12 3.45-.96 4.1-2.56m9.23 15.42c-.02-.81-.89-1.36-1.4-1.88a4.7 4.7 0 0 0-2.52 4.82c.32.06.64.12.97.1 1.48-.17 2.54-1.7 2.95-3.05M257 377.89c1.72-1.85 1.7-3.94-.34-5.51-1.78 1.47-.53 3.86.34 5.51m21.7.72c.46-1.37.68-2.99.15-4.34a7 7 0 0 0-1.92-2.25c-2.23 1.97.57 4.78 1.77 6.6zm18.03-5.15.73-4.86a4 4 0 0 0-.59-.33c-.96.35-1.48 1.5-1.43 2.5l.05.4-.02-.1.02.12.02.1c.18.84.62 1.56 1.21 2.19zm5.24-34.73 6.08-40.28c-2.35-1.13-4.2-2.65-4.54-4.55a2 2 0 0 1-.39-.25c-26.02-3.86-51.8-8.63-77.29-14.85a21 21 0 0 1-.29 5.7c-1.2 4.1-5.14 16.77-10.26 18.02-.47 10.4-.37 20.9-.86 31.32q0 .53-.13.97.31.6.5 1.3l.45.45c1.64-6.32 10.92-10.69 15.3-4.6 3.02 5.54-3.14 11.69-8.48 12.5l.03.17q.3 1.46.75 2.88c3.3-6.2 13.43-7.94 16.23-.4 2.12 6.76-5.79 12.7-12.08 11.72.83 2.28 1.96 4.56 3.9 6.07.86-5.23 6.67-10.9 12.17-8.44 8.26 4.14 6.61 14.66-1.44 17.84 2.3 1.93 4.94 3.76 7.96 4.24-1.05-2.99-1.38-6.47.55-9.17 1.57-2.35 4.1-4.75 7.13-4.4 2.86.35 4.81 2.8 6.47 4.95 2.96 3.87 1.5 9.45-1.66 12.77 3.55 2.01 7.73 2 11.55.77-3.09-3.69-6.32-9.01-3.62-13.76 1.62-3.12 5.23-6.02 8.9-4.58 6.2 2.62 8.91 10.23 6.2 16.3 2.85.1 5.91.13 8.41-1.47-7.26-4.63-6.7-17.2 2.62-18.65q1.24-.07 2.38.2l3.44-22.79zm13.11 113.57a6 6 0 0 1-.48-1.56q-.1-.73-.14-1.37c-5.78-2-10.33-6.87-14.09-11.83a155 155 0 0 1-8.4-8.8c-1.9-.51-2.67-2.3-2.44-3.95q-.4-.9-.26-1.94l.06-.43.03-.16c1.82-11.7 3.55-23.44 5.31-35.16a22.3 22.3 0 0 1-14.29.51c-5.97 4.5-14.66 4.93-21.2 1.44a20 20 0 0 1-4.88-3.47l-.09-.08c-8.99 1.29-17.74-4.43-22.1-12.04-7.4-2.34-12.87-10.28-12.48-18-2.62-2.53-3.77-6.27-4.46-9.82l-.22-1.21a6 6 0 0 1-2.39-1.14c-3.08 2.78-7.66 4.38-10.84 6.81-2.14 1.64-5 2.91-6.82 0-.47-1.16-.8-3.46-.77-5.67a6 6 0 0 1 0-.92q-6.29 4.15-12.62 8.25c.07 1.7-.25 3.57-.3 5a9 9 0 0 0 0 1.75q.02.97-.42 1.73c1.18 2.12-.25 4.83-2.65 5.2-1.73 1.23-3.2 2.75-4.82 4.1-3.14 2.41-6.57 4.44-9.75 6.81-2.55 1.52-4.82 4.6-8.02 4.44l-.36-.06a4 4 0 0 1-1.73.15l-.89-.12q-1.33-.2-2.67-.37c-1.67-.2-3.39-.03-5.04-.38-1.04-.21-2-.62-2.99-1l-1.03-.4c-2.85 12.91-7.15 25.56-7.48 38.9-.17 8.05-1.18 17.14 3.2 24.29 11.05 13.28 30.45 9.45 45.75 11.87 44.27.73 88.55-.12 132.8-1.38zm2.28-83.34c1.1-1.75 1.1-4.45-.7-5.73-2.14 1.5-1.25 4.5.7 5.73m11.52-78.43-.05-.14a98 98 0 0 0-3.29-12.07l-.38-.17c-2.56-1.78-5.87-1.85-8.8-1.75-.9.36-1.88.7-2.83.74a45 45 0 0 0-1.6 4.15c-1.15 2.31-1.14 6.85-2.62 9.4q.71.48 1.3 1.08c1.6 1.06 3.5 1.53 5.33 2 4.84 1.38 8.9-1.06 12.94-3.25m1.71 77.35-.76-6.48c-3.7-3.4-4.5-9.02-1.5-12.87l-.87-7.43-4.73-40.39q-2.02.43-4.14.37c-.95 0-2.29-.16-3.78-.45l-.07.45-.79 5.24q-.82 5.54-1.67 11.06l-3.3 21.93-4.1 27.08a12.5 12.5 0 0 1 1.62 9.37 13.6 13.6 0 0 0 6.12-1.64c-6.24-4.5-5.3-15.26 2.27-17.74 7.13-1.71 11.9 7.24 9.77 13.3 2.18.05 4.21-.64 5.95-1.8zm-9.82-108.43 25.13-7.5h-66.53l33.01 5.73q3.19.57 6.37 1.1h.02c.72 0 1.42.26 2 .68m16.41 164.5a2 2 0 0 1-.08-.43l-4.64-39.62q-.51-4.32-1-8.65a23 23 0 0 1-11.08 1.48c-4.46 5.22-11.47 6.3-18 6.15l-6.05 40.1c.6.66 1.15 1.44 1.7 2.07 2.58 3.05 5.6 5.65 8.25 8.63 3.05 3.53 6.1 8.02 10.86 9.2q.71.15 1.37.25.72-.05 1.4.17c5.61.41 7.8-2.53 10.65-8.17 2.33-3.68 4.9-7.19 6.63-11.19zm.05-66.5c.28-1.71.12-4.1-1.4-5.13l.56 4.93q.4.15.83.2zm14.98-16.43c.02-1.32-.13-2.84-1.26-3.71-1.06-1.44-3.18-.31-2.34 1.36.66 1.38 2.17 2.06 3.6 2.37zm13.92-67.62c-4.5-4.01-7.66-9.71-9.73-17.26l-29.8 8.88c3.87 5.36 6 11.77 7.73 18.12q.15.67.37 1.44c10.46-3.75 20.96-7.44 31.43-11.18m-2.19 50.58q.59-.07 1.15-.18c-.46-2.75-3.83-3.12-5.94-2.06a6.4 6.4 0 0 0 4.8 2.22zm5.83-19.87c-1.63-.09-6.4.25-4.17 2.68a5.5 5.5 0 0 0 4.17-2.69m1.07 15.26c2.2-2.55 3.8-5.75 3.06-9.19-16.48 13.47-24.34-15.5-2.5-12.94.18-1.05.16-2.25.27-3.38-3.36-1.1-5.52-3.69-3.9-8.32l.2-.7-5.89 1.79c-9.79 2.98-18.78 7.4-28.68 9.43a62 62 0 0 1-3.9 2.2l4.81 41.13.65 5.59c5.2-.12 9.51 5.4 9.36 10.57a16.2 16.2 0 0 0 6.04-7.79c-7.48-1.02-12.58-11.51-5.6-16.49 5.6-4.45 13.54.63 14.26 7.12 2.38-2.06 4.68-4.37 5.57-7.46-5.93.43-13.82-4.36-12.43-11.06 2.71-7.58 15.21-7.44 18.68-.5m8.74-96.11q-1.38-.96-2.7-1.97c-.58-.25-1.18-.44-1.72-.72-6.5 6.77-10.62 16.02-12.55 25.08-.54 2.57-.38 5.14.2 7.64a8 8 0 0 1 2.05 2.98q.86 1.48 1.97 2.74c-.57-12.87 3.9-26.32 12.75-35.76m-.33 57.45a3 3 0 0 1-.78.42q-1.46.63-2.93 1.19a74 74 0 0 0-1 5q.37.06.74.07.86.07 1.71.07c1.46-1.44 1.83-4.14 2.25-6.73zm10.82-47.22a8 8 0 0 1-1-.3c-2.92-1.16-4.47-2.73-5.1-4.31-8.13 9.27-11.6 22.55-9.69 34.75q.65.65.86 1.4 1.47.69 3.04 1.23c.27-1.24.6-2.45.9-3.65 1.2-4.5 2.26-9.05 3.62-13.5 1.91-5.46 4.64-10.54 7.36-15.62zm6.02-19.53.77-1.9q-.42.3-.95.45-.04.45-.12.89l.07.42zm9.6 54.1a81 81 0 0 0 7.1-3.43c-6.65-1.6-13.37-3.02-19.69-5.7l-1.19-.54a65 65 0 0 1-2.29 8.42 19 19 0 0 0-.42 1.84 58 58 0 0 0 16.47-.58zm3.57-168.43a66 66 0 0 1 2.06-5.6q-1.19-.02-2.18.16c-.62.04-1.26.2-1.89.33a2.8 2.8 0 0 1-2.07 1.73c-6.27 7.02-9.67 16.67-10.4 25.94a69 69 0 0 0-.63 10.57c.98.55 1.67 1.56 1.64 3.09a10 10 0 0 0 6.18 2.56q.8.09 1.4.4l.28-.07a134 134 0 0 1 2.97-29.13q1.08-5.06 2.64-9.97zm33.85 64.24c-.17-4.2-.29-8.41-.44-12.62l-.68-19.07-.5-14.24c-.13-3.48-.22-6.97-.38-10.45q-11.42-5.94-22.83-11.9a62 62 0 0 0-2.32 6.02q-1.49 4.74-2.53 9.58l.2.14c3.95.38 7.85.25 11.75.13 3.61.12 7.93-.95 11.12 1.02 2.62 2.28.23 6.9-3.14 6-4.54-.45-8.8.16-13.3.08-1.46-.12-2.98-.06-4.48-.06 1.4 13.5.66 27.12.34 40.65-.54 20.98-4.17 41.75-11.44 61.47a201 201 0 0 1-3.62 9.47c-.49 1.13-.96 2.63-1.62 3.92l-1.16 3.84c-1.03 4.56-2.86 8.84-4.48 13.2q.01.24-.04.51c.64.3 1.27.59 1.9.78 5.9 2.78 12.44 3.47 18.58 5.54 2.15.14 3.72.64 4.8 1.33.64-1.19 1.24-2.3 1.53-3.2 2.08-5.51 5.01-10.67 6.87-16.26.6-1.8.83-3.8 1.62-5.53a946 946 0 0 0-9.9-29.65q-.15-.09-.3-.14a3.56 3.56 0 0 1-.6-5.19c-4.29-7.2-3.94-16.25-.56-23.87q.56-1.93 1.71-3.87a15 15 0 0 1 4.17-5.34 3.2 3.2 0 0 1 3.44-2.09c4.92-2.17 11-2.03 16.28-.2zm8.75 28.23-.17-.4q-2.4-7.43-4.87-14.87l-.18-.58a3 3 0 0 1-.14-.84c-2.38-3.37-3.59-4.95-9.5-5.75a9.7 9.7 0 0 0-8.32 1.47c-1.23 1.47-2.62 2.81-3.58 4.49q-.48.95-.9 1.94a12 12 0 0 0-.48 3.53c.3 4.5 2.73 8.5 4.04 12.78.36 1.51 1.3 3.4 1.7 5.16q5.36-.27 10.61-1.52a53 53 0 0 0 11.8-5.4m16 11.9c2.17 16.91 14.63 38.99 5.83 54.76-5.57 11.44-36.52 53.63-48.42 54.07-2.92-.56-3.74-4.85-1.12-6.37a37 37 0 0 0 4.74-2.92c4.5-3.47 8.33-7.69 12.18-11.83 5.54-6.01 10.3-12.66 15.23-19.17 4.95-6.5 10-13.18 12.86-20.9 2.64-12.7-3.99-25.58-6.34-37.8-1.4-5.88-2.5-11.81-4.14-17.63l-.02-.14c-4.46 3.2-10.63 5.89-12.87 6.83a44 44 0 0 1-13.3 2.94c1.27 3.81 2.86 7.53 3.62 11.5 1.32 7.03 5.31 13.97 3.5 21.22-2.69 9.91-6.8 19.43-10.9 28.8-2.14 3.25-5.82 5.07-8.85 7.4-1.36.9-3.2.66-4.34-.45a50.3 50.3 0 0 1-25.4 6.57q-1.87 0-3.63-.12c-.95 5.38-2.38 12.05-7.73 13.43-.36 2.4-.43 4.86-.8 7.27 6.16 9.3 2.47 19.72-5.53 26.46-.78 8.6-7.08 15.95-14.59 19.71-2.16 7.5-7.69 14.42-15.49 16.36a23 23 0 0 1-4.36 6.7l1.34 11.46L344 422.1v.1c.52.82.68 1.9.18 3.1-.9 1.95-1.7 3.97-2.77 5.85-5.44 7.42-8.77 19.35-19.69 19.13q-.08 1.04-.49 1.82l4.7-.15c23.48-.75 47.05-1.8 70.36-4.94 13.04-2.44 30.74-.75 37.8-14.4 2.28-6.12 2.62-12.44 2.34-18.86q-.3-.65-.33-1.52a198 198 0 0 1-.1-4.88l-.37-4.12.3-1.7.04-.3c.01-5.7.07-11.43-.23-17.12.04-2.13-.74-4.65-.3-6.79q-.2-.93-.44-1.86l-.19-.81a3.5 3.5 0 0 1 1.73-.77q1-.13 1.88.26c2.11-.26 4.51 1.36 4.07 3.9-.06 5.82.76 11.75.48 17.64 0 4.84-.02 9.69.1 14.53l.05.64c3 30.13-10.16 37.75-31.49 41.3.71 2.02-.45 4.75-3.74 5.04.36 2.14-1.63 4.36-3.85 4-4.88.3-9.67 1.48-14.53 1.95-21.13 3.4-42.48 3.24-63.8 3.5-35.24.99-70.39 3.7-105.67 3.38-17.76-.7-36.12.46-53.48-3.64 2.21 2.95 4.62 5.7 7.84 7.52 4.61 1.83 8.96 3.58 13.77 4.66 4.4 1.1 2.5 8.02-1.86 6.75a84 84 0 0 1-8.83-2.51 6 6 0 0 1-.82 1.66c-4.2 3.17-10.9 1.12-15.9 1.56-8.37-.34-16.72 1.04-25.07.04-13.56-.56-29.73-1.71-43.56-2.6-6.82-.4-13.27-2.58-19.62-4.94a61 61 0 0 1-11.78-4.64c-6.35-2.52-12.45-5.46-17.98-9.51-6.49-3.62-12.48-8.05-17.02-13.99a92 92 0 0 1-16.69-36.45C8 408.5 7.4 403 6.34 397.6c-2-1.75-1.24-4.23.4-5.6a86 86 0 0 1-4.89-9.55c-3.6-7.56 6.81-9.69 6.77-1.9 7.74 16.71 20.9 31.34 38.1 38.5 11.34 5.21 24.27 8.3 36.67 5.44 6.58-1.17 12.62-4.44 18.1-7.92.34-.15.66-.37 1-.58 3.36-6.93 5.21-14.69 7.03-22.1 1.1-4.93 2.6-9.74 4.14-14.53l-.72-.1c-9.29-1.56-18.25-5.75-24.78-12.36-2.36.72-4.8-.25-7.15-.6a87 87 0 0 1-9.34-1.88c-3.89-1.12-10-1.25-9.72-6.7.05-1.6 0-3.39.17-5.1-.44-1.97.07-4.26-.1-6.23-.09-1.31-.02-2.85.44-4.13v-.06c.28-8.18.44-16.34.66-24.5l.32-11.62-.05-.07c-1.5-2.46.68-4.4 2.3-6 2.16-2.56 4.23-5.2 6.4-7.76 6.08-6.87 11.78-14.1 17.95-20.87a5 5 0 0 1 0-1.06v-.11l.67-5.65.75-6.4c.18-1.58.3-3.19.55-4.76q.05-.62.32-1.19c.12-.84.54-1.62 1.26-2.14l.13-.08.32-.23.07-.04 30.8-21.85 1.55-1.1.07-.06.57-.4a4 4 0 0 1 1.73-.74q.44-.26.97-.41c4.98-.19 10 1.37 14.91 2 1.42.03 2.41.72 2.95 1.63 2.02.42 3.64 2.42 2.4 5.1.1 2.16.12 4.32.17 6.48v.09c4.47.66 8.92 1.55 13.41 2.05l6.11-3.98.78-.52.26-.14a3.7 3.7 0 0 1 3.42-.69q.03 0 .06.03l.68.2c.02-2.73.14-6.54-.3-12.03.32-22.28-2.27-45.2 2.18-67.15-3.79-6.62-5.9-14.1-8.62-21.2-3.82-14.22 3.17-29.34 12.77-39.7 3.2-3.85 23.21-22.92 24.57-10.93-.2 2.08-2.04 2.96-3.84 3.25-8.2 4.2-14.88 10.86-20.3 18.2 3.22 2.1-1.27 15.63 1.85 21.33 2.47 6.35 6.72 11.97 11.33 16.92 1.77 1.16 3.11 3.02 2.57 5.22-1.7 12.6-5.53 25.46-5.93 38.08-.09 7.84-.19 15.72.34 23.56.91 6.54 1.18 13.28 3.21 19.61a38 38 0 0 1 2.53 7.25 3.7 3.7 0 0 1 4.02.78q.59.22 1.15.7l.4.45a3.6 3.6 0 0 1 2.3-.87 3.4 3.4 0 0 1 3.4 2.97q.6-.26 1.32-.32a3.53 3.53 0 0 1 2.17 6.3 26 26 0 0 0-2.79 5.53 16 16 0 0 0-.8 9.2q.32-.02.65.06l39.07 7.51 41.85 8.06q4.8.94 9.57 1.85l4.58.9a53 53 0 0 1 8.3-18.15l-3.26-.59-10.9-1.88-21.27-3.7-39.69-6.88-3.8-.67a3.54 3.54 0 0 1-3.04-3.9c.23-1.82 2.04-3.36 3.91-3.04l22.33 3.88a3.57 3.57 0 0 1 3.64-3.1q19.94 0 39.86.02h55.28c.62-4.24 2.11-8.4 3.81-12.28 4.76-11.99 13.66-22.8 26.34-26.68 3.23-1.06 6.61-.8 9.92-.37 1.53.46 2.37 1.4 2.66 2.47 3.44-9.86 5.63-20.36 7.2-30.47.54-4.9 1.11-9.81 1.56-14.75-.97.39-2.1.47-3.14.13-6.3-.72-9.47-7.2-12.45-12.04-4.19-7.8-4.82-16.85-4.1-25.52.48-9.69 2.98-19.51 8.04-27.82-8.24 4.46-11.84 15-13.22 23.95a47 47 0 0 0-.56 6.03c.35 2.27-1.45 4.46-3.8 4.26-2.29-.15-3.52-2.5-3.17-4.55a59 59 0 0 1 5.94-23.93c4.27-7.56 12.34-15.21 21.62-14.3h.06q.72-.51 1.4-.78a3.3 3.3 0 0 1 2.4-.74c2.57-.2 7.3-1.45 9.97-.23a3.4 3.4 0 0 1 3.27.9c8.75 4.64 17.58 9.14 26.36 13.73l.07.03a3.2 3.2 0 0 1 1.64 2.42q.58.8.66 1.81c.27 5.86.41 11.7.62 17.55l.72 20.16c.25 7.2.46 14.41.77 21.62v.22c.03.78-.2 1.53-.6 2.16 1.34 1.5 2.47 3.2 3.72 4.72a3.2 3.2 0 0 1 .6 3.38c.46 1.46.97 2.9 1.45 4.36l2.25 6.88c1.7-1.44 3.12-1.38 4.26-.56l.32.2q.77.7 1.1 1.4a13 13 0 0 1 1.47 3.74c1.14 3.94 2.05 7.94 3.08 11.93z"/><path fill="#000" d="M428 308.7a3.6 3.6 0 0 1-1.34-1.28q0-.03-.02-.04c-4-.93-4.16-12.55-5.47-16.33q-1.42-7.5-2.99-14.94c-.56-3.25-3.54-8.65 1.18-10 .08-1.7.9-3.46 2.55-4.1 4.7-1.75 5.45 4.2 5.57 7.51q.72 6.6 1.35 13.22c.54 4.86 10.2 29.6-.83 25.97M288.67 424.4a3.54 3.54 0 0 1-3.02-3.92c1.8-11.44 3.7-22.87 5.55-34.3l6.45-39.82q3.47-21.37 6.92-42.78c.46-2.82.97-5.65 1.38-8.5a3.54 3.54 0 0 1 3.93-3.02 3.54 3.54 0 0 1 3.02 3.93c-.37 2.56-.83 5.13-1.25 7.7l-1.7 10.6-3.49 21.52q-3.3 20.5-6.63 40.98l-7.04 43.48-.02.2q-.06.33-.1.67l-.05.25a3.56 3.56 0 0 1-3.47 3.06q-.22 0-.46-.03z"/><path fill="#000" d="M315.68 455.9c-5.94-4.24-10.9-9.73-16.66-14.22-5.24-5.39-13.4-10.07-14.07-18.24-1.6-9.25 10.67-7.64 6.97-.63 1.01 5.67 7.32 8.81 10.91 12.93 5.9 5.35 12.82 10.25 17.94 16.13.95 2.85-2.54 5.67-5.1 4.01zm-115.55 42.27c.77-4.94-2.84-14.24.82-17.59 2.91-2.45 7.42 1.13 5.38 4.47-.4 4.19 3.65 16.19-2.64 16.56a3.53 3.53 0 0 1-3.56-3.44"/><path fill="#000" d="M201.88 502.64a3.5 3.5 0 0 1-1.17-2.38 3.53 3.53 0 0 1 3.25-3.74q.92-.05 1.87-.02h.96q2.43-.01 4.88-.05l8.9-.06 19.63-.14q17.41-.14 34.82-.25h1.25c1.91 0 3.38 1.92 3.26 3.73a3.5 3.5 0 0 1-3.27 3.25c-10.42.13-20.84.15-31.26.23l-38.33.29h-1.63l-.03.01h-.62c-.94 0-1.8-.22-2.52-.87z"/><path fill="#000" d="M275.03 501.07c-1.2-1.54-.77-3.69-.65-5.5.12-2.93.06-5.85-.09-8.78-.1-1.9 1.58-3.53 3.44-3.56 5.81.27 3.2 10.11 3.55 14.04 1.7 3.66-3.75 7.12-6.24 3.8"/><path fill="#000" d="M271.67 498.82a9 9 0 0 1-.72-.47q-.24.2-.54.35a3.7 3.7 0 0 1-3.4.13c-5.77 1.78-5.24-5.81-5.4-9.47-.09-2.6-.53-6.16 2.3-7.46a3.6 3.6 0 0 1 4.2.84 3.6 3.6 0 0 1 2.83 1.5h.22q.45 0 .9.06c.83-2.5 4.5-3.15 6.06-.99 1.5 2.2.31 5.1.24 7.56-.3 3.51-1.88 10.23-6.7 7.94zm34.29-.02c.8-4.68-3.4-16.45 3.34-16.97 2.57-.18 4.41 2.93 3.17 5.13.21 3.9.54 7.8.5 11.72.02 4.56-6.88 4.7-7 .12"/><path fill="#000" d="M306.31 499.97a3.53 3.53 0 0 1 3.41-3.6l.66-.01c5.85-.15 11.7-.2 17.55-.3l21.03-.37q11.93-.19 23.84-.42a3.53 3.53 0 0 1 3.6 3.42 3.53 3.53 0 0 1-3.42 3.58q-14.4.29-28.84.5l-18.07.33c-4.96.08-9.92.13-14.87.25l-.3.01-1 .02h-.08a3.53 3.53 0 0 1-3.5-3.4z"/><path fill="#000" d="M371.66 499.06c-.9-4 .28-8.21-.29-12.29-.24-3.35-1.86-7.8 2.42-8.71a3.53 3.53 0 0 1 4 2.93c.62 5.1.96 10.2.53 15.33a3.55 3.55 0 0 1-1.85 4.53 3.6 3.6 0 0 1-4.8-1.8m-56.32 1.15a6 6 0 0 1-1.09-1.1c-7.1 1.5-5.4-9.14-5.76-13.49.25-3.4 5.33-4.2 6.65-1.06q.4-.1.8-.1 1.22 0 2.12.7a3.6 3.6 0 0 1 2.41-.61l.13.01c4.53-2.9 6.4 1.81 5.86 5.76-.1 2.49.75 6-2.1 7.19a3.6 3.6 0 0 1-2.87 1.93q-.55.05-1.1-.04c-1.12 1.56-3.5 2.07-5.04.81m-59.76 26.18c-8.98.2-18.07-.6-26.82-2.45-9.3-.76-14.4-6.08-13.08-15.59.21-3.66-.53-11.56 5.32-9.86 5.64 2.51-2.42 15.37 4.28 17.58 9.3 2.2 18.74 3.5 28.3 3.32 6.58.13 13.41 0 7.27-7.89-1.32-2.78-1.14-5.87-.89-8.85.55-4.52 7.43-3.72 6.95.83-1 3.84 1.33 6.64 3 9.78 3.18 8.62-6.85 14.23-14.35 13.14z"/><path fill="#000" d="M336.27 525.76c-6.87-.86-13.64-2.37-13.8-10.62-.09-5.3-3.25-14.69 1.53-18.32 3.2-2.03 6.96 2.29 4.54 5.16a65 65 0 0 0 1.47 15.12c6.57 2.66 13.83 1.8 20.74 1.44 5.78-.68 12.04.62 17.57-1.41-1.14-4.97-5.78-1.36-5.35-13.64 0-4.57 6.9-4.7 7-.13-.04 1.72.05 3.47.37 5.18 6.6 3.56 7 13.76-.99 15.74-5.95 1.48-12.18.75-18.24 1.25-4.93.37-9.9.59-14.84.24zm-165.5-43.32c-1.95-1.4-2.1-4.12-1.98-6.27v-.12a3.5 3.5 0 0 1-4.3.21 4 4 0 0 1-.88-.91c-6.6-.94-2.36-6.8-.35-10.12 1.8-3.24 4.97-8.15 9.23-5.78a3.48 3.48 0 0 1 5.21 1.5c2.3-1.46 5.05-1.84 7.73-1.87 4.56-.12 4.84 6.77.28 7a7.6 7.6 0 0 0-6.87 3.09c-2.9 2.73-1.57 6.2-1.56 9.68-.05 3.2-3.77 5.69-6.5 3.58M286.3 88.06h.07-.02l-.23.02h.17z"/><path fill="#000" d="M389.32 179.86c-1.63-52.96-50.27-96.24-103.04-91.8-29.18 1.81-56.95 17.86-73.25 42.1a96.4 96.4 0 0 0-16.15 44.4c-.52 4.45-7.6 3.57-6.94-.95 3.64-38.14 30.18-72.7 66.11-86.02 46.32-18.5 100.25 1.86 125.42 42.85-.07.65-.17 1.35-.02 1.98q.04.18.12.35.09.39.32.72l.24.3c.24.67.61 1.3 1.18 1.67a29 29 0 0 0 1.64 3.43c.31.57.7 1.11 1.3 1.41q.3.15.61.2a95 95 0 0 1 5.55 15.27 103 103 0 0 1 3.91 24.1c.08 1.9-1.65 3.5-3.5 3.5-1.97 0-3.4-1.6-3.5-3.5"/><path fill="#000" d="m188.72 224.57.01-.92v-.24c.1-5.37.14-10.76.21-16.15l.27-20.77c.05-4 .07-8 .16-12a3.54 3.54 0 0 1 3.5-3.52 3.54 3.54 0 0 1 3.5 3.5v.74c-.13 5.98-.15 11.98-.23 17.97l-.27 20.66c-.05 3.57-.07 7.15-.14 10.72a3.54 3.54 0 0 1-3.49 3.5 3.54 3.54 0 0 1-3.5-3.5zm200.75-5.38q.23-.62.43-1.23c.21-.65.44-1.3.56-1.97s.17-1.31.24-1.98c.08-.8-.43-1.63-1.16-1.97q.12-12.9.2-25.8c.02-2.98.08-5.96.08-8.95 0-1.9 1.6-3.5 3.5-3.5s3.5 1.6 3.5 3.5c0 4.62-.08 9.24-.12 13.85l-.16 19.09-.06 7.73a2 2 0 0 0-.77-.08l.03-.78c.05-1.03-.67-1.82-1.63-2.06-.62-.16-1.38-.13-1.9.28-.27.22-.5.42-.7.7q-.23.37-.43.76l-.86 1.53c-.28.5-.5 1.01-.75 1.53v-.66m-18.39 23.65.12-.34h.44l-.8 1.33zm-154.72 7.37c-1.85 0-3.3-1.74-3.32-3.51v-.18a3.5 3.5 0 0 1 3.68-3.3c13.11 0 26.21-.12 39.32-.18l43.8-.2 43.42-.2 17.71-.1-.35 1.16a42 42 0 0 0-1.37 5.84l-24.37.13q-21.57.08-43.12.2l-43.67.2c-10.58.04-21.15.13-31.72.13z"/><path fill="#000" d="M215.13 250.07c-11.92-.2-21.23-5.55-24.8-17.35-.7-3.27-3.26-9.06 1.36-10.4a3.6 3.6 0 0 1 4.4 4.2c1.6 11.07 8.27 16.44 19.31 16.55 4.56.22 4.31 7.13-.26 7m173.4-28.31.45-1.23a5 5 0 0 1 .44-.6l-.07.13-.84 1.8zm4.42 15.17c.4-1.07.83-2.14 1.18-3.24q.79-2.5 1.55-5a26 26 0 0 1-2.95 8.82zm-21.99 6.36.36-.28-.49.81zM258.98 118.34l-.03.02zm-.05.03h.02q-.03 0-.05.03l.03-.02m-3.07 2.69-.12.1zm-73.88-16.19c11.37-30.93 51.74-35.17 70.51-11.6q-.97.76-1.96 1.48l-.59.44-1.06.75q-.6.44-1.23.87-.56.05-1.02.38c-15.76-19.19-48.47-14.92-57.8 9.34-6.52 15.42.48 32.8 13.5 41.32l-1.18 2.96.1-.25-.19.47.1-.25-1.47 3.72c-16.22-9.81-25.08-30.94-17.72-49.62z"/><path fill="#000" d="M198.34 114.25c4.4-19.37 27.98-23 39.2-10.22q-2.25 1.63-4.46 3.28l-1.2.9c-2.65-2.85-6.58-4.77-11.75-4.81-15.9.86-19.18 18.81-10.42 27.14l-2 4.6-.87 1.98c-6.75-5.25-10.64-14.2-8.5-22.87m145.98-14.39a1.8 1.8 0 0 0-1.29-.4l-.32-.2.14-.69a2 2 0 0 0-1.52-2.39 2.1 2.1 0 0 0-1.84.51l-.12-.1q-.27-.4-.57-.8c15.4-17.49 43.71-18.25 60.04-1.7a36 36 0 0 0-2.9 2.47q-1.18 1.1-2.3 2.25c-13.54-13.55-36.53-12.59-49.2 1.17zm52.54 49.88-.38-1.73h.02l.1-.03.22.65c.3.81.93 1.45 1.82 1.54.5.04.95-.02 1.37-.27l.11.37a42 42 0 0 1-2.44 2.54q-.45-1.52-.83-3.06zm-7.46 7.42c.03-.72.1-1.5-.35-2.13a2 2 0 0 0-2.2-.88l-.09-.54a3 3 0 0 0-.38-.9 33 33 0 0 0 5.18-3.73l.45 1.13q.6 1.46 1.28 2.87l.77 1.58q.19.53.41 1.02a41 41 0 0 1-5.1 3.41v-1.84z"/><path fill="#000" d="M369.26 107.37a16.3 16.3 0 0 0-9.48 3.36q-1-.72-2.04-1.42l-3.9-2.62c8.85-8.48 23.85-8.3 32.36.81a2 2 0 0 0-.9 1.08 34 34 0 0 0-1.13 4.14 4 4 0 0 0-.47 1.02c-.14.39-.2.8-.29 1.2l-.1.48c-2.39-4.56-7.08-7.98-14.03-8.06zm11.59 33.53a3 3 0 0 0-.55-.69v-1.03a21 21 0 0 0-.29-2.7 2 2 0 0 0-.59-1.12q1.27-1.02 2.26-2.24.09.2.21.38l.24.3c.24.67.61 1.3 1.18 1.67a29 29 0 0 0 1.9 3.87 24 24 0 0 1-3.92 3.09 3.3 3.3 0 0 0-.45-1.53z"/><path fill="#a26045" d="M359.5 83.38a40.4 40.4 0 0 0-18.14 9.76c-25.72-13.63-56.93-16.88-85.3-5.55a99 99 0 0 0-6.29 2.6c-12.6-12.85-32.42-15.33-47.89-7.7-6.27.11-18.48 11.9-20.92 14.84-9.6 10.36-16.59 25.47-12.77 39.7 2.72 7.1 4.83 14.57 8.62 21.2-4.45 21.96-1.86 44.88-2.19 67.15.45 5.48.33 9.3.31 12.04l-.68-.2-.06-.03a3.7 3.7 0 0 0-3.42.68l-.26.15-.78.51-6.1 4c-4.5-.5-8.95-1.42-13.42-2.07v-.09q-.06-3.24-.17-6.48c1.24-2.68-.38-4.67-2.4-5.09a3.4 3.4 0 0 0-2.95-1.64c-4.9-.63-9.93-2.18-14.9-2q-.56.14-.98.42-.93.16-1.73.73l-.57.41-.07.05-1.56 1.1q-15.39 10.94-30.79 21.85l-.07.05-.32.22-.13.1a3.2 3.2 0 0 0-1.26 2.13 3 3 0 0 0-.32 1.2c-.25 1.56-.36 3.17-.55 4.74l-.75 6.4-.67 5.66v.11a4 4 0 0 0 0 1.05c-6.17 6.78-11.87 14-17.96 20.87-2.16 2.55-4.23 5.2-6.4 7.76-1.6 1.6-3.79 3.55-2.29 6l.05.07q-.14 5.82-.32 11.62c-.22 8.17-.39 16.34-.66 24.5v.06a11 11 0 0 0-.44 4.14c.17 1.96-.34 4.27.1 6.23-.18 1.72-.1 3.51-.17 5.1-.29 5.45 5.83 5.57 9.72 6.7a92 92 0 0 0 9.34 1.87c2.34.36 4.8 1.32 7.15.61 6.53 6.6 15.5 10.8 24.78 12.35l.72.1c-1.55 4.8-3.04 9.61-4.14 14.54-1.8 7.41-3.66 15.17-7.04 22.1q-.5.34-.99.58c-5.48 3.47-11.52 6.75-18.1 7.92-12.39 2.85-25.32-.23-36.67-5.45-17.08-7.1-30.17-21.58-37.93-38.15.18-9.02 1.6-18 4.32-26.64.2-.85.1-1.7-.25-2.45l.41-1.83 9.46-42.6 9.68-43.6 9.8-44.13 9.67-43.57 4.86-21.86c1.4-6.27 2.87-12.54 4.18-18.83l.05-.3a176 176 0 0 1 3.76-12.43 168 168 0 0 1 32.41-55.38c54.8-63.5 153.72-74.95 221.54-25.5a167 167 0 0 1 40.83 41.6M451.7 191.7q.07.2.17.4a53 53 0 0 1-11.8 5.41q-5.25 1.26-10.62 1.51c-.39-1.76-1.33-3.64-1.69-5.16-1.3-4.27-3.75-8.27-4.04-12.78q-.02-1.82.48-3.53.42-.99.9-1.94c.96-1.67 2.35-3.02 3.58-4.48a9.8 9.8 0 0 1 8.32-1.48c5.91.8 7.12 2.38 9.5 5.76q.02.42.14.84.08.3.18.57 2.45 7.43 4.87 14.88z"/><path fill="#a26045" d="M124.62 348.18q.02.6 0 1.18l-.13.97-.27 1.02q-.2.53-.43 1.03-.25.47-.54.93-.35.5-.75.97-.44.46-.89.9-.45.38-.94.72-.7.45-1.4.83-.75.35-1.49.62-.87.3-1.77.5-.97.17-1.95.26-1.1.06-2.19.01-1.2-.1-2.38-.32a27 27 0 0 1-2.18-.6q-1.02-.38-2-.86a24 24 0 0 1-1.79-1.04q-.73-.53-1.44-1.1-.65-.6-1.23-1.23-.54-.64-1-1.3l-.72-1.19q-.33-.7-.6-1.43-.18-.57-.32-1.13l-.16-1.12q-.03-.58 0-1.17l.15-1.1q.12-.53.27-1.02.18-.5.41-.98.27-.5.57-.99.38-.51.78-1 .42-.43.86-.84.5-.42 1.04-.79.62-.39 1.25-.73.7-.33 1.42-.6.91-.31 1.86-.53 1-.19 2.03-.29 1.1-.06 2.2 0 1.12.1 2.25.31 1.15.26 2.27.62 1.04.37 2.02.85l.21.11.05.03.12.07q.65.37 1.25.76.8.56 1.53 1.2.67.6 1.3 1.28.5.6.95 1.23.4.63.75 1.3.28.59.51 1.2.21.64.36 1.31.1.55.14 1.12zm136.25 163.3c6.14 7.9-.69 8.02-7.28 7.9-9.55.15-18.98-1.15-28.29-3.33-4.56-1.5-2.29-7.94-2.14-12.7l21.86-.16 14.93-.09c-.23 2.83-.33 5.75.93 8.38m102.22-9.02q-.14.46-.14 1.02c-.43 12.28 4.21 8.67 5.35 13.63-5.52 2.03-11.78.75-17.57 1.42-6.9.37-14.17 1.24-20.74-1.44a64 64 0 0 1-1.47-14.04l15.61-.26z"/><path fill="#f7b984" d="m389.8 181.55-.05 4.7-.15 19.06q-1.96.09-3.87.7c-12.67 3.87-21.58 14.69-26.34 26.69a53 53 0 0 0-3.37 9.87l-12.75.06-43.43.2-43.79.2c-13.1.06-26.2.19-39.32.19q-.22 0-.4.02-.44-.14-.95-.16-4.35-.04-7.79-1.19a3.3 3.3 0 0 0-2.39-.98c-5-2.54-8.1-7.3-9.12-14.38.2-.9.04-1.74-.34-2.44q.1-5.1.13-10.24l.27-20.66c.07-5.7.1-11.4.21-17.1q.43-.6.54-1.52a96 96 0 0 1 16.15-44.4c16.27-24.2 43.96-40.22 73.08-42.08q.12 0 .23-.03h.02c52.74-4.39 101.33 38.88 102.96 91.8q.05.92.47 1.68M243.11 93.53q-5.35 2.91-10.29 6.5c-12.08-7.64-30.63-2.73-34.48 14.22-1.67 6.8.37 13.78 4.6 19.01q-3 5.25-5.39 10.8c-9.83-9.25-14.37-24.12-8.7-37.53 8.68-22.56 37.6-27.84 54.27-13"/><path fill="#f7b984" d="M220.13 103.4c2.53.02 4.75.48 6.68 1.28a106 106 0 0 0-19.9 22.17c-4.89-9.02-.62-22.7 13.22-23.45m167.88-9.1a34 34 0 0 0-7.3 8.95 23.5 23.5 0 0 0-23.05.53q-4.75-3.75-9.88-6.94c11.23-9.19 27.9-10.3 40.23-2.53m-10.04 15.37a59 59 0 0 0-2.8 11.68 103 103 0 0 0-11.79-12.74c1.71-.7 3.68-1.15 5.88-1.27 3.47.03 6.37.9 8.71 2.33M345.9 251.97q-12.56 3.73-25.13 7.5a3.5 3.5 0 0 0-2-.68h-.02c-2.12-.33-4.25-.74-6.37-1.1l-33.02-5.73h66.54"/><path fill="#cbdded" d="M462.82 213.85c2.36 12.22 8.98 25.1 6.34 37.8-2.87 7.72-7.9 14.4-12.86 20.9-4.93 6.5-9.7 13.15-15.23 19.18-2.64 2.83-5.28 5.71-8.12 8.35-.96-6.56-3.83-14.76-4.1-17.34q-.65-6.62-1.36-13.22l-.03-.56q.68-.74 1.24-1.57c4.11-9.4 8.22-18.9 10.91-28.8 1.81-7.25-2.18-14.2-3.5-21.24-.77-3.97-2.35-7.67-3.62-11.5 4.55-.35 9.07-1.2 13.3-2.94 2.24-.92 8.41-3.62 12.87-6.81l.02.13c1.64 5.81 2.75 11.76 4.14 17.63zm-26.3 202.85c.05 5.4-.49 10.75-2.43 15.94-3.82 7.38-10.75 10.29-18.38 11.76l-.14-.14-.2.22c-6.37 1.2-13.19 1.46-19.07 2.56-23.3 3.14-46.88 4.19-70.37 4.94l-4.69.14a5 5 0 0 0 .5-1.81c10.91.2 14.24-11.71 19.68-19.12 1.05-1.9 1.86-3.9 2.77-5.87a3.3 3.3 0 0 0-.18-3.1v-.1l-4.67-39.93-1.34-11.46a23 23 0 0 0 4.36-6.72c7.8-1.94 13.33-8.83 15.5-16.34 7.51-3.77 13.8-11.12 14.58-19.73 8-6.74 11.7-17.15 5.53-26.44.37-2.43.45-4.87.8-7.29 5.35-1.38 6.78-8.04 7.73-13.41q1.76.09 3.62.12c8.1.03 16.23-1.8 23.42-5.5l8.63 39.52 8.41 38.5q.14.58.45 1.06a104 104 0 0 1 2.32 9 86 86 0 0 1 1.73 10.99l-.25.19.2.81q.09.46.21.91l.11 1.7c-.07.81 0 1.66.1 2.52q.06 2.22 0 4.4l.36-.06c.26 5.44.21 10.87.2 16.3l-.05.3-.29 1.7.36 4.12q.02 2.44.11 4.88 0 .48.11.88l.17 3.92q.08-.19.12-.37zM356.4 256.14c2.07 7.55 5.23 13.25 9.73 17.26-10.48 3.74-20.97 7.44-31.43 11.19q-.21-.77-.37-1.45c-1.73-6.35-3.86-12.75-7.73-18.12q14.9-4.46 29.8-8.88"/><path fill="#cbdded" d="M373.9 310.19c.73 3.44-.86 6.63-3.06 9.19-3.47-6.94-15.98-7.08-18.68.5-1.39 6.7 6.5 11.49 12.43 11.06-.89 3.1-3.19 5.4-5.57 7.45-.7-6.47-8.66-11.56-14.27-7.1-6.97 4.96-1.88 15.45 5.61 16.48a16 16 0 0 1-6.04 7.8c.16-5.18-4.16-10.7-9.36-10.58l-.65-5.59-4.8-41.13a62 62 0 0 0 3.9-2.2c9.9-2.02 18.87-6.45 28.67-9.44q2.94-.92 5.9-1.78l-.22.7c-1.6 4.63.55 7.21 3.91 8.31-.12 1.14-.09 2.34-.27 3.38-21.84-2.55-13.98 26.43 2.5 12.95m-64.66-45.96 3.26.58a53 53 0 0 0-8.3 18.16c-1.53-.29-3.05-.62-4.58-.9l-9.57-1.85q-20.92-4.05-41.85-8.06-19.54-3.75-39.07-7.52a3 3 0 0 0-.65-.05c-.63-3.05-.38-6.22.8-9.2.75-1.9 1.57-3.8 2.75-5.49q1.52.15 3.1.18h.36q.42.14.88.13h.02q7.64 0 15.26-.05c.52.48 1.2.82 1.94.95l3.8.66 39.7 6.9 21.26 3.68 10.9 1.9zM305.66 297l-1.09 6.6-6.92 42.76-2.45 15.14c-7.9 2.01-8.6 12.62-2.84 17.6l-.26 1.6c-2.19.85-4.65.81-6.98.74 2.72-6.08 0-13.69-6.2-16.3-3.66-1.46-7.27 1.45-8.89 4.57-2.7 4.74.53 10.07 3.62 13.77-3.8 1.23-7.99 1.24-11.55-.76 3.15-3.33 4.61-8.92 1.66-12.78-1.66-2.14-3.6-4.6-6.47-4.96-3.04-.34-5.56 2.05-7.13 4.41-1.93 2.7-1.6 6.18-.55 9.16-3.02-.48-5.66-2.3-7.96-4.24 8.05-3.18 9.7-13.7 1.44-17.84-5.5-2.46-11.3 3.21-12.17 8.45-1.95-1.52-3.07-3.79-3.9-6.07 6.3.97 14.2-4.97 12.08-11.73-2.8-7.54-12.94-5.79-16.23.41q-.44-1.43-.75-2.89l-.03-.16c5.34-.8 11.5-6.97 8.48-12.5-4.38-6.09-13.66-1.73-15.3 4.6l-.45-.46q-.2-.7-.5-1.3.12-.44.13-.97c.5-10.42.4-20.9.86-31.3 5.12-1.27 9.05-13.94 10.26-18.03.37-1.88.42-3.8.3-5.7 25.47 6.21 51.26 10.98 77.28 14.84q.2.16.4.26c.2 1.17 1.01 2.2 2.14 3.1z"/><path fill="#cbdded" d="M365.6 306.8c-2.24-2.44 2.53-2.76 4.16-2.69a5.4 5.4 0 0 1-4.17 2.69m-.49 17-1.16.18a6.4 6.4 0 0 1-4.79-2.24c2.11-1.06 5.48-.69 5.94 2.07m-14.14 13.49c1.13.88 1.28 2.4 1.26 3.72-1.43-.3-2.95-.97-3.6-2.37-.84-1.66 1.28-2.78 2.34-1.35m-15.13 15.03c1.52 1.03 1.7 3.4 1.41 5.13a4 4 0 0 1-.83-.2zm-56.98 21.96c.52 1.35.31 2.96-.15 4.33-1.19-1.81-4-4.63-1.77-6.6a7 7 0 0 1 1.92 2.25zm-22.19-1.9c2.05 1.56 2.06 3.66.34 5.51-.87-1.64-2.12-4.03-.34-5.51m-16.42-9.46c.52.52 1.4 1.06 1.41 1.88-.4 1.33-1.47 2.88-2.95 3.03-.32.02-.65-.04-.97-.08a4.7 4.7 0 0 1 2.51-4.83m-8.08-13.78q.14.11.26.25c-.64 1.6-2.45 2.44-4.09 2.56.46-.77.96-1.56 1.62-2.15.6-.5 1.4-.56 2.14-.72q.03.04.08.06"/><path fill="#cbdded" d="M299.02 441.7c4.27 3.32 8.11 7.2 12.23 10.72-42.97 1.2-85.98 1.98-128.97 1.26-15.3-2.4-34.7 1.43-45.75-11.87-4.38-7.13-3.36-16.24-3.2-24.29.33-13.34 4.63-25.97 7.48-38.88l1.03.38c.98.38 1.95.8 3 1 1.64.35 3.37.18 5.03.38l2.67.38 1.43.17q.62 0 1.2-.2.17.04.35.06c3.2.15 5.46-2.9 8.02-4.44 3.18-2.37 6.61-4.38 9.75-6.8 1.62-1.37 3.1-2.88 4.82-4.12 2.4-.35 3.83-3.07 2.65-5.2q.46-.74.42-1.71-.07-.9 0-1.77c.05-1.41.37-3.3.3-4.98l12.62-8.25q-.05.43 0 .91c-.03 2.22.3 4.53.77 5.68 1.82 2.92 4.68 1.64 6.82 0 3.2-2.44 7.76-4.05 10.84-6.82a6 6 0 0 0 2.4 1.13l.21 1.21c.7 3.56 1.84 7.3 4.46 9.83-.39 7.71 5.07 15.65 12.47 18 4.38 7.62 13.12 13.32 22.11 12.03l.1.1a20 20 0 0 0 4.86 3.46c6.55 3.49 15.24 3.06 21.21-1.44a22 22 0 0 0 10.5.55c-1.63 10.06-3.3 20.12-4.89 30.19-.93 1.02-1.46 2.7-1.04 5.1.66 8.17 8.82 12.85 14.07 18.24zm-85.92-164a20 20 0 0 1-3.34 9.36c-.43.5-.86 1.05-1.2 1.66q-5.61-6.71-11.23-13.4c4.8 1.71 10.61 1.84 15.76 2.38"/><path fill="#696969" d="M389.5 463.18q2.05-.2 4.1-.55a89 89 0 0 1-22.89 11.54 98 98 0 0 1-15.64 4.02l-.05.1-.6 1.21q-.26.67-.5 1.37l-.09.37a19 19 0 0 0-.16 1.66v.83l.32.4q.6.59 1.21 1.13 7.98-1.26 15.66-3.76c-.1 1.63.36 3.6.48 5.27.4 2.81-.04 5.7-.06 8.54l-22.35.38-21.03.38-1.98.03c.87-1.62.44-3.98.51-5.79a9 9 0 0 0-.3-3.99l5.5-.01q.35.06.74.06l.32.02.07-.08.45-.62a19 19 0 0 0 .98-1.62l.1-.28.02-.23v-.16q0-.15-.02-.27 0-.16-.04-.28l-.14-.55-.26-.7-.34-.67q-.2-.3-.4-.56l-.2-.22q-.11-.08-.22-.2l-.23-.19-.33-.22-.2-.15-.13-.06-6.26.02c-14.59.03-29.18.1-43.77.13l-30.28.08-.14.18-.25.33q-.48.82-.89 1.67a6 6 0 0 0-.29 1.07q0 .18-.03.33a7 7 0 0 0 .22 1.63l.14.44q.18.42.4.81.15.29.33.56l10.55-.04c-.03.96.04 1.94.07 2.81.1 1.82 0 4.61.6 6.75l-22 .15-19.64.14q-4.45.05-8.89.07l-4.43.04c.11-3.17-.7-7.12-.89-9.8l13.85-.03q2.79 0 5.57-.02l.1-.14.04-.08v-.03l.02-.04.02-.24q0-.36-.04-.72-.06-.47-.17-.95l-.1-.3q-.28-.69-.62-1.33a14 14 0 0 0-2.6-3.15l-29.09.08H190a3.2 3.2 0 0 0-1.85-1.15 78 78 0 0 1-11.16-3.62c-.14-2.1.03-4.1 1.84-5.8q.23-.33.5-.62c13.43 1.5 27.23.96 40.7 1.5 35.27.32 70.42-2.38 105.66-3.38 21.33-.26 42.67-.12 63.8-3.5z"/><path fill="#f2a444" d="m328.83 290.38.05.14c-4.04 2.18-8.1 4.62-12.94 3.24-1.83-.47-3.73-.94-5.33-1.99q-.59-.6-1.3-1.08c1.48-2.55 1.47-7.09 2.61-9.4q.7-2.12 1.61-4.16a9 9 0 0 0 2.83-.74c2.94-.1 6.24-.03 8.8 1.76l.38.16a96 96 0 0 1 3.3 12.07m.99 71.02.76 6.48a10.4 10.4 0 0 1-5.95 1.8c2.13-6.06-2.64-15.01-9.77-13.3-7.58 2.48-8.5 13.24-2.27 17.74a13 13 0 0 1-6.12 1.63c.8-3.05.1-6.56-1.62-9.36l4.1-27.08a16582 16582 0 0 0 5.76-38.23l.07-.45c1.5.29 2.83.44 3.78.44q2.13.07 4.14-.36l4.73 40.39.87 7.42c-2.99 3.86-2.2 9.48 1.5 12.88z"/><path fill="#f2a444" d="M316.66 363.23c1.81 1.27 1.8 3.98.71 5.73-1.95-1.23-2.84-4.22-.7-5.73m20.43 60.3q.02.22.08.43c-1.73 4-4.3 7.52-6.63 11.19-2.85 5.64-5.04 8.56-10.66 8.16a4 4 0 0 0-1.39-.17q-.66-.09-1.37-.25c-4.77-1.18-7.8-5.66-10.86-9.2-2.65-2.98-5.67-5.58-8.25-8.62-.55-.64-1.1-1.4-1.7-2.07l6.05-40.1c6.53.14 13.54-.94 18-6.16 4.07.38 7.8-.12 11.07-1.49l1.01 8.65z"/><path fill="#f25a38" d="M442.67 151.26c.15 4.2.27 8.4.44 12.6-5.28-1.84-11.36-1.98-16.28.2a3.2 3.2 0 0 0-3.44 2.1 15 15 0 0 0-4.17 5.34 17 17 0 0 0-1.7 3.87c-3.39 7.62-3.74 16.66.54 23.87a3.56 3.56 0 0 0 .61 5.17l.3.15a963 963 0 0 1 9.9 29.66c-.79 1.72-1.02 3.7-1.62 5.52-1.86 5.58-4.79 10.75-6.87 16.26-.29.92-.89 2.02-1.53 3.2a10.4 10.4 0 0 0-4.8-1.32c-6.14-2.07-12.68-2.75-18.59-5.56q-.93-.29-1.89-.76l.04-.53c1.63-4.35 3.46-8.62 4.48-13.2q.6-1.92 1.16-3.83c.66-1.28 1.13-2.78 1.62-3.91a201 201 0 0 0 3.62-9.49c7.27-19.72 10.9-40.47 11.44-61.46.32-13.54 1.05-27.16-.34-40.64 1.5 0 3.02-.06 4.48.06 4.5.08 8.77-.55 13.3-.1 3.38.92 5.76-3.7 3.14-6-3.2-1.97-7.5-.9-11.12-1.02-3.9.13-7.8.25-11.75-.11l-.2-.14q1.03-4.85 2.53-9.6a61 61 0 0 1 2.32-6.01l22.83 11.9c.15 3.48.24 6.97.37 10.45l.51 14.23.68 19.09m-31.36-57.24a66 66 0 0 0-2.06 5.6 102 102 0 0 0-2.64 9.97 134 134 0 0 0-2.97 29.14q-.15.02-.29.06a4 4 0 0 0-1.39-.4 10 10 0 0 1-6.18-2.56c.03-1.51-.66-2.53-1.64-3.07-.1-3.54.18-7.1.62-10.58.74-9.28 4.15-18.92 10.41-25.95a2.7 2.7 0 0 0 2.07-1.73c.63-.13 1.27-.29 1.9-.33.64-.12 1.4-.15 2.17-.16zm-17.52 4.64q.77-.55 1.63-1c-5.05 8.31-7.55 18.14-8.05 27.82a61 61 0 0 0 .12 12.35c-1.54-2.43-3.84-5.5-6.07-6.93l.05-.44-.27-.43a3.8 3.8 0 0 0 .43-2.4c.03-1.89.25-3.9.56-6.03 1.28-8.25 4.44-17.87 11.41-22.82l.03.03zm-4.74 134.53q.54.2 1.01.3c-2.72 5.08-5.45 10.16-7.36 15.62-1.36 4.45-2.43 9-3.63 13.5-.29 1.2-.62 2.4-.89 3.64a36 36 0 0 1-3.04-1.23 3.5 3.5 0 0 0-.86-1.4c-1.9-12.2 1.55-25.48 9.7-34.75.62 1.58 2.17 3.16 5.08 4.32m-12.19-11.89q1.32 1 2.7 1.97c-8.86 9.44-13.32 22.89-12.75 35.75a20 20 0 0 1-1.97-2.72 8 8 0 0 0-2.05-2.99 18 18 0 0 1-.2-7.65c1.93-9.06 6.04-18.3 12.55-25.08.54.3 1.14.49 1.72.72m35.9 43.34a81 81 0 0 1-7.09 3.43 58 58 0 0 1-16.47.58q.17-1.03.42-1.84a65 65 0 0 0 2.3-8.42l1.18.55c6.31 2.68 13.04 4.1 19.68 5.7zm-34.31 16.5q.37-.11.78-.42c-.42 2.6-.79 5.3-2.25 6.75q-.86 0-1.7-.07l-.76-.07q.42-2.55 1.01-5.01 1.49-.56 2.93-1.2zM205.2 295.65q-7.64 4.88-15.27 9.8-15.74 10.12-31.5 20.2l-.23-13.57-.16-9.78-.1-5.53c.51-.4.92-.95 1.13-1.69l1.8-1.2 27.45-18.4 16.9 20.16zm-54.2 4.5.41 24.5-6.04-1.97-38.73-12.78q-15.75-5.17-31.49-10.37 3.2-3.9 6.53-7.71c3.15-3.56 6.08-7.24 9.15-10.82l30.5 8.68q9.44 2.67 18.88 5.37c3.6 1.01 7.16 2.07 10.76 3.07l.04 2.05zm.44-29.92c.5 6.97.47 13.95.68 20.93q-3.45-.98-6.89-1.98-8.2-2.32-16.4-4.67-16.48-4.67-32.93-9.36.54-1.03.34-2.05a3 3 0 0 0 .68-1.55l.71-6.06.77-6.59c2.95.7 5.82 1.68 8.74 2.44.08 1.88.23 3.75.22 5.62a3.4 3.4 0 0 0 1.06 2.52 3.6 3.6 0 0 0 3.32 1.2l.14.05.4.11.04.02.12.04.14.04 2.58.77c6.11 1.82 12.24 3.6 18.33 5.45q.56.19 1.13.2a3.7 3.7 0 0 0 2.85 1.05 4 4 0 0 0 1.83-.5c3.21-.44 3.1-4.86 3.42-7.58.03-1.09.3-2.5.47-3.95 2.74.91 5.5 1.82 8.2 2.9z"/><path fill="#f25a38" d="m154.82 248.29-.18.12c-4.87 3.18-9.78 6.31-14.62 9.54l-.29.2a3.6 3.6 0 0 0-1.5 2.19c-2.79 1.56-1.78 6.23-2.43 9.06q-.05.55-.14 1.14c-.68-.22-1.36-.4-2.04-.62q-7.12-2.1-14.26-4.24l26.27-18.7c1.23.2 2.57.16 4.01.52 1.73.2 3.45.5 5.17.8zm-23.72-16.23c2.42.28 4.83.72 7.23 1.15-9.77 7.08-19.58 14.1-29.3 21.25-2.34-.44-4.64-1.15-6.96-1.8 9.63-6.84 19.3-13.63 28.9-20.5zm42.55 12.29 8.38 2.53q-13.55 8.16-27.12 16.27c-1.43-.8-3.28-1.11-4.72-1.71q-.86-.32-1.7-.67c8.38-5.46 16.8-10.91 25.16-16.42m-21.52 122.61.02 1.54q-2.02-.55-4.05-.94c-3.49-.73-6.82-2.26-10.3-2.96-.32-2.92.68-6.42-1.67-7.92-.69-2.22-2.85-3.35-5.02-3.93q.12-.42.21-.87c.64-3.14.28-6.4-.95-9.37-1.67-4.06-4.86-7.31-8.6-9.53l-.22-.13-.3-.18-.28-.13a19 19 0 0 0-2.65-1.22 25 25 0 0 0-10.3-1.49 21 21 0 0 0-9.15 2.9 16.4 16.4 0 0 0-6.58 7.42c-2.46-1.51-6.02-1.38-7.09 2.58-.3.85-.76 1.77-1.1 2.7a255 255 0 0 1-13.79-3.95 6 6 0 0 1-.82-.1l.07-3.7.88-32.35 9.1 3 38.92 12.85c11.03 3.63 22.07 7.22 33.08 10.9l.12 6.98.3 18.31z"/><path fill="#000" d="M354.4 195.3h-.03a22 22 0 0 1-10.64-2.99l-.26-.13a18 18 0 0 1-3-2.15 20 20 0 0 1-3.28-3.5l-.23-.31q-.55-.77-1.06-1.57a21 21 0 0 1-2.97-8.28l-.03-.16a22 22 0 0 1 1.75-12.16 22 22 0 0 1 5.34-7.31q.49-.44 1-.86c2.66-2.2 6-3.75 9.4-4.41h.01a22 22 0 0 1 12.24.96 19 19 0 0 1 2.83 1.3q1.99 1.11 3.72 2.57.27.19.52.4a21 21 0 0 1 4.68 5.99l.36.7q.36.75.68 1.52.51 1.25.85 2.54.78 2.96.73 6.02v.44c-.04 2.25-.49 4.5-1.25 6.63a21 21 0 0 1-1.9 4.04v.02a21 21 0 0 1-3 3.9 21 21 0 0 1-5.16 4 21 21 0 0 1-7.72 2.62h-.11q-1.48.2-2.98.2h-.5zm1.31-7.01q1.06-.09 2.11-.27.9-.21 1.8-.47.9-.33 1.8-.73.94-.48 1.84-1.05a29 29 0 0 0 1.53-1.16 18 18 0 0 0 1.34-1.32q.65-.75 1.22-1.54.3-.45.58-.92l.05-.08v-.01l.38-.67q.44-.9.8-1.82.3-.94.54-1.92.17-.95.3-1.91.04-1.05.02-2.11-.09-1.06-.27-2.11-.21-.96-.5-1.9a22 22 0 0 0-.87-2.06l-.19-.35q-.33-.6-.69-1.16l-.38-.54-.77-1a25 25 0 0 0-1.34-1.36q-.78-.68-1.6-1.26a22 22 0 0 0-1.62-.95q-.92-.45-1.89-.81-.9-.3-1.82-.51a25 25 0 0 0-1.96-.28q-1.1-.06-2.2-.02-1.02.09-2.02.27-.68.15-1.36.35l-.48.14q-.96.34-1.89.78-.85.44-1.66.95l-.54.38-.9.7q-.77.69-1.48 1.43l-.47.56q-.34.42-.67.87l-.05.08q-.56.85-1.05 1.75l-.43.95v.03l-.05.1-.2.48-.02.04-.05.12-.07.18-.32 1.09-.19.75-.03.18q-.13.74-.22 1.48 0 .12-.03.23-.06 1.08-.02 2.16.07.9.22 1.82.25 1.16.61 2.28.36.94.8 1.87.38.69.8 1.38.53.79 1.13 1.53.74.81 1.53 1.56.76.64 1.57 1.2.74.47 1.48.88 1.01.49 2.07.89l.24.08q.67.2 1.35.38 1.09.21 2.2.33h.2a27 27 0 0 0 1.8 0z"/><path fill="#fff" d="M370.01 172.32q.02 1.04-.03 2.12-.1.95-.29 1.9-.24.98-.55 1.92-.36.94-.79 1.83l-.37.66v.01l-.05.08q-.27.46-.58.92-.58.8-1.22 1.55-.21.23-.44.45l-1.02.97q-.7.55-1.4 1.06-.9.56-1.85 1.05-.9.38-1.8.72-.9.28-1.8.47-1.05.2-2.1.28-.9 0-1.8-.03h-.2q-1.11-.12-2.2-.32l-1.35-.39-.24-.06q-1.05-.4-2.07-.9l-1.48-.87q-.8-.6-1.57-1.22-.8-.75-1.53-1.56-.6-.76-1.14-1.53-.41-.7-.79-1.39a28 28 0 0 1-.8-1.86q-.36-1.13-.6-2.28-.15-.92-.23-1.83-.04-1.08.02-2.16l.03-.22q.1-.75.22-1.48l.04-.19.2-.75.31-1.09.07-.18.05-.12.02-.03.2-.48.04-.12v-.01l.44-.97q.48-.9 1.05-1.75l.05-.08.67-.87.46-.56a25 25 0 0 1 1.6-1.52q.38-.32.78-.62l.54-.37q.82-.51 1.66-.96a22 22 0 0 1 1.9-.78l.47-.13q.68-.19 1.36-.35 1-.17 2.02-.28a27 27 0 0 1 2.7.07q.74.1 1.46.24.93.2 1.82.5.96.37 1.9.81.81.45 1.6.95.84.6 1.61 1.27.7.65 1.34 1.37.4.47.77.97l.38.54.7 1.16q.08.19.18.37l.07.12q.45.94.8 1.92.3.96.5 1.9.18 1.04.27 2.12"/><path fill="#000" d="M346.35 134.67a3.53 3.53 0 0 1-3.47-3.5 3.54 3.54 0 0 1 3.5-3.5h.45c6.05-.06 12.11-.2 18.16-.2h.1c1.9 0 3.5 1.6 3.5 3.5a3.54 3.54 0 0 1-3.5 3.5h-.15c-6.18 0-12.37.15-18.56.2zm-.71 12.01a3.56 3.56 0 0 1-3.47-3.55 3.54 3.54 0 0 1 3.54-3.45h.42c.94.03 1.9-.03 2.83-.05l6.52-.09 10.34-.13h.1a3.5 3.5 0 0 1 3.46 3.53 3.54 3.54 0 0 1-3.54 3.47l-10.2.13-6.6.1c-.86 0-1.74.06-2.6.06q-.4 0-.79-.02"/><path fill="#000" d="M344.3 146.12c-1.99-.13-3.83-1.62-4.89-3.17-2.82-3.15-2.2-8.08 0-11.41 2-3.65 9.63-6.08 10.03-.12 0 1.8-1.6 3.25-3.34 3.34-1.27.47-1.66 2.23-1.52 3.46.27.34.53.72.84 1.03a3.6 3.6 0 0 1 2.53 3.53 3.54 3.54 0 0 1-3.57 3.34zm21.37-.37c-2.72-1.16-2.58-5.56.3-6.44 2.71-.12 1.6-3.69-.12-4.52-4.53.17-5.27-6.54-.65-7.11 7.38-.19 12.3 9.94 7.53 15.6-1.28 1.48-3.42 2.75-5.47 2.75a4 4 0 0 1-1.6-.28z"/><path fill="#a26045" d="M365.86 134.8c1.7.83 2.83 4.4.11 4.5l-.27.1-10.2.15-6.53.09c-.86 0-1.73.06-2.59.06q-.43-.3-.95-.45c-.3-.31-.57-.7-.84-1.03-.14-1.23.25-3 1.52-3.46q.32-.01.62-.1c5.81-.05 11.61-.17 17.42-.18q.75.35 1.73.32z"/><path fill="#000" d="M240.9 194.67a22 22 0 0 1-5.7-.87 22 22 0 0 1-9.6-5.54 22.8 22.8 0 0 1-1.74-30.89 24 24 0 0 1 9.12-6.66 23 23 0 0 1 17.68.3l.04.02q.03 0 .05.02c4.66 2 8.48 5.78 10.88 10.2a22.9 22.9 0 0 1 .74 19.74c-2.84 6.55-9 11.78-16.06 13.18-1.75.34-3.47.52-5.25.52h-.18zm1.48-7.02q.94-.08 1.9-.22a25 25 0 0 0 2.26-.6q.88-.3 1.72-.7.9-.45 1.8-1 .75-.51 1.5-1.1.9-.78 1.71-1.65.63-.75 1.21-1.54.53-.8.98-1.63.46-.92.83-1.9.36-1.04.61-2.12.2-.99.3-2 .06-1.05.03-2.12-.08-1.05-.25-2.08-.23-1.09-.56-2.15-.34-.94-.75-1.85-.46-.92-1.02-1.8-.58-.84-1.22-1.62-.64-.72-1.35-1.4-.75-.65-1.57-1.25-.87-.59-1.78-1.1l-.82-.38q-.03 0-.05-.03l-.03-.01q-.43-.19-.88-.36-.97-.33-1.96-.58-1.1-.22-2.2-.34-1.04-.06-2.07-.04-1.17.09-2.33.28-.95.22-1.88.49-.98.34-1.93.78-.94.47-1.83 1.04-.87.6-1.68 1.27-.62.57-1.22 1.18-.67.76-1.28 1.57-.58.86-1.09 1.76-.47.95-.87 1.95-.36 1.04-.62 2.12-.2 1.04-.3 2.09-.07.99-.04 1.99.07 1.04.23 2.06.22 1.05.52 2.09.37 1.04.83 2.04.4.78.85 1.53.56.83 1.18 1.6.68.78 1.4 1.5.9.79 1.86 1.49.73.48 1.5.9.94.47 1.93.87.9.3 1.81.55 1.27.25 2.56.4 1.02.05 2.04 0z"/><path fill="#fff" d="M257.25 171.06q.03 1.06-.04 2.13a22 22 0 0 1-.3 1.99q-.25 1.08-.6 2.13a26 26 0 0 1-.84 1.89q-.45.84-.98 1.63-.58.8-1.2 1.54a22 22 0 0 1-1.73 1.66q-.74.58-1.5 1.1-.88.55-1.79 1-.85.39-1.72.7-1.12.36-2.27.6-.94.15-1.89.22-1.01.03-2.04-.01-1.28-.15-2.56-.4-.9-.24-1.8-.54-.99-.4-1.95-.87l-1.49-.9q-.96-.7-1.86-1.5-.73-.71-1.4-1.48-.6-.79-1.18-1.61-.46-.75-.85-1.54-.45-1-.83-2.04-.3-1.03-.53-2.1-.15-1.02-.23-2.06-.02-.99.03-2 .12-1.04.31-2.08.26-1.07.62-2.12.39-.99.87-1.95.5-.92 1.1-1.76.6-.8 1.27-1.57.6-.61 1.22-1.18.81-.67 1.68-1.28.9-.55 1.83-1.04.94-.44 1.93-.78.93-.29 1.88-.5 1.17-.18 2.33-.28 1.04-.01 2.07.04 1.1.13 2.2.34.99.25 1.96.58a16 16 0 0 1 3.56 1.88q.81.6 1.57 1.26.7.66 1.35 1.39.65.78 1.22 1.62.55.88 1.02 1.8.41.9.75 1.85.33 1.05.56 2.15.17 1.03.25 2.07z"/><path fill="#000" d="M231.63 125.75a3.53 3.53 0 0 1-3.47-3.5 3.54 3.54 0 0 1 3.5-3.5h.45c6.05-.06 12.11-.2 18.16-.2h.1c1.9 0 3.5 1.6 3.5 3.5a3.54 3.54 0 0 1-3.5 3.5h-.15c-6.18 0-12.37.15-18.56.2zm-.71 12.01a3.56 3.56 0 0 1-3.47-3.54 3.54 3.54 0 0 1 3.54-3.47h.05l.37.01c.94.03 1.9-.03 2.83-.04l6.52-.1 10.34-.13h.1a3.5 3.5 0 0 1 3.46 3.53 3.54 3.54 0 0 1-3.54 3.47l-10.2.13-6.6.1c-.86 0-1.74.06-2.6.06q-.4 0-.79-.03"/><path fill="#000" d="M229.57 137.2c-1.98-.13-3.82-1.62-4.88-3.17-2.82-3.15-2.2-8.08 0-11.41 2-3.65 9.63-6.08 10.03-.12 0 1.8-1.6 3.25-3.34 3.34-1.27.47-1.66 2.23-1.52 3.46.27.34.53.72.84 1.03a3.6 3.6 0 0 1 2.53 3.53 3.54 3.54 0 0 1-3.57 3.34zm21.37-.38c-2.72-1.16-2.58-5.56.3-6.44 2.71-.1 1.6-3.67-.12-4.5-4.53.16-5.27-6.55-.65-7.12 7.38-.19 12.3 9.93 7.53 15.6-1.28 1.48-3.42 2.75-5.47 2.75a4 4 0 0 1-1.6-.29z"/><path fill="#a26045" d="M251.14 125.88c1.7.83 2.83 4.4.11 4.5l-.27.1-10.2.15-6.53.09c-.86 0-1.73.06-2.59.06q-.43-.3-.95-.45c-.3-.31-.57-.7-.84-1.03-.14-1.23.25-3 1.52-3.46q.32-.01.62-.1c5.81-.05 11.61-.17 17.42-.18q.75.36 1.73.32z"/><path fill="#000" d="M307.7 200.25a3.53 3.53 0 0 1-3.53-3.47 3.53 3.53 0 0 1 3.47-3.53l10.77-.03h3.16q3.02.02 6.05-.01h.26a3.53 3.53 0 0 1 3.53 3.47 3.54 3.54 0 0 1-3.47 3.53q-3.15.04-6.3.03h-3.17l-10.4.01z"/><path fill="#000" d="M313.17 218.3c-8.39-2.2-16.82-12.04-11.9-20.77 1.88-3.46 9.41-7.28 10.5-1.34.21 5.03-6.07 2.46-4.79 8 .67 2.8 2.94 4.7 5.35 6.07a7.5 7.5 0 0 0 6.71 1.18c3.38-1.69 9.44-6.16 7.67-10.47-2.42-1.69-4.29-4-1.8-6.65 3.26-2.72 7.3 1.56 8.54 4.53 2.4 6.14-1.95 12.03-6.44 15.83-3.84 3.31-8.84 4.94-13.84 3.63"/><path fill="#000" d="M232.96 217.02a84 84 0 0 1 1.92-3.46l.75-1.22a79 79 0 0 1 14.2-17.19 81 81 0 0 1 18.57-12.65 77 77 0 0 1 20.71-6.81c3.72-.66 7.5-1.15 11.27-1.25a79.6 79.6 0 0 1 52.11 16.92 79.5 79.5 0 0 1 21.24 25.5 328 328 0 0 0-4.38 6.98 87 87 0 0 0-2.88-5.69 90 90 0 0 0-4.97-7.6 90 90 0 0 0-5.85-6.9 86 86 0 0 0-7.07-6.44 87 87 0 0 0-7.18-5.05 89 89 0 0 0-9.24-4.8 91 91 0 0 0-8.2-2.98 89 89 0 0 0-9.88-2.19q-5.17-.7-10.39-.78c-3.12.03-6.2.2-9.32.56a89 89 0 0 0-9.26 1.78 89 89 0 0 0-9.14 3.03 90 90 0 0 0-8.37 4.06 94 94 0 0 0-7.55 4.92 86 86 0 0 0-7 5.95 87 87 0 0 0-6.22 6.8 90 90 0 0 0-5.77 8.33l-.07.12a88 88 0 0 0-3.86 7.47 85 85 0 0 0-3.39 9.28 89 89 0 0 0-2.07 9.42q-.13.92-.23 1.84-.36.06-.72.16l-1.8.4-.24.06a2 2 0 0 0-1.57-.02l-1.63.7q-.64.19-1.25.48a80 80 0 0 1 8.73-29.7zM229.58 260l.54-.4q-.53.63-1.29.96z"/><path fill="#000" d="M329.5 200.26a3.6 3.6 0 0 1-1.52-1c-2.03-2-.5-5.73 2.36-5.84 4.9-.66 9.57-2.28 14.33-3.44 4.51-.88 6.01 5.73 1.56 6.81-5.5 1.19-11.1 3.78-16.76 3.46zm-26.97 1.15q-2.81-.58-5.62-1.12l-10.26-2.02L266 194.2l-3.54-.7a3.54 3.54 0 0 1-2.7-4.15 3.54 3.54 0 0 1 4.13-2.7l36.12 7.11c1.31.27 2.62.5 3.93.78 1.87.4 3.1 2.28 2.71 4.15a3.55 3.55 0 0 1-4.14 2.72zm-73.32 46.76c-4.09-3.97 3.5-8.85 5.85-11.8 5-4.92 10.22-9.7 16.28-13.28 12.57-8.12 26.3-14.24 41-17.26 4.12-.44 10.64-3.84 14.1-.88 2.55 3.43-.46 6.5-4.23 5.91-19.3 3.34-37.84 10.69-53.5 22.56-3.86 3.16-7.49 6.6-10.97 10.16-2.35 2.22-4.74 7.47-8.53 4.56zm131.4-17.94a94 94 0 0 0-8.6-7.18 92 92 0 0 0-9.77-6.2 75 75 0 0 0-8-3.74 57 57 0 0 0-5.83-1.86h-.04q-.1-.05-.2-.06c-1.67-.4-2.68-2.3-2.4-3.92.3-1.78 2.16-3.3 4.02-2.87l.46.1.2.05h.03c5.53 1.39 10.78 3.8 15.76 6.53a93 93 0 0 1 21.14 16.02l-.72 1.19a257 257 0 0 0-2.99 5.04q-1.5-1.6-3.07-3.1m-53.73 24.26a37 37 0 0 1-10.14-3.64 22.6 22.6 0 0 1-8.27-7.46 17 17 0 0 1-2.34-5.44 16 16 0 0 1-.26-5.62c.45-3.92 2.67-7.48 5.37-10.28a28 28 0 0 1 9.11-6.03 40 40 0 0 1 10.5-2.8c3.16-.4 6.45-.5 9.63-.12h.13q3.64.4 7.15 1.41a30 30 0 0 1 9.71 4.74c3.1 2.38 5.8 5.4 7.1 9.14a15.7 15.7 0 0 1-.16 11.01 20 20 0 0 1-6.04 8.17 30 30 0 0 1-8.29 4.88l-.59.22a41 41 0 0 1-22.6 1.8zm11.63-6.38q2.19-.25 4.33-.72a33 33 0 0 0 3.67-1.07l.8-.3q1.34-.56 2.64-1.2 1.35-.75 2.62-1.6.96-.73 1.87-1.52.77-.73 1.46-1.53.48-.62.92-1.26.44-.71.8-1.46.27-.62.48-1.28l.23-.94q.1-.7.14-1.4 0-.5-.04-1.01-.07-.55-.18-1.06l-.37-1.22-.5-1.1-.67-1.1a28 28 0 0 0-1.28-1.59q-.73-.73-1.52-1.4a37 37 0 0 0-1.9-1.37q-1.26-.75-2.59-1.4-1.64-.72-3.35-1.28a40 40 0 0 0-4.05-.97 47 47 0 0 0-2.03-.28h-.05l-.09-.01h-.11l-.43-.04-.18-.03-1.39-.08q-2.48-.07-4.97.15-2.25.24-4.45.72-2.16.52-4.24 1.28-1.57.65-3.08 1.43-1.26.7-2.44 1.51-1 .75-1.93 1.59-.7.69-1.35 1.43-.5.62-.94 1.28-.37.63-.7 1.27-.29.66-.5 1.31-.18.63-.3 1.28-.07.54-.1 1.08l.01.94q.1.7.23 1.38l.32 1.03q.26.62.56 1.22.37.65.8 1.25.46.63 1 1.22.68.71 1.42 1.38 1.03.83 2.12 1.53 1.21.74 2.5 1.35 1.66.75 3.4 1.3 2.1.6 4.22 1 2.02.3 4.05.41a49 49 0 0 0 5.14-.12"/><path fill="#000" d="m331.1 245.27-.42-.86a27 27 0 0 0-3.84-5.44 41 41 0 0 0-3.35-3.23 47 47 0 0 0-4.02-3 49 49 0 0 0-5.12-2.87 49 49 0 0 0-5.13-2.03q-2.23-.7-4.54-1.16-2.02-.34-4.06-.47a32 32 0 0 0-3.4.05l-.37.05-.28.03a3.54 3.54 0 0 1-4-2.91 3.5 3.5 0 0 1 2.91-4q.2-.05.41-.06c6.2-.72 12.51.6 18.28 2.8a47 47 0 0 1 16.85 11.06 35 35 0 0 1 5.9 8.03q.3.58.57 1.18a3.54 3.54 0 0 1-1.79 4.62q-.68.29-1.39.28a3.6 3.6 0 0 1-3.23-2.08z"/><path fill="#a26045" d="M326.72 200.99c1.76 4.28-4.3 8.77-7.68 10.44a7.4 7.4 0 0 1-6.7-1.17c-2.42-1.37-4.69-3.26-5.36-6.07-.57-2.47.35-3.32 1.53-3.95l9.96-.03h7.26q.45.41 1 .78"/><path fill="#a63e26" d="M338.42 232.83q.04.5.04 1-.04.7-.14 1.4-.1.48-.23.95-.22.63-.48 1.28-.36.74-.8 1.44l-.68.94a35 35 0 0 0-5.1-6.62 47.4 47.4 0 0 0-21.77-12.66q1.74-.35 3.5-.53 2.49-.22 4.97-.15l1.4.1.17.02.43.03h.11l.1.01h.04l2.04.28q2.05.39 4.05.97 1.7.57 3.36 1.28 1.31.65 2.6 1.4.96.66 1.9 1.38.77.66 1.51 1.4.67.76 1.28 1.59.35.53.67 1.1l.5 1.1q.2.6.37 1.22.1.51.18 1.06z"/><path fill="#d35a59" d="m330.66 244.39-.74.43q-1.3.65-2.64 1.2l-.8.3a33 33 0 0 1-8 1.77q-2.57.2-5.14.13-2.03-.12-4.05-.43a46 46 0 0 1-4.2-.98 45 45 0 0 1-3.42-1.3 33 33 0 0 1-2.49-1.35q-1.09-.72-2.12-1.54-.75-.66-1.43-1.37-.52-.6-1-1.22-.42-.6-.79-1.25-.3-.6-.56-1.2l-.32-1.05a13 13 0 0 1-.23-1.38q-.02-.46-.02-.94l.1-1.09q.13-.63.3-1.27.23-.66.51-1.3.33-.66.7-1.28.45-.66.94-1.28.64-.75 1.35-1.44l.3-.26.31-.03q1.7-.13 3.4-.06 2.04.14 4.06.48 2.3.46 4.54 1.14 2.63.89 5.13 2.03a49 49 0 0 1 5.12 2.88q2.1 1.4 4.02 3a43 43 0 0 1 3.35 3.24 26 26 0 0 1 3.82 5.41"/><g fill="#000" opacity=".24"><path d="M193.03 146.3c-2.34-6.36-14.88-29.29-10.06-34.6-.47-4-2.88-12.37 3.12-12.89-.4-7.6 10.86-5.07 6.95 1.16-.34 8.45.96 17.06 4.92 24.6 1.81 3.69 4.41 6.96 6.17 10.64.68 2.38-1.39 4.64-3.78 4.4q.25.82.27 1.7c0 .93-.4 1.8-1.03 2.44 1.4 4.22-4.78 6.66-6.54 2.56zm26.03-33.2c-1.8-2.77-1.97-6.31-3.07-9.4-.85-3.72 2.87-5.07 5.9-4.07a3.57 3.57 0 0 1 4.34 2c5.36.16 3.75 7.99-.48 8.78-.1 3.35-4.39 5.59-6.68 2.69m146.16 1.86a3.4 3.4 0 0 1-1.27-.94c-2.37-.55-3.19-3.3-2.09-5.36.18-2.05 1.9-3.94 4.1-3.58 5.05-4.48 12.53 3.19 5.34 5.98-1.23 2.16-3.2 5.14-6.07 3.9"/><path d="M373.3 122.02a9 9 0 0 1-.57-1.36 3.7 3.7 0 0 1-2.77-1.7c-8.74-5.78 9.76-28.2 16.6-30.28 3.65-1.42 7.01 3.07 3.98 5.87-.17 1.92-1.96 2.94-3.39 3.95a10 10 0 0 0-4.17 4.83c-2.7 5.08-3.07 10.94-3.06 16.6.18 3.58-4.84 5.32-6.64 2.08z"/><path d="M384.6 137.7c-2.28-.62-5.02-2.62-4.64-5.26-1.16-1.5-2.02-3.45-1.3-5.25-8.03-6.01 2.08-12.7 4.36-5.5 2.64 2.42 6.02 3.84 8.78 6.03 1.94 1.93.83 5.49-1.8 6 .34 2.84-2.82 4.8-5.39 3.99"/><path d="M400.36 140.73a4 4 0 0 1-.36-.85c-2.6-.51-5.76-1.59-6.42-4.5-2.27-1.12-3.08-4.5-1.43-6.47-7.6-1.86-2.34-10.65 3.28-6.34 3.82 1.8 13-.15 14.1 4.16a3.64 3.64 0 0 1-2.73 4.5l.04.1c.42 1 .33 2.06-.14 2.98 5.34 3.47-2.94 11.7-6.35 6.43zm-6.84 117.1c-4.86-2.6.28-7.95 1.08-11.6 3.35-8.26 5.56-16.91 8.32-25.38 6.22-21.6 10.88-43.88 12.16-66.34 1.2-11.34 1.52-22.86-.12-34.17-2.19-6.9 6-9.06 6.87-3a175 175 0 0 1-.03 40.82c-.19 10.44-2.44 20.66-4.16 30.93-2.12 11.01-4.32 22-7.7 32.7a519 519 0 0 0-2.7 8.7l-.19.44q-.51 1.29-.93 2.61a82 82 0 0 0-1.65 5.92 141 141 0 0 1-3.35 9.3c-1.58 2.98-2.3 9.29-6.24 9.29q-.62 0-1.37-.24zm27.7-10.83-.07.13zm0 .18-.15.1zm.04-.42v.05l-.06.22-.06.15-.07.09-.02.03h-.02l-.24.14h-.02q-.08.04-.15.05.37-.34.66-.76z"/><path d="M410.78 261.83c-3.46-.06-6.7-1.73-9.16-4.1-2.6-2.82-9.17-8.85-3.65-11.86-4.98-3.56-1.79-10.94 4.12-7.88-8.37-21.02 9.84-18.5 4.83-10.45q-.02 1.62.24 3.14l-.1.26q-.52 1.3-.94 2.62a82 82 0 0 0-1.57 5.56 16 16 0 0 0-.5 4.97c.05.63.16 1.37.43 1.94.25.51.57.97 1.05 1.31.3.22.6.38.9.57q.15.13.33.25l.32.3c.36.34.72.72 1.12 1a7 7 0 0 0 2.13 1.04q1.29.38 2.6.6 1.3.22 2.6.37 1.42.12 2.84.1l1.32.02q.8 0 1.56-.12a5 5 0 0 0 2.74-1.5 5 5 0 0 0 1.2-2.59l.08-.7c3.65 2.54.84 8.23-3.17 9.75-.68 3.22-4.55 3.77-7.2 2.71-.47 1.6-2.28 2.7-3.95 2.7h-.19zm15.25-20.23c-3.25-.48-3.15-4.44-4.6-6.73-4.65-9.97-13.4-21.27-12.56-32.59q-.04-.2-.06-.43a3.6 3.6 0 0 1 1.26-3.17c-2.5-7.58 7.87-7.89 7.24-.47 1.43 7.38 20.24 31.94 14.5 35.83 1.25 2.2.52 5.39-2.26 5.83a3.5 3.5 0 0 1-3.52 1.73m8.3-38.9c-1.66-.06-2.4-1.53-3.3-2.67-6.26-7.4-7.78-17.28-7.65-26.7-.9-1.37-.49-3.23.3-4.62 1.52-2.64 5.28-1.81 7 .05 1.66 2.9-.16 6.55.35 9.74.41 4.82 2.52 9.28 4.48 13.63.84 2.31 2.62 4.46 2.8 6.93.15 2.13-1.89 3.94-3.99 3.65z"/><path d="M424.25 285.1c-5.44-2.36 3.37-19.12 4.28-23.86-1.37-4.24 2.37-10.14 3.18-14.53 1.9-5.46 1.22-11.36 1.12-17.03-.57-8.34-3.4-16.33-3.96-24.67-.8-3.6 3.4-6.84 6.35-4.11 1.34-1.4 3.85-1.24 5.08.22 1.84 1.6 1.5 4.42 2.43 6.56 2.1 8.81 4.87 17.56 6.03 26.56.47 14.4-7.66 27.4-14.22 39.69-2.62 3.24-4.82 13.97-10.28 11.18"/><path d="M429.41 303.02c-1.48-4.1-1.24-8.56-2.1-12.78-3.5-.8-2.9-5.23-3.5-7.99-.38-3.71-1.45-8.69 1.8-11.42a3.6 3.6 0 0 1 2-1.91 59 59 0 0 1-.42-4.62 3.4 3.4 0 0 1 2.1-3.19c.04-2.53 3.1-4.23 5.26-2.87 2.1 1.44 2.26 4.3 2.8 6.55a234 234 0 0 0 3.54 12.76c.76 4.63 9.3 21.25-.36 20.02.05 1.55-.58 3-1.99 3.75q-1.16.63-2.33.4c-.04 3.66-5.48 4.74-6.8 1.3"/><path d="M438.61 290.95c.38-2.37.1-4.37-1.33-6.37a63 63 0 0 1-4.35-11.7 121 121 0 0 1-3.36-17.57 3.55 3.55 0 0 1 2.7-3.9c-.64-10.62 11.35-7.46 7.07-1.04-.63 8.55 1.51 16.97 3.74 25.16.96 3.19 1.72 6.43 2.6 9.65.4.87.4 1.86.08 2.7.44 2.43-.13 5.62-3 6.02-1.92.45-3.9-1.02-4.16-2.96zm-73.27-54.77c-2.75-2.72-4.98-9.59.77-9.89a3.6 3.6 0 0 1 1.01-1.55 3.6 3.6 0 0 1 3.3-.92c-.56-2.31 1.34-4.76 3.78-4.45-.66-3.69 4.64-5.62 6.48-2.31 3.17 4.06 3.75 13.1-3.17 13.1a7 7 0 0 1-.9 2.56 4 4 0 0 1-2.36 1.84c.3 6.63-6 6.59-8.9 1.62"/><path d="M382.34 249.47c-2.84-.7-11.32-8.82-11.1-11.81-.02-2.7 3.17-4.47 5.42-2.94-1.38-2.3.38-5.5 3.11-5.35-1.66-4.69 5.14-7.03 6.7-2.31 1.57-2.85 6.07-1.94 6.48 1.28.68 3.4 1.23 8.34-2.88 9.72 1.07 2.7.5 6.53-2.76 7.2 0 2.5-2.39 4.92-4.98 4.2zm5.33 22.59c-.39-4.44 1.68-9.38 2.47-13.81 1.07-2.7 5.15-2.84 6.36-.19a3.6 3.6 0 0 1 6.15 1.37c1.74-1.72 5.02-1.33 6.07.94 4.1-3.56 7.2.92 7.03 5.1.47 2.88-3.05 5.08-5.4 3.36-1.97 2.44-6 5.12-8.43 1.8-1.46 1.36-3.44 2.38-5.4 1.47q-.45-.23-.86-.54c-1.64 3-6.72 4.64-8 .5zm28.83-13.31c-4.5-2.42-.48-8.16.61-11.62 1.82-3.9 3.46-7.91 4.36-12.14.74-2.93.1-7.09 3.3-8.62 2.74-1.22 6 1.57 4.91 4.45 3.22 2.27.43 6.14-.77 8.8-.14 4.44-2.54 8.7-4.46 12.66-1.6 3-3.7 7.97-7.94 6.47"/><path d="M392.11 296.9c-10.36.03-22.32-4.64-30.48-10.97-4.66-4.44-7.87-10.29-10.2-16.22-1.05-4.37-8.99-21.55-1.14-21.8 3.6.03 3.45 3.8 3.88 6.4 2.35 9.6 5.01 18.79 11.73 26.07 11.83 9.04 28.64 12.48 42.82 7.43 3.76-.8 7.57-5.32 11.43-3.1 4.86 5.28-3.78 7.04-7.2 8.98a43 43 0 0 1-20.85 3.2z"/><path d="M365.04 284.05c-5.94-7-15-22.5-14.24-31.72 1.12-3 5.9-2.7 6.6.43.37 1.58.72 3.18 1.21 4.72 6.72-3.48 6.5 7.98 8.48 11.78.97 2.3 1.42 4.93 2.84 6.98a3.6 3.6 0 0 1 .93 4.66c.34 2.84-3.52 5.08-5.83 3.14zm21.5 6.62-.04-.1c-2.47.99-5.22-1.12-4.84-3.75.21-1.57 1.2-3.03 1.95-4.42 1.31-1.92 1.95-5.1 4.6-5.5a3.8 3.8 0 0 1 5.31.98c1.56-2.21 5.18-2.21 6.63.12 1.56-2.9 5.46-5.25 8-2.06 1.14-2.25 3.98-4.15 6.37-2.55 6.82-1.77 5.15 6.04 3.64 9.92-.93 2.38-1.76 5.05-3.76 6.75-1.99 1.56-5.1.94-5.9-1.56-1.55 3.15-6.49 6.02-8.47 1.75a4.6 4.6 0 0 1-2.6 1.62 3.5 3.5 0 0 1-3.5-1.02c-1.68 2.82-6.1 3.19-7.4-.2z"/><path d="M422.78 448.13a3.9 3.9 0 0 1-2.83-1.99c-4.78.47-6.6-4.53-3.75-8a83 83 0 0 0 7.64-15.97c6.4-19.75 2.77-40.9-.62-60.9-3.78-21.12-9.98-41.78-14.12-62.71a94 94 0 0 0-2.29-9.25c-.84-1.69-1.4-3.81.16-5.29 1.76-1.82 5.01-.96 6.03 1.23 5.73-2.48 7.6 5.51 8.63 9.56 2.56 9.56 4.2 19.3 5.9 29.04 3.17 1.9 3.03 10.15 4.3 13.75 3.38 14.4 4 29.15 4.14 43.83 3.13.65 2.93 4.24 3.05 6.75.18 5.81.13 11.64.14 17.46-.08 6.37-.05 12.88-2.09 18.99-1.35 5.43-1.83 11.77-6.23 15.73-1.7 3.13-3.92 7.95-8.07 7.78z"/><path d="M412.2 304.58a49 49 0 0 0-11.02-11.23c-6.84-2.86-.93-10.9 3.8-5.88 4.01 3.04 13.05 10.42 13.46 15.45-.28 2.96-4.52 4.13-6.24 1.66m-83.36 149.8c-3.12-.53-7.8 1.04-9.6-2.28a3.6 3.6 0 0 1 1.3-4.42 3.53 3.53 0 0 1 3.26-4.49c6.08-.24 12.16-.58 18.24-.56 15.36-.94 30.31-1.1 45.5-3.58 9.34-1 18.61-2.56 27.9-3.95 4.52.06 8.15-2.81 12.31-4.1 6.3-.74 4.35 10.04-1.2 8.04l-1.83.84-.1.06c-1.42 7.8-45.52 8.73-54.39 10.12-.78 5.08-10.72 2.75-14.63 3.6-8.92.5-17.89-.14-26.75.7z"/><path d="M390.83 445.96c-2.66-1.32-2.27-5.7.65-6.44 3.86-.95 7.76-1.69 11.68-2.34 5.8-.67 11.45-2.23 16.1-5.88 3.96-2.8 7.7-6.06 9.1-10.8 1.8-2.6 6.01-1.43 6.4 1.64.04 2.76-1.76 5.38-3.34 7.55 2.83.98 2.96 5.25.2 6.43-5.92 2.81-12 5.36-18.49 6.44-6.5 1.45-13.09 2.44-19.64 3.67-.9.21-1.83.19-2.68-.28zM283.96 459.8c-21.1-2.12-42.4-.56-63.57-.76a607 607 0 0 1-33.06.26c-4.58-.6-9.82 1.01-14.03-.94-5.34-.54-10.76-.81-16-2.03-4.28-1.33-8-4-12.1-5.82-2.92-.62-8.1-.16-7.95-4.38-3.58-.25-8.5-2.36-5.43-6.53-3.4-1.15-8.49-4.34-4.4-7.97a3.6 3.6 0 0 1 .85-2.86c-1.33-6.4-1.92-13.12.02-19.6.68-7.38 1.48-14.68 3.64-21.81.43-2.4-.32-5.2 1.6-7.09a55 55 0 0 0 8.43-5.92c4.14-3.7 12.97-5.48 12.92 2.41.52 4.5-1.44 9.1-2.13 13.28-2.58 15.17-8.96 36.28 5.62 47.17 16.24 6.27 34.26 4.97 51.31 6.25l-.2-.01c28.32-.34 56.61.82 84.93 1.15 5.27 0 10.58.25 15.85-.1 3.48-1.44 7.98.58 6.12 4.76 3 4.2-1.88 6.43-5.59 6.17-6.26.97-12.48 2.26-18.8 2.71-1.56 2.85-5.37 1.73-8.02 1.66m44.03-7.93a3.6 3.6 0 0 1 .31-2.45c.32-.6.8-1.12 1.3-1.57a3.5 3.5 0 0 1-.27-3.69c1-1.84 2.23-3.56 3.37-5.31.07-3.12 3.3-5.53 4.96-7.95 1.53-2.17 2.68-5.13 5.32-6.13l-.06-2.17-.04-1.86c-.73-1.12-.75-2.55-.94-3.84-1.09-1.21-.99-2.96-1.15-4.48a450 450 0 0 1-2.35-20.37c-1.66-15.44-3-30.93-5.25-46.3-1.2-17.56-6.74-34.87-5.93-52.55-.35-5.07 7.21-5.69 7.2-.35a3.5 3.5 0 0 1 .82 4.25 429 429 0 0 1 7.2 58.6c2.15 13.47 2.95 27.1 4.38 40.67 1.4 9.83 3.52 19.52 3.16 29.55.71 5.65-.62 11.12-4.25 15.58-2.43 3.56-5.6 6.43-8.63 9.43-2.39 2.88-7.4 6.34-9.16.94z"/><path d="M332.27 305.46c-3.2-.13-4.37-4.72-1.7-6.46-1.46-4.15 3.65-5.54 6.56-6.7 6.1-2.37 12.3-4.49 18.47-6.67-.15-4.56 5.34-3.76 8.44-4.44 3.76-.6 11.96-3.38 10.92 3.31 3.1.45 4.03 4.75 1.36 6.44-7.1 3.32-14.45 5.56-21.84 8.16-7.38 2.01-14.58 5.63-22.2 6.36m.86-20.66c-3-.19-4.36-4.3-1.95-6.17 5.94-2.19 12.18-3.96 18.1-6.43 1.3-2.47 4.67-2.88 7.02-4 2.38-.84 5.27-2 7.42-.02a3.5 3.5 0 0 1 .2 4.94c-4.34 3.2-9.86 4.51-14.78 6.63-5.29 1.7-10.47 4.5-16 5.06m-22.71-24.66a480 480 0 0 1-27.19-4.24c-2.39.09-5.62.61-6.5-2.3a3.5 3.5 0 0 1 1.43-4.03c11.95-4.33 25-.73 37.38-1.64 4.82-.31 9.58-1.16 14.35-1.88 2.44-.47 4.74 1.93 4 4.34a61 61 0 0 0 7.06-1.96c1.23-2.2 4.9-2.95 7.01-1.62 2.7 1.94 1.28 5.75-1.46 6.84-11.3 4.66-23.9 6.59-36.09 6.5z"/><path d="M346.52 247.18c-3.94.07-4.29-4.44-2.9-7.2-3.67-3.26.01-8.73.62-12.7-2.6-.12-4.1-2.99-3.49-5.37q-.54.04-1.1-.1a4.2 4.2 0 0 1-2.47-1.72c-2.4 2.13-6.73 1.07-7-2.38-7.97 1-4.5-13.55 2-9.6 2.18-2.89 7.06-1.46 6.97 2.27a4.1 4.1 0 0 1 3.82 2.28l.11.25c2.93-.98 5.8 1.84 5.47 4.78 2.17 0 3.94 2.02 3.93 4.15 2.43-.37 4.34 1.94 4 4.28 2.56-1.13 5.22 1.42 5 4.03 5.52.48 3.45 7.25.05 9.13-2.3 3.09-6.36 9.4-10.34 4.9-1.15 1.48-2.59 3.16-4.65 3z"/><path d="M360.1 224.39c-3.79 3.58-8.67-.64-6.87-5.17-5.19 2.53-7.2-2.8-5.3-7.01-2.08 2.05-5.83 1.13-6.28-1.87-2.54 3.23-8.58 4.84-9.2-.65-2.67 2.07-6.46-.63-5.74-3.82.64-2.12 2.1-3.9 3.13-5.84 2.1-3.16 5.15-11.37 9.72-6.6l.65-.6c2.17-2.89 7.26-2.82 7.81 1.28a3.7 3.7 0 0 1 4.5 2.07c4.81-2.87 7.64 2.35 5.81 6.64 4.85-1.44 5.96 4.09 4.6 7.62 3.6-.69 5.38 3.43 4.33 6.43 3.93 1 3.52 7.75-.8 7.64-1.74 1.74-4.8 1.94-6.38-.12zm-117.33 24.99a3.6 3.6 0 0 1-1.52-1.62c-3.2 4.33-10.13.48-6.4-4.07-.94-2.87 2.33-4.66 3.94-6.4q3.88-3.5 7.72-7.05c3.47-2.43 8.03-8.83 12.23-8.69 2.33-2.08 5.44-6.46 8.75-3.47a67 67 0 0 1 4.02-4.25c1.12-1.07 3.02-1.04 4.24-.2 1.93-2.34 4.76-6.72 8.08-3.8 1.51-1.68 4.32-1.57 5.57.38.43-.53.9-1.06 1.41-1.49a3.6 3.6 0 0 1 3.57-.56c1.37-2.59 4.9-4.3 6.92-1.41a3.5 3.5 0 0 1 2.11.1c2.68-1.57 6.26 1.34 5.03 4.3-.9 1.72-1.72 4.09-3.94 4.3-2.9 2.3-5.33 7.1-9.33 7.1a89 89 0 0 1-4.48 3.98l-1.24 1.78c2.47 1.04 2.6 4.16.96 5.98 2.34 1.13 2.11 3.77 1.94 5.9.45 3.32-3.7 6.3-6.38 3.8-1.79 1.64-4.92 2.13-6.44-.12h-.05c-.9.06-1.83-.03-2.58-.59-4 .47-11.99 5.37-14.8 1.62-1.72 1.56-4.52 3.19-6.7 1.6-1.43 1.07-3.44 1.4-4.96.34-2.03 1.91-4.83 4.34-7.67 2.51z"/><path d="M301.15 250.2a15 15 0 0 1-1.99-2.88c-1.99 1.56-5.1.28-5.53-2.19-.42-2.26.38-4.59.76-6.82-.99 4.7-7.9 3.7-7.06-1.15 1.25-3.44 2.66-6.87 3.5-10.47-1.49-2.7 1.21-5.72 4.06-5.19 1.32-3.16 5.83-5.38 7.8-1.56 1.05-1.97 2.83-4.34 5.35-3.53 3.03-2.8 8.2-.25 6.27 3.88-3.4 4.03-5.4 8.96-6.53 14.06-.87 3.99-1.47 8.14-.74 12.19 1.64 3.56-3.38 6.7-5.89 3.65m82.93-38.79c-1.89-1.77-.84-4.5-.95-6.77.17-8.06.47-16.12.4-24.2a142 142 0 0 0-1.87-18.44c-1.82-5.17-2.49-10.56-3.56-15.9-2-7.65-8.64-13.12-10.17-20.72.78-4.3 5.46-3.98 7.36-.5 1.71 2.24 5.63 3.54 3.5 7.07 4.83 6.85 6.93 14.38 7.96 22.55 2.98 9.13 3.7 18.92 3.7 28.5.27 7.72-.32 15.42-.38 23.16-.02.84-.1 1.66-.13 2.5.32 3.01-3.76 4.88-5.87 2.75zm-183.77 29.98c-1.83-1.8-2.43-4.53-3.4-6.84-1.97 1.67-5.17.43-5.6-2.1-1.24-5.76-2.32-11.59-2.59-17.48-.67-14.62.72-29.3 3.14-43.72.84-4.87 2.01-9.66 3-14.49-.1-2.68 2.9-4.72 5.27-3.26.75-4.84 1.82-9.6 2.83-14.39.98-3.35.8-7.53 3.3-10.2 3.42-3 8.36 1.84 5 5.13-2.3 10.2-4.65 20.44-5.4 30.9-1.26 10.91.01 22.63-.46 33.41.24 9.97.04 19.73.34 29.57-.07 3.94 1.04 7.97.4 11.85-.78 2.43-3.92 3.36-5.83 1.6z"/><path d="M218.92 245.64c-7.18-.34-14.69-1.61-20.66-5.86-3.03-1.81-3.78-6.84 0-8.22-2.99-4.87-4.75-10.53-5.67-16.15-.27-6.87 10.01-3.98 7.45 1.72 1.38 5.22 3.04 10.81 7.48 14.27 4.7 3.56 11.22 6.8 17.14 5.98 4.74-1.5 6.33 6.15 2.03 7.53-2.5.7-5.19.72-7.78.72z"/><path d="M225.34 242.02c-11.03-.87-25.83-4.27-29.59-16.12-.92-6.43 9.66-6.56 7.5.03 5.35 6.78 14.54 8.47 22.7 9.11 4.53.46 3.93 7.34-.62 6.97zm-18.58 50.72c-3.96-3.74-5.53-9.5-8.2-14.16-6.97-4.01-2.42-13.87 3.85-7.37 1.62-2.81 5.87-1.75 7 .98 1.21-3.31 6.28-3.13 6.95.43.18 2.78 1.34 6.88-1.26 8.8-.45 2.64-.05 6.06-2.58 7.71.23 2.99-3.15 5.47-5.75 3.6"/><path d="M301.43 303.83h-.04q-.06 0-.1-.03-17-3.4-33.99-6.84l-41.89-8.41-5.09-1.04-.09-.01-3.34-.68a3.5 3.5 0 0 1-2.66-4.17 3.53 3.53 0 0 1 4.17-2.65l40.9 8.21q19.95 4.04 39.91 8.04l3.6.71.1.03h.02a3.5 3.5 0 0 1 2.66 4.16 3.5 3.5 0 0 1-4.17 2.67z"/><path d="M315.58 301.2q-3.57-.4-7.14-.93c-5.97 2.06-12.15-.85-17.76-2.81-10.83-2.15-21.74-3.61-32.58-5.54-13.1-4.22-26.53-6.97-40.03-9.57-3.27-1.1-2.86-6.29.58-6.8a38 38 0 0 1 7.35-.18c7.73.23 15.06 2.77 22.26 5.37 8.02 2.84 16.35 4.9 24.75 6.15 6.64.56 13.37 1.2 19.58 3.78q7.23 1.19 14.48 2.33a3.6 3.6 0 0 1 3 .44q3.04.42 6.11.76c4.51.47 3.96 7.35-.6 6.99m-8.96-17.26c-7.89-1.07-15.99-.9-23.77-2.75-9.64-2.3-19.4-4.07-29.07-6.4-8.57-2.02-17.28-3.17-25.96-4.6-6.62-1.42-13.13-3.24-19.9-3.8-12.1-1.21-3.15-13.94 1.51-6.85 8.42.6 16.41 3.48 24.75 4.63 18.08 2.5 35.75 7.25 53.6 10.9 5.64.78 11.34 1.08 17.01 1.62 2.84-.02 6.77.98 6 4.62a3.55 3.55 0 0 1-4.19 2.64z"/><path d="M204.96 267.33c-2.2-.15-3.63-2.44-3.2-4.53a3.5 3.5 0 0 1-2.57-.92 3.6 3.6 0 0 1-1.07-3.25c-4.55-4.5 4.47-8.84 7.41-11.37 3.27-2.42 10.33-4.3 11.21 1.37 3.7-.87 8.87-6.26 11.91-1.85q.18-.04.37-.06c5.52-7 10.9 6.1 2.32 6.7-4.87.9-10.33 1.09-14.49 3.97-4.3 2.22-7.47 10.42-11.89 9.94"/><path d="M221.48 270.56c-2.15-.48-2.88-2.76-3.52-4.6-1.38 2.8-5.72 2.67-6.8-.3-1.14 2.42-3.02 5.76-6.19 4.1a3.53 3.53 0 0 1-1.46-4.72c2.85-4.44 7.36-16.37 14.1-13.44 1.23-2.8 4.94-5.13 7.16-1.95 2.92-2 6.17-3.94 9.7-4.59 3.02-.25 4.85 3.7 2.74 5.88-3.46 2.25-8.08 2.93-10.62 6.62-1.97 2.18-2 5.4-1.17 8.07 1.26 2.54-1.19 5.63-3.94 4.92m-8.38 44.75c-1.35-.28-2.09-1.43-2.84-2.44-5.96-4.97 5.98-9.64 8.14-13.77 3.03-3.55 4.06-8.27 5.25-12.68-.59-2.42.56-5.66 3.31-6.01a3.6 3.6 0 0 1 3.51-.48c.75-3.31 5.82-3.51 6.75-.22.76 4.93-1.35 9.96-3.3 14.4-2.37 4.84-6.07 8.9-10.15 12.36-2.74 3.24-5.74 9.49-10.68 8.85z"/><path d="M211.23 346.33c-.9-7.12 1.2-14.37 1.02-21.56.2-7.07.46-14.16 1.04-21.21a3.55 3.55 0 0 1 3.18-3.2c.18-2.48 3.11-3.75 5.2-2.67 4.52.57 2.95 5.88 2.8 9.02q-.57 6.3-1.25 12.55c-.64 7.74-.89 15.53-2.04 23.22-.6 2.37-.7 5.8-3.85 5.98-1.89 2.34-6.04.89-6.09-2.14"/><path d="M141.65 396.55c-.62-1.3-.35-2.8.6-3.87.46-.55 1.06-1 1.64-1.44.07-4.3 5.22-6.14 7.95-8.78-4.34-4.32 2.74-8.82 5.68-11.6a284 284 0 0 1 14-10.81c.6-2.19 2.54-3.69 4-5.3-7.08-4.96 3.5-12.7 7.28-16.29l4.57-3.8c2.47-2.17 6.52.35 5.64 3.52 3.13-1.7 8.3-6.58 11.04-1.94 3.35-3.3 8.84-.5 6.32 3.99-2.15 2.62-5.18 4.35-7.8 6.47 4.2-1.9 19.07-11.88 17.63-1.08 3.83 5.77-10.96 11.58-14.43 14.86l.03-.03q.16-.1.28-.2c-12.5 9.85-25.79 18.58-39.4 26.82a262 262 0 0 1-15.45 8.8c-2.87 1.43-7.4 4.75-9.57.68"/><path d="M282.73 400.92a11 11 0 0 1-2.87-1.37c-6.72 2.07-14.87.75-20.94-2.67-7.46 2.51-17.89.7-20.83-7.5-8.05.23-17.78-4.94-17.42-14-12.7-4.62-12.34-17.5-9.87-28.6.78-4.3 7.26-3.5 6.94.9-1.18 7.15-3.82 17.34 4.75 20.9 8.17-12.78 20.85 6.27 5.23 8 1 4.1 5.7 5.46 9.42 5.78-.02-5.1 5.53-11.06 10.32-6.97 3.61 3.7 2.1 10.03-2.52 12.1 1.78 3.72 6.88 3.63 10.41 3.18-1.16-15.69 17.33-9.28 9.87 1.51 3.44.92 7.08 1.6 10.65 1.22-1.69-11.1 14.26-9.86 9.44.98 13.16-1.75 5.66-9.33 12.72-9.75 3.75.38 3.52 4.67 2.42 7.33-2.08 6.56-11.32 10.48-17.73 8.96z"/><path d="M297.74 388.06c-2.02-2.05-4.53-6.12-2.1-8.75 1.45-1.62 3.87-1.3 5.45-.06a3.6 3.6 0 0 1 2.27-1 3.5 3.5 0 0 1 3.26 1.88 40 40 0 0 0 9.66-4.21c.24-.85.25-1.73.41-2.56.63-3.38 5.83-3.63 6.74-.3 1.86 2.79 1.6 5.55-1.37 7.44-3.9 8.88-16.5 15.98-24.32 7.55"/><path d="M322.85 382.93c-3.1-.8-6.4-1.94-8.75-4.2-2.47-2.37-.85-6.6 2.6-6.58 2.43-.34 5.53.35 5.64 3.31 6.21 2.7 13.68 1.2 17.3-4.84-2.05-6.3 7.04-6.77 7.13-.44-1.32 10.25-14.67 15.93-23.9 12.75z"/><path d="M347.17 374.22c-20.83-7.06-1.96-17.75-1.24-8.03 4.4 3.22 10.02-.41 11.83-4.84-16.17-1.82-4.24-25.66 5.86-10.74a39 39 0 0 0 4.42-12.34c-16.27-2.56-4.46-23.8 5.07-9.26 2.35-3.38 4.28-8.01 3.25-12.15-8.39-.31-5.12-13.68 2.2-10.17 1.67-4.47 1.55-9.34 1.46-14.04a3.55 3.55 0 0 1 3.32-3.67c1.86-.1 3.64 1.4 3.67 3.32.12 7.16.24 15.28-4.35 21.22 2.82 7.95-.78 17.98-7.42 22.99-.8 7.98-3.46 16.93-9.7 22.3-.67 8.84-9.25 17.22-18.37 15.42zm10.48-19.9c-.24-.38-.48-.8-.8-1.12q-.14.65.4 1.05zm-46.42-46.62a3.6 3.6 0 0 1-1.84-2.71c-3.36-3 .74-8.24 4.54-6.55 4.27-.05 9.1-.33 12.94 1.75 2.4 1.68 1.68 5.48-1.1 6.3-2.99.49-6.07.48-8.9.99-1.9.06-3.85 1.16-5.65.23zM44.08 341.22c-6.23-1.02-37.48-11.74-30.48-20.43 3.6-2.62 5.3 1.07 7.58 3.07 6.51 5.06 14.52 7.6 22.26 10.1 4.98.68 11.12.84 15.5-1.82 3.74-2.52 7.63 3.4 3.81 5.86-5.22 3.74-12.5 3.4-18.68 3.2z"/><path d="M47.17 339.14c-1.2-1.77-.1-3.68.46-5.45 1.64-9.36 2.21-18.93 3.1-28.37.07-6.18.03-8.67 5.82-11.75 7.3-5.82 13.18-13.12 19.44-19.99 5.06-6.16 5.3-14.85 5.93-22.48.03-3.25 3.13-4.5 5.6-5.78a361 361 0 0 0 20.26-12.9c5.1-4.24 10.3-8.57 16.26-11.51 3.03-1.8 5.45.9 8.06 2.12 3.48 1.73 7.71.6 11.11 2.37 2.56 1.56 1.61 5.85-1.3 6.31-5.4-.43-11.2-.84-15.84-4-12.46 8.23-23.87 18.01-37.26 24.9-.5 7.87-1.34 16.57-5.8 23.27-7.58 9.01-15.23 18.5-25.04 25.18-.46 9.27-1.65 18.51-2.46 27.79-.33 4.25-2.1 16.38-8.35 10.3z"/><path d="M163.6 244.96c-3.1-.72-6.57-.89-9.39-2.44-6.78-.39-7.83-4.24-7.03-10.2-4.07-1.5-8.37-2.3-12.66-2.9-3.89 2.34-9.6-3.21-5.16-6.4 5.81-2.06 12.55.81 18.37 2.07 5.85 1.38 7.16 4.75 6.32 10.38 8.4.78 16.84.22 25.23-.35a3.5 3.5 0 0 1 3.65.63c2.77 2.56.1 6.62-3.29 6.35-1.8 6.06-11.38 3.25-16.04 2.84z"/><path d="M163.1 246c-14.46-6.19-12.8-1.63-11.8-18.09 1.21-17.44 1.32-35.03 3.58-52.41.77-5.06 3.81-9.81.71-14.62-4.98-12.44-2.82-26.34 3.9-37.67 4.7-10.3 12.65-18.44 21.3-25.53 2.86-2.07 5.67-5.23 9.41-5.36 5.7.24 5.74 8.5-.29 7.28-7.68 5.59-15.14 12.06-20.4 20.04a3.5 3.5 0 0 1 2.9 3.67c-.4 7.54-1.9 15.16-1.88 22.66q.87.1 1.6.56c.3-.57.8-1.03 1.26-1.47q.18-.18.4-.31c.4-1.66.46-3.66 1.81-4.87 2.05-1.88 5.7-.35 5.77 2.43q.19 3.04-.2 6.06c1.78.84 3.92 2.59 3.77 4.75-.86 8.6-1.84 17.19-2.68 25.78-1.59 15.85-1.97 31.84-4.59 47.57-1.08 3.97-.85 14.07-7.34 10.97-1.12 3.49-2.53 9.22-7.23 8.55"/><path d="M145.11 233.7c-10.28-5.73-.8-13.7 2.54-6.85l.22.18.84.63c7.8 1.66 3.13 11.75-3.6 6.05zM70.26 433.1a67.5 67.5 0 0 1-33.35-10.05 4 4 0 0 1-2.04-.26c-1.4 2.7-5.7 4.2-7.32.86-1.38-2.75-.49-5.94-.4-8.88q-.73-.93-1.36-1.9c-3.19-1.44-2.68-5.51-2.4-8.4-1.8.03-3.3-1.46-3.53-3.2a3.5 3.5 0 0 1-2.89-2.83 3.96 3.96 0 0 1-4.36-2 5 5 0 0 1-.44-1.83c-8.32 2.25-4.65-10.66-4.86-15.18 1.48-14.7 2.65-29.55 5.6-44.06-3.3-1.08-3.35-6.37.3-7 2.64-.4 5.42.75 7.7 2.05 7.08 1.8 14.2 3.62 20.86 6.6q.56-.14 1.13-.12.75.07 1.38.4c.67-.59 1.57-.9 2.46-.87.54-1.95 1.08-3.93 2.26-5.6a3.5 3.5 0 0 1 2.65-1.5l.46-2.76c-2.92-2.37-1.23-6.62-.82-9.75-1.62-3.53 1.95-6.52 3.23-9.56 1.22-3.75.2-11.15 5.53-11.45 2.48-3.7 4.4-9.96 9.52-10.29 2.86-3.69 5.27-7.67 7.73-11.63.9-1.44 1.84-3.18 3.54-3.75 6.25-6.6 4.93-17.6 11.31-24.36 2.84-2.43 7.02.88 5.45 4.22 3.18 1.76 1.54 6.7-2.02 6.6-1.73 5.73-3.46 11.45-5.76 17-.3 1.67-.53 3.69-2.08 4.67-2.16 3.4-4.8 12.2-10.08 8.6q-6.9 10.66-13.37 21.58c.44.55.72 1.2.72 1.93v1.2c4.4 2.06 1.77 9.27 2.08 13.2a878 878 0 0 1-2 26.62 5.3 5.3 0 0 1 2.5 5.02c2.41-2.6 7.45-.8 6.94 2.96a3.5 3.5 0 0 1 4.14.88c2.17-3.18 7.77-1.13 6.92 2.78 1.91-2.6 6.25-1.27 6.33 1.96.86-2.51 4.02-4.4 6.44-2.76 2.51 1.71 1.22 5.1.74 7.53 1.51-3.15 5.7-4.41 7.38-.7 2.27-2.08 6.52-1.2 6.58 2.25a3.7 3.7 0 0 1 6.63 2.62c6.83 1.01 1.54 9.4.5 13.32a343 343 0 0 1-6.56 16.44c-2.99 6.95-6.09 13.9-9.78 20.51-4.07 8.85-11.07 8.23-17.26 1.78a4 4 0 0 1-2.32-.92c-1.68 2.56-5.47 5.95-8.14 2.54q-.43.42-.94.7c.96 2.84-2.19 5.38-4.95 4.8zm25.42-9.2c.73-.73 1.25-1.67 1.77-2.56l-.06-.13q-.6.53-1.3.96c-.77.46-1.73.65-2.62.5.68.5 1.4 1 2.21 1.22m-41.32-.5v-.02a3.4 3.4 0 0 1-2.4-1.9l-.1-.25-.37.33q-.37.32-.77.54 1.8.7 3.65 1.3m-9.8-4.08v-1.08q-.4.36-.87.63z"/><path d="M109.23 359.68c-5.58-1.38-13.42-4.81-13.12-11.58-2.84-1.98-4.44-7.05-.14-8.3 2.57-.76 3.77 1.7 5.04 3.31 2.98 2.7 6.5 4.88 10.44 5.78 4.7 1.6 9.51 1.03 14.27.05a3.5 3.5 0 0 1 3.73 2.7c.71 3.23-2.53 4.4-5.09 4.78.74 6.97-11.09 3.6-15.13 3.26"/><path d="M84.5 349.34a36 36 0 0 1-15.16-4.14c-3.75.44-6.39-4.43-3.02-6.76-3.66-2.08-2.86-7.99 1.85-7.29a3.5 3.5 0 0 1 2.38 1.68 39 39 0 0 0 7.91 4.73c5.13 2.23 11.51-.75 16.42 2 4.1 5.17-2.44 7.13-6.77 6.71-.22 1.75-1.83 3.2-3.6 3.06"/><path d="M132.32 359.76c-3.12-.51-3.07-3.97-2.53-6.21.27-2.67.38-5.37-.06-8.01-1.29-10.31-13.8-15.99-23.2-14.03-3.96.31-6.98 2.75-9.84 5.28-3.28 2.6-6.86 4.8-10.39 7.02-1.17 3.18-6.4 2.92-7.12-.49-1.33-4.9 10.67-9 13.83-12.53 4.28-4.33 10-6.35 16-6.67 12.5-.74 26.85 8 27.8 21.34.03 4.02 1.78 14.88-4.48 14.3"/><path d="M150.04 372.3c-6.3-.54-14.7.07-18.83-5.62-1.8-2.86-.27-7.1 3.28-7.4-2.58-2.02-5.59-4.16-7.02-7.14-.7-2.8 2.42-5.2 4.97-3.95 2.71 1.6 4.21 4.74 7.22 6.02 4.47 2.46 9.32 4.03 14.34 3.86 3.98 1.31 2.54 7.16-1.49 7.01a3.5 3.5 0 0 1 3.16 2.7c.74 3.38-2.87 4.77-5.64 4.5zm8.34-38.5c-3.43-.62-2.99-4.44-2.62-7.07.15-4.04.1-7.65-.02-11.47-.27-7.77-.42-15.57-.06-23.36-.3-3.9 2.1-9.57 6.6-6.2.27-3.24 4.42-6.1 6.96-3.27 1.04-3.36 2.02-10.31 7-8.22.88-3.62 5.96-4.86 7.93-1.44 1.08-2.81 4.28-4.25 6.73-2.12 2.08 1.85 1.22 4.79.77 7.15a4 4 0 0 1 2.81 2.62c3.42-3.22 7.22 1.15 6.17 4.88a3.5 3.5 0 0 1 2.42 3.03q.07 1.08.03 2.13c2.75.62 3.16 3.62 2.77 6 .86 1.39.6 3.31-.63 4.43a3.5 3.5 0 0 1-3.6.65c-1.2 2.64-4.84 4.5-7.02 1.88-1.4 2.64-3.77 6.95-7.29 4.72-1.25 2.73-3.23 7.12-6.9 5.1-.7 1.95-2.96 3.19-4.92 2.25-1.23 2.91-1.87 8.47-6.26 7.3a41 41 0 0 1-2.02 4.78 3.6 3.6 0 0 1-2.75 1.97 3.5 3.5 0 0 1-2.1 1.65c-.33 1.8-2.27 2.94-4 2.63zm-28.17-59.86a3.6 3.6 0 0 1-2.34-2.57 4.5 4.5 0 0 1-2.85-.69 3.7 3.7 0 0 1-1.33-1.57 3.54 3.54 0 0 1-4.86-.9c-2.78-4.75 5.56-8.12 8.13-11.23-1.2-4.52 4.25-4.39 6.78-6.34 3.2-1.37 6.26-6.53 10.03-4l.05-.03a3.8 3.8 0 0 1 2.55-.58q.3-.18.61-.32a3.7 3.7 0 0 1 3.25 0c4.27-1.81 8.8 5.1 3.68 7.16-5.54 2.66-16.57 23.75-23.7 21.05zm82.74 208.5.13-.49c-2.5.1-5.2-.31-7.47-.06-1.68-.18-3.45-.03-5.22.06 1.95.84 2.56 3.37 1.52 5.09a12.7 12.7 0 0 1 1.76 9.34l.95-.01c-.96-2.38-.23-6.12-.32-8.4-.26-3.7 3.4-7.59 6.93-4.96a4 4 0 0 1 1.71-.56zm1.12 14.94-.09-.2q-.01.09-.04.14.08.02.14.06m149.96 22.12c10.13-2.33 4.2-8.6 3.6-13.81-.83 1.27-2.7 2.18-5.99 1.88-6.36 2.45-14.18.99-20.99 1.48-5.26-.38-10.98.2-16.24-.65-.49 2.66-1.05 5.35.42 7.25 12.22 4.67 26.3 2.83 39.21 3.84m82.54-5.24q.54 3.49-.45 6.85c-.84 2.93-2.66 5.54-4.67 7.8-2.78 3.13-6.19 5.63-9.7 7.86a84 84 0 0 1-10.19 5.48 180 180 0 0 1-22.27 8.38 314 314 0 0 1-23 6.14 475 475 0 0 1-23.88 4.8l-2.1.35a619 619 0 0 1-47.59 6.2 789 789 0 0 1-94.77 3.03 602 602 0 0 1-47.64-3.15c-8.03-.87-16.05-1.9-24.02-3.2a309 309 0 0 1-17.65-3.33l-2.73-.62-1.47-.35c-.84-.12-1.69-.4-2.49-.6q-1.95-.46-3.89-.99a184 184 0 0 1-15.57-4.9l-.07-.01c-.12-.04-.24-.1-.27-.1l-.13-.05-.35-.13a91 91 0 0 1-10.7-4.8 46 46 0 0 1-9.78-6.68 27 27 0 0 1-3.93-4.5 15.8 15.8 0 0 1-2.79-9.6c.14-4.05 2.27-7.84 4.85-10.87a39 39 0 0 1 4.63-4.44 62 62 0 0 1 9.1-6.06 98 98 0 0 1 9.95-4.85 189 189 0 0 1 15.11-5.69 4.8 4.8 0 0 1 3.87-2.4 618 618 0 0 1 26.11-6.46c3.46-2.68 8.6-1.67 12.64-3.1 8.33-1.21 25.96-7.35 32.86-2.57 3.62-.1 7.3-.34 10.93-.3a7 7 0 0 1-.88-.36c-4.2-.8-11.28 1.23-13.27-3.64a5.1 5.1 0 0 1-4.82-2.46l-3.39.01a3.56 3.56 0 0 1-3.96-2.96c-1.03-.51-1.72-1.45-1.77-3.12a3.5 3.5 0 0 1 3.11-3.32 6 6 0 0 1 1.21-.62c17.2-1.25 34.38-.56 51.58-.9 10.84-.1 21.65.77 32.48.68a267 267 0 0 1 33.35-.36c26.54.98 53 .25 79.5-1.46 7.85-.51 16-.31 23.6-2.45 3.72-.96 5.98 4.43 2.66 6.42-1.05.88-2.47 1.07-3.89 1.2q.01 1.1-.7 2.69c-2.13 2.43-7.15.26-10.24.95q-5.01.15-10.02.2c-11.13.69-22.26 1.59-33.42 1.78-29.02 1.99-58.4 2.47-87.4 2.92q-12.85-.3-25.7-.69c.05 2.25-1.5 4.54-4 4.23a4.54 4.54 0 0 1 1.81 5.22c.16 4.2 3.23 12.04-1.96 14.06q-.72.2-1.4.1.88 1.27 1.17 3.19.51-.56 1.32-.85c12.57-1.82 25.48-.24 38.13-1.34 5.08-6.62 12.61 6.15 2.63 6.74-1.5 5.09-8.54 2.16-12.43 2.56a675 675 0 0 0-27.69-1.25 3 3 0 0 1-1.8-.9q-.14 2.75-.43 6.38c.93 3.68 6.73 4.25 9.9 5.48 10.01.88 27.44 2.67 35.93-2.7 8.82-3.4-2-14.37 3.28-18.13 2.41-1.35 5.47.25 7.9-1.19 3.71-4.71.03-12.31 8.78-12.41 12.52-1.28 25.68-6.77 24.86 11.75 5.13 1.22 13.92-1.47 15.84 4.26 12.3-.35 24.62-.38 36.93-.51 3.31-1.99 6.06-.08 6.7 2.25q.3-.6.83-1.2c12.73-4.84 7.6-10.13 9.83-13.04q-1.74-.33-3.48-.6c-.1.94-.24 1.82-.3 2.56.07 3.87-2.3 10.25-7.07 7.04-1.15 1.06-2.74 1.65-4.29 1.12a4 4 0 0 1-1.1-.6 3.8 3.8 0 0 1-6.37-1.51c-.87-4.67-1.79-9.64-1.14-14.37.81-2.58 4.5-3.21 6.13-1.1a3.6 3.6 0 0 1 1.9-1.5c1.38-.45 3-.02 3.97 1.04a3.5 3.5 0 0 1 3.86-.46l.95.13a4 4 0 0 1 1.9.3c14.05 2.22 28.05 5.16 41.54 9.72q1.22.41 2.45.87l1.57.57.33.13.1.03a97 97 0 0 1 8.05 3.44 57 57 0 0 1 7.8 4.44 32 32 0 0 1 7.01 6.12c.75.9 1.4 1.84 2.03 2.83a15 15 0 0 1 2.06 5.45"/></g><path fill="#000" d="M200.67 13.06c-.42-2.7-1.5-5.29-1.9-7.98-.13-5.52 8.57-5.24 7.23.44.64 2.07 1.11 4.2 1.56 6.32.78 4.48-6 5.73-6.89 1.22M221 13c.35-3.94-2.12-12.36 3.57-13 2.48-.13 4.4 2.59 3.36 4.85-.12 2.62-.04 5.25.07 7.87.14 4.56-6.76 4.84-7 .28m21.35 2.7c.47-3.62-1.37-13.35 3.75-13.5 6.34.43 2.4 9.16 3.24 13.23.12 4.56-6.77 4.84-7 .28zm21.72 2.88a3.5 3.5 0 0 1-3.14-3.82c.71-3.05.47-8.3 4.55-8.67 2.53-.14 4.33 2.61 3.37 4.9-.98 2.85-.5 7.92-4.77 7.6zm18.35 9.21a3.53 3.53 0 0 1-2.6-4.2c1.24-3.98 1.9-9.12 5.51-11.67 3.42-1.75 6.75 3.1 3.92 5.65-.83 1.69-1.24 3.04-1.86 4.74-.55 2.6-1.53 6.27-4.97 5.48"/><path fill="#000" d="M262.83 22.36c-4.12-1.06-2.29-5.72-1.64-8.61-.76-2.85 2.65-5.73 5.3-4.2 2.67 1.42 1.86 4.66 1.23 7.02-.47 2.79-1.15 6.55-4.89 5.79m36.43 13.78c-4.39-2.79.41-7.76 2.1-10.82 1.25-1.96 3.06-4.37 5.7-3.62a3.55 3.55 0 0 1 2.74 3.27c.1 2.54-2.62 3.46-3.53 5.59-1.66 2.56-3 7.54-7 5.57m18.04 10.72c-3.73-2.14-.79-6.12.94-8.6 2.04-1.98 2.11-6.02 5.47-6.23 4.57.1 4.25 5.37 1.85 7.98-2.35 2.53-3.78 8.9-8.26 6.85m17.44 11.25c-3.62-2.82.44-6.58 2.38-9.05 1.9-3.07 5.85-5.05 7.74-.81.81 2.31-1.27 3.88-2.53 5.49-1.9 2.29-4.04 6.77-7.59 4.39zm13.01 15.42c-3.04-2.97.84-6.12 2.86-8.33 1.98-1.93 4.22-5.57 7.34-3.4 3.2 2.4.45 5.77-1.75 7.68-2.26 2.2-4.9 7.06-8.45 4.05m11.84 13.56c-2.97-.17-4.32-4.35-1.9-6.17 1.61-1.23 3.3-2.4 4.81-3.75 1.72-2.73 6.35-1.43 6.37 1.84.06 2.03-1.57 3.36-3.03 4.49-1.99 1.24-3.72 3.69-6.25 3.58M55.96 156.22c-2.92-.1-5.42-1.98-8.24-2.54-6.27-3 1.94-10.85 5.36-5.62 1.17.39 2.3 1.15 3.55 1.19 4.54.42 3.88 7.39-.67 6.97m2.01-13.12c-3-1.26-8.38-1.41-8.82-5.42a3.5 3.5 0 0 1 2.01-3.31c2.98-1.33 5.5 1.51 8.4 1.9 4.44 1.1 2.85 7.82-1.59 6.82m4.93-17.03c-2.7-1.55-7.4-1.08-8.1-4.78a3.54 3.54 0 0 1 2.37-3.95c2.91-.89 5.47 1.48 8.2 2.17 4.26 1.58 1.82 8.14-2.48 6.56m4.05-15.66c-1.84-.73-3.9-1.33-5.3-2.78-1.74-2.04-.5-5.2 2.06-5.69 2.31-.66 3.66 1.45 5.7 1.91 4.28 1.64 1.81 8.1-2.46 6.55m8.58-13.03c-2.58-1.4-7.28-1.91-7.03-5.7.16-1.95 2-3.3 3.9-3.2 2.11.07 3.57 1.85 5.6 2.35 4.27 1.66 1.81 8.12-2.46 6.55M86.92 82.1c-1.59-.5-3-1.3-4.39-2.17-2.09-.14-4.26-1.62-4.3-3.87-.12-2.9 3.04-4.58 5.54-3.47 1.96.8 3.53 2.4 5.62 2.95 4.28 1.63 1.82 8.1-2.46 6.55zM98.5 68.86c-3.04-1.81-7.5-3.17-8.69-6.8-.85-4.2 5.81-6.23 7.22-2.05 1.84 1.54 4.63 1.97 5.86 4.09 1.4 2.66-1.63 6-4.4 4.77m9.79-8.46c-16.08-10.55.55-17.59.65-8.57 1.13 1.83 3.62 2.35 4.34 4.42 1.03 2.82-2.39 5.74-4.98 4.16m14.32-12.18c-4.18-1.9-13.12-10.75-4.66-12.83a3.54 3.54 0 0 1 3.6 2.91 14 14 0 0 0 4.35 3.74c4 2.22.74 8.31-3.29 6.18m14.33-9.51c-3.57-2.17-11.88-9.89-5.39-13.07 4.48-1.2 5.03 5.18 8.45 6.73 4.28 2.06 1.16 8.5-3.06 6.32zm13.99-7.38c-2.73-3.08-7.24-8.36-6.23-12.68a3.48 3.48 0 0 1 6.75 1.14c1.24 2.22 2.36 4.62 4.23 6.4 3.32 3.13-1.36 8.2-4.75 5.14m13.55-8.95c-1.1-3.38-2.47-7.03-1.84-10.63a3.54 3.54 0 0 1 4.21-2.61c2.3.52 2.93 2.83 2.65 4.9.3 2.14.9 4.2 1.66 6.23 1.36 4.33-5.17 6.48-6.67 2.13zm15.85-3.8c-.98-3.2-4.26-10.57-1.38-13.1a3.55 3.55 0 0 1 4.93.43c1.7 2.96 1.28 6.6 2.8 9.69 1.92 4.16-4.44 7.1-6.35 2.98M71.88 154.9c-16.48-1-8.04-14.51-2.85-7.62 2.7.66 7 .57 6.67 4.47a3.53 3.53 0 0 1-3.82 3.15m5.83-13.62c-2.56-.57-5.02-1.28-7.63-1.3a3.54 3.54 0 0 1-2.06-5.44c2.82-3.47 7.71-.44 11.3-.07 4.45 1.06 2.84 7.78-1.6 6.81m4.66-13.83c-2.85-1.2-6.35-1.02-8.87-2.83-2.33-2.06-.69-6.15 2.4-6.12 1.65.13 3.1.97 4.75 1.17 1.86.64 4.27.7 5.47 2.47 1.73 2.47-.84 6.15-3.75 5.3m7.97-12.24c-4.38-.86-15.89-2.12-11.8-8.87a3.53 3.53 0 0 1 5.2.06c2.32.94 4.81 1.42 7.28 1.86 4.56.47 3.85 7.42-.68 6.97zm8.17-16.92c-3.44-1.05-7.73-2.1-9.87-5.2-1.02-2.2.54-4.97 3.05-4.99 3 .44 5.26 3.04 8.41 3.38 4.44 1.11 2.85 7.83-1.59 6.82m8.58-12.49c-16.6-6.69-5.6-15.52-2.18-9.25 1.71 1.2 3.6 2.12 5.46 3.06 4.03 2.18.76 8.26-3.29 6.18"/><path fill="#000" d="M119.38 74.04c-17.04-7.23-3.99-18.25-1.59-9.29a9.4 9.4 0 0 0 4.06 2.73c4.27 1.66 1.81 8.11-2.47 6.55m10.08-11.05c-2.72-2.13-6.78-4.13-7.47-7.78a3.55 3.55 0 0 1 3.36-3.64 3.8 3.8 0 0 1 3.23 1.76 29 29 0 0 0 4.94 3.95c3.71 2.67-.3 8.29-4.05 5.7M95.32 157.6c-19.26-1.7-9.96-15.11-5.07-8.3 2.15.77 4.43 1.09 6.66 1.5 4.44 1.02 2.87 7.83-1.59 6.82zm6.3-13.5c-3.48-1.07-9.24-.8-10.43-4.98-.3-1.69.66-3.2 2.12-3.94a3.5 3.5 0 0 1 3.95.69 61 61 0 0 0 5.95 1.4c4.46 1.05 2.86 7.78-1.59 6.82m4.26-12.79c-2.78-.97-5.63-1.42-8.3-2.59-3.65-1.77-1.69-7.69 2.32-6.69 2.7 1.23 5.62 1.79 8.45 2.72 4.27 1.59 1.83 8.14-2.46 6.55m7.07-12.79c-3.2-1.1-6.65-1.9-9.57-3.67-5.37-3.33.5-10.86 4.4-5.56a79 79 0 0 0 7.63 2.67c4.27 1.59 1.83 8.14-2.46 6.55m6.79-12.59c-17.59-6.28-6.53-17.17-2.82-9.5a20 20 0 0 0 5.3 2.94c4.25 1.69 1.8 8.13-2.48 6.55m6.95-11.37c-3.27-2-7.7-4.27-8.09-8.53a3.54 3.54 0 0 1 3.36-3.64 3.54 3.54 0 0 1 3.57 2.8 19 19 0 0 0 4.45 3.18c4 2.2.74 8.3-3.29 6.18m9.65-11.34c-2.78-2.63-7.16-4.69-7.9-8.73-.39-4.27 5.93-5.48 6.98-1.24 1.94 2.38 5.46 3.51 6.4 6.51.64 2.92-3.1 5.36-5.48 3.47m7.17-8.29c-2.07-3.13-8.55-7.65-4-11.25 4.56-2.4 6.54 4.38 9.36 6.76 2.93 3.45-2.49 8-5.37 4.49zm1.98-17.34c-2-3.73-10.98-9.28-5.05-13.17a3.6 3.6 0 0 1 4.9 1.99q2.85 3.26 5.52 6.69c2.87 3.55-2.4 7.98-5.37 4.5zm12.6-7.4c-2-3.17-4.92-7-3.89-10.95 1.22-3.55 6.81-2.8 6.9 1-.08 2.32 1.71 4.28 2.88 6.18 2.43 3.85-3.34 7.59-5.9 3.77m14.16-6.43c-1.87-3.38-6.67-8.2-3.1-11.9 2.12-1.92 5.9-.14 5.75 2.73.92 1.89 2.12 3.63 3.25 5.4 2.42 3.86-3.37 7.6-5.9 3.77m15.05-4.61c-1.02-4-7.69-12.02-1.89-14.52 2.48-.8 4.42 1.24 4.83 3.56q1.64 4 3.4 8c1.87 4.15-4.36 7.1-6.34 2.97m13.81-3.55c-2.06-2.82-1.46-7.13-1.2-10.47.31-2.98 3.86-5.4 6.37-3.1 1.86 1.59.81 3.68.36 5.54-.02 1.77.17 3.55.35 5.3.3 3.02-3.77 4.83-5.88 2.72m14.37-2.52c-.42-4.27-1.35-15.48 5.87-12.26 1.58 1.06 1.77 3.14 1.01 4.73-.26 2.4-.05 4.84.11 7.25.16 4.55-6.73 4.85-6.99.28m17.8-1.96c.05-3.51.1-7.13 1.28-10.48a3.53 3.53 0 0 1 4.51-2.05c4.43 2 .61 7.45 1.22 11.09.92 5.2-6.36 6.81-7 1.43m-71.56 41.39c-1.77-3.74-8.75-12.12-1.3-13.61a3.54 3.54 0 0 1 3.62 3.12 71 71 0 0 0 3.6 6.72c2.38 3.89-3.43 7.6-5.9 3.77zm16.05-5.6c-2.34-1.07-2.9-4.02-4.09-6.1-1.42-2.41-2.26-6.44 1.17-7.52 5.05-1.23 4.94 5.92 7.32 8.85 1.45 2.69-1.63 5.94-4.4 4.77m12.43-6.19a79 79 0 0 1-2.3-10.53 3.53 3.53 0 0 1 3.36-3.64c4.64.07 3.68 6 4.82 9.14.81 2.54 1.9 6.2-1.49 7.3a3.54 3.54 0 0 1-4.4-2.27zm12.97-4.13c-.05-3.95-1.49-13.07 4.98-11.6 1.97.73 2.66 2.91 1.98 4.8-.2 2.16-.06 4.35.03 6.52.14 4.56-6.75 4.85-6.99.28m14.64-2.74c-.13-4.18-.14-14.64 6.56-11.47a3.54 3.54 0 0 1 .93 4.72c-.56 2.1-.49 4.32-.49 6.47.12 4.56-6.78 4.84-7 .28m18.68 4c-5.53-1.11-2.2-8.18-1.96-11.92.35-1.88 2.41-3.03 4.21-2.61 3.2.75 2.82 4.2 2.16 6.68-.57 2.99 0 8.15-4.4 7.86zm15.8-18.6c-4.17-1.11-2.18-5.76-1.75-8.74.45-2.28-.36-5.4 2.33-6.5 1.23-.53 2.9-.33 3.84.7 2.55 3.35.2 8.16-.22 11.94a3.5 3.5 0 0 1-4.2 2.6m14.68 5.28c-4.78-1.45-1.76-7.1-.78-10.3.93-3.18 3.76-7.66 7.48-5.09a3.5 3.5 0 0 1 .73 4.9c-1.39 1.14-1.73 2.91-2.35 4.56-.63 2.69-1.4 6.77-5.09 5.93zm15.75 5.16c-4.3-1.19-2.1-6-1.48-9.01.33-2.73 1.74-6.34 5.13-5.58 2.36.48 3.45 3.5 2.08 5.45-1.15 3.27-.64 9.99-5.72 9.15zm14.75 5.92c-3.97-1.66-1.49-6.04-.28-8.8 1.04-2.7 2.95-6.77 6.5-4.93 3 1.66 1.47 4.89.16 7.16-1.35 2.76-2.15 8.04-6.38 6.57m11.18 7.1c-4.12-2.54-.02-6.9 1.66-9.69 1.3-2.2 3.6-4.83 6.37-3.29 4.08 2.76.34 5.73-1.4 8.47-1.4 2.42-3.26 6.33-6.64 4.52zm11.64 8.31c-3.44-2.75.36-6.5 2.28-8.9 1.74-1.91 4.04-4.94 6.93-3.37 4.14 3.02.41 5.8-1.94 8.28-1.74 2.34-3.88 6.38-7.27 4m8.8 7.44c-4.34-4 2.73-8.38 5.27-11.27 1.43-1.27 3.78-.86 4.92.57 2.65 3.64-2.33 6.08-4.2 8.65-1.3 2.01-3.73 3.77-5.99 2.06m8.24 7.92c-2.59-2.55.12-5.47 2.16-7.3 1.8-2.1 5.06-4.37 7.33-1.58 1.42 1.78.71 4.34-1.2 5.44-2.29 2.04-4.99 6.44-8.29 3.44m-84.02-26.48a3.54 3.54 0 0 1-3.13-3.84c.81-3.84-.2-9.48 3.88-11.58 3.87-1.71 7.62 4.2 3.77 6.57-.67 3.18.26 9.1-4.52 8.85m15.15 5.34c-4.37-1.22-2.08-6.12-1.3-9.14.81-3.16 2.06-8.9 6.53-6.79 2.42 1.3 1.9 4 .96 6.08-1.55 3.34-.9 10.63-6.19 9.84zm13.23 5.67c-4.12-1.74-1.34-6.2-.16-9.04.98-2.79 2.77-7.03 6.43-5.15a3.6 3.6 0 0 1 1.2 5.13c-1.98 3.12-2.3 10.54-7.48 9.06m16.44 7.42a3.5 3.5 0 0 1-1.39-4.75c2.04-2.94 4.04-9.9 8.71-7.01 2.18 1.59 1.44 4.32-.07 6.1-1.7 2.56-3.27 7.67-7.25 5.66m13.94 4.26c-2.79-2.11-.87-5.26 1.15-7.12a3.56 3.56 0 0 1 5.07-.97c4.21 2.85-2.5 11.07-6.22 8.09m10.49 7.2c-4.16-3.08 2.2-10.72 5.95-7.08 3.28 3.14-2.28 9.85-5.95 7.08m14.5 8.59a3.5 3.5 0 0 1-.73-4.9c1.8-2.56 5.28-6.43 8.2-3.03 1.65 2.04.33 4.37-1.43 5.78-1.29 2.06-3.74 3.9-6.04 2.16zM232.84 77.6c-4.6-.66-2.69-5.92-2.66-9.08-.26-3.7.36-9.22 5.47-7.18 3.12 1.8 1.13 5.82 1.45 8.72-.2 2.95-.09 7.86-4.26 7.54M247 79.35c-4.96-.8-2.57-6.5-1.95-9.77.5-2.84 2.41-6.77 5.9-5.5 2.47.94 2.83 3.99 1.25 5.88-1.36 3.19-.28 9.59-5.2 9.39m13.03 1.4c-3.86-1-2.6-5.34-1.38-8 1.08-2.79 3.64-6.77 7-4.4 2.53 1.85 1.03 4.66-.36 6.7-.92 2.53-1.62 6.56-5.25 5.7m12.49 3.36a3.54 3.54 0 0 1-2.02-4.52c1.2-3.14 3.6-9.03 7.81-6.32 2.63 1.93.94 4.81-.48 6.9-.68 2.4-2.5 5.04-5.3 3.94m16.64.36c-4.77-1.8-.94-10.03 3.52-7.59 3.95 2.1.61 9.24-3.52 7.6m-38.71 10.2c-3.54-.88-2.79-4.8-1.67-7.34.77-2.7 2.87-6 6.05-4.3 3.08 1.69 1.32 4.96.3 7.36-.34 2.39-1.94 4.97-4.68 4.29zm-14.52-10.51c-.05-1.86 1.5-3.6 3.4-3.6s3.54 1.46 3.6 3.4c.05 1.86-1.5 3.6-3.4 3.6a3.56 3.56 0 0 1-3.6-3.4m-24.82-11.14c-.68-3.92-3.03-12.07 3.9-10.64a3.54 3.54 0 0 1 2.1 4.27c.31 1.76.7 3.5.92 5.28.65 4.5-6.15 5.6-6.9 1.09zM168.7 90.24c-2.99-3.1-9.73-11.27-2.92-13.56a3.55 3.55 0 0 1 4.03 3.05 18 18 0 0 0 3.76 5.48c3.23 3.23-1.58 8.19-4.87 5.03m15.36-6.82c-1.27-2.84-3.68-6-2.95-9.2a3.55 3.55 0 0 1 4.52-2.03c2.86 1.36 2.65 5.28 4.43 7.63 2.3 3.94-3.6 7.51-6 3.61m12.82-5.91c-1.2-3.13-4.65-8.58.1-10.3 4.56-1.12 4.72 4.67 6.31 7.5 1.78 4.19-4.5 6.97-6.4 2.8"/><path fill="#000" d="M190.75 88.57c-3.89-6.93 6.74-10.53 6.34-2.8 1.32 3.76-4.42 6.3-6.34 2.8M179.14 99.9c-2.77-2.13-5.67-7.78-1-9.44 3.65-1 3.82 2.68 5.87 4.4 3.27 3.2-1.52 8.16-4.87 5.04m39.98-18.95c-.68-3.26.7-8.8 5.04-7.33 1.71.65 2.8 2.77 2.02 4.52-.3.53-.2 1.14-.15 1.72.63 4.53-6.19 5.6-6.9 1.09m-62.29 13.73c-2.39-3-5-5.82-8.02-8.3-3.4-2.99 1.34-8.26 4.7-5.2 2.95 2.73 6.2 5.38 8.44 8.74 1.7 3.15-2.1 6.88-5.12 4.75zm-10.67 10.51c-2.19-3.78-11.77-5.8-9.5-10.78 3.43-5.29 9.5 2.03 12.85 4.2 7.27 5.03.53 12.17-3.35 6.58m-11.04 13.28c-2.6-2.76-10-3.28-7.95-8.4 2.63-4.9 10.57 1.43 13.2 3.86 2.31 3.25-2.33 7.3-5.25 4.54m-6.25 13.77c-2.57-3.4-10.57-1.56-9.92-7.24 1.35-5.94 11.97-.6 14.61 2.05 3.37 3.02-1.37 8.27-4.69 5.2zm-7.16 14.11c-2.55-3.04-10.14-1.04-9.4-6.66 1.41-5.87 12.3-.9 14.74 2.13 2.97 3.4-2.4 8-5.34 4.53m-6.3 14.4c-3.2-2.56-11.43-1.76-10.15-7.5 2.42-5.2 9.62-.12 13.27 1.24 4.08 2.07.97 8.25-3.12 6.26m55.65-51.19c-2.62-1.72-5.04-3.77-7.77-5.39a3.5 3.5 0 0 1-.92-4.85c3.42-4.4 9.25 2.52 12.5 4.43 2.92 2.6-.26 7.42-3.8 5.8m-10.5 10.99c-2.42-3.23-10.4-2.47-9-7.98a3.53 3.53 0 0 1 4.43-2.19c3.58 1.73 9.75 2.78 10.4 7.38.28 3-3.66 4.9-5.83 2.8zm-6.75 13.88c-2.19-3.97-10.03-2.67-9.36-8 .36-1.83 2.27-3.2 4.12-2.75 17.2 4.54 11.12 15.61 5.24 10.74m-5.88 11.26c-2.37-3.74-10.29-1.64-9.6-7.32 1.86-6.07 11.64-.72 14.42 2.25 3.2 3.05-1.62 8.12-4.8 5.06zm-6.52 14.37a36 36 0 0 0-9.47-3.67c-4.46-.96-3.1-7.72 1.38-6.87 4.17 1.04 8.4 2.46 12.03 4.76 3.77 2.53-.23 8.38-3.94 5.8zm-7.25 13.22c-3.24-2.94-11.58-1.3-11.13-7.12 1.45-6 11.7-.44 15.07 1.33 3.8 2.46-.2 8.39-3.94 5.79m34.62-26.8c-3.28-2.55-11.16-.99-10.62-6.7.36-1.8 2.28-3.23 4.13-2.75 3.78 1.47 9.18 1.34 11.64 4.9 1.62 3.13-2.27 6.62-5.15 4.56zm-5.73 13.96c-3.23-3.46-12.37-.26-12.47-6.28.75-5.15 7.07-2.76 10.46-2.12 12.16 2.22 7.87 12.19 2 8.4zm-8.69 11.88c-2.63-1.43-6.29-.29-8.49-2.47-2-2.18-.07-6.12 2.91-5.76q2.37.3 4.71.7c11.92 1.66 6.73 13.25.87 7.53m20.03-1.8c-2.5-1.46-7.18-1.99-5.88-6.01a3.54 3.54 0 0 1 4.45-2.19c12.36 2.88 6.95 12.63 1.44 8.2m-3.92 14.6c-2.3-.76-5.16-.17-6.92-2.01-2-2.18-.07-6.13 2.91-5.77 1.52.2 3.05.4 4.55.72 2.36.94 5.6.15 7.15 2.5 1.48 2.12-.15 5.39-2.75 5.43-1.67.02-3.32-.53-4.94-.87m2.6 17.37c-3.57-.72-10.13 2.13-10.88-3.19-.12-4.28 4.73-3.75 7.73-3.85 12.37-1.6 10.38 11.06 3.14 7.03m.83 19.09c-2.43-.42-4-.65-6.19-.84-4.55-.4-4.08-7.28.48-6.99 3.55.66 7.34.49 10.7 1.56 4.13 3.75-.67 7.75-5 6.26zm-.72 14.51c-1.34-1.1-3.27-.31-4.86-.37-4.55.22-4.98-6.66-.4-7 13.73-2.34 12.8 10.46 5.26 7.37m-28.5-49.41c-.64-4.97 5.64-4.41 8.96-4.74 2.6-.12 6.27-.16 7.15 2.88.84 4.05-2.7 5.03-5.9 4.09-3.39-.32-9 2.52-10.2-2.23m9.92 18.92c-1.52-.04-3.02.3-4.49.63-1.86.42-3.75-.96-4.09-2.8-.66-3.9 3.82-4.47 6.68-4.75 10.21-1.64 9.3 10.57 1.91 6.91m1.46 12.98c-3.66-.73-10.87 1.5-11.59-3.62.31-6.18 8.86-2.92 12.83-3.3 4.7.8 3.42 7.9-1.25 6.92m-7.83 11.3c.15-5.28 7.16-3.69 10.73-4.09a3.5 3.5 0 0 1 3.82 2.85c.53 2.43-1.8 4.55-4.17 4.15-3.49-.37-9.7 2.28-10.39-2.91zm9.99 14.59c-1.85-1.56-4.98.25-6.82-1.59-2.29-1.9-.87-6.06 2.14-6.09 14.36-1.31 11.9 11.84 4.68 7.68m-22.43-56.28q-3.41-.37-6.84-.59c-4.55-.35-4.08-7.25.48-6.97 3.27.53 7.13-.2 10 1.7 2.87 2.47-.17 7.34-3.64 5.87zm.03 15.47c-3.44-1.07-9.79 1.3-10.46-3.73-.1-1.85 1.38-3.66 3.3-3.7 3.84.26 8.7-.55 11.82 2.1 2.66 2.99-1.36 7.66-4.66 5.33m.08 12.43c-3.62-2.38-11.16 1.38-12.1-4.33-.55-6.2 13.04-3.53 16.04-1.45 3.8 2.46-.22 8.39-3.94 5.78m.32 11.17c-3.24-.28-8.8 1.81-9.35-3.03a3.54 3.54 0 0 1 3.3-3.7c16.43-2.95 12.7 10.44 6.05 6.73m-18.74-49.12c-2.49-1.78-6.25-1.37-8.24-3.77-1.7-2.42.73-6.07 3.63-5.33 2.93.76 5.97 1.67 8.55 3.3 3.78 2.52-.22 8.36-3.94 5.8m-1.36 14.84c-2.89-2.45-9.64 0-9.59-5.37.9-5.92 10.27-2.44 13.53-.42 3.77 2.53-.23 8.36-3.94 5.78m-.41 13.82c-2.26-.49-4.59-.51-6.89-.62-4.55-.34-4.08-7.22.48-6.98q2.3.06 4.61.26c10.86-.12 8.37 10.75 1.8 7.34m-3.02 13.95c-3.08-.3-8.38.4-8.25-4.08.93-5.52 7.9-2.3 11.67-2.78 1.53-.44 3.35.06 4.23 1.44 2.54 5.3-3.92 6.06-7.65 5.44zm1.89 13.44c-1.68-.8-3.68-.85-5.49-1.24-4.47-.94-3.12-7.7 1.38-6.87 14.85.98 9.61 11.47 3.96 7.98l.14.12zm-11.01-63.1c-2.59-.4-5.19-.78-7.77-1.31-4.47-.94-3.1-7.71 1.38-6.86 2.58.52 5.17.92 7.77 1.3 4.46 1 3.11 7.7-1.38 6.87m-4.88 14.56c-3-3.28-10.88-.66-11-6.31.88-6.6 12.62-1.47 15.7 1.12 3.41 2.96-1.37 8.28-4.7 5.2zm-1.82 14.69c-2.49-1.71-5.76-1.67-8.64-2.25-4.45-.8-3.06-7.83 1.38-6.86 4.26.94 10.84.8 12.65 5.57.68 2.9-3 5.38-5.4 3.54m-.78 12.81c-1.63-.71-3.52-.75-5.28-.92-4.55-.36-4.08-7.24.48-6.98 14.85.02 10.96 10.86 4.8 7.9m-.61 13.24c-1.45-1.34-3.4-1.75-5.3-1.9-4.55-.38-4.07-7.26.48-6.97 15.22 1.2 11.36 12.88 4.8 8.88zm-2.14 11.85c-2.4-1.98-6.66.2-7.1-4.28.18-5.65 8.05-3.95 11.04-1.51 3.77 2.51-.23 8.36-3.94 5.78m7.19 9.92c-2.6-.2-5.98-1.37-5.34-4.62a3.5 3.5 0 0 1 4.12-2.74c1.53.34 3.08.6 4.63.69 5.68 2.1 2.08 8.63-3.4 6.68M79.5 168.72c-2.37-1.98-6.27-.64-8.44-2.88-2-2.18-.07-6.11 2.91-5.76 16.47 1.04 11.4 11.65 5.52 8.64m-3.44 15.96c-3.4-1.12-10.02.94-10.04-4.4.44-4.25 5.45-3.22 8.46-2.94 2.66.34 5.68.69 7.23 3.2 2.34 3.59-2.96 7.46-5.65 4.14m.09 16.62c-3.47-3.16-12.27.3-12.44-5.8.63-6.22 13.14-2.13 16.38.01 3.77 2.53-.23 8.38-3.94 5.8m-1.72 16.46c-1.8-1.3-4.36-.56-6.45-.6-4.56.24-4.97-6.66-.4-6.98 16.18-2.22 14.11 10.72 6.86 7.57m-2.12 12.19-.03-.03c-2.42-.24-4.86.04-7.29 0-4.56.2-4.97-6.68-.4-6.98 2.9.05 5.86-.35 8.75.05 8.41 1.3 5.08 11.63-1.03 6.95M71 246.68c-3.52-1.53-7.13-2.81-10.67-4.25-4.3-1.4-1.99-8.19 2.26-6.62 3.84 1.54 7.72 2.97 11.52 4.6 4.08 1.94.92 8.35-3.12 6.28zm-10.82-76.04c-1.92-.72-4-.77-6.03-.93a3.53 3.53 0 0 1-3.25-3.74c.6-4.75 6.4-3.03 9.62-2.53 10.13 1.63 5.46 12.63-.34 7.2m-2.98 16.58c-1.95-.82-4.32-.66-6.42-.87-4.55-.35-4.08-7.23.48-6.98 17.25-.46 12.15 11.95 5.93 7.85M55.32 202c-2.2-.88-4.64-1.05-6.97-1.44-3-.44-3.8-4.85-1.2-6.38 3.24-1.3 9.06.43 12.11 2.04 3.77 2.52-.23 8.37-3.94 5.79m-1.76 14.58c-1.9-1.15-4.23-1.28-6.37-1.69-3.02-.44-3.8-4.84-1.2-6.37 3.61-1.34 8.26.47 11.51 2.26 3.77 2.53-.23 8.38-3.94 5.8m-1.74 14.11c-2.3-.97-4.75-1.31-7.2-1.64-4.48-.93-3.13-7.69 1.37-6.87 3.67.72 11.52.81 10.27 6.32a3.54 3.54 0 0 1-4.45 2.19zm-5.06 14.86c-2.59-2.7-9.64-2.16-8.25-7.34 2.38-5.1 9-.44 12.2 1.54 3.76 2.53-.25 8.4-3.95 5.8"/><path fill="#000" d="M46.7 192.3c-2.05-.86-4.74-.18-6.33-1.98-2-2.18-.07-6.13 2.91-5.76 11.44.14 8.98 8.98 3.42 7.74m1.1-16.57c-.89-.7-2.1-.51-3.16-.61-4.55-.36-4.08-7.24.48-6.99 11.2-.38 9.51 10.55 2.68 7.6m-8.05 45.64c-1.25-.59-2.76-.62-4.1-.88-3.02-.45-3.8-4.86-1.22-6.37 2.54-1.25 8.54.1 10.25 2.4 2.08 3.1-1.89 7.02-4.93 4.85M34 236.3c-5.58.96-7.1-6.75-1.27-7.06 9.5-1.09 8.02 9.66 1.27 7.05m57.55 18.39a245 245 0 0 0-7.42-1.56c-4.46-.95-3.1-7.72 1.38-6.87 3.77 1.16 8.52.77 11.56 3.49 2.9 3.42-2.45 8.12-5.52 4.94m-3.68 21.47c-3.72-2.25-13.47.12-12.92-6.25 1.53-5.38 8.71-1.23 12.54-1.22 9.55 1.34 6.02 10.75.3 7.4zm-8 14.55c-3.48-1-11.14-.65-10.47-5.87 1.68-5.52 8.02-.94 11.85-1 4.47.88 3.11 7.75-1.38 6.88M67.7 263a4 4 0 0 1-.98-1.01c-2.3-1.02-4.8-1.5-7.25-2.02-4.46-.95-3.1-7.71 1.38-6.87 4.05 1.1 9.44 1.4 11.95 5.18 1.72 3.16-2.1 6.83-5.1 4.72m-6.6 17.77c-2.25-1.54-4.98-2.1-7.52-2.97-4.3-1.51-2.08-8.04 2.26-6.63 3.16 1.01 6.45 1.88 9.2 3.81 3.74 2.63-.16 8.32-3.95 5.8m-8.42 10.61c-3.23-1.9-10.39-.81-9.77-6.13 1.66-5.37 8.42-1.44 12.04-.5 4.31 1.54 2.05 8.06-2.26 6.63m-8.35-29.1c-2.8-1.85-8.85-.87-8.1-5.77 1.01-4.22 5.96-2.51 8.87-1.55 10.66 3.3 4.04 13.28-.78 7.33zm-4.92 16.7c-2-.87-4.19-1.1-6.32-1.49-4.47-.92-3.12-7.69 1.38-6.87 2.71.44 5.6.85 8.07 2.08 4.07 2.1.97 8.27-3.12 6.28m-7.52-10.61a128 128 0 0 0-9.2-2.8c-4.25-.76-3.39-7.69 1.38-6.87a130 130 0 0 1 10.08 3.05c4.31 1.54 2.05 8.06-2.27 6.63zm-6.88-20.12c-4.46-.97-3.1-7.73 1.38-6.86 3.25 1.4 9.3-.56 9.87 4.22-.24 5.8-7.63 3.3-11.25 2.64M28 288.6a60 60 0 0 0-9.2-1.3c-4.56-.37-4.09-7.25.47-6.98 4.04.5 8.45.44 12.17 2.22 3.48 2.38.37 7.82-3.44 6.06m-6.39 16.45a6.4 6.4 0 0 0-5.57-1.67c-4.56.25-4.97-6.63-.4-6.99 4.16-.7 13.7 2.12 10.84 7.74-1.04 1.51-3.35 2.06-4.86.92m-2.36 18.72c-2.18-1.19-4.8-1.17-7.22-1.4-4.55-.37-4.08-7.25.48-6.99 17.1.23 12.18 10.64 6.74 8.4m-4.9 18.18c-2.1-1.2-4.68-1.07-7.03-1.26-4.55-.34-4.08-7.23.48-6.98 17.2-.1 12.65 11.3 6.55 8.25zM10.1 358.9c-2.94-1.33-8.34.92-8.77-3.82.1-5.61 8.31-3.85 11.73-2.56 6.14 2.48 2.21 10.69-2.96 6.37m-3.2 17.89c-1.83-1.26-4.58-.33-6.08-2.18-2-2.18-.07-6.12 2.91-5.76 12.67.59 9.27 10.85 3.16 7.94m33.56-74.13q-4.33-1.03-8.68-1.91c-4.47-.95-3.1-7.73 1.38-6.87 2.51.52 5.01 1.12 7.52 1.67 9.8.8 5.56 11.1-.2 7.11zm-3.12 16.48c-3.45-1.76-10.67.29-10.8-5.14.13-1.87 1.84-3.45 3.73-3.25 3.71.5 7.7.7 11 2.6 3.75 2.62-.15 8.31-3.94 5.79zm-3.6 13.25c-1.65-1.07-3.7-1.31-5.63-1.45-4.55-.36-4.08-7.24.48-6.98 15.3.63 11.25 11.43 5.14 8.43z"/><path fill="#000" d="M30.17 343.76c-2.86-.84-7.37.9-7.8-3.56a3.53 3.53 0 0 1 3.28-3.7c13.84-1.54 11.25 10.31 4.52 7.25m-2.72 17.52c-2.46-2.57-8.84-1.26-8.05-6.28 1.54-5.37 9.03-1.7 12 .49 3.72 2.64-.17 8.34-3.95 5.78m-2.49 11.33c-1.73-.85-3.74-1.02-5.62-1.38-4.47-.92-3.12-7.69 1.38-6.87 15.66 1.47 9.74 12.05 4.24 8.25M23.9 387c-1.7-1.04-3.72-1.18-5.66-1.35-4.55-.36-4.08-7.25.48-6.97 14.5.38 11.06 10.42 5.17 8.31zm-1.82 13.52c-2.56-1.04-5.23-1.71-7.87-2.5-4.3-1.5-2.09-8.01 2.27-6.62 3.22 1.3 7.8 1.24 9.9 4.3 1.4 2.62-1.53 5.94-4.29 4.81m46.77-101.96c-3.69-.5-7.32-1.32-11-1.87-1.89-.29-3.1-2.3-2.74-4.12a3.55 3.55 0 0 1 4.12-2.74c3.9.88 8.13.93 11.82 2.35 2.92 1.87 1.26 6.75-2.2 6.38m-8.6 14.08c-2.9-3.1-10.34.16-10.37-5.62.36-3.96 4.98-3.4 7.83-2.87 12 1.87 8.4 11.37 2.54 8.49M56 326.07c-1.95-1.18-4.36-1.12-6.55-1.47-4.55-.4-4.08-7.29.48-6.99q1.95.22 3.9.5c11.6 1.27 8 10.8 2.17 7.95m-4.22 15.14a12 12 0 0 0-5.79-1.77c-4.55-.38-4.08-7.28.48-6.99 3.81.44 11.96 1.75 10 7.19-.83 1.66-3.04 2.49-4.69 1.56m-4.28 16.98c-2.82-2.82-9.77-.3-9.7-5.7.11-1.83 1.83-3.5 3.72-3.26 16.27 1.06 12.11 12 5.96 8.96zm-3.53 14.65c-1.72-.8-3.68-.86-5.55-1.02-4.55-.37-4.08-7.25.48-6.99 14.84.18 10.55 10.18 5.06 8z"/><path fill="#000" d="M40.4 388.7c-3.2-1.81-10.29-.7-9.66-6.02 1.38-5.43 9.28-1.28 12.78-.24 4.1 2.07.98 8.25-3.12 6.27m-2.77 12.55c-1.29-1.03-3-.6-4.52-.46-4.54.28-4.99-6.7-.42-7 13.66-1.98 12.16 10.62 4.93 7.45zm-.33 14.41c-2.7-1.87-8.59-1.07-7.83-5.84 1.43-5.03 7.77-1.91 10.95-.43 4.06 2.1.96 8.29-3.12 6.28zm25.28-50.41c-1.98-.44-4-.6-6.02-.72-4.55-.37-4.08-7.25.48-6.99 2.92.24 6 .3 8.73 1.44 4.13 2.12.93 8.46-3.18 6.26M60 382.29c-2.07-1.08-4.5-1.4-6.74-2.06-4.47-1-3.1-7.75 1.38-6.87 3.38 1.19 7.81 1.19 10.27 4.04 2.13 3.08-1.86 7.06-4.9 4.88m-3.33 12.99c-1.5-1.2-3.85.12-5.28-1.44-2.28-1.9-.88-6.07 2.14-6.1 11.97-.85 9.8 10.67 3.14 7.53m-.2 14.1c-2.06-1.12-4.44-1.46-6.7-1.96-4.47-.94-3.1-7.7 1.38-6.85 3.43.96 8.45 1 10.21 4.58 1.05 2.79-2.28 5.72-4.89 4.23m-1.68 13.88a18 18 0 0 0-7.24-1.62c-4.55-.35-4.08-7.23.48-6.98 3.8.33 12.5.85 11.2 6.43-.6 1.76-2.69 2.87-4.45 2.18zm24.06-48.98c-3.64-1.31-11.27.88-11.38-4.7a3.53 3.53 0 0 1 3.73-3.25c3.73.56 8.04.13 11.34 2.1 2.93 2.48-.2 7.4-3.69 5.86zm-.46 14.66c-1.83-.16-3.7-.13-5.55-.12-1.28.01-2.6.03-3.6-.9-2.28-1.9-.87-6.08 2.14-6.1 3.87.5 10.1-1.54 12.04 2.94 1.1 2.86-2.4 5.77-5.02 4.18m-3.61 14.04c-2.15-1.27-4.79-.83-7.18-1.04-4.55-.35-4.08-7.22.48-7 16.32-.72 12.72 10.24 6.7 8.04m-11.17 8.57c-.13-4.22 4.76-3.86 7.74-3.88 2.95-.12 7.76-.26 7.6 3.87-.5 4.05-4.38 3.13-7.18 3.12-2.99 0-7.77 1.18-8.16-3.12m8.73 17.08c-3.27-.74-8.99 1.7-9.54-3.28.15-5.3 7.34-3.81 10.92-3.58 4.48.93 3.1 7.69-1.38 6.87m25.51-47.54c-2.65-.72-5.45-1.12-8.16-1.65-4.47-.94-3.12-7.7 1.38-6.87q3.56.65 7.1 1.38c1.67.33 3.57.64 4.6 2.18 2.17 3.08-1.82 7.18-4.92 4.96m-1.43 14.22c-2.18-.37-4.47-.24-6.68-.33-4.55-.32-4.08-7.2.48-6.97 3.06.28 6.5-.4 9.28 1.07 3.35 2.17.65 7.6-3.08 6.24zm-.34 12.1c-2.27-.42-4.59-.35-6.88-.3-4.56.2-4.98-6.68-.4-6.98 3.64.1 8.01-.68 11.15 1.55 3 2.56-.4 7.57-3.88 5.73m-3.89 12.17c-2.04-1.12-4.58.68-6.52-.75-2.53-1.58-1.68-5.94 1.32-6.33 14.06-2.53 12.41 10.2 5.2 7.07m-1.76 10.5c-1.58-.63-3.27-.56-4.93-.34-4.54.29-4.98-6.7-.4-7 13-1.8 11.68 8.57 5.33 7.34m14.97-41.68a3.5 3.5 0 0 1 2.8-4.1c3.52-.25 7.8-2 10.92.28 3.14 2.86-.5 8.27-4.26 5.94-3.2-.01-8.37 2.44-9.45-2.12m-2.9 14.27c.02-5.06 6.25-3.5 9.6-4.01 2.95-.87 5.55 2.85 3.71 5.36-2.27 2.75-6.47 1.36-9.6 1.93a3.53 3.53 0 0 1-3.7-3.3z"/><path fill="#000" d="M103.1 420.33c-2.28-1.3-4.99-3.6-3.1-6.38a3.5 3.5 0 0 1 4.85-.92c2.28 1.29 5 3.6 3.11 6.38a3.5 3.5 0 0 1-4.86.92"/></svg>