<svg xmlns="http://www.w3.org/2000/svg" fill="none" viewBox="0 0 457 561"><path fill="#000" d="m8.65 426.25-2.38-9.35-.96-3.82c.07-3.63.2-7.26.3-10.88.05-1.8.11-3.6.03-5.4-.09-1.83-.39-3.6-.75-5.4l-.1-.6a5 5 0 0 0-.36-1.1l.43-7.47 2.63-45.4 2.74-47.34 2.7-46.55 2.63-45.4 2.34-40.45c.11-1.9 1.8-3.4 3.7-3.3 1.9.12 3.4 1.8 3.3 3.7q-1.26 21.43-2.49 42.85l-2.7 46.64L17.04 293q-1.34 23.46-2.72 46.92l-2.7 46.59-2.42 41.85-.56-2.14zm96.92 77.88h-.1.05-.19l.33-.01z"/><path fill="#000" d="m115.69 503.92-2.75.05c-2.36.05-4.75.07-7.11.14h.03-.22q-5.47.15-10.93.32h-.84l-.76-.15-6.52-1.3q16.2-2.79 32.4-5.62 30.83-5.4 61.65-10.71c21.23-3.66 42.44-7.44 63.68-11.06 20.99-3.58 41.94-7.28 62.92-10.93l63.3-11 23.57-4.1-4.49 2.88c-.73.46-1.42.98-2.12 1.46l-1.37.95a743 743 0 0 0-10.75 4.95l-3.12.66-10.88 1.89-62.68 10.89-10 1.74c-1.3.09-2.62.3-3.91.48q-1.43.18-2.89.5l-.63.06q-1.03.1-1.87.58l-28.93 5.03a4 4 0 0 0-1.25 0c-2 .33-3.97.76-5.94 1.16l-2.43.5-.82.15-.59.1-4.9.85q-31.35 5.41-62.7 10.9-25.17 4.41-50.34 8.77a57 57 0 0 0-5.83-.16zm312.67-190.27-18.87-44.34-18.56-43.65-18.28-43-18.55-43.64-7.43-17.44.43.47.25.25q.23.54.5 1.07c.61 1.34 1.22 2.7 2.34 3.7a4.1 4.1 0 0 0 3.44.97q.63-.11 1.22-.4.92-.46 1.46-1.25 1.86 4.34 3.7 8.69l18.31 43.05 18.48 43.43q9.47 22.23 18.9 44.47 9.31 21.93 18.66 43.85l8.13 19.15.53 3.4.44 2.59.15 2.67q.2 3.22.47 6.44c.22 2.7.4 5.4.69 8.1l-16.4-38.55zm27.34 64.28q.36.1.72.13l.2 2.05-.94-2.18zM21.53 159.2a3.53 3.53 0 0 1-3.15-3.83A172 172 0 0 1 68.91 53.05c67.97-68.3 185.84-64.83 249.4 7.17l.68.75q-.38.24-.7.57a4 4 0 0 0-.87 1.37 7 7 0 0 0-3.1 1.27q-.47.09-.95.3-.27.11-.5.26a166 166 0 0 0-54.6-39.58C184.36-9.17 90.76 19.49 48.9 89.12a165 165 0 0 0-22.34 58.75c-1.3 3.53.42 10.47-4.2 11.26q-.4.06-.85.07z"/><path fill="#000" d="M118.63 504.56C61.14 511.4 6.75 465.22 4.1 407.42a102 102 0 0 1 .75-20.56c.28-1.9 1.87-3.33 3.83-3.13a3.53 3.53 0 0 1 3.13 3.83c-.53 4.38-.95 8.77-.92 13.18A99 99 0 0 0 14.17 426c10.16 40.52 48.8 71.18 90.48 72.08 8.7.28 17.64-.65 26.04-2.65 1.22-.34 2.53-.67 3.72 0 2.66 1.27 2.34 5.69-.6 6.43a111 111 0 0 1-15.2 2.7zm233.34-40.23c-3.02.27-4.78-3.8-2.69-5.87.89-1.02 2.25-1.14 3.5-1.23a100 100 0 0 0 25.46-6.13c39.02-14.66 65.32-56.38 61.5-97.98a98 98 0 0 0-5.29-24.92 104 104 0 0 0-5.22-12.13 3.5 3.5 0 0 1 1.69-4.65c1.78-.84 3.76 0 4.64 1.69a102 102 0 0 1 7.52 19.15c16.04 53.36-16.76 112.44-69.66 127.98l-1.4.3a68 68 0 0 0-4.12 1.06l-1.44.38-.34.1a110 110 0 0 1-14.16 2.25m-190.01-252.6c-1.83-10.48-3.63-20.97-5.48-31.45a3.53 3.53 0 0 1 2.93-4 3.54 3.54 0 0 1 3.98 2.94c2.28 12.8 4.47 25.63 6.72 38.45l2.1 12.06q-1.34.06-2.66.38-1.43.35-2.78.94-.68.3-1.32.7zm90.78 22.7-.45-3.25.94-.16.15.56q.34 1.27.66 2.55c.16.75.37 1.48.73 2.16.25.47.6.84.97 1.22l.14.14-2.65.46-.47-3.68zm-62.13 7.4 21.85-3.78 10.92-1.9a17 17 0 0 0 1.62 3.23q.3.8.66 1.59l.76 1.77-32.66 5.63-2.13.37a15 15 0 0 0-1.03-6.91M368.79 195c-.9.02-1.74.1-2.62.26q-.94.16-1.7.64l-.62-.07q-1.85-10.87-3.67-21.75c-1.4-8.45-2.9-16.9-4.23-25.36-.25-1.7 1.13-3.36 2.73-3.72 1.77-.4 3.88.76 4.19 2.64v.06q3.04 18.36 6.12 36.7l1.8 10.73a17 17 0 0 0-2.02-.13z"/><path fill="#000" d="M354.4 147.42C345.79 99.4 298.02 64 249.65 69.6c-52.5 4.48-92.95 53.92-87.11 106.1.37 2.7 1.16 6.64-2.49 7.3-1.82.3-3.78-.97-4.03-2.86a104 104 0 0 1 13.64-67.01c36.88-63.7 130.23-68.31 173.3-8.67a104 104 0 0 1 15.3 29.86c.69 4.02 6.25 14.79.2 15.95a3.54 3.54 0 0 1-4.05-2.86M190.54 248.77a26.2 26.2 0 0 1-18.67-6.3c-3.96-3.37-7.03-8.23-6.63-13.6q0-.26.04-.5v-.13a3.5 3.5 0 0 1 3.88-3.1 3.5 3.5 0 0 1 3.1 3.86 5 5 0 0 0-.04 1.4q.04.4.13.8l.28.95q.22.53.49 1.05.38.7.84 1.36.52.68 1.1 1.32.71.75 1.51 1.43.99.8 2.05 1.48 1.1.67 2.28 1.24 1.2.55 2.47.97 1.2.36 2.44.6 1.12.17 2.26.26 1.01.03 2.02-.05.73-.09 1.44-.23.62-.16 1.22-.37l.6-.25a3.56 3.56 0 0 1 4.64 1.73c.38.85.41 1.85.07 2.72a3.7 3.7 0 0 1-1.8 1.92l-.22.1-.37.14a19 19 0 0 1-5.11 1.2zm165.7-30.91a86 86 0 0 1-.94-3.5 4 4 0 0 0-.51-1.22c4.25-1.86 6.98-4.93 8.84-10.02.38-2.88.22-5.84.1-8.73a3.5 3.5 0 0 1 3.4-3.61c4.44.03 3.67 5.3 3.69 8.38.5 7.73-4.47 16.32-11.57 19.55q-1.06.43-2.4 1.02-.34-.91-.62-1.86z"/><path fill="#000" d="M149.06 151.1a39 39 0 0 1-7.81-7.96 41 41 0 0 1-5.49-10.17 41 41 0 0 1-2.48-16.91c.16-1.9.34-3.8.75-5.66.82-3.65 2-7.2 3.73-10.52a44 44 0 0 1 6.89-9.61 33 33 0 0 1 4.03-3.66 41 41 0 0 1 15.4-7.62 42 42 0 0 1 9.98-1.32h.54a41 41 0 0 1 2.28.12h.03l1.6.14c3.53.36 7.03 1.14 10.34 2.44q.19.07.38.18a40 40 0 0 1 8.26 4.4l-.24.2-2.94 2.58q-1.13 1-2.25 2.05a51 51 0 0 0-3.16-1.75 46 46 0 0 0-4.41-1.76 42 42 0 0 0-4.14-1.03 42 42 0 0 0-3.53-.45l-.5-.05-.94-.03h-.22q-1.91-.01-3.82.1a57 57 0 0 0-4.7.74q-2.24.58-4.46 1.35-2.25.92-4.4 2.03a59 59 0 0 0-3.6 2.28 56 56 0 0 0-3.46 2.88q-1.5 1.5-2.85 3.09a60 60 0 0 0-2.66 3.73 58 58 0 0 0-2.06 3.9 74 74 0 0 0-1.22 3.1q-.65 2.07-1.1 4.18a54 54 0 0 0-.6 4.75 52 52 0 0 0 .03 4.33 55 55 0 0 0 .67 4.6 56 56 0 0 0 1.23 4.39q.87 2.25 1.94 4.4a52 52 0 0 0 2.16 3.56 49 49 0 0 0 3.28 4.04q1.48 1.48 3.06 2.84 1.79 1.39 3.68 2.64 1.88 1.1 3.84 2.05.9.38 1.8.73l-.57 3.18q-.38 1.9-.73 3.8a41 41 0 0 1-11.56-6.27z"/><path fill="#000" d="M162.35 136.69a21 21 0 0 1-9.03-12.12 24 24 0 0 1-.8-3.9q-.16-1.27-.1-2.56.01-2.16.49-4.28a20 20 0 0 1 1.44-4.3 21.3 21.3 0 0 1 11.38-11.03 20 20 0 0 1 4.78-1.38 21 21 0 0 1 6.75-.05q1.1.15 2.14.42l.16.04a20 20 0 0 1 4.32 1.62q-2.06 2.89-3.98 5.9l-.53-.23q-1.03-.35-2.06-.63-.81-.16-1.62-.27-1.23-.09-2.45-.06-.76.06-1.52.16h-.03q-1.08.2-2.13.52-.84.29-1.63.64-.9.43-1.72.95-.74.48-1.4 1.02l-.09.07q-.7.63-1.37 1.3-.4.45-.78.95l-.53.69-.12.18-.53.86-.25.42q-.44.88-.8 1.78-.3.9-.55 1.84l-.03.2-.23 1.39q-.09 1.16-.09 2.3.08 1.05.25 2.1.2.9.47 1.78.26.72.56 1.42l.1.23q.5.98 1.06 1.9.46.66.94 1.27.75.84 1.56 1.6l.41.35.78.6.68.45.06.04a34 34 0 0 0-.87 4.48c-.07.62-.18 1.23-.25 1.85q-.39.29-.72.67-1.08-.55-2.12-1.2zm190.25-6.66-1.05-1.96-1.42-3.58q1.38-1.08 2.69-2.24a53 53 0 0 0 2.82-3q1.35-1.7 2.57-3.5a59 59 0 0 0 2-3.56q.86-1.9 1.56-3.87.78-2.51 1.3-5.08.3-2.16.45-4.33.05-2.41-.12-4.78a56 56 0 0 0-.73-4.44q-.6-2.27-1.4-4.5a56 56 0 0 0-1.8-3.92 59 59 0 0 0-2.27-3.63 60 60 0 0 0-2.46-3.07 50 50 0 0 0-3.66-3.47 56 56 0 0 0-2.9-2.14 51 51 0 0 0-3.9-2.2 49 49 0 0 0-4.43-1.76 42 42 0 0 0-4.14-1.03 42 42 0 0 0-3.53-.45l-.5-.05-.94-.03h-.23q-1.91 0-3.81.1-2.36.27-4.7.74-2.26.58-4.46 1.35-2.25.93-4.4 2.03a59 59 0 0 0-3.6 2.28 59 59 0 0 0-3.46 2.88q-1.5 1.5-2.85 3.09l-.55.7a5.6 5.6 0 0 0-3.44 1.17 25 25 0 0 0-4.3-2.3A47 47 0 0 1 300 69a33 33 0 0 1 4.02-3.66 41 41 0 0 1 15.4-7.62 42 42 0 0 1 10-1.32h.53q.99.04 1.94.1.18 0 .35.02h.03l1.6.14a39 39 0 0 1 10.32 2.44q.2.07.4.18a40 40 0 0 1 12.6 7.87 43 43 0 0 1 7.4 9 32 32 0 0 1 2.52 4.83c.71 1.74 1.44 3.5 1.9 5.33a42 42 0 0 1 1.55 11.2q-.05 3.01-.45 6-.44 2.8-1.2 5.5a40 40 0 0 1-4.52 10.06 40 40 0 0 1-7.15 8.63 46 46 0 0 1-4.12 3.3l-.5-.97z"/><path fill="#000" d="M341.35 112.37a3.5 3.5 0 0 0-1.84-1.55l-1.06-2.06.37-.3q.82-.73 1.6-1.53l.95-1.21q.49-.75.95-1.52.47-.94.87-1.93l.02-.1q.24-.71.44-1.45a34 34 0 0 0 .36-2q.07-1.05.06-2.13-.05-.75-.15-1.5l-.07-.5a29 29 0 0 0-.47-1.82l-.03-.1q-.3-.9-.72-1.78-.4-.8-.87-1.58-.62-.89-1.3-1.72l-1.06-1.1q-.75-.65-1.56-1.26-.85-.56-1.74-1.05l-.04-.01q-.67-.31-1.35-.6-1-.36-2.06-.63-.79-.16-1.61-.27-1.24-.09-2.46-.06l-1.5.16h-.04q-1.09.21-2.15.52-.82.28-1.63.64-.88.43-1.72.94-.68.45-1.34.97a186 186 0 0 0-5.94-4.1 23 23 0 0 1 6.82-4.51 24 24 0 0 1 4.78-1.38q2.1-.35 4.2-.27.52.01 1.04.05a25 25 0 0 1 3.81.63 20 20 0 0 1 7.9 3.92q.17.1.31.23a21.9 21.9 0 0 1 7.95 17.64q-.04.9-.15 1.8a21.6 21.6 0 0 1-8.32 14.54q-.67-1-1.25-2.04zm55 126.93-.98-1.61a55 55 0 0 0-3.83-5.24 54 54 0 0 0-4.17-4.36 53 53 0 0 0-4.29-3.48 45 45 0 0 0-4.23-2.61 41 41 0 0 0-3.84-1.72 42 42 0 0 0-3.25-1.01 35 35 0 0 0-3.37-.58 31 31 0 0 0-2.74-.1q-1.14.08-2.28.23-1.1.2-2.18.5-1.04.35-2.02.79l-.13.06-.48.25c-1.68.9-3.82.3-4.75-1.4a3.54 3.54 0 0 1 1.38-4.74 20 20 0 0 1 6.4-2.24c3.65-.65 7.27-.51 10.9.22 6.18 1.26 11.99 4.4 16.88 8.33a54 54 0 0 1 12.86 14.92l.15.23.12.19a3.54 3.54 0 0 1-2.46 5.14 3.6 3.6 0 0 1-3.68-1.77m-236.69 50.86c-8.71-.9 2.65-30.24 6.5-34.1 2.32-4.7 24.43-20.4 26.6-11.22.47 2.65-1.94 4.2-4.3 4.3a35 35 0 0 0-7.01 3.06c-10.42 5.03-14.96 16.3-17.25 26.99-1.17 3.65 1.16 11-4.53 10.98z"/><path fill="#000" d="M146.6 381.84q-.51.1-1.06.02a3.55 3.55 0 0 1-2.97-3.95v-.09c1.9-13.1 3.93-26.2 5.89-39.3l6.42-42.93c.72-4.75 1.4-9.5 2.13-14.25a3.54 3.54 0 0 1 3.96-2.98 3.53 3.53 0 0 1 2.97 3.95c-1.97 12.83-3.84 25.69-5.76 38.53q-3.27 21.67-6.49 43.34l-2.18 14.55-.01.13v.02a3.6 3.6 0 0 1-2.9 2.97z"/><path fill="#000" d="M225.65 485.7c-2.3.39-4.7.45-7.02.45q-5.26 0-10.44-1.04a65 65 0 0 1-20-7.62 83 83 0 0 1-17.1-13.23 100 100 0 0 1-13.94-17.75 107 107 0 0 1-9.56-20.11c-1.22-3.43-2.2-6.95-3.08-10.5a88 88 0 0 1-1.94-10.55c-1.19-9.77-1.13-19.7.81-29.37l.06-.28v-.04a3.53 3.53 0 0 1 4.19-2.65 3.54 3.54 0 0 1 2.65 4.18v.04c-.24 1.1-.41 2.2-.6 3.3q-.75 5.25-.9 10.57-.08 5.93.53 11.82.8 6.5 2.37 12.85 1.72 6.44 4.14 12.64 2.4 5.7 5.36 11.14 3.23 5.68 7.14 10.92 3.35 4.3 7.1 8.24 3.44 3.45 7.2 6.54 3.83 3 7.94 5.54a79 79 0 0 0 7.44 3.84q3.15 1.33 6.43 2.36 3.53 1.03 7.2 1.63 3 .42 6.03.53a52 52 0 0 0 7.13-.38 3.53 3.53 0 0 1 3.67 2.86 3.5 3.5 0 0 1-2.83 4.07zm97.12-314.36q-.66.06-1.33.09-2.86.12-5.67-.52a21 21 0 0 1-4.8-1.6l-.37-.17a23 23 0 0 1-8.35-6.7 24 24 0 0 1-2.87-4.72 22 22 0 0 1-1.87-6.3c-.4-2.7-.37-5.52.22-8.18a22 22 0 0 1 2.26-6.27l.12-.22.04-.08a23 23 0 0 1 2.64-3.82l.36-.45.81-.88a22 22 0 0 1 3.93-3.21 23 23 0 0 1 7.62-3.2l.06-.01q1.04-.25 2.1-.4 2.4-.31 4.8-.12a17 17 0 0 1 2.74.39q2.43.5 4.7 1.47l.4.14.42.18a24 24 0 0 1 10.3 9.52q.85 1.5 1.5 3.12a24 24 0 0 1 1.51 10.92l-.02.2a24 24 0 0 1-2.95 9.06q-.33.6-.68 1.17a22 22 0 0 1-5.13 5.6 24 24 0 0 1-3.75 2.46q-1.77.93-3.66 1.5l-.46.16a22 22 0 0 1-4.63.88zm1.83-7.36q.89-.24 1.76-.54l.4-.14a24 24 0 0 0 1.8-.84q.81-.48 1.61-1.01l.31-.21.47-.37q.63-.52 1.24-1.07a19 19 0 0 0 2.52-3.15l.08-.11a36 36 0 0 0 .95-1.82q.38-.9.7-1.82l.08-.28.05-.14q.24-.92.4-1.85.15-1.06.2-2.12 0-1.13-.07-2.23a33 33 0 0 0-.39-2.21q-.19-.7-.42-1.4l-.35-.96a29 29 0 0 0-.9-1.84l-.22-.36q-.45-.75-.97-1.45a27 27 0 0 0-1.35-1.58q-.74-.72-1.52-1.38a26 26 0 0 0-1.85-1.27q-.88-.5-1.8-.92-.9-.37-1.84-.68-1.03-.29-2.07-.5-1.21-.15-2.46-.21-1 0-2.01.09-1.2.16-2.4.44-.98.28-1.95.65-.86.37-1.68.79l-.19.1a27 27 0 0 0-1.93 1.26l-.17.13q-.7.57-1.37 1.19-.57.6-1.12 1.22l-.25.28q-.33.43-.63.88l-.55.8-.63 1.15-.4.8q-.38.96-.7 1.93-.27.97-.47 1.96-.13.94-.2 1.88l-.02.6q0 1 .08 2 .1.74.23 1.46l.2.95q.3 1 .65 1.97a23 23 0 0 0 .9 1.88l.2.35q.48.78 1.02 1.53.6.75 1.22 1.44.83.83 1.72 1.59.93.7 1.91 1.3.75.42 1.5.79 1.01.43 2.06.78 1.07.29 2.15.49a32 32 0 0 0 2.2.2q1.1 0 2.2-.1 1.05-.13 2.1-.35zm-113.05 24.51-1.34.09q-2.86.12-5.67-.52a21 21 0 0 1-4.8-1.6l-.37-.17a23 23 0 0 1-8.34-6.7 24 24 0 0 1-2.88-4.72 22 22 0 0 1-1.87-6.3c-.4-2.7-.37-5.52.22-8.18a22 22 0 0 1 2.26-6.27l.13-.22.04-.08a23 23 0 0 1 2.63-3.82l.38-.45q.38-.46.8-.88a22 22 0 0 1 3.94-3.21 23 23 0 0 1 7.61-3.2l.06-.01q1.04-.25 2.1-.4 2.41-.31 4.8-.12a17 17 0 0 1 2.75.39q2.41.5 4.69 1.47l.4.14.41.18a24 24 0 0 1 10.3 9.52q.87 1.5 1.5 3.12a24 24 0 0 1 1.52 10.92l-.01.2a24 24 0 0 1-2.95 9.06l-.69 1.17a22 22 0 0 1-5.12 5.6 24 24 0 0 1-3.77 2.46q-1.76.93-3.65 1.5l-.45.16a22 22 0 0 1-4.65.88zm1.83-7.36q.9-.24 1.77-.54l.38-.14a24 24 0 0 0 1.8-.84q.83-.48 1.63-1.01l.3-.21q.25-.18.48-.37.62-.52 1.22-1.07a19 19 0 0 0 2.53-3.15l.07-.11a36 36 0 0 0 .97-1.82q.37-.9.69-1.82l.09-.28.03-.14q.24-.92.41-1.85.14-1.06.2-2.12.01-1.13-.07-2.23a33 33 0 0 0-.38-2.21 23 23 0 0 0-.78-2.36q-.41-.94-.9-1.84l-.22-.36q-.45-.75-.97-1.45l-.66-.82q-.34-.39-.69-.76-.73-.72-1.53-1.38a26 26 0 0 0-1.84-1.27q-.89-.5-1.8-.92a31 31 0 0 0-1.84-.68q-1.03-.29-2.08-.5-1.21-.15-2.44-.21-1.02 0-2.03.09-1.2.16-2.38.44-.98.28-1.97.65-.85.37-1.66.79l-.2.1a27 27 0 0 0-1.92 1.26l-.18.13q-.7.57-1.37 1.19-.57.6-1.12 1.22l-.24.28-.65.88-.53.8q-.34.58-.63 1.15-.22.4-.4.8-.39.96-.72 1.93-.24.97-.46 1.96-.13.94-.2 1.88l-.03.6q0 1 .1 2 .09.74.22 1.46l.2.95q.3 1 .66 1.97a23 23 0 0 0 .88 1.88l.22.35q.47.78 1.01 1.53.6.75 1.22 1.44.84.83 1.72 1.59.95.7 1.92 1.3.72.42 1.5.79 1 .43 2.05.78 1.08.29 2.16.49a32 32 0 0 0 2.19.2q1.1 0 2.2-.1 1.05-.13 2.1-.35zm85.4.31q-.07 0-.13.02c-6.6.99-13.18 2.2-19.79 3.2l-.23.03a3.7 3.7 0 0 1-2.6-.6 3.5 3.5 0 0 1-1.43-2.27 3.5 3.5 0 0 1 2.87-4.03q.08 0 .17-.03l.18-.03.22-.03c6.54-1 13.06-2.2 19.6-3.17 1.88-.28 3.7.96 4.03 2.87a3.53 3.53 0 0 1-2.87 4.03z"/><path fill="#000" d="M290.5 200.73a10 10 0 0 1-3.93-.35 16 16 0 0 1-3.18-1.55 46 46 0 0 1-4.56-3.02c-2.12-1.62-4.19-3.51-5.23-6.03a10 10 0 0 1-.12-7.36 6.6 6.6 0 0 1 2.78-3.24c1.18-1.08 3.13-1.37 4.44-.32.5.42.95.85 1.24 1.46a3.6 3.6 0 0 1-.07 3.14 3.7 3.7 0 0 1-1.82 1.62l-.1.04-.02.06-.05.17-.02.15.01.8.07.4.16.47q.05.14.13.29l.21.33.55.62q.8.78 1.68 1.5 1.37 1.08 2.85 2.03c.92.56 1.83 1.13 2.79 1.59l.58.22h.13q.6 0 1.2-.04c.47-.06.95-.13.97-.1q.44-.07.86-.21a4 4 0 0 0 .93-.54q.56-.45 1.08-.95 1.33-1.34 2.54-2.78l.22-.32.13-.23.15-.4q.24-.92.41-1.86.13-.87.18-1.73 0-.83-.07-1.66-.07-.56-.18-1.1l-.07-.12-.04-.04-.01-.02-.6-.42a3.4 3.4 0 0 1-1.76-1.7 3.53 3.53 0 0 1 1.69-4.65c1.4-.61 2.79-.3 3.99.58.72.53 1.42 1 2.03 1.68a7.5 7.5 0 0 1 1.69 3.52 19 19 0 0 1-.13 7.8l-.33 1.35a10 10 0 0 1-1.61 3.4c-.54.77-1.2 1.45-1.81 2.13q-.93 1.03-1.96 1.98a13 13 0 0 1-3.78 2.54q-1.1.43-2.24.6-.98.17-2 .25zm8.24-19.22.1-.03q-.76.15-1.5-.02l.06.02h-.01l.44.08.46.02.45-.05z"/><path fill="#000" d="m259.86 206.42-.26-.38-.52-.7c3.43-2.13 8.06-2.92 11.7-4.12 6-1.97 11.64-5 17.89-6.28 2.31-2.7 6.75-.21 6.33 3.1-.2 2.37-2.56 3.32-4.6 3.65-2.77.72-5.5 1.6-8.2 2.55-5.63 2.78-11.7 4.2-17.62 6.22a6 6 0 0 0-1.16.42 40 40 0 0 0-3.57-4.46m-4.91 29.26q.11.2.25.4l-.15 1.08zm41.27 11.02c-11.23 2.29-22.6 3.66-34 4.74-5.2.79-6.06-2.41-6.42-6.13q.5.46 1.1.74a4 4 0 0 0 4.17-.57 4 4 0 0 0 2.13-1.07l.1-.1c16.3-1.33 32.27-4.81 48.46-6.93 4.54-.65 9.04-1.48 13.55-2.2a3.53 3.53 0 0 1 4.03 2.86 3.53 3.53 0 0 1-2.85 4.04l-3.17.55c-9 1.54-18.06 2.73-27.1 4.08z"/><path fill="#000" d="M297.7 199.19c-2.25-.61-5.26-.37-5.72-3.37-.3-6.25 7.31-3.68 10.84-2.34q6.81 1.62 13.5 3.59c-.5 2.3-.78 4.7-.77 7.07-5.94-1.71-11.94-3.15-17.85-4.94zm27.55 10.47.07.12.06.37zm-3.06 30.61a3.5 3.5 0 0 1 1.69-4.65 56 56 0 0 0 3.16-1.45c-.68-3.9-1.33-7.8-2.05-11.7q.28-.04.55-.15a4 4 0 0 0 2.53-3.52q0-.25.03-.5l.08.24c.3.76.63 1.56 1.18 2.18a4.6 4.6 0 0 0 1.9 1.34q.42.21.85.33 1.02 5.6 1.9 11.2c.4 2.24-.21 4.68-2.25 5.92-1.55.89-3.72 2.3-5.7 2.64-1.54.26-2.94-.12-3.87-1.87zm-13.11-.55-.13-.26a17 17 0 0 0-2.53-3.48 34 34 0 0 0-6.75-5.45 66 66 0 0 0-6.37-3.5 77 77 0 0 0-8.36-3.26 79 79 0 0 0-8.75-2.17q-3.66-.63-7.37-.85l-1.3-.03a29 29 0 0 0-2.42-7.01c2.84-.1 5.7.08 8.47.42a75 75 0 0 1 19.16 5.02c4.38 1.8 8.6 3.98 12.5 6.67a35 35 0 0 1 8.5 8.08 24 24 0 0 1 1.64 2.74q.07.1.1.2l.01.02a3.53 3.53 0 0 1-2.6 4.89 3.6 3.6 0 0 1-3.78-2.01z"/><path fill="#000" d="M201.46 238.25a80 80 0 0 1 4.23-21.26 81 81 0 0 1 10.3-20.06c4.3-6 9.32-11.38 15.05-16.03a81 81 0 0 1 16.52-10.3l1.13-.51.82-.36q.56-.25 1.1-.46a79 79 0 0 1 10.71-3.6 78 78 0 0 1 19.66-2.52h1c5.26 0 10.58.59 15.72 1.7a79 79 0 0 1 14.97 4.73 81 81 0 0 1 19.19 11.6 80 80 0 0 1 25.01 35.93h-.4q-1.14 0-2.23.16c-.56-1.73-1.25-3.42-1.88-5.13l-1.78-4.81c-1.2-3.2-2.4-6.42-3.97-9.45a4.3 4.3 0 0 0-1.69-1.83c-.35-.9-.69-1.78-1.24-2.56a4 4 0 0 0-3.78-1.54 4 4 0 0 0-6.26-.51 5 5 0 0 0-.91-.03l-1.03-.97c.2-.92.16-1.86-.25-2.78a4.2 4.2 0 0 0-3.22-2.47 7 7 0 0 0-1.12-1.17 4.1 4.1 0 0 0-4.06-.67 95 95 0 0 0-5.67-3.61 95 95 0 0 0-8.5-4.15 92 92 0 0 0-8.75-2.94 90 90 0 0 0-8.57-1.76 92 92 0 0 0-9.49-.73h-1.05a75 75 0 0 0-9.1.6 88 88 0 0 0-9.9 1.98 80 80 0 0 0-7.2 2.38l-1.34.54-.07.03-1.1.46a89 89 0 0 0-8.2 4.18 89 89 0 0 0-7.33 4.96 88 88 0 0 0-7.19 6.33 90 90 0 0 0-6.47 7.42 92 92 0 0 0-5.16 7.8 92 92 0 0 0-4.1 8.35 93 93 0 0 0-3.04 8.87 93 93 0 0 0-1.92 9.65 83 83 0 0 0-.59 7.37 33 33 0 0 0-6.59 2.38l-.41.2c0-1.78 0-3.58.13-5.38z"/><path fill="#000" d="m276.08 186.08-.68-.04h-.36q-.27 0-.5-.04c-5.74-.31-11.48-.51-17.2-.77l-17.74-.81-.61-.03c-1.92-.08-3.52-1.5-3.53-3.48 0-1.84 1.57-3.6 3.48-3.52 12.02.52 24.04 1.1 36.05 1.65q.53.01 1.06.05c.93.05 1.77.33 2.45.99a3.5 3.5 0 0 1 1.06 2.49 3.6 3.6 0 0 1-2.83 3.48q-.33.06-.65.04zm-22.02 12.99c-1.15-1.03-2.28-2.1-3.5-3.03 6.96-3.55 14.25-6.63 21.92-8.28q2.02-.46 4.12-.7a3.54 3.54 0 0 1 3.96 2.96c.27 1.84-1.06 3.76-2.95 3.97a35 35 0 0 0-3.8.63 74 74 0 0 0-8 2.35 115 115 0 0 0-9.66 4.08c-.67-.7-1.4-1.34-2.1-2zm-47.46 43.9a3.55 3.55 0 0 1-2.5-4.27c.49-2.2 1.47-4.27 2.56-6.22a50 50 0 0 1 6.05-8.22 87 87 0 0 1 6.63-6.78q.13 1.2.37 2.39l.51 2.4c.27 1.1.52 2.2.85 3.29a78 78 0 0 0-3.9 4.23 55 55 0 0 0-3.51 4.66q-.9 1.41-1.66 2.9-.47 1.02-.84 2.06-.17.52-.28 1.06a3.5 3.5 0 0 1-2.84 2.56q-.72.13-1.44-.06m110.18-49.98c-4.17-1.77-8.37-3.57-12.83-4.48-2.74.06-6.03-1.1-5.64-4.33 0-2.74 3.46-4.56 5.7-2.7a66 66 0 0 1 16.55 5.5v.29l-.13.14a5 5 0 0 0-1.08 1.83l-.03.12q-.66.91-1.1 1.98-.45.95-.8 1.94zm36.36 21.2c.54.86.92 1.75.96 2.6q-.46-1.3-.97-2.6"/><path fill="#000" d="M300.35 181.69c-2.29.58-4.7-1.43-4.42-3.71a3.5 3.5 0 0 1 3.43-3.32c2.93-1.25 5.91-2.38 8.84-3.63 4.21-2.05 7.28 4.2 3.09 6.29-3.66 1.4-7.23 3.17-10.93 4.37m31.77 9.8-.3-.31c-2.08-2.2-4.53-6.12-7.93-5.55-2.13 2.4-6.35 1.57-6.58-1.91.25-4.73 7.69-6.48 11.25-4.4 3.5 1.58 6.19 4.4 8.58 7.33a3.3 3.3 0 0 1 .54 3.62 4 4 0 0 0-4.04 1.15 4 4 0 0 0-1.52.07m-72.48 60.58a3.54 3.54 0 0 1 .4-4.93q.47-.44.99-.88.77-.8 1.48-1.65.73-.94 1.36-1.95.65-1.14 1.2-2.33.64-1.5 1.12-3.06.46-1.72.75-3.46.29-2.07.37-4.16.02-2.39-.24-4.75a47 47 0 0 0-.93-4.98 50 50 0 0 0-1.55-4.8 46 46 0 0 0-2.23-4.62 42 42 0 0 0-2.52-3.87 39 39 0 0 0-2.73-3.17q-1.2-1.2-2.52-2.3-1.28-1-2.67-1.87-1.22-.71-2.49-1.3-1.16-.5-2.37-.87-1.05-.3-2.11-.48-1.16-.17-2.3-.2a17 17 0 0 0-2.51.2 3.55 3.55 0 0 1-4.1-2.78 3.54 3.54 0 0 1 2.8-4.1l.27-.04.2-.03c5.44-.8 10.97.58 15.7 3.32 6.04 3.5 10.66 8.97 13.97 15.05a45 45 0 0 1 5.26 19.3c.29 6.77-1.15 13.6-4.71 19.4a23 23 0 0 1-2.94 3.79q-.8.8-1.62 1.54-.14.15-.33.3-.03.04-.1.08c-.5.4-1.1.66-1.7.76a3.4 3.4 0 0 1-3.23-1.15z"/><path fill="#000" d="M329.52 233.5c-1.26-.93-2.63-1.73-3.95-2.56a56 56 0 0 1-4.25-2.88c-1.5-1.15-3.06-2.3-4.38-3.66a41 41 0 0 1-2.1-2.3 18 18 0 0 1-1.71-2.53 31 31 0 0 1-2.6-5.4q-.46-1.3-.87-2.62a29 29 0 0 1-.99-8.48c.02-2.02.13-4 .43-6a25.4 25.4 0 0 1 6.38-13.56c.77-.87 1.65-1.62 2.53-2.37a3.6 3.6 0 0 1 2.94-1.18 3.55 3.55 0 0 1 3.18 3.8c-.12 1.75-1.65 2.75-2.86 3.83q-.66.69-1.3 1.42-.8 1.04-1.52 2.14-.55.97-1.03 1.98-.37.87-.68 1.77-.37 1.4-.69 2.83a51 51 0 0 0-.4 4.26 49 49 0 0 0 .22 5.12q.19 1.17.44 2.3.37 1.24.81 2.45.83 1.94 1.8 3.8.64 1.04 1.33 2l.76.9c1.1 1.1 2.24 2.1 3.44 3.09a64 64 0 0 0 4.72 3.29c1.45.92 2.95 1.79 4.33 2.82a3.54 3.54 0 0 1 .87 4.87 3.6 3.6 0 0 1-2.33 1.44 3.3 3.3 0 0 1-2.56-.58zm-105.02-.51c.57-.42 1-1.02 1.22-1.68q-.38-.99-.78-1.96l-.72-1.74a5 5 0 0 1-.31-1.41l-.06-.26-.17-.35q-.28-.62-.49-1.28a16 16 0 0 1-.32-1.42q-.11-.72-.15-1.44 0-.69.06-1.4.09-.68.22-1.37.18-.65.4-1.3.25-.65.59-1.3.32-.57.69-1.13.41-.56.86-1.08.5-.5 1-.95.58-.46 1.18-.86.6-.37 1.24-.67.67-.3 1.38-.53.67-.19 1.38-.32.71-.1 1.44-.14.7 0 1.43.06.67.1 1.35.23a12 12 0 0 1 2.47.92q.64.34 1.24.75.52.4 1 .8.53.5 1.01 1.06.46.56.85 1.16t.7 1.26q.3.7.53 1.4l.14.54a3.55 3.55 0 0 0 4.2 2.62 3.53 3.53 0 0 0 2.63-4.2l-.05-.16v-.04q-.01-.16-.09-.31a18.2 18.2 0 0 0-7.67-10.38 17.74 17.74 0 0 0-23.53 25.78l.09.12.16.2a3.5 3.5 0 0 0 4.9.75z"/><path fill="#000" d="m231.23 264.79-.06-.14-7.12-18.06-3.7-9.35c-.84-2.17-1.66-4.36-2.56-6.52l-.1-.23-.12-.3a3.53 3.53 0 0 1 1.9-4.56 3.54 3.54 0 0 1 4.57 1.9c1.15 2.7 2.16 5.47 3.24 8.2l4.07 10.36q2.77 7 5.52 14.02l-.18.29a5.6 5.6 0 0 0-.78 2.49q-.59.57-1.13 1.18-.36.19-.66.45l-2.9.3zm14.07 26.37a18 18 0 0 1-3.83-3.3l1.92-.02q1.81-.04 3.63-.14a97 97 0 0 0 7.63-.7l.16-.02.5-.11 1.17-.12q.7-.14 1.37-.32.7-.23 1.4-.53.62-.3 1.23-.67.6-.4 1.17-.86.52-.45 1-.95.46-.52.86-1.08l.7-1.12q.31-.65.58-1.31.22-.64.4-1.3.15-.67.23-1.38.05-.69.04-1.38-.03-.72-.14-1.44-.13-.72-.33-1.41-.18-.54-.4-1.07.16-1.02-.22-2.04a99 99 0 0 0-1.45-3.57l-.3-.72a3.4 3.4 0 0 1 1.83-1.7 3.5 3.5 0 0 1 4.11 1.18l.17.2.1.13a18 18 0 0 1 3 6.07 17.76 17.76 0 0 1-12.96 21.94q-.51.12-1.04.2c-4.3.74-8.85-.06-12.54-2.43z"/><path fill="#000" d="M268.71 271.68a3.54 3.54 0 0 0 1.92-4.57l-.12-.3-.1-.22c-.9-2.16-1.7-4.35-2.56-6.52l-3.69-9.36-7.12-18.07q-3.42-8.74-6.88-17.47v-.01l-.12-.34a3.53 3.53 0 0 0-4.57-1.9 3.53 3.53 0 0 0-1.9 4.57l13.29 33.73 4.07 10.36.7 1.76.19.4q.18.29.31.6.44.97.85 1.96.74 1.78 1.44 3.57.12.34.19.67a3.5 3.5 0 0 0 4.07 1.16l.06-.02z"/><path fill="#000" d="M252.83 294.38q-.17 0-.33-.03h-.03l-.18-.02a3.5 3.5 0 0 1-2.91-4 3.55 3.55 0 0 1 3.99-2.93l.54.07q.75.04 1.52.02.7-.06 1.43-.17.7-.15 1.4-.36.67-.24 1.35-.55.56-.3 1.13-.64.6-.4 1.14-.86.48-.42.93-.88.44-.51.86-1.07.39-.57.71-1.18.34-.64.58-1.3a17 17 0 0 0 .42-1.4q.13-.68.2-1.4.06-.74.03-1.48-.05-.6-.13-1.2a4 4 0 0 0 .3-2.7c-.54-2.36-1.28-4.7-1.95-7.03q-.66-2.27-1.34-4.53a17.8 17.8 0 0 1 9.93 18.58 18 18 0 0 1-7.12 11.78 18 18 0 0 1-12.5 3.28zm-56.55-29.03a3.5 3.5 0 0 1-3.53-3.47v-.04c0-1.87 1.56-3.5 3.47-3.5h.38l18.77.12 19.2.1.3 1.2q.42 1.58.92 3.1-.29.39-.53.78l-.22.23a6 6 0 0 0-2.12.98q-.61.33-1.16.7-17.73-.12-35.47-.2z"/><path fill="#000" d="M182.07 287.14a17.8 17.8 0 0 0 18.75 5.98l.25-.08a3.7 3.7 0 0 0 2.12-1.57 3.6 3.6 0 0 0 .4-2.7 4 4 0 0 0-.8-1.44h-.78q-1.92.04-3.85.02-1.1-.02-1.98-.55-.58 0-1.15-.03-.71-.07-1.44-.22-.7-.17-1.38-.4a20 20 0 0 1-1.28-.56q-.6-.34-1.19-.73a22 22 0 0 1-1.06-.84q-.52-.49-1-1.04-.41-.51-.78-1.06-.37-.6-.68-1.21a16 16 0 0 1-.5-1.28 17 17 0 0 1-.37-1.4q-.1-.7-.16-1.4 0-.75.03-1.5.07-.69.2-1.38a17 17 0 0 1 .42-1.4 19 19 0 0 1 .57-1.3q.34-.6.72-1.17.41-.56.87-1.07.44-.46.9-.88.57-.47 1.16-.86.56-.34 1.13-.64.67-.3 1.35-.55.7-.21 1.4-.36.71-.11 1.44-.17.75-.01 1.5.02l.55.06a3.54 3.54 0 0 0 3.98-2.93 3.55 3.55 0 0 0-3.09-4.02h-.03l-.31-.03c-4.44-.47-8.86.68-12.5 3.28a17.9 17.9 0 0 0-7.3 14.26 17.8 17.8 0 0 0 3.88 11.14"/><path fill="#000" d="M194.86 290.69a3.54 3.54 0 0 0 3.53 3.47h.33l.25-.01c2.34-.02 4.68.04 7.01.05l10.05.06 19.42.1 18.77.12h.37a3.54 3.54 0 0 0 3.47-3.5v-.03a3.54 3.54 0 0 0-3.53-3.47q-18.13-.09-36.26-.21l-11.13-.06-1.89-.02-.44.03a5 5 0 0 1-.67.07q-1.06.06-2.13.05-1.93.04-3.86 0-.36 0-.7-.06a3.54 3.54 0 0 0-2.6 3.36zm133.86-72.39c.52-.46.88-1.1 1.05-1.78l-.97-1.88-.87-1.67a5 5 0 0 1-.45-1.37l-.09-.25-.2-.33q-.34-.6-.6-1.23-.27-.67-.46-1.38a14 14 0 0 1-.28-1.42q-.08-.69-.09-1.38.03-.7.1-1.4.1-.65.27-1.31.2-.69.47-1.36.25-.6.57-1.2a13 13 0 0 1 1.68-2.18q.5-.51 1.07-.96.57-.41 1.18-.8.64-.35 1.32-.65.67-.25 1.34-.45.7-.17 1.43-.27.7-.06 1.41-.08a16 16 0 0 1 1.38.1q.69.1 1.34.27.61.18 1.22.4.66.29 1.28.64.56.33 1.1.7.56.45 1.1.96.49.51.96 1.08l.8 1.19q.37.67.67 1.35l.2.52a3.55 3.55 0 0 0 4.42 2.2 3.53 3.53 0 0 0 2.16-4.58l-.02-.04q-.03-.15-.11-.3a18.2 18.2 0 0 0-8.65-9.6 18 18 0 0 0-13.72-.93 17.8 17.8 0 0 0-10.43 9.53 17.8 17.8 0 0 0 3.16 19.29l.1.1.2.2a3.47 3.47 0 0 0 4.94.28z"/><path fill="#000" d="m347.04 266.26-.18-.32v-.01l-8.5-16.73-8.81-17.31-4.56-8.96c-1.06-2.08-2.07-4.2-3.17-6.25l-.12-.21-.14-.3a3.5 3.5 0 0 1 1.45-4.72c1.7-.9 3.84-.22 4.74 1.46 1.38 2.59 2.65 5.24 3.99 7.85l5.05 9.93 9.02 17.78c-.01.75.17 1.53.54 2.23q.2.39.5.72l.94 1.28.63.98.18.44c-.24.83-.2 1.73.15 2.57a520 520 0 0 0 4.39 9.23l.13.24a3.5 3.5 0 0 1-1.51 1.58l-.05.02q-.45.24-.97.32a3.5 3.5 0 0 1-3.72-1.8zm25.13-16.23.14-.07zm-.01.01-.12.05.1-.05zm-2.01-2.24q-.19-.33-.36-.68a3.5 3.5 0 0 1 1.64-1.86q.86-.45 1.84-.38c.94.07 1.72.5 2.38 1.16l.09.1-.2.58-.34.69-.14.24-.73.85q-.35.35-.73.69l-.75.52q-.21.12-.42.2l-.45.18-.58.13q-.6-1.2-1.25-2.4z"/><path fill="#000" d="M354.94 274.24a18 18 0 0 1-8.75-9.9v-.03l-.07-.15a3.53 3.53 0 0 1 2.21-4.43q.9-.29 1.77-.11l.22.45q1.39 2.93 2.82 5.85c1.01 2.07 2.14 4.09 3.23 6.13q.96 1.76 1.96 3.5a18 18 0 0 1-3.4-1.3zm17.23-24.21.14-.07zm-.03.02-.1.04zm-2-2.25-1.02-1.86q-.16-.31-.37-.56l-.23-.38-.85-1.68-5.04-9.93q-8.2-16.16-16.43-32.32a3.54 3.54 0 0 1 1.5-4.75 3.5 3.5 0 0 1 4.7 1.48l.15.33 8.51 16.74 15.04 29.64-.02.2-.15.77q-.19.63-.4 1.23-.14.34-.33.69l-.15.24q-.35.43-.72.85-.36.35-.74.69l-.74.52q-.2.12-.4.2l-.47.18-.57.13q-.6-1.2-1.26-2.4"/><path fill="#000" d="M385.72 250.24a3.55 3.55 0 0 1-2.52-4.27l.13-.54q.1-.75.17-1.5.01-.72-.04-1.44t-.21-1.42-.42-1.4q-.22-.6-.51-1.2-.35-.62-.75-1.22-.37-.52-.78-1a13 13 0 0 0-2.09-1.8q-.6-.4-1.24-.71-.66-.3-1.33-.54-.68-.2-1.37-.35-.75-.12-1.49-.18-.7-.01-1.4.02-.74.07-1.44.22-.66.16-1.31.38a18 18 0 0 0-1.27.55q-.58.31-1.14.68-.57.42-1.12.89-.49.45-.95.97l-.44.54-.41-.86-2.52-6.17q.88-.75 1.86-1.38a17.8 17.8 0 0 1 13.94-2.31 18 18 0 0 1 11 8.25A18.2 18.2 0 0 1 390 247.5v.04l-.05.16a3.5 3.5 0 0 1-4.26 2.5zM353.8 273.7a4 4 0 0 0-2.09-3.25l.55-5.2 1.9 5.78.9 3.05-1.26-.36z"/><path fill="#000" d="m383 277.36-.92.06a8 8 0 0 0-1.88-2.42l3.2-30.17a3.54 3.54 0 0 1 3.8-3.17h.04a3.54 3.54 0 0 1 3.08 4.16q-.97 9.35-1.97 18.68l-.48 4.42a61 61 0 0 0-3.1 6.3l-.92 2.09q-.44 0-.86.04"/><path fill="#000" d="M359.05 282.63c-6.76-3.7-9.6-11.48-13.36-17.78-1.67-3.61-7.27-10.68-.96-12.6a3.5 3.5 0 0 1 4.07 3.27 144 144 0 0 0 9.8 17.49c4.78 7.68 19 5.74 20.85-3.31.82-2.68.22-6.57 3.98-6.74 4.42.02 3.88 5.19 2.88 8.18q-.13.74-.33 1.45-.62 1.31-1.2 2.64l-.57 1.28c-2.76 4.32-7.61 7.13-12.8 8-4.22.73-8.66.17-12.37-1.87zM206.6 112.16l-1.39.2q-2.6.44-5.19.85-4.38.7-8.76 1.43c-.94.16-1.86.05-2.68-.48a3.5 3.5 0 0 1-1.5-2.16c-.4-1.8.75-3.86 2.64-4.18l8.1-1.32 5-.81 2.36-.4c.52-.07 1.05-.12 1.56-.25.8-.24 1.53-.3 2.37-.07 2.13.59 3.11 3.44 1.85 5.24-.38.53-.78.86-1.28 1.18l-.08.05.06-.04.02-.01q.03 0 .05-.03s.02 0 .13-.08l-.13.08-.06.04h-.02l-.02.02-.17.1h.01l.1-.05h-.05l-.08.07-.06.04.01-.01-.05.03-.13.08-.13.07-.14.08q-.48.27-1 .37-.68.11-1.34-.05m3.48 9.78-.42.06-.2.02c-5.97.85-11.96 1.79-17.94 2.7l-.2.03h-.03l-.26.04-.1.02a3.56 3.56 0 0 1-4.05-2.87 3.53 3.53 0 0 1 2.87-4.04c6.38-.97 12.77-1.98 19.16-2.88a3.55 3.55 0 0 1 4.05 2.87c.31 1.88-1 3.7-2.88 4.03z"/><path fill="#000" d="M188.69 124.72c-8.51-2.01-8.3-13.6-.63-16.6 6.16-2.27 8.6 6.36 2.16 6.75a3 3 0 0 0-1 2.14c.28.35.54.8 1.02.89a3.54 3.54 0 0 1 2.63 4.19 3.53 3.53 0 0 1-4.19 2.64zm21.45-3.17c-5.06.3-5.1-7.17-.04-7l.28-.25c.3-2.2-1.1-2.36-2.9-2.1a3.53 3.53 0 0 1-3.66-3.32c-.16-3.26 3.4-4.08 6-3.71 9.78.69 10.36 16.1.18 16.4l.13-.01zM316.37 92.6l-1.39.22-5.19.84q-4.38.7-8.75 1.43c-.94.16-1.87.05-2.69-.48a3.5 3.5 0 0 1-1.5-2.16c-.4-1.8.75-3.86 2.64-4.18l8.1-1.32 5-.81 2.37-.4c.52-.07 1.04-.12 1.55-.25a4 4 0 0 1 2.38-.07c2.13.59 3.1 3.44 1.84 5.24-.38.53-.78.86-1.28 1.18l-.07.05.06-.04.01-.01q.04 0 .06-.03l.13-.08-.13.08-.06.04h-.02l-.03.02-.17.1h.01l.08-.05h-.03l-.09.07-.06.04.01-.01-.05.03-.14.08-.11.07-.15.08q-.47.28-1 .37-.67.11-1.33-.05m3.49 9.77-.43.06-.2.02c-5.98.85-11.96 1.79-17.94 2.7l-.2.03h-.02q-.15.01-.27.04l-.1.02a3.56 3.56 0 0 1-4.05-2.87 3.54 3.54 0 0 1 2.88-4.04c6.38-.97 12.77-1.98 19.16-2.88a3.55 3.55 0 0 1 4.04 2.87 3.53 3.53 0 0 1-2.87 4.03z"/><path fill="#000" d="M298.46 105.17c-8.51-2.01-8.3-13.6-.63-16.6 6.16-2.27 8.6 6.36 2.17 6.75a3 3 0 0 0-1 2.14c.26.35.54.8 1 .89a3.54 3.54 0 0 1 2.64 4.19 3.53 3.53 0 0 1-4.19 2.64zm21.46-3.18c-5.06.3-5.1-7.17-.05-7q.15-.12.28-.25c.3-2.2-1.1-2.36-2.9-2.1a3.53 3.53 0 0 1-3.65-3.32c-.16-3.26 3.4-4.08 6-3.71 9.78.69 10.35 16.1.17 16.4l.13-.01zM284.8 475.48q-1.44.18-2.88.5h-.05c1.24-2.62 4.53-3.28 6.05-.92-1.05.1-2.09.27-3.13.4zm-45.35 6.58c-.44-4.32 6.3-5.2 6.94-.87q.08.46.13.97-1.63.31-3.23.66l-2.42.5-.84.15-.53.09zm128.89-23.19c-.96-3.93 4.9-5.96 6.56-2.28q.97 1.44 1.78 2.98l-.99.2c-1.22.27-2.44.5-3.66.79q-1.22.28-2.44.59-.6-1.14-1.25-2.27zm-37.38 9.72-1.34.22q-1.23.21-2.44.45c-2.04-5.07 4.36-8.72 6.53-3.18q.5 1.06.56 2z"/><path fill="#000" d="M231.14 526.06c-11.44-1.23-40.3 3.66-36.52-15.23 2.3-8.56 5.38-16.9 7.4-25.52.35-4.55 7.28-5.31 7.51-.35-.5 5.05-10.8 29.63-7.46 31.1 9.03 3.87 19.44 2.42 29.07 3 6.94.3 11.9.39 8.74-8.11-1.09-10.17 4.72-19.6 7.28-29.2a3.54 3.54 0 0 1 4.3-2.45c1.76.48 3.05 2.5 2.45 4.3-2.3 7.3-5.22 14.43-7.03 21.87-.85 3.4.68 6.65 1.02 10 .75 9-9.65 11.52-16.78 10.59zm80.62-1.04c-8.9-2.94-8.14-14.53-11.21-21.84-3.51-10-6.17-20.3-10.29-30.08-1.78-4.13 4.72-6.93 6.45-2.72 6.58 15.27 9.84 31.9 15.86 47.27 6.29 1.84 28.25 1.53 34.05-1.6-5.37-7.87-6.63-16.8-7.72-26.06-1.71-8.2-4.69-16.1-5.94-24.38-1.21-6.8 10.03-6.8 7.06.09 3.3 12.86 6.44 25.69 8.35 38.84 3.01 5.55 9.56 14.13.9 18.06-11.67 4.5-25.25 3-37.52 2.43z"/><path fill="#a26045" d="m309.83 61.48-.87.48a46 46 0 0 0-4.96 3.38 33 33 0 0 0-4.04 3.66l-.94 1.05c-33.9-13.7-74.1-8.87-103.52 13.62a40 40 0 0 0-6.3-3.12l-.37-.18a40 40 0 0 0-10.34-2.44q-.8-.09-1.59-.14h-.03l-.34-.02-1.96-.1h-.53q-.2 0-.4.03a41.6 41.6 0 0 0-20.02 5.54 45 45 0 0 0-4.97 3.38 33 33 0 0 0-4.03 3.66 44 44 0 0 0-6.87 9.6 42 42 0 0 0-3.74 10.53 42 42 0 0 0-.72 11.55 41 41 0 0 0 4.83 16.27 49 49 0 0 0 3.12 4.92 39 39 0 0 0 7.8 7.97 40 40 0 0 0 6.6 4.16c-.88 8.26-.78 16.62.36 24.86.07.6.34 1.14.7 1.59q2.65 15 5.24 30l3.27 18.82c.26 4.7 3.1 8.9 6.63 11.93a27 27 0 0 0 5.88 3.8c-5.46 3.3-10.53 7.67-11.57 9.8-2.89 2.88-9.97 20.04-9.7 28.87l-1.58 10.64-6.44 42.94c-1.96 13.1-3.97 26.19-5.87 39.3l-.02.07v.02a3.3 3.3 0 0 0 .18 1.65 94 94 0 0 0-.19 25.82 88 88 0 0 0 1.94 10.55 106 106 0 0 0 12.65 30.59 99 99 0 0 0 13.92 17.76 84 84 0 0 0 17.1 13.23 65 65 0 0 0 12.62 5.67q-10.09 1.77-20.14 3.5-30.84 5.33-61.67 10.7-.67.14-1.34.24c-4.31.44-8.69.6-12.98.46-41.69-.91-80.32-31.56-90.48-72.08a98 98 0 0 1-3.27-25.26q0-1.04.02-2.05v-.04l.34-5.81q.24-2.63.56-5.3a3 3 0 0 0-.17-1.47l2.67-46.13 2.72-46.92L19.7 247l2.7-46.64 2.48-42.84v-.17c1.38-2.5.71-6.9 1.67-9.48a165 165 0 0 1 22.34-58.75c41.9-69.63 135.5-98.3 209.4-63.95a166 166 0 0 1 51.55 36.32z"/><path fill="#a26045" d="M208.35 112.1c1.36-.06 2.28.36 2.03 2.2q-.12.12-.28.24a3.8 3.8 0 0 0-2.37.65c-5.88.84-11.76 1.76-17.64 2.66-.4-.14-.63-.53-.87-.85a3 3 0 0 1 1-2.14 6 6 0 0 0 1.54-.3l8.25-1.34 5.19-.84 1.38-.21a3 3 0 0 0 1.75-.06zm109.78-19.55c1.36-.07 2.29.35 2.04 2.18l-.29.25a3.7 3.7 0 0 0-2.37.65c-5.9.84-11.76 1.76-17.64 2.66-.4-.14-.64-.53-.89-.85 0-.82.41-1.6 1-2.14a6 6 0 0 0 1.56-.3l8.25-1.34 5.2-.84 1.38-.21a3 3 0 0 0 1.75-.06m-20.5 90.41q.07.82.06 1.66-.05.87-.18 1.73-.18.94-.42 1.87l-.13.39-.13.23-.24.32q-1.2 1.44-2.52 2.78l-.25.23q-.74.3-1.2.95l-.28.17-.3.14q-.4.14-.84.22c-.02-.04-.5.03-.99.09q-.59.05-1.19.04h-.12l-.06-.01-.53-.21c-.97-.46-1.88-1.04-2.8-1.6a40 40 0 0 1-2.86-2.02q-.86-.75-1.68-1.51l-.53-.61-.23-.33-.13-.3-.15-.46-.07-.4q-.04-.4-.03-.8l.05-.14q0-.1.03-.17l.03-.06.1-.05a4 4 0 0 0 1.19-.8c5.35-.83 10.7-1.8 16.07-2.62l.02.02.04.04.07.12.18 1.1zm-32.14 92.88q0 .7-.06 1.39-.08.7-.23 1.38-.17.66-.38 1.3-.27.67-.6 1.3-.3.6-.69 1.13a13 13 0 0 1-1.87 2.03q-.56.45-1.16.86-.6.36-1.24.68-.68.29-1.38.52-.68.19-1.37.32-.6.08-1.19.12-.23.08-.49.1l-.16.03q-2.14.28-4.3.46-16.05-.08-32.09-.18l-11.12-.07-1.9-.02-.44.03a5 5 0 0 1-.66.07l-1.36.04h-.78l-2.1.02h-.1l-1.66-.01h-.18l-.18-.02-.33-.05a4 4 0 0 1-1.28-.48q-.59 0-1.15-.03-.71-.07-1.44-.22-.7-.17-1.38-.4a20 20 0 0 1-1.28-.56q-.6-.34-1.19-.73a14 14 0 0 1-1.05-.84q-.52-.49-1-1.04-.41-.52-.78-1.05-.37-.6-.69-1.21-.28-.62-.51-1.28a17 17 0 0 1-.37-1.4q-.11-.7-.16-1.4 0-.75.03-1.5.06-.69.2-1.38.18-.7.41-1.4.28-.65.6-1.3.33-.6.72-1.17.4-.57.86-1.07.44-.46.9-.88a11 11 0 0 1 6.45-2.58h1.11a5 5 0 0 1 .94.08q.68.1 1.31-.07 16.5.08 33 .19.58-.37 1.17-.7l.47-.3.75-.07q.33-.27.66-.45l.13-.13.12-.03.2-.23.22-.32.47-.47c.03-.88.35-1.75.78-2.5l.17-.28-5.5-14.02-4.09-10.36-1.62-4.2.07-.2-.8-1.96-.7-1.74a5 5 0 0 1-.33-1.41q-.01-.14-.06-.26l-.16-.35q-.28-.63-.48-1.28-.2-.69-.34-1.41-.1-.72-.13-1.44 0-.69.04-1.4.08-.68.24-1.37.15-.66.38-1.3.28-.66.6-1.3.3-.58.69-1.12.41-.56.87-1.07.47-.5 1-.95.57-.46 1.16-.86.61-.36 1.25-.67.67-.3 1.38-.53.69-.18 1.38-.32.72-.1 1.44-.14.71 0 1.43.06.68.08 1.36.23.66.16 1.3.39.6.25 1.17.52.62.34 1.22.75.53.38 1.03.8.52.5 1 1.06.46.56.85 1.16.37.6.7 1.26.14.3.25.62l.08.2.07.2v.03q.08.17.13.36l.14.53q.16.68.56 1.2l12.38 31.43 4.07 10.36.7 1.76.19.39q.18.28.31.6.3.6.55 1.24l.3.72.74 1.79.7 1.79.06.18q.06.16.1.33 0 .07.04.17.11.67.03 1.36l.4 1.07q.2.7.32 1.4.12.73.14 1.45zm106.65-25.79.02-.01zm11.33-7.56q.05.72.04 1.44l-.07.7-.03.2v.05q-.02.29-.06.56l-.12.54q-.16.68-.07 1.34-.84 8.17-1.72 16.34c-1.55 1.26-1.33 4-1.97 6.05-1.84 9.05-16.06 11-20.85 3.3a144 144 0 0 1-9.8-17.48q-.02-.62-.25-1.16l.05-.23-.18-.45q-.3-.5-.62-.98l-.94-1.3a4.5 4.5 0 0 1-1.05-2.95l-9.02-17.77-5.06-9.93q-1.02-2.02-2.01-4.03l.04-.2-.96-1.88q-.46-.83-.87-1.66a5 5 0 0 1-.45-1.37l-.1-.25-.2-.33q-.34-.6-.6-1.23-.26-.67-.46-1.38a14 14 0 0 1-.28-1.42q-.08-.69-.09-1.38l.1-1.4q.1-.66.27-1.31.2-.69.47-1.36.27-.6.57-1.2.37-.58.77-1.14.45-.54.9-1.04.54-.51 1.09-.96.56-.41 1.17-.8.64-.35 1.32-.65.67-.25 1.34-.45.72-.16 1.43-.27.7-.06 1.43-.08.68.03 1.38.1.67.12 1.35.28l1.2.4q.67.29 1.3.64l1.08.7q.57.45 1.1.96.5.51.97 1.08.43.58.8 1.19l.31.6.13.26.22.49.2.52q.23.66.67 1.16 3.22 6.28 6.4 12.55c-.47.98-.49 2.15.07 3.17a3.5 3.5 0 0 0 2.41 1.73q3.22 6.3 6.42 12.63l.4.8.77 1.87.4.86.13-.17 4.2 8.24.23.38.37.56.66 1.18.2.38.15.3q.34.6.65 1.2l.61 1.2.24-.04.34-.08.45-.17.42-.22.75-.52q.38-.33.73-.7l.38-.41.36-.43.14-.24q.2-.34.34-.7l.2-.57.2-.66q.1-.4.16-.77l.01-.2-1.69-3.37q-2.06-4.09-4.16-8.18l.19-.05q.7-.15 1.43-.22.7-.05 1.4-.02.74.06 1.47.18.7.15 1.38.35.69.24 1.34.54.62.34 1.23.7.58.41 1.1.85.52.45.99.96l.78 1q.41.6.75 1.23a11 11 0 0 1 .93 2.58q.13.71.22 1.42zm-44.56 247.5c1.07 9.27 2.33 18.19 7.7 26.06-5.8 3.13-27.76 3.43-34.05 1.59-5.63-14.34-8.84-29.81-14.6-44.24l.75-.13 28.2-4.9q.08.45.27.9a96 96 0 0 1 6.24-1.04c1.42 7.34 3.96 14.44 5.5 21.77zm-92.38-7.82.56-.11c-2.6 9.5-8.28 18.84-7.2 28.89 3.16 8.5-1.8 8.4-8.75 8.1-9.6-.57-20.03.88-29.06-3-2.78-1.22 3.9-18.48 6.5-27.13l25.99-4.5q2.44-.44 4.9-.85h.06l.47-.08h.04l.84-.15 2.42-.5 3.22-.65z"/><path fill="#f7b984" d="M211.37 121.42c8.74-1.58 7.8-15.6-1.55-16.27l-.32-.04a4 4 0 0 0-2.76-.07q-.76.16-1.56.26l-2.36.39-5 .8-7.7 1.26a6 6 0 0 0-2.08.38c-7.66 3-7.88 14.58.62 16.59q.6.15 1.16.07.53.08 1.1 0l.1-.01.27-.04h.03l.2-.04c5.98-.91 11.95-1.85 17.94-2.7l.2-.02.42-.06q.71-.12 1.3-.51m21.46 46.06a24 24 0 0 0-3.02-14.04 23 23 0 0 0-4.98-6.03 24 24 0 0 0-5.32-3.5l-.4-.18-.42-.14a24 24 0 0 0-7.43-1.86 22 22 0 0 0-6.96.54c-2.7.62-5.32 1.66-7.62 3.2a22 22 0 0 0-4.74 4.09l-.38.45a22 22 0 0 0-2.67 3.9q-.07.1-.12.22a22 22 0 0 0-2.27 6.27 23 23 0 0 0-.2 8.18c.3 2.18.9 4.32 1.85 6.3a24 24 0 0 0 2.88 4.7l.2.26a23 23 0 0 0 8.51 6.62c1.51.7 3.16 1.28 4.8 1.6a22 22 0 0 0 7 .42q1-.07 2-.25 1.34-.23 2.64-.62l.45-.14q1.88-.6 3.65-1.51a24 24 0 0 0 5.51-3.98 22 22 0 0 0 4.05-5.24 23 23 0 0 0 2.02-4.6 21 21 0 0 0 .95-4.66zm130.95 28.02c.1 2.54.18 5.1-.15 7.62-1.18 3.22-2.7 5.63-4.76 7.45q-3.14-6.21-6.32-12.42v-.01l-.12-.23-.07-.14a18 18 0 0 0-7.89-7.94 17 17 0 0 0-5.07-1.64 70 70 0 0 0-7.55-7.02 84 84 0 0 0-16.27-10.3q.1.04.2.05a22 22 0 0 0 7 .43 21 21 0 0 0 5.1-1.02q1.87-.6 3.64-1.51 2.01-1.05 3.76-2.46a22 22 0 0 0 5.81-6.76 23 23 0 0 0 2.02-4.6c.46-1.45.8-2.94.93-4.46l.02-.21a23.7 23.7 0 0 0-3-14.03 23 23 0 0 0-4.99-6.02 24 24 0 0 0-5.32-3.5l-.4-.18-.42-.14a24 24 0 0 0-4.69-1.47l-.27-.07q-1.22-.25-2.47-.32a22 22 0 0 0-6.9.52h-.06a23 23 0 0 0-12.36 7.3l-.38.45a22 22 0 0 0-2.63 3.82l-.04.07-.12.22a22 22 0 0 0-2.28 6.27 23 23 0 0 0-.2 8.18c.3 2.18.9 4.32 1.85 6.3a24 24 0 0 0 2.88 4.7l.2.26a23 23 0 0 0 5.73 5.14q-1.45-.52-2.94-1.01a79 79 0 0 0-23.27-3.68h-1a78 78 0 0 0-19.66 2.53 80 80 0 0 0-10.73 3.59q-.55.22-1.09.46-.41.16-.82.36l-1.14.52q-1.33.63-2.64 1.28a82 82 0 0 0-13.87 9.01 83 83 0 0 0-15.05 16.03 81 81 0 0 0-10.29 20.07 81 81 0 0 0-4.33 22.98q-2.67.44-5.33.92a3.8 3.8 0 0 0-2.7.06l-.59.25a13 13 0 0 1-2.68.59q-1 .07-2.02.04a22 22 0 0 1-2.27-.26q-1.23-.24-2.43-.6-1.26-.43-2.48-.97-1.17-.57-2.28-1.24-1.05-.69-2.04-1.48-.8-.68-1.52-1.43-.57-.64-1.09-1.32-.45-.66-.86-1.36-.25-.52-.48-1.05l-.29-.94q-.08-.4-.13-.81-.03-.38-.02-.76l.07-.64a3.3 3.3 0 0 0-.62-2.4l-1.56-8.93q-3.33-19.23-6.7-38.45-.16-.79-.58-1.41-.12-1.1-.27-2.08c-5.84-52.2 34.61-101.63 87.11-106.11 22.77-2.63 45.4 3.8 63.88 16.38l-.9.15-5 .8-7.7 1.26a6 6 0 0 0-2.08.38c-7.66 3-7.88 14.58.63 16.59q.57.15 1.15.07a4 4 0 0 0 1.2-.01l.26-.04h.03q.1 0 .2-.03c5.98-.91 11.95-1.85 17.93-2.7l.2-.02.42-.06q.71-.13 1.3-.51a7.1 7.1 0 0 0 5.65-5.1c14 13.48 24.07 31 27.6 50.65a3.6 3.6 0 0 0 1.73 2.44c1.27 8.08 2.7 16.15 4.04 24.22l3.61 21.42z"/><path fill="#f7b984" d="m188.9 88.03.82.42a99 99 0 0 0-9.18 9.34q-.47-.16-.97-.27l-.19-.04a19 19 0 0 0-3.62-.6l-1.04-.05a21 21 0 0 0-9 1.65 21.4 21.4 0 0 0-11.37 11.03 20.5 20.5 0 0 0-1.94 8.57 17 17 0 0 0 .31 3.85q.22 1.33.6 2.6a21 21 0 0 0 2.88 6.18 21 21 0 0 0 3.7 4.15 105 105 0 0 0-3.2 12.98l-.44-.25a56 56 0 0 1-3.69-2.64 55 55 0 0 1-3.04-2.84 51 51 0 0 1-3.3-4.04 54 54 0 0 1-2.16-3.56 55 55 0 0 1-1.92-4.4 51 51 0 0 1-1.25-4.38 56 56 0 0 1-.66-4.61 63 63 0 0 1-.03-4.33q.2-2.39.6-4.75.47-2.11 1.1-4.18.57-1.56 1.22-3.1a56 56 0 0 1 2.06-3.9 57 57 0 0 1 2.66-3.73 56 56 0 0 1 2.86-3.1 53 53 0 0 1 3.44-2.87 59 59 0 0 1 3.6-2.28 58 58 0 0 1 4.4-2.03q2.2-.76 4.47-1.35 2.32-.47 4.69-.73 1.9-.12 3.81-.11h.23q.47.04.94.03l.5.05q1.79.15 3.53.45a47 47 0 0 1 4.14 1.03q2.25.77 4.42 1.76z"/><path fill="#f7b984" d="M173.23 103.86q1.21-.03 2.44.06a104 104 0 0 0-6.02 9.2c-2.75 4.6-5.12 9.42-7.12 14.38l-.68-.92a27 27 0 0 1-1.16-2.14q-.3-.7-.56-1.42-.25-.89-.45-1.8-.18-1.03-.25-2.08-.01-1.16.07-2.3l.24-1.38.03-.21q.24-.93.55-1.84.36-.9.8-1.8l.25-.41.51-.86.13-.18a32 32 0 0 1 1.31-1.64q.66-.69 1.38-1.3l.09-.06q.68-.53 1.4-1.02a26 26 0 0 1 1.72-.95q.8-.34 1.63-.64 1.06-.31 2.14-.52h.03q.75-.1 1.51-.16zm190.15-9.74q.16 2.38.13 4.78a58 58 0 0 1-.46 4.33q-.53 2.57-1.3 5.08a54 54 0 0 1-1.56 3.87 54 54 0 0 1-2 3.57 54 54 0 0 1-2.56 3.5q-1.14 1.3-2.36 2.52-2.85-6.04-6.44-11.66a21 21 0 0 0 4.07-10.25q.12-.9.17-1.8.07-1.77-.15-3.53a22 22 0 0 0-7.8-14.11l-.31-.23a21 21 0 0 0-2.71-1.83 21 21 0 0 0-5.2-2.1q-.1 0-.17-.03a26 26 0 0 0-4.68-.65 21 21 0 0 0-5.38.52 19 19 0 0 0-3.62 1.14 24 24 0 0 0-4.07 2.25 99 99 0 0 0-11.18-6.4q.12-.14.25-.25a55 55 0 0 1 3.45-2.88 59 59 0 0 1 3.6-2.28 58 58 0 0 1 4.4-2.03q2.2-.77 4.46-1.35 2.33-.47 4.7-.73 1.9-.14 3.81-.11h.23q.47.04.94.03l.5.05q1.78.15 3.54.45a50 50 0 0 1 4.13 1.03q2.25.75 4.43 1.76 1.99 1.01 3.9 2.2 1.5 1.02 2.9 2.14a52 52 0 0 1 3.65 3.46q1.3 1.5 2.48 3.07a55 55 0 0 1 2.26 3.63 56 56 0 0 1 1.8 3.93q.8 2.2 1.4 4.49.45 2.2.73 4.44z"/><path fill="#f7b984" d="M344.07 96.57q.01 1.08-.06 2.14 0 .14-.05.29a34 34 0 0 1-.3 1.7l-.45 1.47-.02.09q-.33.8-.7 1.58a100 100 0 0 0-19.3-19.88l.06-.03a25 25 0 0 1 1.63-.64q1.06-.31 2.13-.52h.05q.75-.1 1.5-.16 1.22-.03 2.44.06.81.12 1.63.27 1.04.27 2.06.62.7.28 1.37.6h.01q.9.5 1.75 1.06.81.6 1.56 1.27.55.52 1.06 1.09.67.84 1.3 1.72.46.78.88 1.58.4.88.71 1.79.01.05.04.09.26.9.45 1.83.06.24.07.49.1.75.16 1.5zm-43.92 76.05 2.4.7-3.2 1.33h-.14a3.4 3.4 0 0 0-1.6-.12c-6.54.98-13.05 2.18-19.59 3.17l-.21.03-.19.03q-.08 0-.17.03c-.87.13-1.6.6-2.12 1.25l-.33-.01h-.02l-26.24-1.21q1.79-.89 3.57-1.7l1.1-.46.06-.03 1.35-.54q1.32-.5 2.64-.96 2.25-.78 4.55-1.42a88 88 0 0 1 9.9-1.98 77 77 0 0 1 9.11-.6h1.05q4.71.11 9.49.73 4.32.67 8.57 1.75zm-27.16 15.05-.5.1a81 81 0 0 0-16.62 5.7l-.81-.48c-4.75-2.74-10.28-4.12-15.72-3.32l-.2.03-.26.05a3.54 3.54 0 0 0-2.8 4.09 3.54 3.54 0 0 0 4.08 2.8l.78-.12q.86-.07 1.74-.1 1.14.05 2.3.2 1.06.2 2.1.49 1.21.38 2.38.87 1.28.59 2.48 1.3 1.4.87 2.69 1.88 1.3 1.08 2.51 2.29a41 41 0 0 1 2.73 3.17 41 41 0 0 1 2.52 3.87q1.25 2.25 2.22 4.63a45 45 0 0 1 1.56 4.79q.6 2.47.93 4.98.24 2.37.22 4.75a36 36 0 0 1-.36 4.16 34 34 0 0 1-.75 3.46 30 30 0 0 1-1.11 3.05q-.56 1.2-1.22 2.33-.63 1-1.34 1.95l-.5.57-.05.03-4.94-12.56-6.89-17.47-.12-.34-.04-.1a18 18 0 0 0-7.09-8.6 17.77 17.77 0 0 0-27.16 14.84 85 85 0 0 0-5.7 6.52q.36-1.74.8-3.46a90 90 0 0 1 3.03-8.87 87 87 0 0 1 4.1-8.35 88 88 0 0 1 5.17-7.8 88 88 0 0 1 6.45-7.42 88 88 0 0 1 7.2-6.32q.67-.52 1.38-1 .4.1.83.12l.62.03 17.75.8c5.16.24 10.32.42 15.5.69q0 .89.13 1.76zm45.77-7.14q-.4.27-.74.62c-.87.75-1.77 1.5-2.54 2.37q-.42.46-.8.95a61 61 0 0 0-10.19-2.9l-.14-.9-.1-.43c2.35-.96 4.67-2.02 7.02-2.92q.37-.18.67-.4 2.79 1.31 5.48 2.8zm-7.83 10.06a25 25 0 0 0-1.47 4.55q-3.3-.87-6.62-1.66l-.57-.21.02-.03a10 10 0 0 0 1.61-3.41q.19-.63.3-1.26c2.3.48 4.54 1.2 6.73 2.03z"/><path fill="#f7b984" d="M278.83 195.8q1.03.8 2.1 1.5c-3.38 1.3-6.72 2.78-10.17 3.9-1.58.53-3.36.97-5.13 1.49a38 38 0 0 0-3.6-4.24q1.88-.78 3.79-1.48a73 73 0 0 1 8.16-2.4 44 44 0 0 1 2.8-.48q.99.91 2.05 1.7zm45.07-10.17c2.49-.42 4.46 1.57 6.16 3.52a17.8 17.8 0 0 0-9.75 9.28 17.8 17.8 0 0 0 .87 16.13q0 .82.38 1.6l.14.3.13.2q1.26 2.41 2.46 4.86a41 41 0 0 1-3.25-2.93q-.37-.45-.77-.9-.69-.98-1.32-2a53 53 0 0 1-1.8-3.82q-.45-1.21-.82-2.44-.26-1.15-.45-2.31-.26-2.55-.21-5.12.04-.99.13-1.96.2-1.5.51-2.98l-.1-.03.54-2.13q.3-.84.62-1.66l.03.02.24-.6q.38-.76.81-1.51.74-1.1 1.51-2.14l1.31-1.42 1-.86a4 4 0 0 0 1.63-1.11M220.17 236.7l-7.72 1.35-.82.14.37-.84q.75-1.5 1.66-2.91a54 54 0 0 1 3.5-4.65l.24-.27a4 4 0 0 0 .3.95l.1.23c.82 1.99 1.57 4 2.36 6m219.57 116.43c3.82 41.6-22.47 83.32-61.5 97.98q-3.7 1.43-7.49 2.54l-.2.04-63.3 10.99c-20.97 3.65-41.93 7.36-62.92 10.93l-18.69 3.22q-.42-.09-.84-.06-.47.04-1.03.12-3.05.3-6.11.26a58 58 0 0 1-6.05-.54q-3.62-.6-7.2-1.62a73 73 0 0 1-6.43-2.36 80 80 0 0 1-7.43-3.83 87 87 0 0 1-7.94-5.54 97 97 0 0 1-7.2-6.54 105 105 0 0 1-7.1-8.23q-3.9-5.25-7.14-10.93a117 117 0 0 1-5.34-11.14 117 117 0 0 1-4.16-12.64 112 112 0 0 1-2.37-12.85q-.61-5.89-.54-11.82.15-5.3.9-10.56c.19-1.11.36-2.21.6-3.31v-.04a3.6 3.6 0 0 0-.22-2.11l1.65-10.92q3.23-21.68 6.48-43.34c1.63-10.84 3.2-21.68 4.84-32.51.66-1.3.72-3.12.75-4.92l.18-1.1q.09-.68-.08-1.32a9 9 0 0 1 .33-1.8c2.28-10.68 6.83-21.96 17.23-26.98a35 35 0 0 1 7.02-3.06 6 6 0 0 0 1.72-.34l.34-.02q.56-.05 1.1-.14v.1l2.13-.36 29.03-5 1.28 3.2 4.7 11.97-13.4-.07-18.77-.11h-.47a18 18 0 0 0-10.63 3.38 17.9 17.9 0 0 0-7.31 14.26 17.8 17.8 0 0 0 18.61 17.77q.73.38 1.6.4h.33l.25-.01c2.34-.02 4.69.04 7.02.05l10.04.06 19.43.1q9.38.08 18.76.12h.46q1.58 0 3.15-.26a18 18 0 0 0 7.49-3.12 18 18 0 0 0 7.1-11.78c.37-2.31.22-4.68-.37-6.94v-.05l-.22-.9-.15-.48q-.35-1.12-.83-2.2.08-.82-.24-1.63l-.12-.3q-.03-.12-.1-.23c-.88-2.16-1.7-4.36-2.56-6.52q-1.52-3.9-3.06-7.77l.24-.22q.57-.5 1.1-1.03a303 303 0 0 0 30.1-4.36c9.05-1.36 18.1-2.55 27.12-4.08l2.47-.43h.03l.2-.03.38-.07.06-.01q.48-.08.88-.28c1.58-.57 3.17-1.58 4.38-2.27q.68-.42 1.16-1.01l8.9 17.5c.19 2.88 2.81 6.56 3.88 8.85 3.75 6.3 6.59 14.09 13.35 17.78a19 19 0 0 0 12.37 1.88c4.83-.82 9.4-3.33 12.22-7.18h.22l.35-.82.12-.23.47-1.04.71-1.61.38-.8a47 47 0 0 1 2.02-3.9l.46-4.42 1.99-18.67v-.01l.03-.36v-.17c.38-3.75-.4-7.54-2.3-10.84a18 18 0 0 0-11-8.25 17.5 17.5 0 0 0-10.03.43l-3.95-7.76.25-.05q1.14-.16 2.3-.22 1.35 0 2.72.09 1.7.2 3.38.58 1.68.43 3.26 1 1.96.76 3.84 1.73a45 45 0 0 1 4.24 2.6 49 49 0 0 1 4.28 3.49 55 55 0 0 1 4.18 4.36 55 55 0 0 1 3.82 5.24l.99 1.6q.32.55.77.94l12.38 29.08 18.86 44.34.55 1.29q.04.6.31 1.14.73 1.47 1.44 2.96v.02l3.26 7.69q.28.72.52 1.46a98 98 0 0 1 5.29 24.9z"/><path fill="#fff" d="M337.1 146.28q.07 1.12.07 2.23-.06 1.06-.2 2.12-.19.93-.4 1.85l-.05.14-.08.29q-.31.91-.7 1.82l-.3.62q-.31.6-.65 1.2l-.08.1q-.5.8-1.06 1.54-.41.5-.84.97l-.62.65q-.6.56-1.24 1.07l-.47.37-.3.2q-.8.55-1.62 1.02l-.04.02q-.87.43-1.76.82l-.4.14q-.86.3-1.75.54-1.05.22-2.1.36-1.1.08-2.2.09l-.25-.02q-.97-.05-1.94-.2a26 26 0 0 1-2.16-.5 26 26 0 0 1-2.06-.77q-.75-.37-1.5-.78-.97-.62-1.9-1.31a26 26 0 0 1-1.74-1.6q-.62-.69-1.2-1.44-.55-.75-1.02-1.53l-.22-.36-.37-.76q-.28-.56-.51-1.12-.36-.97-.64-1.97-.11-.47-.2-.95-.15-.72-.24-1.46-.07-1-.09-2l.05-.6q.06-.94.2-1.88.2-.98.46-1.95.31-.98.7-1.92l.4-.81q.3-.59.63-1.16l.55-.8.63-.88.25-.28q.55-.62 1.13-1.22.66-.6 1.37-1.2l.17-.12a29 29 0 0 1 1.94-1.26l.2-.1q.82-.41 1.67-.8.97-.34 1.95-.64 1.2-.27 2.4-.44 1-.1 2.01-.1 1.23.07 2.45.23 1.06.21 2.08.48.94.3 1.85.68.9.44 1.8.93.94.6 1.83 1.27.79.67 1.53 1.38.36.37.69.76l.67.82q.5.72.97 1.45l.21.36q.49.89.9 1.84.19.48.35.96.23.7.43 1.4.23 1.1.38 2.2zm-111.23 17.15q.06 1.12.07 2.23-.05 1.04-.2 2.12a38 38 0 0 1-.46 1.99l-.09.28a28 28 0 0 1-.68 1.82l-.3.62q-.3.6-.66 1.2l-.06.1q-.51.8-1.08 1.53a20 20 0 0 1-1.45 1.62q-.6.56-1.24 1.07l-.47.37-.3.2q-.8.54-1.61 1.02-.03 0-.05.02-.86.44-1.76.82l-.4.14q-.86.3-1.75.54-1.03.23-2.1.36-1.1.09-2.2.09l-.25-.01q-.97-.06-1.95-.2-1.08-.2-2.14-.48-1.05-.35-2.06-.78-.76-.37-1.5-.78-1-.62-1.92-1.31a26 26 0 0 1-1.72-1.6 28 28 0 0 1-1.22-1.43q-.53-.75-1.01-1.54l-.22-.35-.37-.77q-.28-.56-.51-1.12-.36-.97-.65-1.97l-.2-.95q-.14-.74-.23-1.46-.06-1-.09-2l.05-.6q.06-.94.2-1.88.2-.99.46-1.96.3-.97.7-1.92l.4-.81q.3-.59.64-1.16l.53-.8.64-.88.25-.28q.55-.62 1.13-1.22l1.37-1.2.16-.12q.56-.4 1.15-.78l.78-.48.2-.1q.82-.41 1.67-.8.97-.35 1.95-.64 1.2-.28 2.4-.45 1.01-.1 2.02-.1 1.22.07 2.44.23 1.06.2 2.08.49.94.3 1.84.68.93.43 1.8.92.95.6 1.84 1.27.8.66 1.53 1.38.35.37.69.76l.66.82q.5.72.98 1.45l.22.36q.5.89.9 1.84a37 37 0 0 1 .78 2.37q.24 1.1.38 2.2z"/><path fill="#9e3c31" d="m326.57 231.57.45 2.6q-1.14.58-2.33 1.1l-9.25 1.54-.09-.18a22 22 0 0 0-1.65-2.74 35 35 0 0 0-8.5-8.08 65 65 0 0 0-12.48-6.67 75 75 0 0 0-21.08-5.23 43 43 0 0 0-2.18-5.02c4.32-1.34 8.64-2.64 12.73-4.66 2.7-.95 5.43-1.83 8.2-2.54a7 7 0 0 0 3.6-1.54q.38-.1.73-.26.94-.4 1.78-.95.62.12 1.2.26c3.64 1.1 7.31 2.08 10.98 3.06l-.02.83a30 30 0 0 0 1 8.48q.39 1.32.87 2.62a30 30 0 0 0 4.31 7.94q1 1.17 2.1 2.29c1.31 1.36 2.87 2.52 4.37 3.66a56 56 0 0 0 4.25 2.88q.5.3 1.01.63z"/><path fill="#eb3d30" d="M306.4 235.98q.84.9 1.58 1.9c-12.25 1.76-24.4 4.13-36.68 5.6a35.4 35.4 0 0 0 2.97-16.12 46 46 0 0 0-.67-6.16q1.28.16 2.58.39 4.44.83 8.75 2.17a76 76 0 0 1 8.37 3.27 64 64 0 0 1 6.37 3.5q2.22 1.44 4.28 3.13 1.3 1.1 2.45 2.32"/><path fill="#a26045" d="m372.66 182.66 15.82 37.24c-4.7-3.6-10.2-6.46-16-7.64q-2.62-.53-5.25-.62c2.47-3.73 3.85-8.24 3.57-12.48 0-1.74.23-4.16-.35-5.96l-1.47-8.8-2.86-17.06q3.28 7.66 6.52 15.33z"/><path fill="#000" d="M258.6 254.69c-.49-1.75.56-3.92 2.43-4.31l.45-.1h.02c2.85-.57 5.74-1.01 8.61-1.52l10.14-1.8 20.96-3.72c11.18-1.98 22.35-4.02 33.53-5.95 1.88-.32 3.7 1.15 3.95 2.99a3.55 3.55 0 0 1-2.99 3.95c-12.59 2.18-25.16 4.47-37.74 6.7l-34.65 6.15q-.06 0-.1.02l-.63.1-.12.03h-.02q-.27.05-.53.05a3.6 3.6 0 0 1-3.32-2.58z"/><path fill="#000" d="M270.36 249.36c-4.5-2.25-.26-7.14.08-10.61 1.17-11.37-.18-23.74-6.18-33.67-5.29-6.61-14.66-8.6-22.75-8.81-4.55-.03-4.58-6.96 0-7 23.63.47 33.73 12.5 35.98 35.24.48 5.2 1.46 27.1-7.14 24.85zm55.31-12.29c-16.18-8.57-23.05-29.57-15.75-46.23.9-2.63 2.2-5.1 3.28-7.62a3.53 3.53 0 0 1 3.94-3c5.53 1.33 2.06 6.74.55 9.96-7.38 14.38-3.24 33.07 11.5 40.85 3.95 2.22.36 8.36-3.52 6.04"/><path fill="#000" d="M270 209.84c-1.29-3.32 1.88-4.9 4.62-5.5 3.7-1.34 7.36-2.8 11.02-4.23 4.17-1.1 8.81-5.55 13.07-4.62 2.78 1.03 2.84 5.44 0 6.45-3.98 1.5-7.66 3.73-11.7 5.15-4.25 1.65-8.46 3.46-12.83 4.76a3.5 3.5 0 0 1-4.17-2.01m-85.31-81.88c-2.6-3.22-3.55-9-1.14-12.53 2.64-3.48 8.12.44 5.71 4.05a14 14 0 0 0 .37 3.35c3.46-.06 6.82-1.31 10.24-1.82 3.31-.72 6.9-.74 9.93-2.35-.22-2.35.03-5.26 2.94-5.64 4.6-.43 4.68 5.55 3.43 8.63-3.29 5.85-11.33 5.13-17.05 6.62-4.62.77-10.43 3.34-14.42-.3zm113.64-18.47c-4.5-.33-6-4.96-5.55-8.86.14-2.73.24-6.9 3.9-6.94 5.05.32 2.85 5.66 3.1 8.92 7.1-.35 14.22-1.93 20.98-4.05-.76-2.2.35-4.8 2.8-5.12 4.88-.46 5.6 7.64 2.42 10.04-5.8 3.85-20.56 6.25-27.65 6m25.24-19.21c-5.69-2.33 2.08-15.77 6.95-10.96 2.26 2.4.37 4.48-1.26 6.37-.9 2.6-2.28 5.92-5.69 4.59m-148.98 20.4c-1.98-.4-3.36-2.13-5.04-3.12-.9-.58-1.98-1.11-2.48-2.1-2.15-3.52 3-7.21 5.67-4.14 6.38-4.61 8.92 10.2 1.84 9.37zm53.58 132.59c.43 1.79-.7 3.86-2.59 4.22l-.3.06-.13.02c-12.18 2.22-24.35 4.57-36.52 6.86-4.96.93-9.9 1.9-14.88 2.79q-.41.08-.83.08a3.5 3.5 0 0 1-3.47-3.14 6 6 0 0 0-1.4 1.66c-5.15 9.14-6.37 19.84-8 30.04-1.84 12.7-3.19 25.47-4.82 38.2-2.28 19.16-6.63 38.05-6.13 57.45-1.18 16.88.8 34.07 8.02 49.5 5.99 14.42 11.2 26.56 24.44 35.98 5 4.16 10.74 7.2 16.73 9.64 2.1 1.2 5.17 1.33 6.23 3.77.91 2.14-.53 4.44-2.75 4.83-21.87 1.94-42.15 11.34-63.62 15.4-12.32 3.37-24.92 6.1-37.68 3.48-10.97-1.05-21.26-5.53-31.04-10.34-6.67-3.32-13.73-6.16-19.97-10.21-2.86-2.4-5.25-5.3-7.95-7.85-2.49-1.75-4.13-5.98-.55-7.53 11.61-.3 23.43-.12 34.94-2.5 10.07-2.06 20.17-4.45 28.1-11.45 18.16-14.51 24.37-35.7 23.08-58.21q.14-26.35 2.74-52.57c1.53-21.5 4.13-42.92 9.8-63.75 2.74-12.48 6.2-25.56 15.28-35.03-6.49-13.91-7.01-29.8-8.75-44.85-.89-12.91-4.86-25.9-2.63-38.84-13.37-14.41-18.45-29.72-12.46-48.95 1.53-3.55 6.66-18 11.68-14.63 6.33 4.18-7.84 10.66-7.06 30.87 1.69 1.12 1.72 3.46 2.7 5.1 4.31 6.4 9.65 12.53 16.3 16.58 6.38 3.2 4.58 8.2 5.1 14.05 1.08 12.6 3.45 25.06 5.3 37.56 1.55 11.73 3.54 23.47 7.25 34.74.97 2.27 1.6 4.98 3.46 6.7a3.6 3.6 0 0 1 2.27 2.43c.35 1.77-.5 3.08-1.87 4.2 5.5-1 10.97-2.07 16.46-3.1l20.28-3.81q5.49-1.06 10.98-2.06a3.5 3.5 0 0 1 4.22 2.58zm-23.71 253.29c-5.16-2.04-1.78-8.42 3.03-6.9 1.62-4.23 21.4-5.55 26.35-6.97 4.28-1 8.36-2.6 12.37-4.34 1.62-.73 3.65-.7 4.93.66 1.36 1.38 1.14 3.55 1.47 5.33 1.6 7.39-7.99 6.29-12.66 7.62-5.43 1.12-10.92 1.6-16.4 2.36-6.32.68-12.77 2.83-19.12 2.23zm93.68-14.29a3.55 3.55 0 0 1-2.98-4c-3.13-1.25-2.42-6.34.97-6.64 10.7-1.04 21.17-3.61 31.64-5.91 9.13-3.07 13.5 1.74 9 10.29-2.94 2.94-7.78 2.1-11.55 3.09-9 1.1-18.06 2.38-27.08 3.18z"/><path fill="#000" d="M201.64 297.93c-8.18-.55-20.36 0-23.36-9.55-1.03-4.1-1.65-11.1.94-14.57a3.5 3.5 0 0 1 4.62-.3 3.54 3.54 0 0 1 .92 4.47c-.28 3.24-1.02 7.49 1.25 10.12 9.45 5.05 30.58 2.2 41.8 2.22 10.73-.53 21.58.35 32.23-1.46 3.26-.63 6.92-1.93 7.51-5.66.87-6.04-.32-12.14-2.3-17.84-1.24-3.43-2.76-6.75-3.95-10.2-.62-1.8.7-3.82 2.45-4.3 1.81-.54 3.8.63 4.3 2.42 1.17 3.2 2.57 6.3 3.71 9.5 2.47 7.04 3.94 14.73 2.6 22.14-3.13 12.9-19.4 11.63-29.89 12.14-14.28-.2-28.54 1.24-42.82.89z"/><path fill="#000" d="M246.37 297.27a399 399 0 0 1-30.93-.98c-4.16-.2-8.34-.22-12.45-.91a3.53 3.53 0 0 1-3-3.94c.75-4.22 5.2-2.74 8.2-2.47 3.52.19 7.03.24 10.53.55 8.87.6 17.75.74 26.65.75 9.1-.3 21.98 2 21.6-10.98.2-1.86 2.13-3.17 3.92-2.93 3.68.57 2.97 4.37 2.75 7.09-.31 3.49-2.27 6.75-4.76 9.14-5.99 5.58-14.95 4.4-22.53 4.68z"/><path fill="#000" d="M219.52 297.44c-5.4.02-10.7-1.03-16.06-1.37-1.56-.04-3.28-.11-4.47-1.28-2.2-2.08-.62-6.21 2.47-6.12a191 191 0 0 0 35.28 1.87c6.5-.92 24.44-.08 28.7-3.64 5.1-4.85 10.4 4.4 1.05 7.56-5.99 1.86-12.37 1.93-18.59 2.43-9.72.6-18.75 1.03-28.39.56zm5.88-37.88c-1.12-3.83-2.87-7.43-4.3-11.14-.59-1.73-1.68-3.57-1.13-5.44a3.6 3.6 0 0 1 4.49-2.43 3.44 3.44 0 0 1 2.53 3.66c1.66 4.53 3.81 8.85 5.15 13.49 1.17 4.39-5.44 6.27-6.75 1.86M364 288.26c-14.46-2.54-19.5-17.66-25.07-29.31-2.46-5.12-4.82-10.3-7.28-15.4-.82-1-.92-2.5-.46-3.7.96-2.61 4.95-2.86 6.25-.41 4.1 8.62 8.13 17.3 12.23 25.92 2.36 4.28 4.28 9.05 7.97 12.38 4.7 3.66 11.21 5.3 16.51 1.9 9.81-6.06 9.2-20.12 10.04-30.33.05-1.97.18-3.97-.16-5.93-.72-1.98.13-4.42 2.3-4.97 7.78-1.78 4.24 16.27 4.18 20.67-.9 15.43-8.53 31.63-26.53 29.18zm28.24-56.13c-5.34-4.05-11.59-7.96-18.4-8.44a92 92 0 0 0-8.3-.01c-2.14.37-4.87.93-6.14-1.36-1.11-1.87-.11-4.37 1.87-5.14 2.1-.56 4.36-.4 6.56-.57 5.15 0 10.5-.13 15.25 2.12 4.78 2.05 9.42 4.55 13.44 7.86 3.59 2.82-.62 8.28-4.28 5.54"/><path fill="#000" d="M367.24 219.34c-5.26-2.82.8-7.4 1.55-11.01.69-6.5 0-13.08-.85-19.53a71 71 0 0 0-3.3-14.2c-.94-3.25-3.18-6.91-1.64-10.31 1.76-4.12 8.08-1.58 6.5 2.6 2.63 8 5.14 16.08 5.85 24.53.38 7.62 2.4 16.3-1.75 23.2-1.5 2.25-3 6.15-6.37 4.72M143.88 412.6a3.53 3.53 0 0 1-3.04-3.9q2.54-19.8 5.11-39.61l5.3-41.1 5.25-40.7c1.08-8.37 2.23-16.73 3.24-25.11a3.54 3.54 0 0 1 3.91-3.04 3.54 3.54 0 0 1 3.04 3.9c-.73 6.12-1.57 12.2-2.36 18.3l-2.66 20.64-5.24 40.63-5.25 40.73-3.19 24.7v.1l-.19 1.43a3.54 3.54 0 0 1-3.48 3.06q-.2 0-.43-.03"/><path fill="#000" d="M144.32 420.29c-.78-8.78-1.76-17.56-1.78-26.38-.02-4.1-1.22-14.7 5.9-11.16a3.6 3.6 0 0 1 1.16 3.98c-.28 6.46.05 12.93.45 19.38l1.21 13.23a3.54 3.54 0 0 1-2.99 3.94c-1.83.25-3.77-1.1-3.95-3m-26.29 44.01c-4.6-.88-2.58-6.36-2.3-9.58.95-5.36 2.06-10.7 2.78-16.1 2.02-11.06 3.22-22.22 4.86-33.34 2.06-13.4 2.86-26.96 5.56-40.28q.9-6.02 1.47-12.1c.28-2.84.31-6.67 3.72-7.5 3.23-1 5.88 3.3 3.51 5.7-.88 11.5-3.34 22.8-4.81 34.22-1.47 15.03-3.64 29.98-5.87 44.9-1.25 6.92-2.03 13.9-3.42 20.8-1.59 3.87.33 13.77-5.5 13.27"/><g fill="#000" opacity=".24"><path d="M365.41 81.76c.8 4.04-.38 8.25-1.23 12.2 6.93.59 1.73 8.58.65 12.3.9 2.24-.53 4.56-1.27 6.65-.5 1.74-1.5 3.2-2.2 4.8-.89 2.79-2.29 7.15-6.06 5.64a3.5 3.5 0 0 1-2.03-2.4c-1.19.5-2.29.38-3.16-.12a4.3 4.3 0 0 1-1.27-6.1q-.29.3-.59.53a3.86 3.86 0 0 1-5.37-.95 3.3 3.3 0 0 1-.08-3.57 3.6 3.6 0 0 1 2.05-1.8c3.33-3.06 5.95-6.8 8.21-10.7 2.6-5.07 4.88-10.36 5.51-16.04.4-3.7 5.91-4.03 6.84-.45"/><path d="M363.43 198.12c2.81 1.42 1.55 5.82.6 9.44a20 20 0 0 0-.73 3.45c-.3 2.27-.53 5.27-3.38 5.59-1.5.2-3.17-.65-3.7-2.11-.7-2 .26-4.16.22-6.23.2-4.83.07-9.68-.23-14.5-.74-7.24-2.16-14.4-3.03-21.62-3.22-18.37-5.34-37.03-11.49-54.71a3.2 3.2 0 0 1 1.2-3.11c1.6-1.25 4.31-1.1 5.36.95l.14.3q.15.35.23.77a119 119 0 0 1 1.5 4.5c4.08 13.02 6.08 26.57 8.22 40.03 1.51 9.36 3.27 18.74 4.33 28.18q.52 4.53.77 9.07"/><path d="M366.92 203.7c.3 2.22-1.2 3.57-2.9 3.86-1.76.29-3.72-.6-4.03-2.91-.12-4.37-1.89-8.74-1.22-13.08a3.54 3.54 0 0 1 4.3-2.44 3.55 3.55 0 0 1 2.48 4.18c.34 3.48 1.12 6.9 1.37 10.39m-106.4 44.59a5 5 0 0 1-1.5-1.8l-.15-.33a5.3 5.3 0 0 1-2.78-2.56c-4.16-.8-3.48-8.91-3.2-12.18-7.3-2.08.55-17.71 8.23-15.01 6.5 2.18 11.5 9.63 10.73 16.49-.33 2.4-1.9 5.13-4.63 5.06.11 3.9-.57 13.84-6.7 10.33m-2.72-23.38.27-.02q.18-.5.38-.97a5 5 0 0 0-.64.99m9.45-20.35a4 4 0 0 1-2.25-2.88l-.06-.26c-4.28-.9-2.67-6-1.49-8.82.97-2.4 4.43-2.88 5.99-.82.75-4.52 7.43-4.65 7.53.22a3.5 3.5 0 0 1 2.95 1.08c4.56-2.48 8.42 4.36 3.4 6.39-1.34 1.73-3.73 3-5.85 1.86q-.68.77-1.62 1.19a4 4 0 0 1-3.09-.07 4.3 4.3 0 0 1-5.5 2.12zm42.26-7.83q-.65-.25-1.2-.7c-1.88 1.09-4.56.06-5.1-2.12-3.2-2.44-.56-6.51.56-9.37 1.07-2.98 5.75-3.16 6.93-.23 3.55.48 3.27 4.52 3.06 7.23 2 2.75-1.18 6.58-4.25 5.19"/><path d="M303.24 189.35c-3.19-2.7.11-6.55 1.5-9.32.8-3.12 3.55-6.88 6.88-4.04 1.23-1.52 3.78-1.51 5.08-.1 4.16-.42 5.53 6.18 1.32 7.19-1.49 1.59-3.34 3.59-5.72 3.32-2.03 1.8-6.47 5-9.06 2.94m18.56 40.28c-2.46-1.34-2.92-4.64-4.3-6.91-2.76-5.01-9.9-19.1-.6-20.81 1.61-2.36 5.22-2.22 6.4.43.7 1.62 1.16 3.32 1.64 5.02 1.26 5.29 3.56 11.53.98 16.7 2.2 2.82-.78 7.02-4.1 5.57z"/><path d="M310.9 236.83c-.74-1.65-1.15-3.41-1.66-5.14l-.01-.07a3 3 0 0 1-.52-.56c-4.58 1.7-5.16-3.46-5.56-6.7-1.42-7.2-4.06-14.6-9.29-19.9-7.58-2.4-.93-11.14 4.84-5.1 1.92-2.92 6.18-1.41 6.65 1.83 4.3-.25 3.88 4.89 4.8 7.8a227 227 0 0 0 3.28 12.29c5.25-1.78 5.06 5.16 6.1 8.45 2.7.05 6.82-.56 7.35 3.06.43 3.35-3.22 4.54-5.95 3.98a5.8 5.8 0 0 1-3.93.74c-1.52 2.19-5.06 1.79-6.08-.68zM234.81 265c-2.84-1.55-2.14-5.2-2.4-7.92-.62-6.37-2.53-12.51-4.49-18.58-2.16-6.28-5.49-12.06-7.83-18.26a3.6 3.6 0 0 1 .83-4.8c-2.17-4.92 5.4-7.24 6.74-2.1 3.12 6.6 23.8 55 7.15 51.66m-19.49 26.54c-5.74-.06-11.4-1.21-17.13-1.64-4.35-.5-16.66 1.03-12.85-6.62-2.15.08-4.2-1.81-3.82-4.04 1-6.5 20.9-2.35 26.21-2.92 17.95-.13 36 .79 53.85-1.18 1.44-3.35-1.14-9.45 3.7-10.42 4.8-.4 4.06 5.25 3.88 8.48-.33 5.77-3.86 11.26-9.18 13.59-1.98 3.22-6.79 2.1-10.02 2.87-11.53.8-23.08 2.49-34.65 1.89z"/><path d="m161.1 146.1-.35-2.41q-.19.1-.39.18.46 1.09.73 2.23m215.67 73.17a4 4 0 0 1-.5-1.3 9 9 0 0 1-1.82.67q1.17.28 2.32.63m7.17 15.44q-.1-2.1-.1-4.17c-6.42-4.93-14.65-3.81-22.13-5.46a6 6 0 0 1-2.45-.78c2.12 4.65 4.16 9.35 6.26 14 .8-.76 2-1.1 3.13-.93-.97-2.35-1.75-4.91.34-6.67a3.6 3.6 0 0 1 3.82-.31c2.51-2.3 5.51 0 6.7 2.52 2.41-.84 3.75.15 4.44 1.79m.73-12.27a14 14 0 0 1-1.45-2.6q-.6.88-1.4 1.25 1.44.6 2.85 1.35m-7.44 62.32c6.45-8.57 7.87-18.54 7.8-28.77-1.09 7.89-3.47 15.82-9.52 21.35-1.96 2.1-4.82 5.77-7.9 3.46a3.5 3.5 0 0 1-1.3-2.21c-1.67-.04-3.39-.84-3.89-2.54-3.89-.18-6.8-.8-8.94-1.63 1.04 2 2.3 3.85 4.26 5.23 1.63 1.75 4.51 2.86 5.13 5.29a4 4 0 0 1 .55.55c4.6.29 9.52 1.32 13.81-.72zm46.3 90.36c6.01-29.17-11.02-72.15-25.35-99.8-5.1 15.8-19.43 26.56-37.4 22.82-16.48-2.54-23.26-19.73-29.49-33.07-1.15-2.7-2.73-5.25-4.1-7.88a358 358 0 0 1-25.97 5.13c-5.9.79-11.86 1.4-17.75 2.42 3.86 15.93 2.94 35.1-14.56 40.34a241 241 0 0 1-35 4.32c-6.05.62-12.1 1.2-18.2.98-13.54-.28-27.44.6-40.54-3.46 0 6.88-.23 13.76-.38 20.64.6 28.05-2.57 56.44 2.02 84.25 5.42 25.4 21.07 46.52 48.53 48.64 13.4 2.1 26.93-.46 40.17-2.6 22.7-3.5 45.4-7.84 67.93-11.6 10.43-1.31 20.42-4.6 30.38-7.78 9.02-2.48 17.12-5.8 24.87-10.86 17.5-12.3 30.2-31.66 34.83-52.52zm19.58-28.26c.47 10.04-.45 20.1-1.92 30.04-.48 3.89-1.35 7.72-2.18 11.55-.88 2.68-.86 6.16-2.95 8.19-3.69 9.4-7.84 19.16-13.66 27.5-8.75 9.96-19.95 18.35-32.74 22.23-8.44 4.9-17.09 9.57-26.74 11.55-3.77.8-8.93 4.2-12.1.69-3.17 1.07-6.2 2.98-9.67 2.37-3.05 1.12-8.28 4.03-9.5-.81-15.76 2.65-31.62 8.16-47.2 10.82-4.17.06-13.13 5.18-15.45.82-21.3 5.64-43.52 13.2-65.78 10.52-7.72-1.64-15.94-3.11-22.17-7.91-4.72-3.02-8.23-7.6-12.25-11.46-4-3.98-7.94-8.05-11.15-12.71a57 57 0 0 1-8.3-16.86 72 72 0 0 1-4.87-15.02 92 92 0 0 1-3.46 11.42c-10.52 30.99-40.7 54.33-73.86 53.62-36.74-1.26-54.86-34.25-59.64-66.98-1.15-7.47-1.17-15.06-2.43-22.52-.36-3.04-1.1-7.71 2.76-8.73 34.78-5.46 63.76-22.96 79.7-55.07 5.67-10.96 8.5-23.08 12.48-34.7 2.12-6.7 4.52-13.32 6.05-20.18 1.51-7.23 1.18-13.72 1.38-20.88.14-22.98 7.3-45.4 16.78-66.07-5-23.6-10.7-38.18-2.4-62.62 2.8-7.71 6.97-14.82 11.63-21.54 2.43-3.12 4.41-7.04 8-8.95 4.74-1.73 7.82 5.57 2.4 6.86l-1.8 2.2q.35.48.56 1.16a50 50 0 0 0 5.15 14.76c1.68 3.18 3.98 6.79 6.78 8.94 1.8 2.12 6.02 3.57 7.03 6.16 1.98-1.64 5.32-1.23 5.8 2.57-.3 2.39.42 4.8.68 7.2 1.82 13.38 5.02 26.54 6.28 39.98 1.85 10.68 2.1 29.9 8.23 41.55 5.35 3.8 12.41 5.16 18.61 2.67 2.41-1.63 5.83.55 5.38 3.42a8 8 0 0 1-.29.93q.63-.14 1.28-.1c1.01-3.85 1.52-7.8 2.48-11.67-.1-3.73-2.68-11.38 2.45-12.51 4.62-.41 4.12 5.24 4.72 8.37 2.46 1.87 1.5 5.62 2.16 8.33.46 1.9.85 3.83 1.28 5.75.43 3.18 2.38 8.52-1.78 9.9a3.56 3.56 0 0 1-4.16-2.01c-.3-.7-.48-1.41-.8-2.08h-.2q-.34 0-.66-.06-.54.48-1.16.66-.2.67-.7 1.38a19 19 0 0 1-5.74 2.65c-2.42 2.3-8.65 3.35-11.79 3.67-3.48 0-6.8-1.51-10.04-2.67-1.32-.47-2.77-.87-3.99-1.55q-.38-.22-.72-.44c-4.72 2.52-6.93-3.27-7.99-6.86a100 100 0 0 1-3.92-16.08c-5.23-19.13-7.57-38.84-10.18-58.46l-1.77-9.6c-4.68-4.18-17.29-21.32-21.8-32.53q-1.29 2.34-2.47 4.74c6.67.32 7.02 8.65 9.7 13.23 13.54 22.22 12.26 49 18.1 73.63 2.63 12.43 3.4 25.28 3.43 37.96-3.1 23.6-11.06 46.54-11.95 70.48q-.63 12.24-.92 24.5c1.53-10.2 3.77-20.28 7.4-29.9q.09-1.3.15-2.6c-2.7-1.65-1.13-5-.46-7.4.46-1.5.75-3.06 1.56-4.43a3.3 3.3 0 0 1 2.36-1.64c.4-5.68 1.04-11.37 1.44-17 .91-4.38.62-18.42 6.57-18.25.38-1.98.86-3.92 1.35-5.88.65-2.62 4.33-3.48 6.03-1.35q.46-.19.95-.32a3.6 3.6 0 0 1 2.3.18 3.6 3.6 0 0 1 4.57-1.98 3.54 3.54 0 0 1 4.4-.44q.56 0 1.08.15c1.93-2.78 6.07-3.28 8.04-.3a4.3 4.3 0 0 1 5.11-1.11c1.13-3.26 5.34-4.52 7.75-1.82a3.6 3.6 0 0 1 3.47-.62 3.6 3.6 0 0 1 3.63-1.91c1.55-2.41 5.56-1.68 6.23 1.09.51 1.76.92 3.54 1.38 5.3.96 3.63 3.91 10.99-2.43 10.8a3.6 3.6 0 0 1-4.45-1.32 3.45 3.45 0 0 1-4.03.38 5 5 0 0 1-1.79-1.64c-1.86 1.6-4.65.57-5.8-1.45-.53 3.27-4.4 5.23-6.75 2.38-2.17 2.9-6.24 1.33-7.1-1.86-.25.39-.5.74-.84 1.1q-.5.52-1.19.79c-.27 2.65-1.76 6.14-5.02 5.22q-.59.76-1.48 1.13c-1 3.9.06 11.98-5.76 11.78l-.16 1.26c4.27.36 3.1 6.25 3.45 9.45 5.2 6.06 19.06 5.72 26.73 6.34 4.53-.38 9.02-1.05 13.51-1.73 2.86-.46 7.5-1.65 9.12 1.16 2.64-.84 6.1-1.55 7.7.1a178 178 0 0 0 21.62-2.66c1.4-.3 3.14-.82 4.65-.76 2.14-.8 3.96-1.73 5.33-2.8 2.93-2.4 3.21-6.46 4.07-9.91 1.2-4.87.38-9.67-1.2-14.3a3.7 3.7 0 0 1-1.13-2.15q-.06-.45 0-.9c-.98-2.43-2.1-4.81-3.17-7.12-.57-1.27-1.17-2.57-1.43-3.94-.59-3.44 4.17-5.41 6.24-2.61q.83 1.38 1.61 2.95c1.28-.7 3-.68 4.13.29 9.8-3.12 27.3-4.16 30.56-5.27 7.2-1.24 14.43-2.52 21.44-4.6 3.08-2.44 7.46 1.62 5.06 4.79 2.34.27 5.07.23 5.8 2.89a3.5 3.5 0 0 1-.55 2.99c.8 1.45 1.5 2.84 2.01 3.77 1.91 3.4 4.17 6.6 6.2 9.95 1.34-1.5 3.86-1.77 5.86.89 4.16 2.56 8 1.94 11.14-.3a39 39 0 0 0 1.87-7.93c-1.39-2.78-3.17-5.71-4.08-8.77-3.77-3.8-5.26-11.27-8-15.76-5.65-13.26-11.89-26.28-21.13-37.46-5.22-3.27.98-13.24 7.68-1.48 5.87 7.37 10.36 15.54 14.4 23.97.31-.92 1.11-1.76 2.51-2.32 3.95-.26 8.06-.02 12.1.74-2.46-2.43-.62-10.55-.39-13.77.9-3.45-.56-9.58 3.95-10.6a3.54 3.54 0 0 1 3.9 2.68c3.45-1.21 4.9 2.43 5.23 5.2 3.87 1.7 4.96 12.04 6.78 16.03 1.61 2.9-.47 6.59-3.09 6.8a34 34 0 0 1 10.14 9.98 32 32 0 0 1 1.6 4.88q.76.4 1.38.98c3.43 4.73 3.81 11.18 6.17 16.53 1.94 6.79 4.7 13.12 8.95 18.8 2.04 4.09 7.27 7.79 6.06 12.77q.34.74.64 1.5c.38.99.36 2.06-.1 2.98l.32.83c4.4.54 4.17 9.84 5.85 13.38 2.71 6.08 5.55 12.16 7.67 18.48 5.26 1.4 5.75 16.47 6.38 21.35z"/><path d="M167.84 342.55c-2.06-.24-3.33-2.32-2.97-4.3.3-4.84.43-9.72 1.18-14.53.87-5.47 2.81-10.87 6.42-15.14 3.74-4.28 8.77-8.24 14.28-9.68 3.46-.16 4.82 4.93 1.77 6.56-25.03 9.75-10.39 37.4-20.68 37.09"/><path d="M172.47 434.73a3.6 3.6 0 0 1-1.02-2.47q-.5-8.56-.84-17.13c-.8-16.74-2.15-33.44-2.3-50.21-.39-11.17-.56-22.42 1.51-33.45 1.6-8.1 1.2-17.35 7-23.9 2.97-3 10.88-10.26 14.97-6.81 2.75 3.05-.29 5.88-3.4 6.64a21 21 0 0 0-7.17 5.87c-9.06 24.08-5.6 51.06-5.13 76.35 1.1 14.2 1.6 28.43 2.34 42.66.16 3-3.96 4.68-5.98 2.47zM405.54 282.6c-8.59-7.2-15.07 2.98-17.96-3.78-1-4.83 5.56-5.28 8.9-5.94 4.34-.74 17.72 2.97 13.96 9.09a3.54 3.54 0 0 1-4.9.63M245.3 487.32c4.15 1.99.97 6.6-.13 9.59-1.32 2.4-1.26 5.97-3.93 7.34-5.33.96-10.64.62-16.03.5-7.85 0-15.7.44-23.55.2a3.54 3.54 0 0 1-3.03-3.47 3.53 3.53 0 0 1 3.28-3.5c-.28-3.2 2.9-4.17 5.4-4.01 6.7-.41 13.24-1.92 19.91-2.57 4.14-.52 8.44-.7 12.26-2.54 1.8-.96 3.7-2.61 5.82-1.55"/><path d="M325.67 492.09h.6a6 6 0 0 1-.7-.88zm127.06 7.52a10.7 10.7 0 0 1 2.6 9.69c-.85 3.5-3.33 6.25-5.99 8.53a36 36 0 0 1-5.27 3.7c-6.88 4.04-14.34 7.04-21.88 9.59-15.69 5.3-31.87 9.1-48.1 12.34a784 784 0 0 1-48.42 7.89 980 980 0 0 1-49.23 5.27 1003 1003 0 0 1-98.35 3.44 578 578 0 0 1-48.32-2.66c-2.25-.22-4.5-.47-6.63-.73l-1.57-.2a227 227 0 0 1-23.77-3.95c-3.9-.9-7.79-1.88-11.6-3.15-3.86-1.3-7.78-2.8-11.23-5-2.75-1.74-5.35-3.9-6.76-6.9a10 10 0 0 1-.86-5.25 12.3 12.3 0 0 1 2.66-6.22c3.3-4.22 7.94-6.95 12.56-9.46a67 67 0 0 1 5.6-2.67q2.69-1.19 5.44-2.27a202 202 0 0 1 11.74-4.13q6.98-2.2 14.04-4.07c2.68-1.36 6.38-2.01 10-2.52l2.62-.61.68-.16a3.3 3.3 0 0 1 1.71.07 27 27 0 0 0 4.88-1.1c15.03-2.65 29.76-6.84 44.86-9.04 8.23-1.47 17.43-3.36 14.61 8.66-.48 6.13-1.35 12.22-3.3 18.07-.29.88-.44 1.83.5 2.38 10.83 4.6 34.2 5.7 45.31 1.73 4.22-4.3.91-11.3 2.36-16.61 1.63-6.53 3.21-14.6 9.3-18.36-.96-4.73 20.2-7.98 24.66-10.51 6.48-2 15.01-7.15 15.2 3.82 2.13 1.29 3.08 4.33 1.41 6.36 3.5 10.04 9.3 35.7 20.55 37.96 11.9 1.77 38.02 4.18 35.35-14.27-.5-7.74-6.49-13.7-7.62-21.2q-.01-.56.04-1.06l-1.27-.02q.14 1.49.2 2.97c.8 10.05-6.4 9.07-13.9 9.12-8-.21-16.05.36-24 .3a3.53 3.53 0 0 1-2.44-4.31c-2.19-5.4-3.7-11.04-5.12-16.68a3.53 3.53 0 0 1 2.45-4.3 3.55 3.55 0 0 1 4.38 2.73q.5-.06.97.03c-.04-3.9 3.84-5.84 6.71-3.04 1.2-3.88 7.06-3.97 8.14.04 1.64-2.88 6.25-2.78 7.68.23q.3-.27.7-.47.57-.3 1.2-.41l.01-2.86c-.09-3.6 5.12-4.8 6.62-1.57 4.75-.71 4.81 5.14 5.23 8.43q.17 1.4.36 2.77 1.44 0 2.9.04h.11c15.02.25 30.03.9 45 2.23 3.87.34 7.76.74 11.54 1.2l.58.07.4.05h.06l.18.02c.11 0 .22.02.24.03l.3.04h.06a242 242 0 0 1 23.45 3.94q5.96 1.32 11.75 3.2a54 54 0 0 1 11.02 4.9 21 21 0 0 1 4.72 3.89z"/></g><path fill="#000" d="M11.47 404.82c-1.7-.13-3.36-.44-5.03-.72-4.57 1.75-7.62-4.93-2.94-6.87 2.42-.8 4.93.3 7.37.5 2.21-.06 4.42 1.36 4.27 3.78a3.54 3.54 0 0 1-3.68 3.3zm1.13-13.65c-19.17 2.8-11.33-11.15-5.68-6.81 3.12.24 8.32-1.52 8.87 3.02a3.53 3.53 0 0 1-3.2 3.78zm.62-16.13c-3.47-.61-7.4-.21-10.52-1.97-1.99-1.63-1.46-5.15 1.05-5.96 3.2-.77 6.51 1.07 9.83.94 4.57.32 4.2 7.22-.36 6.99M8.13 356.1c-4.7-.4-5.26-7.2-.2-7.4 2.5.44 4.83 1.57 7.47.74 4.47-.95 5.97 5.79 1.53 6.83-3.05.68-6.2.49-9.24-.28zm8.89-16.45c-3.93-.31-11.77 1.36-12.17-4.26.98-5.9 7.74-2.02 11.6-2.72 4.56-.3 5.12 6.58.58 6.97m1.07-12.69c-3 0-6.08.25-9.07-.06-3.66-.64-3.74-6.07-.12-6.86 2.93-.16 5.95.13 8.6-.05 4.52-.45 5.1 6.7.6 6.98zM8.06 303.13c-2.4-2.44-.9-6.45 2.04-7.67 2.92-1.38 6.32-.7 9.44-.7 4.56.29 4.2 7.18-.37 7-1.78-.06-3.49-.18-5.16-.13-.6 2.67-4.1 3.48-5.96 1.5zm10.21-18.9c-3.57-.86-10.05 1.7-10.87-3.37.12-5.77 7.51-3.47 11.23-3.63 4.57.29 4.2 7.18-.36 6.99m1.2-15.03c-3.46-.85-7.08-1.53-10.29-3.11-3.16-1.5-2.27-6.41 1.22-6.68 2.8.35 5.32 1.95 8.17 2.4 2.5.34 5.58 1.49 5 4.59a3.53 3.53 0 0 1-4.09 2.8m-.5-20.8c-3.75-1-12.84-1.93-9.23-7.71 2.87-3.03 7.1.69 10.51.83 4.48.9 3.2 7.7-1.29 6.88zm3.62-18.59c-3.5-.62-9.87 1-10.64-3.78.11-6 7.3-2.96 11.01-3.2 4.57.28 4.18 7.18-.37 6.99m-1.59-18.97c-1.59 0-3.16-.25-4.74-.36-4.8-.36-4-7.58.73-6.96 1.98.12 3.97.5 5.95.2 1.25-.28 2.53-.77 3.76-.12 2.72 1.16 2.57 5.56-.3 6.44q-2.62.85-5.4.79m3.11-20.74c-3.52-.67-9.5 1.4-10.92-3.04-.63-6.38 7.44-3.7 11.28-3.95 4.57.28 4.2 7.17-.36 6.99m2.36-19.25c-18.03-.28-10.89-13.2-5.29-7.92q2.77.77 5.65.93c4.57.28 4.18 7.19-.36 6.99m2.49-16.6c-20.73.58-12.96-13.94-7.13-7.91 2.42.76 4.97.89 7.5.9 4.56.27 4.17 7.17-.37 7m3.68-27.98c-3.6-1.14-9.49.13-10.64-3.9a3.54 3.54 0 0 1 2.65-4.17c3.1-.25 6.2.9 9.28 1.18 4.5.87 3.2 7.66-1.29 6.88m7.85-14.9c-21.68-4.72-10.67-17.5-6.24-9.92 2.48 1.7 5.55 2.42 8.41 3.26 4.33 1.3 2.13 8.13-2.17 6.65m7-14.15c-4.5-.55-10.25-2.85-10.84-7.97-.36-4.4 6.22-5.18 6.94-.85 1.36 1.34 3.37 1.69 5.2 1.93 4.46.73 3.15 7.78-1.3 6.88m7.67-13.5C52.35 81.22 48 79.3 47.1 75.4a3.53 3.53 0 0 1 3.2-3.78c1.4-.12 2.7.63 3.35 1.8 1.61 1.64 3.5 3 5.33 4.37 3.81 2.45-.03 8.4-3.8 5.88zm5.43-16.29c-2.27-3.03-6.62-9.92-.49-11.2 4.02-.2 3.92 4.9 6.21 7.18 2.64 3.67-3.12 7.76-5.72 4.03zm-27.85 71.34c-3.6-.23-7.26-.43-10.8-1.15-3.45-.2-5.97-4.52-2.76-6.83a3.7 3.7 0 0 1 4.14-.02c3.22.65 6.51.82 9.78 1 4.57.3 4.2 7.19-.37 7zm43.79-78.69a40 40 0 0 1-7.2-8.8c-2.05-3.3 2.3-7.33 5.3-4.68 1.28 1.53 2.04 3.39 3.36 4.92 1.82 2.35 6.12 4.85 3.47 8.15-1.19 1.4-3.53 1.7-4.93.42zm13.99-13.26c-2.8-2.45-9.43-6.15-5.65-10.34 4.26-3.3 6.78 3.34 10.17 5 3.5 2.87-1.04 8.28-4.5 5.35zm15.03-11.73a80 80 0 0 1-4.6-7.54c-2.1-4.05 4.01-7.27 6.2-3.26A72 72 0 0 0 111.3 31c2.62 3.68-3.14 7.77-5.72 4.03m14.96-9.77c-1.37-3.66-5.85-10.95-.3-12.92 5.4-.73 4.22 6.57 6.5 9.66 2.12 4-4.12 7.3-6.2 3.26m17.81-3.47a41 41 0 0 1-2.11-3.8c-.48-.94-.85-1.94-1.2-2.94-3.55-2.85.98-8.93 4.62-5.81 1.65 1.44 1.93 3.75 2.84 5.65.71 1.84 2.53 3.42 2.16 5.53-.44 2.94-4.72 3.9-6.3 1.37m19.6-6.86a80 80 0 0 1-.49-3.4c-.16-1.3-.25-2.6-.4-3.88-2.99-3.75 2.71-7.97 5.7-4.38 1.26 1.4 1.18 3.46 1.41 5.23-.06 2.5 1.41 5.24.13 7.56-1.5 2.56-5.85 1.83-6.36-1.14zM180 19.28c-5.68-.02-3.7-8.61-4.95-12.4-1.24-2.7-.38-6.03 3.06-6.02 3.85.26 3.8 4.9 4.24 7.79.11 3.5 2.83 9.82-2.36 10.63m15.66-2.92c-4-.1-3.6-4.51-3.38-7.4.1-3.32-.2-9.31 4.6-8.94 3.21.44 3.55 3.56 2.52 6.04-.62 3.45 1.37 9.95-3.75 10.3zm22.19 1.72c-3.74-.12-3.78-3.93-3.22-6.75.56-2.85.76-6.12 2.66-8.45 2.94-3.04 7.96 1.2 5.34 4.56-1.8 3.38.43 10.23-4.78 10.63m19.86.73c-1.75-.47-3.07-2.5-2.44-4.3 1.1-2.91 2.04-8.18 6.32-6.53 3.66 1.62 1.44 5.65.46 8.32a3.54 3.54 0 0 1-4.34 2.52m14.45 9.09c-3.77-1.73-1.39-5.82-.08-8.46 1.68-2.4 2.25-7.02 6-6.61 5.3 1.2 2.21 6.55.37 9.5-1.22 2.64-2.48 7.13-6.29 5.58m19.22 7.44c-4.42-2.18-.58-6.78.81-9.74.69-2.2 2.21-4.51 4.86-3.75 4.64 1.43 1.56 6.93.06 9.39-.97 2.36-2.72 5.44-5.74 4.1m15.46 10.31c-3-2.46-.15-5.7 1.75-7.8 2.15-1.78 3.1-5.92 6.58-4.98 4.72 1.65 1.78 6.8-.85 9.05-1.88 2.2-4.19 6.22-7.49 3.73zm19.43 13.97c-3 .12-4.73-4-2.45-6.01q2.85-2.47 5.71-4.9c2.23-2.84 7.12-.31 6.04 3.19-.45 1.55-1.92 2.49-3.1 3.48-2.03 1.39-3.6 4.06-6.2 4.24"/><path fill="#000" d="M237.83 21.67c-3.93-1.2-2.23-5.44-1.13-8.16.67-2.22 2.3-4.95 5.01-4.51 2.83.33 4.08 4.07 1.94 6-1.2 2.7-1.69 7.72-5.8 6.67zm119.15 122.07c-3.79-4.95 7.81-10.78 10.14-5.42 1.07 2.33-.9 5.19-3.48 4.89-2.02 1.33-4.7 2.98-6.66.53m5.66 17.82c-2.48-3.22 1.31-5.71 3.73-7.33 1.73-1.37 4.1-2.5 6.24-1.42 3.71 1.43 2.25 7.2-1.66 6.75-2.4 1.65-5.6 5.19-8.32 2zm5.76 17.8c-1.7-2.8 1-5.01 3.3-6.17 2.6-2.1 7.83-3.2 8.41 1.3a3.55 3.55 0 0 1-3.63 4c-2.44 1.53-5.9 4.28-8.09.87zm5.08 14.98c-2.6-3.44 1.73-5.9 4.14-7.7 2.12-1.92 5.77-3.82 7.73-.68 1.3 1.88.05 4.72-2.1 5.2-2.89 1.7-6.45 6.82-9.78 3.18zm6.08 15.31c-1.39-3.23 2-5.03 4.6-5.8 3.14-1.64 9.2-1.53 8.28 3.4-.6 2.7-3.2 2.4-5.23 2.92-2.5 1.1-6.09 2.89-7.65-.53m7.81 14.96c-1.16-2.6 1.05-4.58 3.33-5.35 1.34-1.47 3.45-2.28 5.22-.95 5.28 4.27-5.83 11.98-8.55 6.3m-20.58-15.63c-2.37-4.45 3.76-5.9 6.41-7.95a3.54 3.54 0 0 1 4.8.62c2.3 2.96-.83 5.6-3.44 6.76-2.32 1.5-5.75 3.76-7.77.57M164.03 245.8c-5.76-.11-3.88-8.75 1.26-7.46 2.47-1.08 6.05-1.95 7.12 1.38 1.17 4.6-5.15 5.44-8.38 6.09m-1.78-12.15c-6.44.73-5.35-9.05.61-7.12 2.28-.66 5.37-.91 6.2 1.93.55 1.74-.43 3.93-2.29 4.39-1.48.37-2.99.72-4.52.8m-4.05-15.63c-4.5.72-5.66-6.08-1.17-6.9 1.47-.25 2.96-.43 4.43-.77 2.94-.67 5.26 3.12 3.44 5.48-1.56 2-4.44 1.65-6.7 2.19m-4.76-15.78c-5.2-3.85-.47-8.33 4.52-8.18 4.91-.66 5.53 6.8.58 6.97-.92 1.78-3.47 2.47-5.1 1.2m-1.26-15.04a3.57 3.57 0 0 1-3-5.17c.86-1.8 2.91-2.07 4.67-2.33 2.52-.57 6.05-.76 6.61 2.5.31 1.84-.97 3.8-2.86 4.05-1.89.03-3.59.85-5.42.96zm3.15-18.05c-3.1-.01-7.98-.22-8.24-4.23-.18-1.9 1.57-3.55 3.4-3.62 1.68.09 2.7 1.12 4.62.86 4.58-.07 4.78 6.83.23 6.99m-14.26-17.46c-3.69.23-5-5.21-1.59-6.68 2.8-.61 7.04-2.42 8.3 1.38 1.14 4-3.68 5.17-6.7 5.3m-4.89-18.42c-3.51-.14-10.28.13-8.47-5.31 1.52-3.87 6.11-1.35 9.17-1.66 4.56.49 3.84 7.35-.7 6.97m-3.09-15.89c-10.39-2.61-4.34-12.86.74-7.22 5.68.94 5.06 8.47-.74 7.22m3.67-16.19c-2-1.9-5.37-4.42-3.24-7.42a3.53 3.53 0 0 1 4.88-.83c2.01 2.14 6.08 4.89 3.31 8.06a3.53 3.53 0 0 1-4.95.2zm9.89-12.46c-2.25-2.34-3.09-7.07.95-7.92 2.9-.57 3.7 2.26 4.95 4.14 2.43 3.84-3.33 7.59-5.9 3.77m14.73-6.19c-.5-2.21-2.45-4.62-.85-6.8 1.05-1.48 3.4-2.01 4.88-.82 1.7 1.34 1.88 3.63 2.64 5.52 1.33 4.36-5.23 6.45-6.68 2.1m19.59 1.96c-3.42.09-3.9-3.52-3.62-5.98.11-2.38-.23-5.58 2.33-6.8 3.8-1.46 5.72 2.24 4.7 5.52 0 2.8.47 7.1-3.4 7.27zm16.27-1.83c-2.47-2.7-4.63-6.78.22-8.3a3.7 3.7 0 0 1 3.9 2.06c.84 1.37 2.26 2.58 2.03 4.34-.18 2.96-4.36 4.29-6.16 1.9m14.22-4.26a19 19 0 0 1-4.22-6.7c-1.08-2.83 2.4-5.64 4.98-4.13 2.2 1.34 2.09 4.1 3.99 5.69 3.3 3.15-1.37 8.22-4.75 5.15m18.74-9.31c-1.23-2.78-2.5-7.7 1.66-8.52 3.56-.55 4.01 2.98 4.68 5.55 1.87 4.17-4.37 7.09-6.33 2.97m18.23-3.85c-.35-3.1-2.09-8.28 2.27-9.2 4.7-.57 4.03 4.93 4.63 8.03.7 4.5-6.1 5.67-6.9 1.18zm24.5 3.75c-3.6-.4-3.31-4.32-2.77-7 .32-2.62.2-6.42 3.75-6.54 3.75-.06 4.01 4.13 3.26 6.89-.23 2.78-.43 6.99-4.24 6.65m19.11 3.1c-1.77-.41-3.16-2.37-2.6-4.2.67-2.17 1.23-5.14 3.94-5.5 3.03-.6 5.32 3.22 3.36 5.58-.46 2.3-1.98 4.82-4.7 4.13M34.07 479.99c-5.7-3.3.95-8.22 3.4-11.26 2.84-3.56 8.31.65 5.53 4.28a101 101 0 0 1-3.5 3.92c-.23 2.42-3.22 3.94-5.42 3.06m-9.95-10.57c-3.99-.95-3.18-7.51 1-7.26 2.5-1.8 5.35-6.22 8.6-3.18a3.54 3.54 0 0 1 0 4.95c-2.78 2.24-5.59 6.27-9.59 5.49m-8.1-12.79c-.9-2 .42-4.32 2.46-4.84 3.28-1.21 7.7-6.3 10.61-2.01 1.87 3.33-1.87 5.34-4.37 6.6-2.6 1.58-6.89 4.19-8.7.24m-8.47-15.49c-.39-3.04 2.33-3.93 4.6-4.48 3.18-.91 7.94-4.84 10.11-.42 1.53 3.93-3.2 5.22-5.98 6.33-2.94 1.26-7.82 3.14-8.74-1.44zm-1.46-10.8c-4.49.02-4.68-6.74-.2-7 3.5-.12 8.3-4.6 10.55 0 1.88 5.17-6.8 6.48-10.34 7m3.43-13.06c-2.3.38-4.68.42-6.95-.18a3.5 3.5 0 0 1-2.49-4.27c1.2-4.15 5.5-1.67 8.45-2.48 4.53-.6 5.5 6.22 1 6.93m188.32 76.86c-2.57-.72-2.34-3.26-2.69-5.34-.69-3.06-3.52-7.74.8-9.3 4.6-1.2 5.07 4.7 6.03 7.8 1.36 3.24.24 8.02-4.14 6.84m-15.12 1.74c-2.84-.61-2.95-2.84-2.9-5.18-.6-3.04-3.86-7.4.11-9.4 3.75-1.54 5.12 2.29 5.93 5.18 1.38 3.38 2.43 10-3.14 9.4m-15.66 2.56a3.4 3.4 0 0 1-1.64-2.94c-.68-2.01-1.28-4.05-1.95-6.06-1.34-4.36 5.24-6.46 6.67-2.11.71 3.07 2.81 6.16 2.2 9.36-.7 2.15-3.42 3-5.28 1.75m-15.84 4.62c-5.68-.28-4.66-7.76-6.36-11.64-1.3-4.37 5.25-6.46 6.68-2.11.71 2.39 1.25 4.8 1.78 7.23 2.77 1.93 1.16 6.4-2.09 6.52m-17.53 1.57c-2.6-2.58-2.43-6.74-3.56-9.92-1.3-4.38 5.26-6.46 6.67-2.11.64 2.2 1.08 4.48 1.7 6.69 3.5 3.1-1.34 8.37-4.81 5.34m-14.46 3.08c-3.44-.27-3.1-3.8-3.64-6.27-.7-2.93-3.14-7.38 1-8.82 3.45-1.06 4.73 2.64 5.3 5.3 1.05 3.32 2.67 9.8-2.66 9.79m-18.53.48a3.7 3.7 0 0 1-.77-3.1c-.02-2.87.08-5.74-.08-8.61a3.54 3.54 0 0 1 3.33-3.67c4.72 0 3.66 5.69 3.77 8.9-.22 2.29.64 5.16-1.31 6.88a3.57 3.57 0 0 1-4.94-.4m-14.44-.75c-4.2-1.17-2.37-5.03-1.73-8.02.21-3.02-.95-6.41 3.27-7 4.15-.11 4.03 4.9 3.66 7.87-.53 2.92-1.16 7.92-5.2 7.16zm-16.21-5.45c-2.9-2.55.57-5.36.82-8.2.07-2.58.04-6.2 3.46-6.36 4.35-.06 3.9 4.95 3.36 7.97-.52 3.52-3.35 9.86-7.65 6.59m-14.51-6.73c-2.73-3.35 1.84-5.71 3.15-8.48 1-2.4 2.84-4.87 5.71-3.5 3.13 1.6 1.67 5.18.11 7.39-1.78 2.89-5.4 8.25-8.97 4.59m-10.77-7.49c-2.16-.7-3.09-3.6-1.68-5.4 2.17-2.98 4.14-10.28 8.97-7.63 3.63 2.67-.25 6.4-1.79 9.1-1 2.14-2.7 5.02-5.5 3.93"/><path fill="#000" d="M183.39 481.22c-2.83.16-4.7-3.21-3.04-5.51.99-2.62 1.41-7 5.27-6.25 1.8.38 3.19 2.3 2.7 4.15-.94 2.76-1.3 7.32-4.94 7.6m-17.55-9.38c-2-2.32 0-4.73 1.77-6.38 1.8-2.4 3.07-7.21 7-5.37 4.07 2.3.48 6.82-1.32 9.46-1.7 2.4-4.82 5.19-7.45 2.29m-10.11-14.6c-3.2-4.12 2.31-7.25 5.28-9.26 1.56-1.1 3.82-.5 4.84 1.06 2.06 3.33-1.8 5.39-4.13 6.98-.7 2.55-4.33 3.3-6 1.22m-9.95-15.75c-3.1-2.96.57-6.4 3.38-7.76 2.1-1.47 5.28-2.98 7.03-.2 2.22 3.92-2.25 5.37-4.84 7.09-1.4 1.65-3.78 2.49-5.57.87m17.72 44.92c-2.44-1.6-1.72-5.13.72-6.3 1.9-2.43 3.56-7.21 7.45-4.82 3.04 2.08.75 5.48-.87 7.67-1.47 2.43-4.3 5.39-7.3 3.45m-13.03-7.84c-2.77-3.47 1.91-5.95 3.78-8.4 1.62-2.25 3.78-5.84 6.95-3.74 3.75 2.8-.39 6.69-2.4 9.17-2.04 2.29-5.36 6.2-8.33 2.97m-11.05-16.43c-.4-2.41 1.62-4 3.26-5.35 2.05-1.84 5.11-4.58 7.57-1.76 2.86 3.64-2.06 6.05-4.34 8.19-1.43 2.83-6.03 2.09-6.49-1.08"/><path fill="#000" d="M132.35 448.72c-3.2-4.64 4.16-7.34 6.74-10.15a3.55 3.55 0 0 1 4.94.39 3.54 3.54 0 0 1-.4 4.94c-3.3 1.88-7.31 8.72-11.28 4.82m11.12 43.27c-3.3-1.34-2.8-4.9-.34-6.8 1.81-2.42 3.71-7.11 7.44-4.75 3.2 2.25.51 5.72-1.16 8-1.27 1.98-3.3 4.5-5.94 3.55m-15.43-11.31a3.5 3.5 0 0 1 2.47-3.97c3.5-1.66 5.73-9.02 10.27-5.61 2.87 2.66-.25 5.74-2.19 7.8-2.43 2.94-8.74 7.76-10.54 1.78m-4.52-11.59c-3.32-3.11.45-6.33 3.14-7.92 2.6-1.73 5.85-6.1 8.93-2.76 3.2 4.57-3.93 7.23-6.66 9.73-1 2-3.84 2.43-5.45.9zm-1.1-25.46c-2.98-.11-4.4-4.32-2-6.15q1.26-.98 2.41-2.07c2.41-2.17 5.03-7.45 8.75-4.43a3.53 3.53 0 0 1 .28 4.94c-2.75 2.67-5.39 7.29-9.46 7.7zm-6.87 14.33c-4.47.17-4.94-6.53-.5-6.98 2.95-1.11 5.34-6.05 8.78-3.14 4.3 4.07-4.57 9.82-8.28 10.12M112.4 489c-2.54-3.04 1.64-5.51 1.7-8.7-.2-2.17.27-4.7 2.84-5.12 1.81-.33 3.8.94 4.06 2.83.86 4.4-2.7 15.94-8.6 11m-13.98.05c-2.69-2.41.1-5.35 1.14-7.83 1.12-2.6 2.81-6.51 6.3-4.82 3.57 1.89 1.12 5.7-.2 8.27-1.1 2.99-3.73 7.2-7.24 4.38m-12.44-1.16c-3.3-2.35-.3-5.8 1.2-8.25 1.06-2.52 2.74-5.72 6-4.18 4.63 2.9-.64 8.25-2.33 11.5a3.53 3.53 0 0 1-4.86.94zm-17.51-7.55c-2.79-3.48 1.82-5.76 3.72-8.12 1.54-2.3 2.78-5.41 6.17-3.9 3.48 1.85 1.37 5.84-.54 8.05-2.22 2.46-5.97 7.48-9.35 3.97m-12-6.9c-2.95.27-4.9-3.7-2.78-5.83 3.08-2.14 5.6-9.36 9.95-6.68a3.54 3.54 0 0 1 .94 4.86 47 47 0 0 1-5.66 6.48 3.7 3.7 0 0 1-2.44 1.17m50.31.57c-3.06-2.85.63-5.87 2.38-8.21 1.83-2.4 3.75-7.04 7.44-4.7 4.1 3.27-1.34 7.7-3.2 10.64-1.42 2.2-4.16 4.46-6.62 2.27m-16.66-6.67c-2.72-3.32 1.7-5.83 3.5-8.21 1.81-2.3 3.24-6.94 7.01-5.16 3.8 2.1 1 5.97-.77 8.48-2.25 2.68-5.98 8.67-9.75 4.89zm-12.75-5.01c-3.69-2.74.2-6.46 2.35-8.75 2.18-2.14 4.9-6.63 8.28-3.82 4 4.25-3.68 8.05-5.65 11.47-1.05 1.65-3.35 2.25-4.99 1.1zm-16.64-8.19c-4.19-4.23 4.35-8.77 6.8-11.78 1.4-1.3 3.73-1.02 4.93.39 2.91 3.8-2.5 6.47-4.67 8.94-1.77 1.99-4.38 4.8-7.06 2.44m40.39-4.4c-2.37-2.12-.64-4.95 1.24-6.7 2.48-2.46 4.27-8.91 8.73-6.31 3.43 2.48.15 6.2-1.66 8.58-1.96 2.47-4.7 7.36-8.3 4.44zm-14.29-3.97c-2.97-.11-4.39-4.32-2-6.15a42 42 0 0 0 3.26-2.68c1.75-2.14 4.03-4.67 6.81-2.36 3.03 2.87-.6 6.17-2.8 8.18-1.58 1.2-3.12 3.15-5.27 3m-8.54-13.82c-2.94-3.85 2.6-6.56 4.81-9.04 1.4-1.3 3.73-1.02 4.93.39 2.93 3.85-2.6 6.57-4.82 9.04-1.39 1.29-3.73 1.02-4.93-.4m59.49-.81c-3.63-3.75 2-7.16 4.93-8.94 2.34-1.58 5.83-4.2 8-.93 2.51 4.62-4.14 6.18-6.78 8.5-1.6 1.72-4.03 3.3-6.16 1.38zm-.87-19.49c-.87-3.7 2.1-4.18 4.66-5.43 2.08-1.45 5.16-2.85 6.9-.14 1.8 2.94-.9 5.1-3.4 6.2-2.48 1.6-6.85 3.16-8.15-.62zm-15.54 12.9c-2.14-1.77-1.27-5.53 1.45-6.1 3-1.81 6.55-7.58 10.18-3.9 3.03 4.1-3 6.72-5.45 9.1-1.63 1.53-4.28 2.65-6.19.9m-21.33 6.93c-1.77-1.85-.55-5.24 1.91-5.7 1.9-1.32 3.37-3.15 4.97-4.81 3.08-3.37 8.24 1.23 5.22 4.66-3.03 2.83-7.6 9.9-12.1 5.85m-1.29-11.88c-2.37.18-4.37-2.41-3.47-4.65 1.66-3.24 5.27-5 7.9-7.41 3.51-2.91 8 2.34 4.53 5.32-1.96 1.57-3.99 3.1-5.86 4.8a3.6 3.6 0 0 1-2.78 1.88q.16 0 .28-.03l.44-.11c-.36.09-.67.17-1.03.18zm15.56-9.31a3.5 3.5 0 0 1 1.4-4.5c2.56-1.47 5.01-3.13 7.48-4.74a3.54 3.54 0 0 1 4.84 1.06c2.23 3.73-2.47 5.7-4.98 7.38-2.6 1.73-6.6 4.84-8.74.8m18.16-15c-.62-3.4 2.97-4.2 5.4-4.88 3.02-.98 7.33-4.62 9.5-.46 2.13 5.3-7.35 6.89-10.85 8.16-1.83.45-3.75-1.03-4.05-2.83m-91.53 63.98c-1.76-2.96.8-4.87 3.16-6.2 2.56-1.72 5.2-6.36 8.6-3.52a3.5 3.5 0 0 1 .27 4.94c-2.82 2.49-8.49 9.38-12.04 4.77zm-8.61-11.21a3.53 3.53 0 0 1 .4-4.93c2.78-2.4 5.6-4.74 8.31-7.22 1.41-1.3 3.72-1.02 4.93.39a3.55 3.55 0 0 1-.39 4.94c-2.7 2.48-5.53 4.83-8.32 7.22a3.53 3.53 0 0 1-4.93-.4m-9.14-18.23c-2.33-4 2.86-5.87 5.64-7.35 2.53-1.46 6.15-4.51 8.46-1.1 2.66 5.12-5.39 6.79-8.46 9.02-1.7 1.38-4.36 1.47-5.65-.57zM56 439.05a3.5 3.5 0 0 1-.66-6.63q3.11-2.6 6.1-5.34c1.4-1.3 3.73-1.02 4.94.39 2.66 3.3-1.55 5.95-3.76 7.95-1.96 1.49-3.85 4.23-6.62 3.64zm-12.34-14.11c-1.35-2.9 1.4-4.8 3.8-5.7 3.14-1.42 7.13-6.66 10.21-2.47 2.22 3.65-2.43 5.77-4.89 7.48-2.66 1.6-7.06 4.67-9.12.69m-7.63-13.16c-1.87-4.74 4.57-5.5 7.41-7.42 1.88-1.4 4.7-2.02 6.16.3 1 1.55.6 3.88-1.06 4.84-3.48 1.43-9.7 7.17-12.5 2.28m31.18 9.2c-1.7-3.82 3.08-5.2 5.34-7.12 2.1-1.76 5.12-4.47 7.55-1.66 1.21 1.42 1.1 3.74-.39 4.93-3.3 2.12-9.19 9.26-12.5 3.85m-5.95-13.1c-2.98-.1-4.4-4.32-2-6.15 2.41-1.74 5.2-2.86 7.7-4.48 3.87-2.41 7.6 3.4 3.77 5.89q-3 1.8-6.12 3.42c-1.16.7-1.99 1.46-3.35 1.32M49.5 391.52c-2.35-4.14 2.96-6.03 6.1-6.8 2.84-.82 6.8-3.67 8.68.14 1.5 3.26-1.98 5.14-4.63 5.89-3.29.5-7.57 4.43-10.15.78zm34.86 13.96c-2.2-1.86-1.03-5.71 1.76-6.15 2.47-1.13 4.81-2.56 7.15-3.93 3.88-2.41 7.61 3.4 3.78 5.89-3.24 1.48-9.42 7.04-12.69 4.19m-9.2-13.34c-1.2-4.35 4.12-4.8 6.97-6 2.83-1.2 6.76-4.26 8.81-.3 1.73 4.13-3.57 5.59-6.4 6.87-2.97 1.02-7.8 3.74-9.38-.57m-5.79-12.45c-3.08-4.21 3.11-7.33 6.43-8.48 2.5-1.2 6.03-2.12 7.18 1.27 1.21 4.52-4.48 4.75-7.24 6.38-1.83 1.84-4.27 3.12-6.37.83m37.18 17.57c-3-.47-3.77-4.86-1.17-6.38a50 50 0 0 0 9.08-3.5c4.15-1.9 7.08 4.35 2.96 6.34-3.48 1.43-6.98 3.87-10.89 3.54zM100.78 385c-4.56.17-4.9-6.72-.34-6.98 4.02.06 9.12-6.17 12.06-1.14 1.6 3.49-2.4 5.22-5.03 6.24-2.14.9-4.35 1.8-6.69 1.9zm-9.98-12.33c-4.92-6.55 6.75-7.74 10.87-8.81 4.48-.82 5.74 6.06 1.24 6.89-2.46.62-4.97 1.04-7.38 1.84a3.54 3.54 0 0 1-4.73.08m36.42 13.21c-2.55.64-6.1.17-6.26-3.08-.1-1.84 1.42-3.66 3.33-3.67 2.98-.22 5.99-.8 8.84-1.68 4.38-1.34 6.46 5.24 2.12 6.67a49 49 0 0 1-8.03 1.76m-8.68-14.16c-4.56.2-4.9-6.7-.34-7 3.48.26 8.7-3.47 10.47 1.18 1.17 5.5-6.5 5.25-10.12 5.82M113.62 358c-4.56.2-4.92-6.68-.34-7 3.53.28 9.03-3.3 10.83 1.29 1.17 5.74-6.8 5.06-10.5 5.7m-91.43 59.26c-3.48.23-5-4.75-1.96-6.48 1.47-.9 3.21-1.13 4.85-1.6 2.83-.72 7.2-2.7 8.5 1.23 1.04 3.93-3.19 4.7-6.04 5.36-1.84.29-3.54 1.19-5.35 1.48M20.05 401c-3.73-.68-3.59-6.36.13-6.9 3.84-.06 10.37-4.73 12.43.44.53 1.75-.48 3.9-2.33 4.36-3.4.58-6.77 2.24-10.23 2.1m11.02-15.86c-3.36.16-6.72.1-10.07-.06-1.9-.1-3.33-1.98-3.16-3.81.3-3.22 3.71-3.37 6.23-3.05q3.38.03 6.75-.07c4.58-.11 4.81 6.79.26 7zm1.15-14.48c-2.7.3-5.42.26-8.13.37-4.56.14-4.83-6.76-.26-7 2.71-.11 5.43-.06 8.13-.37 4.6-.1 4.84 6.68.26 7m1.58-15.8c-3 .34-6.03.23-9.04-.02a3.53 3.53 0 0 1-3.16-3.81c.34-3.42 4-3.35 6.6-2.95 1.78.07 3.55-.07 5.32-.21 4.6-.1 4.84 6.68.26 7zm1.51-15.02c-3.89.46-12.64 1.27-11.17-4.94.78-2.1 3.17-2.71 5.1-1.86 1.93.22 3.88-.04 5.81-.2 4.55-.2 4.84 6.8.26 7m1.25 48.01c-1.98-3.5 1.75-5.45 4.56-6.4 2.63-1.14 6.57-3.37 8.28.24.76 1.7 0 3.9-1.76 4.63-3.49.8-8.17 5.54-11.09 1.53zm8.9-15.25c-1.96.09-3.97.42-5.89-.04-3.96-1.6-2.23-7.4 1.94-6.8 2.62.09 5.2-.34 7.74-.9 4.53-.7 5.67 6 1.16 6.9-1.63.36-3.28.68-4.95.84m-.99-15.78c-4.52.68-5.66-6.12-1.16-6.91a74 74 0 0 0 9.68-2.03c1.84-.5 3.8.46 4.37 2.33.54 1.78-.49 3.88-2.33 4.37a85 85 0 0 1-10.56 2.24m7.5-15.99c-3.48-.24-10.38.33-9.6-4.93 1.34-4.67 6.83-1.63 10.25-2.05 4.58.5 3.92 7.26-.65 6.97m7.38 31.47a3.6 3.6 0 0 1-2.28-3.17c.05-3.78 4.46-4.85 7.31-6.03l3-1.13c2.84-1.05 5.62 2.46 4.08 5.02-1.55 2.38-5.59 2.57-7.6 3.84-1.26 1.1-2.73 2.2-4.5 1.47m10.12-18.34c-1.79.22-3.52.09-5.27-.24-4.44-1.05-2.9-7.77 1.57-6.82a9.4 9.4 0 0 0 5.44-.58c2.85-1.04 5.63 2.46 4.1 5.02-1.17 1.98-3.79 2.22-5.84 2.62m2.59-16.16c-3.13.08-6.45.06-9.53-.06-4.99-.68-3.62-7.9 1.33-6.95q.9.01 1.8.06v-.01c3.32.35 9.3-1.55 9.76 3.33a3.53 3.53 0 0 1-3.37 3.63zm14.76 22.81c-3.5.72-8.53-.17-7.1-4.87a3.54 3.54 0 0 1 4.7-1.96c3.26.26 6.82-1.71 9.9-.64 2.66 1.3 2.26 5.7-.67 6.42-2.24.54-4.52.86-6.82 1.06m-4.39-16.47a3.5 3.5 0 0 1-2.03-4.51c1.94-3.77 7.26-3.35 10.87-4.15 4.52-.68 5.66 6.12 1.16 6.9-2.2.34-4.47.55-6.6 1.25a3.6 3.6 0 0 1-3.4.5M87 326.89c-3 .65-7.1-1.3-5.82-4.88.65-1.71 2.72-2.76 4.46-2.05 2.44-.13 4.84-.72 7.23-1.2 4.51-.73 5.66 6.08 1.16 6.9-2.34.47-4.67.98-7.04 1.23zm23.42 21.63c-3.79.45-11.78 2.77-11.03-3.67a3.53 3.53 0 0 1 4.6-2.51c1.75-.2 3.51-.5 5.26-.73 4.52-.68 5.66 6.12 1.16 6.9zm2.31-13.57c-3.87-.3-12.7 2.2-12.7-3.8.25-2.8 3.13-3.51 5.49-3.06q3.47.04 6.95-.14c4.56-.13 4.81 6.77.25 7m3.8-16.86c-3.14-.05-6.29-.21-9.44-.31-4.54-.41-3.9-7.37.65-6.97l6.57.24c1.58.08 3.28-.2 4.5 1.02 2.23 1.95.7 6.1-2.29 6.03zm14.59 24.78c-4.02.5-13.34 2.46-11.8-4.41a3.53 3.53 0 0 1 4.72-1.94c1.98-.05 3.96-.3 5.92-.55 4.52-.68 5.66 6.13 1.16 6.9m4.35-15.24c-3.62-.43-12.45.99-12.17-4.45 1.11-5.62 8.06-1.9 11.91-2.54 4.58-.1 4.81 6.8.26 7zm10.27 44.19c-3.75-.25-11.4 1.88-11.47-3.86.83-5.16 7.6-2.36 11.2-3.14 4.57-.12 4.81 6.77.26 7m-2.36-13.32c-3.86-.08-12.18.97-11.55-4.93.76-3.04 3.81-3 6.25-2.16 1.68.2 3.37.14 5.04.1 4.59-.12 4.81 6.78.26 7m9.11-12.52c-3.73-.37-10.94 2.73-11.62-2.86.26-5.43 7.71-3.4 11.36-4.13 4.57-.13 4.81 6.77.26 7zm1.15-14.69c-3.83.07-12.22 2.42-12.25-3.54.3-3.18 3.6-3.41 6.12-3.01 2-.03 3.31-.18 4.97-.36 4.55-.61 5.66 6.07 1.16 6.9m.19-18.06a27 27 0 0 1-5.1-.75c-4.45-1.08-2.9-7.81 1.56-6.82q2.07.5 4.2.6c4.58.5 3.91 7.26-.65 6.97m.88-14.73c-2.94-.63-7.94-.98-7.1-5.2 1.1-4.2 5.72-2.2 8.66-1.61 4.47 1.06 2.89 7.79-1.56 6.82m4.98-17.88c-3.48-1.03-10.5-.03-9-5.7 1.9-4.24 7.17-1.37 10.57-1.13 4.46 1.04 2.88 7.78-1.57 6.82m-20.02 30.82c-3.63-.36-7.98.45-11-2-3.24-3.12 1.2-8.41 4.72-5.4 2.3.3 4.63.35 6.94.43 4.54.4 3.91 7.38-.65 6.97m2.3-14.84c-3.4-.48-6.84-.94-10.06-2.13-4.25-1.67-1.81-8.12 2.47-6.55 2.72.87 5.46 1.35 8.25 1.72 4.55.5 3.88 7.38-.66 6.97m1.43-14.35c-3.44-1.04-10.27.46-10.19-4.77a3.54 3.54 0 0 1 3.81-3.16c3.06.69 7 0 9.42 2.24 1.96 2.22-.1 6.14-3.05 5.68m-22.35 21.15q-2.66-.1-5.3-.3c-5.08 3.08-9.12-5.16-3.12-7 2.98-.4 6.06.38 9.08.34 4.56.46 3.88 7.33-.65 6.97m1.76-16.47c-3.58-.8-10.76.74-10.75-4.62 1-5.43 7.7-2.14 11.4-2.35 4.56.48 3.88 7.35-.65 6.97m2.18-13.38c-3.41-.74-10.31-.18-9.51-5.37 1.36-4.71 6.8-1.67 10.16-1.6 4.55.5 3.89 7.37-.64 6.97zm-25.67 36c-4.27.45-15.16.76-11.88-6.23 1.35-1.9 3.5-1.51 5.28-.74 2.11.27 4.23.06 6.34-.03 4.58-.13 4.81 6.77.26 7m3-14.06c-3.94-.33-13.44 0-11.9-6.12.92-2.47 3.7-2.61 5.8-1.61a25 25 0 0 0 5.84.75c4.57-.1 4.81 6.8.26 7zm2.71-12.78c-3.86.09-12.45.59-10.97-5.43.91-2.47 3.6-2.54 5.71-1.7a26 26 0 0 0 5 .13c4.57-.12 4.8 6.78.25 7zm2.32-15.63q-3-.59-6-1.1c-2.99-.5-3.66-4.93-1.04-6.38 2.69-1.25 5.8.4 8.6.66 4.45 1.06 2.89 7.79-1.56 6.82m-30.2 52.47c-3.4.28-6.82.69-10.25.67-5.23-.45-4.04-8.4 1.13-7 2.95-.14 5.91-.4 8.85-.66 4.6-.11 4.85 6.67.26 7zm2.56-14.62-6.87-.45c-2.36.29-5.14-.6-5.23-3.37.44-6.11 8.8-2.81 12.75-3.14 4.56.46 3.88 7.34-.65 6.97zm4.72-14.79c-4.13.25-14.66 1.6-13.14-5.2.33-.85 1-1.56 1.83-1.94 1.44-.71 2.88.07 4.33.3 2.23.3 4.48.04 6.71-.16 4.55-.2 4.83 6.8.26 7zM86 275.86c-3.52-.77-10.82-.3-10.09-5.61 1.52-5.02 7.22-1.28 10.74-1.37 4.55.5 3.88 7.37-.65 6.97m5.54-19.1c-3.6-.95-11.05 1.12-10.98-4.46 1.02-5.34 7.92-2.38 11.64-2.51 4.55.49 3.88 7.36-.65 6.97m-36.37 68.03c-4.23.73-16 1.1-11.6-6.08 1.1-1.17 2.7-1.3 4.07-.74 2.12.27 4.26.15 6.37-.1 4.56-.61 5.67 6.09 1.16 6.9zm2.33-15.36c-3.95-.57-13.67.98-12.9-5.25.67-2.97 3.83-3 6.2-2.2 2.42.35 4.9.39 7.35.47 4.53.4 3.91 7.38-.65 6.97m4.23-13.63c-3.37.34-6.83.39-10.04-.84-2.88-.91-2.96-5.37-.19-6.47 1.55-.74 3.11.15 4.66.43 1.77.2 3.55 0 5.32-.12 4.57-.14 4.82 6.75.26 7m4.15-16.43c-2.67-.24-5.35-.68-8.03-.72a3.57 3.57 0 0 1-4.29-2.37 3.54 3.54 0 0 1 2.33-4.37c3.5-.75 7.12.29 10.65.48 4.55.48 3.88 7.37-.65 6.97m4.85-15.37c-3.67-.4-10.64 2.02-11.35-3.28.3-5.58 7.41-3.07 11.08-3.72 4.58-.11 4.81 6.79.26 7zm3.88-17.49c-3.59-.51-11.14-.76-9.65-6.13 1.96-4.45 6.86-.6 10.3-.84 4.55.48 3.88 7.36-.65 6.97m-40.89 79.81q-4.41-.36-8.78-1.1c-2.38.17-4.34-2.5-3.39-4.72.83-2.31 3.45-2.58 5.53-2q3.64.52 7.3.84c4.55.47 3.88 7.36-.65 6.97m-1.33-13.01c-3.4-.2-6.88-.15-10.22-.92-4.43-1.08-2.89-7.8 1.57-6.82 3.05.65 6.21.6 9.31.77 4.57.5 3.92 7.26-.65 6.97m2.77-17.39c-3.29-.24-7.68.59-10.14-2.1a3.55 3.55 0 0 1 .52-4.92 3.6 3.6 0 0 1 4.06-.27c1.75.25 3.53.3 5.3.29 4.58-.1 4.81 6.8.26 7m2.71-14.81c-3.1-.35-6.15-1.06-9.27-1-2.94-.56-3.72-4.94-1.05-6.4 2.1-1.14 4.6-.5 6.83-.14q2.07.3 4.14.57c4.56.5 3.88 7.37-.65 6.97m.11-13.54c-4 .36-12.8 1.57-12.23-4.6.82-3.03 3.7-3.05 6.17-2.1 1.63.17 3.28-.07 4.9-.21 4.52-.73 5.66 6.17 1.16 6.9m.47-17.83c-3.8.19-13.13 1.38-12.3-4.64 1.55-4.98 7.5-1.16 11.14-2.27 4.52-.73 5.65 6.17 1.16 6.9m-.75-14.56c-1.89-.21-3.79-.45-5.69-.6-4.54-.45-3.9-7.32.65-6.96 3.2.49 9.05-.32 8.85 4.4a3.54 3.54 0 0 1-3.8 3.16m.05-15.08c-3.79.27-12 .1-10.55-5.58.85-2.27 3.52-2.76 5.5-1.67 1.55.46 3.2.34 4.78.26 4.58-.14 4.82 6.76.26 7zm14.89 49.35c-3.35-.66-9.87.34-9.72-4.63.85-5.2 6.9-2.3 10.37-2.34 4.56.47 3.88 7.35-.65 6.97m4.12-15.66c-4-.25-13.5.56-12-5.78.84-2.27 3.48-2.73 5.47-1.7 2.05.45 4.18.44 6.27.48 4.57-.1 4.81 6.8.26 7m1.35-15.99c-3.9-.31-12.84.93-12.16-5.12.84-3.16 3.86-2.94 6.4-2.1 1.82.25 3.66.2 5.5.22 4.6-.02 4.83 6.75.26 7m-.63-14.95a50 50 0 0 1-7.62-.9c-2.99-.53-3.66-4.93-1.05-6.4 1.07-.7 2.31-.52 3.5-.28 2.42.7 5.4-.1 7.46 1.55 2.23 1.95.7 6.09-2.29 6.03m-16.41-21.96c-3.9-.63-13.1 1.3-11.99-5.12.63-2.13 2.95-2.9 4.94-2.28 2.42.2 4.86.3 7.3.4 4.56.2 4.31 7.1-.24 6.99m1.37-17.06c-3.62-1.06-11.92.03-11.42-5.5.3-1.8 2.16-3.3 4.02-2.88 2.82.64 5.68 1.07 8.54 1.48 4.52.78 3.36 7.59-1.14 6.9m1.69-14.09c-3.6-1.22-11.77-1.74-9.96-7.3 1.3-2.83 4.44-2.1 6.65-.87 1.74.6 3.54 1.04 5.33 1.47 4.36 1.3 2.37 8-2.03 6.7zm2.64-14.27c-3.67-.85-12.03-.16-10.87-5.91 1.8-4.88 8.25-.75 12-1 4.5.74 3.38 7.63-1.14 6.92zm3.18-15.57a41 41 0 0 0-6.47-.91c-4.56-.23-4.33-7.13.24-7 3.52.65 10.67-.27 10.26 5.02-.3 1.83-2.18 3.27-4.02 2.89m10.71 65.91c-3.9-.43-13.82 1.18-13.32-4.87.3-1.8 2.16-3.3 4.02-2.88 3.13.7 6.34.73 9.54.76 4.57.19 4.32 7.09-.24 7zm.78-17.76c-3.72-.47-12.6.02-11.37-5.74 1.96-4.94 7.83-.63 11.61-1.26 4.6.23 4.34 7-.24 7m1.8-15c-3.63-.52-11.37 1.34-11.57-4.02.7-5.71 8.02-2.36 11.81-2.97 4.57.18 4.31 7.09-.24 7zm5.8-13.49c-3.92-.02-7.86 0-11.7-.9-4.32-1.28-2.4-7.94 1.96-6.72 3.28.68 6.64.56 9.98.62 4.57.18 4.31 7.1-.24 6.99m1.5-14.02c-3.6-1.15-12.14-1.65-10.23-7.25 2.51-4.53 7.67.2 11.36.34 4.5.83 3.36 7.64-1.14 6.9zm7.54 82.77c-2.48-.06-5-.07-7.45-.55-1.72-.35-3.64-1-4.69-2.5-2.06-2.83 1.18-6.74 4.32-5.22 2.3 1.63 5.37 1.06 8.06 1.29 4.57.2 4.32 7.1-.24 7zm4.1-16.19c-3.6.02-7.27.05-10.78-.85-4.36-1.34-2.37-7.94 2.03-6.7 2.94.66 6 .53 9 .55 4.58.25 4.34 7.02-.25 7m-1.31-14.45c-3.6-.56-11.73.34-11.23-5.1 1.36-5.34 7.73-1.5 11.47-1.9 4.57.2 4.32 7.1-.24 7m1.21-16.46c-3.76.05-11.84.53-10.76-5.21 1.07-3.36 4.4-2.33 6.97-1.8 1.9.28 4.11-.5 5.71.85 2.35 1.8 1.07 6.05-1.92 6.16m5.42-17.53c-3.72-.3-12.08 1.42-11.6-4.4 1.2-5.01 7.37-1.9 10.93-2.56 4.6-.3 5.21 6.46.66 6.97zm1.88-16.18c-3.5-.14-10.66-.36-9.53-5.51 1.6-4.55 6.45-1.08 9.76-1.5 4.55.15 4.34 7.15-.24 7zM97.41 241c-2.75 0-5.52.08-8.25-.3-3.2-.03-5.49-3.97-2.88-6.36a3.6 3.6 0 0 1 3.9-.57c2.47.34 4.98.23 7.47.23 4.6.24 4.35 7-.24 7m4.59-15.98q-5.1-.2-10.19-.57c-4.56-.23-4.33-7.13.24-7q5.09.38 10.18.58c4.58.2 4.32 7.1-.24 7zm1.4-14.25c-3.92-.64-13.5-.75-11.56-6.85.85-1.96 3.27-2.53 5.08-1.57 2.15.88 4.43 1.2 6.73 1.42 4.58.19 4.3 7.17-.24 7m-1.64-15.39c-3.46-.3-10.23.8-9.75-4.47 1.05-4.7 6.65-2.16 10-2.53 4.56.19 4.3 7.09-.25 7m4.12-14.59c-3.86-.93-12.49 1.33-12.15-4.78.4-2.52 3.02-3.33 5.22-2.73q3.59.22 7.16.5c4.6.32 4.33 7.09-.25 7zm1.11-15.25c-3.66-.26-11.8-.22-10.64-5.71 1.84-4.9 7.25-.66 10.86-1.3 4.6.25 4.34 7.02-.24 7zm1.44-14.8a62 62 0 0 1-6.77-1.23c-2.98-.72-3.33-5.2-.6-6.46 2.73-1.02 5.67.78 8.5.78 4.53.77 3.37 7.58-1.13 6.9m8.16 100.54c-3.24-.4-6.42-1.02-9.6-1.65-4.5-.82-3.39-7.62 1.13-6.91 3.2.63 6.36 1.26 9.6 1.65 4.52.77 3.36 7.58-1.14 6.9m5.24-15.68c-3.73-.32-13.33 1.25-12.66-4.58.38-2.4 2.84-3.3 4.98-2.77 2.3.22 4.57.4 6.87.39 1-.06 1.95.14 2.73.8 2.36 1.82 1.07 6.05-1.92 6.16m2.84-15.72c-3.36.13-6.44.4-9.63-.63-4.36-1.36-2.37-7.96 2.03-6.7 3.05 1.3 6.85-.67 9.52 1.17 2.36 1.82 1.08 6.05-1.92 6.16m.89-17.26c-3.7-.28-12.5.17-11.26-5.57 1.34-4.1 5.92-1.74 8.92-1.47 1.46.16 3.07-.2 4.26.88 2.35 1.8 1.07 6.05-1.92 6.16m1.81-13.84c-3.06.1-6.1-.1-9.15-.3-4.55-.23-4.33-7.13.23-7 2.69.19 5.36.34 8.03.33 1.02-.07 2 .12 2.8.8 2.35 1.8 1.07 6.05-1.92 6.16m-.56-13.18c-3.38-.75-10.18-.78-9.05-5.85 1.68-4.61 6.81-1.14 10.18-1.05 4.52.78 3.36 7.6-1.14 6.9m3.51-13.89a62 62 0 0 1-9.89-1.64c-4.36-1.33-2.37-7.94 2.02-6.7 2.95.73 5.98 1.16 9 1.43 4.5.73 3.4 7.63-1.14 6.9zm-4.27-11.64c-3.14-1.34-9.67-1.1-8.49-6.11 1.73-4.61 7.22-1.3 10.52-.6 4.36 1.4 2.34 8-2.03 6.7m11.13 110.39c-4.23.2-14.3.65-12.5-6 .97-2.18 3.68-2.58 5.57-1.3 2.03.55 4.2.34 6.27.33 4.57-.41 5.2 6.56.66 6.97m5.63-15.63c-4.72.82-9.63.66-14-1.44-4.14-1.93-1.3-8.21 2.9-6.37 3.25 1.64 6.94 1.42 10.44.85 4.53-.45 5.22 6.5.66 6.97zm.43-15.29c-3.94-.55-12.94-.41-11.09-6.51 1.27-2.8 4.28-2.02 6.53-1.1 1.59.3 3.2.46 4.8.6 4.57.19 4.3 7.18-.25 7m4.59-15.59c-4.09.3-8.2.27-12.14-1-4.36-1.37-2.36-7.97 2.03-6.7 3.05 1.05 6.28.93 9.45.74 4.56-.36 5.2 6.52.66 6.97zm-1.46-19.18c-3.8.19-12.55.77-11.38-5.13 1.75-4.72 7.16-.77 10.72-1.84 4.54-.4 5.2 6.48.66 6.97m-.83-14.67c-3.7-.22-11.52.16-10.44-5.46 1.72-4.7 7.13-.9 10.69-1.54 4.58.2 4.3 7.1-.25 7m-2.73-13.15c-2.97-.18-7.75-1.45-6.66-5.36.88-2.72 3.72-2.91 5.98-1.78 1.22.2 2.53.27 3.39 1.29 2.1 2.1.26 6.13-2.72 5.86zm12.25 100.65c-3.8-.7-8.63.17-11.66-2.56q.21.26.45.47c-2.38-1.82-1.02-6 1.94-6.15 3.31.55 6.3 1.06 9.51 1.24 4.6.18 4.31 7.17-.24 7m1.05-13.86c-3.63-.32-11.7-.13-10.53-5.64 1.8-4.77 7.2-.85 10.76-1.36 4.6.23 4.34 7-.24 7zm-2.4-17.94c-5.43.5-6.67-6.75-1.12-7.16 2.65-.06 5.61 1.14 5.14 4.27a3.55 3.55 0 0 1-4.02 2.88m14.26 21.86c-2.99-1.21-8.76-2.14-6.98-6.62a3.54 3.54 0 0 1 4.63-1.74c2.38 1.24 5.05 1.13 6.46 3.4 1.48 2.58-1.3 5.98-4.12 4.97zM122.1 126.72a44 44 0 0 0-8.07-.52c-2.77-.34-3.9-4.1-1.87-5.95 3.14-2.23 7.5-.65 11.07-.43 4.51.78 3.36 7.59-1.14 6.9zm-11.62 9.56c-4.23-.11-14.5-1.87-10.88-8 1.43-1.77 3.89-1.43 5.48-.1 1.78.73 3.73 1.03 5.64 1.1 4.58.2 4.31 7.12-.24 7m-19.11-3.64c-2.99-.28-5.98-.66-8.98-.81-4.56-.21-4.33-7.1.24-7 3.3.13 6.6.58 9.88.9 4.5.73 3.38 7.64-1.14 6.92zm-37.26-5.45c-3.09-.65-6.2-1.28-9.24-2.2-4.35-1.37-2.36-7.97 2.03-6.7 2.75.8 5.55 1.38 8.35 1.99 4.51.83 3.36 7.64-1.14 6.9m18.59 1.77c-3.97-.74-13.83-.26-11.89-6.63a3.6 3.6 0 0 1 5.07-1.55c2.57.78 5.3.97 7.94 1.27 4.5.7 3.4 7.63-1.14 6.9zM61.81 113.9c-3.53-1.6-11.79-1.42-10.67-7 .66-2.36 3.72-3.42 5.62-1.8 2.35.74 4.72 1.4 7.07 2.1 4.37 1.38 2.34 7.99-2.03 6.7zm5.56-15.18c-3.49-.98-11.6-3.72-9.02-8.57 3.06-4.27 6.65 1.14 10.16 1.66 4.51.83 3.36 7.63-1.14 6.9m8.67-12.79c-2.9-2.43-10.96-4.6-8.37-9.5 3.45-4.6 8.5 2.16 12.11 3.58 3.84 2.47.16 8.3-3.73 5.92m8.36 31.6c-3.86-.88-7.87-1.62-11.3-3.68-3.84-2.48-.16-8.32 3.73-5.92 2.1 1.17 4.5 1.66 6.8 2.26 1.5.38 3.28.46 4.22 1.89 1.8 2.36-.53 6.1-3.44 5.45m5.38-13.02c-3.5-1.44-12.74-1.6-11.42-7.07.53-1.75 2.57-3 4.36-2.34a92 92 0 0 0 9.08 2.7c4.37 1.35 2.35 7.96-2.03 6.7zm7.64-11.65c-3.3-1.5-10.54-1.46-9.46-6.65 2.03-5.1 7.86-.62 11.5-.05 4.36 1.38 2.33 7.98-2.04 6.7m6.71 27.63c-2.12-.31-4.27-.56-6.36-1.05-3.08-.26-7.13-2.65-5.05-6.16 1.44-2.36 4.05-1.52 6.14-.76q3.18.63 6.4 1.05c4.5.78 3.35 7.59-1.15 6.9zm9.47-12.93c-3.59-.53-7.33-.68-10.65-2.24a3.55 3.55 0 0 1-1.73-4.64c.9-2.03 3.45-2.6 5.29-1.44 2.64.85 5.47 1.02 8.22 1.4 4.52.77 3.36 7.58-1.14 6.9zm7.61-12.65a66 66 0 0 1-8.08-2.48 3.7 3.7 0 0 1-2.09-1.74c-1.47-2.57 1.3-5.98 4.12-4.97 2.31.84 4.65 1.63 7.03 2.24a3.7 3.7 0 0 1 2.46 1.49c1.8 2.36-.53 6.1-3.44 5.46m8.49 12.39c-3.89-.9-11.94-4.46-7-9.08a3.55 3.55 0 0 1 4.78.75c1.3.79 2.81 1.14 4.25 1.63 4.37 1.38 2.34 7.98-2.03 6.7m5.82-20.5c-2.75-2.33-9.62-4.35-7.2-9 3.31-4.4 7.62 1.53 10.92 3.07 3.84 2.48.16 8.32-3.72 5.92m-45.26-10.9c-2.96-1.61-5.9-3.24-8.75-5.04-3.84-2.47-.16-8.31 3.73-5.92 2.85 1.8 5.8 3.42 8.75 5.04 3.86 2.4.16 8.34-3.73 5.92m10.14-11.99c-2.39-1.82-4.67-3.8-7.14-5.51-3.17-.9-3.28-5.53-.2-6.64 4.05-1.16 8.51 4.8 11.84 6.79 3.47 2.95-.94 8.24-4.5 5.36m10.81-8.79c-1.97-1.94-3.73-4.1-5.77-5.96a4 4 0 0 1-1.88-2.02c-1.13-2.75 2.06-5.78 4.74-4.4 3.27 1.86 5.34 5.17 8.1 7.67 3.03 3.38-2.02 8.04-5.19 4.7m13.04-10.61c-1.74-3.12-7.23-7.61-3.2-10.92 4.74-2.74 6.42 4.29 8.94 6.92 2.58 3.76-3.04 7.72-5.74 4m-11.8 38.72-9.18-5.85c-3.83-2.48-.16-8.32 3.74-5.92q4.6 2.9 9.18 5.86c3.83 2.48.15 8.32-3.73 5.92m10.28-11.25c-2.62-2.77-10.48-5.82-7.2-10.43 3.9-4.04 8.3 3.25 11.7 5.07 3.48 2.95-.94 8.24-4.5 5.36m12.18-7.46c-3.57-.71-5.56-4.9-8.1-7.26a3.53 3.53 0 0 1 .22-4.94c4.56-3.46 7.41 4.13 10.59 6.36 2.13 2.1.25 6.08-2.72 5.86zm9.53-10.5c-1.74-3.27-7.67-8.63-2.86-11.67 4.87-2.03 6.02 5.03 8.61 7.67 2.57 3.76-3.06 7.72-5.75 4m1.97 21.45c-1.02-1.43-2-2.91-3.09-4.3a3.53 3.53 0 0 1-1.08-4.81c3.9-4.84 7.78 2.05 9.91 5.1 2.57 3.76-3.06 7.73-5.75 4zm13.74-6.55c-1.7-3.2-6.66-10.43-1.6-12.63 5.24-1.47 4.94 5.77 7.34 8.62 2.56 3.78-3.08 7.73-5.74 4m-21.28-29.6c-2.17-1-2.62-3.66-3.8-5.52a3.9 3.9 0 0 1-1.52-3.7c.26-2.81 3.94-4.08 5.91-2.1 1.16 1.07 1.77 2.5 2.48 3.88l1.43 2.79c1.38 2.72-1.77 5.9-4.5 4.66zm13.94-4.81c-.84-4.13-4.15-9.5-2.08-13.52 1.88-2.68 6.45-1.3 6.42 2 0 3.26 1.56 6.4 2.38 9.56 1.23 4.38-5.37 6.35-6.72 1.97zm18.12-.81c-.88-2.85-1.47-5.76-2.15-8.66-1.42-2.14.32-5.38 2.94-5.3 5.2.32 4.16 8.36 5.94 12 1.24 4.38-5.37 6.34-6.72 1.97zm18.36 1.35c-5.25.42-4.04-6.51-5.16-9.81-1.63-4.2 4.62-6.84 6.44-2.73.94 2.75 1.11 5.7 1.65 8.54a3.53 3.53 0 0 1-2.93 3.99m15.81.68a3.54 3.54 0 0 1-3.56-3.45c.38-3.76-2.22-11.81 3.34-12.32 1.83-.03 3.63 1.54 3.56 3.44-.78 3.82 2.35 11.84-3.34 12.32m16.78 2.88a3.54 3.54 0 0 1-3.56-3.44c.33-3.88-1.08-12.92 5.07-12.03 4.22 1.23 1.85 5.97 1.95 9.06.13 2.7.06 6.3-3.46 6.4m14.03 2.75c-4.34-.07-3.66-5.16-3.47-8.2.24-2.81.1-7.27 3.93-7.4 4.78.35 3.25 4.87 3.03 8.1-.12 2.9.6 7.34-3.5 7.5m15.33 1.6c-1.8-.21-3.39-2.01-3.05-3.88 1.17-3.47-.03-10.6 5.23-10.4 1.81.23 3.4 2.03 3.05 3.9-1.17 3.46.02 10.59-5.23 10.39m12.44 7.89c-4.28-1.27-1.91-6.03-1.38-9.07.04-2.43 1.3-5.17 4.14-4.81 5.42 1.16 2.06 7.79 1.52 11.38a3.53 3.53 0 0 1-4.28 2.5m14 5.7c-4.2-1.91-1.1-6.78.22-9.67.88-1.7 3.14-2.24 4.76-1.33 3.71 2.24.35 6.13-.42 9.07-.6 1.8-2.86 2.62-4.56 1.93m12.9 5.73c-1.85-.7-2.65-2.91-1.9-4.68.8-2.66 1.63-6.84 5.34-5.93 1.78.46 3.08 2.45 2.51 4.26-.92 2.96-1.7 7.83-5.96 6.34M164.6 52.55c-1.17-2.85-2.88-5.57-3.4-8.63-.62-4.53 6.2-5.57 6.91-1.06.65 2.39 1.92 4.59 2.9 6.86 1.78 4.18-4.49 6.99-6.42 2.83m16.55 1.01c-.9-3.68-6.44-12.7-.97-14.38 5.13-1.1 4.81 5.77 6.4 8.94q-.07-.22-.16-.43c1.02 2.5 2.7 6.15-.65 7.66-1.69.75-3.92-.02-4.62-1.8m15.33-1.05a204 204 0 0 0-3.56-8.84 3.53 3.53 0 0 1 1.78-4.61c5.4-2.03 6.3 7.3 8.19 10.64 1.75 4.2-4.56 6.99-6.41 2.82m13.13 1.29c-.37-3.75-4.35-12.37 1.2-13.5a3.53 3.53 0 0 1 3.98 2.93q.56 4.34 1.53 8.6c1.15 4.46-5.36 6.35-6.72 1.98zm15.42.94c-.4-3.6-3.52-10.61 1.7-11.81 5.41-.41 3.75 6.46 5.02 9.84 1.21 4.4-5.42 6.34-6.72 1.97M244 57.48c-4.94-.22-3.42-6.22-3.24-9.52a3.5 3.5 0 0 1 3.9-3.05c3.4.43 3.22 4.08 2.8 6.68.17 2.59-.22 5.8-3.48 5.89zm14.28 3.09c-.94-3.07-3.12-8.42 1.54-9.37 4.3-.53 4.07 4.58 5.18 7.4 1.24 4.39-5.36 6.35-6.72 1.98zm-81.86 6.55c-.6-3.51-2.8-10.42 2.55-10.96 3.4 0 3.72 3.35 3.63 6 .12 1.98 1.24 3.86.22 5.7-1.33 2.63-5.73 2.18-6.4-.74m15.71 1.08c-.46-3.52-3.56-9.93 1.6-11.17 5.08-.45 3.95 5.98 5.12 9.22 1.2 4.4-5.42 6.34-6.72 1.97zm12.83-1.73c-.47-2.48-2.09-5.24-.95-7.7 1.34-2.63 5.73-2.2 6.41.74.5 3.1 3.23 7.89-1.1 9.34a3.54 3.54 0 0 1-4.35-2.38m17.45 6.73c-3.5.5-4.3-3.18-4.37-5.9-.83-3.54.5-10 5.37-7.74 2.54 1.29 1.4 3.99 1.5 6.16.39 2.75 1.28 6.86-2.5 7.49"/></svg>