<svg xmlns="http://www.w3.org/2000/svg" fill="none" viewBox="0 0 870 625"><g fill="#000" opacity=".24"><path d="m542.9 616.4-34.94.23a1415 1415 0 0 1-103.37.68c-14.25.1-28.7.7-43.72-.14l-21.93-1.22-23.24-1.28c-25.4-1.39-45.82-1.75-71.28-3.33l-17.7-1.1-39.16-.6c-10.03-.16-27.56-2.07-37.68-2.82l-14.79-1.1c-8.97-.65-17.26-.86-26.26-1.35l-24.69-1.35-18.53-1.54c-12.24-1.01-24.42-2.32-35.67-5.75-7.09-2.17-9.23-6.19-12.88-10.82-4.08-7.37-3.83-15.29 1.29-22.1a40 40 0 0 1 8.7-8.54c9.98 5.5 22.04 8.62 33.83 9.47l20.11 1.46 17.46 1.38c9.8.78 46.05 1.8 51.87 6.47 6.91 5.54 14.6 10.7 23.97 10.74l32.09.14c7.24.02 14.36.65 21.79.95l20.05.81c7.45.3 13.53-.18 20.91-.05l51.67.87 56.5 1.2 54.07 1.1 38.13 1.1c3.96.13 7-.46 10.88-.31 8.64.33 18.42 1.5 27.28.84l5.61 9.63c3.45 5.92 10.77 8.58 17.6 2.87zm135-63.5h1.46q39.57-.3 77.88 12.28l2.3 1.75c.54 1.89 3.23 2.22 3.93 5.38 1.58 7.09-.9 21.57-9.6 24.99-31.03 12.18-63.6 14.9-96.54 17.68-22.59 1.9-44.42.35-66.37 1.09.74-2.74 3.76-3.62 6.06-5.62 7.41-6.44 10.55-16.24 12-24.97 15 1.22 6.85-15.95 21.36-6 4.62-3.87 9.71-10.97 16.9-10.15 1.67.19 5.33 3.77 7.28 2.55 7.65-4.87 4.73-12.88 11.32-11.05 2.13.6 4.34 1.36 6.3.24 4.09-2.33.52-8.28 5.75-8.18z"/><path d="M759.53 566.93c-17.1-6.7-34.84-10.95-54.02-11.59-6.85-.23-13.22-2.08-20.48-.91-2.12.35-5.15.18-5.67-1.53 24.6-.17 49.2.88 73.05 9.4 2.94 1.05 6.33 1.9 7.12 4.63m-251.56 49.7c.17.54-.49 1.46-1.6 1.47l-100.15.65c-1.1.01-1.78-.9-1.61-1.44z"/></g><path fill="#000" d="m866.76 266.28.04 5.83c-1.01 1.28-4.28 1.55-4.98 3.7-5.09 15.42 3.18 10.58 2.08 15.75-1.84 8.55-9.72-.56-3.31 20.9.47 1.59-8.38 7.85-6.9 17.55.43 2.74 4.44 6.86.65 9.43-2.1 1.43-4.37 1.69-5.24 4.35-.8 2.42.02 3.68 1.53 6.35 3.25 5.74-11.98 5.92-6.72 19.92 2.44 6.48-12.59 2.48-6.86 19.77-10.68.12-8.38 10.87-11.48 15.42-3.34 4.9-12.11 7.7-9.46 16.44-20.48 10-6.26 15.33-12.84 19.98-2.1 1.48-4.64 1.56-8.01-.02-7.43 8.4-5.39 15.41-8.36 15.4l-6.36-.02c-2.26 2.16-.82 5.75-1.95 9.02-8.46-1.09-10.52 7.87-15.87 11.63l-8.48 5.95c-2.22 1.56-1.12 6.2-3.03 7.9-.79.69-11.78 1-15.78 10.56-.99 2.38.54 7.9-4.14 7.99-12.23.2-7.8 9.21-13.11 13.96-1.45 1.3-3.64-.38-5.5.1-5.76 1.5-7.92 7.66-7.68 13.46-4.66 1.24-9.89-.29-13.02 3.4-1.6 1.9-.66 5.51-2.42 6.83-5.47 4.16-11.62-.31-11.64 5.12-.32 9.04-4.37 13.96-13.87 10.48-3.18 8.12-8.5 15.4-17.24 8.78q-8.46 2.46-16.1 9.82-8.17-6.23-11.94 3.69l-6.85 2.74c-3.6 11.99-7.68 24.25-20.96 27.67-7.2.23-19.26 7.13-31.47 3.93-5.85-1.53-11.05-3.65-16.58-3.62q-7.52-2.12-12.53-9.54c-11.9 6.75-21.1-4.01-23.78-14.04a19566 19566 0 0 1-339.75-7.15l-23.48-12.1a3908 3908 0 0 0-92.3-8.1l-11.32-2.73q-10.12-1.63-12.67-8.46c-11.16-16.34-23.75-39.97-6.4-58.9-8.08-8.67-12.08-19.47-16.22-31.24-3.43-9.75-1.15-22.14 8.27-28.08 8.57-5.4 19.06-4.58 28.58-3.28-7.62-7.91 1.14-14.32-2.55-16.11-3.23-1.57-5.24-2.3-6.35-5-1.28-3.15.3-4.94 1.43-7.87 2.29-5.97-7.27-6.91-7.93-11.95-.41-3.21 7.35-10 .19-13.86-2.63-1.4-4.21-4.6-3.1-6.1l3.25-4.41c2.62-3.56-4.73-19.87-5.01-17.85 1.04-7.42 7.88-11.93 2.64-16.22-8.93-7.32 6.9-10.12 2.46-19.98-1.24-2.76-2.9-4.34-2.58-7.3.17-1.52 8.6-7.7 6.21-17.01-.6-2.3-2.8-3.7-1.69-6.16.33-.73 9.63-6.17 6.42-11.97-9.64-17.4 9.8.18 8.52-29.09 17.3-15.56 2.4-13.56 15.06-23.07 8.01-6.03 9.48-17.57 10.09-17.9 1.07-.57 3.36-.64 4.78-1.93 16.76-15.46 3.8-18.72 15.85-20.3 11.3-1.47 1.2-15.85 15.46-14.39 6.25.65 8.15-8.99 11.93-9.77 7.26-1.5 9.7-3.87 14.8-8.51 2.83-2.6 11.9-.26 13.61-6.47.81-2.92 4.13-5.34 7.37-4.05 6.88 2.75 9.56-3.95 13.73-5 6.34-1.59 14.28-.55 18.43-7.07 3.94-.12 9.24 3.73 12.56.94 1.9-1.6 2.53-4.63 4.6-5.05a7.9 7.9 0 0 1 6.59 1.9c5.24 4.86 8.3-2.89 11.32-3.01 7.15-.3 15.34 5.47 22.56 1.28 4.15-2.4 7.58.49 11.56-.1l11.76-1.76c5.61-.84 9.95-.8 15.35-1.32 4.3-.44 11.62 6.46 15.64.71 1.62-2.3 1.9-5.98 5.4-5.83 9.74.39 3.05 7.07 14.13 5.7 2.16-.26 3.31-2.4 5.2-4.52 4.44-4.98 7.2 3.04 16.62 1.45 3.4-.57 1.81-5.22 9.08-6.7 1.3-.25 1.88 2.28 3.3 2.85 8.1 3.25 8.46-12.01 15.34-6.84 2.42 1.82 4.44 1.25 6.22.7 5.3-1.62 2.73-8.9 8.5-9.07 1.53-.04 2.81 1.69 4.27 2.35 6.52 2.9 9.1-4.17 12.8-7.82 3.68.7 7.96.76 11.49-.72 4.2-1.76 3.35-6.34 6.5-9.14 2.54-2.27 7.7-.05 10.32-3.53 2.25-3 3.29-5.57 3.98-10.22.62-4.08 6.77-.23 8.83-1.28 12.4-6.37 5.47-10.27 10.72-13.15 4.76-2.6 5.43 6.6 16.34-8.67 6.77-.36 11.33-3.05 16.39-7.2 3.39-2.8 10.56-.73 13.2-6.17 5.35-11.01 14.1 3.83 21.95-11.63 1.32-2.6 5.03 1.63 6.63 1.47 19.75-2.05 13.91-7.92 18-8.21 4.82-.35 6.07 3.69 9.66 2.66 2.8-.8 2.94-7.03 7.48-7.32.97-.06 10.8 9.63 17.03 1.97 1.98-2.43 3.49-3.72 6.18-3.65.82.03 9.67 8.41 17.37 3.67 10.03-6.18 3.7 2.4 22.57.92 1.84-1.83 3.75-5.1 6.55-4.53 2.23.47 2.76 3.37 4.38 5.18 3.43 3.87 9.53 2 13.21-.39 4.41-2.84 6.6 1.33 8.79 4.65 3.8 5.83 13.91-.7 17.35.36 1.57.49 2.2 3.06 3.12 4.63 3.77 6.34 12.1 1.4 15.65 3.4 5.89 3.33 10.5 10.19 18.57 9.64 1.95-.13 3.95-.89 5.92 0 1.58.72 1.8 3.37 3.56 4.74 16.67 12.98 14.43 3.12 18.42 6.78-.03-.03 5.6 12.37 13.83 11.76 3.06-.22 4.83-1.17 7.11.76 1.75 1.44 1.71 3.36 1.88 6.19.15 2.43 4.54 6.8 6.96 6.2 3.69-.92 6.48-1.33 8.82.65 2.35 1.98-.1 4.98.1 7.56.48 6.82 9.16-.64 13.28 5.39 1.2 1.77.36 3.94-.33 6.5-.59 2.14 3.04 6.2 5.13 5.83 3.8-.68 4.88-.08 7.1 1.84 2.61 2.27.69 4.12.96 7.42.5 6.1 10.93 8.45 11.51 9.29 2.8 4.07-1 14.3 8.41 14.14 6.48-.11.1 7.59 3.25 11.96 3.87 5.36 7.03 2.91 9.56 6.68.94 1.4.38 3.06-.23 4.9-3.5 10.5 8.16 7.82 9.83 14.77.54 2.24-1.66 3.49-2.4 5.8-2.29 7.14 9.24 8.36 9.6 10.3 1.04 5.63-3.56 7.24-2.6 11.15 1.27 5.18 6.06 3.76 7.35 9.07.48 2-1.47 3-2.05 4.86-2.21 6.83 2.26 13.51 8.22 16.92-.8 3.7-4.28 5.28-4.42 8.23-.59 12.12 5.57 12.1 5.96 15.03s-1.87 3.5-2.9 5.6c-2.67 5.34.14 12.37 5.63 14.03z"/><path fill="#7a4a34" d="M23.58 513.52a6.2 6.2 0 0 1 3.95 3.09l37.91 1.54q-3.2-7.5-6.91-15.3l1.85-3.68c3.92.28 9.28-2.06 11.74.66 10.18 17.54 21.21 28.29 31.1 44.67l-56.05-4.58c-7.6-.62-15.1-1.8-20.24-8.2-3.77-4.7-4.94-12.72-3.35-18.22z"/><path fill="#a16044" d="M60.39 499.16c2.22 7.7 6.96 14.38 10.44 22.12l-46.5-1.88c-.8-2.5-.57-4.16-.75-5.88.14-17.27 26.19-15.11 36.8-14.35z"/><path fill="#7a4a34" d="m18.15 469.83 1.34-3.05 17.24-1.71-6.41-18.51q-4.53.33-5.45-3.23c-3.19-2.15 17.07-.49 17.82-.12 3.25 14.51 10.3 26.3 17.58 38.8-12.25-1.37-23.16-.71-33.95 3.36-4.15-4.82-6.41-10.06-8.17-15.52z"/><path fill="#7a4934" d="M638.55 107.31c3.93-2.03 5.05 1.77 5.75 5-.5 6.44 6.5 10.5 7.73 16.78a18 18 0 0 0 5.32 9.53c-.32 4.39 3.94 7.97 2.34 12.34a5.6 5.6 0 0 0-5.3-2.34c-4.73.6-5.36 7.57-7.83 8.2-1.26.32-7.9-3.79-8.29-5.22-.82-3.06 5.7-8.55 2.35-13.04-1.46-1.96-3.96-1.43-6.86-1.53-1.58-.06-1.7-4-1.43-5.4.45-2.37 9.17-3.17 9.2-8.86.03-2.6-1.3-4.74-3.62-4.99-2.32-.24-4.76.57-7.37 2.3-2.67-3.53-3.9-7.99-6.11-12.39 4.23-2.64 7.18-5.9 5.36-10.24a23 23 0 0 0 8.76 9.88z"/><path fill="#a16044" d="M24.88 443.33c1.93.2 6.13-.42 7.76 1.11L41 467.57l-22.85 2.26c-1.45-4.53-4.47-9-4.77-14.6-.38-6.96 5.13-12.6 11.5-11.9"/><path fill="#9e5e42" d="M54.43 319.21c-2.62 5.84-4.66 15.8-10.75 13.38-.71-4.11-2.25-7.64-7.02-7.89a24 24 0 0 1 1.1-9.88c10.5-2.48 6.38 3.1 16.65 4.4z"/><path fill="#784833" d="m760.45 281.2 3.21 1.25q-.49 2.49 4.3 4.78c-.87.63-2.24 2.3-1.84 3.2.68 1.48 2.33 3.06 3.13 4.32-2.45-2.42-6.92 1.83-9.47 1.17l-10.62-15.15c2.84-2.57 4.97-4.21 6.66-6.5.18 3.13 2.74 4.78 4.62 6.92z"/><path fill="#794833" d="M715.15 225.04c-4-1.47-8.38 2.17-12.73 1.54-2.09-1.21-5.13-7.34-4.14-9.66 1.37-3.21 6.6-3.14 9.03-4.6.47 5.08 4.24 9.51 7.86 12.72z"/><path fill="#784833" d="M731.12 255.71c-2.8.7-3.78 4.76-6.83 6.06-4.63 1.97-16.7-2.6-13.91-5.22 2.07-1.97 8.42.53 12.3-5.28a14.7 14.7 0 0 1 8.44 4.46zm-10.54-10.73c-3.41-1.26-6.88.73-11.45.34-2.52-.22-4.52-6.7-2.62-7.9 3.74-2.33 8-2.52 10.71-5.07z"/><path fill="#754631" d="m784.18 306.04-1 2.9c-6.8.26-12.65 1.66-16.4 7.58l-1.33.18c-.6-3.08-3.78-7.57-.81-10.52 1.8-1.8 5.31-1.99 5.91-4.09s.47-4.12.18-6.03c4.67 3.83-3.43 6.18 13.44 9.99z"/><path fill="#764732" d="M685.53 181.42c-1.99 1.06-3.96 4.67-7.03 4.25s-4.97-4.54-6.9-7.01l6.68-7.46c.55 4.02 3.83 8.01 7.25 10.22"/><path fill="#a16144" d="M835.9 208.38q-3.72 2.43 0 0l7.27 3.76c5.39 2.8-1.42 10.3.25 14.62 1.68 4.33 8.48 10.62 3.73 15.54-1.73 1.8-6.48 1.57-5.2 5.93.61 2.1 1.84 3.28 5.2 4.61 3.17 1.26 4.27 9.1 1.76 11.26-3.47 3-1.08 5.95-2.1 8.46 1.66 1.52 1.28 3.64.8 5.6-1.47 5.9-6.3 18.34-12.83 13.17q-1.8 3.8-8.37 2.48-6.34.3.03 7.54c2.33 6.46-17.06 11.96-17.78 4.66q-9.27.54-18.67.12-1.33 4.97-2.69 1.84c-2.31 1.66-3.56.88-3.12-1.93q-14.89 1.31-12.47-6.94l-1-3.05c-.46-.38-1.14-.8-1.46-1.29-6.4-1.24-9.21-6.21-1.3-7.52q-.62-4.25 7.27-8.34c.28-4.08-3.33-2.78-6.03-1.48q-4.47 4.1-8.75 3.79c-4.88 2.05-7.82-2.66-4.62-6.93-.11-1.98-.67-4.67-2.57-5.7q-14.8 0-12.11-8.75l1.55-3.19c18.45-1.9 13.96-11.66-1.23-3.24l-2.96-.94q-.08 5.09-2.33 4.66a12 12 0 0 0-5.05-1.42c-2.9 2.07-8.6-.85-8.44-4.46.6-2.39-1.56-4.27-2.08-6.28-4.72-.39-7.1-9.8-3.36-12.63-.58-2.19-.17-5.62-2.07-7.3-5.97-.2-13.69-8.77-7.86-12.72-.22-2.39 2.7-4.81.43-7-2.27-2.18-4.72-2.66-7.54-2.13-4.41-.13-10.45-8.4-8.59-12.54 1.26-2.22 2.46-5.24.78-7.8-1.54-2.34-5.1-.34-6.84-1.46-5.35 2.94-10.97-5.46-7.24-10.22-.3-2.27.2-4.85-1.61-6.38-2.1-1.76-5.46.3-7.29-.33-5.8 3.63-10.2-6.41-8.81-11.8l-.9-1.74q-7.48-7.8-2.34-12.33l-.72-3.15c10.06-6.6 11.38-19.5-1.02-5.52l-3.56-.86c-4.83-.96-13.34-13.41-7.73-16.78l.17-3.42c16.73-10.9 7.76-17.59-2.75-1.82l-3.19.24q-8.2 2.9-8.75-9.87c-.27-.56-1.07-.91-1.44-1.42-7.46-.54-14.41-1.52-18.7-8.62.89-3.07 2.68-7.35-.38-10.05-2.04-1.8-5.08-1.31-6.25.2l-3.55 4.62c-4.06.2-7.75-2.73-11.82-3.91-1.02-3.36.7-7.11-1.43-9.7-1.88-2.3-6.4-1.87-7.1-.3l-2.89 6.71c-1.29 2.98-8.28.52-11.77.88-3.77-8.4-.74-8.72 6.5-7.06l1.22-3.64q-2.3-11.22 5.05-10.93l-.69-3.03c5.29-19.4-6.97-22.42-2.85-.3l-2.44 2.35c.56 2.95-.52 3.73-2.72 4.9q-.72 8.68-5.79 9.01c-.37-3.18-4.54-3.53-6.6-2.7-6.97 2.82 2.95 11.99-7.6 14.55-5.98 1.45-3.96-12.9-12.38-9.28-6.7 2.86 1 11.93-1.4 14.8-2.65 3.18-6.5 4.7-9.45 7.37a56 56 0 0 1-5.2-7.14c1.54-6.71-.35-15.35-7.12-17.23q-5.24-5.03-3.03-.17c-7 3.7 2.88 15.16 3.37 18.82.54 3.97-.72 7.6 2.35 11.17 1.77 2.06 1.13 4.56-.25 6.6-4.46 6.58-6.64-3.85-12.4-1.99a5.4 5.4 0 0 0-3.65 4.6c-.46 5.08 8.23 7.98 8.3 11.62.03.92-1.74 11.47-3.66 11.76-.67.1-7.47-7.27-11.3-2.18-4.62 6.14 5.98 9.99 8.06 14.4l-13.92 8.35c-2.33-1.92-3.42-4.46-5.4-6.8-2.44-2.9-6.6-3.34-8.67-.82-4.45 5.37 5.37 10.52 4.33 14.25-.43 1.53-8.08 6.87-10.57 6.39-3.56-.7-4.2-12.54-11.64-9.04s2.87 13.54 1.46 16.23c-3.18 3-7.14 5.7-11.15 7.38-3.61 1.5-4.26-10.76-11.63-7.2s2.45 12.37.63 14.48c-3.34 3.86-7.85 5.96-11.53 8.93-2.94-3.62-4.4-9.2-9.5-7.24-8.33 3.19 2.4 13.7 2 16.98-8.45-7.75-16.68-13.65-28.29-11.49-3.29-4.05-3.44-16.62-10.63-15.54-8.64 1.3-.5 15.57 1.51 21.02-4.15-.08-11.07 1.07-14.03-2.77-3.14-4.08-1.67-11.4-6.82-14.67-2.38-1.51-5.77-.44-6.8 1.72-.92 1.91-.56 3.95-.33 7.08-8.8-3.79-18.8-5.5-27.28-10.51-2.05-3-2.11-8.52-5.2-10.96-2.78-2.2-6.24-2.43-8.46-.12-1.78 1.85.1 5.48.85 8.16-3.28 1.71-8.36 1.43-11.85 5.15-1.67-2.5-2-5.03-3.35-7.73a5.36 5.36 0 0 0-7-2.41c-5.4 2.3-.17 10.6-.11 14.53-4.5 1.59-8.77 2.23-14.17 2.7.54-4.94-.65-17.45-6.54-17.82-2.15-.15-4.78.86-5.1 3.8-.61 5.85 1.8 10.56 4 15.72l-52.93 9.49c-11.72 2.1-21.35 7.62-25.78 18.9-2.2-2.92-4.22-4.36-6.94-4.32-2.06.05-3.84 1.31-4.6 3.92-.43 1.52 1.14 4.06 1.63 6.1-12.8 8.58-15.61 1.08-19.28 2.77-3.31 1.52-2.9 11.24-18.96 9.32-3-.35-3.66 4.12-5.59 4.95-9.77 4.15-18.25 9.01-26.29 16.08-2.01 1.78-6.68.92-7.77 3.52-3.38 8.05-8.82 14.62-18.29 14.96 1.5 10.28-7.58 13.28-12.22 18.86-4.22 5.07-4.79 13.56-10.82 17.98-9.11-11.05-8.4.16-18.33-8.96-.5-.47-.93-11.12 4.1-11.16 4.23-.02 14.39 14.82 19.42 6.88.66-1.05.98-3.88.06-5.33-3.2-5.03-8.67-5.63-13.32-6.08-1.38-2.17-4.09-4.5-5.67-6.42-1.01-1.23.33-5.62 1.88-6.17 2.56-.9 5.38-.34 6.98-1.95l3.17-.43c15.63 16.71 17.6.22-.22-1.56l-2.62-2.34c.16-2.1-3.41-3.27-3.57-5.17-.25-2.93 1.55-9.46 4.57-10.54 2.66-.95 5.69 1.02 6.97-1.67.8-1.7 1.9-4.12-.1-5.92-5.83-5.23 2.18-12.54 2.5-12.54 3.23-.02 5.21 5.26 11.27 3.39 1.79-.55 2.82-3.56 2.12-6.04-1.13-4-7.58-5.46-7.74-7.67-.03-.52 4.41-8.85 6.9-7.73 5.53 2.5 1.66 11.27 11.68 14.05 2.6.72 5.05-.65 5.96-2.85 1.94-4.73-5.13-8-6.58-10.58-1.04-3.77-1.72-7.03-5.17-10.33 3.15-3.03 5.3-9.3 9.76-10.33 2.64-.61 6.27 3.34 8.17.7 5.17-7.13-3.34-7.95.75-12.13 1.11-1.12 2.51-3.07 4.36-1.71 2.03 1.48 3.94 2.36 5.95 1.63 6.5-2.34-1.1-9.9 3.3-12.31 1.53-.84 3.65-4.09 5.74-1.74 2.08 2.34 4.46 3.23 6.85 2.33 6.64-2.48-2.12-9.37 4.3-11.78 3.45-1.3 5.82 6.61 10.84 3.45 3.23-2.03 1.81-4.93 1.32-8.38-.38-2.7 7.24-6.32 8.54-3.8 2 3.9 3.4 6.2 6.98 5.43 8.54-1.86-1.35-10.97 5.5-12.92 4.44-1.27 4.34 5.55 10.43 3.35 3.93-1.42.45-8.21 6.2-8.43 3.58-.12 2.48 5.62 8.36 5.08 5.31-.5 2.53-7.93 6.03-8.42 6.09-.85 5.38 4.22 10 3.84 2.07-.17 2.96-1.72 4.24-3.97 1.96-3.48 8.09-4.15 10.65-1.2 1.87 2.15 3.08 2.91 5.54 2.58 1.95-.26 2.62-2.47 4.2-4.21 2.09-2.32 9.9-3.08 11.5-.48 1.33 2.17.76 5.99 3.75 6.16 10.9.61 2.6-8.72 12.74-8.37 7.25.26 2.78 10.67 11.54 8.21 4.96-1.4 1.08-8.77 5.81-8.76 4.74.01 2.46 5.63 8.73 5.53 2.23-.04 2.77-1.7 4.4-4.15 1.63-2.44 8.96-3.1 10.85-.43 2.14 3.04 2.79 6 6.52 5.26 2.81-.56 3.4-2.92 4.73-5.96 1.47-3.42 8.08-3.45 10.28-.68 2.05 2.56 3.99 3.18 6.7 2.42 1.95-.55 1.9-2.81 3.4-5.02 1.52-2.2 7.9-3.65 9.93-1.71 2.18 2.1 3.15 4.03 5.67 3.65s3.6-2 4.63-4.66c1.92-4.97 8.32-5.62 12.52-2.84 5.42 3.6 8.43-11.41 15.68-6.87 1.97 1.24 2.71 3.83 5.19 3.31 9.23-1.9-.11-8.03 9.72-11.11 4.71-1.47 5.86 5.64 11.3.99 2.96-2.53-2.73-6.92 12.48-11.56 2.43 1.82 5 4.2 7.77 2.45 2.76-1.73 2.32-4.42 1.82-8.22-.35-2.73 4.74-8.24 7.32-7.31 2.3.81 3.56 4.2 6.24 3.4 9.27-2.72-.93-10.79 4.68-14.13 1.84-1.1 4.9-5.25 7.05-1.97s4.91 5.28 8.3 3.74c6.72-3.05-2.71-11 .81-13.41 5.81-3.98 6.27 3.7 11.63-.1 3.23-2.3-.69-7.24 4.74-9.8 4.18-1.96 3.98 4.82 9.94 2.64 4.83-1.77.25-8.32 5.52-10.45 6.46-2.63 4.51 4.67 10.75 3.25 5.92-1.35 1.08-8.64 6.59-10.46 8.57-2.83 6.52 3.94 13.33 1.36 1.52-.58 1.6-3.04 2.88-5.15 1.57-2.57 9.1-5.36 10.91-3 2.15 2.77 2.34 5.92 5.9 5.47 9.03-1.14.69-9.1 8.6-10.1 2.68-.34 3.27 1.11 4 4.25.82 3.4 4.63 3.44 7.06 2.46s1.9-3.75 2.53-6.96c.67-3.49 8.05-3.77 10.15-1.26s3.48 3.9 6.85 3.21c1.77-.36 2.14-2.27 3.77-4.45 1.8-2.4 9.87-3.03 11.18-.36 1.8 3.69 1.95 6.04 5.56 6.2 3.95.17 4.12-2.8 5.87-6.12 1.34-2.52 9-1.53 10.87.62 1.88 2.14 2.25 5.06 5.04 5.3 2.96.28 3.8-1.75 6.12-3.9 2.1-1.96 8.22-1.33 9.63 1.13 1.6 2.77 1.86 4.88 4.6 5.28 2.59.38 4.23-2.21 5.93-3.24 2.35-1.43 9.3-.1 9.58 2.42.39 3.54.7 6.25 4.07 7.2s4.42-2.27 6.94-4.28c2.03-1.63 8.76.75 9.47 3.3.78 2.77 1.16 5.64 3.61 6.3 3.4.9 4.72-1.89 7.41-2.56 2.94-.73 9.45 2.02 10.88 4.66.94 1.74-1.75 5.63.38 7.54 1.3 1.16 3.3 1.68 5.65 1.57 1.5-.09 2.57-3.52 4.55-3.86 3-.52 9.84 2.86 10.2 5.84.41 3.55-.56 6.08 2.17 7.66 3.3 1.9 4.88-.86 8-1.79 2.54-.74 7.81 3.4 7.99 6.15.21 3.2-.46 5.76 1.44 7.12 2.14 1.52 4.45.58 7.2-.39 8.23-2.89 6.23 12.22 12.18 11.44 3.76-.49 9.69 2.5 8.73 6.61-.66 2.77-2 4.9-.28 6.96 4.27 5.14 7.73-2.8 11.88 2.55 2.43 3.1-1.96 6.3 1.25 10.25 1.2 1.5 3.04 1.3 5.75 1.1 3.95-.32 7.66 4.81 6.7 8.6-.66 2.56-.7 4.52 1.04 6.1 3.3 3 6.02-.91 8.95 4.16 2.05 3.56-3.78 6.12-.38 10.6 3.1 4.12 5.9-1.56 9.41 3.88 2.86 4.4-2.12 6.52.08 11.25.53 1.15 2.05 1.95 4.37 2.2 3.6.38 6.74 4.85 4.53 7.96-1.86 2.64-2.78 4.58-1.72 7.62.83 2.4 4.26 1.42 6.68 2.57 4.97 2.36 3.58 8.93 4.67 13.26.83 3.29 6.32 6.59 3.98 10.3-1.88 2.96-4.27 4.9-3.55 8.33z"/><path fill="#0a0604" d="M577.25 54.2c-5.46 2.46.27 8.11-3.42 15.49-1.1 2.2-3.62 2.54-5.68 1.93-1.14-.34-2.27-1.44-3.68-2.48-.8 2.66-.13 4.68 0 6.68-3.3.35-2.52-6.47-1.72-8.68 4.73-12.91 1.03-9.82 8.51-13.91 1.36-3.96 4.47-2.16 5.98.96z"/><path fill="#050302" d="m52.92 273.26.35-4.35c8.23-3.05 20.55 6.04 17.9 11.6-3.62 7.57-15.86-2.74-18.25-7.25"/><path fill="#040202" d="M513 67.51c-.92-.25-2.17.22-3.04-.17-4.6-2.02-7.2-6.02-8.22-11.55-.64-3.46.19-6.4 3.25-7.05 7.29-1.58 9.4 11.76 8.6 14.05-.64 1.84-2.16 3.42-.61 4.72z"/><path fill="#784833" d="M700.19 203.2c-2.56 1.2-4.73 3.2-7.87 3.88-2.76-4.17-5.36-7.76-7.41-11.94 2.24-2.12 4.67-3.03 6.7-4.47 3.15 3.7 6.58 7.97 8.58 12.54m40.95 56.63c2.15 4.8 7.5 6.3 12.11 8.76-4.11-1.46-7.12 1.27-10.94 3.62-2 1.24-8.07-2.7-7.53-4.98.82-3.48 4.03-6.89 1.38-10.09.58-1.66 1.6-3.11 2.32-4.66 3.14 1.38 5.35 4.36 2.64 7.37z"/><path fill="#774732" d="M669.39 164.49c-.87 2-2.56 5.78-5.8 5.45-3.58-.35-6.2-4.2-8.12-6.61 2.3-4 4.38-6.92 5.1-10.63 2.2 4.25 4.47 9.24 8.82 11.79"/><path fill="#794933" d="M628.36 96c-3.25-1.54-6.95 1.4-9.86 2.15-3-2.74-9.72-6.27-8.85-10.76 1.46.77 19.27 9.41 18.7 8.62"/><path fill="#020101" d="M747.53 236.78c-4.8 3.12-22.04 9.78-23.56 2-1.74-8.85 8.75-4.7 17.62-10.84 2.56-1.78 5.68-1.26 7.2.5a5.5 5.5 0 0 1-1.26 8.34m25.54-99.79c2.43-1.44 3.08-.52 1.27 1.67 3.65 5.02-19.7 22.66-24.01 14.7-1.23-2.26-1.17-5.54 1.18-6.72 12.99-6.54 13.54-12.4 21.56-9.65"/><path fill="#030201" d="M786.67 165.66c-2.5 2.5-18.4 13.47-21.92 6.7-3.77-7.26 7.66-8.33 14.6-14.17 2.32-1.95 5.23-2.38 7.38-.48 1.93 1.7 2.42 5.44-.07 7.93zM422.9 139.9c5.23 3.97 14.48 18.28 8.23 21.3-2.85 1.38-6.25.54-7.66-2.62-5.03-11.21-12.2-13.19-7.77-18.37 1.26-1.48 4.62-2.27 7.2-.3"/><path fill="#020101" d="M759.2 183.53c-2.75 2.14-17.26 11.6-20.23 5.04s5.28-7.91 14.54-13.86c2.76-1.76 5.86-1.9 7.9 1.25 1.22 1.87.82 5.2-2.2 7.57"/><path fill="#030201" d="M725.17 102.11c-7.4 5.34-12.9 15.36-18.1 8.83-1.77-2.2-1.02-5.63 1.63-7.89 3.3-2.82 12.02-14.48 17.36-8.46a5.1 5.1 0 0 1-.88 7.54z"/><path fill="#050302" d="M738.5 113.57c-5.69 6.1-13.25 15.76-18 9.98-1.85-2.26-1.31-5.22 1.18-7.7l9.5-9.44a5.15 5.15 0 0 1 6.96-.47c2.34 1.82 2.74 5.08.37 7.63"/><path fill="#040201" d="M143.47 191.18c.14 3.63-2.28 5.43-4.48 5.56-6.93.46-3.03-5.16-10.61-14.94-1.66-2.14-1.52-4.87-.45-6.3a4.96 4.96 0 0 1 6.76-1.17c5.25 3.58 8.53 10 8.78 16.84z"/><path fill="#020101" d="M733.26 150.47c-5.18 4.83-14.86 14.8-19.18 9.05a5.44 5.44 0 0 1 1.54-7.7c4.83-3.27 13.48-14.48 18.32-8.31a5.44 5.44 0 0 1-.67 6.95z"/><path fill="#040202" d="M815.83 284.83c.77 7.22-7.68 6.68-18.84 7.6-3.5.3-5.13-2.29-5.37-4.6-.33-3.11 1.73-4.93 5.06-5.55 6.76-1.24 18.48-3.7 19.16 2.55z"/><path fill="#030201" d="M532.2 42.17c1.62 4.72 5.59 19.69-.97 20.94-3.06.59-5.69-.86-6.23-4.53-1.18-7.72-5.26-19.33 1.76-19.7 1.9-.1 4.46.42 5.44 3.3z"/><path fill="#020101" d="M739.93 212.22c-5.63 7.26-20.78 13-22.16 4.74a5 5 0 0 1 3.98-5.72c9.27-2.13 12.38-9.68 17.38-5.6 1.33 1.09 2.54 4.33.8 6.58m-278.47-76.85a5.5 5.5 0 0 1-.66 7.2c-2.09 1.86-5.61 1.56-7.54-1.06-3.13-4.3-13.95-15.24-7.06-19.15 3.63-2.06 6.04.27 8.28 3.37z"/><path fill="#030201" d="M806.85 229c-5.1 2.3-20.08 7.92-20.72-.71-.43-5.77 7-5.7 17.18-8.81 2.75-.83 5.26.33 6.06 1.93 1.34 2.67.56 6.24-2.52 7.61zm-52.96-98.77c-3.83 4.12-13.65 14.02-17.93 8.56-1.38-1.77-1.73-5.05.47-6.84 4.75-3.86 13.6-14.67 17.75-8.87 1.33 1.87 1.66 5.05-.28 7.15zm-49.37-8.05c-3.68 5.83-10.03 16.46-16.13 12.05-1.5-1.09-2.6-4.66-.63-6.89 6.29-7.1 8.65-15.1 14.95-12.33 2.28 1 3.55 4.4 1.8 7.17m-579.78 90.27c5.86 4.4 14.64 17.68 7.1 20.86-2.2.92-5.47.41-6.64-2.55-3.31-8.44-9.4-11.59-7.4-16.02 1.04-2.27 4.43-4.17 6.93-2.3"/><path fill="#040202" d="M645.05 67.7c-1.66 6.05-4.97 17.64-11.14 15.7-2.6-.8-4.6-3.56-3.26-6.79 4.37-10.53 4.8-17.12 11.14-15.64 2.56.6 4.21 3.28 3.26 6.74M835.9 208.38c.6 2.88-1.2 6.1-4.31 7.25-5.9 2.16-18.16 7.16-18.97-.75-.68-6.73 7.2-5.48 14.93-8.87 3.79-1.65 5.74 1.01 8.34 2.37"/><path fill="#040302" d="M763.09 242.98c-3.12.14-4.5-2.62-4.7-4.42-.3-3.06 1.36-5.12 4.5-5.6l12.54-1.98c3.47-.55 6.06.6 6.66 3.26 1.86 8.27-11.62 8.43-18.99 8.76z"/><path fill="#010101" d="M709.02 86.26c-6.2 7.06-9.77 16.66-15.98 11.2-1.6-1.4-2.1-4.6-.04-7.15 3.9-4.83 9.32-16.79 16.17-11.13 1.54 1.27 1.96 4.68-.15 7.08"/><path fill="#040202" d="M474.48 71.68c4.12 4.15 12.85 16.3 5.73 18.9-6.6 2.4-7.15-4.96-13.65-12.53-1.9-2.23-1.06-5.61.73-7.05 1.94-1.57 5.08-1.45 7.2.67zM730.03 195c-3.57 3.13-17.7 9.86-20.2 3.9-1.02-2.42-.89-5.93 2.37-6.92 8.24-2.52 14.95-8.7 18.52-4.14a5.3 5.3 0 0 1-.7 7.15z"/><path fill="#030201" d="M717.88 136.73c-7.48 5.6-11.67 12.07-16.35 8.74-7.15-5.08 5.79-13.97 10.62-17.18 2.32-1.54 5.35-.62 6.73 1.12a5.23 5.23 0 0 1-1 7.3zM489.55 59.35c2.65 2.72 11.5 15.77 5.17 18.49-7.56 3.24-8.08-6.7-12.25-9.9-3-2.32-3.65-5.88-1.73-8.47s6.21-2.78 8.8-.12M823.32 277.8c-3.16-.26-4.42-2.66-4.46-4.75-.15-6.13 7.19-5.5 18.74-6.29 3.07-.2 4.56 2.55 4.64 4.8.22 7.3-13.15 6.76-18.9 6.26zM329.14 139.69c3.75 4.03 7.65 20.72.2 22-7.44 1.27-4.79-6.87-8.41-15.18-1.02-2.35.43-4.9 1.55-6.1 1.34-1.45 4.84-2.7 6.66-.72m472.79 69.8c-3.8 2.89-18.35 9.78-20.01 2.47-1.52-6.66 3.51-5.69 14.32-10.9 2.51-1.2 5.23-.54 6.36.7 2 2.2 1.88 5.77-.65 7.71z"/><path fill="#040202" d="M703.43 160.06c-3.18 3.49-13.64 13.28-17.82 7.76a5.16 5.16 0 0 1 .93-7.12c4.83-3.75 11.4-11.7 16.15-8.6 2.34 1.53 2.9 5.59.74 7.96"/><path fill="#030201" d="M734.14 174.32c-2.58 1.27-5.02-.47-5.86-1.92-1.49-2.58-.65-5.64 2.03-7.5l10.4-7.25a5.2 5.2 0 0 1 6.53.52c5.65 6.31-7.5 13.39-13.08 16.15z"/><path fill="#020101" d="M689.65 69.61c-1.62 1.69-4.85 1.1-6.12.28-5.79-3.78 2.8-11.23 4.17-16.53.93-3.53 3.5-4.98 6.6-4.44 8.73 1.56.8 15-4.65 20.7"/><path fill="#030201" d="M197.45 152.75c.48 5.78 5.91 13.31-.71 15.44-7.92 2.54-10.97-15.86-10.66-18.1.46-3.27 3.54-4.1 6.32-3.5 2.45.53 4.75 2.48 5.05 6.16m-47.25 49.86c3.08 3.08 9.51 18.27 1.88 19.97s-5.96-8.63-10.02-13.35c-2.3-2.68-1.64-5.48.43-7.6 1.9-1.94 5.32-1.4 7.71.98m-35.79 40.64c-5.9 1.95-5.83-3.2-13.06-13.28a5.5 5.5 0 0 1 .22-6.35c1.16-1.36 4.46-2.34 6.7-.55 7.04 5.59 12.61 18.06 6.13 20.18z"/><path fill="#040202" d="M92.46 235.58c6.12 8.7 11.94 12.86 8.1 17.34-1.62 1.9-4.84 2.35-7.45-.05-4.4-4.1-12.82-12.61-7.4-17.58 1.62-1.48 5.02-2.18 6.75.29"/><path fill="#020101" d="M438.24 131.8c4.02 3.66 14.45 14.41 8.47 18.68-1.65 1.17-5.16 1.27-7.04-1.06l-8.41-10.5c-1.5-1.87-.95-4.98.13-6.5s4.74-2.54 6.85-.63z"/><path fill="#030201" d="M179.32 183.11c6.53-3.9 18.5 15.46 12.96 19.76-1.71 1.34-5.42 1.55-7-.85-4.07-6.28-11.82-15.39-5.96-18.9m-13.2-6.46c1.65 3.27.4 6.19-2.11 7.33-6.6 2.97-11.2-9.83-12.81-15.24-.83-2.8.68-5 3.24-6.08 1.72-.74 4.7.2 6.13 3.04l5.55 10.97z"/><path fill="#020101" d="M467.4 92.8c2.12 2.21 1.47 5.26.05 7.04-1.13 1.42-4.66 2.16-6.84.33-4.9-4.14-14.72-12.34-8.95-17.13 2.21-1.83 5.17-1.36 7.56 1.15l8.21 8.6zm250.2 84.01c-5.26 4.74-14.69 13.19-18.76 6.91a4.8 4.8 0 0 1 1.37-6.65l10.97-8.03c2.21-1.63 5.54-.7 6.82.88 1.4 1.76 1.69 5-.4 6.9"/><path fill="#030201" d="M375.87 129.17c2.5 4.65 9.3 18.17 1.58 19.49a5.2 5.2 0 0 1-6.04-3.44l-4.51-11.6c-1.1-2.8.18-5.71 1.98-6.44 2.6-1.04 5.51-.72 6.99 2"/><path fill="#020101" d="M810.98 269.26c-3.81 1.4-19.54 4.74-19.64-3.24-.08-6.17 7.55-5.36 17.24-6.32 3.03-.3 5.22 1.34 5.69 3.39.58 2.6-.43 5.11-3.28 6.17zM676.04 153.03c-2.22 1.65-5.36.74-6.66-1.02-3.88-5.24 3.04-8.5 8.78-15.44a5.5 5.5 0 0 1 7.23-1.06c6.47 4.78-4.86 14.2-9.37 17.52z"/><path fill="#040202" d="M84.4 259.27a5.26 5.26 0 0 1 .46 7.08c-1.08 1.36-4.1 2.56-6.3 1.01-4.28-3.01-15.93-11.67-9.61-16.6a5.4 5.4 0 0 1 6.89.43z"/><path fill="#030201" d="M476.17 124.15c1.4 2.43.83 5.29-.95 6.7a5.26 5.26 0 0 1-7.43-1.15c-3.41-4.55-11.1-13.48-6.55-16.99 6.07-4.68 11.57 5.58 14.93 11.44m207.78-39.58c-1.76 4.43-8.93 15.96-14.8 11.75a5.1 5.1 0 0 1-.81-7.17c6.07-7.2 7.77-14.53 13.55-11.29 1.82 1.02 3.18 3.93 2.06 6.7zm-19.64-12.23c-1.04 3.77-7.66 17.1-14.04 12.3-5.52-4.16 2.61-10.28 4.38-15.9.97-3.1 3.56-3.99 6.25-3.61 2.95.42 4.4 3.55 3.41 7.21"/><path fill="#020101" d="M311.77 159.98c-1.13 3.28-3.26 4.03-5.46 3.85-6.57-.5-7.95-21.74-1.4-22.85 8.37-1.42 6.06 11 6.86 19"/><path fill="#040202" d="M774.34 138.66c-.55-.36-.78-1.23-1.27-1.67-.06-5.59 10.08-11.18 15.04-13.32 2.65-1.15 5.15 1.64 5.71 3.31 1.77 5.3-12.55 16.16-19.48 11.68M552.86 37.53c1.83 4.45 5.55 18.59-1.8 20.41-7.36 1.83-8.92-20-4.68-21.92 1.89-.86 5.43-1.07 6.48 1.51"/><path fill="#050302" d="M577.25 54.2c-1.97 1.17-4.4-.7-5.97-.96-1.04-3.5-3.29-19 2.38-20.29 1.95-.44 5.07-.45 5.96 2.41 1.23 3.94 2.73 16.55-2.37 18.84"/><path fill="#040202" d="M485.13 97.73c6.08 4.23 12.91 15.44 6.36 18.48-2.33 1.1-5.4.68-6.77-2.27-3.08-6.7-9.7-10.78-6.36-14.94 1.46-1.81 4.48-2.84 6.75-1.27z"/><path fill="#030201" d="M669.83 59.62a5.3 5.3 0 0 1-6.82.54c-4.89-3.65 1.54-8.93 3.33-16.3.75-3.06 3.47-3.94 5.94-3.46 6.96 1.34 2.96 13.9-2.45 19.22"/><path fill="#040202" d="M837.04 255.56c-4.58 1.48-18.45 4.87-19.26-1.65-.17-1.38-.32-4.46 1.78-5.23 3.8-1.38 18.18-5.3 19.48 1.16.33 1.68.37 4.93-2 5.7z"/><path fill="#040201" d="M600.89 30.5c6.76 1.04 4.78 22.51-2.58 22.15-2.85-.14-5.12-2.26-4.81-5.79.58-6.82.44-17.4 7.4-16.34z"/><path fill="#040202" d="M773.54 220.34c-4.68 3.8-17.93 7.72-18.9.6-.35-2.57.66-5.43 4.22-5.96 6.89-1.05 12.4-6.47 15.84-1.59a5.4 5.4 0 0 1-1.16 6.95"/><path fill="#030201" d="M179.53 156.38c2.03 4.37 6.33 15.06 2.59 17.88-1.47 1.1-5.04 1.7-6.65-.48-2.68-3.69-7.94-17.05-2.89-19.2 2.43-1.04 5.66-.93 6.95 1.81zm575.89-47.21a4.9 4.9 0 0 1-6.7-2.23c-.85-1.95-.81-4.74 1.57-6.27 5.65-3.65 9.28-11.73 14.75-7.54s-3.1 12.85-9.62 16.05z"/><path fill="#040201" d="M629.22 39.29c-.12 4.48-2.45 16.76-8.67 15.2-6.92-1.75-2.9-8.1-1.44-16.74.54-3.25 2.63-4.54 5.06-4.53 3.15.02 5.16 2.35 5.05 6.07"/><path fill="#030201" d="M390.68 124.46c5.78 3.59 11.8 16.03 5.1 18.72-5.95 2.4-6.24-4.97-11.98-11.8-1.53-1.81-1.08-4.5-.2-5.74 1.43-2.02 4.6-2.72 7.08-1.18"/><path fill="#050302" d="M835.48 233.96c-4.34 2.31-16.86 6.65-17.68-.45-.15-1.38-.24-4.1 1.78-4.95 5.05-2.16 16.06-6.57 18.2-1.37.89 2.16.49 5.28-2.3 6.77"/><path fill="#040202" d="m443.12 109.82-8.37-8a5.2 5.2 0 0 1-.45-6.9c1.32-1.6 4.31-2.37 6.82-.89 4.13 2.44 13.3 10.49 8.76 15.77a4.8 4.8 0 0 1-6.77.02z"/><path fill="#030201" d="M686.42 111.4c-6.65 4.2-6.2 11.33-13.25 8.96-6.17-2.08-.6-13.55 8.5-17.89a4.7 4.7 0 0 1 6.12 1.72c1.25 2.37 1.07 5.66-1.38 7.2zm-275.54 4.32c4.23 3.12 11.64 16.35 3.7 18.75-2.52.75-5.03-.61-6.16-3.47-2.19-5.56-8.05-11.61-3.87-15a5.25 5.25 0 0 1 6.33-.28m-.84 50.28c-2.55.85-6.01-1.57-7.1-4.01-2.9-6.4-8.33-10.15-4.75-14.6a5.2 5.2 0 0 1 6.67-.59c4.06 3.14 11.67 14.49 5.19 19.22z"/><path fill="#040202" d="M771.13 264c-3.46.85-5.81-.7-6.82-3.16-2.91-7.03 11.9-9 16.61-9.41 3.06-.27 4.5 2.57 4.66 4.45.24 2.75-1.23 4.86-4.2 5.6l-10.25 2.5zm-341.7-141.72c-3.95-5.66-12.06-12.2-8.07-17.05 1.48-1.8 5.08-2.37 7.36-.27 3.34 3.07 10.88 11.56 7.33 16.1-1.36 1.73-3.57 2.43-6.63 1.24z"/><path fill="#030201" d="M751.23 87.09c-1.7 3.55-9.3 13.52-14.45 9.56-2.06-1.57-2.77-5.1-.82-7.35 5.8-6.7 8.85-11.43 13.2-9.4 2.32 1.09 3.5 4.24 2.09 7.19z"/><path fill="#040202" d="M227.2 172.42c1.63 4.2 5.08 15.85-1.19 17.24-2.52.57-5-.56-6.05-3.7-1.68-5.04-4.91-16.37 2.03-16.77a5.2 5.2 0 0 1 5.2 3.21z"/><path fill="#040302" d="M390.17 172.61c-5.29 1.1-5.15-4.39-10.02-11.5-1.33-1.96-.77-4.63.56-6.24a4.9 4.9 0 0 1 6.36-.57 16.6 16.6 0 0 1 6.96 13.06c.06 2.82-1.56 4.77-3.86 5.24z"/><path fill="#020101" d="M233.06 144.82c2.76 5.3 5.23 17.78-2.55 17.88-1.5 0-4.24-.51-4.66-3.03l-2.24-12.93c-.47-2.73 2.15-4.34 3.93-4.55 1.9-.25 4.28.29 5.52 2.63"/><path fill="#030201" d="M272.28 145.93c1.34 2.94 3.73 15.61-.16 17.63-2.2 1.15-6.2 1.45-7.19-1.42-1.05-3.1-4.17-16.82.58-18.69 2.16-.84 5.47-.32 6.76 2.48z"/><path fill="#050302" d="M292.86 160.32c-.74 3.04-3.83 3.2-5.31 3.05-4.82-.46-7.75-17.38-5.33-19.08 1.63-1.15 4.88-1.93 6.67-.15 3.83 3.8 5.34 10.42 3.95 16.18z"/><path fill="#030201" d="M807.42 249.46c-1.67.86-16.54 3.72-16.82-3.9-.29-7.39 16.38-6.33 17.48-6.18 2.4.34 2.98 3.07 2.98 4.66-.02 2.08-1.23 4.18-3.62 5.42z"/><path fill="#040201" d="M644.3 112.3c-3.53.82-3.9-3.8-5.75-5 .63-3.55 10.57-15.06 15.75-12.15 1.39.78 3.43 3.34 2.23 5.64-2.67 5.14-7.54 9.03-12.23 11.5"/><path fill="#030201" d="M657.35 138.6c-2.85.73-5.35-.64-6.16-2.2-.94-1.84-.76-6.22.85-7.32 5.08-3.52 8.48-11.34 13.77-7.24 6.12 4.73-4.93 14-8.46 16.77"/><path fill="#020101" d="M769.21 200.62c-7.52 3.26-14.44 6.8-16.96.63-2.72-6.66 16.84-13.55 19.25-7.58.98 2.41.57 5.7-2.29 6.95m58.4-7.68c-4.63 4.88-17.11 8.6-18.32 1.6s5.31-5.07 11.86-9.28c2.47-1.59 5.06-.98 6.24.32 1.71 1.91 2.2 5.26.22 7.36"/><path fill="#040202" d="M247.31 172.92c2.09 2.63 7.45 15.08 1.25 17.75-1.42.6-4.37.88-5.67-1.48-1.86-3.38-7.18-15.93-1.8-17.7 2.03-.66 4.62-.6 6.23 1.43zm101.99-37.36c2.74 3.23 10.07 14.32 4.33 17.27-2.28 1.17-5.41.85-6.93-1.66-3.27-5.42-7.88-11.53-4.02-15.26 1.61-1.54 4.95-2.29 6.61-.33zm155.8-37.97c-.77 2.55-4.15 2.41-5.46 2.23s-12.03-11.06-8.9-16.04c.65-1.04 2.76-2.28 5.16-1.57 5.93 1.8 11.12 8.91 9.2 15.38"/><path fill="#030201" d="M251.77 144.75c3.07 4.03 4.47 15.19-.08 17.28a5.4 5.4 0 0 1-6.78-1.71c-.18-6.22-5.23-16.47 1.8-17.44 1.68-.23 3.7.06 5.06 1.86zm543.13 43.47c-2.38 2.23-14.51 10.08-17.25 3.37-2.92-7.13 14.14-14.24 17.43-10.16 1.4 1.72 1.72 5-.19 6.8zm-53.76 71.62c-1.03-2.3-3.71-4.15-2.64-7.36 1.52-3.29 15.89-8.36 18.47-3.11.98 1.97.92 5.3-1.6 6.63-4.67 2.45-9.59 3.14-14.22 3.86z"/><path fill="#050302" d="M341.3 164.37c4.72 3.16 6.68 15.3 2.24 17.37-1.83.86-5.56 1.15-6.64-1.32-1.01-2.32-4.74-13.35-1.67-15.67 1.58-1.2 4.1-1.69 6.07-.38"/><path fill="#040202" d="M816.04 175.61c-3.62 1.53-12.97 6.52-14.87 1.13-.7-1.97-1.08-4.76.98-6.13 4.35-2.91 13.98-7.34 16.45-1.64.93 2.16.52 5.34-2.55 6.64"/><path fill="#030201" d="M124.96 202.78c-1.2 4.5-7.28 3.3-8.77.52-2.1-3.92-7.45-9.58-4.7-13.54.96-1.36 3.99-3.05 6.32-1.3 3.74 2.78 8.63 8.82 7.15 14.33zm90.78-58.46c1.01 5.06 2.63 14.83-2.78 15.63-1.79.25-4.77.07-5.55-2.27-1.53-4.56-3.8-16.12 2.63-16.82 2.11-.23 5.12.55 5.69 3.46z"/><path fill="#040202" d="M619.84 69.56c-.98 2.96-2.1 4.73-4.2 4.94-1.98.2-5.52-.26-5.88-3.31-.72-6.2 3.14-17.38 9.4-14.79 1.84.76 3.95 3.27 3.1 5.88l-2.42 7.27zm34.13-30.38c1.01 3.13-.85 18.47-8.86 16.02-7-2.14-.66-18.6 4-18.72 1.76-.04 4.07.28 4.86 2.7"/><path fill="#060302" d="M733.85 77.16c-4.18 4.52-6.43 9.08-11.03 7.12-2.66-1.15-3.76-4.27-2.2-7.2 2.31-4.38 7.81-11.65 12.82-7.87 2.48 1.88 2.77 5.4.41 7.95"/><path fill="#020101" d="M767.98 287.24c-1.99 1-3.94.73-5.94-.37-2-1.09-.73-4.3-1.57-5.67 1.08-3.51 13.87-12 17-5.61s-4.22 7.76-9.49 11.65"/><path fill="#050302" d="M367.21 161.32c2.56 4.2 5.92 13.72 1.07 15.84-1.75.76-4.63 1.22-5.9-.84-1.96-3.15-6.8-14.36-1.64-16.69 2.14-.97 4.98-.76 6.46 1.68z"/><path fill="#040201" d="M603.17 58.39c.74 3.58.1 15.29-6.3 15.46-1.58.04-3.91-.5-4.57-2.77-.77-2.67.2-14.38 4.7-15.62 2.33-.64 5.52-.17 6.17 2.93"/><path fill="#050302" d="M401.57 181.04c1.1 3.23 1.48 5.58.14 7.49-1.34 1.9-3.7 2.3-6.06 1.6-1.73-.5-9.77-12.52-4.64-16.02 4.81-3.3 8.88 2.02 10.56 6.92z"/><path fill="#030201" d="M803.22 150.07c-3.46 3.5-12.57 8.59-15.2 3.19-1.24-2.54-.81-5.88 2.17-7.22 3.77-1.72 9.65-7.25 13.38-2.64a5.03 5.03 0 0 1-.36 6.66zM176.3 205.83c-.07 2.88-2.63 3.88-3.88 4.06-1.47.23-3.55-.14-4.73-1.85-2.73-3.98-7.44-13.36-2.14-15.27 7.6-2.75 10.82 9.4 10.75 13.06m28.63-30.33c5.2 1.78 5.8 14.26 4.25 16.58-.92 1.37-4.36 3.04-6.54.94-3.49-3.32-5.2-9.97-3.74-14.48 1.03-3.2 4.3-3.62 6.03-3.03"/><path fill="#060403" d="M717.18 60.83c4.18 5.26-6.87 13.6-8.41 13.68-2.23.15-5.31-1.2-5.64-4.23-.42-3.85 2.93-6.61 5.42-9.2 2.48-2.57 6.46-2.99 8.64-.25z"/><path fill="#050302" d="M96.56 199.18c6.68-5.5 12.43 9.26 12.12 11.54-.36 2.68-2.27 3.96-4.53 4.09-5 .28-12.55-11.52-7.59-15.63"/><path fill="#020101" d="M778.2 119.5c-3.73 2.64-9.88 6.72-13.06 2.76-1.41-1.76-1.7-4.72.27-6.67 2.29-2.27 5.13-3.66 8.1-4.94a4.97 4.97 0 0 1 6.45 2.3c1.13 2.1.7 4.81-1.75 6.55"/><path fill="#040201" d="M410.03 166c6.37-2.12 8.28 2.4 10.45 7 1.52 3.2 1.88 7.03-.93 8.39-3.15 1.52-5.92.32-7.76-2.48-2.73-4.16-4.59-9-1.76-12.9"/><path fill="#7a4a34" d="M765.45 316.69c.12-1.32.57-1.35 1.34-.19q12.66-.2 20.51-8.53c.6-.78 2.21-1.05 2.69-1.84 3.84 6.4 15.16 6.99 18.68-.12 5.88 1.85 13.08-.92 17.77-4.66q.58-4.26 8.65-2.29 1.82-2.22-.31-7.73c5.1 1.94 10.11-14.04 12.03-18.77 7.18 3.58 1.12 12.15-.48 17.5-1 3.49 5.91 11.3-.07 13.86-2.71 1.17-7.31-.38-7.72 4.23-.27 3.15 1.29 4.96 5.16 7.25 2.78 1.63 1.31 10.74-1.86 11.38s-5.65 0-6.5 2.11c-3.05 7.74 5.5 7.23 4.82 10.51-1.75 8.34-7.28 1.64-9.44 7.91-1.13 3.29 1.51 4.29 3.01 6.71 2.5 4.05-1.86 9.62-5.82 11.15-4.9 1.9.77 6.37-1.54 11.16-1.58 3.25-7.79-1.17-9.36 3.62-1.85 5.66 4.1 6.17 2.17 10.66s-8.52 1.03-9.7 5.21c-1.19 4.19 2.8 6.84.55 9.89-4.7 6.36-6.46-2.6-11.3 2.37-3.09 3.17.47 5.62 1.17 8.57 1.59 6.72-6.96 11.56-13.57 11.31.1 5.46.06 9.2-2.49 11.81-2.54 2.61-6.4 1.28-10.03 2.23-3.63.94-1.07 7.22-2.98 9.01-2.12.54-4.88-.8-6.6-.14-6.14 2.3 1.84 7.06-4.92 12.67-5.27 4.36-11.6-5.44-14.51 1.32-2.6 6.06 6.16 7.22.59 12.16-1.38 1.22-2.85.78-5.01-.53-2.75-1.67-5.45-.27-6.7 1.83-1.42 2.34.83 5.08 1.55 7.52-.88 3.59-5.1 5.98-7.58 8.54-2.32-2.6-4.35-3.71-7.17-3.07-1.7.4-3.02 1.58-3.5 3.84-.4 1.9 1.42 3.56 1.92 6.02.53 2.63-4.27 7.45-7.19 7.23-3.26-.24-7.94-1.72-8.53 2.74-.43 3.32 1.22 6.22-1.41 8.26-8.25 6.35-9.44-1.04-12.88 3.09-2.34 2.81.2 7.77-3 9.92-3.87 2.6-8.22.26-10.71 2.37-1.03.87-1.15 2.88-1.73 4.85-1.91 6.33-10.08 1.56-14.1 2.94-2.88 1-.06 9.9-21.48 5.3 1.03-3.28-5.63-18.08-6.85-18.6-1.8-.8-4.41-1.26-6.06.44-2.6 2.7-.66 6.28-1.32 10-3.86-2.3-7.75-8.82-4.18-12.86 1.53-1.73 8.36-2.49 6.67-6.4-4.48-10.4 1.6-18.6 3.08-28.58l2.45-16.49c3.71-24.96 8.75-11.96 10.19-18.3 2.2-9.72-7.38-13-2.12-19.84 2.09-2.7 5.18-4.34 8.64-6.5 2.34 4.6 4.33 9.5 8.87 12.47 2.13 1.4 5.2.33 6.12-.93 4.09-5.56-5.72-14.55-9-17.38 4.28-2.68 6.43-5.91 9.67-8.55l18.67-15.18c18.74 2.1 34.79-4.47 50.44-13.1 1.87-1.03 7.6 3.05 8.08-.64l.8-6.32c.7-5.45 7.88-8.9 11.18-13.85 4.05 2.68 8.22 2.74 9.9-1.13.98-2.26-.3-5.85-4.1-7.82l5.76-20.38c2.69-.89 4.93-.64 7.3-1.8a4.95 4.95 0 0 0 2.36-6.46c-1.17-2.44-4.67-3.21-7.94-2.81-1.95-3.41-.4-6.98-1.02-10.15z"/><path fill="#030201" d="M784.18 306.04c1.15.44 2.17 1.15 3.12 1.93.91 5.46-3.28 7.75-8.51 9.18-4.45 1.21-9.24 3.6-12-.63-3.86-8.3 12.52-10.7 17.37-10.47z"/><path fill="#020101" d="M808.67 306c.55 1.46.8 3.12.09 4.67-2.03 4.36-12.88 3.22-16.8 1.76-2.68-.98-2.48-4.38-1.97-6.32-.28-4.13 18.83-4.28 18.68-.12m26.11-14.66c2.87 1.73 4.58 3.63 4.32 6.38-.17 1.9-1.69 4.4-4.38 4.22l-8.27-.58c-4.1-.3-6.15-2.56-6.2-4.96-.08-3.5 2.12-5.25 5.9-5.5 3.27-.2 6.05.21 8.65.43zm-50.11 124.84c2.58 2.06 2.71 4.8 1.98 6.42-3.85 8.53-16.06-4.2-19.9-8.18-1.69-1.74-.9-4.77.05-6.07 1.3-1.83 4.8-2.69 7.04-.88z"/><path fill="#030201" d="M804.41 330.12c.51 8.8-14.15 4.06-20.09 2.12-3.06-1-4.25-3.71-3.8-5.81.6-2.87 3.06-4.56 6.24-3.88l13.17 2.8c2.9.63 4.35 2.63 4.48 4.78zM677.97 439.9c4.88 4.83 13.64 12.99 8.95 17.23-5.63 5.07-12.44-5.25-16.67-10.92a5 5 0 0 1 .4-6.71c2.16-1.95 5.2-1.68 7.32.4"/><path fill="#020101" d="M712.05 447.15a5.4 5.4 0 0 1 .51 6.18c-1.22 1.85-4.86 2.89-7.18 1.1-3.68-2.85-14.76-14.45-9.23-18.74 1.84-1.42 5.3-1.58 7.13.67l8.77 10.77zm18.71-16.74c2.1 1.88 1.8 5.17.71 6.68-1.41 1.96-4.86 2.8-7.11 1.08-4.4-3.33-15.4-13.41-9.02-18.11 5.32-3.91 9.87 5.35 15.42 10.34z"/><path fill="#030201" d="M762.26 399.28a5.4 5.4 0 0 1 .47 6.72c-1.49 2.02-4.89 2.47-7.3.57-4.2-3.27-14.78-13.3-8.42-17.57 1.5-1.02 4.78-1.27 6.64.78zm-31.82 53.44c6.22 9.03 12.03 11.61 8.2 16.2-1.3 1.56-4.17 2.32-6.62.91-5.42-3.12-13.92-13.71-9-17.94 2.13-1.83 5.7-1.68 7.42.83"/><path fill="#020101" d="M713.12 468.94c4.5 3.78 13.38 11.9 7.7 17.06-1.58 1.43-5.42 1.92-6.98-.3-5.66-8.11-11.11-11.45-7.78-15.83 1.33-1.75 4.89-2.77 7.06-.95z"/><path fill="#030201" d="M829.75 324.42c-7.08-.52-19.19-1.33-17.7-8.78.54-2.74 3.33-4.1 6.65-3.45l10.77 2.07c2.56.49 4.11 2 4.34 3.99.3 2.43-.53 5.07-4.06 6.17"/><path fill="#020101" d="M791.3 370.5c-2.48 5.88-12.45-.84-16.82-3.4a5.5 5.5 0 0 1-2.26-7.03c2.52-6.01 13.06.75 17.25 3.56 2.4 1.63 2.86 4.42 1.83 6.85zM655.37 532.74c1.53 2.86.9 5.98-1.18 7.45-1.72 1.22-5.5 1.34-7.13-1.32-2.63-4.31-10.23-15.12-3.42-17.87 2.25-.9 5.3-.22 6.79 2.54l4.95 9.2z"/><path fill="#030201" d="M659.32 482.37c.83.66 11.37 11.03 7.7 15.73-1.65 2.12-5.04 2.58-7.55.32-3.78-3.4-11.31-12.4-6.68-15.84 1.73-1.27 4.62-1.72 6.53-.21m23.62-59.26a5.3 5.3 0 0 1 .26 6.86c-1.23 1.55-4.2 2.37-6.63.86-3.98-2.45-12.76-12.03-7.58-16.12a5.34 5.34 0 0 1 7.2.74z"/><path fill="#010101" d="M827.85 344.16c-2.19 6.58-21.5-1.65-20.17-8.02 1.7-8.04 13.76-1.08 18.61 1.9 2.2 1.35 2.17 4.3 1.56 6.13z"/><path fill="#020101" d="m761.68 440.18-8.17-9.1c-1.6-1.78-.82-4.87.36-6.35 1.1-1.4 4.25-2.39 6.52-.7 4.37 3.25 13.53 11.97 8.13 16.52-1.81 1.52-4.9 1.8-6.85-.37"/><path fill="#030201" d="M685.55 499.56c3.67 3.88 11.54 12.06 6.54 15.92-5.32 4.11-11.14-4.76-14.32-9.63-1.7-2.61-1-5.36.53-6.7a5.07 5.07 0 0 1 7.24.41z"/><path fill="#020101" d="M755.13 451.77c-4.25 5.84-12.82-4.36-15.62-9.29-1.35-2.38-.36-4.73 1.16-6.02a4.8 4.8 0 0 1 6.79.47c4.76 5.02 11.35 9.78 7.67 14.86zM642.7 493.58c2.66 3.51 8.76 13.8 3.92 17.4-6.77 5.03-15.7-14.71-11.19-18.25 2.04-1.6 5.47-1.54 7.27.84z"/><path fill="#030201" d="M680.69 470.87c5.45 5.82 9.87 9.35 7.86 13.5-1.08 2.24-4.32 3.34-7.22 1.68-4.97-2.82-12.12-11.28-7.84-15.18 1.8-1.63 5.25-2.09 7.2 0m-14.27-9.53c2 2.72 1.35 6.05-.76 7.59-1.55 1.14-4.68 1.15-6.68-.83-3.76-3.7-11.64-13.23-5.03-16.4a5.2 5.2 0 0 1 6.56 1.63zm125.16-54.94c-5.75-2.34-14.25-7.9-10.12-13.68 3.26-4.58 11.14 2.16 15.86 5.61 1.84 1.36 1.6 4.06 1.25 5.47-.56 2.14-3.62 3.96-7 2.6"/><path fill="#020101" d="M671.73 518.99c1.7 2.73 1.87 5.45.44 7.32s-5.2 2.77-7.4.37c-3.07-3.36-10.83-14.14-4.87-16.96 2.53-1.2 5.46-1.03 7.05 1.55l4.76 7.72z"/><path fill="#040202" d="M699.87 485.75c1.52.2 10.88 9.24 10.52 12.2-.23 1.9-2.13 5.44-5.32 4.68-5.47-1.3-11.69-7.62-11.25-13.47.25-3.25 4.2-3.66 6.05-3.4"/><path fill="#030201" d="M821.62 363.01c-1.71 6.65-12.13 1.4-16.28-1.01-2.57-1.5-2.8-4.38-1.7-6.9 2.14-5 11.89.04 15.8 2.03 2.33 1.2 2.77 3.65 2.18 5.88"/><path fill="#020101" d="M776.2 391.46c-4.26 4.8-12.61-3.6-15.29-7.49-1.3-1.9-.71-4.4.26-5.74 4-5.59 11.24 2.84 15 6.27 2.04 1.86 1.6 5.17 0 6.95zm33.53-3.06c-3.58 3.9-18.64-4.73-16.24-11.52s12.54.5 16.33 4.32c2 2.03 1.76 5.19-.09 7.2"/><path fill="#050302" d="M640.1 462.75c4.22.2 12.08 15.41 5.49 18.24-7.04 3.01-12.07-11.17-10.1-16.61.64-1.77 3.24-1.7 4.6-1.63"/><path fill="#030201" d="M741.2 424.78a18 18 0 0 1-7.34-9.28 4.73 4.73 0 0 1 2.74-6.1 5.1 5.1 0 0 1 5.97 1.67c4.58 5.85 8.27 8.17 5.61 12.47-1.18 1.92-4.21 2.98-6.97 1.25z"/><path fill="#040202" d="M731.35 406.93a4.7 4.7 0 0 1-1.11 5.9c-1.32.98-3.8 1.58-5.75.32-5.31-3.43-8.57-13.71-4.3-16.01 2.42-1.3 5.79-1.16 7.14 1.6z"/><path fill="#020101" d="M787.84 352.75c-5.78.93-16.46-1.04-16.54-6.52-.05-2.92 2.03-5.27 5.56-5.03 4.12.27 7.75 1.54 11.33 3.4 2.04 2.24 2.25 5.54-.35 8.15"/><path fill="#040201" d="M705.58 414.94c.84 3.9-2.66 5.36-4.5 5.36-4.42 0-10.55-6.86-10.43-10.65.06-1.78 2-5.15 5.03-4.53 3.9.8 8.91 5.24 9.9 9.8z"/><path fill="#040302" d="M696.06 457.72c1.58.66 7.62 6.9 7.04 11.05-.28 1.97-2.11 4.57-5.41 3.8-5.3-1.25-9.94-8.1-7.61-13.1 1.16-2.5 4.45-2.38 5.98-1.75"/><path fill="#f3b782" d="M373.9 378.66c1.45-.18 2.94-.02 4.38-.04 6.3-7.38 14.84 7.21 7.54 11.63-3.28.79-6.81 4.3-8.82 7.23-1.89 2.75-1.27 6.33.4 7.79 2.03 1.78 4.69 1.51 6.87 1.24l3.04 4.35q-.13 26.03-.36 51.45c-5.56 14.1-54.23 38.84-67.91 45.59-21.44 10.58-73.65 33.28-96.79 33.23l-4.2-2.34c-28.55-32.42-50.75-70.48-72.32-107.8-1.8-4.94 2.32-5.1 2.82-.38q4.3-.6 8.74.07c.6-4.78 12.87-3.93 11.65 1.3l11.65-.7 4.02-3.38a285 285 0 0 0 75.02-26.86c13.16-5.07 40.35-14.73 53.71-13.13 2.03.24 3.75 1.35 5.3 2.63q4.2-1.38 8.73-1.02l2.03-3.2q20.61-5.35 41.4-10.19z"/><path fill="#f6b983" d="M691.83 229.36c3.42 24.5-17.73 47.5-36.9 60.55q-9.23 7.77-17.63 5.78l-92.41-132.55c-5.78-8.3-12.49-12.56-23.1-8.3-12.42 4.97-22.87 14.16-32.15 24.34-12 13.17-16.87 31.22-10.08 48.9a117 117 0 0 0-50.31 16.77c-6.25-9-10.34-19.48-6.12-28.9 1.5-8.37 5.25-14.8 12.64-19.25 23.59-14.14 44.19-31.87 68.74-44.7 25.93-13.55 56.89-13.74 85.01-7.95a140.3 140.3 0 0 1 102.3 85.3"/><path fill="#fe5971" d="M205.93 288.1c3.1 14.68 10.66 27.67 19.55 40.15 19.8 27.76 47.75 6.84 64.85 2.37 5.18-1.34 11.25 3.03 17.06-1.78 1.65-1.38 28.8-12.74 20.52-23.52-3.85-5.03-5.46-10.78-8.33-15.41a2.9 2.9 0 0 1-.24-3.42c.95-1.5 22.66 5.14 26.25 6.85 3.3 11.33 7.72 21.29 15.35 30.36.72 6.34-4.76 9.97-6.44 2.73-1-2.76-6.14-4.37-10.01-4.19-12.03.6-22.04 7.44-23.3 19.07l-4.38 3.57c-47.16 4.02-88.22 21.87-129.72 43.34l-6.93-2.26c-.88-.56-2.29-.14-2.62-1.25-.34-1.17.7-18.32-4.72-20.64-7.29-3.32-16.77 2.73-22.23 7.76q-4 5.38-8.68-4.9a237 237 0 0 1-11.26-37.34 153 153 0 0 1-18.58-36.7c.03-8.5 3.92-22.5 13.2-16.35 2.42 8.62 9.63 9.76 17.58 11.59 6.02 1.37 9.3 9.4 17.83 6.86 8.51-2.55 20.13-13 17.65-23.47-9.47-13.66-27.15-.58-26.2-12.06l.63-3.27a95 95 0 0 1 20.02-5.46q12.43 18.24 31.4 25.22l1.72 12.14z"/><path fill="#fe5309" d="m191.33 535.54-3.93 2.68c-49.32-5.1-75.62-34.72-101.76-73.55-16.9-25.12-34.18-53.94-29.42-85.32 3.6-18.46 9-35.83 18.56-52.07 7.4 20.96 13.2 40 22.94 58.6 12.62 24.13 25.7 46.61 39.65 70.03 16.32 28.42 35.29 53.7 53.96 79.63"/><path fill="#c14456" d="m382.55 530.33 2.44-3.21q46.55 1.53 93.9 3.49l5.04 1.8c3.55 10.68 8.78 19.26 10.64 30.73-6.14-6.8-15.34-5.86-23.19-6.27-3.73-4.05-6.2-12.48-12.19-15.28-4.6-2.14-8.12 1.5-10.89 4.5-8.1 8.75-9.68 20-2.19 30.41l-110.35-2.27c-4.88-.2-9.32-5.42-13.22-6.72.23-7.37.96-15.2-3.79-20.05-3.48-3.58-10.36-.27-14.02 1.39-9.77 4.43-14.83 13.26-12.45 24.54l-32.97-.53c-2.01-5.47-3.76-9.98-4.78-15.85 9.33-6.22 20.4-9.38 31.85-11.33 19.63-3.35 37-8.8 54.59-19.09 1.17 8.15 7.28 9.42 10.7 13.43s2.87 10.89 8.94 13.63c10.28 4.65 25.18.46 30.3-10.36-.03-4.95-4.9-11.3-8.35-12.96z"/><path fill="#b78a62" d="M373.9 378.66c-26.22 3.32-22.95 8.01-46.52 10.86q-4.55-.36-8.73 1.02c-60.46 2.38-86.02 35.82-138.05 40.75l-11.64.7c-3.76-1.74-7.74-1.15-11.66-1.3l-8.74-.07c-.92-.23-2.73-1.13-2.82.38-15.24-26.35-32.46-51.53-42.27-81.6-2.45-7.52-22.26-46.5-10.66-47.81 17.7 29.44 14.72 24.98 23.39 56.78 4.56 16.78 13.7 29.32 24.78 42.3 5.55 6.52 10.24 13.67 20.8 12.92 12.84-.92 27.06-.76 39.18-6.08l48.62-21.36c22-9.66 44.98-13.34 68.99-15.63 22.54-2.14 42.97-9.96 63.83-17.73 7.32-2.73 12.55-7.14 17.97-13.38 1.74 3.17 2.97 6.92 1.97 10.82l-2.74 10.69c-5.49-7.04-13.6-8.27-21.06-3.7-3.93 2.42-6.79 5.89-7.66 9.29q-1.95 7.5 3.05 12.12z"/><path fill="#c13f07" d="m191.33 535.54 33.74 36.2c-18.26.04-35.6.84-53.47-1.32-9-1.07-15.62-8.83-22.96-13.41-36.07-31.15-78.6-81.14-92.55-126.96-5.06-16.65-2.36-34.83.12-50.72-1.28 40.77 30.85 85.07 56.4 115.9 10.1 12.18 20.61 22.82 35.7 28.58 14.2 5.43 28.28 11.27 43.02 11.73"/><path fill="#bb8d64" d="m601.29 414.91 1.43-3.29a231 231 0 0 0 17.3-1.93c-.64-2.86-.55-4.45 2.9-4.75 1.3-1.97 2.57-5.6 3.83-7.93 15.36-6.4 31.17-11.84 43.13-24.5 4.71-5 8.26-18.36 3.74-24.83l-36.32-52c28.03-10.98 50.7-36.29 54.53-66.34 7.06 17.59 11.24 35.32 11.06 55.6-.39 46.85-22.3 90.22-60.95 116.89-21.87 15.08-11.6 13.12-40.65 13.07z"/><path fill="#7a4a34" d="m559.55 524.56 2.67 1.78c-.71 10.9 7.98 23.94 19.27 16.12l21.78-96.3c-1.62-2.52 8.52-16.7 8.22-14.59-.5 3.4-2.07 2.56-2.82-.82 4.69-.22 9.45-1.94 14.86-.19-6.12 12.54-8.26 24.9-11.1 37.79l-14.58 66.24c-3.73 16.97-6.68 33.4-11.05 49.93a21.2 21.2 0 0 1-14.9 14.98c-13.13 3.28-26.25-9.44-28.43-20.38-1.27-6.3-5.5-11.81-6.36-18.24-.97-7.23 7.26-28.66 20-31.61.84-2.05 1.6-3.47 2.45-4.7z"/><path fill="#bb8d64" d="M218.06 538.8c13.2-1.93 27.16-3.2 40.16-8.49l31.94-12.98c23.6-9.59 45.65-19.93 66.9-33.75 8.46-5.5 16.45-10.56 23.5-17.32 5.15-4.93 4.72-8.04 3.98-14.82-1.66-15.18.4-30.35-.3-44.93-.12-2.5 4.47-7.02 7.94-6.15 1.06 14.72-1.3 28.96-1.91 43.77-.4 9.2 4.47 15.2 14.74 17.03-15.2 17.94-32.15 32.42-50.98 45.56-52.18 36.42-71.88 22.05-103.66 40.84-11.26 6.65-3.04 16.57-2.99 24.52-11.67-9.85-19.79-22.45-29.34-33.3z"/><path fill="#fe5970" d="M480.9 487.02a88 88 0 0 0 3.02 45.38c-28.29.97-56.59-.53-85.62-2.32-5.75-.36-10.88-.46-15.77.23l-9-4.35c-1.32-.65-.75-2.37-.28-3.4l.7-3.27a324 324 0 0 0 26.22-24.08l2.17-.02q.2 6.61 1.36 13.04l3.14 1.04c4.76 15.29 16.37 17.64 28.56 7.47 17.73 1.94 22.83-19.37 12.45-30.18q-11.15.23-20.12 11.52c-1.84.47-19.12-2.8-19.77-6.07-2.01-3.32-.32-5.53 1.93-8.15 2.06-3.03 20.47-24.48 22.14-25.56 2.78-1.78 4.01-.94 6.23 1.36a22 22 0 0 0 5.15 10.36 112 112 0 0 1 35.93 12.47l1.55 4.5z"/><path fill="#a16144" d="M608.67 430.73c1.31.34 2.56-.16 4.8.73-5.45 6.85-7.3 14.35-9.22 22.89l-19.9 88.54c-.9 4.02-7.66 4.97-10.44 4.79-11.86-.78-15.82-16.61-14.36-23.13l16.36-73.77c3.56-16.1 19.35-19.43 32.76-20.06z"/><path fill="#c14456" d="M480.9 487.02c-10.11-7.07-22-11.07-34.88-13-7.14-1.07-8.41-7.04-11.06-15.08-8.22 12.55-20.22 21-26.98 33.07q.88 2.94-1.51 6.96.75 6.6-2.77 9.26c-2.65-2.41-.45-6.35-1.8-11.16-7.21 6.5-20.54 22.87-28.64 25.48-.03-5.06-1.41-9.93-2.13-15.42a278 278 0 0 0 48.1-47.46c7.85-9.8 15.44-19.23 25.89-26.43 2.17-1.5 5.93.58 6.91 2.34 3 5.32-2.54 11.57 1.38 18.64 2.96 5.35 23.37 5.16 33.94 17.6-2.2 5.07-5.44 9.9-6.46 15.2"/><path fill="#bb8d63" d="M504.86 347.72c5.79 7.54 13.38 11.97 21.84 8.4 2.5 2.44 3.65 5.9 6.83 7.26 5.74 2.45 11.48-.1 17.21-2.53.41 16.14-.96 32.53-7.47 48L437.52 256.77c13.65-1.13 26.28 3.2 38.5 7.06-5.11 8.14-5.7 11.28 1.19 18.37-6.15 5.79-7.88 14.12-3.05 21.26 10 14.86 19.51 29.68 30.69 44.25z"/><path fill="#f6b983" d="M748.83 346.25c-4.04 6.08-8.5 7.58-14.98 9.62-6.09 1.9-17.76 4.92-22.29.63 13.9-4.53 23.33-17.63 24.09-32.18.8-14.81-8.32-28.28-22.66-33.95-.74-6.78-.5-12.95-.42-19.54 16.51 2.63 29.73 14.98 36.05 26.6 9.86 18.14 7 33.74.2 48.82M541.17 116.76q-3.87-3.95.72-10.91a52 52 0 0 1 13.57-18.01c16.98-3.74 34.03-2.03 48.48 10.58 12.3 10.74 20.35 27.57 18.51 45.4l-18.96-6.92c-1.5-15-11.4-26.75-24.12-30.58-14.57-4.4-28.01.6-38.21 10.43z"/><path fill="#a16144" d="M282.44 197.01q6.93-1.69 5.58 2.43a209 209 0 0 1-5.11 17.47 604 604 0 0 1-81.33 18.93l-4.36-1.21c-4.26-9.59.23-21.86 10.94-23.84l74.3-13.8z"/><path fill="#c14456" d="M354.52 326.45c.28.55 1.68 1.08 2.25 1.32.82.36 2.24-2.6 1.32-3.62-7.5-8.23-12.13-17.77-14.4-29.13-2.35.22-28.56-8.8-24.1-5.12-4.44-7.17-10.84-13.33-13.68-23.1 22 5.09 33.06 13.15 54.97 15.1-4.54 41.77 20.05 39.22 21.45 46.6 1.4 7.36-23.03 16.4-30.67 18.68 2.82-7.56 4.23-14 2.86-20.73m-229.23-49.91c-7.2.05-11.06 8.41-10.3 16.11 1.53 15.73 18.82 25.58 22.04 49.2.94 6.87 7.82 30.98 13.58 29.96-4.6 4.24-3.5 11.65-4.9 18.38-26.18-26.7-18.79-55.5-38.13-83.09a71 71 0 0 1-9.78-19.87c9.02-9.6 17.2-19.11 27.67-25.98-.4 7-1.43 10.77-.17 15.29z"/><path fill="#7a4a34" d="M197.2 234.64c28.12-4.72 55.43-13.14 84.07-19.7 1.16-6.32 2.32-11.63 4.44-17.26-1.5-.77-2.45-.51-3.25-.68 4.87-1.55 9.43-3.2 14.5-.5-2.16 13.01-7.56 24.46-11.2 37.21l-68.24 11.98c-9.7 1.71-17.02-3.63-20.31-11.05"/><path fill="#c14456" d="M321.2 341.31c-.48 4.37 2.72 8.24 6.2 11.4-41.48 8.07-64.44 4.45-102.04 25.27a253 253 0 0 1-33.46 15.5l-11.73-7.53c3.63 1 7.1-.86 10.86-2.7 56.44-27.45 64.96-32.76 130.17-41.95z"/><path fill="#bb8d63" d="M580.44 372.14c-6.3 13.45-12.43 26.62-25.42 36.04 6-24.3 7.9-47.33 2.95-70.81-1.4-7.74-4.09-14.49-7.37-21.33-.59-1.22.82-2.17 1.27-2.76.63-.82 2.65-1.73 4.19-.53l21.07 16.24c-3.86 19.74-6.43 24.7 3.3 43.13z"/><path fill="#fd5870" d="M371.2 218.56c-2.27 1.14-1.16 4.2-.98 8.61-6.21-7.56-16.49-7.2-25.84-7.9-4.17-3.65-7.36-16.14-15.18-14.88-8.84 1.41-13.9 12.85-15.07 20.53-1.58 4.7-15.32 1.02-12.74-4.1 3.38-15.07 6.6-17.54 5.17-33.65 8.04-1.17 13.63 2.56 20.14 4.76 15.5 5.23 30.75 10.22 44 20.15 1.79 1.33.2 4.98.48 6.5z"/><path fill="#c14456" d="M205.93 288.1c-.48-2.3-3.18-4.76-1-9.29-10.84-.1-27.68-16.1-32.92-25.75l-19.85 6.38c-2.36-2.72-6.45-6.42-8.38-10.28a169 169 0 0 1 40.4-12.86c3.8 14.97 14.66 24.1 30.01 26.05-7.5 7.65-9.7 16.45-8.26 25.74"/><path fill="#c14455" d="M314.13 224.92c-.72 4.74 3.01 10.38 5.2 13.46 3.4 4.8 9.1 2.55 13.69 4.59 4.83 2.15 7.99 7.68 14.24 7.39 7.87-.37 13.99-5.57 18.54-11.28q3.52-.43 2.92-5.11l1.32-.84 1.51-.01c-.21 7.3-.05 25.65-4.4 28.16-6.55 3.78-69.35-11.6-70.58-23.39-.65-6.28 2.15-12.29 4.82-17.08 3.5 2.86 8.41 3.12 12.74 4.1"/><path fill="#c04355" d="M510.79 545.27q-.28-7.1 8.07-12.8c5.92-.7 11.82.17 15.9-3.73 8.1-7.74 7.66-19.37 3.23-29.87l16.43-.44-4.83 22.22c-18.62 12.28-26.73 34.54-21.4 56.27.42 1.72-.79 3.75-2.1 3.79-4.83.13-13.94-30.1-15.32-35.44z"/><path fill="#f5b983" d="M528.86 273.74c.93 2.78-3.3 4.55-4.9 3.08-17.36-15.9-53-25.95-75.76-30.36 13.06-6.28 25.9-8.89 39.01-8.1 8.17 13.15 20.34 20.67 35.7 20.35 2.37 4.73 3.99 9.18 5.96 15.03z"/><path fill="#bb8d63" d="M711.56 356.48c12.83-1.29 26.12-2.93 37.27-10.23-10.73 23.8-37.8 37.26-64.58 28.18l10.62-16.26z"/><path fill="#fd5870" d="m391.93 249.08-3.05-3.46-1.17-15.93q-5.76-15.05 1.13-26.94c8-2.9 25.48 8.83 21.52 20.94-2.7 8.26-1.34 16.71-1.32 25.32l.01 11.59c-2.74-3.5-11.43-16.57-17.12-11.51z"/><path fill="#c14355" d="M391.93 249.08c-9.79 8.68-14.86 20.86-8.73 32.13q1.69 4.57-.5 11.01 1.65 7.52-.72 12.15c-2.43 1.05-5.74 3.65-8.49 2.82-5.78-11.12-3.6-24.67 1.36-36.16 15.23-35.35-4.97-44.3 14.02-68.28a21.4 21.4 0 0 0-.81 13.74c3.14 11.17 3.49 21.84 3.88 32.6z"/><path fill="#bb8d63" d="M555.46 87.84c-4.3 11.9-10.93 14.24-14.29 28.92-1.06 4.65-5.8 10.23-7.15 14.91-5.26 3.29-12.8 2.87-19.29 5.08 1.01-25.94 18.8-44.08 40.73-48.91"/><path fill="#fd5870" d="M301.46 282.73a97 97 0 0 1 14 23.25c-5.52 4.06-10.13 7-16.9 10.01-9.31-15.27-19.25-29.63-25.82-45.52l3.66-1.48c7.21 2.36 18.67 9.55 25.06 13.74"/><path fill="#c04355" d="M502.63 462.4c3.31.05 6.84 1.47 10.73.76 5.9 8.67 16.76 11.6 23.98 5.3q5.37.34 7.13-6.2c.84-2.36 1.97-7.44 4.83-8.3 5.05-1.54 9.52-1.25 14.79-1.37-3.45 9.6-2.67 19.53-7.25 27.57-4.06 4.38-14.37 1.68-19.52-.27l-18.18-6.84c-6.42-2.42-12.87-5.43-16.5-10.67z"/><path fill="#fc5870" d="M227.67 275.94c-4.9 5.97.3 13.54 1.38 18.83 1.26 6.34-3.06 12.9 2.8 18.62a26.1 26.1 0 0 0 29.35 4.58c2.5-2.18 1.24-7.3 1.5-9.95.95-.59 2.21-1.34 3.06-.88 1.71.95 11.8 12.72 8.66 15.16-7.36 4.85-16.32 8.5-25.78 7.27-14.34-1.88-26.52-24.62-30.98-37.13-2.24-6.29-2.3-10.7-.06-16.1 2.8-4.12 13.33-6.93 10.07-.4"/><path fill="#bb8d63" d="M549.92 288.75c-.26-1.12-.59-2.72.15-3.24 3.5-2.45 13.2-6.68 17.28-6.73 5.51 5.11 22.26 34.45 12.17 39.39-16.54-13.56-20.28-11.6-29.62-29.42z"/><path fill="#c04355" d="M301.47 282.74c-10.61-1.45-19.16-7.89-28.72-12.27-3.65-5.53-6.57-10.6-8.3-16.69l22.05-2.2z"/><path fill="#f5b983" d="M567.36 278.77c2.14 1.9-15.97 9.33-17.44 9.98-7-8.24-12.72-17.09-15.23-29.02 3.5-.58 9.02-3.49 12.22-1.76 8.55 5.13 15.63 12.71 20.46 20.8z"/><path fill="#f5b883" d="M699.7 347.64c4.7-10.97 7.1-21.16 10.62-32.53 1.23-4.03 11.93-3.45 13.8.25 3.61 7.14 1.24 15.68-2.81 21.99s-10.83 11.18-21.61 10.29"/><path fill="#f4b882" d="M578.7 131.42c-12.31-.48-22.16-1.1-33.2-.55 2.99-9.15 9.7-14.07 16.8-15.66 7.99-1.8 18.06-.53 22.91 6.49 1.76 2.55-2.8 9.87-6.52 9.72"/><path fill="#7a4933" d="M517.46 303.36c7.3 9.1 30.46 32.49 25.09 49.3-.7 2.17-2.91 2.71-4.71 1.48-2.77-1.87 3.08-5.64.8-9.62-2.02-3.56-7.47-2.04-8.7-4.46-1.73-3.44 1.4-8.86-3.14-10.84-1.17-.5-3.67.37-5-.86-2.89-2.63.38-7.94-2.17-10.83-2-2.27-7.03-.28-8.53-2.7-1.7-2.74-.12-6.11-.69-8.51-1.13-4.54 4-6.45 7.05-2.99z"/><path fill="#b98c63" d="M601.91 285.74c-3.03-15.63-10.99-27.78-23.87-37.07 1.63-3.64 4.1-6.42 6.22-10.07l30.91 44.3c-4 1.47-7.33 1.6-13.27 2.84z"/><path fill="#f4b882" d="M622.92 404.94c-1.11 1.7 1.12 5.19-1.02 6.78-5.36 3.95-6.58-.08-20.61 3.19-6.47 1.5-14.22 1.36-20.34 4.54-4.8-.28-5.37-5.4-1.8-8.18 12.59-9.14 28.34-9.24 43.78-6.33z"/><path fill="#bf4355" d="M512.62 508.17c-3.2-2.6-8.82-2.7-12.25-4.6-3.46-5.85-1.6-14.72 1.98-20.57l28.4 13.27c-7.06 2.22-13.01 5.02-18.13 11.9"/><path fill="#fd5870" d="m495.19 441.86-2.12 3.83q-10.66-3.12-21.57-5.84l-1.2-3.32c1.05-4.44 1.12-9.51 3.2-14.6 9.86-1.31 18.73 4 26.57 9.55-2.53 4.12-4.02 6.88-4.87 10.38z"/><path fill="#bf4355" d="M274.43 322.28 262.7 308c-3.58-4.36-3.06-11.33-8.42-15.22 3.17-3.93 4.24-7.07 6.43-10.68 10 14.57 9.58 20.93 21.25 35.62-2.33 2.9-5.38 3.16-7.53 4.56"/><path fill="#a06043" d="M517.46 303.36c-2.53.51-4.75 1.84-7.04 2.99-.82-3.19-6.97-1.63-7.9-4.19-.94-2.55 2.18-6.43-.66-8.58-1.43-1.09-4.28-1.34-7.05-2.19l.1-8.66c.03-2.39-5.42-1.71-6.35-4.1-.73-1.91-.28-3.98-1.22-5.31-.94-1.34-2.8-1.02-5.02-2.43 4.02-1.59 9.69-1.27 13.04 2.26 8.89 9.35 14.54 20.78 22.1 30.21"/><path fill="#fd5870" d="M381.97 304.35c-3.2-7.24-3.1-16.49 1.22-23.16 2.93 5.4 11.27 5.62 16.06 5.65 1.37 5.89.35 11.18-.1 16.8-6.27-.93-11.7-.23-17.2.7z"/><path fill="#b98c62" d="M590.1 297.5c-7.6-14.92-15-29.24-28.29-40.51 4.1-3.99 7.79-2.28 11.32.55 11 9.57 22.2 23 16.98 39.96"/><path fill="#ba8d63" d="M385.82 390.26c.13-2.7.2-5.43-1.13-8.62-.83-2-3.6-3.07-6.4-3 5.08-4.45.24-10.14 5.65-12.55 1.4-.62 5.57-1.1 5.77.9.58 5.73 2.81 6.15 7.53 7.8 4.71 1.64 1.13 9.16-.75 12.15-2.61 4.14-6.25 2.99-10.64 3.34z"/><path fill="#bf4355" d="M227.67 275.94c2.2-2.87-8.99 1.13-10.07.4 4.99-12.07 17.47-18.27 31.05-18.55 1.18 3.44 3.3 5.53 3.8 9.82-9.92-1.8-18.88 1.13-24.78 8.33m267.52 165.92c-1.36 5.57-.19 11.23 2.77 16.14.79.3.83.78.24 1.43-9.94-6.17-19.3-13.63-32.14-14.4.06-4.01 3.35-5.78 4.22-8.51l16.28 4.14c3.14.8 6.18 3.66 8.61 1.19z"/><path fill="#a06043" d="M529.78 286.83c6.05-6 17.47 15.96 16.2 17.57-2.97 5.93-12.06 2.2-15.48-1.45-3.91-4.2-5.35-11.54-.72-16.12"/><path fill="#ba8c63" d="M580.95 419.46c-6.63 3.44-11.51 9.72-16.14 16.34-3.77-1.15-6.91-5.3-8.14-8.3 5.32-8.94 15.38-11.07 22.48-16.22.2 2.81 1.15 5.47 1.8 8.19z"/><path fill="#bdbdbd" d="M500.02 322.46c-1.57-2-.98-3.12 1.6-2.48 6.14 3.76 8.85 8.24 11.98 14.01 2.4 4.46 7.97 7.1 8.31 13.08-4.27 4.44-21.97-21.96-21.88-24.6"/><path fill="#f6f6f6" d="M501.63 319.98q-.6 1.37-1.6 2.48c-6.64-6.46-10.47-14.36-15.84-21.7-2.49-3.38-4.84-7.53-.38-10.51 1.55 5.4 4.79 8.12 7.58 11.74 1.98 2.56 1.72 6.6 4.64 8.66 3.38 2.4 5.3 5.66 5.6 9.31z"/><path fill="#b3875f" d="m598.07 392.77-20.15 6.12 9.09-16.43z"/><path fill="#b98931" d="M484.1 568.42c-1.5 5.04-4.99 8.46-9.82 8.67-2.7.12-4.79-1.63-5.28-3.5-.57-2.17.85-4.16 3.14-5.43a14.2 14.2 0 0 1 11.94.27z"/><path fill="#edb03f" d="M144.38 271.81c-.27 3.59-5.23 6.6-7.6 4.16-4.4-4.5-1.32-11.73 2.69-14.93 3.5 2.76 5.27 5.76 4.9 10.77"/><path fill="#f4b641" d="M537.63 452.66c-2.54 6.16-8.57 10.3-12.63 7.98-1.29-.74-3.8-2.92-2.63-5.21 2.96-5.67 10.62-5.66 15.26-2.77"/><path fill="#f1b340" d="M167.6 276.13c-2.7 6.76-7.8 10.63-13.23 7.57-1.13-.63-2.85-3-1.64-4.94 3.03-4.91 9.77-5.73 14.88-2.63z"/><path fill="#faba42" d="M508.65 452.57c-5.96-.7-5.07-11.9.28-14.43 2.86-1.34 4.7 3.9 5.18 6.11.63 2.93-.21 8.94-5.46 8.32"/><path fill="#bd8d32" d="M311.64 557.36c2.24 3.45 1.12 10.76-2.17 12.98-1.8 1.2-6.59 1.67-7.4-1.37-1.51-5.72 4.45-11.2 9.57-11.6"/><path fill="#ba8a31" d="M359.04 528.02c-2.08 1.5-4.78.74-5.98.02-1.45-.86-1.71-3.84-.7-6.02 1.74-3.74 5.35-5.79 9.3-7.24 2.17 4.03 1.83 10.05-2.6 13.24z"/><path fill="#f6b741" d="M395.34 260.53c4.18 2.21 7.48 10.36 3.08 14.42-1 .92-3.98 2.47-5.57.8-4.14-4.27-2.03-11.03 2.49-15.22"/><path fill="#f7b841" d="M251.9 310c-5.6 1.14-11.05-.53-13.13-4.99-.98-2.09.06-4.58 1.2-5.64 1.22-1.13 3.4-1.23 5.42-.15 3.96 2.13 6.37 5.83 6.52 10.77"/><path fill="#bb8b32" d="M456.02 553.02c5.3 3.05 6.97 12.68 2.12 15.07-1.5.75-4.36 1.34-5.55-.73-2.9-5.07-.46-10.9 3.43-14.32z"/><path fill="#ba8a31" d="M378.69 541.66c-2.86 3.9-11.82 5.9-14.61 1.51-.9-1.42-1.84-4.95.2-6.08 5.2-2.88 11.26-.14 14.4 4.57"/><path fill="#b0855e" d="M518.8 411.36c-7.35-5.44-12.05-10.68-20.97-11.18 2.4-4.25 7.3-5 10.56-4.96 3.77 4.48 8.37 9.66 10.42 16.15z"/><path fill="#f8b941" d="M249.62 278.73c1.16 2.8-2.1 6.45-3.82 7.9-2.19 1.83-8.66 2.54-9.36-1.78-1.06-6.5 9.4-9.75 13.18-6.12"/><path fill="#b2865f" d="M463.93 414.07c-4.55 2.69-9.8 2.91-15.43 5.22-.74-4.13-.37-6.56.35-9.94 4.67 2.86 8.65 2.73 15.08 4.71"/><path fill="#faba42" d="M530.55 514.49c-.03 3.9-1.3 6.53-3.8 7.16-2.99.75-6.28.42-6.4-3.31-.08-2.29.63-5.29 3.2-6.33 2.85-2.49 6.96-1.71 7 2.46z"/><path fill="#f4b641" d="M506.34 528.48c-3.45-4.46-3.6-8.83-4.9-13.64a9.6 9.6 0 0 1 7.84 4.36c1.7 2.83 2.07 6.58-2.94 9.28"/><path fill="#b74051" d="M501.94 576.92c-3.96 1.25-6.63.58-10.45.23 1.8-4.02 3.57-6.9 5.14-11.6 2.01 3.37 3.2 6.16 5.31 11.37"/><path fill="#ba8a31" d="M333.1 338.73q6.58-4.7 10.83-1.69c-.33 2.68-3.56 9.63-7.94 8.1-1.85-.64-3.97-1.54-4.04-3.34a5 5 0 0 1 1.14-3.07"/><path fill="#f7b841" d="M165.52 384.47c-2.1 3.73-8.67-.58-6.95-4.38.83-2.77 5.52-6.88 7.32-5.39 3.35 2.76 1.02 7.35-.39 9.77z"/><path fill="#f2b440" d="M343.93 337.04c-3.52.91-7.53 3.53-10.83 1.7 2.15-4.38 6.87-6.77 11.05-5.56 1.09.6-.1 2.93-.22 3.86"/><path fill="#b68731" d="M165.51 384.47c-1.5 2.59-2.05 4.12-4.88 3.9-1.93-.17-4-.8-4.33-3.33a5.2 5.2 0 0 1 2.28-4.96l6.95 4.38z"/><path fill="#cc7f07" d="M422.14 320.44c-2.75-.35-2.2-9.68 1.26-9.82 3.15-.08 2.5 9.74-1.26 9.82"/><path fill="#f3556c" d="M510.79 545.27c-.6-2.3-3.02-5.12-1.46-6.7l9.53-6.1z"/><path fill="#ab6a04" d="M507.12 415.72c-4.03 2.65-8.96-.06-11.21-4.31 4.02-1.3 7.74-.62 11.2 4.3"/><path fill="#c67b07" d="M418.65 343.8c-2.72.3-2.86-8.03.23-8.08 2.57-.05 3.03 7.73-.23 8.08"/><path fill="#f0546b" d="m537.34 468.48 7.12-6.21c-.72 1.98.92 5.13-1.03 7.35-1.55 1.75-5.44.98-6.1-1.14"/><path fill="#b78731" d="M530.55 514.49c-2.48-.37-4.77-1.38-7-2.46 1.63-2 4.1-5.04 6.13-3.81 2.03 1.22.89 4.68.87 6.28z"/><path fill="#d18208" d="M416.15 365.56c-1.3-2.03-1.5-7.58 1.51-8.56 2.25.96 1.83 7.69-1.52 8.56"/><path fill="#e88f04" d="M483.75 404.63c-2.87 2.1-6.78 1.53-9.67-2.25 2.72-1.99 6.37-1.76 9.67 2.25"/><path fill="#df8c0e" d="M440.36 388c-4.98 1.47-7.27-1.45-11.14-3.18 3.63-1.42 8.57-.94 11.14 3.18"/><path fill="#ef9303" d="M462.98 397.8c-3.07 2.04-7.2.19-9.05-3.24 3.42-.78 6.16-.29 9.05 3.23m-42.56-18.13c-1.04 1.46-2.24 2.1-2.82.23-1.17.11-2.16-.87-1.88-2.21.21-1 4.93-2.98 6.32-1.47.99 1.05-.86 3.05-1.6 3.44z"/><path fill="#b36e02" d="M523.83 424.64c-2.63 1.56-6.1.18-7.17-2.97 2.89-1.08 5.17-.33 7.17 2.97"/><path fill="#b16d02" d="M426.61 298.86c-2.11-1.02-.98-7.67 1.38-7.42 1.57 1.34 1.36 7.74-1.38 7.42"/><path fill="#5a3f1d" d="M175.8 395.32c1.37 2.59-2.83 2.63-6.2 2.02-1.58-.28.1-1.66.72-2.16.88-.72 2.9-1.27 5.49.16z"/><path fill="#2b1c08" d="M420.42 379.65a3.57 3.57 0 0 1-3.6 3.16c-2.15-.09-3.99.84-5.18-1 2.75-.73 4.57-.51 5.96-1.92z"/><path fill="#702731" d="M502.63 462.4c-2.85-.04-2.63-1.85-4.43-2.97-.18-.42 0-1.05-.24-1.43 2.4.52 3.42 2.59 4.67 4.4"/><path fill="#d4a072" d="M180.6 431.29c-3.61.34-7.67 2.54-11.64.7 3.31-2.2 7.8-.75 11.64-.7m146.78-41.76c-2.85.33-5.57.88-8.73 1.01 2.05-2.5 5.86-1.08 8.73-1.02M157.3 430.7c-2.9.63-5.87.62-8.74-.08 2.4-2.87 6.1-.04 8.74.08"/><path fill="#bb8d63" d="M488.66 395.2c-3.88-5.72-12.58-1.92-16.4-4.6-6.68-4.7-13.98-5.97-20.74-7.6-5.01-1.2-9.97-9.7-16.55-9.05-2.52.25-6.22-5.17-6.3-7.43l-.5-15.34c-.24-7.16 5.32-13.58-.06-21.16 7.45-6.25 4.24-15.28 6.96-22.92l4.25-11.98 14.23 20.96c-4.66 1.05-9.55.21-13.27 3.64-2.5 2.32-3.24 5.76-1.2 8.32 4.1 5.15 8.09-3.31 14.49-.16 4.4 2.17.02 9.88 7.2 11.69 1.87.46 3.83-1.49 6.43-4.07l34.74 49.9c-5.7 1.33-9.58 3.16-13.3 9.82z"/><path fill="#020201" d="M442.72 367.64c-4.51.8-7.36-1.07-7.72-4.58-.82-8.16 8.18-3.36 10.81-9.62.94-2.22 1.16-6.24-2.3-6.55-2.63-.25-5.37-.22-6.7-1.95-1.14-1.47-1.6-4.75.39-6.56 3.4-3.1 8.51-2.49 12.41-.53a13.3 13.3 0 0 1 7.04 11.22c.46 8.74-4.75 16.95-13.95 18.57z"/><path fill="#030201" d="M477.22 381.74c-8.72-2.83 1.5-11.28-5.13-13.17-5.48-1.55-2.28 8.12-8.7 8.63-3.95.32-5.83-2.45-5.54-6.44.65-9.18 8.84-14.8 17.4-12.11 7.9 2.46 13.19 11.57 8.33 19.74-1.55 2.62-3.99 4.12-6.37 3.35"/><path fill="#000" d="M371.2 218.56c.6 3.26.46 11.2.35 14.56q-.61 1.9-1.51 0-.63-3.48-2.25 6l-1.98-.04c2.9 4.05-4.2 8.94-7.79 10.93-10.88 6.01-17.01 2.94-26.16-4.39-9.3.1-19.54-6.23-20.32-16.21-.17-2.33 0-3.38 2.6-4.49-4.48-2.72-.22-10.54 2.19-14.17 10.58-15.9 22.47-9.7 29.23 6.03 7.22-.31 14.88.45 21.38 3.9.06-2.5 1.85-2.9 4.26-2.1z"/><path fill="#eeb13f" d="M334.4 227.63c-1.68 3.72-5.12 4.9-8.18 3-2.66-5.01-1.6-10.7 3.1-14.78 3.61 2.8 5.35 6.72 5.08 11.76z"/><path fill="#efb140" d="M353.62 236.73c-3.58 1.84-10.06 1.61-9.75-3.36 3.1-4.52 9.68-5 13.28-2.02.9 2.12-2.5 4.08-3.53 5.37z"/><path fill="#b98931" d="M353.62 236.73c-1.2 1.52-5.35 4.43-8.63 2.56-1.46-.83-2.52-2.08-2.34-3.5.1-.82.65-1.69 1.23-2.42 2.96 1.76 6.36 2.74 9.74 3.36"/><path fill="#ef546a" d="M370.04 233.14c-.3 1.96.67 4.58-.35 6.4-.7 1.27-3.78.87-3.9-.44 1.3-1.63 1.05-4.93 2.92-8.09 1.4-1.84 3.73.56 1.33 2.13"/><path fill="#fa9a02" d="m415.99 422.87-3.11 20.78c-.82 1.54-4.5-.7-5.53-1.5-1.53-1.17-1.92-3.21-1.83-5.93l1.32-42.65c9.7-3.98 21.58-1.46 27.74 7.09 2.4 3.34 3.37 7.3 2.49 10.74-.93 3.63-3.83 7.37-8.14 8.38l-12.96 3.07z"/><path fill="#070401" d="M420.62 401.1c4.03-.36 6.05 3.37 5.79 5.65-.4 3.5-2.74 5.9-5.32 6.17-3.77.4-5.98-2.13-6.15-4.8-.2-3.39 1.6-6.66 5.68-7.02"/><path fill="#010000" d="M403.7 508.23c-2.05-15.22 4-15.72 4.27-16.22 6.32.45 12.47 1.17 19.15 3.56 4.83-5.71 13.95-15.49 22.4-11.45 6.96 3.33 7.05 16.98 5.36 23.16-2 7.34-7.57 11.98-14.62 11.56-9.57-.57-13.68 14.62-28.78 3.2-3.73-2.82-7.04-8.18-7.8-13.83z"/><path fill="#f6b741" d="M444.04 494.98c1.93-.08 3.13 8.68-.43 12.6-1.32 1.46-6 2.8-7.4 0-2.74-5.42 2.43-12.4 7.83-12.6"/><path fill="#f4b541" d="M424.46 507.17c2.29 2.52 1.44 8.4-1.98 8.5-6.19.22-9.5-6.83-9.01-12.5 4.07-.74 7.82.53 10.99 4"/><path fill="#f66f4b" d="M634.65 377.62c-16.35 8.5-34.62 3.21-43.12-12.76-2-3.76-7.53-8-7.34-12.9.58-15.9 5.5-31.53 12.16-45.65 3.3-6.98 8.68-11.42 15.1-12.08 7.84-.83 13.28 2.9 17.82 9.11l31.8 43.59c3.81 5.22 3.69 10.15-1.26 14.71-7.17 6.6-15.87 11.15-25.17 15.98z"/><path fill="#000" d="M636.3 322.27c6.75 11.12 23.59 26.78 9.22 38.74-5.05 4.21-12.5 4.29-18.8.41-8.1 4.96-17.8 3.61-23.04-3.8s-3.44-17.14 4.51-22.97c-1.37-8.4 1.73-15.76 9.05-18.88 6.52-2.78 14.86-.4 19.06 6.5"/><path fill="#a03626" d="M626.82 326.23c5.59 7.26 18.52 22.5 12.46 27.26-2.05 1.62-5.55 1.58-7.68-1.4-5.14-7.17-18.07-22.04-11.87-26.57 1.6-1.16 5.35-1.55 7.09.7z"/><path fill="#f1a98d" d="M610.86 341.74a4.63 4.63 0 0 1 5.9 2.95c.9 3.18-.37 5.85-3.48 6.53-1.9.42-4.74-.48-5.68-2.82-.77-1.91-.5-5.54 3.24-6.66z"/><path fill="#f66f4b" d="M570.41 232.13c-6.92 18.96-48.85 12.3-63.82 8.13-4.6-1.28-6.35-7.34-9.14-10.25-13.01-13.57-12.21-33.48 1.54-46.11 3.83-3.52 28.44-27.05 34.03-19.08l34.1 48.83c4.1 5.87 5.73 11.86 3.3 18.48"/><path fill="#000" d="M552.5 202.77c4.37 6.6 2.75 14.84-1.94 19.58-5.14 5.2-13.17 5.35-19.98 1.45-7.75 6.46-18.44 5.28-23.97-2.31-5.8-7.96-3.4-19.12 5.95-24.18-1.66-8.02.48-14.84 7.04-18.5 15.2-8.5 23.8 10.15 32.9 23.94z"/><path fill="#a03626" d="M530.33 188.1c5.58 6.94 19.16 22.96 12.52 27.9a5.13 5.13 0 0 1-6.92-1.14c-4.98-6.74-18-22.03-12.73-26.67 1.56-1.37 5.47-2.16 7.13-.1z"/><path fill="#f2aa8d" d="M514.34 203.69a5.05 5.05 0 0 1 5.73 2.78 4.8 4.8 0 0 1-2.04 6.28c-2.63 1.3-6.44.17-6.97-2.03-.77-3.12-.15-6.18 3.28-7.03"/><path fill="#000" d="M180.14 582.38q-1.9-.61 0-1.46c4.4.27 8.81-.91 13.23.66-4.9 1.7-9.13.32-13.23.8m275.23 5.47q-1.9-.6-.01-1.45c4.4.26 8.82-.92 13.24.65-4.9 1.7-9.13.33-13.23.8m-163.11-4.75q1.9.61.01 1.46c-3.41-.42-6.91 1.02-10.33-.72 3.9-1.42 7.18-.53 10.32-.74m55.34 1.1q1.89.6 0 1.45c-3.4-.41-6.9 1.02-10.32-.72 3.9-1.42 7.17-.53 10.32-.74m55.33 1.1q1.9.6.01 1.45c-3.4-.41-6.9 1.02-10.32-.72 3.9-1.42 7.17-.52 10.31-.73m-167.45-1.81q-1.9-.61-.01-1.46c2.42.01 5.03-.69 7.39.7-2.86 1.56-5.23.4-7.38.75"/><path fill="#000" d="M235.47 582.02v1.46c-2.41-.35-5.02.93-7.38-.76 2.86-1.24 5.22-.72 7.38-.7m64.07 1.03q1.9.61 0 1.46l-7.27.05-.01-1.46c2.4-.16 4.88-.1 7.28-.05m-119.41-2.12v1.45c-2.41-.35-5.02.95-7.38-.76 2.85-1.14 5.25-.83 7.38-.7m-72.93-16.16c-2.08 1.05-4.4 1.06-7.36.1 1.55-1.53 3.53-1.37 7.35-.1m348.17 21.64v1.46c-2.41-.35-5.03.94-7.38-.77 2.85-1.14 5.25-.82 7.38-.7"/><path fill="#000" d="m299.55 584.5-.01-1.45c2.42.06 5.02-.73 7.39.73-2.88 1.4-5.23.71-7.38.73m55.33-.36q1.88.6 0 1.45l-7.27.05-.01-1.46c2.4-.16 4.87-.1 7.28-.04"/><path fill="#000" d="m354.89 585.6-.01-1.45c2.41.05 5.01-.74 7.38.72-2.87 1.4-5.22.72-7.37.73m55.32-.36q1.9.61.01 1.46l-7.28.04v-1.45c2.4-.16 4.87-.1 7.27-.05"/><path fill="#000" d="M410.22 586.7v-1.46c2.41.05 5.01-.73 7.38.72-2.87 1.4-5.22.72-7.38.73"/><rect width="10.57" height="26.16" x="757.87" y="454.03" fill="#000" rx="5.29" transform="rotate(-39.77 757.87 454.03)"/><rect width="10.57" height="26.16" x="741.66" y="466.58" fill="#000" rx="5.29" transform="rotate(-39.77 741.66 466.58)"/><rect width="10.57" height="26.16" x="730.18" y="479.95" fill="#000" rx="5.29" transform="rotate(-39.77 730.18 479.95)"/><rect width="10.57" height="26.16" x="714.4" y="494.66" fill="#000" rx="5.29" transform="rotate(-39.77 714.4 494.66)"/><rect width="10.57" height="26.16" x="699.5" y="509.78" fill="#000" rx="5.29" transform="rotate(-39.77 699.5 509.78)"/><rect width="10.57" height="23.58" x="769.8" y="441.94" fill="#000" rx="5.29" transform="rotate(-39.77 769.8 441.94)"/><rect width="10.57" height="23.58" x="783.57" y="430.37" fill="#000" rx="5.29" transform="rotate(-48.44 783.57 430.37)"/><rect width="10.57" height="23.58" x="795.34" y="412.05" fill="#000" rx="5.29" transform="rotate(-48.44 795.34 412.05)"/><rect width="10.57" height="23.58" x="805.49" y="399.59" fill="#000" rx="5.29" transform="rotate(-58.43 805.49 399.6)"/><rect width="10.57" height="23.58" x="814.03" y="383.44" fill="#000" rx="5.29" transform="rotate(-58.43 814.03 383.44)"/><rect width="10.57" height="23.58" x="823.26" y="369.74" fill="#000" rx="5.29" transform="rotate(-64.58 823.26 369.74)"/><rect width="10.57" height="23.58" x="828.39" y="350.86" fill="#000" rx="5.29" transform="rotate(-64.58 828.4 350.86)"/><rect width="10.57" height="23.58" x="842.59" y="231.7" fill="#000" rx="5.29" transform="rotate(-99.48 842.59 231.7)"/><rect width="10.8" height="23.58" x="839.64" y="211.11" fill="#000" rx="5.4" transform="rotate(-109.8 839.64 211.11)"/><rect width="10.8" height="23.58" x="835.25" y="194.63" fill="#000" rx="5.4" transform="rotate(-109.8 835.25 194.63)"/><rect width="10.8" height="23.58" x="818.5" y="159.69" fill="#000" rx="5.4" transform="rotate(-116.2 818.5 159.69)"/><rect width="10.8" height="23.58" x="809.44" y="144.01" fill="#000" rx="5.4" transform="rotate(-116.2 809.44 144.01)"/><rect width="10.8" height="23.58" x="801.65" y="129.4" fill="#000" rx="5.4" transform="rotate(-125.58 801.65 129.4)"/><rect width="10.8" height="23.58" x="788.03" y="113.12" fill="#000" rx="5.4" transform="rotate(-125.58 788.03 113.12)"/><rect width="10.8" height="23.58" x="778.88" y="99.15" fill="#000" rx="5.4" transform="rotate(-135.84 778.88 99.15)"/><rect width="10.8" height="23.58" x="765.73" y="85.2" fill="#000" rx="5.4" transform="rotate(-135.84 765.73 85.2)"/><rect width="10.8" height="23.58" x="749.77" y="72.87" fill="#000" rx="5.4" transform="rotate(-135.84 749.77 72.87)"/><rect width="10.8" height="23.58" x="733.47" y="59.89" fill="#000" rx="5.4" transform="rotate(-145.53 733.47 59.9)"/><rect width="10.8" height="23.58" x="708.55" y="50.89" fill="#000" rx="5.4" transform="rotate(-145.53 708.55 50.9)"/><rect width="10.8" height="23.58" x="690.44" y="43.17" fill="#000" rx="5.4" transform="rotate(-159.2 690.44 43.17)"/><rect width="10.8" height="23.58" x="669.91" y="35.31" fill="#000" rx="5.4" transform="rotate(-159.2 669.91 35.31)"/><rect width="10.8" height="23.58" x="652.73" y="29.69" fill="#000" rx="5.4" transform="rotate(-171.91 652.73 29.69)"/><rect width="10.8" height="23.58" x="630.31" y="26.48" fill="#000" rx="5.4" transform="rotate(-171.91 630.31 26.48)"/><rect width="10.8" height="23.58" x="607.33" y="26.6" fill="#000" rx="5.4" transform="rotate(-171.91 607.33 26.6)"/><rect width="10.8" height="23.58" x="585.69" y="26.8" fill="#000" rx="5.4" transform="rotate(-171.91 585.69 26.8)"/><rect width="10.8" height="23.58" x="550.47" y="30.6" fill="#000" rx="5.4" transform="rotate(166.67 550.47 30.6)"/><rect width="10.8" height="23.58" x="527.97" y="35.42" fill="#000" rx="5.4" transform="rotate(166.67 527.97 35.42)"/><rect width="10.8" height="23.58" x="508.6" y="43.85" fill="#000" rx="5.4" transform="rotate(166.67 508.6 43.85)"/><rect width="10.8" height="23.58" x="492.93" y="48.71" fill="#000" rx="5.4" transform="rotate(152.37 492.93 48.71)"/><rect width="10.8" height="23.58" x="477.05" y="57.39" fill="#000" rx="5.4" transform="rotate(152.37 477.05 57.39)"/><rect width="10.8" height="23.58" x="445.85" y="80.93" fill="#000" rx="5.4" transform="rotate(145.2 445.85 80.93)"/><rect width="10.8" height="23.58" x="429.5" y="95.35" fill="#000" rx="5.4" transform="rotate(145.2 429.5 95.35)"/><rect width="10.8" height="23.58" x="409.69" y="108.09" fill="#000" rx="5.4" transform="rotate(153.06 409.69 108.09)"/><rect width="10.8" height="23.58" x="391.11" y="113.54" fill="#000" rx="5.4" transform="rotate(153.06 391.11 113.54)"/><rect width="10.8" height="23.58" x="372.65" y="121.97" fill="#000" rx="5.4" transform="rotate(161.83 372.65 121.97)"/><rect width="10.8" height="23.58" x="353.31" y="128.01" fill="#000" rx="5.4" transform="rotate(161.83 353.3 128.01)"/><rect width="10.8" height="23.58" x="330.88" y="132.64" fill="#000" rx="5.4" transform="rotate(176.53 330.88 132.64)"/><rect width="10.8" height="23.58" x="310.15" y="134.54" fill="#000" rx="5.4" transform="rotate(176.53 310.15 134.54)"/><rect width="10.8" height="23.58" x="289.57" y="135.96" fill="#000" rx="5.4" transform="rotate(176.53 289.57 135.96)"/><rect width="10.8" height="23.58" x="274.14" y="138.21" fill="#000" rx="5.4" transform="rotate(176.53 274.14 138.2)"/><rect width="10.8" height="23.58" x="252.69" y="138.78" fill="#000" rx="5.4" transform="rotate(176.53 252.7 138.78)"/><rect width="10.8" height="23.58" x="231.24" y="138.49" fill="#000" rx="5.4" transform="rotate(176.53 231.24 138.49)"/><rect width="10.8" height="23.58" x="211.66" y="139.31" fill="#000" rx="5.4" transform="rotate(171.39 211.66 139.31)"/><rect width="10.8" height="23.58" x="194.84" y="144.23" fill="#000" rx="5.4" transform="rotate(165.88 194.84 144.23)"/><rect width="10.8" height="23.58" x="177.85" y="146.78" fill="#000" rx="5.4" transform="rotate(165.88 177.85 146.78)"/><rect width="10.8" height="23.58" x="164.52" y="153.9" fill="#000" rx="5.4" transform="rotate(155.92 164.52 153.9)"/><rect width="10.8" height="23.58" x="144.77" y="162.83" fill="#000" rx="5.4" transform="rotate(155.92 144.77 162.83)"/><rect width="10.8" height="23.58" x="131.11" y="171.93" fill="#000" rx="5.4" transform="rotate(155.92 131.1 171.93)"/><rect width="10.8" height="23.58" x="115.54" y="181.07" fill="#000" rx="5.4" transform="rotate(144.38 115.54 181.07)"/><rect width="10.8" height="23.58" x="102.36" y="192.49" fill="#000" rx="5.4" transform="rotate(137.89 102.36 192.5)"/><rect width="10.8" height="23.58" x="86" y="211.55" fill="#000" rx="5.4" transform="rotate(137.89 86 211.55)"/><rect width="10.8" height="23.58" x="74.64" y="226.12" fill="#000" rx="5.4" transform="rotate(121.67 74.64 226.12)"/><rect width="10.8" height="23.58" x="64.7" y="245.71" fill="#000" rx="5.4" transform="rotate(116.27 64.7 245.7)"/><rect width="10.8" height="23.58" x="54.09" y="265.58" fill="#000" rx="5.4" transform="rotate(106.49 54.1 265.58)"/><rect width="10.8" height="23.58" x="49.39" y="283.39" fill="#000" rx="5.4" transform="rotate(106.49 49.39 283.4)"/><rect width="10.8" height="23.58" x="46.54" y="306.57" fill="#000" rx="5.4" transform="rotate(106.49 46.54 306.57)"/><rect width="10.8" height="23.58" x="43.68" y="327.61" fill="#000" rx="5.4" transform="rotate(106.49 43.68 327.6)"/><rect width="10.57" height="23.58" x="833.45" y="338.39" fill="#000" rx="5.29" transform="rotate(-64.58 833.45 338.4)"/><path fill="#fff" stroke="#000" stroke-width="8" d="M662.53 354.94a4.65 4.65 0 0 1 8.64-.16l3.46 8.32 8.58 2.8a4.65 4.65 0 0 1 .35 8.7l-8.33 3.46-2.78 8.58a4.65 4.65 0 0 1-8.71.35l-3.47-8.32-8.57-2.8a4.65 4.65 0 0 1-.35-8.7l8.32-3.47 2.79-8.57z"/></svg>