<svg xmlns="http://www.w3.org/2000/svg" fill="none" viewBox="0 0 850 605"><path fill="#000" d="M825.68 534.3a5.5 5.5 0 0 1-.05 3.87c-1.88 4.7-23.95 9.9-29.72 9.75a882 882 0 0 0-86.56 8.93 71 71 0 0 1-23.88 11.5l-69.24 2.12q-9.34-.46-18.16.7-119.76 2.4-240.22 6.3c-5.12 8.97-13.7 19.15-24.6 13.27q-6.15 6.37-13.27 9.28c-5.35 0-11.02 1.93-15.72 4.29h-14.28q-7.5-1.25-14.97-2.35l-.75-1.94-6.54-2q-10.05-10.35-12.64-25.55-7.07 2.66-11.94-7.5l-3.66.05q-7.25 4.43-12.77-4.8l-7.97-2.77q-9.53 7.58-16.22-7.86c-9.48 1.9-13.97-2.2-15.4-10.98q-3.75-2.6-10.8-1.9-3-4.35-5.94-8.9-13.9-.22-12.5-10.13-4.99-4.55-12.96-6.38-1.37-7.07-5.12-10.56c-8.18-.22-10.3-5.09-12.68-11.82q-5.13-6.37-14.1-8.58-2.14-9.47-11.62-14.17l-5.52-8.02q-11.41-1.48-11.23-9.75-9.61.55-12.5-13.67-15.87-.78-12.47-13.39-2.67-5.01-8.81-8.08-2.84-12.26-12.61-16.89-.98-4.18-.16-8.76-11.61-6.66-8.76-16.61a29 29 0 0 0-7.64-5.7q3.08-13.27-6.71-19.73-1.05-4.72.45-10.18a23 23 0 0 1-7.1-8.33 30 30 0 0 0 2.45-10.92q-9.1-11.07-3.92-21.04c-5.01-8.54-5.76-13.9-2.03-23.1A18.3 18.3 0 0 1 0 262.87v-2.85c1.21-2.25 4.54-3.16 6.2-4.8 4.69-4.66-2.29-11.33-1.41-15.17 1.44-6.29 7.44-11.69 2.37-19.09-1.03-1.51-1.93-3.5-1.42-5.7.36-1.54 2.45-1.48 3.85-3.01 6.67-7.25.41-16.15.65-17.05 1.09-4.1 9.97-7.11 7.17-12.5-1.32-2.57-2.38-4.54-1.65-7.48.5-2.04 3.11-1.62 5.1-2.97 6.41-4.4.28-12.37 2.58-16.59.57-1.06 2.2-.78 3.84-1.27 9.99-2.96.58-15.9 5.99-16.63 3.64-.48 5.46-1.74 6.99-4.01 1.8-2.66.78-4.89.12-8.19-.85-4.2 11.06-3.65 10.25-10.92-.3-2.72-1.19-5.02.61-6.93 1.22-1.3 12.74-2.95 12.2-10.95-.17-2.6-1.37-4.31.74-6.1 1.16-.97 2.82-1.21 5.1-1.18 8.89.14 4.13-11.22 9.32-14.54 3.18-2.06 5.78 3.37 9.33-2.09 1.77-2.74-3.7-4.86 2.2-9.34 1.82-1.39 4.38-.07 6.64 0 4.77.17 7.3-5.96 8.17-9.79 1.27-5.67 6.11-2.55 9.57-2.97 2.74-.33 6.16-4.38 8.97-5.81 1.87-.95 1.36-5.69 4.22-5.87 8.04-.53 16.61-3.38 19.82-12.19 9.95 3.6 17.62-4.16 24.16-9.23 18.43 2.32 15.2-6.9 20.5-7.85 1.97-.36 3.44 1.98 5.4 2.14 11.87.97 11.46-7.42 13.4-7.59 9.09-.8 4.39 3.33 13.94 2.96 3.96-.16 4.49-7.74 9.89-7.04 1.17.15 2.38 2.07 3.28 2.74 6.52 4.87 12.8-1.44 18.79-1.13 5.64.3 11.88 5.86 17.6.94 1.37-1.18 2.93-2.97 4.84-2.81 3.63.29 10.86 10.49 18.43 3.51 7.18-6.61 9.18 7.23 14.4 4.52 12.77-6.66 1.17 3.94 23.34 5.44 2.19.14 4.04-2.9 6.09-1.51 7.12 4.83 3.93 9.34 17.87 7.17 3.95 6.35 12.23 7.65 18 10.98 4.93 2.85 10.13 4.92 15.44 7.46 4.57 2.19 7.87 10.4 15.28 6.74 6.8 7.75 0 6.16 12.77 13.46 2.75.04 4.9-1.1 7.1.5 2.22 1.6 1.1 3.97 1.46 6.33.93 6.11 10.42 5.31 13.09 8.35 12.01 18.78 15.77 1.66 22.1 13.89 5.04 9.76 13.97-7.59 18.84 6.86 2.09 6.18 9.8-.25 12.61.77 3.63 1.3 3.69 6.27 6.32 6.88 5.51 1.28 8.54-5.54 12.03 0 7.21 11.43 15.3-2.05 20.27 2.79 2.65 2.6 9.15 6.64 12.05 3.3 2.49-2.87 3.36-4.72 6.79-4.87 3.73-.17 4.21 2.48 5.77 5.03 4.17 6.83 11.97-.59 16.1.28a66 66 0 0 0 14.9 1.55l17.06.07c6.6.02 14.24 5.31 21.5.67 9.32-5.96 8.57 8.45 17.94 1.05 1.97-1.55 4.08-1.42 6.41-1.05 1.64.27 2.09 2.88 3.63 4.53 3.26 3.48 9.19-.96 13.03-.36 3.9 5.47 10.71 5.36 17.21 6.47 3.7.64 7.02 7.22 13.13 4.87 1.73-.66 6.76.5 7.14 2.25 1.73 8.02 10.35 5.55 14.02 7.87 5.5 3.47 8.57 7.27 15.78 8.95 3.26.76 5.46 9.2 10.57 8.97 2.02-.08 7.52-1.28 7.59 2.12.13 5.4 1.97 11.46 8 12.03 2.08.2 4.13.08 5.31 1.45.66.76 2.84 16.73 15.63 21.02.97 8.1 8.87 14.61 12.9 20.53 4.03 5.9 2.47 15.47 12.07 16.87-4.47 26.07 18.37 17.31 8.96 29.28-4.73 6.02 4.86 10.33 5.87 13.93.51 1.83-2.17 3.33-2.17 5.34-.05 17.56 5.63 11.69 6.65 16.13.5 2.17-1.44 3.23-2.18 5.44-4.96 14.75 7.41 13.44 4.1 18.42-9.46 14.2 3.69 12.21-1.19 21.81-9.5 18.7 4.97 17.7-2.04 23.63-2.7 2.28-6 6.31-3.3 9.95 1.77 2.4 3.14 6.1-.06 7.99-11.54 6.76 1.85 15.2-7.3 19.86-7.74 3.94 1.13 8.98-3.81 16.14l16.86.36c8.07.17 13.88 5.5 17.28 10.9 4.75 7.51 3.06 14.31.54 21.94-3.54 10.71-7.64 20.36-14.74 29.44 14.22 15.6 6.92 42.53-7.03 56.06z"/><path fill="#f6b983" d="M709.72 414.6c-21.43 37.58-42.95 74.14-69.78 106.9l-4.54 2.58c-30.75-3.57-60.23-15.63-88.23-28.08-17.26-7.68-66.1-32.43-74.61-47.97-1.86-3.39.21-19.86 1.48-24.27a83 83 0 0 0 11.22-28.08l2.88-2.27c3.93-2.85 6.89-5.75 8.57-9.68 1.39-3.23.06-6.69-3.31-7.44-2.37-.53-5.03 1.18-6.43 3.64-4.78 2.1-4.84-4.73-3.1-8.2 5.62-11.26 21.93-5.52 31.04-1.69a156 156 0 0 0 37.03 4.8c30.87 4.72 57.01 16.3 85.1 29.2 23.97 10.84 46.24 9.81 70.58 8.04l2.12 2.5zM225.68 285.76c-8.73 2.43-20.27-6.89-27.13-12.74-13.45-11.47-28.7-31.8-27.22-49.93 16.95-43.57 53.68-76.64 101.14-86.4 27.38-5.63 57.98-5.7 83.3 7.6 24.4 12.81 45.15 30.02 68.56 44.11 6.27 3.78 9.6 9.52 10.87 16.49 4.46 10.11 1.1 21.86-5.88 29.73-15.69-9.79-31.53-14.29-49.03-16.1 6.97-17.99 1.19-36.62-11.9-49.77-9.28-9.33-19.25-18.22-31.45-22.26-10.06-3.33-15.59 1.03-20.8 8.56l-90.44 130.7z"/><path fill="#fd5870" d="M701.22 248.19c-.82 1.01.56 4.74-2.92 4.34-6.33-.71-18.65-.56-22.05 6.39-2.35 11.27 9.29 21.78 19.22 23.48 7.18 1.23 10.15-5.85 15.24-7 8.21-1.83 15.71-3.31 17.84-12.45 3.15-4.15 8.3 1.57 10.32 4.92 4.73 7.89 2.25 16.26-1.49 24a114 114 0 0 0-16.41 31.44c-1.27 8.3-6.25 31.88-13.07 35.72-.99.56-2.46-.59-3.4-1.6-5.16-4.69-15.17-10.49-21.8-7.52-7.05 3.16-3.86 19.89-5.37 21.12-.86.7-2.33.18-3.05.7q-3.92 2.05-7.37 1.45c-40.64-21.74-82.23-37.02-128.32-41.56q-2.24-1.73-2.89-6.03c-2.5-10-12.07-15.26-22.88-15.39-5.23-.07-9.72 1.62-10.2 6.72-4.43 2.48-5.69-1.43-4.86-5.66 7.03-9.09 11.27-18.16 14.37-29.3 3.33-2.89 22.16-8.4 26.21-4.69-2.94 4.66-4.48 10.49-8.37 15.42s-.17 12 4.25 14.55l15.18 8.79c6.63 3.83 12.13.66 17.46 2.03 16.9 4.31 44.55 24.63 63.7-3.32 10.1-14.7 19.7-31.04 19.42-48.75l1.97-2.63c12.53-3.43 21.22-14.32 28.8-24.24 6.29.08 21.06 1.64 20.47 9.07"/><path fill="#fe5309" d="M797.4 368.6c2.15 37.24-22.42 71.72-44.06 100.27-13.75 18.13-23.3 28.95-43.42 39.68-9.01 4.82-33.48 12.99-43.41 12.33-.78-.06-1.04-2.04-.99-3.33 18.79-24.55 35.1-49.21 50.85-75.45 13.9-24.02 27.25-46.96 39.87-71.64 9.41-18.42 15.05-37.36 21.98-57.33 9.9 17.84 16.69 36.44 19.19 55.47z"/><path fill="#bb8d64" d="M709.72 414.6c-5.08 1.3-10.77-.33-16.27.65-8.46 1.52-16.17 1.99-24.88.35-18.26-3.45-35.6-9.03-52.35-17.42-21.62-10.82-43.48-17.5-67.84-20.98-15.4.06-30.3-2.05-44.57-8.07-4.67-1.98-15.37-1.87-17.28 3.64-.81 2.34-1.37 5.06.46 7.17-1.35 3.21-5.99 6.64-7.48 3.53L474.57 373c-2.42-5.09-9.32-5.62-14.44-10.1 13.9-2.27 5.11-14.46 15.54-9.23 5.01 2.51-.63 12.61 7.78 11.84 1.93-.17 4-1.7 4.68-4.58 1.8-7.82-3-13.97-9.45-17.17-6.46-3.2-13.58-1.93-19.07 4.55-1.88-11.34-5.51-10.51-1.07-20.84 5.83 5.67 10.39 10.06 17.24 12.57 20.55 7.54 40.62 15.13 62.79 17.16 24 2.2 46.9 5.66 68.9 15.17l47.1 20.36c11.8 5.1 25.6 4.84 38.06 5.85 10.82.87 15.6-6.38 21.29-13.15 10.86-12.95 19.63-25.43 23.97-42.06 7.64-29.24 5.61-27.68 22.33-54.61 11.14-.27-6.05 35.07-7.22 38.87-9.8 31.97-27.27 58.9-43.27 86.97"/><path fill="#c14456" d="M378.49 515.67a2785 2785 0 0 1 96.21-4.09l2.2 2.84c-2.34 4.9-8.91 8.02-7 14.62.79 2.68 15.14 15.04 29.63 7.97 5.47-2.67 5.04-9.52 8.47-13.29 3.73-4.1 9.71-6.17 10.19-13.27 16.95 9.81 34.02 15.24 53.08 18.29 11.34 1.81 22.38 4.91 31.91 10.97-.8 5.87-2.67 10.07-4.25 15.55l-32.45.92c2.48-12.43-4.81-22.37-16.87-25.76-3-.84-7.73-2.53-9.98.73-4.03 5.8-3.47 12.93-3.13 19.96l-12.33 6.13-108.94 3.01c7.33-9.99 6.02-21-1.83-29.47-2.58-2.79-5.9-6.71-10.37-5.06-6.07 2.26-8.63 10.76-12.23 14.96-7.64 1.13-15.98.33-22.95 5.5 2.61-11.54 7.41-20.6 10.67-30.54z"/><path fill="#c13f07" d="M665.51 517.55c5.23 3.53 34.8-8.15 43.29-11.63 14.24-5.82 23.92-16.32 33.47-27.85 25.41-30.73 52.1-69.67 55.12-109.47 1.99 15.08 4.38 31.33-.34 46.17-9.33 29.37-26.13 54.6-45.48 78.04-14.32 17.34-28.25 33.33-45.83 47.21-5.86 4.63-12.64 11.05-20.29 12.23-17.44 2.72-34.27 1.69-53.1 1.99l33.16-36.67z"/><path fill="#bb8d64" d="M225.68 285.76c-.76 2-1.7 4.43-3.3 6.77-10.43 15.31-22.34 29.24-31.8 45.2-4.24 7.14.43 15.87 1.73 22.71 1.09.79.86 1.06-.56.85-31.5-38.13-38.22-92.49-20.44-138.19 7.19 28.5 26.73 52.36 54.37 62.67z"/><path fill="#7a4a34" d="M255.7 418.28q-.99 3.81 2.68 9.1a2889 2889 0 0 1 24.18 100.69c10.42 5.98 16.96-3.05 18.7-12.99l3.35-1.8c9.62 4.56 16.94 11.49 19.48 22.59 4.2 18.42-1.17 12.9-4.34 27.98-2.22 10.54-14.97 23.11-27.94 19.66-6.38-1.7-12.48-7.15-14.58-14.95-4.15-15.47-7.02-30.85-10.64-46.8l-15.77-69.66c-2.63-11.59-4.77-22.56-10.46-33.8 5.95-2.23 10.75-.29 15.33 0z"/><path fill="#bb8d64" d="M639.94 521.5a585 585 0 0 1-29.61 33.48c-.45-7.31 6.27-15.33.9-20.69-21.47-21.44-50.93-5.35-105.61-42.85-20.03-13.74-38.16-29.39-54.37-48.79 4.71-1.51 11.35-.97 13.72-5.98 3.09-6.5.29-13.77-.58-21.22 9.67-2.75 15.63-10.1 16.48-20 2.96-.88 5.55-.75 7.27-2 .32 20.16-14.32 24.4-12.64 42.48.29 3.14-2.68 7.64-.53 10.64 7.27 10.07 17.67 15.6 27.8 22.24 39.79 26.07 54.79 26.6 96.21 45.27 13.9 3.16 27.32 6.93 40.96 7.46z"/><path fill="#fe5971" d="m452.67 477.08-2.55 3.05-17.36 3.1c-2.49-3.56-16.62-14.36-20.4-12.5-1.7.85-4.24 12.02-4.2 14.82.24 13.47 7.33 14.95 19.04 16.65 15.29 13.87 28.73-1.8 27.19-18.43l2.82-2.1c1.6-.29 3.33-.42 4.8.35 2.68 1.42 19.42 17.59 22.23 20.89l2.79 5.7c-2.24 2.28-6.54 5.71-10.14 5.84-4.83.17-9.92-.66-15.6-.16-26.37 2.35-52.03 2.9-78.53 3.32-2.17.03-4.01-.12-4.28-1.91 4.38-13.43 4.85-27.48 2.75-41.38l-.06-4.55q15.73-11.05 36.19-14.02a19 19 0 0 0 4.81-9.57c2.32-2.7 3.32-3.54 6.39-1.53 2.14 1.4 23.58 25.78 24.11 27.52.5 1.65.56 3.27-.01 4.93z"/><path fill="#a16144" d="M255.7 418.28c13.95.83 27.98 3.89 31.68 20.02l17.23 74.98c-1.6 7.29-4.4 18.53-14.12 19.41-2.74.25-9.86-.27-10.77-4.2L259.35 441c-1.89-8.1-3.7-15.18-8.87-21.8 2.28-1 3.7-.6 5.23-.9z"/><path fill="#c14456" d="M487.04 508.58c-11.06-7.73-19.48-18.38-29.83-26.93-4.24 1.69-6.31-.33-4.54-4.57-7.67-11.51-18.64-20.56-27.2-32-5.34 18.99-7.56 11.79-26.2 18.36-6.88 2.43-14.6 4.66-18.04 10.87-.86-5.66-4.8-11.03-6.91-16.61 10.15-12.33 31.27-12.22 33.45-17.86 2.76-7.16-1.87-13.04.73-17.4.94-1.57 4.3-4.47 6.62-2.93 8.3 5.53 15.4 12.73 21.74 20.73 15.27 19.28 31.74 36.54 51.81 51.43-1.06 6.25-2.56 11.45-1.63 16.92z"/><path fill="#bb8d63" d="M334.7 345.49c3.82-1.65 11.78 6.08 25.8-14.89l25.8-38.57c4.56-6.81 2.66-15.2-3.54-20.27 2.73-2.94 5.03-5.34 5.16-8.4s-1.53-5.81-3.86-9.82c11.96-3.9 23.94-7.82 37.9-7.44L318.88 396.53c-6.46-16.04-8.06-31.54-7.36-47.5 5.5 3.08 10.59 4.27 16.19 2.93 3.17-.76 4.01-5.19 6.98-6.47z"/><path fill="#f6b983" d="M304.55 80.74c6.58 5.28 15.88 18.64 17.17 27.04.13.87-1.72 1.68-2.99 2.05-9.72-10.47-24.28-14.65-38.82-9.48-11.77 4.19-20.53 16.03-21.96 29.94l-18.26 6.49c-1.9-17.33 5.68-34.29 17.72-44.56 13.77-11.74 30.61-15.03 47.12-11.5zM152.84 345.96l-2.28 3.18c-11.86.46-25.26-2.47-33.16-11.93-7.2-14.77-10.06-31.02-.47-49.07 6.1-11.5 19.13-23.51 35.28-26.18l-.67 19.34c-14.13 5.81-22.63 18.77-21.77 33.6a35.5 35.5 0 0 0 23.08 31.07z"/><path fill="#a16144" d="m657 223.19-4.93 1.06a569 569 0 0 1-78.93-18.06 255 255 0 0 0-5.61-17l1.4-3.06 73.75 12.73c6.46 1.11 12.1 4.47 13.93 8.41 2.56 5.52 3.61 11.36.38 15.92"/><path fill="#c14456" d="M538.32 277.27c-8.12 1.29-16.1 4.13-24.39 6.53-2.2 9.67-5.19 18.46-11.76 25.39-1.31 1.38-2.34 3.37-1.77 5.28q.42 1.37 2.19 2.43c.44 5.83 1.74 11.03 3.8 17.74-7.49-2.05-32.02-11.51-30.3-17.95 2.06-7.73 26.01-5.45 20.83-46.5 20.12-.83 35.72-10.73 54.35-15.06-2.94 9.14-8.65 15.33-12.94 22.13zm166.15 80.16a4.8 4.8 0 0 0 3.25-2.27c14.16-24.83 4.12-29.28 20-53.22 4.23-6.37 8.93-12.93 10.43-20.35 1.79-8.87-2.21-15.76-9.61-18.65.74-3.2-.03-6.61-.03-9.84-1.12-2.97-1.51-5.24 1.46-2.91 9.3 6.75 17.32 15.17 25.38 24.17-11.73 29.7-15.78 20.38-24.13 55.68-4.01 16.96-10.21 33.51-22.95 46.4-.59-6.01.8-14.83-3.82-19.01z"/><path fill="#7a4a34" d="m793.9 481.85 1.84 2.72-7.86 15.71 39.7-1.43 2.17 2.77c.8 7.72-3.03 13.85-10.83 17.82-10.46 2.87-21.87 2.73-33.23 3.77l-34.08 3.14c11.01-17.55 20.24-26.48 30.34-44.04 3.23-2.26 8.71-.21 11.94-.44zM568.94 186.13c3.65 4.91 4.39 11.23 5.77 18.09 27.69 6.53 54.86 14.27 82.3 18.97a17 17 0 0 1-18.61 11.05l-68.26-11.42c-2.15-12.43-9.73-23.12-9.95-35.47-.08-4.29 6.37-1.63 8.77-1.22z"/><path fill="#dd4d62" d="m674.25 371.73-10.2 7.3c-11.8-3.9-22.52-9.32-33.54-15.12-38.67-20.31-57.35-16.17-99.25-23.84 4.1-4.63 5.64-9.41 4.41-14.48.65 2.58 3.92 3.55 6.57 4 19.15 3.15 37.73 5 56.33 10.78 22.47 6.97 42.67 17.43 63.67 27.6 4.14 2.01 7.96 3.93 12.01 3.77z"/><path fill="#bb8d63" d="M282.38 360.91c8.91-19.24 7.16-22.32 2.84-42.45 5.91-6 13.13-9.89 19.3-15.42 1.44-1.28 2.77-1.68 4.46-1.04 4.91 1.9-.86 7.59-3.99 20.34-6.03 24.52-3.95 48.59 2.7 74.06-12.25-9.36-19.07-21.91-25.31-35.49"/><path fill="#fd5870" d="M555.51 211.26c1.6 4.16-10.78 7.16-12.64 3.24-1.3.13-2.69-.14-3.23-1.27-8.24-17.31-11.93-24.68-24.97-1.38a50 50 0 0 0-21.17 3.63l-3.53-1.3q-1.84 2.25-2.86-4.16c-.08-2.42-1.18-4.93-.74-7.72 13.03-9.1 26.99-14.74 41.89-19.51 7.23-2.31 13.47-6.86 21.68-5.34a54.4 54.4 0 0 0 4.5 28.28c.84 1.87.34 4.23 1.07 5.52z"/><path fill="#c14455" d="M555.51 211.26c2.82 4.93 5.12 10.15 4.29 15.83-1.73 11.81-57.49 24.91-68.77 24.38-5.07-7.3-3.6-14.44-3.67-21.37 1.56-3.9 3.01-4.02 5.2-.44q3.8-1.7 7.8 3.2 10.88 8.55 22.88-3.3l11.49-2.83a53 53 0 0 1 8.14-12.24l12.64-3.24z"/><path fill="#c14456" d="M701.22 248.19c-5.01-4.07-12.27-5.46-19.37-6.86-3.6 8.56-23.47 27.13-31.87 24.66-1-5.52-5.6-10.66-8.81-15.77 14.54-1.45 25.41-10.69 28.8-25.28 14.25 2.02 27.18 6.45 40.2 12.3l-8.95 10.96z"/><path fill="#c14355" d="M348.3 521.51c2.52 1.53 4.52 4.28 3.83 7.43-.28 3.75-12.1 40.31-16.2 35.55-.54-.64-1.48-1.84-1.24-2.92 4.88-21.28-2.27-43.36-20.99-55.22l-5.34-22.14 16.26.06c-2.42 7.58-4.09 14.1-1.8 21.3 2.44 7.68 8.87 12.7 17.11 11.37 4.73-.76 6.29 1.94 8.37 4.57"/><path fill="#f5b983" d="M340.98 263.06c-1.99 1.33-2.73 3.16-3.82 3.63-1.18.51-5.03.45-4.93-1.3.32-5.49 3.52-10.44 5.53-16.43 15.29.2 27.29-7.43 35.36-20.47 13.35-.52 25.94 2.2 38.63 7.96-24.82 4.9-49.13 12.07-70.79 26.6z"/><path fill="#bb8d64" d="m152.84 345.96 16.8 1.61c4.73 4.16 6.97 11.22 10.77 15.96-26.33 8.94-52.04-3.8-63.01-26.3 11.32 5.43 23.04 10.9 35.44 8.74z"/><path fill="#fd5870" d="M468.89 193.3q7.43 10.2 1.73 24.67l-1.33 17.72-3.15 2.7c-2.11-.42-5.05-1.37-7.04.64l-6.36 6.49c-1.45 2.58-2.28 1.3-2.84-1.33-.63-9.3 2.03-19.29-1.28-28.66-2.4-6.78-1.76-11.17 4.27-15.91 3.74-2.94 10.6-10.1 15.98-6.32z"/><path fill="#bb8d63" d="M318.73 109.84c2.05-6.38-13.57-23.45-14.18-29.1 22.38 4.8 39.9 24.5 40.63 48.32-6.88-1.81-13.38-1.77-18.69-4.47-2.17-4.54-5.2-10.63-7.77-14.75z"/><path fill="#c14455" d="m477.13 292.86-2.46-2.17 1.03-10.82q-2.25-5.72-.99-9.73c7.19-11.35.63-23.78-8.55-31.75 1.18-10.33.54-20.66 3.8-31.39 1.44-4.74.91-9.94-1.06-13.71 14.52 10.18 5.77 40.91 9.02 50.48l8.6 25.39c2.85 8.37 3.34 18.33-1.76 26.01-1.87 2.06-5.7-1.84-7.62-2.33z"/><path fill="#a16144" d="m829.75 501.63-46.7 1.9 10.84-21.66c10.36-.76 20.13-1.6 29 2.47 6.62 3.04 7.54 11.11 6.86 17.29"/><path fill="#fd5870" d="M582.88 259.83c-6.38 16.16-15.91 29.5-24.42 43.84-6.29-3-11.89-5.84-16.63-10.03 3.5-8.5 8.54-14.98 12.48-22.18a38.4 38.4 0 0 1 15.1-8.33q12.9-9.5 13.49-3.3z"/><path fill="#7a4a34" d="M828.53 426.88q-1.92 3.13-6.38 3.92l-5.99 16.94 16.57 2.18 1.66 3.06c-2.01 5.06-3.51 10.23-7.7 15.09-10.43-3.96-20.9-4.15-33.24-3.42 7.66-12.84 13.78-24.31 17.1-38.22l15.16-.66c1.34-.06 3.05.01 2.84 1.11z"/><path fill="#7a4934" d="m204.3 142.56-1.42.06c1.44-2.57.67-7.3 2.81-9.74q-.42-3 3.53-5.05-2.1-3.7-.74-6.33c.86 3.7 12.53-16.38 9.06-15.34 1.13-2.7 2.64-6.05 5.11-7.48 3.54 2.23 6.09-1.87 8.77-4.47-.96 3.22 4.89 4.64 5.04 7.17.28 4.41-3.25 9.01-5.01 12.33-2.99-2.2-6.14-3.05-8.48-1.86-1.52.76-2.72 2.83-2.2 5.33 1.07 4.95 8.44 5.01 9.02 8 .43 2.15.22 4.24-.78 5.85-2.79-1.28-5.76-1.12-7.04.5-3.55 4.52 2.95 10.06 2.14 13.13-.26.99-6.65 5.99-8.62 4.83-1.85-1.09-2.67-6.67-6.5-7.57a7.5 7.5 0 0 0-4.7.66z"/><path fill="#c04355" d="M318.3 448.86q1.53 6.12 7.22 6.71c8.91 3.69 17.3 2.04 22.9-5.5 1.51-2.04 5.63.38 7.28-.33 3.02-1.88 3.43-.97 1.43 1.86-7.58 5.93-16.58 8.41-26.21 12.17-7.22 2.81-17.36 7.99-24.87 2.81-4.2-7.68-4.37-18.74-6.9-27.32 5.77.58 10.3-.32 14.63 1.61 2.35 1.06 3.84 5.83 4.51 7.99"/><path fill="#bb8d63" d="M311.35 278.64c-7.49 16.86-14.86 17.42-28.53 28.99-10.47-5.27 7.96-36.21 12.81-40.49a84 84 0 0 0 15.2 8.09z"/><path fill="#c04355" d="M582.88 259.83c.03-1.06-1.2-.78-1.98-.23a74 74 0 0 1-26.6 11.86l15.81-31.18 21.69 2.18c-2.82 6.86-5 12.69-8.93 17.39z"/><path fill="#f5b983" d="m311.35 278.65-13.52-6.45a3.97 3.97 0 0 1-2.2-5.06c5.52-7.22 11-14.82 18.96-18.82 3.36-1.66 8.64 1.23 11.97 1.65-2.71 11.32-7.77 20.82-15.21 28.67m-146.18 58.43c-8.72 1.66-16.09-2.71-20.49-8.57-4.84-6.46-7.21-15.74-3.41-23.14 1.64-3.2 11.91-3.54 13.07-.24 3.77 10.72 5.68 21.25 10.83 31.95"/><path fill="#a16044" d="M828.53 426.88c4.03-.4 6.86 1.77 8.99 4.99 2.13 3.21 2.56 6.84.94 10.88l-4.07 10.22-22.23-2.49 8.1-22.95c3.26-.63 5.77-.4 8.27-.66z"/><path fill="#7a4933" d="M349.98 295.63c.95 2.84 2.11 8.39-1.73 9.41-2.63.7-5.37-.25-6.8 1.79-2.66 3.79 1.27 7.19-1.69 10.49-1.04 1.17-5.43-.65-7.38 2.9-1.69 3.05 2.98 9.34-3.87 10.3-2.27.3-4.52.9-5.15 2.22-2.35 4.99 3.68 8.45 0 10.3-.95.49-3.34.33-3.91-1.31-5.44-15.89 15.06-38.17 23.71-49.01 3.3-3.46 8.7-1.95 6.83 2.91z"/><path fill="#f5b883" d="M284.67 124.65c-4.78.71-10.8-5.8-8.3-10 3.97-6.7 14.35-7.82 21.4-6.44 7.5 1.44 14.24 6.34 17.17 15.31-10.18.09-19-.56-30.27 1.13"/><path fill="#b98c63" d="m240.38 392.86 3.16 1.2q-.22 7.13 17.31 4.7c2.07.15 2.34 1.87 1.99 3.95-32.77.92-20.13-.24-38.63-11.18-13.4-7.93-23.12-18.96-32.44-30.24q.39-.35.55-.85c12.78 11.12 27.5 19.16 44.47 24.35 1.38 2.82 2.62 5.52 3.6 8.08z"/><path fill="#ba8c63" d="m260.78 275.93-13.23-2.34 30.39-45.03a29.5 29.5 0 0 0 6.31 10.34c-12.3 9.37-20.86 21.19-23.47 37.03"/><path fill="#f4b883" d="M284.3 399.06c3.53 2.41 2.13 8.71-2.7 7.82-5.75-2.62-12.68-3.28-18.78-4.17-4.33-3.78-16.91 1.72-21.28-3.57-1.29-1.56-.39-4.24-1.18-6.28 17.16-1.9 28.27-4.12 43.92 6.2z"/><path fill="#fd5870" d="m391.25 424.04-2.26 2.88a65 65 0 0 0-18.54 5.08l-3.23-1.87c-1.2-3.99-3.03-7.38-5.59-11.95 7.46-5.43 15.75-10.2 25.72-9.77 2.02 5.29 2.63 10.73 3.91 15.63z"/><path fill="#c04355" d="M350.28 493.1c-6.29-5.02-11.35-10.12-19.02-10.85l28.49-13.45c4.03 6.35 4 13.41 2.57 20.58-3.86.14-7.84 2.2-12.03 3.72z"/><path fill="#b98c63" d="M430.16 414.31q1.43 5.44-1.62 2.69c-5.85-3.82-10.67-8.32-16.62-11.52-5-2.68-10.78-.77-15.37-5.14 23.74-2 12.6-11.97 30.3-10.24 1.54 8.68 2.32 16.31 3.3 24.18z"/><path fill="#c04355" d="M594.37 304.29q-5.3-.5-8.1 4.94l-3.6.36c-2.21-1.6-6.63-1.17-7.67-4.83 11.34-13.9 11.14-21.59 20.43-34.44l6.02 10.74c-6.5 6.67-8.44 15-7.08 23.24z"/><path fill="#fa576f" d="M594.37 304.29c9.78 7.02 23.27 3.08 31.71-5.22q1.04-.75.6.57c-3.04 7.72-9.67 15.1-18.64 16.82-8.97 1.71-18.47-1.86-25.38-6.87 2.52-4.42 6.27-7.92 9.71-12.16.76 3.13-.09 5.36 2 6.86"/><path fill="#a06043" d="M349.98 295.63c-1.3-1.76-4.86-2.46-6.83-2.92 7.63-9.55 13.64-20.54 22.18-30.14 2.89-3.24 8.56-3.43 11.8-1.93-2.18 1.48-3.98 1.85-4.95 3.55-.62 1.07.4 3.84-.53 4.75-1.46 1.45-4.5.82-5.44 2.39-1.1 1.8-.82 3.97-.16 6.13 1.73 5.66-6.75 2.41-8.66 7.83-.53 1.48 1.77 4.77.86 6.28-1.5 2.52-6.73 1.09-8.27 4.06"/><path fill="#b98c62" d="M299.8 247.08c-11.95 10.9-19.5 24.65-27.68 39.92-8.24-12.81 16.61-49.74 27.67-39.93"/><path fill="#fd5870" d="M477.13 292.86c-4.24-1.07-12.63-1.47-17.34-.8a41 41 0 0 1-.6-16.37c5.91.41 12.41-.65 15.51-5.55 5.5 5.89 4.1 15.13 2.42 22.72z"/><path fill="#fa576f" d="M638.11 265.26c1.77 4.91 1.9 9.36-.63 15.03-3.09 6.9-4.34 15.6-10.78 19.35-.52.29-.7-.08-.6-.57 1.02-5.27 1.72-10.73-.6-16.71 5.87-6.27 4.98-14.07.54-20.44 4.1-4.25 9.06-.59 12.07 3.34"/><path fill="#be4354" d="M638.11 265.26c-3.91-1.49-8.03-2.29-12.07-3.34-6.1-5.67-13.98-7.57-22.78-6.16l3.58-9.56c13.47.15 26.74 6.47 31.29 19.06z"/><path fill="#c14355" d="M391.25 424.04c.78 2.14 3.63 3.66 3.68 7.01-11.48 1.57-20.43 7.16-30.45 14.12 1.05-6.16 3.34-10.26 2.74-15.06 7.91-2.77 15.53-6.31 24.03-6.07"/><path fill="#9f5f43" d="M332.03 277.1c4.2 5.22 2.39 11.99-2.11 16.2-3.59 3.36-11.4 5.75-15.06.32 2.05-4.29 11.17-23.96 17.17-16.52"/><path fill="#b88b62" d="M281.62 406.9c1.9-2.2 1.33-5.37 2.69-7.83 6.9 4.56 16.57 7.41 21.28 15.49.03 3.17-4.67 7.94-7.74 8.11-4.57-6.36-9.5-12.7-16.23-15.77"/><path fill="#9d5e42" d="M808.74 318.07c-2.9 5.9-10.18-9.64-10.65-12.55 2.75.41 16.06-10.87 17.32-1.99.67 4.77.61 7.56-4.49 8.94-2.03.55-1.24 3.67-2.2 5.62z"/><path fill="#bcbcbc" d="M361.08 311.2c-6 8.53-9.65 20.31-21.12 25.37-1.28-6.88 5.7-9.66 7.9-14.2 2.69-5.57 5.3-10.04 10.73-12.58 2.07-2.03 3.16-1.42 2.49 1.4z"/><path fill="#784833" d="M98.7 284.52c.38-1.15 1.01-2.29.8-3.82-.13-.94-1.73-1.28-2.45-2.11l1.73-2.62q3.65.26 6.02-4.14c2-.68 4.02-2.83 5.14-4.58 1.48 1.2 5.75 2.88 5.61 5.27-3.28 4.75-5.74 9.71-9.35 14.07-1.69 2.04-5.62-1.99-7.5-2.07"/><path fill="#f6f6f6" d="M361.07 311.2q-1.2-.77-2.48-1.4c.93-4.66 3.18-7.78 6.53-10.48 2.61-2.12 2.37-6.06 4.31-8.46 2.9-3.57 5.83-6.44 7.23-11.43 9.53 2.1-15.11 31.12-15.59 31.77"/><path fill="#774832" d="M133.03 247.35c3.82-2.76 8.58-4.03 9.92-8.83-.88 2.28-1.31 4.97 1.16 6.7 4.13 2.88 9.08.88 10.07 2.61 2.3 4.03-10.64 6.72-13.47 5.57-3.2-1.28-4.31-5.94-7.7-6.07z"/><path fill="#784833" d="m151.77 216.08 5.6-11.35c2.97 1.34 6.13 1.75 9.04 4.22-1.36 2.9-1.71 8.38-5.13 9.58s-6.7-2.28-9.51-2.46"/><path fill="#b78a61" d="m284.1 385.94-20.1-4.88c4.66-3.06 7.35-6.15 11.86-10.59 2.83 5.54 5.83 9.14 8.25 15.47"/><path fill="#794833" d="M144.54 236.7c-.63-4.31 2.07-7.98 3.13-12.07 2.64 1.89 5.9 2.57 9.56 4.24 2.55 1.17.57 4.78-.05 6.36-1.73 4.43-9.62-.54-12.64 1.49z"/><path fill="#f3b341" d="M339.38 441.2c1.63 2.38-.32 4.73-1.73 5.58-5.19 3.15-11.63-3.02-12.53-7.55 4.1-2.73 10.91-2.94 14.26 1.97"/><path fill="#794933" d="M128.34 248.7c-1.93 3.5.91 6.87 2.09 10.29-.06 2.18-5.82 5.86-7.9 4.54-3.62-2.27-6.06-5.07-9.83-3.6 4.51-1.74 8.61-4.4 11.25-8.46-3.34-3.03-.2-6 3.08-2.8.35-.1 1.04.25 1.31.03"/><path fill="#ba8932" d="M409.15 551.5a4.7 4.7 0 0 1-5.86.4c-4.96-3.15-2.44-11.63 2.13-14.83 4.5 3.81 5.57 8.8 3.73 14.42"/><path fill="#f3b341" d="M701.28 267.47c.39 4.56-5 5.63-7.53 4.23-2.52-1.4-6.68-4.07-6.47-7.58 2.45-4.06 13.47-2.83 14 3.34z"/><path fill="#bb8932" d="M556.86 550.77c-.1 4.48-6.1 4.12-8.1 1.87-2.98-3.37-3.59-7.54-1.96-12.16 4.63.41 10.2 4.01 10.06 10.29"/><path fill="#ba8932" d="M495.85 526.67c-2.5 4.47-10.53 3.13-14.72-.87 3.36-5.22 9.69-7.8 14.72-4.48 1.62 1.08.67 4.15 0 5.35"/><path fill="#f8b842" d="M616.91 292.35c-1.76 4.94-8.08 6.4-12.67 4.87-.23-6.98 7.37-13.12 11.41-10.55.93.6 2.22 2.99 1.27 5.68"/><path fill="#f6b642" d="M354.39 438.73c-4.2 1.88-7.06-2.92-6.87-5.26.18-2.35.74-8.37 4.73-8.59 4.57-.23 7.3 11.53 2.14 13.83zm112.14-174.31a5.03 5.03 0 0 1-7.93-3.16c-.91-4.47.6-8.43 4.23-11.59 4.36 3.8 6.46 8.96 3.69 14.75z"/><path fill="#bc8c32" d="M497.79 499.1c5.34 1.2 12.54 7.6 8.98 12.64-.93 1.31-4.27 1.81-6.4.37-4.03-2.74-4.28-8.49-2.58-13.01"/><path fill="#f7b742" d="M619.24 272.8c-1.07 4.19-6.86 3.42-8.73 2.02-1.98-1.49-6.21-6.03-3.87-8.27 3.71-3.56 14.1.43 12.6 6.25"/><path fill="#bd8c32" d="M389.93 552.3c2.64 1.15 3.39 3.48 2.87 5.3a4.9 4.9 0 0 1-4.47 3.37c-4.78.18-8.58-3.19-10.25-8.27 3.52-2.12 7.64-2.23 11.85-.4"/><path fill="#b2875f" d="M363.46 387.6c-8.44.73-13.13 5-19.94 10.83 1.1-7.3 6.53-9.93 9.27-16.33 3.49 1.61 7.21.2 10.67 5.48z"/><path fill="#734530" d="M100.01 308.43c-.36.1-.88-.13-1.18.04l-1.76-.77q.4-5.95-7.63-7.09-6.05.28-8.03-3.24c.69-3.71 5.44 1.37 12.83-5.74.87 3.36 5.84 3.51 7.69 6.17 2.11 3.04-1.5 7.7-1.9 10.61z"/><path fill="#794933" d="M178.68 174.33a69 69 0 0 1 6.93-8.46c2.24 1.28 4.37 2.83 5.94 5.55a26 26 0 0 1-6.16 7.15c-3.14-.3-5.1-2.27-6.7-4.24"/><path fill="#f9b942" d="M717.8 253.99c1.37 3.97 1.68 9-2.1 9.96-3.52.88-5.93-2.37-6.36-5.1-.36-2.37.93-5.13 2.43-7.25q2.73-2.32 6.01 2.39z"/><path fill="#f2b341" d="M332.8 503.05c-.95-4.54 1.16-9.53 5.65-5.84 2.07 1.17 4.43 4.03 3.96 6.47-.59 3.01-2.56 3.84-5.93 3.4a4.3 4.3 0 0 1-3.69-4.03"/><path fill="#f2b241" d="M360.1 500.47c-.47 3.26-.5 10.71-4.3 11.86-3.2.97-4.64-4.83-3.57-6.56 1.35-2.16 2.36-4.96 7.86-5.3z"/><path fill="#b64051" d="M370.66 560.4c-3.04 1.92-6.53 1.3-10.01.74 1.31-3.89 2.41-6.87 5.04-10.19z"/><path fill="#f0af41" d="M695.6 364.24c3.07 4.82-2.4 9.36-6.53 5.67-1.4-2.55-3.06-8-.18-9.37 3.2-1.54 5.23 2.62 6.7 3.72z"/><path fill="#bc8a32" d="M525.27 327.07c.93 3.24-.1 4.89-2.98 5.37-4.47.76-7.16-3-7.69-6.74.53-4.91 8.23-1.29 10.67 1.37"/><path fill="#f0af41" d="m525.27 327.07-10.67-1.37c-.96-1.23-2.07-4.5-.96-4.84 4.86-1.44 10.33 1.64 11.64 6.2z"/><path fill="#b68532" d="M689.08 369.91c2.74-1.17 6.2-2.37 6.53-5.67 2.08 1.55 3.65 4.86 2.51 7.5-.6 1.4-2.7 2.47-5.24 1.9-1.49-.34-3-1.87-3.81-3.73z"/><path fill="#aa6905" d="M365.7 398.6c-2.95 4.84-6.94 5.83-11.12 4.94 1.31-4.44 6.55-6.83 11.11-4.94"/><path fill="#e78e03" d="M437.45 309.79c-4.1-3.05-3.95-7.8-1.76-11.46 3.44 2.69 3.9 7.3 1.76 11.46"/><path fill="#eb5268" d="M325.5 455.57c-1.8.63-4.82 2.34-6.34.4-1.51-1.95-.97-4.79-.88-7.12a67 67 0 0 1 7.23 6.72"/><path fill="#b48132" d="M338.45 497.21c-2.37 1.59-5.77 2.57-5.66 5.84-1.14-2.84-2.24-7.94.26-9.33 2.78-1.54 3.98 2.69 5.4 3.49"/><path fill="#e68e06" d="M441.03 331.69c-2.8.68-3.64-7.48-.51-7.89 2.46-.31 3.64 7.12.51 7.89"/><path fill="#f3556c" d="M352.13 528.94c-2.24-1.39-5.8-4.95-3.83-7.43 1.33 1.68 5.83-.42 5.42 2.25-.3 1.85-.82 3.63-1.57 5.18z"/><path fill="#ee9304" d="M385.82 389.63c1.3 2.25-6.84 5.18-7.69 1.95-.48-1.88 5.65-4.84 7.69-1.95"/><path fill="#e48d06" d="M429.45 372.14c-2 3.1-6.1 4.23-9.5 2.66 2.38-2.97 5.24-4.1 9.5-2.66"/><path fill="#d48307" d="M443.2 353.43c-2.57-2.1-3.51-5.69-1.51-9.4 3 2.01 3.2 5.47 1.51 9.4"/><path fill="#ec9105" d="M406.36 382.4c-2.16 2.73-5.17 3.98-8.61 3.04 1.28-3.33 5.38-5.06 8.61-3.04"/><path fill="#de8905" d="M443.79 364.71c1.38 1.56-1.6 3.03-3.06 2.76-1.69-.3-3.66-1.51-3.1-4.36 1.67-.17 4.3-.48 6.16 1.6"/><path fill="#c17700" d="M432.97 287.46c-3.22-1.37-3.55-4.8-1.72-7.69 2.6 2.13 3.32 4.66 1.72 7.69"/><path fill="#b17e31" d="M717.8 253.99a14 14 0 0 1-6.02-2.39c.8-1.35 1.07-2.07 2.69-3.08 2.1 1.55 2.68 3.58 3.32 5.47"/><path fill="#b06d05" d="M344.58 408.47c1.95.74-2.15 4.46-5.3 3.86-.5-.1-.97-.68-.79-1.25.56-1.65 3.92-3.44 6.09-2.61"/><path fill="#8c582c" d="M685.8 382.64c-3.1 1.03-4.49-.63-7.29-1.93 2.41-1.48 5.91-1.24 7.29 1.93"/><path fill="#2b2b2b" d="M519.93 568.02c-3.09.9-6.14 1.05-10.09-.03 2.59-1.41 5.4-1.34 10.09.03"/><path fill="#4c4c4c" d="M569.97 567.16q-1.85-.6 0-1.42c3.34.18 6.79-.76 10.13.72-3.83 1.59-7.04.29-10.13.7"/><path fill="#000" d="M364.23 572.3c-2.58.95-5.23 1.02-8.65 0 2.05-1.46 4.44-1.33 8.65 0"/><path fill="#852f3b" d="m357.12 451.6-1.43-1.86c2.19-.94 2.9-3.66 5.89-2.24-1.3 1.93-2.9 3-4.46 4.11z"/><path fill="#7a2b36" d="M729.97 250.19c-1.48-.29-1.46 1.91-1.46 2.91-1.59-1.33-1.3-3.75-2.96-5.64 3.43-1.62 3.16 1.81 4.42 2.73"/><path fill="#b53f50" d="M452.76 245.53c-1.19 1.22-.79 3.23-2.19 4.57-1.17-2.38-.56-4.23-.67-5.91l2.84 1.33z"/><path fill="#1e1e1e" d="M624.25 564.3v1.44c-2.37-.36-4.94.88-7.24-.8 2.8-1.12 5.16-.76 7.24-.63"/><path fill="#1d1d1d" d="M569.97 565.74v1.43c-2.37-.36-4.94.88-7.24-.8 2.8-1.12 5.15-.76 7.24-.63"/><path fill="#644c36" d="M428.55 417c1.4 0 1.45-1.63 1.6-2.69.25 1.96 2.78 3.26.77 5.82a5.6 5.6 0 0 1-2.37-3.12z"/><path fill="#000" d="M411.37 570.84c-2.04 1.01-4.31 1.01-7.21.05 1.53-1.5 3.47-1.32 7.21-.05"/><path fill="#a16144" d="M798.08 256.93c-3.2-.06-16.93 6.36-13.96 9.6 1.09 1.19 3.81.03 5.07-.66q5-5.2 10.3-5.51c1.69 1.54 4.46.48 6.72 1.83 1.35.8 2.87 4.63 1.72 5.84-11.37 12.06-11.88 3.64-18.12 11.77-1.82 2.37-1.53 5.29.97 7.27 4.91 3.89 14.67-7.48 15.23-7.78 5.3-2.8 6.92 3.84 6.81 8.31-.24 9-14.07 2.44-18 10.77-6.64-4.23-6.93-13.04-11.07-17.5-5.09-5.47-13.37-8.73-11.89-18.34-9.75-.14-15.01-7.01-18.07-14.89l-8.11-3.34c6.91 2.86-32.2-20.14-31.59-20.23-15.78 2.13-14.41-8.04-18.3-8.94-3.88-.9-7.35 5.5-18.5-2.69.5-2.2 2.15-5.84.53-7.94-1.03-1.33-3.83-2.14-6.21-1.27-1.33.49-2.41 1.83-4.2 3.83-4.69-10.93-13.6-16.31-24.7-18.21l-54.03-9.23c4.32-3.93 4.78-8.87 5.3-13.9.36-3.39-2.24-5.07-4.7-5.16-6.14-.23-7.67 12.96-6.73 17.6-4.82-.81-9.45-.36-13.57-2.93-1.44-3.66 5.63-10.45-.85-14.05-1.97-1.1-4.8-.43-6.4 2.12s-1.53 5.25-3.43 7.65c-3.79-2.52-7.83-3.45-11.94-4.83 2.11-2.97 2.42-6.94.57-8.25-3-2.1-5.82-1.07-8.19.98-2.87 2.47-2.67 7.98-4.88 10.54-8.08 4.81-17.49 6.44-26.37 10.29.15-2.75.14-5.96-1.32-7.92-.86-1.14-3.27-1.91-5.24-.87-5.39 2.84-4.42 9.64-6.7 14.07s-9.39 3.37-14.04 3.47c1.73-6.08 8.85-17.54 2.34-20.28-7.31-3.09-8.96 9.85-10.81 14.92-11-2.01-19.25 2.98-26.78 9.96-1.6-3.25 7.83-11.51.73-14.93s-7.74 8.4-10.87 6.06c-3.45-2.57-7.45-4.38-10.08-7.67-1.56-1.94 1.61-5.04 2.25-6.84 1.35-3.8.32-7.35-3.4-8-6.5-1.16-6.45 9.57-10.21 7.57-3.4-1.82-7.63-3.79-10.11-6.92-2.49-3.12 8.11-12.31 1.05-15.92-2.98-1.53-6.07-.33-7.74 3.11-.76 1.59-1.86 5.5-3.8 5.6-3.88-.23-8.51-3.31-10.57-6.44-.76-3.06 9.74-9.97 3.27-14.62-5.56-3.98-9.8 5.93-12.9 8.49l-13.84-8.57c2.88-3.52 7.86-5.46 8.98-9.9.85-3.33-2.48-6.03-5.35-5.52-2.2.39-3.95 1.86-7.12 4.65l-3.7-13c2.12-2.55 4.53-3.93 6.66-6.22 2.37-2.54 2.54-6.15-.11-8.27-5.76-4.58-10 8.34-14 .9-.68-1.26-1.68-3.97-.29-5.64 3.2-3.89 2.1-7.8 2.84-11.89.79-4.3 4.29-8.01 5.35-12.38.71-2.94-.89-5.02-3.4-5.27q.49-1.76-2.76 0c-6.07 2.54-7.73 10.38-6.19 16.82l-4.87 6.95c-3.18-2.79-7.18-4.19-9.78-7.39-1.82-2.23 5.75-12.55-1.7-14.45-8.56-2.18-5.13 11.04-12.3 9.2-8.22-2.12-1.53-10.06-5.4-13.19-1.73-1.4-4.07-1.39-5.99-.69-4.28 1.59-2.2 9.63-3.68 10.58.63-.4-11.12 2.84-12.15-1.5-.75-3.18-1.45-6.08-4.43-6.42-2.32-.27-5.65.4-5.67 3.4l-.04 7.54c-4.13.75-8.2 4.69-12.08 3.57-1.79-1.52-2.96-5.22-5.35-5.37-2.54-.14-5.11.76-5.57 3.45-.33 1.92 0 4.2.77 6.1-1.57 7.51-9.9 9.8-17.15 10.04-1.95 1.04-1.48 2.87-2.76 4.11 2.59 5.29-7.51 11.75-8.77 4.47l-3.26.59c-12.67-14.84-15.38-4.79-1.64 3.59l-.2 3.32c2.54-1.88 2.74-1.14 3.3 1.5.43 2.08-8.33 20.38-12.36 13.85l-3.01.8c-12.37-13.09-6.87 2.75 1.1 7.32l-.89 3.25c2.82 3.33 1.59 8.47-2.81 9.74q-.01 12.02-7.37 15.71l-2.36-.84c-2.03.46-5.72-1.54-7.6 1.36-1.13 1.73-.17 4.86.07 7.04 2.1 3.6-2.96 9.93-6.93 8.46-1.97.56-5.96-1.17-7.75 1.78-1.05 1.7-.45 4.68.5 7 3.21 6.23-4.69 13.67-11.58 12.46-2.15.73-3.91 1.71-4.07 3.9a7 7 0 0 0 1.59 5.26c3.68 2.51-1.37 12.31-5.6 11.34-1.22.94-3.22 1.57-3.89 2.74-1.01 1.79.13 4.47-.21 5.8 3.86 2.4.24 9.89-3.13 12.07-.33.66-1.39 1.1-1.59 1.83-1.01 6.6-2.7 11.09-9.92 8.83-1.2.87-3.49.23-4.69 1.36-.36 1.13-.8 1.08-1.31-.03l-5.56-4.8c-17.26-6.06-12.29 4.26 1.26 4.46l1.21 3.12c2.91 7.35-5.66 8.06-11.26 8.46-3.17 1.23-2.75 4.34-2.74 7.33 2.7 4.03-1.58 7.86-5.14 4.58l-3.17.7c-8.27-8.3-18.27-4.52-4.1 2.62l-.47 3.44c6.21.66 7.88 5.43 1.64 5.93-3.12.97-4.7 3.93-4.47 7.13q2.42 6.42-11.02 4.88l-1.81.86c1.03 2.32.23 2.94-1.81 1.42-1.25 3.71-1.9 3.34-2.59-.36-7.31-1.73-12.84-1.49-20.13.13-2.14 5.05-19.03-.57-15.3-5.96q-.2-2.68 2.17-4.64-1.06-4.38-9.78-2.4l-2.53-2.5c-5.61 5.07-10.77-8.4-12-13.83-.39-1.72-.73-3.37.76-4.67 2.81-3.56-8.37-14.74-.77-19.17 2.65-1.55 5.24-2.1 5.58-4.9.42-3.32-1.94-3.76-5.1-5.63-2.64-1.57-1.56-8.86.67-10.97 2.86-2.7 4.85-4.76 2.4-8.62-2.07-3.27-1.54-9.42 2.37-11.17 2.38-1.04 4.63-1.27 5.43-3.54.95-2.69-1.77-4.33-3.51-6.34-2.86-3.32 2.1-7.3 3.4-10.53 1.7-4.2-.23-10.56 4.3-13.22 2.33-1.37 6.01-.4 7.17-3.14 1.31-3.1-.52-4.61-2.23-7.3-2.4-3.74 2.49-8 6.5-8.24 7.81-.47-3.67-14.24 5.59-15.06 2.51-.21 4.71.56 5.91-1.17 3.3-4.77-2.14-7.18.01-11.14 2.38-4.34 5.88-.72 8.85-4.07 2.05-2.32-1.59-14.37 6.73-14.17 2.47.05 4.05.64 5.52-.67 4.48-4.02-1.02-6.53 2.03-10.82 3.06-4.28 7.72 2.1 11.09-1.94 1.68-2.02.63-4.07-.05-6.7-2.21-8.74 12.58-4.52 12.69-10.83.07-4.37 3.91-8.91 8.49-7.23 2.51.93 4.44 1.39 6.55-.11 1.95-1.37.6-4.09.9-7.06.27-2.63 5.73-6.51 8.22-5.57 2.97 1.11 4.64 2.79 7.25 1.64 2.62-1.14 2.16-3.83 2.45-7.24.25-3.13 7.53-7.56 10.21-5.97 3.01 1.8 4.56 4.91 8.31 3.03 3.35-1.67 1.49-4.9 2-8.32.43-2.88 7.45-5.53 10.29-4.84s4.24 3.19 6.9 2.51c2.91-.74 3-2.61 3.99-6.21.72-2.63 7.4-4.99 9.45-3.11 2.66 2.4 3.86 4.37 6.05 4.02 4.64-.71 3.65-4.45 4.82-7.68.83-2.3 7.42-3.46 9.42-1.93 1.61 1.24 2.91 3.22 4.85 3.13 2.65-.12 3.6-1.63 4.88-4.56 1.41-3.28 7.74-3.95 10.1-1.4 1.9 2.04 2.78 3.36 4.98 3.33 2.93-.04 3.8-1.93 5.39-4.84 1.41-2.6 9.32-3.47 10.81-.96 1.87 3.16 1.9 5.82 5.36 5.87 4.1.07 4.08-2.44 5.83-5.97 1.32-2.7 9.35-2.23 11.22.13 1.36 1.7 1.69 3.89 3.15 4.21 7.3 1.69 5.25-5.22 11.18-4.45 2.15.27 5.85-.59 6.1 2.84.22 2.91.19 5.88 2.67 6.7 2.49.81 5.89.57 6.76-2.87.49-1.92.93-3.93 2.94-3.94 8.7-.03.62 6.98 7.83 9.6 4.22 1.55 5.07-2.46 7.46-5.15 1.9-2.14 9.2.4 10.66 2.94 1.1 1.95 1.34 4.7 3.3 5.25 6.07 1.7 3.78-4.36 12.67-1.59 5.2 1.62.54 9.57 6.97 10.27 5.75.63 3.28-6.38 10.4-3.1 5.08 2.35-.46 6.8 4.4 9.63 6.14 3.59 4.77-5.04 11.61-1.53 3.59 1.85-.33 6.99 4.06 9.1 4.38 2.12 6.18-3.23 9.61-1.14 5.23 3.2-3.97 9.47.99 13.26 2.8 2.13 6.28 1.34 8.1-1.72.7-1.17 1.38-2.24 2.33-2.6 1.44-.54 2.58 1.16 3.85 1.86 8.36 4.53-1.94 10.58 4.65 14.56 3.17 1.91 5.27-1.09 7.72-2.65s8.12 4.47 7.49 7.3c-.79 3.47-.7 6.39 2.13 7.99 2.64 1.5 4.23-1.49 7.14-2.26s9.44 3.04 10.76 5.9c1.23 2.67.65 5.27 3.11 6s3.93-.33 6.34-1.77c2.62-1.56 8.09.64 8.2 4.03.12 3.2.62 5.11 2.68 6.13 3.02 1.48 4.52-1.02 6.91-2.8 3.94-2.95 8.96 1.87 10.76 5.43 2.24 4.42 13.4-5.35 16.87 2.94 1.15 2.75 1.71 4.61 4.14 5.18 2.94.7 4.06-1.28 6.33-3.61 1.78-1.83 7.83-.41 9.47 1.49 1.4 1.62 1.27 3.6 2.37 4.35 6.22 4.19 6.92-4.07 11.66-3.55 11.91 1.3 3.4 7.5 11.57 8.37 3.31.35 3.6-2.23 5.4-5.3 1.47-2.5 8.81-2.05 10.71.07 1.69 1.87 1.75 4.13 3.89 4.33 7 .64 3.75-5.62 9.8-5.4 1.77.07 2.01 1.75 2.15 4 .23 3.42 2.25 4.91 5.05 4.77 7.84-.4.43-8.26 10.3-8.29 8.75-.03.21 7.57 11.03 8.02 3.04.13 2.57-2.99 3.98-5.9 1.26-2.59 8.94-2.03 11 .04 2.33 2.31 4.14 6.39 8.07 3.5 1.97-1.44 3.23-3.77 5.59-3.49 10.87 1.35 4.83 5.85 10.25 6.58 5.43.72 4.59-4.23 9.76-3.8 4.29.38 1 6.88 5.97 8.15 6.37 1.63 4.76-5.75 9.42-4.74 5.34 1.16 1.11 6.03 4.95 7.73 6.48 2.87 6.2-3.94 10.53-3 7.12 1.54-2.71 9.85 5.39 12.55 3.64 1.22 5.17-1.8 7.38-5.28 1.6-2.52 8.39 1.23 8.12 3.8-.36 3.36-1.92 5.83 1.13 7.87 5.52 3.71 7.35-5.24 11.67-2.94 4.64 2.47-2.63 8.1 3.21 11.1 7.23 3.7 3.32-6.55 12.37-.76 4.6 2.94-2.75 9.33 3.25 12.1 5.2 2.4 5.77-5.01 10.3-.12 4.18 4.55-5.02 6.9 1.6 12.52 2.14 1.81 4.84-1.02 7.08-1.39 4.33 1.28 6.36 6.62 9.59 9.79-.28 2.71-2.9 3.76-3.35 6.01-2.08 10.69-8.41 7.13-7.77 14.54.17 2.03 2.54 4.08 5.42 3.5 10.65-2.15 6.58-12.94 12.68-14.17.93-.18 6.03 6.2 5.97 7.7-.08 2.68-10.05 5.28-7.57 11 1.56 3.59 5.23 3.73 8.4 1.83 1.36-.81 3.89-3.67 5.36-2.3 2.01 1.87 5.24 6.55 4.07 8.92-1.27 2.57-3.46 4.07-3.13 6.44.54 4.01 3.54 3.33 7.62 4.01 2.9.49 5.38 7.49 4.65 10.3-.67 2.62-4.33 3.57-4.08 6.09z"/><path fill="#030201" d="M798.08 256.93c1.14 1.06.13 3.46 1.4 3.41-3.96 4.39-8.7 9.86-14.96 9.45-3.23-.22-3.73-3.85-3.27-6.06.29-1.4 10.62-12.53 16.84-6.8z"/><path fill="#040302" d="M348.55 61.46c-.76.36-1.96-.24-2.76 0 2.97-5.84-3.01-1.31 2.09-14.8 1.27-3.34 4.24-4.77 6.88-3.77 2.96 1.13 3.02 4.1 2.63 6.97-.83 6.1-4.07 9.3-8.83 11.62z"/><path fill="#7a4933" d="M159.85 195.57c6.39-2.15 7.5-6.15 11.58-12.45 2.5 1.38 5.57 2.1 7.22 5.11-3.03 4.1-4.5 8.33-7.97 11.29-3.7-2.43-7.16-4.05-10.83-3.95"/><path fill="#794933" d="M204.3 142.56c-3.87 4.1.02 7.89 2.25 12.63 1.26 2.69-4.5 7.17-7.1 7.9-2.71.07-4.81-3.73-6.31-5.62 5.6-2.6 6.8-9.65 9.74-14.85.43-.12 1.02.13 1.42-.06"/><path fill="#744631" d="M234.18 90.08c5.83-3.1 13.06-4.92 17.16-10.05.31.76 1.87 1.09 1.37 2.12-1.29 2.68-6.96 8.46-9.39 9.9-2.97-.66-6.18-3.09-9.14-1.96z"/><path fill="#040202" d="M137.53 234.37c-7.02.12-25.09-3.9-22.55-11.6.89-2.65 4.1-4.91 7.1-3.17 11.16 6.43 17.8 3.26 18.59 8.6.31 2.14 0 4.5-3.14 6.17"/><path fill="#020101" d="M91.36 137.26q-5.5-7.07.95-6.08c6.02-3.32 9.03 3.47 20.43 9.17 2.9 1.46 2.49 4.74 1.56 6.4-4.22 7.43-19.31-4.82-22.96-9.49z"/><path fill="#030201" d="M94.8 168c-5.97-2.15-22.67-8.37-16.64-16.18 1.08-1.42 4.32-2.29 6.51-.6 8.51 6.57 17.57 7.44 16.07 13.17-.58 2.26-3.04 4.67-5.94 3.61"/><path fill="#020101" d="M110.81 167.78c9.95 6.02 16.49 6.87 14.96 12.9-2.01 7.92-16-1.22-20.53-4.36-2.37-1.64-2.68-4.75-1.95-6.77.97-2.73 4.7-3.5 7.52-1.79z"/><path fill="#030201" d="M441.93 139.2c-7.43 7.32-6.01 14.7-12.64 14.09-9.02-.84-.5-16.54 6.34-21.8 2.43-1.87 5.57-.89 7.02.72 1.67 1.87 1.34 4.97-.7 6.98z"/><path fill="#020101" d="M137.7 136.65c3.65 2.41 14.71 10.53 12.81 14.94-3.6 8.41-14.86-3.23-19.78-7.83-1.96-1.83-1.67-4.81-.73-6.18 1.56-2.26 5.1-2.65 7.7-.95z"/><path fill="#040202" d="M156 105.56c-4.59 5.72-10.88-4.44-17.1-8.74-2.43-1.67-3.13-4.41-2.06-6.39 1.44-2.61 4.57-3.65 7.54-2.08 2.44 1.28 16.39 11.25 11.6 17.2z"/><path fill="#020101" d="M724.87 170.49c-7.99 11.76-4.26 14.98-9.97 15.13-3.1.07-5.06-1.89-4.99-5.67.2-9.13 8.09-20.46 14.23-16.16 1.61 1.14 2.24 4.49.73 6.7M336.9 38.6c-.88 8.33-1.42 18.98-7.5 18.56-7.42-.5-3.82-13.9-2.22-19.87.74-2.78 2.84-4.08 4.94-4.11 2.77-.03 5.13 1.93 4.76 5.43z"/><path fill="#050302" d="M73.17 225.33c-6.73-1.29-18.76-2.59-16.99-10 .55-2.3 3.09-3.96 6.18-3.14l13.24 3.48c3.3.87 4.46 3.47 3.88 6.22-.57 2.74-3 4.07-6.31 3.44"/><path fill="#030201" d="M101.5 235.05c-6.73-.58-19.59-.38-18.07-8.32.5-2.64 3-3.94 6.21-3.47l12.37 1.84c3.4.5 5.14 2.46 4.87 5.55a4.8 4.8 0 0 1-5.38 4.4"/><path fill="#020101" d="M142.34 118.56c-4.52 3.57-12.16-5.81-17.09-10.98-2.21-2.32-1.35-5.97 1.09-7.53 1.6-1.02 4.47-1.12 6.8 1.11 6.36 6.09 15.16 12.69 9.2 17.39z"/><path fill="#030201" d="M131.96 198.23c10.1 6.79 14.5 5.09 14.7 9.9a4.96 4.96 0 0 1-5.4 5.07c-6.85-.28-21.3-7.28-16.18-14.6 1.13-1.61 4.5-1.95 6.86-.38z"/><path fill="#020101" d="M411.88 114.35c8 3.61-6.55 23.27-12.35 21.01-2.91-1.13-3.95-5.07-2.04-7.78l6.94-9.9c2-2.86 4.47-4.68 7.45-3.33M68.84 283.77 54.7 282.2c-2.7-.3-3.9-2.77-4.01-4.55-.5-7.77 12.32-5.02 19.55-3.72 3 .54 4.46 2.67 4.3 5.28s-2.21 4.97-5.7 4.59zm92.1-210.21c1.84 1.29 14.38 14.49 8.91 18.47-2.07 1.5-5.54 1.69-7.25-.51l-8.7-11.13c-1.45-1.84-1.12-4.7-.18-6.03 1.32-1.85 4.9-2.41 7.23-.8zm566.77 145.9c-1.12 2.76-4.5 2.74-6.76 1.66-6.5-3.1 1.67-15.37 7.07-20 2.05-1.76 5.32-.53 6.43.82 3.84 4.72-3.01 8.3-6.75 17.52z"/><path fill="#040202" d="M154.64 189.29c-1.09 9.36-15.37 1.84-19.86-1.14-2.34-1.58-2.5-4.66-1.5-6.83s4.4-2.92 7.25-1.52c9.6 4.75 14.67 4.56 14.11 9.49"/><path fill="#030201" d="M751.1 218.49c-7.15 9.1-5.7 13.97-11.78 12.81-7.23-1.37-1.98-13.83 4.76-19.71a5.4 5.4 0 0 1 6.66-.2c1.9 1.43 2.27 4.67.37 7.09zm-619.16-50.26c-5.51-2.58-20.33-9.84-15.01-16.25a5.1 5.1 0 0 1 6.57-.9l9.9 6.9c2.18 1.52 3.64 3.07 3.35 5.34-.27 2.11-1.67 3.83-4.8 4.91m286.95-27.07c-1.95 2.49-5.45 2.13-7.27.74-5.28-4.03 8.57-23.32 14.9-17.87 1.37 1.19 2.52 4.27.82 6.43z"/><path fill="#040302" d="M79.34 207.95c-6.37-.39-20.71-4.95-16.91-12.07 1.01-1.9 3.96-3.13 6.61-1.93 10.06 4.54 15.25 4.43 14.8 9.61-.14 1.64-1.25 4.57-4.5 4.37z"/><path fill="#030201" d="M178.11 160.22c-3 7.07-13.44-2.94-17.47-6.52a5.7 5.7 0 0 1-1.37-6.55c3.58-7.53 14.43 4.27 18.04 7.14 1.86 1.47 1.56 4.17.8 5.94zm357.18-22.17c-3.43 9.25-1.26 13.8-6.23 14.41-2.16.26-5.43-.64-5.69-4.11-.43-5.86.23-12.32 3.53-17.12 1.54-2.24 5.37-1.21 6.7 0a6.25 6.25 0 0 1 1.67 6.82z"/><path fill="#050302" d="M50.01 211.87c-4.55.35-20.57-2.5-19.4-9.24.4-2.37 3.16-4.8 6.22-3.93l13.68 3.9c2.02.57 2.66 2.66 2.8 3.89.2 1.57-.42 5.17-3.3 5.4z"/><path fill="#030201" d="M174.81 48.14c2.12 6.94 8.93 10.98 5.32 15.67-1.08 1.38-4.37 2.67-6.45.91-5.05-4.26-13.75-17.91-5.6-20.44 3.15-.97 5.72.57 6.72 3.86z"/><path fill="#020101" d="M175.68 121.56c1.75 2.14.66 4.89-.58 5.97-5.79 5.06-11.99-4.95-15.9-10.97-1.55-2.37-1.3-5.64.78-7.13 5.79-4.12 10.13 5.27 15.7 12.12z"/><path fill="#080503" d="M555.11 137.42c.17 6.54.39 17.04-5.81 17.03-2.94 0-5.03-2.15-4.83-5.85.42-7.61-.84-17.2 6.17-16.68 2.49.19 4.39 2.21 4.47 5.49"/><path fill="#020101" d="M145.14 123c4.24-5.47 22.78 8.89 17.84 15.06-4.18 5.23-10.28-2.24-17.48-7.98-2.1-1.68-1.78-5.26-.36-7.08m233.48-64.5c-6.93 9.85-8.9 15.63-14.44 12.55-1.75-.97-2.85-3.89-1.42-6.77 2.69-5.4 7.24-16.64 14.07-12.27 1.57 1.01 3.49 4.05 1.79 6.48zm-152.15.6c2.97 9.02 8.27 15.6 1.85 18.42a4.9 4.9 0 0 1-6.17-2.37c-2.74-5-9.48-18.36-1.46-19.66 2.26-.37 4.8.66 5.78 3.62"/><path fill="#040201" d="M669.48 190.36a5.2 5.2 0 0 1-6.87 2.01c-6.81-3.38 2.96-15.31 6.16-19.15 1.64-1.97 4.86-1.4 6.33-.4 1.73 1.17 2.51 4.08 1.15 6.34z"/><path fill="#030201" d="M711.64 197.49c-4.51 5.63-2.66 13.24-8.24 13.61-2.39.16-5.13-.7-5.2-3.97-.19-8.38 4.95-20.57 11.54-17.41 2.76 1.31 4.13 5.01 1.91 7.78zm-594.21-80.46c3.32 2.28 13.4 9.93 11.52 14.16-1.18 2.66-4.31 4.2-7.02 2.46-4.79-3.07-16.08-10.56-11.99-16 1.76-2.33 4.99-2.32 7.47-.62z"/><path fill="#040202" d="M71.49 262.23c-5.08 1.06-19.52 1.14-19.48-5.79.02-2.55 1.83-4.94 5.12-4.68 8.2.63 16.76.07 17.4 4.88.23 1.76-.16 4.99-3.06 5.59z"/><path fill="#030201" d="M47.81 264.03c1.69 8.02-14.17 6.01-19.11 4.54a5.2 5.2 0 0 1-3.87-6.12c.54-2.66 3.07-4.15 6.24-3.58 9.53 1.75 15.44-1.02 16.74 5.16M184.5 129.68c6.2 7.28 12.85 10.14 8.87 15.77s-13.93-5.57-16.42-9.27c-1.55-2.3-.98-5.62.4-6.72 1.86-1.47 5.34-1.91 7.15.22"/><path fill="#040302" d="M92.33 131.18c-1.3 1.75-1.23 3.98-.96 6.08-.88-1.14-1.14-2.98-2.18-3.31-1.23-.39-3.26.21-4.63-.09-2.3-.5-16.47-7.11-12.65-13.58.9-1.53 3.55-3.3 5.83-1.96 7.73 4.54 12.65 6.47 14.59 12.86"/><path fill="#030201" d="M163.21 169.6c2.53 1.53 2.71 4.36 1.88 6.55-2.87 7.65-14.47-2.93-18.2-5.93a4.8 4.8 0 0 1-1.18-6.57c4.39-6.25 10.19 1.54 17.48 5.95z"/><path fill="#040302" d="M702.2 158.13c-1.73 5.36-5.98 17.77-12.37 15.24-2.65-1.04-3.78-4.35-2.4-7.11l5.24-10.56c1.33-2.67 3.64-4.15 5.97-3.48 2.2.64 4.48 3.04 3.56 5.9z"/><path fill="#030201" d="M392.32 70.86c-6.25 8.52-7.32 14.17-12.79 13.06-8.48-1.73.79-14.93 5.1-19.09 1.96-1.88 4.97-1.7 6.37-.68 1.95 1.41 2.95 4.51 1.32 6.73z"/><path fill="#020101" d="M664.38 136.58c7.67 1.85.45 22.68-6.37 21.57-2.58-.43-4.42-3.27-3.57-6.39l3.42-12.4c.68-2.47 4.77-3.21 6.54-2.78z"/><path fill="#030201" d="M759.34 240.66a5.34 5.34 0 0 1-6.67.22c-5.09-3.74 3.05-10.58 7.65-17.68 1.39-2.14 4.97-1.39 6.27-.37 5.89 4.61-2.88 13.93-7.25 17.83M407.52 83.33c-4.1 5.08-10.81 13.29-15.64 9.76-5.99-4.37 5.17-13.84 9.57-17.47 2.04-1.69 4.83-.3 5.87.93 1.16 1.36 1.76 4.84.2 6.78M315.9 35.68c-.24 6.26-.3 17.13-6.42 16.46-7.36-.82-4.13-11.52-3.3-17.63.41-3.07 2.58-4.36 4.54-4.46 3.39-.19 5.33 1.87 5.19 5.63m169.85 101.2c-1.06 3.05-4.01 3.61-6.16 3.02-1.71-.47-3.7-2.81-3.23-5.3 1.03-5.47 4.36-18.35 11.26-16.04 6.22 2.09.47 11.53-1.87 18.32"/><path fill="#040202" d="M207.22 62.82c3.03 7.23 9.69 12.01 4.96 15.86-2.21 1.8-5.49 1.78-7.39-.56-3.12-3.83-11.02-14.49-4.9-17.64 3-1.55 6.03-.76 7.33 2.35z"/><path fill="#030201" d="M188.08 74.86c4.73 7.93 9.63 10.4 6.3 14.72-1.31 1.7-4.4 2.81-6.61 1.03-5.39-4.33-13.75-15.03-6.48-18.36 2.32-1.06 5.18-.1 6.8 2.61"/><path fill="#040302" d="M191 113.3c-6.45 5.12-8.4-3.97-14.57-8.12-2.33-1.56-2.53-4.27-1.38-6.56 1-1.99 4.06-3.26 6.92-1.7 6.47 3.54 13.35 12.94 9.04 16.37z"/><path fill="#040202" d="M101.26 252.12c-1.03 7.21-20.5 1.75-20.96-2.89-.24-2.4.67-5.71 4.06-5.73 4.8-.01 17.93 1.43 16.91 8.62z"/><path fill="#020101" d="M397.15 105c5.35 3.7-5.8 20.93-11.94 18.9-7.66-2.52 2.12-14.9 5.78-18.52 1.83-1.82 4.8-1.32 6.16-.37z"/><path fill="#030201" d="M196.14 39.55c2.53 8.4 6.84 10.34 4.07 14.47-1.61 2.4-5.49 2.66-7.76.47-4.27-4.13-9.6-16.65-2.87-18.67 3.13-.93 5.59.57 6.54 3.73zm71.16 4.11c-1 3.09-3.2 3.52-5.16 3.58-5.64.15-5.79-10.68-6.06-17.09-.13-3.16 2.36-4.46 4.72-4.6 6.52-.4 6.1 11.13 6.5 18.1z"/><path fill="#020101" d="M288.9 48.28c-1.15 3.8-2.7 4.01-4.63.48-6.09 1.15-4.38-15.54-3.59-18.31.89-3.13 4.63-3.26 6.61-2.54 4.66 1.67 3.17 18.17 1.6 20.38z"/><path fill="#040202" d="M47.04 249.29c-6 .77-19.74 1.06-19.58-5.7.2-8.33 12.51-3.77 19.25-3.02 2.56 2.16 2.63 5.69.33 8.72m736.51-10.83c6 5.26-9.77 19.46-14.69 16.03-2.48-1.73-2.98-5.56-.71-7.73l8.71-8.33a5 5 0 0 1 6.69.03"/><path fill="#030201" d="M436.29 97.33c4.97 4.26-7.02 19.53-12.12 17.42-2.04-.84-3.72-3.42-2.68-5.99 1.83-4.5 8.93-16.48 14.8-11.44zm37.2 25.99c-5.6 7.31-5.62 12.89-10.78 11.6-2.7-.67-4.3-2.89-3.6-6.11 1.52-7.06 7.78-16.6 13.68-12.36 1.92 1.38 2.47 4.55.68 6.88z"/><path fill="#040201" d="M374.73 106.2c-1.1 2.58-3.5 3.53-5.34 3.19-2.86-.51-4.68-3.27-3.88-6.58 1.15-4.85 8.15-16.18 14.27-11.82 5.3 3.8-2.77 9.96-5.03 15.2z"/><path fill="#030201" d="M111.78 104.06c-6.67-.27-18.04-11.03-12.62-15.81s9.3 3.56 13.67 6.16c2.05 1.22 3.1 3.01 3.01 4.82-.06 1.39-.64 4.97-4.04 4.83z"/><path fill="#040302" d="M423.22 94.6c-5 4.8-9.1 10.68-13.23 8.66-2.3-1.11-3.81-4.33-2.1-6.93 3.24-4.92 11.34-14.57 16.27-8.28 1.26 1.6 1.37 4.34-.94 6.56"/><path fill="#040202" d="M630.88 135.93c-.05-.54 0 16.3-5.98 16.9-2.82.29-5.3-1.38-5.62-4.74-.5-5.22.85-15.97 7.13-15.43 1.39.12 4.2.79 4.47 3.27"/><path fill="#040201" d="M590.73 152.02c-.96 3.64-7.5 3.64-8.59.38-1.65-4.94-.65-10.35.76-15.11.9-3.04 3.74-3.74 6.29-3.26 5.12.99 3.01 12.47 1.55 17.99z"/><path fill="#040202" d="M46.07 229.37c-5.64 1.54-10.87-.8-15.23-2.96-2.75-1.37-2.63-4.5-1.81-6.71 1.91-5.1 16.03.64 18.11 1.81 2.27 1.29 2.03 7-1.07 7.86"/><path fill="#020101" d="M108.7 216.82c-6.67.98-13.25-.44-17.7-4.86-1.7-1.69-1.02-4.87-.19-6.17 2.24-3.51 10.39.04 17.19 2.39 3.03 1.04 3.1 5.65.7 8.64"/><path fill="#030201" d="M679.2 162.2c-1.1 2.39-3.6 2.75-5.5 2.43-6.93-1.14-1.76-12.17.28-17.91.89-2.47 3.6-2.99 5.26-2.84 7.6.67 2.14 13.58-.04 18.3zm-226.34-6.72q-3.64.38-4.17 3.07l-1.8-2.77c-4.31-3.85 1.84-13.72 5.97-17.29a5 5 0 0 1 6.46.06c4.77 3.95-5.47 16.05-6.46 16.93M53.93 191.13c-5.67 1.32-11.52-1.13-15.57-5.03-1.56-1.5-1.27-4.4-.45-5.87.78-1.38 3.15-3.24 5.4-2.12 9.78 4.84 13.52 3.4 13.4 8.37-.02 1.48-.45 4.11-2.8 4.67z"/><path fill="#040202" d="M636.93 164.32c-.13 4.96-1.45 15.8-7.53 15.04-6.56-.8-3.72-10.33-2.07-16.26.77-2.78 2.71-3.9 4.8-3.95 2.77-.08 4.87 1.74 4.78 5.15z"/><path fill="#040201" d="M73.2 241.49c-4.06 1.67-15.67 3.01-17.81-3.83-.46-1.44-.19-5.43 2.22-5.64 4.92-.43 10.12.14 15.12 1.21 3.48.76 3.43 7.03.46 8.24z"/><path fill="#030201" d="M449.2 123.38c-1.24 2.44-3.6 3.4-5.12 3.07-3.09-.66-4.68-3.13-3.92-6.45 1.42-6.24 6.67-16.4 12.69-12.14 1.68 1.2 2.34 3.82 1.14 6.17l-4.77 9.35zM222.65 98.66a7 7 0 0 1-.71 5.46c-.75 1.24-2.7 1.89-4.4 2.04-3.7-2.5-17.02-11.67-9.96-16.6 5.04-3.53 12 5.59 15.07 9.12zM121.53 76.94c3.4 5.15 10.82 8.5 5.97 13.98-1.12 1.26-3.82 2.04-6.16.41-4.06-2.8-12.45-11-7.7-15.48 2.62-2.47 6.04-1.7 7.89 1.09"/><path fill="#020101" d="M244.75 44.28c.59 2.66-1.68 4.1-3.01 4.53-1.79.55-4.86.38-5.9-1.69-2.57-5.14-6.67-17.61.57-18.77a4.9 4.9 0 0 1 5.67 4.01l2.66 11.93z"/><path fill="#030201" d="M208.5 121.49c2.02 2.17 4.22 4.24 3.44 7.17-.79 2.93-4.27 2.96-6.23 4.2-2.64-3.27-15.54-12.77-8.53-17.54 5.2-3.54 9.96 4.73 11.32 6.17m-101.92 75.73c-5.3-.87-14.25-3.63-13.34-9.17.5-3.05 3.2-4.45 6.53-3.7 6.1 1.37 13.76 3.75 12.93 9.27-.35 2.24-2.37 4.21-6.12 3.6"/><path fill="#040202" d="M368.33 82.86c-5.58 6.72-6.31 11.7-11.67 9.86-1.94-.67-3.1-2.89-2.67-5.63.79-5.08 4.09-9.67 8.91-11.41a4.9 4.9 0 0 1 5.8 1.83 4.9 4.9 0 0 1-.38 5.35z"/><path fill="#030201" d="M571.9 134.23c5.4 1.6.53 18.7-2.97 19.5-1.89.43-5.06.2-5.79-2.55-1.44-5.46-.28-11.73 3.35-15.92 1.5-1.74 3.94-1.45 5.4-1.03z"/><path fill="#050302" d="M127.03 248.67c-1.46.4-2.3 1.6-3.08 2.8-5.17-1.13-17.68-1.58-16.12-9s16.21-.83 17.91.32c1.9 1.27 1.13 4.45 1.29 5.9z"/><path fill="#040302" d="M81.66 187.2c-4.82-1.48-14.66-5.47-11.95-11.1 3.33-6.87 19.07 1.95 18.3 7.29-.41 2.86-3.03 4.83-6.35 3.8zm531.63-10.05c-1 3.11-3.53 3.84-5.3 3.6-7.58-1.07-3.02-14.17.2-18.13 1.5-1.87 4.22-1.69 6.24-.81 1.54.65 2.67 3.2 1.83 5.88z"/><path fill="#070403" d="M477.53 152.02c-4.23 7-5.11 12.25-9.3 11.61-2.4-.37-4.49-2.18-4.38-5.11.2-5.3 2.72-10.22 7.02-13.1 1.86-1.24 4.3-.64 5.57.36a4.95 4.95 0 0 1 1.09 6.27z"/><path fill="#050302" d="M610.68 147.5c-.54 3.59-2.32 5.18-4.38 5.33-2.6.19-4.82-1.1-5.33-4.11-.77-4.4-.21-9.07 2.01-12.93a5.04 5.04 0 0 1 5.63-2.21c1.67.47 3.83 2.27 3.47 4.6z"/><path fill="#020101" d="M509.79 142.68c-1.43 2.15-4.2 2.22-5.96 1.51-6.11-2.5.13-12.04 2.74-16.16 1.5-2.37 4.33-2.57 6.36-1.61 6.04 2.87-.17 11.77-3.13 16.26z"/><path fill="#040202" d="M219.72 46.46c-.15 4.26-6.47 4.99-8.28 2.23-2.22-3.35-6.62-14.15-1.52-16.54 2.02-.94 5.05-.86 6.32 1.7 1.75 3.54 3.67 7.51 3.48 12.61M64.67 169.69c-2.37 5.78-8.97 1.91-14.3-.14-2.84-1.1-3.74-3.45-3.27-5.93 1.27-6.8 11.5-2.44 16.11.48 2.27 1.43 2.06 4.16 1.47 5.6z"/><path fill="#030201" d="M520.33 170.26c-.81 3.29-6.89 3.59-8.19.69-2.31-5.16-.87-11.73 2.98-15.49 1.78-1.74 4.7-1.11 6.15-.2s1.93 3.46 1.35 5.82z"/><path fill="#050302" d="M646.67 147.99c-.86 2.34-3.9 2.36-5.67 1.94-5.3-1.24-2.89-13.74-1.72-16.6 1.25-3.01 7.2-2.83 8.35.35 1.65 4.61.68 9.84-.96 14.31M104.8 271.83c.97 2.26.36 4.86-1.09 5.93-1.98 1.45-4.97 1.2-6.65.83-3.43-3.92-11.82-4.99-8.95-11.06 3.25-6.84 14.33.97 16.69 4.3"/><path fill="#060403" d="M267.08 53.1c1.57 5.13 3.96 13.25-1.22 14.73-1.53.45-4.37.39-5.62-1.97-1.98-3.68-5.13-14.64.62-15.92 2.69-.6 5.3.17 6.22 3.14z"/><path fill="#030201" d="M741.22 184.09c-2.81 6.17-6 11.9-11.27 9.71-5.93-2.47.23-11.98 3.79-15.71 1.87-1.96 4.8-1.66 6.42-.46s2.18 3.99 1.05 6.46z"/><path fill="#040201" d="M498.77 155.72c-.33 3.96-2.36 13.43-8.06 12.67-6.87-.91-3.32-12.87.3-17.1 1.35-1.56 3.62-1.16 5.1-.79 1.79.45 2.89 2.53 2.66 5.2z"/><path fill="#040202" d="M247.6 52.32c2.4 2.13 6.4 12.6 2.42 15.62-1.55 1.17-5.45 1.64-6.94-.9-2.34-4.05-6.24-12.75-1.27-15.82 1.6-.98 3.9-.57 5.8 1.1"/><path fill="#050302" d="M135.64 63.78c1.79.73 9.06 8.24 7.84 12.04a5.3 5.3 0 0 1-4.43 3.66c-2.91.4-13.65-8.87-9.65-14.39 1.44-2 4.34-2.1 6.24-1.31"/><path fill="#040202" d="M73.27 149.39c-5.27-.3-11.86-3.97-12.43-8.79-.34-2.88 2.69-4.58 4.36-4.75 2.37-.25 12.34 4.45 12.71 7.98.2 1.92-.95 5.76-4.64 5.56"/><path fill="#030201" d="M654.55 166.73c3.33 3.96-.48 13.67-1.92 15.14-1.52 1.55-5.83 2.29-7.15-.37-2.04-4.13-.73-11.56 2.27-15.14 2.23-2.67 5.56-1.1 6.8.37m32.16 29.47c-1.74 2.79-4.59 3.05-6.86 1.93-4.95-2.43-.65-10 1.42-13.85 1.44-2.69 4.44-3.73 7.15-2.2 4.49 2.54 1.16 9.54-1.7 14.12z"/><path fill="#040202" d="M452.86 155.48c-.94.8-2.81 1.25-3.87 2.4 1.17 4.42-.03 8.84-2.86 12.54-2.06 2.7-5.34 3.43-7.63 1.74-4.4-3.26 1.27-16.03 8.39-16.38z"/><path fill="#080503" d="M288.9 48.28c2.17.33 4.58 1.06 5.44 2.5 1.3 2.2 1.3 5.33 1.58 7.77.53 4.4-1.1 7.43-5.14 7.36-8.63-.16-2.86-13.4-6.53-17.16 1.5-.09 3.12-.71 4.63-.49z"/><path fill="#050302" d="M100.34 112.6c1.09 2.93-1.56 4.98-3.08 5.4-4 1.12-11.75-4.2-12.55-6.28-.67-1.73-.54-5.33 2.35-6.3 4.44-1.5 11.5 2.34 13.28 7.17"/><path fill="#020101" d="M463.87 179.69c-1.25 1.91-3.94 1.64-5.45 1.1-5.37-1.89-1.98-11.66 2.41-15.57 1.59-1.42 3.7-1.36 5.27-.76 5.62 2.14.23 11.5-2.23 15.23"/><path fill="#040202" d="M157.32 58.96c2.03 2.39 3.12 4.5 2.4 7.18-.44 1.55-2.1 3.07-4.48 3.28-2.39.22-13.92-8.9-8.39-14.04 3.53-3.29 7.72.36 10.47 3.58"/><path fill="#010101" d="M751.92 201.99c-1.84 1.77-4.55 1.41-6.21.2-4.12-3.03 1-11.04 3.76-14.1a4.9 4.9 0 0 1 5.4-1.17c5.25 2.03 2.1 10.24-2.95 15.07"/><path fill="#7a4a34" d="M31.41 283.07q.41 3.3-.28 7.03 8.8-1.46 10.44 2.5c3.66 4.42 9.91 4.66 15.3 5.96 6.29 4.38 13.36 4.48 20.13-.13l2.58.36c3.63 5.52 9.75 8 16.75 7.58l2.5 2.1c.17-.74.6-.68 1.18-.04-.3 2.26 2 7.58-1.61 8.5-3.79.96-7.33 1.06-7.1 5.28.44 8.13 10.07 1.58 11.01 9.86.63 5.56 4.66 10.37 4.3 15.81-1.34 1.93-4.06 3.88-3.9 5.83.26 3.02 1.52 4.4 3.69 5.06 1.57.47 5.34-2.13 6.35-1.16 18.12 17.13 8.03 15.06 13.08 20.15 1.48 1.48 5.22-1.46 6.92-.55 15.12 8.2 30.67 14.66 48.87 12.42l17.86 13.84c3.71 2.87 5.86 6.4 10.8 9.3-4.79 3.9-13.77 13.21-8.4 17.56 5.88 4.77 11.43-6.18 14.21-11.97 2.76 2.2 6.59 3.6 8.59 6.58 4.66 6.96-8.5 18.04.17 21.13 2.96 1.06 4.63 1.34 4.8 4.18q.67 4.8-5.46 2.4c-10.37 14.28-1.51 18.93 3.3 1.36l3.49.16c1.19 8.35 4.57 16.34 3.51 25.34 11.4 13.97 1.75 24.81 4.93 30.24.76 1.29 3.93 1.06 5.34 2.66 3.75 4.21 0 9.8-3.81 12.99-.7-2.05.34-4.1.11-6.66-.31-3.67-3.15-4.86-6.01-4.43-3.64.56-7.76 15.07-8.56 19.09-23.28 5.5-16.87-8.22-23.77-5.48-3.43 1.36-8.9 1.9-10.7-2.35-.8-1.9-.54-4.23-1.97-5.12-2.37-1.48-12.5.86-12.07-5.57.22-3.14.4-5.61-2.27-7.01-2.03-1.07-4.06.71-6.42.84-2.35.13-6.94-3.86-6.88-6.26.07-3.05 1.04-5.78-1.16-7.27-1.83-1.23-3.73-.4-6.53-.04-2.95.37-8.08-4.24-7.28-7.37.93-3.62 2.63-6.39-.14-8.75-2.78-2.35-5.36.35-8.39 1.29-2.64.53-7.84-4.69-7.56-7.49.22-2.04 2.59-5.08.99-7.4-4.47-6.54-7.99 3.3-12.43-1.9-3.61-4.22 4.93-6.12 1.37-11.24-4.54-6.53-8.83 4.47-14.44-1.31-5.61-5.79.86-7.79-3.22-11.2-3.1-2.62-7.2.98-8.58-1.19-.56-.9 1.27-6.1-1.03-7.68-2.01-1.39-14.4.67-13.33-8.53.29-2.49.26-4.53-1.18-5.6-1.55-1.16-3.3-.51-5.57-1.19-3.03-.88-8.37-6.61-7.06-9.52 1.31-2.92 3.83-4.69 2.24-7.58-3.53-6.44-8.73 2.07-12.05-3.41-2.95-4.84 3.17-6.27.31-10.46-2.23-3.25-7.23-.13-9.44-4.53-2.22-4.4 4.44-5.31 2.43-10.07-2.02-4.75-7.43-1.41-8.63-2.71-3.65-3.96 1.9-9.97-1.76-11.64-4.27-1.96-9.17-6.6-6.13-11.55 1.32-2.14 3.7-3.22 2.83-6.01-1.76-5.6-8.71-1.39-9.47-7.56-.53-4.44 7.27-2.64 4.87-10.53-.81-2.65-4.77-1.5-6.87-2.38-2.73-1.14-4.57-9.2-2.1-10.8 3.27-2.1 5.93-3.76 5.46-7.53-.55-4.3-4.99-2.88-7.78-4.26-5.77-2.85 1-10.08-.1-13.24-1.97-5.7-7.45-13.43-.6-17.21 2.9 3.9 4.9 17.27 11.23 18.48z"/><path fill="#040202" d="M229.68 450.27c.07 1.1 1.14 2.63 1.33 3.9-2.06.04-4.09 17.88-12.33 13.4-5.91-3.22 1.63-15.92 4.29-17.37 2.45-1.36 5.04 1.58 6.73.07z"/><path fill="#040302" d="M98.81 308.47c-5.45 3.04-17.84-2.47-19.1-4.53-.75-1.23-1.2-3.67-.14-5.15.34-.48 1.24-1.35 1.82-1.42 5.6-.71 11.92.5 16.91 4.27 2.16 1.65 1 5.09.51 6.82z"/><path fill="#020101" d="M76.98 298.43c.66 8.17-14.48 6.36-16.93 5.33-1.62-.69-2.9-2.86-3.2-5.2.63-6.05 20.23-6.05 20.13-.13"/><path fill="#030201" d="M41.56 292.6c-4.32-.07-7.7 1.3-11.33.13-2.19-.72-2.49-4.2-1.84-5.79.51-1.28 1.44-3.2 3.03-3.87a37 37 0 0 1 10-.54c3.52.29 5.74 2.89 5.08 6.06-.41 1.95-2.68 3.63-4.93 4.01z"/><path fill="#020101" d="M99.97 402.81c-3.29 3.96-14.3 15.46-18.94 9.73-1.42-1.76-1.69-5.24.38-6.87 7.95-6.23 13.27-12.97 17.82-8.87 1.2 1.08 2.5 3.9.74 6.01m-17.51-80.27c-4.26 1.72-19.27 6.53-20.09-.45-.28-2.39.8-5.26 3.92-5.93l13.78-2.96a4.6 4.6 0 0 1 5.56 3.54 5 5 0 0 1-3.14 5.8zm86.15 100.8c7.27 3.5-7.94 23.53-14.34 18.84-1.96-1.44-2.47-4.87-.64-7.17l8.14-10.23c1.69-2.11 4.36-2.61 6.83-1.42zm26.31 10.01c-3.6 5.36-10.71 15.75-16.3 11.56-1.54-1.16-2.48-4.73-.68-6.83 5.47-6.38 10.67-14.98 15.9-11.21a4.85 4.85 0 0 1 1.07 6.48zm-43.78-17.51c-2.84 3.99-11.63 15.9-16.29 9.8-1.18-1.54-1.68-4.56-.03-6.41l8.78-9.8a5.2 5.2 0 0 1 6.9-.76c2.13 1.57 2.41 4.7.65 7.17z"/><path fill="#030201" d="M119.41 378.49c6.06 4.5-9.2 21.65-14.78 17.38-1.8-1.37-2.85-4.69-1.1-6.73 5.37-6.27 10.55-14.63 15.9-10.67z"/><path fill="#050302" d="M52.19 312.2c-2.93 1.59-17.89 6.77-18.89-1.54-.34-2.84 1.51-4.73 4.7-5.34l10.69-2.09c2.64-.51 4.78.44 5.52 2.17.98 2.32.65 5.37-2.02 6.82z"/><path fill="#020101" d="M143.9 445.57c-2.19 6.06-11.17 17-16.32 10.71-1.45-1.8-1.54-4.38.67-6.54 7.53-7.34 7.55-13.1 13.58-10.74 2.1.81 3.1 3.74 2.07 6.57"/><path fill="#030201" d="M223.88 512.68c-.24 1.63-4.84 15.36-11.46 13.86-2.7-.62-4.31-3.84-2.95-7.07 2.14-5.06 6.07-13.99 10.68-12.83 2.79.7 4.19 2.96 3.73 6.04M92.16 356.66c-4.72 3.11-13.15 8.52-16.46 4.21a5.15 5.15 0 0 1 1.06-6.96c3.34-2.54 14.57-9.83 17.08-4.26 1.17 2.6.77 5.4-1.68 7"/><path fill="#010101" d="M152.05 472.77c-1.84 2.44-5.3 1.71-7.01.07-5.13-4.9 3.19-12.47 7.3-16.24 2.38-2.19 5.86-1.29 7.59 1.23 2.5 3.65-2.05 7.21-7.88 14.92z"/><path fill="#030201" d="M56.44 332.17c-4.2 2.09-15.13 9.04-17.23 2.26-.5-1.59-.4-4.73 1.9-5.99 6.06-3.31 14.82-8.97 17.85-2.37.77 1.69.3 4.7-2.52 6.09zM112 420.64c-6.43 6.24-7.24 10.73-12.53 9.03-2.21-.72-3.6-3.74-2.34-6.66 1.9-4.41 5.57-8 9.48-10.64 2.23-1.5 4.97-.3 6.19 1.38a5.2 5.2 0 0 1-.8 6.9z"/><path fill="#050302" d="M196.9 408.38c-1.88 4.6-9.25 14.65-14.63 9.96-1.56-1.36-2.49-4.41-.56-6.64l7.23-8.36c1.47-1.71 4.03-1.63 5.48-1.16 2.19.72 3.56 3.5 2.48 6.2"/><path fill="#030201" d="M224.67 496.14c-1.47 2.19-4.17 2.11-5.7 1.44-6.12-2.71-.27-12.54 2.81-17.24 1.44-2.2 4.09-2.44 5.91-1.84 6.6 2.18-.28 13.57-3.04 17.64z"/><path fill="#020101" d="M187.81 492c-2.79 4.84-9.06 14.17-14.31 9.71-4.59-3.88 2.92-11.54 6.7-15.68 1.84-2.03 4.82-1.83 6.52-.59 1.79 1.3 2.47 4.16 1.09 6.56m-61.28-61.09c-2.32 4.19-9.56 13.44-14.63 9.34s3.2-11.11 7.28-15.34c2-2.07 4.45-1.43 5.82-.56a4.8 4.8 0 0 1 1.53 6.56"/><path fill="#030201" d="M183.9 473c-2.76 1.57-5.33.58-6.58-1.07a4.9 4.9 0 0 1 .73-6.7c4.96-4.52 7.29-10.2 11.7-8.4 2.07.84 3.8 3.24 2.87 5.98-1.4 4.14-4.53 7.8-8.72 10.2z"/><path fill="#010101" d="M212.7 475.55c-1.96 4.49-8.73 13.86-13.59 10.13-1.9-1.46-2.83-4.41-1.26-6.53l6.62-8.88a5.4 5.4 0 0 1 6.07-1.76c2.54.91 3.46 4.07 2.16 7.04"/><path fill="#020101" d="M200.94 512.44c-1.43 1.97-4.03 2.01-5.72 1.45-7.32-2.4 1.53-13.22 2.78-15.8 1.34-2.8 4.41-3.14 6.74-2.24 6.7 2.59-1.06 12.83-3.8 16.6zm11.76-66.91c-1.72 4.27-8.16 14.45-13.62 10.34-5.46-4.12 3.11-11.39 6.01-16.29 2.26-1.2 4.6-1.3 6.29-.15 1.69 1.14 2.27 3.7 1.31 6.1"/><path fill="#030201" d="M84.76 389.01c-3.6 3.57-12.2 10.36-15.63 5.3-3.99-5.87 4.23-9.06 9.45-12.84 2.45-1.77 5.18-1.04 6.82.96 1.38 1.68 1.58 4.37-.64 6.58m20.71-16.19c-1.46 3.08-9.57 12-14.52 8.37-2.18-1.6-2.82-4.79-.81-6.95 4.04-4.32 9.47-10.34 13.94-7.43 1.46.96 2.43 3.78 1.39 6m-32.44-6.71c3.97 5.94-10.87 15.13-15.04 12.31a4.74 4.74 0 0 1-.89-7.23c3.24-3.48 12.33-10.45 15.93-5.08"/><path fill="#020101" d="M171.95 478.41c-1.47 4.51-9.41 14-14.28 10.17-2.2-1.73-2.77-5.14-.7-7.35 5.56-5.93 7.54-9.76 11.91-8.3 1.6.52 3.92 2.91 3.09 5.48zM61.77 351.9c-4.3 2.59-14.25 7.57-16.1 1.5-.54-1.8-.47-4.6 1.9-5.9 4.46-2.46 13.62-7.19 15.89-1.8.83 1.97.73 4.76-1.69 6.21z"/><path fill="#030201" d="M131.85 404.83c-2.3 5.04-7.92 11.85-12.85 8.3-4.93-3.56 1.58-9.63 4.73-13.66 1.63-2.1 4.15-1.91 5.88-1.17 2.33 1 3.52 3.71 2.24 6.53m10.08-3.6a4.9 4.9 0 0 1-5.93.47 4.7 4.7 0 0 1-1.63-5.8l3.26-6.9c.91-1.93 2.07-3.13 3.24-3.49 1.94-.6 5.21-.34 5.94 2.23 1.33 4.74-.85 10.01-4.87 13.5z"/><path fill="#020101" d="M94.51 337.93c-2.82 4.44-10.3 5.88-15.44 4.78-2.21-.47-2.4-3.5-2.26-4.74.63-5.39 13.92-8.11 16.69-5.14.87.94 2.31 3.07 1.01 5.11zm79.59 61.95c-1.45 4.06-7.87 11.07-12.62 7.86-1.64-1.1-2.5-3.77-1.27-6.07 1.57-2.97 7.81-10.51 12.1-7.3a5 5 0 0 1 1.79 5.53z"/><path fill="#040202" d="M173.97 445.57c5.37 3.93-1.42 12.53-4.02 13.7-2.1.94-5.28 1.14-6.67-1.26-2.21-3.84.99-7.08 3.05-9.98s5.4-4.1 7.62-2.47z"/><path fill="#bb8d63" d="M389.09 377.48c-3.56 2.4-12.91 1.95-16.91 3.5-3.58-2.15-6.99-8.32-12.8-7.75l34.28-50.53c1.41 3.46 2.7 5.34 5.61 4.97 7.43-.94 2.76-9.73 7.52-11.6 6.36-2.5 8.71 4.26 12.81 1.2 2.6-1.94 2.83-5.35.9-7.9-3.1-4.11-8.17-3.9-14.05-4.44a164 164 0 0 1 13.6-19.77c.65 3.91 4.35 7.13 4.52 10.17-.44 8.23-.91 16.5 6.7 22.54-4.45 7.52.9 14.07.55 21.16l-.7 13.94c-.15 2.71-3.62 8.84-6.27 8.66-7.38-.53-10.66 7.2-15.46 8.64-6.97 2.09-13.04 2.31-20.3 7.2z"/><path fill="#020201" d="M423.86 330.66c-.21 7.28-12.44-.08-9.8 10.11 1.74 6.71 11.4 1.49 10.73 9.99-.24 3.01-2.54 5.02-6.39 4.64-10.54-1.06-17.34-11.99-13.97-22.21a12.57 12.57 0 0 1 16.95-7.63c2.4 1.05 2.52 3.37 2.48 5.1"/><path fill="#020101" d="M398.73 364.83c-6.43 1.51-5.58-7.78-8.28-8.38-9.09-2 .84 9.72-6.12 12.63-2.07.87-4.95.23-6.62-2.38-3.16-4.96-2.96-10.93.9-15.46 3.11-3.67 8.3-6.27 14.12-4.91 5.03 1.15 9.5 5.91 9.83 12.34.16 3.17-1.03 5.5-3.84 6.16z"/><path fill="#fb9a02" d="M450.09 406.53c-4.03 3.85 1.96 15.33-.84 21.21-1.16 1.53-6.92-.21-7.25-2.56l-6.47-45.3c8.22-4.5 18-4.68 25.57.5 4.87 3.33 7.57 8.53 5.99 14.39-2.4 8.89-14.37 9.23-17 11.76"/><path fill="#be7503" d="m445.76 388.53 2.8 1.2c-1.37 7.44 8.19 3.72 3.79-1.71l.34-3.42c5.56-.41 8.14 3.42 7.78 8.35-.3 4.04-2.74 7.2-5.87 7.95-3.43.85-7.38.09-9.04-2.87s-2.41-7.28.19-9.51z"/><path fill="#090602" d="M452.7 384.62c2.92 1.97 4.55 5.17 3.43 8-1.51 3.87-5.41 5.44-8.94 2.87-2.22-1.62-1.44-4.9-1.43-6.95 1.77-2.97 4.4-3.74 6.94-3.93"/><path fill="#010000" d="M452.67 477.08c1.12 1.67 3 3.3 4.55 4.57.32 14.19-2.48 25.82-17.87 28.96-6.1 1.24-8.72-4.27-13.76-5.99-5.59-1.88-12.12-.27-16.07-5.85-6.4-9.03-5.26-21.7 1.68-30.42 9.65-.17 16.85 4.99 22.16 12.47 6.33-2.6 12.83-3.38 19.33-3.75z"/><path fill="#f4b441" d="M446.95 490.18c-.43 6.06-4.57 11.34-9.6 9.83-2.59-.77-2.69-4.3-2.32-5.79 1.15-4.52 12.32-9.85 11.9-4.04z"/><path fill="#f9b842" d="M425.02 491.94c-1.03 3.37-6.79 2.44-8.1.04-2.3-4.23-2.73-8.49.03-12.36 5.01 1.85 9.93 6.22 8.07 12.33z"/><path fill="#f66f4b" d="M229.95 366.58c-5.88-2.97-35.65-17.31-29.38-26.15l33.07-46.7c4.34-6.13 9.6-9.96 17.01-9.46 6.59.44 12.09 4.57 15.4 11.4 6.77 14.03 11.89 29.57 12.34 45.43.13 4.66-4.94 8.41-6.74 11.9-8.03 15.53-25.58 21.68-41.67 13.57z"/><path fill="#000" d="M236.95 350.28c-6.33 3.95-13.78 4.03-18.97-.47-13.13-11.37 1.54-26.12 9.89-38.82 4.58-6.98 12.51-7.55 19.21-5.1 8.04 2.94 5.97 11.5 8.91 17.35 3.79 7.49 9.62 14.17 3.98 22.52-4.92 7.25-14.22 10.22-23.02 4.52"/><path fill="#a03626" d="M231.57 341.69c-1.62 2.22-4.43 2.15-5.93 1.57-8.85-3.43 6.11-21.02 11.2-27.76 1.57-2.08 5.44-1.34 6.94-.06 5.27 4.55-7.29 19.42-12.23 26.25z"/><path fill="#eea68a" d="M250.44 330.74a4.6 4.6 0 0 1 5.11 3.25c.74 3.2-.61 5.78-3.44 6.22-2.67.42-5.44-.62-5.9-3.91a4.85 4.85 0 0 1 4.24-5.54z"/><path fill="#f66f4b" d="M363.36 219.82c-3.23 3.55-5.08 9.65-9.7 10.94-14.67 4.07-54.9 10.71-62.31-7.23-2.93-7.07-.81-13 3.27-18.91l33.16-48.07c8.78-4.75 26.48 12.84 32.88 18.54 13.13 11.68 15.13 31.04 2.72 44.74z"/><path fill="#000" d="M330 216.19c-5.4-1.56-13.22 4.6-19-2.29-10.95-13.08-1.08-22.35 10.65-39.14 4.77-6.83 12.34-6.66 18.54-4.71 8.86 2.78 5.9 12.57 9.03 17.63 4.7 7.6 11.31 14.4 5.46 23.5s-14.87 7.82-24.69 5"/><path fill="#a03627" d="M325.4 205.35c-1.85 2.62-4.8 2.97-6.5 2.1-3.15-1.58-4-5-2.12-8.03a228 228 0 0 1 13.18-19.39c1.66-2.17 5.39-1.71 7.03-.5 5.69 4.22-6.96 19.19-11.58 25.82z"/><path fill="#f2a98d" d="M343.25 195.02c2.7-.8 5.19.4 5.93 2.15 1.17 2.73.25 5.72-1.92 6.69-2.64 1.18-5.78.24-6.74-2.05-1.06-2.5-.36-5.88 2.74-6.8z"/><path fill="#f0546b" d="M489.97 214.18a73 73 0 0 0 4.7 12.41l-2.11 3.07q-2.63.04-5.2.44l-.25-20.08z"/><path fill="#010000" d="M542.87 214.5c.87 4.35-3.34 9.88-5.13 13.03-2.31 4.1-10.47 3.09-13.77 4.83-5.34 2.83-8.56 8.07-15.23 7.19-6.67-.89-11.74-5.39-16.18-9.87-1.26-6.58-6.4-8.15-2.59-15.5 7.03-4.29 14.97-5.45 23.51-4.58 2.65-5.25 6.69-15.45 13.8-15.14 8.82.4 14.06 12.46 15.58 20.03z"/><path fill="#f2b341" d="M532.29 216.12c-.25 2.7-1.73 4.58-3.3 4.83-1.48.21-4.15-.05-5.15-1.95-2.56-4.9-.16-10.74 4.12-13.35 2.84 3.27 4.7 6.27 4.32 10.48z"/><path fill="#edad40" d="M514.03 223.1c-.49 4.89-7.44 5.25-11.14 2.46-.62-.54-3.32-3.43-2.4-4.31 4-3.92 11.08-2.43 13.52 1.87z"/><path fill="#b68431" d="M502.89 225.56c3.88.63 7.51-1.19 11.14-2.46 1.48 2.6.64 4.7-2.26 5.92-3.44 1.43-7.11-.79-8.87-3.46z"/><path fill="#000" d="M624.25 565.74q-1.85-.62 0-1.43c3.35.18 6.79-.76 10.13.73-3.83 1.58-7.04.28-10.13.7m-161.42 4.28q-1.85-.6 0-1.43c2.86.12 5.86-.71 8.69.75-3.33 1.55-6.09.3-8.69.68m215.71-7.14q1.85.6 0 1.43c-2.37-.36-4.95.88-7.25-.79 2.82-1.2 5.13-.67 7.25-.64"/><path fill="#000" d="M678.54 564.3v-1.42c2.37.03 4.94-.64 7.24.74-2.81 1.5-5.13.34-7.24.69m-215.71 4.29v1.42c-2.37-.36-4.94.89-7.24-.78 2.8-1.15 5.14-.73 7.24-.65"/><g fill="#000" opacity=".24"><path d="M319.98 600.02c4.02-4.23 7.88-10.54 13.48-12.61 9.52 7.63 18.6-5.12 22.76-12.9 11.64-.93 22.94-.46 34.65-.83l46.84-1.5 53.1-1.37 55.43-1.5 51.94-.99c2.29-.04 4.87-2.03 7.05-.93 3.9 1.96 6.95.36 10.8.25l37.57-1.12c10.2-.3 20.3-.21 30.48-.9 9.7-.64 16.1-7.54 24.08-11.35 7.99-3.82 46.72-5.67 58.93-6.72l17.13-1.47c14.34-1.24 30.99-1.6 41.43-11.73 6.94 7.69 16.01 10.55 14.27 24.73-2.23 18.14-31.83 21.94-46.74 23.04l-13.32.98c-25.67 1.88-49.9 2.55-74.38 5.07l-15.5 1.6a261 261 0 0 1-21.46 1.37l-38.41.84-17.36 1.19c-24.92 1.71-45.02 2.23-69.9 3.71l-22.77 1.36-23.1 1.53-177.03.28zm-45.72 0c-21.47-.6-43.1.99-64.97-.65l-18.8-1.42c-25.43-1.91-49.95-6.24-74.24-13.98-3.6-1.16-4.17-3.89-6.27-5.37-4.8-8.05-10.17-21.16 0-27.15 1.11-.23 1.89-1.11 2.86-1.43 23.44-9.44 49.28-10.52 74.28-11.42 4.42-.22 4.13 6.98 7.07 8.13 3.59 1.4 7.47-1.5 10.33.8 2.57 2.05 3.3 4.44 4.63 7.74 1.88 4.71 6.8.11 9.46-.6 13.18 2.86 9.4 3.88 15.72 9.88 3.19-3.17 10.9-3.98 12.8.23 1.52 3.39 1.39 5.76 5.08 5.52 2.64-.18 3.02-1.26 4.38-4.72 3.5 14.26 4.86 25.44 17.7 34.43z"/><path d="M187.12 538.6c-24.86 2.4-49.94 3.5-74.28 11.42 5.31-5.61 33.38-9.45 43.27-10.91 10.51-1.56 20.94.1 31.01-.51m-77.14 12.85c-4.03 3.7-6.21 8.62-4.28 14.36l4.28 12.79c-5.87-4.13-11.53-24.73 0-27.15"/></g><rect width="10.47" height="25.9" fill="#000" rx="5.23" transform="rotate(39.4 -563.28 371.03)scale(-1 1)"/><rect width="10.47" height="25.9" fill="#000" rx="5.23" transform="rotate(39.4 -572.4 399.72)scale(-1 1)"/><rect width="10.47" height="25.9" fill="#000" rx="5.23" transform="rotate(-140.6 151.2 209.49)scale(1 -1)"/><rect width="10.47" height="25.9" fill="#000" rx="5.23" transform="rotate(39.4 -597.4 451.45)scale(-1 1)"/><rect width="10.47" height="25.9" fill="#000" rx="5.23" transform="rotate(39.4 -610.74 479.63)scale(-1 1)"/><rect width="10.47" height="23.34" fill="#000" rx="5.23" transform="rotate(39.4 -552.63 348.49)scale(-1 1)"/><rect width="10.47" height="23.34" fill="#000" rx="5.23" transform="rotate(48.07 -428.35 301.1)scale(-1 1)"/><rect width="10.47" height="23.34" fill="#000" rx="5.23" transform="rotate(48.07 -413.99 278.89)scale(-1 1)"/><rect width="10.47" height="23.34" fill="#000" rx="5.23" transform="rotate(58.06 -319.78 248.19)scale(-1 1)"/><rect width="10.47" height="23.34" fill="#000" rx="5.23" transform="rotate(58.06 -309.7 232.5)scale(-1 1)"/><rect width="10.47" height="23.34" fill="#000" rx="5.23" transform="rotate(64.2 -264.87 213.06)scale(-1 1)"/><rect width="10.47" height="23.34" fill="#000" rx="5.23" transform="rotate(64.2 -252.6 199.58)scale(-1 1)"/><rect width="10.47" height="23.34" fill="#000" rx="5.23" transform="rotate(99.1 -83.85 123)scale(-1 1)"/><rect width="10.69" height="23.34" fill="#000" rx="5.35" transform="rotate(-70.57 158.31 83.28)scale(1 -1)"/><rect width="10.69" height="23.34" fill="#000" rx="5.35" transform="rotate(-70.57 148.88 72.11)scale(1 -1)"/><rect width="10.69" height="23.34" fill="#000" rx="5.35" transform="rotate(-64.17 146.54 38.88)scale(1 -1)"/><rect width="10.69" height="23.34" fill="#000" rx="5.35" transform="rotate(-64.17 138.55 24.02)scale(1 -1)"/><rect width="10.69" height="23.34" fill="#000" rx="5.35" transform="rotate(125.2 .02 78.5)scale(-1 1)"/><rect width="10.69" height="23.34" fill="#000" rx="5.35" transform="rotate(125.2 10.91 73.86)scale(-1 1)"/><rect width="10.69" height="23.34" fill="#000" rx="5.35" transform="rotate(-44.54 157.6 -58.8)scale(1 -1)"/><rect width="10.69" height="23.34" fill="#000" rx="5.35" transform="rotate(135.46 33.4 60.24)scale(-1 1)"/><rect width="10.69" height="23.34" fill="#000" rx="5.35" transform="rotate(135.46 43.77 57.3)scale(-1 1)"/><rect width="10.69" height="23.34" fill="#000" rx="5.35" transform="rotate(34.43 84.49 699.18)scale(1 -1)"/><rect width="10.69" height="23.34" fill="#000" rx="5.35" transform="rotate(34.43 69.76 732.54)scale(1 -1)"/><rect width="10.69" height="23.34" fill="#000" rx="5.35" transform="rotate(26.56 8.32 995.6)scale(1 -1)"/><rect width="10.69" height="23.34" fill="#000" rx="5.35" transform="rotate(26.56 6.36 1037.25)scale(1 -1)"/><rect width="10.69" height="23.34" fill="#000" rx="5.35" transform="rotate(17.79 -125.55 1600)scale(1 -1)"/><rect width="10.69" height="23.34" fill="#000" rx="5.35" transform="rotate(197.79 260.46 21.08)scale(-1 1)"/><rect width="10.69" height="23.34" fill="#000" rx="5.35" transform="rotate(183.1 263.82 55.5)scale(-1 1)"/><rect width="10.69" height="23.34" fill="#000" rx="5.35" transform="rotate(183.1 274.1 56.1)scale(-1 1)"/><rect width="10.69" height="23.34" fill="#000" rx="5.35" transform="rotate(183.1 284.32 56.46)scale(-1 1)"/><rect width="10.69" height="23.34" fill="#000" rx="5.35" transform="rotate(183.1 292 57.3)scale(-1 1)"/><rect width="10.69" height="23.34" fill="#000" rx="5.35" transform="rotate(3.1 -2115 11183.26)scale(1 -1)"/><rect width="10.69" height="23.34" fill="#000" rx="5.35" transform="rotate(183.1 313.22 56.74)scale(-1 1)"/><rect width="10.69" height="23.34" fill="#000" rx="5.35" transform="rotate(8.24 -588.42 4525.5)scale(1 -1)"/><rect width="10.69" height="23.34" fill="#000" rx="5.35" transform="rotate(193.74 337.67 28.17)scale(-1 1)"/><rect width="10.69" height="23.34" fill="#000" rx="5.35" transform="rotate(193.74 346.2 28.36)scale(-1 1)"/><rect width="10.69" height="23.34" fill="#000" rx="5.35" transform="rotate(23.7 -1.2 1714.6)scale(1 -1)"/><rect width="10.69" height="23.34" fill="#000" rx="5.35" transform="rotate(203.7 370.48 2.55)scale(-1 1)"/><rect width="10.69" height="23.34" fill="#000" rx="5.35" transform="rotate(203.7 378.2 5.58)scale(-1 1)"/><rect width="10.69" height="23.34" fill="#000" rx="5.35" transform="rotate(35.24 98.56 1247.23)scale(1 -1)"/><rect width="10.69" height="23.34" fill="#000" rx="5.35" transform="rotate(41.74 135.5 1076.23)scale(1 -1)"/><rect width="10.69" height="23.34" fill="#000" rx="5.35" transform="rotate(41.74 119.08 1106.9)scale(1 -1)"/><rect width="10.69" height="23.34" fill="#000" rx="5.35" transform="rotate(57.95 194.2 810.93)scale(1 -1)"/><rect width="10.69" height="23.34" fill="#000" rx="5.35" transform="rotate(63.36 203.54 756.53)scale(1 -1)"/><rect width="10.69" height="23.34" fill="#000" rx="5.35" transform="rotate(73.13 227.7 666.1)scale(1 -1)"/><rect width="10.69" height="23.34" fill="#000" rx="5.35" transform="rotate(73.13 218.22 678.12)scale(1 -1)"/><rect width="10.69" height="23.34" fill="#000" rx="5.35" transform="rotate(253.13 513 -151.5)scale(-1 1)"/><rect width="10.69" height="23.34" fill="#000" rx="5.35" transform="rotate(73.13 191.71 703.99)scale(1 -1)"/><rect width="10.47" height="23.34" fill="#000" rx="5.23" transform="rotate(-115.8 116.94 153.3)scale(1 -1)"/><path fill="#fff" stroke="#000" stroke-width="9.55" d="M333.79 133.58a5.43 5.43 0 0 0-10 .42l-.08.22-2.69 8.33-8.07 3.38a5.43 5.43 0 0 0 .43 10.17l8.33 2.7 3.38 8.06a5.43 5.43 0 0 0 10.18-.43l2.68-8.33 8.07-3.38a5.43 5.43 0 0 0-.43-10.18l-8.33-2.68-3.38-8.07z"/></svg>