<svg xmlns="http://www.w3.org/2000/svg" fill="none" viewBox="0 0 600 600"><g filter="url(#crests-ai-research-filter0_d_180_5202)"><path fill="#fff" d="m112.15 506.99.01.05.03.08-.02-.05-.02-.06-.01-.04v-.01zm398.65-4.88-.02.06.05-.14zm.35-14.34-.01-.04v-.02zm-.2-.77v-.02zm-392.4-127.54h.03zm307.1-232.28v.01-.06zm83.51 354.46.05.13c0 .03 0 .01.04.11l.05.15.03.07.13.37.03.07.04.12.08.2v.02l.02.05v.02h.01l.06.17.22.62.09.24.14.41.02.06-.01-.03.04.13.07.21.38 1.18-.01-.03v.03l.05.15.07.24.04.12.1.35-.03-.1-.04-.16-.02-.07.03.11.05.18.03.12.05.2q.12.4.21.81v.02l.03.08q0 .07.03.12l.02.12-.02-.1.21 1.04c.46 2.3.79 5.32.32 8.7v.05l-.02.13v.02q-.1.65-.19 1.09v.07l-.09.38v.02a26 26 0 0 1-.7 2.54l-.01.07-.01.01-.06.16q-1.4 4.07-4.21 7.43-.62.75-1.32 1.4c-7.34 6.99-17.07 8.6-22.51 9.22-3.15.37-6.22.52-8.68.63-2.7.12-4.42.18-5.86.32l-.92.06c-4.02.16-7.73.4-11.8.65-4.8 5.42-11.58 9.47-19.81 10a24 24 0 0 1-1.33.79 28.4 28.4 0 0 1-16.63 3.06 34 34 0 0 1-8.37-2.4 26 26 0 0 1-11.9-.5l-.35-.1a29 29 0 0 1-9-4.51l-2.29.15-16.3 1.07-16.78 1.1-16.85 1.12-16.65 1.1-17.13 1.13-16.7 1.1h-.01l-4.42.29c-5.73 2.03-12.49 1.8-18.07-1.6q-.87 1.5-2.06 3.01a22 22 0 0 1-7.97 6.24c-5.75 3.71-11.93 5.61-15.77 6.72-2.28.67-5.54 1.69-9.23 2.5q-.38.38-.8.72c-4.89 4.13-11.07 6.97-16.68 8.68-6.31 2.74-14.05 4.04-22.01 2.04q-.6-.16-1.17-.34c-10.77-3.41-17.37-11.94-20.36-15.7-7.5-9.04-12.08-19.4-15.36-28.6q-1.66.44-3.26.72a36 36 0 0 1-11.4 1.3h-.17q-.18 0-.35-.03a34 34 0 0 1-3.64-.43 20 20 0 0 1-8.06-2.06l-.15-.07a45 45 0 0 1-6.84-4.2c-12.89-9.57-18.92-24.54-22.14-36.89-3.37-12.94-4.5-26.54-5.3-35.73l-.03-.32c-.48-7.07-1.83-18.4-2.02-27.91-.2-10.23.66-22.02 5.52-33.43l.24-.55a43 43 0 0 1 6.93-10.66 29.3 29.3 0 0 1 13.52-8.66 42 42 0 0 1 15.45-3.56c2.6-.5 5.36-.53 8.16.06h.03l.01.01.57.13a20 20 0 0 1 2.49-4.75 20.6 20.6 0 0 1 18.71-8.83l8.18-2.12 12.6-3.28L184 337l3.92-1.01c.67-6.95 2.95-12.88 4.33-16.53.82-2.26 1.43-4.45 2.46-7.78-8.04-10.97-12.2-25.24-9.29-39.76l.13-.57.15-.58a21 21 0 0 1 2.76-6.08l7.5-15.21 5.3-10.76 5.32-10.77 1-2.04a50 50 0 0 1 .8-16.41 54 54 0 0 1 2.4-8.09q-.51-.86-.96-1.67a52 52 0 0 1-2.93-6.35v-.01a51.3 51.3 0 0 1-2.61-27l.16-.9c.88-4.61 2.4-9.01 4.41-13.1l.12-.23c-3.05-14.56 8.06-30.14 24-31.54l.5-.04c6.83-.52 12.65 1.55 15.74 2.74q3.96 1.3 7.53 2.93l3.45-7 10.54-21.39 10.44-21.15v-.01c.08-.16.44-.91.72-1.45a21.4 21.4 0 0 1 7.61-8.46 42 42 0 0 1 7.11-5.18 71 71 0 0 1 7.62-3.83l.35-.15c8.62-3.53 17.4-4.54 25.65-4.13 1.3-2.3 2.7-4.64 4.17-6.77l.25-.36q.9-1.26 2.04-2.33c7.86-7.5 17.34-9 24.5-8.81 5.93.16 11.7 1.54 15.57 2.54l1.54.4.63.17c8.65 2.61 18.57 5.96 27.9 11.3 6.04 3.22 12.2 8.1 15.58 15.9 3.34 7.72 2.73 15.48 1.28 21.8a67 67 0 0 1-3.23 10 83 83 0 0 1 4.17 5.56c4.53 5.98 11.1 16.89 8.35 30.3a21 21 0 0 1-3.67 9.16l-.17.5q-.16.52-.35 1.05c-3.4 9.16-7.8 17.8-12.07 25.72l1.12.92.87.72.37.32.37.34a53 53 0 0 1 13.39 20.95 171 171 0 0 1 17.62 9.36 112 112 0 0 1 45.83 51.5l.44 1.02.02.06c11.98 28.56 12.38 61.84.31 90.68-3.52 9-8.26 18.98-15.6 27.84q-1.4 1.8-2.93 3.63c6.47 20 11.41 41.25 16.62 59.54l.77 2.57 1.23 4.02.84 2.7.84 2.68v.03l.86 2.7 2.16 6.81.44 1.37v.02l1.53 4.82 1.51 4.85.01.04.86 2.77q.97 3.15 1.9 6.34l.63 2.13.01.03.08.26.02.07.02.06.05.15.07.2v.02l.02.04z"/></g><path fill="#b3d1da" d="M259.68 370.05q-.82-.15-1.45-.58c-1.76.3-3.8.22-5.6.11a4.2 4.2 0 0 1 .19-4.52l.14.03c.87.18 1.72.17 2.58.14q.7.02 1.4.08l4.55.51.86.36 2.25.92c-1.08 1.67-2.4 3.03-4.18 3.03q-.36 0-.74-.08m-96.17-2.08-.71.2q-.36.08-.71.18l-.3-.58-.05-.1-.16 1.4c-.36 2.15-.66 4.31-1 6.47l-1.36-1.03c-1.68-1.37-3.72-2.6-4.77-4.55l-.2-.43c-1.19-2.71 1.28-5.9 4.21-5.38.77.08 1.38.41 1.9.86q.35.3.66.67.3.35.56.72l.24.21a30 30 0 0 0 1.7 1.37m65.76 71.52-.2.81-1.17-1.69-.37-.53-.37-.53-.33-.47-.04-.05a88 88 0 0 0-2.98-3.98q-.42-.54-.86-1.03l.14-.58a36 36 0 0 1 6.18 8.05"/><path fill="#b3d1da" d="m162.8 368.16-.71.18-.3-.58-.05-.1-.16 1.4c-.36 2.15-.66 4.32-1 6.47q-.35 2.5-.83 4.97a10 10 0 0 1-.53 2.95c0 2.95-3.63 5.5-6.56 2.95q-.25-.27-.51-.5a76 76 0 0 1 .73-5.87c.2-.75.34-1.73.48-2.83.28-2.23.54-4.96 1.1-7.24.5-2.06 1.24-3.75 2.48-4.4a3.8 3.8 0 0 1 4.08.11 4 4 0 0 1 1.35 1.4q.3.5.42 1.09m-8.99 35.36-.47-.28-.09-.06-.08-.05-.58-.35-.05-.03a3.96 3.96 0 0 1-1.4-5.34q1.44 3.01 2.66 6.12m38.08 16.86-.28.15a10 10 0 0 0-3.83 3.78l-3.73-2.29c1.07-.32 2.2-.55 3.25-.87q2.26-.58 4.59-.77m39.23 22.95q-.66-1.03-1.36-2.05l-.66-.98-1.9-2.75-.34-.47-.04-.05.78-.27a33 33 0 0 1 3.52 6.57"/><path fill="#76939c" d="M262.39 365.93a3.7 3.7 0 0 1-.9 2.05c-1.31 1.38-3.73 1.7-6.15 1.7q-1.4-.01-2.7-.1h-.1l-.08-.01-.35-.02-.17-.01-.4-.03h-.16l-.16-.02h-.15l-.26-.02-.3-.01h-.02l-.24-.01h-.18l-.97-.11h-.06l-.13-.02a61 61 0 0 1-10.22-2.14l-.37-.11-1.18-.37h-.02a59 59 0 0 1-2.92-1.03l-.58-.22q-.3-.1-.58-.22l-1.73-.7-.57-.25-.57-.25-.57-.26-.56-.26q-.3-.12-.57-.26l-.58-.28-.53-.27-1.12-.56h-.02l-.52-.28-1.1-.59-.11-.06a79 79 0 0 1-3.8-2.23c-1.2-.82-2.93-1.92-4.65-3.14l-.43-.3-.36-.26-.35-.26-.08-.06-.32-.25q-.98-.75-1.84-1.51a11 11 0 0 1-2.56-3.08 3.98 3.98 0 0 1 4.03-5.26 3.5 3.5 0 0 1 1.54.39 4 4 0 0 1 1.64 1.56 40 40 0 0 0 2.86 2.34q1.69 1.28 3.45 2.43l.44.29.57.38a50 50 0 0 0 6.55 3.65l2.17.97.32.14a65 65 0 0 0 4.44 1.7l.96.33q2.43.81 4.87 1.5l1.54.35 1.55.3q.29.4.61.78a9.5 9.5 0 0 0 5.32 3.12c.87.18 1.71.17 2.57.14q.7.02 1.4.08 2.72.29 5.45.62z"/><path fill="#76939c" d="M259.68 370.05c-2.28-.39-3.5-2.7-3.1-4.77l.36.03q4.09.44 8.18.96l-.23.39-.28.44c-1.08 1.67-2.4 3.03-4.18 3.03a4 4 0 0 1-.75-.08m-25.54 15.59a38.6 38.6 0 0 1-21.02-11.6c-2.32-2.98.36-7.53.95-10.88q.83-2.84 1.58-5.7c.32-1.34.42-2.48 1.48-3.41 2.4-2.34 6.86-.28 6.54 3.08-.74 4.44-2.4 8.7-3.4 13.1a33.5 33.5 0 0 0 13.62 7.4c1.79.6 3.89-.24 5.4 1.18 2.6 2.07 1.16 6.71-2.2 6.88-.99.05-1.97.07-2.95-.05"/><path fill="#76939c" d="M231.58 381.86a3.94 3.94 0 0 1 3.55-4.24c1.18-.18 2.7-.08 3.66-.8 1.87-3.24 2.11-7.02 2.83-10.6.5-4.8 7.33-4.96 7.88-.16-.65 4.83-1.34 9.83-3.68 14.18a8.5 8.5 0 0 1-6.23 4.61c-3.05.85-7.56 1.16-8.01-2.99"/><path fill="#b14429" d="M264.41 460.95q-1.29.65-2.53 1.45c-4.84 1.34-7.2-5.12-2.9-7.53q1.15-.6 2.41-1.2c1.17 1.58 2.15 3.95 3.02 7.28m4.45 43.1.07-.04q-.1 3.27-.35 6.54c-2.02-1.54-2.18-5.12.28-6.5m8.34 3.49q-1.1 1.2-2.35 2.1v-.06q.05-.2.06-.4l.03-.32.01-.18.01-.18v-.36a10 10 0 0 0-.3-2.38l-.05-.15-.04-.15-.08-.27-.06-.16-.1-.28-.06-.14-.06-.14-.06-.14-.06-.14-.07-.14.31.08h.01l.15.04.15.06.13.05.12.06q.06.01.1.04l.1.05.1.06q.03 0 .04.02l.12.07.14.09.12.09.06.05.06.05q.06.03.12.1l.44.45.2.25.09.13.08.13.06.1.03.06.02.05.06.11.05.11.03.08.01.02.02.05.06.15.05.16v.01l.04.14.01.06.05.27.03.16v.09z"/><path fill="#76939c" d="M246.37 515.37a3.94 3.94 0 0 1-.88-5.46c2.33-3.12 11.65-1.69 15.48-2.1.64-16.26-.03-32.93-5.37-48.43-4.09 1.49-7.43 4.28-10.98 6.57-2.56.88-5.33-1.43-5.03-4.1.25-2.48 2.68-3.82 4.52-5.13 11.82-7.32 17.29-9.57 20.81 6.34 4.04 16.01 4.84 32.66 3.55 49.07-1.1 4.68-6.94 3.24-10.52 3.52a59 59 0 0 0-7.81.32c-1.3.19-2.66.24-3.77-.6"/><path fill="#76939b" d="M443.65 293.21v.66l-.02.66-.02.66q0 .34-.03.67a61 61 0 0 1-2.56 18.14l-.03.07-.05.15q-.21.7-.55 1.68l-.26.79-.19.54-.08.23-.06.17-.2.6-.07.18-.06.17-.1.26-.1.28-.05.14-.11.3-.21.56-.1.25-.12.33-.05.1-.11.29-.1.25q-.08.17-.13.33l-.14.32-.16.4-.25.58q-.58 1.31-1.23 2.56l-.28.55-.16.3-.14.24-.04.06-.12.2q-.1.2-.24.4a10 10 0 0 1-.57.9l-.13.2-.43.6-.02.01-.06.1-.01.01-.13.17-.17.2-.34.4a108 108 0 0 0-5.73-5.56l.14-.18q.28-.35.54-.71l.11-.17.05-.06.08-.11.07-.12.07-.1.07-.12.07-.11.07-.13.07-.12c2.04-3.7 3.35-7.74 4.58-11.76 2.2-7.99 2.3-16.32 1.4-24.44-1.69-12.6-10.16-23.21-19.96-30.81a88 88 0 0 0-8.6-5.82l-.16-.08-.08-.04-.3-.16-.27-.12-.1-.04q-.3-.15-.62-.28a37 37 0 0 0 4.2-5.4q.3-.48.57-.98l.91.49.15.08.24.13.52.3.44.26.46.28.4.23.5.32.4.25.11.08.76.5.21.14.21.15.33.22 1.37.97.42.3.42.31.92.7.05.03a85 85 0 0 1 2.3 1.81l.8.65 1.6 1.3.43.38.23.2.33.3q.27.22.51.45l.2.18.4.36.49.46.04.04.42.4.1.09.45.45.45.44.56.57.38.4.12.12.32.33.2.21.36.4.81.9.25.29.29.33.9 1.1.24.28.46.58.46.59.88 1.18.24.34.18.26.22.3.2.3.21.3.18.27.23.34.4.62.38.61.94 1.57.35.63.18.32.16.3.18.34a51 51 0 0 1 1.13 2.27l.05.1.07.15.47 1.07.14.33.15.34.07.2.2.5.13.3q.08.18.13.35l.13.33.05.15.06.14.07.22.31.86.11.33.02.05.1.34.22.67.01.02.01.03.09.3.1.34.1.36.04.1.06.24.1.35.1.36.09.35.08.36.05.19.03.1.23 1.02.02.09.08.38.05.25.05.27.03.14.01.06.27 1.55.07.47v.03l.07.45.01.06.01.05.02.17.04.3.08.7.09.78.06.74.04.4.01.21v.03l.04.5v.07l.06 1.17v.2l.02.43v.27l.01.5v.65zm-53.16-93.99c6.56 7.97 5.92 19.74.85 28.3-4.48 7.67-13.84 10.49-22.27 9.2l-1.07-.18q-.12 0-.22-.03l-.21-.04-.22-.04-.43-.09-.64-.14-.21-.05-.21-.05-.21-.06q-.21-.04-.43-.12l-.17-.05-.47-.15.38-.78 3.12-6.42c8.16 2 16.37-.42 18.6-9.91 1.7-5.58.71-11.87-3.6-16.02-.5-.5-1.11-.94-1.74-1.38l3.51-7.23q.75.45 1.45 1.02l.1.08.1.08.17.14.15.13.86.77.46.44.09.09a38 38 0 0 1 2.26 2.48m4.93-92.23c-6.97-7.86-16.49-12.92-25.84-17.41-5.23-2.28-10.8-3.57-16.2-5.35-3.79-1.26-7.56-2.56-11.47-3.44-1.86-.52-4-.65-5.35-2.19-2.76-3.17.96-8.04 4.74-6.1a243 243 0 0 1 17.4 5.21c8.62 2.3 16.97 5.52 24.6 10.18 6.63 3.83 13.07 8.2 18.02 13.97 3.25 3.95-2.44 8.94-5.9 5.13"/><path fill="#b3d1da" d="M222.25 305.5c.43.8.58 1.77.26 2.8-.5 1.26-1.14 2.47-1.6 3.75l-.11.25a127 127 0 0 1-3.33-2.26l-.23-.16c-.96-.71-2.09-1.45-2.91-2.36a4 4 0 0 1-1.14-3.06 3.95 3.95 0 0 1 4.96-3.6q1.28 1.23 2.67 2.3a4 4 0 0 1 1.43 2.34m113.25-17.84c1.57 1.64 1.69 4.62-.62 6.06l-.91 1.58-.62 1.07c-.77.17-1.6.1-2.35-.24a3.93 3.93 0 0 1-2.01-5.15l2.05-4.03q.63-.29 1.39-.41a3.7 3.7 0 0 1 3.06 1.12"/><path fill="#8a1f6a" d="M191.17 542.6c-4.9-.72-15.06-9.12-7.55-12.98 3.74-1.12 4.28 2.18 6.58 3.97 9.03 6.2 7.93-10.6 7.59-15.56-.98-11.82-3.7-23.41-6.8-34.83a157 157 0 0 0-10.1-31.21c-2.3-5.78-5.67-11.06-9.37-16.05-.86-.95-1.58-2.25-2.84-2.67-6.62 6.58-2.63 30.6-1.43 39.68.8 4.72 1.52 9.47 2.37 14.18.21 2.81 2.43 6.39.73 8.9a3.94 3.94 0 0 1-5.43 1.03c-2.82-1.63-3.84-15.36-4.78-19.16-.4-2.71-.87-5.73-1.32-8.93-.2-4.81-.27-9.63-.05-14.44.3-6.4.94-12.79 2.24-19.07l.06-.3.05-.2-.01.04.01-.05v.02-.02a100 100 0 0 1 1.94-7.26c3.6-3.14 8.95-3.05 12.62 1.11 9.37 10.58 14.55 24.12 18.96 37.36 3 10.7 5.65 21.5 8.13 32.34 2.16 12.33 9.44 44.18-9.8 44.18q-.87 0-1.8-.09"/><path fill="#8a1f6a" d="M211.7 534.55c-5-1.3-2.15-6.91-2.43-10.5q.02-10.81-1.96-21.44c-3.1-16.7-7.42-33.2-12.52-49.4-2.16-7.33-12.5-30.06-22.4-23.48-1.66.77-2.51 2.68-4.4 3-2.84.67-5.5-2.46-4.42-5.18.75-1.92 2.6-3.08 4.25-4.2 13.02-8.67 24.17 5.3 29.72 15.96 4.7 9.41 7.3 19.7 10.04 29.8 4.23 16.89 9.1 33.86 9.45 51.38-.18 4.25 1.32 15.09-5.33 14.06"/><path fill="#8a1f6a" d="M218.25 480.82c-1.7-1.18-2.2-3.8-.91-5.46 2.6-3.29 5.46-6.54 6.83-10.57 2.05-6.87 1.88-14.81-1.5-21.2-5.85-10.74-18.5-16.27-30.43-15.4-2.2.23-4.33.87-6.44 1.5a3.96 3.96 0 0 1-5.1-1.4c-1.13-1.66-.6-4.26 1.09-5.3 1.63-1.01 3.67-1.27 5.5-1.83 7.32-1.87 15.1-.56 22.2 1.67 13.82 5.19 24.24 17.85 23.83 33-.07 5.3-.94 10.74-3.47 15.44-1.66 3.13-3.93 5.87-6.14 8.63a3.95 3.95 0 0 1-5.46.91"/><path fill="#8a1f6a" d="M232.63 492.69c-.54-6.65 7.8-3.54 10.95-7.45-.05-4.08-1.44-7.97-2.45-11.89-.6-2.1-1.1-4.26-2.06-6.24-.44-1.19-1.56-1.3-2.66-1.1-2.18.27-4.33 1-6.53.97-2.72-.1-4.43-3.4-3.1-5.74 1.36-2.57 4.64-2.06 7.06-2.75 9.69-2.12 12.86 4.41 14.78 12.6 1.16 4.43 2.67 8.84 2.77 13.45.32 3.05-1.3 5.81-3.76 7.53a14.5 14.5 0 0 1-6.9 3.05c-3.16.8-7.07 1.77-8.1-2.44"/><path fill="#8a1f6a" d="M241.69 516.66c-14.97-1.6-15.5-13.88-6.78-23.7l-.04.06c1.88-2.07 3.74-5.2 6.89-5.04a3.95 3.95 0 0 1 3.54 4.25 4 4 0 0 1-2 3.08 36 36 0 0 0-4.84 6.06c-2.4 3.93-2.13 6.72 2.92 7.36 1.47.25 2.96.22 4.44.12q.14 2.22.32 4.43c.09 1.12.14 2.26.31 3.38a34 34 0 0 1-4.76 0m-83.05-55.03q.32 5.65.35 11.3a259 259 0 0 1-.35-11.3"/><path fill="#8a1f6a" d="M164.03 497.49a4 4 0 0 1-1.62-2.52 216 216 0 0 1-3.65-16.85c-1.73-11.7-3.84-23.72-1.93-35.52 1.23-6.21 6.55-22.57 14.97-19.68a3.95 3.95 0 0 1 1.68 5.27c-.72 1.73-2.83 1.7-3.82 3.12-2 2.88-3.24 6.2-4.37 9.5-3.33 13.77.01 28.26 2.29 41.97.26 3.56 3.85 11.16 1.9 13.72a3.94 3.94 0 0 1-5.45.98m-14.81-60.16c1.45 11.54 3.15 23.69 2.12 35.42a58 58 0 0 1-4.49 18.41l-.1.24-.11.23-.12.25a23 23 0 0 1-1.3 2.4l-.2.34-.15.23-.3.46-.02.04a23 23 0 0 1-4.53 5.2 8 8 0 0 1-4.3 1.92 3.94 3.94 0 0 1-3.45-4.82c.24-.95.83-1.68 1.54-2.33 1.16-1.07 2.66-1.95 3.53-3.23 3.02-4.2 4.58-9.24 5.39-14.3q.49-2.82.74-5.65c.98-10.77-.41-21.64-1.8-32.34-1.9-12.36-3.28-25.47-8.8-36.8a48 48 0 0 0-3.58-6.16c-5.22-6.85-10.87-6.23-15.27-2.46l-.23.2.02-.26.06-.73.08-1 .08-.93.1-.97.1-1.2.25-2.66.02-.19q.08-.86.2-1.73a15.7 15.7 0 0 1 10.84-.36l.12.04.13.05.15.05.2.07.83.35.15.06.62.3.17.09a20 20 0 0 1 3.09 1.96l.1.08.14.11.25.2.2.16.04.04.18.15.18.15.84.77.25.23q1.3 1.47 2.44 3.02l.33.45a26 26 0 0 1 .9 1.31l.66 1 .2.34.42.68.2.35a50 50 0 0 1 1.69 3.14l.13.27.04.09.17.36.34.72.16.36.2.45.58 1.38a66 66 0 0 1 2.41 6.98l.18.6.33 1.21a94 94 0 0 1 1.63 7l.12.6.23 1.2.12.6q.3 1.59.56 3.18.28 1.6.53 3.19l.31 1.98.31 1.98.36 2.37z"/><path fill="#8a1f6a" d="M161.92 444.23c-.02 11.79.34 23.62-.68 35.38-.78 4.42.27 16-5.6 16.07h-.07q-.85.01-1.91-.34c-2.22-1.3-2.26-2.91-1.85-4.67l.05-.21.37-1.34.09-.32.14-.53.05-.2.05-.22q.08-.34.13-.67l.02-.2c1.5-12.5 1.49-25.1 1.4-37.66.18-14.75-2.27-29.62-7.78-43.34a149 149 0 0 0-2.78-6.36 44 44 0 0 0-.92-1.84 52 52 0 0 0-2.06-3.54l-.36-.54-.1-.13v-.01l-.23-.33a29 29 0 0 0-2.7-3.25l-.07-.08-.07-.07-.14-.14-.44-.42-.3-.27a23 23 0 0 0-1.83-1.46 19 19 0 0 0-3.29-1.9 13 13 0 0 0-3.04-1.07 9 9 0 0 0-2.66-.1q-.08 0-.15.02-.87.12-1.69.41a10 10 0 0 0-1.88.92q-.85.53-1.65 1.21c-2.27 1.93-4.19 4.68-5.95 7.33l-.24.36v-.16l.03-.26.06-.74.08-.99.08-.93.09-.97.1-1.2.26-2.66.02-.19q.08-.86.19-1.72l.47-3.56.08-.54q.95-.81 1.98-1.53 1.36-.94 2.88-1.67 2.43-.87 4.88-.98 2.41-.12 4.76.4a25.5 25.5 0 0 1 10.04 4.88 31 31 0 0 1 2.52 2.16l.33.31.62.62.18.19.1.11.21.22.54.59.26.29.16.2.1.1.18.22.07.07.24.3.25.3.24.31.23.31.23.3.45.63.45.75.01.02.44.75.06.1.91 1.63.3.56.1.17.06.12.34.64.4.78.36.7.2.4.06.12.5 1 .25.53.7 1.51.33.72.1.23.25.57a101 101 0 0 1 1.28 3.08c5.13 12.9 7.67 26.88 8.12 40.7z"/><path fill="#000" d="M204.7 279.4c-1.89-.83-2.95-3.25-2-5.16l8.5-17.24 10.61-21.53 10.78-21.86 10.94-22.18 10.82-21.93 10.7-21.7 10.37-21.04 10.55-21.39 10.43-21.16q.32-.66.66-1.31a4 4 0 0 1 2.13-2.06 4 4 0 0 1 3.02.05c1.9.83 2.94 3.24 2 5.16l-.15.31-.08.16c-1.63 3.23-3.2 6.49-4.8 9.73l-5.15 10.44-10.6 21.5-10.35 20.99-10.7 21.69-10.9 22.1-10.74 21.8-10.86 22.02-10.6 21.5-9.3 18.85-.12.25a3.9 3.9 0 0 1-5.16 2"/><path fill="#000" d="M215.92 309.26c-10.32-7.75-16.41-21.15-13.84-34 1.06-3.89 6.75-3.63 7.64.12.38 1.34-.25 2.62-.35 3.95-.1 2.4.1 4.8.5 7.16 1.39 6.7 5.57 12.53 10.95 16.67 3.95 3.28-.85 9.25-4.9 6.1"/><path fill="#000" d="M222.68 307.09v.1q0 .55-.18 1.12c-.5 1.26-1.13 2.47-1.6 3.74l-.1.25-.74 1.89-.23.63-.23.64-.22.64-.21.63-.23.68-.2.6-.42 1.32-.59 1.87-.01.04-.4 1.28c-1.56 5.53-4.15 10.82-4.84 16.56a9 9 0 0 0-.03 1.85l.02.12v.09l.02.05.01.12.03.17.01.09.02.08.02.1.01.06.03.1a5 5 0 0 0 .18.62v.02l.24.58.07.15.07.14.07.14.08.13a8 8 0 0 0 .48.79l.09.12.17.25c.55.76 1.13 1.48 1.58 2.29q.56.94.73 2.2c.06 2.15-1.8 3.69-3.72 3.85-1.1.1-2.2-.25-3.02-1.17a19 19 0 0 1-2.63-3.45c-4.28-7.2-1.84-15.22 1.17-23.2 2.54-6.95 3.9-14.61 7.84-20.94 1.96-2.01 5.08-1.03 6.23 1.07l.13.27.03.08.03.08q.09.22.15.48l.02.1.01.05.01.08.02.1v.02l.01.07v.07l.01.1z"/><path fill="#000" d="m161.79 367.77-.63-1.34a10 10 0 0 0-4.41-4.73q.3-.12.64-.2l14.73-3.84 16.15-4.2 15.7-4.09c3.13-.81 6.25-1.66 9.39-2.44 2.07-.52 4.2 1 4.63 3.02.21 1.03 0 2.12-.59 2.99a4 4 0 0 1-2.44 1.64c-4.62 1.16-9.21 2.4-13.82 3.6l-15.92 4.14-16.2 4.22-6.93 1.8z"/><path fill="#000" d="M161.16 366.43q-.63-1.35-1.56-2.45a3.9 3.9 0 0 1 1.74 2.83zm141.18-42.2a60 60 0 0 1-3.35 2.6l.9-1.42q1.26-.51 2.45-1.18m28.66-28.1a3.93 3.93 0 0 1-2.01-5.15q5.9-11.45 11.01-23.27c1.89-4.14 3.93-8.2 5.95-12.28 1.68-3.24 3.13-8.88 7.92-6.44a3.95 3.95 0 0 1 1.32 5.37 433 433 0 0 0-11.23 23.7c-2.39 5.46-5.12 10.74-7.8 16.05a3.95 3.95 0 0 1-5.15 2.02"/><path fill="#000" d="M395.06 313.63c-7.53-4.38-16.15-6.3-24.48-8.59-9.87-2.96-20.13-4.22-29.97-7.26-2.86-.93-4.88-1.52-7.4-2.88-2.94-1.6-2.2-6.42 1.05-7.13 1.82-.55 3.33.76 4.97 1.3q3.58 1.28 7.25 2.3c4.82 1.35 9.77 2.08 14.64 3.19 5.67 1.31 11.28 2.88 16.9 4.37 7.26 2.04 14.57 4.15 21.1 8 4.31 2.8.45 9.22-4.06 6.7"/><path fill="#000" d="M398.15 313.73a3.95 3.95 0 0 1-3-5.52c.7-1.9 2.84-2.07 4.19-3.29 6.11-6.3 7.93-16.55 5.45-24.85-1.18-3.92-3.58-7.2-5.85-10.55-1.7-2.64-3.17-5.46-5.15-7.92-2.14-2.16-4.59-4-2.35-7.23 3.86-4.2 8.08 1.65 10.23 4.78 5.66 9.32 11.64 15.43 12 27 .7 9.16-4.94 26.57-15.52 27.58"/><path fill="#000" d="M372.24 264.9c-7.38-.74-16.34-3-21.72-8.34-2.88-4.41 3-8.59 6.42-4.67 4.56 3.12 10.1 4.56 15.53 5.18a22.8 22.8 0 0 0 16.3-5.85c4.14-2.99 8.73 3.12 4.65 6.29a30.2 30.2 0 0 1-21.18 7.38m41.61-52.95c-4.38-.75-2.99-5.17-3.7-8.32a29 29 0 0 0-7.58-13.5c-3.67-3.1-7.72-5.96-12.12-7.94-2.14-.68-4.83-1.5-5.07-4.14-.5-3.1 3.23-5.55 5.88-3.85 6.16 2.04 11.58 5.96 16.51 10.1 4.66 4.39 7.9 10.21 9.7 16.32.88 3.85 2.58 11.71-3.62 11.33"/><path fill="#000" d="M451.8 373.62c-1.84-2.5-.17-5.06 2.06-6.5 2.48-2.23 4.6-4.83 6.7-7.4a71 71 0 0 0 11.59-18.96c3.64-8.58 6.8-17.42 8.1-26.67 3.23-24.98-2.92-51.7-19.51-71.04-5.08-5.74-10.58-11.22-16.83-15.69a211 211 0 0 0-12.6-7.53c-4.5-2.32-9-4.66-13.74-6.46-1.65-.64-3.6-.88-4.73-2.38-2.46-3.26 1.42-7.81 5.03-5.76 8.45 2.85 16.38 7.13 24.02 11.69a95 95 0 0 1 39.17 44.47c10.3 24.54 10.57 53.16.24 77.72-3.28 8.4-7.3 16.62-13.1 23.58a118 118 0 0 1-6.86 8.07c-2.48 2.52-6.3 6.79-9.54 2.86m-32.1-163.8.04-.1v-.02z"/><path fill="#000" d="M494.68 492.05c.47 2.01.52 4-.52 5.83q-.3.53-.72 1.05a13 13 0 0 1-3.1 2.13q-1.2.6-2.53 1.04l-.14.05-.34.1-.36.11-.27.08-1.31.34-.36.08-.4.08-.27.06-.62.12-.1.02-.94.15-.81.12-.53.07-.4.06c-2.9.34-5.89.47-8.67.6q-.43 0-.85.03h-.04l-.83.04-1.73.09-1.6.1-.37.04-.36.03-2.37.1-2.37.13q-3.36.19-6.7.4l-1.58.1-5.92.32-4.86-4.25-.99-.88-2.25-2-.3-.27q.57-.19 1.17-.19l1.38-.01 1.02-.02.58-.02.54-.01 1.45-.06 1.06-.04 3.9-.2 2.3-.21 1.15-.09.58-.04 1.15-.07 1.74-.1 1.43-.05.3-.02h.02l1.73-.06h.01l.57-.02h.01l1.17-.04.56-.02 4.6-.15h.1l1.1-.06h.13l.79-.04 3.23-.2h.2l1.7-.15h.03l.84-.08h.06l.09-.01.37-.04.18-.02.69-.08.67-.08.8-.1.15-.02.98-.14.08-.02.1-.01h.04l.32-.06.11-.02.47-.08.14-.02.62-.11.74-.14.3-.06.59-.12.39-.09.35-.08.06-.01.44-.1.75-.19q.08 0 .14-.03l.36-.1.1-.02.36-.1.45-.12.37-.11.15-.04-.43-1.31-.83-2.62-.43-1.32-.83-2.62-.42-1.3-.21-.66-1.04-3.28-.42-1.31-1.12-3.58-1.09-3.46-1.9-6.09-.1-.33-.3-.99-.4-1.31q-.15-.4-.26-.82l-.15-.5-.2-.65-.2-.66-.3-.99-.1-.32-.3-.94-.51-1.7-2.37-7.9-.4-1.32-.26-.9-.32-1.07-.58-1.98-.39-1.32-.19-.66-.19-.66-.38-1.33-.38-1.32-1.7-5.98-.38-1.33-.18-.63-.37-1.32-.55-1.99-.54-1.99-.16-.58-.06-.2-.12-.46-.02-.08-.55-2-.53-1.99-.48-1.79-.58-2.2-1.73-6.66-.28-1-.84-2.98-.85-3-.29-.99-.28-.99-.28-1-.29-.99-.16-.55-.13-.45-.57-1.99-.29-1-.29-.99-.17-.58-.74-2.49-.27-.9-.67-2.24-.53-1.73-.15-.49-.23-.74-.37-1.17-.18-.56-.05-.18-.1-.31q0-.05-.03-.08l-.13-.42-.2-.62-.35-1.1-.9-2.69-.08-.23-.01-.05-.04-.1-.03-.09-.14-.37q-.15-.34-.27-.7l-.02-.04-.2-.56-.05-.19-.02-.03-.04-.16-.04-.13v-.03l-.02-.08v-.03l-.03-.13-.02-.13-.03-.26v-.53l.02-.16v-.01l.02-.16.03-.1a3.5 3.5 0 0 1 1-1.83 4 4 0 0 1 1.34-.9 4.2 4.2 0 0 1 2.97-.14 3.7 3.7 0 0 1 1.83 1.42l.45 1.23.3.83c7.8 21.88 12.94 45.06 19.33 67.5a717 717 0 0 0 4.66 15.09l1.74 5.47.87 2.73 3 9.58.85 2.75a601 601 0 0 1 2.78 9.23l.04.15.15.43.1.29.21.58.11.3.17.44.1.3.33.89.05.15.1.3.05.15.18.56.03.07.11.39.02.06.17.6.05.25.02.05z"/><path fill="#000" d="m441.72 500.4-2.35-2.1c1.04.27 1.97.98 2.48 2.2zm-45.62 9.78c-4.8-1.68-2.35-8.98 2.52-7.41l.31.11q-.06.93.06 1.84c.18 1.34.64 2.8 1.4 3.91.39.58.76 1.2 1.22 1.74l.83.95c-2.14-.04-4.3-.52-6.33-1.14"/><path fill="#000" d="m400.39 508.63.6.92a3.8 3.8 0 0 1-2.5 1.18l-1.09.07-.65.04-2.67.18-25.78 1.7-16.77 1.1-16.86 1.11-33.8 2.23-16.7 1.1-8.15.54q-.83.06-1.67.08H274a4.3 4.3 0 0 1-3.39-1.82l-.03-.04a12 12 0 0 0 1.17-1.75 8 8 0 0 0 1.38-1.49l.16-.23a9.5 9.5 0 0 0 1.15-8.52l-.1-.28-.3-.7a4 4 0 0 1 2.27 1.36l.2.25a4 4 0 0 1 .6 1.35l.03.1.06.42v.07l.14 1.86.02.27.08 1.13.35-.02 4.13-.28 3.58-.23 4.87-.32 16.75-1.1 16.9-1.12 15.78-1.04 1.12-.07 16.57-1.1 16.86-1.1 14.94-1 1.03-.06.72-.05.6-.04 5.53-.36.76-.05q.51-.03 1 .06a9 9 0 0 0 .09 1.84c.19 1.3.64 2.72 1.38 3.8zm-272.62-8.37-.95-2.58a215 215 0 0 1-4.07-12.25c3.14 4.1 6.98 7.49 11.75 9.4 5.1 1.78 11.34 1.26 15.62-2.19 2.92-2.1 2.64-7.32 7.37-6.23 6.56 2.57.2 10.51-3.36 13.02-4.13 3.1-9.4 4.21-14.48 4.25a27 27 0 0 1-11.88-3.42"/><path fill="#000" d="M155.03 491.02c-2.06-1.96-1.15-5.62 1.5-6.53 1.09-.53 2.17-.05 3.26-.36 2.79-.88 6.28-1.41 7.34 2.12.9 3.99-2.8 5.1-5.95 5.56-2.06.43-4.52.9-6.16-.8"/><path fill="#000" d="M191.77 545.35c-10.67-3.95-17.94-18.77-22.1-28.79-3.25-7.5-6.13-15.17-7.98-23.15-.46-2.91-2.25-6.11-.78-8.95a4.1 4.1 0 0 1 5.53-1.51 3.9 3.9 0 0 1 1.82 4.27q.9 4.08 1.99 8.1a118 118 0 0 0 5.54 15.6c3.47 8.78 7.67 17.52 14.27 24.4 3.5 3.1 8.6 4.57 12.92 2.27 3.9-1.57 2.63-9.06 8.23-7.7 4.78 1.6 2.33 6.62.66 9.73-3.86 6.59-13.32 8.46-20.1 5.72"/><path fill="#000" d="M213.52 536.6c-8.85-.58-5.67-12.25 1.11-7.75 5.63.7 22.21-3.89 26.34-7.81 4.16-3.48-.17-9.52 4.93-11.06l.24 3.3c.1 1.33.16 2.68.42 3.99.33 1.61.9 3.09 1.92 4.4q.41.52.9.97c-3.12 6.35-10.68 9.07-17.17 10.94-5.12 1.5-10.46 3.2-15.84 3.2q-1.43 0-2.85-.18"/><path fill="#000" d="m245.78 508.05.04.65q.14 2.3.32 4.58l.1 1.41c-2.54-1.4-2.47-5.03-.46-6.64M158 362.47a4 4 0 0 1 2.92 3.48 10 10 0 0 0-2.93-3.48M298.15 84.68c-.3-5.2 8.72-9.52 12.86-11.33 10.05-4.11 21.17-3.49 31.5-.79 4.93 1.27 3.1 8.76-1.87 7.6-5.54-1.3-11.22-2.37-16.92-1.86-5.45.59-10.89 2.17-15.43 5.3-1.69 1-2.73 2.7-4.28 3.85-2.23 1.42-5.54-.08-5.86-2.78"/><path fill="#000" d="M338.47 74.87c-.04-2.1 1.7-4 3.83-4a3.96 3.96 0 0 1 4 3.82c.04 2.1-1.7 4-3.83 4a3.96 3.96 0 0 1-4-3.82"/><path fill="#000" d="M395.28 103.16c-1.92-.76-3.05-3.12-2.2-5.08 1.92-4.53 4.08-8.97 5.69-13.63 3.12-10.07.44-10.77-7.9-15.28-8.13-3.53-16.45-6.8-25.18-8.53-10.22-1.43-11.04-1.05-15.44 8.13-1.37 2.47-2.87 4.88-4.17 7.4-.52 1.19-1.21 2.36-2.47 2.87-3.5 1.66-7.1-2.86-4.72-5.93 3.19-5.56 5.9-11.5 9.52-16.78 6.87-6.56 17.4-3.85 25.6-1.72 8.45 2.55 16.95 5.5 24.62 9.91 8.37 4.4 10.59 9.96 8.45 19.12-1.24 5.57-3.92 10.67-6.1 15.9-.69 2.5-2.98 4.77-5.7 3.62"/><path fill="#000" d="M411.3 134.08c-4.67-1.2-2.01-6.24-2.74-9.52-1.96-5.15-5.76-9.47-9.15-13.75-2.07-2.43-4.78-4.3-6.6-6.94-2.65-4.55 4.31-8.52 6.84-3.9a76 76 0 0 1 11.19 12.89c3.86 5 6.93 11.07 5.34 17.53-.1 2.42-2.52 4.33-4.89 3.7z"/><path fill="#000" d="M386.83 180.68a3.96 3.96 0 0 1-1.49-5.33c2.64-5.11 5.5-10.1 8.27-15.14 5.04-9.35 9.93-18.8 13.36-28.89.8-1.86 1.14-4.05 2.5-5.61 2.3-2.45 6.68-.7 6.7 2.66-.58 3.3-2.37 6.38-3.33 9.62-4.13 11.13-9.96 21.54-15.68 31.93a278 278 0 0 0-4.02 7.42c-.92 2.62-3.52 4.94-6.31 3.34"/><path fill="#b3d1da" d="m281.91 510.57 3.58-.23c-1.3 3.56-2.86 8.05-7.18 6.35-3.16-1.67-2.17-4.57-.98-7.21l.02.25.08 1.14.35-.02zm101.87-208.9c12.15.92 10.25 8.47 6.14 9.39-6.19-2.68-12.85-4.24-19.35-6.02l-2.8-.8a22 22 0 0 1 16-2.57"/><path fill="#b3d1da" d="M399.78 307.45q3.03.96 5.98 2.2c-1.88 2-4.09 3.43-6.58 3.92-1.1.74-2.57.93-4.12.06q-1.09-.63-2.21-1.2c-1.35-2.54.65-6.2 3.76-5.9l.4.07q1.4.4 2.76.85m59.67 65.21q.08.56.02 1.08c-.12 1.25-.8 2.35-2.47 3.07a3.96 3.96 0 0 1-5.03-2.32l-.44-1.1.03-.14c-1.41-2.37.2-4.75 2.32-6.12q1.32-1.2 2.52-2.5.93 2.16 1.8 4.38a12 12 0 0 1 1.25 3.65m-61.27-117.84q-1.37.93-2.78 1.77a9 9 0 0 1-2.53 1.39q-.97.34-1.93.33a3.5 3.5 0 0 1-3.16-2.03c-1.22-2.59.07-4.07 2.48-5.76 1.92-.46 3.71.75 4.43 2.4 1.22.12 2.4.9 3.49 1.9m20.2-48.14c1.05 1.81.86 4.65.5 7.2l-1.3-.5c-1.22-.48-2.6-.74-3.7-1.44h-.02c-1.36-.23-2.16-.81-2.64-1.6 0-2.56.18-5.06 3.52-5.51l.36.01c1.65.1 2.67.8 3.28 1.84m-61.57 45.06-1.92 3.96a4 4 0 0 1-5.2 1.9 3.95 3.95 0 0 1-1.9-5.2l1.35-2.77c1.13-1.2 2.6-1.72 4.74-.63.69.4 1.2 1 1.51 1.7q.75.35 1.42 1.04m34.87-80.91a4 4 0 0 1 2.19 4.34q-.09.44-.3.86l-1.72 3.55-1.28 2.64-.11-.04c-1.02-.33-2.17-.69-3.12-1.26l-.5-.24a3.96 3.96 0 0 1-1.49-5.34l2-3.8a3.9 3.9 0 0 1 4.33-.71"/><path fill="#76939c" d="M384.97 491.87c-6.03-.62-9.28-7.75-7.2-13.1 1.34-4.4 9.26-12.5 12.93-6.27 1.4 3.8-1.5 4.71-3.97 6.47-1.72 1.04-2.93 6.48.38 4.7 6.48-4.65 13.05-9.5 20.82-11.74A83 83 0 0 1 421.2 470c.96-.14 2.1.03 2.93-.55-.32-3.05-4.06-2.07-6.2-1.79-5.08.75-6.35-6.72-1.32-7.71 4.68-.96 10.84-.72 13.6 3.8 1.38 2.6 2.47 5.77 1.26 8.63-2.02 5.12-7.93 5.44-12.65 5.65-2.87.35-5.74.75-8.56 1.36-4.6 1.4-8.84 3.83-12.83 6.47-3.77 2.59-7.46 6.61-12.45 6"/><path fill="#76939c" d="M396 510.26a40 40 0 0 1-8.9-9.87c-2.02-3.43-7.23-9.62-1.9-12.43a3.95 3.95 0 0 1 5.14 2.06q.44 1.22 1.02 2.37a55 55 0 0 0 5.44 8 60 60 0 0 0 4.62 4.24c.78.66 1.19 1.8 1.2 2.8.1 3.36-4.26 5.21-6.63 2.83m-6.93-15.57.11-.07.02-.04zm20.23 16.23c-4.26-1.5-7.86-6.95-9.94-10.8-.71-1.3-1.45-2.6-2.1-3.94-1.94-4.92 5.3-7.8 7.3-2.85 1.94 3.6 3.8 7.37 7 10.04 4.8 1.69 2.68 8.69-2.26 7.55m-1.69-6.6q.38-.34.78-.58l-.07.03-.4.28zm19.83 8.01c-5.6-1.43-12.4-7.38-15.55-12.18a88 88 0 0 1-5.2-9.48 3.94 3.94 0 0 1 5.05-5.17c1.44.52 2.09 1.9 2.7 3.18a88 88 0 0 0 4.32 7.69c2.7 3.5 6.5 6.86 10.65 8.43 4.2 1.71 2.55 8.08-1.97 7.53m9.51-8.41c-4.34-1.78-9.11-3.98-12.2-7.57-1.94-2.3-6.76-8.52-6-11.47.72-3.27 5.55-4 7.15-1.04 3.53 7.27 6.65 10.09 14.17 12.9a4 4 0 0 1 2.76 1.1 4.03 4.03 0 0 1-.3 5.98c-1.63 1.33-3.81.9-5.58.1"/><path fill="#76939c" d="M433.69 501.4c-3.37-1.85-2.16-7.1 1.65-7.33 1.7-4.1-5.17-9.15-7.7-11.85-1.57-1.49-2.98-3.11-4.43-4.71l.28.3c-3.77-3.67 1.46-9.26 5.33-5.74 4.1 5.03 9.8 8.73 12.94 14.5 3.15 4.82 2.04 13.16-4.01 15.03-1.27.43-2.88.52-4.06-.2"/><path fill="#000" d="M204.7 279.4c-1.89-.83-2.95-3.25-2-5.16l8.5-17.24 10.61-21.53 10.78-21.86 10.94-22.18 10.82-21.93 10.7-21.7 10.37-21.04 10.55-21.39 10.43-21.16q.32-.66.66-1.31a4 4 0 0 1 2.13-2.06 4 4 0 0 1 3.02.05c1.9.83 2.94 3.24 2 5.16l-.15.31-.08.16c-1.63 3.23-3.2 6.49-4.8 9.73l-5.15 10.44-10.6 21.5-10.35 20.99-10.7 21.69-10.9 22.1-10.74 21.8-10.86 22.02-10.6 21.5-9.3 18.85-.12.25a3.9 3.9 0 0 1-5.16 2"/><path fill="#000" d="M215.92 309.26c-10.32-7.75-16.41-21.15-13.84-34 1.06-3.89 6.75-3.63 7.64.12.38 1.34-.25 2.62-.35 3.95-.1 2.4.1 4.8.5 7.16 1.39 6.7 5.57 12.53 10.95 16.67 3.95 3.28-.85 9.25-4.9 6.1"/><path fill="#000" d="M222.68 307.09v.1q0 .55-.18 1.12c-.5 1.26-1.13 2.47-1.6 3.74l-.1.25-.74 1.89-.23.63-.23.64-.22.64-.21.63-.23.68-.2.6-.42 1.32-.59 1.87-.01.04-.4 1.28c-1.56 5.53-4.15 10.82-4.84 16.56a9 9 0 0 0-.03 1.85l.02.12v.09l.02.05.01.12.03.17.01.09.02.08.02.1.01.06.03.1a5 5 0 0 0 .18.62v.02l.24.58.07.15.07.14.07.14.08.13a8 8 0 0 0 .48.79l.09.12.17.25c.55.76 1.13 1.48 1.58 2.29q.56.94.73 2.2c.06 2.15-1.8 3.69-3.72 3.85-1.1.1-2.2-.25-3.02-1.17a19 19 0 0 1-2.63-3.45c-4.28-7.2-1.84-15.22 1.17-23.2 2.54-6.95 3.9-14.61 7.84-20.94 1.96-2.01 5.08-1.03 6.23 1.07l.13.27.03.08.03.08q.09.22.15.48l.02.1.01.05.01.08.02.1v.02l.01.07v.07l.01.1z"/><path fill="#000" d="M217.98 349.96a4 4 0 0 1-1.07 3.56q-.81.79-1.95 1.07-.24.04-.47.12a641 641 0 0 0-8.34 2.16l-5.01 1.31-15.92 4.15-16.2 4.22-4.85 1.25c-.34-2.08-.71-4.18-.88-6.29a10 10 0 0 0-.06-1.54l8.9-2.31 16.14-4.2 15.69-4.09 3.05-.8 4.67-1.21 1.67-.43a3.5 3.5 0 0 1 1.95.08q.05 0 .08.03a3 3 0 0 1 .6.26l.16.1a4 4 0 0 1 1.84 2.56m81.92-24.54q1.25-.52 2.44-1.19l-.39.32q-1.44 1.18-2.96 2.28zm31.1-29.29a3.93 3.93 0 0 1-2.01-5.15q5.9-11.45 11.01-23.27c1.89-4.14 3.93-8.2 5.95-12.28 1.68-3.24 3.13-8.88 7.92-6.44a3.95 3.95 0 0 1 1.32 5.37 433 433 0 0 0-11.23 23.7c-2.39 5.46-5.12 10.74-7.8 16.05a3.95 3.95 0 0 1-5.15 2.02"/><path fill="#000" d="M395.06 313.63c-7.53-4.38-16.15-6.3-24.48-8.59-9.87-2.96-20.13-4.22-29.97-7.26-2.86-.93-4.88-1.52-7.4-2.88-2.94-1.6-2.2-6.42 1.05-7.13 1.82-.55 3.33.76 4.97 1.3q3.58 1.28 7.25 2.3c4.82 1.35 9.77 2.08 14.64 3.19 5.67 1.31 11.28 2.88 16.9 4.37 7.26 2.04 14.57 4.15 21.1 8 4.31 2.8.45 9.22-4.06 6.7"/><path fill="#000" d="M398.15 313.73a3.95 3.95 0 0 1-3-5.52c.7-1.9 2.84-2.07 4.19-3.29 6.11-6.3 7.93-16.55 5.45-24.85-1.18-3.92-3.58-7.2-5.85-10.55-1.7-2.64-3.17-5.46-5.15-7.92-2.14-2.16-4.59-4-2.35-7.23 3.86-4.2 8.08 1.65 10.23 4.78 5.66 9.32 11.64 15.43 12 27 .7 9.16-4.94 26.57-15.52 27.58"/><path fill="#000" d="M372.24 264.9c-7.38-.74-16.34-3-21.72-8.34-2.88-4.41 3-8.59 6.42-4.67 4.56 3.12 10.1 4.56 15.53 5.18a22.8 22.8 0 0 0 16.3-5.85c4.14-2.99 8.73 3.12 4.65 6.29a30.2 30.2 0 0 1-21.18 7.38m41.61-52.95c-4.38-.75-2.99-5.17-3.7-8.32a29 29 0 0 0-7.58-13.5c-3.67-3.1-7.72-5.96-12.12-7.94-2.14-.68-4.83-1.5-5.07-4.14-.5-3.1 3.23-5.55 5.88-3.85 6.16 2.04 11.58 5.96 16.51 10.1 4.66 4.39 7.9 10.21 9.7 16.32.88 3.85 2.58 11.71-3.62 11.33"/><path fill="#000" d="M451.8 373.62c-1.84-2.5-.17-5.06 2.06-6.5 2.48-2.23 4.6-4.83 6.7-7.4a71 71 0 0 0 11.59-18.96c3.64-8.58 6.8-17.42 8.1-26.67 3.23-24.98-2.92-51.7-19.51-71.04-5.08-5.74-10.58-11.22-16.83-15.69a211 211 0 0 0-12.6-7.53c-4.5-2.32-9-4.66-13.74-6.46-1.65-.64-3.6-.88-4.73-2.38-2.46-3.26 1.42-7.81 5.03-5.76 8.45 2.85 16.38 7.13 24.02 11.69a95 95 0 0 1 39.17 44.47c10.3 24.54 10.57 53.16.24 77.72-3.28 8.4-7.3 16.62-13.1 23.58a118 118 0 0 1-6.86 8.07c-2.48 2.52-6.3 6.79-9.54 2.86m-32.1-163.8.04-.1v-.02z"/><path fill="#000" d="M441.72 497.93c2.85-.05 5.7-.2 8.55-.35 12.25-1.3 24.95 0 36.85-3.52-8.98-27.94-17.7-55.96-24.95-84.41-3.02-10.63-5.97-21.28-9.45-31.77-.33-1-.78-1.98-1.08-2.99-1.14-4.12 4.64-6.7 7.07-3.2 8.23 22.48 13.48 46.41 20.08 69.57 4.38 14.66 9.3 29.16 13.59 43.85 1.26 4.41 4.55 9.65 1.06 13.82-6.02 5.73-19 4.8-26.94 5.56-5.59.22-11.17.63-16.76.94zm-43.26 5.95-.1.04h-.43q.27 0 .53-.04m-2.36 6.3a3.67 3.67 0 0 1-2.54-4.2q1.72 2.28 3.57 4.5z"/><path fill="#000" d="m398.46 503.88-.1.04h-.43q.27 0 .53-.04m-124.47 15a4.3 4.3 0 0 1-3.39-1.81q0-.03-.03-.04.67-.83 1.18-1.75a9.4 9.4 0 0 0 3.04-8.92 10 10 0 0 0-.77-2.3 4 4 0 0 1 3.18 3.56l.15 2.12.08 1.14.36-.03 4.13-.27 8.44-.56 16.75-1.1 16.9-1.12 16.9-1.11 16.57-1.1 16.86-1.1 15.97-1.06 1.32-.09q.47.68.95 1.33 2.31 3.15 4.82 6.13l-12.81.85-16.29 1.07-16.78 1.1-16.86 1.11-16.66 1.1-17.12 1.13-16.71 1.1-8.15.54q-.83.07-1.67.09zm-146.22-18.62-.95-2.58a215 215 0 0 1-4.07-12.25c3.14 4.1 6.98 7.49 11.75 9.4 5.1 1.78 11.34 1.26 15.62-2.19 2.92-2.1 2.64-7.32 7.37-6.23 6.56 2.57.2 10.51-3.36 13.02-4.13 3.1-9.4 4.21-14.48 4.25a27 27 0 0 1-11.88-3.42"/><path fill="#000" d="M155.03 491.02c-2.06-1.96-1.15-5.62 1.5-6.53 1.09-.53 2.17-.05 3.26-.36 2.79-.88 6.28-1.41 7.34 2.12.9 3.99-2.8 5.1-5.95 5.56-2.06.43-4.52.9-6.16-.8"/><path fill="#000" d="M191.77 545.35c-10.67-3.95-17.94-18.77-22.1-28.79-3.25-7.5-6.13-15.17-7.98-23.15-.46-2.91-2.25-6.11-.78-8.95a4.1 4.1 0 0 1 5.53-1.51 3.9 3.9 0 0 1 1.82 4.27q.9 4.08 1.99 8.1a118 118 0 0 0 5.54 15.6c3.47 8.78 7.67 17.52 14.27 24.4 3.5 3.1 8.6 4.57 12.92 2.27 3.9-1.57 2.63-9.06 8.23-7.7 4.78 1.6 2.33 6.62.66 9.73-3.86 6.59-13.32 8.46-20.1 5.72"/><path fill="#000" d="M213.52 536.6c-8.85-.58-5.67-12.25 1.11-7.75 5.63.7 22.21-3.89 26.34-7.81 4.16-3.48-.17-9.52 4.93-11.06l.24 3.3c.1 1.33.16 2.68.42 3.99.33 1.61.9 3.09 1.92 4.4q.41.52.9.97c-3.12 6.35-10.68 9.07-17.17 10.94-5.12 1.5-10.46 3.2-15.84 3.2q-1.43 0-2.85-.18"/><path fill="#000" d="m245.78 508.05.04.65q.14 2.3.32 4.58l.1 1.41c-2.54-1.4-2.47-5.03-.46-6.64m52.37-423.37c-.3-5.2 8.72-9.52 12.86-11.33 10.05-4.11 21.17-3.49 31.5-.79 4.93 1.27 3.1 8.76-1.87 7.6-5.54-1.3-11.22-2.37-16.92-1.86-5.45.59-10.89 2.17-15.43 5.3-1.69 1-2.73 2.7-4.28 3.85-2.23 1.42-5.54-.08-5.86-2.78"/><path fill="#000" d="M338.47 74.87c-.04-2.1 1.7-4 3.83-4a3.96 3.96 0 0 1 4 3.82c.04 2.1-1.7 4-3.83 4a3.96 3.96 0 0 1-4-3.82"/><path fill="#000" d="M395.28 103.16c-1.92-.76-3.05-3.12-2.2-5.08 1.92-4.53 4.08-8.97 5.69-13.63 3.12-10.07.44-10.77-7.9-15.28-8.13-3.53-16.45-6.8-25.18-8.53-10.22-1.43-11.04-1.05-15.44 8.13-1.37 2.47-2.87 4.88-4.17 7.4-.52 1.19-1.21 2.36-2.47 2.87-3.5 1.66-7.1-2.86-4.72-5.93 3.19-5.56 5.9-11.5 9.52-16.78 6.87-6.56 17.4-3.85 25.6-1.72 8.45 2.55 16.95 5.5 24.62 9.91 8.37 4.4 10.59 9.96 8.45 19.12-1.24 5.57-3.92 10.67-6.1 15.9-.69 2.5-2.98 4.77-5.7 3.62"/><path fill="#000" d="M411.3 134.08c-4.67-1.2-2.01-6.24-2.74-9.52-1.96-5.15-5.76-9.47-9.15-13.75-2.07-2.43-4.78-4.3-6.6-6.94-2.65-4.55 4.31-8.52 6.84-3.9a76 76 0 0 1 11.19 12.89c3.86 5 6.93 11.07 5.34 17.53-.1 2.42-2.52 4.33-4.89 3.7z"/><path fill="#000" d="M386.83 180.68a3.96 3.96 0 0 1-1.49-5.33c2.64-5.11 5.5-10.1 8.27-15.14 5.04-9.35 9.93-18.8 13.36-28.89.8-1.86 1.14-4.05 2.5-5.61 2.3-2.45 6.68-.7 6.7 2.66-.58 3.3-2.37 6.38-3.33 9.62-4.13 11.13-9.96 21.54-15.68 31.93a278 278 0 0 0-4.02 7.42c-.92 2.62-3.52 4.94-6.31 3.34M132.64 378.36a62 62 0 0 1 4.72-1.84q1.34 1.71 2.61 3.48 1.14 1.6 2.22 3.26a36 36 0 0 0-6.31 2.22 4 4 0 0 1-1.7.36c-3.72 0-5.6-5.55-1.55-7.48m20.03 8.04q-1.15-1.18-2.32-1.92l.05-.11c.51-1.25.47-2.66.43-3.98l.01.45q-.04-1.2-.12-2.42a3.6 3.6 0 0 0 1.93-1.57 19 19 0 0 1 5.3 3.77c2.9 2.83.41 6.83-2.67 6.83-.86 0-1.76-.3-2.6-1.04"/><path fill="#000" d="M114.5 386.64c.16-1.77.44-3.53.66-5.29l.38-2.5.11-.2.32-.13c4.94-2.1 10.65-3.77 15.9-1.83 2.89 1 6.62 3.75 4.88 7.2a3.95 3.95 0 0 1-5.28 1.66c-1.61-1.2-2.38-1.87-4.53-1.91a22 22 0 0 0-12.64 5.1zm40.73-.56c-4.82-.82-3.46-5.48-2.78-8.96a3.4 3.4 0 0 0 .45-3.16q.32-2.25.73-4.49.4-2.53.5-5.1a4.4 4.4 0 0 1 .73-2.44c1.52-2.28 5.14-2.24 6.57.11.57.92.72 2 .48 3q-.07 2.02-.33 4.02c-.64 3.81-1.09 7.65-1.83 11.44-.16 2.86-.99 5.59-4.26 5.59z"/><path fill="#8a1f6a" d="M383.2 478.2c-2.55-1.48-1.95-9.86-2.61-12.9-1.38-11.63-2.6-23.27-2.92-34.98-1.13-22.06-1.47-44.75 5.25-66.04 4.88-17.04 25.34-26.92 37.8-11.1 8.66 11.82 3.08 31.38 2.92 45.28a1161 1161 0 0 0-1.76 62.92 3.96 3.96 0 0 1-3.76 4.05 3.95 3.95 0 0 1-4.06-3.76c-.18-5.6.04-11.19.18-16.78.38-15.72.6-31.42 1.6-47.12.24-12.21 3.74-24.83.39-36.83-4.35-10.25-15.97-10.02-22.17-1.58-7.74 11.82-8.66 32.45-9.21 46.43 0 15.73.66 31.5 2.2 47.16.69 5.96 1.38 11.9 1.92 17.88.07 2.16 1.08 4.58-.3 6.51a3.94 3.94 0 0 1-5.48.85"/><path fill="#8a1f6a" d="M385.14 478.92a3.95 3.95 0 0 1-2.95-4.72c1.33-3.72 5.99-5.04 9.08-7.01 7.7-3.87 15.53-8 24.21-8.93 5.47-1.51 7.74 6.36 2.15 7.62-8.36.69-15.82 4.8-23.2 8.47a58 58 0 0 0-5.09 3c-1.05 1.16-2.57 1.98-4.2 1.57"/><path fill="#000" d="M401.91 516.7c-3.26-.89-5.69-3.35-7.9-5.77l-.71-.75c-2.78-.22-4.53-3.65-2.94-6 1.56-2.35 5.01-3.13 7.05-.95 1.55 1.45 2.9 3.07 4.44 4.53 1.64 1.83 3.38 1.75 5.18.2 3.37-3.88 9.21.95 6.03 4.97-2.73 2.98-7.14 4.88-11.15 3.77"/><path fill="#000" d="M420.1 519.15c-5-.73-11.2-4.55-12.82-9.51a3.94 3.94 0 0 1 2.95-4.68c3.47-.57 3.77 1.73 5.6 3.71 1.75 1.3 3.93 3.14 6.24 2.53 1.07-.34 1.64-1.45 2.37-2.23a3.95 3.95 0 0 1 5.5-.53c3.67 3.26-.7 7.63-3.7 9.48-1.86 1-4.05 1.38-6.14 1.23"/><path fill="#000" d="M431.23 514.94c-2.8-.6-6.94-1.66-7.58-4.88a3.93 3.93 0 0 1 2.97-4.55c2.6-.61 4.4 2.15 7.07 1.78 2.45.08 3.9-2.3 4.73-4.31.77-1.71.8-3.96 2.48-5.1 2-1.41 4.45-.56 6.49.3 3.73 1.62 2.46 7.52-1.61 7.45-2.21 6.18-7.8 10.56-14.54 9.31"/><path fill="#c9d8dc" d="M487.12 494.06a43 43 0 0 1-2.67.7 55 55 0 0 1-4 .8l-.76.12-.98.14-.15.02-1 .13-.14.02-1.01.11-.7.08q-3.4.33-6.86.47h-.05c-6.19.27-12.42.28-18.53.93l-3.9.19a7.5 7.5 0 0 0-3.81-.58 11.7 11.7 0 0 0-.8-10.63c-2.72-4.99-7.35-8.43-11.2-12.52q.52-.73.9-1.66c1.22-2.86.13-6.04-1.26-8.63-1.79-2.93-5-4.06-8.31-4.23q.07-30.55 1.75-61.06c.16-13.9 5.74-33.46-2.92-45.29-12.46-15.81-32.91-5.94-37.8 11.1-6.72 21.3-6.38 43.98-5.25 66.05.32 11.7 1.54 23.35 2.92 34.97.37 1.73.34 5.17.7 8.1a15 15 0 0 0-3.53 5.37c-1.82 4.7.46 10.75 5.12 12.6-.09 2.97 2.83 6.66 4.22 9.02q1 1.62 2.18 3.11l-14.94.99-16.87 1.1-16.56 1.1-1.12.07-32.68 2.15-16.75 1.1-4.87.33q.38-1.07.77-1.95 2.36-6.15 4.52-12.37c4.22-12.68 7.98-25.51 12.8-37.99 15.17-41.37 26.18-84.7 48.52-123.03 5.3-8.77 10.83-18.05 19.44-23.95 4.5-3.08 9.99-2.07 14.94-.86a4.1 4.1 0 0 0 3.44.87q1.48.64 2.93 1.37.32.63.92 1.13c.68.63 1.56.84 2.43 1 2.81.77 5.53 1.83 8.17 3.06a83 83 0 0 1 21.32 15.33 103 103 0 0 1 16.85 21.3c3.66 6.04 6.33 12.61 8.98 19.15a4 4 0 0 0 .12 1.5l.12.37.13.38q.16.45.35.92a19 19 0 0 1 .47 1.31c1.96 5.9 3.75 11.85 5.49 17.82l.57 2 .57 1.98.85 2.99.85 2.99.85 2.99.28 1 .34 1.33a968 968 0 0 0 7.6 27.87l.38 1.32 2.71 9.24.79 2.63 1.59 5.27a1510 1510 0 0 0 7.35 23.64q2.07 6.56 4.18 13.1zm-75.91-283.72q.02 1-.01 1.97a89 89 0 0 1-6.78 23.9c-3.91 8.56-10.4 11.68-14.17 14.31q-.75.18-1.49.7a22.8 22.8 0 0 1-16.29 5.85c-5.44-.62-10.97-2.06-15.53-5.18l-.14-.15 1.05-2.15 6.73-13.87c1.45.5 2.98.77 4.5 1 8.42 1.29 17.78-1.54 22.26-9.2 5.07-8.57 5.7-20.33-.85-28.3-1.28-1.53-3.4-3.87-5.64-5.25l2.25-4.62 3.46-7.13c4.35 1.97 8.36 4.81 12.01 7.89a29 29 0 0 1 7.58 13.5c.5 2.18-.02 4.97 1.06 6.73M301.95 324.55l.39-.32q-1.2.67-2.45 1.19l-.9 1.4q1.51-1.08 2.96-2.26m106.6-199.98c.17.7.17 1.5.11 2.32-.74 1.38-1.09 3-1.7 4.43-3.42 10.09-8.32 19.54-13.36 28.9-2.08 3.78-4.2 7.53-6.25 11.33q-.55.5-.88 1.18l-3.08 6.34-14.66 30.19-7.37 15.18-7.32 15.08-4.91 10.11c-1.4 1.49-2.26 4-3.19 5.8-2.01 4.08-4.06 8.14-5.94 12.28q-4.22 9.75-8.97 19.24c-3.02 1.34-3.9 5.05-5.75 7.9-2.98 5.15-5.98 10.28-8.82 15.5-3.5 5.92-6.54 12.28-11.43 17.21a7.6 7.6 0 0 1-3.06 2.17q-.3-.16-.62-.25c-1.95-.72-3.64.8-5.55.98-5.64.54-11.3-.6-16.86-1.47-15.16-2.35-29.31-8.95-42.63-16.36a206 206 0 0 1-15.12-9.53c-1.04-.75-1.8-1.87-3.04-2.23-4.06-3.88-7.13-8.83-8.28-14.38a35 35 0 0 1-.5-7.15q.1-.8.28-1.56a6 6 0 0 0 .33-.63l9.3-18.85 10.6-21.5 10.86-22.03L251.48 193l10.9-22.12 10.7-21.68 10.35-20.98 10.6-21.51 5.15-10.44c1.4-2.83 2.76-5.66 4.17-8.48q.34-.13.67-.33c1.55-1.15 2.58-2.84 4.27-3.85 4.55-3.12 9.99-4.71 15.43-5.3 4.7-.41 9.38.23 13.97 1.2 1.26.72 2.83.89 4.23 1.28 3.9.88 7.68 2.18 11.47 3.44 5.4 1.78 10.97 3.07 16.2 5.35 9.35 4.5 18.86 9.56 25.83 17.41q.5.55 1.04.86c1.02.96 2.05 1.92 2.95 2.98 3.4 4.28 7.2 8.6 9.15 13.75"/><path fill="#9bacb1" d="m271.3 367.03.06.01.18.02zm-.22-.02h.03zm-5.97-.73 2.37.3q-.43.79-.85 1.4l-1.36-.6-.67-.28q.27-.4.51-.83m16.54-28.82.5.07q-.56.25-1.18.28a11 11 0 0 0-2-.4h-.13l-.36-.04-.04-.08-.21-.38.21.03h.02l.68.13.18.02.5.09q.1 0 .2.03l.49.08zM390.88 69.17c8.34 4.5 11.01 5.21 7.89 15.28-1.27 3.67-2.88 7.2-4.44 10.75a91 91 0 0 0-11.02-7.33c-7.64-4.66-15.98-7.87-24.6-10.18a255 255 0 0 0-11.5-3.6c1-1.79 2.05-3.54 3.04-5.33 4.4-9.17 5.22-9.55 15.45-8.12 8.72 1.72 17.04 5 25.18 8.53M241.31 367.9c-.52 3.06-.94 6.18-2.52 8.91-.95.73-2.48.63-3.66.81a4 4 0 0 0-.76.14l-.49-.13a33.6 33.6 0 0 1-13.6-7.4c.74-3.32 1.87-6.56 2.7-9.87a72 72 0 0 0 18.33 7.54"/><path fill="#9cadb2" d="M435.27 286.18c.9 8.12.79 16.46-1.4 24.44-1.24 4.02-2.55 8.07-4.59 11.76a15 15 0 0 1-1.34 1.95 86 86 0 0 0-21.63-14.43l-.55-.24c5.6-5.93 8.43-16.87 7.92-23.5-.37-11.57-6.35-17.69-12-27a27 27 0 0 0-3.51-4.33 43 43 0 0 0 7-6q.91.39 1.75.84a88 88 0 0 1 8.39 5.7c9.8 7.6 18.27 18.22 19.96 30.81"/><path fill="#b3cfd7" d="M460.74 243.05c16.6 19.34 22.74 46.06 19.52 71.04-1.31 9.26-4.47 18.1-8.1 26.67a71 71 0 0 1-11.6 18.96c-1.36 1.65-2.71 3.32-4.17 4.9-4.05-9.54-9.05-18.68-15.65-26.7q-3.36-4.17-7.07-8.05c3.66-4.1 6.36-12.87 7.35-15.87 1.79-5.88 2.6-12 2.56-18.14.86-17.64-6.81-32.57-20.12-43.9-4.22-3.5-8.63-6.97-13.51-9.52 4.34-7.63 6.58-16.4 8.38-25.1.13-.97.35-2.18.54-3.46 4.26 1.72 8.35 3.85 12.44 5.96a211 211 0 0 1 12.6 7.53c6.25 4.46 11.75 9.94 16.83 15.68"/><path fill="#71a4b3" d="m456.2 364.17.2.45q-1.21 1.31-2.54 2.5c-2.12 1.38-3.73 3.75-2.31 6.12l-.03.15-.08-.2-.42-1.02-.37-.92a277 277 0 0 0-2.44-5.8l-.53-1.22-.27-.6-.15-.33-.19-.4-.24-.53-.21-.46-.16-.32-.28-.6-.3-.62-.3-.58-.24-.5-.17-.32-.12-.25-.2-.37-.44-.84-.2-.37-.3-.53-.31-.57-.35-.6-.7-1.2a103 103 0 0 0-16.86-21.3 83 83 0 0 0-21.32-15.33 52 52 0 0 0-8.16-3.06 4.6 4.6 0 0 1-2.44-1l-.14-.13-.07-.06-.07-.07-.07-.07-.06-.07-.18-.2-.04-.07-.2-.3-.1-.15q1.14.57 2.22 1.2a3.8 3.8 0 0 0 4.12-.05c2.5-.5 4.7-1.93 6.58-3.92l.55.23.74.35.7.33.15.07.81.4.33.17.92.48h.02l.72.38 1.31.73.27.15.63.36.57.33.09.06.67.4.64.39.06.04.68.42.64.41.16.1.44.29.26.17.4.27.23.15.52.36.85.59.56.4.52.37.38.28.26.19.8.6.66.5.6.47 1.32 1.04.5.42.34.27.17.14.36.3 1.2 1.03.54.48.57.51.04.03q2.97 2.67 5.74 5.55l.68.72.43.46.38.4.33.37.3.32.34.37.13.15.39.43 1.4 1.6.41.48.5.6.38.44 1.4 1.7a85 85 0 0 1 4.43 5.89l.42.62.38.56.23.36.89 1.35.43.68.35.57.29.47a65 65 0 0 1 1.83 3.13l.24.42.24.43.23.42.92 1.71.23.43.66 1.3.44.86.2.44.34.67.3.64.42.87.2.44.2.44.2.44.21.44.2.45.2.44.58 1.33zm-66.28-53.12-.08.02-.05.01-.06.01-.1.02-.1.01-.12.01-.18.01h-.12c-.85 0-1.75-.28-2.63-.96-4.95-1.2-10.44-2.22-14.94.86-8.6 5.9-14.13 15.18-19.43 23.95-22.34 38.34-33.36 81.67-48.52 123.03-4.82 12.48-8.58 25.31-12.8 38a415 415 0 0 1-4.53 12.36l-.06.15-.08.19-.07.17-.01.02-.28.72-.07.17-.2.53-1.78.12-1.8.12-4.12.27-.36.03-.08-1.14-.02-.26c.34-.76.7-1.5.98-2.18l.87-2.25q1.84-4.8 3.54-9.65a733 733 0 0 1 3.98-12.33l1.14-3.44 1.17-3.44.53-1.58 1.22-3.57 1.19-3.43.59-1.71 1.2-3.43.59-1.71c3.4-9.7 6.85-19.38 10.2-29.1 11.37-33.87 22.21-68.29 40.13-99.4 5.83-9.5 12.99-22.23 23.1-28.01q1.42.38 2.81.8c6.5 1.77 13.16 3.33 19.35 6.01m-97.99 27.37-1.95-.1-.48-.04-.52-.03-.5-.04-.15-.01-.7-.06-.55-.05-.32-.03-.65-.06-.48-.06-.3-.03-.27-.03-.5-.06-.83-.1-.19-.02-.43-.06-.37-.05-.8-.1-.29-.05q-1.46-.21-2.9-.46l-.49-.08h-.04a9.5 9.5 0 0 0-5.05-4.16c-1.2-.34-2.4-.67-3.57-1.09a34 34 0 0 0-2.49-.77q-.7-.21-1.43-.4c-.85-.2-1.6-.2-2.46-.2a8.6 8.6 0 0 0-4.51 1.4l-.31-.1-.86-.32-.21-.07a81 81 0 0 1-2.48-.94l-.26-.1-.79-.3-.9-.37-.79-.32-.4-.17-.75-.3-.79-.34-.01-.01-.9-.39h-.01l-.88-.4-.83-.36-.07-.03-.75-.35-.3-.13-.73-.34-.9-.42-.63-.3-1.13-.55-.87-.43-.79-.4-.34-.16-.54-.28-.23-.12-.68-.35-.97-.5-.83-.44q-1.73-.92-3.45-1.89l-.63-.35-.32-.19-.75-.43a351 351 0 0 1-9.03-5.42l-.49-.31-.86-.55-.73-.47-.73-.47.1-.26c.48-1.27 1.11-2.48 1.6-3.74.33-1.03.18-2-.25-2.8a4 4 0 0 0-1.43-2.35 32 32 0 0 1-2.67-2.29l.2.07.03.01.1.04.1.04.03.02.09.04.1.06.1.06a4 4 0 0 1 .48.33l.09.07c.4.32.76.7 1.15 1.04l.16.14.29.22.06.05q.03 0 .06.04a206 206 0 0 0 15.12 9.53c13.31 7.4 27.46 14 42.63 16.36 5.56.87 11.21 2 16.86 1.48 1.9-.18 3.6-1.7 5.54-.99a4 4 0 0 1 .63.25l.76-.37.1-.05.12-.06.56-.33.16-.11.13-.09.14-.1.1-.09.17-.13.09-.08.05-.04.18-.17.35-.37.06-.07.08-.1c4.9-4.94 7.94-11.29 11.43-17.22 2.84-5.22 5.84-10.35 8.82-15.49l.25-.4.08-.14a22 22 0 0 0 .75-1.37l.07-.14q.5-1.01 1.02-1.99l.08-.15a14 14 0 0 1 1.2-1.86l.07-.1.13-.14.1-.1q.04-.07.09-.12a6 6 0 0 1 .77-.71l.1-.08.24-.17.1-.06.18-.1.07-.05.2-.1.11-.06.14-.06q-1.01 2.02-2.05 4.03a3.93 3.93 0 0 0 2.02 5.15c.75.35 1.57.4 2.34.24l-2.57 4.52-1.9 3.36-3.84 6.82-.93 1.63-.83 1.47-.18.32-.84 1.47-.73 1.27-.83 1.45q-.3.48-.57.97l-.69 1.2-.94 1.61c-3.14 5.13-6.6 10.5-11.84 13.66-2.34 1.15-5.13 3.05-7.78 1.93l-.13-.06-.08-.04-.12-.07q-.3.08-.6.13-.15.04-.32.06-.09.03-.17.03l-.12.02-.2.04h-.05l-.24.04-.28.04q-.18 0-.34.04l-.29.02-.24.03-.25.02-.29.02-.56.03-.13.01-.26.01h-.27l-.41.02h-.34l-1.26-.03zm126.94-124.53-.17 1.1-.12.74-.23 1.42-.03.19-.26 1.28-.1.42a169 169 0 0 1-1.36 5.9q-.48 1.9-1.03 3.76l-.23.8-.71 2.24-.1.3-.22.63-.13.38-.46 1.26-.12.3-.76 1.92-.17.39a61 61 0 0 1-1.37 2.99l-.16.32-.3.58-.15.3-.14.26-.2.36-.2.36-.2.36q-.27.5-.57.98a37 37 0 0 1-4.92 6.15l-.16.16-.26.26-.15.15-.37.35-.27.26-.08.08-.46.41-.43.39h-.01a43 43 0 0 1-2.7 2.2l-.38.27-.09.06-.4.3-.08.05-.42.29-.03.02c-1.08-1.01-2.27-1.78-3.49-1.9-.71-1.66-2.5-2.87-4.43-2.4l1.1-.74.94-.61.22-.15.06-.03.16-.1.55-.37.26-.17 1.02-.7.16-.1q.8-.55 1.6-1.18l.24-.2.24-.19.72-.6.25-.21.25-.23.23-.21.24-.23.24-.23.24-.23.24-.24.23-.23.27-.3.22-.22q.1-.14.23-.27l.2-.23.03-.04.93-1.13.44-.6.17-.23.1-.13.18-.27.2-.3.03-.04.17-.26.25-.4q.07-.15.17-.28a23 23 0 0 0 1.01-1.88l.01-.01.19-.38.18-.4a89 89 0 0 0 6.78-23.9q.02-.96 0-1.97c.5.78 1.3 1.37 2.65 1.6h.03c1.1.7 2.47.96 3.68 1.44zm-28.42-31.71.1.04-3.45 7.13-2.25 4.63-3.51 7.24-1.56 3.2-7.43 15.32-4.27 8.78-3.12 6.43-.38.77-6.73 13.87-1.05 2.16a5 5 0 0 0-1.42-1.04c-.3-.7-.82-1.3-1.51-1.71-2.14-1.1-3.62-.57-4.74.63l4.9-10.11q3.68-7.54 7.33-15.08l7.37-15.18 7.33-15.08 7.33-15.1 3.08-6.35.17-.3.02-.05.09-.12.21-.3.03-.02.09-.11.14-.16.11-.1.02-.02q-1.02 1.9-2 3.8a3.96 3.96 0 0 0 1.98 5.58c.95.57 2.1.93 3.12 1.25m-91.11 215.6.3-1.34-.92.33c-8.4 2.91-16.78 5.88-25.3 8.45-8.23 2.57-16.5 5.04-24.75 7.52a226 226 0 0 1-12.98 3.52l-.38.08-.19.05-.24.05-.28.07-.43.12-.13 1.2-.05.4-.12.81-.07.39-.14.8-.07.4-.43 2.36c-.93 4.33-2.06 8.63-3.11 12.94l1.08-.37 8.26-2.74 16.39-5.45 15.93-5.3 15.37-5.12 8.83-2.93.02-.1.05-.24.31-1.37.05-.24.14-.68.17-.98.18-.98.16-.86.21-1.1.17-.78.04-.24.1-.43.41-1.95.22-.97.87-3.87.32-1.4zm9.58-8.42v.14q0 .73-.29 1.53c-.83 5.21-2.1 10.34-3.26 15.48l-.28 1.38-.25 1.33-.14.74-.1.58-.1.5-.16.9-.26 1.37-.09.44.07.08.02.02.2.25.07.09.12.18.05.1.07.1.22.51.03.09.04.12a3.9 3.9 0 0 1-2.63 4.86l-7.61 2.53-14.6 4.86-15.93 5.3-16 5.32-16.43 5.47-.32.1-.26-.4a32 32 0 0 0-3.51-6.57 36 36 0 0 0-4.49-5.34l.28-1.1.02-.09.25-1.03 1.13-4.57.22-.95.05-.22.22-.98c.49-1.98.85-4.54 1.06-6.22l.02-.16.01-.15.01-.14v-.05l.04-.75-4.39-2.4-1.8-.98-.51-.27-1.51-.82-.96-.52-.96-.52-3.9-2.11-.93-.51q-5.7-3.1-11.38-6.26l-.95-.53-1.64-.92-.89-.5a476 476 0 0 1-8.31-4.83l-.63-.37-.77-.46-.64-.38-.7-.43-.9-.55-.6-.36-.87-.54-.93-.57-.86-.54-1.92-1.2-.75-.47-2.89-1.87-.9-.6-.62-.4a260 260 0 0 1-6.58-4.51l-2.38-1.65-1.35-.95-1.8-1.28-.7-.51-.08-.06-.08.57-.31 2.04a99 99 0 0 0-1.51 18.55v.13l-.01.13-.01.13-.02.13 11.13 6.81 14.64 8.97 9.54 5.84-.35.07-.06.01-.31.08h-.05l-.16.05-.1.03-.17.04-.24.07-.13.05q-.42.13-.81.3l-.17.07-.18.09-.18.08q-2.31.19-4.59.77c-1.05.33-2.17.55-3.25.88l-2.52-1.55-14.57-8.92-13.14-8.05-.03-.05-.28-.72a97 97 0 0 0-2.36-5.34h.01l.01-.02a4 4 0 0 1 .54-.7l-.01-.23-.01-.23a14 14 0 0 1 .02-1.52l.08-1.53a130 130 0 0 1 .32-6.53l.02-.29.04-.45.13.12.38.38a5 5 0 0 0 1.3.8 3 3 0 0 0 .5.16l.16.03q.27.06.54.06c.8.03 1.56-.22 2.21-.65l.16-.11.3-.25.07-.06.07-.07a4 4 0 0 0 1.25-2.85l.06-.17.05-.18.1-.34.04-.19.11-.54.03-.19v-.02l.03-.17.02-.17.03-.25.03-.33.03-.4.12-.63.06-.31.09-.49.11-.66c.45-2.63.8-5.29 1.22-7.93l.12-.7.11-.72.06-.49.01-.03.05-.49.04-.4.05.1.3.59.71-.19.72-.19q1.86 1.43 3.76 2.76a380 380 0 0 0 34.23 21.8c10.08 5.48 20.19 10.95 30.23 16.49l.1.06c5.46-.96 10.81-2.82 16.17-4.3 16.13-4.84 32.29-9.64 48.12-15.4-14.16-6.01-28.36-12.05-42.26-18.57a4 4 0 0 1-1.23-1.23c1.8.1 3.84.19 5.6-.11q.62.43 1.45.58c2.16.44 3.7-1.06 4.93-2.95l.67.28.73.32.27.11.55.25.44.2c12.16 5.62 24.55 10.7 36.82 16.07l.37.13.05.02.2.08.09.04.06.04.12.06.03.02.13.07.02.01.3.2.09.08.16.13.13.12a4 4 0 0 1 .5.64q.21.07.41.17l.09.05.17.1.1.05a4 4 0 0 1 .69.54l.09.1.1.1.1.1.08.12.1.11.07.12.22.37.06.14.05.13.05.13.05.15.04.14.04.17.04.27v.01l.03.27z"/><path fill="#cad8dd" d="M253.86 370.81c13.91 6.52 28.1 12.56 42.27 18.57-15.84 5.76-32 10.56-48.12 15.4-5.36 1.49-10.72 3.34-16.18 4.3l-.1-.06c-10.04-5.54-20.14-11-30.23-16.49a380 380 0 0 1-34.23-21.8q-1.9-1.34-3.76-2.75l5.5-1.43 16.21-4.22q7.95-2.08 15.92-4.14c4.45-1.16 8.9-2.36 13.35-3.49q.76.6 1.54 1.14c-.15.5-.24 1.05-.38 1.63q-.76 2.85-1.59 5.69c-.58 3.35-3.26 7.9-.94 10.89a38.6 38.6 0 0 0 21.02 11.6q1.47.15 2.94.04A3.5 3.5 0 0 0 239 385l.6-.15a8.5 8.5 0 0 0 6.23-4.62c1.81-3.37 2.64-7.13 3.22-10.9l1.03.1q1.13.04 2.56.14.44.72 1.23 1.23m-6.93-9.77.1.15-1.55-.3-.33-.07q.54-.03 1.16.1zm11.77-29.34-.23.15q-1.68-.57-3.24-1.36l-.2-.15.67.25.06.03.8.3.76.28.22.08.07.03.79.28z"/><path fill="#71a5b4" d="M292.78 338.31c-5.56-.2-11.08-.98-16.6-1.67-4.14-.69-8.12-2.1-12.19-3.11-2.94-.89-6.03-1.65-8.75-3.05a3.94 3.94 0 0 1-.9-5.46c2.04-2.66 4.61-1.36 7.14-.46q2.8 1.02 5.7 1.72c3.22.85 6.4 1.9 9.67 2.55 5.25.65 10.5 1.43 15.77 1.66 5.17.03 5.3 7.62.16 7.82"/><path fill="#76939c" d="M279.6 338.48v.13c0 .95-.3 2-1.01 3.08-3.56 8.11-6.5 16.52-10.8 24.27a16 16 0 0 1-1.17 2c-1.57 2.22-3.34 2.57-6.81 2.31q-3.53-.17-7.05-.5a82 82 0 0 1-3.73-.44q-2.25-.31-4.48-.8c-4.56-1.17-3.5-7.5.6-7.72h.22q.46 0 .94.1l.63.12.36.07.37.07h.02l.5.1.3.06q.81.16 1.62.28l.28.04.47.07q1.32.2 2.65.28l.25.02h.19l.1.01.1.01.9.02c2.33.2 3.75.46 5.73.43 4.68-8.38 7.38-16.76 11.29-25.36a7 7 0 0 1 .92-1.3 3.7 3.7 0 0 1 3.39-1.19 4 4 0 0 1 2.92 2.4l.01.05.16.49.03.12.03.13.04.25.01.14.01.15z"/><path fill="#71a5b4" d="M284.04 331.8c1.37 2 .26 4.65-1.68 5.62l-.2.1a3.5 3.5 0 0 1-2.31.16l-.37-.1-.64-.19-.4-.11a213 213 0 0 0-5.45-1.46l-1.05-.25a3.76 3.76 0 0 1-2.96-4.12c.18-1.86 1.57-3.62 3.8-3.6a5 5 0 0 1 .92.1 104 104 0 0 1 3.89.97l4.02 1.13c1.01.26 1.88.85 2.44 1.74"/><path fill="#cad8dd" d="M272.86 335.95q-.44.5-.8 1.18c-3.9 8.6-6.6 16.98-11.28 25.35-1.98.03-3.4-.22-5.74-.42a44 44 0 0 1-8.72-1.15q-.62-.12-1.16-.1l-.3-.06-.9-.21-1.06-.3-.36-.1-1.03-.32-.61-.19-1.22-.39-.6-.2-.97-.33-2.23-.81-.63-.25-1.58-.64-.31-.13-2.17-.98-.61-.3a61 61 0 0 1-4.2-2.26 51 51 0 0 1-2.31-1.47l-.45-.29a70 70 0 0 1-3.03-2.11l-.42-.32a51 51 0 0 1-2.46-2l-.4-.34a4 4 0 0 0-1.96-1.71 4 4 0 0 0-1.2-.24h-.08l-.17-.25-.08-.12-.25-.39-.24-.4-.07-.13-.08-.14-.06-.15-.07-.14-.24-.58v-.02l-.06-.16-.05-.19-.04-.12-.04-.15-.02-.1-.01-.06-.02-.1-.02-.08-.01-.1-.03-.16-.02-.12v-.05l-.02-.1v-.12l-.03-.3q-.05-.7.05-1.54c.69-5.74 3.27-11.04 4.84-16.56l.4-1.28.01-.04 1-3.19.2-.6.23-.68.22-.64.22-.64.22-.63.24-.63.24-.63q.23-.64.5-1.26.34.24.72.47l1.16.75.43.27.5.31 1.11.7 1.12.69.82.5.3.17.22.14 2.02 1.2 1.16.69 2.27 1.34.75.42.33.19.3.18q.08.03.15.08l.17.1.86.47q1.3.72 2.6 1.41l.06.04.76.4.97.5.68.36.23.11.54.28 1.14.56.03.02.83.4.57.29.57.27 1.52.72.36.17.67.3.83.38.82.37.88.39.47.2.46.2.79.33.75.31 1.18.49.9.36.63.25.16.06.26.1.18.07.2.16q1.57.78 3.24 1.36c1.82.63 3.7 1.13 5.52 1.68 2.97.75 5.9 1.7 8.87 2.43"/><path fill="#9cadb2" d="m367.77 304.25-.47.27-.47.29-.23.15a31 31 0 0 0-1.37.93l-.46.32-.22.17-.44.34-.66.53a21 21 0 0 0-1.28 1.1l-.63.58c-6.96 6.52-12.32 15.91-16.88 23.34-17.91 31.1-28.76 65.52-40.12 99.39l-3.9 11.16-.9 2.54-1.8 5.13-1.05 3-3.15 8.98-1.05 2.98-.15.44-.6 1.72a1517 1517 0 0 0-5.24 15.46l-.57 1.72-.56 1.72c1.43-11.54-.46-24.4-6.75-32.14-4.53-5.14-11.71-3.32-17.42-.7-3.56-4.85-8.78-2.21-17.28 3.06-.92.65-2 1.32-2.87 2.13-1.92-.84-4.34-1.04-7.4-.37l-.64.16q.1-1.4.11-2.8a31.5 31.5 0 0 0-2.21-12.5l.13.2.12.2.33-.11 16.43-5.47 16-5.32 7.96-2.65 7.96-2.65 7.3-2.43 7.3-2.43 7.61-2.53a3.9 3.9 0 0 0 2.63-4.86q0-.07-.03-.13l-.15-.37-.04-.09-.08-.14-.05-.1-.06-.1a4 4 0 0 0-.4-.54l-.07-.07.85-4.54.25-1.33v-.02l.28-1.36c1.16-5.14 2.43-10.27 3.26-15.48q.32-.89.29-1.67v-.04l-.01-.13-.02-.17-.02-.13-.02-.13-.01-.05-.03-.12a3 3 0 0 0-.2-.55l-.11-.24-.03-.05-.05-.1q-.05-.05-.08-.12l-.08-.11-.18-.23-.12-.14-.33-.32-.12-.1-.07-.06-.17-.12-.17-.1-.15-.1q-.03 0-.05-.03l-.06-.03h-.02l-.06-.04-.06-.03-.08-.04-.07-.03-.1-.04-.1-.04-.01-.01-.07-.1-.01-.03a3 3 0 0 0-.65-.7l-.06-.05-.18-.14-.07-.05-.06-.04-.03-.02a4 4 0 0 0-.64-.33l-.19-.07-.16-.06-.05-.02-.08-.02-8.06-3.5-4.62-1.97q-4.03-1.72-8.07-3.47l-2.3-1a765 765 0 0 1-10.34-4.57l-1.14-.52-2.28-1.05-.33-.14-.32-.15a13 13 0 0 0 1.17-2c4.3-7.76 7.24-16.17 10.8-24.27a5.6 5.6 0 0 0 1-3.08v-.4l-.02-.13-.07-.39-.03-.12.38.1q.3.1.58.11l.09.01.35.01h.1q.61-.05 1.18-.29l.18.03.15.02.25.04.37.04.22.03.22.03.18.03.41.05.08.01.35.04.45.05h.04l.28.04.29.03.48.05.64.07h.01l.32.03.53.04h.01l.71.06.15.01.5.04.52.04.49.03q.53.04 1.07.06l2.13.07h.74l.27-.02h.27l.08-.01h.05l.56-.04h.06l.22-.02h.13l.12-.01.2-.02h.05l.28-.04.25-.03.16-.02q.12 0 .22-.03h.05l.19-.04h.05l.2-.04.12-.02.1-.01.07-.02.92-.19.17.1h.03l.03.02.03.02.07.03c1.21.51 2.46.39 3.68 0a9 9 0 0 0 1.1-.43l.13-.06.32-.14c.88-.42 1.74-.9 2.55-1.3q1.84-1.12 3.41-2.56l.42-.38c3.23-3.06 5.7-6.96 8-10.72l1.9-3.25.3-.53q2.35-4.07 4.66-8.16l1.32-2.34 2.22-3.93.94-1.68 3.52-6.2a4 4 0 0 0 1.5-.66c1.83.83 3.55 1.34 5.77 2.07 8.9 2.75 18.16 4.05 27.15 6.46z"/><path fill="#ffd7ee" d="m125.83 488.97-.41-.42-.2-.21-.4-.43a36 36 0 0 1-1.55-1.8l-.37-.47-.15-.2q-1.94-6.54-3.56-13.17a239 239 0 0 1-5.16-27.25q-.34-2.44-.65-4.9-.3-6.47-.42-12.94l-.02-1.4q0 .54.02 1.07-.06-2.11-.07-4.24v1.22l.03-8.57c0-1.49.07-2.97.1-4.45q.03-1.97.1-3.94c.15-3.47.3-6.93.53-10.4l.13-1.73.25-.37c4.4-3.77 10.04-4.39 15.26 2.46 8.6 12.57 10.12 28.3 12.38 42.97 1.63 12.57 3.27 25.38 1.06 37.98-.81 5.07-2.37 10.11-5.39 14.3-.73 1.08-1.89 1.86-2.93 2.71a26 26 0 0 1-8.57-5.82m71.95 29.06c.34 4.96 1.44 21.76-7.59 15.56-1.92-1.5-2.61-4.06-4.98-4.2-3.97-5.66-6.9-12.06-9.43-18.47a119 119 0 0 1-5.38-15c1.59-2.5-.58-6.02-.8-8.8-.84-4.7-1.55-9.45-2.36-14.17-.95-7.2-3.66-23.8-1.44-33.64v-.01a43 43 0 0 1 2.26-5.33q.29-.38.61-.7c1.26.42 1.98 1.72 2.84 2.67 3.7 4.99 7.07 10.26 9.38 16.05a157 157 0 0 1 10.08 31.2c3.1 11.43 5.83 23.01 6.81 34.83"/><path fill="#e283ba" d="M241.69 516.66q.64.05 1.3.08c-.14 1.55-.56 3.08-2.01 4.3-3.68 3.49-17.2 7.5-24.1 7.86.35-2.99.07-6.42.15-8.4-.34-17.53-5.22-34.5-9.44-51.38-2.75-10.1-5.35-20.4-10.05-29.8a54 54 0 0 0-7.29-10.82q.99-.2 1.99-.31c11.92-.87 24.57 4.66 30.43 15.4 3.38 6.4 3.55 14.33 1.5 21.2-1.37 4.03-4.22 7.29-6.83 10.57a3.93 3.93 0 0 0 .91 5.46 3.95 3.95 0 0 0 5.46-.91c2.2-2.76 4.48-5.5 6.14-8.64q1.12-2.13 1.85-4.41c1.57-.22 3.13-.65 4.7-.85 1.11-.2 2.23-.08 2.67 1.1.96 1.98 1.46 4.14 2.06 6.25 1 3.91 2.4 7.8 2.45 11.88-3.15 3.91-11.5.8-10.95 7.45q.3 1.23.92 1.93c-7.26 9.5-6 20.54 8.14 22.05m-60.19-96.18 2.53 1.54q-.6.18-1.16.41c-4.19-2.21-8.9-2.65-13.9.21-3.37.55-6.11 4.1-8.16 8.22a116 116 0 0 0-7.01-27.35l13.14 8.04zm-36.44-34.02.43.2-.5.25-.2-.22-.08-.1-.17-.2-.26-.3-.53-.58-.21-.22-.11-.12-.18-.18-.62-.62-.33-.31-.36-.34-.36-.33.61-.14.37.54.56.86c.52.76 1.15 1.4 1.94 1.81m3.96 6.76-.06-.12-.1-.16-.3-.57-.1-.2-.4-.7-.41-.73-.06-.1-.45-.77a13 13 0 0 1 1.88 3.35m3.13-7.33-.04.45-.02.29c-1.08-.4-2-.6-2.82-.7a4 4 0 0 0 1.07-1.47l.11.08.12.07.2.15.14.1.1.08q.07.03.12.08l.11.09q.24.18.47.39l.06.05.15.13.04.04.12.1zm1.97 63.43c.08 12.63.1 25.29-1.43 37.85-.18 1.2-.62 2.37-.88 3.49a8 8 0 0 1-1.12 1.48q-.27.26-.57.49a14 14 0 0 1-5.56 2.7 31 31 0 0 0 2.3-4.19c7.4-16.9 4.59-36.08 2.36-53.83-2.64-16.52-4.47-34.92-16.04-47.91a20 20 0 0 0-7.84-4.93 10 10 0 0 1 5.7 1.17c8.28 3.72 12.05 12.44 15.29 20.33 5.52 13.72 7.96 28.59 7.8 43.35m55.14 74.73c.13 1.6-.37 3.58-.52 5.42q-.18.3-.3.61c-2.53 1.37-2.4 6.27-5.47 7.5l-.17.1c6.13-9.47 1.59-29.9-.05-39.2a670 670 0 0 0-8.13-32.34c-4.4-13.24-9.59-26.78-18.96-37.35l-.2-.22c8.88-.87 17.38 18.06 19.31 24.63 5.1 16.2 9.43 32.7 12.53 49.4a116 116 0 0 1 1.96 21.45"/><path fill="#fff" d="M255.6 459.38c5.34 15.5 6 32.17 5.37 48.42-3.65.4-12.28-.88-15.1 1.7l-.04-.65-.01-.15-.04-.65q-.45.36-.77.84c-1.22.06-2.43.04-3.63-.16-5.05-.64-5.32-3.43-2.92-7.36 1.4-2.17 3-4.24 4.84-6.06a5 5 0 0 0 1.44-1.42q1.55-.7 2.89-1.82c2.46-1.72 4.07-4.48 3.75-7.53-.1-4.62-1.6-9.02-2.76-13.45a35 35 0 0 0-2.07-6.43c2.87-1.98 5.71-4.06 9.05-5.28"/><path fill="#8a1f6a" d="M285.95 476.55a58 58 0 0 1-.11 7.2v.03l-.08.87-.05.5-.1.9-.05.46q-1.44 4.43-2.84 8.88a354 354 0 0 1-3.54 9.66q-.9 1.29-1.99 2.49v-.1l-.06-.32-.02-.1-.01-.06-.04-.14v-.02l-.05-.15-.06-.15-.02-.06-.04-.09-.13-.27-.09-.15-.08-.14-.28-.38a5 5 0 0 0-.57-.55l-.12-.1-.14-.1-.12-.08-.12-.07-.04-.02-.1-.05-.1-.05-.1-.05-.12-.05-.29-.11-.14-.04h-.01q-.15-.05-.31-.08l.06.13.07.14.06.14.06.14.05.14.1.29q.04.07.06.16l.09.27.04.15.04.14q.09.3.14.6a9 9 0 0 1 .06 3.22l-.01.06a7.4 7.4 0 0 1-4.79 1.56 3.5 3.5 0 0 1-1.47-.65q.23-3.27.35-6.54l.3-.18.47-.29.16-.1.26-.18.02-.02.15-.1.15-.12.14-.1q.37-.28.7-.58c2.73-2.72 4.13-6.44 5.25-10.06 2.08-7.9 2.1-16.18.28-24.1-.77-2.85-2.15-8.86-5.52-9.3l-.32.04h-.05l-.3.04-.27.04h-.1l-.22.05-.65.12-.12.03h-.05l-.45.1-.07.03-.3.08-.28.07-.25.08-.14.04-.47.15-.2.07-.43.15-.18.07-.04.01-.2.08q-.9.37-1.8.82c-.87-3.33-1.85-5.7-3.02-7.28l.39-.17.78-.35.4-.16.2-.08.3-.12.22-.09.2-.07.18-.07.3-.11.3-.1.2-.07.19-.07h.03l.2-.08.9-.26.04-.02h.01l.3-.08.1-.03.4-.1.14-.04.3-.07.23-.05.13-.02.31-.07h.05l.3-.06.1-.02.11-.02h.03l.5-.07h.03l.13-.03h.05l.2-.02h.01l.4-.04h.15l.12-.01.22-.02h.65q1.2-.01 2.35.22l.38.08.25.06.25.07.5.16.23.1.48.2q.6.27 1.16.63l.23.15.22.16a9 9 0 0 1 1.57 1.44l.46.58.18.25.06.07.19.26q0 .02.02.03l.2.28.02.05.17.25.06.08.17.27.2.32a29 29 0 0 1 .96 1.66l.17.32.06.1.12.24.07.15a20 20 0 0 1 .76 1.68q.14.3.25.6l.1.22.08.22.06.17a35 35 0 0 1 .76 2.2l.24.8.1.4.22.8.1.4q.34 1.41.6 2.86l.02.06.06.34.03.2.08.53.05.3.03.24.02.16.15 1.15.06.47.04.43.05.43.07.87.03.43v.01l.02.37.01.1z"/><path fill="#e283ba" d="M276.82 468.17a50.4 50.4 0 0 1-.28 24.11c-1.13 3.62-2.52 7.34-5.25 10.06l-.17.15-.11.09-.11.1-.13.1-.18.14q-.42.32-.88.62l-.15.1-.47.28-.16.1c.48-13.76-.63-27.58-4-40.95q-.26-1.12-.52-2.12l1.2-.56.15-.07.22-.1.65-.25.42-.15.44-.15.63-.19.28-.07.3-.08.07-.02.45-.1.16-.04.51-.1q.55-.1 1.12-.16l.29-.03c3.37.44 4.74 6.45 5.52 9.29m139.41-107.23c3.35 12-.14 24.62-.38 36.84-1.01 15.7-1.22 31.4-1.6 47.12-.11 4.52-.28 9.03-.25 13.55-8.1 1.2-15.47 5.1-22.72 8.74q-1.17.71-2.51 1.38c-.5-5.2-1.11-10.4-1.7-15.61a485 485 0 0 1-2.22-47.17c.56-13.97 1.48-34.6 9.21-46.43 6.2-8.44 17.83-8.67 22.17 1.58"/><path fill="#fff" d="M436.94 503.92q.42.2.87.35c-.88 1.6-2.19 3.08-4.12 3.02a4 4 0 0 1-2.1-.3 3.7 3.7 0 0 0-2.2-2.19c-4.15-1.58-7.94-4.93-10.64-8.44a89 89 0 0 1-4.32-7.68c-.62-1.29-1.26-2.66-2.7-3.19a3.94 3.94 0 0 0-5.08 2.18c-.37.92-.4 2.08.04 3a88 88 0 0 0 5.2 9.47 35.5 35.5 0 0 0 11.24 10.38q-.44.46-1.06.69c-2.31.61-4.5-1.24-6.24-2.53-.66-.72-1.12-1.48-1.6-2.13a3.8 3.8 0 0 0-2.68-3.18c-3.2-2.67-5.06-6.44-7-10.04-2-4.96-9.25-2.07-7.3 2.85.65 1.34 1.39 2.63 2.1 3.94 1.49 2.74 3.74 6.3 6.45 8.66a2.9 2.9 0 0 1-3.28-.38q.12-.47.1-.98c0-1-.42-2.14-1.2-2.8a62 62 0 0 1-4.62-4.23 55 55 0 0 1-5.43-8q-.44-.84-.78-1.71c2.43-1.28 4.62-3.3 6.83-4.82 3.99-2.64 8.24-5.07 12.83-6.46a92 92 0 0 1 8.56-1.37c1.45-.06 3.02-.14 4.55-.36l.1.12c1.37 1.5 2.7 3.03 4.18 4.43 2.54 2.7 9.4 7.74 7.7 11.85q-.42.03-.8.13c-3.84-2.27-6.14-5.18-8.65-10.36-1.6-2.95-6.43-2.23-7.14 1.04-.77 2.95 4.05 9.17 5.99 11.48 3.09 3.58 7.87 5.78 12.2 7.57m-19.02-36.26c2.13-.28 5.88-1.27 6.2 1.8-.82.57-1.97.4-2.93.54-4.45.34-8.91.86-13.25 1.92-7.78 2.25-14.35 7.1-20.83 11.74-3.3 1.78-2.1-3.66-.38-4.7q.03 0 .05-.04a5 5 0 0 0 2.56-1.6 59 59 0 0 1 5.1-2.98c6.37-3.18 12.81-6.68 19.84-8.01.77.97 2 1.57 3.64 1.33"/><path fill="#000" d="m114.42 380.98-.02.03v.02z"/><path fill="#000" d="M111.96 425.82c-.24-3-.48-6-.61-9a407 407 0 0 1-.45-19.7v.48-1l.01-1.55v.01-.38.06-.39.03-.08.04l.02-2v.48l.04-3.15.03-1.76q1.61-3.48 3.39-6.88l-.02.03.03-.05.01-.02.02-.03v-.02l.03-.05v.01l-.03.04.03-.04.28-.54.03-.05.06-.13.08-.16.13-.24c1.6-1.81 3.65-3.04 6.37-2.92 4.8.53 4.6 7.53-.2 7.8-8.23 10.96-9.49 32.83-8.38 50.72a504 504 0 0 1-.88-9.56zm12.21 64.2a252 252 0 0 1-4.77-16.93c1.14 4.39 2.49 8.72 4.54 12.78a32 32 0 0 0 2.37 3.67 3.8 3.8 0 0 1-.5 5.35q-.84-2.43-1.64-4.87"/><path fill="#000" d="M114.27 391.4c-3.38-1.38-2.83-5.02-1.04-7.5 1.91-3.8 9.57-10.44 12.71-4.69.87 1.93 0 4.32-1.95 5.18a9 9 0 0 0-3.1 2.07c-1.85 2.61-2.47 6.18-6.62 4.94"/><path fill="#ffd7ee" d="M194.61 539.44a11.6 11.6 0 0 1-5.73-2.85c-4 .57-9.36-14-11.46-17.5a144.3 144.3 0 0 1-13.08-78.7c.22-3.54.42-8.31 4.57-9.4 3.4-.63 7.11.92 9.37 3.5 5.62 5.9 7.1 14.26 9.73 21.7a502 502 0 0 1 9.76 33.88c2.65 11.63 5.21 23.4 5.88 35.33.6 6.47-.52 15.05-9.04 14.04m-2.3-12.41c-6.36-26.28-11.03-52.99-18.71-78.93.16 14 2.97 27.97 6.46 41.45 3.34 12.69 6.5 25.62 12.24 37.48"/><path fill="#ffd7ee" d="M180.56 520.12a4 4 0 0 1-2.16-2.03c-2.04-4.2-4.14-8.4-5.64-12.84-5.66-16.54-11.3-33.48-12.54-51.02-.1-6.93.36-21.27 7.96-24.1 9.54-2.48 9.66 8.78 2.5 7.54-8 17.14 4.36 49.4 10.14 66.9 1.35 3.52 3.08 6.88 4.7 10.29 1.53 3.02-1.86 6.6-4.97 5.26zm-48.2-22.43a27 27 0 0 1-7.5-5.6l-.69-2.07a256 256 0 0 1-4.97-17.75 239 239 0 0 1-5.17-27.25c-.43-3.19-.86-6.38-1.19-9.59q-.48-4.8-.87-9.6-.4-4.5-.62-9a401 401 0 0 1-.44-18.6 32 32 0 0 1 3.49-9.03c5.31-6.73 14.84-2.36 18.22 4.13 3.05 5.5 4.45 11.69 5.7 17.8 2.14 9.8 3.27 19.75 4.06 29.74 1.26 11.66 2.7 23.3 3.1 35.03.12 6.02.72 12.5-1.94 18.08a8.3 8.3 0 0 1-7.54 4.5 9 9 0 0 1-3.64-.79m-11.2-104c-2.54 2.2-2.22 13.97-2.02 17.56 1.36 2.52.53 6.43-2.63 7-.27 12.07 1.22 24.07 3 35.99 2.11 11.46 4.45 31.53 16.65 36.42 2.47-2.28 1.43-12.49 1.43-16.06-.39-10.18-1.6-20.29-2.72-30.4-.84-8.27-3.95-50.51-13.7-50.52"/><path fill="#8a1f6a" d="M114.43 380.96v.02h-.01z"/><path fill="#8a1f6a" d="M140.3 500.8c-4.3-3.62 1.23-6.89 2.08-10.61 1.56-6.22 1.42-12.75 1.03-19.11-1.64-21.97-4.07-43.91-9.78-65.24-2-7.47-5.12-19.72-14.94-18.74-3.4 1.1-5.61-.72-5.9-2.9l1.59-3.14.03-.06-.02.04.02-.03v-.03l.02-.03.01-.01.3-.58.03-.05.06-.12c2-1.25 5.52-1.68 10.92.03 11.19 4.6 14.14 17.83 16.56 28.47a274 274 0 0 1 5.13 25.23 601 601 0 0 1 2.85 26.13c.94 9.73 1.97 19.61.3 29.32-.6 3.66-3.61 12.15-8.04 12.15q-1.08.02-2.26-.72m60.65 41.24a3.94 3.94 0 0 1-1.55-5.3q.67-1.13.9-2.43c.94-9.5-2.3-19.37-4.2-28.5-3.76-17.1-8.87-33.82-14.3-50.46a122 122 0 0 0-6.73-17c-1.93-4.11-5.63-8.68-10.4-5.24-1.87 1.02-2.38 3.18-4.01 4.37-3.46 2.22-7.51-2.05-5.42-5.48a16.3 16.3 0 0 1 10.02-7.6c11.06-2.24 16.25 8.18 19.7 16.8 4.56 11.06 7.5 22.7 11.36 34 3.36 11.22 5.86 22.67 8.6 34.06 1.8 8.47 4.19 17.17 3.15 25.89-.4 3.54-2.74 9.1-7.12 6.9"/><path fill="#e283ba" d="M110.9 398.22q.55-2.32 1.37-4.55 2.13-.1 4.28-.17 4.58-.08 9.14-.13l3.42-.05a38 38 0 0 1 3.19 7.75l-1.44.03q-4.52.09-9.05.13a290 290 0 0 0-10.88.35zm.45 18.6q-.16-3.39-.27-6.78c2.15-.05 4.3-.15 6.45-.2l1.54-.03q4.08-.09 8.17-.13 3.7-.05 7.37-.03.97 3.9 1.81 7.83h-3.05q-8.62-.02-17.23.22l-4.07.12-.68.02zm.61 9-.2-2.46q1.9-.09 3.8-.13l.93-.01q.07 3.9.33 7.81l-.58.01-3.81.12q-.25-2.67-.47-5.34"/><path fill="#e283ba" d="M134.33 431.15q-4.55-.11-9.11-.18-4.2 0-8.4.06-.26-3.9-.33-7.81 4.2-.07 8.41-.07c4.24 0 8.48.13 12.72.28q.75 3.93 1.38 7.87-2.32-.09-4.67-.15m-20.3 13.87q-.45-3.17-.83-6.35l4.26-.18q.4 3.9.92 7.8l-.27.01-3.88.17z"/><path fill="#e283ba" d="M117.46 438.5h.04l8.42-.35q7.04-.25 14.08-.28.54 3.9 1.01 7.8-2.62 0-5.25.05c-5.8.08-11.59.3-17.38.56q-.52-3.89-.92-7.79m17.67 20.28a1805 1805 0 0 1-14.9-.49l-.7-4.04-.57-3.84.39.02a4086 4086 0 0 0 22.29.72q.42 3.92.78 7.84z"/><path fill="#e283ba" d="m118.1 458.2-2-.09a196 196 0 0 1-1.31-7.87h.25l3.91.17.57 3.83q.34 1.88.7 4.04zm1.1 14.07q-.64-2.55-1.21-5.1l3.92-.13a79 79 0 0 0 2.1 7.75q-1.41.06-2.84.1l-1.31.03z"/><path fill="#e283ba" d="m121.91 467.04 3.08-.12q4.23-.17 8.47-.32 3.08-.1 6.15-.16l3.44-.05.36 4.69q.1 1.55.16 3.11c-2.5.02-5 .1-7.5.15-3.01.07-6.02.21-9.02.33l-3.03.13a78 78 0 0 1-2.1-7.76zm-.29 14.51 5.21-.07c1.71 3.2 3.86 5.9 6.62 7.75l-9.5.1q-1.23-3.88-2.33-7.79"/><path fill="#e283ba" d="M126.83 481.49q3.99-.07 7.96-.1 4.35.02 8.67-.07h.14a46 46 0 0 1-.97 7.83q-4.59.06-9.18.08c-2.75-1.84-4.9-4.55-6.62-7.74m34.29-39.87q.54-.08 1.07-.2l1.82-.33q2.17-.39 4.36-.76 3.56-.57 7.14-1.06 1.77 3.67 3.25 7.46c-2.37.3-4.73.6-7.08.99q-4.6.75-9.16 1.6l-1.5.3q-.36.12-.76.18c.1-2.55.33-5.42.86-8.18m-.52 16.84.6-.06 1.65-.14 3.9-.43q4.64-.6 9.29-1.11 1.04 3.81 2 7.66-2.91.31-5.82.65-3.66.46-7.33.87-1.58.17-3.17.31-.68-3.86-1.1-7.75z"/><path fill="#e283ba" d="M176.04 456.72q3-.34 6.02-.58l2.45 7.64a154 154 0 0 0-6.47.6q-.96-3.84-2-7.67m-10.09 27.4q-1.02-3.51-1.9-7.06.67-.04 1.34-.12c3.32-.42 6.63-1 9.93-1.54l5.19-.87q.9 3.8 1.76 7.63l-7.7 1.3-4.06.63-2.35.36q-1.05.16-2.1.27zm.88-4.74-.06-.17-.03-.03z"/><path fill="#e283ba" d="M180.5 474.5a586 586 0 0 1 6.98-1.13q1.14 3.76 2.23 7.55l-6.36 1.04-1.08.19q-.87-3.83-1.76-7.64m-13.53 14.52c1.34-.05 2.69-.16 4.03-.23q2.43-.17 4.87-.4 3.81-.31 7.63-.68l1.69 7.7-4.58.41-4.4.4c-1.6.13-3.2.3-4.8.39l-2.45.14q-1.1-3.84-2-7.73"/><path fill="#e283ba" d="m183.5 487.72 1.06-.1 6.85-.64q1.05 3.82 2.03 7.67l-4.15.38-4.1.38zm4.92 22.48-1.7-7.82 8.6.03.77 3.4q.45 2.18.98 4.41z"/><path fill="#e283ba" d="m179.3 510.17-5.1-.02h-.68a146 146 0 0 1-2.83-7.8l2.62-.01q2.3 0 4.59.02l8.13.02h.68l1.71 7.81zm-1.86 8.95c2.29-.07 4.57-.23 6.85-.36l6-.35q.89 3.87 1.81 7.73-5.47.34-10.96.63c-1.54-3.19-2.87-6.26-3.7-7.65"/><path fill="#e283ba" d="m190.27 518.41 2.85-.16q2.85-.18 5.73-.32a80 80 0 0 1 1.3 7.77l-6.28.34-1.78.1q-.93-3.86-1.82-7.73"/><path fill="#000" d="m114.46 380.9-.02.05zm-.03.06-.02.02v.01z"/><path fill="#000" d="M110.9 397.12v.48-1l.01-1.64v.1-.46.08-.19.24q0-1.2.02-2.38v.47l.04-3.16.03-1.75q1.61-3.48 3.4-6.88h-.01l.02-.03-.01.02v.01-.01l.01-.02v-.01l.02-.02.01-.03.3-.59.03-.05.07-.12.08-.16.23-.44-.09.17.65-1.2a17.7 17.7 0 0 1 10.45-1.8c3.6.6 7 2.6 9.43 5.3a3.95 3.95 0 0 1-1.14 5.42c-3.9 2.48-5.95-2.71-9.63-3.03a9.8 9.8 0 0 0-8.7 3.73c-3.23 4.32-4.28 9.56-5.17 14.77zm26.64 107.12a20.5 20.5 0 0 1-9.44-3.12q-.66-1.72-1.28-3.44a215 215 0 0 1-3.86-11.54 37 37 0 0 0 4.08 4.42c3.57 3.13 7.95 6.53 12.99 5.76 4.63-.7 8.23-4.18 11.3-7.48 1.66-2.52 3.8-5.05 6.98-3.05a3.94 3.94 0 0 1 .98 5.45 38 38 0 0 1-8.52 8.69 20.5 20.5 0 0 1-13.24 4.3"/><path fill="#000" d="M192.43 547.34c-5.33-1.6-9.1-6.01-12.44-10.22-6.7-8-10.72-17.86-13.98-27.68-2.04-6.18-4.5-12.23-6.16-18.53-.92 1.7-1.7 3.9-3.88 4.2a3.94 3.94 0 0 1-4.6-3.09c-.37-2.53 1.42-4.02 2.31-6.12q1-1.83 1.98-3.69c.71-1.26 1.2-2.68 2.13-3.8 3.23-3.08 6.86-.41 7.57 3.39 2.3 8.56 5.15 16.92 8.1 25.27 2.56 7.76 5.64 15.48 10.33 22.22 3.24 3.82 6.76 10.02 12.08 10.75a13.8 13.8 0 0 0 8.54-3.64c3.15-2.85 2.5-6.94 4.93-8.6a3.94 3.94 0 0 1 5.42 1.14c1.87 2.7-1.3 8.32-2.9 10.73-4.3 5.76-12.3 9.47-19.44 7.67m49.13-20.57a4 4 0 0 1-.35-5.15c.76-.91.87-2.17 1.16-3.29.36-2.16.48-4.36.6-6.55-.17-2.28 1.57-4.53 3.95-4.5 2.08.21 4.13.7 6.23.72h-.05l-.16-.01.42.02h-.15l-.13-.01c3.42.27 6.85.09 10.26.26.31-2.16 1.99-4.32 4.33-4.14 2.88.3 5.68-.5 8.53-.11 5.42 1.95 2.5 8.99 1.35 12.96-.84 3.3-5.47 3.95-7.15.99-1.23-1.91-.01-4.08.5-6.02l-.36.03h-.13c-1.1 3.96-3.6 4.6-7.35 4.07-4.17-.1-8.34 0-12.5-.4-.16 4.62-2.42 15.93-9 11.13"/><path fill="#8a1f6a" d="M134.29 405.39c-2.36-5.1-3.97-10.8-7.98-14.91-1.7-1.58-4.57-1.13-5.81-3.28a3.94 3.94 0 0 1 1.28-5.38c1.62-1.11 3.52-.34 5.2.19 8.42 3.09 11.05 12.81 14.47 20.22 1.96 4.77-4.96 7.81-7.16 3.16"/><path fill="#8a1f6a" d="M143.44 397.83c-1.4-.69-1.73-2.1-2.56-3.26-1.3-1.88-3.93-4.3-5.4-5.06-5.75-3.75-7.34-.82-10.56-2.7a3.94 3.94 0 0 1-.92-5.46c1.78-2.58 6.64-1.78 9.33-1.28 5.53 1.52 10.4 5.17 13.78 9.78a13 13 0 0 1 1.93 3.44c1.09 3.17-2.73 6.22-5.6 4.54"/><path fill="#000" d="m114.41 381 .02-.04v.01zm-.01.04h-.01m0 .01-.01.01z"/><path fill="#000" d="M110.93 392.35v.47l.05-3.15.02-1.76q1.62-3.47 3.38-6.86v-.01l.02-.02.02-.05.01-.01.01-.03v.02l.3-.6.03-.04.07-.12.08-.16.23-.44-.09.17.74-1.38q.87-.47 1.77-.88c4.05-2.14 8.46-3.8 13.1-3.81 1.18-.07 2.92.1 4.75.53l.33.4q.24.22.45.48a95 95 0 0 1 6.27 8.59c-1.65 1.27-4.02.91-5.58-.63-3.59-2.12-8-1.82-11.8-.44-2.73 1.28-5.7 2.35-7.99 4.35-1.4 1.33-2.27 3.03-3.06 4.77a4 4 0 0 1-3.12 2.05z"/><path fill="#000" d="M153.43 387.18c-4.26-1.9-6.49-1.33-8.22-.76-1.6.53-2.78 1.06-4.77-.4-1.89-1.57-3.73-3.25-5.95-4.37-1.47-.63-3.33-.77-4.17-2.34-1.81-2.8.8-6.59 4.05-5.9 3.57.75 6.67 2.87 9.4 5.2q1.82-.55 3.69-.58.16.09.36.16.46.19.95.32.4.1.8.1.75 0 1.4-.3c1.83.33 3.62.9 5.32 1.59 4.22 1.83 2.49 7.56-1.37 7.56a4 4 0 0 1-1.49-.28"/><path fill="#000" d="M141.1 386.53a4 4 0 0 1-1.1-5.1c1.17-2.06 3.83-2.72 5.92-3.5 4.22-1.16 14.75-.33 11.96 6.31a3.96 3.96 0 0 1-5.3 1.55q-.45-.18-.9-.25c-5.95-1.37-6.27 3.61-10.57 1zm-1.5-2.85"/><path fill="#000" d="M155.08 385.61a3.95 3.95 0 0 1-3.44-4.33c.19-1.14.41-2.34.63-3.48.34-1.8.43-3.66 1.01-5.4 2.12-4.78 9-1.96 7.3 2.96-.29 1.74-.54 3.47-.89 5.19-.22 2.8-1.4 5.3-4.6 5.06"/><path fill="#e283ba" d="M152.09 386.64q-.09 1.08-.15 2.17l-.04.72a92 92 0 0 0-.15 3.83l-.02.37q0 .29-.03.58l-.02.39-.02 1.52.01.23.01.23-.22.24-.07.1-.12.17q-.08.1-.12.2h-.01l-.01.01-.26-.52-.49-1.01-.06-.12-.2-.4-.02-.05-.33-.65-.4-.78-.08-.14-.27-.5a13 13 0 0 0-1.88-3.35l-.45-.75-.68-.93-.23-.3-.74-.91-.06-.08.5-.26 1.2-.64c.73-.14 1.57-.2 2.58-.08.82.1 1.75.3 2.83.7"/><path fill="#ffd7ee" d="M125.37 393.07a22 22 0 0 0-3.15-2.99c-.92-.78-2.05-1.16-3.23-.78-2.2 2.2-4.54-2.22-.12-2.93 3.48-.78 6.26 2.16 8.4 4.5 1.4 1.28-.43 3.4-1.9 2.2"/><path fill="#8a1f6a" d="M165.38 423.1q.93-1.26 1.74-2.59.72-1.25 1.28-2.57a54 54 0 0 0 1.55-4.53l6.79 4.15q-.5 1.56-1.12 3.09c-2.14.08-4.37.7-6.66 2-1.24.2-2.39.81-3.45 1.7l-.26.05-.96.26c.32-.54.72-1.05 1.1-1.56"/><path fill="#000" d="M131.9 503.4c-20.34-10.1-23.13-42.9-24.89-63.08-1.18-17.37-4.84-37.05 2.17-53.51 2.07-4.42 5.46-9.35 10.51-10.39a3.9 3.9 0 0 1 4.23 3.45c.05 6.08-5.96.7-9.76 16.28-2.47 11.27-1.06 22.88-.3 34.27 1.23 12.48 1.75 25.08 4.64 37.32 2.28 9.95 5.76 20.7 14.06 27.24 1.57 1.1 3.83 1.5 4.55 3.5 1.32 3.04-2.23 6.44-5.2 4.91"/><path fill="#9cadb2" d="M383.08 202.6c4.3 4.14 5.3 10.43 3.6 16-2.24 9.5-10.44 11.92-18.6 9.92l4.27-8.79 7.43-15.31 1.56-3.21c.62.43 1.23.88 1.74 1.38M227.11 379.44c-4.57-1.76-10.59-4.16-11.59-9.54-.24-2.54 1.55-4.63 2.53-6.84.72-1.39 1.3-3.14 2.78-3.9a3.9 3.9 0 0 1 5.57 2.07c1.1 2.75-1.9 5.28-2.78 7.84a20.7 20.7 0 0 0 11.26 4q.94-1.5 1.38-3.2c1.45-4.86 8.66-2.91 7.45 2-2.98 10.16-7.37 10.1-16.6 7.57"/><path fill="#76939c" d="M249.93 369.63c-2.87.08-5.65-.72-8.4-1.46a177 177 0 0 1-16.83-6.06c-2.4-1.18-5.24-2.16-6.87-4.39a3.9 3.9 0 0 1 1.23-5.31c1.84-1.2 3.84-.37 5.3.91 1.13.67 2.31 1.2 3.5 1.77q7.39 3.01 15 5.45c2.56.73 5.15 1.5 7.83 1.41 5.04.62 4.33 8.03-.76 7.68"/><path fill="#76939c" d="M236.84 386.67c-7.65-.1-14.88-3.37-21.26-7.37-2.57-1.64-6.31-3.8-5.53-7.38.4-1.53 1.04-3.2 1.38-4.43 1.26-3.72 2.36-7.48 3.61-11.2 1.1-3.78 5.16-5.69 7.77-2.1 1.6 2.88-.45 3.95-1.11 6.43-1.1 3.75-2.4 7.43-3.53 11.16 4.94 3.32 10.4 6.13 16.35 7.01 1.65.3 3.53-.12 4.82 1.19 2.53 2.16.86 6.74-2.5 6.7"/><path fill="#76939c" d="M235.21 386.77c-3.24-.62-4.07-5.39-1.17-7.03 1.34-.77 2.85-.64 4.33-.68.75-2 1.15-4.1 1.75-6.14q1.35-4.16 2.64-8.32c1.93-4.7 8.85-2.13 7.23 2.68-.73 2.4-1.45 4.78-2.29 7.14-.8 2.8-1.38 5.64-2.48 8.34-.5 1.8-2.2 3.75-4.05 3.72-1.97.22-3.98.5-5.96.3m1.5.04q.3-.04.57-.14-.27.09-.56.14"/><path fill="#cad8dd" d="M296.53 325.77c-5.66-7.2 5.88-12.6 6.47-4.03 1.88 3.89-3.77 7.45-6.47 4.03"/><path fill="#fff" d="M352.25 206.38c-8.06-5.3 1.78-18.2 4.32-24.58a943 943 0 0 0 11.85-23.47c3.95-7.23 8.47-21.05 14.93-25.62 7.4-3.24 9.41 5.67 7.15 11.07-3.08 9.53-8.4 18.12-12.76 27.08-3.88 7.81-7.62 15.7-12.13 23.19-2.14 2.93-4.13 9.12-7.24 10.59-1.34 1.86-4 2.81-6.11 1.74m-12.92 29.98c-5.34-1.06-4.2-7.34-2.3-10.95 1.53-3.85 3.6-8.13 8.09-8.91 5.83-.22 5.88 6.27 3.36 10.03-2.06 3.88-3.56 10.46-9.15 9.82"/><path fill="#fff" d="M352.14 209.3a7.5 7.5 0 0 1-4.16-8.15c.3-4.03 3.4-7.94 7.27-4.55q.95-2.8 1.8-5.64c1.5-4.8 8.78-2.65 7.4 2.2-2.1 5.43-4.07 18.7-12.31 16.14m111.58 102.9c-3.82-1.54-2.19-5.3-1.07-8.12a35 35 0 0 0 1.17-14.7c.07-3.34-2.1-7.47-.94-10.48 1.45-2.96 6.22-2.54 7.08.65a63 63 0 0 1 1.78 18.06c-.86 4.28-1.46 16.6-8.02 14.58m-7.23-46.35c-1.16-1.08-1.23-2.68-2.07-3.95-.75-1.35-1.98-2.56-1.74-4.23.2-3.28 4.8-4.74 6.8-2.1 1.66 2.66 4.54 6 3.03 9.27-1.1 2.17-4.29 2.74-6.02 1m6.36-3.53"/><path fill="#cad8dd" d="M313.74 261.33a3.9 3.9 0 0 1-1.94-5.1c2.38-4.48 4.66-9 7.03-13.48 7.32-13.69 15.12-27.12 21.67-41.2 8.37-17.22 16.08-34.74 24.24-52.05 4.2-9.7 8.06-19.8 14.59-28.22 3.53-4.95 10.45.76 5.9 4.96-5.84 7.78-9.4 16.96-13.2 25.84-12.52 26.65-24.04 53.82-38.38 79.57-2.64 4.78-5.33 9.6-7.86 14.42-2.32 4.44-4.6 8.9-6.95 13.33a3.9 3.9 0 0 1-5.1 1.93m17.38 11.57a4 4 0 0 1-1.84-2.24 4 4 0 0 1 .3-2.98l.19-.42 6.58-14.01 7.21-15.34 7.45-15.85 7.3-15.54 7.35-15.64 7.44-15.82 7.32-15.58 7.32-15.57q2.32-4.98 4.68-9.97a3.8 3.8 0 0 1 2.25-1.84 3.9 3.9 0 0 1 4.83 2.54 4 4 0 0 1-.3 2.98q-3.58 7.58-7.12 15.17l-7.34 15.61-7.4 15.76-7.33 15.58-7.38 15.7-7.43 15.82-7.29 15.5-7.16 15.23-4.09 8.7-.3.66a3.8 3.8 0 0 1-3.4 2.02 4 4 0 0 1-1.84-.47"/><path fill="#cad8dd" d="M353.41 213.27c-8.61-1.6-12.64-10.14-10.58-18.23a3.9 3.9 0 0 1 4.8-2.6c3.76 1.13 2.39 4.93 2.52 7.84-.22 3.07 3.22 6.13 6.21 5.2 3.98-1.16 5.92-5.34 8.43-8.31 3.52-7.45 10.66-3.47 8.14 1.76-4.58 6.6-10.22 15.75-19.52 14.33m39.97-63c-8.18-.58.67-16.38-9.22-21.12-1.77-1.19-4.52-.68-5.53-2.92-1.1-1.96-.16-4.74 2-5.48 5.4-1.09 11.55 3.78 14.05 8.33 2 3.64 2.47 7.76 2.5 11.85.1 3.42 1.18 9.23-3.8 9.33m-7.54-26.3c-.01-.34-.13-.66-.23-.98l-.17-.37q.3.66.4 1.35"/><path fill="#fff" d="M444.15 413.3c-1.9-7.3-3.63-14.63-5.44-21.95-.38-1.73-.96-3.42-1.32-5.14-.76-4.62 6.4-6.15 7.55-1.58 1.46 5.63 2.82 11.28 4.2 16.92.44 3.57 3.5 9.49 2.07 12.6-1.52 2.91-6.26 2.39-7.07-.85m6.16 21.21c-.58-2.77-2.31-6.25-.03-8.66 1.4-1.59 4-1.5 5.46-.08 1.69 1.75 1.05 4.48 2 6.63 1.32 4.84-5.98 6.95-7.42 2.11m-197.03-85.8c-.93-1.97.42-3.65 1.3-5.28 1.12-2.8 2.63-6.6 6.4-5.12 3.57 1.52 2.2 5.51.72 8.1-1.25 4-5.88 7-8.42 2.3m77.1-93.01c-6.16-2.16-.24-12.53 4.55-7.53 2.56 2.98-.53 8.91-4.55 7.52m-96.6 146.08c-2.7-1.15-2.93-5.15-.49-6.72 1.19-.79 2.64-1 3.99-1.4 5.66-1.45 11.1-3.56 16.6-5.55a81 81 0 0 1 9.11-2.65c3.21-.78 5.89 3.19 4 5.88-1.54 2.37-9.23 3.01-12.36 4.7-4.95 1.82-9.88 3.68-15 4.97-1.95.34-3.88 1.79-5.85.77"/><path fill="#b4d0d8" d="m298.72 396.77.92-.33-1.26 5.6-.1.46-.14.62-.22.97-.26 1.21-.15.73-.1.44-.04.23-.17.79-.02.15-.19.94-.16.86-.05.25-.05.3-.08.43-.03.13-.14.85-.06.3-.01.05-.06.25q-.21 1-.45 2.03l-8.82 2.93-15.37 5.12-15.94 5.3-16.38 5.45-8.26 2.74-1.09.37c1.06-4.31 2.19-8.6 3.12-12.94l.08-.5c.32-1.79.7-3.62.9-5.46l.03-.4.71-.19.81-.18c4.36-1.06 8.7-2.2 12.98-3.52 8.26-2.48 16.52-4.95 24.75-7.52 8.52-2.57 16.9-5.54 25.3-8.45zm-72.32 18.24-.01.5-.02.25q0 .26-.04.5a60 60 0 0 1-1.26 7.1q-.95 4.05-1.97 8.09a39 39 0 0 0-13.62-8.62c-5.63-1.76-11.69-2.96-17.6-2.44l.17-.09a9 9 0 0 1 .98-.4l.17-.06a10 10 0 0 1 1.57-.4l-9.54-5.84-14.63-8.96-11.13-6.82q.03-.25.04-.52a99 99 0 0 1 1.6-19.13l.05-.3.02-.1.07-.48.07-.5v-.09l.09-.56 1.56 1.13.43.3.58.42 1.36.95 1.18.82 1.2.83q2.48 1.75 5 3.45l.65.44 1.04.69.5.33.9.6a300 300 0 0 0 6.43 4.08l.93.57.87.53a430 430 0 0 0 10.8 6.38l1.57.9 1.08.6 1.63.92.95.53 4.26 2.37 1.27.7 4.43 2.42 1.42.78 4.83 2.62.96.52z"/><path fill="#76939c" d="M258.63 446.06q-1.27-.28-2.5-.63c-.69-.2-1.38-.39-2.04-.65q-1.3-.52-2.54-1.13c-.73-.35-1.44-.8-2.12-1.24a19 19 0 0 1-4-3.36l2.68-.89q2.96-.97 5.91-1.97l.1.07q.91.5 1.85.97a21 21 0 0 0 2.7.9q1.02.3 2.08.48.47.05.96.08.53-.02 1.04-.07.59-.09 1.16-.21.84-.26 1.67-.58l.87-.43.76-.52q.6-.49 1.15-1.01.4-.43.78-.88.55-.79 1.03-1.6.84-1.54 1.62-3.1l.27-.1 7.97-2.65 1.62-.54a83 83 0 0 1-4.52 9.72 24 24 0 0 1-2.03 3.15 18 18 0 0 1-3.43 3.3 17.4 17.4 0 0 1-9.82 3.23q-1.65 0-3.24-.34z"/><path fill="#e283ba" d="M217.69 490.88c-2.48-2.14-1.17-5.08.85-6.95 2.77-3.96 5.09-8.36 6.06-13.12.96-7.84-1.46-15.79-5.32-22.55-3.56-5.27-8.45-10.4-14.68-12.29q-1.64-.36-3.34-.32c-2.9.19-5.23-3.03-3.81-5.67 2.15-4.63 12.36-.81 15.51 1.32 10.88 6.77 17.82 18.77 19.24 31.4.64 4.55.5 9.24-1.09 13.6a42 42 0 0 1-4.07 8.68c-1.56 2.45-3.86 6.82-6.91 6.82-.77 0-1.58-.27-2.44-.92"/><path fill="#e283ba" d="M215.58 485.27c-1.86-1.12-2.11-3.51-1.34-5.4.53-1.58.87-3.47 2.46-4.36a66 66 0 0 0 2.66-10.82c.42-2-.77-4.19.48-5.99a3.9 3.9 0 0 1 5.34-1.14c4.12 3.4.97 12.06 0 16.53-1.24 3.66-2.81 11.76-7.37 11.76a5 5 0 0 1-2.23-.57"/><path fill="#8a1f6a" d="M225.66 482.5c-3.35-2.69-.83-5.56.94-8.23a16 16 0 0 0 2.18-5.95c.97-5.65 0-11.35-1.33-16.87-1.16-4.7-3.82-8.84-7.12-12.33-5.29-5.75-11.73-8.53-19.37-9.6-3.36-.46-6.9-.78-10.16.06-1.2.21-2.12 1.13-3.36 1.14-3.88.21-5.56-5.01-2.27-7.12 2.73-1.68 6.11-2.06 9.26-2.25a54 54 0 0 1 18.24 3.2c11.85 5 21.12 16 23.1 28.78 1.44 7.04 1.83 14.62-.78 21.43-1.48 2.84-3.6 8.43-7.12 8.44q-1.03.02-2.2-.7m-25.73 54.94c-.22-6.62 6.95-1.6 8.9-11.86.26-1.39-.1-2.84.61-4.12 1.47-3.01 6.32-2.42 7.1.8.5 3.5-.47 7.13-1.96 10.29-1.14 3.23-6.77 8.2-10.8 8.2-1.75 0-3.2-.93-3.85-3.31"/><path fill="#000" d="M194.46 547c-4.23-.12-5.86-5.75-1.85-7.63.92-.45 1.85-.3 2.79-.14a6 6 0 0 0 2.06.1c4.61-.54 9.3-2.12 13.15-4.71a9 9 0 0 0 2.43-3.48c2.7-5.75 13.18-.8 2.98 8.97-4.71 3.98-13.4 6.95-19.95 6.95q-.83 0-1.61-.06"/><path fill="#76939c" d="m255.6 459.38-.36.13-.1.04-.24.1-.1.04-.33.14-.37.17-.33.15-.12.05-.28.14-.36.18a30 30 0 0 0-1.76 1l-.28.17-.39.24-.52.33q-1.58 1.05-3.14 2.13l-.33.23-.04.03c-1.1-2.38-2.54-4.3-4.56-5.43a4 4 0 0 1 1.57-.24c.95-.04 1.9-.16 2.85-.23q1.5-.12 3-.2c1.94-.14 3.88-.24 5.81-.42l-.52.05.21-.02a4 4 0 0 1 2.91.66 3.87 3.87 0 0 1-.4 6.54q-.8-3.01-1.83-5.98z"/><path fill="#76939c" d="m255.6 459.38-.36.13-.09.04-.24.1-.11.04-.33.14-.37.17-.33.15-.12.05-.28.14-.36.18-1.1.6-.27.16-.38.23-.3.18-.38.24-.51.33q-1.6 1.05-3.14 2.13l-.33.23-.05.03c-.97-2.11-2.22-3.86-3.91-5.02q.69-.79 1.72-1.13c1.43-.47 2.94-.5 4.43-.6q1.3-.06 2.6-.05 2.07-.04 4.12 0 .75-.13 1.52.07.36.08.7.21a3.9 3.9 0 0 1 2.46 4 4 4 0 0 1-2.75 3.33 87 87 0 0 0-1.85-6.08z"/><path fill="#fff" d="m242.46 459.5.94.05q2 .04 4-.03c1.22-.05 2.44-.08 3.66-.18q.37-.04.72-.13l-.18.04a4 4 0 0 1 3.03.52l-.16.06-.37.16-.32.16-.13.05-.28.14-.35.18-.36.19-1.02.57-.38.23-.3.18-.38.24-.51.33q-1.6 1.05-3.14 2.13l-.33.23-.05.03c-1-2.19-2.31-4-4.1-5.15"/><path fill="#fff" d="M247.9 463.7h-1.82c-1.17-2.2-2.7-3.92-4.83-4.84v-.01l.15-.14.02-.01.13-.11.12-.1.18-.15.27-.2.17-.14.19-.13.1-.07.73-.52.09-.06.63-.43.08-.07 1.17-.72.96-.01h1.25q1.3 0 2.6-.03c1.19-.05 2.31-.23 3.47.2.74.28 1.39.77 1.89 1.37.8.95 1.07 2.18 1.13 3.39q.05.82.05 1.66a85 85 0 0 0-1.03-3.2l-.36.14q-.04 0-.09.04l-.24.1q-.06 0-.11.03l-.7.3q-.16.09-.33.16l-.12.06-.28.13-.35.19-.36.18a25 25 0 0 0-1.4.8l-.3.18-.38.24-.51.33q-1.09.71-2.15 1.45z"/><path fill="#fff" d="M247.9 466.67c-1.12-2.31-3.78-4.1-3.62-6.85.2-3.27 4.81-4.72 6.8-2.07a57 57 0 0 1 3.34 4.79c2.58 4.35-3.72 8.34-6.52 4.13"/><path fill="#fff" d="m250.87 471.09-1.16-8.3c-.36-1.74-.28-3.75 1.23-4.94a3.86 3.86 0 0 1 6.33 3.28c.36 2.9.8 5.77 1.21 8.65a4 4 0 0 1-.67 2.9c-1.82 2.75-6.5 1.71-6.93-1.59"/><path fill="#76939c" d="M237.69 459.89c-3.73-1.24-3.43-6.65.41-7.46 5.34-.25 10.63-1.25 15.96-1.76 2.03-.22 3.87.75 5.36 2.04 3.8 3.56-1.34 9.17-5.26 5.68-4.56.51-9.1 1.23-13.66 1.66-.91.07-1.94.18-2.81-.16m.2.03"/><path fill="#8a1f6a" d="M243.07 476.66c-1.97-.97-2.06-3.4-2.71-5.23-.62-2.04-1.17-4.1-1.98-6.07-1.2-3.13-.58-3.69-4.22-4.43-3.28-.64-3.97-5.48-1.05-7.06 1.43-.9 3.1-.45 4.59.04 2.08.6 4.15 1.6 5.52 3.32 1.06 1.38 1.54 3.1 2.12 4.72 1.02 2.5 1.75 5.09 2.53 7.66.23.73.41 1.47.63 2.2 1.35 3.29-2.27 6.59-5.43 4.85m3.87-6.67-.18-.11-.45-.21-.12-.03q.38.14.75.35m-1.5-.53q-.3-.06-.64-.04h.09q.28 0 .55.04"/><path fill="#000" d="m245.77 146.65-1.94-1.04 7.29 3.21.35.15-.4.05-.63.1zM285.74 167l-7.53-3.71q-.44-.87-.92-1.73-.56-.88-1.16-1.73l8.71 3.86 2.25 1 .18.08a26 26 0 0 1 .86 3.27zm-37.82 41.64a31 31 0 0 1-5.76-1.72 36 36 0 0 1-4.36-2.08 36 36 0 0 1-3.86-2.56q-1.94-1.5-3.66-3.22a36 36 0 0 1-3.02-3.54 35 35 0 0 1-4.47-8.12 34.3 34.3 0 0 1 1.3-27.5 33 33 0 0 1 4.6-6.94l6.59 2.9.06.07q.3.33.66.61l-.05.05q-1.28 1.35-2.42 2.83-.93 1.3-1.75 2.67a37 37 0 0 0-1.45 2.96 37 37 0 0 0-1.1 3.25q-.45 1.86-.72 3.74-.15 1.65-.19 3.29.06 1.9.3 3.8.3 1.63.72 3.22.5 1.65 1.16 3.25.75 1.63 1.64 3.18.93 1.45 1.97 2.83 1.1 1.3 2.3 2.51a40 40 0 0 0 2.57 2.18q1.37.97 2.81 1.82 1.25.69 2.55 1.26 1.7.67 3.44 1.19 1.92.47 3.88.75 1.67.15 3.35.17 1.69-.06 3.36-.26 1.63-.26 3.21-.66 1.96-.58 3.85-1.36 1.56-.75 3.05-1.6 1.43-.94 2.78-1.97 1.22-1.03 2.36-2.16 1.13-1.21 2.15-2.51a40 40 0 0 0 1.79-2.72 38 38 0 0 0 1.6-3.3q.57-1.54 1.03-3.12.4-1.7.66-3.42.1-1.11.16-2.22l.38.17 5.88 2.88-.6-.3 1.85.92a34 34 0 0 1-17.69 25.4 35 35 0 0 1-4.22 1.9c-1.44.57-2.98 1-4.5 1.33a39 39 0 0 1-7.37.83c-2.29 0-4.59-.26-6.82-.69m-9.94-26.74-.04.03zm-.04.02-.04.03z"/><path fill="#000" d="M252.6 194.4q-.81-.04-1.64-.15l1.13-4.75.1-.44q.63-2.52 1.22-5.03l.08-.32.06-.24c.33-1.4.66-2.78.9-4.2.15-.93.24-1.92-.08-2.83a3.7 3.7 0 0 0-3.8-2.46c-1.23.1-2.23.94-3.22 1.6l-6.72 4.51-.36.24-.29.2h-.01l-.02.01-.34.23-.6.41-.13.09-.16.1.05-.03-.87.6-1.79 1.25.26-.18-.26.18q-.67-1.4-1.06-2.9c-.85-3.19-1-6.55-.21-9.78q.56-2.39 1.7-4.57c.76-1.4 1.67-2.66 2.7-3.87a18 18 0 0 1 3.36-2.99l11.35 5.05 3.34 1.5q7.86 3.55 15.74 7.06.27 2.25.02 4.5a19.3 19.3 0 0 1-13.13 16.23 12 12 0 0 1-1.4.4l-.1.03-.22.05-.5.11-.25.06a19 19 0 0 1-4.86.32m8.04-22.83a5.6 5.6 0 0 0-2.54 2.33 6 6 0 0 0-.69 2.7 5.4 5.4 0 0 0 1.94 4.15 5.6 5.6 0 0 0 3.57 1.28h.04a5.5 5.5 0 0 0 5.23-4.16 5.5 5.5 0 0 0-3.75-6.55 5.3 5.3 0 0 0-3.8.26"/><path fill="#fff" d="M276.6 162.49q-9.03-4.47-17.96-9.09l-.72-.37.26.14h-.02l-7.73-4.04.64-.1q.2-.04.4-.05a3851 3851 0 0 1 16.23 7.12l8.43 3.73q.6.85 1.15 1.73.5.85.93 1.73zm-24.93 38.83q-1.96-.27-3.88-.75-1.74-.51-3.44-1.19-1.3-.57-2.55-1.25a40 40 0 0 1-2.81-1.83q-1.34-1.03-2.57-2.17-1.2-1.21-2.3-2.52-1.05-1.36-1.97-2.83-.9-1.56-1.64-3.18a41 41 0 0 1-1.16-3.24 40 40 0 0 1-.71-3.24 37 37 0 0 1-.3-3.8q.01-1.65.18-3.28.27-1.88.72-3.74.47-1.65 1.1-3.25.66-1.52 1.45-2.97.82-1.37 1.75-2.67a38 38 0 0 1 2.42-2.82l.05-.05.38.29.86.66c1.2.87 2.56 2.01 4.15 1.75q.5-.09.96-.27l.25.12c-1.22.85-2.4 1.85-3.36 2.99a19.5 19.5 0 0 0-4.4 8.43 19.8 19.8 0 0 0 1.27 12.69l.26-.19-.26.19 1.82-1.28-.04.02.09-.06.79-.54.1-.07.13-.09.6-.4q.17-.14.35-.24h.01l.02-.01.28-.2.37-.24 6.71-4.5c1-.67 2-1.5 3.23-1.61a3.7 3.7 0 0 1 3.8 2.46c.32.91.22 1.9.07 2.83a62 62 0 0 1-.9 4.2l-.05.24-.08.32q-.6 2.52-1.22 5.03l-.1.45-1.14 4.74c.55.09 1.11.11 1.64.15q.6.04 1.2.04 1.85 0 3.66-.36l.25-.06q.24-.03.5-.11l.21-.05.11-.03.54-.14q.44-.1.86-.26a19.4 19.4 0 0 0 13.13-16.24q.24-2.25-.02-4.5l2.65 1.18 5.33 2.32q-.06 1.13-.17 2.22a40 40 0 0 1-.66 3.42q-.45 1.58-1.02 3.11a38 38 0 0 1-1.6 3.31q-.85 1.4-1.8 2.72-1.02 1.3-2.14 2.51-1.14 1.13-2.37 2.16-1.34 1.04-2.78 1.97-1.49.85-3.05 1.6-1.88.79-3.84 1.37-1.6.39-3.2.66-1.69.2-3.37.26a41 41 0 0 1-3.35-.18"/><path fill="#fff" d="M262.92 182.04a5.7 5.7 0 0 1-3.57-1.3 5.4 5.4 0 0 1-1.94-4.13q.01-1.44.69-2.7a5.6 5.6 0 0 1 4.8-2.82q.8 0 1.54.23c2.69.8 4.52 3.77 3.75 6.55a5.5 5.5 0 0 1-5.23 4.17z"/><path fill="#b14429" d="M245.53 246.7q-2.4-.12-4.69-.79a21 21 0 0 1-4.34-1.87 22 22 0 0 1-6.7-6.02 28 28 0 0 1-4.14-8.25 32 32 0 0 1-1.4-8.5c-.1-2.75.16-5.54.74-8.23a34 34 0 0 1 7.67-15.53c4.1-4.6 9.81-8.08 16.07-8.5a20.4 20.4 0 0 1 16.78 6.72 27 27 0 0 1 6.27 12.08q.58.39.99 1.05c.43 1.1 1.92 2.14 2.83 2.4 5.53 2.45 10.77 2.87 13.78 8.9 4.56 7.9-3.52 17.88-12.06 17.05-3.37-.13-6.52-1.83-9.9-1.75a3.6 3.6 0 0 1-2.2 1.54 27 27 0 0 1-10.77 8.18 21 21 0 0 1-8.93 1.53m4.14-49.93q-.82.06-1.65.2-.93.2-1.83.47-.95.34-1.88.77-.93.47-1.81 1.02-1.02.69-1.97 1.48-.97.86-1.87 1.81-.98 1.12-1.86 2.33-.9 1.35-1.68 2.79-.8 1.58-1.42 3.26-.6 1.73-1.01 3.5a33 33 0 0 0-.54 3.69q-.12 1.78-.05 3.55.12 1.7.42 3.4.3 1.42.73 2.81.44 1.25.99 2.44.55 1.12 1.21 2.17.6.87 1.26 1.7.6.68 1.27 1.3.72.65 1.5 1.2.71.48 1.45.89.75.36 1.5.65.75.25 1.53.44.82.15 1.65.24.82.04 1.66 0a20 20 0 0 0 1.67-.2q.9-.2 1.78-.46.96-.34 1.89-.77.93-.48 1.83-1.04a25 25 0 0 0 1.9-1.42 26 26 0 0 0 1.95-1.88 29 29 0 0 0 1.9-2.41l.22-.31a3.8 3.8 0 0 1 2.42-1.42c2.07-1.36 5.03-1.66 7.41-1.18 4.64.69 10.45 4.08 12.64-2.24.03-2.53-2.3-4.3-4.57-4.86a72 72 0 0 1-5.94-2.34c-2.04-.85-4.35-2.35-5.65-4.32a4 4 0 0 1-2.26-3.07l-.02-.13a30 30 0 0 0-.79-3.04 27 27 0 0 0-1-2.48 25 25 0 0 0-1.17-2.1q-.6-.87-1.27-1.7a22 22 0 0 0-1.33-1.38q-.66-.59-1.38-1.1-.74-.51-1.53-.93a19 19 0 0 0-1.46-.64 19 19 0 0 0-1.57-.45q-.78-.15-1.55-.23a20 20 0 0 0-1.71-.02z"/><path fill="#b14429" d="M241.78 230.92c-2.52-1.99-3.75-5.05-4.3-8.13-.5-2.9-.2-5.93.51-8.78.35-1.4.86-2.79 1.51-4.08a18 18 0 0 1 2.52-3.87 13 13 0 0 1 4.04-3.24 9.3 9.3 0 0 1 5.5-.93c2.97.47 5.4 2.52 6.78 5.12l.09.17.06.14c1.66 3.44 1.96 7.34 1.37 11.1a21.4 21.4 0 0 1-4.25 9.84 14 14 0 0 1-3.25 2.94c-.62.39-1.26.75-1.96 1a11 11 0 0 1-3.47.62 8.5 8.5 0 0 1-5.14-1.9m8.28-21.28-.2.05-.27.1-.36.2-.52.4-.6.57q-.36.42-.69.87-.4.6-.75 1.25-.39.78-.7 1.6-.33.96-.57 1.97-.2.97-.3 1.97-.05.86-.02 1.73.06.75.17 1.49.12.54.28 1.08l.31.77.28.5.21.3.21.21.17.14.13.08.07.03.07.02.1.02h.1q.06 0 .11-.02.13-.01.25-.06l.29-.11.37-.22a7 7 0 0 0 1.05-.91q.37-.45.71-.9.4-.6.74-1.23.42-.81.73-1.66.32-.93.54-1.88.2-.97.3-1.97.06-.92.02-1.84-.05-.73-.17-1.45-.12-.56-.28-1.1l-.3-.72a7 7 0 0 0-.51-.82l-.22-.23-.14-.11-.1-.07-.11-.04-.07-.02-.06-.01h-.13z"/><path fill="#e87a5e" d="M245.6 238.89q-.83-.09-1.64-.24-.78-.19-1.53-.44-.76-.3-1.5-.65-.75-.42-1.46-.88-.77-.57-1.5-1.2-.65-.64-1.26-1.32-.67-.82-1.26-1.7a27 27 0 0 1-1.22-2.16q-.55-1.19-.98-2.44-.44-1.4-.73-2.82-.3-1.68-.42-3.39-.07-1.77.04-3.55.18-1.86.55-3.68.4-1.8 1-3.51.63-1.67 1.43-3.26.76-1.44 1.68-2.8.87-1.2 1.86-2.32.89-.95 1.87-1.81.94-.8 1.96-1.48.9-.56 1.82-1.02a22 22 0 0 1 1.88-.77q.9-.28 1.83-.47.83-.14 1.65-.2.86-.03 1.7.01.8.09 1.56.24.8.19 1.58.45.75.29 1.46.64.78.42 1.52.92.72.52 1.38 1.11.7.66 1.33 1.38.68.83 1.27 1.7.64 1.03 1.18 2.1.55 1.22 1 2.48.46 1.49.78 3.04l.02.13a4 4 0 0 0 2.26 3.07c1.3 1.97 3.62 3.47 5.66 4.32 1.95.84 3.9 1.68 5.93 2.34 2.27.56 4.6 2.32 4.57 4.86-2.19 6.32-8 2.92-12.64 2.24-2.38-.48-5.34-.18-7.41 1.18l-.35.07a3.8 3.8 0 0 0-2.29 1.66q-.88 1.25-1.9 2.4a26 26 0 0 1-1.94 1.89q-.93.75-1.9 1.42-.9.56-1.84 1.04-.93.43-1.9.77-.87.28-1.76.46-.84.15-1.68.2a18 18 0 0 1-1.66 0zm.46-36.07c-1.58.76-2.9 1.94-4.04 3.24a18 18 0 0 0-2.52 3.87 20 20 0 0 0-1.5 4.08 21 21 0 0 0-.51 8.78c.54 3.08 1.77 6.14 4.3 8.13a8.5 8.5 0 0 0 5.48 1.89c1.1-.06 2.1-.24 3.13-.62q1.04-.39 1.95-1a14 14 0 0 0 3.26-2.93 21.3 21.3 0 0 0 4.25-9.85c.58-3.75.28-7.65-1.37-11.1l-.07-.13-.09-.17c-1.39-2.6-3.8-4.65-6.77-5.12q-.63-.1-1.27-.1a10 10 0 0 0-4.23 1.03"/><path fill="#813a28" d="m247.08 224.99-.1-.02-.06-.02-.08-.03-.12-.08-.18-.14-.2-.22-.22-.3q-.16-.24-.28-.49-.16-.38-.3-.77-.16-.54-.29-1.09-.12-.74-.17-1.48-.01-.87.03-1.74.1-.98.29-1.97.24-1 .57-1.97.31-.8.7-1.6.36-.63.76-1.24.33-.46.69-.87.29-.3.59-.57l.52-.4.36-.2.47-.16.15-.01h.18l.07.02.1.05.11.07.14.1.22.24a5 5 0 0 1 .52.81l.3.73q.16.54.27 1.1.12.7.18 1.44.03.92-.03 1.85-.09 1-.3 1.97-.22.95-.54 1.88a19 19 0 0 1-.72 1.66q-.34.63-.75 1.23-.33.45-.71.9-.3.3-.6.57-.22.18-.45.34l-.37.21-.29.12-.24.06-.11.02z"/><path fill="#000" d="m296.63 171.72-8.95-3.87q1.56-.83 3.19-1.48l12.25 5.4q-1.62.04-3.23.24-.91.15-1.81.34zm37.93 16.06-8.76-3.69q-.76-1.2-1.62-2.31-.5-.6-1.02-1.19l9.08 4.03 3.24 1.44a55 55 0 0 1 .83 2.46zm-37.83 43.86q-2.95-.58-5.76-1.72a36 36 0 0 1-4.36-2.08 37 37 0 0 1-3.86-2.56q-1.94-1.5-3.66-3.23a35 35 0 0 1-3.02-3.53 35 35 0 0 1-4.47-8.12 34.3 34.3 0 0 1 1.3-27.51 34 34 0 0 1 5.42-7.87l3.1 1.35 4.45 2.19-1.1 1.03q-1.29 1.35-2.43 2.82-.93 1.3-1.75 2.68-.78 1.44-1.45 2.95a38 38 0 0 0-1.1 3.26q-.45 1.85-.72 3.73-.16 1.65-.18 3.3.05 1.9.3 3.8.28 1.62.7 3.23.52 1.64 1.16 3.24.75 1.63 1.65 3.18.92 1.46 1.97 2.83 1.1 1.3 2.3 2.52a40 40 0 0 0 2.57 2.17q1.37.98 2.82 1.82c.83.45 1.67.9 2.54 1.26q1.7.67 3.45 1.2 1.91.47 3.87.74 1.68.16 3.35.18 1.69-.06 3.37-.26 1.61-.27 3.2-.66 1.96-.58 3.84-1.37a40 40 0 0 0 3.06-1.6q1.43-.93 2.78-1.97 1.23-1.03 2.36-2.16a43 43 0 0 0 2.15-2.51q.95-1.31 1.79-2.72a38 38 0 0 0 1.6-3.3q.57-1.54 1.02-3.12.42-1.69.66-3.42.12-1.04.16-2.09l7.54 3.41a34.1 34.1 0 0 1-21.93 27.44c-1.45.57-2.98 1-4.5 1.33a39 39 0 0 1-7.37.83q-3.45-.02-6.82-.7m-9.94-26.75-.05.03z"/><path fill="#000" d="M301.4 217.4q-.8-.05-1.63-.15l1.13-4.75.1-.44q.63-2.51 1.23-5.03l.07-.32.06-.24c.33-1.4.66-2.79.9-4.2.15-.94.25-1.92-.08-2.83a3.7 3.7 0 0 0-3.8-2.47c-1.23.1-2.23.94-3.22 1.62l-6.72 4.5-.36.24-.28.2h-.02l-.02.01-.34.23-.6.41-.13.09-.16.1.05-.03-.85.58.01-.01-1.82 1.28.26-.18-.26.18q-.67-1.4-1.06-2.9c-.85-3.2-1-6.55-.21-9.78a19.5 19.5 0 0 1 4.4-8.44 18 18 0 0 1 3.57-3.13l.49-.32q5.13 2.51 10.3 4.98a1486 1486 0 0 0 19.43 9.08q.25 2.25.02 4.5a19.3 19.3 0 0 1-13.13 16.23 12 12 0 0 1-1.4.4l-.11.04-.22.05-.5.11-.24.06a19 19 0 0 1-4.86.32m8.05-22.83a5.6 5.6 0 0 0-2.54 2.33 6 6 0 0 0-.7 2.7 5.4 5.4 0 0 0 1.95 4.14 5.6 5.6 0 0 0 3.57 1.29h.04a5.5 5.5 0 0 0 5.23-4.16 5.5 5.5 0 0 0-3.75-6.56 5.3 5.3 0 0 0-3.8.26"/><path fill="#fff" d="m299.31 172.88.08.03zm.09.04h.02zm.01 0h.02zm.21.1h.02zm15.94 6.77q-4.76-2-9.5-4.03l-5-2.13q-.38-.17-.75-.31l-.25-.12h-.01l-.03-.01-.02-.01-.26-.11-.27-.12h.02l-.07-.03q-.04 0-.08-.03l-.03-.01-1.22-.53 1.81-.34q1.61-.18 3.24-.24l1 .45q8.27 3.62 16.51 7.26l2.53 1.12q.53.58 1.02 1.18.85 1.14 1.62 2.31zm-15.09 44.53q-1.96-.28-3.88-.75a40 40 0 0 1-3.44-1.2 33 33 0 0 1-2.55-1.25 40 40 0 0 1-2.81-1.82q-1.34-1.04-2.57-2.18-1.2-1.2-2.3-2.52-1.05-1.36-1.98-2.82-.88-1.56-1.64-3.19a41 41 0 0 1-1.15-3.24 40 40 0 0 1-.71-3.23 37 37 0 0 1-.3-3.8q.01-1.65.18-3.29.26-1.89.72-3.73.47-1.65 1.1-3.26.66-1.52 1.45-2.96.82-1.37 1.74-2.67 1.15-1.48 2.43-2.83.54-.53 1.1-1.03l.96.47 5.29 2.6-.5.32a18 18 0 0 0-3.56 3.13 22 22 0 0 0-2.69 3.87 20 20 0 0 0-1.71 4.56 19.8 19.8 0 0 0 1.27 12.69l.26-.19-.26.19 1.82-1.28-.04.02.09-.05.9-.62.13-.08.6-.41q.16-.14.34-.23l.01-.01h.01l.01-.01.28-.19h.01q.17-.14.36-.24l6.71-4.5c1-.68 2-1.52 3.23-1.62a3.7 3.7 0 0 1 3.8 2.46c.32.92.22 1.9.07 2.84a60 60 0 0 1-.95 4.44l-.08.31-1.21 5.03-.11.45-1.13 4.75c.54.08 1.1.1 1.63.14a19 19 0 0 0 4.86-.32l.25-.05q.25-.04.5-.12l.21-.05.11-.03.54-.13q.44-.12.86-.27a19 19 0 0 0 6.3-3.54 19.3 19.3 0 0 0 6.81-17.2q3.99 1.83 7.97 3.63-.04 1.05-.16 2.1a40 40 0 0 1-.65 3.41q-.45 1.58-1.03 3.12a38 38 0 0 1-1.6 3.3q-.85 1.4-1.8 2.72-1.02 1.3-2.14 2.51a39 39 0 0 1-2.36 2.16q-1.35 1.04-2.78 1.97-1.5.87-3.06 1.6-1.88.79-3.83 1.37a41 41 0 0 1-3.21.66 42 42 0 0 1-3.37.26 41 41 0 0 1-3.35-.18"/><path fill="#fff" d="M311.73 205.03a5.7 5.7 0 0 1-3.57-1.29 5.4 5.4 0 0 1-1.94-4.14q0-1.44.69-2.7a5.6 5.6 0 0 1 4.8-2.82q.8 0 1.54.23c2.68.81 4.52 3.77 3.75 6.56a5.5 5.5 0 0 1-5.23 4.16z"/><path fill="#8a1f6a" d="M334.59 204.01c-22.98-10.96-46.45-20.87-69.38-31.96-10.67-4.97-21.4-9.83-31.9-15.16-1.08-.54-2.2-1.15-2.8-2.27-8.46-4.5-5.08-16.46 4.1-17.09 3.08-.27 6.06.7 8.88 1.8 5.45 1.72 10.47 4.35 15.45 7.08 11.23 5.52 22.57 10.82 33.85 16.21 10.2 4.75 20.54 9.21 30.59 14.3 6.92 3.72 14.95 6.06 20.8 11.46 5.5 6.38 1.47 16.24-6.2 16.24q-1.6 0-3.39-.6M233.19 147c1.22 1.9 4.37 1.72 5.22 4 32.88 15.91 66.28 30.96 99.49 46.02 6.98-3.69-15.23-11.44-17.75-13.23-12.49-6.3-25.4-11.68-37.95-17.82-7.6-3.51-15.14-7.18-22.67-10.83-2.9-1.12-17.75-9.98-23.79-9.98-1.48 0-2.43.53-2.54 1.84"/><path fill="#e283ba" d="M238.4 150.98c-.84-2.27-3.99-2.1-5.2-3.99.57-6.65 22.73 6.74 26.33 8.14 7.54 3.65 15.07 7.32 22.67 10.83 12.55 6.14 25.47 11.53 37.95 17.82 2.52 1.8 24.73 9.54 17.75 13.23-33.2-15.06-66.6-30.1-99.49-46.02"/><path fill="#e283ba" d="m335.68 198.14-11.48-5.37-13.85-6.49-14.51-6.8-14.4-6.73-14.24-6.67-13.71-6.42-13.73-6.42c-1.85-.87-3.72-1.71-5.56-2.6a3.84 3.84 0 0 1-1.87-5.04 3.83 3.83 0 0 1 5.04-1.87c1.8.88 3.64 1.7 5.46 2.56l7 3.28 13.54 6.34q7.1 3.3 14.17 6.63l14.03 6.56 14.6 6.84 14.32 6.7 13.62 6.37 4.74 2.22a3.84 3.84 0 0 1 1.87 5.04 3.86 3.86 0 0 1-5.04 1.87"/><defs><filter id="crests-ai-research-filter0_d_180_5202" width="436" height="531.6" x="88" y="35.2" color-interpolation-filters="sRGB" filterUnits="userSpaceOnUse"><feFlood flood-opacity="0" result="BackgroundImageFix"/><feColorMatrix in="SourceAlpha" result="hardAlpha" values="0 0 0 0 0 0 0 0 0 0 0 0 0 0 0 0 0 0 127 0"/><feOffset dx="12" dy="2"/><feComposite in2="hardAlpha" operator="out"/><feColorMatrix values="0 0 0 0 0 0 0 0 0 0 0 0 0 0 0 0 0 0 0.4 0"/><feBlend in2="BackgroundImageFix" result="effect1_dropShadow_180_5202"/><feBlend in="SourceGraphic" in2="effect1_dropShadow_180_5202" result="shape"/></filter></defs></svg>