<svg xmlns="http://www.w3.org/2000/svg" fill="none" viewBox="0 0 600 600"><g filter="url(#crests-blank-crest-filter0_d_24_738)"><mask id="crests-blank-crest-path-1-outside-1_24_738" width="420" height="394" x="89.01" y="103" fill="#000" maskUnits="userSpaceOnUse"><path fill="#fff" d="M89.01 103h420v394h-420z"/><path d="M296.95 120c10.03 0 20.02 1.02 29.87 2.97a147 147 0 0 1 28.25 8.77c9.4 3.97 18.27 9.06 26.48 15.14a105 105 0 0 1 20.78 20.19q4.02 5.19 7.33 10.84a72 72 0 0 1 2.58 4.81l.21.42c.48.43.86 1.01 1.07 1.62 1.6 4.8 3.34 9.56 5.07 14.33l6 16.6 8.53 23.62q.64.48 1.01 1.43.2.7 0 1.35l2.11 5.75.2.5q.18.46.32.93v.04l.07.2.32.9c1.12.33 2.29.54 3.39.99 10.86 4.08 17.15 16.37 14.87 27.59l-.09.69q.11.18.2.39c3.07 1.59 5.7 4 8.15 6.43 8.04 7.71 10.1 19.77 7.45 30.3-.6 2.09-2.25 8.17-4.6 11.12 7.01 13.67 11.56 29.18 11.87 44.54-.27 1.73-.06 5.69-.62 8.75 19.43 13.7 15.32 42.25 8.87 62.04-6.9 18.08-21.06 37.38-42.4 36.56-9.77.3-17.93-5.3-25.75-10.37-.98-.69-1.8-1.57-2.7-2.35-1 3.4-3.76 6.31-7.36 5.9h-.02q-.6.08-1.12-.09l-6.51-.04h-1.55c-12.97 0-25.95.07-38.93.1-13.16.02-26.3.12-39.47.16q-19.58.08-39.14.2l-39.5.25c-12.81.1-25.62.17-38.43.29q-2.69.01-5.44.07-1.4-.02-2.77.07c-.12 0-.24.05-.36.05H195q-.6 0-1.19-.16a9 9 0 0 1-3.44-.18l-.03-.03c-3.94-1.3-5.25-4.27-5.5-7.64-9.87 4.89-19.78 10.81-30.99 10.44h-.02c-21.28.12-35.75-24.05-42.16-41.82-6.66-16.9-7.85-40.45 7.78-52.74 1.13-.72 3-1.96 4.88-2.8-2.28-15.8 1.05-31.81 6.18-46.75a61 61 0 0 1 4.19-9.56c-4.18-6.2-4.02-14.7-.96-21.24 1.2-2.47 2.64-5.27 4.7-7.25-7.47-15.12 4.94-37.4 20.72-41.54 4.28-10.96 8.46-21.93 12.66-32.91q3.2-8.26 6.34-16.56l.22-.6c.06-.8.34-1.59.82-2.15l2.18-5.67c.74-1.9 1.52-3.8 2.16-5.74q.1-.46.32-.88.08-.27.21-.54a83 83 0 0 1 5.79-12.92q.26-.88.86-1.5 1.22-2.1 2.56-4.1a96 96 0 0 1 19.95-21.72c7.43-6 15.68-11.03 24.37-14.99 9.8-4.46 20.11-7.73 30.67-9.77a151 151 0 0 1 28.68-2.73"/></mask><path fill="#fff" d="M296.95 120c10.03 0 20.02 1.02 29.87 2.97a147 147 0 0 1 28.25 8.77c9.4 3.97 18.27 9.06 26.48 15.14a105 105 0 0 1 20.78 20.19q4.02 5.19 7.33 10.84a72 72 0 0 1 2.58 4.81l.21.42c.48.43.86 1.01 1.07 1.62 1.6 4.8 3.34 9.56 5.07 14.33l6 16.6 8.53 23.62q.64.48 1.01 1.43.2.7 0 1.35l2.11 5.75.2.5q.18.46.32.93v.04l.07.2.32.9c1.12.33 2.29.54 3.39.99 10.86 4.08 17.15 16.37 14.87 27.59l-.09.69q.11.18.2.39c3.07 1.59 5.7 4 8.15 6.43 8.04 7.71 10.1 19.77 7.45 30.3-.6 2.09-2.25 8.17-4.6 11.12 7.01 13.67 11.56 29.18 11.87 44.54-.27 1.73-.06 5.69-.62 8.75 19.43 13.7 15.32 42.25 8.87 62.04-6.9 18.08-21.06 37.38-42.4 36.56-9.77.3-17.93-5.3-25.75-10.37-.98-.69-1.8-1.57-2.7-2.35-1 3.4-3.76 6.31-7.36 5.9h-.02q-.6.08-1.12-.09l-6.51-.04h-1.55c-12.97 0-25.95.07-38.93.1-13.16.02-26.3.12-39.47.16q-19.58.08-39.14.2l-39.5.25c-12.81.1-25.62.17-38.43.29q-2.69.01-5.44.07-1.4-.02-2.77.07c-.12 0-.24.05-.36.05H195q-.6 0-1.19-.16a9 9 0 0 1-3.44-.18l-.03-.03c-3.94-1.3-5.25-4.27-5.5-7.64-9.87 4.89-19.78 10.81-30.99 10.44h-.02c-21.28.12-35.75-24.05-42.16-41.82-6.66-16.9-7.85-40.45 7.78-52.74 1.13-.72 3-1.96 4.88-2.8-2.28-15.8 1.05-31.81 6.18-46.75a61 61 0 0 1 4.19-9.56c-4.18-6.2-4.02-14.7-.96-21.24 1.2-2.47 2.64-5.27 4.7-7.25-7.47-15.12 4.94-37.4 20.72-41.54 4.28-10.96 8.46-21.93 12.66-32.91q3.2-8.26 6.34-16.56l.22-.6c.06-.8.34-1.59.82-2.15l2.18-5.67c.74-1.9 1.52-3.8 2.16-5.74q.1-.46.32-.88.08-.27.21-.54a83 83 0 0 1 5.79-12.92q.26-.88.86-1.5 1.22-2.1 2.56-4.1a96 96 0 0 1 19.95-21.72c7.43-6 15.68-11.03 24.37-14.99 9.8-4.46 20.11-7.73 30.67-9.77a151 151 0 0 1 28.68-2.73"/><path fill="#fff" d="M296.95 120v-17zm29.87 2.97 3.34-16.67-.05-.01zm28.25 8.77-6.6 15.67zm26.48 15.14-10.12 13.66.02.02zm20.78 20.19 13.44-10.4zm7.33 10.84-14.68 8.58.04.07zm2.58 4.81L397 190.24l.17.33zm.21.42-15.17 7.66a17 17 0 0 0 3.81 4.99zm1.07 1.62 16.1-5.42v-.02zm5.07 14.33 16-5.77-.02-.03zm6 16.6 15.99-5.78v-.02zm8.53 23.62-15.98 5.8a17 17 0 0 0 5.47 7.56zm1.01 1.43 16.3-4.87q-.21-.66-.45-1.3zm0 1.35-16.3-4.8a17 17 0 0 0 .33 10.62zm2.11 5.75-15.95 5.88.06.17zm.2.5-15.9 6.04.02.06zm.32.93h17q0-2.56-.75-5zm0 .04h-17q0 2.1.51 4.13zm.07.2 16-5.76q-.33-.94-.78-1.82zm.32.9-16.01 5.73a17 17 0 0 0 11.28 10.6zm3.39.99-6.4 15.75.42.16zm14.87 27.59-16.66-3.38-.17.97zm-.09.69-16.87-2.1a17 17 0 0 0 2.3 10.84zm.2.39-15.88 6.1a17 17 0 0 0 8.06 9zm8.15 6.43-11.97 12.07.2.2zm7.45 30.3 16.34 4.69.15-.53zm-4.6 11.12-13.3-10.59a17 17 0 0 0-1.83 18.35zm11.87 44.54 16.8 2.61q.22-1.46.2-2.95zm-.62 8.75-16.72-3.05a17 17 0 0 0 6.93 16.95zm8.87 62.04 15.88 6.07.29-.8zm-42.4 36.56.65-16.99h-1.18zm-25.75-10.37-9.8 13.9.55.37zm-2.7-2.35 11.1-12.87a17 17 0 0 0-27.42 8.1zm-7.36 5.9 1.91-16.88q-.95-.12-1.9-.11zm-.02 0v-17a17 17 0 0 0-2.1.14zm-1.12-.09 5.14-16.2a17 17 0 0 0-5.04-.8zm-6.51-.04v-17zm-1.55 0v-17zm-38.93.1.04 17zm-39.47.16-.06-17zm-39.14.2-.1-17h-.03zm-39.5.25-.12-17zm-38.43.29v17h.15zm-5.44.07v17h.22zm-2.77.07v17q.68 0 1.34-.05zm-.36.05v17zm-1.38-.16 4.4-16.42a17 17 0 0 0-6.97-.38zm-3.44-.18-12.02 12.02a17 17 0 0 0 7.7 4.42zm-.03-.03 12.03-12.02a17 17 0 0 0-6.7-4.12zm-5.5-7.64 16.96-1.23a17 17 0 0 0-24.5-14zm-30.99 10.44.56-16.99-.56-.01zm-.02 0v-17h-.1zm-42.16-41.82 16-5.77-.19-.47zm7.78-52.74-9.17-14.31q-.69.44-1.33.95zm4.88-2.8 6.87 15.56a17 17 0 0 0 9.96-17.98zm6.18-46.75 16.08 5.52v-.02zm4.19-9.56 14.9 8.2a17 17 0 0 0-.8-17.69zm-.96-21.24-15.29-7.45-.12.26zm4.7-7.25 11.78 12.25a17 17 0 0 0 3.46-19.78zm20.72-41.54 4.31 16.45A17 17 0 0 0 175 258.96zm12.66-32.91-15.87-6.1v.02zm6.34-16.56-15.89-6.06-.02.05zm.22-.6 15.89 6.06a17 17 0 0 0 1.07-4.9zm.82-2.15 12.92 11.06a17 17 0 0 0 2.97-5zm2.18-5.67 15.84 6.17.02-.03zm2.16-5.74 16.15 5.31q.33-1.02.54-2.07zm.32-.88 14.96 8.07a17 17 0 0 0 1.31-3.15zm.21-.54 15.21 7.6q.43-.86.75-1.74zm3.11-7.66 15.4 7.19.01-.02zm2.68-5.26 14.86 8.26a17 17 0 0 0 1.5-3.6zm.86-1.5 12.13 11.9a17 17 0 0 0 2.55-3.33zm2.56-4.1 14.16 9.4.03-.05zm19.95-21.72 10.66 13.25.03-.02zm24.37-14.99-7.05-15.47h-.01zm30.67-9.77-3.22-16.7zm28.68-2.73v17q13.34.02 26.57 2.64l3.3-16.67 3.3-16.68a171 171 0 0 0-33.17-3.29zm29.87 2.97-3.34 16.66c8.49 1.7 16.84 4.34 24.98 7.78l6.61-15.67 6.6-15.66a164 164 0 0 0-31.51-9.78zm28.25 8.77-6.6 15.67a112 112 0 0 1 22.96 13.13l10.12-13.66 10.1-13.67a145 145 0 0 0-29.97-17.13zm26.48 15.14-10.1 13.68a88 88 0 0 1 17.43 16.91l13.45-10.4 13.44-10.4a122 122 0 0 0-24.13-23.47zm20.78 20.19-13.45 10.4a84 84 0 0 1 6.1 9.02l14.68-8.58 14.67-8.59a118 118 0 0 0-8.56-12.66zm7.33 10.84-14.64 8.65q.99 1.66 1.97 3.68l15.25-7.52 15.25-7.51q-1.41-2.9-3.2-5.95zm2.58 4.81-15.08 7.85-.01-.02.05.09.08.16 15.18-7.66 15.17-7.65-.08-.17-.22-.44zm.21.42L401.1 195.8a13 13 0 0 1-3.68-5.58l16.1-5.45 16.11-5.44a21 21 0 0 0-5.8-8.82zm1.07 1.62-16.12 5.43c1.7 5.01 3.5 9.97 5.21 14.7l15.98-5.8 15.98-5.8c-1.74-4.8-3.4-9.38-4.94-13.95zm5.07 14.33-15.99 5.77 6.01 16.64 15.98-5.8 15.98-5.8-5.99-16.58zm6 16.6-15.98 5.8 8.53 23.63 15.98-5.81 15.98-5.8c-2.86-7.87-5.63-15.61-8.52-23.6zm8.53 23.62-10.51 13.36a14 14 0 0 1-4.31-5.76l15.83-6.17 15.85-6.18a20 20 0 0 0-6.34-8.6zm1.01 1.43-16.28 4.86c-.87-2.9-.76-5.8-.02-8.31l16.3 4.8 16.31 4.8a19.3 19.3 0 0 0-.01-11.02zm0 1.35-15.97 5.82 2.13 5.8 15.95-5.87 15.95-5.87-2.08-5.7zm2.11 5.75-15.89 6.05.2.5 15.88-6.05 15.9-6.04-.2-.5zm.2.5-15.87 6.1.06.16v.03l-.03-.1-.08-.27 16.24-5 16.25-5c-.3-.95-.63-1.8-.71-2.02zm.32.93h-17v.04h34v-.04zm0 .04-16.49 4.13a18 18 0 0 0 1.13 3.19l.12.24.05.11.02.05.02.03v.01l15.22-7.57 15.23-7.57v.02l.02.02.02.05.05.1.36.8c.14.35.47 1.17.75 2.27zm.07.2-15.99 5.75.04.1.26.78 16-5.73 16.01-5.72c.02.03.02.04-.04-.14-.05-.13-.15-.46-.28-.8zm.32.9-4.73 16.33c.54.16 1.03.29 1.37.37l.44.12.3.07c.34.09.07.04-.39-.15l6.4-15.75 6.4-15.75a31 31 0 0 0-3.76-1.23c-1.19-.31-.96-.24-1.3-.34zm3.39.99-5.98 15.91c2.56.96 4.92 4.74 4.2 8.3l16.65 3.38 16.66 3.38c3.84-18.88-6.38-39.68-25.55-46.88zm14.87 27.59-16.83-2.4-.13 1 16.87 2.09 16.88 2.09.04-.38zm-.09.69-14.57 8.74q-.72-1.22-1.1-2.25l15.86-6.1 15.87-6.1q-.53-1.44-1.48-3.04zm.2.39-7.82 15.1c.6.3 1.66 1.08 4 3.4l11.97-12.07 11.97-12.07c-2.56-2.54-6.75-6.58-12.31-9.46zm8.15 6.43-11.76 12.27c2.57 2.47 4.28 7.7 2.73 13.87l16.48 4.16 16.49 4.16c3.75-14.9 1.34-33.78-12.17-46.73zm7.45 30.3-16.34-4.69c-.35 1.22-.74 2.64-1.28 4.12q-.4 1.08-.64 1.57c-.2.4-.12.13.36-.47l13.3 10.6 13.3 10.58c3-3.77 4.76-8.26 5.63-10.67 1.03-2.82 1.76-5.48 2.01-6.35zm-4.6 11.12-15.12 7.76c6.05 11.8 9.75 24.79 10 37.12l16.99-.34 17-.34c-.37-18.38-5.77-36.42-13.75-51.96zm11.87 44.54-16.8-2.61c-.23 1.47-.3 2.89-.32 3.6l-.07 2.35q-.03 1.03-.08 1.71-.06.69-.07.65l16.72 3.05 16.73 3.06c.53-2.9.63-5.8.68-7.4l.06-2.06c.03-.62.04-.35-.05.26zm-.62 8.75-9.8 13.9c4.02 2.83 6.54 7.56 6.96 15.73.44 8.4-1.55 18.23-4.45 27.15l16.16 5.26 16.17 5.27c3.54-10.88 6.83-25.2 6.08-39.46-.76-14.48-5.91-30.87-21.32-41.74zm8.87 62.04-15.88-6.06c-2.88 7.54-7.01 14.55-11.85 19.33-4.63 4.58-9.18 6.49-14.02 6.3l-.65 16.99-.66 16.99c16.5.63 29.71-6.7 39.22-16.09 9.3-9.18 15.7-20.86 19.72-31.4zm-42.4 36.56-.53-17c-3.41.11-6.83-1.7-15.97-7.63l-9.25 14.26-9.25 14.27c6.5 4.22 19.4 13.6 35.52 13.09zm-25.75-10.37 9.8-13.89c.42.3.62.5.33.24l-.24-.23-.37-.34q-.42-.4-1.12-1l-11.1 12.87-11.1 12.87.2.2a31 31 0 0 0 3.79 3.18zm-2.7-2.35-16.32-4.78a7.7 7.7 0 0 1 2.45-3.66 11 11 0 0 1 8.42-2.54l-1.9 16.89-1.92 16.89c15.33 1.74 23.43-10.66 25.58-18.02zm-7.36 5.9v-17h-.02v34h.02zm-.02 0-2.1-16.86c1.97-.25 4.06-.08 6.12.57l-5.14 16.2-5.13 16.2a20 20 0 0 0 8.34.77zm-1.12-.09.1-17c-1.98 0-4.42-.04-6.61-.04v34c2.12 0 4.04.03 6.42.04zm-6.51-.04v-17h-1.55v34h1.55zm-1.55 0v-17c-12.97 0-26.09.07-38.96.1l.04 17 .03 17c13.08-.03 25.92-.1 38.9-.1zm-38.93.1-.03-17c-13.16.02-26.44.12-39.5.16l.06 17 .06 17c13.27-.05 26.28-.14 39.45-.16zm-39.47.16-.06-17q-19.6.08-39.18.2l.1 17 .09 17q19.57-.12 39.11-.2zm-39.14.2-.13-17-39.5.25.13 17 .12 17 19.74-.13 19.76-.13zm-39.5.25-.13-17c-12.76.1-25.63.17-38.46.29l.16 17 .15 17c12.8-.12 25.55-.2 38.4-.29zm-38.43.29v-17c-1.93 0-4.15.05-5.66.07l.22 17 .22 17c2.16-.03 3.54-.07 5.22-.07zm-5.44.07v-17c-.8 0-2.42-.01-4.11.12l1.34 16.95 1.34 16.95h.08l.28-.01 1.07-.01zm-2.77.07-.01-17a17 17 0 0 0-3.4.33l-.06.02h.02l.13-.03.56-.1a16 16 0 0 1 2.4-.17v34a18 18 0 0 0 3.23-.3l.17-.04h.08-.03l-.13.02a15 15 0 0 1-2.95.27zm-.36.05v-17H195v34h.2zm-.19 0v-17q1.55-.01 3.21.42l-4.4 16.42-4.4 16.42q2.86.75 5.6.74zm-1.19-.16-2.57-16.8a8.5 8.5 0 0 1 3.45.18l-4.32 16.44-4.32 16.44c2.98.78 6.63 1.11 10.33.55zm-3.44-.18 12.02-12.02-.02-.03-12.03 12.02-12.02 12.02.03.03zm-.03-.03 5.32-16.14a9.6 9.6 0 0 1 6.14 7.27l-16.95 1.23-16.96 1.22a27 27 0 0 0 4 12.55 24.4 24.4 0 0 0 13.14 10.02zm-5.5-7.64-7.54-15.24c-12 5.95-17.08 8.88-22.89 8.69l-.56 16.99-.56 17c16.61.54 31.36-8.38 39.1-12.21zm-30.99 10.44v-17h-.02v34h.02zm-.02 0-.1-17c-3.65.02-8.25-1.98-13.66-8.27-5.32-6.21-9.65-14.68-12.4-22.32l-16 5.77-16 5.76c3.66 10.14 9.77 22.64 18.6 32.93 8.76 10.2 22.02 20.23 39.65 20.13zm-42.16-41.82 15.81-6.24c-2.56-6.5-3.9-13.96-3.34-20.4.54-6.26 2.69-10.27 5.82-12.73l-10.5-13.37-10.51-13.36c-12.5 9.82-17.58 23.74-18.69 36.54-1.09 12.64 1.5 25.4 5.6 35.8zm7.78-52.74 9.18 14.31c.74-.47 1.16-.75 1.71-1.08l.86-.47-6.87-15.56-6.87-15.55c-3.35 1.49-6.47 3.58-7.18 4.04zm4.88-2.8 16.83-2.42c-1.73-11.99.7-25.03 5.43-38.8l-16.08-5.53-16.08-5.53c-5.53 16.1-9.75 35.09-6.93 54.71zm6.18-46.75 16.08 5.5a44 44 0 0 1 3-6.87l-14.9-8.19-14.89-8.19a77 77 0 0 0-5.37 12.24zm4.19-9.56 14.1-9.49c-.01-.02-.27-.44-.3-1.46a7 7 0 0 1 .64-3.1l-15.4-7.19-15.4-7.19c-5 10.7-5.96 25.72 2.26 37.93zm-.96-21.24 15.28 7.45c.57-1.17.94-1.88 1.25-2.4s.33-.41-.05-.05l-11.78-12.25-11.79-12.25c-4.52 4.35-7.11 9.83-8.2 12.05zm4.7-7.25 15.24-7.53c-.57-1.15-1.09-4.56 1.49-9.53 2.57-4.95 6.26-7.5 8.3-8.03l-4.3-16.45-4.31-16.44c-13.74 3.6-24.15 14.25-29.87 25.25-5.7 11-8.7 26.29-1.8 40.26zm20.72-41.54 15.84 6.18c4.3-11.02 8.5-22.07 12.7-33.01l-15.88-6.08-15.87-6.08c-4.22 11.01-8.38 21.92-12.62 32.82zm12.66-32.91 15.88 6.09c2.09-5.46 4.25-11.06 6.36-16.65l-15.9-6-15.9-6c-2.07 5.47-4.18 10.92-6.3 16.47zm6.34-16.56 15.88 6.06.23-.6-15.89-6.05-15.88-6.06-.23.6zm.22-.6 16.96 1.16a13.3 13.3 0 0 1-3.22 7.75l-12.92-11.06-12.91-11.05a20.7 20.7 0 0 0-4.87 12.06zm.82-2.15 15.89 6.05q1.07-2.82 2.13-5.55l-15.84-6.17-15.84-6.18q-1.14 2.94-2.22 5.8zm2.18-5.67 15.86 6.14c.55-1.44 1.63-4.07 2.45-6.57l-16.15-5.31-16.14-5.32c-.46 1.39-.95 2.55-1.87 4.91zm2.16-5.74 16.69 3.24c-.28 1.47-.78 2.8-1.41 3.95l-14.96-8.07-14.96-8.07a20 20 0 0 0-2.04 5.7zm.32-.88 16.27 4.92q-.36 1.2-.85 2.14l-15.2-7.6-15.21-7.6q-.75 1.48-1.28 3.22zm.21-.54 15.97 5.86c.9-2.47 1.7-4.51 2.55-6.34l-15.4-7.18-15.41-7.2a114 114 0 0 0-3.66 9zm3.11-7.66 15.41 7.17q.99-2.1 2.13-4.17l-14.86-8.26-14.85-8.26a99 99 0 0 0-3.24 6.34zm2.68-5.26 16.35 4.66a13.5 13.5 0 0 1-3.36 5.75l-12.13-11.91-12.13-11.91a20.5 20.5 0 0 0-5.08 8.76zm.86-1.5 14.68 8.57q.98-1.67 2.04-3.27l-14.16-9.4-14.16-9.42q-1.61 2.43-3.08 4.95zm2.56-4.1 14.19 9.35a79 79 0 0 1 16.42-17.82l-10.66-13.25-10.66-13.24a113 113 0 0 0-23.48 25.59zm19.95-21.72 10.69 13.23a97 97 0 0 1 20.73-12.75l-7.06-15.47-7.05-15.46a131 131 0 0 0-28 17.23zm24.37-14.99 7.04 15.47c8.56-3.9 17.6-6.76 26.85-8.55l-3.22-16.7-3.23-16.68a154 154 0 0 0-34.49 10.99zm30.67-9.77 3.22 16.7q12.6-2.44 25.46-2.43v-34q-16.07-.01-31.9 3.04z" mask="url(#crests-blank-crest-path-1-outside-1_24_738)"/></g><path fill="#a26045" d="M488.72 411.42c.66 13.1-2.82 26.24-8.94 37.74a68 68 0 0 1-11.63 15.87c-4.24 4.27-9.37 7.95-15.09 9.99a26 26 0 0 1-8.82 1.56h-.3a20.7 20.7 0 0 1-12.23-4.36c-1 .05-2.08-.4-2.87-1.5-10.77-7.04-22.25-12.73-33.2-19.35q-.93.48-2.05.47h-1.07l-3.84-.02c-2.5 0-4.96-.05-7.43-.05l-16.08-.1q-15.38-.05-30.74-.04c-10.4 0-20.76-.05-31.15-.05q-15.7 0-31.39-.05l-31-.02c-10.37 0-20.74-.05-31.1 0q-2.93-.01-5.84.05-.32.06-.64.05h-.95a240 240 0 0 1-19.52 9.96c-4.18 2.18-8.07 4.84-12 7.4a20 20 0 0 1-5.82 3.6 24 24 0 0 1-8.85 1.67h-.1c-3.05 0-6.11-.64-8.98-1.66-10.82-3.85-19.48-12.44-25.72-21.88a77 77 0 0 1-7.69-15.13 70 70 0 0 1-4.24-17.4 51 51 0 0 1 .95-17.38c1.37-5.67 4.08-11.2 8.51-15.11a22 22 0 0 1 7.43-4.39c-1.73-15.06-.38-30.37 5.24-44.65 1.57-5.14 2.8-10.41 5.12-15.3q.15-.64.5-1.2.16-.4.31-.84 1.53-4 3.04-8.02c2.2-5.88 4.46-11.79 6.64-17.67l13.66-36.46q6.93-18.59 13.88-37.13c4.08-10.89 8.21-21.73 11.98-32.24q.14-.33.24-.66.14-.34.3-.6l.58-1.47c.7-1.87 1.52-3.7 2.32-5.45l.1-.17.07-.17a94 94 0 0 1 17.81-25.38 106 106 0 0 1 25.74-19.07c9.63-5.13 20-8.8 30.63-11.25a135 135 0 0 1 32.05-3.22c10.72.16 21.52 1.56 31.9 4.2a144 144 0 0 1 30.28 11.36 130 130 0 0 1 27 18.57 112 112 0 0 1 20.61 24.56 105 105 0 0 1 7.83 15.44c.43 1.02.76 2.09 1.2 3.09l.1.19v.02q.23.7.24 1.45.01.29-.05.56l.72 1.97 2.53 6.93 5.1 13.8q5.2 14.14 10.44 28.24 5.37 14.45 10.77 28.87 5.3 14.28 10.63 28.52c3.44 9.2 6.83 18.4 10.34 27.56.48 1.21.88 2.44 1.33 3.44l.2.5q.4.8.68 1.64c2.85 5.6 4.7 11.6 4.91 17.9a114 114 0 0 1 .38 24.3q.14.04.24.1c5.93 2.84 10 8.56 12.21 14.6a46 46 0 0 1 2.61 13.17z"/><path fill="#a26045" d="M153.85 296.69c-2.73-.55-3.89-4.03-5.38-6.1-4.44-7.26-6.31-16.32-2.35-24.2 2.51-6.14 15.28-16.7 21.73-11.9 1.83 2.06.21 6.3-2.78 5.62-1.9-1.02-3.91.5-5.7 1.2-6.42 3-11.1 9.95-9.81 17.16 1.28 4.41 3.13 8.94 6.26 12.36 2.06 1.8.93 5.93-2 5.88z"/><path fill="#a26045" d="M149.75 286.37c-7.4-4.4.07-27.55 8.54-27.8 1.56-3.26 5.5-4.66 6.16-.1-.2 4.48-3.5 8.23-5.1 12.31 1.93 3.04-1 6.62-2.84 9-.29 3.4-2.54 8.5-6.76 6.59"/><path fill="#a26045" d="M142.43 323.45c-8.88-4.68-6.98-17.58-4.27-25.58 2.15-5.29 6.66-10 12.28-11.38 2.73.28 3.28 4.31 1.28 5.83 1.03 2.12-.52 4.16-1.8 5.74-2.58 3.5-5.07 7.29-5.67 11.68a3.55 3.55 0 0 1 .45 4.4c.67 2.64 2.61 5.77.6 8.26a2.8 2.8 0 0 1-2.9 1.05zm298.48-26.88c-5.24-1.02-.4-9.77-.59-13.43.6-2.2-1.37-4.53.14-6.59-1.25-3.72-4.6-7.4-2.87-11.5-1.9-2.33-5.05-1.38-7.35-2.6-3.84-1.27-2.42-6.9 1.56-6.75 2.07-3.28 6.81-.38 9.07 1.4 3.65.92 6.73 3.46 9.1 6.33 4.92 7.12-.04 31.03-9.03 33.12z"/><path fill="#a26045" d="M441.92 297.05c-4.04-3.6 2.82-8.64 3.75-12.5 3.53-11.34 3.44-22.11-10.6-24.15-1.38-.34-2.6.16-3.97.04-2.44-.66-2.82-4.29-.97-5.83 3.1-1.92 7.16-.24 10.39.61 10.2 2.7 13.8 13.15 12.07 22.73-.33 6.43-3.15 12.27-6.78 17.46-.69 1.5-2.37 2.68-3.9 1.64"/><path fill="#a26045" d="M453.52 333.7c-1.35-1.17-1.28-3.52-.38-4.8a68 68 0 0 0 2.54-7.78c-2.61-.83-2.2-4.15-2.59-6.33-1.13.4-2.4-.24-2.9-1.38-3.45-7.85-6.94-16.34-5.57-25.1-2.68-.73-3.03-4.72-.78-6.17.69-7.52 8.76-.52 11.72 1.71 9.13 5.62 13 12.65 11.96 23.51.16 7.71-.9 15.73-6.27 21.64-.75 1.3-1.6 3.01-3.32 3.15-.78 1.62-2.87 3.06-4.43 1.52z"/><path fill="#f7b984" d="M233.96 407.95v.07s0-.05-.02-.07zm.01.05.03.06.02.05c0-.05-.05-.07-.05-.12m.18.34v.04l-.03-.07zm-9.49 7.4"/><path fill="#f7b984" d="M234.24 408.5s-.08-.13-.1-.2c0 0 0 .05.03.05q.01.08.07.14m.03.07s0 .05.02.05c0-.05-.05-.07-.05-.1l.07.17-.04-.1z"/><path fill="#f7b984" d="M213.72 424.84a79 79 0 0 0 7-5.1c1.26-1.07 2.6-2.07 3.53-3.44 1.14.83 2.23 1.73 3.51 2.32 1.88.88 4.32.38 5.89-.88a6 6 0 0 0 2.23-4.81c.05-1.24-.52-2.28-1.07-3.32l.36.68-.74-1.42v-.02l-.12-.22.1.2-.24-.48v-.03l-.05-.07-.07-.14-.05-.1-.04-.09c-.79-1.5-1.57-3.01-2.54-4.41a23 23 0 0 0-4.48-4.89c-3.78-3.2-8.69-4.65-13.5-5.45l-1.02-.17a4 4 0 0 0-.79-.12h-.02q-2.75-.38-5.53-.66a23 23 0 0 0-7.02.4c-2.25.5-4.5 1.19-6.64 2.02-1.14.42-2.26.94-3.37 1.44a97 97 0 0 0-2.47-4.98c-15.87-31.36-2.18-68.53 15.52-96.12 5.69-8.62 12.6-16.35 18.8-24.58 2.45-3.2 4.7-6.55 7.08-9.77-.1-.79-.05-1.6-.05-2.3.07-5.68-.78-11.32-.9-17 .17-10.07-1.47-20.56-.52-30.64a5 5 0 0 1-2.04-1.21 32 32 0 0 1-6.88-8.68 29 29 0 0 1-2.63-6.93 33 33 0 0 1-.86-7.76 30.2 30.2 0 0 1 13.6-24.77 29 29 0 0 1 19.04-4.55h.12q.16 0 .17.02a30 30 0 0 1 15.6 6.88 82 82 0 0 1 22.52-6.33 92 92 0 0 1 28.61.69 81 81 0 0 1 23.56 8.18q1.22-1.31 2.63-2.37a21 21 0 0 1 6.26-3.28 22.6 22.6 0 0 1 13.5.1 31 31 0 0 1 12.46 7.64 36 36 0 0 1 7.7 11.7c3.7 8.9 3.66 20.06-2.03 28.13a22 22 0 0 1-5.44 5.43q-1.45 1.04-3.08 1.78l-.17.07v7.55q.02 7 .08 14.02c0 6.12 0 12.24.11 18.34q.05.29.05.56v.15c.05.61-.1 1.25-.38 1.82a7 7 0 0 1-.1 1.02c.17 1-.09 2.04-.56 2.85v.02a2.9 2.9 0 0 1-2.35 2c4.48 6.12 8.2 13.04 12.14 19.28a219 219 0 0 1 15.43 25.25c12.6 26.54 23.81 58.6 12.88 87.15-5.81-2.4-12.15-2.96-18.37-2.46.27 0 .53-.05.79-.05-5.6.45-11.2 1.73-16.28 4.22a35 35 0 0 0-8.77 5.96 23 23 0 0 0-3.2 3.7l-.31.45-.17.26q0 .03-.05.07a12 12 0 0 0-1.35 2.44c-1.5 2.87-.07 6.55 2.78 7.93.78.38 1.66.57 2.56.57q.86-.02 1.7-.24-.52.86-.97 1.75-.91.22-1.87.36c-9.23.55-18.05 3.16-27.26 2.97-12.31.54-23.5 2.1-36.01.59-8.64-.55-17.22.07-25.79.9-12.5.4-25 .74-37.48.64-2.16-.17-4.93-.1-7.95-.02q-2.5.08-5.12.1c-3.3 0-6.64-.18-9.54-.77z"/><path fill="#fff" d="M281.13 208.97v.4q.01.3-.05.54v1.71l-.12 13.26-.04 7.05v6.05a13 13 0 0 1-.31 2.68 14 14 0 0 1-.6 2.18c-.23.6-.52 1.14-.75 1.71v.02q-.01.04-.05.08l-.17.28-.28.33c-.17.26-.36.55-.55.79q-.18.3-.38.56a15 15 0 0 1-4.93 4.01l-.45.22q-1.32.66-2.7 1.09a20.7 20.7 0 0 1-12.65.07 17.4 17.4 0 0 1-7.19-4.32l-.19-.21q-1.05-1.07-1.87-2.35a14 14 0 0 1-1.85-4.48c0-.1-.05-.17-.05-.26a8 8 0 0 1-.17-1.07 4 4 0 0 1-.24-1.4v-.05q.01-.2.05-.43c.07-1.6 0-3.22 0-4.81v-8.9c0-5.76 0-11.55-.1-17.32v-.75c0-.9.08-1.83.27-2.7 0-.1.05-.17.05-.27q.49-2.4 1.85-4.48.82-1.28 1.87-2.38l.19-.19a17 17 0 0 1 7.19-4.31 20.6 20.6 0 0 1 15.35 1.16q.23.1.47.24c1.83.97 3.65 2.37 4.94 4q.2.25.38.57l.54.79c.1.12.19.21.29.35q.07.15.16.29 0 .03.05.07v.02c.24.57.55 1.14.76 1.73q.4 1.08.6 2.19a14 14 0 0 1 .3 2.68v1.75q.23.44.3.9c0 .08 0 .12.03.22q.06.28.05.6z"/><path fill="#000" d="m257.58 229.98-.02.08zm0-.02v.02q0 .04-.02.07s.02-.07.05-.1zm-.05.17v-.07l-.02.07z"/><path fill="#000" d="M256.07 234.33v-2.71q.31-.14.6-.38c.37-.33.61-.66.82-1.09v.02-.02c.36-.38.74-.71 1.12-1.1q.97-.94 1.87-1.94a85 85 0 0 1 3.5-3.6 2.44 2.44 0 0 0 1.42-2.9 2.2 2.2 0 0 0-.81-1.52q-2.14-1.73-4.32-3.46-2.1-1.67-4.22-3.4v-4.97q.03-8.43 0-16.82a21 21 0 0 1 8.75 2.35c1.83.97 3.65 2.37 4.94 4q.2.25.38.58l.54.78q.15.16.29.35l.16.29q.01.04.05.07v.02c.24.57.54 1.14.76 1.74q.4 1.06.6 2.18a14 14 0 0 1 .3 2.68v1.75q.22.44.3.9c0 .08 0 .12.03.22q.06.28.05.6v.4q.01.28-.05.54v1.7q-.05 6.64-.12 13.27l-.04 7.04v6.06a13 13 0 0 1-.31 2.67q-.2 1.12-.6 2.19c-.23.6-.52 1.14-.75 1.7v.03l-.05.1-.17.28-.28.33c-.17.26-.36.55-.55.78-.12.22-.24.38-.38.57a15 15 0 0 1-4.93 4.01q-.23.1-.45.22-1.32.66-2.7 1.09c-1.88.61-3.85.95-5.82 1.02v-18.77zm8.26-24.96a2.5 2.5 0 0 0-.8 1.63c-.1 1.24.92 2.52 2.2 2.52.64 0 1.23-.14 1.73-.57.47-.43.76-1.02.8-1.64.1-1.23-.92-2.51-2.2-2.51-.64 0-1.24.14-1.73.57m-3.63-9.06q-.84.48-1.3 1.32a4 4 0 0 0-.36 3.37c.5 1.3 1.68 1.95 2.96 2.28q.37.09.69.1a3.5 3.5 0 0 0 3.32-2.7l.07-.27a3.6 3.6 0 0 0-.07-1.87 3.6 3.6 0 0 0-.95-1.47 3.4 3.4 0 0 0-2.46-1.21c-.7 0-1.33.09-1.93.47z"/><path fill="#000" d="M268 195h11v40h-11zm-25.47 44.02s0-.19-.03-.28v-.27q0-.21.03-.4c.05-1.54 0-3.08.02-4.62 0-2.83.05-5.67.05-8.5.02-5.98.05-11.95 0-17.9 0-1.03-.05-2.03-.05-3.05 0-1.56 1.05-3.3 2.78-3.3 1.7 0 2.82 1.7 2.82 3.28 0 2.09-.07 4.15-.1 6.24q-.05 4.5-.04 9.02c0 5.43.05 10.84.05 16.27v2.54l.02.45v.1l-.02.44c-.17 1.28-.98 2.54-2.33 2.78q-.22.04-.45.05c-1.47 0-2.54-1.38-2.73-2.78z"/><path fill="#000" d="M278.46 209.15a2.8 2.8 0 0 1-1.9-1.5 3.8 3.8 0 0 1-.2-3.03l-.09.28q-.02.22-.1.46.08-.32.1-.65v-.8q-.04-.45-.1-.88a7 7 0 0 0-.18-.76l-.36-.95a9 9 0 0 0-.57-1.02c-.21-.33-.47-.66-.7-1q-.5-.56-1.03-1.06a14.5 14.5 0 0 0-6.17-3.2q-1.43-.35-2.9-.53a18.5 18.5 0 0 0-8.77 1.36q-1.22.54-2.37 1.25c-.47.31-.93.67-1.28.93l-.12.1-.05.04q-.68.6-1.28 1.28-.36.44-.69.9-.32.5-.61 1.02a15 15 0 0 0-.45 1.1l-.22.73q-.1.5-.14.97v.6c0 1.02-.24 2.1-1.02 2.82-.97.9-2.2 1.02-3.3.24-1.66-1.19-1.35-3.73-1.04-5.48q.42-2.34 1.5-4.46a18 18 0 0 1 6.61-6.86c5.84-3.58 13.57-4.06 19.9-1.52a18.6 18.6 0 0 1 7.62 5.58 15 15 0 0 1 3.16 11.05c-.17 1.5-1.21 2.97-2.76 2.97q-.21.01-.47-.05z"/><path fill="#000" d="M281.53 204.2s0 .18.03.28v.26q0 .21-.03.4c-.05 1.54 0 3.09-.02 4.63 0 2.82-.05 5.67-.05 8.5-.02 5.97-.05 11.95 0 17.9 0 1.02.05 2.02.05 3.04 0 1.56-1.05 3.3-2.78 3.3-1.7 0-2.82-1.69-2.82-3.28 0-2.08.07-4.15.1-6.24q.05-4.5.04-9.01c0-5.43-.05-10.84-.05-16.28v-2.53l-.02-.45v-.1l.02-.45c.17-1.28.98-2.54 2.33-2.78q.22-.04.45-.04c1.47 0 2.54 1.37 2.73 2.77z"/><path fill="#000" d="M245.6 234.06c.84.16 1.53.75 1.9 1.49.53.95.53 2.02.2 3.04l.09-.29q.03-.2.1-.45-.07.33-.1.64v.8q.04.45.1.89.06.4.19.75l.35.95q.25.54.57 1.02.33.5.71 1 .5.57 1.02 1.07.65.56 1.33 1.04a15 15 0 0 0 4.84 2.16 24 24 0 0 0 2.9.52 18 18 0 0 0 6.02-.45q1.4-.36 2.75-.9c.8-.35 1.62-.78 2.37-1.26.48-.3.93-.66 1.29-.92l.11-.1.05-.04q.68-.61 1.28-1.28a13 13 0 0 0 1.3-1.93q.25-.51.46-1.09l.21-.73q.1-.51.14-.98v-.59c0-1.02.24-2.11 1.02-2.82.98-.9 2.21-1.02 3.3-.24 1.66 1.19 1.35 3.72 1.04 5.48a17 17 0 0 1-1.49 4.46 18 18 0 0 1-6.62 6.86c-5.83 3.58-13.57 4.05-19.9 1.52a18.6 18.6 0 0 1-7.62-5.58 15 15 0 0 1-3.15-11.06c.16-1.49 1.2-2.96 2.75-2.96q.21-.01.47.05z"/><path fill="#fff" d="M349.52 208.75v.4q.01.3-.05.55v1.7l-.12 13.27c0 2.34-.05 4.7-.05 7.04v6.06a13 13 0 0 1-.3 2.67q-.22 1.11-.6 2.19l-.76 1.7v.03q0 .03-.05.07-.07.15-.16.28l-.29.33a9 9 0 0 1-.54.79q-.17.3-.38.57a15 15 0 0 1-4.94 4q-.22.12-.45.22-1.31.66-2.7 1.1a20.7 20.7 0 0 1-12.65.06 17.5 17.5 0 0 1-7.18-4.31l-.2-.22q-1.03-1.07-1.87-2.35a14 14 0 0 1-1.85-4.48c0-.1-.05-.17-.05-.26a8 8 0 0 1-.16-1.07 4 4 0 0 1-.24-1.4v-.05q0-.21.05-.42c.07-1.62 0-3.23 0-4.82v-8.9c0-5.76 0-11.55-.1-17.31v-.76c0-.9.07-1.83.26-2.7 0-.1.05-.17.05-.27q.5-2.4 1.85-4.48.83-1.28 1.88-2.37l.19-.2a17 17 0 0 1 7.18-4.31 20.6 20.6 0 0 1 15.35 1.16q.24.1.48.24c1.82.97 3.65 2.37 4.93 4q.2.25.38.58l.55.78c.1.12.19.21.28.36l.17.28q0 .04.05.07v.03c.23.56.54 1.13.75 1.73q.4 1.06.6 2.18a14 14 0 0 1 .3 2.68v1.76q.24.43.31.9 0 .09.03.21.05.28.04.6z"/><path fill="#000" d="M337 195h9v52h-9zm-3.18 34.78q0 .03-.03.07z"/><path fill="#000" d="M333.83 229.75v.02q0 .04-.02.07s.02-.07.05-.1zm-.06.15v-.07l-.02.08z"/><path fill="#000" d="M324.07 234.1v-2.69q.31-.14.6-.38c.38-.34.61-.67.83-1.1v.03-.03c.35-.38.73-.7 1.11-1.09a48 48 0 0 0 1.88-1.94 84 84 0 0 1 3.48-3.6c.29-.15.6-.32.8-.55.63-.65.86-1.55.63-2.35a2.2 2.2 0 0 0-.81-1.52q-2.14-1.73-4.32-3.46l-4.22-3.4v-4.98q.03-8.43 0-16.82a21 21 0 0 1 8.75 2.35c1.83.97 3.66 2.37 4.94 4q.2.27.38.58l.54.78q.15.16.29.36l.16.28q.01.04.05.07v.03c.24.57.55 1.14.76 1.73q.4 1.07.6 2.18a14 14 0 0 1 .3 2.68v1.76a3 3 0 0 1 .33 1.11q.06.28.05.6v.4q.01.3-.05.54v1.71l-.11 13.26c0 2.35-.05 4.7-.05 7.05v6.05a13 13 0 0 1-.31 2.68q-.2 1.11-.6 2.18c-.23.6-.52 1.14-.75 1.71v.02l-.05.1-.17.28-.28.34q-.26.4-.55.78a5 5 0 0 1-.38.57 15 15 0 0 1-4.93 4q-.22.12-.45.22-1.32.66-2.7 1.1a21 21 0 0 1-5.82 1.01v-18.76zm8.24-24.95a2.5 2.5 0 0 0-.81 1.64c-.1 1.23.92 2.51 2.2 2.51.65 0 1.24-.14 1.74-.56.47-.43.75-1.03.8-1.64.1-1.24-.92-2.52-2.2-2.52a2.6 2.6 0 0 0-1.74.57m-3.63-9.06q-.83.48-1.31 1.33a4 4 0 0 0-.36 3.37c.5 1.3 1.69 1.94 2.97 2.28q.36.07.69.09a3.5 3.5 0 0 0 3.32-2.7l.07-.27a3.6 3.6 0 0 0-.07-1.87 3.6 3.6 0 0 0-.95-1.47 3.44 3.44 0 0 0-4.39-.74zm-17.76 38.71s0-.19-.02-.28v-.26q0-.22.02-.4c.05-1.55 0-3.09.03-4.63 0-2.82.05-5.67.05-8.5q.04-8.97 0-17.9c0-1.03-.05-2.02-.05-3.04 0-1.57 1.04-3.3 2.77-3.3 1.71 0 2.83 1.69 2.83 3.27 0 2.1-.07 4.16-.1 6.24q-.06 4.51-.05 9.02c0 5.43.05 10.84.05 16.27v2.54l.03.45v.1q0 .22-.03.45c-.16 1.28-.97 2.53-2.32 2.77q-.22.05-.45.05c-1.48 0-2.54-1.38-2.73-2.78z"/><path fill="#000" d="M346.83 208.94a2.8 2.8 0 0 1-1.9-1.5 3.8 3.8 0 0 1-.19-3.03l-.09.28q-.03.21-.1.45.07-.31.1-.64v-.8q-.04-.45-.1-.88a7 7 0 0 0-.18-.76l-.36-.95a9 9 0 0 0-.57-1.02q-.33-.5-.71-1a14 14 0 0 0-1.02-1.06q-.65-.56-1.33-1.05a15 15 0 0 0-4.84-2.16 24 24 0 0 0-2.9-.52 18.5 18.5 0 0 0-8.77 1.35q-1.22.55-2.37 1.26c-.48.3-.93.66-1.28.93q-.07.04-.12.1l-.05.04q-.68.6-1.28 1.28a13 13 0 0 0-1.3 1.92 15 15 0 0 0-.46 1.1l-.21.73q-.1.5-.14.97v.6c0 1.01-.24 2.1-1.02 2.82-.98.9-2.2 1.02-3.3.23-1.66-1.18-1.35-3.72-1.04-5.48a17 17 0 0 1 1.49-4.46 18 18 0 0 1 6.62-6.85c5.83-3.58 13.57-4.06 19.9-1.52a18.6 18.6 0 0 1 7.62 5.57 15 15 0 0 1 3.15 11.06c-.16 1.5-1.2 2.97-2.75 2.97q-.21.01-.47-.05z"/><path fill="#000" d="M349.92 203.97s0 .2.02.29v.26q0 .21-.02.4c-.05 1.54 0 3.09-.03 4.63l-.04 8.49q-.06 8.98 0 17.91l.04 3.04c0 1.56-1.04 3.3-2.77 3.3-1.71 0-2.83-1.69-2.83-3.28 0-2.09.08-4.15.1-6.24q.06-4.5.05-9.01c0-5.44-.05-10.84-.05-16.28v-2.54l-.02-.45v-.1l.02-.44c.17-1.28.97-2.54 2.32-2.78l.46-.04c1.47 0 2.53 1.37 2.72 2.77z"/><path fill="#000" d="M313.99 233.84c.83.17 1.51.76 1.9 1.5.51.95.51 2.01.18 3.03l.1-.28q.02-.2.1-.45-.08.32-.1.64v.8q.04.45.1.88.07.4.18.76l.36.95q.24.53.57 1.02c.21.33.47.67.7 1q.5.57 1.03 1.06.65.56 1.33 1.05a15 15 0 0 0 4.84 2.16q1.43.34 2.9.52a18 18 0 0 0 6.02-.45q1.39-.37 2.75-.9 1.22-.54 2.37-1.26c.48-.3.93-.66 1.28-.93l.12-.09.05-.05q.68-.6 1.28-1.28.36-.44.69-.9.33-.49.61-1.02.25-.53.45-1.1.12-.36.22-.73.1-.5.14-.97v-.6c0-1.01.24-2.1 1.02-2.81.97-.9 2.2-1.02 3.3-.24 1.66 1.18 1.35 3.72 1.04 5.48a17 17 0 0 1-1.5 4.46 18 18 0 0 1-6.61 6.85c-5.84 3.59-13.57 4.06-19.9 1.52a18.6 18.6 0 0 1-7.62-5.57 15 15 0 0 1-3.15-11.06c.16-1.5 1.2-2.96 2.75-2.96q.21-.01.47.04z"/><path fill="#d2915a" d="M340.63 265.9c.6.73.9 1.73.74 2.67a3.56 3.56 0 0 1-3.97 3.37c-4.45.24-8.9.57-13.35.38-4.77.1-9.44-.76-14.14-1.4-5.36-.16-10.7.07-16.06-.28-13.12-1.33-26.2-2.42-39.4-1.71-5.06 2.54-7.97-4.13-3.87-5.95v-.08q-.01-.07.05-.14.5-2.2 1.23-4.32a46 46 0 0 1 8.59-15.53 47 47 0 0 1 14.44-11.49 45.9 45.9 0 0 1 39.15-.94 47 47 0 0 1 14.44 10.17 47 47 0 0 1 11.63 21.28c.17.67.26 1.35.45 2q.05.14.02.18.24.9.05 1.8z"/><path fill="#c1dcff" d="M412.35 459.64c-.08 2.85.59 5.98-.55 8.63a3.6 3.6 0 0 1-3.2 1.9q-.6.4-1.38.4-.2.01-.36-.04c-.73-.05-1.49-.02-2.25-.05q-2.15-.04-4.32-.05l-9.53-.1q-9.92-.05-19.83-.06c-13.22 0-26.46-.05-39.67-.02l-39.43.02q-19.75 0-39.52.07c-12.98.05-25.95 0-38.93.1-3.68 0-7.33.06-11 .09-2.8.02-5.63 0-8.43.07l-.38.02h-.64c-1 .03-1.75-.59-2.2-1.4-2.8-2.04-.95-7.28-1.43-10.36.2-7.21-.28-14.52.24-21.68a4 4 0 0 1 .9-1.57 3.8 3.8 0 0 1 2.94-2.73l1.19-1.07c1.4-1.25 2.82-2.46 4.22-3.72l9.97-8.9 9.15-8.18q2.43-2.15 4.82-4.3.31-.27.59-.54a37 37 0 0 1-.5-8.33c.05-.73-.02-1.54-.04-2.37a4 4 0 0 1-.15-.74v-.42q-.01-.24.05-.48c.1-2.2.07-4.43.1-6.64q.07-4.54.11-9.1.1-9.9.17-19.8l.38-39.68c.1-13.34.28-26.67.3-40 0-4.96-.04-9.92 0-14.87v-1.33c0-.7.22-1.43.6-2.02.78-9.23 7.73-13.69 17.53-12.98h2.44q3.6.01 7.22.05l14.92.07q15.34.07 30.72.1 15.37.06 30.75.07c10.08 0 20.18 0 30.29-.1l2.44-.02h.05q.65-.11 1.4-.07h.6c.78.05 1.56.1 2.27-.1 7.3-1.04 11.98 7.62 12.64 13.88-.04.8.03 1.83.08 2.92l.14.45c.14.55.14 1.07.14 1.64 0 1.33.05 2.65.05 3.98l.14 8.52.33 16.94q.35 16.91.67 33.85c.21 11.65.47 23.27.7 34.92l.36 16.01.2 8.05c.04 1.6.04 3.22.11 4.81.55 1.3.43 2.82.07 4.4 0 2.96-.26 5.7-.97 8.18l.38.42a535 535 0 0 0 5.03 5.3l9.87 10.29 8.4 8.75 4.24 4.46 1.85 1.9q.36.4.74.76l-.1-.07-.23-.22h-.03l.26.22c.57.54.95 1.3 1.07 2.09.31.35.6.83.76 1.44.26 6.08.5 12.22.6 18.32z"/><path fill="#4c6b95" d="M192.82 439.54a3.7 3.7 0 0 1 0-4.76l.02-.03.14-.14.05-.05.19-.19c.71-.66 1.35-1.4 2.04-2.08l3.06-3.14 5.72-5.95a3192 3192 0 0 0 13.11-13.67l.36-.37c.26-.46.64-.86 1.1-1.05.04 0 .06-.05.11-.05q.15-.08.33-.12a2.4 2.4 0 0 1 2.02.22c1.42.85 1.87 2.94 1.19 4.41-.15.26-.29.55-.46.71a4 4 0 0 1-.69.69c-.61.57-1.16 1.19-1.75 1.78q-1.68 1.73-3.37 3.51l-6.17 6.38c-3.84 4.01-7.73 8-11.55 12.05l-1.47 1.57-.1.12q-.07.1-.16.19l-.1.12a2.54 2.54 0 0 1-3.65-.15z"/><path fill="#4c6b95" d="M197.4 443.74c-.9-.4-1.44-1.14-2.11-1.83-1.23-.97-2.87-1.7-3.25-3.37-.52-1.9.43-4.5 2.66-4.53 1.04 0 1.9.67 2.37 1.55q1.43.93 2.54 2.18c3.32 1.5 1.47 7.7-2.2 6.02z"/><path fill="#4c6b95" d="M196.1 443.15c-.93-1.28-.95-3.51.33-4.63l.14-.14.1-.12.07-.07.3-.28q.68-.7 1.31-1.38l2.85-2.99q3.16-3.35 6.3-6.74l10.4-11.1q1.04-1.1 2.06-2.23a2.57 2.57 0 0 1 3.73-.66c1.44 1.11 1.66 3.5.54 4.9q-.08.08-.11.15l-.1.12-.07.07c-.45.4-.83.85-1.26 1.28q-.95.96-1.87 1.97l-5.03 5.36c-3.92 4.18-7.88 8.33-11.8 12.53l-3.38 3.67q-.11.15-.24.29l-.12.12s-.1.1-.12.14l-.05.07a2.3 2.3 0 0 1-1.73.78 2.8 2.8 0 0 1-2.2-1.13z"/><path fill="#4c6b95" d="M221.82 418.41c-1.8-.36-2.26-2.4-3.51-3.49-2.19-2.01-1.38-5.55 1.33-6.64 2.94-.85 4 2.97 5 5 1.02 2.12-.12 5.5-2.85 5.13z"/><path fill="#4c6b95" d="M222.4 411.8h-.21q-.34-.05-.67-.17l-.45-.22a2.47 2.47 0 0 1-1.1-3.44 3.3 3.3 0 0 1 1.96-1.54q.26-.1.59-.14.25-.01.47-.05h.45c2.09.07 4.2.02 6.29.02h28.7c13.31-.02 26.6-.11 39.88-.16q19.9-.07 39.76-.21c12.98-.08 25.98-.12 38.96-.29l1.66-.02h.5c.75.05 1.46.4 1.99.95.45.45.73 1.06.7 1.78a2.5 2.5 0 0 1-.82 1.82 3.5 3.5 0 0 1-2.54 1.05h-.45q-2.38-.06-4.77-.05h-11.88c-6.55 0-13.1.05-19.67.07q-20.1.08-40.21.12l-39.74.16c-6.64.05-13.28.07-19.92.15-5.89.04-11.75.04-17.63.16q-.58 0-1.16.03h-.74z"/><path fill="#4c6b95" d="M218 410.48c-.34-2.2 1.98-3.48 3.9-3.41 1.86-.57 4.47-.26 4.9 1.99.66 3.94-8.14 5.22-8.8 1.42"/><path fill="#4c6b95" d="M223.88 416.09c-1.47-.1-2.94-1.05-2.92-2.66 0-1.66 1.7-2.94 3.27-2.94h.62c5.95.1 11.9.07 17.86.05h59.03c12.93 0 25.83-.08 38.76-.08q9.79 0 19.55-.02c5.8 0 11.62 0 17.4-.1h.1l.4-.02h.86c.83.07 1.64.4 2.2.97q.68.65.7 1.69v.21a2.6 2.6 0 0 1-.86 1.71 3.5 3.5 0 0 1-2.42 1.02h-.12.12-.45l-.45-.02c-3.84-.07-7.66-.05-11.48-.05h-63.16q-19.86.02-39.68.07c-12.57 0-25.15 0-37.72.12h-1.57z"/><path fill="#4c6b95" d="M397.51 443.4c-5.98-6.39-11.34-13.17-16.99-19.84-2.15-3.8-10.25-9.13-6.85-13.62q-.25.37-.38.74c1.33-3.44 5.72-1.4 5.5 1.78 7.19 8.82 14.14 17.9 22.09 26.1 2.8 2.53 0 7.68-3.4 4.83z"/><path fill="#4c6b95" d="M401.9 438.76q-.31-.42-.65-.83c0 .03.05.05.05.07l-.05-.07a8 8 0 0 1-1.56-1.97q.16.28.28.55c-4.67-4.91-9.4-9.84-13.45-15.3a99 99 0 0 0-7.5-8.56c-1.51-1.29-2.53-3.54-1.28-5.34.88-1.24 2.45-1.33 3.66-.52 4.93 4.88 8.92 10.72 13.54 15.91 3.42 4.1 7.5 7.83 10.91 11.87 2.57 2.91-1.02 7.51-3.98 4.17z"/><path fill="#4c6b95" d="M399.77 444.24c-3-.2-3.13-3.81-3.93-6.05-1.76-4.34-5.08-7.66-8.6-10.62-3.6-3.6-6.85-7.57-10.31-11.3a5 5 0 0 1-2.61-3.36c-1.16-3.78 3.49-5.8 5.17-2.07 3.49 3.44 6.33 7.12 9.63 10.6 4.6 4.18 9.28 8.5 11.7 14.4 2.9-4.05 7.26-.56 5.72 3.42-.38.83-1.12 1.07-1.76 1.57-1.45 1.42-2.92 3.18-5 3.4z"/><path fill="#fff" d="m268.94 379.5-.07-.02q.06 0 .1.02zm46.78 3.24a322 322 0 0 1-15.12-1.17c-5.17-.52-10.36-.94-15.53-1.44-2.83-.26-5.6-.6-8.4-.93-2.3-.28-4.6-.71-6.9-1.11l-4.37-.95a79 79 0 0 1-3.37-.86c-3.06-.83-6.1-1.75-9.18-2.53a2.4 2.4 0 0 0-2.35.73 56 56 0 0 0-3.84-.85c-.95-.17-1.88-.31-2.85-.33h-.64c-.66-.46-1.35-.93-2.09-1.26q.01-.83.17-1.55v-70.12q.01-6.21-.05-12.43c0-2.54.05-5.08-.02-7.6a5.7 5.7 0 0 1-.07-3.08c.92-6.62 6.69-11.95 13.1-13.04a7 7 0 0 1 3.29-.08h.97q1.52.01 3.04.05 3.77.08 7.54.12c5.13.07 10.25.07 15.38.1 10.86.1 21.72.11 32.57.21q12.77.12 25.55.05h.16q1.94-.01 3.87-.05c.71 0 1.47 0 2.13-.1h.4c3.59-.5 8.95 1.52 10.59 3.33 2.75 2.75 2.99 6.83 3.04 10.5q-.02.29-.08.53v.61q.01.28-.04.6c-.07 1.97-.05 3.96-.07 5.93l-.08 8.6-.1 18.9c-.04 12.66-.09 25.33-.04 37.97 0 6.24-.1 12.5.1 18.74v.17c.45 1.45.21 3.37-.03 4.72q0 .49-.07.95-.36.03-.71.14-.5.16-.97.4-1.5.02-3 .17c-2.13.17-4.29.29-6.4.67a16 16 0 0 0-4.72 1.42 7.4 7.4 0 0 0-2.96 2.51q-1.53.16-3.06.26h.14q-4.9.4-9.85.48-2.3 0-4.65.12c-1.54.05-3.06.26-4.57.43q-1.53.15-3.06.16h-.31q-1.29 0-2.56-.05z"/><path fill="#7f432a" d="M463.19 291.48c7.45 9.7 5.71 25.74-1 35.42-4.74 5.25-11.12 8.8-16.82 12.9-8.9 4.87-19.26 6.7-29.23 8.05-16.7 2.23-33.28 5.29-50.07 6.69-12.55 1.23-25.18 1.52-37.77 1.66-17.25 7.05-34.87 11.08-49.63 10.32-20.78-1.68-41.09-8.35-58.34-20.12-1.99-1.11-3.84-2.49-5.9-3.46a2 2 0 0 1-.67-.45 180 180 0 0 1-16.13-4.8c-12.55-3.46-25.69-7-36.1-15.13-12.6-9.96-24.68-26.8-21.95-43.62 1.9-9.35 6.83-19.36 16.54-22.23.45-.48.94-.71 1.47-.79 3.5-3.27 5.97 2.38 3.48 5.25.9 22.53 11.56 36.6 30.56 47.77a144 144 0 0 0 21.2 10.9q.64-.06 1.26.11c8.52 4.04 17.85 5.6 27.17 6.55a266 266 0 0 0 35.84 2.42c20.07.3 40.2.19 60.28-.24q.33-.11.64-.19c13.72-6.33 26.95-13.69 40.24-20.87 3.82-2.52 7.45-5.3 11.2-7.9 1.23-.95 3-1.52 4.4-.55l.46.21q.71.24 1.26.9c.64.9.54 2 .07 2.9-.52 2.59-1.9 4.89-3.37 7.05-4.25 5.9-9.8 11.74-16.27 17.31q.92-.01 1.82-.07c12.29-.16 23.77-2.32 35.87-3.08 12.1-2.47 21.73-11.34 29.01-20.88 3.02-4.32 6.15-10.58 4.63-15.9a2.5 2.5 0 0 1-.57-1.46l-.3-.6c-.41-1.09.23-2.4 1.01-3.13 2.02-1.82 3.94-1 5.13.69 4.2 1.66 7.85 4.8 10.55 8.37z"/><path fill="#a26045" d="M449.43 265.26c7.24 14.33-1.57 30.88-7.38 44.15-26.69 46.26-76.27 76.34-130.12 74.37-21.87-1.26-44.46-1.88-65.19-9.56-15.09-5.82-30.53-12.55-42.37-23.82a177 177 0 0 1-21.56-4.46c-7.05-1.35-14.24-2.59-20.8-5.62-7.53-4.44-15.74-8.07-21.86-14.28-5.26-5.82-7.83-14.67-4.96-22.16 1.66-4.87 6.22-10.25 11.91-8.92 3.73 1.45 6.03 5.05 8.92 7.69 21.97 24.36 57.03 22.3 87.07 22.18a358 358 0 0 0 49.15-3.51c10.49-.72 20.64-3.2 30.49-6.67 15.32-3.32 30.34-8.94 43.5-17.5 1.76-4.23 8.97-4.54 12.41-2.24 3.23 3.32 4.75 9.13 3.01 13.52-7.9 12.88-41.08 26.57-55.75 31.8-19.42 7.46-40.18 10.22-60.9 10.36-7.04.38-14.09.97-21.13 1.35a215 215 0 0 0 33.26 9.92c24.05 2.94 49.27.42 72.57-5.81 12.4-4.04 23.46-11.06 34.35-18.1 15.68-9.61 29.84-22.45 38.86-38.46 5.48-10.44 13.95-21.52 12.29-33.85-3.8-1.78-1.43-7.38 2.63-6.4 4.96-.08 9.51 1.04 11.62 6.02z"/><path fill="#fff" d="M386.03 310.44c-4.89-1.2-7.52-5.79-10.8-9.06-2.25-2.78-5.45-5.2-6.16-8.9-2-5.88 5.24-10.58 9.37-5.79 1.32.31 2.23 1.74 2.42 3.06v.22c4.6 4.46 12.95 12.22 8.75 19.12a3.7 3.7 0 0 1-3.58 1.35"/><path fill="#fff" d="M387.6 309.84c-1.9.2-3.33-1.85-3.28-3.6 0-.8.33-1.52.78-2.14-.95-2.4-3.91-3.39-4.15-5.95-2.18-3.42-11.27-8.02-6.55-12.34 1.52-.97 3.42.14 4.16 1.6 2.65 2.86 5.4 5.33 7.92 8.3 2.2 3.08 5.9 6.5 4.63 10.65.07 1.9-1.38 4.29-3.54 3.5z"/><path fill="#fff" d="M378.34 295.12c-3.28-2.57-.86-7.4-.72-10.87 1.21-8.5 7.31-13.66 15.9-12.98 3.98 1.5 8.28 3.66 10.37 7.6 2.98 4.48 0 12.19-5.98 11.15a11 11 0 0 1-4.44-3.04c-2.32-2.11-1.66-6.29-5.08-7.17q-.3.06-.66 0-.7-.08-1.28-.5c-3.32 2.78-3.51 7.55-4.1 11.54 1.25 2.49-1.48 5.95-4.01 4.27m20.26-11.5c2.51-1.2-1.48-4.02-2.87-4.56.68 1.7 1.04 3.7 2.87 4.55"/><path fill="#fff" d="M388.1 300.35c-1.46-.85-3.27-1.54-4.05-3.16-6.47-1.54-4.98-10.12-3.08-14.77 1.16-2.42 2.46-7.64 6.05-6.3 2.68-1.08 5.67.53 7.12 2.83 3.53.45 7.09 2.85 7.99 6.4a8.9 8.9 0 0 1 1.1 9.6c-2.83 4.93-9.8 8.27-15.12 5.38z"/><path fill="#fff" d="M394.98 282.06a3.5 3.5 0 0 1-1.52-3.3c-.7-.35-1.2-1-1.47-1.73-2-.26-3.15-2.63-2.58-4.48.45-1.28 1.13-2.5 1.58-3.77 1.57-4.96 3.73-9.68 5.58-14.52.74-1.9 1.64-3.66 3.3-4.86 4.27-3.06 8.4-.86 8.82 4.26.48 4.58-2.1 8.69-3.84 12.77a229 229 0 0 0-4.65 11.15c-.83 2.2-2.18 6.3-5.22 4.5z"/><path fill="#fff" d="M398.14 283.94a3.6 3.6 0 0 1-1.54-2.51c-1.68-1.69-1.87-5.75.36-7.05 3.63-3.23 6.02-7.05 10.13-9.7 3.37-2.5 7.02-6.4 11.53-5.58 2.65.86 3.7 4.04 3.15 6.57-1.4 5.86-7.42 8.78-11.98 11.96-2.32 1.59-4.74 3.08-6.86 4.94-1.32 1.2-3.06 2.44-4.79 1.35z"/><path fill="#fff" d="M395.73 295.9a3.7 3.7 0 0 1-.29-2.74c-1.52-1.23-1.66-4.1.1-5.2 1.4-.94 3.08-1.63 4.05-3.08-1.66-4.36 3.87-5.52 6.83-6.73 3.63-1.6 8.05.45 8.78 4.43 1.14 5.1-3.37 8.97-7.5 11.01-2.65 1.66-5.6 2.68-8.46 3.82-1.38.57-2.83-.26-3.51-1.54zm-201.3 46.16c-3.82-.24-5.9-4.91-4.44-8.21 2.83-5.43 9.09-7.78 13.79-11.22 3.96-7.38 14.04 1.2 9.82 7.38-1.54 2.3-4.15 3.34-6.26 4.98l.14-.1.19-.14c-4.15 2.68-7.92 7.24-13.2 7.33z"/><path fill="#fff" d="M193.55 333.99c-4.91-2.73-10.39-6.08-11.93-11.87-2.28-12.69 8.13-23.6 20.87-21.37 2.8 1.09 5.27 3.46 6.12 6.38 1.36 4.3 1.57 21.07-5.57 19.5-.57 2.09-2.73 4.03-4.82 2.61q-.15.25-.33.5c1.12 2.63-1.7 5.57-4.34 4.25"/><path fill="#fff" d="M182.7 323.63c-2.82-.93-4.48-3.89-6.73-5.72-2.14-2.37-4.89-4.31-5.6-7.61-1.9-6.2 5.22-7.6 8.7-3.54 2.66 3.13 5.87 5.93 8.45 9.09 1.38 1.75.71 5.17-1.85 5.2-.17 1.44-1.45 2.8-2.96 2.58"/><path fill="#fff" d="m182.3 312.83-.07-.15a7 7 0 0 1-.45-.7c-4.18-4.78-7.78-10.02-11.84-14.88-1.44-1.73-3.41-3.54-3.13-6.03.45-3.25 4.41-3.44 5.46-.42a537 537 0 0 0 14.25 18.43c2.95 3.25-1.66 8.06-4.22 3.72z"/><path fill="#fff" d="M186.21 308.2c-3.98-5.93-7.75-12.76-13.23-17.29 3.94 3.4-1.21 8.78-4.49 4.5-3.27-5.05-.59-12.87 6.29-10.53 4.8 2.85 7.73 8.47 11.15 12.8 1.4 3.4 7.73 8.15 4.44 11.66-1.4 1.24-3.35.4-4.16-1.11z"/><path fill="#fff" d="M187.5 312.12c-3.28-1.1-3.97-5.43-6.3-7.78-2.74-4.2-12.8-11.53-11-16.66 1.42-3.25 5.65-1.59 5.6 1.62 1.7 3.53 21.25 21.87 11.67 22.8z"/><path fill="#fff" d="M194.9 310.48c-1.62-.19-2.45-1.73-2.75-3.16-2.33-7.78-3.35-16.03-6.79-23.24.1 7.11 3.77 13.97 5.9 20.59.44 1.59-.11 3.65-1.91 4.06-1.76.4-3.3-1.22-3.51-2.88-1.8-5.62-4.2-10.79-5.37-16.46a16.6 16.6 0 0 1-.35-8.42c1.52-4.87 5.93-5.62 8.94-1.43 4.63 7.43 5.27 16.66 7.76 24.91 1.23 2.19 1.52 6.13-1.92 6.05z"/><path fill="#fff" d="M190.1 311.08c-3.2-8.57-5.25-17.4-7.88-26.12-.95-1.52-.71-4.18 1.16-4.87 2.68-.92 5.06 2.66 4.6 5.08 2.14 7.69 3.47 15.73 6.58 23.06 1.82 3.25-2.52 6.5-4.47 2.85"/><path fill="#582e1c" d="M268.83 160.47c-1.07-2.16-1.93-4.46-3.3-6.47-1.4-2.04-.67-5.58 2.16-5.68 1.47 0 2.53 1.26 2.77 2.69 1 1.68 1.83 3.44 2.61 5.24 2.2 2.85-1.54 7.59-4.25 4.25zm12.94-3.35c-.45-3.37-4.46-13.3 1.44-13.19 1.71.26 2.66 2.19 2.4 3.8.33 2.37.5 4.81 1.3 7.1 1.57 3.86-3.72 6.82-5.15 2.3m15.41-3.04c.81-3.49-2.44-11.58 2.4-12.36 4.74.19 2.42 9.06 3.06 12.34.33 4.84-5.74 4.88-5.46 0zm19.68 4.35c-3.54-.88-1.97-5.03-1.45-7.48.73-2.51-.1-6.36 2.75-7.64 1.12-.38 2.23.1 2.94 1 1.6 2.28-.16 5.2-.33 7.73-.66 2.3-.52 6.74-3.91 6.38m14.92 4.58c-3.4-2.18-.28-6.14.64-8.9.71-2.46 2.63-7 5.72-4.29 2.32 2.4-.24 5.29-1.07 7.78-1.19 2.14-1.87 6.93-5.29 5.41m-25.03-18.1c.3-3.08-.52-6.31.33-9.32 1.35-3.35 5.57-2.04 5.5 1.33-.61 2.75-.33 5.64-.42 8.47-.17 4.55-5.86 3.96-5.44-.48zm-18.57.17c.14-3.4-3.7-12.7 2.54-11.94 1.25.46 1.99 1.86 1.97 3.16.2 2.61.54 5.22.83 7.83.54 3.96-4.72 5.17-5.34.92zm8.53-10.77c.05-1.87 0-3.77 0-5.65 0-2.23-.16-5.24 2.28-6.23 1.78-.74 3.37 1.04 3.58 2.65a57 57 0 0 0-.4 9.23c.05 1.52-1.07 3.2-2.73 3.2s-2.75-1.68-2.73-3.2m32.01 15.94c-3.77-1.59-.69-6.69-.6-9.25.1-2.35 1.4-5.98 4.37-4.6 3.18 1.75.98 5.22.6 7.85-.67 2.3-.93 6.93-4.37 6m-7.21-11.45c-2.14-.4-2.54-2.85-2.19-4.68.15-2.9-.07-9.68 4.56-8.06 1.8 1 1.85 3.25 1.19 4.93-.55 2.63.52 8.02-3.56 7.8m-13.23-10.98c0-1.14-.04-2.28.05-3.44.95-5.05 7.14-2.82 5.48 1.8.9 5.01-4.79 7.14-5.53 1.62zm-36.57 17.05c-.29-3.03-3.2-6.17-1.64-9.15.92-1.76 3.5-2.1 4.58-.31.97 1.04.83 2.77 1.4 4.08.8 2.54 2.42 6.5-.9 7.9-1.69.64-3.23-.83-3.44-2.54zm6.27-9.56c0-3.49-2.92-8.5.12-11.22 1.47-1.14 3.41-.33 4.03 1.3.38 2.35.52 4.8 1.02 7.14.5 2.04.52 4.46-1.73 5.32-1.66.64-3.32-.83-3.44-2.56zm7.73-8.1c-.2-1.05-.45-2.22-.38-3.28 0-2.87 3.6-4.77 5.22-1.88.68 2.3 1.35 6.15-1.48 7.29-1.49.54-3.08-.57-3.39-2.12zm-29.48 22.2c-.88-3.33-5-7.22-2.13-10.47 4.67-3.39 5.26 4.72 7.07 7.29 1.92 3.37-3.06 7.4-4.94 3.18m4.2-13.24c-.1-1.76-1.07-3.28-1.5-4.96-2.04-5.1 4.94-8.35 5.32-2.14.95 2.97 3.53 8.35-.79 9.75-1.56.31-2.96-1.11-3.03-2.65m-16.03 18.39c-1.21-2.87-5.25-7.52-1.33-9.82 3.82-1.12 4.2 4.22 5.81 6.47 2.32 3.44-2.04 7.4-4.48 3.37zm.07-14.65c-1.17-2.53-3.63-5.88-1.14-8.4 2.4-2.22 5.74.72 4.93 3.52 1.04 1.87 2.28 4.72 0 6.24-1.35.85-3.18.04-3.82-1.35zm-13.4 14.05c-1.52-2.25-3.75-6.69-.21-8.16 3.51-1.02 3.56 3.15 4.96 5.17 1.85 3.46-2.52 6.8-4.75 2.99m1.91-11.68c-.53-1.2-1.38-2.3-1.64-3.58-.36-1.52.35-3.4 2.01-3.77 2.69-.52 3.4 2.56 4.37 4.36 1.85 3.49-2.56 6.84-4.75 3m-14.82 13c-1.85-2.18-4.8-6.1-1.66-8.45 2.13-1.44 4.7.64 4.62 2.97 1.33 1.52 2.5 3.75.97 5.57-1.02 1.24-2.91 1.12-3.91-.1zm-2.84 12.34c-2.74-1.83-6.32-6.17-1.93-8.28 2.45-.93 3.37 2.13 5.03 3.22 2.82 2.23.26 7.64-3.1 5.06m-11.66 4.72c-1.85-1.33-4.37-2.26-4.77-4.82-.28-1.54.28-3.44 2-3.82 1.3-.3 2.56.57 3.15 1.7.88.6 1.78 1.15 2.63 1.81 2.78 2.09.36 7.6-3.01 5.13m5.72 13.42c-1.9-.87-4-1.25-5.83-2.32-4.42-2.68.23-9.68 3.7-5.08 2.65.85 6.64 2.04 5.62 5.65-.43 1.52-2.06 2.44-3.49 1.75m3.37 13.67c-3.13-.88-7.02.3-9.75-1.23-2.8-2.07-.38-7.83 3.04-5.72 3.32.38 9.53-.76 9.56 4.08-.03 1.54-1.24 3.1-2.87 2.87zm-4.5 10.74c-2.26-2.23 0-7.19 3.2-5.46 3.22-.21 9.18-1.66 9.2 3.28-.04 1.47-1.18 3.1-2.84 2.84-3.14-.85-6.98 1.85-9.56-.66m7.12 11.95c-2.4-1.85-1.16-6.97 2.28-5.78 3.2-.76 9.13-2 9.2 2.94-.04 1.75-1.44 3.22-3.27 2.77-2.7-.5-5.76 2.04-8.2.07m-20.32-13.1c-2.94-1.7-1.6-7.47 2.13-5.96 3.04.08 6.95-1.59 7.55 2.76.14 1.56-.76 3.2-2.45 3.34-2.37.05-5 1-7.2-.14zm2.98-16.56c-2.04-.29-4.05-.6-6.12-.55-1.92.6-3.7-1.14-3.84-3.01-.14-5.44 6.86-3.04 10.15-2.8 3.47.35 3.59 6.64-.19 6.36m-1.42-12.03c-11.29-.17-6.33-11.62-1.63-6.69 2.25.12 4.65 1.23 4.48 3.84-.02 1.5-1.26 3.16-2.87 2.87zM179.96 206c-2.9-1.64-1.56-7.4 2.04-6.07 3.1-.38 8.1-1.38 8.07 3.22-.03 1.73-1.45 3.16-3.23 2.83-2.28-.2-4.77 1.18-6.9.04zm36.22 24.5c.23-3.84 4.9-3.25 7.63-3.82 2.16-.83 5.5.33 4.68 3.13a3.7 3.7 0 0 1-3.92 2.5c-2.65.11-7.92 2.22-8.4-1.81m-2.41 13.24c1.3-4.62 7.59-2.34 11.15-3.08 3.84-1.02 5.52 3.27 2.15 5.24-3.34 1.19-7.16.34-10.67.67-1.54.05-2.87-1.26-2.63-2.83m-15.99-19.67c-2.4-1.54-.47-5.14 2-5.22 3.34-.09 12.69-2.37 10.31 3.83-1.04 1.75-3.1 1.94-4.88 1.42-2.42-.05-5.13.95-7.43-.03m7.9 14.08c-1.56-.15-3.13-.36-4.7-.27-4.27-.23-2.82-5.71.86-5.64 2.32-.12 4.67.14 7 .3 1.16-.16 2.42.17 2.96 1.26 1.54 3.92-2.94 5.22-6.1 4.37zm-.4 12.17c.36-3.56 6.74-4.13 6.36 0-.36 3.56-6.74 4.13-6.36 0m2.68 10.62c-.24-4.44 5.38-3.77 8.37-3.94 1.88-.07 4.42-.57 5.74 1.1 1.93 2.56-1.7 5.78-4.27 4.6-2.1 0-4.22-.03-6.3.19-1.48.3-3.26-.24-3.54-1.95"/><path fill="#582e1c" d="M197.56 251.55c.15-3.44 4.1-3.35 6.65-3.61 2.68-.43 8.4-1.28 7.54 3.06-1.16 3.58-5.38 2-8.19 2.68-2.15.22-5.8 1.04-6-2.16zm-18.13-33.11c.24-4 5.03-3.11 7.78-3.85 1.95-.38 4.44-.92 5.67 1.1 1.33 2.48-1.8 5.12-4.22 4.38-2.87.07-8.59 2.7-9.23-1.61zm.6 14.25c.26-3.9 5.1-3.4 7.92-3.59 2.04.22 4.91-.8 6.2 1.3 1.25 2.43-1.65 4.94-4 4.5-2.96-.77-9.74 2.08-10.12-2.22m11.32 16.76c-2.8-.64-8.97 1.47-9.42-2.58 0-1.88 1.8-3.2 3.56-3.28 2.8.1 5.67-.19 8.45.24 4.03 1.35.83 6.67-2.59 5.6zm-14.46-6.54a28 28 0 0 0-7.16-.6 2.54 2.54 0 0 1-2.66-2.85c.26-1.69 1.87-2.8 3.5-2.87 3.21.16 7.17-.48 9.83 1.51 1.7 2.21-1.02 5.34-3.51 4.82m-6.56-15.06c-.38-3.08 3.18-3.77 5.46-4.25 1.37-.3 3.18-.54 4.15.79 1.63 2.27-.97 5.2-3.47 4.84-2.08.47-5.48 1.63-6.14-1.38m1.11 29.27c-2.78-.97-8.35 1.55-8.85-2.6.64-4.87 7.14-3.19 10.58-3.19 4.25.79 1.85 6.41-1.73 5.77zm21.87 5.78a86 86 0 0 0-8.59-.2c-1.18.47-2.6.42-3.48-.67-2.1-3.37 2.58-5.39 5.38-4.98 3.37.3 7.3-.81 10.34.85 2.35 2.33-.92 5.9-3.65 5.03zm1.89 7.79c.37-4.25 5.69-3.2 8.7-3.56 2.7-.4 8.51-1.47 7.68 2.97-1.18 3.58-5.55 2.18-8.42 2.72-2.6-.3-7.52 1.78-7.97-2.15zm-.62 14.45c.57-4.86 7.52-3.15 10.96-3.44q-.21 0-.42-.05h-.22c4.06-.14 3.7 4.87.26 5.7-2.23.26-4.58-.15-6.85.1-1.66.32-3.7-.39-3.73-2.36zm-20.74-12.19c.43-4.51 6.2-3.04 9.35-3.51 2.02.09 4.65-.6 6.12 1.13 1.85 2.59-1.64 5.75-4.27 4.63a63 63 0 0 0-8.5.21c-1.37 0-2.7-.97-2.7-2.46m-12.34-5.29c-.3-4.22 5.05-3.8 7.94-4.32a3.5 3.5 0 0 1 4.08.71c1.42 1.78-.24 4.3-2.18 4.72-1.92.4-3.92.43-5.86.72-1.57.56-3.68 0-3.99-1.86zm4.07 13.64c-4.34-.27-2.83-5.84.85-5.72 2.11.21 4.13-.17 6.22-.34 3.94.64 2.2 5.89-1.17 5.77h.29s.19-.02.28-.05c-2.1.57-4.31.36-6.47.33m175.69-137.92c-4.1-.88-1.1-5.53-.38-8 .66-2.89 2.99-8.1 6.62-5.5 2.08 2.25-.84 4.84-1.29 7.24-1.13 2.4-1.47 6.57-4.98 6.26zm6.23 16.3c-2.3-.64-2-3.3-.93-4.91 1.12-2.04 1.19-4.53 2.61-6.38 3.3-4.03 8.5.35 4.34 3.87-1.18 2.77-2.01 8.1-6.05 7.4zm15.61 5.21c-3-1.63-.4-5 .94-6.9 1.45-2.06 3.37-5.74 6.38-4.03 3.25 2.75-1.51 5.9-2.8 8.42-.68 1.73-2.58 3.34-4.52 2.49zm12.5 10.35c-2.67-3.03 2.52-6.1 4.09-7.85 1.47-1.7 4.46-3.4 5.95-.8 1.52 3.41-2.82 4.93-4.65 7.02-1.3 1.5-3.49 3.39-5.4 1.66zm1.44-12.77c-2.83-2.27.7-5.1 1.94-7.19 1.07-2.37 3.94-5.95 6.48-3.1 1.23 1.44.47 3.82-1.02 4.79-1.8 2.23-3.85 7.33-7.43 5.5zm-16.88-9.53c-2.65-2.04.4-4.74 1.28-6.9.98-2.26 2.24-5.15 5.03-5.32 3.5 0 3.61 4.44.93 5.81-1.54 2.6-3.27 8.33-7.24 6.39zm-7.19-8.66c-4.44-1.09-.88-6.21.6-8.51a3.6 3.6 0 0 1 3.03-2.02c3.91.22 2.7 4.3.83 6.29-1.02 1.82-1.8 4.58-4.46 4.24M381 186.48c-.46-3.54 3.65-3.99 6.02-5.13 2.54-1.42 7.38-2.16 6.62 2.23-.45 1.88-2.23 2.75-3.99 2.85-2.63.69-7.4 4.3-8.63.07zm7.37 18.65c-2.66-.86-4.82-.86-7.4-1.45-1.83-.43-2.28-2.66-1.38-4.1 2.42-3.9 7.85-.43 11.39-.17 4.29 1.07.87 7.47-2.64 5.72zm-9.36 15.97c-1.8-1.31-4.08-1.67-6.07-2.5-3.01-1.44-.79-6.17 2.16-5.88 1.61.19 2.9 1.16 4.43 1.56 2.28.88 5.65 2.42 3.94 5.39-.78 1.4-2.96 2.59-4.46 1.45zm12.57-27.51c-.48-1.52.4-3.13 1.63-3.87 2.21-1.2 4.92-.16 7.29-.85 1.56-.76 3.72-.83 4.36 1.16.57 1.8-.76 3.6-2.42 4.2-2.51.9-5.22.9-7.85 1.04-1.26.24-2.6-.35-3.01-1.66zm-3.46-18.16c-1.28-2.7 1.73-4.49 3.77-5.34 2.19-.93 4.15-3.18 6.67-2.7 3.44 1.08 1.47 6.38-1.69 6.3-2.63.88-6.5 5.06-8.77 1.74zm9.48 6.64c-.85-3.04 2.45-4.25 4.66-5.2 1.16-.66 2.44-1.59 3.82-1.35 3.53.6 2.35 5.6-.64 6.02-2.28 1-6.31 4.01-7.83.53m7.52 18.59c-.42-3.04 2.76-4.06 5.1-4.39 2.5-.78 6.81-2.04 6.6 2.06-.3 2.85-3.3 3.18-5.55 3.63-2.11.46-5.5 1.85-6.15-1.28zm-7.96 9.56c-3.47.8-5.74-3.84-2-5.2 2.61-.59 5.37.29 8.05.05a3.9 3.9 0 0 1 4.2 1.28c2.37 6-7.05 3.96-10.25 3.85zm-.35 11.75c-2.96-.65-9.8.37-9.46-4.1 1.5-4.09 7.04-1.05 10.22-1.43 3.99.69 3.16 5.76-.76 5.53m11.88-7.55c-.08-3.84 4.86-2.7 7.3-3.68 2.47-1.07 6.95-1.73 7.14 2.02-.19 2.94-4.46 2.82-6.64 3.56-2.59.3-7.07 1.73-7.83-1.9zm5.52 14.45c-1.32-3.06 2.78-4.05 4.87-4.05 2.47-.15 5.24-1.85 7.45-.12 2.46 2.01.19 5.22-2.5 4.86-3.1.14-7.75 2.59-9.84-.69zm5.43 14.62c-.73-3.32 3.42-3.49 5.67-3.99 2.85-.3 7.4-2.42 8.83 1.24.47 1.59-.81 3.13-2.38 3.36-3.53-.04-10.27 3.66-12.12-.59zm-18.71-17.02c-2.3-4.5 6.4-5.6 9.32-5.7 1.57.08 3.23 1.24 3.16 2.95-.34 3.27-4.16 2.3-6.36 3.08l.69-.19c-2.28.64-5.01 2.37-6.81-.17zm3.55 15.28c-1.7-4.82 8-4.93 10.77-3.9 4.2 1.5 1.64 6.53-2.16 5.25-2.75-1.18-6.76 2.14-8.61-1.35m8.85 14.07c-.71-2.92 2.75-3.51 4.89-3.7 2.04-.31 4.22-.72 6.21-.07 4.2 1.44 1.66 6.52-2.16 5.24-2.91-.38-7.45 2.23-8.94-1.5zm-28.21-20.41c-.74-3.67 4.05-3.39 6.43-4.1 2.51-.57 6.45-1.9 7.63 1.35.6 2.04-1.58 3.6-3.44 3.46-3.34 0-8.73 3.42-10.62-.7m1.43 12.9c-1.75-4.77 7.83-4.22 10.68-5.03 5.21.57 3.25 6.93-1.4 5.34-3 .14-7.24 3.1-9.28-.3m-15.15-16.11c-1.3-3.37 3.28-3.94 5.48-4.82 2.14-.71 4.75-1.66 6.57.24 1.97 2.06-.52 5.08-2.98 4.55-2.9.5-7.03 3.56-9.04.05zm.4 13.92c-1.35-3.92 4.08-3.96 6.6-4.46 1.56-.29 3.34-.52 4.76.38 3.51 2.27 0 6.78-3.36 5-2.69.1-6.31 2.11-8-.92m7.79 13.43c-.74-3.4 3.55-3.56 5.88-3.84 2.25-.34 4.93-.36 6.4 1.66 1.9 2.77-2.25 5.3-4.58 3.7-2.58.02-6.5 1.82-7.7-1.52m.63 10.6c-1.23-5.22 12.62-5.15 9.92.52-.9 1.5-2.7 1.64-4.22 1.26-2.04.36-4.9.74-5.7-1.78m43.62-5.47c-.66-4.16 5.22-3.47 7.8-4.3 1.93-.38 4.25.6 4.18 2.82-.35 3.16-4.27 2.68-6.54 3.2-1.95.5-4.7.6-5.44-1.73m-5.83 15.73c-1.47-4.96 7.05-4.2 10.04-4.63 2.96.07 4.46 3.8 1.5 5.24-2.02.74-4.42.22-6.56.64-1.73.7-4.08.62-5-1.28zm-6.61 17.06c-.71-3.28 3.42-3.66 5.72-3.59 2.6-.07 7.23-1.04 7.4 2.8-.64 3.85-5.65 2.38-8.4 2.66-1.78.47-4.1.12-4.72-1.87m-2.07 16.55c-2.82-.23-7.69 1.57-8.61-2.25-.22-1.61 1.3-2.9 2.82-2.97 2.68.1 5.46-.73 8.09-.1 4.34 1.53 1.61 6.82-2.3 5.3z"/><path fill="#582e1c" d="M413.06 280.35c-.74-3.4 3.56-3.53 5.88-3.89 2.04-.38 4.75.74 4.65 3.13-.07 2.09-2.6 3.06-4.36 2.45-2.14.38-5.3 1-6.17-1.69m-16.89 24.93c-.29-2.75 3-3.08 4.93-3.15 1.85-.29 3.96-.81 5.65.26 3.46 2.25-.22 6.73-3.5 4.98-2.43.24-6.44 1.23-7.08-2.11zm59.58 35.89c-1.2-3.25 2.94-4.08 5.3-4.27 2.74-.07 6.37-2.25 8.44.43 1.75 3.28-2.35 4.53-4.87 4.6-2.87-.1-7.02 2.5-8.87-.73zm4.77 10.63c-.05-3.46 4.22-3.03 6.62-3.39s6.45-1.28 7 2.09c.35 2.49-2.57 4.05-4.7 3.15-2.85-.07-8.02 2.2-8.92-1.85m1.06 14.8c-1.24-3.86 3.98-4.1 6.57-4.26 2.25.19 4.67-1.57 6.69-.12 1.85.92 1.75 3.41.12 4.48-1.55 1-3.52.8-5.27 1.02-2.66-.28-6.48 1.88-8.12-1.11m10.23 14.45c-1.82-.1-3.65 0-5.47 0-1.52 0-3.09-1.21-2.97-2.83.64-3.63 5.22-2.42 7.88-2.68 2.16-.14 5.31.14 5.64 2.85.24 2.51-3.1 3.82-5.07 2.68zm-25.73-30.94c-.43-1.59.9-3.01 2.4-3.32 3.2-.52 11.38-2.87 11.12 2.54-.6 2.27-3.18 2.46-5.1 2.13-2.75-.16-7.1 2.28-8.42-1.35m1.01 10.68c-1-4.54 8.87-4.56 11.48-3.33 3.94 1.95.21 6.67-3.13 5-2.66-.75-7.05 2.05-8.36-1.65zm10.3 16.17c-3.08-.74-9.68 1.64-10.55-2.47.14-4.81 8.37-2.63 11.62-3.06 4.94.29 3.4 6.48-1.04 5.55zm-28.16-23.49c.26-4.27 6.12-2.8 8.95-3.98 1.92-1.26 5.48-.29 5.31 2.37-.43 2.9-4.1 3.06-6.4 3.46-2.6.17-7.15 1.88-7.86-1.85m1.26 13.05c-.55-4.25 5.22-3.51 7.97-4 2.28-.36 5.81-.41 6.14 2.58.2 2.37-2.7 3.67-4.67 2.84-3.04-.4-7.9 2.33-9.44-1.42m.23 10.11c.29-4.42 7.1-3.18 10.18-3.42 1.57.1 3.18 1.16 3.06 2.92-.33 2.8-3.49 2.82-5.67 2.58-2.56-.04-6.9 1.54-7.57-2.08m-14.21-17.82c-.6-4 4.62-3.48 7.2-4 1.48-.29 3.2-.43 4.3.8 1.66 1.69-.07 4.37-2.06 4.5-.93.08-1.86.22-2.78.32-2.25.16-5.74 1.28-6.67-1.64zm-3.3 10.68c-3.2-.33-3.11-5.15-.5-6.29 1.18-.56 2.46-.09 3.72-.33 2.18-.23 5.1-.76 5.48 2.19.5 5.03-5.38 4.03-8.73 4.43zm4.3 7.94a2.6 2.6 0 0 1-1.51-4.9c1.8-.96 3.9-1.12 5.88-1.5 2.38-.86 5.2-.86 5.3 2.37-.12 4.84-6.32 3.75-9.66 4.03m.92 10.59c-1.63-.26-3.34.07-4.96-.21-2.68-.76-2.58-4.68-.45-6.03 1.83-.95 4.1-.05 6.1-.12 3.65.4 2.8 6.55-.69 6.36m-241.47 4.05c-2.42-.19-4.35-3.13-2.76-5.22.7-1.12 2.14-1.23 3.3-.85 2.5-.7 6-1.24 7 1.87.47 1.47-.38 3.2-2.02 3.35-.83.09-1.63.23-2.04.33-1.35.28-2.16.61-3.48.52m-.74-14.68c-1.5-.14-3.06.05-4.53-.3-2.07-.53-3.7-3.07-2.18-5 .83-1.22 2.53-1.25 3.8-.66 1.89.1 3.4.34 5.19.2 1.61-.36 3.39.94 3.84 2.44 1 3.8-3.63 3.6-6.12 3.32m1.07-15.61c-2.97-.15-6.76.66-8.62-2.35-1.9-2.92 1.69-5.53 4.25-3.54 2.92.29 7.38-.87 8.64 2.66.85 2.78-2.02 3.87-4.27 3.23m-19.5 19.38c-.86-1.26-.67-3.08.7-3.92 1.76-1.49 3.88 0 5.9-.33 2.36.38 5.42-.66 7.18 1.43 1.1 1.3 1.1 3.44-.6 4.24-1.56.62-3.31.1-4.97.17-2.76-.43-6.46 1.26-8.24-1.59zm7.47-13.31q-3-.69-6.07-.76c-2.35-.2-4.46-3.13-2.75-5.17.94-1.21 2.6-1.3 3.89-.62 1.73.17 3.3.52 4.74.76 3.7.33 4.49 6.07.17 5.79zm3.47-17.46q-3.67-1.15-7.42-2.04c-3.3.85-6.9-4.5-2.92-6.05 2.04-.5 4.1.66 6.07 1.07 2.73 1.14 7.83.95 7.64 4.95-.19 1.6-1.92 2.5-3.37 2.05zm-12.06 6.36c-3.58-.81-8.73.61-10.92-3.16-1.56-3.25 2.61-5.53 4.96-3.16 3.06.67 8.5-.59 8.95 3.78a2.53 2.53 0 0 1-2.97 2.51zm-2.62 17.6c-3.65-.42-7.97.2-10.89-2.49-3.15-3.1 1.03-6.8 4.04-3.91 3.03 1 7.87-.69 9.27 3.06.55 1.64-.61 3.46-2.42 3.37zm-9.28-10.63c-1.9-.3-3.82-.42-5.72-.69-3.49 0-7.83-3.13-4.34-6.21 1.16-.85 2.8-.5 3.89.36 2 .33 3.99.56 5.98.8 3.67.31 4.46 6.07.16 5.74zm-13.11 10.47c-3.01.04-8.42-.58-7.66-4.75.45-1.57 2.37-2.2 3.82-1.54 3.2 1.51 8.52-1.43 10.08 2.84 1 3.77-3.75 3.58-6.24 3.47zm6.35-23.59c-3.41-.95-10.17-.8-10.24-5.57.07-.98.9-1.86 1.8-2.07 2.35-.45 5.55 1.83 8.3 1.92 3.66.38 4.44 6 .17 5.72zm4.43-14.75c-3.32-1.4-12.2-1.62-9.32-7.17.92-1.44 3.08-1.23 4.29-.35 1.68 1.04 3.84 1.2 5.72 1.94 3.7.9 3.53 6.45-.7 5.58m9.61 9.11c-3.1-.74-8.21-.07-9.18-3.99a2.5 2.5 0 0 1 1.73-2.9c1.02-.37 2 .1 2.97.37 1.6.28 2.77.54 4.31.73 3.68.36 4.49 6.03.17 5.76zm92.46-171.78-.3-.1q-.63-.14-1.27-.23a11 11 0 0 0-5.41 1.02q-.83.4-1.64.9-.81.56-1.63 1.23-.7.64-1.33 1.3-.64.78-1.21 1.62-.44.75-.83 1.5-.26.57-.48 1.18a8 8 0 0 0-.45 2.37v.83q.03.43.1.86l.16.73.26.64q.16.33.34.64.2.33.47.64l.33.36q1.69-2.56 3.51-4.98a88 88 0 0 1 9.4-10.51zm24.8-13.14c.67 1.6.13 3.89-1.65 4.55a61 61 0 0 0-8.9 4.91l-.26.17a82 82 0 0 0-9.04 7.14 89 89 0 0 0-8.25 8.66 82 82 0 0 0-5.89 8.13 59 59 0 0 0-3.41 6.38 44 44 0 0 0-1.71 4.49q-.47 1.59-.78 3.2l-.15 1.02q-.08.59-.1 1.19v1.66q0 .21.06.47l.07.43v.36c0 1.35-.64 2.7-1.92 3.2q-.42.14-.84.14c-1.28 0-2.37-1.04-2.7-2.28q-.06-.23-.1-.47-.05-.3-.04-.57c-.1-1.35-.14-2.68 0-4.06a32 32 0 0 1 2.04-8.59 48 48 0 0 1 2.7-6.1 12 12 0 0 1-2.51-3.27 13.7 13.7 0 0 1-1.45-7.23c.26-4.77 2.68-9.2 6.15-12.4 4.84-4.47 12.26-6.46 18.17-2.97q.43.26.7.59a84 84 0 0 1 9.78-6.98 61 61 0 0 1 5.63-2.96l.16-.07.17-.1c.19-.1.38-.16.4-.16 1.5-.7 3.04.07 3.65 1.56zm96.48 29.63V188a10 10 0 0 0-.15-1.16q-.2-.96-.5-1.93-.18-.5-.4-1-.15-.3-.33-.58-.28-.43-.6-.81a12 12 0 0 0-2.48-2.16q-1.1-.67-2.26-1.23c-.71-.31-1.44-.55-1.9-.7l-.5-.09-1.18-.04a92 92 0 0 1 9.58 14.18l.2-.54a24 24 0 0 0 .37-1.4q.08-.43.12-.86zm8.04 26.03c.6 1.68-.48 3.56-2.37 3.58h-.05a3.6 3.6 0 0 1-2.73-1.38 3 3 0 0 1-.64-1.2c-.19-.6-.12-1.07-.05-1.67l-.07.4v.43q0 .14.02.26c-.11-1.13-.42-2.27-.68-3.41a69 69 0 0 0-2.42-7.71 87 87 0 0 0-4.2-9.2 97 97 0 0 0-6.15-9.87 84 84 0 0 0-6.35-7.88 74 74 0 0 0-6.12-5.93 54 54 0 0 0-5.3-3.96q-1.37-.9-2.82-1.62h-.04c-1.43-.73-2.35-2.65-1.67-4.2.7-1.47 2.69-1.85 4.01-.97 1.1.69 2.2 1.33 3.3 2.04a56 56 0 0 1 4.72 3.47 73 73 0 0 1 5.84 5.33h.3q.22-.01.43-.07.9-.18 1.83-.26c1-.07 2.02-.05 3.01-.05q.91-.02 1.78.07a18 18 0 0 1 5.33 2.07 17 17 0 0 1 6.18 5.67 15 15 0 0 1 1.63 3.94 19 19 0 0 1 .69 6.83 18 18 0 0 1-2.51 7.68q-.25.39-.45.76l1.04 2.35a72 72 0 0 1 3.84 11.53q.34 1.51.64 3.01zm-83.34 27.13h-.24c-1.7 0-2.82-1.63-2.85-3.22-.04-1.47 1.02-3.44 2.7-3.35h.55c2.61 0 5.2.05 7.78 0q1.3-.02 2.59-.07h1.71l.4-.02h.41c1.73.23 2.72 1.99 2.53 3.7-.14 1.35-1.11 2.6-2.37 2.82h-.07q-.17.01-.33.05h-.03q-.2 0-.38-.03h-4.3c-2.62 0-5.28.12-7.91.15h-.17z"/><path fill="#582e1c" d="M298.48 250.74c-6.26.33-14.97-4.7-10.84-11.8 2.18-3.41 6.26-3.27 6.17 1.31 1.97-.88 4.2-.47 6.28-.62.17-1.32.98-2.6 2.35-2.84 3.77-.2 5.36 6.05 3.68 8.8-1.61 2.6-4.46 5.08-7.66 5.17z"/><path fill="#582e1c" d="M290.25 246.02c-5.55.45-4.81-9.3-.17-9.75 5.27.21 5.84 9.98.17 9.75m11.37-.48a4 4 0 0 1-.71-2.01c-3.2-5.65 3.8-10.63 6.12-3.47 1.18 3.09-2.07 9.2-5.44 5.46z"/><path fill="#955f32" d="m262.07 246.48-.42.56-.07.1-.05.1q-.86 1.27-1.57 2.65-.14.25-.23.5-.14 0-.27.02c-.28-.1-.56-.14-.85-.21a17 17 0 0 0-3.63-.38h-.9q0-.82.3-1.56c0-.05.06-.1.08-.15q.08-.15.12-.28.1-.31.3-.6l.4-.75zm75.53 1.48a3.3 3.3 0 0 1-1.3 2.85q-.69.5-1.5.5-.42 0-.83-.17a3 3 0 0 1-1.52-1.4q-.07-.13-.11-.28-.36-.71-.79-1.38-.6-.96-1.3-1.9l6.9-.02c.12.21.2.42.26.5q0 .1.03.2.16.54.19 1.08z"/><path fill="#243854" d="M186.2 462.26c-.88-8.11-.95-16.39-.29-24.55-.16-2.3.03-6.21 3.32-5.62 3.13.97 2.26 4.93 2.09 7.45-.6 7.04-.36 14.2.28 21.23.9 4.03-4.31 5.79-5.4 1.5"/><path fill="#243854" d="M186.6 436.38c-1.04-1.52-.78-3.73.64-4.8l.31-.23c.29-.21.57-.45.8-.64q6.97-5.55 13.86-11.15c4.77-3.84 9.5-7.76 14.28-11.6q1.67-1.34 3.3-2.68c.48-.38 1-.76 1.43-1.19.11-.12.19-.19.33-.3l.04-.03.15-.12q-.04.02-.07.07l-.05.05a2.7 2.7 0 0 1 1.7-.55c1.71 0 2.76 2.02 2.71 3.52-.05 1.3-.76 2.44-1.9 2.87q.12 0 .2-.03l.63-.42-.14.09-.1.07-.04.05.05-.05v.02l-.1.1c-.66.4-1.28.97-1.8 1.38-2.68 2.13-5.32 4.31-7.69 6.19a1359 1359 0 0 0-13.17 10.68l-6.47 5.26c-1.57 1.28-3.16 2.54-4.67 3.84q-.15.14-.29.24h-.02c-.5.38-1.07.57-1.62.57-.85 0-1.68-.43-2.23-1.23z"/><path fill="#243854" d="M196.45 449.19c-3.35-3.63-5.89-7.95-8.97-11.82-3.77-2.58.36-9.01 3.6-4.88 2.92 3.74 5.46 7.8 8.54 11.4 2.9 2.1.15 7.88-3.17 5.3"/><path fill="#243854" d="M197.3 449.2c-1.21-1.46-1-3.65.04-4.64l.31-.31.31-.29.14-.12c4.37-4.29 8.64-8.63 12.93-13 4.06-4.12 8.19-8.18 12.2-12.33.5-.5 1.02-1 1.44-1.54 1.17-1.48 3.3-.98 4.2.47.86 1.4.71 3.56-.62 4.63l-1.06 1c-4.1 4.05-8.1 8.18-12.15 12.26-4.32 4.34-8.66 8.68-12.93 13.1q-.16.14-.3.32-.11.16-.24.27l-.34.33-.1.1c-.51.5-1.15.75-1.8.75a2.6 2.6 0 0 1-2.01-1z"/><path fill="#243854" d="M223.84 419.13a41 41 0 0 0-1.47-6.5c-.54-2.54-2.49-5.3-1.42-7.83 1.23-3.09 5.22-1.64 5.29 1.26.9 3.91 2.51 7.7 3.03 11.71.86 4.2-4.43 5.8-5.43 1.33zm-26.8 29.08c.55-3.89 6.31-4.31 5.84.17-.55 3.89-6.31 4.32-5.84-.17"/><path fill="#243854" d="M396.76 453.88h-.3q-.47-.02-.89-.19c.07.03.14.05.1.1-2.4-.14-4.82-.14-7.24-.17l-7.33-.1-15.75-.18q-15.73-.18-31.48-.24l-31.03-.14q-15.44-.08-30.86-.12-15.65-.09-31.3-.1h-40.01c-.34 0-.7.05-1.02-.02-1.48-.28-2.3-1.61-2.14-3.08a3.6 3.6 0 0 1 2.8-3.2c.43-.08.88-.05 1.3-.03l1.8.02q1.73.05 3.45.05 3.6.06 7.18.07l15.54.17q15.27.18 30.53.28c10.58.1 21.17.15 31.75.26q15.65.14 31.29.24 15.31.11 30.62.17 15.66.04 31.32 0h7.2c1.46 0 2.93 0 4.37-.12h.15q.17-.01.35-.05h.22c1.68 0 2.72 1.52 2.56 3.13-.17 1.62-1.52 3.25-3.23 3.25z"/><path fill="#243854" d="M396.46 454.26c-2.85-3.01 1.56-6.24 3.2-8.66 2.04-2.6 3.84-5.38 5.7-8.1.66-1.15 1.46-2.29 2.82-2.67 4.22-.85 5.1 4.8 1.47 6.24-2.7 4.2-5.81 8.1-8.83 12.05-.83 1.48-2.96 2.3-4.36 1.12z"/><path fill="#243854" d="m397.81 451.75-.21-.2q-.25-.2-.43-.5c-.02-.04-.07-.09-.05-.09l-.24-.33q-.29-.38-.61-.76l-2.14-2.68q-2.85-3.53-5.7-7.02c-4.1-5-8.18-10.06-12.3-15.02h-.03c-1.42-1.73-2.9-3.39-4.29-5.1l-.14-.16s-.03-.05-.05-.05l-.05-.05c-1.04-1.3-.83-3.46.31-4.62a2.55 2.55 0 0 1 3.94.35c1.61 1.97 3.15 4.01 4.74 5.98q3.03 3.74 6.1 7.45c3.99 4.84 7.92 9.7 11.93 14.52l.07.07.07.07.12.14 1.45 1.73.43.5a5 5 0 0 1 1.14 1.61c.52 1.4.21 3.18-1.05 4.13a2.5 2.5 0 0 1-3.03-.02zm9.92-11.91a2.6 2.6 0 0 1-2.1-1.4q.01.08.06.14.08.12.2.24c-.79-.98-1.7-1.9-2.52-2.8l-5.39-5.93q-5.8-6.37-11.6-12.7c-2.68-2.89-5.31-5.85-8.09-8.68l-.02-.02.02.05.26.23-.28-.28a3.7 3.7 0 0 1-.3-4.27c.94-1.52 2.96-1.85 4.19-.48q10.7 11.92 21.61 23.66c1.95 2.08 3.82 4.24 5.84 6.28 1.28 1.05 1.47 3.2.59 4.6a2.8 2.8 0 0 1-2.28 1.38h-.12z"/><path fill="#243854" d="M378.57 408.78c-1.05-.1-2.12-.1-3.18-.1l-4.77-.06-9.54-.1q-9.7-.08-19.45-.12-19.77-.08-39.52-.12-19.79-.02-39.6 0c-13.21 0-25.3-.04-37.95.1H224c-1.61-.05-2.7-1.4-2.77-2.99v-.24c0-1.68 1.18-3.39 2.98-3.32h.31c2.4.1 4.82.07 7.24.07q4.87.06 9.75.1 9.6.1 19.21.14c13.24.07 26.48.17 39.74.21q19.7.1 39.4.12c12.34.03 24.65.07 36.84-.1h.36q.84.02 1.66-.06.36-.07.71-.07c1.74 0 2.66 1.99 2.57 3.46-.12 1.66-1.3 3.08-3.02 3.08q-.22 0-.45-.07z"/><path fill="#243854" d="M372.65 420.55c-5.93-2.47 2.47-11.22 3.68-15.06q-.17.3-.22.61.08-.32.21-.61c1.33-3.25 5.67-1.52 5.22 1.7-1.14 3.8-3.84 7.26-5.55 10.82-.35 1.54-1.7 3-3.34 2.54"/><path fill="#243854" d="M228.8 422.2h-.3c-.97 0-1.68-.63-2.1-1.46a3.6 3.6 0 0 1 .1-3.63 2.7 2.7 0 0 1 2.48-1.47h.17c5.48 0 10.94.07 16.4.07h58.21q20 .02 40.04-.07c6.15-.05 12.29-.07 18.03-.15h1.85c.8 0 1.64 0 2.06-.02h.7l3.95-.07c.57 0 1.22 0 1.78-.07h.12q.25-.04.5-.03c1.7 0 2.66 2.02 2.54 3.5-.12 1.65-1.3 3.07-3.01 3.07q-.12.01-.31-.04-.82-.06-1.66-.05h-.76q-2.3 0-4.63-.05c-3.1 0-6.21-.05-9.32-.05h-19.67l-40.16.15q-19.5.09-38.98.21c-8.73.05-17.46.07-25.76.17h-.5q-.69 0-1.37.05h-.34zm-9.8-98.51v-.6q.01-.2.05-.4 0 .15-.04.29v.21-13.05c0-11.08-.12-22.18-.12-33.28q.01-3.16-.05-6.31.01-1.7-.05-3.37l-.02-.36v-.5c.02-.5.17-1.02.4-1.47.36-.7.93-1.3 1.78-1.54.6-.17 1.14-.1 1.62.12a3.3 3.3 0 0 1 1.77 3.27c-.07.57-.02 1.19-.02 1.76l-.02 4.65c0 11.22.12 22.44.14 33.66q.01 5.53.1 11.08v4.98c0 .07.02.15.02.34v-.22l-.07-.26.07.48c0 1.58-.8 3.39-2.59 3.58h-.26c-1.52 0-2.73-1.5-2.73-2.97zm3.53 82.96a2.5 2.5 0 0 1-1.66-.81q-.43-.44-.64-1.02-.16-.4-.21-.76v-.1q0-.09-.03-.19v-1.3c0-5.31-.1-10.6-.11-15.92-.05-6-.1-11.98-.24-17.98l-.02-1.21v-.38c-.1-1.56.87-3.37 2.58-3.56 1.66-.16 2.97 1.4 2.99 2.97v3.7c0 5.95.12 11.9.19 17.84.07 4.9.05 9.84.21 14.75q.05.33.05.64a3.6 3.6 0 0 1-1.3 2.76c-.43.33-.95.54-1.55.54h-.16zm9.85-157.55c.1-1.77 1.85-2.65 3.42-2.65h29.13q19.66-.04 39.26-.12c13.2-.05 26.38-.14 39.57-.17 8.43-.02 16.87-.02 25.3-.16l.51-.02h.62c1.57 0 3.23 1.28 3.18 2.94-.07 1.73-1.83 2.68-3.42 2.65h-.61q-.23 0-.45-.02l-4.77-.02h-11.86q-9.85.01-19.67.07-19.7.04-39.43.12-19.35.04-38.71.16c-6.03.05-12.05.07-17.96.15h-.9c-1.57 0-3.23-1.29-3.18-2.92z"/><path fill="#243854" d="M223.98 252.3c-2.01-4.24 5-5.12 7.64-5.62 2.25-.12 5.24-.95 6.48 1.56.6 1.2-.03 2.54-1.07 3.23-1.8 1.02-4.03.26-5.95.97-2.35.76-5.27 2.57-7.1-.14M378.4 402.79c0-3.42.09-6.81.11-10.23q.12-9.19.14-18.38v-5.37c.08-1.49.95-3.08 2.59-3.27 1.92-.21 3.08 1.73 3.01 3.44-.1 1.92-.07 3.84-.1 5.76l-.09 9.66q-.01 8.02-.07 15.99v2.11c.12 1.64-.78 3.49-2.56 3.7h-.3c-1.81 0-2.78-1.87-2.69-3.53v.07zM248.05 265.97c0-1.47 1.06-3.4 2.8-3.3.73.05 1.47.03 2.2.03h13.71c6.39 0 12.77-.05 19.13-.05q19.89-.05 39.8-.17 7.06-.03 14.12-.1 3.53-.02 7.02-.09c1.42-.02 2.85-.02 4.25-.12h.04q.2-.04.4-.04c3.69 0 3.69 6.57 0 6.57q-.18 0-.37-.03a57 57 0 0 0-4.94-.09h-11.6q-9.99.01-20.02.1a11092 11092 0 0 0-59.5.5c-1.4 0-2.84 0-4.24.09h-.14c-1.64 0-2.66-1.85-2.66-3.3m-8.64 60.43a4 4 0 0 1-.66-1.12c-.15-.38-.31-1-.22-1.4v-.05q-.01-.28.05-.55v-1.66l.02-4.03q0-4.44-.02-8.87c0-6.22-.07-12.46-.1-18.7q0-4.86-.16-9.72v-.7q-.08-.37-.05-.75c-.02-1.5.93-3.1 2.5-3.35 1.84-.26 2.96 1.48 3.08 3.04v.33c-.17 2.66-.12 5.34-.12 8 0 3.13.05 6.28.05 9.44q.04 9.26.12 18.5c.02 2.8.04 5.6.14 8.28v.15c.33 1.66-.64 3.72-2.45 3.98h-.33a2.6 2.6 0 0 1-1.9-.88z"/><path fill="#243854" d="M238.3 280.3c-.1-2.78.26-5.44 1.3-8.02a17 17 0 0 1 4.2-6.17 14 14 0 0 1 4.63-2.9 9 9 0 0 1 2.26-.54q.7-.09 1.4-.07h.85c.24 0 .26.02.24.02 3.41.57 3.18 6.55-.43 6.55q-.17 0-.3-.03l-.24-.04h-.53q-.5.03-1 .14-.51.15-.99.33l-1.07.55q-.53.36-1.04.76-.53.45-.97.94l-.86 1.07a11 11 0 0 0-1.33 2.66q-.2.67-.38 1.35-.1.5-.16 1.02-.04.56-.03 1.16v.15c.22 1.66-.52 3.7-2.41 3.96l-.38.02c-1.66 0-2.66-1.66-2.73-3.22v.28zm124.36 21.87q-.63-.02-1.16-.35a3 3 0 0 1-.64-.55 3.4 3.4 0 0 1-.85-2.23q-.01-.42.04-.85l.02-1.76c.05-1.56.05-3.1.1-4.65.04-3.46.12-6.95.1-10.43v-.12q-.1-1.2.51-2.26a2.8 2.8 0 0 1 2-1.35c1.9-.24 3.1 1.69 3.03 3.4-.14 3.15-.14 6.3-.19 9.46-.02 2.65-.1 5.31-.04 7.97v.07-.05.07q.02.45-.03.88a3.3 3.3 0 0 1-1.8 2.54h-.05a3 3 0 0 1-.95.19h-.12z"/><path fill="#243854" d="M360.82 281.96c-.29-.78-.22-1.6-.2-2.44q-.02-1.57-.2-3.1a21 21 0 0 0-.9-3.61l-.1-.22q-.02-.06-.07-.11c-.67-.81-1.43-1.52-1.86-1.95l-.47-.43q-.1-.08-.21-.12-.47-.2-.95-.38-.73-.24-1.5-.37c-.57-.12-1.11-.31-1.66-.43-.47-.05-.95 0-1.42-.03-1.87-.1-2.82-1.87-2.8-3.56 0-1.56 1.3-3.22 2.99-3.13.3 0 .6.1.85.22.48.02.98.02 1.45.1.6.09 1.19.33 1.78.44a14 14 0 0 1 3.75 1.28c.69.36 1.23.88 1.78 1.43l1.66 1.68a10 10 0 0 1 1.4 1.9c.5.93.76 1.94.92 2.63a28 28 0 0 1 1.07 8.26v-.2l-.1-.37h-.02q.1.3.14.62.08.39.08.78v.07q0 .2-.08.45c-.02.14-.04.26-.11.45-.34 1.07-1.24 2.04-2.4 2.16h-.28c-1.22 0-2.16-.93-2.57-2.04z"/><path fill="#582d1c" d="M164.59 289.08c-7.1-9.33-6.88-22.87-5.88-33.97 2.3-4.27 7.42-.27 5.2 3.44-.25 7.85-.41 15.84 2.84 23.17.9 2.3 3.46 4.01 1.75 6.72a2.57 2.57 0 0 1-3.91.61zm69.5 41.85a213 213 0 0 1-19.83-1.02 2.55 2.55 0 0 1-2.33-3.18 3.7 3.7 0 0 1 3.8-2.66c29.6 2.63 59.76-.45 88.84-6.24 17.25-4 34.3-8.75 50.39-16.1q3.8-2.22 7.45-4.6c2.4-1.67 5.12-4.66 8.23-3 2.73 1.66.43 5.58-2.33 5.53-13.47 10.03-30.2 15.09-46.11 19.43-28.6 8.37-58.48 11.17-88.11 11.81h.05z"/><path fill="#582d1c" d="M300.32 364.97c-28.38 1.12-57.67-6.5-79.31-25.4-3.13-2.02-5.34-5.03-8.11-7.4-1.28-1.17-.53-3.28.64-4.2 2.37-1.98 4.67.02 6.36 1.8 3.32 3.86 7.61 6.71 11.48 9.98 24.67 17.94 52.78 20.88 82.39 19.27 38.57-.38 74.37-22.61 97.93-52.17 10.65-14.59 18.24-31.81 20.97-49.68-.43-2.58 1.78-5.14 4.43-4.67 2.14.12 3.2 2.73 1.78 4.37-1.82 13.11-6.83 25.9-12.57 37.79-8.56 15.65-20.71 28.77-34.59 39.9-16.68 14.37-37.41 23.39-58.74 28.35-11 2.04-21.99 2.1-33.12 2.06z"/><path fill="#582d1c" d="M195.7 343.5c-.9-1.45 0-3.28 1.33-4.11 4.03-2.5 7.95-5.17 11.96-7.73 2.63-1.74 7.18-7 9.84-2.78.69 1.78-.74 3.6-2.4 4.13-1.9 1.25-3.62 2.77-5.55 4.03-2.84 1.85-5.7 3.72-8.49 5.6-1.9 1.26-4.86 3.44-6.67.85z"/><path fill="#582d1c" d="M297.5 387.17c-14.6-.76-28.9-3.72-42.99-7.43-20.83-4.22-40.16-14.11-54.28-30.05-2.13-2.28-6.69-5.77-3.3-8.7 2.73-2.1 4.73 0 6.15 2.27 4.98 5.48 10.15 10.65 16.23 14.9 12.3 9.44 26.87 13.64 41.73 17.03a197 197 0 0 0 31.5 5.79c20.61 1.94 41.51.26 61.49-4.56 22.3-6.83 41.94-19.92 58.83-35.63 11.53-11.58 22.06-24.81 28.85-39.69 2.2-5.31 4.8-10.44 6.52-15.92.64-2.4.31-5.45 3.02-6.59 2.63-1.42 6 1.57 3.63 4.15-11.65 42.58-46.64 76.34-86.24 94.28-22.32 9.27-47.2 11.29-71.17 10.15z"/><path fill="#582d1c" d="M245.18 350.4c.26-2.82 3.36-3.15 5.62-2.94 3.77.05 7.57-.24 11.34-.45 9.84-.76 19.76-1.7 29.37-3.32 21.09-3.82 41.65-10.75 61.04-19.53 8.2-3.65 16.48-7.68 23.55-13.3 1.19-.95 1.52-2.59 3.04-3.2 3.82-1.7 7.5 2.89 3.04 5.14-4.35 4.72-10.42 8-16.06 10.8-9.28 5.28-20.07 9.55-29.87 13.2-22.61 8.57-46.19 14-70.27 15.48-5.9.5-11.79.87-17.7.85-1.54.05-3.18-.97-3.08-2.68z"/><path fill="#582d1c" d="M241.54 351.14c-.11-3.84 5.13-3.84 7.8-3.27a2.54 2.54 0 0 1 1.46 3.67c-1.2 2.3-3.85 1.6-5.94 1.85l.48-.04c-1.59.26-3.56-.36-3.8-2.21"/><path fill="#582d1c" d="M247.28 353.55c-2.08-.35-5.62.2-5.6-2.87.08-1.66 1.76-2.91 3.35-2.94 1.78.1 3.91-.26 5.39 1 2.06 2.06-.62 5.24-3.11 4.81zm130.43-26.04c-2.18-2.5.64-5.17 2.45-6.83a84 84 0 0 0 13.64-18.74c1.54-4.23 7.19-2.14 5.2 2.08-1.67 3.54-17.5 28.52-21.26 23.49zm27.45 23.56c-.3-1.66 1.17-3.08 2.7-3.34 9.62-1.67 19.08-3.44 28.21-6.86 7.57-3.42 15.42-6.86 21.83-12.22 1.68-1.78 2.85-4.22 5.65-3.82q-.44 0-.81.07c4.15-.64 5.36 3.87 1.5 5.5-6.1 6.8-14.88 10.2-22.83 14.2-8.04 3.58-16.44 5.45-24.98 7.13-3.34.05-9.75 3.75-11.27-.68z"/><path fill="#582d1c" d="M344.39 330.04c.38-4 5.46-2.87 8.28-3.06 10.3-.07 20.66-.8 30.77-2.25 5.14.07 10.08-1 14.94-2.42 1.52-.26 3.32.57 3.63 2.16.36 1.85-1.54 3.41-3.27 3.41-5.46 1.97-11.3 2.21-17.04 2.57-9.94 1.66-19.95 1.87-29.72 2.09-2.56-.2-7.17 1.23-7.6-2.47zm-11.57 29.9c-20.43.22-41.16-2.16-61.2-5.6-2.5-.4-7.5-.11-6.67-3.93.66-1.97 3.01-2.59 4.84-1.97 8.63 1.18 17.2 2.8 25.83 3.94a366 366 0 0 0 39.8 2.06c4.04.12 8.24-1.52 12.13-.71 2.82 1.35 1.28 5.03-1.28 5.24-4.46.52-8.97 1.1-13.47 1zM172.66 318.5c-10.37-4.73-17.37-14.07-26.98-19.84-2.6-1.19-6.4-1.64-5.93-5.43.1-1.45 1.5-2.63 2.97-2.3a42 42 0 0 1 10.96 6.1c6.54 5.74 12.78 11.97 20.75 15.75 3.33 1.54 2.21 7.42-1.75 5.71zm25.79 32.85c-15.23-3.35-29.98-8.21-43.86-15.37-6.22-3.3-12.2-6.98-17.7-11.37-1.75-1.11-2.99-3.8-1.35-5.53 1.3-1.23 3.16-.8 4.22.48 17.1 13.78 38.48 21.11 59.62 25.71 5.29-.14 4.7 8.38-.9 6.06zm-24.54 118.23c-4.03-1.04-1.61-6.48-1.38-9 .86-6.85.15-13.85-.97-20.6-2.92-15.05-8.28-29.97-18.74-41.43-6.1-7.21-14.73-15.56-24.84-13.5-1.75.29-2.82 1.83-4.53 2.04-4.53-.78-3.13-6.69.9-7.47 12.79-5.34 25.15 5.48 32.72 14.88 13.14 14.9 19.3 34.87 21.11 54.4.17 3.81 1.14 21.58-4.27 20.7z"/><path fill="#582d1c" d="M185.75 423.42c-4-18.48-15.65-37.36-35.46-41.06-7.07-1.67-14.12.28-21.05 1.66-1.23.54-2.72.59-3.63-.6-2.34-4.65 4.18-5.52 7.36-5.93 16.5-4.81 35.9 1.6 45.83 15.73a64 64 0 0 1 12.12 25.34q.28 1.18.76 2.35c.67 1.56-.7 3.36-2.09 3.96-1.42.61-3.25.19-3.84-1.43z"/><path fill="#582d1c" d="M181.79 403.57c-10.23-5.5 18.33-13.93 22.25-13.76 5.36 0 10.98.66 16.08 2.42v.35l-.14 2.3q-.05 1.2-.02 2.45c0 .52 0 1.09.04 1.6-11.43-5.42-23.48-3.17-34.25 2.83a3.9 3.9 0 0 1-3.13 1.95q-.42 0-.84-.14m233.25 62.22c-1.02-.33-1.61-1.28-1.94-2.23q-.37-1.12-.72-2.26a66 66 0 0 1-2.32-12.74v-.11a70 70 0 0 1 3.84-28.28 68 68 0 0 1 14.66-24.18c6.4-6.7 14.3-12.14 23.18-15.04a48 48 0 0 1 12.88-2.32 44 44 0 0 1 7.64.36l1.02.16.24.03c1.14.16 2.01 1.18 2.3 2.27a3.6 3.6 0 0 1-.8 3.44c-.67.71-1.57.95-2.26.8-1.23-.28-2.54-.4-3.8-.49q-3.2-.21-6.43.07a45 45 0 0 0-7.06 1.3q-3.66 1.02-7.1 2.57a55 55 0 0 0-6.93 3.89 60 60 0 0 0-6.14 4.82 64 64 0 0 0-5.57 5.83 68 68 0 0 0-4.63 6.38 81 81 0 0 0-3.84 7.07 76 76 0 0 0-2.94 7.52q-1.2 3.88-1.95 7.85a69 69 0 0 0-.9 7.88c-.1 2.47-.1 4.94.1 7.4q.28 3.5.94 6.9.44 2.11 1.05 4.16l.83 2.68c.28.95.14 1.97-.29 2.84a2.6 2.6 0 0 1-2.32 1.47q-.37 0-.74-.11z"/><path fill="#582d1c" d="M401.16 410.85c-6.03-4.27 7.8-19.86 11.86-22.8 19.5-15.63 34.92-15.51 58.07-10.7 2.52.48 3.18 4.06 1.47 5.75-1.23 1.28-3.3.92-4.84.59-11.88-3.4-25.17-4.4-36.75.6-10.88 5.23-22.44 12.8-26.09 24.97-.52 1.5-2.3 2.37-3.7 1.6z"/><path fill="#582d1c" d="M405.25 399.49a23.8 23.8 0 0 0-21.76-.26q0-.67.03-1.36c.02-1.28.1-2.56.16-3.81v-.2.08l.07-1.47v-.36q.37-.15.7-.26c6.47-1.97 14.49-2.61 20.58.66 1.43 1 3.47.34 4.54 1.88 1.75 2.6.02 5.5-2.64 5.5q-.81 0-1.7-.38z"/><path fill="#582d1c" d="M408.39 397.68c-3.7-1.54-.93-6.5-.67-9.01.8-4.39 1.33-8.87 1.64-13.33.1-6.24.28-12.53-.79-18.7-.63-2.8-2.77-7.23.88-8.75q-.23.1-.45.26c2.2-1.52 4.75 1.26 4.06 3.58.88 3.04 1.38 6.2 1.54 9.35.5 4.53.78 39.29-6.24 36.63zm-8.52-74.9c-1.88-.68-2.19-3.15-2.7-4.43-.8-3.25-3.1-5.67-4.61-8.52-1-4.41 4.98-7.21 5.79-1.82 2.18 2.98 3.44 6.61 4.65 9.84 1.25 2.16-.36 5.81-3.13 4.93m-213.21 75.68c-2.97-1.92-3.94-7.52-5.17-10.6-5.56-14.14-5.5-29.75-2.5-44.43a3.6 3.6 0 0 0-.2 1.66c-.32-4.6 5.59-4.91 5.54-.2a104 104 0 0 0-1.83 23.64 83 83 0 0 0 4.58 18.38c.53 3.73 5.3 7.88 1.92 11.17-.66.5-1.54.67-2.32.38zm10.88-95.34c-4.75-1.16-1.83-6.29-.1-8.9 5.74-9.87 12.88-18.93 20.5-27.42 1.56-1.28 2.75-4.18 5.17-2.92 3.13 1.97 1.1 5.81-1.2 7.52-8.26 8.95-15.5 18.39-21.34 29.01-.16 1.5-1.47 2.9-3.03 2.7"/><path fill="#582d1c" d="M385.8 315.36c-2.7-.76-6.62-1.87-7.21-5.03-.6-3.13 3.4-5.86 5.22-2.54 2.35 1.78 5.55 1.26 6.45-1.75-.52-2.23-1.52-4.98 1.3-6.17 2.47-.8 3.54 1.9 4.01 3.82 1.52 5.76-3.77 12.36-9.8 11.7z"/><path fill="#582d1c" d="M378.07 310.98c-3.9-3.44-7.12-7.45-10.42-11.44a4.9 4.9 0 0 1-2.2-3.91c-.21-3.25 4.08-4.75 5.34-1.45 2.56 2.32 4.36 5.65 6.8 7.9 1.64 1.83 3.82 3.18 5.15 5.29 1.95 3.15-2.35 7.33-4.67 3.6"/><path fill="#582d1c" d="M368.24 298.66c-1.4-.1-2.25-1.38-2.75-2.56-1.83-4.42-.95-9.75 2.56-13.07 3.46-3.68 13.05-4.06 11.34 2.63-.97 2.28-2.9 2.13-4.8 1.14-2.89.28-5.33 3.06-4.26 5.98 2.16 1.75 1 6.33-2.09 5.88"/><path fill="#582d1c" d="M375.12 285.76c-3.2-8.3 5.3-17.4 13.31-18.72 3.87-.48 4.27 6.14.69 6.5a12 12 0 0 0-7.74 5.03c-1.99 2.32-.73 4.48-1.66 6.83a2.65 2.65 0 0 1-4.55.33z"/><path fill="#582d1c" d="M388.56 273.02c-4.53-1.45-1.14-6.72-.26-9.68 1.1-3.66 2.8-7.3 4.53-10.65 1.54-3.61 3.94-7 7.78-8.3a14 14 0 0 1 7.8.06c2.55 1.24 3.97 4.18 4.3 6.88.86 6.43-2.28 12.17-5.24 17.63-1.71 4.27-6.57 1.21-5.1-2.56 2.01-4.94 6.95-10.42 4.15-15.8a6.8 6.8 0 0 0-8.3 4.03c-1.64 3.4-3.37 6.81-4.6 10.4-1.45 2.6-1.12 8.13-5.04 8.03z"/><path fill="#582d1c" d="M410.73 280.54c-1.85-2.54.21-4.9 2.28-6.39 2.56-2.6 8.85-5.97 7.5-10.03-2.12-3.04-6.62-1.92-9.05.19-1.42 1.33-2.22 2.56-3.32 4.08-.37 1.14-1.25 2.06-2.56 2.06-4.17-.56-2.92-5.4-.73-7.52 2.32-3.25 5.38-6.24 9.49-6.9 5.43-1.47 11.31 2.35 11.9 8.02.88 5.5-3.44 9.75-7.2 13.1-2.47 1.4-5.44 6.8-8.26 3.39z"/><path fill="#582d1c" d="M393.73 305.35c-3.3-.43-4.27-5.39-1.06-6.7.75-.28 1.47-.09 2.13.27 1.33.43 3.13.45 4.34-.33 1.6-1.69 1.14-5.05 4.08-5.39 5.53 0 13.48-4.36 10.32-10.8-5.34.27-4.17-8.48.97-6.44 4.66 1.2 5.56 7.16 5.18 11.29-1.05 6.95-7.76 11.65-14.45 12.26-1.4 4.91-6.74 7.29-11.46 5.86zm-25.48-59.95c.7-9.96-.08-19.86.37-29.77.88-3.68 5.75-2.8 5.67.88-.94 9.49.17 19.38-.47 28.9 0 4.26-5.57 4.28-5.57 0"/><path fill="#582d1c" d="M378.29 274.44c.02-7.6.21-16.87-5.3-22.73-1.8-1.21-3.67-1.33-4.24-3.54-.52-2.01.76-4.76 3.1-4.4 11.54 4.88 12.03 19.75 11.99 30.64-.03 4.27-5.53 4.3-5.55 0zm-9.14-58.66a3.46 3.46 0 0 1 1.6-3.97c10.11-9.89 10-27.09 2.05-38.19-7.67-9.77-22.92-13.52-33.55-6.62-4.03 4.1-7.18-4.41-2.49-5.83 11.98-7.67 29.02-4.34 38.3 6.1 8.75 9.5 11.21 25.04 6.99 37.1-1.16 3.58-9.25 19.66-12.9 11.43zm-145.27-1.19s.11.1.18.12l.38.16q-.2-.06-.35-.16s-.17-.1-.24-.17c-.02 0-.07-.05-.1-.07h-.02q-.14-.09-.23-.17a35.5 35.5 0 0 1-12.93-18.93 36 36 0 0 1-.12-18.17 35 35 0 0 1 8.59-15.42 34.4 34.4 0 0 1 21.8-10.44 35 35 0 0 1 14.97 2.11 40 40 0 0 1 8.82 4.96l.14.1c.03 0 .05.05.07.05a3.65 3.65 0 0 1 .76 4.55c-.45.8-1.23 1.3-2.04 1.42q-.7-.44-1.44-.87-1.14-.69-2.28-1.3-.57-.34-1.14-.63c-.52-.28-1.04-.61-1.64-.75a26 26 0 0 0-5.57-2.21 33 33 0 0 0-5.25-.97 37 37 0 0 0-4.83-.05q-2.61.25-5.18.85-2.1.57-4.12 1.43-2.05.9-3.87 1.99l-.1.05-.09.07a33 33 0 0 0-3.42 2.51l-.07.07a35 35 0 0 0-2.84 2.83q-1.26 1.46-2.33 3.06a33 33 0 0 0-1.83 3.17 35 35 0 0 0-1.28 3.14v.14a30 30 0 0 0-.97 3.51c-.19 1.1-.35 2.16-.45 3.27q-.14 1.86-.05 3.68.13 1.71.43 3.42c.21 1.16.5 2.3.71 2.99q.61 1.91 1.45 3.77.78 1.64 1.73 3.2.97 1.5 2.09 2.9 1.31 1.55 2.8 2.94c.9.78 1.85 1.47 2.65 2.13q.08.03.12.1.23.19.4.4c.88 1 1.1 2.49.57 3.75a2.8 2.8 0 0 1-2.53 1.82q-.7.02-1.4-.4z"/><path fill="#582d1c" d="M217.91 266.16c-.26-6.64 1.12-14.6 6.64-18.93-.52-10.7-.66-21.35-1.75-32a5 5 0 0 1 .73-3.94l-.21.45c1.38-3.63 5.9-1.71 5.31 1.8-.28 11.98 1.69 24.32 1.36 36.4-.27 1.51-2.07 2.41-2.92 3.12-2.78 2.54-3.13 6.65-3.75 10.16.19 2.2.38 5.07-2.25 5.67-1.6.28-3.06-1.19-3.16-2.75zm116.77-99.42c-21.54-10.63-47.63-10.37-69.62-1.21l-.43-.26-2.54-1.57q-.9-.53-1.83-1.04a3.4 3.4 0 0 1 2.54-2.18c16.56-7.24 35.47-9.11 53.28-6.31a103 103 0 0 1 22.16 7.26c2.11.8 2.04 3.5.5 4.79-.64.6-1.59 1-2.51 1a2.6 2.6 0 0 1-1.57-.48zM172.81 305.2c-3.44-4.67-8.82-9.06-8.4-15.46.34-4.39 3.85-8.64 8.54-8 3.3.95 5.8 3.92 7.55 6.65 1.68 2.23 2.99 4.72 4.7 6.9 1 1.3 1.2 3.3.04 4.6-1.28 1.43-3.25.86-4.22-.6-2.92-3.76-4.6-8.5-8.66-11.14-4.48.88-1.42 5.98.45 8.06 1.83 2.95 6.79 5.56 5.24 9.47-1.18 2.61-4.31 1.92-5.24-.5z"/><path fill="#582d1c" d="M191.96 300.3c-2.06-5.98-1.94-12.95-5.55-18.29-1.73-1.92-4.1.17-4.39 2.2-.24 1.65.55 3.26.85 4.85.4 2.44 2.9 5.29.43 7.4-5.22 2.82-5.7-7.14-6.71-10.3a10.14 10.14 0 0 1 5.48-10.98c10.63-2.75 12.22 11.86 14.04 19.12.48 2.59 2.8 6.55-.5 8.11-1.51.57-3.22-.59-3.6-2.1zm-12.95 20.4c-4.34-.9-9.42-2.16-11.46-6.52-1.4-3.99-1.37-9.07 2.57-11.56 2.2-1.51 6.54-2.1 8.01.64 3.2 1.64 6.55 3.42 8.45 6.62 3.2 5.06-1.61 12.31-7.6 10.82zm1.47-6.36c.74 0 1.28-.45 1.52-1.14-2.01-2.7-5.34-3.53-8.04-5.29-.71.05-1.16.7-1.69 1.12-.75 4.39 5.03 4.86 8.19 5.29zm210.54-22.32a7.8 7.8 0 0 1-6.14-8.04c-.33-1.45.1-3.18 1.54-3.87 3.04-1.18 4.13 2.54 4.08 4.87 1.52 1.5 4.58.19 5.03-1.69-.4-4.1-3.08-8.87-7.66-8.56-4.2-.8-2.7-8.83 1.61-6.34 6.74.38 10.58 7.86 11.48 13.84 1 5.52-4.5 10.72-9.94 9.8"/><path fill="#582d1c" d="M404.8 297.64c-5.77-.38-7.69-7.21-6.45-12.02.64-3.59 3.65-5.49 6.78-6.74 1.97-.8 3.99-1.5 5.93-2.37 1.57-1.17 3.58-.15 4.18 1.56 1.68 5.72-7.43 5.58-10.68 8.16-1.4.97-1.59 4.7.45 4.96 3.56.3 3.51 6.64-.19 6.45zm-15.01 7c-4.53-5.72-8.85-11.63-13.76-17.03-2.56-1.6-3.4-6.2.24-6.93 1.04-.1 1.9.45 2.44 1.23 2.75 2.63 4.79 5.86 7.47 8.52 2.28 3.37 4.91 6.4 7.38 9.49 2.6 2.53-.76 7.78-3.77 4.7zm-196.41 42.04c-5.52-.36-10.13-7.36-8.28-12.55 1.12-3.82 4.72-5.93 7.5-8.52 5.05-3.8 10.32-8.97 17.03-8.99 6.77.07 10.85 9.51 7.38 14.95-2.37 3.53-6.45-.81-4.53-3.82.3-.48.4-.98.19-1.52-1.68-6.55-9.09-1.07-12.38 1.26-3.4 2.91-7.88 5.36-10.04 9.3.76 2.96 3.13 3.96 5.96 3.25a2.74 2.74 0 0 1 4.57.64c2.1 4.65-3.74 6.47-7.37 6z"/><path fill="#582d1c" d="M188.46 332.01c-4.13-.52-6.9-4.15-8.7-7.57-1.26-2.51-4.13-6.45-.65-8.42 3.54-1.33 4.25 3.6 5.6 5.7.93 1.59 2.02 3.22 3.87 3.81 1.73.1 2.82 1.83 2.77 3.47-.04 1.5-1.2 3.23-2.87 3.01zm1.7-13.08c-5.43-4.35-3.16-13.05 1.07-17.51 1.94-1.8 4.62-5.22 7.56-3.8 2.3 1.4 2.04 5.91-.92 6.26-3.06 1.86-6.12 5.6-5.05 9.4 3.15.97 6.47-.6 7.18-3.91.26-1.52 1.57-2.9 3.23-2.5 3.92 1.3 1.9 6.58.05 8.76-2.59 4.46-8.7 5.55-13.1 3.3z"/><path fill="#582d1c" d="M209.3 321.63c-3.98-1.38-1.42-6.12-1.58-9.11-.07-4.75-3.32-11.25-8.83-8-3.22 2.56-6.28-2.87-3.6-5.24 10.36-7.1 18.6 4.6 17.9 14.52-.51 2.68.17 8.33-3.9 7.83z"/><path fill="#243954" d="M247.73 394.9a9.7 9.7 0 0 1 1.33-11.71 9 9 0 0 1 6.88-2.57q.22.02.45.07c1 .22 1.92.53 2.82 1.03a9.2 9.2 0 0 1 4.46 7.82 10 10 0 0 1-2.14 6.2 8.5 8.5 0 0 1-6.61 3.18c-2.9 0-5.6-1.6-7.17-4.04zm7.3-2.44q.3 0 .6-.04l.57-.15.45-.19q.21-.1.42-.26l.31-.26.24-.26.17-.26.14-.31q.04-.15.1-.28l.04-.24v-.48q0-.15-.05-.28-.02-.16-.1-.3l-.13-.32-.2-.3-.2-.27q-.23-.2-.43-.4l-.38-.26q-.26-.14-.53-.24-.24-.08-.52-.14h-.24q-.22-.04-.45-.05-.28-.01-.56.05l-.57.14q-.27.1-.53.24l-.35.21-.31.29-.24.26-.19.26-.14.28q-.04.16-.1.27l-.04.23v.45q0 .15.04.29l.1.33q.04.13.12.26l.19.33.28.36q.15.15.34.28l.4.29q.24.13.5.24.3.1.66.16c.2 0 .38.05.57.05zm60.41 2.94h-.17c-1.47-.11-2.49-1.46-2.58-2.94-.1-1.47.85-3.53 2.56-3.58h.59l.4.02h5.93q4.67.01 9.33-.04c6.26-.05 12.55-.17 18.81-.26 1.38 0 2.75-.05 3.72-.05q.9.02 1.8-.07.7-.2 1.34.05.4.1.68.38l.2.14a3 3 0 0 1 .75 1 3.7 3.7 0 0 1-.76 4.22q-.28.25-.57.4-.4.22-.83.26h-.5q-.18 0-.37-.05c-.76-.07-1.55 0-2.3 0q-2.15-.01-4.25.05-4.75.06-9.5.07c-6.23.07-12.45.12-18.68.29l-4.49.1zM388 441.38q-.41.01-.76-.1l.4.08h-.76c-12.07-.17-24.15-.2-36.23-.24q-20.07-.08-40.16-.12c-13.33-.05-26.69-.02-40.02-.05l-39.14-.02h-19.95q-.58 0-1.1.02h-.42c-1.7-.1-2.59-2.04-2.44-3.56.14-1.49 1.2-2.82 2.7-2.96h1.66c12.65.17 25.31.17 37.96.21q19.82.08 39.62.12 20.16.08 40.32.12 19.68.02 39.36 0 5.63.01 11.25-.05h7.21l.35-.02h.48c.35.05.69.14 1.02.35a3 3 0 0 1 1.42 2.23c.26 1.71-.78 3.8-2.68 3.94h-.07zm-169.38-9.63c-1.66 0-2.78-1.33-2.9-2.97-.09-1.68.98-3.44 2.71-3.58h.74l4.29.02h30.65l40.07-.02q19.95.01 39.9-.05c13-.02 26-.02 38.98-.14q1.85 0 3.65-.05h.57c.43 0 .9 0 1.28-.04h.45c1.7 0 2.66 1.99 2.56 3.46-.1 1.66-1.28 3.08-3.01 3.08l-.21-.02q-.71-.06-1.43-.05h-.59c-1.47 0-2.96-.05-4.46-.05h-29.16c-13.33 0-26.68.08-40.04.1q-20-.01-40 .1c-12.8.04-25.62.06-38.45.16-1.76 0-3.54 0-5.24.05h-.69z"/><path fill="#243954" d="M216.25 449.4c-1.21-1.38-1.02-3.49.14-4.84q0 .02-.05.07l-.07.1a548 548 0 0 0 21.47-25.53c.76-1.12 1.47-2.42 2.9-2.59 1.65-.16 2.94 1.35 3 2.94.08.95-.3 2.1-.99 2.83-2.5 3.53-5.5 6.64-8.14 10.06-3.6 5.17-8.13 9.53-12.14 14.37-1.78 1.85-3.56 5.1-6.1 2.59zm82.35-8.57c-4.24-.78-2.15-7.02-2.84-10.1.14-4.11-.97-8.43.05-12.41 2.23-4.42 7.87.54 5.14 3.98q.16 6.68.5 13.36c.45 2.1-.19 5.22-2.87 5.17zm49.4-2.18c-2.44-5.86-5.05-11.74-8.6-17.01-2.23-4.72 4.76-8.52 5.5-2.4 3.4 5.48 6.14 11.46 8.47 17.46.85 3.9-4.37 5.96-5.46 1.6z"/><path fill="#243954" d="M353.2 450.13c-1.9-3.01-2.9-6.5-4.62-9.63-1.2-1.85-1.93-5 .44-6.21 1.71-.76 3.63.64 4.09 2.3 1.18 3.67 3.06 7.23 4.81 10.67 1.64 3.56-2.75 6.2-4.86 2.66zm20.97.95c-5.39-10.5-11.63-20.64-17.37-30.88-.92-2.38 1.45-5.13 3.84-3.7a3.3 3.3 0 0 1 1.74 2.68 94 94 0 0 1 6.47 11.33c3.23 5.46 6.62 10.82 9.42 16.52 1.1 1.52 1.76 3.98-.1 5.24-1.37.92-3.25.17-4.03-1.21zm-135.04 1.43c-4.7-2.25 4.58-15.92 5.58-19.9 1.61-4.13 3.63-8.07 5.34-12.12.59-1.45 1.06-3.02 2.37-3.97 3.34-2.3 5.67 2.68 3.2 5.03-4.1 9.5-8.75 18.84-12.38 28.52-.38 1.78-2.3 3.32-4.08 2.44zm24.82-13.72a3.4 3.4 0 0 1-.52-2.52c.92-5.45 2.94-10.67 4.2-16.06.14-1.87 1.8-3.91 3.84-3.32 1.66.5 2.23 2.51 1.7 4.03-1.08 4.1-2.44 8.14-3.53 12.27-.24 1.09-.52 2.18-.64 3.3.07 2.51-3.32 4.72-5.05 2.32zm16.95-3.63c.6-4.2 1.02-8.66.95-12.83-.45-2.42 1.07-5.82 3.98-4.84-.04 0-.1-.05-.12-.05l-.4-.1c1.88.22 2.61 2.38 2.16 3.99.07 4.7-.62 9.35-1.04 14.02-.24 4.3-6 4.44-5.5-.19zm33.31 1.94c-1.02-4.57-1.26-9.62-2.75-14.06-1.64-2.42.26-6.48 3.41-5.55 1.3.3 1.88 1.68 1.88 2.94 1.56 4.56 1.63 9.82 2.8 14.23 1.33 3.66-4.01 6.9-5.32 2.47z"/><path fill="#243954" d="M259.05 450.34c-.67-2.92 1.25-5.74 1.8-8.59.92-2.54.95-7.28 4.65-6.97 4.18 1.37 1 6.3.45 9.2-1.19 2.52-.78 6.15-3.23 7.8-1.4.79-3.13.13-3.67-1.44"/><path fill="#fff" d="M301.23 238.36c3.72 0 3.72 6.64 0 6.64s-3.72-6.65 0-6.65"/><path fill="#582e1c" d="m337.06 246.02.1.17-6.9.02c-.27-.33-.5-.69-.8-1.02a35 35 0 0 0-2.86-3.06c-1.3-1.21-2.7-2.3-3.99-3.2a47 47 0 0 0-5.38-3.14q-3.5-1.63-7.24-2.72a55 55 0 0 0-8.09-1.6c-2.96-.3-5.95-.37-8.82-.23q-4.45.32-8.78 1.33-3.65.9-7.07 2.32-2.97 1.29-5.72 2.97a39 39 0 0 0-4.15 2.99 38 38 0 0 0-3.56 3.46q-.92 1.07-1.7 2.14h-6.77a36 36 0 0 1 7.03-9.25 44 44 0 0 1 13.87-8.71 54 54 0 0 1 17.65-3.73 53 53 0 0 1 17.2 1.95c6.38 1.8 12.48 4.74 17.53 9.06a38 38 0 0 1 5.86 6.2 48 48 0 0 1 2.59 4z"/><path fill="#000" d="M160.02 258.46c-1.5-.8-1.97-2.82-1.37-4.34q.06-.2.16-.4l.07-.21.1-.22c4.34-11.12 8.58-22.27 12.86-33.42 2.1-5.5 4.24-11.03 6.33-16.56q1.6-4.21 3.23-8.42c.73-1.9 1.51-3.8 2.15-5.74.34-1.71 2.19-3.09 3.9-2.16 1.54.83 1.99 2.9 1.32 4.46q-.02.07-.07.14c-.95 2.11-1.7 4.34-2.54 6.5l-3.48 9.06q-3.48 9-6.88 18.03c-3.9 10.23-7.86 20.45-11.68 30.7l-.11.38-.2.45q-.02.1-.06.19a2.8 2.8 0 0 1-2.57 1.9q-.57 0-1.14-.29z"/><path fill="#000" d="M139.3 295.88c-9.7-15.94 5.03-41.5 22.63-43.63 2.97 1.21 2.35 5.46-.3 6.67-12.2 2.63-20.9 16.2-19.74 28.37.38 1.76 1.28 3.44 2.11 5 1.94 3.19-2.35 7.34-4.67 3.59z"/><path fill="#000" d="M135.24 323.56c-4.72-6.26-4.67-15.18-1.5-21.99 1.83-3.75 4.2-8.25 8.43-9.49 3.84.26 3.37 6.12.26 7.07-5.08 4.75-7.38 13.79-3.18 19.76 3.13 3.11-.85 8.95-3.96 4.68z"/><path fill="#000" d="M124.57 380.57c-2.7-16.27.66-32.8 5.95-48.2a60 60 0 0 1 4.58-10.25c.43-1.02 1.26-1.83 2.47-1.83 2.96.12 3.5 4.18 1.78 6.05-6.1 12.3-9.47 26.26-10.18 39.79-.24 4.5.1 9.3.9 13.5.55 4.05-4.81 5.36-5.5.97z"/><path fill="#000" d="M153.84 476.48c-21.28.12-35.75-24.05-42.16-41.82-6.66-16.9-7.85-40.45 7.78-52.74 2.78-1.78 10-6.67 11.04-1 .54 4.4-4.96 3.97-7.38 5.98-21.76 16.78-5.74 56.7 9.94 72.79 14.33 14.82 26.76 11.74 43.58 3.48 2.2-1.11 4.39-2.28 6.62-3.34 2.46-1.38 6.83-4.34 8.09-.05.42 1.68-.36 3.6-1.95 4.1-11.41 5.08-22.6 13.03-35.54 12.6zm37.71-4.98c-.1-1.63 1.54-2.98 3.1-2.98.44 0 .81.05 1.22.12q-.14-.02-.24-.07-.2-.01-.43-.05 1.08.09 2.14.07c1.26 0 2.54.03 3.34.03 12.74 0 25.48-.1 38.22-.12q19.65-.07 39.31-.17c13.12-.05 26.21-.14 39.36-.21q19.94-.14 39.9-.26c12.98-.1 25.95-.17 38.93-.31q4.24-.04 8.44-.12 1.86-.02 3.7-.07.16 2.78.34 5.55c-2.7 0-5.41-.05-8.1-.05h-1.53c-12.98 0-25.96.07-38.93.1-13.17.02-26.31.12-39.48.16q-19.58.08-39.14.2l-39.5.25c-12.81.1-25.62.17-38.43.29q-2.69.01-5.44.07c-.92 0-1.87 0-2.77.07-.12 0-.24.05-.36.05h-.19c-1.56 0-3.34-.8-3.44-2.59z"/><path fill="#000" d="M190.36 473.68c-5.91-1.94-5.91-7.64-5.27-12.8-.1-3.76 6.26-4.11 6.57-.36.12 2.42-1.28 5.67.62 7.56l-.05-.04-.1-.08.36.34-.14-.15q.1.13.26.24c1.8-.33 4.17.34 4.36 2.47.03 3.25-4.24 3.46-6.6 2.85zm218.06-.68c-3.25.4-4.46-4.87-1.66-6.27 1.11-.64 2.77.34 3.34-1.13a4.5 4.5 0 0 0 .43-2.42c-.62-2.57 2.44-5.03 4.5-2.9 3.19 4.63-.51 13.4-6.59 12.72z"/><path fill="#000" d="M444.26 479.8c-9.77.32-17.94-5.28-25.76-10.36-1.21-.85-2.19-2.01-3.37-2.9-1.28-.7-2.85-1.18-3.4-2.7-.94-2.08.2-5.29 2.8-4.86 2.35 1.12 4.4 2.96 6.34 4.74 2.58 1.78 5.74 3.7 8.18 5.2 8.26 5.38 18.8 5.72 27.76 2.02 6.9-2.95 12.29-8.26 16.2-14.57 6.07-8.02 9.73-17.2 11.58-26.93 3.18-14.82 4-34.65-10.6-43.48-4.68-2.23-1.12-9.3 3.32-5.08 19.97 13.57 15.84 42.42 9.34 62.37-6.9 18.08-21.06 37.39-42.41 36.56z"/><path fill="#000" d="M473.92 385.2c-1.55-.55-2.47-2.54-2.02-4.08.69-2.63.8-5.48.95-8.1.07-10.83-2.47-21.41-6.29-31.47-1.66-4.25-3.37-8.47-5.79-12.36-1.78-4.4 4.25-6.74 5.41-1.95 7.21 13.83 11.91 29.6 12.22 45.22-.5 3.2.66 14-4.48 12.74"/><path fill="#000" d="M462.85 329.28c-4.17-2.75.52-6.84 1.54-9.97 5.84-13 .76-28.94-12.92-34.16-2.35-1.23-2.35-5.24.2-6.21.86-.36 1.7-.1 2.33.42 3.75 1.52 6.84 4.32 9.68 7.14 8.05 7.71 10.1 19.76 7.45 30.3-.88 3.06-4 14.68-8.3 12.5z"/><path fill="#000" d="M451.99 284.16c-3.54-.76-2.28-5.4-1.88-7.66a17.4 17.4 0 0 0-4.7-14.8c-1.82-2.14-4.48-3.25-6.95-4.44-3.13-.55-6.76-1.26-5.48-5.39q-.15.45-.19.88c.14-1.54 1.35-3.1 3.11-2.77 1.5.64 3.13.8 4.65 1.42 10.87 4.08 17.15 16.37 14.88 27.59-.31 2.16-.38 5.6-3.44 5.2z"/><path fill="#000" d="m432.41 253.6.14.41a3 3 0 0 1-.26-.83l-.35-.97q-.52-1.44-1.02-2.9-1.46-4.05-2.9-8.11l-6.33-17.58c-3.54-9.8-7.02-19.6-10.56-29.2l-.21-.57c-.88-2.37-1.78-4.72-2.59-6.95-.5-1.47-.24-3.35 1.24-4.18 1.7-.95 3.41.43 3.96 2.04 1.61 4.8 3.34 9.56 5.07 14.33l6 16.6c3.9 10.75 7.74 21.52 11.65 32.15l.2.5q.18.46.32.92v.05l.08.2c.21.59.38 1.2.68 1.77l-.2-.4-.27-.36q.55.72.74 1.6c.26 1.46-.27 3.15-1.78 3.7q-.44.14-.83.14c-1.3 0-2.35-1.12-2.76-2.38z"/><path fill="#000" d="M186.25 191.67c-.98-.2-1.9-.8-2.3-1.73q-.25-.59-.17-1.21.05-.48.3-1a83 83 0 0 1 9.2-18.53 96 96 0 0 1 19.96-21.7 114 114 0 0 1 24.37-15c9.8-4.46 20.11-7.73 30.67-9.77a151 151 0 0 1 28.68-2.73 147 147 0 0 1 58.12 11.74c9.4 3.97 18.27 9.06 26.48 15.14a105 105 0 0 1 20.78 20.19q4.02 5.19 7.33 10.84a72 72 0 0 1 2.58 4.81l.9 1.8c.43.9.86 1.83.34 2.85a3.5 3.5 0 0 1-4.23 1.62 3.4 3.4 0 0 1-2.03-2q-.26-.51-.5-1.09a100 100 0 0 0-1.38-2.77 92 92 0 0 0-7.14-11.37l-.12-.14-.07-.1a98 98 0 0 0-8.87-10.22q-5.69-5.61-12.05-10.44a126 126 0 0 0-27.64-15.35 148 148 0 0 0-17.32-5.62 148 148 0 0 0-17.84-3.34 153 153 0 0 0-17.72-1.1q-8.84.06-17.6 1.1c-5.62.7-11.2 1.78-16.68 3.13a136 136 0 0 0-15.2 4.89 121 121 0 0 0-13.84 6.47 109 109 0 0 0-11.88 7.55A93 93 0 0 0 203 166.24a88 88 0 0 0-6.67 9.86 82 82 0 0 0-5.08 10.73l-.12.3v.05c-.26.67-.54 1.33-.73 2.02-.12 1.64-1.9 2.59-3.44 2.59q-.33.01-.62-.05z"/><defs><filter id="crests-blank-crest-filter0_d_24_738" width="430.98" height="405.83" x="90.01" y="103" color-interpolation-filters="sRGB" filterUnits="userSpaceOnUse"><feFlood flood-opacity="0" result="BackgroundImageFix"/><feColorMatrix in="SourceAlpha" result="hardAlpha" values="0 0 0 0 0 0 0 0 0 0 0 0 0 0 0 0 0 0 127 0"/><feOffset dx="12" dy="12"/><feComposite in2="hardAlpha" operator="out"/><feColorMatrix values="0 0 0 0 0 0 0 0 0 0 0 0 0 0 0 0 0 0 0.4 0"/><feBlend in2="BackgroundImageFix" result="effect1_dropShadow_24_738"/><feBlend in="SourceGraphic" in2="effect1_dropShadow_24_738" result="shape"/></filter></defs></svg>