<svg xmlns="http://www.w3.org/2000/svg" fill="none" viewBox="0 0 600 600"><g filter="url(#crests-blitzscale-filter0_d_23_8)"><mask id="crests-blitzscale-path-1-outside-1_23_8" width="358" height="461" x="118" y="68" fill="#000" maskUnits="userSpaceOnUse"><path fill="#fff" d="M118 68h358v461H118z"/><path d="M202.76 108.67c1.61-9.76 13.9-10.13 21.46-7.53a65 65 0 0 1 16.8 9.06l2.76-.44q.14-.01.23-.05a417 417 0 0 1 42.46-4.38c15.85-.8 31.82-.7 47.61.73.94.1 1.85.16 2.23.2 13.62 1.3 27.4 3.3 40.35 7.9a67 67 0 0 1 10.32 4.56c1.53.87 3.07 1.8 4.52 2.86l.54.91c0 .02.05.07.05.1 0-.03-.05-.05-.05-.08q.9 1.66 1.76 3.35v.05l.16.54q.15.48.28 1v.07l.1.45-.16.18.04.42.42 3.51q.31 2.86.5 5.71 0 .25.04.5v.09c.92 12.1 1.62 24.22 2.41 36.33.4 6.06.8 12.14 1.25 18.11l.42 5.67v.4l1.58.54q2.78.95 5.55 1.87l11.86 4 23.43 7.89c4.38 1.47 8.76 3.04 13.18 4.38 1.8.21 2.92 2.02 3.07 3.74 2.03 2.08.01 6.82-.38 9.43-2.94 12.2-8.02 23.69-11.18 35.81-.38 1.25-.81 2.5-1.19 3.77 4.02 3.94 5.36 10.93 1.98 15.63a10.2 10.2 0 0 1-1.43 9.97c.98 5.27-2.1 11.96-7.4 13.7-2.47.53-5.06.55-7.62.47-.13 1-.34 2-.52 2.93-1.03 4.54-2.32 9.04-3.54 13.55-1.54 4.24-1.61 9.4-4.47 12.95-2.62 2.57-6.58 3.72-10.37 3.72q-.56 0-1.1-.04c-1.33 2.59-3.43 5.15-5.94 6.47.33 2.11.53 4.25.73 6.37 0 1.07-.28 1.93-.72 2.58a10 10 0 0 1-2.48 3.61c-1.68 2.17-12.4 9.44-20.16 12.17.16 5.3-.25 10.7.27 16 2.83 2.06 2.27 6.06 2.43 9.15.19 4.85 0 9.72.1 14.56 8.4-1.15 21.79-5.76 26.35 4.26.45 1.26.98 3.08 1.22 4.94l.9-.03c4.4-.33 8.75.68 12.66 2.72 12.03 4.65 16.57 18.2 16.87 30.14.53 3-.7 15.27-3.68 22.03.7.61 1.4 1.23 1.94 2 3.02 3.85 4.05 15.84-.11 19.21l-.17.26a21 21 0 0 1-5.2 5.17 36 36 0 0 1-13.29 5.62 38 38 0 0 1-7.82.86q-2.38 0-4.73-.35v-.02q-1.43-.22-2.82-.66h-.04q-.57 0-1.07-.18l.02.02s-.05 0-.05-.02a3 3 0 0 1-.51-.24l-.3-.14c-2.44-1.07-5-1.99-7.47-2.95l-10.16-3.88q-11.15-4.24-22.29-8.45c-11.2-4.22-22.44-8.36-33.6-12.69q-3.27-1.25-6.58-2.43a3.5 3.5 0 0 1-1.95-1.78c-1.36-.95-2.37-2.73-3.25-4-5.9-7.92-3.02-20.82 6.62-24.21 1.33-8.42 4.94-17 10.9-23.23-.73-4.1-.1-8.6-.62-12.66-.19-3.38-.54-7.07-.84-10.47-.1-2.15-.17-4.89 1.89-6.2-.26-4.02-.26-8.04-.47-11.96l-.06-.53c-5.87.87-11.73 2.15-17.67 2.17h-.02c0 4.73.22 9.49.49 14.15q-.17.42-.3.84-.01.06-.05.1-.36.4-.68.81a74 74 0 0 0-2.41 3.16l-.19.28h-.06l-.25.4-.23.35c-3.94 4.22-7.9 8.55-12.27 12.13q-.53.18-1.03.19h-.06c-1.91.83-4.17 1.2-6.01 1.53-2.62 6.42-7.19 11.38-12.6 15.55 13.25 10.08 13.63 29.98 6.3 43.8 7.07 14.1-7.49 26.25-21.25 24.66h-.02c-34.09-1.66-61.64-28.16-72.31-59.43a97 97 0 0 1-3.98-15.03c-4.09.53-8.34 1.26-12.18.88l.02.02c-2.64-.74-4.66-2.76-6.46-4.77-.36-.42-.79-.9-1.16-1.43a4.6 4.6 0 0 1-1.29-3.26v-.08l.9-2.37-.76 1.35q-.06.5-.14.94v-.4c.1-1.12.05-2.27 0-3.4q-.08-2.8-.2-5.61-.26-6.06-.55-12.1-.52-11.94-1.12-23.88l-.73-14.67q0-.42-.04-.78c0-.44-.05-.91-.05-1.05-.23-4.28-.47-8.57-.66-12.31q-.25-5-.58-10-.06-.84.14-1.63c0-.84.26-1.67.84-2.34q.44-.48 1.05-.77 1.29-.96 2.53-2.03l4.17-3.4q3.91-3.22 7.81-6.48 2.13-1.76 4.28-3.47c-2.62-2.34-4.85-5.31-7.3-7.64h.03c-6.27-6.3-12.17-13-17.56-19.92-14.74-18.77-26.9-40.81-28.27-64.93a3.3 3.3 0 0 1-.3-2.07c.07-1.24.07-2.5.18-3.78v-.31h.03q.3-3.24.99-6.42a60 60 0 0 1 7.77-18.94 62 62 0 0 1 15.75-17.08c6.74-5.01 14.68-8.64 23.06-9.74 3.86-.51 7.81-.47 11.65.23l.33.07c-.86-9.7-2.08-19.43-1.94-29.14-16.74-7.56-8.24-29.7 9.88-28.54m191.29 312.27q-3.5.4-6.94 1.12a76 76 0 0 0 6.94-1.12m-222.49.34-.02.06.02-.14zm215.58-57q-2.12 1.03-4.28 2l.05.02q2.2-.94 4.23-2.02m27.93-29.83q-.12 0-.22.03l-.02.03zm3.77-5.9q-.51 1.45-.97 2.91a4 4 0 0 1-.66 1.52q-.56.84-1.43 1.23.86-.3 1.58-.75c.38-.71.88-2.52 1.48-4.9m15.8-40.32q.1.38.13.74l.32.06a1.6 1.6 0 0 0-.44-.8M193.9 218.5c-3.73 0-7.3 3.47-9.44 6.25-2.8 4.57-.86 10.23.54 14.94 3.68-4.73 7.89-9.25 13.16-12.18a27 27 0 0 0-1.71-8.42 6 6 0 0 0-2.55-.59m3.19-79.58.31-.01v-.02zm-32.66-52.04c3.84-1.78 8.31-2.13 12.48-1.7 3.13.32 6.22 1.05 9.2 2.07 2.15.75 4.3 1.64 6.27 2.77.57.32 1 .82 1.28 1.4 3.88 2.32 4.22 8.65.95 11.66-3.66 3.92-9.85 1.41-13.76 5q-.79.49-1.54 1.07c1.96 1.32 3.2 3.4 2.9 5.84-.34 3.68-4.37 5.62-5.98 8.5-3.94 6.58-6.86 16.01-16.5 14.1-9.04-.83-11.47-11.78-7.66-18.78a20 20 0 0 1 8.42-8.2c-5.42-4.18-7.5-11.88-2.61-17.7.55-.96 1.13-1.86 1.87-2.68a14 14 0 0 1 4.68-3.35m217.82 42.55s-.11-.11-.11-.14l-.1-.07zm-55.7-16.94a347 347 0 0 0-31.92-.48 409 409 0 0 0-33.86 2.41 462 462 0 0 1 40.12-2.22 457 457 0 0 1 25.67.29m-145.58-4.5q-.06.06-.07.05l-.07.05.02-.02zm-22.7-15.54q-.03 0-.06.05l-.3.37z"/></mask><path fill="#fff" d="M202.76 108.67c1.61-9.76 13.9-10.13 21.46-7.53a65 65 0 0 1 16.8 9.06l2.76-.44q.14-.01.23-.05a417 417 0 0 1 42.46-4.38c15.85-.8 31.82-.7 47.61.73.94.1 1.85.16 2.23.2 13.62 1.3 27.4 3.3 40.35 7.9a67 67 0 0 1 10.32 4.56c1.53.87 3.07 1.8 4.52 2.86l.54.91c0 .02.05.07.05.1 0-.03-.05-.05-.05-.08q.9 1.66 1.76 3.35v.05l.16.54q.15.48.28 1v.07l.1.45-.16.18.04.42.42 3.51q.31 2.86.5 5.71 0 .25.04.5v.09c.92 12.1 1.62 24.22 2.41 36.33.4 6.06.8 12.14 1.25 18.11l.42 5.67v.4l1.58.54q2.78.95 5.55 1.87l11.86 4 23.43 7.89c4.38 1.47 8.76 3.04 13.18 4.38 1.8.21 2.92 2.02 3.07 3.74 2.03 2.08.01 6.82-.38 9.43-2.94 12.2-8.02 23.69-11.18 35.81-.38 1.25-.81 2.5-1.19 3.77 4.02 3.94 5.36 10.93 1.98 15.63a10.2 10.2 0 0 1-1.43 9.97c.98 5.27-2.1 11.96-7.4 13.7-2.47.53-5.06.55-7.62.47-.13 1-.34 2-.52 2.93-1.03 4.54-2.32 9.04-3.54 13.55-1.54 4.24-1.61 9.4-4.47 12.95-2.62 2.57-6.58 3.72-10.37 3.72q-.56 0-1.1-.04c-1.33 2.59-3.43 5.15-5.94 6.47.33 2.11.53 4.25.73 6.37 0 1.07-.28 1.93-.72 2.58a10 10 0 0 1-2.48 3.61c-1.68 2.17-12.4 9.44-20.16 12.17.16 5.3-.25 10.7.27 16 2.83 2.06 2.27 6.06 2.43 9.15.19 4.85 0 9.72.1 14.56 8.4-1.15 21.79-5.76 26.35 4.26.45 1.26.98 3.08 1.22 4.94l.9-.03c4.4-.33 8.75.68 12.66 2.72 12.03 4.65 16.57 18.2 16.87 30.14.53 3-.7 15.27-3.68 22.03.7.61 1.4 1.23 1.94 2 3.02 3.85 4.05 15.84-.11 19.21l-.17.26a21 21 0 0 1-5.2 5.17 36 36 0 0 1-13.29 5.62 38 38 0 0 1-7.82.86q-2.38 0-4.73-.35v-.02q-1.43-.22-2.82-.66h-.04q-.57 0-1.07-.18l.02.02s-.05 0-.05-.02a3 3 0 0 1-.51-.24l-.3-.14c-2.44-1.07-5-1.99-7.47-2.95l-10.16-3.88q-11.15-4.24-22.29-8.45c-11.2-4.22-22.44-8.36-33.6-12.69q-3.27-1.25-6.58-2.43a3.5 3.5 0 0 1-1.95-1.78c-1.36-.95-2.37-2.73-3.25-4-5.9-7.92-3.02-20.82 6.62-24.21 1.33-8.42 4.94-17 10.9-23.23-.73-4.1-.1-8.6-.62-12.66-.19-3.38-.54-7.07-.84-10.47-.1-2.15-.17-4.89 1.89-6.2-.26-4.02-.26-8.04-.47-11.96l-.06-.53c-5.87.87-11.73 2.15-17.67 2.17h-.02c0 4.73.22 9.49.49 14.15q-.17.42-.3.84-.01.06-.05.1-.36.4-.68.81a74 74 0 0 0-2.41 3.16l-.19.28h-.06l-.25.4-.23.35c-3.94 4.22-7.9 8.55-12.27 12.13q-.53.18-1.03.19h-.06c-1.91.83-4.17 1.2-6.01 1.53-2.62 6.42-7.19 11.38-12.6 15.55 13.25 10.08 13.63 29.98 6.3 43.8 7.07 14.1-7.49 26.25-21.25 24.66h-.02c-34.09-1.66-61.64-28.16-72.31-59.43a97 97 0 0 1-3.98-15.03c-4.09.53-8.34 1.26-12.18.88l.02.02c-2.64-.74-4.66-2.76-6.46-4.77-.36-.42-.79-.9-1.16-1.43a4.6 4.6 0 0 1-1.29-3.26v-.08l.9-2.37-.76 1.35q-.06.5-.14.94v-.4c.1-1.12.05-2.27 0-3.4q-.08-2.8-.2-5.61-.26-6.06-.55-12.1-.52-11.94-1.12-23.88l-.73-14.67q0-.42-.04-.78c0-.44-.05-.91-.05-1.05-.23-4.28-.47-8.57-.66-12.31q-.25-5-.58-10-.06-.84.14-1.63c0-.84.26-1.67.84-2.34q.44-.48 1.05-.77 1.29-.96 2.53-2.03l4.17-3.4q3.91-3.22 7.81-6.48 2.13-1.76 4.28-3.47c-2.62-2.34-4.85-5.31-7.3-7.64h.03c-6.27-6.3-12.17-13-17.56-19.92-14.74-18.77-26.9-40.81-28.27-64.93a3.3 3.3 0 0 1-.3-2.07c.07-1.24.07-2.5.18-3.78v-.31h.03q.3-3.24.99-6.42a60 60 0 0 1 7.77-18.94 62 62 0 0 1 15.75-17.08c6.74-5.01 14.68-8.64 23.06-9.74 3.86-.51 7.81-.47 11.65.23l.33.07c-.86-9.7-2.08-19.43-1.94-29.14-16.74-7.56-8.24-29.7 9.88-28.54m191.29 312.27q-3.5.4-6.94 1.12a76 76 0 0 0 6.94-1.12m-222.49.34-.02.06.02-.14zm215.58-57q-2.12 1.03-4.28 2l.05.02q2.2-.94 4.23-2.02m27.93-29.83q-.12 0-.22.03l-.02.03zm3.77-5.9q-.51 1.45-.97 2.91a4 4 0 0 1-.66 1.52q-.56.84-1.43 1.23.86-.3 1.58-.75c.38-.71.88-2.52 1.48-4.9m15.8-40.32q.1.38.13.74l.32.06a1.6 1.6 0 0 0-.44-.8M193.9 218.5c-3.73 0-7.3 3.47-9.44 6.25-2.8 4.57-.86 10.23.54 14.94 3.68-4.73 7.89-9.25 13.16-12.18a27 27 0 0 0-1.71-8.42 6 6 0 0 0-2.55-.59m3.19-79.58.31-.01v-.02zm-32.66-52.04c3.84-1.78 8.31-2.13 12.48-1.7 3.13.32 6.22 1.05 9.2 2.07 2.15.75 4.3 1.64 6.27 2.77.57.32 1 .82 1.28 1.4 3.88 2.32 4.22 8.65.95 11.66-3.66 3.92-9.85 1.41-13.76 5q-.79.49-1.54 1.07c1.96 1.32 3.2 3.4 2.9 5.84-.34 3.68-4.37 5.62-5.98 8.5-3.94 6.58-6.86 16.01-16.5 14.1-9.04-.83-11.47-11.78-7.66-18.78a20 20 0 0 1 8.42-8.2c-5.42-4.18-7.5-11.88-2.61-17.7.55-.96 1.13-1.86 1.87-2.68a14 14 0 0 1 4.68-3.35m217.82 42.55s-.11-.11-.11-.14l-.1-.07zm-55.7-16.94a347 347 0 0 0-31.92-.48 409 409 0 0 0-33.86 2.41 462 462 0 0 1 40.12-2.22 457 457 0 0 1 25.67.29m-145.58-4.5q-.06.06-.07.05l-.07.05.02-.02zm-22.7-15.54q-.03 0-.06.05l-.3.37z"/><path fill="#fff" d="m202.76 108.67-1.1 16.97a17 17 0 0 0 17.87-14.2zm21.46-7.53 5.86-15.96-.34-.12zm16.8 9.06-10.27 13.55a17 17 0 0 0 13.1 3.22zm2.76-.44v-17a17 17 0 0 0-2.63.2zm.23-.05-2.62-16.8a17 17 0 0 0-2.75.67zm42.46-4.38-.85-16.98h-.04zm47.61.73 1.7-16.92-.17-.01zm2.23.2-2.11 16.88.5.05zm40.35 7.9 5.7-16.02h-.02zm10.32 4.56 8.41-14.77-.1-.06zm4.52 2.86 14.97-8.06a17 17 0 0 0-4.98-5.7zm.54.91h17c0-3.15-.87-6.23-2.52-8.91zm.05.1-17 .24a17 17 0 0 0 34-.49zm-.05-.08 15-7.98a17 17 0 0 0-32 7.98zm1.76 3.35h17a17 17 0 0 0-1.8-7.6zm0 .05h-17q0 2.09.5 4.12zm.16.54-16.5 4.12.15.55zm.28 1h17a17 17 0 0 0-.57-4.38zm0 .07h-17q0 1.41.23 2.8zm.1.45 13.41 10.44a17 17 0 0 0 3.35-13.24zm-.16.18-13.24-10.66a17 17 0 0 0-3.66 12.45zm.04.42-16.93 1.47.02.22zm.42 3.51 16.9-1.88-.02-.15zm.5 5.71h17q0-.63-.05-1.25zm.04.5h17q0-1.21-.17-2.41zm0 .09h-17q0 .63.05 1.28zm2.41 36.33 16.97-1.12zm1.25 18.11 16.95-1.22v-.04zm.42 5.67h17q0-.66-.06-1.32zm0 .32h-17q0 .95.1 1.88zm0 .08-16.89 1.9a17 17 0 0 0 11.4 14.18zm1.58.54-5.5 16.08zm5.55 1.87 5.43-16.11-.12-.04zm11.86 4-5.43 16.11h.03zm23.43 7.89 5.43-16.11h-.02zm13.18 4.38-4.9 16.27q1.41.44 2.9.6zm3.07 3.74L441 222.78a17 17 0 0 0 4.78 10.41zm-.38 9.43 16.53 4q.18-.75.29-1.5zm-11.18 35.81 16.27 4.92.18-.63zm-1.19 3.77-16.3-4.82a17 17 0 0 0 4.4 16.95zm1.98 15.63-13.8-9.92a17 17 0 0 0-2.03 16.14zm-1.43 9.97-13.24-10.66a17 17 0 0 0-3.47 13.78zm-7.4 13.7 3.6 16.6a17 17 0 0 0 1.7-.45zm-7.62.47.55-16.99a17 17 0 0 0-17.4 14.7zm-.52 2.93 16.57 3.76.1-.42zm-3.54 13.55 15.97 5.83q.25-.7.45-1.4zm-4.47 12.95 11.91 12.13q.72-.7 1.35-1.5zm-10.37 3.72v17zm-1.1-.04 1.02-16.96a17 17 0 0 0-16.14 9.18zm-5.94 6.47-7.92-15.04a17 17 0 0 0-8.88 17.68zm.73 6.37 17 .15q0-.87-.07-1.75zm-.72 2.58-14.12-9.46a17 17 0 0 0-2.05 4.2zm-2.48 3.61-12.02-12.02q-.76.76-1.42 1.62zm-20.16 12.17-5.65-16.03a17 17 0 0 0-11.35 16.56zm.27 16-16.92 1.66a17 17 0 0 0 6.92 12.09zm2.43 9.15 16.99-.65-.01-.25zm.1 14.56-17 .33a17 17 0 0 0 19.3 16.51zm26.35 4.26 16-5.76q-.24-.65-.53-1.29zm1.22 4.94-16.86 2.18a17 17 0 0 0 17.17 14.82zm.9-.03.98 16.97.27-.01zm12.66 2.72-7.86 15.07q.84.44 1.72.78zm16.87 30.14-17 .44q.04 1.28.26 2.53zm-3.68 22.03-15.55-6.86a17 17 0 0 0 4.33 19.62zm1.94 2-13.99 9.66q.3.45.63.85zm-.11 19.21-10.7-13.22a17 17 0 0 0-3.6 4.02zm-.17.26 14.07 9.54q.08-.1.13-.2zm-5.2 5.17 9.76 13.93.05-.04zm-13.29 5.62 3.51 16.63h.03zm-7.82.86v17zm-4.73-.35h-17a17 17 0 0 0 14.5 16.82zm0-.02h17a17 17 0 0 0-14.41-16.8zm-2.82-.66 5.18-16.19a17 17 0 0 0-5.34-.8zm-.04 0v17zm-1.07-.18 5.71-16.01a17 17 0 0 0-17.73 28.03zm.02.02-.17 17a17 17 0 0 0 12.2-29.02zm-.05-.02 17-.42a17 17 0 0 0-11.62-15.71zm-.42-.19 7.6-15.2a17 17 0 0 0-7.49-1.8zm-.1-.05 12.03-12.02a17 17 0 0 0-4.42-3.18zm-.3-.14 7.6-15.2q-.35-.19-.72-.34zm-7.46-2.95 6.13-15.85zm-10.16-3.88 6.06-15.88zm-22.29-8.45 6.02-15.9-.03-.02zm-33.6-12.69 6.14-15.85h-.01zM325 479.3l5.78-15.99q-.04 0-.08-.03zm-1.95-1.78 15.13-7.75a17 17 0 0 0-5.33-6.14zm-3.25-4 13.98-9.69-.35-.48zm6.62-24.21 5.65 16.03a17 17 0 0 0 11.15-13.39zm10.9-23.23 12.28 11.75a17 17 0 0 0 4.46-14.7zm-.62-12.66-16.97.94q.03.62.11 1.25zm-.84-10.47-16.99.74.05.78zm1.89-6.2 9.13 14.34a17 17 0 0 0 7.84-15.42zm-.47-11.96 16.98-.91q-.03-.63-.11-1.24zm-.06-.53 16.87-2.07a17 17 0 0 0-19.35-14.75zm-17.67 2.17v17h.06zm-.02 0-.75 16.99.75.01zm0 0 .74-16.98a17 17 0 0 0-17.74 16.98zm.49 14.15 15.7 6.54a17 17 0 0 0 1.27-7.54zm-.3.84-16.13-5.37a17 17 0 0 0-.87 5.33zm-.05.1-12.02-12.03q-.55.56-1.04 1.14zm-.68.81 13.16 10.77.44-.57zm-1.24 1.57-13.45-10.4zm-1.17 1.6 13.6 10.2.35-.5zm-.19.27-.7 16.99a17 17 0 0 0 14.3-6.79zm-.06 0 1.02-16.97a17 17 0 0 0-15.24 7.65zm-.25.4-14.57-8.75zm-.23.35 12.43 11.6q1.22-1.31 2.14-2.85zm-12.27 12.13 5.38 16.13a17 17 0 0 0 5.39-2.97zm-1.03.19v17zm-.06 0 .37-17c-2.47-.06-4.92.43-7.19 1.42zm-6.01 1.53-2.97-16.74a17 17 0 0 0-12.77 10.31zm-12.6 15.55-10.37-13.47a17 17 0 0 0 .08 27zm6.3 43.8-15.01-7.98a17 17 0 0 0-.19 15.58zm-21.25 24.66 1.95-16.89q-.97-.1-1.95-.1zm-.02 0-.83 16.98.83.02zm-72.31-59.43 16.09-5.49-.05-.13zm-3.98-15.03 16.74-2.97a17 17 0 0 0-18.92-13.89zm-12.18.88 1.66-16.92a17 17 0 0 0-13.68 28.94zm.02.02-4.63 16.36a17 17 0 0 0 16.66-28.38zm-6.46-4.77-12.84 11.13.18.2zm-1.16-1.43 13.77-9.95q-.63-.9-1.39-1.7zm-1.29-3.26 16.98.89.02-.89zm.9-2.46 15.87 6.08a17 17 0 0 0-30.77-14.27zm-.76 1.36L157 411.75a17 17 0 0 0-2.16 6.4zm-.14.54-16.94-1.41q-.06.7-.06 1.41zm0-3.4-16.99.64v.07zm-.2-5.61-17 .69.01.16zm-.55-12.1-16.98.75v.04zm-1.12-23.88-16.98.81v.04zm-.73-14.67h-17l.02.8zm-.04-.78h-17q0 .85.08 1.7zm-.05-1.05h17q0-.46-.03-.93zM168.2 347l-16.97.83v.02zm-.58-10-16.98.87.01.2zm.14-1.63 16.42 4.4q.56-2.1.57-4.25zm.84-2.34 12.8 11.18.1-.11zm1.05-.77 7.24 15.38q1.47-.68 2.78-1.65zm2.53-2.03-10.73-13.2-.15.14zm4.17-3.4-10.8-13.13-.07.05zm7.81-6.48-10.76-13.16-.1.08zm4.28-3.47 10.5 13.37a17 17 0 0 0 .83-26.05zm-7.3-7.64v-17a17 17 0 0 0-11.72 29.3zm.03 0v17a17 17 0 0 0 12.04-29zm-17.56-19.92 13.43-10.43-.06-.07zm-28.27-64.93 16.97-.97a17 17 0 0 0-1.73-6.56zm-.3-2.07 16.75 2.89a17 17 0 0 0 .23-1.96zm.18-3.78 16.94 1.42.06-1.14zm0-.17 17 .32v-.32zm0-.14v-17a17 17 0 0 0-17 17zm.03 0v17a17 17 0 0 0 16.93-15.5zm.99-6.42 16.62 3.57v-.03zm7.77-18.94 14.44 8.97zm15.75-17.08 10.12 13.66.02-.02zm23.06-9.74 2.2 16.86h.04zm11.65.23 3.08-16.72h-.02zm.33.07-3.19 16.7a17 17 0 0 0 20.13-18.2zm-1.94-29.14 17 .26a17 17 0 0 0-10-15.75zm201.18 283.73 3.63 16.61a17 17 0 0 0-5.67-33.49zm-6.94 1.12-3.5-16.64a17 17 0 0 0 5.59 33.5zm-215.57-.72L154.87 418a17 17 0 0 0 32.6 9.25zm138.68-19.67 12.18 11.85a17 17 0 0 0-24.06-24.02zm-1.72 1.7-12.04-12a17 17 0 0 0 23.8 24.27zm78.64-39.09 7.9 15.06a17 17 0 0 0-15.32-30.35zm-4.28 2-6.95-15.52a17 17 0 0 0 .76 31.35zm.05.02-6.4 15.74a17 17 0 0 0 13.1-.12zm32.16-31.86 4.66 16.35a17 17 0 0 0-7.96-33.02zm-.22.04-2.11-16.87a17 17 0 0 0-13.86 11.04zm-.02.03-15.93-5.94a17 17 0 0 0 20.25 22.38zm4.01-5.96 16.49 4.15a17 17 0 0 0-32.56-9.68zm-.97 2.91-16.27-4.94q-.2.66-.35 1.33zm-.66 1.52-13.93-9.75-.21.32zm-1.43 1.23-7.09-15.45a17 17 0 0 0 12.94 31.42zm1.58-.75 9 14.41a17 17 0 0 0 5.96-6.35zm17.29-45.23 11.76-12.27a17 17 0 0 0-28.22 16.52zm.12.74-16.95 1.26a17 17 0 0 0 13.85 15.46zm.32.06-2.95 16.74a17 17 0 0 0 19.45-20.82zm-241.2-70.54v-17zm-9.44 6.25-13.5-10.32q-.52.68-.97 1.41zm.54 14.94-16.29 4.86a17 17 0 0 0 29.71 5.57zm13.16-12.18 8.25 14.87a17 17 0 0 0 8.72-15.83zm-1.71-8.42 15.83-6.2a17 17 0 0 0-8.23-9zm.64-80.17-1.13-16.96a17 17 0 0 0 1.13 33.96zm.31-.01 1.21 16.95a17 17 0 0 0 15.76-17.91zm0-.02 16.97-.95a17 17 0 0 0-19.09-15.92zm-32.97-52-7.15-15.43-.04.02zm12.48-1.72 1.76-16.9-.05-.01zm9.2 2.08 5.58-16.05h-.02zm6.27 2.77-8.44 14.76h.03zm1.28 1.4-15.3 7.44a17 17 0 0 0 6.6 7.18zm.95 11.66-11.53-12.5q-.46.43-.88.89zm-15.3 6.07L169.02 95.6a17 17 0 0 0 .77 27.62zm2.9 5.84-16.87-2.03-.04.42zm-5.98 8.5 14.59 8.73.23-.41zm-16.5 14.1 3.31-16.68q-.88-.18-1.78-.26zm-7.66-18.78 14.93 8.14.13-.26zm8.42-8.2 8.08 14.96a17 17 0 0 0 2.3-28.41zm-2.61-17.7 13.01 10.94q.99-1.18 1.75-2.5zm1.87-2.68 12.62 11.39.1-.11zm222.5 39.2-12.02 12.02a17 17 0 0 0 24.07-24.02zm-.11-.14 16.98-.85a17 17 0 0 0-9.38-14.35zm11.92-12.09A17 17 0 1 0 370 141.23l12.02-12.02zm-67.5-4.71-.7 16.99a17 17 0 0 0 1.76-33.96zm-31.93-.48-.5-16.99h-.05zm-33.86 2.41-1.96-16.88a17 17 0 0 0 3.64 33.8zm40.12-2.22.2 17h.06zM180.96 108l12.02 12a17 17 0 0 0-20.96-26.48zm-.07.04-1.3-16.95a17 17 0 0 0-10.72 4.93zm-.07.05-11.53-12.5a17 17 0 0 0 11.67 29.5zm-22.56-15.64 12.23 11.82a17 17 0 0 0-12.42-28.82zm-.06.05-12.02-12.02q-.56.54-1.04 1.13zm-.3.37-13.28-10.6a17 17 0 0 0 26.25 21.6zm.08-.09 12.87 11.11q.3-.34.59-.72zm44.78 15.9 16.77 2.78a7 7 0 0 1-.73 2.05q-.68 1.22-1.61 2.07a6 6 0 0 1-1.9 1.2l-.15.05.1-.02.3-.02q.41-.03 1.02.01c.85.07 1.63.25 2.13.42l5.53-16.07 5.53-16.08c-6.14-2.11-14.4-3.2-22.37-1.34-8.7 2.04-19.14 8.54-21.4 22.18zm21.46-7.53-5.86 15.95a48 48 0 0 1 12.39 6.66l10.28-13.55 10.27-13.54a82 82 0 0 0-21.22-11.48zm16.8 9.06 2.83 16.77 2.56-.42-2.63-16.8-2.63-16.79-2.94.48zm2.76-.44v17c3.12 0 5.53-.9 5.6-.92l-5.37-16.13-5.37-16.13c-.06.02 2.2-.82 5.14-.82zm.23-.05 2.63 16.8a400 400 0 0 1 40.73-4.2l-.9-16.98-.9-16.97a434 434 0 0 0-44.18 4.55zm42.46-4.38.86 16.98a323 323 0 0 1 45.22.68l1.53-16.93 1.53-16.93a357 357 0 0 0-49.99-.78zm47.61.73-1.69 16.91 1.92.18-.11-.01 2.1-16.87 2.12-16.87-.86-.1-.63-.05-1.15-.1zm2.23.2-1.6 16.93c13.18 1.25 25.32 3.1 36.27 6.99l5.68-16.02 5.68-16.03c-14.93-5.29-30.37-7.46-44.43-8.79zm40.35 7.9-5.69 16.02c3 1.06 5.5 2.14 7.7 3.37l8.31-14.83 8.31-14.83a83 83 0 0 0-12.94-5.75zm10.32 4.56-8.4 14.78c1.27.72 2.21 1.3 2.94 1.84l9.98-13.76 9.99-13.76a66 66 0 0 0-6.1-3.87zm4.52 2.86-14.96 8.06c.43.81.89 1.54 1.02 1.76l14.48-8.91 14.48-8.91-.06-.1-.1-.15.02.03.09.16zm.54.91h-17a17 17 0 0 0 2.67 9.15l.2.3-.05-.06-.36-.57a16 16 0 0 1-1.39-2.91 18 18 0 0 1-.89-3.7q-.11-.85-.13-1.87l17-.25 17-.24a17 17 0 0 0-2.68-8.92l-.14-.22-.03-.05-.01-.01.04.06.13.2.24.4a16 16 0 0 1 1.41 2.98 17 17 0 0 1 .99 5.71zm.05.1 17-.25a17 17 0 0 0-4.95-11.75l-.02-.03v.01l.02.02.07.07a20 20 0 0 1 1.47 1.71 17 17 0 0 1 3.36 10.14h-34a17 17 0 0 0 4.57 11.61q.2.22.3.3l.09.1v.01l-.08-.08a14 14 0 0 1-1.43-1.66 17 17 0 0 1-2.91-6.15q-.44-1.69-.5-3.81zm-.05-.08-15 7.99 1.55 2.96 15.2-7.6 15.21-7.6c-.69-1.38-1.45-2.79-1.95-3.73zm1.76 3.35h-17v.05h34v-.05zm0 .05-16.5 4.12a21 21 0 0 0 .4 1.35l.04.14q0 .03 0 0l-.27-.95 16.49-4.12 16.5-4.13q-.18-.67-.3-1.04l-.1-.3-.04-.14.05.17.22.77zm.16.54-16.35 4.67c.1.35.16.53.2.71l16.43-4.38 16.43-4.38-.37-1.3zm.28 1h-17v.07h34v-.07zm0 .07-16.77 2.8.18.9.05.24.03.12q0 .02 0 0l-.03-.13q-.05-.18-.13-.69l16.76-2.8 16.77-2.79a19 19 0 0 0-.25-1.26q0-.02 0 0l.03.13.13.69zm.1.45-13.42-10.44.14-.18.06-.07h-.01q0 .03-.03.05l-.06.06-.08.1 13.24 10.66 13.24 10.67-.05.07v-.01l.03-.04q.1-.1.35-.44zm-.16.18-16.9 1.8v.1l16.94-1.48 16.94-1.47-.07-.74zm.04.42-16.91 1.7c.13 1.36.37 3.13.46 3.83l16.88-2.02 16.87-2.03c-.2-1.63-.28-2.2-.38-3.17zm.42 3.51-16.9 1.88c.18 1.53.3 3.13.44 5.09l16.96-1.26 16.95-1.25c-.13-1.84-.3-4.08-.55-6.34zm.5 5.71h-17c0 .88.06 1.6.1 2.06l.12.84 16.82-2.4 16.83-2.41.05.34c.03.3.08.86.08 1.57zm.04.5h-17v.09h34v-.1zm0 .09-16.95 1.28c.9 12 1.6 23.88 2.4 36.16l16.96-1.11 16.97-1.12c-.79-11.92-1.5-24.29-2.42-36.5zm2.41 36.33-16.96 1.1c.4 6.06.8 12.22 1.25 18.28l16.95-1.27 16.96-1.26q-.64-8.84-1.23-17.97zm1.25 18.11-16.96 1.23c.14 1.94.28 3.9.43 5.76l16.95-1.32 16.94-1.32-.4-5.57zm.42 5.67h-17v.32h34v-.32zm0 .32-16.9 1.88.02.15v.07-.12l16.88-1.9 16.9-1.9-.02-.14v-.06.03l.01.12zm0 .08-5.5 16.08 1.57.54 5.5-16.08 5.51-16.09-1.57-.54zm1.58.54-5.5 16.08c1.84.63 3.78 1.3 5.73 1.94l5.31-16.15 5.32-16.15c-1.74-.57-3.5-1.17-5.37-1.81zm5.55 1.87-5.44 16.1 5.94 2 5.93 2.01 5.43-16.1 5.44-16.12-5.94-2-5.93-2zm11.86 4-5.4 16.12 11.68 3.93 11.75 3.96 5.4-16.12 5.4-16.12-11.68-3.93-11.74-3.96zm23.43 7.89-5.43 16.11c3.97 1.34 8.93 3.1 13.7 4.54l4.91-16.27 4.91-16.28c-4.08-1.23-7.87-2.6-12.66-4.21zm13.18 4.38-2 16.88a14 14 0 0 1-9.41-5.33 12 12 0 0 1-2.45-6.34l16.93-1.47 16.94-1.47c-.51-5.92-4.93-17.6-18-19.15zm3.07 3.74-12.16 11.88c-2.92-3-3.69-6.3-3.87-7.94a10 10 0 0 1-.01-2.26v.03l-.02.07-.06.26-.24.96-.37 1.54a30 30 0 0 0-.46 2.38l16.81 2.5 16.82 2.52c-.06.36-.11.5.18-.65.19-.76.58-2.3.86-3.94.27-1.58.61-4.25.26-7.32a20.3 20.3 0 0 0-5.58-11.9zm-.38 9.43-16.52-4c-1.26 5.22-3.01 10.43-5.07 16.4-1.97 5.74-4.27 12.3-6.04 19.12l16.45 4.29 16.45 4.29c1.38-5.31 3.2-10.55 5.3-16.64a216 216 0 0 0 5.96-19.47zm-11.18 35.81-16.28-4.92-.5 1.58c-.2.63-.46 1.44-.71 2.3l16.3 4.8 16.3 4.82.47-1.49.69-2.17zm-1.19 3.77-11.9 12.13a3.6 3.6 0 0 1-1.16-2.14c-.1-.7-.1-2.42 1.23-4.28l13.8 9.92 13.81 9.92c9.28-12.9 4.82-29.15-3.87-37.68zm1.98 15.63-15.83 6.22a6.6 6.6 0 0 1-.41-3.37 7 7 0 0 1 1.57-3.54l13.24 10.66 13.24 10.66a27.2 27.2 0 0 0 4.01-26.84zm-1.43 9.97-16.71 3.12a5 5 0 0 1-.05-1.81q.07-.5.3-.91c.18-.36 1.15-2 3.77-2.86l5.3 16.15 5.28 16.16c7.92-2.6 13.07-8.44 15.88-13.9a30 30 0 0 0 2.94-19.07zm-7.4 13.7-3.6-16.62c-.34.07-1.2.17-3.47.1l-.55 17-.54 16.98c2.84.1 7.16.15 11.76-.85zm-7.62.47-16.84-2.28c-.05.35-.13.76-.35 1.88l16.67 3.33 16.67 3.34c.15-.77.48-2.34.7-3.98zm-.52 2.93-16.58-3.76c-.93 4.1-2.06 8.03-3.37 12.9l16.41 4.41 16.42 4.43c1.12-4.17 2.56-9.24 3.7-14.22zm-3.54 13.55-15.97-5.82c-.73 2-1.2 3.88-1.52 5.22l-.43 1.86-.31 1.33c-.43 1.72-.46.91.5-.28l13.26 10.64 13.26 10.64c3.82-4.76 5.25-9.92 5.96-12.72.28-1.15.74-3.19.85-3.64.21-.93.33-1.28.37-1.4zm-4.47 12.95-11.91-12.13a5 5 0 0 1 1.7-1.14c.15-.05.08-.01-.16-.01v34c6.66 0 15.5-1.94 22.28-8.6zm-10.37 3.72v-17q.03 0 0 0h-.08l-1.03 16.96-1.01 16.97q.97.07 2.12.07zm-1.1-.04-15.12-7.78c-.07.15-.14.23-.11.19q.04-.05.33-.3.3-.27 1.04-.68l7.92 15.04 7.92 15.04c6.63-3.48 10.84-9.27 13.13-13.72zm-5.94 6.47-16.8 2.64c.24 1.5.4 3.12.6 5.33l16.93-1.6 16.93-1.6c-.2-2.03-.44-4.69-.87-7.4zm.73 6.37-17-.14c.02-1.82.52-4.3 2.16-6.74l14.12 9.46 14.12 9.47a21.6 21.6 0 0 0 3.6-11.9zm-.72 2.58-16.17-5.25a11 11 0 0 1 1.23-2.59c.3-.44.49-.62.44-.57l12.02 12.02 12.02 12.02a26.4 26.4 0 0 0 6.63-10.37zm-2.48 3.61-13.44-10.4c.8-1.04 1.43-1.55 1.2-1.34q-.09.09-.78.61c-.9.69-2.24 1.61-3.84 2.62-3.4 2.14-6.79 3.89-8.95 4.65l5.65 16.03 5.65 16.04c5.6-1.97 11.43-5.22 15.76-7.94a95 95 0 0 0 6.23-4.27 32 32 0 0 0 5.96-5.6zm-20.16 12.17-17 .54c.07 2.2.02 4.28 0 7.34-.02 2.8 0 6.2.35 9.78l16.92-1.66 16.92-1.66c-.17-1.73-.2-3.67-.2-6.23.02-2.3.1-5.56 0-8.63zm.27 16-10 13.75a12 12 0 0 1-3.73-4.43 9 9 0 0 1-.88-2.73c-.04-.26-.02-.27 0 .41v1.2c.01.48.03 1.14.07 1.85l16.97-.9 16.98-.9c-.02-.37 0-.45-.03-1.84-.02-1-.06-2.71-.33-4.62-.55-3.84-2.36-10.67-9.05-15.54zm2.43 9.15-16.98.66c.07 2.02.08 4.13.06 6.54 0 2.3-.03 5 .02 7.69l17-.33 17-.33c-.05-2.16-.03-4.32-.02-6.87.02-2.44.02-5.2-.1-8.01zm.1 14.56 2.3 16.84c1.45-.2 2.9-.45 4.12-.68 1.35-.24 2.35-.44 3.51-.64 2.29-.4 3.78-.57 4.83-.58 1.1 0 .62.18-.53-.36a7.4 7.4 0 0 1-3.35-3.27l15.47-7.05 15.47-7.05a27 27 0 0 0-13.07-13.37c-5.2-2.46-10.41-2.93-14.29-2.9-3.91.04-7.63.61-10.36 1.09-3.37.58-4.67.89-6.4 1.13zm26.35 4.26-16 5.76a8 8 0 0 1 .36 1.36l16.86-2.18 16.86-2.18a42 42 0 0 0-2.08-8.52zm1.22 4.94.3 17c.33 0 .92-.02 1.58-.06l-.99-16.97-.99-16.97h.04-.25zm.9-.03 1.25 16.96c.97-.08 2.19.12 3.55.83l7.86-15.07 7.85-15.08a40.6 40.6 0 0 0-21.78-4.6zm12.66 2.72-6.14 15.85c1.15.45 2.45 1.41 3.7 3.97 1.35 2.75 2.21 6.58 2.32 10.76l17-.44 16.99-.43c-.36-14.01-5.79-37.07-27.74-45.57zm16.87 30.14-16.74 2.97c-.16-.91-.14-1.41-.14-1.13l-.03 1.04a52 52 0 0 1-1.37 9.24 20 20 0 0 1-.95 3.05l15.56 6.86 15.55 6.85c2.42-5.48 3.74-12.04 4.43-16.86.37-2.59.62-5.13.74-7.37.09-1.78.19-4.8-.3-7.6zm-3.68 22.03-11.22 12.76.32.29-.06-.07c-.16-.15-.6-.6-1.09-1.31l14-9.66 13.98-9.66c-1.92-2.78-4.25-4.72-4.7-5.12zm1.94 2-13.36 10.51a9 9 0 0 1-1.16-1.87q-.15-.38-.07-.12c.1.37.21 1.04.24 1.76.02.79-.08 1 .01.67.05-.2.23-.8.68-1.62s1.33-2.1 2.85-3.34l10.7 13.22 10.69 13.22c4.99-4.04 7.04-9.36 7.93-12.72.98-3.65 1.21-7.3 1.12-10.42a42 42 0 0 0-1.35-9.5 29 29 0 0 0-4.9-10.28zm-.11 19.21-14.3-9.2-.15.24-.04.06-.01.02v.01l.02-.04.11-.18 14.2 9.35 14.2 9.34.2-.3q.09-.12.1-.18l.02-.02h.01q0-.02 0 0l-.07.1zm-.17.26-14.07-9.54q.02 0-.22.24-.24.25-.7.58l9.8 13.89 9.8 13.89a38 38 0 0 0 9.46-9.52zm-5.2 5.17-9.74-13.93a19 19 0 0 1-7.09 2.92l3.54 16.63 3.54 16.62a53 53 0 0 0 19.5-8.31zm-13.29 5.62-3.5-16.64q-2.45.51-4.32.5v34a55 55 0 0 0 11.33-1.23zm-7.82.86v-17q-1.12 0-2.22-.16l-2.5 16.81-2.51 16.82q3.6.54 7.23.53zm-4.73-.35h17v-.02h-34v.02zm0-.02 2.59-16.8-.2-.04h-.03l-5.19 16.18-5.18 16.2q2.85.88 5.43 1.26zm-2.82-.66-.16-17-.48.01-.1.01h-.03.19l.23-.01h.31v34l.56-.01.15-.01h.06-.11l-.47.01zm-.04 0v-17c1.65 0 3.2.3 4.64.8l-5.71 16.02-5.72 16c2.1.75 4.4 1.18 6.8 1.18zm-1.07-.18-12.02 12.02.02.02 12.02-12.02L418 498.08l-.02-.02zm.02.02.18-17h.12l.47.02a16 16 0 0 1 3.43.51 16.96 16.96 0 0 1 12.75 16.03l-17 .42-17 .42a17 17 0 0 0 16.6 16.6h.27zm-.05-.02 5.38-16.13c.7.24 1.24.47 1.5.59l.3.14-7.6 15.21-7.6 15.2.73.36c.4.18 1.07.47 1.92.76zm-.42-.19.11-17a17 17 0 0 1 11.82 4.93l-12.02 12.02-12.02 12.02c1.7 1.7 3.41 2.7 4.47 3.22.54.27 3.47 1.78 7.53 1.81zm-.1-.05 7.6-15.2q-.38-.2-.58-.28l-.15-.07-.08-.04q-.02 0 0 0l.08.04.44.2-7.6 15.21-7.6 15.2.58.29.16.07.07.03q.02.01 0 0l-.07-.03q-.12-.04-.44-.21zm-.3-.14 6.88-15.54c-2.92-1.3-6.28-2.51-8.2-3.26l-6.14 15.85-6.13 15.86c3.03 1.17 4.78 1.78 6.72 2.64zm-7.46-2.95 6.12-15.86-10.21-3.9-6.07 15.88-6.07 15.88 10.1 3.86zm-10.16-3.88 6.06-15.88c-7.45-2.85-14.93-5.67-22.33-8.47l-6.01 15.9-6.02 15.9q11.15 4.2 22.24 8.43zm-22.29-8.45 5.99-15.92c-11.35-4.26-22.4-8.33-33.45-12.62l-6.15 15.85-6.14 15.85c11.27 4.37 22.7 8.59 33.77 12.75zm-33.6-12.69 6.13-15.85c-2.38-.93-4.76-1.78-6.93-2.57L325 479.3l-5.78 15.98c2.23.8 4.25 1.54 6.22 2.3zM325 479.3l5.7-16.02a13.5 13.5 0 0 1 7.48 6.5l-15.13 7.75-15.13 7.75a20.5 20.5 0 0 0 11.37 10.03zm-1.95-1.78 9.8-13.89a12 12 0 0 1 2.09 1.94l-.3-.44-.15-.24-.2-.3-.51-.75-13.98 9.67-13.98 9.68.51.76c.28.42.71 1.06 1.22 1.76a25 25 0 0 0 5.7 5.7zm-3.25-4 13.63-10.17c.25.34.3.6.31.63l.01-.05c0-.03-.03.16-.29.47-.3.35-.8.73-1.4.94l-5.64-16.03-5.64-16.04c-11.08 3.9-17.62 13.09-19.97 22.23-2.3 9-1.02 19.62 5.36 28.17zm6.62-24.21 16.8 2.64c.9-5.78 3.32-10.91 6.38-14.12l-12.28-11.75-12.29-11.75c-8.84 9.25-13.66 21.27-15.4 32.33zm10.9-23.23 16.74-2.96c-.07-.38-.13-1.13-.13-3.37 0-1.72.07-5.14-.37-8.53l-16.86 2.2-16.86 2.19c.09.68.1 1.53.1 4.1 0 2.06-.02 5.62.64 9.33zm-.62-12.66 16.97-.95c-.2-3.73-.6-7.8-.88-11.04l-16.93 1.52-16.94 1.52c.32 3.55.64 6.88.8 9.89zm-.84-10.47 16.98-.74c-.06-1.3.06-.5-.19.72a13 13 0 0 1-5.77 8.16l-9.13-14.34-9.13-14.34a21 21 0 0 0-9.28 13.72c-.7 3.47-.5 6.71-.47 7.56zm1.89-6.2 16.97-1.08c-.11-1.69-.17-3.43-.23-5.43-.05-1.92-.11-4.14-.23-6.36l-16.98.9-16.97.92c.09 1.7.14 3.45.2 5.53.06 2 .13 4.27.27 6.6zm-.47-11.96 16.87-2.15-.06-.45-16.87 2.07-16.87 2.07.02.2.05.4zm-.06-.53-2.48-16.82c-7.45 1.1-10.93 1.98-15.25 2l.06 17 .06 17c7.56-.03 15.8-1.73 20.09-2.36zm-17.67 2.17v-17h-.02v34h.02zm-.02 0 .74-16.98a17 17 0 0 1 3.78.6l.28.07.24.07.2.07.16.05.12.04.09.03.05.02h.02-.02l-.05-.02-.1-.03-.12-.04-.16-.05-.2-.07-.23-.07-.28-.08-.32-.08-.36-.09a14 14 0 0 0-1.89-.33 17 17 0 0 0-1.21-.1zl-.75 16.98a17 17 0 0 1-4.65-.86l-.12-.04-.1-.03-.05-.02h-.01.01l.06.02.08.03.13.04.16.05.2.07.51.15.32.08a20 20 0 0 0 2.25.42q.56.07 1.22.1zm0 0h-17c0 5.23.24 10.38.52 15.14l16.97-1 16.97-.99a223 223 0 0 1-.46-13.15zm.49 14.15-15.7-6.54c-.38.94-.66 1.8-.73 2l16.13 5.38 16.12 5.38.04-.13v.01l-.17.44zm-.3.84-17-.04c0-3.15.89-6.16 2.45-8.73 1.24-2.04 2.78-3.46 2.48-3.16l12.02 12.02 12.02 12.02c-.28.28 1.28-1.16 2.54-3.22a17 17 0 0 0 2.49-8.85zm-.05.1-13.06-10.89-.04.05a41 41 0 0 0-1.18 1.45l13.6 10.2 13.6 10.2-.3.38.04-.04.04-.05.05-.06.3-.36zm-.68.81-13.16-10.76c-.57.7-1.1 1.38-1.53 1.94l13.45 10.4 13.45 10.39.95-1.2zm-1.24 1.57-13.45-10.4a56 56 0 0 0-1.68 2.29l13.96 9.7 13.95 9.71.67-.9zm-1.17 1.6-13.6-10.2a19 19 0 0 0-.94 1.38q-.02 0 .03-.05a12 12 0 0 1 .72-1.06l13.6 10.2 13.6 10.2.19-.28zm-.19.27.7-16.98.89.06h-.02l-.1-.01-.5-.04-1.03 16.97-1.02 16.97-.47-.04h-.1l.29.02.65.04zm-.06 0-14.22-9.32c-.28.43-.51.82-.6.97l14.57 8.75 14.58 8.75q.04-.07.01-.03l-.12.2zm-.25.4-14.57-8.75q.29-.48.43-.67l.09-.14v-.01l-.06.1-.7 1.08 14.58 8.74 14.57 8.75q-.29.48-.43.68l-.09.13q-.02.03 0 .02 0-.03.06-.1a18 18 0 0 0 .7-1.08zm-.23.35-12.43-11.6c-4.21 4.52-7.3 7.87-10.6 10.57l10.76 13.16 10.77 13.16c5.45-4.47 10.27-9.77 13.93-13.69zm-12.27 12.13-5.37-16.13c.82-.27 2.33-.69 4.34-.69v34c2.67 0 4.88-.55 6.4-1.06zm-1.03.19v-17l1 .02.09.01h-.15q-.2-.03-.63-.03l-.37 17-.37 16.99q-.41 0-.6-.03h-.12l.34.02.81.01zm-.06 0-6.82-15.58c.37-.16.43-.14-.05-.03l-.84.18-1.27.22 2.97 16.74 2.96 16.74c1.27-.22 5.73-.9 9.87-2.7zm-6.01 1.53-15.74-6.43c-1.11 2.73-3.28 5.47-7.23 8.51l10.38 13.47 10.37 13.46c6.87-5.29 13.83-12.48 17.96-22.57zm-12.6 15.55-10.3 13.52c4.17 3.17 6.67 12.73 1.59 22.3l15.01 7.97 15.02 7.97c9.57-18.04 11.32-48.28-11.01-65.29zm6.3 43.8-15.2 7.6c.14.27.1.3.07.09q-.05-.34.02-.83c.13-.64.38-.77.11-.5a5.7 5.7 0 0 1-4.3 1.41l-1.95 16.9-1.95 16.88a39.7 39.7 0 0 0 32.57-11.48c8.87-9.11 13.01-23.36 5.83-37.7zm-21.25 24.66v-17h-.02v34h.02zm-.02 0 .82-16.98c-25.42-1.24-48.01-21.5-57.04-47.94l-16.09 5.5-16.09 5.48c12.32 36.1 44.83 68.84 87.57 70.92zm-72.31-59.43 16.04-5.62a80 80 0 0 1-3.28-12.38l-16.74 2.97-16.73 2.97c1.07 6.08 2.68 12 4.67 17.68zm-3.98-15.03-2.18-16.86c-5.33.7-6.97.96-8.34.82l-1.66 16.92-1.66 16.92c6.3.62 13.17-.57 16.03-.94zm-12.18.88-12.02 12.02.02.03 12.02-12.03 12.03-12.02-.03-.02zm.02.02 4.64-16.35a7 7 0 0 1 2.45 1.17l-.13-.12-.75-.81L174 426.05l-12.66 11.34c1.74 1.94 6.63 7.57 14.5 9.8zm-6.46-4.77 12.85-11.13q-.07-.1-.15-.17l-.1-.13-.13-.14q-.03-.03.01 0l.13.19-13.77 9.95-13.78 9.96c.91 1.27 1.9 2.37 2.1 2.6zm-1.16-1.43 12.38-11.64c1.8 1.9 3.53 5.07 3.3 9.27l-16.97-.89-16.97-.88a21.5 21.5 0 0 0 5.87 15.79zm-1.29-3.26h17v-.08h-34v.08zm0-.08 15.94 5.92.83-2.22-15.88-6.08-15.88-6.07-.94 2.53zm.9-2.37-14.9-8.2-.57 1.04 14.71 8.51 14.72 8.52.93-1.68zm-.76 1.35-16.87-2.1v.09l.01-.12 16.72 3.07 16.72 3.07q.2-1.14.3-1.9zm-.14.94h17v-.4h-34v.4zm0-.4 16.94 1.41c.2-2.35.09-4.56.05-5.51l-16.99.7-16.98.71.03 1.17q0 .33.01.1zm0-3.4 16.99-.63c-.06-1.56-.12-3.84-.22-5.83l-16.98.85-16.98.85c.1 1.75.12 3.22.2 5.4zm-.2-5.61 16.98-.7c-.17-4.07-.36-8.17-.55-12.2l-16.98.8-16.98.79.54 12zm-.55-12.1 16.99-.75q-.53-12-1.13-23.98l-16.98.85-16.98.85q.6 11.88 1.12 23.78zm-1.12-23.88 16.98-.81-.36-7.38-.37-7.3-16.98.82-16.98.8.37 7.39.36 7.3zm-.73-14.67h17c0-1.19-.1-2.16-.13-2.47l-16.91 1.7-16.92 1.69-.01-.17-.03-.75zm-.04-.78h17a25 25 0 0 0-.06-1.68l-.01-.2v-.06.15l.01.25.01.49h-34v.55l.02.32.02.35.01.16v.08-.41zm-.05-1.05 16.97-.93-.65-12.23-16.97.85-16.98.85c.19 3.79.42 8.11.66 12.39zM168.2 347l16.98-.84a590 590 0 0 0-.6-10.23L167.64 337l-16.97 1.08a694 694 0 0 1 .58 9.75zm-.58-10 16.98-.87c.02.44.06 1.83-.42 3.63l-16.42-4.39-16.43-4.39a22 22 0 0 0-.69 6.9zm.14-1.63 17 .15c-.03 2.46-.8 5.78-3.36 8.7l-12.8-11.19-12.8-11.18c-3.71 4.25-5 9.22-5.04 13.38zm.84-2.34 12.9 11.07a14 14 0 0 1-4.61 3.54l-7.24-15.38-7.24-15.38a20 20 0 0 0-6.72 5.09zm1.05-.77L179.68 346c1.44-1.04 2.82-2.23 3.4-2.7l-10.9-13.06-10.87-13.06c-1.12.92-1.37 1.14-1.67 1.36zm2.53-2.03 10.73 13.18c1.22-1 2.83-2.29 4.3-3.5l-10.86-13.08-10.87-13.08c-1.3 1.08-2.5 2.04-4.03 3.29zm4.17-3.4 10.79 13.14 7.88-6.54-10.86-13.08-10.86-13.08-7.75 6.43zm7.81-6.48 10.77 13.15c1.55-1.26 2.75-2.26 4-3.25l-10.49-13.37-10.5-13.37c-1.61 1.26-3.25 2.62-4.54 3.68zm4.28-3.47 11.33-12.68a34 34 0 0 1-2.4-2.5c-1-1.11-2.68-3.04-4.5-4.77l-11.72 12.31-11.73 12.3c.62.6 1.27 1.33 2.66 2.87a65 65 0 0 0 5.03 5.15zm-7.3-7.64v17h.03v-34h-.02zm.03 0 12.04-12a200 200 0 0 1-16.17-18.35l-13.43 10.43-13.42 10.43a234 234 0 0 0 18.94 21.49zm-17.56-19.92 13.37-10.5c-13.8-17.57-23.58-36.3-24.67-55.4l-16.97.97-16.97.97c1.66 29.13 16.19 54.5 31.88 74.46zm-28.27-64.93 15.24-7.53a13.7 13.7 0 0 1 1.22 8.35l-16.76-2.89-16.75-2.89a20.3 20.3 0 0 0 1.8 12.48zm-.3-2.07 16.98.93c.14-2.7.04-2.07.14-3.3l-16.94-1.4-16.94-1.42a56 56 0 0 0-.15 2.7l-.06 1.56zm.18-3.78 17 .28v-.22.09l-17-.32-17-.31v.27-.06zm0-.17h17v-.14h-34v.14zm0-.14v17h.03v-34h-.03zm.03 0 16.93 1.5q.18-2.03.68-4.34l-16.62-3.58-16.62-3.57a70 70 0 0 0-1.3 8.5zm.99-6.42 16.63 3.54a43 43 0 0 1 5.58-13.5l-14.44-8.97-14.45-8.97a77 77 0 0 0-9.95 24.37zm7.77-18.94 14.44 8.97a45 45 0 0 1 11.43-12.4l-10.12-13.65-10.12-13.66a79 79 0 0 0-20.08 21.78zm15.75-17.08 10.14 13.64c4.85-3.6 10.12-5.87 15.13-6.52l-2.21-16.86-2.22-16.86c-11.75 1.55-22.35 6.54-30.98 12.95zm23.06-9.74 2.24 16.85c2.25-.3 4.4-.25 6.36.1l3.05-16.72 3.06-16.72a54 54 0 0 0-16.96-.36zm11.65.23L191.4 183h-.01.03l.05.02.15.02 3.2-16.7 3.18-16.69-.03-.01h-.05l-.35-.07zm.33.07 16.94-1.5c-.94-10.56-2-18.84-1.88-27.38l-17-.26-17-.25c-.16 10.86 1.23 22.05 2 30.89zm-1.94-29.14 7-15.49c-.42-.19-.38-.25-.13 0s.57.67.8 1.25c.5 1.21.3 2.16.18 2.5-.11.32-.22.35-.16.3l.2-.08c.14-.03.42-.08.9-.05l1.1-16.97 1.08-16.96c-16.68-1.07-30.24 8.8-35.08 22.17a30.5 30.5 0 0 0 .31 21.95c3.1 7.61 9.14 13.41 16.8 16.88zm201.18 283.73L392 404.07c-2.66.32-5.48.74-8.4 1.35l3.5 16.64 3.5 16.63c1.68-.35 3.47-.63 5.47-.87zm-6.94 1.12 2.09 16.87c2.43-.3 5.4-.7 8.48-1.38l-3.63-16.6-3.64-16.61c-1.5.33-3.18.57-5.4.85zm-215.55-.78-15.93-5.92.01-.04-.01.03-.03.07 15.94 5.92 15.94 5.92-.02.04.01-.03.03-.07zm-.02.06 16.67 3.33.09-.47.03-.22v-.02.04l-.05.27-16.72-3.07-16.72-3.07-.06.34-.01.08v.01-.04l.02-.11.08-.4zm.02-.14h-17v.08h34v-.08zm138.66-19.53-11.88-12.17-1.88 1.87 12.04 12 12.04 12 1.55-1.54zm-1.72 1.7 11.76 12.27q1.03-.98 2.14-2.12l-12.18-11.85-12.19-11.86q-.56.59-1.29 1.28zm78.64-39.09-7.42-15.3q-1.88.92-3.8 1.78l6.94 15.52 6.95 15.51q2.38-1.07 4.75-2.21zm-4.28 2-6.19 15.83-.23-.1-.11-.04.02.01.15.06 6.41-15.74 6.41-15.75.13.05h.01-.01l-.4-.16zm.05.02 6.7 15.62a77 77 0 0 0 5.42-2.58l-7.89-15.06-7.89-15.06q-1.5.8-3.03 1.45zm32.16-31.86-3.3-16.67.27-.05q.25-.05.7-.1l2.1 16.86 2.12 16.87c.7-.09 1.27-.2 1.4-.23zm-.22.04-15.97-5.83a18 18 0 0 1 .6-1.45l.04-.08.02-.03-.01.02-.03.07a13 13 0 0 0-.6 1.4l15.94 5.93 15.93 5.93-.26.66-.2.46-.13.26-.03.06v.02l.01-.03.04-.08a14 14 0 0 0 .62-1.48zm-.02.03 4.32 16.44.58-.16-4.66-16.35-4.67-16.34h.02l.1-.04zm4.01-5.96-16.07-5.53c-.25.73-.76 2.14-1.17 3.5l16.27 4.94 16.26 4.94c.18-.58.37-1.12.79-2.32zm-.97 2.91-16.62-3.6c.31-1.43.94-3.05 2.03-4.62l13.93 9.74 13.93 9.75c1.75-2.5 2.8-5.16 3.34-7.66zm-.66 1.52-14.14-9.43a13.6 13.6 0 0 1 5.62-4.79l7.1 15.45 7.08 15.45a20.4 20.4 0 0 0 8.49-7.25zm-1.43 1.23 5.85 15.97a27 27 0 0 0 4.74-2.3l-9.01-14.43-9.01-14.41a9 9 0 0 1 1.59-.8zm1.58-.75 14.96 8.06a26 26 0 0 0 2-5.07c.35-1.19.7-2.51 1-3.75l-16.48-4.15-16.49-4.15-.64 2.42-.05.17a10 10 0 0 1 .73-1.6zm17.29-45.23-16.46 4.25q-.3-1.12-.37-2.25l16.95-1.26 16.95-1.26q-.14-1.88-.61-3.73zm.12.74-3.1 16.72.46.08 2.96-16.74 2.96-16.74-.18-.03zm.32.06 16.5-4.08a18.6 18.6 0 0 0-5.18-9l-11.76 12.28-11.76 12.28a15.4 15.4 0 0 1-4.3-7.4zm-241.2-70.54v-17c-7.04 0-12.42 3.17-15.49 5.46a39 39 0 0 0-7.45 7.47l13.5 10.32 13.5 10.33q.28-.37.57-.66l.22-.21c-.03.02-.4.3-1.11.6-.73.3-2.02.7-3.74.7zm-9.44 6.25-14.47-8.9c-4.15 6.73-4.28 13.62-3.72 18.35.53 4.37 1.93 8.64 2.44 10.35l16.3-4.86 16.28-4.87-.28-.93-.25-.84-.4-1.4c-.23-.86-.3-1.31-.33-1.52-.02-.2.04.13-.06.8a8 8 0 0 1-1.03 2.73zm.54 14.94 13.42 10.43c3.2-4.1 5.72-6.48 8-7.75l-8.26-14.86-8.26-14.86c-8.26 4.6-14.16 11.25-18.32 16.6zm13.16-12.18 16.97-.96a44 44 0 0 0-2.85-13.66l-15.83 6.2-15.83 6.2c.22.57.47 1.56.56 3.2zm-1.71-8.42 7.6-15.2a23 23 0 0 0-10.15-2.39v34c-1.41 0-3.21-.28-5.05-1.2zm.64-80.17v17c.67 0 1.22-.03 1.52-.06l-1.21-16.95-1.21-16.96c.1 0 .44-.03.9-.03zm.31-.01 16.97-.96v.11l.01.03v-.15l-16.98.95-16.97.94-.01-.1v-.03.16zm0-.02L195.27 122l.13-.02.55-.04 1.13 16.96 1.13 16.96c.65-.04 1.2-.11 1.3-.13zm-32.97-52 7.15 15.42c.03-.02.34-.15 1.02-.23q1.03-.14 2.6 0l1.7-16.9 1.72-16.92c-6.05-.61-13.84-.28-21.34 3.2zm12.48-1.72-1.77 16.91q2.58.27 5.4 1.24l5.57-16.07 5.56-16.06a58 58 0 0 0-13-2.93zm9.2 2.08-5.59 16.06a21 21 0 0 1 3.43 1.47L192.37 90l8.43-14.76a54 54 0 0 0-9.12-4.06zm6.27 2.77-8.41 14.77a14 14 0 0 1-5.6-5.93l15.28-7.43 15.3-7.43a20 20 0 0 0-8.16-8.76zm1.28 1.4-8.7 14.62a10.1 10.1 0 0 1-5.1-7.82 9.5 9.5 0 0 1 3.22-7.63l11.53 12.49 11.54 12.49c6.17-5.7 8.08-13.5 7.62-19.8-.46-6.37-3.6-14.3-11.42-18.95zm.95 11.66L182.2 91.46a10 10 0 0 1 4.06-2.64c.58-.19.86-.17-.53 0-.86.11-3.5.39-6.14 1.12a25 25 0 0 0-10.23 5.59l11.49 12.53 11.48 12.54a9 9 0 0 1-3.66 2.1c-.27.08-.4.07 1.25-.14 1.78-.22 10.52-.82 17.11-7.88zm-13.76 5-9.09-14.38c-1.1.7-2.04 1.39-2.73 1.92l10.28 13.53 10.3 13.53.3-.22q.08-.06.02-.02zm-1.54 1.07-9.5 14.09a10 10 0 0 1-3.26-3.7 11.3 11.3 0 0 1-1.2-6.58l16.87 2.03 16.88 2.04c1.22-10.15-4.28-17.93-10.27-21.97zm2.9 5.84-16.91-1.61c.2-2.14.95-3.77 1.53-4.74.5-.83.92-1.2.6-.87l-.67.68c-.31.3-.8.8-1.31 1.33a27 27 0 0 0-4.05 5.4l14.83 8.31 14.82 8.32c-.6 1.08-1.16 1.61-.9 1.34l.58-.59 1.23-1.25c1.66-1.73 6.42-6.75 7.18-14.7zm-5.98 8.5-14.6-8.72a93 93 0 0 0-1.82 3.24l-1.36 2.54a17 17 0 0 1-1.44 2.35c-.1.11.59-.76 2.17-1.44.8-.34 1.63-.53 2.4-.6a5 5 0 0 1 1.46.05l-3.31 16.67-3.32 16.68c5.36 1.06 10.87.7 16.04-1.5a28.4 28.4 0 0 0 10.78-8.21 49 49 0 0 0 5.01-7.62c1.4-2.55 1.78-3.38 2.58-4.71zm-16.5 14.1 1.53-16.94c1.25.11 2.78.68 4.08 1.81a6 6 0 0 1 1.84 2.59c.17.5.16.8.15.93-.01.12-.05.45-.33.97l-14.93-8.14-14.93-8.14a32 32 0 0 0-2.16 25.3c2.98 8.8 10.74 17.41 23.21 18.54zm-7.66-18.78 15.06 7.88.01-.02.04-.05q.05-.08.22-.23.32-.34 1.17-.82l-8.08-14.96-8.08-14.96a37 37 0 0 0-15.4 15.28zm8.42-8.2 10.39-13.45c.34.26.92.87 1.15 2.13a5.8 5.8 0 0 1-1.14 4.56l-13-10.94-13.01-10.94c-12.65 15.04-5.82 33.57 5.23 42.1zm-2.61-17.7 14.76 8.44.14-.24q-.06.1-.4.5l-12.63-11.38-12.62-11.4a32 32 0 0 0-4.01 5.65zm1.87-2.68 12.72 11.28c-.35.4-.65.63-.8.74q-.25.14-.05.04l-7.19-15.4-7.19-15.41a31 31 0 0 0-10.2 7.47zm222.5 39.2 12.05-12 .52.56a16 16 0 0 1 3.05 4.86 17 17 0 0 1 1.25 5.59l-16.98.85-16.98.86a17 17 0 0 0 3.47 9.48c.43.56.8.98.93 1.12.3.34.57.6.65.68zm-.11-.14 7.6-15.2a17 17 0 0 1 4.3 3.09l.02.02-12.02 12.02L370 141.23c.38.38 1.97 1.98 4.51 3.26zm-.1-.07L370 141.23l.21.21 12.02-12.02 12.02-12.02-.2-.2zm-55.48-16.73 1.06-16.97c-11.2-.7-22.4-.82-33.49-.5l.5 17 .5 16.99c10.18-.3 20.32-.19 30.36.45zm-31.93-.48-.55-16.99a427 427 0 0 0-35.27 2.52l1.96 16.88 1.95 16.9a393 393 0 0 1 32.46-2.31zm-33.86 2.41 1.68 16.92a446 446 0 0 1 38.65-2.14l-.21-17-.21-17c-13.8.18-27.74.93-41.6 2.3zm40.12-2.22.26 17a442 442 0 0 1 24.72.28l.69-16.99.7-16.99c-8.93-.36-17.82-.43-26.63-.3zM180.96 108l-12.02-12.03a17 17 0 0 1 10.65-4.88l1.3 16.95 1.3 16.95a17 17 0 0 0 10.79-4.98zm-.07.04-12.02-12.02.03-.03.07-.07.3-.3a16.8 16.8 0 0 1 11.4-4.53l.15 17 .14 17a17 17 0 0 0 11.83-4.9l.12-.13zm-.07.05 11.52 12.5.1-.1.1-.09.01-.01-.02.02-.04.04-.07.06-.1.1-11.48-12.54-11.49-12.53-.18.16-.05.05-.02.02.04-.04.16-.14zm.02-.02 9.08 14.37.03-.02.02-.01h.01-.02l-.06.04-8.94-14.46-8.94-14.46-.26.16v.01zm-22.58-15.62-.2-17a17 17 0 0 0-10.13 3.5c-1.12.85-2.02 1.79-1.75 1.53L158.2 92.5l12.02 12.02c.28-.29-.6.63-1.69 1.47-.93.7-4.55 3.4-10.07 3.46zm-.06.05-13.06-10.9-.61.77-.04.05q0 .02 0 0l.13-.16 13.29 10.6 13.3 10.6.26-.36.07-.09.02-.02.01-.01-.01.02-.06.07-.25.3zm-.3.37 12.97 11 .03-.03.01-.03h.01v-.01l-.01.02-.06.07-12.87-11.1-12.87-11.12-.17.2zm.08-.09 13.46 10.4q-.38.5-.95 1.09l-12.23-11.82-12.22-11.81q-.87.91-1.52 1.75z" mask="url(#crests-blitzscale-path-1-outside-1_23_8)"/></g><path fill="#d09b66" d="M360.76 426.5c-13.14-4.2-10.35-22.12-11.75-33.03-.73-12.45-2.11-24.98-2-37.38.94-11.24 15.78-14.19 24.16-9.06 13.5 8.1 10.49 30.8 11.5 44.57-.87 10.01 2.71 26.61-8.17 31.8-4.29 2.1-8.85 4.5-13.77 3.1zm-100.79 9.59c-5.92-.2-12.1-1.67-16.8-5.44-5.55-4.42-7.24-13.52-2.3-19 5.74-6.06 14.91-8.33 21.42-13.16a46.6 46.6 0 0 0 18-25.77c1.54-6.55 1.85-13.36 1.75-20.08-.09-4.26-.04-8.8 2.34-12.5 2.49-4.45 7.61-6.11 12.41-6.5 5.22-.6 9.83 2.43 13.67 5.61q.2-.04.4-.05.9 1.42 1.87 2.76l1.1 1.5 2.2 3.6q.52.9 1.08 1.74c.16 2.41.04 4.9.54 7.23 1.61 24.72-8.12 50.42-26.69 67-7.93 7.11-17.34 13.17-28.18 13.17q-1.37 0-2.78-.14z"/><path fill="#fff" d="M377.75 424.93a3.6 3.6 0 0 1-2.88-2.48c-1.12-3.12 1.54-5.88 4.4-6.7-.6-5.7-.98-11.42-1.43-17.13q1.54-.42 3.1-.92 1.7-.56 3.38-1.28 0 .45.03.91.09 3.56.28 7.07.43 7.9.91 15.75l.07 1.38a6.6 6.6 0 0 1-3.32 1.67c-1.52.3-2.67 1.73-4.21 1.73z"/><path fill="#fff" d="M362.67 445.87c-10.7-3.8-12.85-16.38-13.62-26.36-.14-6.3-.84-12.61-1.05-18.93 2.64.72 5.33 1.03 8.1 1.1l1.8.02c2.15 0 4.28-.12 6.41-.5 1.52-.25 3.1-.55 4.57-.95l1.7-.47q2.4-.24 4.73-.63a41 41 0 0 0 8.71-2.65q.19.6.33 1.25.1 3.33.26 6.62.43 7.89.91 15.75.2 3.51.28 7.02c0 1.34.05 2.65.05 3.98v5.01-.16 1.59a19.6 19.6 0 0 1-16.6 9.64c-2.22 0-4.45-.44-6.55-1.38zm-112.25-10.15c-11.91-2.71-17.13-17.43-7.58-25.95 4.63-4.7 10.67-7.61 16.03-11.36 2.55-2.01 5.22-3.93 7.23-6.48.7-.84 1.38-1.8 2.46-2.15q.35-.78.87-1.27c.93 1.08 1.92 2.1 2.88 3.1a85 85 0 0 0 4.47 4.23c2.57 6.01 6.53 11.56 12.26 14.84 16.97 3.65 4.59 12.78-3.2 18.72-7.45 5.1-16.32 7.19-25.24 7.19q-5.14 0-10.18-.87m169.44-143.1c-1.66-2.2-.51-4.92.68-7.03 1.1-2.24 2.18-4.5 3.56-6.57-.7-5.04 4.8-10.94 9.01-5.88 1.69 1.62.98 3.9 1.15 5.9-.24 2.78-1.85 7.2-4.85 8.05-.98 2.2-1.9 5.24-4.5 5.9-1.44 1.38-3.93 1.36-5.05-.37"/><path fill="#575757" d="M438.77 500.05s-.05.03-.05.05c0 0 .05-.02.05-.05m-.04 0-.05.03z"/><path fill="#787878" d="M395.86 499.7c-11.2-4.4-22.57-8.47-33.45-13.6-6.35-2.83-12.69-5.83-19.4-7.7-4.83-1.94-10.82-2.55-13.96-7.19-3.63-5.05-1.85-13.62 4.12-15.98 2.08-.87 5.38-1.18 6.53 1.24 24.49 9.26 48.62 20.17 74.46 25.2 5.97 1.18 11.96 2.44 18 3.24 3.89.49 8.5.09 11.24 3.41a7.3 7.3 0 0 1 1.61 6.02q-.21.27-.47.54a56 56 0 0 1-3.98 3.81q-.88.7-1.82 1.34l-.05.04-.05.03a53 53 0 0 1-5.66 3.02q-1.55.63-3.09 1.21-1.44.58-2.93 1.06-.75.22-1.54.37.08 0 .14-.02-.71.1-1.43.14c-1.52 0-3.04-.17-4.59-.05q-1.81.16-3.67.38c-6.88-1.4-13.5-4-20.06-6.49zm24.01-8.43.42-.2-3.16-.64z"/><path fill="#575757" d="m429.95 506.83-.43.2q-.05.01-.11.05h-.24q.4-.13.75-.28zm10.91-10.68c-1.85-2.16-1.43-6.93-3.2-9.6q-.45-.83-1-1.55c-2.03-1.29-2.17-4.77-.3-6.34 3.91-2.9 7.1 3.44 8.31 6.39 1.9 3.67 1.74 11.45-3.84 11.1z"/><path fill="#787878" d="M268.16 498.27a78 78 0 0 1-44.97-25.56 90 90 0 0 1-14.58-26.52c-2.6-7.26-5.57-14.66-5.57-22.5.35-7.93 3.9-21.06 13.88-20.25 3.68.33 6.25 7.2 1.08 6.89-.47 4.12-2.95 8.05-2.72 12.36-.35 10.34 3.44 19.54 8.71 28.13 6.27 13.32 17.81 21.84 30.29 28.77a51 51 0 0 0 25.68 6.04c2.88.33 4.3-1.57 5.9-3.58 2.8-2.6 6.27.72 6.15 3.88-.33 11.05-14.84 14.91-23.83 12.38z"/><path fill="#b9b9b9" d="M444.89 449.51c2.85 11.43 2.43 25.21-5.8 34.37-5.79 5.96-9.74 8.89-18.4 7.86-11.43-.21-22.69-3.7-33.15-7.84-16.34-5.8-32.84-11.73-48.4-19.27-1.5-1.28-1.74-3.55-.99-5.24-1.8-1.99-.77-6-.56-8.57a36 36 0 0 1 8.66-20.17c2.13-2.6 8.87-8.73 12.13-6a4.4 4.4 0 0 1 1.14 4.52c2.74 4.57 6.93 9.18 12.5 9.34 1.76 0 3.84-.84 5.46-.28l-.22-.73c-.49-4.33-2.06-10.57 2.44-13.13 7.23-2.2 14.91-1.92 22.24-3.88 4.68-.92 9.34-1.5 10.5 4.33.62 1.54.66 3.04.33 4.26 3.14-.35 6.37-.21 9.53.28 10.88 1.03 19.85 9.85 22.59 20.13zm-162.17-11.72c12.92 5.94 17.95 23.31 12 36.89a44 44 0 0 1-5.87 10.46c-1.73 3-4.73 4.63-8.2 3.96-7.67-.78-14.74-3.61-21.67-6.84-5.83-1.73-11.07-4.96-16.38-7.84-12.57-7.56-21.05-20.53-25.92-34.1-2.67-7.07-4.23-14.63-3.09-22.2.54-3.02.54-6.88 3.51-8.61q.32-.12.59-.16c3.58-3.5 12.13-5.15 15.8-5.53 1.87-.25 3.8-.33 5.66-.3q.5.04.9.19c4.04-1.25 7.86 6.39 8.87 9.66 3.88 10.23-8.48 5.76-6.11 13.74 1.63 2.53 4.4 4.2 7.11 5.39q.76.16 1.55.42.5-1.05.86-2c.92-3.3 3.14-5.91 6.84-5.28 5.9.3 11.75 1.54 17.72 1.38 2.83-.1 6.7.23 7.14 3.72.28 2.15-.54 4.28-1.15 6.32l-.19.75zm175.81-213.95a4.8 4.8 0 0 1 .8 4.56c-2.46 7.12-5.01 14.21-7.5 21.35-2.76 7.91-5.45 15.85-8.16 23.76q-7.84 22.75-15.62 45.53-1.46 4.24-2.88 8.52c-.42 1.28-.9 2.6-1.3 3.9a4 4 0 0 1-.66 1.53 3.4 3.4 0 0 1-2.37 1.5c-.63 1.73-2.38 3.04-4.28 2.38h-.02s-.17-.04-.26-.1c-3.42-1.16-6.9-2.24-10.35-3.36q-5.97-1.94-11.94-3.84-11.37-3.6-22.75-7.16l-16.73-5.27-6.9-2.15c-1.27-.4-2.56-.85-3.85-1.2q.25-.01.5.05.13 0 .25-.05c-1.75.12-3.11-1.17-3.6-2.8a4.8 4.8 0 0 1-.8-4.57c2.46-7.12 5.01-14.2 7.5-21.35q4.11-11.87 8.16-23.76 7.84-22.74 15.61-45.52c.96-2.84 1.95-5.67 2.88-8.52.45-1.3.92-2.6 1.31-3.91q.17-.82.66-1.52a3.5 3.5 0 0 1 2.36-1.53c.64-1.73 2.4-3.04 4.29-2.38h.02s.16.07.26.09c3.41 1.17 6.9 2.25 10.34 3.37q5.97 1.94 11.94 3.84 11.38 3.6 22.75 7.16l16.74 5.27 6.9 2.15c1.43.45 2.84.94 4.29 1.31l-.42-.11q-.25-.01-.5-.05c-.09 0-.16.05-.25.05 1.78-.12 3.13 1.17 3.6 2.8z"/><path fill="#b9b9b9" d="M446.53 232.17a4.8 4.8 0 0 1 .8 4.56c-2.46 7.12-5.01 14.2-7.5 21.35-2.75 7.91-5.44 15.85-8.16 23.76q-7.84 22.75-15.61 45.52c-.96 2.84-1.95 5.67-2.88 8.52-.42 1.3-.92 2.6-1.31 3.91a4 4 0 0 1-.66 1.52 3.4 3.4 0 0 1-2.36 1.5c-.63 1.74-2.39 3.05-4.29 2.4h-.02l-.26-.1c-3.41-1.17-6.9-2.25-10.34-3.37q-5.97-1.95-11.94-3.84-11.37-3.6-22.75-7.16l-16.74-5.27-6.9-2.16c-1.27-.4-2.56-.84-3.84-1.19q.25-.01.49.05c.1 0 .16-.03.26-.05-1.76.12-3.12-1.17-3.6-2.8a4.8 4.8 0 0 1-.8-4.57c2.45-7.12 5-14.21 7.49-21.35 2.76-7.91 5.45-15.85 8.16-23.76q7.85-22.74 15.62-45.52 1.45-4.25 2.88-8.53c.44-1.28.91-2.6 1.3-3.9q.19-.82.66-1.53a3.5 3.5 0 0 1 2.37-1.52c.63-1.73 2.38-3.04 4.28-2.38h.02l.26.09c3.42 1.17 6.9 2.25 10.35 3.37l11.94 3.84q11.37 3.59 22.75 7.16l16.73 5.27q3.47 1.07 6.9 2.15c1.44.45 2.84.94 4.3 1.31l-.43-.12q-.25 0-.49-.04l-.26.04c1.78-.11 3.14 1.17 3.6 2.81z"/><path fill="#fff" d="M428.1 303.3c-7.32-1.9-8.3-9.9-.79-12.29-1.57-2.78-.26-6.53 1.9-8.63q.25-.26.54-.47c-5.2-3.51-1.57-11.7 4.26-11.56a29 29 0 0 1 12.59 3.39c1.78 1.5 1.5 4.61 0 6.18a5 5 0 0 1-.07 5.71c-2.27 2.62-6.37 2.2-9.53 2.41q2.4.76 4.87 1.13c4.33.44 3.86 7.48-.12 8.19 2.44 1.61 1.97 5.78-.46 7.2-4.15 2.02-9.06-.04-13.18-1.26"/><path fill="#fff" d="M427.17 293.13c-4.73-1.69-5.85-9.09-1.03-11.36 2.95-1.07 9.2-.75 9.6 3.28 6.57-.26 6.71 8.38.44 8.38-1.08-.14-2.18-.3-3.23-.58-1.66 1.3-3.9.81-5.78.28m17.44-8.04a3.4 3.4 0 0 1-1.82-2.25q-.16-.56-.19-1.15c-5.1-.26-4.26-8.3.51-8.45 3.84-.42 6.7 3.07 6.72 6.72.28 2.76-2.24 6.3-5.22 5.13"/><path fill="#fff" d="M441.62 293.23c-1.34-1.6.65-4.52-1.62-5.39-4.44-1.24-2.2-9.1 2.25-7.58 5.08 1.05 7.6 8.03 5.03 12.34-1.17 1.9-4.37 2.9-5.66.63"/><path fill="#fff" d="M440.64 301.8c-.85-1.1-.96-2.28-.92-3.56-3.09-1.57-4.49-4.4-2.22-7.42l-.19.23q-.14.21-.25.42c.88-1.82 3.55-2.8 5.07-1.12a7.4 7.4 0 0 1 4.66 6.6c.56 3.4-2.92 8.15-6.15 4.87z"/><path fill="#fff" d="M439.14 304.23a4.2 4.2 0 0 1-.35-2.9c.61-3.07 4.28-5.44 6.4-2.2 2.45 3.55-3.24 9.17-6.02 5.07zm-16.62-3.83c-3.21-.92-4.1-4.48-3.52-7.43-2.1-4.12-1.12-9.8 2.46-12.8 1.22-2.41 2.81-4.92 5.4-6.04 1.65-2.58 5.6-2.25 6.63.7.9 2.18-.25 4.35-.32 6.6-.33 2.44-1.13 6.02-3.73 6.93.28 1.8.12 3.6.94 5.29 1.6 4.63-3.42 10.11-7.84 6.76zM210.2 276l-.25-9.9q-.69-24.34-1.36-48.69c-1.15-1.7-2.3-3.5-3.56-3.95-7.68-3.56-15.45 1.7-18.94 8.61-12.2 22.12 6.28 40.47 22.99 53q.56.46 1.12.96zm178.04-146.57s-.12-.12-.12-.15l-.1-.06zm17.58 225.36c.07 1.26-.68 2.37-1.76 3.04-1.66 1.57-4 2.56-5.8 3.84-10.91 5.85-22.62 10.2-34.46 13.79-14.02 4.1-28.63 4.75-43.18 4.75a221 221 0 0 1-30.22 1.13c-10.49-.43-21.05-.96-31.3-3.4-11.21-2.67-21.65-4.91-32.2-9.31-1.62-.64-3.36-1.03-4.8-2.02a4 4 0 0 1-3.05-.65q-.28-.26-.63-.52l-.05-.02c-1.26-.82-2.53-1.66-3.84-2.41l-.42-.26-1.05-.65-.47-.29c-.28-12.17-.63-24.32-.96-36.49-1.66-1.2-2.97-3.02-4.56-4.26a192 192 0 0 1-16.76-16.5c-10.68-12.4-21.23-24.95-28.93-39.49-6.44-11-12.39-22.96-13-35.9-.58-18.24 4.6-39.47 20.2-50.47 11.26-6.02 25.7-10.02 38.11-5.38q.4.17.75.4l-.28-9.32q-.24-7.87-.51-15.73l-.26-7.7q-.06-1.51-.1-3.05v-.91c-.04-1.5-.25-3.04.33-4.47q.25-.64.75-1.17c1.31-2.34 3.8-3.93 6.06-5.2a51 51 0 0 1 9.44-3.84c6.95-2.22 14.13-3.67 21.32-4.94a315 315 0 0 1 22.52-2.97 463 463 0 0 1 40.17-2.22c15.16-.24 30.4.16 45.52 1.64 7.4.72 14.8 1.61 22.05 3.18 3.72.8 7.4 1.76 10.98 3.04 1.92.68 3.8 1.5 5.55 2.53q.78.46 1.56 1.03.24.16.47.35c2.04 1.6 3.73 3.7 3.75 6.34q.01.42-.05.82c.3.73.38 1.57.45 2.4.09 1.37.11 2.78.18 4.16q.26 5.77.47 11.5.46 12.26.84 24.55.86 24.88 1.8 49.76.95 25.02 1.93 50.02a16705 16705 0 0 0 2.74 66.31c.2 4.8.35 9.65.72 14.4v.26c0-.07-.05-.14-.05-.21 0 .09.05.18.05.28v.25z"/><path fill="#fff" d="M209.03 286.14c-6.2-6.25-11.12-13.88-16.62-20.79-7.87-10.58-16.27-22.19-17.65-35.67a62 62 0 0 1 .3-13.67q1.5 3.86 2.83 7.8c.1-6.84 3.28-19.03 10.56-21.24v.03c4.17-.07 5.08 6.67 1.31 8.12-8.94 9.9-5.31 31.06 1.85 41.25 6.09 8.77 13.09 16.87 19.83 25.13 1.1 1.45 2.38 2.88 2.76 4.7.73 2.94-2.39 6.26-5.22 4.32z"/><path fill="#e3e3e3" d="M243.95 344.58q1.08 19.12 2.2 38.25c-9.6-2.02-20.39-5.1-24.98-14.19-2.92-5.52-4.42-11.47-5.47-17.53a4.3 4.3 0 0 1-1.55-3.77c0-.96-.07-1.94-.12-2.88q-.1-2.56-.23-5.1l-.12-2.34v-.1c-.7-6.04-.9-12.12-.9-18.19l-.78-15.12-2.44-47.58-2.48-48.57q0-.44-.04-.87c-.7 2.83-2.13 4.66-4.66 4.59 0 3.77-4.2 7.37-6.72 3.23q-.36.17-.75.26-.49.1-.98.04c-.03 2.46-1.29 5.95-4.1 5.64q.17-4.15.3-8.3c.26-6.4.5-12.79.57-19.2.1-6.46-.19-12.92-.59-19.38l-.18-3.09c1.5-.42 3.2.21 4.11 2.22.66-1.17 1.9-2.06 3.26-1.9 1.33.15 2.18 1.04 2.6 2.14 3.84-.75 4.26 3.84 4.14 6.6a84 84 0 0 1 2.04 8.43q-.73-14.89-1.55-29.78l-.63-11.16-.3-5.34c-.1-1.38-.28-2.81-.24-4.17.05-1.85 1.05-3.84 3-4.28q.52-.11 1-.05c1.67-1.24 3.94-.3 5.74 1.08 3.93 2.2 7.28 5.17 11.02 7.6a31 31 0 0 0 8.15 2.63c1.38 23.9 2.64 47.77 4.17 71.67q.38 7 .8 13.97c2.3 38.2 4.44 76.4 6.69 114.6z"/><path fill="#734b3a" d="M376.77 130.51a4.5 4.5 0 0 1 1.24 4.19 6.5 6.5 0 0 1-2.83 3.84c-1.75 1.17-3.81 1.82-5.83 2.4q-2.56.73-5.17 1.27a194 194 0 0 1-23.5 3.35c-7.75.7-15.52 1.12-23.3 1.5-8.23.4-16.47.72-24.73.8l-5.79.02q-8.81.02-17.62-.38-5.4-.23-10.8-.8a75 75 0 0 1-6.92-.95c-8.24-.56-16.62-.78-24.49-2.25-5.3-.05-11.8-3.49-7.44-9.3-6.01-3.22-13.41-1.12-19.5-4.16-4.47-2.01-5.85-7.96-2.34-11.5 4.61-4.49 12.03-4.5 17.98-3.13-3.75-5.26.47-10.37 6.34-10.13 6.02-.54 11.8 2.92 16.37 6.18 6.9 5.12 12.24 12.07 20.22 15.73 2.27 1.21 4.73 1.8 7.2 2.29l4.78-.68c15.17-1.97 30.5-2.83 45.79-3.3q11.24-.34 22.5-.16c7.2.11 14.44.35 21.27 1q3.3.3 6.58.75c1.2.17 2.71.24 3.67 1.06l.21.16q.26-.09.54-.1h.12l.58-.04q.89.02 1.6.42c1.19.47 2.38.91 3.3 1.87zM169.9 105.87c-2.88-1.4-3.3-4.9-1.8-7.5 3.34-5.17 10.32-6.5 16.06-6.46 4.42-.04 14.98 2.88 11.53 7.73-1.19 0-2.36.16-3.55.3-1.5.17-2.95.4-4.4.82q-1.21.34-2.34.9-.88.39-1.64 1-.46.36-.82.8c-2.93 1.19-4.92 4.18-8.38 4.28h-.47c-1.57 0-3.16-.7-4.21-1.85zM163.06 127c-1.03-7.93 8.28-12.63 15-13.43 1.1-.26 2.44-.05 3.14.89q.58.77.68 1.57l-.47.3a22 22 0 0 0-4.42 3.72 25 25 0 0 0-3.14 4.83 33 33 0 0 0-2.32 4.98c-.96.59-2.01.96-3.25 1.05h-.35a5 5 0 0 1-4.9-3.93z"/><path fill="#d09b66" d="M242.92 228.84c8.45 3.86 10.33 16.92 2.86 22.7-5.36 4.64-13.11 2.3-18.96 5.77-16.22 8.7-20.88 25.56-5.36 37.73 2.13 3.13.84 7.09-.82 10.13-2.5 4.59-6.23 10.82-12 10.58-1.39.77-3.22.61-4.74-1.12-12.15-8.75-23.73-23.13-21.93-38.93 2.15-24.08 21.91-46.4 46.35-48.99 3.44-.33 7.02.05 10.41.91 1.43.07 2.95.75 4.2 1.25zm61.58 181.82c-3.35-2.32-1.36-6.65 1.15-8.78a139 139 0 0 1 7.63-8c4.23-3.3 7.67 3.76 4.14 6.62a93 93 0 0 0-8.08 8.54 3.3 3.3 0 0 1-4.84 1.6z"/><path fill="#d09b66" d="M313.25 396.13c-.19-3.09-.19-6.2-.28-9.31q-.19-5.31-.4-10.58l-.91-24.18-.8-20.39-.37-9.74c-.05-1.36-.05-2.76-.17-4.12-.42-2.22.82-4.94 3.24-5.2 2.36-.25 3.74 1.9 3.79 3.85 0 1.94.11 3.88.19 5.8l.4 10.77q.4 11.11.83 22.21l.85 22.1.37 9.69c.12 2.78.33 5.57.38 8.36.04 2-1.06 4.28-3.28 4.51h-.33c-1.99 0-3.34-1.9-3.46-3.77z"/><path fill="#d09b66" d="M301.4 328.26c-1.3-2.76.63-5.36 2.55-7.21 2.36-2.6 4.54-5.32 6.67-8.1 3.06-3.37 6.88 1.2 5.1 4.56-2.06 3.73-4.99 6.88-7.63 10.16-1.47 2.65-5.15 3.89-6.67.59z"/><path fill="#d09b66" d="M304.97 402.78c-5.46-2.32-2.23-9.64-1.87-14.09-1.13-8.22-.78-16.71-.9-25.02 0-8.78 0-17.6.17-26.38.68-4.17-1.8-13.63 4.21-14.05a3.17 3.17 0 0 1 4.31-.91c3.37 2.65.73 7.51 1.26 11.12 3.14-.98 4.85 2.8 4.12 5.4-.56 13.49-.98 26.97-2.24 40.4 2.31 2.07 1.52 5.44 1.4 8.18.47 3.39.38 9.85-4.45 9.45-.89 2.65-2.52 6.51-5.97 5.88z"/><path fill="#d09b66" d="M306.67 406.4c.05 1.44.26 3.03-.37 4.34-.5 1-1.38 1.8-2.5 1.92h-.33q-.49.2-1.03.2a4 4 0 0 1-1.2-.16c-3.53 0-7.07.36-10.58.66q-6 .54-11.96 1.15l-23.43 2.38c-15.9 1.67-31.76 3.35-47.61 5.25q-5.01.6-10 1.22l-4.8.58c-1.28.17-2.62.45-3.93.45h-.37a3 3 0 0 1-2.06-1.13 3.3 3.3 0 0 1-2.37-1.17l-.3-.42s-.05-.07-.05-.1a5 5 0 0 1-.63-2.22 6 6 0 0 1 .1-1.75c0-3.33-.15-6.67-.26-10l-.38-11.91q-.39-11.58-.82-23.15-.28-8.13-.63-16.27-.19-4.17-.28-8.36-.02-2.02-.1-4.1c-.04-1.42-.25-3.01.38-4.32.5-1 1.38-1.8 2.5-1.92h.34q.47-.21 1.03-.21a4 4 0 0 1 1.19.16c3.53 0 7.07-.35 10.58-.65q6-.55 11.96-1.15l23.43-2.39a3218 3218 0 0 0 57.6-6.46l4.8-.58c1.3-.17 2.63-.45 3.94-.45h.37c.84.05 1.55.5 2.06 1.12.91.03 1.76.47 2.37 1.18l.32.42.05.09c.37.66.59 1.43.63 2.22q.1.88-.12 1.76c0 3.32.15 6.67.26 10l.38 11.9q.38 11.58.82 23.16.28 8.13.63 16.27.2 4.17.28 8.35.03 2.04.1 4.1"/><path fill="#a1764b" d="M306.45 369.38c.11 2.06-1.1 4.3-3.28 4.56h-.38q-.95-.01-1.66-.49c-2.13.1-4.24.28-6.34.45-2.5.18-4.99.42-7.47.63q-7.8.7-15.59 1.45L241.1 379c-10.44 1-20.85 2.01-31.3 3.14-3.8.42-7.65.84-11.46 1.19-1.9.16-3.82.33-5.74.37h-1.03q-.8.01-1.64-.04c-.88-.05-1.75-.19-2.62-.33-.6-.1-1.22-.12-1.8-.16l-.68-.12h-.05c-1.47-.1-2.6-1.26-3.04-2.62a5 5 0 0 1-.2-1.67c0-.42 0-.81.08-1.21l-.07.54v.46c0-1.87-.07-3.74-.11-5.61a1521 1521 0 0 0-.7-21.82q-.27-5.09-.5-10.13v-.7q.01-.17.05-.33.19-1.12.82-2.02c.51-1.26 1.54-2.3 2.95-2.36 2.88-.14 5.73-.47 8.61-.7l11.8-.99q12.47-1.04 24.9-2.17c16.16-1.5 32.33-2.9 48.46-4.52l12.12-1.26q2.83-.32 5.64-.59c1.46-.14 2.93-.26 4.36-.5q.7-.31 1.47-.25c1.52.12 2.6 1.31 3.02 2.67q.5.88.52 1.87v.47c.04 7.4.42 14.77.68 22.14q.2 5.44.44 10.86c.1 2.06.12 4.15.3 6.02v.21l.05.05q.05.27.05.54z"/><path fill="#a1764b" d="M299.02 332.2a3 3 0 0 0 1.06.55c-3.28-.87-3.2-6.13-.26-7.42 4.24-4.57 8.03-9.58 12.2-14.16 4.28-3.28 7.65 3.7 4.14 6.64-3.28 3.82-6.5 7.7-9.95 11.38-1.78 1.94-4.4 5.1-7.19 3.02"/><path fill="#a1764b" d="M316.15 360.17a3.4 3.4 0 0 1-2.32-1.92q-.14-.28-.25-.56c-.17-.42-.2-.84-.26-1.27q.03.3.1.59l.02.1c-.05-.26-.1-.55-.1-.73v-.47c-.07-3.84-.28-7.66-.42-11.5q-.41-10.9-.7-21.81-.08-2.7-.19-5.4c-.02-.83-.1-1.67-.04-2.49.04-.84.3-1.7.77-2.38.63-.96 1.7-1.6 3.09-1.34 1.1.21 2.01 1.22 2.34 2.25.25.82.28 1.64.32 2.45q.08 1.46.12 2.9l.3 5.84.57 11.28q.37 8.21.7 16.43c.05.98.02 1.97.12 2.95.4 1.8-.5 3.98-2.16 4.8-.32.16-.7.26-1.05.3h-.33q-.3.02-.65-.07z"/><path fill="#a1764b" d="M301.29 370.61c-.96-2.78 1.31-4.87 2.74-6.95-1-1-1.45-2.64-1.1-4 .2-.82.51-1.6.84-2.34a4.5 4.5 0 0 1-.65-4.26q.36-.94.8-1.9c-3.03-1.57-2.02-5.38-.8-7.84-4.2-1.66-2.23-6.86-.85-9.9-4.7-3.63 1.01-8.45 3.3-11.68 1.8-2.04 2.9-5.13 5.95-5.1 3.2.35 3.67 4.33 2.43 6.72 4.38 2.13 1.31 7.53.26 10.88 3 2.13 1.6 5.97.5 8.78 1.3 1.24 1.51 3.16.95 4.8a4.3 4.3 0 0 1 1.52 2.06q.37 1.15.2 2.2c4.65 3.6-.78 8.5-3.43 11.49-3.06 2.9-8.75 14.98-12.66 7.04"/><path fill="#654b2f" d="M317.6 311.95a4.5 4.5 0 0 1-.7 3.93c-.22.28-.43.56-.64.75l-.1.1q-.2.25-.48.46-.08.08-.19.14c-.37.35-.73.7-1.03.96a492 492 0 0 0-7.1 6.9c-2.17 2.16-4.25 4.36-6.43 6.51-.51 1.3-1.5 2.35-2.6 2.3q-.3.06-.51.07c-.54 0-.5 0-.92-.12q-.09 0-.18-.05c-1.55 0-3.07.12-4.6.22q-2.66.14-5.3.32l-11.96.73q-11.84.74-23.67 1.59c-16.06 1.12-32.14 2.22-48.2 3.49-6.03.47-12.07 1-18.11 1.5h-.35c-2.02 0-3.3-2.13-3.33-3.98 0-1.22.5-2.48 1.34-3.33q.37-.96 1.17-1.66c.51-.44 1.1-.82 1.66-1.22l3-2.22q3.05-2.24 6.1-4.52 3.16-2.38 6.25-4.77c1.38-1.08 2.84-2.1 4.17-3.26.3-.46.7-.89 1.22-1.17a3.2 3.2 0 0 1 3.84.52q.7-.17 1.38-.05h.11c2.09-.04 4.2-.23 6.25-.35q3.53-.24 7.07-.44 7.44-.47 14.84-1.01 15.14-1.04 30.27-2.15 7.84-.59 15.68-1.25c5.18-.42 10.37-.88 15.57-1.14a39 39 0 0 1 8.21.23h.21l.21.07q.98.2 1.95.42l.1-.09c.15-.19.27-.33.46-.47l.16-.12a3.4 3.4 0 0 1 1.64-.65q.86-.12 1.64.28c.94.5 1.62 1.43 1.94 2.46zm-85.91 72.59c-.8-3.18-.59-6.39-.91-9.62-.05-3.18-.56-10 4.47-8.61 1.5.6 1.85 2.1 2.01 3.46.33 3.44.6 6.86.96 10.3.12 1.48.42 3.09-.33 4.47-1.17 2.72-5.03 2.86-6.18.02z"/><path fill="#654b2f" d="M231.68 372.15a4 4 0 0 1-1.12-2.95c0-1.78 1.05-3.42 2.48-3.93.96-.28 1.99-.33 2.5-.38 7.19-.89 14.45-1.29 21.16-2.08l.8-.1c.68-.3 1.5-.44 2.2-.2q.38.06.75.23.67.31 1.17.98c1.33 1.78 1.05 4.9-.84 6.23-.52.35-.99.56-1.3.6q-.84.24-1.65.08-.84.05-1.64.14l-3.8.37q-3.87.39-7.74.84c-2.39.26-4.78.57-7.16.78l-2.25.18-.98.1q-.2.03-.43.04c-.8 0-1.61-.4-2.13-.93zm9.01 14.49q-1.48-.17-2.93-.42c-1-.1-2.06 0-2.9-.66-.94-.75-.86-2.25-.19-3.11.61-.77 1.6-1 2.49-1.31l2.27-1.03a22 22 0 0 1 3.23-1c2.17-.5 4.37-.85 6.57-1.18l5.43-.82c1.25-.19 2.46-.35 3.68-.58q.09 0 .16-.03l.42-.1-.46.1h-.05c.1 0 .16-.04.26-.04.3-.07.3-.07.8-.07.86 0 1.7.53 2.24 1.17.75.89 1.1 2.08 1.03 3.23a4.5 4.5 0 0 1-1.03 2.66c-.6.73-1.4 1.15-2.22 1.27h-.52c-1.08.07-2.15.28-3.23.42l-5.64.77c-2.01.28-4.05.54-6.06.7q-1.05.09-2.1.1-.65.01-1.3-.05z"/><path fill="#654b2f" d="M234.71 387.65c-5.74-1.36-2.22-8.54-1.8-12.45.82-2.65.35-6.5 3.27-7.87a3.2 3.2 0 0 1 3.82 1.03c1.43-1.94 4.42-1.43 5.45.63a5.2 5.2 0 0 1 2.7-1.94 3.6 3.6 0 0 1 3.58 1.22c1.03-1.29 2.78-1.99 4.33-1.29.82-4.16 6.18-4.42 6.93-.07.18 3.77.28 7.59.56 11.38-.1 2.4-.35 5.52-2.79 6.74-2.01.66-4.94-.28-6.83 0-6.56.33-12.83 1.7-19.2 2.64z"/><path fill="#fff" d="M205.86 316.4c.11-2.62 2.53-4.08 4.26-5.74 4.91-4.84 6.76-11.65 10.67-17.16 4.3-4.89 12.17-4 13.77 2.11q-.1.38-.17.75-.15.46-.16.96c-.05.4-.05.8.1 1.17q.16.55.55.96c-.28 7.23-5.38 13.27-9.97 18.5-3.72 3.74-7.96 9.38-13.7 9.4h-.04c-5.69 0-8.26-6.53-5.29-10.95z"/><path fill="#fff" d="M209.91 327.57c-5.69-3.07-4.12-13.65 2.5-14.1 2.72.31 3.99 3.66 2.74 5.93 5.6-3.6 6.04-11.28 11.31-14.96.68-.4 1.7-.98 2.06.1 4.61 7.46-9.83 28.53-18.6 23.05zm38.99-29.67s.12 0 .17.03q-.1 0-.17-.02m1.06.23.2.07q-.1-.02-.2-.07m6.97 5.06q.02.01.07.1zm.08.08.08.1z"/><path fill="#fff" d="M228.83 308.6c-3.44-1.55-2.62-7.58 1.1-8.08 1.4-.72 2.83-1.5 4.29-2.2q0 .1.04.2a2.5 2.5 0 0 0 2.46 1.72c.56 0 1.05-.2 1.55-.46 1.05-.5 2.06-1.08 3.1-1.5q.57-.19 1.13-.33.75-.18 1.52-.28h.64q.88.02 1.75.07h-.1q1.28.04 2.54.19.47.06.96.2 1.22.4 2.38.92.8.37 1.55.82.43.27.82.58a7 7 0 0 1 1.17 1.34v.02l.1.12.04.07-.05-.07-.02-.05q.55.77 1.2 1.48l-.1.18c-1.38 2.13-3.86 1.97-5.62.43-1.6-.75-3.4-.96-5.13-.96-4.26.18-8.19 2.15-11.91 4.12-1.24.7-2.76 1.7-4.24 1.7a2.6 2.6 0 0 1-1.24-.28zm23.46-9.55h-.05l.07.02h-.03zm2.97 2.04.12.12z"/><path fill="#fff" d="M238.09 338.5c-8.24-1-15.73-5.69-18.96-13.5-1.5-1.34-2.16-3.77-1.22-5.5a3.5 3.5 0 0 1 6.55-.24c2.18 5.38 6.44 9.9 12.45 10.56 5.01 1.54 11.22 1.47 14.12-3.63-4.4.47-8.66-1.83-11.87-4.64-5.6-5.45-1.66-14.95 3.6-19.24a26 26 0 0 1 8.13-3.84q.69.27 1.38.57h.05q.76.37 1.5.8.43.28.81.6a7 7 0 0 1 1.18 1.33v.05l.02.05.11.16-.04-.07q.01.05.07.1v-.03q.53.74 1.17 1.43s-.02-.05-.05-.05l.14.14a4 4 0 0 1-1.07 1.6c-.75.72-2 .88-2.95 1.14-4.6.84-9.09 3.56-9.72 8.57 2.46 2.5 6.28 4 9.67 2.6 1.97-1 4.42-2.25 6.13-.1 2.34 3.5-.04 8.2-1.43 11.66-2.97 6.32-8.87 10.04-15.47 10.04q-2.1 0-4.26-.51z"/><path fill="#fff" d="M245.67 334.3c-3.2-.17-6.32-1.2-9.32-2.2-1.85.4-3.93.41-5.54-.6a4.9 4.9 0 0 1-2.34-4.18c-12.27.28.9-25.45 7.86-26.22q.28-.48.58-.86c.5-.05.94-.24 1.4-.45l1.74-.87c2 .36 3.58 2.72 2.6 5.48 1.66 4.2-.59 8.83-1.55 12.97q.14.04.24.1a6.5 6.5 0 0 1 3.53 3.8c.1 0 .17.06.26.08 4-1.55 8.66 1.2 7.89 5.73 1.43 4.17-2.13 7.35-6 7.35q-.66 0-1.3-.11z"/><path fill="#d09b66" d="M274.2 322.09q-.74-.93-.94-2.1a8 8 0 0 0-.26-.83q-.3-.76-.68-1.5-.39-.68-.84-1.35-.43-.56-.9-1.08-.61-.63-1.28-1.15-.63-.45-1.3-.84-.82-.4-1.65-.75-1.12-.37-2.27-.58-1.2-.17-2.4-.19c-1.09.02-2.16.16-3.22.33q-1.53.29-3.04.77-1.98.75-3.86 1.73a53 53 0 0 0-3.84 2.41c-.5.35-.98.73-1.47 1.06-.5.32-1.06.58-1.67.65-1.8.19-3.2-1.36-3.48-3.04a4.5 4.5 0 0 1 1.07-3.82q.5-.51 1.03-.96 1.25-1.05 2.6-1.96a32 32 0 0 1 7.02-3.56c2.5-.89 5.04-1.6 7.7-1.7 3.1-.17 6.16.3 9.04 1.47 4.52 1.87 8 5.82 9.76 10.32q.3.76.56 1.57c.96 2.06.26 5-1.92 5.99q-.6.27-1.24.26c-.93 0-1.87-.45-2.5-1.2z"/><path fill="#d09b66" d="M269.85 322.48c-2.93-9.76-18.45-1.43-25.47-2.8-2.92-.71-3.79-4.88-1.75-6.91a3 3 0 0 1 3.02-1.1c5.87-.24 11.63-2.49 17.6-2.06 6.81-.24 13.48 5.2 13.67 12.2.14 5.3-6.65 6.26-7.1.67z"/><path fill="#d09b66" d="M269.55 323.25c-1.17-3.47-1.97-7.82-.26-11.2 1.74-2.73 5.48-1.72 6.14 1.11 5.05-.91 5.8 7.47 4.23 10.7-1.94 4.37-8.47 3.56-10.1-.61"/><path fill="#fff" d="M359.8 216.82c3.97 18.23-7.28 34.97-26.92 32.98-7.35-.77-15.31-3.42-19.69-9.74-4.07-6.39-5.26-15.7-1.5-22.4 1.8-2.08 4.36-1.36 5.53.52 11.87-3.4 24.27-3.37 36.28-5.93q.45-.16.89-.16c3.13-1.73 5.31 1.9 5.4 4.73"/><path fill="#fff" d="M397.82 211.99c3.98 18.23-7.28 34.97-26.92 32.98-7.35-.77-15.3-3.42-19.69-9.74-4.07-6.39-5.26-15.7-1.5-22.4 1.81-2.08 4.36-1.36 5.53.52 11.87-3.4 24.27-3.37 36.28-5.93q.46-.16.9-.16c3.13-1.73 5.3 1.9 5.4 4.73"/><path fill="#000" d="M336.72 243.5h-.05q-.52-.14-1-.32l.16-.44q-.01-.05.05-.1v.07-.02q0-.04.02-.07 0 .04-.02.07v-.09.04-.04l1.47-3.84q-.02.07-.07.14l2.72-7.14c.23-.59-.15-1.29-.73-1.5a1.1 1.1 0 0 0-.91.07h-.05l-.17.02q.08 0 .15-.02c-2.28.33-4.55.73-6.82 1.1l-6.27 1q-.2-.62-.37-1.26a18.6 18.6 0 0 1 3.88-16.69q1.06-1.26 2.37-2.24 1.35-1.07 2.88-1.85.13-.08.23-.12a17 17 0 0 1 6.6-1.83c1.15-.07 2.76-.18 3.84.36q.08.02.14.09h.14a16.7 16.7 0 0 1 10.98 7.65q.44.37.72.87.45.7.61 1.52l.24.56c.44 1.15.75 2.27 1 3.47.3 1.47.33 3 .21 4.47q-.12 2.08-.75 4.1a18 18 0 0 1-3.65 6.66q-.77.93-1.66 1.71a16.6 16.6 0 0 1-8.54 4.05h-.12q-1.26.21-2.57.21c-1.62 0-3.24-.25-4.78-.7zm39.45-5.79h-.05q-.52-.14-1-.33l.16-.44q-.01-.04.04-.1v.08-.03q0-.03.03-.07 0 .04-.03.07v-.09.05-.05q.75-1.92 1.45-3.84-.01.08-.06.14l2.71-7.14c.23-.58-.14-1.29-.73-1.5a1.1 1.1 0 0 0-.9.07h-.06q-.06 0-.16.03.08 0 .14-.03c-2.27.33-4.54.73-6.81 1.1l-6.27 1.01-.38-1.26a18.6 18.6 0 0 1 3.89-16.7q1.06-1.26 2.36-2.24 1.36-1.06 2.88-1.85l.24-.12a17 17 0 0 1 6.6-1.83c1.14-.06 2.76-.18 3.83.36q.08.03.14.1h.15a16.7 16.7 0 0 1 10.97 7.65q.44.35.73.86.43.71.6 1.52l.24.57c.45 1.14.75 2.27 1 3.46.31 1.47.34 3 .22 4.47q-.13 2.08-.75 4.1a18 18 0 0 1-3.65 6.67 16.6 16.6 0 0 1-10.2 5.76h-.12q-1.27.2-2.58.2a17 17 0 0 1-4.77-.7z"/><path fill="#d95032" d="M330.57 257.18a36 36 0 0 1-8.8-3.84c-.44-.28-.91-.54-1.29-.91-1.75-1.64-1.75-5.15.26-6.65 1.17-.84 2.6-1.1 3.86-.26q.88.59 1.78 1.15a26 26 0 0 0 3.47 1.61c2.15.8 4.35 1.38 6.27 1.76q.19.02.37.07a1 1 0 0 1 .33.07q-.16-.02-.3-.07-.1-.01-.2-.05c3.17.59 6.35.87 9.04.91a70 70 0 0 0 11.75-.86q5.7-.95 11.2-2.79 4.02-1.39 7.81-3.34a44 44 0 0 0 4.43-2.65q.37-.25.74-.54l.05-.02q.68-.5 1.31-1.03l.35-.33a3.25 3.25 0 0 1 4.94.91c1 1.67.77 4-.54 5.46q-.35.4-.82.68l-.07.07-1.68 1.21q-.19.15-.4.28-1.97 1.39-4.1 2.6a59 59 0 0 1-10.04 4.5 74 74 0 0 1-24.23 4.14 56 56 0 0 1-15.44-2.06z"/><path fill="#d95032" d="M391.9 251.1c-1.78-1.12-1.76-3.22-1.78-5.05-1.52-2.81-4.8.07-7.05-1.03-1.17-.54-1.57-1.9-1.36-3.07 1.76-6.64 11.15-6.67 14.12-.89 2.48 3.28 1.87 12.6-3.96 10.04zm-82.85 8.64c-4.56-6 .94-15.78 8.29-15.92 3.16-.14 7.67.57 8.45 4.26.44 2.5-1.25 5.27-3.96 5.1-.8 0-1.38-.41-1.94-.81a5.5 5.5 0 0 0-4.5.49c-1.87 1.57.3 4.63-1.8 6.55-1.1 1.36-3.25 1.62-4.54.35z"/><path fill="#d95032" d="M340.25 274.95c-10.68-1.07-21.1-5.22-28.58-13.06a8 8 0 0 1-1.29-1.54 4.6 4.6 0 0 1 0-5.72c1.2-1.42 3.23-1.61 4.52-.44.77.66 1.43 1.5 2.13 2.25q1.53 1.5 3.25 2.78c1.38.99 2.83 1.9 4.22 2.65l.11.04q2.95 1.54 6.09 2.63 4.08 1.31 8.26 1.96c3.04.42 6.09.61 8.64.56q5.42-.13 10.74-1.14 4.82-1 9.44-2.65a66 66 0 0 0 8.47-3.9 58 58 0 0 0 6-3.94 51 51 0 0 0 5.02-4.47 43 43 0 0 0 3.5-4.05c.18-.26.41-.54.58-.82l.04-.07c.38-.6.92-1.15 1.6-1.45a3.1 3.1 0 0 1 3.39.5c1.75 1.51 1.82 4.46.4 6.22-4.87 6.9-11.73 12.31-19.13 16.27a66 66 0 0 1-37.4 7.4"/><path fill="#d95032" d="M344.6 269.88c-8.92.35-17.3-3.18-24.1-8.73-2.11-1.68-4.52-3.16-6.28-5.2-1.64-2.45-.1-6.88 3.18-6.64 8.92 3.44 18.05 6.76 27.81 6.25 12.22-.1 24.81-.26 35.7-6.6-1.6-3.54 2.53-8.45 6.06-5.9 2.06-.1 4.45-1.6 6.18.16a4.7 4.7 0 0 1 1.1 4.9c-.7 2-2.64 3.1-4.28 4.28-4.22 3.32-7.59 7.74-12.76 9.85a69 69 0 0 1-32.58 7.68z"/><path fill="#d09b66" d="M300.98 216.38c-.14-2.02 1.08-4.29 3.23-4.57 15.45-2.01 30.85-4.24 46.26-6.48l22.25-3.26q5.35-.8 10.7-1.63c3.02-.47 6.06-.92 9.08-1.53l.12-.02q.2-.1.4-.14.24-.06.5-.1h.53q.22.01.44.05h.07c.85.19 1.6.75 2.09 1.5 1.45 2.2.6 6.02-2.13 6.67q-.75.24-1.4.07-1.44.12-2.84.35l-5.4.7q-6 .82-12 1.71-12.35 1.81-24.7 3.68a2353 2353 0 0 0-43.38 6.72q-.24.04-.47.04c-1.9 0-3.23-1.99-3.35-3.74z"/><path fill="#d09b66" d="M299.08 221.8c-.5-3.42 1.42-9.13 5.43-9.23 3.5.3 4.2 5.53 1.7 7.54 2.09 2.09 1.4 6.3-1.56 7.19s-5.2-3.07-5.57-5.5"/><path fill="#d09b66" d="M302.66 224.6c-.3-1.93.72-4.57 2.85-4.95 1.45-.25 2.95-.4 4.43-.58l5.64-.73q5.94-.77 11.87-1.61c8.03-1.13 16.08-2.2 24.1-3.3 12.27-1.71 24.56-3.42 36.31-5.32q1.73-.27 3.42-.58.61-.09 1.22-.21.48-.2 1-.24l-.49.07.56-.09c1.27-.12 2.41.66 3.05 1.7a4.7 4.7 0 0 1 .09 4.53 3.8 3.8 0 0 1-2.65 2.06c-.09 0-.18.04-.25.02h-.66q-1.23.09-2.46.28-2.79.34-5.57.7-5.7.75-11.42 1.57a2736 2736 0 0 0-24.16 3.44c-14.2 2.06-28.44 4.15-42.13 6.32l-.47.07q-.35.08-.7.12h-.3c-1.78 0-3.07-1.66-3.3-3.3z"/><path fill="#d09b66" d="M392.64 213.98a4 4 0 0 1-2.02-2.39 5 5 0 0 1 .99-4.59c-3.35-1.8-2.2-8.19 1.9-8 1.65-.12 3.27-.19 4.77.8 6.3 4 1.82 16.03-5.64 14.2z"/><path fill="#d09b66" d="M319.31 221.27a15 15 0 0 1-6.2-1.87 28 28 0 0 1 7.56-5.27c8.62-2.76 17.75-3.25 26.48-5.05 8-.87 15.87-2.95 23.92-3.42 5.73-.54 11.56-1.03 17.18-2.39 3-1.12 7.02-2.36 9.25.75 8.35 4.4-4.64 17.32-7.2 7.02-9.66 2.7-20.38 2.18-30.1 4.08-8.44 1.61-17.01 2.5-25.46 4.16-5.57.63-10.09 2.32-15.45 2z"/><path fill="#361b0f" d="m340.57 222.34.49-1.05q.01-.08.07-.14c.23-.02.44-.05.68 0-.4.66-.85 1.29-1.27 1.92q-.42.66-.89 1.29.45-1.03.94-2.02z"/><path fill="#000" d="m391.39 234.24-.58-.33-.24-.23c-.23-.24-.47-.52-.77-.68a2 2 0 0 0-.73-.21q-.45 0-.89.12.55-.98 1.03-1.97.52-1.23.94-2.5.4-1.35.68-2.72-.25-.18-.42-.47c-1.55-2.34-1.27-8.1 1.8-9.08a3.2 3.2 0 0 1 2.71-1.05c1.64.2 2.74 1.7 2.95 3.25q.05.33.05.59v.19q.01.7.1 1.44.03 1.43-.05 2.86a33 33 0 0 1-3.75 13.13 9 9 0 0 0-2.78-2.36zm-83.87 13.5a32 32 0 0 1-8.14-17.07v-.04c-.21-1.97.8-4.31 2.88-4.78 2.03-.47 3.76 1.26 3.97 3.2q.08.8.24 1.6.31 1.47.77 2.9.5 1.4 1.12 2.72a21 21 0 0 0 3.28 4.82l.7.72-.07.12q-.24.25-.44.54-.21.25-.42.54-.6.81-1.08 1.68c-.4.68-.8 1.4-1.08 2.16v.02c-.32.51-.6 1.1-.89 1.66l-.8-.82zm41.4 1.4q-1.26-.4-2.56-.78-1-.24-2.03-.37l-1.03-.28a27 27 0 0 0-3.82-.66l-.35-.02.54-.24.21-.11q1.46-.77 2.86-1.71a29 29 0 0 0 2.52-2.04c.75-.72 1.5-1.5 2.16-2.3a24 24 0 0 0 3.09-5 25 25 0 0 0 1.61-5.2 3 3 0 0 1-.42-.46c-1.57-2.37-1.28-8.1 1.8-9.09a3.3 3.3 0 0 1 2.72-1.05c1.66.21 2.74 1.7 2.95 3.25q.06.32.05.61v.19c0 .47.07.96.09 1.43q.03 1.43-.07 2.85a33 33 0 0 1-3.6 12.85c.04.05.09.05.11.1q1.62.93 3.37 1.66c1.31.5 2.67.91 4 1.22 1.39.25 2.77.42 3.66.47h.84q-.52.08-1.05.2c-.8.2-1.57.36-2.37.57-.98.28-1.96.53-2.95.84-.91.26-1.8.59-2.69.89l-1.22.42-1.66.35c-.84.17-1.68.4-2.53.61l-.37.1q-.88-.5-1.71-1.08a29 29 0 0 1-1.9 1.87l-.35-.12zm-28.48.31-.05.12zm56.86 1.36s.21-.12.31-.2l-.07.15-.27.1.05-.05zm-55.31.85-.05.07q-.01-.03.05-.07"/><path fill="#351a0f" d="m245.25 134.97.1-.21c.58.12 1.14.2 1.72.33zm42.41 13.34c-8.03-.32-16.08-.84-24.04-2.08a66 66 0 0 1-11.96-2.8l-.66-.27q.31 0 .63-.04a287 287 0 0 1 8.52-.42h1.36q3.94-.02 7.87-.07 3.4-.06 6.8-.2h1.1q1.6-.01 3.17-.06c1.22-.03 2.43-.03 3.65-.1l4.73-.25q1.71-.11 3.42-.26h.2c10 .3 20 .14 29.97-.33l.75-.02.56-.05c11.58-.58 23.1-1.68 34.5-3.63 4.17-.72 8.31-1.56 12.36-2.73 1.55-.5 3.04-1.01 4.5-1.67l.95-.49q-.82-.38-1.66-.65a50 50 0 0 0-5.22-1.38 148 148 0 0 0-16.69-2.16 377 377 0 0 0-44.24-.47h-.35c-.35 0-.72.05-1.07.05-11.48.6-22.94 1.6-34.11 3.49q-.13 0-.26.04h-.18a57 57 0 0 1-4.33.75q-.69.29-1.3.35h-.18q-.24.08-.5.12-.11-.07-.25-.12-2.21-1.11-4.47-2.15h-.05v-.02h-.04.02-.05l-1.05-.47-3.88-2.04q2.52-.77 5.12-1.38c1.08-.25 2.18-.44 3.25-.72l.21-.07h.05a5 5 0 0 1 1.27-.17q.42-.14.89-.23 2.42-.49 4.89-.82c3.88-.59 7.82-1.08 11.72-1.5a376 376 0 0 1 22.94-1.8h.05c14.72-.75 29.54-.9 44.24.16 7.47.54 14.94 1.29 22.24 2.93 3.27.72 6.79 1.7 9.48 3.77a5.8 5.8 0 0 1 2.53 4.5c.09 2.05-1.55 3.85-3.1 5a21 21 0 0 1-4.72 2.39 57 57 0 0 1-5.74 1.8c-3.88 1.03-7.84 1.8-11.82 2.46a291 291 0 0 1-24.27 2.78 410 410 0 0 1-47.85 1.08z"/><path fill="#351a0f" d="M273.06 148.39c-11.52-1.36-56.32 3.75-58.52-9.67-2.6-.1-5.2-.6-7.77-.89-1.97-.28-4.59-.37-5.55-2.43-1.47-2.9 1.9-5.4 4.64-4.82 3.46.4 6.9 1.28 10.41 1.07 2.93-.44 6.9.68 6.58 4.29-2.7 7.02 35.6 4.8 40.68 5.33 10.16.1 20.34.66 30.5.4 4.12-.26 8.24-.3 12.39-.28 2.06.05 4.37-.26 6.13 1.08 3.67 2.88-.56 7.51-4.3 5.94-11.74-.28-23.42.73-35.14-.02zm-10.56-16.57a331 331 0 0 0-18.44-13.93 3.5 3.5 0 0 1-2.38-2.24c-1.08-3.37 2.95-5.53 5.75-4.31 1.48.63 2.67 1.82 3.98 2.71 5.18 3.82 10.89 8.08 15.85 11.85.98.8 1.87 1.47 2.1 2.74.52 3.55-4.35 5.2-6.85 3.18"/><path fill="#6a6a6a" d="M439.38 238.12q.68-2.35 1.31-4.7-1.5-.52-3-1c-3.55-1.25-7.13-2.44-10.69-3.66q-9.8-3.33-19.66-6.6.09 2.88.21 5.8l.89 23.74 1.69 46.42q.38 10.63.81 21.27c.21 5.43.38 10.86.59 16.25 2.86-9.72 5.6-19.48 8.38-29.24a3 3 0 0 1-1.03-.35c-3.96-2.97-4.43-8.99-2.97-13.41q.12-.63.37-1.2c-2.25-5.1-.33-11.82 4.21-15.12 0-6.39 5.5-12.7 11.9-13.39q.8-2.73 1.56-5.47c1.85-6.42 3.6-12.88 5.43-19.31zm9.27-7.02v.05c0 .32-.04.68-.11.98v.05q-.07.32-.21.65c-.92 2.93-1.71 5.9-2.56 8.85l-6.01 20.74q-1.26 4.39-2.48 8.78h-.99q-.57 0-1.14.04-.56-.16-1.13-.25c-3.04.37-6.32 2.1-6.43 5.5 1.59 2.74-.2 5.82-2.46 6.25q-.3.25-.66.44a6 6 0 0 0-1.7 1.85c-.47.91-.64 2.22.11 3.04 1.13 1.08 1.43 2.88 1.06 4.33q-.19.92-.75 1.6c-.47 1.12-1.1 2.24-1.03 3.6q0 .33.09.58.03-.13.1-.28a27 27 0 0 0 4.04 3.94c.38.25.73.54 1.1.77q.38.24.75.42l-1.43 5.03c-2.92 10.28-5.87 20.56-8.75 30.85-.42 1.6-1.76 2.98-3.4 2.98q-.5.01-1-.2a3.5 3.5 0 0 1-1.92-1.65q-.01.5.05 1c.02.68.02 1.38.09 2.06.47 1.83-.33 4.08-2.01 4.97q-.74.37-1.43.37c-1.26 0-2.39-.87-3.02-2.01q-.06-.1-.1-.21a5 5 0 0 1-.42-2.06q0-.25.03-.5c0-.7-.05-1.42-.05-2.12q-.08-2.57-.19-5.18-.17-5.3-.4-10.58-.39-10.73-.74-21.46l-1.71-46.4c-.59-15.73-1.05-31.48-1.78-47.23q-.16-3.2-.28-6.41c-.1-2 1.5-4.15 3.6-4.12 2.25.02 3.42 2.22 3.5 4.2q.16 4.55.27 9.04c5.53 1.95 11.1 3.82 16.65 5.72 6.31 2.13 12.61 4.3 18.93 6.36.52.17 1.06.38 1.43.47q.78.22 1.4.75h.14c1.78.3 2.79 1.92 2.98 3.56q.05.36.04.72z"/><path fill="#6a6a6a" d="M442.8 272.88c-2.5-1.03-5.29-1.43-7.95-1.7a3.4 3.4 0 0 1-3.12-2.02c-1.2-2.23-.23-5.83 2.5-6.25 3.75.12 7.6.89 11.08 2.25 4.5 1.63 2.34 9.97-2.5 7.74zm-14.32 38.63c-2.74-1.43-5.92-2.27-8.12-4.47-1.22-1.45-1.1-3.7-.28-5.27a3.3 3.3 0 0 1 5.67-.42c1.82.87 3.67 1.76 5.54 2.55 3.98 2.02 1.8 9.44-2.8 7.61"/><path fill="#a1764b" d="M204.13 319.26q.15.19.26.38-.72.46-1.54.54a3 3 0 0 1-2.44-1.03l-.82-.64q.07-.06.17-.09.06-.06.14-.1a3 3 0 0 1 .81-.32l.24-.05.23-.02q.9-.1 1.78.37l.26.14q.08.04.12.1c.02.04.07.04.11.1q.06 0 .1.09l.2.16.13.12s.16.16.2.25c0 0 .03.05.05.05z"/><path fill="#a1764b" d="m204.66 320.06.03.07q-.9.3-1.83.05a3.5 3.5 0 0 1-2.18-1.76l-.19-.35.24-.07.23-.05.24-.02a3 3 0 0 1 1.78.37l.25.14q.08.04.12.1c.02.04.07.04.12.1q.06 0 .1.09l.2.16.12.12s.16.16.2.25l.3.42q.1.12.15.24l.1.19z"/><path fill="#b9b9b9" d="M222.56 329.05q-.7.14-1.47-.1c-1.47-.51-2.27-2.01-2.36-3.5 1.33.04 2.55 1.05 3.2 2.26.24.42.42.9.63 1.34"/><path fill="#402e1b" d="M224.09 329.02q-.16.75-.61 1.36a4 4 0 0 1-.56.63c-.82.77-1.6 1.54-2.56 2.18a16.6 16.6 0 0 1-9.06 2.76c-2.85 0-5.7-.8-8.12-2.34-4.1-2.65-6.34-8.03-5.1-12.78v-.05l.16-.54a3.5 3.5 0 0 1 1.3-1.75s.09-.07.16-.1l.14-.1a3 3 0 0 1 .81-.32c.07 0 .17-.05.24-.05l.23-.02q.9-.1 1.78.37l.38.24q.07.03.11.1.07 0 .1.09l.2.16.13.12s.06.09.11.11.07.1.12.12l.3.42q.1.12.14.24l.1.18.02.07c.44.96.54 2.09.35 3.14h.03q-.08.3-.12.54v.54l.02.18q.01.15.1.29.02.1.09.2l.19.33.3.4q.18.16.33.33l.58.44q.4.24.8.45.6.26 1.24.44.66.17 1.33.26.81.07 1.67.02.9-.06 1.8-.28.87-.24 1.7-.58.7-.33 1.34-.73c.33-.2.66-.47.96-.72l.54-.56q.32-.44.75-.73-.3.67-.38 1.38h.38c1.33.05 2.55 1.05 3.2 2.27q.34.65.64 1.33.23.37.47.7.57-.28 1.07-.74z"/><path fill="#b9b9b9" d="m222.56 329.05.46.7c-1.07.54-2.34.49-3.56-.68a4.1 4.1 0 0 1-1.14-3.63h.37c1.34.05 2.55 1.06 3.2 2.27.24.42.43.9.64 1.34z"/><path fill="#412f1b" d="M260.83 326.1a4.7 4.7 0 0 1 1.43 4.18v.1a4 4 0 0 1-.91 1.96c-.45.47-.8 1.06-1.22 1.55a25 25 0 0 1-5.12 4.56 30 30 0 0 1-8.64 4.1 33 33 0 0 1-9.1 1.31c-3.1 0-6.3-.5-9.28-1.57a24 24 0 0 1-6.93-3.93 19 19 0 0 1-3.06-3.23c-.12-.17-.24-.3-.35-.47a14 14 0 0 1-2.1-3.77c-.57-1.75-.2-3.98 1.49-5q.65-.39 1.29-.43h.37c1.34.05 2.55 1.06 3.2 2.27.24.42.43.9.64 1.34l.47.7.2.3q.13.16.27.3.21.3.47.57.6.58 1.24 1.12.83.63 1.7 1.15 1 .54 2.06.98a21 21 0 0 0 6.58 1.43q2.07.07 4.14-.12a28 28 0 0 0 4.62-.93c1.3-.42 2.6-.92 3.67-1.43q.16-.07.3-.16h.03q1.68-.89 3.23-1.97 1.12-.84 2.17-1.83a21 21 0 0 0 1.9-2.15l.03-.05q.01-.04.06-.1l.14-.23q.06-.06.1-.16a3 3 0 0 1 1-.91 3.3 3.3 0 0 1 3.9.49z"/><path fill="#412f1b" d="M264.38 323.26a19 19 0 0 1-2.95 8.54c-.91 1.83-3.25 2.8-5 1.4-1.9-1.45-2.07-4.26-.78-6.13l.03-.05q.25-.38.6-.7l-.23.21-.17.17s.08-.1.1-.17a9 9 0 0 0 1.45-5.22c2.6-.04 5.08.35 6.95 1.92z"/><path fill="#a1764b" d="m317.27 353.75-.21.2-.43-8.47q-.41-8.92-.86-17.83l-.4-8.64q.09 1.82.21 3.6.38 5.55.63 11.1c.05.6.1 1.82.17 3.04l.56 11.12.26 5.17v.21s.04.26.04.5zm-37.25 68.12-23.88 2.48-3.93.42q.08-.12.11-.25 9.56-1.06 19.13-2.02 3.9-.38 7.8-.84.37.09.77.21"/><path fill="#575757" d="M364.25 442.5a13.5 13.5 0 0 1-6.42-5.6c-1.35-2.03-1.21-4.77-2.76-6.66-2.74-2.77-6.08 1.9-8.82-.3-1.74-1.41-2.02-3.85-1.06-5.77 3.02-3.81 9.5-3.98 13.32-1.21 4.4 2.38 3.25 8.59 7.1 11.2 2.52 1.3 5.99 2.44 8.58.85.9-.6 1.8-1.15 2.95-.87a4 4 0 0 1 2.86 4.57c-1.6 6.6-10.81 6.09-15.75 3.81z"/><path fill="#575757" d="M376.69 436.4c-4.45-2.82-2.7-13.02 1.28-15.71 2.65-1.78 5.93-2.18 8.78-3.5 2-.88 3.96.99 4.4 2.8 1.38 5.9-5.94 5.8-9.52 7.81-.9 1.97.14 4.38-.78 6.37-.68 1.73-2.39 3.18-4.19 2.25zm12.84 13.04c-2.5-.6-3.68-3.56-2.7-5.87 2.16-3.5 5.86-5.88 9-8.45 4.77-3.19 20.36-14.14 25.25-9.2a4.6 4.6 0 0 1 0 5.4c-1.12 1.69-3.28 1.46-5.01 2-5.24 1.6-9.32 4.04-13.79 6.9a49 49 0 0 0-10.06 8.43c-.77.56-1.73 1-2.7.77zm-144.45 11.11c-6.56-6.3 8.94-18.5 14.2-21.23 5.27-3.82 30.79-8.85 30.3 1.61-.8 4.17-3.87 3.93-7.1 2.57-4.54-1.07-9.3-.25-13.79.7-7.34 1.95-13.52 6.84-17.95 12.9-.44 2.65-2.95 5.5-5.66 3.45"/><path fill="#575757" d="M287.12 424.06c3.37 1 4.02 6.01.98 7.8-1.26.7-2.97.67-3.98-.47-1.73-.5-4.26-1.15-5.66-1.55a68 68 0 0 0-19.43-2.25c-1.22 1.9-2.32 5.72-4.33 6.96-.91.56-2.01.6-3.4-.26-2.12-1.64-1.8-4.59-.58-6.7l.23-.37q.66-1.21 1.25-2.46.07-.13.11-.26 9.56-1.06 19.13-2 3.9-.4 7.79-.85l.77.2q3.6.97 7.12 2.2"/><path fill="#575757" d="M255.26 430.76a4.4 4.4 0 0 1-.63 3.8c-1.2 1.58-3.56 2.1-5.85 1a18 18 0 0 1-7.35-4.54c-1.48-1.36-1.53-3.47-.73-5.06q.01-.1.1-.19 2.83-.3 5.68-.63.08.1.19.19a10 10 0 0 0 4.03 2.27q.37.14.79.21c1.78-.3 3.4 1.29 3.82 2.95z"/><path fill="#654b2f" d="M396.8 209.25q.21-.46.47-.9c-.21-3.92-1.54-4.46-3.75-5.07q-.52.38-1.17.56c-.09 0-.16.05-.25.05l-.28.04q-.33.01-.61-.04c-1.2.04-2.39.23-3.56.37l-5.76.75q-5.79.76-11.6 1.55c-8.18 1.12-16.32 2.29-24.5 3.44-13.12 1.84-26.23 3.62-38.83 5.59l-1.02.16-.9.14-.37.03h-.05c-1.45 1.4-2.71 2.83-1.59 5.22a3.7 3.7 0 0 0 1.88 1.29q.05 0 .09-.03c2.4-.42 4.84-.63 7.25-.96l10.5-1.45q11.57-1.68 23.19-3.3a2338 2338 0 0 0 46.2-6.76c.87-.15 1.74-.26 2.58-.47q.34-.16.72-.24.74-.14 1.36.03m-2.4-13.77c7.8-.3 11.53 9.98 9.26 16.37-.63 2.27-2.97 4.75-5.17 4.2a3.4 3.4 0 0 1-2.09 1.34q-.57.15-1.1 0l-.86.1c-7.75.96-15.5 2.13-23.25 3.27q-11.54 1.68-23.07 3.42c-14 2.08-28 4.07-41.98 6.37l-.7.1h-.11c-.38.1-.78.16-1.22.1-8.55-1.3-10.75-12.37-6.11-18.7a8 8 0 0 1 4.3-3.04 3.6 3.6 0 0 1 2.51-1.45c14.75-1.82 29.5-3.81 44.22-5.8 13.13-1.8 26.28-3.5 38.9-5.43q.28-.06.59-.1h.09l.26-.07q.68-.1 1.35-.23.6-.35 1.34-.35.6-.04 1.2.14a5 5 0 0 1 1.58-.28z"/><path fill="#84230e" d="M338.73 253.9c-5.69-.37-24.23-4.3-19.26-12.75.96-1.29 2.6-2.04 4.14-1.29 9.85 8.55 32.72 7.96 43.98 2.04 4.52-1.45 13.3-12.34 15.92-4.78 1.24 4.47-3.44 5.62-6.16 7.82-10.95 8.6-25.14 10.49-38.64 8.97z"/><path fill="#84230e" d="M394.23 259.65a4.7 4.7 0 0 1 .28-5.87c.96-.94 1.94-1.9 2.3-3.23 2.24-6.46-4.48-11.96-10.64-10.96-1.59.17-2.94.96-4.26 1.85-.68 1.15-1.82 1.97-3.27 1.8-2.09-.23-3.37-2.55-3.07-4.51.19-2.13 1.66-3.72 3.47-4.73 8.02-5.85 20.83-1.83 24.03 7.56a17.5 17.5 0 0 1-.95 14.54c-1.53 2.66-5 6.95-7.92 3.53zm-86.37 5.86c-3.18-3.56-5.22-8.33-3.7-13.08 1.83-6.98 8.48-14.72 16.34-13.2a10 10 0 0 1 4.15 2.24c1.3 1.71 1.1 4.45-.61 5.83-1.69 1.57-3.65.14-5.5-.16-4.17.37-8.57 5.57-7.52 9.76 1.6 2.32 4.26 4.82 2.5 7.84-1 2.18-4.18 2.86-5.63.77z"/><path fill="#84230e" d="M332.32 266.47a39 39 0 0 1-7.28-2.45 29 29 0 0 1-3.6-2.04c-.75-.5-1.55-.94-2.2-1.55-1.38-1.03-1.66-3.2-.94-4.72.73-1.5 2.65-2.46 4.1-1.53q.63.29 1.22.64a50.4 50.4 0 0 0 22.56 4.94h.3a70 70 0 0 0 10.56-1.08 76 76 0 0 0 10.9-3 67 67 0 0 0 8.81-4.02 45 45 0 0 0 5.08-3.26l.12-.11c.68-.64 1.5-.87 2.38-.87 2.18 0 3.4 2.53 3.26 4.4-.1 1.4-.8 2.7-1.9 3.37h.05s-.21.14-.33.19c-.5.3-.94.63-1.43.96a69 69 0 0 1-13.18 6.76 72 72 0 0 1-25.46 4.83c-4.38 0-8.78-.45-13.04-1.46z"/><path fill="#84230e" d="M330.54 278.71a48 48 0 0 1-14.46-5.85 29 29 0 0 1-5.53-4.4c-1.33-1.43-2.73-3.05-3.3-4.94a4 4 0 0 1 1.03-3.8c.85-.84 2.25-1.28 3.35-.63 1.17.73 2.06 1.85 3.1 2.81a42 42 0 0 0 4.58 3.51 40 40 0 0 0 5.29 2.77 52 52 0 0 0 8.14 2.64c3.56.82 7.19 1.31 10.33 1.52h.32a75 75 0 0 0 34.65-6.2 57 57 0 0 0 7.04-3.86 43 43 0 0 0 4.22-3.2l.4-.38c1.42-1.43 3.74-1.45 5.03.3.68.94.91 2.15.75 3.3s-.82 2.5-1.88 3.11a60 60 0 0 1-17.72 10.23 80 80 0 0 1-27.66 5.04h-.8c-5.66 0-11.3-.66-16.83-1.95z"/><path fill="#84230e" d="M388.82 264.56c-1.87-2.36-.68-5.82 1.8-7.18 2.27-2.06 5.41-6.9 8.52-3.35 1.88 2.39.64 5.64-1.68 7.2-2.27 2.1-5.57 6.84-8.66 3.33z"/><path fill="#654b2f" d="M391.1 369.39c.38 4.77-3.34 4.77-6.65 5.43-12.33 4.33-25.16 8.14-37.96 10.3-4.36-.17-4.73-7.47-.54-8.24 8.85-1.85 17.74-3.56 26.31-6.49 4.54-1.1 17.67-8.8 18.84-1M252.05 237.87c2.41 16.55-16.18 17.02-27.13 21.35-12.83 5.22-18.5 19.94-7.51 30.22.53.42.96 1 1.21 1.64q.1.02.22.09-.05.16-.05.3a4.5 4.5 0 0 0 .2 2.23 4.3 4.3 0 0 0 1.76 2.34c-.68 2.74-3.2 5.57-4.3 7.91a243 243 0 0 1-10.8 15.61q-.43.38-.93.54a3 3 0 0 0-.28-.49 3.7 3.7 0 0 0-1.45-1.36 3.1 3.1 0 0 0-3.35.21c-16.6-12.82-28.5-33.21-22.3-54.56 1.12-5.27 3.55-10.11 6.17-14.8 1.53-2.52 3.05-6.8 6.65-6.38 3.6.77 3.96 6.18 1.05 7.84-15.3 22.21-8.59 44.47 11.5 60.37q.24-.33.49-.61c3.58-4.73 6.74-9.62 9.62-14.66-.4-.44-.73-.9-1.08-1.33-9.74-9.8-9.36-26.5.68-35.98 4.57-4.56 10.56-7.44 16.71-9.2 5.97-1.85 18.52-2.62 15.76-11.65-3.1-8.57-11.28-9.79-19.36-8.97-5.92.63-11.28 3.37-16.6 5.6-3.88-.07-4.82-6.32-1.5-7.96 15.43-8.87 40.88-10.35 44.74 11.65zm24.65 84.37a11.6 11.6 0 0 0-1.22-7.24c-5.48-8.47-25.17-8.47-29.76.6 3.3-1.88 7.5-2.3 11.22-2.4 6.76-1.03 13.06 3.1 15.84 9.18l.14.33c1.17.54 2.88.37 3.8-.47zm6.06-8.52c2.83 8.63.56 19.05-10.58 17.37-2.23-.33-4.36-1.92-5.04-3.96a5 5 0 0 1-.54-.75 8 8 0 0 0-2.24-3.11c-1.88-1.57-4.36-1.97-6.96-1.92-1.28 0-2.62.14-3.93.28-2.17.12-3.95 1.38-5.92 1.99a5.5 5.5 0 0 1-6.27-1.17c-8.34-10.35 3.93-19.8 14.46-21.6 1.62-.26 3.19-.38 4.61-.26q2.02-.1 4.05.11c7.9.85 15.87 5.22 18.36 13.02M385.2 392.5c3.58 9.48-23.88 11.75-29.9 11.26-1.96 0-3.97 0-5.92-.28-3.58-.42-4.63-5.2-2.24-7.6a3.1 3.1 0 0 1 3.93-.54c10 .58 20.48.02 29.42-4.9 1.92-.95 3.94.1 4.7 2.02z"/><path fill="#654b2f" d="M325.46 382.76v.05a4.2 4.2 0 0 1-1.94 3.84 3.1 3.1 0 0 1-3.42-.19 4.4 4.4 0 0 1-1.69-3.25v-.63c0-1.53-.14-3.05-.18-4.57q-.21-5.1-.47-10.2l-.19-3.73-1.85 1.8q-2.89 2.77-5.73 5.53-1.82 1.77-3.63 3.58-.43.67-1.15 1.13l-.9.86q-.15.14-.29.21c.54.63.89 1.43.91 2.3q0 .24.03.49v.65l.14 3.94c.2 4.54.46 9.05.65 12.99q.4 7.95.92 15.89.42.96.42 1.92c0 1.97-1.34 4.19-3.51 4.19h-.23c-.66 0-1.34.12-1.76.16q-10.8 1.06-21.6 2.16l-.78-.21q-3.9.44-7.8.84-9.55.94-19.12 2.01-.08.14-.12.26-2.76.28-5.5.58l-.18-.18-5.7.63-.09.19q-14.18 1.48-28.37 3c-2.97.32-5.97.53-8.92 1l-.51.05h-.02q-.76.1-1.5.11h-.33a3.7 3.7 0 0 1-2.93-2.76c-.51-1.9.29-4.61 2.35-5.31a8 8 0 0 1 1.91-.3q.2-.05.4-.05l1.24-.12h.12q.21 0 .42-.05h.14q.14 0 .26-.02l3-.3q5.33-.56 10.67-1.1 11.58-1.24 23.15-2.51c14.75-1.6 29.52-3.14 44.26-4.8q3.7-.43 7.42-.84 2.43-.24 4.85-.54.31-.09.6-.1a2 2 0 0 1 .54.05q-.18-4.76-.42-9.5c-.2-4.61-.49-9.22-.72-13.83q-.11-2.36-.28-4.69c-.05-.6-.05-1.21-.1-1.82q-.07-.41-.09-.87l-.02-.58c0-.96.28-1.92.84-2.67h-.42q-.37-.01-.7-.1-5.6.4-11.17.87l-23.92 1.88a12200 12200 0 0 0-73.36 6.08h-.49l-4.52.42-1.97.17c-.35.02-.7.07-1.05.07q-.31.01-.68-.05a3.5 3.5 0 0 1-2.2-1.48 4.3 4.3 0 0 1-.28-4.7 3.8 3.8 0 0 1 2-1.83 9 9 0 0 1 1.84-.28l2.79-.18 5.57-.4 12.08-.92 25.11-1.96a9096 9096 0 0 0 49.6-4.03c6.53-.54 13.09-1.05 19.1-1.59l.52-.05h.23q.55-.23 1.17-.25c-.21-4.87-.47-9.74-.66-14q-.19-4.65-.4-9.25c-.18-3.67-.48-7.3-.72-10.98v-.16c-.07-1.97.92-4.19 3.07-4.52 1.05-.16 2.1.26 2.83 1.03.77.8 1.08 1.83 1.15 2.67v.47l.32 10.37c.14 3.09.36 6.18.52 9.27q.2 3.83.42 7.65l.21 4.26.9-.84 5.73-5.55q2.67-2.55 5.31-5.15l.44-.42.22-.2q-.01-.38-.05-.5v-.21l-.26-5.17-.56-11.12c-.07-1.22-.12-2.44-.17-3.04q-.28-5.55-.63-11.1-.08-1.8-.2-3.6v-.54q-.07-.56-.1-1.08h-.12q-2.84.2-5.69.37-9.51.62-19 1.34-1.32.12-2.62.2h-.12c-2.1 0-3.49-2.12-3.56-4.04-.07-2.06 1.24-4.14 3.4-4.28h.23c5.45-.21 10.93-.7 16.36-1.08q6.3-.43 12.62-.91.48-.02.96-.07c1.9-.47 3.4 1.07 3.93 2.76v.05a6 6 0 0 1 .44 2.03c.21 4.38.38 8.73.57 12.53.28 5.5.63 11 .95 16.47.12 2.41.29 4.8.43 7.21.07 1.13.04 2.3.18 3.42q.16.63.12 1.26c.16.9.1 1.83-.26 2.65l.7 14c.2 3.58.31 7.16.6 10.74q.06.36.06.7"/><path fill="#6b6b6b" d="M264.14 299.7q.22.46.3 1a24 24 0 0 0-4.05-.13 20 20 0 0 0-4.61.26c-3.42-2.85-8.8-3.09-12.85-2.2-.84.19-1.64.54-2.41.91a13 13 0 0 1-.94 4.1c-2.55 7.56-7.63 13.93-11.98 20.5q-.42.5-.84 1.1v.03q-.29.6-.73 1.08a8 8 0 0 1-1.85 2.66q-.5.46-1.08.75l-.46-.7q-.3-.67-.64-1.33c-.68-1.22-1.87-2.23-3.2-2.27h-.38q.09-.7.38-1.38a8 8 0 0 1 1.26-2.13 6.6 6.6 0 0 1 1.83-2.4q.1-.14.2-.32c2.91-5.43 13.54-16.83 10.68-22.56-1.87-2.3-5.76-3.54-8.07-1.22-1.4 1.26-2.79 1.26-3.84.58q-.46-.28-.82-.7-.2-.2-.35-.47-.16-.21-.28-.47a7 7 0 0 1-.3-.72 5 5 0 0 1-.27-1.69v-.25s0-.2.05-.29q0-.14.05-.3c.16-.72.49-1.43 1.1-2.01 6.06-5.83 14.28-3.19 18.23 2.55 6.74-2.81 14.96-2.48 20.95 1.85a14.7 14.7 0 0 1 4.99 6.13zm-53.91-81.72c.2 2.25-1.08 4.75-3.51 4.75h-.1c-1.47-.05-2.67-1.15-3.16-2.48a5 5 0 0 1-.28-1.78v-.26c.05-1.12-.1-2.31-.12-3.44q-.07-2.87-.16-5.7-.25-9.95-.59-19.88l-.11-3.98-.05-1.03c-.19-4.61-.47-9.22-.56-13.81-.05-2 1.54-4.15 3.63-4.07 1.99.04 3.16 1.82 3.4 3.62h.01c.29 7.03.31 14.05.57 20.88v.42c.1 1.97.16 3.94.2 5.32.15 3.72.26 7.42.38 10.5.1 2.47.17 4.95.26 6.94.05 1 .07 2 .1 2.43.02.54 0 1.12.06 1.62z"/><path fill="#000" d="M399.03 203.2a4.5 4.5 0 0 1-.58-2.25v-.22c.09-1.91-.2-3.9-.3-5.82q-.3-5.08-.66-10.12l-1.53-22.21-1.21-17.49q-.27-3.74-.5-7.49-.14-2.06-.2-4.1c-.05-1.58-.03-3.15-.1-4.74a5 5 0 0 1 .5-2.81 3.1 3.1 0 0 1 2.08-1.62c1.07-.2 2.1.33 2.76 1.17.7.9.84 2 .93 3.07l.42 3.51q.31 2.86.5 5.71 0 .25.04.5v.09c.92 12.1 1.62 24.22 2.42 36.33.4 6.06.79 12.14 1.23 18.11l.43 5.67v.32q.06.64.16 1.2v.14l-.1-.52-.09-.2q.19.62.24 1.05v.2q.06.96-.28 1.9c-.52 1.34-1.71 2.44-3.19 2.46h-.04c-1.27 0-2.34-.8-2.95-1.87z"/><path fill="#000" d="M459.06 225.55c-.75-.33-1.57-.56-2.34-.82l-4.92-1.69-11.68-3.93q-11.68-3.9-23.36-7.84l-8.99-3.02q-2.1-.71-4.2-1.38c-.83-.28-1.76-.47-2.56-.84a3.9 3.9 0 0 1-2.27-2.81c-.56-2.41 1.12-5.76 4-5.17.47.09.96.28 1.43.46l2.67.92q2.78.95 5.55 1.87l11.86 4 23.43 7.89c4.38 1.47 8.76 3.04 13.18 4.38 1.97.23 3.14 2.39 3.1 4.23-.06 2.04-1.48 4.1-3.66 4.1q-.67-.01-1.26-.3z"/><path fill="#000" d="M449.11 271.8c-1.33-.73-2.88-1.06-4.3-1.48l-.7-.19c2.57-12.85 8.28-25.14 12.16-37.66 1.06-3.37 2.44-6.65 3.52-10 .28-1.07 1.17-2.06 2.34-2.06 4.73.94 1.9 7.19 1.42 10.33-2.94 12.2-8.02 23.69-11.18 35.81-.61 2.01-1.36 4.03-1.78 6.1v.17q-.67-.6-1.48-1.03"/><path fill="#000" d="M446.65 275.06c-4.7-1.52-1.3-10.79 2.98-8.45 2.8 2.25 1.4 9.74-2.98 8.45"/><path fill="#000" d="M434.71 310.04c-4.87.18-5.17-8.15-.33-8.34 4.33-.1 9.5 1.71 10.47-3.3-2.09-1.75-1.8-5.22.18-6.9.64-.42 1.36-.8 1.76-1.5.19-.82-.47-1.57-.8-2.3-1.66-2.87-.23-5.47 1.97-7.4.54-2.85-2.22-4.18-3.65-6.12-2.62-3.8 3.7-10.47 5.85-4.76 4.8 3.7 6.65 11.45 3 16.53 1.28 3.28.8 7.2-1.43 9.97.98 5.27-2.1 11.96-7.4 13.7-3.13.67-6.46.53-9.66.4zm-21.21 25.44h-.05q-.04 0-.07.02.07 0 .14-.05zm-1.07.63-.03.03.05-.05zm-.8.67-.08.1z"/><path fill="#000" d="M413.48 342.7c-2.27-.8-2.88-3.42-2.22-5.48l.3-.35q.4-.39.84-.72l.05-.03.19-.14.7-.4.1-.06 1-.4h.05-.07l.19-.07h-.12.05l.2-.07.94-.17.21-.02c2.46.35 5.4-.05 7.47-1.34 1.94-3.6 6.97-35.71 12.83-28.79 1.21 2.58.54 5.67 0 8.36-1.03 4.54-2.32 9.04-3.54 13.55-1.54 4.24-1.61 9.39-4.47 12.95-2.62 2.57-6.58 3.72-10.37 3.72-1.5 0-3-.19-4.35-.51z"/><path fill="#000" d="M414.51 335.09h.06-.03l-.08.02h.05z"/><path fill="#000" d="M405.6 350.4a4 4 0 0 1-1.34-1.3l.12-1.69q.06-.24.09-.5.16-.83.3-1.7v-.16q.23-.39.5-.73.27-.39.58-.75l.07-.07.38-.3.16-.2a8.8 8.8 0 0 0 4.8-5.75l.12-.23.11-.14q.43-.4.9-.78s-.06.05-.08.05l.26-.19.7-.4.12-.04 1.05-.42h.02l.08-.03.2-.07.38-.07a4.27 4.27 0 0 1 2.62 5.8c-1.4 4.36-5.55 9.86-10.48 9.86a7 7 0 0 1-1.67-.2z"/><path fill="#000" d="M404.43 356.02c-.12-1.62-.3-3.23-.25-4.85q.06-.18.06-.37 0-.43.03-.82.1-.9.37-1.83c1.2-4.89 5.1-4.14 5.95.45.44 2.46.68 4.96.91 7.44-.02 2.74-1.78 4.1-3.53 4.1s-3.5-1.36-3.54-4.1z"/><path fill="#000" d="M381.12 374.94v-5.24c1.31-1.26 3.47-1.87 5.2-2.36 6.7-2.48 11.8-5.83 17.6-9.62 5.88-4.45 10-1.1 4.38 4.51-2.09 2.7-18.07 13.23-25.07 13.23q-1.3 0-2.13-.52z"/><path fill="#000" d="M411.42 426.3c.7-5.96-2.65-6.1-7.45-5.78-3.95.38-7.81.85-11.68 1.71-4.77 2.32-8.14 1.95-8.3-4.14-.29-6.86.04-13.76-.24-20.62-2.55-1.17-2.48-4.14-2.39-6.58q-.27-8.92-.19-17.88v-.68c.29-3.65 5.08-5.4 6.77-1.29.58 6.34-.16 12.92.47 19.36 2.83 2.06 2.27 6.06 2.43 9.15.19 4.85 0 9.72.1 14.56 8.4-1.15 21.79-5.76 26.35 4.26 1.27 3.51 3.1 11.47-2.3 12.1-2.17 0-3.53-2.17-3.53-4.16z"/><path fill="#000" d="M439.49 482.32c-1.85-1.01-2.56-3.63-1.71-5.53a47 47 0 0 0 3.74-11.66c2.7-17.5-4-35.48-24.53-33.5-3.63 1.58-6.39-3.1-4.54-6.12 1.33-2.56 4.54-2.09 6.95-2.23 4.4-.33 8.76.68 12.67 2.72 12.03 4.65 16.57 18.2 16.87 30.15.8 4.49-2.36 29.82-9.43 26.17z"/><path fill="#000" d="M441.91 496.5c-.3-1.7.75-3.14.82-4.8-.02-1.85 0-3.75-.49-5.53-.72-1.4-2.27-2.13-3.32-3.23-3.82-3-.33-10.9 4.23-7.07 1.03 1.73 2.9 2.65 4.05 4.3 3.1 3.94 4.1 16.42-.42 19.44-2.22 1.1-4.54-.63-4.84-3.1zM325.8 473.51c-5.89-7.91-3.01-20.8 6.63-24.2 1.43-9.06 5.5-18.3 12.3-24.6 1.84-2.11 5.14-3.5 6.8-.38 1.15 2.06.54 4.78-1.07 5.78-6.49 4.78-10.04 13.18-11.14 21 .06 2.22-.52 4.87-2.88 5.69-3.89.35-7.14 3.7-6.65 7.7.19 2.93 2.46 5.03 4.05 7.28 1.43 2.32.26 6.44-2.83 6.41-2.42 0-3.94-2.85-5.2-4.68"/><path fill="#000" d="M411.97 510.1s-.05 0-.05-.02q-.21-.08-.42-.19l-.1-.05-.3-.14c-2.43-1.07-4.98-1.99-7.46-2.95l-10.16-3.88q-11.15-4.24-22.29-8.45c-11.2-4.22-22.44-8.36-33.6-12.69q-3.28-1.25-6.58-2.43c-2.04-.73-2.84-3.26-2.32-5.22.49-1.87 2.43-3.54 4.42-2.74 8.78 3.46 17.6 6.79 26.4 10.16a9616 9616 0 0 0 43.14 16.5q3.3 1.25 6.58 2.46c1.36.51 2.72 1.05 4.12 1.47q.1.01.21.05c2.34.37 3.4 3.25 2.86 5.36a4 4 0 0 1-1.92 2.55q-.7.38-1.48.38-.57 0-1.07-.2z"/><path fill="#000" d="M415.89 510.92a15 15 0 0 1-6.1-2.18 14 14 0 0 1-2.73-2.3c-.89-1-1.52-2.17-1.36-3.55a2.8 2.8 0 0 1 1.74-2.32c1.07-.42 2.08.22 3.01.7.68.29 1.36.48 1.97.66 1.71.45 3.44.82 5.22 1a32.7 32.7 0 0 0 19.6-4.46 26 26 0 0 0 2.24-1.66q.7-.64 1.36-1.34.38-.44.72-.94.2-.34.38-.7.1-.21.16-.42c0-.07.05-.14.05-.2q.08-.65.3-1.25c.61-1.5 2.09-2.64 3.77-2.34 2.46.44 3.42 3.23 2.81 5.38q0 .08-.05.14 0 .08-.04.14c-.17.54-.3 1.08-.52 1.6-.37.95-.91 1.87-1.5 2.76a21 21 0 0 1-5.2 5.17 36 36 0 0 1-13.29 5.62 38 38 0 0 1-7.82.87q-2.38 0-4.73-.36zM319 401.66c.31-6.82-.95-13.84-.16-20.56 2.06-4.75 7.52-1.61 6.72 2.48-.12 5.67.14 11.4.47 17l-.35.93-.68.82a71 71 0 0 0-2.41 3.16l-.19.28c-1.68-.07-3.35-1.45-3.4-4.12"/><path fill="#000" d="M325.54 386.43c-2.67-.12-6.27.35-6.98-3.06-.53-2.23.5-4.87 2.9-5.39 7.92.94 16.37-1.47 24.1-2.39 4.37.17 4.77 7.52.53 8.29-6.83.8-13.62 2.53-20.53 2.55z"/><path fill="#000" d="M343.76 427.93c-1.38-4.57-.44-9.83-1.05-14.51-.19-3.38-.54-7.07-.84-10.47-.1-2.15-.17-4.89 1.9-6.2v.02c-.26-4.02-.26-8.05-.48-11.98-.35-2.77-.89-6.93 2.7-7.7 2.13-.42 3.97 1.78 4.02 3.67.42 4.94.47 9.95.7 14.89.2 2.67.5 5.73-1.75 7.65.65 7.14.89 14.12 1.15 21.21 1.26 4-3.94 7.6-6.37 3.44zm-38.55-14.46c3.05-5.33 9.7-9.64 13.58-14.74 2.86-4.45 7.4-.8 6.65 3.02l-.5.58a71 71 0 0 0-2.4 3.16q-.24.32-.45.68l-.23.35c-3.93 4.22-7.89 8.55-12.27 12.13q-.53.19-1.03.19c-2.36 0-3.98-2.98-3.35-5.37"/><path fill="#000" d="M274.92 504.38c-34.09-1.66-61.64-28.16-72.31-59.43a96 96 0 0 1-4.28-16.87c-.43-2.02.2-4.5 2.36-5.25 2.25-.8 4.26 1.22 4.52 3.37 4.89 34.46 32.09 66.9 68 69.94 7.11.9 18.2-1.47 17.74-10.5-.56-1.97-2.3-3.54-2.13-5.74.07-1.78.84-3.25 1.54-4.78 5.55-10.34 5.57-26.42-5.5-32.98-2.06-.54-3.37-2.83-3-4.91.55-1.71.9-3.37 1.32-5.08 2.67-4.2 8.12-6.56 10.81-11.12 1.6-2.48 2.18-5.15 3.94-7.4 2.15-2.06 5.5-1.33 8.07-2.5 2.97-3.12 6.88-.73 6.41 3.32-.8 4.4-6.22 5.27-9.92 5.92-2.62 6.42-7.19 11.38-12.6 15.55 13.25 10.08 13.63 29.98 6.3 43.8 7.07 14.1-7.49 26.25-21.25 24.66z"/><path fill="#000" d="M186.47 430.83c-2.64-.75-4.65-2.77-6.46-4.78-.9-1.05-2.22-2.5-2.15-3.98.16-3.04 3.9-4.3 6.34-2.93 1.85 1.27 2.65 3.52 4.55 4.78 3.74-.28 7.41-.59 11.11-1.22 3.19-.93 7.63 2.02 5.25 5.39a4.5 4.5 0 0 1-4.24 1.56c-4.75.5-9.88 1.6-14.42 1.15z"/><path fill="#000" d="M181.73 425.97c-2.3 0-4.28-2.36-4.17-4.6v-.57c.1-1.12.05-2.27 0-3.4l-.2-5.61q-.26-6.06-.55-12.1-.52-11.94-1.12-23.88c-.23-4.89-.5-9.78-.73-14.68q0-.41-.04-.77c0-.44-.05-.91-.05-1.05-.23-4.28-.47-8.57-.66-12.31q-.25-5-.58-10c-.05-.91.05-1.8.56-2.6a3.1 3.1 0 0 1 2.62-1.4c2.44 0 4.1 2.36 4.15 4.63.16 6.84.49 13.67.75 20.5q.47 11.9 1.03 23.8c.44 10.13.9 20.26 1.42 29.86l.05.58q.15 2.96.33 5.9c.04.99.12 2 .2 2.72q.07.3.1.58.05.19.05.33v.07c.28 2-1.08 4-3.16 4h-.02zm-4.03-5.7q-.06.55-.16 1.07l.91-2.44q-.37.7-.75 1.36m9.48-111.02c-6.27-6.3-12.17-13-17.56-19.92-15.96-20.32-28.88-44.47-28.39-70.95v-.14h3.16q2.04.01 4.07.1c-.82 29.4 16.3 55.63 35.16 76.91 2.06 3.28 26.7 24.53 16.3 24.95-5.4-1.7-8.8-7.18-12.76-10.95z"/><path fill="#000" d="M174.73 338.28c-1.1-1.48-1.41-3.77-.12-5.24q.44-.5 1.05-.78 1.29-.96 2.53-2.03l4.17-3.4q3.91-3.22 7.81-6.48 2.32-1.92 4.66-3.77c.61-.5 1.24-.94 1.87-1.43.96-.75 1.92-1.38 3.24-1.22q.6.07 1.12.36l.2.37.52.96q.49.87.96 1.78v.07-.03q.01.06.05.1s0-.05-.05-.05q.3.58.56 1.17c-.14 1-.72 1.83-1.5 2.55q-.85.81-1.75 1.55c-1.45 1.26-2.97 2.48-4.47 3.7q-3.74 3.04-7.54 6.06c-2.5 2.04-5.05 4.03-7.46 6.13l-.07.07q-.39.57-.99.9-.74.4-1.52.39c-1.26 0-2.5-.75-3.28-1.76zm-31.88-112.45a3 3 0 0 1-1.5-1.43 3.4 3.4 0 0 1-.3-2.08c.07-1.29.07-2.6.19-3.9q.3-3.34 1-6.6a60 60 0 0 1 7.78-18.94 62 62 0 0 1 15.75-17.1c6.74-5 14.68-8.63 23.06-9.73 3.86-.51 7.81-.47 11.65.23 2.67.5 5.43 1.22 7.92 2.44q.66.34 1.1.87l-.15 1.68-.11.7-.21 1.43-.17.26-1.21 1.8c-1.08.56-2.37.7-3.52.19q-1.31-.62-2.64-1.13a33 33 0 0 0-3.42-.96 36 36 0 0 0-3.5-.44q-2.1-.11-4.2.02-2.24.2-4.45.66a41 41 0 0 0-13.85 5.94 58 58 0 0 0-5.27 3.98 60 60 0 0 0-4.42 4.33 59 59 0 0 0-4.12 5.13 70 70 0 0 0-3.63 5.85l-.14.26-.05.12a50 50 0 0 0-4.47 12 50 50 0 0 0-.96 6c-.1 1.28-.21 2.62-.14 3.9v.5q.01.27-.05.58 0-.03.03-.07-.01-.21.04-.42.01.22-.04.44a4.6 4.6 0 0 1-2.3 3.21c-.68.4-1.47.63-2.24.63q-.79 0-1.5-.3zm44.68 22.7c-7.19-12.04-9.16-29.29 5.45-36.54 7.16-4.1 15.92-.78 17.06 7.77.78 3.77 2.28 8.82.54 12.38a4 4 0 0 1-.93 1.5l-.78.49q-.61.31-1.16.63s-.05.05-.08.05h-.04.07q-.57.35-1.1.77c-4.78 3.04-8.45 7.5-11.54 12.15l-.14.16q-.43.5-.82 1.03l-1.12 1.4q-.37.47-.73.97-.5.14-.98.14a3.8 3.8 0 0 1-3.66-2.88zm2.92-23.79c-2.8 4.57-.86 10.23.54 14.94 3.68-4.73 7.89-9.25 13.16-12.17a27 27 0 0 0-1.71-8.43 6 6 0 0 0-2.55-.59c-3.72 0-7.3 3.47-9.44 6.25m-24.73-87.17c-9.04-.82-11.47-11.77-7.66-18.77 3.68-7.02 11.94-10.88 19.62-11.38 2.57.64 5.15.26 7.44 1.6 2.06 1.3 3.4 3.44 3.09 5.96-.35 3.68-4.38 5.62-6 8.5-3.93 6.58-6.85 16.01-16.5 14.1m2.52-8.05c2.86-.12 3.98-2.93 5.04-5.15 1.59-2.88 3.1-5.85 5.22-8.4h.07-.07c-4.73-.7-9.72 1.96-13.11 5.15-3.2 3.55-3.04 8.9 2.85 8.42zm-3.4-30.46c-1.29-.85-1.85-2.46-1.74-3.94a4.4 4.4 0 0 1 1.18-2.69q-.04.01-.08.05l-.32.42-.28.5a17 17 0 0 1 2.15-3.2 14 14 0 0 1 4.68-3.34c3.84-1.78 8.31-2.13 12.48-1.7a41 41 0 0 1 9.2 2.08 37 37 0 0 1 6.27 2.76c1.69.96 2.06 3.44 1.47 5.1-.63 1.78-2.71 3.42-4.6 2.41l-1.06-.58a40 40 0 0 0-4.47-2q-.04 0-.07-.02h-.1a31 31 0 0 0-5.33-1.4 35 35 0 0 0-4.7-.38q-1.69.01-3.33.26-1.2.26-2.39.63-.77.3-1.54.68-.45.25-.87.56-.39.31-.75.66l-.44.5-.14.2-.33.68q.11-.23.19-.47v-.04l-.03.04c-.56 1.52-1.9 2.76-3.4 2.76q-.81.01-1.68-.53z"/><path fill="#000" d="M175.86 113.63c-12.24.4-20.36-14.24-10.04-22.64 1.85-1.1 3.98.21 4.68 2.01.7 1.78.26 4.08-1.28 5.25a6 6 0 0 0-1.08 2.13c.47 3.95 6.5 5.99 9.83 4.58 4.94-4.4 10.6-7.79 17.3-7.79-1.43-2.65.77-7.1 4.07-5.92 4.17 2.15 4.61 8.73 1.26 11.82-3.67 3.93-9.87 1.4-13.78 5l.07-.04.07-.05c-3.56 2.2-6.5 6.16-11.12 5.67zm32.93 9.14.1.05q-.03.01-.1-.05m2.33.83.13.05a.2.2 0 0 1-.13-.05m182.82 5.23q-.28-.23-.53-.51a31 31 0 0 0-2.74-2.22 44 44 0 0 0-3.8-2.25c-2.45-1.24-5-2.3-7.56-3.2-4-1.41-8.07-2.51-12.19-3.47a211 211 0 0 0-25.12-3.96l-.51-.05a336 336 0 0 0-40.87-1.17 387 387 0 0 0-43.21 3.63l-3.89.59h-.04l-.33.04q-3.65.58-7.26 1.22l-1.78-1.2q-1.71-1.12-3.5-2.22-1.4-.81-2.77-1.64l-.12-.09-.46-.33c4.16-.81 8.33-1.59 12.52-2.24q.14-.01.23-.05a417 417 0 0 1 42.46-4.38c15.85-.8 31.81-.7 47.61.73.94.1 1.85.16 2.23.2 13.62 1.3 27.4 3.3 40.35 7.9a67 67 0 0 1 10.32 4.56c1.53.87 3.07 1.8 4.52 2.86l.54.91c0 .02.05.07.05.1 0-.03-.05-.05-.05-.08q.9 1.66 1.76 3.35v.05l.16.54q.15.48.28 1v.07l.1.45q-.24.32-.54.6a5 5 0 0 1-3.21 1.18c-1 0-1.97-.3-2.67-.96z"/><path fill="#000" d="M201.36 138.17c-20-6.42-11.56-30.71 7.4-29.5 1.61-9.76 13.9-10.13 21.46-7.53a64 64 0 0 1 19.45 11.2c1.24 1.76.17 3.99-1.59 4.85-1.76.9-4.33.64-5.55-1.05a107 107 0 0 0-10.53-6.39c-3.28-1.76-13.93-5.78-15-.28 3.5 4.03-.2 7.8-4.8 6.72-8.03-2.53-17.8 3.58-12.78 12.17 1.87 3.09 8.24 2.57 7.44 7.11-.6 2.4-3.35 3.23-5.52 2.7z"/><path fill="#000" d="M201.19 170.93c-.87-11.98-2.72-24.04-2.25-36.05.82-3.95 7.82-4.12 8.3.12-.6 11.59 1.25 23.36 2.23 34.97l-.12 1.31q0 .14-.04.26c-.56 1.64-2.4 2.5-4.15 2.5-1.9 0-3.72-.98-3.97-3.1m1.9-32.02c1.1 0 2.17-.42 2.96-1.15a5.2 5.2 0 0 1-2.97 1.15"/><defs><filter id="crests-blitzscale-filter0_d_23_8" width="369.82" height="472.29" x="118" y="68" color-interpolation-filters="sRGB" filterUnits="userSpaceOnUse"><feFlood flood-opacity="0" result="BackgroundImageFix"/><feColorMatrix in="SourceAlpha" result="hardAlpha" values="0 0 0 0 0 0 0 0 0 0 0 0 0 0 0 0 0 0 127 0"/><feOffset dx="12" dy="12"/><feComposite in2="hardAlpha" operator="out"/><feColorMatrix values="0 0 0 0 0 0 0 0 0 0 0 0 0 0 0 0 0 0 0.4 0"/><feBlend in2="BackgroundImageFix" result="effect1_dropShadow_23_8"/><feBlend in="SourceGraphic" in2="effect1_dropShadow_23_8" result="shape"/></filter></defs></svg>