<svg xmlns="http://www.w3.org/2000/svg" fill="none" viewBox="0 0 600 600"><g filter="url(#crests-buisness-sales-filter0_d_23_11512)"><mask id="crests-buisness-sales-path-1-outside-1_23_11512" width="431" height="385" x="87" y="109" fill="#000" maskUnits="userSpaceOnUse"><path fill="#fff" d="M87 109h431v385H87z"/><path d="M299.6 128.64c7.4-.72 14.6-3.02 22.09-2.59 8.18.67 17.08 6.03 18.66 14.57.3 1.45.88 4.28.92 6.9q2.23-.18 4.49-.18c8.9-.77 17.8 7.06 16.34 16.27-2.3 11.22-10.17 21.03-19.07 27.9-1.36.88-3.51 3.6-5.75 5.79 4.28 3.6 6.38 9.46 6.18 15.05a24 24 0 0 1-1.07 5.56q.6.36.92.88c17.94 11.64 34.92 24.46 48.85 40.9a130 130 0 0 1 22.15 39.16q.38-.01.74-.11c4.23-.96 8.22-2.9 12.1-4.84 2.7-1.24 5.12-3.06 7.56-4.73l.12-.08.06-.1c-.47-5.02 2.76-10.5 7.75-11.74.75-.27 1.6-.52 2.45-.62 1.18-2.25 1.5-5 .9-7.46-.22-1.52-1.24-3.52-1.61-5.33q-.15-.39-.22-.85c-.62-4.69 4.4-7.56 8.47-8.03 4.24-.27 8.19 2.32 10.65 5.64a22 22 0 0 1 2.29 3.93c4.6-2.22 9.5-4.13 14.64-2.47 13.82 5.62 22.39 23.09 19.25 37.56-2.8 10.65-14.14 14.97-24.1 16.9q.14 1.36-.14 2.7c-.84 6.4-7.08 10.62-13.35 9.9v.02a11.2 11.2 0 0 1-8.19-3.1c-7.15 5.77-15.62 9.48-24.45 11.9-1.56.3-3.27.97-4.97 1.34q.58 3.89 1.31 7.73c.46 2.96.55 5.92.46 8.9 5.53-2.38 11.89-2.16 17.56-.36 12.37-7.2 29.17-2.58 35.72 10.27q.42.67.44 1.35a46 46 0 0 1 3.3 9.7 65 65 0 0 1 1.37 13.23c.04 9.33-1.51 18.63-4.07 27.6a117 117 0 0 1-10.67 25.27 95 95 0 0 1-1.72 2.87c-4.96 7.9-10.96 15.4-18.47 21-.22.15-.41.32-.55.41a42 42 0 0 1-8.6 4.88 35 35 0 0 1-8 2.05c-2.42 2.09-7.39 2.51-10.07 2.29l.02.02c-7.2-1.05-16.63-7.3-18.9-14.35-11.65-6.58-33.06-8.33-32.97-25.39-2.09-2.86-5.23-4.56-8.21-6.35q-.67.13-1.51.08c-21.8 5.29-43.86 11.15-66.51 10.31l-.03.02c-19.14 0-38.06-3.73-56.77-7.48-2.64-.48-5.3-1.16-7.92-1.82a24 24 0 0 1-12.9 9.89c-1.27 4.6-6.75 10.62-9.18 12.14-5.46 4.1-12.18 6.3-18.52 8.62-1.5.78-3.7 1.72-5.22 2.08l-.44.14c-.93 1.52-2.37 2.94-3.34 4.07-5.83 5.5-14.09 9.21-22.22 8.02h-.03c-13.15-.75-22.77-10.63-30.43-20.41-10.02-11.6-15.4-26.13-19.23-40.65-5.7-19.16-8.78-56.62 16.31-62.49 6.5-1.27 13.18-1.15 19.17 1.83q.5-.2 1.05-.22c2.63-.93 5.31-1.99 8.14-1.25 3.13.27 6.31.27 9.25 1.51 2.98 1.18 6.01 2.15 8.84 3.55a57 57 0 0 1-.48-5.25c-.34-6.49.55-12.97 1.9-19.29a117 117 0 0 1 5.49-17.41 181 181 0 0 1 15.26-29.67 252 252 0 0 1 22.78-30.45 270 270 0 0 1 34.38-33.09 296 296 0 0 1 8.05-6.28c-.14-.88-.2-1.78-.29-2.59-.38-4.56.89-9.63 3.89-13.15-5.66-5.07-12.28-9.23-17.2-14.99-4.91-3.92-9.6-8.42-12-14.35-1.96-4.12-2-8.73-1.7-13.19.9-3.58 3.48-6.74 6.1-9.23 4.73-3.73 10.85-3.45 16.56-3.05 1.67-24.15 29.1-16.54 46.15-17.71M433.3 473.9l-.22.1.1-.03zm-126.7-38.95c-7.26-.19-14.52-.4-21.74-.16q3.73.25 7.46.34c4.82.2 9.57.11 14.28-.18"/></mask><path fill="#fff" d="M299.6 128.64c7.4-.72 14.6-3.02 22.09-2.59 8.18.67 17.08 6.03 18.66 14.57.3 1.45.88 4.28.92 6.9q2.23-.18 4.49-.18c8.9-.77 17.8 7.06 16.34 16.27-2.3 11.22-10.17 21.03-19.07 27.9-1.36.88-3.51 3.6-5.75 5.79 4.28 3.6 6.38 9.46 6.18 15.05a24 24 0 0 1-1.07 5.56q.6.36.92.88c17.94 11.64 34.92 24.46 48.85 40.9a130 130 0 0 1 22.15 39.16q.38-.01.74-.11c4.23-.96 8.22-2.9 12.1-4.84 2.7-1.24 5.12-3.06 7.56-4.73l.12-.08.06-.1c-.47-5.02 2.76-10.5 7.75-11.74.75-.27 1.6-.52 2.45-.62 1.18-2.25 1.5-5 .9-7.46-.22-1.52-1.24-3.52-1.61-5.33q-.15-.39-.22-.85c-.62-4.69 4.4-7.56 8.47-8.03 4.24-.27 8.19 2.32 10.65 5.64a22 22 0 0 1 2.29 3.93c4.6-2.22 9.5-4.13 14.64-2.47 13.82 5.62 22.39 23.09 19.25 37.56-2.8 10.65-14.14 14.97-24.1 16.9q.14 1.36-.14 2.7c-.84 6.4-7.08 10.62-13.35 9.9v.02a11.2 11.2 0 0 1-8.19-3.1c-7.15 5.77-15.62 9.48-24.45 11.9-1.56.3-3.27.97-4.97 1.34q.58 3.89 1.31 7.73c.46 2.96.55 5.92.46 8.9 5.53-2.38 11.89-2.16 17.56-.36 12.37-7.2 29.17-2.58 35.72 10.27q.42.67.44 1.35a46 46 0 0 1 3.3 9.7 65 65 0 0 1 1.37 13.23c.04 9.33-1.51 18.63-4.07 27.6a117 117 0 0 1-10.67 25.27 95 95 0 0 1-1.72 2.87c-4.96 7.9-10.96 15.4-18.47 21-.22.15-.41.32-.55.41a42 42 0 0 1-8.6 4.88 35 35 0 0 1-8 2.05c-2.42 2.09-7.39 2.51-10.07 2.29l.02.02c-7.2-1.05-16.63-7.3-18.9-14.35-11.65-6.58-33.06-8.33-32.97-25.39-2.09-2.86-5.23-4.56-8.21-6.35q-.67.13-1.51.08c-21.8 5.29-43.86 11.15-66.51 10.31l-.03.02c-19.14 0-38.06-3.73-56.77-7.48-2.64-.48-5.3-1.16-7.92-1.82a24 24 0 0 1-12.9 9.89c-1.27 4.6-6.75 10.62-9.18 12.14-5.46 4.1-12.18 6.3-18.52 8.62-1.5.78-3.7 1.72-5.22 2.08l-.44.14c-.93 1.52-2.37 2.94-3.34 4.07-5.83 5.5-14.09 9.21-22.22 8.02h-.03c-13.15-.75-22.77-10.63-30.43-20.41-10.02-11.6-15.4-26.13-19.23-40.65-5.7-19.16-8.78-56.62 16.31-62.49 6.5-1.27 13.18-1.15 19.17 1.83q.5-.2 1.05-.22c2.63-.93 5.31-1.99 8.14-1.25 3.13.27 6.31.27 9.25 1.51 2.98 1.18 6.01 2.15 8.84 3.55a57 57 0 0 1-.48-5.25c-.34-6.49.55-12.97 1.9-19.29a117 117 0 0 1 5.49-17.41 181 181 0 0 1 15.26-29.67 252 252 0 0 1 22.78-30.45 270 270 0 0 1 34.38-33.09 296 296 0 0 1 8.05-6.28c-.14-.88-.2-1.78-.29-2.59-.38-4.56.89-9.63 3.89-13.15-5.66-5.07-12.28-9.23-17.2-14.99-4.91-3.92-9.6-8.42-12-14.35-1.96-4.12-2-8.73-1.7-13.19.9-3.58 3.48-6.74 6.1-9.23 4.73-3.73 10.85-3.45 16.56-3.05 1.67-24.15 29.1-16.54 46.15-17.71M433.3 473.9l-.22.1.1-.03zm-126.7-38.95c-7.26-.19-14.52-.4-21.74-.16q3.73.25 7.46.34c4.82.2 9.57.11 14.28-.18"/><path fill="#fff" d="m299.6 128.64 1.17 16.96.48-.04zm22.09-2.59 1.38-16.94-.4-.03zm18.66 14.57-16.72 3.1.09.42zm.92 6.9-17 .33a17 17 0 0 0 18.38 16.62zm4.49-.18v17q.73 0 1.46-.06zm16.34 16.27 16.65 3.4.14-.74zm-19.07 27.9 9.3 14.23q.55-.37 1.09-.78zm-5.75 5.79-11.88-12.15a17 17 0 0 0 .94 25.15zm6.18 15.05 16.92 1.66q.05-.52.07-1.05zm-1.07 5.56-16.04-5.63a17 17 0 0 0 7.19 20.14zm.92.88-14.28 9.22a17 17 0 0 0 5.03 5.05zm48.85 40.9 13.16-10.76-.19-.22zm22.15 39.16-16.05 5.6a17 17 0 0 0 17.03 11.37zm.74-.11-3.75-16.58q-.5.1-.97.25zm12.1-4.84-7.1-15.44-.5.24zm7.56-4.73 9.62 14.01.15-.1zm.12-.08 9.36 14.19a17 17 0 0 0 4.9-4.95zm.06-.1 13.9 9.8a17 17 0 0 0 3.02-11.36zm7.75-11.74 4.1 16.5q.9-.22 1.76-.54zm2.45-.62 1.95 16.9a17 17 0 0 0 13.1-9zm.9-7.46-16.84 2.34q.12.83.31 1.65zm-1.61-5.33 16.64-3.45q-.25-1.26-.7-2.46zm-.22-.85-16.85 2.24.02.15zm8.47-8.03-1.05-16.97q-.47.02-.93.08zm10.65 5.64-13.66 10.12.06.08zm2.29 3.93-15.47 7.06a17 17 0 0 0 22.87 8.24zm14.64-2.47 6.4-15.75q-.58-.24-1.18-.43zm19.25 37.56 16.44 4.33q.1-.36.18-.73zm-24.1 16.9-3.24-16.68a17 17 0 0 0-13.68 18.25zm-.14 2.7-16.65-3.45q-.12.62-.2 1.24zm-13.35 9.9 1.94-16.9a17 17 0 0 0-18.94 16.9zm0 .02.67 16.99a17 17 0 0 0 16.33-16.99zm-8.19-3.1 11.94-12.1a17 17 0 0 0-22.6-1.13zm-24.45 11.9 3.17 16.71q.68-.13 1.34-.3zm-4.97 1.34-3.62-16.6a17 17 0 0 0-13.2 19.11zm1.31 7.73 16.8-2.57-.1-.64zm.46 8.9-16.99-.5a17 17 0 0 0 23.7 16.11zm17.56-.36-5.15 16.2a17 17 0 0 0 13.7-1.5zm35.72 10.27-15.14 7.73q.35.68.77 1.34zm.44 1.35-17 .59c.09 2.29.63 4.53 1.6 6.6zm3.3 9.7 16.63-3.56-.02-.06zm1.37 13.23 17-.09zm-4.07 27.6 16.33 4.71.02-.04zm-10.67 25.27 14.76 8.43.02-.04zm-1.72 2.87 14.4 9.03.03-.06zm-18.47 21 9.43 14.15.73-.51zm-.55.41-9.43-14.14-.45.31zm-8.6 4.88-6.39-15.75-.01.01zm-7.62 1.99L430 457.33q-.63.1-1.24.25zm-.38.06-1.57-16.93a17 17 0 0 0-9.55 4.06zm-10.07 2.29 1.43-16.94a17 17 0 0 0-13.45 28.96zm.02.02-2.46 16.82a17 17 0 0 0 14.48-28.84zm-18.9-14.35 16.18-5.21a17 17 0 0 0-7.82-9.6zm-32.97-25.39 17 .1a17 17 0 0 0-3.27-10.13zm-8.21-6.35 8.71-14.6a17 17 0 0 0-11.7-2.13zm-1.51.08 1.04-16.97q-2.56-.15-5.05.45zm-66.51 10.31.62-16.99a17 17 0 0 0-12.64 4.97zm-.03.02v17a17 17 0 0 0 12.02-4.97zm-56.77-7.48 3.35-16.67-.3-.06zm-7.92-1.82 4.18-16.48a17 17 0 0 0-18.6 7.47zm-12.9 9.89-5.19-16.2a17 17 0 0 0-11.2 11.68zm-9.18 12.14-9.05-14.4q-.6.38-1.15.8zm-18.52 8.62-5.84-15.97q-1.05.39-2.05.9zm-5.22 2.08-3.93-16.54q-.48.11-.95.25zm-.44.14-5.36-16.13a17 17 0 0 0-9.12 7.24zm-3.34 4.07 11.66 12.37q.68-.62 1.26-1.31zm-22.22 8.02 2.47-16.82q-1.23-.18-2.47-.18zm-.03 0-.95 16.97.95.03zm-30.43-20.41 13.4-10.48-.53-.63zm-19.23-40.65 16.44-4.33-.15-.5zm16.31-62.49L121 336.24l-.6.13zm19.17 1.83-7.55 15.23a17 17 0 0 0 13.91.53zm1.05-.22.42 17a17 17 0 0 0 5.26-.98zm8.14-1.25-4.32 16.45q1.42.37 2.9.5zm9.25 1.51-6.62 15.66.37.15zm8.84 3.55-7.54 15.23a17 17 0 0 0 24.37-17.64zm-.48-5.25 16.97-.84v-.04zm1.9-19.29-16.6-3.66v.08zm5.49-17.41 15.82 6.2.01-.02zm8.18-17.56-14.98-8.04v.01zm7.08-12.1 14.3 9.18.06-.09zm22.78-30.46-12.83-11.16zm23.49-23.83 11.34 12.66.02-.02zm10.88-9.26-10.6-13.28-.07.05zm8.06-6.28 10.14 13.64a17 17 0 0 0 6.66-16.26zm-.29-2.59-16.94 1.42.03.32zm3.89-13.15 12.95 11a17 17 0 0 0-1.61-23.67zm-17.2-14.99 12.91-11.05q-1.04-1.22-2.3-2.22zm-12-14.35 15.77-6.36-.42-.96zm-1.7-13.19-16.5-4.07q-.34 1.43-.45 2.89zm6.1-9.23-10.53-13.34q-.6.46-1.14.99zm16.56-3.05-1.2 16.96a17 17 0 0 0 18.16-15.78zM433.3 473.92l7.23 15.39a17 17 0 0 0-14.3-30.85zm-.21.1-6-15.91a17 17 0 0 0 10.93 32.17zm.1-.03 6.3 15.78q1.26-.51 2.44-1.2zM306.6 434.96l1.06 16.96a17 17 0 0 0-.64-33.96zm-21.74-.16-.56-17a17 17 0 0 0-.57 33.96zm7.46.34.66-16.98h-.23zm7.29-306.5 1.64 16.92c4.46-.44 9.36-1.41 12.15-1.88 3.36-.56 5.51-.76 7.31-.66l.98-16.97.97-16.97c-5.69-.33-10.88.4-14.85 1.07-4.52.75-6.92 1.28-9.85 1.57zm22.08-2.59-1.4 16.95a7 7 0 0 1 3.24 1.16c.76.55.28.51.1-.45l16.72-3.09 16.71-3.09c-3.5-18.92-21.46-27.4-33.99-28.42zm18.66 14.57-16.63 3.52q.2.95.39 2.08.17 1.2.17 1.63l17-.33 17-.32c-.1-4.4-1-8.64-1.3-10.1zm.92 6.9 1.38 16.95q1.56-.13 3.1-.13v-34q-2.97 0-5.85.24zm4.49-.18 1.46 16.94c-.49.04-.78-.05-.9-.09a1 1 0 0 1-.25-.16 3 3 0 0 1-.54-.9 4.3 4.3 0 0 1-.22-2.18l16.79 2.66 16.79 2.66c1.75-11.05-2.88-20.67-9.34-26.83a32.8 32.8 0 0 0-25.25-9.04zm16.34 16.27-16.66-3.41c-1.2 5.87-5.82 12.47-12.8 17.85l10.4 13.45 10.38 13.46c10.82-8.35 21.94-21.37 25.33-37.94zm-19.07 27.9-9.3-14.24a25 25 0 0 0-3.67 2.99c-.78.74-1.5 1.51-2.03 2.09-1.29 1.38-1.9 2.08-2.63 2.8l11.88 12.15 11.9 12.15c.82-.8 1.57-1.6 2.19-2.26l.87-.94.7-.77.75-.78-.22.2c-.16.13-.55.45-1.14.84zm-5.75 5.79-10.94 13c-.3-.24-.24-.32-.1.03.15.37.25.89.23 1.4l16.99.62 16.99.6c.35-9.74-3.18-21.05-12.22-28.66zm6.18 15.05-16.92-1.66c-.07.73-.13 1.19-.19 1.5s-.07.31 0 .1l16.04 5.62 16.05 5.63a41 41 0 0 0 1.94-9.53zm-1.07 5.56-8.85 14.51a14 14 0 0 1-4.51-4.4l14.28-9.23 14.28-9.22a20 20 0 0 0-6.34-6.17zm.92.88-9.25 14.27c17.35 11.25 32.75 23.02 45.14 37.63l12.96-11 12.97-10.98c-15.49-18.28-34.03-32.16-52.57-44.18zm48.85 40.9-13.15 10.77a113 113 0 0 1 19.25 33.99l16.05-5.6 16.05-5.6a147 147 0 0 0-25.04-44.32zm22.15 39.16.98 16.97c.87-.05 2.52-.19 4.47-.75l-4.71-16.33-4.72-16.33c1.48-.43 2.64-.51 3-.53zm.74-.11 3.74 16.58c6.52-1.47 12.24-4.35 15.96-6.21l-7.6-15.2-7.6-15.21c-4.04 2.02-6.3 3.01-8.25 3.46zm12.1-4.84 7.1 15.45c4.42-2.03 8.52-5.1 10.08-6.17l-9.62-14.01-9.62-14.02c-3.32 2.28-4.05 2.85-5.05 3.31zm7.56-4.73 9.77 13.91-.29.2-9.37-14.19-9.36-14.19-.52.36zm.12-.08 14.27 9.24-.31.46-13.9-9.8-13.9-9.78-.44.64zm.06-.1 16.93-1.56a5.3 5.3 0 0 1-.77 3.41 7 7 0 0 1-4.3 2.9l-4.12-16.49-4.1-16.5c-14.54 3.63-21.67 17.95-20.57 29.81zm7.75-11.74 5.86 15.96-.4.12q-.3.1-1.06.2l-1.95-16.9-1.95-16.88c-2.6.3-4.82.98-6.37 1.54zm2.45-.62 15.06 7.9c3.16-6.02 3.9-13 2.36-19.36l-16.52 4-16.53 3.99a6 6 0 0 1 .58-4.42zm.9-7.46 16.83-2.35c-.22-1.63-.6-3-.87-3.84-.26-.87-.55-1.67-.7-2.1l-.33-.93c-.05-.14.02.04.1.44l-16.64 3.45-16.65 3.46c.27 1.3.61 2.4.87 3.2.24.75.51 1.5.64 1.85.18.48.2.58.2.57l-.1-.37q-.09-.32-.2-1.04zm-1.61-5.33 15.94-5.91q.46 1.24.68 2.67l-16.84 2.4-16.83 2.38q.35 2.35 1.11 4.38zm-.22-.85 16.86-2.23c.29 2.19-.1 4.44-1.03 6.4a10 10 0 0 1-2.66 3.45 5 5 0 0 1-2.71 1.23l-1.99-16.88-1.98-16.89a29 29 0 0 0-14.7 6.1c-4.88 3.95-9.94 11.24-8.64 21.06zm8.47-8.03 1.06 16.96c-1.73.1-2.92-.4-3.42-.68-.46-.26-.6-.46-.65-.52l13.66-10.12 13.66-10.12c-4.61-6.22-13.52-13.23-25.36-12.5zm10.65 5.64-13.6 10.2.12.2.3.58 15.47-7.05 15.47-7.05a39 39 0 0 0-4.16-7.08zm2.29 3.93 7.4 15.3c.97-.46 1.7-.8 2.31-1.03q.9-.34 1.12-.37c.15-.04.03 0-.27 0q-.52 0-1.15-.2l5.23-16.17 5.22-16.18c-12.14-3.92-22.66 1.12-27.26 3.35zm14.64-2.47-6.4 15.75c2.4.98 5.22 3.43 7.21 7.38 2 3.96 2.45 7.98 1.83 10.83l16.61 3.6 16.62 3.6c2.51-11.62.24-23.57-4.71-33.37s-13.34-18.9-24.76-23.54zm19.25 37.56-16.44-4.33a1 1 0 0 1-.16.3c-.16.2-.58.62-1.5 1.17-2.02 1.2-5.16 2.29-9.24 3.08l3.25 16.69 3.24 16.68c5.88-1.14 13.38-3.19 20.22-7.28 7.1-4.26 14.24-11.23 17.07-21.98zm-24.1 16.9-16.92 1.57q-.12-1.08.13-2.32l16.65 3.44 16.65 3.45c.54-2.6.66-5.2.43-7.7zm-.14 2.7-16.85-2.2a6 6 0 0 1 2.28-3.97 4.5 4.5 0 0 1 3.16-.82l-1.94 16.89-1.93 16.89c14.23 1.63 29.94-7.77 32.14-24.6zm-13.35 9.9h-17v.02h34v-.02zm0 .02-.66-16.99q1.24-.03 2.21.35c.65.24 1.43.68 2.2 1.44l-11.94 12.1-11.93 12.1a28.2 28.2 0 0 0 20.79 7.99zm-8.19-3.1-10.66-13.23c-4.84 3.9-10.99 6.74-18.3 8.75l4.51 16.39 4.5 16.4c10.36-2.85 21.14-7.43 30.62-15.07zm-24.45 11.9-3.16-16.7c-1.78.34-3.42.84-4.15 1.06l-1 .3-.28.07 3.62 16.61 3.63 16.61c1.6-.35 3.14-.82 3.79-1.02.94-.28.94-.26.72-.22zm-4.97 1.34-16.81 2.51q.61 4.18 1.43 8.44l16.7-3.22 16.69-3.21q-.67-3.45-1.2-7.03zm1.31 7.73-16.8 2.58c.25 1.64.34 3.5.27 5.81l17 .5 16.98.5c.11-3.63.01-7.68-.64-11.96zm.46 8.9 6.71 15.61c.85-.37 2.85-.67 5.7.24l5.15-16.2 5.15-16.2c-8.5-2.7-19.22-3.46-29.42.92zm17.56-.36 8.56 14.7c4.21-2.46 10.05-.57 12.02 3.3l15.14-7.73 15.14-7.73c-11.13-21.82-38.89-29.17-59.41-17.23zm35.72 10.27-14.37 9.07a14.3 14.3 0 0 1-2.18-7.13l16.99-.6 16.99-.59a19.7 19.7 0 0 0-3.05-9.83zm.44 1.35-15.4 7.2a29 29 0 0 1 2.1 6.12l16.6-3.62 16.61-3.62a63 63 0 0 0-4.51-13.29zm3.3 9.7-16.62 3.56q.97 4.55.99 9.76l17-.1 17-.08a82 82 0 0 0-1.75-16.7zm1.37 13.23-17 .08c.03 7.4-1.2 15.1-3.42 22.86l16.35 4.67 16.35 4.66c2.9-10.17 4.77-21.1 4.72-32.36zm-4.07 27.6L464 413a100 100 0 0 1-9.12 21.58l14.79 8.39 14.78 8.4a134 134 0 0 0 12.22-28.96zm-10.67 25.27-14.76-8.43q-.64 1.1-1.4 2.33l14.44 8.97 14.43 8.98c.6-.96 1.32-2.15 2.05-3.42zm-1.72 2.87-14.4-9.03c-4.32 6.88-9 12.51-14.23 16.4l10.16 13.64 10.16 13.63c9.8-7.3 17.12-16.7 22.7-25.6zm-18.47 21-9.43-14.14a21 21 0 0 0-1.28.93l-.05.03-.01.01.02-.01.05-.05.24-.17q.17-.13.48-.33l9.43 14.14 9.43 14.15a16 16 0 0 0 .94-.68l.2-.15.06-.04-.12.09-.53.37zm-.55.41-9.88-13.83a26 26 0 0 1-5.11 2.96l6.4 15.75 6.4 15.75c4.69-1.9 8.72-4.4 12.07-6.8zm-8.6 4.88-6.4-15.74c-.75.3-1.83.6-3.94.94l2.72 16.79 2.71 16.78c3.12-.5 7.1-1.3 11.33-3.02zm-7.62 1.99-3.96-16.54q.9-.22 2.01-.33l1.57 16.93 1.56 16.93q1.5-.15 2.77-.46zm-.38.06-11.12-12.87a10 10 0 0 1 2.73-1.7c.4-.16.57-.17.43-.15l-.53.06h-.15l-1.43 16.95-1.44 16.94c2.8.23 6.22.12 9.6-.49 2.92-.53 8.37-1.86 13.02-5.88zm-10.07 2.29-12.02 12.02.02.02 12.02-12.02 12.02-12.02-.02-.02zm.02.02 2.46-16.82-.36-.1q-.38-.1-.97-.35a13 13 0 0 1-2.43-1.4 9 9 0 0 1-1.59-1.43c-.3-.36-.07-.21.17.54l-16.18 5.2-16.18 5.22c2.66 8.25 8.67 14.24 13.78 17.96 5.28 3.84 11.97 7 18.84 8zm-18.9-14.35 8.36-14.8c-4.28-2.42-9.07-4.2-12.51-5.48-3.95-1.47-6.74-2.5-9.15-3.7a18 18 0 0 1-2.4-1.4c-.5-.36-.65-.55-.63-.52.32.38.36.9.36.6l-17-.09-17-.1a32.4 32.4 0 0 0 7.3 21.1c4.34 5.3 9.77 8.63 14.2 10.84 4.38 2.19 9.12 3.9 12.46 5.14 3.85 1.43 6.1 2.33 7.65 3.2zm-32.97-25.39 13.73-10.03c-4.6-6.29-11.41-9.83-13.23-10.91l-8.71 14.6-8.71 14.6c.95.56 1.44.84 2.1 1.25.58.35.95.6 1.21.78.53.37.29.3-.11-.26zm-8.21-6.35-2.99-16.73c.99-.18 1.84-.2 2.52-.16l-1.05 16.97-1.04 16.97c1.8.1 3.66.03 5.55-.31zm-1.51.08-4.01-16.52c-22.57 5.48-42.08 10.58-61.88 9.84l-.62 17-.63 16.98c25.51.94 50.13-5.68 71.14-10.78zm-66.51 10.31-12.02-12.02-.03.02 12.02 12.02 12.02 12.03.03-.03zm-.03.02v-17c-17.18 0-34.48-3.35-53.42-7.15l-3.35 16.67-3.34 16.66c18.47 3.71 39.02 7.82 60.11 7.82zm-56.77-7.48 3.04-16.73c-1.96-.36-4.04-.88-6.78-1.57l-4.18 16.48-4.17 16.48c2.48.62 5.73 1.46 9.05 2.06zm-7.92-1.82-14.42-9a7 7 0 0 1-3.67 2.7l5.19 16.19 5.18 16.19a41 41 0 0 0 22.15-17.08zm-12.9 9.89-16.4-4.52q.21-.68.26-.73l-.13.22q-.34.61-1.12 1.58c-.5.62-1 1.15-1.36 1.5l-.25.24.18-.14q.15-.12.6-.4l9.04 14.4 9.04 14.39c3.56-2.24 6.92-5.8 9.2-8.63 2.31-2.86 5.76-7.7 7.33-13.4zm-9.18 12.14-10.2-13.6c-2.97 2.23-6.78 3.55-14.16 6.25l5.84 15.97 5.84 15.96c5.3-1.94 14.93-5.02 22.88-10.98zm-18.52 8.62-7.89-15.06a11 11 0 0 1-1.56.68l.3-.08 3.93 16.54 3.94 16.53a43 43 0 0 0 9.17-3.56zm-5.22 2.08-4.88-16.29-.64.2-.18.07-.1.03 5.37 16.13 5.36 16.13.07-.02.03-.01.02-.01.03-.01h.01l-.05.01-.15.05zm-.44.14-14.49-8.9c.16-.25.27-.38.25-.37q0 .02-.23.29l-.68.75c-.26.29-.69.76-1.1 1.25l12.91 11.05 12.92 11.06.49-.55 1.1-1.23c.8-.93 2.12-2.5 3.33-4.46zm-3.34 4.07-11.66-12.37c-3.27 3.08-6.55 3.8-8.09 3.57l-2.47 16.82-2.48 16.82c14.73 2.16 27.96-4.54 36.36-12.47zm-22.22 8.02v-17h-.03v34h.03zm-.03 0 .96-16.98c-4.92-.27-10.36-4.14-18-13.9l-13.39 10.47-13.39 10.48c7.68 9.8 21.47 25.7 42.87 26.9zm-30.43-20.41 12.87-11.11c-7.48-8.66-12.05-20.17-15.66-33.87l-16.44 4.33-16.44 4.34c4.04 15.34 10.24 32.87 22.8 47.42zm-19.23-40.65 16.3-4.84c-2.4-8.05-4.09-19.71-2.84-29.16 1.28-9.67 4.41-11.4 6.72-11.93l-3.87-16.56-3.86-16.55c-22.8 5.32-30.66 25.26-32.7 40.58-2.05 15.54.65 32.19 3.95 43.3zm16.31-62.49 3.28 16.69c4.3-.85 6.83-.38 8.34.37l7.55-15.23 7.55-15.23c-10.48-5.2-21.3-4.98-30-3.28zm19.17 1.83 6.36 15.76a14 14 0 0 1-4.9 1.01l-.4-17-.43-16.99a20 20 0 0 0-6.99 1.45zm1.05-.22 5.68 16.02.52-.19.44-.15.65-.22c.34-.11.38-.11.24-.08a9 9 0 0 1-3.71-.18l4.32-16.45 4.31-16.44c-8.9-2.34-17.02 1.27-18.13 1.67zm8.14-1.25-1.43 16.94 2.56.2c.7.04 1.16.08 1.52.13.71.08.52.13-.02-.1l6.62-15.66 6.62-15.66c-6.18-2.6-13.34-2.7-14.45-2.79zm9.25 1.51-6.25 15.8c4.45 1.77 5.51 1.98 7.55 2.98l7.54-15.23 7.55-15.23c-3.63-1.8-8.64-3.53-10.13-4.12zm8.84 3.55 16.83-2.41q-.24-1.64-.34-3.69l-16.97.85-16.98.84q.14 3.25.63 6.82zm-.48-5.25 16.97-.88c-.23-4.42.36-9.28 1.56-14.82l-16.62-3.59-16.62-3.58c-1.53 7.1-2.71 15.2-2.27 23.74zm1.9-19.29 16.6 3.67c1.07-4.81 2.69-9.72 4.71-14.87l-15.82-6.21-15.83-6.21a134 134 0 0 0-6.25 19.96zm5.49-17.41 15.83 6.18a145 145 0 0 1 7.34-15.72l-14.99-8.02-14.99-8.03a179 179 0 0 0-9.03 19.4zm8.18-17.56 14.98 8.04c2.1-3.9 4.31-7.7 6.4-10.96l-14.3-9.19-14.3-9.2a201 201 0 0 0-7.76 13.27zm7.08-12.1 14.36 9.1a235 235 0 0 1 21.24-28.4l-12.82-11.16-12.83-11.16a269 269 0 0 0-24.3 32.5zm22.78-30.46 12.82 11.16c6.9-7.94 14.3-15.42 22.01-22.33l-11.34-12.66-11.34-12.67a287 287 0 0 0-24.98 25.34zm23.49-23.83 11.36 12.64q4.96-4.45 10.2-8.67l-10.68-13.23-10.67-13.23q-5.9 4.75-11.57 9.84zm10.88-9.26 10.61 13.28c2.7-2.15 5.14-4.09 7.6-5.92L258.1 216.9l-10.14-13.64c-3 2.23-5.9 4.54-8.52 6.64zm8.06-6.28 16.8-2.62-.01-.09-.09-.85-.07-.77-16.92 1.74-16.9 1.74c0 .12.16 2 .4 3.47zm-.29-2.59 16.94-1.42a3 3 0 0 1 .1-.92l.05-.15q0 .04-.25.35l-12.95-11.01-12.95-11.02c-6.47 7.6-8.56 17.42-7.88 25.6zm3.89-13.15 11.34-12.67c-3.28-2.93-7.18-5.9-9.57-7.82a45 45 0 0 1-6.06-5.55l-12.92 11.05-12.92 11.05a78 78 0 0 0 10.6 9.96c3.57 2.86 5.8 4.5 8.19 6.64zm-17.2-14.99 10.61-13.27c-4.41-3.54-6.16-5.76-6.84-7.44l-15.76 6.36-15.77 6.35c4.1 10.19 11.74 16.96 17.13 21.28zm-12-14.35 15.35-7.32c.07.15-.05-.01-.13-.8a24 24 0 0 1 .05-3.88l-16.96-1.19-16.96-1.18c-.34 4.92-.66 13.35 3.31 21.68zm-1.7-13.19 16.51 4.08c-.19.78-.43 1-.18.65q.33-.51 1.46-1.6L236.9 149.4l-11.68-12.35c-3.36 3.18-8.86 9.12-10.93 17.51zm6.1-9.23 10.54 13.34c-.77.61-1.3.55-.57.46q.58-.08 1.97-.07c.96.02 2.03.08 3.42.18l1.2-16.96 1.2-16.95c-4.67-.33-17.65-1.74-28.29 6.66zm16.56-3.05 16.96 1.18c.18-2.55.75-2.05-.22-1.2-.48.42-.13-.2 2.88-.61s6.74-.4 11.78-.23c4.4.15 10.53.48 15.9.1l-1.15-16.95-1.17-16.96c-3.14.21-6.84.02-12.42-.17-4.95-.17-11.36-.33-17.57.52-6.18.85-14.07 2.94-20.7 8.76-7.1 6.25-10.59 14.86-11.25 24.4zM433.3 473.92l-7.07-15.46q.33-.15.86-.35l6 15.9 6 15.91q.74-.29 1.29-.54zm-.21.1 4.93 16.26-.42.12h-.01l.11-.02a16 16 0 0 0 1.79-.6l-6.3-15.8-6.32-15.78a17 17 0 0 1 1.75-.59l-.46.13zm.1-.03 8.74 14.57c-.5.3-.92.51-1.13.62l-.27.13-7.23-15.39-7.23-15.38-.38.18c-.26.13-.71.36-1.26.69zM306.6 434.96l.42-17c-7.1-.18-14.9-.4-22.72-.15l.56 16.99.55 16.99c6.63-.22 13.35-.03 20.76.16zm-21.74-.16-1.13 16.96q4.05.27 8.16.38l.43-17 .43-16.99q-3.36-.09-6.76-.31zm7.46.34-.66 17q8.17.29 16-.22l-1.06-16.96-1.07-16.97q-6.26.4-12.55.17z" mask="url(#crests-buisness-sales-path-1-outside-1_23_11512)"/></g><path fill="#a1764a" d="M433.92 292.67c6.41-3.95 12.13-8.95 19.81-9.55 7.03.46 14.69 5.58 14.52 13.23 2.42 15.7-13.68 25.05-25.14 32.16-12.73 6.67-39.26 10.95-52.18 3.85a21.5 21.5 0 0 1-11.17-20.91c-.12-6.12 3.4-11.58 9.38-13.35 1.4-1.25 3.9-1.22 5.04.29 16.25 3.97 25.53 4.5 39.74-5.75z"/><path fill="#fff" d="M474.53 314.75c-.15 5.34-5.22 8.88-10.3 8.62-1.8.9-4.6-.24-5-2.25a272 272 0 0 1-11.76-19.14c-2.7-4.4-6.03-9.02-6.03-14.4 1.08-8.45 11.41-10.98 16.5-4.26 4.53 5.02 7.64 11.27 11.1 17.03 2.04 4.67 5.41 9.14 5.46 14.38z"/><path fill="#fff" d="M499.18 295.95c-1.15 6.72-8.51 12.08-14.71 14.02-5.53 1.24-11.27 1.22-16.8 2.44-3.35.36-4.73-3.78-1.6-5.26 1.34-.91 2.8-.67 4.28-.84 3.21-.48 6.56-.7 9.81-1.15 5.27-.4 9.21-3.92 12.2-7.99 1.92-9.21-6.81-29.86-18.47-25.91-1.81.86-3.68 1.7-5.28 2.9-2.97 4.42-6.03 8.9-9.6 12.87-2.27 2.77-7.75.14-5.04-3.21 1.55-1.48 2.68-3.3 3.92-5.02 2.63-2.59 3.83-6.27 6.58-8.69 1.34-1.1 2.96-1.89 4.5-2.68 17.34-9.71 31.15 13.16 30.19 28.5z"/><path fill="#fff" d="M469.12 272.53c-1.31.55-2.56 1.27-3.82 1.89l-1.85.86c-1.17 2.42-2.99 4.47-3.92 7.01a3.36 3.36 0 0 1-3.45 2.9c-1.5 2.24-5.43 2-6.2-.8.13-6.52 3.1-16.57 9.67-19.37 4.05-2.47 16.18 3.13 9.55 7.51z"/><path fill="#fff" d="M494.4 299.4q-.49.25-1.02.48c-.05 6.24-19.3 8.82-24.4 9.3-3.2.82-7.8-1.27-4.55-4.71-2.58-.74-2.27-3.85-.1-4.9-2.15-.27-5.38.33-6.52-2-.72-1.8 1.1-3.39 2.7-3.84-6.46-.05-7.51-5.41-.84-6.51a2.5 2.5 0 0 1-1.22-1.6c-.14-.67.03-1.27.36-1.77-2.1.07-4.1-1.9-2.77-3.93 1.07-1.7 3.13-2.03 5.02-2.22-1.48-2.56 1.39-4.52 3.68-4.81-.93-4.1 4.86-4.21 7.63-4.64 2.83.05 7.85-2.37 8.8 1.6 2.78-.05 8.14 1.7 5.18 5.17a5 5 0 0 1 1.48.72c1.22.9 1.6 2.56.72 3.82 1.89.41 3.56 2.25 2.84 4.24 2.85.1 5.6 3.28 3.07 5.64 1.29.84 1.91 2.66.95 3.98 3.14 1.65 1.7 4.88-1.03 5.98z"/><path fill="#fff" d="M453.1 282.07c-3.19-3.68-4.6-25.4 3.1-24.11 8.1-2.08 13.47 13.61 9.26 18.83-2.03 1.65-4.35-.43-4.57-2.61a27 27 0 0 0-2.2-5.36c.34 3.23-.6 6.27-1.12 9.35.76 2.7-1.77 6.25-4.45 3.95z"/><path fill="#fff" d="M450.44 282.29c-2.7-2.56.47-5.62.47-8.47.5-5.24-4.23-11.68-.16-16.17 6.26-3.14 13.04-.89 15.55 5.88 1.17 3.66 1.12 7.63 1.74 11.44.67 4.09-4.61 5.48-5.43 1.2-.86-4.96.1-15.2-7.75-13.07.91 4.9 2.6 10.02.98 14.98 1.03 2.87-2.9 6.43-5.38 4.2z"/><path fill="#9e764e" d="M281.69 169.27c2.9 8.75 8.7 17.1 7.58 26.67-.3 6.1-4.25 10.07-10.55 8.8-6.15-.93-10.64-6.14-14.69-10.47-6.4-7.75-13.51-13.59-20.45-20.5-6.84-4.9-10.7-11.7-6.05-19.72 3.97-7.8 13.23-9.54 21.12-7.75 1.53-.81 3.04.93 4.55 1.05 2.32-.33 4.06 1.37 3.87 3.69 5.43 5.55 11.84 10.81 14.62 18.23m62.71-20.96c12-2.65 21.84 5.96 16.27 18.04-3.74 9.04-11.8 14.86-18.9 21.1-8.78 6.8-16.46 18.5-28.54 17.7-8.6-2.39-9.86-13.75-7.06-20.98 4.76-10.3 10.72-20.69 19.78-27.82a39 39 0 0 1 13.11-6.67c1.58-.99 3.5-3.14 5.31-1.42z"/><path fill="#d09b66" d="M422.76 334.01c3.69 20.8-.3 43.64-12.65 60.98-3.6 4.53-7.87 8.43-12.28 12.18-3.75 3.4-7.17 7.35-11.8 9.6-4.85 2.68-10.06 4.61-15.35 6.36-2.25.76-4.52 1.46-6.77 2.2-6.75 2-14.21 2.97-20.93 4.4-6.66 1.94-13.5 3.38-20.46 3.42-15.33.05-30.77-1.31-45.96.46-10.28-1.3-20.3-4.4-30.48-6.32-20.71-4.06-44.59-8.2-58.54-25.6-4.45-6.67-7.8-14.11-10.98-21.43-2.77-10.38-2.75-21.3-1.03-31.84 3.6-23.81 11.25-46.27 24.62-66.37 10.22-18 25.5-32.25 39.93-46.82 5.02-4.74 10.2-9.3 15.14-14.11 1.8-1.73 3.47-3.55 5.24-5.3 1.17-1.4 3.09-2.53 4.88-1.52 8.47-6.46 18.66-8.85 29.07-8.9-4.3-1.65-8.25-4.62-10.65-8.57-5.69-.74-9.9-14.16-12.68-18.75-3.4-7.95-7.9-15.2-9.64-23.74-1.94-6.05-2.08-12.6 1.63-18.06 5.57-9.6 24.28-3.2 33.85-4.47 10.8 1.67 20.77-4.57 31.39-2.68 18.23 5.02 11.89 26.3 7.4 39.3a231 231 0 0 0-5.99 20.68c-.43 3.82-2.9 6.84-6.03 8.92-2.58 1.89-5.67 2.92-8.63 4.07-3.8 1.36-7.75 3.01-11.8 3.75 5.03.55 9.98 1.56 14.7 2.8 12.77 3.42 25.11 8.18 35.4 16.7a173 173 0 0 1 17.3 13.61 223 223 0 0 1 20.28 20.65c8.86 10.93 16.34 23.04 21.34 36.22 4.79 12.08 7.47 25.6 10.43 38.13z"/><path fill="#9e764e" d="M342.26 206.71c1.46 3.8 2.5 11.37-3.8 10.2-12-1.78-25.3-1.63-37.5-1.87-10.78-.26-21.5-.45-32.25.79-2.31.6-5.23.52-5.6-2.49a22.4 22.4 0 0 1 9.82-16.63c9.78-7.2 22.34-9.04 34.13-7.77 14.12 1.84 30.34 1.12 35.2 17.77"/><path fill="#a1764a" d="M400.23 394.5c5.5 10.55 3.02 24.01-3.35 33.66-3.56 5.02-10.79 4.13-16.07 2.94-5.72-2.27-12.06-4.67-17.18-8.37-3.6-2.61-6.56-5.84-8.28-10.12a14 14 0 0 1-1.96-11.54c.29-2.56.55-6.17 3.28-7.32a24 24 0 0 1 6.96-8.42c5.26-3.85 11.96-4.73 19.09-1.7 6.27 2.59 14.11 4.36 17.49 10.87z"/><path fill="#fff" d="M404.14 399.56c.48 6.25 2.99 12.34 2.27 18.64-1.58 9.11-8.28 18.1-18.3 17.84 1.44 2.44-1.5 4.84-3.83 3.64q-.2-.1-.43-.24l-13.32-9.23c-1.56-1.1-3.33-2.3-4.14-4.1-.86-2.17.7-4.2 2.08-5.74 1.89-2 3.25-4.5 4.5-6.93 3.51-7.68 3.94-16.42 6.84-24.24 2.99-8.16 13.11-6.87 18.95-2.6 5.38 2.05 4.73 8.2 5.43 12.94z"/><path fill="#c0dbfe" d="M462.56 364.01c10.38 12.09 3.56 35.27-2.37 48.14-6.15 11.03-12.87 21.77-21.99 30.57-4.73 4.55-9.7 9.96-15.55 13.33 1.49 2.44-.8 7.51-4.66 5.33a16 16 0 0 0-4.71-2.27c-1.46-.45-2.97-.76-4.5-1.1a88 88 0 0 1-11.68-5c-5.86-2.68-12.32-4.45-16.62-9.47-2.73-3.3-4.55-8.28-1.58-12.01 2.56-3.69 7.03-4.62 11.2-5.07 10.5-3.1 13.08-10.12 4.59-17.68-6.32.88-5.98-17.11-1.92-19.79 2.13-1.75 7.68-5.64 11.49-5.76 4.25-12.25 14.57-22.7 27.03-26.44 9.98-2.44 20.72.07 29.88 4.21a3.5 3.5 0 0 1 1.37 2.97z"/><path fill="#9dbbe3" d="M433.9 368.7s-.02.05-.04.05c0 0 .02-.05.04-.05m-5.05 96.18c-8.28-.91-16.22-5.81-20.36-13.01 0-.15-.05-.3-.05-.44v.17q-.17-1.65-.26-3.3c-.1-1.17-.14-2.34-.22-3.52-.04-1.02-.11-2.08-.14-3.1 0-.9.05-1.75.05-2.62v.17l.02-.64.1-2.47V436q.14-1.72.24-3.42l.21-1.2q.44-2.1.91-4.2.55-2.6 1.03-5.22.45-2.31 1.08-4.6.33-1.17.6-2.36l.14-.6c1.8-4.28 3.68-8.5 5.26-12.7 2.78-7.04 5.82-13.66 8.8-20.46l1.06-1.6q1.49-2.3 2.94-4.69c.98-1.58 2.1-3.09 3.2-4.6q1.57-2.16 3.21-4.25l-.02.04q.9-1 1.82-1.93l-.05.02s.05-.02.07-.05l.05-.04.05-.05h.02q.5-.44.98-.91l.72-.65c4.16-1.55 9.02-1.58 13.4-1.65 6-.43 11.96.81 16.8 4.55 22 16.96 8.1 47.87-4.46 66.5-5.07 8.19-9.86 16.63-16.67 23.57-4.86 5.67-11.2 9.4-18.64 9.4q-.9.02-1.82-.07z"/><path fill="#9dbbe3" d="M425.44 387.53c-.87-3.28 2.05-5.98 2.96-8.95q.56-1.32 1.17-2.6l.65-1.03c.98-1.58 2.1-3.1 3.2-4.6 1.06-1.43 2.09-2.85 3.21-4.23v.02q.9-1 1.82-1.94l-.05.05.1-.07-.03.02.03-.02.05-.05h.02l.96-.88q2.62-2.33 5.36-4.55l1.38-.79c8.4-4.57 20.17-5.43 28.23.22 1.8 1.43 2.54 3.63 3.52 5.64a17 17 0 0 1 1.96 5.67c.53 2.01-1.15 4.64-3.4 3.95-1.38 5.5-7.34 3.52-5.55-1.46 1.32-1.89 1.2-3.83-.88-4.95-3.88-2.73-11.53-.15-12.94-5.86-11.08 1.05-19.57 10.67-23.78 20.33a64 64 0 0 1-2.5 5.36c-.04 1.37-.88 2.75-2.26 3.04q-.26.07-.53.07c-1.27 0-2.32-1.1-2.7-2.34zm.06 82.13c-8.2-2.46-14.04-6.91-16.53-14.11q0-.16-.05-.27c-.21-1.29-.33-2.55-.48-3.85v.17q-.17-1.65-.26-3.3c-.1-1.17-.14-2.35-.22-3.52l-.14-3.1q0-.82.03-1.63a3.2 3.2 0 0 1 1.77-1.44c1.67-.36 3.06 1.08 3.3 2.63 1.03 3.45 1 7.2 2.41 10.48 1.34 2.75 3.8 5.33 6.03 7.22a19 19 0 0 0 4.79 2.97c2.7.12 5.43-.4 8.08-.43 3.33-.81 4.79 4.4 2.06 6.03-2.54 1.15-5.31 2.66-8.1 2.66q-1.34.01-2.67-.5z"/><path fill="#eac7a4" d="M485.47 389.4c.07 6.64-.91 13.32-2.37 19.78-1.5 6.7-3.71 13.23-6.37 19.55-2.56 6.07-5.6 12-9.23 17.5-3.68 5.58-7.85 11.01-12.9 15.44a37 37 0 0 1-7.94 5.52c-2.8 1.42-5.88 2.5-9.04 2.5h-.6a14 14 0 0 1-9.02-3.72 21.5 21.5 0 0 1-5.12-8.01c-1.96-5.29-2.51-10.96-2.44-16.5a93 93 0 0 1 2.42-18.74 117 117 0 0 1 5.81-18.11 116 116 0 0 1 8.61-16.99 83 83 0 0 1 10.96-14.25c3.57-3.64 7.56-6.8 12.18-8.98a19 19 0 0 1 8.47-1.91h.81a2 2 0 0 1 .55.05h.07q.1-.01.2.05.17.01.35.07l1.3.26c.43.1.8.29 1.24.38q.5.15.88.43l.27.12c2.73 1.34 4.88 3.66 6.46 6.22 1.72 2.78 2.68 5.94 3.4 9.12.76 3.32 1 6.8 1.02 10.21z"/><path fill="#a1764a" d="M195.2 395.34c-5.5 10.55-3.02 24.02 3.34 33.66 3.57 5.02 10.8 4.14 16.08 2.94 5.72-2.27 12.06-4.66 17.18-8.37 3.59-2.61 6.55-5.84 8.27-10.12a14 14 0 0 0 1.97-11.53c-.3-2.56-.55-6.18-3.28-7.32a24 24 0 0 0-6.96-8.43c-5.27-3.85-11.97-4.73-19.1-1.7-6.26 2.6-14.1 4.36-17.48 10.87z"/><path fill="#fff" d="M191.27 400.4c-.48 6.25-3 12.35-2.28 18.65 1.58 9.11 8.28 18.1 18.3 17.84-1.43 2.44 1.51 4.83 3.83 3.64q.23-.1.43-.24l13.33-9.24c1.56-1.1 3.33-2.3 4.14-4.09.86-2.17-.7-4.2-2.08-5.74-1.9-2-3.26-4.5-4.5-6.94-3.52-7.68-3.95-16.4-6.84-24.2-3-8.16-13.11-6.87-18.95-2.62-5.38 2.06-4.74 8.21-5.43 12.95z"/><path fill="#c0dbfe" d="M132.85 364.86c-10.39 12.08-3.57 35.26 2.36 48.13 6.15 11.03 12.88 21.77 21.99 30.58 4.74 4.54 9.71 9.95 15.55 13.32-1.48 2.44.81 7.51 4.67 5.34a16 16 0 0 1 4.7-2.28c1.47-.45 2.97-.76 4.5-1.1a88 88 0 0 0 11.68-5c5.86-2.68 12.32-4.45 16.63-9.47 2.73-3.3 4.54-8.28 1.58-12.01-2.56-3.68-7.04-4.62-11.2-5.07-10.5-3.09-13.09-10.12-4.6-17.68 6.32.88 5.99-17.1 1.92-19.79-2.13-1.74-7.68-5.64-11.48-5.76-4.26-12.25-14.57-22.7-27.04-26.44-9.97-2.44-20.71.07-29.88 4.21a3.5 3.5 0 0 0-1.36 2.97z"/><path fill="#9dbbe3" d="M161.5 369.57s.03.05.05.05c0 0-.02-.05-.04-.05m5.06 96.15c8.28-.9 16.22-5.81 20.36-13.01 0-.14.05-.29.05-.43v.17q.17-1.65.26-3.3c.1-1.18.14-2.35.22-3.52.04-1.03.12-2.08.14-3.11 0-.89-.05-1.75-.05-2.61v.17q0-.33-.02-.65l-.1-2.46v-.12l-.24-3.42-.21-1.2q-.44-2.1-.91-4.21-.55-2.59-1.03-5.22a61 61 0 0 0-1.08-4.59q-.33-1.19-.6-2.37l-.14-.6c-1.8-4.28-3.68-8.49-5.26-12.7-2.78-7.03-5.81-13.66-8.8-20.46l-1.06-1.6q-1.49-2.3-2.94-4.69c-.98-1.58-2.1-3.08-3.2-4.59a141 141 0 0 0-3.19-4.21 48 48 0 0 0-1.77-1.92l-.07-.04-.05-.05-.04-.05h-.03l-.98-.9-.72-.65c-4.16-1.56-9.02-1.58-13.4-1.65-6-.44-11.96.8-16.79 4.54-22.01 16.96-8.11 47.87 4.45 66.51 5.07 8.18 9.86 16.63 16.67 23.56 4.86 5.67 11.2 9.4 18.64 9.4q.9.01 1.82-.06z"/><path fill="#9dbbe3" d="M169.97 388.37c.86-3.27-2.06-5.98-2.97-8.94q-.56-1.33-1.17-2.61l-.65-1.03c-.98-1.58-2.1-3.09-3.2-4.6-1.06-1.43-2.09-2.84-3.21-4.23v.03q-.9-1.01-1.82-1.94l.05.05-.1-.08h.03-.03l-.04-.04h-.03q-.46-.45-.96-.89a162 162 0 0 0-5.35-4.54l-1.4-.8c-8.39-4.56-20.16-5.43-28.22.22-1.8 1.44-2.54 3.64-3.52 5.65a17 17 0 0 0-1.96 5.67c-.53 2 1.15 4.64 3.4 3.94 1.38 5.5 7.34 3.52 5.55-1.46-1.32-1.88-1.2-3.82.88-4.95 3.88-2.72 11.53-.14 12.94-5.86 11.08 1.05 19.57 10.67 23.79 20.34a63 63 0 0 0 2.48 5.35c.05 1.37.89 2.76 2.28 3.04a2 2 0 0 0 .52.07c1.27 0 2.32-1.1 2.7-2.34zm-.04 82.13c8.2-2.46 14.04-6.9 16.53-14.1q0-.16.05-.27c.21-1.3.33-2.56.48-3.85v.16q.17-1.65.26-3.3c.1-1.17.14-2.34.21-3.51q.09-1.56.15-3.12 0-.81-.03-1.62a3.2 3.2 0 0 0-1.77-1.44c-1.67-.36-3.06 1.08-3.3 2.63-1.03 3.45-1 7.2-2.41 10.48-1.34 2.75-3.8 5.34-6.03 7.23a19 19 0 0 1-4.79 2.96c-2.7.13-5.43-.4-8.09-.43-3.32-.81-4.78 4.4-2.05 6.03 2.53 1.15 5.3 2.66 8.1 2.66q1.34.02 2.66-.5z"/><path fill="#eac7a4" d="M109.96 390.26c-.07 6.65.91 13.33 2.37 19.79 1.5 6.7 3.7 13.23 6.36 19.54 2.56 6.08 5.6 12.01 9.24 17.52 3.68 5.57 7.84 11 12.9 15.43a37 37 0 0 0 7.94 5.52c2.8 1.41 5.88 2.49 9.04 2.49h.6a14 14 0 0 0 9.02-3.7 21.5 21.5 0 0 0 5.12-8.02c1.96-5.29 2.5-10.96 2.44-16.51a93 93 0 0 0-2.42-18.73 117 117 0 0 0-5.81-18.11 115 115 0 0 0-8.62-16.99 82 82 0 0 0-10.95-14.26 43 43 0 0 0-12.18-8.97 19 19 0 0 0-8.47-1.91h-.81q-.28 0-.43.02-.08 0-.12.02h-.08q-.09-.01-.19.05c-.12 0-.23.05-.35.07q-.66.12-1.3.27c-.43.1-.81.29-1.24.38q-.52.15-.89.43l-.26.12c-2.73 1.34-4.88 3.66-6.46 6.22-1.72 2.78-2.68 5.93-3.4 9.12-.76 3.32-1 6.8-1.02 10.21z"/><path fill="#a1764a" d="M244.79 336.38c2.87 6.96 6.84 13.42 6.2 21.1-1.61 6.87-7.9 13.59-15.44 12.18-15.86-.2-22.46-17.61-27.63-30.05-4.5-13.64-4.4-40.5 4.71-52.1a21.5 21.5 0 0 1 22.47-7.62c6.07.89 10.86 5.24 11.62 11.44 1 1.58.55 4.04-1.1 4.93-6.55 15.38-8.59 24.45-.83 40.14z"/><path fill="#fff" d="M216.37 372.82c-5.24-1-7.92-6.58-6.82-11.56-.6-1.94.98-4.5 3.02-4.57a273 273 0 0 1 20.79-8.5c4.78-1.95 9.88-4.46 15.21-3.58 8.16 2.44 8.97 13.04 1.5 16.99-5.69 3.63-12.34 5.69-18.63 8.15-4.93 1.25-9.9 3.86-15.07 3.04z"/><path fill="#fff" d="M230.86 400.23c-6.43-2.23-10.53-10.38-11.43-16.8-.31-5.64.64-11.31.33-16.98.2-3.35 4.5-4.07 5.46-.72.67 1.46.19 2.87.12 4.35-.05 3.24-.39 6.58-.48 9.86-.46 5.26 2.37 9.74 5.88 13.35 8.78 3.4 30.55-1.84 28.57-14-.55-1.9-1.06-3.9-1.99-5.69-3.87-3.63-7.8-7.39-11.15-11.58-2.36-2.7 1.13-7.68 4-4.45 1.2 1.77 2.82 3.19 4.3 4.7 2.13 3 5.55 4.8 7.5 7.91.85 1.5 1.36 3.23 1.9 4.86 6.75 18.7-18.08 28.56-33.03 25.14z"/><path fill="#fff" d="M258.88 374.4c-.33-1.4-.83-2.73-1.24-4.1l-.55-1.93c-2.2-1.56-3.92-3.69-6.27-5a3.34 3.34 0 0 1-2.3-3.88c-1.98-1.84-1.1-5.7 1.77-5.98 6.44 1.2 15.84 5.74 17.54 12.7 1.77 4.38-5.74 15.46-8.97 8.19z"/><path fill="#fff" d="M228.25 394.94q-.18-.54-.31-1.1c-6.15-1.08-5.55-20.48-5.2-25.6-.28-3.3 2.54-7.49 5.41-3.7 1.15-2.42 4.19-1.63 4.86.71.62-2.08.55-5.36 3.01-6.12 1.92-.4 3.19 1.62 3.38 3.3 1.1-6.37 6.58-6.53 6.55.24a2.5 2.5 0 0 1 1.77-.94 2.4 2.4 0 0 1 1.7.65c.26-2.08 2.54-3.73 4.3-2.08 1.51 1.34 1.51 3.44 1.37 5.31 2.78-1.05 4.23 2.1 4.14 4.43 4.19-.24 3.35 5.47 3.32 8.27-.5 2.78 1.06 8.14-3 8.45-.42 2.75-3.02 7.75-5.94 4.26-.27.5-.55.96-.96 1.36-1.1 1.05-2.8 1.15-3.87.07-.72 1.8-2.8 3.16-4.65 2.1-.55 2.78-4.13 5-6.07 2.09-1.03 1.12-2.95 1.46-4.1.31-2.12 2.82-5.09.86-5.71-2"/><path fill="#0f0f0f" d="M320.27 341.06c-5.38-.16-10.48-2.39-14.47-5.26-5.65-4.02-9.88-9.86-12.68-16.17a55 55 0 0 1-4.5-19.81c-.34-8.95 1.31-18.11 5.12-25.77a48 48 0 0 1 5.43-8.59 35 35 0 0 1 7.13-6.62 26.4 26.4 0 0 1 18.7-4.64c1.92.26 3.74.74 5.56 1.38q.43.07.79.32.07.02.14.1c1.22.59 2.44 1.16 3.61 1.88a35 35 0 0 1 6.06 4.76 40 40 0 0 1 8.42 12.37q1.49 3.36 2.5 6.75a56 56 0 0 1 2.12 19.71v.38c-.6 6.8-2.18 13.54-5.25 19.67-2.99 5.96-7.31 11.48-12.99 15.12a31 31 0 0 1-7.15 3.35c-2.42.79-4.98 1.1-7.51 1.1h-1zm1.39-6.43c1.29-.05 2.53-.2 3.8-.43q1.7-.39 3.3-.96 1.68-.69 3.28-1.55 1.84-1.12 3.52-2.44a34 34 0 0 0 2.99-2.85 45 45 0 0 0 2.99-3.78q1.34-2.08 2.49-4.26 1.34-2.75 2.34-5.62a58 58 0 0 0 1.46-5.31c.36-1.85.67-3.69.84-5.46v-.4c0-.3.05-.55.05-.55q.17-2.92.1-5.84-.18-3.02-.63-5.96a47 47 0 0 0-3.13-10.7l-.27-.6a48 48 0 0 0-2.08-3.94l-.14-.24a39 39 0 0 0-2.61-3.66 37 37 0 0 0-2.8-3.01 25 25 0 0 0-7.56-4.93l-.31-.1c-.5-.21-1.03-.4-1.15-.43q-1.65-.53-3.37-.84a25 25 0 0 0-3.5-.26 29 29 0 0 0-3.51.36q-1.76.38-3.37.94-.15.04-.22.09a26 26 0 0 0-3.32 1.58l-.2.12a34 34 0 0 0-3.42 2.41q-1.5 1.3-2.87 2.73a40 40 0 0 0-3.06 3.9q-1.37 2.07-2.49 4.28a53 53 0 0 0-2.08 4.93 52 52 0 0 0-1.7 6.27q-.54 2.76-.79 5.57-.22 3.13-.12 6.27.18 3.15.67 6.27a55 55 0 0 0 1.32 5.57 46 46 0 0 0 2.06 5.44 39 39 0 0 0 1.88 3.66l.3.48q1.07 1.74 2.34 3.37a43 43 0 0 0 2.82 3.13l.38.36c.82.74 1.68 1.44 2.2 1.84q1.69 1.19 3.47 2.18 1.57.76 3.2 1.34 1.73.55 3.55.84 1.67.21 3.35.21z"/><path fill="#0f0f0f" d="M358.8 339.4c-5.39-.17-10.49-2.4-14.48-5.27a34 34 0 0 1-4.86-4.24l.94-1.22q1.39-1.68 2.75-3.37v-.02l.83.88c.17.17.34.34.39.36.81.74 1.67 1.41 2.2 1.84q1.66 1.19 3.47 2.18 1.56.76 3.2 1.34 1.72.55 3.52.84 1.67.21 3.35.21c1.29-.05 2.53-.19 3.8-.43q1.7-.4 3.3-.95 1.68-.71 3.28-1.56 1.83-1.12 3.52-2.44 1.58-1.34 2.99-2.85a42 42 0 0 0 2.99-3.78 44 44 0 0 0 2.49-4.25q1.34-2.76 2.34-5.63a58 58 0 0 0 1.46-5.3c.36-1.85.67-3.7.84-5.46v-.41l.05-.55q.19-2.9.1-5.84-.18-3-.63-5.98a58 58 0 0 0-1.3-5.62 50 50 0 0 0-1.83-5.07l-.27-.6a48 48 0 0 0-2.08-3.95l-.14-.24a39 39 0 0 0-2.61-3.68 37 37 0 0 0-2.8-3.02 25 25 0 0 0-7.56-4.93l-.31-.09c-.5-.22-1.03-.4-1.15-.43q-1.65-.52-3.37-.84a24 24 0 0 0-3.5-.26q-1.76.08-3.49.36-1.76.38-3.37.93-.15.04-.22.1a25 25 0 0 0-3.32 1.58l-.2.12q-1.77 1.1-3.41 2.41-1.5 1.29-2.87 2.73a59 59 0 0 0-2.47 3.01h-.21a1.2 1.2 0 0 0-.84-.71c-.29-.65-.55-1.3-.89-1.92q-.5-1-1.1-1.96-.2-.37-.48-.7.36-.5.77-.98a35 35 0 0 1 7.13-6.62 26.4 26.4 0 0 1 18.7-4.64c1.92.26 3.74.74 5.56 1.38q.43.07.79.31.08.01.14.1c1.22.6 2.44 1.15 3.61 1.9a35 35 0 0 1 6.06 4.75 40 40 0 0 1 8.42 12.37q1.49 3.36 2.51 6.75a56 56 0 0 1 2.1 19.71v.38c-.6 6.8-2.17 13.54-5.26 19.64-2.99 5.96-7.32 11.49-12.99 15.13a31 31 0 0 1-7.15 3.34c-2.42.8-4.98 1.1-7.51 1.1h-1.03z"/><path fill="#fff" d="M348.83 295.19q.1 2.9-.1 5.83s0 .27-.04.55v.12l-.02.3a57 57 0 0 1-.84 5.44q-.6 2.7-1.46 5.34a55 55 0 0 1-2.35 5.62 51 51 0 0 1-2.48 4.26 45 45 0 0 1-3 3.78q-1.4 1.5-2.98 2.85a36 36 0 0 1-3.52 2.44q-1.6.87-3.28 1.55-1.61.58-3.3.96c-1.27.21-2.51.36-3.8.43q-1.68 0-3.35-.22-1.8-.3-3.54-.86-1.64-.57-3.21-1.34a33 33 0 0 1-3.5-2.17c-.52-.43-1.38-1.1-2.2-1.84l-.38-.36q-1.46-1.5-2.82-3.11a45 45 0 0 1-2.34-3.38l-.3-.48a37 37 0 0 1-1.88-3.66 51 51 0 0 1-2.06-5.43q-.77-2.76-1.31-5.57a69 69 0 0 1-.7-6.27q-.07-3.15.12-6.27.25-2.82.8-5.57a62 62 0 0 1 1.69-6.27 60 60 0 0 1 2.08-4.93q1.14-2.22 2.49-4.28a40 40 0 0 1 3.08-3.9q1.37-1.44 2.88-2.73a38 38 0 0 1 3.4-2.41s.11-.1.19-.12c.95-.53 2.1-1.1 3.32-1.58q.08-.01.24-.1c1.08-.36 2.2-.7 3.37-.93a29 29 0 0 1 3.52-.36q1.74.01 3.5.26 1.7.32 3.37.84c.12.05.64.22 1.14.43q.16.08.31.12.88.33 1.68.77a25 25 0 0 1 5.88 4.18q1.14 1.12 2.2 2.3l.6.72q1.42 1.75 2.61 3.66l.14.24a62 62 0 0 1 2.09 3.94l.26.6c.62 1.4 1.3 3.2 1.84 5.07q.8 2.79 1.3 5.63c.3 1.96.5 3.97.62 5.95z"/><path fill="#fff" d="M387.34 293.5q.1 2.9-.1 5.84s0 .26-.05.55v.41a57 57 0 0 1-.83 5.45q-.61 2.7-1.46 5.31a53 53 0 0 1-2.35 5.63 51 51 0 0 1-2.49 4.25 41 41 0 0 1-2.99 3.78q-1.4 1.52-2.99 2.85-1.69 1.33-3.51 2.44-1.61.87-3.28 1.56-1.62.56-3.3.95c-1.27.22-2.51.36-3.8.43q-1.68 0-3.36-.21-1.8-.32-3.51-.84-1.65-.58-3.2-1.34a37 37 0 0 1-3.48-2.18c-.3-.26-.74-.6-1.2-.98a45 45 0 0 0 3.55-5.88c3.08-6.13 4.66-12.87 5.24-19.64v-.12l.02-.27a56 56 0 0 0-2.1-19.7 56 56 0 0 0-2.52-6.76 41 41 0 0 0-5.52-9.13q.83-.82 1.7-1.56 1.64-1.3 3.42-2.42s.12-.1.19-.12a26 26 0 0 1 3.54-1.67q1.62-.58 3.37-.93 1.73-.31 3.5-.36 1.76.01 3.49.26 1.72.32 3.37.84c.12.05.65.21 1.15.43l.31.1q.87.32 1.68.76a32 32 0 0 1 3.08 1.87q1.47 1.07 2.8 2.3 1.48 1.43 2.8 3 1.41 1.76 2.6 3.7l.15.23q1.12 1.94 2.08 3.95l.27.6c.6 1.36 1.26 3.2 1.84 5.07q.78 2.75 1.29 5.62.44 2.98.62 5.98z"/><path fill="#0f0f0f" d="M377.45 292h.02s.05.02.07.05h.03l-.12-.07zm-6.78 2.75s0 .07-.04.1q-.01-.07.04-.1m-38.93-19.47-.05.04z"/><path fill="#0f0f0f" d="M320.25 341.04c-5.38-.17-10.48-2.39-14.48-5.26-5.64-4.02-9.87-9.86-12.67-16.17a55 55 0 0 1-4.5-19.81c-.34-8.95 1.31-18.11 5.12-25.77a48 48 0 0 1 5.43-8.59 35 35 0 0 1 7.13-6.62 26.4 26.4 0 0 1 18.7-4.65c1.92.27 3.74.75 5.56 1.4q.42.06.79.3l.14.1c1.22.6 2.44 1.17 3.61 1.89a33 33 0 0 1 4.74 3.54c1.5-1.56 3.2-3 5-4.23a26.4 26.4 0 0 1 18.7-4.65c1.92.27 3.74.74 5.56 1.4q.43.06.79.3.08.01.14.1c1.22.6 2.44 1.15 3.61 1.89a35 35 0 0 1 6.06 4.76 40 40 0 0 1 8.42 12.37c1 2.22 1.82 4.5 2.5 6.74a56 56 0 0 1 2.11 19.72v.38c-.6 6.8-2.17 13.54-5.26 19.64-2.99 5.96-7.32 11.49-12.99 15.12a31 31 0 0 1-7.15 3.35c-2.42.79-4.98 1.1-7.51 1.1h-1.03c-5.39-.17-10.48-2.4-14.48-5.26a34 34 0 0 1-2.7-2.18 30.4 30.4 0 0 1-12.82 8.01 24 24 0 0 1-7.52 1.1h-1.02zm-13-75.07q-1.5 1.29-2.86 2.73a44 44 0 0 0-3.09 3.9 42 42 0 0 0-2.49 4.28 63 63 0 0 0-2.08 4.93 57 57 0 0 0-1.7 6.26 73 73 0 0 0-.79 5.58q-.22 3.11-.12 6.27.17 3.15.7 6.26.49 2.83 1.31 5.58a42 42 0 0 0 3.95 9.09l.29.48q1.08 1.76 2.34 3.37a38 38 0 0 0 2.83 3.11 37 37 0 0 0 2.58 2.2 31 31 0 0 0 3.5 2.18 29 29 0 0 0 3.2 1.34q1.72.54 3.54.86 1.67.22 3.35.22 1.18-.06 2.32-.22c0-1.96-.17-3.92-.26-5.88l-.39-8.93-.43-9.4a1 1 0 0 0 .34-.24l6.98-6.55c1.65-1.53 3.3-3.11 4.96-4.64l2.41-2.28c.4-.38.81-.79 1.22-1.15q.05 0 .1-.1l.07-.06q.18-.19.29-.41c.26-.5.14-1.2-.34-1.53q-.21-.16-.45-.31l-8.14-5.65-5.38-3.75-3.35-2.35q-.44-9.14-.93-18.28l-.15-2.37q-1.35.1-2.72.34-1.77.39-3.38.93l-.24.1a29 29 0 0 0-3.51 1.7q-1.79 1.1-3.4 2.41zm49.05-6.82c-1.17.24-2.3.58-3.37.93q-.15.05-.22.1a26 26 0 0 0-3.32 1.58l-.2.12q-1.77 1.1-3.41 2.42-.87.75-1.7 1.55a44 44 0 0 1 5.52 9.14q1.48 3.33 2.52 6.75a56 56 0 0 1 2.1 19.7v.39c-.6 6.8-2.18 13.54-5.26 19.64a45 45 0 0 1-3.54 5.89l1.2.98q1.66 1.17 3.46 2.18 1.57.75 3.2 1.34 1.74.53 3.53.83 1.67.22 3.34.22c1.18-.05 2.3-.17 3.47-.36 0-2.04-.12-4.07-.16-6.12q-.17-4.69-.39-9.36l-.33-8.16q.19.05.33.05.41 0 .75-.29l7.63-6.96 4.45-4.07 1.4-1.29.1.07q.62.36 1.2.72a1.17 1.17 0 0 0 1.6-.48c.29-.5.15-1.2-.33-1.53q-.08-.03-.12-.1-.34-.18-.7-.4c0-.02.05-.05.05-.07.17-.24.24-.55.22-.84a1.2 1.2 0 0 0-.5-.84l-.1-.07-1.25-.81c.03 0 .08.05.1.05l-.07-.05h-.02q-.04-.01-.08-.05c-3.03-1.96-6.05-3.95-9.09-5.88l-6.74-4.38q-.45-11.48-1.08-22.95h-.77q-1.76.08-3.49.36zm-19.47 20.67c-.55.34-.91.98-.98 1.63q-.05.29-.05.62.01.3.1.55a2.64 2.64 0 0 0 2.48 2.27h.31q.5-.1.94-.38.2-.08.36-.21.5-.45.71-1.06v-.02q.39-.83.15-1.7l-.03-.1c0-.26-.12-.55-.24-.76a2.7 2.7 0 0 0-2.03-1.25q-.51 0-.96.17-.4.04-.74.24zm42.6-.74a2.4 2.4 0 0 0-2.2 1.15c-.62.95-.64 2.2-.2 3.25.33.77 1.14 1.22 1.93 1.32h.3q.67 0 1.2-.29l.5-.14c.42-.15.7-.55.97-.89.45-.55.6-1.24.5-1.94a2 2 0 0 0-.65-1.15l-.26-.23q-.19-.33-.48-.55a2.6 2.6 0 0 0-1.53-.48h-.07zm-50.5-.74a4.4 4.4 0 0 0 3.78.55 4.3 4.3 0 0 0 2.78-2.7 4.26 4.26 0 0 0-1.87-5.2h.03s-.05 0-.05-.05h-.05l-.38-.19-.15-.07q-.15-.07-.28-.1a.2.2 0 0 1-.12-.04h.1c-.08 0-.17-.05-.25-.07h-.11a4.4 4.4 0 0 0-5.22 5.16 4.4 4.4 0 0 0 1.8 2.7m40.96-8.3a5 5 0 0 0-.84 1.22 5 5 0 0 0-.4 2.6c.1.94.57 1.87 1.22 2.54q.53.58 1.24.93 1.02.5 2.15.5.39.02.77-.07a4.61 4.61 0 0 0 2.03-8.23l-.26-.19-.17-.12a3 3 0 0 0-.71-.33l-.17-.05a4.6 4.6 0 0 0-4.83 1.17z"/><path fill="#0f0f0f" d="M376.96 306.95a3.6 3.6 0 0 1-1.27-3.78c-.63-1.63-.8-3.97.4-5.36 2.13-3.11 8.86-9.9 10.22-2.68 1.12 1.27.86 2.82.48 4.28.52 2.87-2.52 5.05-4.33 6.7a2.7 2.7 0 0 1-2.37.62c-.91.77-2.13.96-3.13.24z"/><path fill="#df6033" d="M388.33 326.24a17.3 17.3 0 0 1 5.36 16.82 17 17 0 0 1-4.5 8.08 16 16 0 0 1-5.5 3.6l-.5.33c-3.69 2.39-7.5 4.61-11.46 6.5a83 83 0 0 1-17.18 6.1l-.27.05a71 71 0 0 1-16.24 1.87q-1.46.02-2.92-.07a62 62 0 0 1-18.8-3.85 61 61 0 0 1-21.7-14.02c-2.1-1.03-4-2.54-5.5-4.33a18 18 0 0 1-2.8-18.38 17.6 17.6 0 0 1 6.24-7.68c3.25-2.2 7.18-3.2 11.1-2.8a18 18 0 0 1 7.6 2.68q.27.15.46.36 1.12.89 2.13 1.9c.7.11 1.32.45 1.68 1.12l.05.07q.55 1 1.24 1.89.97 1.25 2.13 2.34a24 24 0 0 0 6.39 4.12q2.1.9 4.26 1.53 2.22.58 4.5.93c1.81.22 3.63.34 5.04.36q2.95-.01 5.93-.38c2.13-.29 4.24-.72 5.89-1.15q3.02-.82 5.93-1.96 2.56-1.07 5-2.4a39 39 0 0 0 3.8-2.41q.56-.46 1.27-.72.57-.55 1.2-.98c2.8-2.08 6.2-3.37 9.69-3.35a16 16 0 0 1 7.85 2.01q.24.08.5.24.25.15.45.33.44.25.86.58.33.21.53.5s.12.12.22.17l.04.05z"/><path fill="#9dbbe3" d="M214.66 375.45c-.81-1.58-.45-3.88 1.25-4.72l.16-.1c.03 0 .08-.04.1-.04q.26-.15.48-.2l2.37-1.17q2.06-1 4.11-2.03 4.2-2.05 8.37-4.19c5.7-2.87 11.44-5.74 17.09-8.73q1.62-.85 3.2-1.74.22-.18.48-.31l.36-.15q.28-.1.57-.17c1.73-.21 3 1.46 3.16 3a3.5 3.5 0 0 1-.98 2.89l-.22.19-.3.22q-.06.01-.1.07l-.2.12q-.25.12-.47.16l-1.41.67q-2.04.97-4.05 1.97-4.19 2.1-8.37 4.23-8.61 4.37-17.15 8.85c-1.44.74-2.87 1.46-4.29 2.25q-.21.17-.4.24h-.1l-.1.05q-.52.27-1.1.26a3 3 0 0 1-2.53-1.65zm47.68 4.55c-1.07-.7-1.26-1.88-1.94-2.81a6.5 6.5 0 0 0-3.85-2.59c-4.93.43-5.17-7.53-.28-6.62 4.73.45 8.66 4.2 10.26 8.46.62 2.37-1.82 5.2-4.19 3.57m209.12-96.15c-11.82.15-12.46-16.36-3.61-21.03 3.44-.71 4.73 4.72 1.96 6.2-2.42 1.77-4.02 7.27-.02 8.06 4.3 1.08 7.87-2.17 11.48-3.8 2.82-1.84 6.08-2.94 8.85-4.86 3.47-1.98 5.86 3.97 2.82 5.77-3.51 2.2-7.68 4-11.24 6.03-3.5 1.81-6.44 3.85-10.24 3.6z"/><path fill="#9dbbe3" d="M472.94 296.2c-15.33-7.02 1.99-26.45 3.32-15.04.2 3.01-5.28 4.04-3.77 7.18 1.93 2.51 4.97 2.3 7.6 1.1 6.46-1.65 11.82-5.34 18.09-7.35 3.66-1.57 5.55 4.62 2.22 6.1-6.02 1.87-11.45 5.34-17.5 7.2-3.21 1.01-6.7 2.45-9.96.8z"/><path fill="#9dbbe3" d="M480.23 311.28c-8.73-2.13-10.7-15.74-3.18-20.33 2.49-.67 4.12 2.65 3.3 4.52-.21 1.15-1.27 1.7-1.82 2.6-1.48 2.57-.14 6.16 2.83 6.8 3.47.86 2.63 7.2-1.13 6.41"/><path fill="#9dbbe3" d="M471.99 314.32a2 2 0 0 1-.34-.45l-.19-.32c-2.06-3.35-4.26-6.6-6.41-9.88a2939 2939 0 0 0-13.2-20.14c-.92-1.34-1.73-2.75-2.74-4.02a3.7 3.7 0 0 1 .34-4.66c1.39-1.32 3.37-.63 4.1.74q.05.11.11.19.03.08.1.14c2.92 4.71 6 9.3 9.04 13.95l9.26 14.04q1.22 1.88 2.49 3.76.51.83 1.07 1.65.15.18.29.38c0 .03.05.07.07.1.98 1.22 1 3.23.02 4.45a2.5 2.5 0 0 1-1.96 1c-.71 0-1.43-.3-2.03-.88z"/><path fill="#4c6e9c" d="M159.61 471.69c-3.01-5.8 6.41-6.39 7.7-11.03 11.4-22.44-5.69-66.18-20.64-84.5-6.72-8.97-20.6-15.22-30.31-7.3a2.67 2.67 0 0 1-4.36 1.32c-5.93-7.97 13.47-13.11 18.95-11.1 30.6 5.24 55.58 78.85 41.39 104.52-1.6 3.73-4.74 6.48-8.2 8.28-1.3 1.41-3.4 1.53-4.53-.2"/><path fill="#4c6e9c" d="M185.8 461.76c-1.76-.14-2.7-1.93-2.7-3.54a4 4 0 0 1 .15-.93l.02-.1s.02-.1.05-.14q.24-.73.4-1.46.33-1.61.5-3.28c.17-1.96.22-3.94.2-5.43 0-.26 0-.55-.03-.76a97 97 0 0 0-1.1-11.22 163 163 0 0 0-4.09-18.3 193 193 0 0 0-7.96-22.42 142 142 0 0 0-7.68-15.43 85 85 0 0 0-6-9.05 46 46 0 0 0-3.93-4.52 28 28 0 0 0-2.7-2.34 14 14 0 0 0-1.51-.96q-.65-.33-1.34-.6c-.29-.1-.55-.14-.84-.21h-.45c-1.73 0-2.75-2.06-2.7-3.54.04-1.58 1.21-3.2 2.94-3.09h.12q.39 0 .74.14c4.52.96 8.1 4.29 11.1 7.66 4.16 4.64 7.46 10 10.48 15.4 2.94 5.27 5.5 10.77 7.8 16.37q3.26 7.89 5.8 16.03a180 180 0 0 1 4.65 18.04 108 108 0 0 1 2.22 17.54v.21c.15 4.48-.1 8.93-1.17 13.28q-.02.15-.07.28c-.29 1.27-1.31 2.42-2.68 2.42h-.19zm-.02-60.22c-1.57-1.03-1.96-3.37-.98-4.95 1.56-4.38 3.2-8.88 2.94-13.59v.1-.12c-1.2-4.38 4.55-6.1 5.48-1.42.55 5.17-.67 10.48-2.44 15.32-.6 2.32-1.89 6.46-5 4.66m27.5 35.91c-2.34-7.1-11.87-5.29-16.5-9.97-6.52-4.9-7.6-17.06.54-20.87 1.41-.52 3.33-.76 4.5-1.65-.4-4.45-.79-8.94-3.23-12.8-1.24-2.3-4.35-3.49-3.8-6.5.43-3.07 4.04-3.45 5.21-.94a17 17 0 0 1 3.52 4.52c2.37 3.83 3.1 8.26 3.59 12.66.76 5.89.95 7.66-4.9 10.05-6.73.72-6.25 7.58-1.54 10.81 3.64 2.2 8.23 2.4 11.82 4.76 3.2 1.75 5.38 5.03 6.27 8.52.84 4.04-4.43 5.74-5.46 1.41zm195.56 24.07a2.7 2.7 0 0 1-1.81-1l-.08-.1q-.22-.29-.38-.62a4 4 0 0 1-.31-.88v-.05a2 2 0 0 1-.1-.8c-.02-.52-.1-1.07-.14-1.6-.1-.95-.14-1.91-.21-2.87a127 127 0 0 1 .6-22.1 134 134 0 0 1 7.05-29.95 121 121 0 0 1 5.84-13.6 113 113 0 0 1 15.96-23.97 107 107 0 0 1 5.79-6.07c1.05-1.03 2.1-2.08 3.25-3.04 1.3-1.08 3.06-.7 3.97.7.86 1.3.86 3.58-.48 4.63a57 57 0 0 0-5.29 4.9l-.1.1-.09.1a104 104 0 0 0-16.55 22.87 124 124 0 0 0-6.15 13.33v.05l-.07.19c-1.9 4.95-3.52 10-4.67 14.69l-.05.24c-1.12 4.73-2.1 9.5-2.65 14.2l-.05.46a123 123 0 0 0-.91 16.48c.05 3.23.2 6.49.6 9.7.07.38.07.54.07.95 0 .6-.19 1.2-.52 1.7l-.03.05q-.32.5-.86.88a3 3 0 0 1-.67.31q-.33.1-.67.1h-.24z"/><path fill="#4c6e9c" d="M429.83 470.97c-18.95-8.92-10.65-46.05-5.55-61.89 6.12-20.38 17.27-43.73 39.5-49.76a23.5 23.5 0 0 1 9.78-1.22c1.94-.67 3.71 1.58 3.6 2.99.2 3.85-3.38 3.8-6.2 3.45-4.91.21-9.36 2.08-13.55 4.1-18.23 10.7-25.26 32.57-30.6 51.73-2.17 8.5-2.96 17.1-3.2 25.77.14 6.22.81 12.92 5.67 17.3 2.25 1.26 5.48 2.68 4.45 5.86-.46 1.67-2.4 2.7-3.93 1.67zm-21.81-75.36c-3.26-4.3-7.92-10.98-4.9-16.36 2.4-3.09 6.19.86 4.63 3.78.5 2.8 2.04 5.07 3.6 7.3 1.33 1.26 1.95 3.3.9 4.95a2.6 2.6 0 0 1-4.23.33m-30.8 43.52c-5.48-2.42.36-11.27 4.28-12.58 2.32-1.65 5.1-1.94 7.82-2.18 5.36-.88 10.72-4.1 8.04-10.24-.81-2.22-3.61-2.15-5.21-3.52-4.26-3.35-3.23-9.5-2.9-14.25.31-4.53 2.01-9 3.88-13.07 2.6-3.66 6.81 1.22 4.42 4.21-1.5 3.62-2.8 7.1-2.92 10.91.08 2.13-.86 5.31.72 6.9 9.71 2.63 11.1 17.36 2.9 22.6-2.52 1.24-5.1 2.56-7.92 2.94-3.95.2-9.12 1.51-9.9 6-.39 1.5-1.7 2.74-3.24 2.28z"/><path fill="#664627" d="M228 429a31 31 0 0 1-11.1-18.25c-2.27-6.87-1.7-14.95-5.9-21-2.9-1.08-2.47-6.46.86-6.51 8.42 2.1 8.32 21.91 11.26 29.02 1.4 4.47 4.02 7.68 7.28 10.74 3.2 1.55 1.2 7.75-2.37 6zm138.68-3.2c-2.52.17-3.83-2.63-3-4.76 1.13-2.05 3.16-3.01 4.29-5.04 5.98-8.83 7.36-19.29 8.97-29.53.38-2.68 3.23-5.57 5.5-2.77 1.7 2.13-.29 4.28-.55 6.48-1.05 10.22-3.56 20.29-9.1 29.1a25 25 0 0 1-3.56 4.52c-.4 1.12-1.34 2.05-2.58 2.03z"/><path fill="#664626" d="M342.7 220.92c-12.33-2.6-25.32-2.48-37.8-3.16-9.1-.71-18.16-1.02-27.28-.78-3.78.07-7.15-.27-10.64 1-4.96 1.5-6.94-4.66-1.4-5.67 12.35-1.77 25.56-.72 37.86-.1 13.51.7 26.65.7 39.9 3.16 4.95.1 4.3 6.58-.65 5.55m-76.26-19.8c-3.35-4.17 4.23-5.99 7-7.28 12.16-5.86 26.06-7.99 39.36-5.4 8.73 1.07 17.68 2.3 25.62 6.24 2.56 1.67 1.34 5.31-1.7 5.26-.93 0-2.05-.4-2.75-1.12a53 53 0 0 0-14.35-3.92c-12.82-2.3-26.3-3.43-38.54 1.96-2.56 1-5.02 2.25-7.6 3.15-2.35 1.34-4.65 3.24-7 1.13z"/><path fill="#664626" d="M274.93 195.52c-5.81-13.16-13.35-25.53-16.86-39.62-.46-3.47-2.87-7.2-1.72-10.65.71-1.55 2.89-2.32 4.2-1.03 1.32 1.3 1.03 3.21 1.54 4.86 2.63 10.36 6.12 20.6 11.53 29.86q2.63 5.41 5.12 10.84c1.05 1.98 2.17 4.64.1 6.4a2.54 2.54 0 0 1-3.88-.69zm52.81-1.01c-3.52-1.12-1.53-5.64-.84-7.87.91-3.64 2.47-7.82 3.54-11.17 3.8-10.82 5.89-19.98 8.93-29.57 2.1-2.3 5.45-.27 5.07 2.63-2.94 9.19-5.29 18.85-8.59 27.97-1.24 4.23-3.09 9.09-4.11 13.27-.48 2.1-1.2 5.41-4.05 4.76zm93.25 140.69c-2.16-10.64-4.53-21.76-7.8-32.08-.77-2.1-.77-5.12 1.74-5.88 2.25-.6 3.9 1.94 3.5 3.92a289 289 0 0 1 6.77 26.92c.3 3.16 3.47 8.92-1.1 10.12-1.73.19-2.92-1.44-3.11-3.02zm-208.21 21.1a78 78 0 0 1-3.95-8.32c0 .05.05.1.05.15-3.01-6.77-4-14.14-4.62-21.46-.64-6.4-1.14-13.14.46-19.38 2.13-8 4.07-16.96 10.17-22.94 12.68-13.21 38.16-4.36 30.93 15.64a48.7 48.7 0 0 0 1.41 40.24c1.03 1.87 1.68 3.95-.02 5.58-4.57 2.96-5.89-5.77-7.23-8.47-4.83-11.7-4.18-25.62-.33-37.42 8.54-16.91-15.89-19.9-23.33-8.04-8.54 14.76-8.28 32.27-4.33 48.33a60 60 0 0 0 3.97 9.78c.58 1.51 1.92 2.68 2.08 4.3.39 3.14-3.54 4.94-5.23 2.02zm241.17-35.33c-6.01-10.29-12.01-20.36-16.58-31.3-.32-1.57.45-3.49 2.22-3.7 1.6-.22 2.82 1.03 3.25 2.46 1.75 3.83 3.6 8.09 5.5 11.68 2.85 5.33 6.16 10.4 9.07 15.72 1.3 1.77 2.68 4.52.5 6.22-1.33 1-3.13.26-3.97-1.08m-90.6 105.96c-11.1-7.92-15.96-24.26-8.54-36.3 3.63-5.18 9.13-9.35 15.57-10.04 3.85-.53 7.8-1.12 11.39.72 4.02.76 2.3 7.34-1.53 6.5-4.05-2.27-8.45-1.21-12.73-.21-10.5 3.59-13.18 15.9-8.25 25.1 1.62 4.01 5.02 6.6 8.2 9.33 2.63 2.58-1.22 7.96-4.11 4.9m-128.37-40.48s-.05.1-.05.15c0-.05.05-.1.05-.15m-24.17-1.51c.1-1.5.99-2.99 2.59-3.23a22 22 0 0 1 5.29-1.53v.1q-.17 1.23-.12 2.46.04 1.28.19 2.56l.22 1.3q-2.4.4-4.6 1.43-.57.14-1.03.14c-1.82 0-2.6-1.62-2.49-3.25zm32.97 6.63h-.05l.03-.02zm-15.03 36.05c-.84-1.58-.24-3.56 1.15-4.62 2.35-2.36 5.05-4.54 6.89-7.36a25 25 0 0 0 3.83-13.28h.16q.68-.04 1.32-.12a12 12 0 0 0 4.07-1.12 31 31 0 0 1-3.28 14.92c-2.18 5.05-6.36 8.71-10.26 12.4q-.7.58-1.56.57c-.93 0-1.84-.5-2.32-1.39m56.56-202.94c-1.26-1.02-1.5-3.1-.64-4.47 2.27-3.11 4.42-7.97 8.68-8.37 3.52.14 3.52 6.22.12 6.62-2.87 1.58-4.2 8.71-8.16 6.22m32.24 2.42c-.36-4.36-5.57-6.63-5.43-10.91.26-1.63 1.49-2.8 3.14-2.8 1.34 0 2.25 1.12 2.56 2.34q1.15 1.46 2.25 3c1.65 2.89 5.16 8.6.86 10.66-1.58.53-3-.79-3.38-2.3"/><path fill="#664626" d="M395.9 388.32c-1.87-.12-2.97-2.06-4.81-2.27-2.54.14-5.5-1.6-7.63.33-2.92 2.8-6.2-2.3-3.83-4.76 2.39-2.82 6.29-3.13 9.69-2.3 2.25.2 4.57.34 6.4 1.82q1.15-.91 2.54-1.46c1.63-.64 3.35-.71 5.08-.57 2.94-9.79 10.05-17.54 18.85-22.42 1.1-.79 2.3-1.67 3.7-1.48 3.67.22 3.45 6.63-.16 6.63-8.23 4.45-15.29 11.38-17.49 20.67-.19 1.81-1.39 3.78-3.47 3.42-2.13-.34-4.16-.74-5.9.62-.87.81-1.59 1.91-2.95 1.82zm-199 .5c-1.6-.67-2.51-2.5-4.23-2.97-1.63-.29-3.45-.17-4.26-1.91-1.84-8-7.23-15.03-13.93-19.64-1.22-1.3-1.07-3.14-.35-4.5 1-2.06 3.97-2.08 4.88.1 6.38 4.87 11.55 11.76 14.06 19.4a9 9 0 0 1 4.84 2.41c3.87-3.06 19.52-1.65 17 5.48-.71 1.65-2.65 2.4-4.13 1.22-2.85-1.67-6.9-2.34-10-1.12-1.06.98-2.28 2.17-3.86 1.53z"/><path fill="#664626" d="M235.32 403.87c-11.44-1.62-23.57-15.36-21.54-27.25-9.54-3.54-11.93-19.2-1.55-23.2 4.52-2.47 6.91 4.3 2.75 6.05-4.98.29-5.02 6.94-1.67 9.47 2.05 1.87 3.22 1.58 5.55 2.2 1.34.68 1.81 2.69 1.36 4.03-.4.93-.96 1.72-1 2.77-.91 7.15 4.97 12.35 9.78 16.68 10.14 6.6 26.46 2.56 32.01-8.26.6-2.18 1.36-4.64.81-6.89-.52-1.55 0-3.56 1.54-4.33 4.75-1.41 4.37 5.53 4.01 8.5-1.74 14.68-18.54 22.53-32.03 20.21z"/><path fill="#664626" d="M262.02 378.78c-3.06-5.8 7.42-6.41 2.85-14.3-1.08-2.14-3.14-3.81-4.79-5.06-1.86-1.36-3.82-2.7-6.24-2.37-3.73-.88-1.39-5.45-3.2-7.75a11 11 0 0 0-3.64-2.53c-2.23.26-4.48-.27-4.67-2.92-.14-1.72.91-3.52 2.7-3.76.77-.02 1.42.2 2.16.12 4.97.84 9.35 5.29 9.76 10.4 9.8 3.05 18.97 15.18 12.3 24.96-1.7 1.99-4.62 6.5-7.23 3.18z"/><path fill="#883416" d="M383.66 352.46c-.34-1.44.57-2.66 1.7-3.21q.35-.15.67-.33l.74-.5q.39-.33.79-.73.46-.5.88-1.05.33-.5.62-1 .39-.73.7-1.53c.21-.63.38-1.27.5-1.8v-.12q.2-1.14.24-2.3 0-1.4-.17-2.8-.23-1.45-.7-2.89a18 18 0 0 0-2.56-4.8c-.54-.7-1.12-1.35-1.47-1.68-.58-.53-1.15-1-1.8-1.46q-.72-.48-1.48-.89a14 14 0 0 0-1.41-.6q-.66-.21-1.34-.35-.47-.08-.94-.12c-.38 0-.74-.03-1.12 0-.26 0-.5.05-.77.07q-.42.08-.86.2-.56.17-1.1.4l-.6.3a7 7 0 0 0-1.5 1.28l-.15.12q-.1.18-.26.35-2.6-1.53-5.2-3.1s.03-.08.06-.1l.07-.07a17 17 0 0 1 4.52-3.5 15 15 0 0 1 4.86-1.48c3.08-.43 6.26.26 9.04 1.6 6.5 3.16 10.81 10.2 11.3 17.35a20 20 0 0 1-1.01 7.63 17 17 0 0 1-2.87 5.1q-1.24 1.47-2.83 2.56-.67.44-1.38.86c-.63.45-1.42.7-2.23.7-1.34 0-2.66-.68-3.01-2.07z"/><path fill="#883416" d="M288.4 351c-4.52-4.22-7.41-9.96-7.15-16.2.12-4.7 2.6-9.12 5.24-12.87 4.26-5.07 11.8-7.59 18.3-6.58 5.02 1.29 9.4 4.07 13.11 7.58l-.12-.12c8.23 10.07 22.42 12.4 34.38 8.54 5.38-1.62 10.36-5.45 14.86-8.13 2-1.46 5.57-3.04 7.05-.12.8 1.91-.9 3.52-2.6 4.07-4.02 2.32-7.76 5.02-11.87 7.15-10.93 5.26-24.5 6.12-35.6.98-7.75-3.13-11.99-11.55-20-14.16-3.9-1.37-8.76.6-11.67 3.04-3.74 4.4-5.72 10.4-3.8 16a25 25 0 0 0 4.56 6.58c3.04 2.75-2.03 6.6-4.66 4.24z"/><path fill="#883416" d="M316.62 367.55a62 62 0 0 1-18.61-8.68 60 60 0 0 1-8.98-7.63l-.05-.05-.04-.02q.01.03.07.07c.07.07.17.14.21.21h.03l-.1-.07-.21-.21-.2-.24a2.7 2.7 0 0 1 .5-3.5c1.3-1.2 3.74-1.4 4.96 0q.04.04.05.08.03.02.07.1c.57.66 1.22 1.26 1.7 1.74l.21.19.05.05.07.07a53 53 0 0 0 19.33 11.58c2.3.79 4.67 1.41 6.82 1.89q4.02.82 8.16 1.15c3.04.24 6.08.26 8.64.14q5.15-.27 10.24-1.15a97 97 0 0 0 22.77-7.13q.1-.05.2-.07.04 0 .09-.05l.19-.1a112 112 0 0 0 12.08-6.33q.56-.36 1.13-.7c-.03 0-.08.05-.1.05q-.1.08-.22.12l-.1.05.18-.1.12-.07c1.38-.88 3.4-1.03 4.59.29.57.62.76 1.48.55 2.3a3.4 3.4 0 0 1-1.65 1.96c-6.1 3.58-12.4 6.82-19 9.45a100 100 0 0 1-25.21 6.5q-4.74.58-9.53.58a72 72 0 0 1-19.09-2.51z"/><path fill="#883416" d="M314.56 347.7a45.5 45.5 0 0 1-15.27-11.07 3.75 3.75 0 0 1-.21-4.7 2.6 2.6 0 0 1 2.17-1c.87.05 1.54.55 1.92 1.05l.14.2q1.09 1.33 2.32 2.5c1.2 1.1 2.49 2.14 3.47 2.88a45 45 0 0 0 5.12 3.13 53 53 0 0 0 7.44 3.14q4.57 1.43 9.23 2.22c3.69.55 7.4.81 10.94.8h.31q5.69-.17 11.12-1.16.08 0 .12-.02h.1a67 67 0 0 0 9.57-2.75 54 54 0 0 0 6.77-3.16 37 37 0 0 0 4.86-3.28 3 3 0 0 1 1.14-.7c1.13-.33 2.28.25 2.92 1.18 1.1 1.58.8 4.24-.98 5.1-.95.62-1.86 1.29-2.84 1.89a62 62 0 0 1-7.68 4 67 67 0 0 1-17.68 4.68q-4.3.54-8.69.55a65 65 0 0 1-26.39-5.5z"/><path fill="#000" d="M175.53 363.39a3 3 0 0 1-.57-1.22l-.62-2.5a48 48 0 0 1-1.1-8.58c-.34-6.48.55-12.97 1.91-19.28a117 117 0 0 1 5.48-17.42c2.34-6 5.12-11.84 8.18-17.56a182 182 0 0 1 7.08-12.1 252 252 0 0 1 22.78-30.46 270 270 0 0 1 34.38-33.09c3.2-2.56 6.4-5.12 9.73-7.51 1.37-.98 3.09-.5 3.9.96.82 1.4.6 3.59-.81 4.6a224 224 0 0 0-20.55 16.45 268 268 0 0 0-25.4 26.17c-.08.1-.17.2-.17.22a246 246 0 0 0-19.02 25.79 203 203 0 0 0-11.68 21.12l-.2.41a137 137 0 0 0-5.88 14.83l-.16.55q-1.85 5.85-3.02 11.85-.76 4.25-1.05 8.58-.16 3.33.05 6.66c.14 1.67.36 3.34.57 4.54.22 1.1.46 2.23.8 3.3l.09.29.07.26c.43 1.63-.2 3.57-1.84 4.17q-.41.14-.82.14c-.83 0-1.62-.43-2.15-1.13z"/><path fill="#000" d="M263.26 219.08c-2.13-1.43-2.2-4.45-2.44-6.77-.46-5.4 1.4-11.53 5.74-14.95 2.37-2.08 5.86-1.53 5.93 2.03 0 1.49-.98 3.16-2.56 3.3-3.13 2.13-3.97 6.7-3.44 10.24 2.22 2.23.19 7.8-3.23 6.13z"/><path fill="#000" d="M266.4 200.15c.1.5.38.91.71 1.3-6.1-6.18-13.97-10.67-19.62-17.28-4.9-3.92-9.59-8.42-11.98-14.35-1.96-4.12-2.01-8.73-1.7-13.18.89-3.6 3.47-6.75 6.1-9.24 5.12-4.04 11.9-3.37 18-2.94 3.75.2 3.6 6.63-.06 6.63-1.02 0-2.17-.12-3.03-.27-11.99-1.6-19.17 5.65-13.88 17.2 2.15 4.29 5.98 7.76 9.6 10.7 3.9 4.04 8.1 7.82 12.63 11.2 2.96 2.63 7.3 4.8 8.66 8.63.57 3.61-4.17 5.53-5.44 1.63z"/><path fill="#000" d="M340.4 151.26c-1.57-.55-2.36-2.59-1.88-4.12 1.46-9-4.9-15.67-13.66-16.55-7.16-.46-13.93 1.74-20.96 2.44-12.85 1.89-27.49-3.95-38.83 4.02-2.87 2.44-3.28 6.81-2.75 10.28-.38 5.29-6.58 3.69-5.93-1.12.38-26.39 28.75-18.38 46.22-19.57 7.39-.72 14.59-3.02 22.08-2.58 8.18.66 17.08 6.02 18.66 14.56.7 3.28 2.75 13.62-2.97 12.66z"/><path fill="#000" d="M333.14 196.97c-1.17-2.08 0-4.35 1.96-5.4 5.31-5.53 11.63-9.86 16.5-15.77 3.57-4.86 7.57-10.07 8.02-16.27-.79-7.66-10.24-8.52-16.2-7.2-1.05.19-2.08.38-3-.36-2.11-1.63-1.5-5.34 1.07-6.15q3.57-.46 7.27-.48c8.9-.76 17.8 7.06 16.34 16.27-2.3 11.22-10.17 21.03-19.07 27.9-2.96 1.94-9.71 12.6-12.87 7.41z"/><path fill="#000" d="M339.57 216.52c-.55-2.15 1.22-3.68 1.27-5.79.48-4.33-1.46-9.88-5.9-11.22-5.44-1.17-1.35-10.38 2.67-6 6.08 3.16 9.1 10.19 8.85 16.84-.24 2.44-.62 5.07-1.8 7.22-1.36 2.09-4.56 1.46-5.09-1.05m85.63 145.2a2.68 2.68 0 0 1-2.56-3.6c.15-4.5.43-9.06-.64-13.49-.58-2.8-.77-5.76-1.65-8.47-.75-2.68 2.44-4.8 4.83-3.92 1.41.38 1.96 1.75 1.8 3.04q.67 4.88 1.6 9.74c.55 3.59.57 7.17.38 10.79.33 2.72-.43 5.98-3.76 5.9"/><path fill="#000" d="M411.67 299c-10.83-34.6-37.75-57.57-66.91-76.78-2.23-1.63-7.1-2.78-5.46-6.41.87-1.46 2.95-1.6 4.29-.77 18.94 12.1 36.94 25.39 51.58 42.66a129 129 0 0 1 22.44 40c.71 1.55.12 3.4-1.63 3.83-1.89.48-3.95-.91-4.3-2.54m36.21-19.39a3.7 3.7 0 0 1-.43-3.87v-.05a10.7 10.7 0 0 0 1.53-8.51c-.4-2.92-3.8-7.61.14-9.33 3.42-.75 3.9 3.56 4.67 5.9a20 20 0 0 1 .69 10.24c-.5 3.02-2.92 9.62-6.6 5.65z"/><path fill="#000" d="M464.18 266.86c-.99-4.98-6.58-10.03-11.25-5.91.05 4.28-5.21 3.92-5.76.05-.63-4.7 4.4-7.56 8.46-8.04 4.24-.27 8.19 2.32 10.65 5.64a22 22 0 0 1 3.33 6.7c1.12 4.14-4.02 5.74-5.41 1.58zm-25.88 22.17c-1.73-5.47 1.67-12.36 7.34-13.78 2.34-.86 5.71-1.38 6.55 1.75.58 1.39-.33 3.78-1.77 3.97-3.5-.12-7.73 2.54-6.72 6.46 1.2 4.12-4.14 5.74-5.38 1.58z"/><path fill="#000" d="M413.02 302.15c-.95-1.7-.07-4.02 1.6-4.88 1.03-.67 2.35-.22 3.43-.53 4.23-.96 8.23-2.9 12.1-4.83 2.7-1.25 5.12-3.06 7.56-4.74 3.62-2.54 5.96 2.97 2.9 5.17-3.76 2.9-24.31 14.74-27.56 9.83zm9.26 34.64c-2.44-2.3.48-6.99 3.6-5.67 7.65-1.13 14.92-4.26 21.76-7.68 3.2-1.56 5.96-5.26 9.07-6.37 3.16-.24 3.64 4.33 1.36 5.82-7.44 6.43-16.43 10.48-25.83 13.06-3.16.6-6.94 2.73-9.96.81z"/><path fill="#000" d="M464.88 327.14c-3.69.15-7.52-1.6-9.5-4.7-2.1-1.83-.65-5.6 1.81-6.04 1.56-.45 2.92.77 3.16 2.23 2.23 2.65 6.3 2.6 9.38 1.77a4.7 4.7 0 0 0 2.97-4.36c-.14-.93-.58-1.81-.38-2.8-.08-2.24 2.44-4.61 4.56-3.25a3.1 3.1 0 0 1 1.23 3.04c.35 1.34.4 2.8.11 4.19-.83 6.4-7.08 10.62-13.35 9.9z"/><path fill="#000" d="M476.2 314.94c-3.83.07-4.3-6.72-.24-6.55 18.9-2.94 27.6-13.18 17.63-31.25-6.82-11.02-13.37-14.54-24.88-7.37-.72.13-1.5.05-2.1-.4-2.54-1.75-1.85-5.84 1.24-6.49 4.8-2.36 9.95-4.56 15.36-2.82 13.83 5.62 22.39 23.09 19.26 37.56-3.02 11.44-15.87 15.58-26.27 17.3zm-300.16 50.61c-3.26-2.2-6.37-4.6-10.34-5.34-4.28-2.1-9.16-2.75-13.88-2.56-2.7.98-6.96 3.04-7.53-1.22-.2-1.91 1.24-3.85 3.2-3.9 2.63-.93 5.31-1.98 8.14-1.24 3.13.26 6.31.26 9.26 1.5 4.7 1.87 9.57 3.21 13.54 6.58 3.42 1.49 1.1 7.59-2.42 6.15z"/><path fill="#000" d="M160.63 474.47c-13.16-.74-22.78-10.62-30.43-20.4-10.03-11.61-15.41-26.13-19.24-40.65-5.7-19.17-8.78-56.63 16.32-62.5 6.57-1.29 13.35-1.14 19.4 1.94 3.66-.4 3.95 5.27.84 6.34-1.97.94-3.69-.6-5.48-1.17-22.42-6.82-29.86 10-29.43 29.5 0 11.75 3.37 22.73 6.7 33.7 4.8 15.53 14.04 28.88 25.74 39.75 9.38 8.34 24.86 10.26 34.12.93 2.27-1.6 3.63-7.25 7.13-4.48 2.58 3.14-1.44 6.7-3.43 9.02-5.83 5.5-14.09 9.21-22.22 8.02z"/><path fill="#000" d="M182.97 462.67c-2.84-1.5-1.31-6.39 1.72-6.36 6.01-1.96 11.8-4.36 17.56-6.9 4.4-1.93 8.24-5 10.75-9.01 1.24-2.23 1.4-6.65 4.97-5.89 5.98 3.06-4.04 14.81-7.58 17.04-5.46 4.09-12.18 6.29-18.52 8.6-1.5.8-3.7 1.73-5.21 2.09-1.2.36-2.44.98-3.69.4z"/><path fill="#000" d="M214.22 438.3a3.66 3.66 0 0 1 1.98-4.58q2.35-.45 4.62-1.38c3.13-1.92 6.22-3.95 7.75-7.42 1.87-4 6.77-1.3 5.05 2.51-3.11 6.51-9.48 11.13-16.37 12.59a2.6 2.6 0 0 1-2.99-1.72z"/><path fill="#000" d="M297.17 438.82c-19.14 0-38.07-3.74-56.78-7.5-2.9-.52-5.81-1.28-8.66-2-1.67-.2-3.4-1.3-2.91-3.23.8-3.28 4.59-2.9 7.03-1.87 19.45 4.4 39.54 8.42 59.47 8.93 23.28.9 44.88-4.4 67.23-10.17 6.39-2.49 7.77 5.9 1.15 5.5-21.8 5.29-43.85 11.15-66.51 10.31zm179.59-71.48c-2.17-3.9-5.26-7.54-9.28-9.62-5.29-2.1-11.91-2.63-17.08.1-1.34.76-2.34 2.25-4.11 2-2.09-.57-4.1-1.48-6.3-1.74a18 18 0 0 0-11.74 2.37c-1.58 1.6-4.74 2.73-6.06.19-1.17-3.28 3.09-4.9 5.41-6.05 5.84-3.09 12.82-3 19-1.03 12.36-7.2 29.16-2.59 35.71 10.26 2.01 3.18-3.42 6.44-5.55 3.52"/><path fill="#000" d="M425.3 474.5c-7.2-1.06-16.63-7.3-18.9-14.36-11.66-6.58-33.07-8.33-32.97-25.38-2.28-3.12-5.8-4.86-9-6.82-3.25-1.22-1.82-7.23 1.8-6.34a47 47 0 0 1 9.66 6.46c2.1 2.03 3.54 4.57 3.13 7.56.2 2.9 2.28 5.52 4.5 7.22 6.41 4 13.83 5.86 20.55 9.26 2.32 1.05 5.24 1.5 6.84 3.66.91 1.44.74 3.35 2.18 4.45 4.1 3.92 9 8.18 15.05 7.82a11 11 0 0 0 4.74-1.57c1.48-.82 3.15.07 3.68 1.57 1.53 5.7-7.35 6.77-11.3 6.44z"/><path fill="#000" d="M433.73 471.7a3.1 3.1 0 0 1-1.29-2.62c0-1.74 1.44-3.7 3.23-3.56q.84-.05 1.68-.22 1.7-.32 3.34-.9a30 30 0 0 0 3.6-1.56l.16-.1a45 45 0 0 0 4.52-2.77l.07-.05q2.7-1.95 5.1-4.21a71 71 0 0 0 5.93-6.39 87 87 0 0 0 6.08-8.5c2.3-3.7 4.4-7.53 6.17-11.4 1.92-4.19 3.57-8.45 4.9-12.61q1.99-6.35 3.21-12.87.94-5.26 1.3-10.58c.16-3.01.14-6.03 0-8.75 0-.17-.03-.34-.03-.4a56 56 0 0 0-.79-6.1l-.05-.27q-.56-2.8-1.48-5.53-.56-1.66-1.34-3.25c-.26-.53-.55-1.03-.77-1.41a3.7 3.7 0 0 1 .46-4.4c1.15-1.25 3.4-1.37 4.26.33l.1.21.16.34a46 46 0 0 1 3.8 10.74 65 65 0 0 1 1.37 13.23c.05 9.33-1.5 18.64-4.07 27.6a117 117 0 0 1-10.67 25.27c-.57 1-1.17 1.99-1.72 2.87-4.95 7.9-10.96 15.41-18.47 21-.22.15-.4.32-.55.42a42 42 0 0 1-8.59 4.88 35 35 0 0 1-7.94 2.03l.38-.07.38-.12.39-.2q-.72.4-1.46.41-.66 0-1.3-.38z"/><defs><filter id="crests-buisness-sales-filter0_d_23_11512" width="442.11" height="396.7" x="87" y="109" color-interpolation-filters="sRGB" filterUnits="userSpaceOnUse"><feFlood flood-opacity="0" result="BackgroundImageFix"/><feColorMatrix in="SourceAlpha" result="hardAlpha" values="0 0 0 0 0 0 0 0 0 0 0 0 0 0 0 0 0 0 127 0"/><feOffset dx="12" dy="12"/><feComposite in2="hardAlpha" operator="out"/><feColorMatrix values="0 0 0 0 0 0 0 0 0 0 0 0 0 0 0 0 0 0 0.4 0"/><feBlend in2="BackgroundImageFix" result="effect1_dropShadow_23_11512"/><feBlend in="SourceGraphic" in2="effect1_dropShadow_23_11512" result="shape"/></filter></defs></svg>