<svg xmlns="http://www.w3.org/2000/svg" fill="none" viewBox="0 0 600 600"><g filter="url(#crests-customer-analytics-filter0_d_23_18942)"><mask id="crests-customer-analytics-path-1-outside-1_23_18942" width="380" height="427" x="102.83" y="74.33" fill="#000" maskUnits="userSpaceOnUse"><path fill="#fff" d="M102.83 74.33h380v427h-380z"/><path fill-rule="evenodd" d="M323.42 92.35c.42.05.83.07.93.1q.29.01.42.05a173 173 0 0 1 39.37 8.45 141 141 0 0 1 48.85 28.8 133 133 0 0 1 28.8 37.66c7.24 14.1 11.79 29.53 13.86 45.22 2.17 16.39 1.4 33.14-1.6 49.37q-.49 2.6-1.05 5.2c9.3 6.3 13.17 19.57 11.7 30.37-2.81 19.9-20.5 28.38-39.1 26.03h-.03a10 10 0 0 1-1.9-.15l-.09.12c-8.46 11.9-20.54 20.69-32.54 28.76q-.64.68-1.52 1.02-.83.56-1.74 1.13c-.06 8.35.19 16.69-.4 25 6.82 6.6 3.77 17.17 2.76 25.47 7.84.78 10.8 4 10.52 11.94 18.51 4.19 27.56 14.53 29.14 33.48 2.3 2.04 4.5 7.21 4.63 11.66.52.69.83 1.54.8 2.5-.13 5.02-3.39 8.9-7.32 11.64-3.95 2.66-8.5 4.34-13.1 5.48a87 87 0 0 1-18.85 2.33l-3.13.02c-13.39 0-26.9-2.1-39.62-6.2l-.03.05a85 85 0 0 1-18.28-8.14 41 41 0 0 1-7.9-6.13c-1.1 1.77-2.5 3.44-4.29 4-6.32 5.54-25.06 9.74-29.08 10.82-13.03 2.56-26.24 4.52-39.55 3.88-3.1-.26-14.83-.6-22.51-2.75-1.23.2-2.52.05-3.57-.54-9.87-2.48-13.67-15.62-7.65-23.45a10 10 0 0 1 4.18-3.28c-.87-16.4 11.02-32.6 27.65-34.92.44-7.89 2.84-11.53 11.14-11.4-.2-8.12-5.81-20.35 3.05-25.5.28-2.83-.18-5.89-.08-8.8-2.54-.71-5.31-.9-7.8-1.7a9823 9823 0 0 0-70.65 88.2q-1.9 2.4-3.8 4.84l-.77.98q-.14.44-.32.84c-8.79 11.03-23.99 17.86-38 14.42l-.02.03c-8.92-3.28-16.56-10.3-21.02-18.83-2.24-2.54-3.61-5.14-3.43-7.46q.08-.45.24-.9-.48-1.96-.74-3.96c-.66-9.37.69-19.5 5.68-27.58a5 5 0 0 1 1.16-1.9l.06-.05c4.73-5.5 9.17-11.27 13.67-16.93q8.32-10.5 16.65-21.05a7219 7219 0 0 0 31.61-40.15 35.6 35.6 0 0 1-14.37-7.05 37 37 0 0 1-11.81-17.5 37.6 37.6 0 0 1 .3-23.1c1.45-4.3 3.78-8.3 6.7-11.77a35 35 0 0 1 3.9-3.97l-.1-.39-.06.03a170 170 0 0 1-3.4-22.46q-.87-11.26-.06-22.52a152 152 0 0 1 11.81-48.55c3.6-8.3 7.89-16.28 12.57-23.31a150 150 0 0 1 33.5-36.09 147 147 0 0 1 42.11-22.8 152 152 0 0 1 38.78-7.94q6.55-.45 13.12-.3a2.7 2.7 0 0 1 1.62-.37m88.12 382.04c-5.7.98-11.63 1.19-15.95 1.46h-.03c-4.03.23-9.76.22-16.16-.23q4.8.54 9.64.73 6.25.2 12.5-.34a79 79 0 0 0 10-1.62m-175.96-10.14q-.18.14-.4.26l.46.16-.06-.34zm104.45-87.85q-4.9 1.3-9.87 2.3a97 97 0 0 1-15.83 2.57q-.5.25-1.12.39c0 1.52-.11 3.04-.08 4.22 7.93 9.54-1.06 20.74 0 31.3 7.44 4.56 8.81 13.74 10.05 21.67q1.8 1.06 3.13 2.56 1.38-1.68 3.3-2.9c.78-8.56 2.3-18.49 9.72-23.94-1.08-8.74-4.65-19.03 1.12-26.81a66 66 0 0 1-.42-8.43c.06-.95.02-1.94 0-2.93m26.36 53.3a21 21 0 0 1-4.83 1.11c1.78-.19 3.5-.62 4.81-1.1l.22-.11zm49.52-108.46a134 134 0 0 1-20.48 18.53l-.78.57-.31.28c8.05-5.82 15.67-12.3 22.07-19.9h-.04zm-243.06-1.95.6.95a39 39 0 0 0 2.44 3.05 37 37 0 0 0 2.77 2.58q1.57 1.25 3.28 2.3 1.16.69 2.39 1.28a32.5 32.5 0 0 1-11.48-10.16m265.18-141.12-.43-.96-.13-.28zm-190.66-57.22a168 168 0 0 0-5.47 3.3 140 140 0 0 0-15.1 11.2l-.23.2a159 159 0 0 0-13.07 12.76q2.84-2.89 5.83-5.6.03-.06.1-.11c.13-.13.29-.29.47-.39.28-.28.6-.54.62-.57q5.02-4.48 10.5-8.4l.03-.03q7.67-6.82 16.32-12.36" clip-rule="evenodd"/></mask><path fill="#fff" fill-rule="evenodd" d="M323.42 92.35c.42.05.83.07.93.1q.29.01.42.05a173 173 0 0 1 39.37 8.45 141 141 0 0 1 48.85 28.8 133 133 0 0 1 28.8 37.66c7.24 14.1 11.79 29.53 13.86 45.22 2.17 16.39 1.4 33.14-1.6 49.37q-.49 2.6-1.05 5.2c9.3 6.3 13.17 19.57 11.7 30.37-2.81 19.9-20.5 28.38-39.1 26.03h-.03a10 10 0 0 1-1.9-.15l-.09.12c-8.46 11.9-20.54 20.69-32.54 28.76q-.64.68-1.52 1.02-.83.56-1.74 1.13c-.06 8.35.19 16.69-.4 25 6.82 6.6 3.77 17.17 2.76 25.47 7.84.78 10.8 4 10.52 11.94 18.51 4.19 27.56 14.53 29.14 33.48 2.3 2.04 4.5 7.21 4.63 11.66.52.69.83 1.54.8 2.5-.13 5.02-3.39 8.9-7.32 11.64-3.95 2.66-8.5 4.34-13.1 5.48a87 87 0 0 1-18.85 2.33l-3.13.02c-13.39 0-26.9-2.1-39.62-6.2l-.03.05a85 85 0 0 1-18.28-8.14 41 41 0 0 1-7.9-6.13c-1.1 1.77-2.5 3.44-4.29 4-6.32 5.54-25.06 9.74-29.08 10.82-13.03 2.56-26.24 4.52-39.55 3.88-3.1-.26-14.83-.6-22.51-2.75-1.23.2-2.52.05-3.57-.54-9.87-2.48-13.67-15.62-7.65-23.45a10 10 0 0 1 4.18-3.28c-.87-16.4 11.02-32.6 27.65-34.92.44-7.89 2.84-11.53 11.14-11.4-.2-8.12-5.81-20.35 3.05-25.5.28-2.83-.18-5.89-.08-8.8-2.54-.71-5.31-.9-7.8-1.7a9823 9823 0 0 0-70.65 88.2q-1.9 2.4-3.8 4.84l-.77.98q-.14.44-.32.84c-8.79 11.03-23.99 17.86-38 14.42l-.02.03c-8.92-3.28-16.56-10.3-21.02-18.83-2.24-2.54-3.61-5.14-3.43-7.46q.08-.45.24-.9-.48-1.96-.74-3.96c-.66-9.37.69-19.5 5.68-27.58a5 5 0 0 1 1.16-1.9l.06-.05c4.73-5.5 9.17-11.27 13.67-16.93q8.32-10.5 16.65-21.05a7219 7219 0 0 0 31.61-40.15 35.6 35.6 0 0 1-14.37-7.05 37 37 0 0 1-11.81-17.5 37.6 37.6 0 0 1 .3-23.1c1.45-4.3 3.78-8.3 6.7-11.77a35 35 0 0 1 3.9-3.97l-.1-.39-.06.03a170 170 0 0 1-3.4-22.46q-.87-11.26-.06-22.52a152 152 0 0 1 11.81-48.55c3.6-8.3 7.89-16.28 12.57-23.31a150 150 0 0 1 33.5-36.09 147 147 0 0 1 42.11-22.8 152 152 0 0 1 38.78-7.94q6.55-.45 13.12-.3a2.7 2.7 0 0 1 1.62-.37m88.12 382.04c-5.7.98-11.63 1.19-15.95 1.46h-.03c-4.03.23-9.76.22-16.16-.23q4.8.54 9.64.73 6.25.2 12.5-.34a79 79 0 0 0 10-1.62m-175.96-10.14q-.18.14-.4.26l.46.16-.06-.34zm104.45-87.85q-4.9 1.3-9.87 2.3a97 97 0 0 1-15.83 2.57q-.5.25-1.12.39c0 1.52-.11 3.04-.08 4.22 7.93 9.54-1.06 20.74 0 31.3 7.44 4.56 8.81 13.74 10.05 21.67q1.8 1.06 3.13 2.56 1.38-1.68 3.3-2.9c.78-8.56 2.3-18.49 9.72-23.94-1.08-8.74-4.65-19.03 1.12-26.81a66 66 0 0 1-.42-8.43c.06-.95.02-1.94 0-2.93m26.36 53.3a21 21 0 0 1-4.83 1.11c1.78-.19 3.5-.62 4.81-1.1l.22-.11zm49.52-108.46a134 134 0 0 1-20.48 18.53l-.78.57-.31.28c8.05-5.82 15.67-12.3 22.07-19.9h-.04zm-243.06-1.95.6.95a39 39 0 0 0 2.44 3.05 37 37 0 0 0 2.77 2.58q1.57 1.25 3.28 2.3 1.16.69 2.39 1.28a32.5 32.5 0 0 1-11.48-10.16m265.18-141.12-.43-.96-.13-.28zm-190.66-57.22a168 168 0 0 0-5.47 3.3 140 140 0 0 0-15.1 11.2l-.23.2a159 159 0 0 0-13.07 12.76q2.84-2.89 5.83-5.6.03-.06.1-.11c.13-.13.29-.29.47-.39.28-.28.6-.54.62-.57q5.02-4.48 10.5-8.4l.03-.03q7.67-6.82 16.32-12.36" clip-rule="evenodd"/><path stroke="#fff" stroke-linejoin="round" stroke-width="34" d="M323.42 92.35c.42.05.83.07.93.1q.29.01.42.05a173 173 0 0 1 39.37 8.45 141 141 0 0 1 48.85 28.8 133 133 0 0 1 28.8 37.66c7.24 14.1 11.79 29.53 13.86 45.22 2.17 16.39 1.4 33.14-1.6 49.37q-.49 2.6-1.05 5.2c9.3 6.3 13.17 19.57 11.7 30.37-2.81 19.9-20.5 28.38-39.1 26.03h-.03a10 10 0 0 1-1.9-.15l-.09.12c-8.46 11.9-20.54 20.69-32.54 28.76q-.64.68-1.52 1.02-.83.56-1.74 1.13c-.06 8.35.19 16.69-.4 25 6.82 6.6 3.77 17.17 2.76 25.47 7.84.78 10.8 4 10.52 11.94 18.51 4.19 27.56 14.53 29.14 33.48 2.3 2.04 4.5 7.21 4.63 11.66.52.69.83 1.54.8 2.5-.13 5.02-3.39 8.9-7.32 11.64-3.95 2.66-8.5 4.34-13.1 5.48a87 87 0 0 1-18.85 2.33l-3.13.02c-13.39 0-26.9-2.1-39.62-6.2l-.03.05a85 85 0 0 1-18.28-8.14 41 41 0 0 1-7.9-6.13c-1.1 1.77-2.5 3.44-4.29 4-6.32 5.54-25.06 9.74-29.08 10.82-13.03 2.56-26.24 4.52-39.55 3.88-3.1-.26-14.83-.6-22.51-2.75-1.23.2-2.52.05-3.57-.54-9.87-2.48-13.67-15.62-7.65-23.45a10 10 0 0 1 4.18-3.28c-.87-16.4 11.02-32.6 27.65-34.92.44-7.89 2.84-11.53 11.14-11.4-.2-8.12-5.81-20.35 3.05-25.5.28-2.83-.18-5.89-.08-8.8-2.54-.71-5.31-.9-7.8-1.7a9823 9823 0 0 0-70.65 88.2q-1.9 2.4-3.8 4.84l-.77.98q-.14.44-.32.84c-8.79 11.03-23.99 17.86-38 14.42l-.02.03c-8.92-3.28-16.56-10.3-21.02-18.83-2.24-2.54-3.61-5.14-3.43-7.46q.08-.45.24-.9-.48-1.96-.74-3.96c-.66-9.37.69-19.5 5.68-27.58a5 5 0 0 1 1.16-1.9l.06-.05c4.73-5.5 9.17-11.27 13.67-16.93q8.32-10.5 16.65-21.05a7219 7219 0 0 0 31.61-40.15 35.6 35.6 0 0 1-14.37-7.05 37 37 0 0 1-11.81-17.5 37.6 37.6 0 0 1 .3-23.1c1.45-4.3 3.78-8.3 6.7-11.77a35 35 0 0 1 3.9-3.97l-.1-.39-.06.03a170 170 0 0 1-3.4-22.46q-.87-11.26-.06-22.52a152 152 0 0 1 11.81-48.55c3.6-8.3 7.89-16.28 12.57-23.31a150 150 0 0 1 33.5-36.09 147 147 0 0 1 42.11-22.8 152 152 0 0 1 38.78-7.94q6.55-.45 13.12-.3a2.7 2.7 0 0 1 1.62-.37Zm88.12 382.04c-5.7.98-11.63 1.19-15.95 1.46h-.03c-4.03.23-9.76.22-16.16-.23q4.8.54 9.64.73 6.25.2 12.5-.34a79 79 0 0 0 10-1.62Zm-175.96-10.14q-.18.14-.4.26l.46.16-.06-.34zm104.45-87.85q-4.9 1.3-9.87 2.3a97 97 0 0 1-15.83 2.57q-.5.25-1.12.39c0 1.52-.11 3.04-.08 4.22 7.93 9.54-1.06 20.74 0 31.3 7.44 4.56 8.81 13.74 10.05 21.67q1.8 1.06 3.13 2.56 1.38-1.68 3.3-2.9c.78-8.56 2.3-18.49 9.72-23.94-1.08-8.74-4.65-19.03 1.12-26.81a66 66 0 0 1-.42-8.43c.06-.95.02-1.94 0-2.93Zm26.36 53.3a21 21 0 0 1-4.83 1.11c1.78-.19 3.5-.62 4.81-1.1l.22-.11zm49.52-108.46a134 134 0 0 1-20.48 18.53l-.78.57-.31.28c8.05-5.82 15.67-12.3 22.07-19.9h-.04zm-243.06-1.95.6.95a39 39 0 0 0 2.44 3.05 37 37 0 0 0 2.77 2.58q1.57 1.25 3.28 2.3 1.16.69 2.39 1.28a32.5 32.5 0 0 1-11.48-10.16Zm265.18-141.12-.43-.96-.13-.28zm-8.86-16.48Zm-181.8-40.74a168 168 0 0 0-5.47 3.3 140 140 0 0 0-15.1 11.2l-.23.2a159 159 0 0 0-13.07 12.76q2.84-2.89 5.83-5.6.03-.06.1-.11c.13-.13.29-.29.47-.39.28-.28.6-.54.62-.57q5.02-4.48 10.5-8.4l.03-.03q7.67-6.82 16.32-12.36Z" clip-rule="evenodd" mask="url(#crests-customer-analytics-path-1-outside-1_23_18942)"/></g><path fill="#d9af88" d="M307.4 364.26c.44 9.05-.1 18.12-.54 27.2-.23 4.7-.44 9.4-.49 14.08 0 4.42-.13 9.83-.88 15-4.5-1.17-6.15 3.12-5.74 7.57-1.42 5.3-9.3 4.19-13.31 2.74-1.58-.8-3.36-1.8-4.08-3.52-.1-3.67 1.05-7.65-.55-11.24-1.94-3.77-5.79-3.62-9.67-3.18-.44-7.65.19-15.64-.15-22.08q.02-2.4.08-4.8c.1-5.48.18-10.96.1-16.44.44-3.88-1.58-9.67 2.64-11.9-1.84-5.2 3.7-9.64 8.32-10.54 10.94-2.12 23.73 5.3 24.27 17.11"/><path fill="#fff" d="M281.11 437.96a21 21 0 0 0 7.96 2.95c-10.1-.08-17.6-9.08-18.97-18.64q.87-.02 1.73-.08.76-.07 1.53-.1.76-.07 1.5-.1a21 21 0 0 0-.31 4.23c.15 4.76 2.12 9.18 6.56 11.77zm25.74-46.51c2.86 2.5 3.9 6.67 2.76 11.63-.39 2.85-1.63 5.4-2.38 8.15-.38 3.23-.36 6.48-.51 9.72a7 7 0 0 0-1.22-.42c-4.5-1.16-6.15 3.13-5.74 7.58-1.42 5.3-9.3 4.19-13.31 2.74-1.58-.8-3.36-1.81-4.08-3.52-.1-3.67 1.06-7.65-.55-11.24-1.94-3.78-5.79-3.62-9.67-3.18-.93.1-1.88.23-2.81.3 0-4.26.28-8.55-.29-12.74-2.22-4.73-1.99-11.97 3.03-14.45q.8-.42 1.78-.64c4.58-.65 8.63 2.14 12.98 3.07 3.8 1.06 7.73.47 11.63.44 3.6-.13 6.44.8 8.43 2.54z"/><path fill="#f5af43" d="M289.06 440.9a21 21 0 0 1-7.96-2.95c-4.45-2.56-6.38-7-6.56-11.76q-.08-2.1.3-4.24-.76.03-1.5.1l-1.52.1-1.73.09c1.37 9.56 8.87 18.56 18.97 18.63zm28.26 7.19c0 1.96-1.97 3.95-3.47 4.55-15.71 11.6-35.6 14.99-54.75 12.69-8.94-1.11-17.91-1.89-26.73-3.75a4.7 4.7 0 0 1-3.36-2.32c-4.75-16.78 11.53-35.5 28.7-34.57-2-6.62.28-12.23 7.99-11.45 1.1.16 2.35.1 3.64-.03.93-.07 1.86-.2 2.82-.3 3.88-.45 7.73-.6 9.66 3.17 1.6 3.6.47 7.58.55 11.25.72 1.7 2.5 2.69 4.08 3.52 4 1.44 11.92 2.55 13.31-2.75-.4-4.42 1.25-8.73 5.74-7.57.4.1.78.23 1.22.41l.26.1c8.86 4.17 10.26 18.28 10.34 27.02z"/><path fill="#f5af43" d="M284.71 446.3c-3.1-1.24-4.96-4.31-7.21-6.66-1.84 3.23-6.13 2.2-6.9-1.2-.44-1.98-.62-4.03-.8-6.07-4.17-.1-5.33-4.5-5.17-7.99-.73-3.49 2.45-8.4 6.17-5.74 3-1.96 6 1.48 5.98 4.43 1.7 1.5 1.4 4.08 2.81 5.84 3.18 2.25 5.77 5.35 8.33 8.27 1.29 1.55 2.14 3.46 1.75 5.48-.23 2.3-2.55 4.58-4.88 3.64zm-27.47 30.73c-9.36-.6-26.29-.88-31.98-9.29-2.81-4.96 1.45-12.35 7.16-12.35a5.05 5.05 0 0 1 5.07 4.65c2.38-1.45 5.07.39 7.5.8a75 75 0 0 0 18.61 2.54c13.78-.31 27.6-3.13 40.45-8.1 4.48-1.47 6.96-5.7 10.86-7.34 4.7-.36 5.84 5.82 5.25 9.41-5.22 17.76-47.15 20.58-62.9 19.67zm-21.61-12.36s-.05-.24-.05-.34v-.07q-.19.13-.42.25z"/><path fill="#f5af43" d="M310.93 461.15v-.03a14 14 0 0 1 2.35-4.83c-3.05.25-4.88-3.31-4.1-5.98 1.42-4.31 7.67-6.28 11.31-3.51 7.81 6.15-.59 20.03-9.53 14.34z"/><path fill="#d9af88" d="M345.42 363.11c-.44 9.05.1 18.12.54 27.2.23 4.7.44 9.4.49 14.08 0 4.43.13 9.83.88 15 4.5-1.17 6.15 3.13 5.74 7.57 1.42 5.3 9.3 4.19 13.31 2.74 1.58-.8 3.36-1.8 4.08-3.51.1-3.68-1.06-7.66.55-11.25 1.94-3.77 5.79-3.62 9.67-3.18.44-7.65-.19-15.64.15-22.07q-.02-2.4-.08-4.81c-.1-5.48-.18-10.96-.1-16.44-.44-3.88 1.58-9.67-2.64-11.9 1.84-5.2-3.7-9.64-8.32-10.54-10.94-2.12-23.73 5.3-24.27 17.11"/><path fill="#fff" d="M371.7 436.82a21 21 0 0 1-7.95 2.94c10.1-.07 17.6-9.07 18.97-18.64-.57 0-1.16-.05-1.73-.07q-.77-.08-1.53-.1-.76-.08-1.5-.11.38 2.14.31 4.24c-.15 4.76-2.12 9.18-6.56 11.76zm-25.78-46.5c-2.87 2.5-3.9 6.67-2.76 11.63.39 2.84 1.63 5.4 2.38 8.14.38 3.23.36 6.5.51 9.72q.65-.28 1.22-.41c4.5-1.16 6.15 3.13 5.74 7.57 1.42 5.3 9.3 4.2 13.31 2.74 1.58-.8 3.36-1.8 4.08-3.51.1-3.67-1.05-7.65.55-11.25 1.94-3.77 5.79-3.62 9.67-3.18.93.1 1.88.24 2.81.31 0-4.26-.28-8.55.29-12.74 2.22-4.73 1.99-11.97-3.03-14.45a8 8 0 0 0-1.78-.65c-4.58-.64-8.64 2.15-12.98 3.08-3.8 1.06-7.73.46-11.63.44-3.6-.13-6.44.8-8.43 2.53z"/><path fill="#f5af43" d="M363.76 439.74c2.9-.46 5.7-1.47 7.96-2.95 4.44-2.56 6.38-7 6.56-11.76q.08-2.1-.3-4.24l1.5.1q.75.04 1.52.11l1.73.08c-1.37 9.56-8.87 18.56-18.98 18.63zm-28.26 7.21c0 1.97 1.97 3.96 3.46 4.55 15.72 11.61 35.6 15 54.76 12.7 8.94-1.12 17.91-1.9 26.72-3.75a4.7 4.7 0 0 0 3.37-2.33c4.75-16.78-11.53-35.5-28.7-34.56 2-6.62-.28-12.23-7.99-11.45-1.1.15-2.35.1-3.64-.03q-1.39-.13-2.82-.3c-3.88-.45-7.73-.6-9.67 3.17-1.6 3.6-.46 7.57-.54 11.25-.72 1.7-2.5 2.68-4.08 3.51-4.01 1.45-11.92 2.56-13.32-2.74.42-4.42-1.24-8.74-5.74-7.57q-.56.15-1.21.41l-.26.1c-8.87 4.17-10.26 18.28-10.34 27.02z"/><path fill="#f5af43" d="M368.06 445.17c3.1-1.24 4.96-4.32 7.21-6.67 1.84 3.23 6.13 2.2 6.9-1.19.44-1.99.63-4.03.8-6.07 4.17-.1 5.33-4.5 5.18-7.99.72-3.49-2.46-8.4-6.18-5.74-3-1.96-6 1.48-5.97 4.42-1.71 1.5-1.4 4.09-2.82 5.84-3.18 2.25-5.77 5.36-8.32 8.28-1.3 1.55-2.15 3.46-1.76 5.48.23 2.3 2.56 4.57 4.88 3.64zm27.52 30.68c9.36-.6 26.29-.88 31.98-9.28 2.81-4.97-1.45-12.36-7.16-12.36a5.05 5.05 0 0 0-5.07 4.65c-2.38-1.44-5.07.39-7.5.8a75 75 0 0 1-18.6 2.54 121 121 0 0 1-40.47-8.1c-4.47-1.47-6.95-5.7-10.85-7.34-4.7-.36-5.84 5.82-5.25 9.41 5.22 17.76 47.15 20.58 62.9 19.68zm21.61-12.36s.05-.23.05-.34v-.07q.19.13.42.25z"/><path fill="#f5af43" d="M341.85 460v-.02a14 14 0 0 0-2.35-4.84c3.05.26 4.88-3.3 4.1-5.97-1.41-4.31-7.67-6.28-11.31-3.51-7.81 6.15.59 20.03 9.53 14.34z"/><path fill="#d9af88" d="M372.89 370.36a3 3 0 0 1-.24-.65c-1.6-.67-2.58-2.53-2.55-4.26 0-4.66-.08-9.36-.34-14.01-1.96-3.1.54-8.95 4.63-7.58 1.26-5.01 7.57-3.64 7.47 1.24-.1 4.55-.52 9.1-.52 13.68-.13 2.74.34 5.84-1.11 8.3.8 4.9-4.7 8.6-7.34 3.28"/><path fill="#5d84a7" d="M438.48 227.18c.93 9.48.98 19.05-.05 28.53a131 131 0 0 1-16.44 50.85 134 134 0 0 1-16.62 23.11 134 134 0 0 1-20.48 18.54c-15.14 11-32.67 18.97-51.08 22.62a137 137 0 0 1-26.8 2.69 132 132 0 0 1-49.5-9.87c-7.4-3.11-14.5-6.78-21.23-11.15a134 134 0 0 1-38.2-37.67 132 132 0 0 1-18.83-43.35l-.7-3.12q-.22-1.18-.46-2.3v-.11q-.35-1.8-.65-3.6-1.11-7-1.52-14.08c-.52-8.97-.1-18.04 1.27-26.91 1.4-9.13 3.67-18.04 6.9-26.7a135 135 0 0 1 11.94-24.15l.2-.3q3.33-5.2 7.06-10.12c4.81-6.25 10.22-12 16.03-17.29q.03-.06.1-.1c.14-.13.3-.29.47-.4.29-.28.6-.53.62-.56a130 130 0 0 1 47.82-27.01 133 133 0 0 1 32.96-5.85l.31-.07v-.06s.24-.02.37-.05h.33q.21 0 .42.03c.82 0 1.65-.05 2.48-.05q2.95-.01 5.87.05a139 139 0 0 1 11.68.83c3.41.36 6.88.82 10.26 1.55.29.05.52.13.78.26a132 132 0 0 1 63.62 33.09c13.54 12.82 24.55 28.43 31.61 45.72a135 135 0 0 1 9.4 37z"/><path fill="#a6c4e0" d="M449.01 218.74c.94 9.49.99 19.05-.05 28.54a131 131 0 0 1-16.44 50.85 134 134 0 0 1-16.62 23.1 134 134 0 0 1-20.47 18.54c-15.15 11.02-32.68 18.98-51.08 22.62a137 137 0 0 1-26.81 2.7 132 132 0 0 1-49.5-9.87 134 134 0 0 1-21.23-11.16 134 134 0 0 1-38.2-37.66 132 132 0 0 1-18.82-43.35l-.7-3.13-.47-2.3v-.1q-.36-1.8-.64-3.6-1.11-7-1.53-14.08c-.51-8.97-.1-18.05 1.27-26.91 1.4-9.13 3.67-18.05 6.9-26.7 3.13-8.44 7.19-16.5 11.94-24.15l.21-.31q3.31-5.2 7.06-10.1c4.8-6.26 10.2-12 16.02-17.3q.04-.06.1-.1.21-.23.47-.4c.29-.28.6-.54.62-.56a130 130 0 0 1 47.83-27.02 133 133 0 0 1 32.96-5.84l.3-.08v-.05s.24-.02.37-.05h.33q.21 0 .42.03c.82 0 1.65-.06 2.48-.06q2.95-.02 5.87.06 5.2.15 10.36.7.66.08 1.32.12c3.42.36 6.88.83 10.27 1.55q.4.08.77.26a132 132 0 0 1 63.62 33.09c13.54 12.82 24.56 28.44 31.61 45.73a135 135 0 0 1 9.41 37z"/><path fill="#5d84a7" d="M415.59 226.63a100 100 0 0 1-21.27 69.3 99 99 0 0 1-37.49 29.08 98 98 0 0 1-15.4 5.36 100 100 0 0 1-47.54.43 99 99 0 0 1-30.66-13.08l-.93-.59-.24-.16a100 100 0 0 1-17.91-15.38 100 100 0 0 1-22.75-41.4 102 102 0 0 1-.52-50.73A100 100 0 0 1 243.46 167a99.7 99.7 0 0 1 49.97-30.01q.62-.3 1.35-.39c.46-.08.93-.23 1.37-.31l2.63-.52.9-.18a95 95 0 0 1 5.72-.85q.46-.05.88-.03 1.92-.19 3.82-.33a98.4 98.4 0 0 1 70.08 22.83c13.83 11.68 24.54 27 30.28 44.2a104 104 0 0 1 5.11 25.25z"/><path fill="#e6f3ff" d="M293.89 330.8a99 99 0 0 1-28.28-11.57q-1.06-.61-2.07-1.3l-.08-.05-.23-.15-.93-.6-.24-.15a100 100 0 0 1-17.91-15.38 100 100 0 0 1-22.75-41.42 102 102 0 0 1-.52-50.72A100 100 0 0 1 243.46 167a93 93 0 0 1 7.53-7.47q2.52-1.63 5.11-3.1l.13-.08h-.05.05l.16-.1q5.83-3.26 12.02-5.74 6.16-2.44 12.61-4.14h-.05s.1 0 .16-.02q-.06 0-.1.02.05.01.12-.05a113 113 0 0 1 13.52-2.53h.03q6.67-.8 13.39-.73h-.18 1-.18q6.78.14 13.47 1.14l-.18-.02a106 106 0 0 1 13.44 2.92q6.75 1.98 13.19 4.78l-.16-.05q6.17 2.74 11.94 6.23-.08-.04-.12-.1 5.73 3.5 11.03 7.67h-.02q5.34 4.3 10.13 9.23l-.13-.13q4.61 4.84 8.64 10.19h-.03a113 113 0 0 1 6.95 10.67v.05-.02c0 .05.06.08.08.13q2.95 5.26 5.28 10.8l-.06-.15q1.88 4.52 3.36 9.18a106 106 0 0 1 3.96 18.27q0-.09-.03-.18c.4 3.08.62 6.18.75 9.28v-.18a106 106 0 0 1-1.13 19.34q0-.1.02-.19-.88 5.63-2.3 11.1.01-.08.05-.16-1.02 3.8-2.3 7.5a99 99 0 0 1-63.05 50.1 100 100 0 0 1-47.54.43z"/><path fill="#bd9168" d="m209.07 322.17-.05.05zm26.52 59.94c-4.6-2.12-8.5-5.45-12.15-8.92-7.32-6.43-14.45-13.15-20.4-20.9-2.48-3.91-7.52-6.7-8.42-11.38 1.42-2.07 2.87-4.19 4.34-6.23q.09-.15.18-.26l1.7-2.2q1.59-1.98 3.13-3.98s.03-.05.06-.05q.57-.74 1.18-1.48t1.22-1.44l2.71-3.16q.23-.27.5-.54 1.07-1.17 2.2-2.35.91 0 1.72.52c.65.15 1.22.51 1.68.98 4.86 4.03 10.22 7.47 14.9 11.79 8.58 7.73 16.38 16.28 25.1 23.86q.43.31.74.72c0 1.06-.05 2.12.03 3.18.05.65.1 1.3.23 1.94v.05l-.46.57-1.48 1.91-2.3 2.97a657 657 0 0 1-5.35 6.93q-2.68 3.14-5.3 6.39a7.5 7.5 0 0 1-4.08 1.4 5 5 0 0 1-1.66-.3zm-21.54-53.81-.23.33zm-.22.33-.02.05z"/><path fill="#bd9168" d="M201.27 339.49c-4.34-4.24 1.32-8.97 3.78-12.62l.13-.15q.61-.75 1.21-1.45 1.32-1.51 2.64-3.07s.05-.06.05-.08q.26-.27.49-.55l.03-.02s.05-.05.05-.08q1.2-1.33 2.43-2.6 1.32-1.4 2.68-2.8l-.12.13.36-.36c.67.25 1.26.7 1.65 1.34 3.05 3.57-.83 8.4-2.94 11.5-2.05 2.87-4.12 5.67-6.18 8.5-.88 1.66-2.51 3.16-4.24 3.16q-1.06.02-2.1-.85z"/><path fill="#bd9168" d="M255.9 357.73q-.64 0-1.38-.26c-10.52-5.35-20.96-11.14-29.28-19.7-4.3-4.16-8.92-7.98-12.67-12.66a5.4 5.4 0 0 1-1.19-5.46l.75-.77 1.76-1.84c1.73-.62 3.8-.08 4.6 2.04 3.82 4.76 8.69 8.54 12.98 12.88 4.8 4.63 10.23 8.35 15.94 11.63q.7.44 1.35.9l2.5 1.79c1.46 1 2.93 2.02 4.43 2.97v.26c0 .47-.05.96-.05 1.42 0 .47.05.93.05 1.4q.06 1.17.1 2.35.01.5.05 1c0 .19.05.37.05.55z"/><path fill="#bd9168" d="M251.7 362.21c-3-1.7-2.07-6.12-.18-8.35 1.16-1.62 2.17-4.1 4.19-4.55v.21c0 .47-.05.96-.05 1.42 0 .47.05.93.05 1.4q.07 1.17.1 2.35.01.5.05 1c0 .19.05.37.05.55v.67c0 1.11-.05 2.23 0 3.34 0 .3.06.6.08.9a4.6 4.6 0 0 1-3 1.35q-.66.01-1.31-.29z"/><path fill="#bd9168" d="M249.92 364.15c-2.49-1.88-2.36-5.5-.4-7.7 1.3-2.02 3.68-4.89 6.19-4.26v.12q.07 1.18.1 2.36.01.5.05 1 .02.28.08.55v.67c0 1.11-.05 2.22 0 3.33.05.65.08 1.24.23 1.9-.96 1.5-2.53 2.89-4.19 2.89a3 3 0 0 1-2.09-.86z"/><path fill="#96a75d" d="M239.74 380.98c.3 2.22-1.06 3.77-2.3 5.35q-2.01 2.55-4.01 5.12l-8.58 10.93c-5.59 7.14-11.12 14.35-16.65 21.51q-7.94 10.29-15.85 20.58c-4.7 6.1-9.46 12.15-14.09 18.33l-.23.3a4 4 0 0 1-2.12 1.74q-.7.85-1.47 1.5c-4.6 5.4-11.87 8.22-18.85 8.35-19.26-.31-34.74-20.81-31.5-39.45.5-4.47 2.19-8.92 4.67-12.67a6 6 0 0 1 2.28-2.2l2.43-2.92c1.4-1.7 2.76-3.4 4.16-5.11q4.27-5.26 8.5-10.52 8.5-10.6 16.96-21.23 8.25-10.35 16.52-20.65 3.91-4.88 7.8-9.8c1.97-2.5 4.04-4.96 5.92-7.52q.19-.34.42-.62a3.6 3.6 0 0 1 4.42-1.17q.6.19 1.11.65 16.19 14.32 32.5 28.54l3.9 3.41c.64.57 1.29 1.19 1.99 1.76a4.8 4.8 0 0 1 1.94 4.99q.11.38.15.8z"/><path fill="#d9af88" d="M413.32 311.52s.06 0 .08.05h-.05z"/><path fill="#d9af88" d="M433.41 316.01h.18q-2.1-.31-4.19-.67-1.47-.61-2.9-1.27c-1.75-.75-3.56-1.44-5.34-2.2l-1.76-.64-3.41-1.16c-.86-.29-1.73-.5-2.59-.75a59 59 0 0 1-4.8-1.48 9 9 0 0 1-1.25-.54l-.93-.83q-.3-.28-.64-.51a1.3 1.3 0 0 0-1.09-.67h-1.34c-.5.02-.93.43-1.06.92q0 .08-.03.16a1 1 0 0 0-.3.23c-.34.36-.42.9-.27 1.35a1.2 1.2 0 0 0-.05 1.1c.18.37.36.65.62.96-3.44-2.58-6.98-6.25-2.9-10.15 1.48-1.12 3.29-.88 4.6.36 4.12 3.36 7.45 6.38 12.18 8.06 8.2 1.79 17.25 2.38 25.13-.9 10.52-5.66 12.43-15.7 4.94-25.08-.24 8.53-6.36 13.83-14.45 14.79-6.16.18-12.18-2.45-17.45-5.4-3.03-2.77-.9-9.33 3.54-8.04 6.13 3.13 14.22 7.08 19.98 1.19a1 1 0 0 0 .31-.23l.29-.37q.45-.15.72-.6.07-.13.1-.28 0-.07.06-.15l.05-.1v-.08q.68-1.39 1.31-2.82.6-1.32 1.06-2.64.3-.81.55-1.62l.98-2.18c.34-.82.7-1.68.93-2.56.05-.23.16-.46.2-.72 7.48 2.61 11.56 11.3 13.45 18.61 2.71 9.41-2.97 19.08-10.29 24.61a27 27 0 0 1-2.97 1.76q-1.71.51-3.47.83h.03q-1.18.15-2.35.15c-1.81 0-3.62-.23-5.43-.46z"/><path fill="#d9af88" d="M427.78 312.27a9 9 0 0 1-.98-1.27 7 7 0 0 1-2.74 1.6q-.38.12-.75.16-1.1-.42-2.15-.88-.34-.15-.7-.26a4 4 0 0 1-1.03-1.88c-.96.49-1.86.6-2.97.41-1.5-.26-2.43-1.34-2.85-2.66-3.33 1.42-6-2.38-5.11-5.48.44-2.33 1.9-4.3 3.28-6.15 1.89-2.36 4.06-7.04 7.7-5.05a3.6 3.6 0 0 1 5.46 1.48 3.3 3.3 0 0 1 3.46.9 4 4 0 0 1 .75 1.11c1.4-1.6 3.88-2.25 5.46-.54 2.2-3.41 3.48-12.92 9.02-9.38 0-2.9.41-7.47 4.08-7.65 1.94 0 3.54 1.86 3.67 3.77.23 1.65-.26 3.23-.3 4.88 2.73 3.34 2.89 8 2.47 12.16-.44 3.3.26 8.78-4.16 9.22-.98 2.23-4.08 2.98-5.74 1.01-1.65 2.87-5.94 4.42-8.22 1.42-1.14 1.84-3.2 4.2-5.32 4.2-.78 0-1.55-.32-2.28-1.1z"/><path fill="#d9af88" d="M429.5 316.82c-9.14-.31-19.28-2.64-26.13-9.07-3.87-4.74 2.67-12.05 6.2-5.82 7.09 4.57 15.72 6.33 23.97 5.66 2.84-.8 5.48-2.22 8.04-3.7a3.5 3.5 0 0 1 3.9.29c2.56 2.04 2.05 6.51-.75 8.06-4.73 2.7-9.85 5.38-15.25 4.58zm-233.31 15.79c-15.56-.36-29.68-15.46-28.7-31.3.57-8.04 5.97-15.8 12.88-19.47a4 4 0 0 1 1.75-.41q.44 1.27 1.01 2.5l.42 1.22.3.83v.05c.52 1.5 1.1 3 1.84 4.42q.29.58.62 1.11c4.86 13.7 8 11.6 14.81 9.51a30 30 0 0 1 11.28-1.44 16 16 0 0 1 7.05 2.87c3.88 3.64 4.81 10.28 3.42 15.27-4.09 9.72-15.08 14.84-25.16 14.84q-.78.01-1.57-.05zm11.76-11.37q.48-.27.98-.52-.28-.07-.52-.18-.22.39-.46.7"/><path fill="#fff" d="M219.03 327.27c-6.23-3.83-8.27-11.82-11.53-18.05-2.43-5.56-5.5-13.16-.98-18.46 3.72-3.67 13.34-2.48 11.89 4.24 4.47 8.3 10.73 17.06 9.56 27-.51 4.51-4.7 7.9-8.94 5.26"/><path fill="#fff" d="M212.15 299.53c-.31-2.48 1.03-4.91 2.01-7.11 2.59-5.82 5.2-12.2 10.27-16.26 2.45-1.45 5.4.23 6.51 2.64 2.82 5.58-.46 11.83-3.75 16.41-1.52 2.33-3.05 4.55-5.24 5.92-.78.39-2.54 1.68-3.13.8-2.1 3.05-6.46 1.04-6.67-2.38z"/><path fill="#fff" d="M216.66 308.57a51 51 0 0 1 5.74-9.13c-4.65-4.83 1.4-8.84 5-11.66 4.54-3.23 9.35-8.24 15.24-8 5 .66 6.26 6.94 3.26 10.51-2.71 3.67-6.75 5.9-10.37 8.53-5.91 4.47-11.76 8.3-18.87 9.72z"/><path fill="#fff" d="M223.65 313.1c1.48-7 7.37-11.6 13.24-14.97-3.75-4.57.44-8.45 5.01-9.54 4.86-1.73 12.54-4.1 12.3 3.9-.74 5.93-6.58 9.13-11.1 11.97-6.21 3.5-11.92 9.08-19.45 8.64"/><path fill="#fff" d="M220.26 309.45c3.77-4.01 14.37-18.72 20.16-15.98 2.43 1.37 2.6 4.94 1.08 7.08-5.94 4.76-13.7 8.53-21.27 8.9z"/><path fill="#fff" d="M228.88 320.03c-1.1-.26-2.45-.73-3.18-1.55.47-2.85 2.49-5.38 4.84-6.93 3.7-2.02 7.68-4.09 10.96-6.52-3.36-1.68-2.95-7.67.67-8.66 4.78-1.83 13.26-4.21 14.06 3.31.36 5.28-4.63 8.74-8.4 11.45-5.84 3.42-11.79 9.65-18.95 8.87z"/><path fill="#fff" d="M223.33 318.83c-2.8-2.15-2.23-7.94 1.52-8.69 5.77-.95 10.65-3.43 16.42-3.82-2.98 4.78-11.66 15.54-17.92 12.51z"/><path fill="#fff" d="M228.66 323.13c-1.35-.41-2.95-1.32-3.6-2.63 1.06-3.47 4.43-5.74 7.81-6.57-2.02-6.23 5.43-7.16 9.7-8.12 5.53-1.99 11.32-.26 9.2 6.7-2.67 6.12-9.8 8.09-15.59 9.82-2.46.75-4.96 1.63-7.52.78zm170.12-9.16c-9.9-6.25 2.76-22.02 7.5-28.38 2.86-3.9 5.45-10.32 11.19-9.7 5.32.6 6.82 6.8 4.67 11.12-.93 2.04-1.31 4.76-3.51 5.69-3.23 5.71-12.15 24.32-19.83 21.25z"/><path fill="#fff" d="M388.41 311.6c-3.51-.16-7.7-.57-10.16-3.44-2.01-2.4-1.4-6.49 1.42-7.94-7.31-2.12-14.52-11.5-4.6-15.17-4.73-4.42-1.65-12.05 4.97-10.75-.9-3.19 1.19-7.5 4.88-6.99 3.34.8 6.54 2.28 9.62 3.86-.05-3.9 2.84-9.36 7.42-7.66 2.97 1.25 4.26 4.6 5.87 7.2 2.14 3.92 3.56 8.16 5.4 12.22.82 2.82-1.32 6.56-4.5 5.84-.31 2.46-2.82 4.58-5.2 3.41q-.15.35-.38.65t-.55.6c.31.85.42 1.78.31 2.66a4.8 4.8 0 0 1-1.47 2.97 5.1 5.1 0 0 1-1.11 6.36c1.19 6.98-7.42 6.18-11.94 6.18zm-32.91-68.9a43 43 0 0 1 1.08 16.86 39 39 0 0 1-.83 4.57q-.33 1.4-.75 2.77c-2.53 8.3-8.45 16.62-16.96 19.49a20 20 0 0 1-14.11-.57 23 23 0 0 1-7.06-4.86l-.1-.1-.1-.1q-.39-.37-.73-.75-.07-.09-.13-.13-.03-.06-.1-.1-.67-.76-1.3-1.53a33 33 0 0 1-3.46-5.54c-5.74-11.68-5.68-26.65.7-38.07a30 30 0 0 1 6.02-7.83l.52-.5a21.7 21.7 0 0 1 11.35-5.45q.47-.07.96 0 3.05-.25 6.05.5a4 4 0 0 1 1.57.38c1.4.54 2.72 1.11 4 1.86q.66.4 1.3.83a27 27 0 0 1 7.14 7.34c2.25 3.3 3.85 7 4.88 10.88z"/><path fill="#1e3a52" d="M332.1 283.58q.45-.38.47-1.01-.11-6.62-.18-13.24v.18-.95a138 138 0 0 0 3.64-3.62q2.17-2.32 4.45-4.53h-.03l2.4-2.25c.76-.67 1.45-1.37 2.23-1.99h.05l-.02.03s.05 0 .05-.05h.05-.03c.03 0 .08-.05.1-.05q.24-.16.4-.37c.28-.46.33-.98 0-1.44a1 1 0 0 0-.3-.31l-.15-.18-3.28-3.18c-1.58-1.53-3.18-3-4.8-4.5l-5.15-4.73v-.83q.01-9.85-.05-19.7 2.35 0 4.62.54c.68 0 1.25.21 1.81.52q-.1-.08-.23-.13c1.4.55 2.72 1.12 4 1.86q.66.4 1.3.83a26 26 0 0 1 7.13 7.34c2.25 3.31 3.86 7 4.9 10.89a43 43 0 0 1 1.08 16.85 39 39 0 0 1-.83 4.58q-.34 1.4-.75 2.76c-2.53 8.3-8.45 16.62-16.96 19.5q-2.92.97-5.92 1.03v-3.88zm7.34-42.55a3.5 3.5 0 0 0 .6 1.42q.2.3.44.6.35.38.8.66.9.62 1.99.68h.49q.77-.03 1.47-.37a4.4 4.4 0 0 0 1.87-1.68q0-.02.05-.07c.39-.7.6-1.5.51-2.3v-.16a4 4 0 0 0-.54-1.65q-.1-.2-.23-.34a4 4 0 0 0-1.66-1.34l-.23-.1q-.38-.15-.77-.21l-.16-.03h-.28a5 5 0 0 0-1.6.23l-.16-.44q-.15-.35-.39-.67c-.36-.54-.93-1-1.55-1.24l-.52-.18h-.15.15-.02l-.16-.05h-.15a3.4 3.4 0 0 0-2.17.33q-.47.24-.86.55-.21.19-.38.41c-.52.62-.86 1.4-.88 2.22v.36q0 .52.18.99a2 2 0 0 0 1.24 1.96q.2.15.41.23.36.2.75.19.47.15.98.15h.21q.26.01.52-.05h.1q.08.01.2-.05z"/><path fill="#1e3a52" d="M338.76 244.6a6.4 6.4 0 0 1-1.45-3.65h.1q.48.15.96.15h.2q.29.01.52-.05h.1q.11 0 .21-.05h.11-.03a3.6 3.6 0 0 0 1.63-.98 3.5 3.5 0 0 0 1.06-2.8v-.12a5 5 0 0 0-.29-1.17q-.16-.35-.36-.67c-.33-.51-.9-.98-1.47-1.21 1.63-1.24 3.83-1.43 6.13.51 4.52 4.2 1.55 12.28-3.16 12.28-1.34 0-2.81-.64-4.29-2.22z"/><path fill="#1e3a52" d="M342.64 259.1c-2.58-2.95-5.17-5.9-8.04-8.58-.8-.73-1.7-1.48-2.5-2.3l-.06-4.55v.1c0-1.45-.05-2.9-.05-4.34a3.7 3.7 0 0 1 3.08-.31q.04.2.13.36c.2.44.62.8 1.08 1q.19.16.42.27l.33.13.21.41c3.62 3.54 7 7.29 10.52 10.9 2.92 2.72.73 8-2.53 8-.8 0-1.68-.31-2.56-1.12z"/><path fill="#1e3a52" d="M332.4 270.9v-1.57.18l-.08-7q.74-.76 1.7-1.5c3.55-2.3 7.86-11.48 12.39-6.5 3.13 4.38-1.89 7.74-4.66 10.53-2.43 1.76-4.5 6.36-7.57 6.36a4 4 0 0 1-1.76-.5z"/><path fill="#1e3a52" d="M316.32 282.37c-4.71-5.17-7.48-11.77-8.77-18.56-2.1-10.86-.62-22.78 5.02-32.42a34 34 0 0 1 3.02-4.34c2.74-3.29 6.13-6.08 10.19-7.55 1.8-.65 3.7-1.04 5.58-1.14 1-.05 2.12-.08 3.15.13q.57.02 1.04.23a24 24 0 0 1 5.2 1.92 23 23 0 0 1 6.53 5.3c6 6.84 8.69 16.02 9.23 24.97a47 47 0 0 1-4.78 23.62c-3.75 7.47-10.52 14.27-19.23 14.97q-.67.05-1.3.05c-5.7 0-11.11-2.97-14.91-7.16zm16.18-1.94a13 13 0 0 0 3.75-1.06q1.06-.52 2.06-1.14.97-.66 1.87-1.45 1.07-1.02 2.06-2.14.94-1.2 1.76-2.43 1.01-1.68 1.86-3.44a44 44 0 0 0 1.4-3.62q.67-2.27 1.1-4.58.48-2.71.63-5.48.06-2.26-.08-4.47a54 54 0 0 0-.64-4.96 42 42 0 0 0-1.06-4.03 41 41 0 0 0-1.4-3.52q-.76-1.5-1.65-2.97-.82-1.2-1.74-2.33-.9-1.02-1.94-1.94-.86-.73-1.8-1.34-.98-.59-2-1.06c-.56-.23-1.13-.41-1.16-.44q-.62-.15-1.3-.29-.38 0-.74-.12c-.2 0-.39-.06-.6-.08q-1.05-.06-2.09 0-.89.12-1.73.3-.98.29-1.91.68-.96.46-1.9 1.03a19 19 0 0 0-4.07 3.67q-1.06 1.31-1.97 2.75a40 40 0 0 0-1.76 3.3 40 40 0 0 0-1.44 3.8 52 52 0 0 0-1.06 4.32l-.1.6a48 48 0 0 0-.5 4.31q-.13 2.72.03 5.4c.13 1.48.3 2.93.6 4.35q.41 2.1 1.08 4.16.74 2.18 1.75 4.24.71 1.35 1.53 2.69.8 1.14 1.65 2.2.85.94 1.81 1.8.9.76 1.87 1.43.9.55 1.83 1 .89.38 1.81.63 1.01.22 2.07.33 1.05.03 2.1-.02z"/><path fill="#fff" d="M317.45 243.4a43 43 0 0 1 1.08 16.85 39 39 0 0 1-.82 4.57q-.35 1.42-.75 2.77c-2.54 8.3-8.46 16.62-16.96 19.5a20 20 0 0 1-14.12-.58 23 23 0 0 1-7.05-4.86l-.1-.1-.1-.1q-.4-.37-.73-.75-.06-.08-.13-.13-.04-.06-.1-.1-.66-.75-1.3-1.53a33 33 0 0 1-3.46-5.53c-5.74-11.69-5.69-26.65.7-38.08a30 30 0 0 1 5.3-7.14l.72-.7.52-.48a21.7 21.7 0 0 1 11.34-5.46q.48-.08.96 0 3.06-.24 6.05.5a4 4 0 0 1 1.58.38 28 28 0 0 1 4 1.86q.65.4 1.3.83a26 26 0 0 1 7.13 7.34c2.25 3.31 3.85 7 4.89 10.88z"/><path fill="#1e3a52" d="M294.04 284.27q.45-.37.47-1-.11-6.62-.18-13.24v.18-.95a120 120 0 0 0 3.64-3.62q2.17-2.32 4.45-4.53h-.03l2.4-2.25c.76-.67 1.45-1.37 2.23-1.99h.05l-.02.03s.05 0 .05-.05h.05-.03c.03 0 .08-.05.1-.05q.25-.16.4-.37c.28-.46.3-.98 0-1.44a1 1 0 0 0-.29-.31l-.15-.19-3.29-3.18q-2.36-2.27-4.8-4.5l-5.15-4.72v-.83q.01-9.85-.05-19.7 2.35 0 4.63.54c.67 0 1.24.21 1.8.52q-.1-.08-.23-.13c1.4.54 2.72 1.11 4 1.86q.66.4 1.3.83a26 26 0 0 1 7.14 7.34c2.25 3.31 3.85 7 4.88 10.88a43 43 0 0 1 1.09 16.86 39 39 0 0 1-.83 4.57q-.33 1.42-.75 2.77c-2.53 8.3-8.45 16.62-16.96 19.5q-2.92.97-5.92 1.03v-3.88zm7.34-42.57a3.5 3.5 0 0 0 .6 1.42 4 4 0 0 0 1.24 1.27q.9.6 2 .67h.48q.78-.03 1.48-.36a4.4 4.4 0 0 0 1.86-1.68l.05-.08c.39-.7.6-1.5.52-2.3v-.16a4 4 0 0 0-.55-1.65q-.1-.19-.23-.34a4 4 0 0 0-1.65-1.34q-.12-.03-.24-.1-.38-.14-.77-.21l-.16-.03h-.28q-.43-.01-.86.06-.37.07-.75.18l-.15-.44a4 4 0 0 0-.39-.68c-.36-.54-.93-1-1.55-1.24l-.52-.18h-.15.15-.02s-.1-.02-.16-.05h-.15a3 3 0 0 0-1.55.1q-.31.08-.62.24-.47.23-.86.54c-.12.13-.28.26-.38.41-.52.62-.86 1.4-.88 2.23v.36q0 .5.18.98a2 2 0 0 0 1.24 1.97q.2.15.41.23.36.19.75.18.48.15.98.15h.21q.26.01.52-.05h.1q.08.01.2-.05z"/><path fill="#1e3a52" d="M300.7 245.29a6.4 6.4 0 0 1-1.44-3.65h.1q.48.16.96.16h.2q.29.01.52-.05h.1q.1-.01.21-.05h.11-.03a3.6 3.6 0 0 0 1.63-.99 3.5 3.5 0 0 0 1.06-2.79v-.13a5 5 0 0 0-.29-1.16q-.16-.36-.36-.67a3.3 3.3 0 0 0-1.47-1.22c1.63-1.24 3.82-1.42 6.13.52 4.52 4.19 1.55 12.28-3.16 12.28-1.34 0-2.82-.65-4.29-2.22z"/><path fill="#1e3a52" d="M304.6 259.8c-2.58-2.95-5.16-5.9-8.03-8.59-.8-.72-1.7-1.47-2.51-2.3l-.05-4.55v.1c0-1.44-.05-2.89-.05-4.34a3.7 3.7 0 0 1 3.07-.3q.05.19.13.36c.2.44.62.8 1.09 1q.19.15.41.26.14.07.34.13l.2.42c3.62 3.54 7 7.28 10.53 10.9 2.89 2.72.72 8-2.54 8a3.8 3.8 0 0 1-2.56-1.12z"/><path fill="#1e3a52" d="M294.35 271.6v-1.57.18l-.08-7q.74-.76 1.7-1.5c3.54-2.3 7.86-11.48 12.39-6.5 3.12 4.37-1.9 7.73-4.66 10.53-2.43 1.75-4.5 6.35-7.57 6.35a4 4 0 0 1-1.76-.49z"/><path fill="#1e3a52" d="M278.26 283.06c-4.7-5.17-7.47-11.77-8.77-18.56-2.1-10.86-.62-22.78 5.02-32.42a33 33 0 0 1 3.02-4.34c2.74-3.29 6.13-6.08 10.19-7.55 1.8-.65 3.7-1.04 5.58-1.14 1-.05 2.12-.08 3.15.13q.56.02 1.04.23c1.8.47 3.51 1.04 5.2 1.91a23 23 0 0 1 6.54 5.3c6 6.85 8.68 16.03 9.22 24.98a47 47 0 0 1-4.78 23.62c-3.75 7.47-10.52 14.27-19.23 14.97q-.67.05-1.3.05c-5.7 0-11.1-2.97-14.9-7.16zm16.18-1.94q.9-.11 1.76-.34 1.01-.3 1.99-.72 1.06-.52 2.06-1.14a20 20 0 0 0 1.87-1.45q1.07-1.02 2.06-2.14.95-1.2 1.76-2.43 1.01-1.68 1.86-3.44.78-1.78 1.4-3.62.68-2.27 1.11-4.58.47-2.71.62-5.48.06-2.26-.08-4.47a54 54 0 0 0-.64-4.96 42 42 0 0 0-1.06-4.03 42 42 0 0 0-1.4-3.52q-.75-1.5-1.65-2.97-.81-1.2-1.74-2.33-.89-1.02-1.93-1.94a18 18 0 0 0-1.81-1.34q-.98-.59-2-1.06c-.56-.23-1.13-.42-1.16-.44l-1.29-.29q-.4 0-.75-.12c-.2 0-.39-.06-.6-.08q-1.04-.06-2.09 0-.89.12-1.73.3-.99.29-1.91.68-.97.46-1.89 1.03a18 18 0 0 0-4.08 3.67 29 29 0 0 0-1.97 2.74 41 41 0 0 0-1.76 3.31 40 40 0 0 0-1.44 3.8 52 52 0 0 0-1.06 4.32l-.1.6a48 48 0 0 0-.5 4.31q-.13 2.72.03 5.4c.13 1.48.3 2.93.6 4.35q.42 2.1 1.08 4.16.74 2.18 1.76 4.24.7 1.35 1.52 2.69.8 1.14 1.66 2.2.84.95 1.8 1.8.9.76 1.87 1.43.9.55 1.83 1 .9.38 1.81.62 1.01.23 2.07.34 1.05.03 2.1-.03z"/><path fill="#df6133" d="M336.5 264.2c11.95-2.65 20.84 4.98 20.63 17.08-.36 8.84-4.96 16.96-10.96 23.24-9.12 10.6-23.96 16-37.66 12.48-21.85-2.63-52.22-35.36-24.5-51.23 6.76-3.34 13.9 1.5 20.88 1.55 10.68 1.4 21.2-1.14 31.61-3.13"/><path fill="#69291a" d="M335.87 278.72c4.11 1.4 4.89 6.7 3.75 10.36-3.54 10.34-17.83 16.93-28.3 15.4-8.17-1.96-17.32-6.71-20.17-15.14-1.32-5.2 3.13-10.03 8.35-8.63 1.4.3 3.08-.21 4.24.82 7.68.73 15.98 1.71 23.37-.98 2.74-1.19 5.74-3.05 8.79-1.83z"/><path fill="#e5765e" d="M310.84 297.6c-1.4-.4-2.97-.64-4.19-1.44a3.5 3.5 0 0 1-.6-4.7c1.43-4.63 10.74-3.99 14.51-3.21 6.82.18 9.1 6.56 1.84 8.81-3.78.83-7.76 1.42-11.56.54"/><path fill="#fff" d="M359.3 188.27a64 64 0 0 0-22.64-18.56c-1.86-1.45-1.73-3.88-.57-5.07.05 0 .13-.05.18-.05h.1l1.69.31q.09 0 .18.03a59 59 0 0 1 6.1 2.95h-.03.03l.08.02h-.06q2.04 1.16 3.99 2.43h.02a75 75 0 0 1 6.13 4.55l-.1-.08 1.39 1.17a85 85 0 0 1 7.63 8.24c2.01 2.54-.13 5.72-2.62 5a4 4 0 0 1-1.52-.96zm-23.35-23.6h-.07s.05 0 .07-.02zm-2.25 9.62.05.05z"/><path fill="#fff" d="M356.24 191.58c-4.68-4.66-8.4-10.53-14.58-13.34q-.97-.57-2.02-.93-.07-.13-.18-.26a1 1 0 0 0-.52-.29q.06 0 .1.03-.07 0-.1-.03s-.07 0-.1-.02q.06 0 .1.02c-1.03-.3-2.12-.54-3.12-.95q-.1-.02-.19-.08l-.38-.2q-.35-.22-.65-.45l-.41-.33-.62-.57a4 4 0 0 1-.42-.5q-.38-.53-.75-1.13c0 .03.06.08.06.1a14 14 0 0 1-.62-1.24v-.8q.01-.34.1-.7v.03l.18-.78v.06q.23-.69.52-1.35.18-.4.41-.77l.31-.47q.14-.2.34-.36a25 25 0 0 1 1.29-1.03q.31-.26.67-.47l.31-.13.26-.08h.13l1.68.31q.09 0 .18.03 1.2.5 2.33 1.03c.93 1.66.77 3.85-1.37 4.6 6.23 2.18 11.63 6.2 15.97 11.12-.08-.41-.23-.88-.2-1.3a11.1 11.1 0 0 1 8.3 5.28c2.7 4.63-.55 8.4-4.53 7.26a7 7 0 0 1-2.48-1.34z"/><path fill="#fff" d="M359.76 191.33c-1.81-.82-3.16-3.36-2.56-5.3-5-4.98-12.7-7.83-14.94-15.04 4.29 0 8.32 2.25 11.6 4.94 3.18 2.43 6.54 4.78 9.05 7.93 3.33 3.18 2.3 9.18-3.15 7.47m7.48 15.44c-6.49-3.46-2.27-13.29 4.58-8.87 5.71 3.29 1.73 12.13-4.58 8.87"/><path fill="#805c3b" d="M231.4 375.56c-1.57-1.86-1.73-5.25.29-6.93 2.35-2.92 4.7-10.28 9.4-6.54 3.65 3.57.42 7.06-1.7 10.27-1.91 3.12-4.37 6.82-7.99 3.18zm113.43-2.76a3.5 3.5 0 0 1-1.42-4.45c1-2.38 4.6-2.72 6.51-3.36 9.62-3.31 19.29-6.47 28.88-9.83 6.72-3.59 12.02 5.15 3.8 7.03-7.5 2.67-15.15 4.81-22.6 7.7-4.68 1.2-10.46 5.05-15.17 2.9m-33.22 9c-13.06-.29-26-2.59-38.39-6.77-2.38-.4-4.91-2.23-4.19-4.94.94-3.03 4.74-3.57 7.32-2.43 11.66 3.95 23.76 6.3 35.83 6.33 6.33.31 5.56 8.07-.57 7.8m-58.39-28.08c-9.62-4.1-18.4-9.91-26.55-16.4-1.84-1.76-4.53-3.05-5.35-5.58-.96-4.73 6.56-6.54 8.68-2.69a102 102 0 0 0 27.8 17.79c5.45 2.92.12 9.25-4.58 6.87"/><path fill="#805c3b" d="M252.59 365.82c-2.1-2.84-1.48-6.83-2.46-10.13-.9-3.26-1.84-7.97 2.3-9.31 2.02-.67 3.95 1.08 4.57 2.84.42 2.48.6 5.1 1.2 7.6.23 2.64 1.5 5.4.4 7.97a3.54 3.54 0 0 1-6.02 1z"/><path fill="#805c3b" d="M240 370.48q-.59-.96-1.26-1.94a45 45 0 0 0-2.48-3.33l-1.17-1.37.6-.75c3.88-4.86 7.75-9.7 11.53-14.63l.3-.41c1.43-1.84 4.17-1.5 5.54.15a5.2 5.2 0 0 1-.03 6.51l-12.82 16.14q-.09-.19-.2-.37m-5.61 2.36c-.4-.28-.78-.6-1.17-.88l-2.5-2.58.1-.13.62.67q.35.37.75.7l1.32 1.24c.57.54 1.21 1 1.8 1.52q.25.21.45.42l.56.49z"/><path fill="#616e33" d="M162.71 461.99c-2.2-1.6-1.84-5.04-.08-6.85a655 655 0 0 0 11.3-13.94q8.28-10.31 16.52-20.68c10.86-13.57 21.63-27.22 32.54-40.76q2.84-3.5 5.64-7 1.19-1.51 2.4-3l.13-.16.29.3c.23.27.49.47.75.7l1.31 1.25c.57.54 1.22 1 1.81 1.52q.24.21.44.42.51.44 1.01.9l-1.6 2.02q-2.13 2.64-4.21 5.3l-8.02 10.08q-8.16 10.24-16.39 20.45a12024 12024 0 0 0-33.06 41.38q-2.12 2.63-4.19 5.3-.44.63-.88 1.19a4.6 4.6 0 0 1-2.4 1.96 3.5 3.5 0 0 1-3.31-.4z"/><path fill="#616e33" d="M145.81 472.48c-7.57.2-25.98-11.43-25.33-19.52.52-3.28 5.07-5.77 7.34-2.64 2.12 4.5 6.39 7.06 10.19 9.9 7.88 5.87 18.14 3.29 23.83-4.24 3.52-5.04 9.54-.28 6.33 4.66-5.24 6.87-13.57 12.15-22.36 11.81z"/><path fill="#35526c" d="M184.67 304.29c-5.17-6.64-7.96-14.22-10.06-22.26l.16.5q.03.06.1.12c-1.99-3.9 2.46-9 6.02-5.55 1.81 2.27 1.84 5.55 2.92 8.16 1.27 4.81 3.86 9.03 6.78 12.95a5.2 5.2 0 0 1-.4 6.52 3.6 3.6 0 0 1-5.52-.47z"/><path fill="#35526c" d="M189.7 306.88c-4.08-1.35-7.31-5.07-2.32-7.89 4.26-1.08 8.76 2.64 13.34.06 5.73-2.25 8.11 4.98 2.74 7.34-4.32 1.78-9.36 2.32-13.76.46zm232.19-13.78c-2.23-.92-3.03-3.66-2.35-5.83a4.4 4.4 0 0 1 2.22-2.75 3.4 3.4 0 0 1 2.22-.25v-.03c.72.13 1.42.52 2.12.78q.98.27 2 .44.97.1 1.98.1.93-.05 1.86-.2.9-.2 1.79-.55.76-.34 1.5-.75a17 17 0 0 0 2.94-2.35 25 25 0 0 0 1.5-1.79q.82-1.17 1.53-2.43a34 34 0 0 0 2.56-6.43c.28-2 1.96-3.93 4.08-3.83 2.4.1 3.8 2.59 3.7 4.78q-.4 1.25-.75 2.49.13-.28.28-.55.13-.28.2-.6c-.4 1.17-.71 2.39-1.15 3.55a38 38 0 0 1-3.16 6.7c-1.94 3.25-4.57 6.3-7.83 8.3a19 19 0 0 1-6.15 2.45q-1.75.3-3.52.3c-2.58 0-5.2-.5-7.57-1.52z"/><path fill="#805c3a" d="M193.43 339.99c-6.54.44-4.6-8.74.88-8.45 7 .95 13.5-1.01 19.03-5.1 1.8-1.24 4.57-1.32 5.84.7 2.61 4.73-4.47 7.75-7.37 9.38-5.79 2.62-12.02 4.17-18.38 3.47"/><path fill="#805c3a" d="M216.9 334.95c-2.92-.65-6.33-2.12-5.06-5.77.72-2.1 3.2-3.98 5.47-3.41 1.38.41 2.72 1.14 4.27 1.27 2.5-.19 5.33-1.5 6.72 1.6 1.76 6.36-6.95 7.88-11.42 6.28z"/><path fill="#35536d" d="M310.39 368.05a144 144 0 0 1-55.22-14.4q-.62-4.3-.93-8.64c1.14-.1 2.33.18 3.28.68 3.23 1.7 7.65 3.56 10.65 4.96 28.77 11.86 61.42 12.33 91.3 4.91 7.14-1.89 14.04-4.52 20.97-6.98 3.41-1.32 7.65-4.57 10.86-1.14 1.91 2.12.39 5.38-2.17 6.03-7.68 3.36-15.7 6-23.66 8.53-15.43 4.34-31.56 6.12-47.59 6.12q-3.76 0-7.5-.13z"/><path fill="#805c3b" d="M234.1 373a3.7 3.7 0 0 1-1.86-1.04c-2.51-2.25-5.25-4.3-7.84-6.44l-14.52-11.91a552 552 0 0 0-10.65-8.59c-.78-.6-1.58-1.19-2.28-1.86-1.55-1.47-1.57-4.26-.54-6 1.19-1.99 3.57-2.6 5.45-1.21 1.06.78 2.04 1.7 3.03 2.56l4.21 3.51q4.56 3.72 9.15 7.42 6.51 5.31 13.03 10.58c1.89 1.52 3.75 3.15 5.71 4.6-.15-.1-.3-.24-.46-.31l-.5-.24-.53-.15h-.24c3.1.44 4.32 4.5 2.74 7.13a4 4 0 0 1-3.25 2.02q-.33.02-.65-.08"/><path fill="#805c3b" d="M238.5 381.86c-1.94-2.84-3.2-6.12-4.76-9.2-1.63-2.69-.39-6.9 2.92-7.37 1.81-.2 3.47 1.17 3.96 2.85 1.26 2.58 2.25 5.32 3.87 7.67 2.82 3.86-2.12 10.24-5.97 6.05zm51 14.3c-4.3-.23-7.13-3.51-10.88-5.01-3.03-1.3-6.62-.73-9.52-2.17-4.08-2.38-1.37-10.37 3.44-8.33 3.67.47 7.4 1.04 10.75 2.67 3.44 2.43 7.01 4.52 11.43 4.18 4.16-.25 8.32-1.86 12.49-.88 4.42 1.22 4.06 8.46-.57 9-5.77-.62-11.38 2.04-17.14.52zm55-1.22c-2.4-.05-3.75-2.71-3.62-4.83.13-3.93 4.03-4.68 7.16-5.4 4.94-1.5 10 0 14.94-.47 6.41-3.07 11.84-7.93 19.18-6.67 4.78-.26 7.21 6.03 3.2 8.8a3.7 3.7 0 0 1-3.28.46c-6.62-1.6-11.42 4.31-17.21 6.23-3.47 1.19-7.3.02-10.86 0-3.34-.08-6.36 1.29-9.51 1.86z"/><path fill="#35536d" d="M300.72 381.33c-8.92-.65-17.55-2.97-25.95-5.97-3.34-1-8.87-2.9-6.95-7.4 1.13-2.2 3.9-2.27 5.86-1.34a87 87 0 0 0 29 6.88c9.93.36 18.64-2.07 28.26-3.54 16.65-3.73 32.73-9.85 48.55-16.03 4.29-1.66 9.15 5.06 4.32 7.55-26.63 9.92-54.24 21.01-83.09 19.85"/><path fill="#b0761c" d="M258.72 467.67c-10.16-.21-20.06-2.7-29.45-5.9-2.35-1-5.27-1.21-5.84-4.31-.75-2.75 1.16-6.41 4.34-5.9 12.05 4.81 25.05 7.76 38.1 6.8 14.77-1.45 29.55-4.6 43.15-10.57 3.13-1.4 6.28-2.82 8.97-4.55 1.78-1.42 4.42-.62 5.4 1.34 2.64 4.97-2.9 7.73-6.64 9.41q-5.64 2.78-11.5 4.96c-14.9 5.33-30.69 8.56-46.53 8.67zm95.95-3.63a63 63 0 0 1-13.47-7.7 55 55 0 0 1-6.3-5.71 28 28 0 0 1-1.82-2.07q-.39-.48-.7-1.03a5 5 0 0 1-.54-3.52 3.6 3.6 0 0 1 2.69-2.82c1.58-.38 2.77.78 3.77 1.79 1.01.98 2.05 1.99 3.05 2.87a66 66 0 0 0 6.93 5.01 75 75 0 0 0 8.95 4.65h.07a76 76 0 0 0 11.02 3.7l.36.08h.08a82 82 0 0 0 12.87 2.04q6.76.47 13.52-.18a77 77 0 0 0 11.81-2.22q4.7-1.35 9.13-3.37a44 44 0 0 0 5.97-3.36c.3-.2.64-.4.9-.64l-.41.39q-.1.1-.2.25a3.7 3.7 0 0 1 2.76-1.42 3.9 3.9 0 0 1 3.33 2.05c1.4 2.4.57 5.79-1.52 6.72-10.16 6.77-22.08 10.1-34.2 10.85q-2.68.16-5.35.16a84 84 0 0 1-33.01-6.7l.3.13zm6.47-24.01c-16.62-3.1-5.84-15.36-14.5-16.52-1.6-.26-3.03.2-4.55.52-3-.08-4.16-4.04-2.82-6.36 2.02-3.1 6.49-2.85 9.77-2.64 6.7.98 9.77 8.32 9.41 14.43 3.15 2.2 7.75 2.04 11.14.44-.6-5.59-5.94-10.7-2.66-16.08 2.14-2.51 5.87-2.43 8.74-3.75 1.55-.52 3.02-1.24 4.6-1.66 3-.54 5.3 2.87 4.47 5.61-1.19 4.27-6.67 4.35-10.1 5.92 6.71 12.49.85 21.98-13.45 20.06zm22.8 3.26c-2.35-.8-3-3.7-2.79-5.85.08-9.77 7.94-18.04 17.35-19.77 4.4-1.55 6.93 5.09 3.85 7.86-2.33 1.78-5.66 1.4-8.02 3.36a13.7 13.7 0 0 0-4.8 5.4c-.73 3.3-.52 10.06-5.59 9m-115.94.03c-1.73-2.1-2.15-4.94-3.65-7.21a17.5 17.5 0 0 0-10.26-7.55c-2.5-.75-5.81.08-7.21-2.72-2.07-3.05.98-8.6 4.78-6.9 10.86.8 19.9 9.51 22.5 19.88.92 3.72-2.93 7.94-6.16 4.5m17.55-9.08c-8.63-3-5.43-11.32-6-18.28-4.55.1-9.1.34-13.65.6-2.6.67-5.81 0-6.36-3.03-.67-2.6.96-6.25 4.04-5.92 18.87-.41 25.54-6.18 23.7 17.5 2.9 1.71 9.23 4.17 11.01.13-.33-4.19 2.92-7.83 6.54-9.46 3.2-1.16 5.82 2.8 4.89 5.69-.54 2.45-2.33 2.64-3.67 4.03.02 10.68-12.67 13.55-20.5 8.76z"/><path fill="#5d84a7" d="M361.2 187.94c2.95-6.64-19.43-20.03-25.2-18.59-2.58 5.33 5.64 4.9 8.5 7.11 5.95 2.72 9.65 8.5 14.92 11.95l.8-.16q.51-.13 1.01-.3zm11.9 12.75q-.01-.23-.05-.5l-.1-.43-.21-.52-.19-.34c-.07-.1-.12-.2-.23-.3q-.1-.15-.26-.3-.17-.13-.33-.28l-.31-.2-.44-.21-.47-.16q-.26-.03-.57-.1h-.56q-.36.02-.7.08-.36.07-.68.18h-.1s-.18.13-.28.15c-.05 0-.1.06-.13.08q-.15.08-.31.13-.39.23-.73.5l-.7.61-.54.73q-.19.31-.33.67t-.24.75q-.07.32-.1.65c-.03.2 0 .46 0 .7q.01.22.05.46l.1.39.21.54.18.34q.14.17.26.36l.26.26.34.28a3 3 0 0 0 .8.41q.2.09.44.13.22.08.46.1c.24 0 .44.03.68.03q.34-.02.7-.07l.64-.16q.42-.16.77-.34l.86-.54q.34-.3.64-.62l.47-.62.39-.75a5 5 0 0 0 .33-1.42v-.65zm6.28-5.51c2.38 3.93 2.95 8.9.65 13.03a12 12 0 0 1-4.45 4.57 12.4 12.4 0 0 1-5.64 1.58h-.2c-5.04 0-9.88-2.8-12.18-7.37a13 13 0 0 1-.49-10.72c-5.71-2.43-8.74-8.53-14.2-11.46-3.97-2.76-9.53-2.63-12.63-6.7-4.32-4.64-4.53-14.73 2.3-17.08.64-.18 1.3-.26 1.94-.36 2.81-1.4 6.05.65 8.73 1.6 10.91 4.4 23.4 11.76 26.63 23.86q.35 1.53.18 2.92.8.11 1.6.34c3.24.85 5.95 3.08 7.78 5.82z"/><path fill="#35536d" d="M253.87 304.63c-3.34-.72-5.84 4.26-9.36 3.52-3.7-1.01-3.98-6.5-1-8.46v-.02c2.81-1.74 6.64-3.39 7.44-6.93l-1.45-.03-.62.06c-3.26.98-4.89 6.56-9 4.98-5.17-3.12-1.47-8.35 2.12-10.96.37-.77 1.2-1.65 1.01-2.56-.88-1.16-2.04-1.6-3.44-1.08a19 19 0 0 0-4.06 2.95c-.7 1.52-1.83 3.23-3.4 3.92-5.18 1.76-6.73-5.2-3.7-8.34-.1-.78-.29-1.63-1.12-1.94-2.84 2.01-4.65 5.14-6.2 8.22a21 21 0 0 1 2.69 4.93c2.6 5.25 4.4 10.86 6.46 16.16 1.5 3.88 3.31 8.04 3.28 12.28 3-1.53 6.67-.28 9.77-2.2-3-1.65-2.94-6.9.32-8.4 3.67-1.11 8.37-2.38 10.23-6.05zm148.61-22.9a34 34 0 0 1 3.8-5.95c-2.94-2.58-2.12-9.9-7.86-7.7.37 1.68 1.12 3.28 1.17 4.99.23 2.58-1.92 5.63-4.76 4.93-4.24-1.21-6.67-7.96-11.74-5.45l-.05.08c1.37.93 2.64 2.35 3.7 3.36 3.67 4.29.93 10.5-4.8 7.1a20 20 0 0 1-3.83-3.46 3 3 0 0 1-.75-.26c-2.62 2.2-.6 3.1.95 4.86q.11.16.18.31a10 10 0 0 1 3.57 1.84c4.5 3.64 0 7.57-4.34 7.34a6.4 6.4 0 0 1-2.95-.52c2.22 2.49 6.7 2.77 7.34 6.39.8 2.95-1.83 4.42-2.48 6.93 3.02 2.32 7.47 1.91 11.22 1.8a30 30 0 0 1 3.1-9.84 140 140 0 0 1 8.53-16.8zm6.18-25.2v-.08c-.8-.65-1.3-1.6-1.53-2.64 0 0-.02-.16-.05-.23q-.04-.23-.05-.44v-.7a84 84 0 0 0-.88-7.8 141 141 0 0 0-3.33-16.11l-.1-.37v-.1a141 141 0 0 0-5.3-15.07q-2.84-6.61-6.44-12.82a119 119 0 0 0-8.17-12.07 109 109 0 0 0-9.7-10.76q-5.54-5.29-11.73-9.77c-4.4-3.1-9.02-5.84-13.31-8.01a111 111 0 0 0-15.75-6.36 116 116 0 0 0-18.97-4.16c-6.88-.86-13.8-1.17-20.14-.9q-.93.02-1.88.1h-.57a3.8 3.8 0 0 1-2.87-1.71 99 99 0 0 0-8.84 3.3 99 99 0 0 0-12.08 6.4 103 103 0 0 0-10.57 7.67 101 101 0 0 0-9 8.63 100 100 0 0 0-7.78 9.83 104 104 0 0 0-5.06 8.22q-.18.7-.6 1.26c-.13.19-.23.4-.38.57a94 94 0 0 0-9.75 32.4c-.39 3.85-.6 7.7-.54 11.57q.15 5.97.95 11.9.91 5.89 2.48 11.63c1.17 3.98 2.54 7.9 3.96 11.3 1.5.77 2.92 2.22 4.24 4.52 6.33-5.04 15.67 0 15.95 7.78 6.56-.2 9.36 7.8 7.13 13.1 5.28 3.7 4.4 10.45.94 15.1q.42-.42.77-.88.51-.68.83-1.47 2.27 1.72 4.63 3.31a97 97 0 0 0 13.02 7.26 105 105 0 0 0 15.41 5.48c5.48 1.37 11.09 2.3 16.16 2.72q8.17.59 16.33-.1 7.83-.78 15.46-2.74 6.94-1.9 13.57-4.74a103 103 0 0 0 12.52-6.61q2.53-1.6 4.96-3.39c-1-2.3-1.16-5.04 0-7.99-5.77-3.56-9.77-12.2-3.78-17.42-1.83-5.56 1.12-12.23 6.39-14.74 1.7-6.59 10.03-9.69 15.8-6.2 2.17-6.28 11.96-7.47 16.46-3v-.02q.7-2.34 1.24-4.7zm2.15-28.29q-.28-3.24-.7-6.46a99 99 0 0 0-2.36-11.2 101 101 0 0 0-4.08-11.6 108 108 0 0 0-5.5-10.94l-.29-.46a106 106 0 0 0-7.75-11.04 98 98 0 0 0-9.23-9.8q-5.5-4.95-11.61-9.1-6.6-4.3-13.73-7.57a103 103 0 0 0-15.22-5.3 105 105 0 0 0-13.4-2.4q3.62.86 7.2 1.99a110.6 110.6 0 0 1 43.86 25.9c12.54 12.1 21.95 27.01 28.18 43.25 1.83 4.8 3.36 9.74 4.63 14.73m8.5 58.27c.29-1.14.62-2.25.83-3.28a13 13 0 0 0-5.12-3.2c-1.32 0-2.48 1.23-3.36 2.16-5.35 8.45-9.57 16.47-12.8 25.72-.18 1.17-.64 2.38-.46 3.57.85 1.09 2.4 2.82 3.88 1.86 1.21-.72 2.12-1.86 3.64-2.01h.34c.3-.34.7-.62 1.1-.8.11-.8.4-1.58.83-2.13 2.93-4.47 4.68-8.47 7.09-13.05 1.5-2 2.4-6.1 4.06-8.76zm9.41 31.46c.36 2.12-1.24 4.42-3.52 4.24-4.68-.75-8.73-1.2-13.05-2.66-1-.29-2.1-.55-3.1-.99l-.03.06c-2.3 2.7-6.07 4.98-9.7 3.87-3.4-1.03-5.63-2.87-6.97-5.14-2.54.52-5.77.13-8.07 0-4.47 0-8.55-2-10.78-5.15a6.3 6.3 0 0 0 1.97 2.77 7.5 7.5 0 0 0 3.13 1.5 105 105 0 0 1-30.79 16.1 101 101 0 0 1-23.68 4.55 99 99 0 0 1-7.32.29 101.5 101.5 0 0 1-60.9-20.48l-1.06-.8c.5 9.05-13.26 15.33-20.94 12.88a6 6 0 0 1-1.89-1.4c-1.1 2.12-3 3.72-5.48 2.28-3.07-1.97-1.8-5.61-.77-8.33-1.09-6.4-4.34-12.61-6.23-18.22-2.07-3.62-3.26-11.69-8.45-11.32-1.58 0-4.01.4-4.22 2.27-.36 3.18 2.17 6.26 1.35 9.25 1.4 3.29 2.79 6.57 4 9.9 1.12 4.06 5 7.68 3.98 12.05-.56 2.12-2.94 3.65-5.01 2.74-1.45-.6-2.02-1.99-2.66-3.28-2.23-4.42-3.9-9.05-5.7-13.65-1.18-2.95-3.92-6.93-2.86-9.98a20 20 0 0 1-.8-4.94c-.72-5.17 1.86-10.7 6.9-12.61 3.15-1.14 5.95-1.3 8.38-.65.56-1.06 1.21-2.1 1.73-3.05 1.6-2.9 3.82-5.71 6.28-7.52a100 100 0 0 1-4.19-13.34 103 103 0 0 1 8.71-71.11v-.03q0-.08.06-.13a5 5 0 0 1 .87-1.63l.31-.54q.54-.98 1.12-1.94l.3-.54.55-.93a105 105 0 0 1 13.42-17.68 101.6 101.6 0 0 1 44.22-27.48q.29-.1.52-.16.87-.28 1.73-.51.51-.16 1.01-.29l2.3-.62q.53-.15 1.01-.08a97 97 0 0 1 17.92-2.53 101.3 101.3 0 0 1 50.2 10.6 102.4 102.4 0 0 1 37.79 32.75 102.5 102.5 0 0 1 17.17 73.75q-.2 1.47-.5 2.95-.21 1.31-.51 2.58a105 105 0 0 1-4.45 15.46v.1q.4-.16.83-.28c4.42-.98 8.53 1.86 11.76 4.58 4.73 4.03 3.02 10.03 1.68 15.22q-.35 1.06-1.14 1.84c-1.65 3.67-3.51 7.24-5.3 10.83-1.29 1.78-2.63 5.76-4.42 8.69 2.74.7 5.53 1.13 8.33 1.55 2.35 0 4.5 1.94 4.86 4.24z"/><path fill="#35536d" d="M287.13 147.46c-2.76-.36-5.53-1.55-8.11-2.22 4.42-2.58 8.86-5.04 14.11-5.27 2.92-.47 7.44-.44 7.96 3.3-.2 6.16-9.77 4.38-13.93 4.2z"/><path fill="#35536d" d="M284.76 148.04a58 58 0 0 1-8.81-1.13c3.77-2.38 7.68-4.66 12.07-5.64 2.97-1.24 8.66.39 6.6 4.42-2.2 3.1-6.55 2.15-9.86 2.35"/><path fill="#35536d" d="M272.09 148.15a66 66 0 0 1 14-6.83c2.41-.82 5.05-1.75 7.4-.3 7.52 8.32-17.32 7.8-21.4 7.16z"/><path fill="#35536d" d="M272.09 148.44a70 70 0 0 1 14.3-6.8c2.4-.82 5.21-1.83 7.54-.36 7.86 8.5-17.73 7.63-21.84 7.16"/><path fill="#35536d" d="M270.6 148.64a45 45 0 0 1 12.38-5.9c2.14-.64 4.65-1.2 6.7.09 1.67.82 1.33 2.32.07 3.38-5.46 3.36-12.95 2.12-19.16 2.46z"/><path fill="#35536d" d="M272.28 148.7c4.19-2.12 22.15-12.43 23.96-4.6-1.44 6.54-18.58 4.7-23.96 4.6"/><path fill="#35536d" d="M271 149.4c3.23-3.03 13.7-10.78 17.44-5.9 3.21 7.5-13.23 7.22-17.44 5.9m137.8 116.35c-3.4-.93-2.95-5.02-2.4-7.73.3-3.28.38-8.58 4.88-8.56 4.52.54 3.4 5.82 2.84 9-.23 3.13-1.19 7.99-5.32 7.29m-37.21 47.77c.07-5.95 7.7-6.57 7.93-.34-.07 5.94-7.7 6.56-7.93.33M254.1 312.3c.08-5.94 7.7-6.56 7.94-.33-.08 5.95-7.7 6.57-7.94.34"/><path fill="#69291a" d="M350.71 289.9c1.81-6.29 2.56-16.91-4.86-19.6-6.7-1.68-12.54.65-18.95 1.81-10.16 1.76-20.42.88-30.4-1.09-7.73-2.04-17.76 1.25-18.17 10.37 1.24 19.57 21.87 33.53 40.64 31.49 13.1-2.02 27.63-9.57 31.72-22.96zm-4.62-28.78c13.57 2.4 15.35 19.78 12.2 30.8-5.64 20.28-28.9 32.3-49.04 29.75a46 46 0 0 1-29.21-16.16c-9.93-12.38-15.41-34.23 2.43-42.27 8.4-3.93 17.73-.54 26.36.57 7.2.65 14.4-.13 21.46-1.57a32.4 32.4 0 0 1 15.8-1.12"/><path fill="#000" d="M126.72 425.6a5.2 5.2 0 0 1-.93-5.43 5 5 0 0 1 1.03-1.55l.06-.06c4.73-5.5 9.17-11.27 13.67-16.93q8.33-10.49 16.65-21.04a7088 7088 0 0 0 32.44-41.2c1.89-2.41 3.72-4.9 5.64-7.3q.45.13.95.21 2.03.44 4.11.6c.37 0 .75.05 1.11.05q.38.02.75-.08c.6 1.52.31 3.54-.7 4.83-4.54 5.77-9.22 11.4-13.77 17.17-5.48 6.93-10.99 13.8-16.5 20.7a5286 5286 0 0 0-33.26 42.06q-1.92 2.4-3.75 4.89c-.54.7-1.11 1.4-1.63 2.12q-.46.81-1.19 1.37a3.6 3.6 0 0 1-2.07.7c-.96 0-1.91-.4-2.6-1.14z"/><path fill="#000" d="M144.92 479.24c-12.95-4.75-23.21-17.42-24.95-31.15-.7-9.92.86-20.7 6.62-29 2.25-3.52 6.9-2.3 7.34 1.8.36 2.1-.83 3.57-2.04 5.05-3.93 6.44-4.86 14.55-4.16 21.94 1.6 9.39 8.6 17.1 16.72 21.62 7.73 3.25 17.17 1.06 24.07-3.29 2.77-1.94 5.5-3.93 7.83-6.4a3.65 3.65 0 0 1 5.43-1.38c2 1.53 2.15 4.27 1.16 6.36-8.78 11.04-23.98 17.86-38 14.43z"/><path fill="#000" d="M176.48 466.03a5.2 5.2 0 0 1-.65-6q.37-.62.88-1.11c4.66-5.46 9.05-11.14 13.55-16.73q7.96-9.88 15.92-19.8c11.07-13.9 22.1-27.81 33.2-41.67 4.88-6.1 9.69-12.2 14.47-18.38 1.4-1.8 3.9-2.07 5.53-.41a5.15 5.15 0 0 1 .31 6.51 9636 9636 0 0 0-62.76 78.25 3503 3503 0 0 0-12.9 16.29c-.54.72-1.14 1.42-1.66 2.17q-.3.5-.72.93a3.6 3.6 0 0 1-5.14-.03z"/><path fill="#000" d="M268.44 372.4c-4.05-1.88-9.22-1.29-12.9-3.9-2.42-2.3-1.42-7.44 2.05-8.04 4.4.7 8.81 1.86 13.1 3.13 4.73 1.58 2.87 10.4-2.27 8.82z"/><path fill="#000" d="M224.75 454.69c-2.25-17.2 9.98-34.93 27.43-37.36.44-7.88 2.84-11.52 11.14-11.4-.2-8.11-5.81-20.34 3.05-25.48.47-4.68-1.08-9.95 1.17-14.22 2.42-3.36 7.1-.72 6.87 3-.52 4.4-.2 8.87-.23 13.28.46 3.21-1.4 6.16-4.73 6.42-1.53 5.79 6.2 24.09-1.45 26.05-2.53.34-5.14-.15-7.65.42-1.19 3.64.83 9.12-3.57 10.93-3.02.26-6.1-.08-8.9 1.45-9.92 4.06-16.61 14.27-15.42 25.02 1.03 6.05-6.52 8.35-7.68 1.86zm-30.28-113.41h-.5q-.91-.08-1.88-.2a35.6 35.6 0 0 1-17.66-7.68 37 37 0 0 1-11.81-17.5 37.5 37.5 0 0 1 .31-23.11c1.45-4.3 3.77-8.3 6.7-11.77a36 36 0 0 1 4.75-4.7c1.06-.9 2.22-1.84 3.47-2.46 1.88-.93 4 .6 4.75 2.3a5.1 5.1 0 0 1-1.19 5.85c-.41.36-.95.64-1.42.95q-1.62 1.19-3.08 2.54-1.35 1.34-2.53 2.81a37 37 0 0 0-2.01 2.95 33 33 0 0 0-1.66 3.31 29 29 0 0 0-1.76 6.28 35 35 0 0 0-.3 3.28c0 1.22.02 2.46.15 3.68q.2 1.7.6 3.38.38 1.51.9 2.97.6 1.56 1.37 3.08a34 34 0 0 0 1.63 2.77l.15.23a39 39 0 0 0 2.43 3.05q1.33 1.37 2.77 2.58a36 36 0 0 0 3.28 2.3 35 35 0 0 0 3.95 2 29 29 0 0 0 8.9 2.04 3.3 3.3 0 0 1 2.25.62 4.9 4.9 0 0 1 1.91 3.8c.05 1.47-.5 3-1.63 3.93a3.7 3.7 0 0 1-2.12.82c-.23 0-.54 0-.8-.05z"/><path fill="#000" d="M173.37 276.69a169 169 0 0 1-3.41-22.47q-.86-11.26-.06-22.51c1.3-16.7 5.17-33.14 11.82-48.55 3.59-8.3 7.88-16.29 12.56-23.32a150 150 0 0 1 33.5-36.09 147 147 0 0 1 42.11-22.8 152 152 0 0 1 38.78-7.93 142 142 0 0 1 15.56-.23l.13 2.9v.4q-.12 2.48-.13 4.97v.77q-7.96-.29-15.92.26c-8.1.62-16.08 1.89-23.42 3.67a148 148 0 0 0-22.34 7.5 157 157 0 0 0-20.65 10.99 140 140 0 0 0-15.1 11.19l-.23.2a159 159 0 0 0-14.5 14.35l-.1.1q-6.14 7.07-11.33 14.85-5.12 7.81-9.23 16.15a139 139 0 0 0-6.51 15.77 142 142 0 0 0-7.21 34.54q-.66 9-.26 17.99c.28 5.56.87 11.11 1.78 16.54v.08l.05.23c.5 2.64 1 5.25 1.66 7.86.46 1.94-.24 4.55-2.18 5.48-.41.18-.62.29-1.06.36l-.56.06c-1.81 0-3.34-1.6-3.7-3.34z"/><path fill="#000" d="m449.19 274.15-2.8-1.94q-.61-.45-1.24-.88c.05-.6-.36-1.16-.9-1.34q.96-3.88 1.78-7.79c0-.12.05-.25.05-.28q-.01-.09.05-.18v-.18a159 159 0 0 0 2.59-18.67v-.43c.41-5.93.5-11.82.23-17.25a145 145 0 0 0-1.86-16.98 137 137 0 0 0-3.98-16.52 136 136 0 0 0-5.5-14.5 129 129 0 0 0-7.6-14.22q-4.35-6.89-9.47-13.18-5.9-7.06-12.69-13.29a132 132 0 0 0-14.35-11.22 138 138 0 0 0-18.17-10.21 153 153 0 0 0-22.39-8.3 161 161 0 0 0-26.34-4.96c-1.1-.1-2.22-.23-3.3-.28-2.41-.1-3.88-2.4-3.86-4.66 0-1.08.34-2.14 1.01-3 .65-.88 1.84-1.68 2.97-1.55l.93.1q.29 0 .42.06a173 173 0 0 1 39.37 8.45 141 141 0 0 1 48.85 28.8 133 133 0 0 1 28.8 37.66c7.24 14.09 11.79 29.52 13.86 45.21 2.17 16.4 1.4 33.14-1.6 49.38-.83 4.52-1.9 9.02-3.06 13.47q-.83-.69-1.73-1.3z"/><path fill="#000" d="M425.57 323.6c-3.9.07-7.7-2.1-6.62-6.5.54-2.09 2.64-3.9 4.89-3.07.72.34 1.6.44 2.3.5 10.08 1 22.07-.24 27.79-9.78 6-9.28 3.93-24.17-5.64-30.22-5.22-.9-4.89-9.97.72-9.46 12.18 4.86 17.35 20.27 15.7 32.5-2.82 19.9-20.5 28.38-39.12 26.03z"/><path fill="#000" d="M381.16 354.3c-2.62-5.5 4.96-7.75 8.34-10.3 10.89-7.4 21.25-15.8 29.32-26.27 1.42-2.3 5.14-4.6 7.06-1.58 1.42 2.74-.83 5.25-2.3 7.42-8.69 12.2-21.18 21.15-33.48 29.4-2.66 1.67-6.46 4.93-8.95 1.34"/><path fill="#000" d="M427.36 467.56c-1.6-2.9-.36-5.92-1.84-8.84-.28-1.06-1.34-1.3-2.01-2.05-.93-1-1.3-2.32-1.37-3.67-1.55-20.13-9.88-23.65-27.45-28.38-2.93-2.45-1.4-6.54-2.07-9.77-2.12-.72-4.4-1.22-6.62-.78-8.27-.6-.62-18.71-2.25-24.53-.29-2.94-3.67-3.67-4.24-6.49-.18-3.15.36-6.28.39-9.43.3-6.77.15-13.57.05-20.35 0-1.68.41-3.46 1.7-4.65 3.21-3 7.37.8 6.13 4.52-.1 8.8.2 17.58-.41 26.35 6.82 6.59 3.77 17.16 2.76 25.46 7.84.77 10.81 4 10.53 11.94 18.5 4.19 27.55 14.53 29.13 33.48 3.88 3.44 7.44 15.74 1.42 18.53a3.3 3.3 0 0 1-3.82-1.34z"/><path fill="#000" d="M353.17 477.85a85 85 0 0 1-18.27-8.15 39 39 0 0 1-9.08-7.37c-.36-.38-.67-.82-1-1.21a3.5 3.5 0 0 1-.96-1.7c-.44-1.81.7-3.5 2.32-4.22a5.3 5.3 0 0 1 5.49.88q.46.43.82 1 .63.81 1.32 1.53 1.33 1.31 2.82 2.48c1.4 1.09 2.87 2.1 4.19 2.9l.2.13a71 71 0 0 0 6.85 3.49 99 99 0 0 0 10.94 3.93c4.78 1.37 9.64 2.48 13.88 3.18 5.4.85 10.86 1.42 16.34 1.63q6.26.2 12.5-.34a77 77 0 0 0 8.72-1.32 56 56 0 0 0 5.56-1.52q2.09-.73 4.06-1.74 1.09-.58 2.14-1.29.83-.6 1.6-1.26.52-.51.99-1.06.38-.52.72-1.06.23-.43.42-.86.15-.42.23-.85l.07-.78v-.05c-.1-2.4 2.05-4 4.3-4.06 2.53-.07 4.96 1.71 4.88 4.37-.13 5.02-3.38 8.9-7.31 11.64-3.96 2.66-8.5 4.34-13.11 5.48a87 87 0 0 1-18.85 2.32l-3.12.03c-13.4 0-26.91-2.1-39.63-6.2zm-42.77-96.37c-5.86 0-6.66-7.55-.51-7.86 1.5.06 2.9-.02 4.26-.15a95 95 0 0 0 22.47-4.78c2.71-.83 5.48-2.77 8.37-1.66 3.96 1.22 3.62 6.85-.54 7.37-10.99 3.88-22.44 6.8-34.07 7.06z"/><path fill="#000" d="M325 461.4c-4.1-7.39-2.97-18.11 4.6-22.9.78-8.55 2.3-18.48 9.73-23.93-1.09-8.74-4.66-19.03 1.1-26.81a66 66 0 0 1-.4-8.43c.18-2.87-.6-6.18 1.31-8.58a3.5 3.5 0 0 1 5.77.39c1.8 3.93.05 9.07.8 13.34.98 3.9-.08 7.47-2.35 10.39-1.56 6.15.88 12.53 1.52 18.69.31 2.17.5 4.47-.77 6.4-1.04 1.61-2.93 2-4.2 3.34-3.9 4.47-4.54 11.87-4.88 17.27 0 1.97-.49 3.9-2.22 5.04a8 8 0 0 0-4.11 3.46c-1.09 2.54-.05 5.23.8 7.66 1.06 3.8-3.57 8.17-6.67 4.65z"/><path fill="#000" d="M320.57 467.73c-3.38-.83-4.03-6.03-1.44-8.12.67-.47 1.31-.73 1.75-1.45 2.46-3.62 2.36-10.34-2.66-11.5-2.12-1.35-2.56-3.85-2.69-6.18a46 46 0 0 0-2.56-10.78c-.67-2.58-3.07-3.8-4.96-5.43-1.89-1.5-2.53-3.9-2.66-6.2-.26-4.24.2-8.53 1.11-12.7.85-3.59 3.02-7.18 2.04-10.96-.54-2.14-2.66-3.4-3.02-5.63-.39-2.92.13-5.92-.24-8.87-.07-2.22 1.2-4.73 3.62-4.99 5.56 0 4.17 7.19 4.27 10.96 7.94 9.54-1.06 20.74 0 31.3 7.44 4.56 8.81 13.74 10.06 21.67 7.39 4.32 8.52 14.71 5.32 22.02-1.55 2.98-3.93 7.53-7.88 6.86z"/><path fill="#000" d="M254.08 482.27c-5.07-.41-33.2-1.08-29.03-9.4 3.51-5.07 9.95.23 14.68.4 16.52 2.77 32.54 1.4 48.75-1.7a112 112 0 0 0 23.27-7.03c3.9-1.45 7.9-6.78 12.07-2.95 6.9 8.35-24.82 15.36-30.2 16.8-13.02 2.56-26.23 4.53-39.54 3.88"/><path fill="#000" d="M228 478.98c-9.88-2.48-13.68-15.61-7.66-23.44 2.22-3.05 7.21-5.61 10.1-2.02 1.77 2.33.06 4.8-2.16 5.95-1.45 1.47-1.76 3.67-1.63 5.66.36 2.45.83 4.96 3.23 6.05 1.84.85 4.3.77 5.3 2.84 2.04 4.3-3.85 6.85-7.19 4.96"/><defs><filter id="crests-customer-analytics-filter0_d_23_18942" width="390.57" height="437.08" x="102.83" y="75.33" color-interpolation-filters="sRGB" filterUnits="userSpaceOnUse"><feFlood flood-opacity="0" result="BackgroundImageFix"/><feColorMatrix in="SourceAlpha" result="hardAlpha" values="0 0 0 0 0 0 0 0 0 0 0 0 0 0 0 0 0 0 127 0"/><feOffset dx="11.41" dy="11.41"/><feComposite in2="hardAlpha" operator="out"/><feColorMatrix values="0 0 0 0 0 0 0 0 0 0 0 0 0 0 0 0 0 0 0.4 0"/><feBlend in2="BackgroundImageFix" result="effect1_dropShadow_23_18942"/><feBlend in="SourceGraphic" in2="effect1_dropShadow_23_18942" result="shape"/></filter></defs></svg>