<svg xmlns="http://www.w3.org/2000/svg" fill="none" viewBox="0 0 600 600"><g filter="url(#crests-data-warehouse-filter0_d_23_11277)"><mask id="crests-data-warehouse-path-1-outside-1_23_11277" width="480" height="458" x="53.47" y="56" fill="#000" maskUnits="userSpaceOnUse"><path fill="#fff" d="M53.47 56h480v458h-480z"/><path d="M285.27 73c4.94 0 9.13.8 12.41 3.18 3.34 2.4 5.23 6.05 6.4 10.54 1.4 5.36-.51 9.91-2.84 13.2-.77 1.1-1.63 2.1-2.47 2.99q1.2.6 2.37 1.44c3.04 2.22 5.85 5.98 5.16 11.42-.44 3.4-2.7 5.73-5 7.26l-.25.15c2.56.84 5.15 2.13 7.31 4.14 2.82 2.63 4.72 6.3 5.1 11.17.34 4.57-.39 8.2-1.86 11.02a14 14 0 0 1-3.46 4.32c2.87 2.67 4.8 7.31 5.31 14.84.42 5.98-1.69 10.37-4.68 13.43q1.39.55 2.66 1.42l35.86-27.79a7.2 7.2 0 0 1 7.94-.6l73.17 40.8.58-10.91q.14-2.05 1.18-3.59a7 7 0 0 1 4.37-3.95l15.28-5a7.2 7.2 0 0 1 6.39.96l11.53 8.1a7 7 0 0 1 3.06 5.6q.11.52.13 1.06l1.64 35.31 42.3 36.42a3.2 3.2 0 0 1-4.2 4.86l-17.79-15.33-.94 11.88q-.05.55-.17 1.07L487.64 331l9.82 5.98c7.27 4.42 5.64 15.4-2.6 17.53l-46.19 11.9c2.95 4.66 5.1 9.6 6.53 14.47q.6 2.05 1.06 4.04.33.5.47 1.1l-.22.04.22-.05v.03l.02.07.05.22.15.8q.2 1.06.46 3a94 94 0 0 1 .75 14.4 80 80 0 0 1 5.82-.57l.75-.06.2-.01h.08a3.2 3.2 0 0 1 3.32 2.47l1.25 5.36a24 24 0 0 1 12.88.78c4.63 1.55 8.59 4.33 10.54 7.17 2.3 3.33 3.61 7.4 4.13 11.24l.22.87c.54 2.34.43 4.66-.08 6.83q1.34.43 2.5 1.4a8.5 8.5 0 0 1 2.73 4.68c.64 2.74-.22 5.37-1.48 7.52a24 24 0 0 1-5.22 5.96c-4.09 3.49-9.47 6.41-13.9 7.45-12.04 2.82-25.69 3.75-52.35.3-6.61-.86-12.7-3.08-17.32-7.22-4.68-4.19-7.57-10.1-8.14-17.76-.3-4 2.22-7.74 5.26-10.31q1.43-1.21 3.16-2.22c.29-3.13.86-6.67 1.63-9.72.66-2.62 1.58-5.35 2.87-7.18a6 6 0 0 1 3.35-2.48 4.5 4.5 0 0 1 1.95-.04 90 90 0 0 0-.62-16.6l-.02-.17-.01-.03a3.2 3.2 0 0 1 .8-2.68q-.34-1.9-.82-3.7c-1.06-3.98-3.9-7.5-7.83-10.42l-23.73 6.12c-1.9 8.76-6.59 15.9-12.78 21.66q-1.43 1.32-2.87 2.52a3 3 0 0 1-.74.86l-.13-.16.13.16-.02.02q-.02 0-.05.04l-.17.13-.6.46q-.8.6-2.3 1.62c-1.9 1.29-4.65 3-8.15 4.84a65 65 0 0 1 2.15 3.2 109 109 0 0 1 1.57 2.55l.1.16.04.06a3.2 3.2 0 0 1-.69 4.08l-3.69 3.13a22.5 22.5 0 0 1 4.69 10.85c.68 4.49.06 8.96-1.48 11.83a24.5 24.5 0 0 1-7.54 8.19l-.63.55a14 14 0 0 1-5.53 2.81q.17 1.21-.12 2.52a8 8 0 0 1-2.78 4.35c-2.05 1.73-4.65 2.14-6.98 2a23 23 0 0 1-7.17-1.79c-4.62-1.9-9.32-5.1-12.07-8.35-7.42-8.73-13.95-19.57-22.35-42.94-2.1-5.83-2.85-11.82-1.38-17.42 1-3.8 2.98-7.27 6.02-10.26a28 28 0 0 1-1.8-2.46l-58.3 7.38a57 57 0 0 1 2.37 13.48q.12 2.13.11 4.18.22.55.21 1.16h-.22.22v.33l-.04.82c-.03.7-.1 1.73-.23 3.01a94 94 0 0 1-2.56 14.2 80 80 0 0 1 5.8.77l.75.12.2.03.06.01h.01a3.2 3.2 0 0 1 2.67 3.16v5.51a24 24 0 0 1 12.36 3.7c4.15 2.56 7.37 6.17 8.63 9.38a26 26 0 0 1 1.46 11.88v.9c0 2.4-.63 4.63-1.62 6.63a8 8 0 0 1 2.13 1.93 8.5 8.5 0 0 1 1.58 5.19c0 2.81-1.44 5.18-3.16 6.98a24 24 0 0 1-6.44 4.62c-4.77 2.46-10.69 4.08-15.24 4.08-12.36 0-25.86-2.2-51.03-11.64-6.24-2.34-11.67-5.89-15.22-10.97-3.6-5.15-5.07-11.56-3.87-19.15.62-3.95 3.92-7.02 7.46-8.84a21 21 0 0 1 3.59-1.44c.99-2.98 2.35-6.3 3.8-9.1 1.23-2.4 2.75-4.85 4.43-6.33a6 6 0 0 1 3.83-1.66q1.07.01 1.9.41a89 89 0 0 0 2.78-12.93 74 74 0 0 0 .42-3.54v-.04a3.2 3.2 0 0 1 1.39-2.42q.1-1.93.04-3.8a16 16 0 0 0-1.64-6.43l-6.82.86a9.6 9.6 0 0 1-7.36-2.15l-16.04-13.37a43 43 0 0 1-2.32 3.95c-5.42 8.2-13.08 13.57-21.72 16.88q-1.99.76-3.93 1.38-.46.38-1.05.56l-.06-.21.06.2v.01h-.03l-.06.03-.22.06-.79.22q-1.04.28-2.94.7a94 94 0 0 1-10.43 1.6c.36 1.4.69 3.03.94 4.36a120 120 0 0 1 .55 3.2l.03.2v.06l.01.01a3.2 3.2 0 0 1-2.15 3.53l-5.23 1.74c1.45 4.5 1.31 9.03.4 12.9-1.12 4.75-3.52 8.94-6.17 11.15a26 26 0 0 1-10.81 5.14l-.85.3c-2.28.76-4.6.86-6.8.55q-.32 1.37-1.16 2.63a8.5 8.5 0 0 1-4.42 3.14c-2.67.89-5.37.27-7.63-.79a24 24 0 0 1-6.41-4.65c-3.85-3.75-7.26-8.85-8.7-13.16-3.9-11.73-6.09-25.23-5.1-52.1.26-6.66 1.9-12.93 5.6-17.9 3.49-4.7 8.6-8 15.4-9.45l-.47-2.29q-.4.13-.77.22c-2.36.58-4.5.31-6.3-.28a16 16 0 0 1-4.18-2.2c-.5-.35-.95-.7-1.22-.9l-.27-.2a6 6 0 0 1-1-.65q-.42-.34-.89-.79-.97-.9-2.17-2.31a32 32 0 0 1-4.7-7.28c-1.3-2.87-2.2-6.36-1.49-9.92.74-3.71 3.13-6.98 7.37-9.44a42 42 0 0 1 18.4-5.78 44 44 0 0 1 3-1.67l-1.35-1.12c-6.42-5.35-3.44-15.77 4.83-16.92l4.8-.67 11.36-62.3-7.07-5.57a7.22 7.22 0 0 1 .8-11.88L196.78 169a7.2 7.2 0 0 1 7.95.4l64.53 47.54a7 7 0 0 1 1.93-2.24l2.08-1.62.87-4.75a7 7 0 0 1 1.61-3.41 7 7 0 0 1 4.84-3.37l1.48-.28v-3.42c-1.11.23-2.38.47-3.72.62-3.32.37-7.61.34-11.3-1.84-4.4-2.6-5-7.19-4.5-10.76l.07-.51-.5.1c-4.21.72-8.97-.44-13.37-4.84a12.5 12.5 0 0 1-3.87-8.06c-.16-2.37.4-4.6 1.24-6.53-4.5.92-10.22 1.03-14.73-2.43a13.4 13.4 0 0 1-5.3-9.64 26 26 0 0 1-2.16 1.3 17 17 0 0 1-8.58 2.21c-3.3-.15-6.53-1.56-9.34-4.6-2.62-2.85-4.05-5.84-4.4-8.88-.35-3.03.41-5.8 1.65-8.13a23 23 0 0 1 7.1-7.74c-3.44-7.1-3.22-12.94-.55-17.43a17 17 0 0 1 7.83-6.68c-2.7-6.43-3.05-12.7-.89-18 2.58-6.32 8.43-10.51 16.25-11.82 4.66-.77 10.43.38 15.32 3.84a22 22 0 0 1 9.74-3c4.18-.2 8.67.96 12.73 4.46.86-1.14 1.88-2.3 3.12-3.26 2.7-2.1 6.22-3.23 11.36-3.23"/></mask><path fill="#fff" d="M285.27 73c4.94 0 9.13.8 12.41 3.18 3.34 2.4 5.23 6.05 6.4 10.54 1.4 5.36-.51 9.91-2.84 13.2-.77 1.1-1.63 2.1-2.47 2.99q1.2.6 2.37 1.44c3.04 2.22 5.85 5.98 5.16 11.42-.44 3.4-2.7 5.73-5 7.26l-.25.15c2.56.84 5.15 2.13 7.31 4.14 2.82 2.63 4.72 6.3 5.1 11.17.34 4.57-.39 8.2-1.86 11.02a14 14 0 0 1-3.46 4.32c2.87 2.67 4.8 7.31 5.31 14.84.42 5.98-1.69 10.37-4.68 13.43q1.39.55 2.66 1.42l35.86-27.79a7.2 7.2 0 0 1 7.94-.6l73.17 40.8.58-10.91q.14-2.05 1.18-3.59a7 7 0 0 1 4.37-3.95l15.28-5a7.2 7.2 0 0 1 6.39.96l11.53 8.1a7 7 0 0 1 3.06 5.6q.11.52.13 1.06l1.64 35.31 42.3 36.42a3.2 3.2 0 0 1-4.2 4.86l-17.79-15.33-.94 11.88q-.05.55-.17 1.07L487.64 331l9.82 5.98c7.27 4.42 5.64 15.4-2.6 17.53l-46.19 11.9c2.95 4.66 5.1 9.6 6.53 14.47q.6 2.05 1.06 4.04.33.5.47 1.1l-.22.04.22-.05v.03l.02.07.05.22.15.8q.2 1.06.46 3a94 94 0 0 1 .75 14.4 80 80 0 0 1 5.82-.57l.75-.06.2-.01h.08a3.2 3.2 0 0 1 3.32 2.47l1.25 5.36a24 24 0 0 1 12.88.78c4.63 1.55 8.59 4.33 10.54 7.17 2.3 3.33 3.61 7.4 4.13 11.24l.22.87c.54 2.34.43 4.66-.08 6.83q1.34.43 2.5 1.4a8.5 8.5 0 0 1 2.73 4.68c.64 2.74-.22 5.37-1.48 7.52a24 24 0 0 1-5.22 5.96c-4.09 3.49-9.47 6.41-13.9 7.45-12.04 2.82-25.69 3.75-52.35.3-6.61-.86-12.7-3.08-17.32-7.22-4.68-4.19-7.57-10.1-8.14-17.76-.3-4 2.22-7.74 5.26-10.31q1.43-1.21 3.16-2.22c.29-3.13.86-6.67 1.63-9.72.66-2.62 1.58-5.35 2.87-7.18a6 6 0 0 1 3.35-2.48 4.5 4.5 0 0 1 1.95-.04 90 90 0 0 0-.62-16.6l-.02-.17-.01-.03a3.2 3.2 0 0 1 .8-2.68q-.34-1.9-.82-3.7c-1.06-3.98-3.9-7.5-7.83-10.42l-23.73 6.12c-1.9 8.76-6.59 15.9-12.78 21.66q-1.43 1.32-2.87 2.52a3 3 0 0 1-.74.86l-.13-.16.13.16-.02.02q-.02 0-.05.04l-.17.13-.6.46q-.8.6-2.3 1.62c-1.9 1.29-4.65 3-8.15 4.84a65 65 0 0 1 2.15 3.2 109 109 0 0 1 1.57 2.55l.1.16.04.06a3.2 3.2 0 0 1-.69 4.08l-3.69 3.13a22.5 22.5 0 0 1 4.69 10.85c.68 4.49.06 8.96-1.48 11.83a24.5 24.5 0 0 1-7.54 8.19l-.63.55a14 14 0 0 1-5.53 2.81q.17 1.21-.12 2.52a8 8 0 0 1-2.78 4.35c-2.05 1.73-4.65 2.14-6.98 2a23 23 0 0 1-7.17-1.79c-4.62-1.9-9.32-5.1-12.07-8.35-7.42-8.73-13.95-19.57-22.35-42.94-2.1-5.83-2.85-11.82-1.38-17.42 1-3.8 2.98-7.27 6.02-10.26a28 28 0 0 1-1.8-2.46l-58.3 7.38a57 57 0 0 1 2.37 13.48q.12 2.13.11 4.18.22.55.21 1.16h-.22.22v.33l-.04.82c-.03.7-.1 1.73-.23 3.01a94 94 0 0 1-2.56 14.2 80 80 0 0 1 5.8.77l.75.12.2.03.06.01h.01a3.2 3.2 0 0 1 2.67 3.16v5.51a24 24 0 0 1 12.36 3.7c4.15 2.56 7.37 6.17 8.63 9.38a26 26 0 0 1 1.46 11.88v.9c0 2.4-.63 4.63-1.62 6.63a8 8 0 0 1 2.13 1.93 8.5 8.5 0 0 1 1.58 5.19c0 2.81-1.44 5.18-3.16 6.98a24 24 0 0 1-6.44 4.62c-4.77 2.46-10.69 4.08-15.24 4.08-12.36 0-25.86-2.2-51.03-11.64-6.24-2.34-11.67-5.89-15.22-10.97-3.6-5.15-5.07-11.56-3.87-19.15.62-3.95 3.92-7.02 7.46-8.84a21 21 0 0 1 3.59-1.44c.99-2.98 2.35-6.3 3.8-9.1 1.23-2.4 2.75-4.85 4.43-6.33a6 6 0 0 1 3.83-1.66q1.07.01 1.9.41a89 89 0 0 0 2.78-12.93 74 74 0 0 0 .42-3.54v-.04a3.2 3.2 0 0 1 1.39-2.42q.1-1.93.04-3.8a16 16 0 0 0-1.64-6.43l-6.82.86a9.6 9.6 0 0 1-7.36-2.15l-16.04-13.37a43 43 0 0 1-2.32 3.95c-5.42 8.2-13.08 13.57-21.72 16.88q-1.99.76-3.93 1.38-.46.38-1.05.56l-.06-.21.06.2v.01h-.03l-.06.03-.22.06-.79.22q-1.04.28-2.94.7a94 94 0 0 1-10.43 1.6c.36 1.4.69 3.03.94 4.36a120 120 0 0 1 .55 3.2l.03.2v.06l.01.01a3.2 3.2 0 0 1-2.15 3.53l-5.23 1.74c1.45 4.5 1.31 9.03.4 12.9-1.12 4.75-3.52 8.94-6.17 11.15a26 26 0 0 1-10.81 5.14l-.85.3c-2.28.76-4.6.86-6.8.55q-.32 1.37-1.16 2.63a8.5 8.5 0 0 1-4.42 3.14c-2.67.89-5.37.27-7.63-.79a24 24 0 0 1-6.41-4.65c-3.85-3.75-7.26-8.85-8.7-13.16-3.9-11.73-6.09-25.23-5.1-52.1.26-6.66 1.9-12.93 5.6-17.9 3.49-4.7 8.6-8 15.4-9.45l-.47-2.29q-.4.13-.77.22c-2.36.58-4.5.31-6.3-.28a16 16 0 0 1-4.18-2.2c-.5-.35-.95-.7-1.22-.9l-.27-.2a6 6 0 0 1-1-.65q-.42-.34-.89-.79-.97-.9-2.17-2.31a32 32 0 0 1-4.7-7.28c-1.3-2.87-2.2-6.36-1.49-9.92.74-3.71 3.13-6.98 7.37-9.44a42 42 0 0 1 18.4-5.78 44 44 0 0 1 3-1.67l-1.35-1.12c-6.42-5.35-3.44-15.77 4.83-16.92l4.8-.67 11.36-62.3-7.07-5.57a7.22 7.22 0 0 1 .8-11.88L196.78 169a7.2 7.2 0 0 1 7.95.4l64.53 47.54a7 7 0 0 1 1.93-2.24l2.08-1.62.87-4.75a7 7 0 0 1 1.61-3.41 7 7 0 0 1 4.84-3.37l1.48-.28v-3.42c-1.11.23-2.38.47-3.72.62-3.32.37-7.61.34-11.3-1.84-4.4-2.6-5-7.19-4.5-10.76l.07-.51-.5.1c-4.21.72-8.97-.44-13.37-4.84a12.5 12.5 0 0 1-3.87-8.06c-.16-2.37.4-4.6 1.24-6.53-4.5.92-10.22 1.03-14.73-2.43a13.4 13.4 0 0 1-5.3-9.64 26 26 0 0 1-2.16 1.3 17 17 0 0 1-8.58 2.21c-3.3-.15-6.53-1.56-9.34-4.6-2.62-2.85-4.05-5.84-4.4-8.88-.35-3.03.41-5.8 1.65-8.13a23 23 0 0 1 7.1-7.74c-3.44-7.1-3.22-12.94-.55-17.43a17 17 0 0 1 7.83-6.68c-2.7-6.43-3.05-12.7-.89-18 2.58-6.32 8.43-10.51 16.25-11.82 4.66-.77 10.43.38 15.32 3.84a22 22 0 0 1 9.74-3c4.18-.2 8.67.96 12.73 4.46.86-1.14 1.88-2.3 3.12-3.26 2.7-2.1 6.22-3.23 11.36-3.23"/><path stroke="#fff" stroke-linecap="round" stroke-linejoin="round" stroke-width="34" d="M285.27 73c4.94 0 9.13.8 12.41 3.18 3.34 2.4 5.23 6.05 6.4 10.54 1.4 5.36-.51 9.91-2.84 13.2-.77 1.1-1.63 2.1-2.47 2.99q1.2.6 2.37 1.44c3.04 2.22 5.85 5.98 5.16 11.42-.44 3.4-2.7 5.73-5 7.26l-.25.15c2.56.84 5.15 2.13 7.31 4.14 2.82 2.63 4.72 6.3 5.1 11.17.34 4.57-.39 8.2-1.86 11.02a14 14 0 0 1-3.46 4.32c2.87 2.67 4.8 7.31 5.31 14.84.42 5.98-1.69 10.37-4.68 13.43q1.39.55 2.66 1.42l35.86-27.79a7.2 7.2 0 0 1 7.94-.6l73.17 40.8.58-10.91q.14-2.05 1.18-3.59a7 7 0 0 1 4.37-3.95l15.28-5a7.2 7.2 0 0 1 6.39.96l11.53 8.1a7 7 0 0 1 3.06 5.6q.11.52.13 1.06l1.64 35.31 42.3 36.42a3.2 3.2 0 0 1-4.2 4.86l-17.79-15.33-.94 11.88q-.05.55-.17 1.07L487.64 331l9.82 5.98c7.27 4.42 5.64 15.4-2.6 17.53l-46.19 11.9c2.95 4.66 5.1 9.6 6.53 14.47q.6 2.05 1.06 4.04.33.5.47 1.1l-.22.04v0l.22-.05h0v.03l.02.07.05.22.15.8q.2 1.06.46 3a94 94 0 0 1 .75 14.4 80 80 0 0 1 5.82-.57l.75-.06.2-.01h.08q0 0 0 0h0a3.2 3.2 0 0 1 3.32 2.47l1.25 5.36a24 24 0 0 1 12.88.78c4.63 1.55 8.59 4.33 10.54 7.17 2.3 3.33 3.61 7.4 4.13 11.24l.22.87c.54 2.34.43 4.66-.08 6.83q1.34.43 2.5 1.4a8.5 8.5 0 0 1 2.73 4.68c.64 2.74-.22 5.37-1.48 7.52a24 24 0 0 1-5.22 5.96c-4.09 3.49-9.47 6.41-13.9 7.45-12.04 2.82-25.69 3.75-52.35.3-6.61-.86-12.7-3.08-17.32-7.22-4.68-4.19-7.57-10.1-8.14-17.76-.3-4 2.22-7.74 5.26-10.31q1.43-1.21 3.16-2.22c.29-3.13.86-6.67 1.63-9.72.66-2.62 1.58-5.35 2.87-7.18a6 6 0 0 1 3.35-2.48 4.5 4.5 0 0 1 1.95-.04 90 90 0 0 0-.62-16.6l-.02-.17-.01-.03h0a3.2 3.2 0 0 1 .8-2.68q-.34-1.9-.82-3.7c-1.06-3.98-3.9-7.5-7.83-10.42l-23.73 6.12c-1.9 8.76-6.59 15.9-12.78 21.66q-1.43 1.32-2.87 2.52a3 3 0 0 1-.74.86l-.13-.16h0l.13.16h0l-.02.02q-.02 0-.05.04l-.17.13-.6.46q-.8.6-2.3 1.62c-1.9 1.29-4.65 3-8.15 4.84a65 65 0 0 1 2.15 3.2 109 109 0 0 1 1.57 2.55l.1.16.04.06q0 0 0 0h0a3.2 3.2 0 0 1-.69 4.08l-3.69 3.13a22.5 22.5 0 0 1 4.69 10.85c.68 4.49.06 8.96-1.48 11.83a24.5 24.5 0 0 1-7.54 8.19l-.63.55a14 14 0 0 1-5.53 2.81q.17 1.21-.12 2.52a8 8 0 0 1-2.78 4.35c-2.05 1.73-4.65 2.14-6.98 2a23 23 0 0 1-7.17-1.79c-4.62-1.9-9.32-5.1-12.07-8.35-7.42-8.73-13.95-19.57-22.35-42.94-2.1-5.83-2.85-11.82-1.38-17.42 1-3.8 2.98-7.27 6.02-10.26a28 28 0 0 1-1.8-2.46l-58.3 7.38a57 57 0 0 1 2.37 13.48q.12 2.13.11 4.18.22.55.21 1.16h-.22v0h.22v.33l-.04.82c-.03.7-.1 1.73-.23 3.01a94 94 0 0 1-2.56 14.2 80 80 0 0 1 5.8.77l.75.12.2.03.06.01h.01q0 0 0 0h0a3.2 3.2 0 0 1 2.67 3.16v5.51a24 24 0 0 1 12.36 3.7c4.15 2.56 7.37 6.17 8.63 9.38a26 26 0 0 1 1.46 11.88v.9c0 2.4-.63 4.63-1.62 6.63a8 8 0 0 1 2.13 1.93 8.5 8.5 0 0 1 1.58 5.19c0 2.81-1.44 5.18-3.16 6.98a24 24 0 0 1-6.44 4.62c-4.77 2.46-10.69 4.08-15.24 4.08-12.36 0-25.86-2.2-51.03-11.64-6.24-2.34-11.67-5.89-15.22-10.97-3.6-5.15-5.07-11.56-3.87-19.15.62-3.95 3.92-7.02 7.46-8.84a21 21 0 0 1 3.59-1.44c.99-2.98 2.35-6.3 3.8-9.1 1.23-2.4 2.75-4.85 4.43-6.33a6 6 0 0 1 3.83-1.66q1.07.01 1.9.41a89 89 0 0 0 2.78-12.93 74 74 0 0 0 .42-3.54v-.04h0a3.2 3.2 0 0 1 1.39-2.42q.1-1.93.04-3.8a16 16 0 0 0-1.64-6.43l-6.82.86a9.6 9.6 0 0 1-7.36-2.15l-16.04-13.37a43 43 0 0 1-2.32 3.95c-5.42 8.2-13.08 13.57-21.72 16.88q-1.99.76-3.93 1.38-.46.38-1.05.56l-.06-.21q0 0 0 0l.06.2h0v.01h-.03l-.06.03-.22.06-.79.22q-1.04.28-2.94.7a94 94 0 0 1-10.43 1.6c.36 1.4.69 3.03.94 4.36a120 120 0 0 1 .55 3.2l.03.2v.06l.01.01q0 0 0 0h0a3.2 3.2 0 0 1-2.15 3.53l-5.23 1.74c1.45 4.5 1.31 9.03.4 12.9-1.12 4.75-3.52 8.94-6.17 11.15a26 26 0 0 1-10.81 5.14l-.85.3c-2.28.76-4.6.86-6.8.55q-.32 1.37-1.16 2.63a8.5 8.5 0 0 1-4.42 3.14c-2.67.89-5.37.27-7.63-.79a24 24 0 0 1-6.41-4.65c-3.85-3.75-7.26-8.85-8.7-13.16-3.9-11.73-6.09-25.23-5.1-52.1.26-6.66 1.9-12.93 5.6-17.9 3.49-4.7 8.6-8 15.4-9.45l-.47-2.29q-.4.13-.77.22c-2.36.58-4.5.31-6.3-.28a16 16 0 0 1-4.18-2.2c-.5-.35-.95-.7-1.22-.9l-.27-.2a6 6 0 0 1-1-.65q-.42-.34-.89-.79-.97-.9-2.17-2.31a32 32 0 0 1-4.7-7.28c-1.3-2.87-2.2-6.36-1.49-9.92.74-3.71 3.13-6.98 7.37-9.44a42 42 0 0 1 18.4-5.78 44 44 0 0 1 3-1.67l-1.35-1.12c-6.42-5.35-3.44-15.77 4.83-16.92l4.8-.67 11.36-62.3-7.07-5.57a7.22 7.22 0 0 1 .8-11.88L196.78 169a7.2 7.2 0 0 1 7.95.4l64.53 47.54a7 7 0 0 1 1.93-2.24l2.08-1.62.87-4.75a7 7 0 0 1 1.61-3.41 7 7 0 0 1 4.84-3.37l1.48-.28v-3.42c-1.11.23-2.38.47-3.72.62-3.32.37-7.61.34-11.3-1.84-4.4-2.6-5-7.19-4.5-10.76l.07-.51-.5.1c-4.21.72-8.97-.44-13.37-4.84a12.5 12.5 0 0 1-3.87-8.06c-.16-2.37.4-4.6 1.24-6.53-4.5.92-10.22 1.03-14.73-2.43a13.4 13.4 0 0 1-5.3-9.64 26 26 0 0 1-2.16 1.3 17 17 0 0 1-8.58 2.21c-3.3-.15-6.53-1.56-9.34-4.6-2.62-2.85-4.05-5.84-4.4-8.88-.35-3.03.41-5.8 1.65-8.13a23 23 0 0 1 7.1-7.74c-3.44-7.1-3.22-12.94-.55-17.43a17 17 0 0 1 7.83-6.68c-2.7-6.43-3.05-12.7-.89-18 2.58-6.32 8.43-10.51 16.25-11.82 4.66-.77 10.43.38 15.32 3.84a22 22 0 0 1 9.74-3c4.18-.2 8.67.96 12.73 4.46.86-1.14 1.88-2.3 3.12-3.26 2.7-2.1 6.22-3.23 11.36-3.23" mask="url(#crests-data-warehouse-path-1-outside-1_23_11277)"/></g><path fill="#984b19" stroke="#713a16" stroke-linecap="round" stroke-linejoin="round" stroke-width="7.93" d="m448.3 192.94 13.1-1.31a4.96 4.96 0 0 0 2.37-8.99l-9.06-6.36a5 5 0 0 0-4.39-.66l-12.44 4.07a4.96 4.96 0 0 0-.42 9.26l8.4 3.61c.76.33 1.6.46 2.44.38"/><path fill="#ed8440" stroke="#713a16" stroke-linecap="round" stroke-linejoin="round" stroke-width="7.93" d="m447.86 187.55-8.33-4.88a4.96 4.96 0 0 0-7.45 4.01l-1.13 21.12a5 5 0 0 0 2.76 4.71l10.52 5.18a4.96 4.96 0 0 0 7.14-4.7l-1.06-21.41a5 5 0 0 0-2.45-4.03"/><path fill="#ffe4ba" stroke="#713a16" stroke-linecap="round" stroke-linejoin="round" stroke-width="7.93" d="m453.7 187.69 7.49-2.59a4.96 4.96 0 0 1 6.56 4.46l1.63 34.94a4.96 4.96 0 0 1-7.94 4.19l-7.8-5.9a5 5 0 0 1-1.97-3.7l-1.31-26.47a5 5 0 0 1 3.33-4.93"/><path fill="#ffcf85" stroke="#896936" stroke-linecap="round" stroke-linejoin="round" stroke-width="7.93" d="M424.7 384.91c-4.09-15.35-28.72-22.8-40.7-20.85-26.78-.98-3.74-20.1 22.82-18.37 26.57 1.75 40.37 19.29 45.27 36.02 7.51 25.65-2.23 42.8-15.45 46.32-13.22 3.51-6.82-23.92-11.94-43.12"/><path fill="#fff" stroke="#525252" stroke-linecap="round" stroke-linejoin="round" stroke-width="7.93" d="M453.56 386.64c-12.44 11.34-24.36 8.03-28.77 4.96 0 0 3.6 22.62-4.24 39.5-7.84 16.9 20.32 29.82 29.13 3.63s3.88-48.1 3.88-48.1"/><path fill="#fff" stroke="#731e1f" stroke-linecap="round" stroke-linejoin="round" stroke-width="7.93" d="M499.34 445.35c-2.51-10.74-21.44 2.6-32.98 6l-.13.02c-15.58 1.27-20.84 1.7-22.96-.15-8.4-35.85-36.76-20.65-36.01-10.59 1.02 13.86 10.29 20.43 22.66 22.03 26.44 3.43 39.67 2.47 51.2-.23 7.67-1.8 19.75-10.56 18.22-17.08"/><path fill="#ed8184" d="m447.73 410.03 8.5-2c2.84-.66 8.95-1.02 8.95-1.02l2.03 8.7c9.95-4.03 20.2 1.47 23.12 5.7 4.05 5.88 4.77 14.9 2.68 19.66s-8.62 11.2-15.78 12.88c-9.72 2.28-27.02 2.27-43.68-.45-16.65-2.73-17.35-12-18.01-19.5-.54-6.08 2.62-25.76 7.18-21.32 10.24 9.99 20.8 8.58 23.64 7.92s-.66-10.1 1.37-10.57"/><path stroke="#731e1f" stroke-linecap="round" stroke-linejoin="round" stroke-width="7.93" d="M467.21 415.72c9.95-4.04 20.2 1.46 23.12 5.7 4.05 5.87 4.77 14.9 2.68 19.65-2.09 4.77-8.62 11.2-15.78 12.88-9.72 2.28-27.02 2.27-43.68-.45-16.65-2.73-17.35-12-18.01-19.5-.54-6.08 2.62-25.76 7.18-21.32 10.24 9.99 20.8 8.58 23.64 7.92s-.66-10.1 1.37-10.57l8.5-2c2.84-.66 8.95-1.02 8.95-1.02zm0 0c-2.15 1.14-7.1 3.75-9.7 5.05"/><path fill="#c74a4e" stroke="#731e1f" stroke-linecap="round" stroke-linejoin="round" stroke-width="7.93" d="M464.54 455.42c-8.6-24.3 13.6-34.08 23.49-35.62a31 31 0 0 1 6.16 12.64c1.48 6.35-3.3 13.27-7.5 16.3-8.42 6.04-18.39 6.93-22.15 6.68m-48.6-28.35c8.47 1.22 23.86 8.38 19.43 25.99-7.63 1.14-21.84-2.7-19.43-26"/><path fill="#ffcf85" stroke="#896936" stroke-linecap="round" stroke-linejoin="round" stroke-width="7.93" d="M361.13 379.44c10.99-9.72.63-30.33-5.92-39.42-10.23-22.52 18.17-11.44 27.69 11.22s3.96 38.55-7.83 49.5c-18.09 16.78-36.27 15.81-44.63 6.34s16.95-15.5 30.69-27.64"/><path fill="#fff" stroke="#525252" stroke-linecap="round" stroke-linejoin="round" stroke-width="7.93" d="M371.62 403.98c-14.5-5.6-16.69-16.8-15.97-21.72 0 0-17.2 12.31-34.38 12.8s-16.24 29.09 9.03 25.55 41.32-16.63 41.32-16.63"/><path fill="#fff" stroke="#731e1f" stroke-linecap="round" stroke-linejoin="round" stroke-width="7.93" d="M346.36 465.41c7.77-6.59-11.17-16.52-18.83-24.55l-.06-.1c-7.62-12.27-10.18-16.4-9.56-18.93 25.9-22 1.47-38.9-6.48-34.04-10.95 6.68-12.44 17.06-8.54 27.9 8.32 23.15 14.69 33.62 21.77 41.96 4.7 5.53 17 11.76 21.7 7.76"/><path fill="#ed8184" d="m353.61 408.12 5.22 6.15c1.74 2.05 4.61 6.91 4.61 6.91l-6.29 5.35c7.5 6.47 7.31 17.21 5.06 21.39-3.12 5.8-10.22 10.2-15.02 10.48-4.79.3-12.83-2.36-17.22-7.53-5.97-7.03-13.25-21.24-18.03-36.07s2.54-19.31 8.41-23.01c4.77-3 22.28-8.7 20.55-3.1-3.89 12.63 1.71 20.71 3.45 22.76s8.02-4.79 9.26-3.33"/><path stroke="#731e1f" stroke-linecap="round" stroke-linejoin="round" stroke-width="7.93" d="M357.15 426.53c7.5 6.47 7.31 17.21 5.06 21.39-3.12 5.8-10.22 10.2-15.02 10.48-4.79.3-12.83-2.36-17.22-7.53-5.97-7.03-13.25-21.24-18.03-36.07s2.54-19.31 8.41-23.01c4.77-3 22.28-8.7 20.55-3.1-3.89 12.63 1.71 20.71 3.45 22.76s8.02-4.79 9.26-3.33l5.22 6.15c1.74 2.05 4.61 6.91 4.61 6.91zm0 0a489 489 0 0 1-8.24-5.85"/><path fill="#c74a4e" stroke="#731e1f" stroke-linecap="round" stroke-linejoin="round" stroke-width="7.93" d="M323.43 441.07c16.34-17.3 33.72-3.2 39.14 4.28a28.5 28.5 0 0 1-7.78 10.39c-4.59 3.9-12.29 2.88-16.55.7-8.5-4.36-13.44-12.17-14.81-15.37m3.99-51.8c2.56 7.47 1.97 23.06-14.35 26.85-4.16-5.8-5.8-19.02 14.35-26.86"/><path fill="#ed8440" stroke="#885128" stroke-linecap="round" stroke-linejoin="round" stroke-width="7.93" d="M377.55 378.73 273.4 312.2a7.93 7.93 0 0 1 2.2-14.33l101.42-27.51a8 8 0 0 1 6.2.87l109.46 66.56a7.93 7.93 0 0 1-2.14 14.45l-106.75 27.5a8 8 0 0 1-6.24-1"/><path fill="#ffcf85" stroke="#000" stroke-linecap="round" stroke-linejoin="round" stroke-width="7.93" d="m379.19 366.2-97.83-61.78a5 5 0 0 1-2.3-4.46l3.8-70.34a4.96 4.96 0 0 1 7.3-4.1l94.9 51.18a5 5 0 0 1 2.6 4.42l-.87 80.95a4.96 4.96 0 0 1-7.6 4.13"/><path fill="#b36430" stroke="#5f3012" stroke-linecap="round" stroke-linejoin="round" stroke-width="7.93" d="m463.23 219.69 25 21.6a5 5 0 0 1 1.7 4.14l-1.17 14.83a4.96 4.96 0 0 1-4.24 4.52L383 279.25c-5.25.75-7.85-6.15-3.42-9.05l77.68-50.91a4.95 4.95 0 0 1 5.96.4"/><path fill="#ffe4ba" stroke="#5f3012" stroke-linecap="round" stroke-linejoin="round" stroke-width="7.93" d="m385.7 367.16 94.37-22.74a5 5 0 0 0 3.78-4.52l5.08-84.47a2.97 2.97 0 0 0-3.5-3.1l-93.8 16.76c-2.2.4-3.87 2.2-4.07 4.43l-7.96 88.38a4.96 4.96 0 0 0 6.1 5.26"/><path fill="#eda840" d="m274.2 216.32 74.52-57.73a5 5 0 0 1 5.45-.41l106.78 59.54-80.85 66.24a5 5 0 0 1-5.7.42l-99.71-59.89a4.96 4.96 0 0 1-.49-8.17"/><path stroke="#8f621e" stroke-linecap="round" stroke-linejoin="round" stroke-width="7.93" d="m460.95 217.72-80.85 66.24a5 5 0 0 1-5.7.42l-99.71-59.89a4.96 4.96 0 0 1-.49-8.17l74.52-57.73a5 5 0 0 1 5.45-.41zm0 0 51.77 44.58"/><path fill="#000" stroke="#000" stroke-width="7.93" d="M406.17 297.32c-2.53.02-5.44 1.71-7.9 5.76-2.44 3.98-4.05 9.73-4.01 16.27.03 6.54 1.71 12.27 4.19 16.22 2.5 4.02 5.44 5.69 7.97 5.67 2.54-.01 5.45-1.7 7.91-5.75 2.43-3.99 4.04-9.73 4-16.28-.03-6.54-1.7-12.26-4.18-16.22-2.51-4.02-5.44-5.68-7.98-5.67Z"/><path fill="#fff" d="M405.84 293.37c.76.87 1.22 2 1.23 3.24l.07 13.2a5 5 0 0 1-1.5 3.59l-4.25 4.14c-1.94 1.9-2 5-.13 6.96l4.07 4.29a5 5 0 0 1 1.36 3.38l.05 10.05a5 5 0 0 1-.96 2.97l.66.02c8.84-.05 15.94-11.7 15.86-26.01s-7.31-25.89-16.15-25.84z"/><path stroke="#000" stroke-width="7.93" d="M406.17 297.32c-2.53.02-5.44 1.71-7.9 5.76-2.44 3.98-4.05 9.73-4.01 16.27.03 6.54 1.71 12.27 4.19 16.22 2.5 4.02 5.44 5.69 7.97 5.67 2.54-.01 5.45-1.7 7.91-5.75 2.43-3.99 4.04-9.73 4-16.28-.03-6.54-1.7-12.26-4.18-16.22-2.51-4.02-5.44-5.68-7.98-5.67Z"/><ellipse cx="3.49" cy="3.99" fill="#fff" rx="3.49" ry="3.99" transform="rotate(179.68 201.52 151.88)scale(1 -1)"/><path fill="#000" stroke="#000" stroke-width="7.93" d="M468 285.16c-2.54.02-5.45 1.71-7.92 5.76-2.43 3.98-4.04 9.73-4 16.27s1.71 12.27 4.19 16.22c2.5 4.02 5.44 5.69 7.97 5.67 2.54-.01 5.45-1.7 7.91-5.75 2.43-3.99 4.05-9.73 4-16.28-.03-6.54-1.7-12.26-4.18-16.22-2.51-4.02-5.44-5.68-7.98-5.67Z"/><path fill="#fff" d="M467.66 281.21a5 5 0 0 1 1.22 3.24l.07 13.2a5 5 0 0 1-1.5 3.59l-4.24 4.14c-1.94 1.89-2 5-.14 6.96l4.07 4.29a5 5 0 0 1 1.36 3.38l.06 10.05a5 5 0 0 1-.97 2.97q.33.03.66.02c8.84-.05 15.94-11.7 15.86-26.01s-7.3-25.89-16.15-25.84z"/><path stroke="#000" stroke-width="7.93" d="M468 285.16c-2.54.02-5.45 1.71-7.92 5.76-2.43 3.98-4.04 9.73-4 16.27s1.71 12.27 4.19 16.22c2.5 4.02 5.44 5.69 7.97 5.67 2.54-.01 5.45-1.7 7.91-5.75 2.43-3.99 4.05-9.73 4-16.28-.03-6.54-1.7-12.26-4.18-16.22-2.51-4.02-5.44-5.68-7.98-5.67Z"/><ellipse cx="3.49" cy="3.99" fill="#fff" rx="3.49" ry="3.99" transform="rotate(179.68 232.45 145.9)scale(1 -1)"/><path stroke="#5f3012" stroke-linecap="round" stroke-linejoin="round" stroke-width="7.93" d="M409.62 279.6c-3.7.11-11.53 1.37-13.36 5.46m66.47-14.72c2.27-1.96 7.88-5.02 12.18-1.55"/><path fill="#5f3012" stroke="#5f3012" stroke-linecap="round" stroke-linejoin="round" stroke-width="7.93" d="m427.2 323-4 32.43 24.47-5.41 2.06-31.7c-10.3 9.95-16.8 7.44-22.53 4.67"/><circle cx="442.58" cy="331.9" r="3.64" fill="#fff" transform="rotate(-7.23 442.58 331.9)"/><path fill="#b55a1f" stroke="#713a16" stroke-linecap="round" stroke-linejoin="round" stroke-width="7.93" d="m292.3 218.63 13.17.35a4.96 4.96 0 0 0 3.47-8.62l-8.18-7.45a5 5 0 0 0-4.27-1.2l-12.86 2.46a4.96 4.96 0 0 0-1.58 9.14l7.87 4.63q1.1.65 2.38.69"/><path fill="#ed8440" stroke="#713a16" stroke-linecap="round" stroke-linejoin="round" stroke-width="7.93" d="m292.54 213.22-7.66-5.89a4.96 4.96 0 0 0-7.9 3.04l-3.78 20.81a5 5 0 0 0 2.15 5.03l9.8 6.45a4.96 4.96 0 0 0 7.66-3.75l1.64-21.38a5 5 0 0 0-1.91-4.31"/><path fill="#ffe4ba" stroke="#713a16" stroke-linecap="round" stroke-linejoin="round" stroke-width="7.93" d="m298.3 214.1 7.76-1.63a4.96 4.96 0 0 1 5.96 5.25l-2.79 34.87a4.96 4.96 0 0 1-8.4 3.15l-7-6.83a5 5 0 0 1-1.48-3.92l2.03-26.43a5 5 0 0 1 3.93-4.47"/><path fill="#ffe4ba" stroke="#896936" stroke-linecap="round" stroke-linejoin="round" stroke-width="7.93" d="M216.2 404.56c-.48-15.88-22.77-28.74-34.88-29.57-25.85-7.07.94-20.44 26.41-12.69s34.9 27.98 35.87 45.39c1.47 26.69-11.92 41.17-25.6 41.57-13.68.42-1.19-24.84-1.8-44.7"/><path fill="#fff" stroke="#525252" stroke-linecap="round" stroke-linejoin="round" stroke-width="7.93" d="M243.92 412.83c-14.7 8.2-25.56 2.27-29.15-1.73 0 0-1.65 22.85-13.13 37.5-11.48 14.66 13 33.67 27.54 10.16 14.54-23.5 14.74-45.93 14.74-45.93"/><path fill="#fff" stroke="#1e4373" stroke-linecap="round" stroke-linejoin="round" stroke-width="7.93" d="M275.11 480.42c0-11.03-21.47-2.36-33.48-1.66l-.13-.02c-15.46-2.32-20.68-3.1-22.33-5.38 0-36.82-31.08-28.48-32.65-18.52-2.15 13.73 5.37 22.24 17.06 26.62 24.95 9.36 38.05 11.44 49.9 11.44 7.87 0 21.63-5.78 21.63-12.48"/><path fill="#c1dcff" d="M232.9 434.27h8.73c2.91 0 8.94 1.04 8.94 1.04v8.94c10.6-1.66 19.34 6.03 21.21 10.81 2.6 6.65 1.25 15.6-1.87 19.76s-10.95 8.94-18.3 8.94c-9.98 0-26.83-3.95-42.42-10.4s-14.16-15.64-13.1-23.08c.86-6.05 8.43-24.5 11.85-19.13 7.7 12.06 18.3 13.1 21.21 13.1s1.67-9.98 3.75-9.98"/><path stroke="#1e4373" stroke-linecap="round" stroke-linejoin="round" stroke-width="7.93" d="M250.57 444.25c10.6-1.66 19.34 6.03 21.21 10.81 2.6 6.65 1.25 15.6-1.87 19.76s-10.95 8.94-18.3 8.94c-9.98 0-26.83-3.95-42.42-10.4s-14.16-15.64-13.1-23.08c.86-6.05 8.43-24.5 11.85-19.13 7.7 12.06 18.3 13.1 21.21 13.1s1.67-9.98 3.75-9.98h8.73c2.91 0 8.94 1.04 8.94 1.04zm0 0c-2.35.62-7.78 2.04-10.6 2.7"/><path fill="#fff" stroke="#1e4373" stroke-linecap="round" stroke-linejoin="round" stroke-width="7.93" d="M238.93 482.29c-2.83-25.62 21-30.09 30.99-29.32a31 31 0 0 1 3.12 13.7c0 6.53-6.23 12.18-11.02 14.16-9.57 3.97-19.48 2.57-23.09 1.46m-40.86-38.69c7.97 3.13 21.32 13.61 13 29.75-7.7-.62-20.65-7.61-13-29.74"/><path fill="#ffe4ba" stroke="#896936" stroke-linecap="round" stroke-linejoin="round" stroke-width="7.93" d="M150.55 374.36c14.97-5.33 12.9-30.23 9.98-42.01-1.19-26.77 22.88-4.16 23.29 22.46s-11.58 40.34-27.87 46.58c-24.95 9.57-42.83 1.25-47.41-11.64s23.3-8.74 42-15.4"/><path fill="#fff" stroke="#525252" stroke-linecap="round" stroke-linejoin="round" stroke-width="7.93" d="M151.17 403.26c-12.31-11.48-9.98-23.63-7.28-28.28 0 0-22.25 5.43-39.72-1.02s-28.08 22.67-1.25 29.32c26.83 6.66 48.25-.02 48.25-.02"/><path fill="#fff" stroke="#1e4373" stroke-linecap="round" stroke-linejoin="round" stroke-width="7.93" d="M100.96 454.8c10.47-3.5-4.55-21.12-9-32.3l-.03-.12c-2.7-15.4-3.6-20.6-1.96-22.89 34.93-11.64 17.2-38.5 7.25-36.83-13.71 2.3-19.4 12.12-19.86 24.6-1 26.63 1.18 39.72 4.93 50.96 2.49 7.47 12.32 18.7 18.67 16.58"/><path fill="#c1dcff" d="m131.4 400.16 2.76 8.28c.92 2.76 1.84 8.81 1.84 8.81l-8.48 2.83c4.93 9.54.4 20.25-3.55 23.54-5.49 4.57-14.4 6.12-19.34 4.48-4.93-1.65-11.94-7.56-14.27-14.54-3.16-9.47-4.73-26.7-3.55-43.53s10.36-18.38 17.76-19.73c6-1.1 25.9.25 21.9 5.2-9.01 11.11-6.65 21.5-5.73 24.26s10-1.58 10.66.4"/><path stroke="#1e4373" stroke-linecap="round" stroke-linejoin="round" stroke-width="7.93" d="M127.52 420.08c4.93 9.54.4 20.25-3.55 23.54-5.49 4.57-14.4 6.12-19.34 4.48-4.93-1.65-11.94-7.56-14.27-14.54-3.16-9.47-4.73-26.7-3.55-43.53s10.36-18.38 17.76-19.73c6-1.1 25.9.25 21.9 5.2-9.01 11.11-6.65 21.5-5.73 24.26s10-1.58 10.66.4l2.76 8.28c.92 2.76 1.84 8.81 1.84 8.81zm0 0c-1.34-2.04-4.4-6.73-5.92-9.2"/><path fill="#fff" stroke="#1e4373" stroke-linecap="round" stroke-linejoin="round" stroke-width="7.93" d="M87.75 421.06c23.41-10.78 35.18 10.42 37.62 20.13a31 31 0 0 1-12.02 7.3c-6.19 2.05-13.52-2.07-16.92-5.99-6.79-7.82-8.6-17.67-8.68-21.44m24.94-50.46c-.44 8.56-7.33 23.99-25.27 21.2-1.84-7.5 1.86-21.45 25.27-21.2"/><path fill="#ed8440" stroke="#885128" stroke-linecap="round" stroke-linejoin="round" stroke-width="7.93" d="M198.73 394.04 103.8 314.9a7.93 7.93 0 0 1 3.98-13.94l104.07-14.52c2.16-.3 4.34.3 6.04 1.65l100.22 79.8a7.93 7.93 0 0 1-3.95 14.07L204.8 395.81a8 8 0 0 1-6.07-1.77"/><path fill="#ffcf85" stroke="#5f3012" stroke-linecap="round" stroke-linejoin="round" stroke-width="7.93" d="m201.93 381.8-89.27-73.6a5 5 0 0 1-1.72-4.71l12.63-69.3a4.96 4.96 0 0 1 7.76-3.15l87.7 62.72a5 5 0 0 1 2.02 4.7L210 378.67a4.96 4.96 0 0 1-8.06 3.15"/><path fill="#b36430" stroke="#5f3012" stroke-linecap="round" stroke-linejoin="round" stroke-width="7.93" d="m303.61 246.93 22.13 24.4a5 5 0 0 1 1.18 4.3l-2.98 14.85a4.96 4.96 0 0 1-4.78 3.97l-102.56 1.58c-5.29.08-7-7.08-2.25-9.4l83.41-40.82a5 5 0 0 1 5.85 1.12"/><path fill="#ffe4ba" stroke="#5f3012" stroke-linecap="round" stroke-linejoin="round" stroke-width="7.93" d="m208.26 383.58 96.49-10.68a5 5 0 0 0 4.32-4l15.68-83.16a2.97 2.97 0 0 0-3.08-3.52l-95.18 4.82a4.96 4.96 0 0 0-4.59 3.88l-19.02 86.68a4.95 4.95 0 0 0 5.38 5.98"/><path fill="#eda840" d="m116.65 219.91 81.2-47.9c1.7-1 3.85-.9 5.45.29l98.43 72.5-88.54 55.55a5 5 0 0 1-5.7-.31l-91.39-71.97a4.96 4.96 0 0 1 .55-8.16"/><path stroke="#8f621e" stroke-linecap="round" stroke-linejoin="round" stroke-width="7.93" d="m301.73 244.8-88.54 55.55a5 5 0 0 1-5.7-.31l-91.39-71.97a4.96 4.96 0 0 1 .55-8.16l81.2-47.9c1.7-1 3.85-.9 5.45.29zm0 0 45.76 50.75"/><path fill="#000" stroke="#000" stroke-width="7.93" d="M237.04 312.93c2.52.34 5.19 2.38 7.13 6.7 1.9 4.27 2.78 10.17 1.92 16.66s-3.25 11.95-6.2 15.56c-3 3.67-6.1 4.95-8.62 4.62s-5.19-2.38-7.13-6.7c-1.9-4.26-2.78-10.16-1.92-16.65s3.25-11.96 6.2-15.57c3-3.67 6.1-4.95 8.62-4.62Z"/><path fill="#fff" d="M237.87 309.05a5 5 0 0 0-1.63 3.06l-1.74 13.1a5 5 0 0 0 1.04 3.74l3.7 4.64a4.96 4.96 0 0 1-.75 6.93l-4.57 3.74a5 5 0 0 0-1.78 3.18l-1.32 9.96a5 5 0 0 0 .58 3.07l-.65-.07c-8.76-1.16-14.34-13.6-12.46-27.8s10.51-24.76 19.28-23.6z"/><path stroke="#000" stroke-width="7.93" d="M237.04 312.93c2.52.34 5.19 2.38 7.13 6.7 1.9 4.27 2.78 10.17 1.92 16.66s-3.25 11.95-6.2 15.56c-3 3.67-6.1 4.95-8.62 4.62s-5.19-2.38-7.13-6.7c-1.9-4.26-2.78-10.16-1.92-16.65s3.25-11.96 6.2-15.57c3-3.67 6.1-4.95 8.62-4.62Z"/><ellipse cx="241.56" cy="322.9" fill="#fff" rx="3.49" ry="3.99" transform="rotate(7.56 241.56 322.9)"/><path fill="#000" stroke="#000" stroke-width="7.93" d="M298.53 308.6c2.52.33 5.19 2.38 7.13 6.7 1.9 4.26 2.78 10.16 1.92 16.65s-3.25 11.96-6.2 15.57c-3 3.67-6.11 4.95-8.62 4.62-2.52-.34-5.19-2.38-7.13-6.7-1.9-4.27-2.78-10.17-1.92-16.65.86-6.5 3.24-11.96 6.2-15.57 3-3.67 6.1-4.95 8.62-4.62Z"/><path fill="#fff" d="M299.36 304.72a5 5 0 0 0-1.63 3.05l-1.74 13.1a5 5 0 0 0 1.03 3.74l3.7 4.64a4.95 4.95 0 0 1-.74 6.93l-4.57 3.74a5 5 0 0 0-1.78 3.18l-1.32 9.97a5 5 0 0 0 .58 3.06l-.65-.06c-8.76-1.16-14.34-13.61-12.46-27.8s10.51-24.76 19.28-23.6z"/><path stroke="#000" stroke-width="7.93" d="M298.53 308.6c2.52.33 5.19 2.38 7.13 6.7 1.9 4.26 2.78 10.16 1.92 16.65s-3.25 11.96-6.2 15.57c-3 3.67-6.11 4.95-8.62 4.62-2.52-.34-5.19-2.38-7.13-6.7-1.9-4.27-2.78-10.17-1.92-16.65.86-6.5 3.24-11.96 6.2-15.57 3-3.67 6.1-4.95 8.62-4.62Z"/><ellipse cx="303.05" cy="318.57" fill="#fff" rx="3.49" ry="3.99" transform="rotate(7.56 303.05 318.57)"/><path stroke="#5f3012" stroke-linecap="round" stroke-linejoin="round" stroke-width="7.93" d="M240.39 300.11c-3.68-.35-11.6-.08-13.94 3.75m67.8-6.24c2.5-1.66 8.44-4 12.27 0"/><path fill="#5f3012" stroke="#5f3012" stroke-linecap="round" stroke-linejoin="round" stroke-width="7.93" d="m252.77 349.45-8.05 26.36 24.95-1.9 6.03-25.97c-11.46 7.15-17.6 4.4-22.93 1.5"/><ellipse cx="266.9" cy="358.42" fill="#fff" rx="3.64" ry="3.03"/><path fill="#ffe4ba" stroke="#896936" stroke-linecap="round" stroke-linejoin="round" stroke-width="7.93" d="M175.5 295.55c-5.5-5.66-15.36-.65-19.14 3.53-21 23.3-43.25 18.3-49.28 18.3s-40.35 22.05 4.78 21.84c45.13-.2 58.02-19.03 61.14-21.84 2.97-2.67 9.36-14.76 2.5-21.83"/><path fill="#fff" stroke="#8d8d8d" stroke-linecap="round" stroke-linejoin="round" stroke-width="7.93" d="M113.11 351.28c2.16-3.66-.9-15.1-2.7-20.38-4.23-2.98-12.65-4.99-12.48 10.82.2 19.75 12.48 14.14 15.18 9.56"/><path fill="#fff" stroke="#8d8d8d" stroke-linecap="round" stroke-linejoin="round" stroke-width="7.93" d="M80.67 326.54c11.48-6.66 21.83-5.83 25.58-4.58l7.9 10.82c-2.64 3.6-9.44 12.35-15.6 18.5-7.7 7.7-13.72.63-15.18 0-1.46-.62-17.05-16.42-2.7-24.74"/><path fill="#fff" stroke="#8d8d8d" stroke-linecap="round" stroke-linejoin="round" stroke-width="7.93" d="M106.63 314.6c3.87-2.07 7.47 1.02 8.74 2.65 2.06 2.64 6.59 9.2 7.48 14.04s1 11.43-4.16 11.86c-5.07.42-6.24-4.01-7.13-6.1-1.08-2.5-6.37-11.29-7.44-12.77-1.08-1.5-2.33-7.07 2.5-9.67"/><path fill="#fff" d="M314.52 193.8c2.86 10.71-.41 13.36-10.7 14.71l-7.8 1.25-10.78-8.22v-7.73c-2.85.47-11.02 3.28-16.59 0-5.57-3.29-2.32-11.72 0-15.52-2.8 3.09-10.24 7.42-17.66 0-7.78-7.78 2-17.23 4.52-19.35-2.83 1.83-15.06 7.53-22.2 2.05-7.67-5.89-2.13-16.43-3.02-15.18s-12.88 14.66-21.95 4.82c-8.97-9.75.83-18.68 6.25-21.41-9.14-15.42 1.19-22.01 7.49-23.38-7.67-14.1-2.5-26.23 11.42-28.55 4.34-.72 10.1.6 14.63 4.64 4.28-3.34 14.88-7.52 23.02 2.5 3.03-4.23 4.8-8.29 14.1-8.29 9.29 0 13.56 3.1 15.7 11.32s-5.63 14.32-8.37 16.76c2.68.18 11.51 3.22 10.5 11.08-1.06 8.36-20.33 9.33-17.84 9.5 2.5.19 23.74-2.54 24.99 13.87 1.24 16.42-13.2 15.17-10.71 15.35 2.5.17 9.63-.72 10.7 14.8.72 10.4-7.46 14.35-12.08 15.7 4.8-.87 13.53-1.4 16.38 9.29"/><path stroke="#737373" stroke-linecap="round" stroke-linejoin="round" stroke-width="7.93" d="M271.15 84.43c3.03-4.23 4.8-8.29 14.1-8.29 9.29 0 13.56 3.1 15.7 11.32s-5.63 14.32-8.37 16.76c2.68.18 11.51 3.22 10.5 11.08-1.06 8.36-20.33 9.33-17.84 9.5 2.5.19 23.74-2.54 24.99 13.87 1.24 16.42-13.2 15.17-10.71 15.35 2.5.17 9.63-.72 10.7 14.8s-17.71 16.7-14.8 16.24c2.74-.42 15.53-4.64 19.1 8.75 2.86 10.7-.41 13.35-10.7 14.7l-7.8 1.25-10.78-8.22v-7.73c-2.85.47-11.02 3.28-16.59 0-5.57-3.29-2.32-11.72 0-15.52-2.8 3.09-10.24 7.42-17.66 0-9.28-9.28 6.42-20.94 5-19.69-1.44 1.25-15 8.28-22.68 2.4-7.67-5.9-2.13-16.44-3.02-15.19s-12.88 14.66-21.95 4.82c-8.97-9.75.83-18.68 6.25-21.41-9.14-15.42 1.19-22.01 7.49-23.38-7.67-14.1-2.5-26.23 11.42-28.55 4.34-.72 10.1.6 14.63 4.64m23.02 2.5c-8.14-10.02-18.74-5.84-23.02-2.5m23.02 2.5c1.13 2.33 3.03 4.3 3.03 10.38m-26.05-12.88c-1.13 1.32-3.5 4.86-3.92 8.42"/><path fill="#ffcf85" stroke="#7d5921" stroke-linecap="round" stroke-linejoin="round" stroke-width="7.93" d="M319.84 347.64c-6.26-17.51 11.56-40.44 21.26-49.71 2.24-2.24 10.53-7.71 16.1-1.71s-3.83 17.14-6.39 24.18c-2.56 7.05-1.54 8.39-3.28 13.52-1.74 5.14 4.36 7.52 22.6 16.68s-.96 18.14-12.37 20.5-30.1-1.57-37.92-23.46"/><path fill="#ffe4ba" stroke="#896936" stroke-linecap="round" stroke-linejoin="round" stroke-width="7.93" d="M355.89 353.38c13.75-16.92.02-39.9-5.09-33.49-18.19 22.8-17.82 31.86-27.92 37.5-8.08 4.5 8.06 12.11 10.66 16.24 6.43 2.6 8.6-3.33 22.35-20.25"/><path fill="#fff" stroke="#8d8d8d" stroke-linecap="round" stroke-linejoin="round" stroke-width="7.93" d="M375 339.65c-3.15 1.61-6.54 11-7.85 15.48 1.37 3.96 5.95 9.1 13.3-2.06 9.2-13.94-1.51-15.43-5.45-13.42"/><path fill="#fff" stroke="#8d8d8d" stroke-linecap="round" stroke-linejoin="round" stroke-width="7.93" d="M384.61 371.35c-10.68-.41-17.08-5.58-18.95-8.1l-.08-11.08c3.43-1.37 12.03-4.49 18.98-6.08 8.68-1.99 9.3 5.64 9.96 6.72s3.44 19.06-9.9 18.54"/><path fill="#fff" stroke="#8d8d8d" stroke-linecap="round" stroke-linejoin="round" stroke-width="7.93" d="M361.94 368.23c-3.53-.26-4.43-4.02-4.5-5.72-.1-2.76.02-9.37 1.72-13.15s4.74-8.46 8.34-6.47c3.52 1.95 2.2 5.57 1.8 7.42-.48 2.24-1.16 10.73-1.15 12.25 0 1.52-1.8 5.98-6.21 5.67m-49.68-10.19c3.52-.33 11.43 5.75 14.94 8.83.98 4.08-.12 10.87-12.32 5.42-15.25-6.81-7.02-13.83-2.62-14.25"/><path fill="#fff" stroke="#8d8d8d" stroke-linecap="round" stroke-linejoin="round" stroke-width="7.93" d="M321.2 389.94c8.79-6.1 11.41-13.9 11.63-17.03l-5.9-9.38c-3.62.7-12.55 2.69-19.26 5.08-8.4 3-4.82 9.75-4.8 11.02s7.36 17.92 18.34 10.3"/><path fill="#fff" stroke="#8d8d8d" stroke-linecap="round" stroke-linejoin="round" stroke-width="7.93" d="M338.64 375.11c2.84-2.1 1.57-5.76.7-7.24-1.39-2.38-5.04-7.88-8.5-10.16-3.47-2.28-8.55-4.58-10.51-.97-1.93 3.54 1.13 5.88 2.47 7.23 1.6 1.62 6.74 8.42 7.55 9.7.82 1.29 4.74 4.08 8.29 1.44"/><mask id="crests-data-warehouse-path-84-inside-2_23_11277" fill="#fff"><path d="M285.27 73c4.94 0 9.13.8 12.41 3.18 3.34 2.4 5.23 6.05 6.4 10.54 1.4 5.36-.51 9.91-2.84 13.2a28 28 0 0 1-2.47 2.99q1.2.6 2.37 1.44c3.04 2.22 5.85 5.98 5.16 11.42-.44 3.4-2.7 5.73-5 7.26l-.25.15c2.56.84 5.15 2.13 7.31 4.14 2.82 2.63 4.72 6.3 5.1 11.17.34 4.57-.39 8.2-1.86 11.02a14 14 0 0 1-3.46 4.32c2.87 2.67 4.8 7.31 5.31 14.84.42 5.98-1.69 10.37-4.68 13.43q1.39.55 2.66 1.42l35.86-27.79a7.2 7.2 0 0 1 7.94-.6l73.17 40.8.58-10.91q.14-2.05 1.18-3.59a7 7 0 0 1 4.37-3.95l15.28-5a7.2 7.2 0 0 1 6.4.96l11.52 8.1c2.02 1.43 3 3.5 3.06 5.59q.11.52.13 1.07l1.64 35.31 42.3 36.42a3.2 3.2 0 0 1-4.19 4.86l-17.8-15.33-.94 11.88a7 7 0 0 1-.17 1.08l-4.12 68.57 9.82 5.98c7.27 4.42 5.64 15.4-2.6 17.53l-46.19 11.9a57 57 0 0 1 6.53 14.47q.6 2.05 1.06 4.04.33.5.47 1.1l-.21.04.21-.05v.03l.02.07.05.22.15.8q.2 1.06.46 3a94 94 0 0 1 .75 14.4 80 80 0 0 1 5.82-.57l.75-.06.2-.01h.08l.15-.01a3.2 3.2 0 0 1 3.17 2.48l1.25 5.36a24 24 0 0 1 12.88.78c4.63 1.55 8.59 4.33 10.54 7.17 2.3 3.33 3.61 7.4 4.13 11.24l.22.87c.54 2.34.43 4.66-.08 6.83q1.34.43 2.5 1.4a8.5 8.5 0 0 1 2.73 4.68c.64 2.74-.22 5.37-1.48 7.52a24 24 0 0 1-5.22 5.96c-4.09 3.49-9.47 6.41-13.9 7.45-12.04 2.82-25.69 3.75-52.35.3-6.61-.86-12.7-3.08-17.32-7.22-4.68-4.19-7.57-10.1-8.13-17.76-.3-4 2.21-7.74 5.25-10.31q1.43-1.21 3.16-2.22c.29-3.13.86-6.67 1.63-9.72.66-2.62 1.58-5.35 2.87-7.18a6 6 0 0 1 3.35-2.48 4.5 4.5 0 0 1 1.95-.04 94 94 0 0 0-.62-16.6l-.02-.17-.01-.03a3.2 3.2 0 0 1 .8-2.68q-.34-1.9-.82-3.7c-1.06-3.98-3.9-7.5-7.83-10.42l-23.73 6.12c-1.9 8.76-6.59 15.9-12.78 21.66a68 68 0 0 1-2.87 2.51 3 3 0 0 1-.74.87l-.13-.16.13.16-.02.02q-.02 0-.05.04l-.17.13-.6.46q-.8.6-2.3 1.62c-1.9 1.29-4.65 3-8.15 4.84a65 65 0 0 1 2.15 3.2l1.57 2.55.1.16.04.06a3.2 3.2 0 0 1-.69 4.08l-3.69 3.13a22.5 22.5 0 0 1 4.69 10.85c.68 4.49.06 8.96-1.48 11.83a24.5 24.5 0 0 1-7.54 8.2l-.63.54a14 14 0 0 1-5.53 2.81q.17 1.21-.12 2.52a8 8 0 0 1-2.78 4.35c-2.05 1.73-4.65 2.14-6.98 2a23 23 0 0 1-7.17-1.79c-4.62-1.9-9.32-5.1-12.07-8.35-7.42-8.73-13.95-19.57-22.35-42.94-2.1-5.83-2.85-11.82-1.38-17.42 1-3.8 2.98-7.27 6.02-10.26a27 27 0 0 1-1.8-2.46l-58.3 7.38a57 57 0 0 1 2.37 13.48q.12 2.13.11 4.17.22.56.21 1.17h-.22.22v.1l-.04 1.05c-.03.7-.1 1.73-.23 3.01a94 94 0 0 1-2.56 14.2 80 80 0 0 1 5.8.77l.75.12.2.03.06.01h.01a3.2 3.2 0 0 1 2.67 3.16v5.51a24 24 0 0 1 12.36 3.7c4.15 2.56 7.37 6.17 8.63 9.38a26 26 0 0 1 1.46 11.88v.9c0 2.4-.63 4.63-1.62 6.63a8 8 0 0 1 2.13 1.93 8.5 8.5 0 0 1 1.58 5.19c0 2.81-1.44 5.18-3.16 6.98a24 24 0 0 1-6.44 4.62c-4.77 2.46-10.69 4.08-15.24 4.08-12.36 0-25.86-2.2-51.03-11.64-6.24-2.34-11.67-5.89-15.22-10.97-3.6-5.15-5.07-11.56-3.87-19.15.62-3.95 3.92-7.02 7.46-8.84a21 21 0 0 1 3.59-1.44c.99-2.98 2.35-6.3 3.8-9.1 1.23-2.4 2.75-4.85 4.43-6.33a6 6 0 0 1 3.83-1.66q1.07.01 1.9.41a89 89 0 0 0 2.79-12.93 74 74 0 0 0 .4-3.54v-.04a3.2 3.2 0 0 1 1.4-2.42q.1-1.93.04-3.8a16 16 0 0 0-1.64-6.43l-6.82.86a9.6 9.6 0 0 1-7.36-2.15l-16.04-13.37a43 43 0 0 1-2.32 3.95c-5.42 8.2-13.08 13.57-21.72 16.88q-1.98.76-3.93 1.38-.46.38-1.05.56l-.06-.21.06.2v.01h-.03l-.06.03-.22.06-.79.22q-1.04.28-2.94.7a94 94 0 0 1-10.43 1.6c.36 1.4.7 3.03.94 4.36a119 119 0 0 1 .6 3.47 3.2 3.2 0 0 1-2.16 3.53l-5.23 1.74c1.45 4.5 1.31 9.03.4 12.9-1.12 4.75-3.52 8.94-6.17 11.15a26 26 0 0 1-10.8 5.14l-.86.3c-2.28.76-4.6.86-6.8.55q-.32 1.37-1.16 2.63a8.5 8.5 0 0 1-4.42 3.14c-2.67.89-5.37.27-7.63-.79a24 24 0 0 1-6.41-4.65c-3.85-3.75-7.26-8.85-8.7-13.16-3.9-11.73-6.09-25.23-5.09-52.1.25-6.66 1.9-12.93 5.6-17.9 3.48-4.7 8.6-8 15.4-9.45l-.48-2.29q-.4.13-.77.22c-2.36.58-4.5.31-6.3-.28a16 16 0 0 1-4.18-2.2c-.5-.35-.95-.7-1.22-.9l-.27-.2a6 6 0 0 1-1-.65q-.42-.34-.89-.79-.97-.9-2.17-2.31a32 32 0 0 1-4.7-7.28c-1.3-2.87-2.2-6.36-1.49-9.92.74-3.71 3.13-6.98 7.37-9.44a42 42 0 0 1 18.4-5.78 44 44 0 0 1 3-1.67l-1.35-1.12c-6.42-5.35-3.44-15.77 4.83-16.92l4.8-.67 11.36-62.3-7.07-5.57a7.2 7.2 0 0 1 .8-11.88L196.78 169a7.2 7.2 0 0 1 7.95.4l64.54 47.54a7 7 0 0 1 1.92-2.24l2.09-1.62.86-4.75a7 7 0 0 1 1.61-3.41 7 7 0 0 1 4.84-3.37l1.48-.28v-3.42c-1.11.23-2.38.47-3.72.62-3.32.37-7.61.34-11.3-1.84-4.4-2.6-5-7.19-4.5-10.76l.07-.51-.5.1c-4.21.72-8.97-.44-13.37-4.84a12.5 12.5 0 0 1-3.87-8.06c-.16-2.37.4-4.6 1.24-6.53-4.5.92-10.22 1.03-14.73-2.43a13.4 13.4 0 0 1-5.3-9.64 26 26 0 0 1-2.16 1.3 17 17 0 0 1-8.58 2.21c-3.3-.15-6.53-1.56-9.34-4.6-2.62-2.85-4.05-5.84-4.4-8.88a14 14 0 0 1 1.65-8.13 23 23 0 0 1 7.1-7.74c-3.44-7.1-3.22-12.94-.55-17.43a17 17 0 0 1 7.83-6.68c-2.7-6.43-3.05-12.7-.89-18 2.58-6.32 8.43-10.51 16.25-11.82 4.66-.77 10.43.38 15.32 3.84a22 22 0 0 1 9.74-3c4.18-.2 8.67.96 12.73 4.46.86-1.14 1.88-2.3 3.12-3.26 2.7-2.1 6.22-3.23 11.36-3.23"/></mask><path stroke="#000" stroke-linecap="round" stroke-linejoin="round" stroke-width="16" d="M285.27 73c4.94 0 9.13.8 12.41 3.18 3.34 2.4 5.23 6.05 6.4 10.54 1.4 5.36-.51 9.91-2.84 13.2a28 28 0 0 1-2.47 2.99q1.2.6 2.37 1.44c3.04 2.22 5.85 5.98 5.16 11.42-.44 3.4-2.7 5.73-5 7.26l-.25.15c2.56.84 5.15 2.13 7.31 4.14 2.82 2.63 4.72 6.3 5.1 11.17.34 4.57-.39 8.2-1.86 11.02a14 14 0 0 1-3.46 4.32c2.87 2.67 4.8 7.31 5.31 14.84.42 5.98-1.69 10.37-4.68 13.43q1.39.55 2.66 1.42l35.86-27.79a7.2 7.2 0 0 1 7.94-.6l73.17 40.8.58-10.91q.14-2.05 1.18-3.59a7 7 0 0 1 4.37-3.95l15.28-5a7.2 7.2 0 0 1 6.4.96l11.52 8.1c2.02 1.43 3 3.5 3.06 5.59q.11.52.13 1.07l1.64 35.31 42.3 36.42a3.2 3.2 0 0 1-4.19 4.86l-17.8-15.33-.94 11.88a7 7 0 0 1-.17 1.08l-4.12 68.57 9.82 5.98c7.27 4.42 5.64 15.4-2.6 17.53l-46.19 11.9a57 57 0 0 1 6.53 14.47q.6 2.05 1.06 4.04.33.5.47 1.1l-.21.04v0l.21-.05h0v.03l.02.07.05.22.15.8q.2 1.06.46 3a94 94 0 0 1 .75 14.4 80 80 0 0 1 5.82-.57l.75-.06.2-.01h.08q0 0 0 0h0l.15-.01a3.2 3.2 0 0 1 3.17 2.48l1.25 5.36a24 24 0 0 1 12.88.78c4.63 1.55 8.59 4.33 10.54 7.17 2.3 3.33 3.61 7.4 4.13 11.24l.22.87c.54 2.34.43 4.66-.08 6.83q1.34.43 2.5 1.4a8.5 8.5 0 0 1 2.73 4.68c.64 2.74-.22 5.37-1.48 7.52a24 24 0 0 1-5.22 5.96c-4.09 3.49-9.47 6.41-13.9 7.45-12.04 2.82-25.69 3.75-52.35.3-6.61-.86-12.7-3.08-17.32-7.22-4.68-4.19-7.57-10.1-8.13-17.76-.3-4 2.21-7.74 5.25-10.31q1.43-1.21 3.16-2.22c.29-3.13.86-6.67 1.63-9.72.66-2.62 1.58-5.35 2.87-7.18a6 6 0 0 1 3.35-2.48 4.5 4.5 0 0 1 1.95-.04 94 94 0 0 0-.62-16.6l-.02-.17-.01-.03h0a3.2 3.2 0 0 1 .8-2.68q-.34-1.9-.82-3.7c-1.06-3.98-3.9-7.5-7.83-10.42l-23.73 6.12c-1.9 8.76-6.59 15.9-12.78 21.66a68 68 0 0 1-2.87 2.51 3 3 0 0 1-.74.87l-.13-.16h0l.13.16h0l-.02.02q-.02 0-.05.04l-.17.13-.6.46q-.8.6-2.3 1.62c-1.9 1.29-4.65 3-8.15 4.84a65 65 0 0 1 2.15 3.2l1.57 2.55.1.16.04.06h0a3.2 3.2 0 0 1-.69 4.08l-3.69 3.13a22.5 22.5 0 0 1 4.69 10.85c.68 4.49.06 8.96-1.48 11.83a24.5 24.5 0 0 1-7.54 8.2l-.63.54a14 14 0 0 1-5.53 2.81q.17 1.21-.12 2.52a8 8 0 0 1-2.78 4.35c-2.05 1.73-4.65 2.14-6.98 2a23 23 0 0 1-7.17-1.79c-4.62-1.9-9.32-5.1-12.07-8.35-7.42-8.73-13.95-19.57-22.35-42.94-2.1-5.83-2.85-11.82-1.38-17.42 1-3.8 2.98-7.27 6.02-10.26a27 27 0 0 1-1.8-2.46l-58.3 7.38a57 57 0 0 1 2.37 13.48q.12 2.13.11 4.17.22.56.21 1.17h-.22v0h.22v.1l-.04 1.05c-.03.7-.1 1.73-.23 3.01a94 94 0 0 1-2.56 14.2 80 80 0 0 1 5.8.77l.75.12.2.03.06.01h.01q0 0 0 0h0a3.2 3.2 0 0 1 2.67 3.16v5.51a24 24 0 0 1 12.36 3.7c4.15 2.56 7.37 6.17 8.63 9.38a26 26 0 0 1 1.46 11.88v.9c0 2.4-.63 4.63-1.62 6.63a8 8 0 0 1 2.13 1.93 8.5 8.5 0 0 1 1.58 5.19c0 2.81-1.44 5.18-3.16 6.98a24 24 0 0 1-6.44 4.62c-4.77 2.46-10.69 4.08-15.24 4.08-12.36 0-25.86-2.2-51.03-11.64-6.24-2.34-11.67-5.89-15.22-10.97-3.6-5.15-5.07-11.56-3.87-19.15.62-3.95 3.92-7.02 7.46-8.84a21 21 0 0 1 3.59-1.44c.99-2.98 2.35-6.3 3.8-9.1 1.23-2.4 2.75-4.85 4.43-6.33a6 6 0 0 1 3.83-1.66q1.07.01 1.9.41a89 89 0 0 0 2.79-12.93 74 74 0 0 0 .4-3.54v-.04h0a3.2 3.2 0 0 1 1.4-2.42q.1-1.93.04-3.8a16 16 0 0 0-1.64-6.43l-6.82.86a9.6 9.6 0 0 1-7.36-2.15l-16.04-13.37a43 43 0 0 1-2.32 3.95c-5.42 8.2-13.08 13.57-21.72 16.88q-1.98.76-3.93 1.38-.46.38-1.05.56l-.06-.21h0l.06.2h0v.01h-.03l-.06.03-.22.06-.79.22q-1.04.28-2.94.7a94 94 0 0 1-10.43 1.6c.36 1.4.7 3.03.94 4.36a119 119 0 0 1 .6 3.47v0h0a3.2 3.2 0 0 1-2.16 3.53l-5.23 1.74c1.45 4.5 1.31 9.03.4 12.9-1.12 4.75-3.52 8.94-6.17 11.15a26 26 0 0 1-10.8 5.14l-.86.3c-2.28.76-4.6.86-6.8.55q-.32 1.37-1.16 2.63a8.5 8.5 0 0 1-4.42 3.14c-2.67.89-5.37.27-7.63-.79a24 24 0 0 1-6.41-4.65c-3.85-3.75-7.26-8.85-8.7-13.16-3.9-11.73-6.09-25.23-5.09-52.1.25-6.66 1.9-12.93 5.6-17.9 3.48-4.7 8.6-8 15.4-9.45l-.48-2.29q-.4.13-.77.22c-2.36.58-4.5.31-6.3-.28a16 16 0 0 1-4.18-2.2c-.5-.35-.95-.7-1.22-.9l-.27-.2a6 6 0 0 1-1-.65q-.42-.34-.89-.79-.97-.9-2.17-2.31a32 32 0 0 1-4.7-7.28c-1.3-2.87-2.2-6.36-1.49-9.92.74-3.71 3.13-6.98 7.37-9.44a42 42 0 0 1 18.4-5.78 44 44 0 0 1 3-1.67l-1.35-1.12c-6.42-5.35-3.44-15.77 4.83-16.92l4.8-.67 11.36-62.3-7.07-5.57a7.2 7.2 0 0 1 .8-11.88L196.78 169a7.2 7.2 0 0 1 7.95.4l64.54 47.54a7 7 0 0 1 1.92-2.24l2.09-1.62.86-4.75a7 7 0 0 1 1.61-3.41 7 7 0 0 1 4.84-3.37l1.48-.28v-3.42c-1.11.23-2.38.47-3.72.62-3.32.37-7.61.34-11.3-1.84-4.4-2.6-5-7.19-4.5-10.76l.07-.51-.5.1c-4.21.72-8.97-.44-13.37-4.84a12.5 12.5 0 0 1-3.87-8.06c-.16-2.37.4-4.6 1.24-6.53-4.5.92-10.22 1.03-14.73-2.43a13.4 13.4 0 0 1-5.3-9.64 26 26 0 0 1-2.16 1.3 17 17 0 0 1-8.58 2.21c-3.3-.15-6.53-1.56-9.34-4.6-2.62-2.85-4.05-5.84-4.4-8.88a14 14 0 0 1 1.65-8.13 23 23 0 0 1 7.1-7.74c-3.44-7.1-3.22-12.94-.55-17.43a17 17 0 0 1 7.83-6.68c-2.7-6.43-3.05-12.7-.89-18 2.58-6.32 8.43-10.51 16.25-11.82 4.66-.77 10.43.38 15.32 3.84a22 22 0 0 1 9.74-3c4.18-.2 8.67.96 12.73 4.46.86-1.14 1.88-2.3 3.12-3.26 2.7-2.1 6.22-3.23 11.36-3.23" mask="url(#crests-data-warehouse-path-84-inside-2_23_11277)"/><defs><filter id="crests-data-warehouse-filter0_d_23_11277" width="490.5" height="469.16" x="54.47" y="56" color-interpolation-filters="sRGB" filterUnits="userSpaceOnUse"><feFlood flood-opacity="0" result="BackgroundImageFix"/><feColorMatrix in="SourceAlpha" result="hardAlpha" values="0 0 0 0 0 0 0 0 0 0 0 0 0 0 0 0 0 0 127 0"/><feOffset dx="12" dy="12"/><feComposite in2="hardAlpha" operator="out"/><feColorMatrix values="0 0 0 0 0 0 0 0 0 0 0 0 0 0 0 0 0 0 0.4 0"/><feBlend in2="BackgroundImageFix" result="effect1_dropShadow_23_11277"/><feBlend in="SourceGraphic" in2="effect1_dropShadow_23_11277" result="shape"/></filter></defs></svg>