<svg xmlns="http://www.w3.org/2000/svg" fill="none" viewBox="0 0 600 600"><g filter="url(#crests-demand-gen-filter0_d_23_18817)"><g filter="url(#crests-demand-gen-filter1_d_23_18817)"><mask id="crests-demand-gen-path-1-outside-1_23_18817" width="406" height="449" x="85.14" y="60.25" fill="#000" maskUnits="userSpaceOnUse"><path fill="#fff" d="M85.14 60.25h406v449h-406z"/><path fill-rule="evenodd" d="M330.42 75.5a5 5 0 0 1 6.2 2.85l.1.24 19.74 55.97 36.47 101.7v.04l.02.03c7.37 21.97 5.95 50.65-8.23 76.33 3.44 1.11 6.97.7 10.38-.56 1.94-.72 3.79-1.7 5.47-2.76a8.6 8.6 0 0 1 2.66-6.98l.32-.3a8.6 8.6 0 0 1 4.96-2.04l-.2-1.05c-.56-2.7-1.28-5.83-1.5-6.98l-.2-.75-.45-1.49a19 19 0 0 1-.75-4.14 9 9 0 0 1 1.24-5.22 8.4 8.4 0 0 1 5.38-3.58c2.08-.5 4-.27 5.67.53a9.3 9.3 0 0 1 3.55 3.13 15 15 0 0 1 2.02 4.43 15 15 0 0 1 2.9-5.05c1.78-1.98 4.74-3.87 8.58-2.91 3.11.77 5 2.96 5.8 5.43l.29-.03c2.27-.15 4.06.8 4.93 1.46a8.5 8.5 0 0 1 3.46 6.59 8 8 0 0 1 6.27 3.76c1.96 2.94 1.57 6.14.76 8.44a17 17 0 0 1-3.22 5.35c-.1.12-.28.34-.63.83q-.49.68-1.31 1.77a75 75 0 0 1-5.1 6c-2.9 3.11-6.77 4.78-9.95 5.7a30 30 0 0 1-7.09 1.14 8.62 8.62 0 0 1-11.91 6.36c-9.44 6.76-17.7 10.15-25.07 11.4-8.36 1.43-15.3.07-21.18-1.77a120 120 0 0 1-32.12 35.51v28.84c1.92.44 5.2 1.31 7.78 3.63a14 14 0 0 1 4.14 7.3c1.88.5 3.88 1.2 5.85 2.08 4.42 2.02 9.54 5.44 12.82 10.94 3.25 5.45 4.97 10.1 5.53 14.66.56 4.5-.1 8.4-.73 11.87q-.19 1.02-.49 2.05.9.87 1.64 1.87a10 10 0 0 1 2.08 6.64c-.54 6.7-5.48 12.6-12.06 15.8-6.7 3.27-15.44 3.98-24.33.14a151 151 0 0 1-12.36-6.4q.19 1.04.1 2.15c-.54 6.7-5.48 12.6-12.06 15.8-6.7 3.27-15.44 3.99-24.33.14-9.76-4.22-33-18.52-44.25-25.3-1.14-.7-3.63-2.08-5.54-3.89-1.86-1.75-4.23-4.92-2.77-8.94a9 9 0 0 1 2.66-3.94 8 8 0 0 1 1.32-.87 77 77 0 0 1-.19-8.6c.07-3.24.19-5.29.19-6.21 0-2.16.82-4.2 1.42-5.46a21 21 0 0 1 2.9-4.48 13 13 0 0 1 5.33-3.9q.49-.19 1-.32v-19.57a108 108 0 0 1-41-9.36 41 41 0 0 1-11.1 2.31c-7.47.51-16.28-.85-27.05-5.21a8.6 8.6 0 0 1-13.25-3.85c-1.39.4-2.74.68-3.82.85-.97.14-2.95.54-5.43.28a19.4 19.4 0 0 1-8.73-3.32 75 75 0 0 1-6.36-4.64l-1.69-1.42a11 11 0 0 0-.81-.66 17 17 0 0 1-4.38-4.45c-1.33-2.04-2.46-5.06-1.25-8.38a8 8 0 0 1 5.22-5.12 8.5 8.5 0 0 1 1.82-7.22 7.5 7.5 0 0 1 4.74-2.61 8 8 0 0 1 4.37-6.64c3.5-1.83 6.83-.69 9.01.82a15 15 0 0 1 4.01 4.23c.05-1.27.26-3.05.93-4.78q.27-.68.65-1.38a55 55 0 0 1-1.47-3.58c-1.51-4.12-3.92-11.01-6.91-19.74l-2.18 7.62c-1.19 4.16-7.14 3.99-8.09-.23l-7.74-34.5-28.63 6.16a4.18 4.18 0 0 1-5.03-4.51l4.7-44.99.02-.17a4.18 4.18 0 0 1 7.26-2.16l16.4 18.59 4.81-.5-3.51-10.51a5 5 0 0 1-.65-1.3l-21.52-64.37a5 5 0 0 1 .26-3.81l12.44-25.11.08-.16q.53-.93 1.3-1.45a5 5 0 0 1 2.7-2.33l82.5-30.18.25-.08c1.9-.59 3.9.02 5.17 1.4q.84.8 1.25 1.96l16.23 46.93L264 271.22c1.03 2.83 3.3 6 6.79 7.97a16.3 16.3 0 0 0 9.83 1.91c-4.72-13.3-15.44-43.98-26.45-75.57a5 5 0 0 1-.39-.87l-3.4-9.97-19.07-54.78a4.9 4.9 0 0 1 .65-4.53l10.16-22.98.1-.2a5 5 0 0 1 2.46-2.37 5 5 0 0 1 2.98-2.98l47.1-17.53 35.43-13.73zm-79.98 358.46q-.08.38-.08.68v.15-.15q0-.3.08-.68m.88-2.28-.04.08.1-.2zm1.53-2.36-.34.44.27-.36zm.83-.92-.04.04.09-.09zm.63-.56-.02.02zm45.66-7.86-.04.08.1-.19zm1.53-2.35-.34.44.27-.36zm.83-.92-.04.04.09-.09zm2.94-24.37a162 162 0 0 1-17.33 5.08v17.56l.69.11.44.1.7.16c1.07.24 2.68.63 4.37 1.37a21 21 0 0 1 2.51-3.71c1.12-1.3 2.9-3.01 5.33-3.91a10 10 0 0 1 3.3-.6zm-2.3 23.8-.03.02.19-.14z" clip-rule="evenodd"/><path d="M126.44 318.62c3.2-2.1 7.3.83 6.34 4.53l-1.75 6.73 8.86 5.2a4.18 4.18 0 0 1 .42 6.92l-17.96 13.65a4.18 4.18 0 0 1-6.57-4.39l2.98-11.33-6.82-5.04a4.18 4.18 0 0 1 .19-6.85zm-12.43-18.87a10.23 10.23 0 1 1 0 20.46 10.23 10.23 0 0 1 0-20.46m289.14-85.89c1.34-4.16 7.36-3.73 8.1.58l2.01 11.85h9.72a4.18 4.18 0 0 1 4.08 5.06l-5.4 24.68a4.18 4.18 0 0 1-7.95.65l-5.55-14-8.57-.12a4.18 4.18 0 0 1-3.92-5.46zm25.15-80.51c2-2.9 6.54-2.16 7.46 1.3l6.39 23.95 31.8 11.99a4.18 4.18 0 0 1 1.61 6.72l-42.09 46.03c-2.92 3.2-8.17.39-7.14-3.81l8.46-34.33-28.37-7.26a4.18 4.18 0 0 1-2.49-6.28l24.27-38.17z"/><path d="M415.94 187.84a10.23 10.23 0 1 1 0 20.46 10.23 10.23 0 0 1 0-20.47"/></mask><path fill="#fff" fill-rule="evenodd" d="M330.42 75.5a5 5 0 0 1 6.2 2.85l.1.24 19.74 55.97 36.47 101.7v.04l.02.03c7.37 21.97 5.95 50.65-8.23 76.33 3.44 1.11 6.97.7 10.38-.56 1.94-.72 3.79-1.7 5.47-2.76a8.6 8.6 0 0 1 2.66-6.98l.32-.3a8.6 8.6 0 0 1 4.96-2.04l-.2-1.05c-.56-2.7-1.28-5.83-1.5-6.98l-.2-.75-.45-1.49a19 19 0 0 1-.75-4.14 9 9 0 0 1 1.24-5.22 8.4 8.4 0 0 1 5.38-3.58c2.08-.5 4-.27 5.67.53a9.3 9.3 0 0 1 3.55 3.13 15 15 0 0 1 2.02 4.43 15 15 0 0 1 2.9-5.05c1.78-1.98 4.74-3.87 8.58-2.91 3.11.77 5 2.96 5.8 5.43l.29-.03c2.27-.15 4.06.8 4.93 1.46a8.5 8.5 0 0 1 3.46 6.59 8 8 0 0 1 6.27 3.76c1.96 2.94 1.57 6.14.76 8.44a17 17 0 0 1-3.22 5.35c-.1.12-.28.34-.63.83q-.49.68-1.31 1.77a75 75 0 0 1-5.1 6c-2.9 3.11-6.77 4.78-9.95 5.7a30 30 0 0 1-7.09 1.14 8.62 8.62 0 0 1-11.91 6.36c-9.44 6.76-17.7 10.15-25.07 11.4-8.36 1.43-15.3.07-21.18-1.77a120 120 0 0 1-32.12 35.51v28.84c1.92.44 5.2 1.31 7.78 3.63a14 14 0 0 1 4.14 7.3c1.88.5 3.88 1.2 5.85 2.08 4.42 2.02 9.54 5.44 12.82 10.94 3.25 5.45 4.97 10.1 5.53 14.66.56 4.5-.1 8.4-.73 11.87q-.19 1.02-.49 2.05.9.87 1.64 1.87a10 10 0 0 1 2.08 6.64c-.54 6.7-5.48 12.6-12.06 15.8-6.7 3.27-15.44 3.98-24.33.14a151 151 0 0 1-12.36-6.4q.19 1.04.1 2.15c-.54 6.7-5.48 12.6-12.06 15.8-6.7 3.27-15.44 3.99-24.33.14-9.76-4.22-33-18.52-44.25-25.3-1.14-.7-3.63-2.08-5.54-3.89-1.86-1.75-4.23-4.92-2.77-8.94a9 9 0 0 1 2.66-3.94 8 8 0 0 1 1.32-.87 77 77 0 0 1-.19-8.6c.07-3.24.19-5.29.19-6.21 0-2.16.82-4.2 1.42-5.46a21 21 0 0 1 2.9-4.48 13 13 0 0 1 5.33-3.9q.49-.19 1-.32v-19.57a108 108 0 0 1-41-9.36 41 41 0 0 1-11.1 2.31c-7.47.51-16.28-.85-27.05-5.21a8.6 8.6 0 0 1-13.25-3.85c-1.39.4-2.74.68-3.82.85-.97.14-2.95.54-5.43.28a19.4 19.4 0 0 1-8.73-3.32 75 75 0 0 1-6.36-4.64l-1.69-1.42a11 11 0 0 0-.81-.66 17 17 0 0 1-4.38-4.45c-1.33-2.04-2.46-5.06-1.25-8.38a8 8 0 0 1 5.22-5.12 8.5 8.5 0 0 1 1.82-7.22 7.5 7.5 0 0 1 4.74-2.61 8 8 0 0 1 4.37-6.64c3.5-1.83 6.83-.69 9.01.82a15 15 0 0 1 4.01 4.23c.05-1.27.26-3.05.93-4.78q.27-.68.65-1.38a55 55 0 0 1-1.47-3.58c-1.51-4.12-3.92-11.01-6.91-19.74l-2.18 7.62c-1.19 4.16-7.14 3.99-8.09-.23l-7.74-34.5-28.63 6.16a4.18 4.18 0 0 1-5.03-4.51l4.7-44.99.02-.17a4.18 4.18 0 0 1 7.26-2.16l16.4 18.59 4.81-.5-3.51-10.51a5 5 0 0 1-.65-1.3l-21.52-64.37a5 5 0 0 1 .26-3.81l12.44-25.11.08-.16q.53-.93 1.3-1.45a5 5 0 0 1 2.7-2.33l82.5-30.18.25-.08c1.9-.59 3.9.02 5.17 1.4q.84.8 1.25 1.96l16.23 46.93L264 271.22c1.03 2.83 3.3 6 6.79 7.97a16.3 16.3 0 0 0 9.83 1.91c-4.72-13.3-15.44-43.98-26.45-75.57a5 5 0 0 1-.39-.87l-3.4-9.97-19.07-54.78a4.9 4.9 0 0 1 .65-4.53l10.16-22.98.1-.2a5 5 0 0 1 2.46-2.37 5 5 0 0 1 2.98-2.98l47.1-17.53 35.43-13.73zm-79.98 358.46q-.08.38-.08.68v.15-.15q0-.3.08-.68m.88-2.28-.04.08.1-.2zm1.53-2.36-.34.44.27-.36zm.83-.92-.04.04.09-.09zm.63-.56-.02.02zm45.66-7.86-.04.08.1-.19zm1.53-2.35-.34.44.27-.36zm.83-.92-.04.04.09-.09zm2.94-24.37a162 162 0 0 1-17.33 5.08v17.56l.69.11.44.1.7.16c1.07.24 2.68.63 4.37 1.37a21 21 0 0 1 2.51-3.71c1.12-1.3 2.9-3.01 5.33-3.91a10 10 0 0 1 3.3-.6zm-2.3 23.8-.03.02.19-.14z" clip-rule="evenodd"/><path fill="#fff" d="M126.44 318.62c3.2-2.1 7.3.83 6.34 4.53l-1.75 6.73 8.86 5.2a4.18 4.18 0 0 1 .42 6.92l-17.96 13.65a4.18 4.18 0 0 1-6.57-4.39l2.98-11.33-6.82-5.04a4.18 4.18 0 0 1 .19-6.85zm-12.43-18.87a10.23 10.23 0 1 1 0 20.46 10.23 10.23 0 0 1 0-20.46m289.14-85.89c1.34-4.16 7.36-3.73 8.1.58l2.01 11.85h9.72a4.18 4.18 0 0 1 4.08 5.06l-5.4 24.68a4.18 4.18 0 0 1-7.95.65l-5.55-14-8.57-.12a4.18 4.18 0 0 1-3.92-5.46zm25.15-80.51c2-2.9 6.54-2.16 7.46 1.3l6.39 23.95 31.8 11.99a4.18 4.18 0 0 1 1.61 6.72l-42.09 46.03c-2.92 3.2-8.17.39-7.14-3.81l8.46-34.33-28.37-7.26a4.18 4.18 0 0 1-2.49-6.28l24.27-38.17z"/><path fill="#fff" d="M415.94 187.84a10.23 10.23 0 1 1 0 20.46 10.23 10.23 0 0 1 0-20.47"/><path stroke="#fff" stroke-linecap="round" stroke-width="28.4" d="M330.42 75.5a5 5 0 0 1 6.2 2.85l.1.24 19.74 55.97 36.47 101.7v.04l.02.03c7.37 21.97 5.95 50.65-8.23 76.33 3.44 1.11 6.97.7 10.38-.56 1.94-.72 3.79-1.7 5.47-2.76a8.6 8.6 0 0 1 2.66-6.98l.32-.3a8.6 8.6 0 0 1 4.96-2.04l-.2-1.05c-.56-2.7-1.28-5.83-1.5-6.98l-.2-.75-.45-1.49a19 19 0 0 1-.75-4.14 9 9 0 0 1 1.24-5.22 8.4 8.4 0 0 1 5.38-3.58c2.08-.5 4-.27 5.67.53a9.3 9.3 0 0 1 3.55 3.13 15 15 0 0 1 2.02 4.43 15 15 0 0 1 2.9-5.05c1.78-1.98 4.74-3.87 8.58-2.91 3.11.77 5 2.96 5.8 5.43l.29-.03c2.27-.15 4.06.8 4.93 1.46a8.5 8.5 0 0 1 3.46 6.59 8 8 0 0 1 6.27 3.76c1.96 2.94 1.57 6.14.76 8.44a17 17 0 0 1-3.22 5.35c-.1.12-.28.34-.63.83q-.49.68-1.31 1.77a75 75 0 0 1-5.1 6c-2.9 3.11-6.77 4.78-9.95 5.7a30 30 0 0 1-7.09 1.14 8.62 8.62 0 0 1-11.91 6.36c-9.44 6.76-17.7 10.15-25.07 11.4-8.36 1.43-15.3.07-21.18-1.77a120 120 0 0 1-32.12 35.51v28.84c1.92.44 5.2 1.31 7.78 3.63a14 14 0 0 1 4.14 7.3c1.88.5 3.88 1.2 5.85 2.08 4.42 2.02 9.54 5.44 12.82 10.94 3.25 5.45 4.97 10.1 5.53 14.66.56 4.5-.1 8.4-.73 11.87q-.19 1.02-.49 2.05.9.87 1.64 1.87a10 10 0 0 1 2.08 6.64c-.54 6.7-5.48 12.6-12.06 15.8-6.7 3.27-15.44 3.98-24.33.14a151 151 0 0 1-12.36-6.4q.19 1.04.1 2.15c-.54 6.7-5.48 12.6-12.06 15.8-6.7 3.27-15.44 3.99-24.33.14-9.76-4.22-33-18.52-44.25-25.3-1.14-.7-3.63-2.08-5.54-3.89-1.86-1.75-4.23-4.92-2.77-8.94a9 9 0 0 1 2.66-3.94 8 8 0 0 1 1.32-.87 77 77 0 0 1-.19-8.6c.07-3.24.19-5.29.19-6.21 0-2.16.82-4.2 1.42-5.46a21 21 0 0 1 2.9-4.48 13 13 0 0 1 5.33-3.9q.49-.19 1-.32v-19.57a108 108 0 0 1-41-9.36 41 41 0 0 1-11.1 2.31c-7.47.51-16.28-.85-27.05-5.21a8.6 8.6 0 0 1-13.25-3.85c-1.39.4-2.74.68-3.82.85-.97.14-2.95.54-5.43.28a19.4 19.4 0 0 1-8.73-3.32 75 75 0 0 1-6.36-4.64l-1.69-1.42a11 11 0 0 0-.81-.66 17 17 0 0 1-4.38-4.45c-1.33-2.04-2.46-5.06-1.25-8.38a8 8 0 0 1 5.22-5.12 8.5 8.5 0 0 1 1.82-7.22 7.5 7.5 0 0 1 4.74-2.61 8 8 0 0 1 4.37-6.64c3.5-1.83 6.83-.69 9.01.82a15 15 0 0 1 4.01 4.23c.05-1.27.26-3.05.93-4.78q.27-.68.65-1.38a55 55 0 0 1-1.47-3.58c-1.51-4.12-3.92-11.01-6.91-19.74l-2.18 7.62c-1.19 4.16-7.14 3.99-8.09-.23l-7.74-34.5-28.63 6.16a4.18 4.18 0 0 1-5.03-4.51l4.7-44.99.02-.17a4.18 4.18 0 0 1 7.26-2.16l16.4 18.59 4.81-.5-3.51-10.51a5 5 0 0 1-.65-1.3l-21.52-64.37a5 5 0 0 1 .26-3.81l12.44-25.11.08-.16q.53-.93 1.3-1.45a5 5 0 0 1 2.7-2.33l82.5-30.18.25-.08c1.9-.59 3.9.02 5.17 1.4q.84.8 1.25 1.96l16.23 46.93L264 271.22c1.03 2.83 3.3 6 6.79 7.97a16.3 16.3 0 0 0 9.83 1.91c-4.72-13.3-15.44-43.98-26.45-75.57a5 5 0 0 1-.39-.87l-3.4-9.97-19.07-54.78a4.9 4.9 0 0 1 .65-4.53l10.16-22.98.1-.2a5 5 0 0 1 2.46-2.37 5 5 0 0 1 2.98-2.98l47.1-17.53 35.43-13.73zm-79.98 358.46q-.08.38-.08.68v.15-.15q0-.3.08-.68Zm.88-2.28-.04.08.1-.2zm1.53-2.36-.34.44.27-.36zm.83-.92-.04.04.09-.09zm.63-.56-.02.02zm45.66-7.86-.04.08.1-.19zm1.53-2.35-.34.44.27-.36zm.83-.92-.04.04.09-.09zm2.94-24.37a162 162 0 0 1-17.33 5.08v17.56l.69.11.44.1.7.16c1.07.24 2.68.63 4.37 1.37a21 21 0 0 1 2.51-3.71c1.12-1.3 2.9-3.01 5.33-3.91a10 10 0 0 1 3.3-.6zm-2.3 23.8-.03.02.19-.14z" clip-rule="evenodd" mask="url(#crests-demand-gen-path-1-outside-1_23_18817)"/><path stroke="#fff" stroke-linecap="round" stroke-width="28.4" d="M126.44 318.62c3.2-2.1 7.3.83 6.34 4.53l-1.75 6.73 8.86 5.2a4.18 4.18 0 0 1 .42 6.92l-17.96 13.65a4.18 4.18 0 0 1-6.57-4.39l2.98-11.33-6.82-5.04a4.18 4.18 0 0 1 .19-6.85z" mask="url(#crests-demand-gen-path-1-outside-1_23_18817)"/><path stroke="#fff" stroke-linecap="round" stroke-width="28.4" d="M114.01 299.75a10.23 10.23 0 1 1 0 20.46 10.23 10.23 0 0 1 0-20.46Z" mask="url(#crests-demand-gen-path-1-outside-1_23_18817)"/><path stroke="#fff" stroke-linecap="round" stroke-width="28.4" d="M403.15 213.86c1.34-4.16 7.36-3.73 8.1.58l2.01 11.85h9.72a4.18 4.18 0 0 1 4.08 5.06l-5.4 24.68a4.18 4.18 0 0 1-7.95.65l-5.55-14-8.57-.12a4.18 4.18 0 0 1-3.92-5.46z" mask="url(#crests-demand-gen-path-1-outside-1_23_18817)"/><path stroke="#fff" stroke-linecap="round" stroke-width="28.4" d="M428.3 133.35c2-2.9 6.54-2.16 7.46 1.3l6.39 23.95 31.8 11.99a4.18 4.18 0 0 1 1.61 6.72l-42.09 46.03c-2.92 3.2-8.17.39-7.14-3.81l8.46-34.33-28.37-7.26a4.18 4.18 0 0 1-2.49-6.28l24.27-38.17z" mask="url(#crests-demand-gen-path-1-outside-1_23_18817)"/><path stroke="#fff" stroke-linecap="round" stroke-width="28.4" d="M415.94 187.84a10.23 10.23 0 1 1 0 20.46 10.23 10.23 0 0 1 0-20.47Z" mask="url(#crests-demand-gen-path-1-outside-1_23_18817)"/></g><path fill="#5b95e2" stroke="#134a95" stroke-width="6.68" d="M257.67 377.01h26.93v70.57h-26.93z"/><path fill="#fff" stroke="#134a95" stroke-width="6.68" d="m262.08 411.64-4.41-1.51v36.2h26.93v-36.3l-4.49 1.63m0 0-.12.05-.5.15q-.69.22-1.95.5a28 28 0 0 1-6.46.7 34 34 0 0 1-8.38-1.24q-.33-.08-.49-.14l-.1-.03h-.02v-.01m18.02.02z"/><path fill="#df6133" stroke="#8b3719" stroke-width="6.68" d="M308.61 364.06h26.73v70.57h-26.73z"/><path fill="#fff" stroke="#8b3719" stroke-width="6.68" d="M330.84 398.72h-.01l-.1.04-.5.16q-.67.22-1.93.5c-1.66.37-3.92.72-6.37.69a33 33 0 0 1-8.87-1.4l-.02-.01-4.43-1.53v36.21h26.73v-36.32zm0 0Z"/><path fill="#fff" stroke="#000" stroke-linecap="round" stroke-width="6.68" d="M373.97 464.49c.5-6.18-10.13-11.49-14.51-10.65-17.12-6.2-56.59-12-59.1-12.84-3.13-1.04-7.2-1.88-8.87 2.71-1.5 4.12 4.3 7.26 6.9 8.82 11.41 6.89 34.36 21 43.85 25.1 15.96 6.9 30.88-2.7 31.73-13.14Z"/><path fill="#ebb09b" stroke="#7c3015" stroke-width="6.68" d="M328.07 408.74c2.25-1.52 5.41-2.82 8.88-2 1.87.45 4.96 1.02 7.28 3.1 1.98 1.78 3.08 4.29 3.47 7.59 2.18.4 4.78 1.17 7.37 2.35 4.06 1.84 8.52 4.88 11.33 9.6 3.08 5.18 4.6 9.38 5.09 13.36.48 3.94-.08 7.4-.7 10.87a17.8 17.8 0 0 1-8.22 11.9c-4.91 2.93-11.5 3.43-19.4-.05-11.58-5.1-35.48-19-45.88-25.24l-1.41-.85-.19-1.63a70 70 0 0 1-.2-8.51c.04-2.28.12-4.15.16-5.34l.02-.95c0-1.39.55-2.88 1.1-4.01a17 17 0 0 1 2.42-3.75 10 10 0 0 1 3.94-2.95 5.8 5.8 0 0 1 5.84.95l.17.15.4.35a26 26 0 0 1 2.16 2.4c.71.87 1.19 1.48 1.74 2 .85.83 1.9 1.52 4.36 1.52 1.32 0 2-.21 2.35-.38.31-.15.5-.34.7-.64.24-.37.44-.84.75-1.66.27-.7.67-1.82 1.29-2.82a18.5 18.5 0 0 1 5.18-5.36Z"/><path stroke="#7c3015" stroke-linecap="round" stroke-width="6.68" d="M330.9 426.71c1.67-4.31 6.95-10.92 16.92-9.4"/><path fill="#fff" stroke="#000" stroke-linecap="round" stroke-width="6.68" d="M325.32 476.18c.5-6.18-10.13-11.48-14.51-10.65-17.12-6.2-56.59-12-59.1-12.83-3.13-1.05-7.2-1.89-8.87 2.7-1.5 4.12 4.3 7.26 6.9 8.82 11.41 6.9 34.36 21 43.85 25.1 15.97 6.9 30.88-2.7 31.73-13.14Z"/><path fill="#c1dcff" stroke="#1a4379" stroke-width="6.68" d="M279.42 420.44c2.24-1.52 5.4-2.82 8.88-2 1.87.45 4.96 1.01 7.28 3.09 1.98 1.78 3.08 4.3 3.47 7.6a32 32 0 0 1 7.37 2.34c4.06 1.85 8.52 4.89 11.33 9.6 3.08 5.18 4.6 9.38 5.09 13.36.48 3.94-.08 7.41-.71 10.87a17.8 17.8 0 0 1-8.2 11.9c-4.92 2.93-11.52 3.43-19.4-.05-11.59-5.1-35.5-19-45.9-25.24l-1.4-.85-.19-1.63a70 70 0 0 1-.2-8.51c.04-2.28.12-4.15.16-5.33l.02-.95c0-1.4.55-2.89 1.1-4.02a17 17 0 0 1 2.42-3.74 10 10 0 0 1 3.95-2.95 5.8 5.8 0 0 1 5.83.95l.17.14.4.36c.87.82 1.58 1.68 2.16 2.4.71.87 1.19 1.47 1.74 2 .85.82 1.9 1.52 4.36 1.52 1.32 0 2-.22 2.35-.4.31-.14.5-.33.7-.62a9 9 0 0 0 .75-1.67c.27-.7.67-1.81 1.29-2.82a18.5 18.5 0 0 1 5.18-5.35Z"/><path stroke="#1a4379" stroke-linecap="round" stroke-width="6.68" d="M282.25 438.4c1.67-4.3 6.94-10.92 16.92-9.39"/><path fill="#5b95e2" stroke="#1f4d8b" stroke-width="6.68" d="M371.53 336.1c-9.22-2.92-7.96-12.06-6.5-14.82 2.19-4.15 8.53-9.82 17.02-6.07 9.76 4.32 19.73-2.05 25.17-6.62a1.7 1.7 0 0 1 2.46.25l9.83 12.76c.55.72.42 1.75-.29 2.31-21.86 17.34-36.39 15.77-47.7 12.19Z"/><path fill="#fffcfc" d="M424.88 318.76c1.37 1.25 2.28 1.28 3.76 1.28 2.06 0 10.27-.8 14.92-5.78 4.65-4.97 6.02-7.47 7-8.56 1.62-1.8 4.46-6.25 2.16-9.7s-6.14-2.67-8.24.23c1.5-3.33 2.52-7.32-.72-9.77-.91-.68-4.02-2.12-6.73 2.12 1.34-3.12.74-7.45-3.09-8.4-4.41-1.1-7.1 4.03-7.69 6.41-.6 2.39-1.56 2.25-3.75 1.91s-2-.31-2.24-1.75c-.22-1.44-1.98-8-7.46-6.7-6.75 1.62-3.15 9-2.7 11.32s2.66 11.54 2.5 13.81c-.12 1.82 8.14 9.82 12.28 13.58"/><path stroke="#3563a0" stroke-linecap="round" stroke-width="6.68" d="M431.89 297.86c.69-1.5 1.67-2.9 2.17-3.85s1.41-2.45 2.23-4.1c2.86-5.84 6.47-4.2 7.47-3.45 3.24 2.45 2.23 6.44.72 9.77-.42.93-1.52 2.6-2.15 3.44-.98 1.3-1.73 2.3-2.83 3.57m4.98-7c2.1-2.91 5.95-3.7 8.24-.24s-.55 7.9-2.16 9.7c-.98 1.09-2.35 3.59-7 8.56s-12.86 5.78-14.92 5.78c-1.48 0-2.39-.03-3.76-1.28-4.14-3.76-12.4-11.75-12.27-13.57.15-2.28-2.07-11.5-2.52-13.82-.44-2.33-4.04-9.7 2.71-11.31 5.48-1.31 7.24 5.25 7.46 6.69.24 1.44.05 1.41 2.24 1.75s3.16.48 3.75-1.9c.6-2.4 3.28-7.52 7.7-6.42 4.4 1.1 4.52 6.68 2.34 9.72"/><rect width="10.55" height="27.96" x=".36" y="-4.71" fill="#fff" stroke="#3563a0" stroke-width="6.68" rx="5.28" transform="rotate(139.42 150.24 228.62)scale(1 -1)"/><path fill="#323232" stroke="#212121" stroke-width="6.68" d="m194.74 153-82.5 30.18c-.84.3-1.3 1.2-1.02 2.06 14.12 42.7 43.23 130.17 50.66 150.4 9.4 25.57 57.77 84.76 144.6 52.72 67.73-25 84.87-94.49 74.95-124.24L325.09 107a1.67 1.67 0 0 0-2.12-1.02l-87.49 30.74a1.64 1.64 0 0 0-1.03 2.1c16.7 48.01 49.6 142.38 51.66 147.75 2.61 6.78 4.7 16.7-13.05 23.49-14.2 5.43-22.96-5.05-25.57-10.96l-50.6-145.08a1.67 1.67 0 0 0-2.15-1.02Z"/><path fill="#6e6e6e" stroke="#212121" stroke-width="6.68" d="m208.1 126.27-82.5 30.18c-.84.31-1.3 1.2-1.02 2.06 14.12 42.7 43.23 130.18 50.66 150.4 11.44 31.12 57.77 84.76 144.6 52.72 67.74-25 82.88-85.69 69.94-124.24L333.46 80.3a1.67 1.67 0 0 0-2.16-1l-82.49 30.69a1.65 1.65 0 0 0-1 2.09c16.66 47.87 47.63 135.89 51.67 147.77 2.51 7.4 4.44 18.26-13.05 23.5-14.57 4.35-23.03-4-25.58-10.97l-50.6-145.08a1.67 1.67 0 0 0-2.15-1.02Z"/><path fill="#df6133" stroke="#6d260d" stroke-width="6.68" d="m357.2 151.72-83.1 29.58c-.86.3-1.81-.14-2.13-1l-24.78-67.87c-.31-.86.12-1.81.98-2.14l83.22-31.6c.88-.34 1.86.12 2.17 1l24.66 69.9c.3.87-.15 1.82-1.01 2.13Z"/><path fill="#5b95e2" stroke="#11335f" stroke-width="6.68" d="m233.2 198.28-83.51 29.78a1.67 1.67 0 0 1-2.14-1.03l-23.5-68.33c-.3-.87.15-1.8 1-2.12l83.26-30.11c.88-.32 1.84.14 2.15 1.02l23.75 68.67c.3.86-.16 1.8-1.02 2.12Z"/><path fill="#28538c" stroke="#11335f" stroke-width="6.68" d="m135.36 249.83 12.32-19.81c.27-.42.33-.94.17-1.4l-22.94-69.78a.84.84 0 0 0-1.54-.1l-12.45 25.1c-.2.4-.22.86-.08 1.28l21.51 64.36a1.67 1.67 0 0 0 3 .35Z"/><path fill="#923615" stroke="#6d260d" stroke-width="6.68" d="m259.97 203.87 12.2-21.56c.23-.42.28-.93.11-1.39l-24.01-67.06a1.67 1.67 0 0 0-3.1-.11L234.8 137.2c-.17.38-.18.82-.05 1.21l22.18 65.18a1.67 1.67 0 0 0 3.04.28Z"/><path fill="#df6133" stroke="#923919" stroke-width="6.68" d="M220.93 384.17c8.28-5 4.91-13.59 2.85-15.93-3.1-3.52-10.6-7.55-17.97-1.91-8.48 6.49-19.66 2.63-26.02-.54a1.7 1.7 0 0 0-2.34.81l-6.56 14.72c-.37.82 0 1.8.82 2.18 25.32 11.73 39.07 6.8 49.22.67Z"/><path fill="#fffcfc" d="M164.77 379.98c-1.76 1.2-4.9 2.02-7.16 2.37-2.16.32-6.14 1.22-11.82-2.53s-7.6-5.85-8.81-6.68c-2-1.37-5.8-5.03-4.38-8.93s5.34-4.03 8.07-1.7c-2.25-2.89-4.17-6.53-1.59-9.66.73-.89 3.4-3.01 7.04.47-2.03-2.72-2.47-7.06 1.03-8.89 4.04-2.1 7.85 2.25 8.98 4.44 1.14 2.18 2.79 5.16 4.84 4.32s1.13-4.12 1.02-5.57c-.12-1.45.05-8.25 5.68-8.26 6.95-.02 5.18 8 5.29 10.36s.11 11.85.8 14.02c.53 1.71-5.42 11.13-8.6 15.85q-.15.24-.39.4"/><path stroke="#762b0f" stroke-linecap="round" stroke-width="6.68" d="M153.3 361.14c-1.03-1.3-2.31-2.43-3.02-3.24-.7-.8-1.95-2.04-3.13-3.46-4.15-5-7.27-2.56-8.07-1.6-2.58 3.14-.66 6.78 1.6 9.67.62.8 2.07 2.17 2.9 2.84 1.24 1.02 2.2 1.82 3.57 2.81m-6.48-5.65c-2.73-2.33-6.65-2.19-8.07 1.7-1.42 3.9 2.39 7.56 4.38 8.93 1.2.83 3.12 2.93 8.8 6.68 5.7 3.75 9.67 2.85 11.83 2.53 2.26-.35 5.4-1.18 7.16-2.37q.23-.15.39-.39c3.18-4.71 9.13-14.13 8.6-15.85-.69-2.17-.69-11.66-.8-14.02s1.66-10.38-5.29-10.36c-5.62.01-5.8 6.8-5.68 8.26.11 1.45 1.02 4.73-1.03 5.57s-3.69-2.14-4.83-4.32c-1.13-2.19-4.94-6.54-8.98-4.44s-2.84 7.55 0 10"/><rect width="10.55" height="27.96" x="175.6" y="359.16" fill="#fff" stroke="#762b0f" stroke-width="6.68" rx="5.28" transform="rotate(27.03 175.6 359.16)"/><path fill="#eda840" stroke="#a86f1a" stroke-linecap="round" stroke-width="6.68" d="m146.44 323.75 17.14-59.98a.84.84 0 0 0-.9-1.06l-35.09 3.6a.8.8 0 0 1-.7-.29l-17.26-19.55a.84.84 0 0 0-1.45.47l-4.7 44.99a.83.83 0 0 0 1 .9l31.06-6.68c.45-.1.9.18 1 .63l8.28 36.92c.2.84 1.38.88 1.62.05Zm-32.47 7.08 14.3-9.42a.84.84 0 0 1 1.27.9l-2.21 8.57c-.1.36.06.74.38.93l10.5 6.15c.5.3.55 1.02.07 1.38L120.33 353a.83.83 0 0 1-1.32-.88l3.42-12.98a.8.8 0 0 0-.31-.88l-8.19-6.05a.84.84 0 0 1 .04-1.37Z"/><circle cx="114.01" cy="309.98" r="6.89" fill="#eda840" stroke="#a86f1a" stroke-linecap="round" stroke-width="6.68"/><circle cx="168.3" cy="306.64" r="3.97" fill="#eda840" stroke="#a86f1a" stroke-linecap="round" stroke-width="6.68"/><path fill="#eda840" stroke="#a86f1a" stroke-linecap="round" stroke-width="6.68" d="m431 221.1 42.1-46.04a.83.83 0 0 0-.33-1.34l-33-12.45a.8.8 0 0 1-.52-.56l-6.72-25.2a.84.84 0 0 0-1.51-.23l-24.27 38.17a.84.84 0 0 0 .5 1.26l30.77 7.87c.45.11.72.56.6 1l-9.04 36.75c-.2.84.84 1.4 1.43.76Zm-32.15 17.03 7.48-23.24c.27-.84 1.47-.75 1.62.11l2.38 13.94c.07.4.42.69.82.69h11.83c.53 0 .93.5.81 1.01l-5.39 24.68a.84.84 0 0 1-1.59.13l-6.16-15.56a.8.8 0 0 0-.76-.53l-10.26-.14a.84.84 0 0 1-.78-1.1Z"/><circle cx="415.94" cy="198.07" r="6.89" fill="#eda840" stroke="#a86f1a" stroke-linecap="round" stroke-width="6.68"/><mask id="crests-demand-gen-path-33-inside-2_23_18817" fill="#fff"><path fill-rule="evenodd" d="M330.42 75.5a5 5 0 0 1 6.2 2.85l.1.24 19.74 55.97 36.47 101.7v.04l.02.03c7.37 21.97 5.95 50.65-8.23 76.33 3.44 1.11 6.97.7 10.38-.56 1.94-.72 3.79-1.7 5.47-2.76a8.6 8.6 0 0 1 2.66-6.98l.32-.3a8.6 8.6 0 0 1 4.96-2.04l-.2-1.05c-.56-2.7-1.28-5.83-1.5-6.98l-.2-.75-.45-1.49a19 19 0 0 1-.75-4.14 9 9 0 0 1 1.24-5.22 8.4 8.4 0 0 1 5.38-3.58c2.08-.5 4-.27 5.67.53a9.3 9.3 0 0 1 3.55 3.13 15 15 0 0 1 2.02 4.43 15 15 0 0 1 2.9-5.05c1.78-1.98 4.74-3.87 8.58-2.91 3.11.77 5 2.96 5.8 5.43l.29-.03c2.27-.15 4.06.8 4.93 1.46a8.5 8.5 0 0 1 3.46 6.59 8 8 0 0 1 6.27 3.76c1.96 2.94 1.57 6.14.76 8.44a17 17 0 0 1-3.22 5.35c-.1.12-.28.34-.63.83q-.49.68-1.31 1.77a75 75 0 0 1-5.1 6c-2.9 3.11-6.77 4.78-9.95 5.7a30 30 0 0 1-7.09 1.14 8.62 8.62 0 0 1-11.91 6.36c-9.44 6.76-17.7 10.15-25.07 11.4-8.36 1.43-15.3.07-21.18-1.77a120 120 0 0 1-32.12 35.51v28.84c1.92.44 5.2 1.31 7.78 3.63a14 14 0 0 1 4.14 7.3c1.88.5 3.88 1.2 5.85 2.08 4.42 2.02 9.54 5.44 12.82 10.94 3.25 5.45 4.97 10.1 5.53 14.66.56 4.5-.1 8.4-.73 11.87q-.19 1.02-.49 2.05.9.87 1.64 1.87a10 10 0 0 1 2.08 6.64c-.54 6.7-5.48 12.6-12.06 15.8-6.7 3.27-15.44 3.98-24.33.14a151 151 0 0 1-12.36-6.4q.19 1.04.1 2.15c-.54 6.7-5.48 12.6-12.06 15.8-6.7 3.27-15.44 3.99-24.33.14-9.76-4.22-33-18.52-44.25-25.3-1.14-.7-3.63-2.08-5.54-3.89-1.86-1.75-4.23-4.92-2.77-8.94a9 9 0 0 1 2.66-3.94 8 8 0 0 1 1.32-.87 77 77 0 0 1-.19-8.6c.07-3.24.19-5.29.19-6.21 0-2.16.82-4.2 1.42-5.46a21 21 0 0 1 2.9-4.48 13 13 0 0 1 5.33-3.9q.49-.19 1-.32v-19.57a108 108 0 0 1-41-9.36 41 41 0 0 1-11.1 2.31c-7.47.51-16.28-.85-27.05-5.21a8.6 8.6 0 0 1-13.25-3.85c-1.39.4-2.74.68-3.82.85-.97.14-2.95.54-5.43.28a19.4 19.4 0 0 1-8.73-3.32 75 75 0 0 1-6.36-4.64l-1.69-1.42a11 11 0 0 0-.81-.66 17 17 0 0 1-4.38-4.45c-1.33-2.04-2.46-5.06-1.25-8.38a8 8 0 0 1 5.22-5.12 8.5 8.5 0 0 1 1.82-7.22 7.5 7.5 0 0 1 4.74-2.61 8 8 0 0 1 4.37-6.64c3.5-1.83 6.83-.69 9.01.82a15 15 0 0 1 4.01 4.23c.05-1.27.26-3.05.93-4.78q.27-.68.65-1.38a55 55 0 0 1-1.47-3.58c-1.51-4.12-3.92-11.01-6.91-19.74l-2.18 7.62c-1.19 4.16-7.14 3.99-8.09-.23l-7.74-34.5-28.63 6.16a4.18 4.18 0 0 1-5.03-4.51l4.7-44.99.02-.17a4.18 4.18 0 0 1 7.26-2.16l16.4 18.59 4.81-.5-3.51-10.51a5 5 0 0 1-.65-1.3l-21.52-64.37a5 5 0 0 1 .26-3.81l12.44-25.11.08-.16c.34-.62.6-1.35 1.03-1.85.73-.87 1.8-1.5 2.98-1.93l82.5-30.18.24-.08c1.9-.59 3.9.02 5.17 1.4q.84.8 1.25 1.96l16.23 46.93L264 271.22c1.03 2.83 3.3 6 6.79 7.97 2.48 1.41 5.26 2.92 9.83 1.91-4.72-13.3-15.44-43.98-26.45-75.57a5 5 0 0 1-.39-.87l-3.4-9.97-19.07-54.78a4.9 4.9 0 0 1 .65-4.53l10.16-22.98.1-.2c.55-1.15.57-2.2 1.57-3.08.85-.92 2.46-1.75 3.87-2.27l47.1-17.53 35.43-13.73zm-25.15 316.84a162 162 0 0 1-17.33 5.08v17.56l.69.11.44.1.7.16c1.07.24 2.68.63 4.37 1.37a21 21 0 0 1 2.51-3.71c1.12-1.3 2.9-3.01 5.33-3.91a10 10 0 0 1 3.3-.6z" clip-rule="evenodd"/><path d="M126.44 318.62c3.2-2.1 7.3.83 6.34 4.53l-1.75 6.73 8.86 5.2a4.18 4.18 0 0 1 .42 6.92l-17.96 13.65a4.18 4.18 0 0 1-6.57-4.39l2.98-11.33-6.82-5.04a4.18 4.18 0 0 1 .19-6.85zm-12.43-18.87a10.23 10.23 0 1 1 0 20.46 10.23 10.23 0 0 1 0-20.46m289.14-85.89c1.34-4.16 7.36-3.73 8.1.58l2.01 11.85h9.72a4.18 4.18 0 0 1 4.08 5.06l-5.4 24.68a4.18 4.18 0 0 1-7.95.65l-5.55-14-8.57-.12a4.18 4.18 0 0 1-3.92-5.46zm25.15-80.51c2-2.9 6.54-2.16 7.46 1.3l6.39 23.95 31.8 11.99a4.18 4.18 0 0 1 1.61 6.72l-42.09 46.03c-2.92 3.2-8.17.39-7.14-3.81l8.46-34.33-28.37-7.26a4.18 4.18 0 0 1-2.49-6.28l24.27-38.17z"/><path d="M415.94 187.84a10.23 10.23 0 1 1 0 20.46 10.23 10.23 0 0 1 0-20.47"/></mask><path stroke="#000" stroke-linecap="round" stroke-linejoin="round" stroke-width="13.36" d="M330.42 75.5a5 5 0 0 1 6.2 2.85l.1.24 19.74 55.97 36.47 101.7v.04l.02.03c7.37 21.97 5.95 50.65-8.23 76.33 3.44 1.11 6.97.7 10.38-.56 1.94-.72 3.79-1.7 5.47-2.76a8.6 8.6 0 0 1 2.66-6.98l.32-.3a8.6 8.6 0 0 1 4.96-2.04l-.2-1.05c-.56-2.7-1.28-5.83-1.5-6.98l-.2-.75-.45-1.49a19 19 0 0 1-.75-4.14 9 9 0 0 1 1.24-5.22 8.4 8.4 0 0 1 5.38-3.58c2.08-.5 4-.27 5.67.53a9.3 9.3 0 0 1 3.55 3.13 15 15 0 0 1 2.02 4.43 15 15 0 0 1 2.9-5.05c1.78-1.98 4.74-3.87 8.58-2.91 3.11.77 5 2.96 5.8 5.43l.29-.03c2.27-.15 4.06.8 4.93 1.46a8.5 8.5 0 0 1 3.46 6.59 8 8 0 0 1 6.27 3.76c1.96 2.94 1.57 6.14.76 8.44a17 17 0 0 1-3.22 5.35c-.1.12-.28.34-.63.83q-.49.68-1.31 1.77a75 75 0 0 1-5.1 6c-2.9 3.11-6.77 4.78-9.95 5.7a30 30 0 0 1-7.09 1.14 8.62 8.62 0 0 1-11.91 6.36c-9.44 6.76-17.7 10.15-25.07 11.4-8.36 1.43-15.3.07-21.18-1.77a120 120 0 0 1-32.12 35.51v28.84c1.92.44 5.2 1.31 7.78 3.63a14 14 0 0 1 4.14 7.3c1.88.5 3.88 1.2 5.85 2.08 4.42 2.02 9.54 5.44 12.82 10.94 3.25 5.45 4.97 10.1 5.53 14.66.56 4.5-.1 8.4-.73 11.87q-.19 1.02-.49 2.05.9.87 1.64 1.87a10 10 0 0 1 2.08 6.64c-.54 6.7-5.48 12.6-12.06 15.8-6.7 3.27-15.44 3.98-24.33.14a151 151 0 0 1-12.36-6.4q.19 1.04.1 2.15c-.54 6.7-5.48 12.6-12.06 15.8-6.7 3.27-15.44 3.99-24.33.14-9.76-4.22-33-18.52-44.25-25.3-1.14-.7-3.63-2.08-5.54-3.89-1.86-1.75-4.23-4.92-2.77-8.94a9 9 0 0 1 2.66-3.94 8 8 0 0 1 1.32-.87 77 77 0 0 1-.19-8.6c.07-3.24.19-5.29.19-6.21 0-2.16.82-4.2 1.42-5.46a21 21 0 0 1 2.9-4.48 13 13 0 0 1 5.33-3.9q.49-.19 1-.32v-19.57a108 108 0 0 1-41-9.36 41 41 0 0 1-11.1 2.31c-7.47.51-16.28-.85-27.05-5.21a8.6 8.6 0 0 1-13.25-3.85c-1.39.4-2.74.68-3.82.85-.97.14-2.95.54-5.43.28a19.4 19.4 0 0 1-8.73-3.32 75 75 0 0 1-6.36-4.64l-1.69-1.42a11 11 0 0 0-.81-.66 17 17 0 0 1-4.38-4.45c-1.33-2.04-2.46-5.06-1.25-8.38a8 8 0 0 1 5.22-5.12 8.5 8.5 0 0 1 1.82-7.22 7.5 7.5 0 0 1 4.74-2.61 8 8 0 0 1 4.37-6.64c3.5-1.83 6.83-.69 9.01.82a15 15 0 0 1 4.01 4.23c.05-1.27.26-3.05.93-4.78q.27-.68.65-1.38a55 55 0 0 1-1.47-3.58c-1.51-4.12-3.92-11.01-6.91-19.74l-2.18 7.62c-1.19 4.16-7.14 3.99-8.09-.23l-7.74-34.5-28.63 6.16a4.18 4.18 0 0 1-5.03-4.51l4.7-44.99.02-.17a4.18 4.18 0 0 1 7.26-2.16l16.4 18.59 4.81-.5-3.51-10.51a5 5 0 0 1-.65-1.3l-21.52-64.37a5 5 0 0 1 .26-3.81l12.44-25.11.08-.16c.34-.62.6-1.35 1.03-1.85.73-.87 1.8-1.5 2.98-1.93l82.5-30.18.24-.08c1.9-.59 3.9.02 5.17 1.4q.84.8 1.25 1.96l16.23 46.93L264 271.22c1.03 2.83 3.3 6 6.79 7.97 2.48 1.41 5.26 2.92 9.83 1.91-4.72-13.3-15.44-43.98-26.45-75.57a5 5 0 0 1-.39-.87l-3.4-9.97-19.07-54.78a4.9 4.9 0 0 1 .65-4.53l10.16-22.98.1-.2c.55-1.15.57-2.2 1.57-3.08.85-.92 2.46-1.75 3.87-2.27l47.1-17.53 35.43-13.73zm-25.15 316.84a162 162 0 0 1-17.33 5.08v17.56l.69.11.44.1.7.16c1.07.24 2.68.63 4.37 1.37a21 21 0 0 1 2.51-3.71c1.12-1.3 2.9-3.01 5.33-3.91a10 10 0 0 1 3.3-.6z" clip-rule="evenodd" mask="url(#crests-demand-gen-path-33-inside-2_23_18817)"/><path stroke="#000" stroke-linecap="round" stroke-linejoin="round" stroke-width="13.36" d="M126.44 318.62c3.2-2.1 7.3.83 6.34 4.53l-1.75 6.73 8.86 5.2a4.18 4.18 0 0 1 .42 6.92l-17.96 13.65a4.18 4.18 0 0 1-6.57-4.39l2.98-11.33-6.82-5.04a4.18 4.18 0 0 1 .19-6.85z" mask="url(#crests-demand-gen-path-33-inside-2_23_18817)"/><path stroke="#000" stroke-linecap="round" stroke-linejoin="round" stroke-width="13.36" d="M114.01 299.75a10.23 10.23 0 1 1 0 20.46 10.23 10.23 0 0 1 0-20.46" mask="url(#crests-demand-gen-path-33-inside-2_23_18817)"/><path stroke="#000" stroke-linecap="round" stroke-linejoin="round" stroke-width="13.36" d="M403.15 213.86c1.34-4.16 7.36-3.73 8.1.58l2.01 11.85h9.72a4.18 4.18 0 0 1 4.08 5.06l-5.4 24.68a4.18 4.18 0 0 1-7.95.65l-5.55-14-8.57-.12a4.18 4.18 0 0 1-3.92-5.46z" mask="url(#crests-demand-gen-path-33-inside-2_23_18817)"/><path stroke="#000" stroke-linecap="round" stroke-linejoin="round" stroke-width="13.36" d="M428.3 133.35c2-2.9 6.54-2.16 7.46 1.3l6.39 23.95 31.8 11.99a4.18 4.18 0 0 1 1.61 6.72l-42.09 46.03c-2.92 3.2-8.17.39-7.14-3.81l8.46-34.33-28.37-7.26a4.18 4.18 0 0 1-2.49-6.28l24.27-38.17z" mask="url(#crests-demand-gen-path-33-inside-2_23_18817)"/><path stroke="#000" stroke-linecap="round" stroke-linejoin="round" stroke-width="13.36" d="M415.94 187.84a10.23 10.23 0 1 1 0 20.46 10.23 10.23 0 0 1 0-20.47" mask="url(#crests-demand-gen-path-33-inside-2_23_18817)"/></g><circle cx="314.99" cy="307.77" r="23.72" fill="#fff" stroke="#000" stroke-width="6" transform="rotate(-15.26 315 307.77)"/><path fill="#000" d="M311.55 292.47a16.37 16.37 0 0 1 14.77 28.39l-9.72-7.87-3.22 11.46a16.37 16.37 0 0 1-1.83-31.98"/><circle cx="282.1" cy="316.75" r="23.72" fill="#fff" stroke="#000" stroke-width="6" transform="rotate(-15.26 282.1 316.75)"/><path fill="#000" d="M278.66 301.45a16.37 16.37 0 0 1 14.77 28.38l-9.72-7.87-3.22 11.46a16.37 16.37 0 0 1-1.83-31.97"/><path fill="#6e6e6e" d="m250.22 297.01 82.67-22.55 3.83 14.04-82.67 22.56z"/><path fill="#5b94e1" stroke="#0b3d81" stroke-width="6.68" d="M337.54 284.12c2.97-.8 6.08.61 7.44 3.34l.13.27.14.34a6.44 6.44 0 0 1-4.33 8.49l-84.7 23.1a6.56 6.56 0 0 1-8.28-6.64l.02-.27a6.6 6.6 0 0 1 4.83-5.75z"/><path fill="#df6133" stroke="#632610" stroke-width="6.68" d="M262.92 346.63c4.6 7.08 19.42 8.87 26.25 8.87 15.02-1.43 18.3-6.1 19.29-6.96 1.04-.92 8.69-6.75 4.6-13.56-4.08-6.8-12.17-3.5-13.06-2.78-.9.71-11.79 7.67-21.09 2.3s-14.33-1.58-15.04-1.17c-.72.41-6.72 4.45-.95 13.3Z"/><path stroke="#5d2e1b" stroke-linecap="round" stroke-width="5" d="M272.3 342.79c12.28 4.18 19.64 5.12 31.02-1.87"/><defs><filter id="crests-demand-gen-filter0_d_23_18817" width="412.92" height="456.15" x="81.94" y="61.04" color-interpolation-filters="sRGB" filterUnits="userSpaceOnUse"><feFlood flood-opacity="0" result="BackgroundImageFix"/><feColorMatrix in="SourceAlpha" result="hardAlpha" values="0 0 0 0 0 0 0 0 0 0 0 0 0 0 0 0 0 0 127 0"/><feOffset dy="4"/><feGaussianBlur stdDeviation="2"/><feComposite in2="hardAlpha" operator="out"/><feColorMatrix values="0 0 0 0 0 0 0 0 0 0 0 0 0 0 0 0 0 0 0.25 0"/><feBlend in2="BackgroundImageFix" result="effect1_dropShadow_23_18817"/><feBlend in="SourceGraphic" in2="effect1_dropShadow_23_18817" result="shape"/></filter><filter id="crests-demand-gen-filter1_d_23_18817" width="416.92" height="460.15" x="85.94" y="61.04" color-interpolation-filters="sRGB" filterUnits="userSpaceOnUse"><feFlood flood-opacity="0" result="BackgroundImageFix"/><feColorMatrix in="SourceAlpha" result="hardAlpha" values="0 0 0 0 0 0 0 0 0 0 0 0 0 0 0 0 0 0 127 0"/><feOffset dx="12" dy="12"/><feComposite in2="hardAlpha" operator="out"/><feColorMatrix values="0 0 0 0 0 0 0 0 0 0 0 0 0 0 0 0 0 0 0.4 0"/><feBlend in2="BackgroundImageFix" result="effect1_dropShadow_23_18817"/><feBlend in="SourceGraphic" in2="effect1_dropShadow_23_18817" result="shape"/></filter></defs></svg>