<svg xmlns="http://www.w3.org/2000/svg" fill="none" viewBox="0 0 600 600"><g filter="url(#crests-error-tracking-filter0_d_23_2289)"><mask id="crests-error-tracking-path-1-outside-1_23_2289" width="437" height="400" x="92" y="96" fill="#000" maskUnits="userSpaceOnUse"><path fill="#fff" d="M92 96h437v400H92z"/><path d="M256.83 126.72c7.34-13.74 25.67-16.74 39.4-10.87 4.18 1.52 13.77 10.83 14.84 17.33 7.3 13.52 14.74 26.97 22.13 40.41a7651 7651 0 0 0 24.1 43.5l5.58 9.94c1.05 1.86 2.05 3.75 3.15 5.6 4.93-.24 9.87-.4 14.8.1q1.7.06 3.4 0c3.59-.08 7.04-.15 9.84 2.53 3.08 3.28 3.38 8.73 1.76 12.78a9 9 0 0 1-2.33 3.4c-.52 5.88-3.03 15.1-6.45 19.48q.91 1.78 1.85 3.54l5.19 9.48q2.5 4.59 5.04 9.14l1.71 3.1a3 3 0 0 1 1.38.88c1.65.31 3.29.65 4.97.07 4.3-1.62 8.75-4.92 10.06-9.5l.08-.67c-5.83-2.86-7.36-11.11-4.55-16.73a8.6 8.6 0 0 1 3.9-4.23c.48-3.04 2-6.37 3.19-8.02 2.95-4.82 8.7-6.73 14.12-6.9a63 63 0 0 1-17-6.53 64 64 0 0 1-29.1-34.98 65.6 65.6 0 0 1-.43-40.72q.04-.15.1-.29v-.1a66 66 0 0 1 11.38-20.72 64 64 0 0 1 18.7-15.44 61 61 0 0 1 15.15-5.86 3.5 3.5 0 0 1 1.4-.48c1.54-.2 3.08-.55 4.63-.77q2.81-.4 5.67-.56 1.6-.1 3.23-.14c.77 0 1.69-.1 2.48.12a64 64 0 0 1 18.67 3.69 64 64 0 0 1 32.09 25.62 66 66 0 0 1 8.42 20.19c1.85 7.98 2.2 16.5.86 24.6a66 66 0 0 1-7.62 21.72 63.7 63.7 0 0 1-32.16 27.8c8.63 9.96-.88 26.94-12.74 30.35.16 3.96-1.53 8.38-5.36 10-.04 6.06-1.67 11.98-3.62 17.67-4.6 12.69-14.43 22.94-27.36 27.24-1.3.38-3 1.08-4.66 1.55a25 25 0 0 1-2.85 6.76 49 49 0 0 1-8.71 10.5 42 42 0 0 1-11.9 7.91q-2.1.9-4.36 1.3-.86.16-1.81.19-.34.25-.72.4h-.1q-.82.02-1.68.09-.2 0-.39.02c-2.3-.12-4.6-.05-6.87-.05q-5.65 0-11.3.08l-24.26.31-6.04.1 2.63 4.72q1.69 3.01 3.35 6.03l1 1.77q.44-.01.86.02c3.37-.05 5.16 3.52 6.3 6.05 4.43 6.76 8.24 13.87 12 21.04a9 9 0 0 1 3.75-.92c3.23-8.7 11.48-15.68 20.84-16.64 6-.68 12.96-.42 18.3 2.67 1.37-.5 2.87-.8 4.14-1.2 7.31-.96 11.94 6.2 14.19 12.2 2.84 11.54-.9 23.91-7.55 33.44-5.7 8.9-12.28 17.3-20.49 24.03-11.81 8.95-31.98 20.98-47.13 18.28l-.05.05c-7.67-1.22-13.64-9.35-10.81-16.81-1.41-2.18-2.93-4.3-4.27-6.54a7 7 0 0 1-1.47-2.75c-4-.92-4.35-8.2-2.8-11.77-3.96-4.86-7.77-10.17-11.59-14.93-5.16-6.56-11.26-14.33-9.55-23.23-6.67-12.1-14.15-23.72-21.16-35.6l-.38-.19q-.9-.08-1.81-.06h.38q-2.26.05-4.48.13c-2.66 4.36-9.05 5.3-13.12 2.46 1.66 4.17 3.47 8.32 3.04 12.95-.87 9-4.25 17.63-7.03 26.17 2 4.2-1.1 8.06-2.87 11.7 2.49.94 3.4 3.62 3.24 6.08 13.31-1.54 24.58 10.33 25.95 22.97 10.06.21 10.88 12.52 6.7 19.39a17.5 17.5 0 0 1-4.84 5.78c-3.15 4.17-16.65 6.5-19.98 7.29a131 131 0 0 1-17.9 1.28q-5.75 0-11.53-.58v.07c-18.7-2.92-40.26-9.05-51.24-25.55q-.36-1.2-.68-2.38c-.3-1.04-.72-2.08-.98-3.12v-.07q-.25-1.26-.46-2.53-.03-.58-.1-1.16c-.02-.77-.07-1.54-.05-2.32q0-.98.07-1.98l.02-.52.05-.68v-.12h.01l.01-.14q.24-.66.39-1.38.04-.27.05-.53c1.47-4.8 5.2-9.1 9.79-10.3 2.68-5.16 3.93-12.54 9.67-15.1 2.8-6.32 5.87-12.52 8.9-18.72 1.5-2.99 2.66-6.87 5.99-8.25l-.08.34c2.15-7.75-.37-15.79-2-23.51-6.6.26-13.28.04-19.88.18-15.63-1.06-33.63.67-45.9-10.9-18.73-17.88-1.96-43.86 8.87-61.35 1.66-2.94 3.5-5.84 4.97-8.9l.1-.22c-.28-1.8-.1-3.83-.05-5.42 0-8.27 2.63-16.94 6.25-24.22a53.5 53.5 0 0 1 18.74-23.86c1.18-.79 2.64-1.86 4.12-2.52.82-2.03 2.39-4.08 3.07-6.04.94-2 2.04-3.91 3.06-5.85l-1.42-3.28a31.6 31.6 0 0 0-12.38 8.87c-7.21 8.32-11 19-18.3 27.23-7.97 7.31-17.98 15-29.46 12.7l.02-.03c-33.38-7.6-39.24-39.66-26.6-67.74 5.45-11.77 13.65-22.02 22.65-31.26 9.84-10.17 19.85-19.86 31.7-27.3.9-5 7.22-8.42 12.18-8.02 2.17 0 5 .4 5.43 2.97q.12.51.07 1.01c6.14 13.8 12.49 27.52 18.78 41.27l8.38 18.24q1.81 3.97 3.66 7.94 1.04-1.76 2.03-3.54 2.59-4.68 5.21-9.32 5.41-9.51 10.76-19.08c5.8-10.34 11.63-20.67 17.4-31.07l1.15-2.07q.09-.23.22-.44l.34-.53q.31-.4.71-.72m138.21 319.14c-4.7 4.32-9.83 8.16-14.98 11.45 5.1-3.09 9.47-6.32 12.03-8.74q1.53-1.3 2.95-2.7M208.92 419.6a66 66 0 0 0-1.84 3.81 65 65 0 0 1 2.28-3.63q-.23-.08-.44-.18m46.38-11.91c-.37 1.38-.95 2.75-1.5 4.1.64-1.26 1.3-2.48 1.86-3.55a4 4 0 0 1-.36-.55m-32.43-11.87q1.03-1.71 2.16-3.37l-.37-.26zm8.45-20.2v.3l.02-.22-.03-.42z"/></mask><path fill="#fff" d="M256.83 126.72c7.34-13.74 25.67-16.74 39.4-10.87 4.18 1.52 13.77 10.83 14.84 17.33 7.3 13.52 14.74 26.97 22.13 40.41a7651 7651 0 0 0 24.1 43.5l5.58 9.94c1.05 1.86 2.05 3.75 3.15 5.6 4.93-.24 9.87-.4 14.8.1q1.7.06 3.4 0c3.59-.08 7.04-.15 9.84 2.53 3.08 3.28 3.38 8.73 1.76 12.78a9 9 0 0 1-2.33 3.4c-.52 5.88-3.03 15.1-6.45 19.48q.91 1.78 1.85 3.54l5.19 9.48q2.5 4.59 5.04 9.14l1.71 3.1a3 3 0 0 1 1.38.88c1.65.31 3.29.65 4.97.07 4.3-1.62 8.75-4.92 10.06-9.5l.08-.67c-5.83-2.86-7.36-11.11-4.55-16.73a8.6 8.6 0 0 1 3.9-4.23c.48-3.04 2-6.37 3.19-8.02 2.95-4.82 8.7-6.73 14.12-6.9a63 63 0 0 1-17-6.53 64 64 0 0 1-29.1-34.98 65.6 65.6 0 0 1-.43-40.72q.04-.15.1-.29v-.1a66 66 0 0 1 11.38-20.72 64 64 0 0 1 18.7-15.44 61 61 0 0 1 15.15-5.86 3.5 3.5 0 0 1 1.4-.48c1.54-.2 3.08-.55 4.63-.77q2.81-.4 5.67-.56 1.6-.1 3.23-.14c.77 0 1.69-.1 2.48.12a64 64 0 0 1 18.67 3.69 64 64 0 0 1 32.09 25.62 66 66 0 0 1 8.42 20.19c1.85 7.98 2.2 16.5.86 24.6a66 66 0 0 1-7.62 21.72 63.7 63.7 0 0 1-32.16 27.8c8.63 9.96-.88 26.94-12.74 30.35.16 3.96-1.53 8.38-5.36 10-.04 6.06-1.67 11.98-3.62 17.67-4.6 12.69-14.43 22.94-27.36 27.24-1.3.38-3 1.08-4.66 1.55a25 25 0 0 1-2.85 6.76 49 49 0 0 1-8.71 10.5 42 42 0 0 1-11.9 7.91q-2.1.9-4.36 1.3-.86.16-1.81.19-.34.25-.72.4h-.1q-.82.02-1.68.09-.2 0-.39.02c-2.3-.12-4.6-.05-6.87-.05q-5.65 0-11.3.08l-24.26.31-6.04.1 2.63 4.72q1.69 3.01 3.35 6.03l1 1.77q.44-.01.86.02c3.37-.05 5.16 3.52 6.3 6.05 4.43 6.76 8.24 13.87 12 21.04a9 9 0 0 1 3.75-.92c3.23-8.7 11.48-15.68 20.84-16.64 6-.68 12.96-.42 18.3 2.67 1.37-.5 2.87-.8 4.14-1.2 7.31-.96 11.94 6.2 14.19 12.2 2.84 11.54-.9 23.91-7.55 33.44-5.7 8.9-12.28 17.3-20.49 24.03-11.81 8.95-31.98 20.98-47.13 18.28l-.05.05c-7.67-1.22-13.64-9.35-10.81-16.81-1.41-2.18-2.93-4.3-4.27-6.54a7 7 0 0 1-1.47-2.75c-4-.92-4.35-8.2-2.8-11.77-3.96-4.86-7.77-10.17-11.59-14.93-5.16-6.56-11.26-14.33-9.55-23.23-6.67-12.1-14.15-23.72-21.16-35.6l-.38-.19q-.9-.08-1.81-.06h.38q-2.26.05-4.48.13c-2.66 4.36-9.05 5.3-13.12 2.46 1.66 4.17 3.47 8.32 3.04 12.95-.87 9-4.25 17.63-7.03 26.17 2 4.2-1.1 8.06-2.87 11.7 2.49.94 3.4 3.62 3.24 6.08 13.31-1.54 24.58 10.33 25.95 22.97 10.06.21 10.88 12.52 6.7 19.39a17.5 17.5 0 0 1-4.84 5.78c-3.15 4.17-16.65 6.5-19.98 7.29a131 131 0 0 1-17.9 1.28q-5.75 0-11.53-.58v.07c-18.7-2.92-40.26-9.05-51.24-25.55q-.36-1.2-.68-2.38c-.3-1.04-.72-2.08-.98-3.12v-.07q-.25-1.26-.46-2.53-.03-.58-.1-1.16c-.02-.77-.07-1.54-.05-2.32q0-.98.07-1.98l.02-.52.05-.68v-.12h.01l.01-.14q.24-.66.39-1.38.04-.27.05-.53c1.47-4.8 5.2-9.1 9.79-10.3 2.68-5.16 3.93-12.54 9.67-15.1 2.8-6.32 5.87-12.52 8.9-18.72 1.5-2.99 2.66-6.87 5.99-8.25l-.08.34c2.15-7.75-.37-15.79-2-23.51-6.6.26-13.28.04-19.88.18-15.63-1.06-33.63.67-45.9-10.9-18.73-17.88-1.96-43.86 8.87-61.35 1.66-2.94 3.5-5.84 4.97-8.9l.1-.22c-.28-1.8-.1-3.83-.05-5.42 0-8.27 2.63-16.94 6.25-24.22a53.5 53.5 0 0 1 18.74-23.86c1.18-.79 2.64-1.86 4.12-2.52.82-2.03 2.39-4.08 3.07-6.04.94-2 2.04-3.91 3.06-5.85l-1.42-3.28a31.6 31.6 0 0 0-12.38 8.87c-7.21 8.32-11 19-18.3 27.23-7.97 7.31-17.98 15-29.46 12.7l.02-.03c-33.38-7.6-39.24-39.66-26.6-67.74 5.45-11.77 13.65-22.02 22.65-31.26 9.84-10.17 19.85-19.86 31.7-27.3.9-5 7.22-8.42 12.18-8.02 2.17 0 5 .4 5.43 2.97q.12.51.07 1.01c6.14 13.8 12.49 27.52 18.78 41.27l8.38 18.24q1.81 3.97 3.66 7.94 1.04-1.76 2.03-3.54 2.59-4.68 5.21-9.32 5.41-9.51 10.76-19.08c5.8-10.34 11.63-20.67 17.4-31.07l1.15-2.07q.09-.23.22-.44l.34-.53q.31-.4.71-.72m138.21 319.14c-4.7 4.32-9.83 8.16-14.98 11.45 5.1-3.09 9.47-6.32 12.03-8.74q1.53-1.3 2.95-2.7M208.92 419.6a66 66 0 0 0-1.84 3.81 65 65 0 0 1 2.28-3.63q-.23-.08-.44-.18m46.38-11.91c-.37 1.38-.95 2.75-1.5 4.1.64-1.26 1.3-2.48 1.86-3.55a4 4 0 0 1-.36-.55m-32.43-11.87q1.03-1.71 2.16-3.37l-.37-.26zm8.45-20.2v.3l.02-.22-.03-.42z"/><path fill="#fff" d="m256.83 126.72 10.3 13.52a17 17 0 0 0 4.7-5.52zm39.4-10.87-6.68 15.63.86.34zm14.84 17.33-16.78 2.75q.46 2.8 1.82 5.33zm22.13 40.41-14.9 8.2zm24.1 43.5 14.85-8.28zm5.58 9.94-14.82 8.33.01.02zm3.15 5.6-14.6 8.7a17 17 0 0 0 15.42 8.27zm14.8.1-1.7 16.91q.48.05.97.07zm3.4 0-.35-17-.38.01zm9.84 2.53 12.38-11.65q-.3-.33-.63-.64zm1.76 12.78-15.8-6.3-.29.81zm-2.33 3.4-11.9-12.14a17 17 0 0 0-5.04 10.64zm-6.45 19.48-13.4-10.47a17 17 0 0 0-1.7 18.27zm1.85 3.54-14.94 8.1.05.08zm5.19 9.48 14.94-8.12-.04-.07zm5.04 9.14 14.87-8.24v-.02zm1.71 3.1-14.83 8.31a17 17 0 0 0 9.97 7.98zm1.38.88-12.6 11.43a17 17 0 0 0 9.47 5.28zm4.97.07 5.6 16.05.39-.14zm10.06-9.5 16.35 4.64q.27-.94.42-1.9zm.08-.67 16.9 1.94a17 17 0 0 0-9.41-17.2zm-4.55-16.73 15.2 7.6q.3-.57.54-1.18zm3.9-4.23 7.94 15.04a17 17 0 0 0 8.86-12.39zm3.19-8.02 13.78 9.95q.38-.52.72-1.07zm14.12-6.9.5 17a17 17 0 0 0 3.22-33.58zm-17-6.53 8.3-14.84h-.01zm-29.1-34.98-16.1 5.45v.01zm-.43-40.72 16.2 5.14.3-1.02zm.1-.29 16.49 4.12a17 17 0 0 0 .5-4.12zm0-.1-16.1-5.46q-.9 2.65-.9 5.47zm11.38-20.72 13.13 10.81.01-.02zm18.7-15.44 8.22 14.89.03-.02zm15.15-5.86 4.01 16.52q2.51-.61 4.73-1.94zm1.2-.45v-17q-1.4 0-2.8.23zm.2-.03-2.11-16.87q-2.88.36-5.5 1.66zm4.63-.77 2.37 16.83zm5.67-.56.86 16.98.27-.01zm3.23-.14v-17h-.38zm2.48.12-4.47 16.4q1.81.5 3.7.58zm18.67 3.69 5.75-16h-.02zM496 147.16l13-10.95-.03-.03zm4.97 6.76 14.4-9.04-.04-.05zm8.42 20.19-16.56 3.85zm.86 24.6 16.78 2.76v-.01zm-7.62 21.72 14.82 8.33zm-14.9 17.7-10.83-13.1h-.01zm-17.26 10.1-6.14-15.85a17 17 0 0 0-6.7 27zm-12.74 30.35-4.7-16.34a17 17 0 0 0-12.29 17.05zm-5.36 10-6.63-15.66a17 17 0 0 0-10.37 15.56zm-3.62 17.67 15.98 5.8.1-.27zm-27.36 27.24 4.79 16.3q.3-.07.57-.17zm-4.66 1.55-4.54-16.39a17 17 0 0 0-11.97 12.31zm-2.85 6.76 14.55 8.8.06-.1zm-8.71 10.5-11.52-12.5-.02.01zm-11.9 7.91-6.66-15.64-.06.03zm-4.36 1.3 2.89 16.76.08-.02zm-1.81.19-.55-17a17 17 0 0 0-9.24 3.1zm-.72.4v17a17 17 0 0 0 6.23-1.2zm-.1 0v-17h-.73zm-1.68.09v17q.7 0 1.4-.06zm-.39.02-.9 16.98q2.14.1 4.23-.3zm-6.87-.05v-17zm-11.3.08.2 17h.02zm-24.26.31-.2-17h-.09zm-6.04.1-.29-17a17 17 0 0 0-14.56 25.28zm2.63 4.72-14.88 8.23.09.15zm3.35 6.03-14.87 8.24.19.33zm1 1.77-14.77 8.41a17 17 0 0 0 15.44 8.58zm.86.02-1.45 16.94q.84.06 1.69.06zm6.3 6.05-15.52 6.95a17 17 0 0 0 1.3 2.39zm12 21.04-15.04 7.9a17 17 0 0 0 22.15 7.54zm3.75-.92.31 17a17 17 0 0 0 15.62-11.08zm20.84-16.64 1.74 16.9h.15zm18.3 2.67-8.51 14.71a17 17 0 0 0 14.4 1.24zm4.14-1.2-2.22-16.85q-1.48.2-2.9.64zm14.19 12.2 16.5-4.07q-.24-.95-.58-1.87zm-7.55 33.44-13.94-9.74-.39.58zm-20.49 24.03 10.27 13.55.52-.41zm-47.13 18.28 2.98-16.74a17 17 0 0 0-15.12 4.84zm-.05.05-2.66 16.79a17 17 0 0 0 14.8-4.9zm-10.81-16.81 15.9 6.02a17 17 0 0 0-1.64-15.27zm-4.27-6.54 14.6-8.73q-.75-1.24-1.7-2.34zm-1.47-2.75 16.52-4.03a17 17 0 0 0-12.7-12.53zm-2.8-11.77 15.6 6.8a17 17 0 0 0-2.42-17.55zm-11.59-14.93-13.36 10.51.11.14zm-9.55-23.23 16.7 3.21a17 17 0 0 0-1.81-11.42zm-21.16-35.6 14.64-8.63a17 17 0 0 0-7.97-7zm-.38-.19 8.67-14.62a17 17 0 0 0-7.1-2.3zm-1.81-.06-.72-16.98a17 17 0 0 0 .72 33.99zm.38 0 .27 17a17 17 0 0 0-.27-34zm-4.48.13-.55-17a17 17 0 0 0-13.98 8.17zm-13.12 2.46 9.73-13.94A17 17 0 0 0 251 371.19zm3.04 12.95 16.92 1.63v-.05zm-7.03 26.17-16.16-5.25a17 17 0 0 0 .82 12.57zm-2.87 11.7-15.3-7.4a17 17 0 0 0 9.28 23.3zm3.24 6.08-16.96-1.16a17 17 0 0 0 18.91 18.05zm25.95 22.97-16.9 1.83a17 17 0 0 0 16.54 15.16zm6.7 19.39-14.52-8.82q-.45.7-.8 1.46zm-4.84 5.78-10.07-13.7q-2 1.48-3.49 3.45zm-19.98 7.29 2.31 16.84a17 17 0 0 0 1.6-.3zm-17.9 1.28v17zm-11.53-.58 1.69-16.92a17 17 0 0 0-18.7 16.92zm0 .07-2.63 16.8A17 17 0 0 0 258.6 478zm-51.24-25.55-16.27 4.93q.73 2.4 2.12 4.49zm-.68-2.38 16.4-4.48-.12-.44zm-.98-3.12h-17a17 17 0 0 0 .53 4.22zm0-.07h17q0-1.69-.34-3.33zm-.46-2.53-16.97 1.06q.05.9.21 1.81zm-.1-1.16-17 .53q.04.79.13 1.58zm-.05-2.32 17 .53v-.53zm.07-1.98 16.97.94.02-.3zm.02-.52-16.95-1.3q-.03.4-.04.81zm.05-.68 16.95 1.3q.03-.25.03-.52zm0-.12-9.27-14.24a17 17 0 0 0-7.72 14.24zm.01 0 9.27 14.25a17 17 0 0 0 7.68-12.95zm.01-.14-16.12-5.38a17 17 0 0 0-.83 4.07zm.39-1.38 16.67 3.34.16-.93zm.05-.53-16.26-4.98c-.5 1.61-.74 3.3-.74 4.98zm9.79-10.3 4.33 16.44a17 17 0 0 0 10.76-8.61zm9.67-15.1 6.92 15.53a17 17 0 0 0 8.63-8.65zm8.9-18.72-15.2-7.6-.06.12zm5.99-8.25 16.67 3.34a17 17 0 0 0-23.16-19.05zm-.08.34-16.66-3.33a17 17 0 0 0 33.05 7.86zm-2-23.51 16.63-3.53A17 17 0 0 0 220.26 343zm-19.88.18-1.15 16.96q.75.05 1.5.03zm-45.9-10.9-11.75 12.29.08.07zm8.87-61.35 14.45 8.95.35-.58zm4.97-8.9 15.32 7.36q.22-.45.4-.9zm.1-.22 15.4 7.2a17 17 0 0 0 1.4-9.8zm-.05-5.42 16.99.59v-.6zm6.25-24.22 15.22 7.56q.31-.63.57-1.28zm18.74-23.86-9.46-14.12-.33.22zm4.12-2.52 6.9 15.53a17 17 0 0 0 8.86-9.15zm3.07-6.04-15.37-7.29q-.4.87-.71 1.76zm3.06-5.85 15.04 7.91a17 17 0 0 0 .57-14.64zm-1.42-3.28 15.7-6.52a17 17 0 0 0-22.1-9.22zm-12.38 8.87 12.85 11.13.16-.2zm-18.3 27.23 11.49 12.52q.63-.59 1.21-1.23zm-29.46 12.7-12.26-11.78a17 17 0 0 0 8.9 28.44zm.02-.03 12.27 11.77a17 17 0 0 0-8.5-28.35zm-26.6-67.74-15.43-7.14-.08.16zm22.65-31.26L151 169.23l.03-.04zm31.7-27.3 9.05 14.38a17 17 0 0 0 7.68-11.38zm12.18-8.02-1.36 16.94q.67.06 1.36.06zm5.43 2.97-16.76 2.84.2 1.02zm.07 1.01-16.94-1.38c-.23 2.84.25 5.7 1.41 8.3zm18.78 41.27-15.45 7.08.01.03zm8.38 18.24 15.44-7.1zm3.66 7.94-15.4 7.21a17 17 0 0 0 30.11 1.32zm2.03-3.54 14.84 8.29v-.01zm5.21-9.32 14.77 8.42.02-.04zm10.76-19.08 14.83 8.32v-.02zm17.4-31.07-14.77-8.43-.1.19zm1.15-2.07 14.89 8.21.32-.6zm.22-.44 14.14 9.43q.33-.48.62-1zm.34-.53-13.53-10.3-.3.42zm138.92 318.43 11.93 12.11a17 17 0 0 0-23.42-24.64zm-14.98 11.45L370.9 443a17 17 0 0 0 17.96 28.86zm12.03-8.74-11-12.96q-.35.3-.66.6zM208.92 419.6l6.68-15.63a17 17 0 0 0-21.73 7.73zm-1.84 3.81-15.52-6.92a17 17 0 0 0 30.2 15.5zm2.28-3.63 14.08 9.53a17 17 0 0 0-8.35-25.54zm45.94-12.09 14.89-8.2a17 17 0 0 0-31.3 3.77zm-1.5 4.1-15.72-6.47a17 17 0 0 0 30.86 14.2zm1.86-3.55 15 8a17 17 0 0 0-1.57-18.42zm-32.8-12.42-15.24-7.51a17 17 0 0 0 29.76 16.37zm2.17-3.37 14.07 9.53a17 17 0 0 0-5.01-23.92zm-.37-.26 10.69-13.22a17 17 0 0 0-25.92 5.67zm6.66-16.58 17-.54-.01-.15zm0 .3-16.99.4a17 17 0 0 0 33.97.5zm.02-.21 16.98.73q.04-.96-.02-1.92zm-.03-.42 16.93-1.5a17 17 0 0 0-33.92 2.2zm25.52-248.56 15 8c.97-1.8 2.85-3.44 6.28-4.26 3.58-.86 7.87-.5 11.44 1.02l6.69-15.63 6.68-15.63c-18.8-8.03-48.2-5.65-61.08 18.49zm39.4-10.87-5.82 15.97a10 10 0 0 1-1.36-.62l.16.1.41.32a24 24 0 0 1 4.79 5.23l.23.4c-.02-.03-.21-.5-.35-1.32l16.78-2.75 16.77-2.75a32 32 0 0 0-4.47-11.4 58 58 0 0 0-12.66-14.08 32 32 0 0 0-8.65-5.07zm14.84 17.33-14.96 8.08c7.34 13.59 14.83 27.13 22.2 40.53l14.9-8.2 14.9-8.19c-7.43-13.5-14.82-26.86-22.08-40.3zm22.13 40.41-14.9 8.2q12.01 21.82 24.16 43.59l14.84-8.3 14.85-8.28a7617 7617 0 0 1-24.05-43.4zm24.1 43.5-14.84 8.28q2.8 5.04 5.6 9.99l14.82-8.33 14.82-8.33q-2.8-4.96-5.55-9.9zm5.58 9.94-14.81 8.35c.75 1.34 2.14 3.9 3.36 5.95l14.6-8.7 14.6-8.71c-.98-1.64-1.6-2.85-2.95-5.25zm3.15 5.6.82 16.97c4.86-.23 8.71-.32 12.27.04l1.7-16.91 1.7-16.92c-6.28-.63-12.32-.4-17.3-.17zm14.8.1-.73 16.98q2.43.1 4.85 0l-.72-16.99-.73-16.98q-.97.05-1.95 0zm3.4 0 .34 17c.98-.03 1.44-.03 1.83-.02.34 0 .27.02-.05-.03a8.6 8.6 0 0 1-4.04-2.13l11.76-12.3 11.75-12.28c-8.6-8.23-19.5-7.3-21.94-7.24zm9.84 2.53-12.38 11.65a6.6 6.6 0 0 1-1.87-3.65c-.06-.5-.01-.93.22-1.51l15.79 6.3 15.79 6.3c3.26-8.2 3.76-21.26-5.17-30.74zm1.76 12.78-16.09-5.49a10 10 0 0 1 1.2-2.44q.46-.63.67-.82l11.89 12.16 11.89 12.15c2.23-2.18 5-5.56 6.53-10.06zm-2.33 3.4-16.93-1.5a36 36 0 0 1-2.58 9.8c-.4.86-.56 1-.33.7l13.4 10.48 13.38 10.47c3.6-4.6 5.82-10.33 7.15-14.58a69 69 0 0 0 2.84-13.85zm-6.45 19.48-15.1 7.8c.57 1.11 1.27 2.48 2 3.83l14.95-8.1 14.95-8.09-1.7-3.25zm1.85 3.54-14.9 8.19q1.28 2.31 2.57 4.7l2.62 4.78 14.9-8.2 14.9-8.18-2.57-4.7-2.62-4.78zm5.19 9.48-14.94 8.11q2.58 4.74 5.12 9.29l14.86-8.26 14.86-8.26c-1.7-3.05-3.34-6.02-4.96-9zm5.04 9.14-14.87 8.24 1.75 3.17 14.83-8.3 14.84-8.31c-.6-1.06-.95-1.72-1.68-3.04zm1.71 3.1-4.86 16.3a14 14 0 0 1-6.35-3.99l12.58-11.43 12.6-11.42a20 20 0 0 0-9.1-5.75zm1.38.88-3.13 16.71c.64.12 6.98 1.75 13.7-.59l-5.6-16.05-5.6-16.05c1.86-.65 3.4-.66 4.14-.62.33.02.5.06.42.04l-.8-.14zm4.97.07 5.99 15.9c6.61-2.48 17-8.71 20.42-20.76l-16.35-4.65-16.36-4.64c.23-.81.56-1.4.8-1.75.23-.34.4-.49.4-.49l-.27.19-.62.29zm10.06-9.5 16.77 2.74c.1-.63.17-1.18.2-1.47l-16.89-1.94-16.88-1.95-.01.07q0 .03 0 0l.03-.2zm.08-.67 7.49-15.26a6.4 6.4 0 0 1 3.52 3.9c.11.48.18 1.17-.35 2.23l-15.2-7.6-15.21-7.6a31 31 0 0 0-2.28 21.02c1.66 6.8 6.09 14.42 14.55 18.57zm-4.55-16.73 15.74 6.42a9 9 0 0 1-1.75 2.75 8 8 0 0 1-2.15 1.64L416.68 266l-7.93-15.03a25.6 25.6 0 0 0-11.7 12.84zm3.9-4.23 16.8 2.65.03-.1a6 6 0 0 1 .41-1.03l-.02.04-.25.38-13.78-9.96-13.78-9.95a38 38 0 0 0-6.2 15.32zm3.19-8.02 14.5 8.88q-.47.72-.97 1.13c-.3.24-.5.33-.5.34q-.02-.01.44-.13.46-.09 1.16-.12l-.51-17-.51-16.99c-8.1.25-20.86 3.16-28.11 15.02zm14.12-6.9 3.72-16.58a47 47 0 0 1-12.42-4.78l-8.3 14.83-8.31 14.83a80 80 0 0 0 21.58 8.3zm-17-6.53 8.29-14.84a47 47 0 0 1-21.29-25.6l-16.1 5.46-16.1 5.46a81 81 0 0 0 36.9 44.36zm-29.1-34.98 16.1-5.45a48.6 48.6 0 0 1-.32-30.13l-16.21-5.14-16.2-5.13a82.6 82.6 0 0 0 .53 51.3zm-.43-40.72 16.5 4.12a16 16 0 0 1-.5 1.63l-.03.07.05-.14a18 18 0 0 0 .57-1.85l-16.5-4.12-16.49-4.12a16 16 0 0 1 .4-1.33l.1-.3.03-.07-.05.14a22 22 0 0 0-.57 1.85zm.1-.29h17v-.1h-34v.1zm0-.1 16.1 5.47a49 49 0 0 1 8.4-15.38l-13.12-10.8-13.12-10.81A83 83 0 0 0 371.46 163zm11.38-20.72 13.14 10.79a47 47 0 0 1 13.78-11.34l-8.22-14.88-8.22-14.89a81 81 0 0 0-23.62 19.54zm18.7-15.44 8.25 14.87q5.03-2.79 10.91-4.2l-4.01-16.53-4.02-16.52a78 78 0 0 0-19.39 7.52zm15.15-5.86 8.74 14.58c-1.11.67-2.7 1.4-4.74 1.73l-2.8-16.76-2.8-16.77a21 21 0 0 0-7.15 2.64zm1.2-.45v17l.45-.01a18 18 0 0 0 7.34-1.81l-7.6-15.21-7.6-15.2a17 17 0 0 1 5.93-1.7c.9-.09 1.66-.08 1.48-.08zm.2-.03 2.1 16.87c1.32-.17 2.53-.39 3.28-.53.9-.16 1.27-.23 1.62-.28l-2.37-16.83-2.37-16.84c-1.2.17-2.37.4-3.01.51-.8.15-1.13.2-1.36.23zm4.63-.77 2.37 16.83q2.18-.3 4.16-.4l-.86-16.99-.86-16.97q-3.73.2-7.19.7zm5.67-.56 1.13 16.97q1.25-.1 2.48-.11l-.38-17-.38-17q-2 .05-3.98.18zm3.23-.14v17l1.07-.02h.05c-.13 0-.49 0-.98-.06q-.76-.06-2.13-.4l4.47-16.4 4.48-16.4a22 22 0 0 0-5.61-.74l-1.22.01h-.13zm2.48.12-.77 16.98c4.65.21 9.28 1.13 13.72 2.72l5.72-16.01 5.73-16a81 81 0 0 0-23.62-4.67zm18.67 3.69-5.74 16a47 47 0 0 1 19.89 13.85l12.97-10.99 12.97-10.98a81 81 0 0 0-34.34-23.88zM496 147.16l-13 10.96a45 45 0 0 1 3.6 4.89l14.37-9.1 14.36-9.08a79 79 0 0 0-6.33-8.62zm4.97 6.76-14.4 9.04a49 49 0 0 1 6.26 15l16.56-3.85 16.55-3.85a83 83 0 0 0-10.58-25.38zm8.42 20.19-16.56 3.85c1.37 5.9 1.6 12.17.65 18l16.77 2.75 16.78 2.75a81 81 0 0 0-1.09-31.2zm.86 24.6-16.77-2.76a49 49 0 0 1-5.66 16.14l14.81 8.34 14.82 8.33c4.76-8.46 8-17.71 9.58-27.29zm-7.62 21.72-14.81-8.34a47 47 0 0 1-10.92 12.93l10.82 13.11 10.83 13.1a81 81 0 0 0 18.9-22.47zm-14.9 17.7-10.84-13.1a46 46 0 0 1-12.56 7.35l6.14 15.85 6.14 15.86a80 80 0 0 0 21.95-12.86zm-17.26 10.1-12.85 11.14c-.58-.67-.8-1.5-.81-1.9-.01-.22.04.2-.41 1.16a9 9 0 0 1-1.96 2.65q-.6.54-1.02.77c-.27.16-.41.2-.4.2l4.7 16.33 4.7 16.34c11.5-3.3 20.3-12.35 24.75-21.82 4.5-9.59 6.38-24.2-3.86-36zm-12.74 30.35-16.99.71c-.02-.54.04-1.3.54-2.31a8.8 8.8 0 0 1 4.46-4.06l6.63 15.65 6.62 15.66c12.9-5.46 16.05-18.56 15.72-26.36zm-5.36 10-17-.1c-.02 3.24-.9 7.04-2.7 12.25l16.08 5.52 16.07 5.53c2.13-6.18 4.5-14.21 4.55-23.1zm-3.62 17.67-15.98-5.8c-3 8.24-9.16 14.39-16.73 16.9l5.35 16.14 5.36 16.13c18.29-6.07 31.75-20.43 37.98-37.56zm-27.36 27.24-4.78-16.32c-.7.2-1.33.42-1.81.59l-1.29.45c-.79.28-1.12.39-1.32.44l4.54 16.39 4.54 16.38c1.47-.4 2.8-.88 3.6-1.17l1.02-.35.29-.1zm-4.66 1.55-16.5-4.08c-.12.48-.39 1.2-.96 2.15l14.6 8.7 14.62 8.69a42 42 0 0 0 4.74-11.4zm-2.85 6.76-14.55-8.8a32 32 0 0 1-5.68 6.8l11.52 12.5 11.52 12.5a66 66 0 0 0 11.74-14.2zm-8.71 10.5-11.54-12.49a25 25 0 0 1-7.02 4.76l6.67 15.64 6.66 15.64a59 59 0 0 0 16.77-11.07zm-11.9 7.91-6.72-15.61q-.23.1-.6.17l2.96 16.74 2.97 16.74a37 37 0 0 0 8.13-2.43zm-4.36 1.3-2.89-16.75q.3-.05.53-.05l.55 16.99.56 16.99q2.12-.08 4.14-.42zm-1.81.19-9.8-13.9c.65-.46 1.6-1.03 2.85-1.53l6.23 15.82 6.23 15.82a20 20 0 0 0 4.28-2.32zm-.72.4v-17h-.1v34h.1zm-.1 0-.73-17c-.52.03-1.4.07-2.37.15l1.42 16.94 1.4 16.94c.2-.02.43-.03 1.02-.05zm-1.68.09v-17h-.26a19 19 0 0 0-3.46.35l3.33 16.67 3.33 16.67c-1.14.23-2.05.28-2.4.3h-.54zm-.39.02.9-16.97c-2.89-.16-6.23-.08-7.77-.08v34c2.99 0 4.28-.06 5.98.03zm-6.87-.05v-17q-5.76 0-11.51.08l.22 17 .21 17q5.54-.08 11.08-.08zm-11.3.08-.2-17-12.15.15-12.11.16.2 17 .2 17 24.27-.31zm-24.26.31-.29-17-6.04.1.3 17 .28 17 6.04-.1zm-6.04.1-14.85 8.28 2.6 4.67 14.88-8.23 14.88-8.22-2.66-4.77zm2.63 4.72-14.8 8.38c1.09 1.91 2.12 3.79 3.28 5.9l14.87-8.25 14.87-8.24c-1.05-1.9-2.24-4.07-3.43-6.16zm3.35 6.03-14.68 8.57c.32.54.33.6.9 1.61l14.78-8.4 14.78-8.42-1.1-1.92zm1 1.77.67 16.99q-.46.02-1.26-.03l1.45-16.94 1.45-16.94q-1.63-.13-2.97-.07zm.86.02.24 17c-2.34.03-4.51-.6-6.26-1.58a11 11 0 0 1-3.01-2.43c-.67-.8-.75-1.25-.2 0l15.52-6.94 15.52-6.94c-.57-1.28-2.12-4.78-4.8-7.98-2.92-3.48-8.64-8.25-17.25-8.13zm6.3 6.05-14.21 9.34c3.93 5.98 7.4 12.43 11.17 19.6l15.05-7.9 15.05-7.9c-3.76-7.17-7.92-14.95-12.86-22.47zm12 21.04 7.11 15.44c-.43.2-1.51.6-3.05.64l-.31-17-.32-17a26 26 0 0 0-10.53 2.47zm3.75-.92 15.93 5.92c1.2-3.22 4.32-5.41 6.65-5.65l-1.74-16.91-1.75-16.91c-16.39 1.69-29.76 13.44-35.03 27.63zm20.84-16.64 1.89 16.9a25 25 0 0 1 5.55-.1c1.57.19 2.24.52 2.35.58l8.51-14.71 8.52-14.72c-10.11-5.85-21.56-5.65-28.71-4.85zm18.3 2.67 5.9 15.95c-.14.05-.1.02.55-.15l1.12-.3 1.7-.49-5.13-16.2-5.12-16.22-.29.08-.97.26c-.76.2-2.15.57-3.65 1.12zm4.14-1.2 2.23 16.85a7.5 7.5 0 0 1-3.84-.52 5 5 0 0 1-1.6-1c-.02-.02.19.19.53.78.32.56.65 1.27.94 2.04l15.92-5.94 15.93-5.95c-1.57-4.2-4.32-9.88-8.92-14.62-4.9-5.04-12.93-9.88-23.41-8.5zm14.19 12.2-16.5 4.08c1.34 5.47-.26 12.86-4.99 19.62l13.94 9.74 13.93 9.74c8.6-12.3 14.46-29.65 10.12-47.25zm-7.55 33.44-14.33-9.16c-5.14 8.05-10.61 14.85-16.94 20.04l10.79 13.15L405.84 469c10.07-8.27 17.78-18.25 24.02-28.01zm-20.49 24.03L384.8 442.3c-5.25 3.98-12.14 8.46-19.04 11.57-7.37 3.32-12.35 3.98-14.85 3.53l-2.98 16.74-2.99 16.74c12.66 2.25 25.34-1.75 34.79-6.01 9.92-4.48 19.03-10.49 25.6-15.46zm-47.13 18.28-12.14-11.9-.05.05 12.14 11.9 12.14 11.9.05-.05zm-.05.05 2.67-16.79a3 3 0 0 1 2.1 1.24 5.4 5.4 0 0 1 .31 4.76l-15.9-6.02-15.89-6.03c-3.7 9.75-1.36 19.4 3.26 26.26a31 31 0 0 0 20.79 13.37zm-10.81-16.81 14.26-9.25c-2.03-3.14-2.74-4.02-3.94-6.02l-14.59 8.73-14.58 8.74c1.48 2.47 3.8 5.83 4.58 7.04zm-4.27-6.54 12.9-11.07c.83.96 1.69 2.4 2.15 4.29l-16.51 4.03-16.52 4.04c.9 3.69 2.7 7 5.09 9.8zm-1.47-2.75 3.82-16.56a13.2 13.2 0 0 1 8.03 5.48 9 9 0 0 1 1.44 3.42c.08.44.06.7.04.86 0 .08-.07.74-.54 1.83l-15.58-6.8-15.58-6.8a30 30 0 0 0-1.88 16.46c.66 4 3.77 15.76 16.44 18.68zm-2.8-11.77 13.18-10.75c-1.78-2.18-3.56-4.5-5.5-7.05-1.87-2.46-3.93-5.19-6.02-7.78l-13.25 10.65-13.25 10.65c1.74 2.16 3.5 4.47 5.46 7.07 1.92 2.51 4.03 5.27 6.22 7.96zm-11.59-14.93 13.36-10.51c-2.77-3.52-4.48-5.79-5.54-7.9-.92-1.82-.59-2.07-.68-1.6l-16.69-3.22-16.7-3.21c-1.8 9.36.73 17.44 3.72 23.37 2.86 5.64 6.78 10.54 9.17 13.58zm-9.55-23.23 14.89-8.2c-6.77-12.3-14.91-25.03-21.4-36.03l-14.65 8.64-14.64 8.64c7.52 12.74 14.35 23.25 20.91 35.16zm-21.16-35.6 6.67-15.63q.87.38 1.62.82l-8.67 14.63-8.67 14.62q1.1.67 2.39 1.2zm-.38-.19 1.57-16.92c-1.04-.1-2.47-.19-4.1-.12l.72 16.99.72 16.98h-.48zm-1.81-.06v17h.38v-34h-.38zm.38 0-.27-17-4.76.13.55 17 .55 16.99c1.51-.05 2.85-.1 4.2-.12zm-4.48.13-14.53-8.83a8.3 8.3 0 0 1 5.58-3.99 7.4 7.4 0 0 1 5.56 1.34l-9.74 13.94-9.73 13.93c11.16 7.8 29.04 6.16 37.39-7.57zm-13.12 2.46-15.8 6.3 1.14 2.85c.3.8.48 1.36.6 1.79.24.83.13.83.17.42l16.93 1.59 16.92 1.58c.9-9.54-2.98-17.83-4.17-20.83zm3.04 12.95-16.93-1.63c-.63 6.58-3.04 12.63-6.26 22.55l16.16 5.25 16.17 5.25c2.33-7.15 6.68-18.38 7.78-29.79zm-7.03 26.17-15.34 7.32a10.5 10.5 0 0 1-1-4.86c.05-1.44.4-2.35.45-2.5.04-.1 0 .05-.46.88l-.34.63a108 108 0 0 0-1.48 2.83l15.3 7.4 15.31 7.4c.22-.45.38-.71 1.12-2.09.57-1.05 1.5-2.8 2.29-4.85 1.69-4.39 3.25-11.62-.5-19.48zm-2.87 11.7-6.02 15.9a12.3 12.3 0 0 1-6.73-6.15 10 10 0 0 1-.97-4.83l16.96 1.16 16.96 1.16c.41-6.04-1.61-18.38-14.17-23.14zm3.24 6.08 1.95 16.89c.83-.1 2.2.1 3.89 1.69a10.6 10.6 0 0 1 3.21 6.22l16.9-1.83 16.9-1.84c-2.1-19.4-19.7-40.93-44.81-38.02zm25.95 22.97-.36 17a8.4 8.4 0 0 1-5.17-2.25 7.4 7.4 0 0 1-2.32-3.63c-.12-.53-.05-.65-.08-.42-.04.23-.1.2.1-.13l14.54 8.82 14.53 8.82a34 34 0 0 0 4-24.94 26.7 26.7 0 0 0-7.95-13.72 25.7 25.7 0 0 0-16.92-6.55zm6.7 19.39-15.32-7.36.22-.41.08-.13-.08.1-.08.1-.03.02v.01l.01-.01.05-.05.24-.18L291 469.94l10.08 13.7a34 34 0 0 0 10.1-12.12zm-4.84 5.78-13.56-10.25a10 10 0 0 1 2.32-2.3c.32-.21.4-.22.1-.08q-.95.47-3.48 1.2a83 83 0 0 1-4.95 1.23l-2.25.49-2.08.45 3.92 16.55 3.9 16.54c.4-.1 6.25-1.26 10.85-2.58a57 57 0 0 0 8.4-3.04c2.38-1.1 7-3.47 10.4-7.96zm-19.98 7.29-2.32-16.84q-7.95 1.1-15.58 1.12v34c6.82 0 13.58-.53 20.21-1.44zm-17.9 1.28v-17q-4.9 0-9.84-.5l-1.7 16.92-1.69 16.91q6.62.67 13.23.67zm-11.53-.58h-17v.07h34v-.07zm0 .07 2.62-16.8c-18.56-2.9-33.15-8.3-39.7-18.16l-14.16 9.41-14.15 9.42c15.39 23.14 43.94 29.99 62.76 32.93zm-51.24-25.55 16.27-4.93-.55-1.93-16.4 4.48-16.4 4.47c.21.77.49 1.78.81 2.84zm-.68-2.38 16.28-4.92-.4-1.25-.28-.82c-.16-.47-.15-.48-.12-.34l-16.47 4.21-16.47 4.22c.3 1.17.65 2.2.84 2.77l.35 1.05zm-.98-3.12h17v-.07h-34v.07zm0-.07 16.66-3.33-.37-2.07-16.75 2.87-16.76 2.87c.14.8.32 1.88.54 3zm-.46-2.53 16.96-1.06c-.02-.31-.07-1.22-.2-2.2l-16.86 2.1-16.87 2.1-.02-.15v-.04l.01.18.01.13zm-.1-1.16 17-.53-.03-.7-.02-.45v-.1l-17-.54-16.99-.53c-.05 1.48.05 3.3.05 3.38zm-.05-2.32h17l.04-1.04-16.97-.94-16.97-.93c-.04.71-.1 1.75-.1 2.91zm.07-1.98 16.99.63v-.22l.02-.44-17-.5-16.98-.48v.08l-.01.13v.17zm.02-.52 16.95 1.3.02-.32.03-.36-16.95-1.3-16.95-1.3-.02.32-.03.36zm.05-.68 16.98.78v.11-.1c.01-.13.03-.48.03-.91h-34c0-.4.01-.7.02-.79v-.05l-.01.17zm0-.12 9.29 14.24.33-.22.28-.2.57-.42.1-.08.06-.05.02-.01-.02.01-.06.05-.1.08a17 17 0 0 1-1.2.85zl-9.26-14.26a19 19 0 0 0-1.05.74l-.15.11-.1.09-.08.06.01-.01.06-.05.1-.08.15-.11a18 18 0 0 1 1.04-.73zm.01 0 16.95 1.3v.12-.08l.01-.18-16.95-1.3-16.95-1.3.01-.12q0-.02 0 0v.07l-.02.18zm.01-.14 16.13 5.37c.18-.54.61-1.84.93-3.41l-16.67-3.34-16.67-3.33.16-.69c.03-.09.04-.12 0 .02zm.39-1.38 16.83 2.4c.03-.21.22-1.45.22-2.93h-34c0-.66.04-1.17.06-1.4l.06-.47zm.05-.53 16.25 4.99-.06.07c-.06.07-.68.71-2.07 1.08l-4.33-16.44-4.33-16.44c-11.64 3.07-18.98 12.84-21.72 21.76zm9.79-10.3 15.1 7.83c1.1-2.14 1.97-4.32 2.52-5.69.65-1.63 1-2.5 1.36-3.23.75-1.55.22.36-2.39 1.52l-6.92-15.53-6.91-15.53c-8.36 3.72-12.38 10.6-14.36 14.67-1 2.07-1.84 4.19-2.35 5.46a33 33 0 0 1-1.14 2.67zm9.67-15.1L223.7 417c2.63-5.95 5.53-11.81 8.62-18.11l-15.27-7.49-15.26-7.48c-3 6.1-6.22 12.63-9.18 19.32zm8.9-18.72 15.21 7.6q.47-.95.8-1.67.15-.36.3-.65l.24-.53c.31-.7.41-.86.4-.86a6 6 0 0 1-1.03 1.29c-.76.77-1.9 1.65-3.44 2.29l-6.5-15.72-6.48-15.71c-6.53 2.7-10.06 7.58-11.84 10.6a43 43 0 0 0-2 3.9c-.55 1.18-.65 1.44-.86 1.86zm5.99-8.25-16.67-3.33.03-.17q0-.05 0 0l-.1.5 16.66 3.34 16.67 3.33-.03.17q0 .04 0 0l.04-.17.07-.33zm-.08.34 16.4 4.53c1.92-7 1.59-13.54.84-18.7-.66-4.67-2.03-10.13-2.62-12.87l-16.62 3.53-16.64 3.52c1.06 4.99 1.77 7.42 2.23 10.64.39 2.72.24 4.07.03 4.82zm-2-23.51-.69-17c-6.91.29-11.18.01-19.54.18l.35 17 .35 17c4.83-.1 13.95.05 20.2-.2zm-19.88.18 1.15-16.96c-10.09-.69-15.58-.32-22.95-1.38-6.18-.88-9.85-2.5-12.44-4.93l-11.67 12.36-11.66 12.37c9.69 9.14 21.15 12.45 30.94 13.86 8.61 1.23 19.93 1.26 25.48 1.64zm-45.9-10.9 11.73-12.3c-3.12-2.98-4.22-6.4-2.07-13.73 2.42-8.25 7.87-17.02 13.66-26.37l-14.45-8.95-14.45-8.95c-5.05 8.14-13.4 21.1-17.38 34.69-4.26 14.49-4.38 33 11.21 47.9zm8.87-61.35 14.8 8.37c1.09-1.93 3.7-6.18 5.5-9.91L169 279l-15.32-7.36c-1.16 2.4-2.21 3.93-4.45 7.9zm4.97-8.9 15.72 6.46-.19.45-.03.06-15.4-7.19-15.4-7.19-.43.95zm.1-.22 16.8-2.6.04.35v-.25l.04-.9.06-1.43-17-.6-16.98-.58c0 .2-.36 4.74.24 8.62zm-.05-5.42h17c0-4.93 1.65-10.98 4.47-16.66l-15.22-7.56-15.23-7.56c-4.42 8.9-8.02 20.16-8.02 31.78zm6.25-24.22 15.8 6.28a36.5 36.5 0 0 1 12.73-16.24l-9.8-13.9-9.78-13.9a70.5 70.5 0 0 0-24.75 31.48zm18.74-23.86 9.46 14.13 1.05-.72.65-.43.23-.15-.1.05-.26.13-6.9-15.53-6.91-15.54c-3.24 1.44-6.5 3.82-6.68 3.94zm4.12-2.52 15.76 6.38c-.11.28-.17.36-.05.14l.63-1.12c.3-.51.76-1.33 1.23-2.24s1.06-2.18 1.57-3.68l-16.07-5.52-16.08-5.53c.18-.51.32-.79.28-.7l-.44.78c-.22.39-.66 1.15-1.07 1.92-.43.8-1 1.9-1.52 3.19zm3.07-6.04L216.6 224c.75-1.6 1.33-2.53 2.74-5.22l-15.04-7.91-15.05-7.92c-.62 1.2-2.24 4.1-3.37 6.48zm3.06-5.85 15.6-6.73c-.6-1.43-.9-2.09-1.32-3.07l-15.7 6.52-15.7 6.53c.5 1.2 1.18 2.72 1.5 3.48zm-1.42-3.28-6.4-15.74a48.6 48.6 0 0 0-19 13.67l13.02 10.94 13.01 10.94a14.6 14.6 0 0 1 5.78-4.06zm-12.38 8.87-12.84-11.13c-4.84 5.57-8.36 11.76-10.96 16.22-2.88 4.94-4.86 8.2-7.21 10.85l12.7 11.3 12.71 11.28c4.96-5.57 8.53-11.77 11.17-16.3 2.92-5.02 4.9-8.34 7.28-11.09zm-18.3 27.23-11.5-12.52c-3.73 3.42-6.87 5.9-9.71 7.37-2.63 1.36-4.02 1.35-4.89 1.18l-3.36 16.66-3.36 16.67c20.86 4.2 36.93-10.06 44.31-16.84zm-29.46 12.7L155 268.16l.03-.03-12.27-11.77-12.26-11.78-.02.03zm.02-.03 3.78-16.58c-11.13-2.53-16.05-8.34-18.17-14.87-2.44-7.47-1.78-18.06 3.29-29.31l-15.5-6.98-15.5-6.98c-7.58 16.83-10.31 36.3-4.63 53.79 6 18.42 20.7 32.44 42.96 37.5zm-26.6-67.74 15.42 7.15c4.33-9.36 11.1-18.03 19.4-26.55l-12.17-11.86-12.18-11.86c-9.7 9.96-19.33 21.79-25.9 35.98zm22.65-31.26 12.21 11.82c9.72-10.04 18.54-18.45 28.54-24.74l-9.05-14.39-9.05-14.39c-13.7 8.61-24.9 19.58-34.87 29.87zm31.7-27.3 16.73 3c-.68 3.77-2.96 5.26-3.23 5.43q-.44.27-.87.37c-.28.08-.88.2-1.8.12l1.35-16.94 1.36-16.95a30 30 0 0 0-17.9 4.47c-4.9 3.02-10.8 8.72-12.37 17.48zm12.18-8.02v17c.45 0-.99.11-3.07-.74a14 14 0 0 1-8.26-10.44l16.76-2.85 16.76-2.85a20.1 20.1 0 0 0-12.38-15.33 26 26 0 0 0-9.8-1.8zm5.43 2.97-16.56 3.86a14 14 0 0 1-.31-4.23l16.94 1.38 16.95 1.39c.16-1.99.04-4.1-.46-6.27zm.07 1.01-15.53 6.91c6.19 13.92 12.6 27.77 18.86 41.44l15.45-7.08 15.46-7.07c-6.33-13.84-12.61-27.42-18.7-41.1zm18.78 41.27-15.44 7.11 4.18 9.1 4.2 9.14 15.44-7.11 15.44-7.1-8.37-18.25zm8.38 18.24-15.45 7.1c1.19 2.58 2.45 5.34 3.72 8.05l15.4-7.2 15.39-7.22c-1.2-2.57-2.38-5.13-3.62-7.84zm3.66 7.94 14.71 8.53c.68-1.18 1.43-2.46 2.16-3.78l-14.84-8.3-14.83-8.3-1.9 3.33zm2.03-3.54 14.85 8.28c1.8-3.23 3.42-6.18 5.13-9.18l-14.77-8.42-14.76-8.42c-1.82 3.18-3.62 6.46-5.3 9.45zm5.21-9.32 14.8 8.38 10.8-19.14-14.84-8.32-14.83-8.31q-5.33 9.51-10.72 19.01zm10.76-19.08 14.84 8.3c5.73-10.25 11.64-20.7 17.42-31.12l-14.86-8.25-14.87-8.24c-5.75 10.37-11.52 20.57-17.36 31.01zm17.4-31.07 14.76 8.44 1.28-2.3-14.89-8.21-14.88-8.21-1.04 1.85zm1.15-2.07 15.2 7.6c.2-.36.32-.66.38-.78l.04-.09-.02.03-.03.08c-.12.27-.52 1.13-1.2 2.15l-14.15-9.43-14.15-9.43a18 18 0 0 0-1.43 2.59l-.1.22c-.03.06-.01.02 0 .02.01-.04.11-.27.26-.56zm.22-.44 14.76 8.44a10 10 0 0 1-.59.91l-13.83-9.88-13.84-9.88c-.5.71-.93 1.4-1.26 1.98zm.34-.53 13.52 10.3q-1.06 1.42-2.5 2.5l-10.3-13.51-10.3-13.53a21 21 0 0 0-3.94 3.94zm138.92 318.43-11.49-12.53a92 92 0 0 1-12.64 9.66l9.15 14.32 9.14 14.33c5.9-3.76 11.82-8.2 17.34-13.25zm-14.98 11.45 8.81 14.54c5.7-3.46 11.15-7.4 14.88-10.9l-11.66-12.38-11.66-12.37a62 62 0 0 1-9.19 6.58zm12.03-8.74 11 12.96a70 70 0 0 0 3.88-3.56l-11.93-12.1-11.92-12.12q-1.04 1.01-2.04 1.86zM208.92 419.6l-15.05-7.9a83 83 0 0 0-2.31 4.79l15.52 6.92 15.53 6.93q.68-1.55 1.36-2.83zm-1.84 3.81 14.68 8.58a48 48 0 0 1 1.68-2.68l-14.07-9.53-14.08-9.54q-1.56 2.32-2.88 4.6zm2.28-3.63 5.73-16q.19.05.5.19l-6.67 15.63-6.68 15.64q.75.32 1.4.54zm45.94-12.09-16.42-4.43c.01-.03-.02.1-.16.48l-.64 1.58 15.72 6.47 15.72 6.46c.45-1.08 1.48-3.5 2.19-6.13zm-1.5 4.1 15.14 7.73q.85-1.66 1.72-3.28l-15-8-15-8c-.57 1.07-1.28 2.4-2 3.8zm1.86-3.55 13.43-10.42q.68.91 1.1 1.67l-14.9 8.2-14.88 8.2q.72 1.32 1.82 2.78zm-32.8-12.42 14.52 8.86q.89-1.49 1.72-2.7l-14.07-9.53-14.08-9.54q-1.4 2.1-2.59 4.05zm2.17-3.37 9.06-14.39q.69.45 1.26.9l-10.69 13.23-10.68 13.22q.91.75 1.99 1.42zm-.37-.26-15.23-7.55-1.81 3.67 15.25 7.5 15.25 7.52 1.78-3.59zm6.66-16.58-17 .54v-.13.09l.01.2 17-.4 17-.37v.03-.06l-.02-.44zm0 .3 16.98.9v-.02l.02-.36-16.98-.73-16.98-.74v-.24l.01-.06v-.01.1l-.01.11-.01.16zm.02-.21 16.96-1.19-.06-.74-16.93 1.5-16.94 1.51.01.1zm-.03-.42-16.99.7.02.33 16.98-.7 16.99-.7-.02-.33z" mask="url(#crests-error-tracking-path-1-outside-1_23_2289)"/></g><path fill="#eda83f" d="M250 472.34c-19.28-2.43-41-6.41-53.73-22.43-4.49-5.12-3.55-16.98 4.63-17.27 6.51-.51 6.59 10.27.1 8.58-.82 1.57.67 3.07 1.59 4.25a36 36 0 0 0 7.33 6.37c6.1 4.34 12.4 6.54 19.45 8.2 12.85 3.38 26.44 5.86 39.65 2.9 5-.85 10.4-1.5 14.48-4.76-2.87-4.94 2.92-9.55 6.56-4.56 2.97 4.22-.1 10.67-4.32 12.84-10.93 5.16-23.76 6.6-35.75 5.86zm100.1-4.04c-8.1-.45-9.29-9.93-3.76-14.51 3.54-1.93 6.41 3.16 4.68 6.07 10 .39 18.86-6.12 27.26-10.9 15.6-10.83 33.33-27.93 30.49-48.56a3.38 3.38 0 0 1-4.37-3.5 5.36 5.36 0 0 1 4.7-5.37c3.72-.4 5.55 3.16 6.52 6.15 5.04 27.74-19.57 51.04-41.78 63.34-7.36 3.74-15.15 8.23-23.7 7.29z"/><path fill="#ffd79a" d="M263.23 372.61c.73 11.48-4.82 22.39-8.34 33.07-4.37 11.05-9.22 31.07-24.6 28.52-6.28-.73-12.12-5.12-13.83-11.3-2.65-9.69 4.49-18.25 8.18-26.65 2.7-6.6 6.39-13.31 6.7-20.55-.31-4.49-2-8.69-3.18-12.98q-2.09-6.3-4.9-12.33c-1.8-2.8-2.12-7.96 2.03-8.65 4.94-7.58 16.81-4.85 21.9 1.25 4.95 5.45 7.89 12.33 11.5 18.65 1.84 3.52 4.08 7 4.52 11.02zm76.53 9.51c-1.5.43-2.46 1.98-3.24 3.33a35 35 0 0 1-10.66 8.63 32 32 0 0 1-8.4 2.3c-1.44 0-2.7.7-3.44 1.8a261 261 0 0 0-7.67-13.12c-6.32-9.74-11.32-20.24-17.28-30.2-2.02-4.68-9.84-12.57-4.29-16.96-.5-7.33 9.48-6.97 14.52-6.77 10.01.62 16.43 8.58 21.57 16.4 4.73 8.61 9.07 17.42 14.01 25.9 1.6 2.9 3.29 5.77 4.88 8.69"/><path fill="#fff" d="M227.1 437.16c-8.12-1.7-16.83-8.9-15.63-17.97 1.14-5.55 3.8-9.4 6.01-14.18 2.56-4.25 4.87-8.64 7.67-12.74.75-1.25 1.95-2.65 3.57-2.44 1.52-.86 3.43.1 4.63 1.21a88 88 0 0 0 10.86 6.63c3.42 2.1 8.56.66 10.9 4.35 1.93 4.24-1.28 8.87-2.48 12.93-4.03 11.89-11.12 23.95-25.53 22.21m3.1-8.37c11.19-.55 13.84-12.76 17.29-21.25-6.51-1.42-12.11-5.36-17.59-9-3.95 7.43-9.21 14.5-11.29 22.65 1.43 4.51 7 7.68 11.6 7.6z"/><path fill="#fff" d="M227.05 430.58c-.89-.08-1.8-.8-2.34-1.47-2.9 1.68-6.03-1.19-5.81-4.23-9.12-2.72 2.48-18.6 4.68-23.83 1.2-1.88 1.95-4.12 3.47-5.76 1.62-1.67 4.46-1.02 5.43 1.06a3 3 0 0 1 2.94.45 4.1 4.1 0 0 1 1.57 3.16q.74 0 1.4.37c.7.38 1.28 1.04 1.62 1.8.72-.21 1.5-.16 2.26.27q.4.22.7.5a3 3 0 0 1 2.15-.43q.84.16 1.5.7c2.7-1.03 5.2 2.08 4.72 4.66-.36 1.98-1.47 3.64-2.26 5.45-2.63 4.34-7.12 17.9-13.56 15.51-1.33 1.5-3.79 2.41-5.52 1.09a4 4 0 0 1-3 .72zm131.9-22.92c10.42 16.26 6.18 38.21-16.67 34.71-3.52-.6-5.88-4.17-7.4-6.87-1.76-2.7-3.89-5.23-5.94-7.72-4.77-6.2-9.67-12.35-14.13-18.8-1.76-2.33-3.86-5.54-1.55-8.27q.02-1.42.73-2.53c.72-1.1 2-1.83 3.45-1.8 2.9-.34 5.71-1.19 8.4-2.3a35 35 0 0 0 10.65-8.63c.77-1.33 1.72-2.87 3.24-3.33q.44-.16.96-.12c2.82.12 4.34 2.94 5.79 4.99 4.56 6.58 9.38 13.27 12.45 20.67z"/><path fill="#ffd79a" d="M285.39 451.78c1.93 9.46-7.34 10.71-14.36 11.92-8.42.94-16.52 1.93-24.84 1.23-11.49-.92-22.92-4.1-32.74-10.23-6.73-4.1-17.58-11.5-12.01-20.4 2.68-5.46 5.38-11.08 8.95-15.98 1.69-1.47 3.93-.72 5.06.9q.82.68 1.19 1.85c.67 1.98.1 3.98.17 6 .16 2.52 1.7 4.81 3.61 6.33 3.74 2.22 9.05 3.35 12.55.12l.04-.05c.13-2.68.44-5.33 2.13-7.5 1.52-2.27 4.56-2.32 6.85-2.9 3.79-.86 7.77-1.7 11.67-1.85 3.45.7 4.1 4.27 4.3 7.4a22 22 0 0 1 12.28 1.09c8.8 3.33 13.75 13.22 15.17 22.07zm66.96 8.96s-.05.1-.1.12c-1.22-.27-2.5-.3-3.8-.3h-.15c-.75-.06-1.52-.14-2.27-.14-4.65-5.38-13.7-18.74-10.97-24.58.33-.67.91-1.23 1.56-1.54 3.74-3.38 6.25 2.77 10.26 3.88 4.1 1.62 9.72.7 12.35-3.06.72-1.13 1.01-2.46 1.95-3.48q.1-.14.24-.24c-2.14-1.59-4.94-2.48-6.58-5.01-5.45-6.18-2.85-13.3 3.9-16.94 1.26-.77 2.61-2.07 4.06-2.63q.6-.58 1.52-.77c2.36-.31 4.07 1.18 5.45 3.09 1.25-4.95 3.76-9.82 5.93-12.23 6.85-7.5 20.03-9.22 28.25-3.06.85.48 1.69 1.03 2.37 1.7a3.7 3.7 0 0 1 2.91 2.42c1.38 22.41-15.39 41.47-32.66 53.72-4.22 2.3-15.9 9.26-22.58 9.26q-.89.01-1.64-.16zm47.82-130.31c-4.49-1.33-9.36-3.1-12.57-6.64-3.86-5.23-3.55-13.77.75-18.67-.56-2.1.58-4.3 4.24-4.66 9.82.95 23.23-.19 27.02-11.02 1.54-3.35.12-8.1 3.33-10.52a3.2 3.2 0 0 1 2.58-1.27c4.34 1.5 8.95.82 13.37.43a4 4 0 0 1 3.2.24c3.04-2.17 6.73 2.12 5.19 5.36.14 12.73-3.28 26.24-12.83 35.21-7.8 6.6-17.76 12.19-28.13 12.19q-3.05 0-6.13-.68z"/><path fill="#e28800" d="M399.19 311.75v-.04q0 .25-.05.5 0 .08.03.12-.01-.28.04-.6zm12.98 13.1a31 31 0 0 1-3.48 16.04 30 30 0 0 1-9.5 10.7 29 29 0 0 1-14.26 5.03q-.82.07-1.69.07-.54.01-1.08-.04-.02 0-.07.05-.23.1-.44.16-.43.16-.94.17h-.31q-.32-.01-.6-.1c-.73-.04-1.48-.02-2.18-.04l-5.09-.1q-5.5-.06-11.02-.1-11.33-.05-22.68-.14c-15.55-.15-31.09-.17-46.65-.24q-22.94-.14-45.83-.2l-45.86-.07q-7.1.02-14.18-.07-3.23-.08-6.47-.34c-.96-.1-2.02-.1-3.01-.26a3 3 0 0 1-1.14 0q-.45-.12-.82-.34-.4-.08-.8-.12c-12.78-1.35-23.46-9.82-23.6-23.37a34.7 34.7 0 0 1 5.18-21.89l.07-.21c.29-.8.72-1.52 1.13-2.25q.75-1.31 1.47-2.62 1.53-2.76 3.02-5.5 3-5.43 6.08-10.81 6.3-11.18 12.66-22.34a7565 7565 0 0 0 25.65-45.33c8.34-14.9 16.78-29.76 25.16-44.67a6261 6261 0 0 0 18.3-32.83l2.73-4.97c.56-1.04 1.18-2.05 1.69-3.11q.26-.9.84-1.6l.08-.07c6.34-16.81 23.47-22.12 40.28-14.86 6.78 4.35 11.53 11.39 15.7 18.14q.52.8.63 1.84c2.75 4.85 5.36 9.74 8.06 14.62q6.11 11.02 12.25 22.04 12.48 22.43 25 44.85 12.47 22.35 25 44.72 6.22 11.1 12.48 22.22c3.62 6.41 7.17 12.88 10.95 19.2q.54.65.8 1.52c.53.7 1.06 1.37 1.54 2.1a31 31 0 0 1 2.53 4.68 31 31 0 0 1 2.47 10.51z"/><path fill="#eda83f" d="M388.43 315.2c2.07 3.06 1.95 9.31.8 12.01a13.2 13.2 0 0 1-8.01 8.66c-1.43.92-2.8 2.13-4.56 1.88q-.54-.07-1.01-.33c-3.04-.25-6.13-.25-9.17-.3q-6.09-.12-12.18-.19-12.97-.16-25.93-.24l-50.54-.38q-25.8-.23-51.58-.27-11.17.01-22.3-.05l-10.48-.02c-2.58 0-5.2.1-7.79.05q-.65.08-1.28-.17-.14-.03-.26-.1a13.7 13.7 0 0 1-11.22-8.7c-1.35-3.4-1.35-7.22-.48-10.74a21 21 0 0 1 3.3-7.04q.07-.6.3-1.14.25-.58.62-1.06c1.35-2.1 2.58-4.3 3.83-6.46l5.72-9.87q5.7-9.82 11.46-19.64 12.33-21.21 24.56-42.45c8.32-14.43 16.67-28.85 24.94-43.3q4.8-8.44 9.65-16.84c1.54-2.68 3.06-5.33 4.65-7.96q1.17-1.94 2.42-3.88c.62-1.02 1.2-2.08 1.85-3.07l.27-.53 1.04-1.86a24 24 0 0 1 3.28-4.39c2.46-2.62 5.55-4.82 9.12-5.57 2-.43 4.1-.29 6.03.39 2.38.84 4.34 2.53 5.9 4.49a20 20 0 0 1 2.8 4.8q.33.31.53.72c1.5 2.6 2.92 5.28 4.4 7.91q2.83 5.06 5.71 10.1 6.11 10.72 12.18 21.43a9015 9015 0 0 0 25.3 44.26c8.23 14.3 16.44 28.64 24.69 42.92l11.55 20.02 5.55 9.65c1.2 2.1 2.36 4.22 3.69 6.27q.22.25.36.53.16.26.27.56z"/><path fill="#535353" d="M295.97 263.96q.15.75.05 1.48c-.03.55-.1 1.1-.3 1.66a3.8 3.8 0 0 1-1.78 2.07 3 3 0 0 1-2.41 1.28h-.05c-.55.1-1.13.1-1.69.1h-.65q-1.1 0-2.2.05c-.33 0-.7.05-1.05.05-2.08.1-4.2.24-6.3.24q-.7 0-1.37-.03h-.05l-6.78.22q-.42 0-.82.02-.26.05-.53.05h-.41c-.37 0-.7-.1-1.04-.21a4 4 0 0 1-2.36-2.92c-.2-.82-.15-1.72.1-2.54v-.02q0-.15.04-.29v-3.23l-.02-6.66q.01-9.91-.05-19.83c-.1-13.77-.24-27.6-.05-41.37l-.02-2.03a5 5 0 0 1-.39-1.8v-.1c0-1.98 1.35-4.27 3.57-4.27 4.37 0 8.7 0 13.07-.05l5.46-.07c1 0 2.05 0 3.06-.05.12 0 .22-.05.34-.05h.17c1.52 0 2.7 1 3.28 2.3v.02c.5.77.7 1.64.72 2.53.07 3.67-.05 7.33-.05 11q.02 6.16.08 12.33l.19 21.92.14 16.48q.03 4.35.1 8.69l.02 3.1zm-2.93 26.71a14.6 14.6 0 0 1-.96 10.64q-.35.72-.82 1.4-.63.97-1.4 1.76-.84.9-1.86 1.66a13 13 0 0 1-6.03 2.37q-.72.09-1.45.1-1.7 0-3.35-.46-1.52-.45-2.9-1.21l-.38-.22a13 13 0 0 1-5.84-7.74c-.29-1.04-.5-2.12-.55-3.2v-.81q0-2.32.75-4.5c.12-.42.29-.83.43-1.21a13 13 0 0 1 3.4-4.73q.84-.74 1.79-1.35a13 13 0 0 1 8.2-1.9q.57.07 1.1.19h.27q.7.01 1.33.36c.27.1.53.17.77.29q.9.39 1.71.89 1.04.65 1.93 1.47.07.08.15.12l.12.12q1.26 1.24 2.17 2.73.06.08.1.17l.1.17s0 .05.02.05q.03.07.1.14l.04.1.07.12q.62 1.17 1.02 2.46z"/><path fill="#ffd79a" d="M233.65 220.62c10.08 1.25 12.44 15.5 8.3 23.18a15 15 0 0 1-8.23 5.98c-5.21 1.38-11.15-.29-15.68 3.3-7.33 4.88-11.97 13.95-12.1 22.56-1.31 9.31 4.14 19.25 13.96 20.58 3.18.26 6.56-.3 9.57 1.03 2.54 1.16 3.67 3.91 4.27 6.47 1 3.38 1.91 6.78 1.52 10.32-.7 11.03-14.93 10.2-23 9.8h.16c-28.9-.87-45.47-32.86-39.54-58.93 3.74-17.85 15.25-35.27 32.71-42 8.73-3.02 19.25-5.89 28.08-2.3z"/><path fill="#fff" d="M238.56 324.95c-4.7-5.11-6.65-12.2-9.67-18.38-2.36-4.73-5.18-11.75-.1-15.73 1.62-1.2 3.58-1.25 5.48-1.06 1.9-.34 3.33 1.3 3.84 3.04 3.4 7.7 7.16 15.37 9.6 23.42 1.5 5.8-2.9 13.37-9.12 8.69z"/><path fill="#fff" d="M234.54 297.74c-3.04-1.93-2.13-6.17-2.56-9.24-.27-3.76.26-9.19 4.63-10.25 7.1-1.04 8.47 16.62 3.04 19.2-.53.36-1.18.63-1.66.07a3.3 3.3 0 0 1-3.48.22z"/><path fill="#fff" d="M244 318.63c-2.71-.92-2.83-4.08-3.22-6.46l-.43-1.93c-7.43.84-3.64-9.15-2.8-13.18-2.73-2.7-.75-6.56.92-9.26 4.97-9.07 16.35-9.14 17.2 2.49 4.85 1.35 7.19 7.06 6.46 11.75 3.86 3.5 2.85 10.4-1.4 13.14-4.65 3.3-11.24 3.7-16.76 3.45zm10.92-18.81c-.1-.58-.55-1.4-1.23-1.19q.19.47.27.97.5.03.96.24zm-7.19-8.4.5.31c.42-.62.2-1.4-.11-2.02a6 6 0 0 0-2.4 1.18v.05a3.5 3.5 0 0 1 1.99.48zm174.81-8.69c-5.21-.62-6.68-7.24-3.45-10.88 4.58-6.08 21.18-3.33 28.4-3.45 5.95.7 7.54 14 .36 13.49-3.91 1.35-8.23.65-12.28.72-4.34-.46-8.69.44-13 .12z"/><path fill="#fff" d="M425.4 275.93c-5.96-.72-4.54-10.58-1.86-14.04 6.03-6.9 16.45-3.69 24.5-4.55 4.71-.37 8.55-3.4 12.98-4.76 3.48-1.42 6.3 1.89 6.59 5.14.9 9.92-10.8 14.33-18.67 16.4-6.73 1.36-13.32-1.51-19.95-1.68-.31 1.76-1.64 3.52-3.57 3.47zM252.64 307.3c-1.88-.23-2.85-1.91-3.67-3.4q-.72-1.28-1.4-2.54c-1.95-.5-2.97-2.54-3.9-4.18-1.16-1.9-2.52-4.02-2.18-6.41.2-2.7 3.43-4.85 5.67-2.85 3.45-1.32 5.26 2.82 5.3 5.65 3.63-.68 4.61 3.54 4.42 6.34.5 3-.36 7.77-4.27 7.36zm108.02-33.13a28 28 0 0 1-18.45-7.41 26.5 26.5 0 0 1-6.9-10.59 30 30 0 0 1-1.45-7.67q.08.26.12.5l.08.13a3.1 3.1 0 0 1 .14-2.7 4.4 4.4 0 0 1 3.9-2.1c1.55 0 3.14.72 3.9 2.12.26.48.4 1.04.38 1.57v1.08q.17 1.78.6 3.52a26 26 0 0 0 1.01 3 21 21 0 0 0 3.4 5.23q.76.8 1.57 1.52 1.03.82 2.13 1.6 1.01.62 2.07 1.17 1.15.55 2.37.94 1.01.3 2.07.54a19 19 0 0 0 4.51.26c.75-.07 1.52-.14 2.27-.29q1.09-.22 2.15-.55 1.12-.4 2.24-.87 1.04-.52 2.05-1.14 1.03-.68 1.98-1.44a26 26 0 0 0 1.83-1.76q1.01-1.18 1.88-2.44a24 24 0 0 0 1.45-2.65 23 23 0 0 0 1.1-3.16q.42-1.6.56-3.26.12-1.55 0-3.11-.05-.59-.14-1.14c-.31-2.22 1.54-3.88 3.62-4.12 1.95-.24 4.6.87 4.87 3.09a27.5 27.5 0 0 1-1.4 12.56 26.5 26.5 0 0 1-8.03 11.27 27.6 27.6 0 0 1-17.64 6.25h-.28z"/><path fill="#fff" d="M362.56 267.7c-5.04-.82-20.1-2.37-19.54-9.27-1.59-.91-3.16-2.65-2.75-4.6-3.59-.97-6.6-5.65-2.67-8.23 3.95-1.9 8.68-.31 12.93-.48 9.09.5 18.2.55 27.33.4 3.04-1.08 8.8-.18 8.15 4.11v.05a3.7 3.7 0 0 1-2.34 2.58c1.9 3.69-2.56 6.03-5.72 5.84 1.33 4.29-4.2 4.94-7.2 5.28 1.15 1.01.28 2.5-.78 3.16-2.15 1.57-4.87 1.57-7.4 1.18z"/><path fill="#fff" d="M320.04 275.59a28 28 0 0 1-18.46-7.4 26.5 26.5 0 0 1-6.9-10.6 30 30 0 0 1-1.44-7.67q.08.26.12.5l.07.13a3.1 3.1 0 0 1 .14-2.7 4.4 4.4 0 0 1 3.91-2.1c1.55 0 3.14.72 3.89 2.12.26.48.4 1.04.38 1.57v1.09q.18 1.78.6 3.52a26 26 0 0 0 1.02 2.99 21 21 0 0 0 3.4 5.23q.74.8 1.57 1.52 1.02.84 2.12 1.6 1.02.61 2.08 1.18a20 20 0 0 0 4.43 1.47q1.03.19 2.08.26 1.22.07 2.44 0c.74-.07 1.51-.14 2.26-.29q1.08-.21 2.15-.55 1.13-.4 2.24-.87 1.06-.51 2.05-1.13 1.03-.69 1.98-1.45a26 26 0 0 0 1.83-1.76q1.01-1.17 1.89-2.44a24 24 0 0 0 1.44-2.65q.67-1.53 1.11-3.16.4-1.6.56-3.26.1-1.55 0-3.1c-.05-.4-.07-.78-.15-1.14-.31-2.22 1.55-3.89 3.62-4.13 1.96-.24 4.6.87 4.88 3.09a27.5 27.5 0 0 1-1.4 12.57 26.4 26.4 0 0 1-8.04 11.26 27.6 27.6 0 0 1-17.63 6.25h-.29z"/><path fill="#fff" d="M321.94 269.1c-5.04-.82-20.09-2.36-19.54-9.26-1.59-.92-3.15-2.65-2.75-4.6-3.59-.97-6.6-5.65-2.67-8.23 3.95-1.9 8.68-.32 12.93-.48 9.1.5 18.2.55 27.33.4 3.04-1.08 8.8-.19 8.15 4.1v.05a3.7 3.7 0 0 1-2.34 2.58c1.9 3.7-2.56 6.04-5.72 5.84 1.33 4.3-4.2 4.95-7.2 5.29 1.15 1 .28 2.5-.78 3.16-2.15 1.56-4.87 1.56-7.4 1.18z"/><path fill="#fff" d="M330.48 268.86c-3.83.05-11.2.14-11-5.21-4.03-.94-9.38-.24-12.3-3.57-1.98-1.79-1.04-5.26 1.54-5.94 6.47-.96 13.22.78 19.76 1.07 2.6-.1 5.07 2.94 3.35 5.25q.25.47.34 1.04c5.77 1.26 3.64 8.01-1.69 7.33zm35.82-3.59c-6.28-.73-12.4-2.37-18.51-3.82a4 4 0 0 1-2.41-1.64c-.73-1.1-.92-2.46-.2-3.62 3.19-3.97 9.12-.57 13.44-1.3-.84-.72-1.5-1.37-2.58-1.35 2.7-4.07 16.19-1.13 13.75 4.92 4.34 3.11 1.06 7.46-3.5 6.8"/><path fill="#fff" d="M367.65 263.84c.6-2.73 2.25-6.61 5.74-5.48 4.2 1.79 2.37 8.9-1.35 10.13-2.68.94-4.94-2.02-4.39-4.65m-38.95 4.7c-3.25-1.8-1.93-6.51.78-8.25 2.17-1.76 4.63-5.96 7.76-3.79 3.07-1.44 4.73 2.42 3.24 4.78-1.57 2.92-4.51 4.66-7.36 6.18a3.54 3.54 0 0 1-4.42 1.1z"/><path fill="#000" d="m376.25 257.3-3.36-.9q-1.53-.38-3.06-.81c2.24-3.14.77-7.4 2.27-10.74 2.2-3.95 9.8-1.42 7.89 3.21a17.5 17.5 0 0 1-1.98 9.68l-1.71-.44zm-16.23 9.56c-7-.22-13.34-5.17-13.83-12.4.05-2.78-1.42-6.03.22-8.52 1.42-1.85 4.63-1.98 6.37-.5 2.84 2.8.89 7.55 2.63 10.95 1.93 4.3 7.81 3.98 11.7 1.66l.07 8.16a20 20 0 0 1-7.17.65"/><path fill="#000" d="M359.56 263.17a4.9 4.9 0 0 1-3.74-2.6 7 7 0 0 1-2.1-1.38c-.75-.7-.94-1.69-.94-2.68-1.04-.58-1.86-1.45-1.93-2.75q-.06-.81.22-1.47c-3.14-.22-6.23-3.86-3.36-6.44 4.13-2.46 9.53-1.13 14.16-1.98 4.06-.1 8.28-1.28 12.28-.53 3.55.77 4.51 5.55 1 7.04.11.66 0 1.36-.42 2.03a4.2 4.2 0 0 1-2.17 1.71c.56.73.87 1.55.8 2.42l-.41-.1-3.6-.94q-.31-.53-.99-.58c-.26 0-.55.1-.77.27-.43.1-.8.4-.92.86-.12.49.08 1 .46 1.26q.01 2.5.05 5a13 13 0 0 1-3.11.28 8 8 0 0 1-4.46.6z"/><path fill="#000" d="M360.36 263.36c-.39-.97-1.23-1.64-1.43-2.75-.17-2.58 0-5.19-.48-7.72-.05-4.3 5.81-6.42 7.82-2.39 1.9 3.13.62 7.07.87 10.54 0 3.7-4.83 6.08-6.78 2.3z"/><path fill="#000" d="M369.09 255.33c-8.18-.08-4.87-11.39 1.95-9.15 7.53.4 4.56 10.98-1.95 9.15m-35.15 1.49q-1.67-.46-3.35-.9-1.53-.38-3.07-.81c2.25-3.14.78-7.4 2.27-10.74 2.2-3.95 9.8-1.42 7.89 3.21.26 3.62-.48 6.9-1.98 9.67l-1.71-.43zm-16.24 9.58c-6.99-.22-13.33-5.16-13.81-12.4.04-2.78-1.43-6.03.21-8.52 1.43-1.85 4.63-1.98 6.37-.5 2.85 2.8.9 7.55 2.63 10.95 1.93 4.3 7.82 3.98 11.7 1.66l.07 8.16a20 20 0 0 1-7.16.65"/><path fill="#000" d="M317.25 262.68a4.9 4.9 0 0 1-3.74-2.6 7 7 0 0 1-2.1-1.38c-.74-.7-.94-1.69-.94-2.68-1.03-.58-1.85-1.44-1.93-2.75q-.06-.8.22-1.47c-3.14-.22-6.22-3.86-3.35-6.44 4.12-2.46 9.53-1.13 14.16-1.98 4.05-.1 8.27-1.28 12.28-.53 3.54.77 4.5 5.55.98 7.05q.2 1-.4 2.02a4.2 4.2 0 0 1-2.18 1.71c.56.73.87 1.55.8 2.42l-.41-.1-3.6-.94a1.2 1.2 0 0 0-.98-.58c-.27 0-.56.1-.78.26a1.18 1.18 0 0 0-.46 2.12q.01 2.5.05 5c-1 .27-2.12.3-3.1.3a8 8 0 0 1-4.47.6z"/><path fill="#000" d="M318.04 262.9c-.38-.96-1.23-1.64-1.42-2.75-.17-2.58 0-5.18-.48-7.71-.05-4.3 5.81-6.42 7.81-2.4 1.9 3.14.63 7.07.87 10.55 0 3.69-4.82 6.08-6.78 2.29z"/><path fill="#000" d="M326.8 254.87c-8.18-.08-4.87-11.39 1.95-9.15 7.53.4 4.56 10.98-1.95 9.15"/><path fill="#000" d="M305.31 279.86a32.4 32.4 0 0 1-16.02-17.17c-1.3-3.3-2.1-6.85-2.38-10.4l-.08-.55c-.24-1.96.75-4.13 2.56-4.88a3.2 3.2 0 0 1 3.06.34 4.3 4.3 0 0 1 1.7 3.47q.01 1 .06 2 .09.87.25 1.74a25 25 0 0 0 2.07 6.08 38 38 0 0 0 1.74 3.04q1.02 1.5 2.24 2.85 1.11 1.2 2.37 2.29a37 37 0 0 0 3.44 2.44h.05a26 26 0 0 0 3.55 1.76l.22.07c1.3.48 2.63.87 3.74 1.13q.18.02.36.07 2.06.41 4.17.49 2.26.04 4.46-.24 2.25-.33 4.42-1.02 1.9-.64 3.71-1.54a28 28 0 0 0 3.26-1.95q1.38-1.03 2.6-2.2 1.15-1.14 2.22-2.39a26 26 0 0 0 3.24-5.19q.6-1.4 1.08-2.84.4-1.3.68-2.68.25-1.48.36-2.99.08-1.5-.03-3c-.02-.33-.07-.7-.12-.98a5 5 0 0 1-.02-1.3c.2-1.7 1.3-3.4 3.04-3.79 1.47-.34 2.9.43 3.64 1.71.41.7.6 1.5.6 2.27v.1a38 38 0 0 1-.24 8.27 36 36 0 0 1-3.4 10.57 28 28 0 0 1-3.04 4.8 44 44 0 0 1-3.47 3.88 35 35 0 0 1-4.3 3.45 32 32 0 0 1-17.7 5.5c-4.82 0-9.67-1.11-14.02-3.18z"/><path fill="#000" d="M335.93 248.31q.01-.04.07-.07v.07zm-4.48.07s-.04.1-.04.17q.38-1.12.77-2.2.16-.36.26-.72.07-.24.1-.48V245q.55.01 1.06.2l-.99 1.8q-1.2 2.29-2.34 4.59.58-1.59 1.14-3.2zm15.77 29.84a32 32 0 0 1-9.58-7.05q.5-.63.92-1.3.5-.8.94-1.64.8-1.4 1.52-2.85.37-.7.7-1.44l.7.82q1.11 1.2 2.36 2.29a37 37 0 0 0 3.43 2.41h.07c1.2.72 2.46 1.33 3.52 1.76.07 0 .15.05.22.07 1.3.49 2.63.87 3.74 1.14q.18.02.36.07 2.07.4 4.17.48 2.24.05 4.47-.24 2.24-.33 4.41-.99 1.91-.64 3.72-1.54a28 28 0 0 0 3.25-1.96q1.38-1.02 2.6-2.2a53 53 0 0 0 2.23-2.38q.98-1.25 1.85-2.63.76-1.26 1.38-2.56.6-1.4 1.09-2.84a24 24 0 0 0 .98-8.66q-.05-.53-.12-1a5 5 0 0 1-.02-1.3c.2-1.68 1.3-3.4 3.04-3.78 1.47-.34 2.9.43 3.64 1.71q.6 1.06.6 2.27v.05c.17 2.8.17 5.55-.26 8.3a36 36 0 0 1-3.4 10.56 28 28 0 0 1-3.04 4.8c-1.11 1.35-2.2 2.68-3.5 3.89a35 35 0 0 1-4.3 3.44 32 32 0 0 1-17.7 5.48c-4.82 0-9.67-1.1-14.01-3.18z"/><path fill="#b16b02" d="M289.57 249.61c-1.98-.24-3.11-2.46-3.11-4.27 0-2.05 1.42-4.3 3.67-4.3 7.38 0 14.76.1 22.16.1h25.21q12.76-.02 25.5-.11c4.12 0 8.27-.08 12.4-.13 3.54-.04 7.11 0 10.66-.14q.37 0 .7-.02a3 3 0 0 1 1.66.12c1.7.6 2.58 2.4 2.58 4.12 0 1.55-.72 3.14-2.12 3.9q-1.06.55-2.1.32h-.02q-1.45-.06-2.92-.05h-5.55c-4.22 0-8.44-.04-12.66-.04-8.4 0-16.81 0-25.23.1-16.36.11-32.71.16-49.07.45h-.99q-.4.01-.8-.05z"/><path fill="#b16b02" d="M386.44 247.66c-1.91-.3-3.77-2-3.29-4.08.22-.92.78-1.6 1.53-2.07-1.5-2.08.19-4.8 2.53-5.19 8.8-1.08 7.5 12.57-.77 11.34"/><path fill="#b16b02" d="M383.8 242.71h-5.67q-5.8.01-11.63-.05-11.22 0-22.4-.1-13.35-.05-26.66-.04h-22.82c-.58.1-1.18.07-1.74 0-1.64-.31-3.23-1.52-3.42-3.28-.32-2.7 2.36-4.13 4.77-3.91q.83.03 1.67 0h5.23c3.79 0 7.58.05 11.36.07q11.9.1 23.79.1c15.46 0 30.95.05 46.41.05h3.64c1.4-.1 2.85.38 3.79 1.4.84.94 1.16 2.26.65 3.45a3.9 3.9 0 0 1-2.97 2.24q-.9.1-1.8.1c-.75 0-1.52-.05-2.25-.05z"/><path fill="#b16b02" d="M285.03 244.61c-2.46-5.69 4.73-10.44 9.86-9.21 5.02.87 4.3 7.28-.74 7.21 2.67 6.25-7.07 6.88-9.12 2"/><path fill="#b16b02" d="M286.93 247.08c-5.62-2.83-.4-9.07 4.42-7.02 1.83.5 3.4 2.22 2.96 4.2-.67 2.84-4.99 3.83-7.38 2.8z"/><path fill="#db5f32" d="M276.75 272.1c-6.1-11.17 4.41-26.34 16.9-20.45 2.4 1.73 5.58 4.48 5.1 7.79-.4 2.2-2.49 4.32-4.85 3.47-1.52-.53-2.1-1.78-2.97-2.97-1.5-1.7-4.3-1.13-6.08-.19-2.63 1.4-3.09 4.7-2 7.26.75 1.62 1.66 2.87 1.28 4.68-.97 4.44-5.8 4.75-7.36.46z"/><path fill="#db5f32" d="M318.2 302.2a64 64 0 0 1-21.7-9.2 61 61 0 0 1-13.03-11.75 58 58 0 0 1-4.63-6.56c-.8-1.33-1.81-2.75-2-4.35a4.8 4.8 0 0 1 1.8-4.24 3.3 3.3 0 0 1 3.98 0c.7.53 1.04 1.28 1.4 2q.48.89 1 1.78a45 45 0 0 0 3.7 5.29l-.04-.07v-.05s-.05-.05-.05-.07q.06.08.12.12l.07.1a58 58 0 0 0 4.85 5.18 62 62 0 0 0 6.85 5.38 61 61 0 0 0 8.3 4.56 64 64 0 0 0 9.36 3.28h.1a58 58 0 0 0 9.3 1.54q4.32.3 8.62-.07 3.97-.41 7.84-1.4 3.03-.83 5.93-2.05a32 32 0 0 0 3.77-1.88q.36-.23.65-.44s.05-.02.05-.05q.14-.07.26-.16c.6-.49 1.35-.78 2.12-.78 1.52 0 2.75 1.09 3.24 2.49.77 2.17-.32 5-2.34 5.84l-1.19.67a51 51 0 0 1-14.09 5.19 54 54 0 0 1-11.16 1.13c-4.4 0-8.8-.5-13.05-1.44z"/><path fill="#db5f32" d="M352.14 291.65c.39-1.52 1.84-2.18 2.49-3.45 1.74-2.44-.17-5.34-3-5.36-2.96-.43-6.94 2.17-8.7-1.45-2.58-7.84 9.7-8.32 14.3-5.64 5.1 3.01 6.71 9.77 4.3 15.03-1.26 2.6-2.87 6.27-6.15 6.56-2.8 0-4.06-3.35-3.24-5.67z"/><path fill="#db5f32" d="M335.64 297.92c-7.7-.15-54.61-9.22-50.41-19.83-3-1.02-3.67-5.16-.44-6.32-2.75-1.76-7.89-4.37-4.31-7.75-2.3-3.32-.73-8.27 3.73-8.15 1.74.03 3.4.53 5.14.75.41-4.25 6.59-4.22 8.25-.85 5.48 10.74 16.72 16.72 28.32 18.55a60 60 0 0 0 16.28.49c5.38-.6 11.03-1.96 15.15 2.26 3.14 2.63 6.08 8.8 1.09 11.1 0 1.11-.58 2.22-1.57 2.75a19 19 0 0 1-5.19 1.69c1.86 6.95-11.91 5.11-15.99 5.33z"/><path fill="#c1dcff" d="M208.26 195.44c.9 4.43-3.2 5.78-6.51 7.11a37 37 0 0 0-11.8 9.7c-8.37 10.56-12.93 23.76-23.06 32.93a119 119 0 0 1-9.58 7.47c-5.02 2.32-10.85 2.56-16.2 1.43-26.42-5.07-34.6-37.95-25.34-60.33 8.62-24.05 27.96-40.4 46.6-56.18 3.82-3.14 7.85-6.04 11.42-9.41 1.2-1.11 2.31-2.13 4.08-1.96 3.13.41 4.17 4.78 2.4 7.07 7.73 10.69 11.37 23.5 17.11 35.2 4.78 8.46 7.58 17.87 10.86 26.94z"/><path fill="#556d8d" d="m241.93 282.7.02.06zm.24.47c-.1-.31-.27-.6-.41-.87q-.17-.37-.39-.75a1 1 0 0 0-.17-.3v-.03q-.01-.08-.07-.12l-.12-.17c0-.05-.05-.07-.05-.1l-.17-.29q-.11-.18-.24-.31a3.6 3.6 0 0 0-1.56-1.52q-.31-.14-.6-.24h-.11c-.04 0-.12-.05-.16-.08h-.05q-.3-.14-.58-.1h-.6c-.24 0-.46.1-.63.22q-.18.01-.36.1l-5.99-14.3q-10.13-24.25-20.3-48.49-9.95-23.71-19.86-47.42c-4.56-10.98-9.26-21.9-13.92-32.86v-.05h-.02v-.02c-.85-1.96-.3-4.63 1.64-5.74 1.9-1.09 4.12.05 4.9 1.98q9.48 23.1 19.12 46.19 10.04 24 20.03 48.03 10.12 24.29 20.28 48.58 1.6 3.77 3.16 7.55-.25.14-.53.27l-.22.1q-.43.15-.84.43-.09.05-.17.12-.35.2-.65.46l-.14.07c-.03 0-.08.05-.1.07q.01-.1-.05-.2zm14.98 33.82s-.1.05-.14.05q.07-.01.14-.05m-1.61.65h.1q-.06 0-.1.02zm-2.68.56.1-.05q-.08 0-.1.05h.04z"/><path fill="#556d8d" d="M269.63 359.04a4 4 0 0 1-.68-.92 4 4 0 0 1-.65-1.6c-1.11-2.89-2.34-5.76-3.52-8.63l-4.73-11.48-7.55-18.14q.09 0 .17-.02.07.01.17-.05h.12l.62-.15h.3c.4-.05.81-.17 1.22-.26l-.14.02c.29-.07.6-.12.9-.24l.06-.02q.44-.06.87-.25a13 13 0 0 0 1.96-.89q.03 0 .07-.05.21-.1.43-.24l2.56 6.08 7.17 17.03q1.66 4 3.4 8.01c.82 1.9 1.56 3.84 2.46 5.72q.19.32.33.65l.17.38q.07.16.1.32a5 5 0 0 1-.34 3.64 3.5 3.5 0 0 1-3.09 1.98 3.5 3.5 0 0 1-2.34-.94zm-94.52-223.87c-3.57-4.87 3.09-10.78 8.32-10.51.46.4.87.87 1.3 1.32q-.01.01.05.05l.05.05h-.02l2.07 2.32.1.1q.53.75 1.13 1.49v.02a3.9 3.9 0 0 1-2.34 3.3c-.72.27-1.37.2-2 .13-.87-.1-1.64-.2-2.44.58a3.7 3.7 0 0 1-3.52 2.53c-.99 0-2-.41-2.72-1.33z"/><path fill="#556d8d" d="M234 260.06c-6.7-16.23-13.46-32.47-20.2-48.73q-9.94-23.96-19.85-47.9-3.42-8.29-6.87-16.53l-3.45-8.2c-.87-2.05-1.84-4.05-2.56-6.15-.63-1.81.12-4.22 1.81-5.19a3 3 0 0 1 3.06-.07q.47.55.97 1.06.03.05.1.1.5.72 1.08 1.42c.44 1.01.8 2.07 1.23 3.09q1.17 2.84 2.3 5.7 2.48 6.16 5.01 12.32l9.72 23.59 19.86 48.17 20.28 49.19 4 9.72s-.07 0-.09-.02a12 12 0 0 0-2.36-.27h-.05c-.3-.05-.63 0-.92.02q-.42.01-.82.1-.53.11-1.01.27c-.3.1-.6.26-.87.38l-.2.1q-.43.16-.84.4zm39.55 95.89c-.17-.2-.3-.39-.3-.49a5 5 0 0 1-.57-1.35c-1.18-3.13-2.5-6.25-3.76-9.36q-2.4-5.9-4.83-11.77l-6.56-15.97q.62-.29 1.2-.6l.95-.5a1 1 0 0 0 .29-.25l.5-.36-.07.05.1-.08h.02q.26-.16.49-.33.37-.24.7-.58l.57-.6q.42-.38.8-.8l.22-.31 3.3 7.96q3.37 8.06 6.73 16.16c1.13 2.7 2.3 5.43 3.43 8.15.75 1.79 1.47 3.62 2.29 5.4q.37.55.55 1.24v.02s.05.12.05.2q.08.25.12.55a5 5 0 0 1-.43 2.99 3.6 3.6 0 0 1-2.46 1.98q-.34.05-.63.04a3.5 3.5 0 0 1-2.7-1.37z"/><path fill="#556d8d" d="M272.26 360.02c-3.76-1.33-4.7-6.32-2.32-9.26.49-1.79 2.44-3.02 4.23-2.06 7.57.73 5.42 12.96-1.91 11.32"/><path fill="#c1dcff" d="M503.19 176.84a60 60 0 0 1-.53 24.87 58 58 0 0 1-10.2 21.57 56 56 0 0 1-17.76 15.39 57 57 0 0 1-27.62 7.19 56.8 56.8 0 0 1-38.57-15.17c-10.9-10.23-17.76-24.59-18.39-39.59-.16-4.1 0-8.2.68-12.23q1.04-6.14 3.28-11.96c3.02-7.97 8-15.18 14.19-21.01a57 57 0 0 1 31.38-15.01q.38-.14.65-.17h.29c1.47-.12 2.92-.26 4.41-.31h1q.82-.01 1.66-.05c.91 0 1.85-.05 2.75.12q1.65.1 3.3.29a57.5 57.5 0 0 1 23.04 7.94 58 58 0 0 1 26.44 38.16z"/><path fill="#828282" d="M487.5 186.95c.1 4.7-2 10.13-5.5 13.22l-.16.14q.24.24.43.56c2.34 3.4-.17 9.16-4.51 9.04a5 5 0 0 1-3.18-1.42c.43 5.43-3.81 12.88-9.75 8.42-1.52-1.4-2.68-3.62-3.38-6.08-.87.5-1.9.72-2.91.55-.56 4.75-3.43 9.77-8.6 8.16-3.5-1.4-4.6-4.4-4.96-7.72-.87.48-1.88.67-2.92.38-.87 4.06-3.35 8.33-7.84 7.67-3.19-1.03-5.21-4.53-5.38-7.79q.07-.65.1-1.3a4.3 4.3 0 0 1-4-.27c-1.91 2.78-4.93 4.5-8.4 2.8-3.98-2-3.24-7.4-2-10.95 1.25-3.33 3.3-10.73 8.1-7.7 1.69-.94 3.4-.1 4.39 1.33 2.97.34 4.66 5.24 2.03 7.55q-.16.38.05.75.25.06.55.05c.34-1.71.82-3.35 1.6-4.85 1.37-1.8 4.31-1.8 5.52.14 1.3-.62 2.31-.72 3.1-.45 2.16-2.15 4.88-.68 5.77 1.69 1.6-2.13 4.61-2.06 5.91.33.87-.4 1.93-.33 3.19.39a16 16 0 0 1 0-4.63c.4-11.63 2.24-24.56 11.5-32.62-1.18-2.67.53-6.34 3.67-6.27 1.06 0 1.9.56 2.5 1.35l.35.15c2.29-7.14 7.5-15.34 11.58-10.35 3.01 4.8-3.57 7.86-4.66 12.18-.39.9-.5 1.9-.58 2.92 1.4.34 2.39 1.76 2.6 3.23 3.94 5.55 5.77 12.6 5.77 19.35z"/><path fill="silver" d="M461.96 205.52c-.9 0-1.76-.04-2.66-.04h-.19a5 5 0 0 1-.24-1.21c-.8-10.1-1.3-20.82 3.71-30.03 3.07-4.73 6.83-11.87 13.32-11.41 5.45 1.35 7.4 8.34 9.63 12.9 6.63 15.85-2.78 29.26-19.66 29.58q0 .04-.03.1l-1.86.09h.15q-.34 0-.63.02h-.26q-.62 0-1.26-.04z"/><path fill="silver" d="M476.75 202.22c-1.96-.82-2.73-3.11-2.18-5.07 1-2.91 3.94-3.74 5.48-6.22 2.87-6.97-.48-15.78-5.16-21.1-2.53.81-4.7-1.94-4.78-4.35-.1-3.5 1.81-5.04 4.1-5.09a46 46 0 0 0 3.53 1.55c.33.28.65.65 1 .94.4.31.78.65 1.19.94a1 1 0 0 0 .31.17c7.48 8.92 12.14 24.6 3.74 34.25-.84.84-1.83 2.03-2.92 2.92-.05 0-.12.05-.17.05q-.96.3-1.9.75l-.97.5q-.62.01-1.25-.26z"/><path fill="#df6033" d="m477.4 171.9.31-.44v.05c0-.03.05-.05.05-.07l-.24.62-.12-.14zm-32.82 34.13c-10.35-1.25-22.7-1.06-30.73-8.54-1.71-2.15-1.69-5-1.71-7.62-1.09-10.71 3.9-21.06 12.44-27.43 10.5-7.67 24.15-12.42 37-8.76a47 47 0 0 1 13.59 7.36l-.53.34c-.46.31-.92.6-1.35.96q-.68.5-1.3 1.02l-1.43 1.25-.92.9q-.55.53-1.06 1.08l-1.3 1.45q-1.08 1.2-2.03 2.55-1.2 1.7-2.14 3.53a33 33 0 0 0-2.85 7.81q-.25 1.1-.4 2.22-.14.66-.23 1.3-.2 1.58-.36 3.16v-.17q-.1 1.08-.14 2.15c-.05 1.04-.12 2.05-.05 3.06.1 1.8.43 3.55.75 5.29v.02q.29 1.89.5 3.81.18 1.56.25 3.12-3.41.15-6.73.14c-3.31 0-6.47-.07-9.32-.1z"/><path fill="#828282" d="M472.02 162.5c1.28 2.5 3.07 5.51 2.34 8.36-.6 2.05-2.68 3.4-4.65 2.68-1.6-.55-2.1-2.07-2.49-3.55-.72-2.8-3.04-4.87-5.52-6.15a4.54 4.54 0 0 1-3.43-5.26c2.2-8.13 11.2.12 13.75 3.93z"/><path fill="#272727" d="M266.08 268.79a5 5 0 0 1-.39-2.75q.07-.9.07-1.79.06-2.63.08-5.25.08-5.35.12-10.74v-2.92l.05-1.06v-.89a6 6 0 0 1 0-1.28c0-.68 0-1.35.02-1.88v-.41c.02-3.64.07-7.29.1-10.71l.12-16.14v-.8q0-3 .04-5.98v-.58q.1-8.22-.07-16.43c-.05-2.07 1.11-4.4 3.4-4.65 2.56-.27 3.96 2.31 3.89 4.53-.2 5.4-.27 10.79-.3 16.02v.39c.08.91 0 1.88 0 2.8v4.17l-.02 1.54v1.55q0 1.55-.02 3.09l-.1 10.17-.07 13.25v1.83q-.04 6.48-.05 12.95v6.69c0 .91 0 1.83.07 2.6.17 2.2-1.03 4.59-3.37 4.83h-.32a3.6 3.6 0 0 1-3.16-2.17z"/><path fill="#272727" d="M291.62 192.22c-1.62-.1-3.24-.07-4.83-.12l-6.53-.17c-2.37-.05-4.7-.05-7.07-.07h-2.2c-.89 0-1.78.07-2.6-.39-3.02-1.63-2.85-6.7.36-8 .7-.3 1.47-.17 2.22-.15q1.12.06 2.27.1 3.64.13 7.33.22l6.51.12c1.52.02 3.09.17 4.63.1a3 3 0 0 1 2.32.28c2.2 1.06 2.68 4.22 1.62 6.2a4 4 0 0 1-1.98 1.81l-.2.07q-.43.15-.91.15-.47 0-.94-.15"/><path fill="#272727" d="M289.63 234.69a4 4 0 0 1 0-1.79v-1.88.63-.78c-.07-9.43-.05-18.88-.12-27.74q-.06-6.84-.27-13.63c-.07-2.07 1.04-4.44 3.33-4.7 2.53-.29 3.98 2.24 3.96 4.46-.1 4.61-.12 9.2-.07 13.2 0 2.99.07 6 .1 8.4.02 3.51.06 7.01.09 9.93v2q.04 4.34.1 8.64v1.1c.43 2.32-.75 5.1-3.26 5.39h-.39c-1.78 0-3.16-1.55-3.5-3.26zm4.34 58.64q.1.34.1.58zm-21.94 15.07a15 15 0 0 1-7.07-10.27 15.8 15.8 0 0 1 5-14.6 15 15 0 0 1 5.14-3.01c1.2-.41 2.75-.84 4.1-.63q1.15-.02 2.31.15a39 39 0 0 0 4.85 6.49c.92.94 1.88 1.9 3.02 2.58.48.29.94.5 1.44.72.44.17.92.34 1.38.39q.26.05.5.02.35.31.75.53.3 1.13.41 2.25v.16q.14.38.2.75v.12-.1q0 .2.05.42.02.59-.08 1.1-.07 1.09-.24 2.13a15.1 15.1 0 0 1-9.31 11.72q-.04-.01-.1.05-.03-.01-.1.05l-.07.02c-.02.03-.04 0-.07.03a14 14 0 0 1-4.87.89c-2.51 0-5.02-.65-7.21-1.93zm6.06-20.06q-.66.1-1.3.26c-.4.12-.75.27-1.14.44l-.75.4a10 10 0 0 0-.96.78q-.35.33-.7.7l-.44.58-.4.72q-.18.38-.32.77l-.22.77-.1.87v.65q.06.48.1.97l.22.82.27.63q.2.4.43.8.3.42.63.81.39.44.82.82.5.4 1.08.77.56.3 1.11.56.63.23 1.26.38.64.14 1.32.2.76.02 1.55-.08.66-.1 1.32-.28.51-.19 1.02-.42.51-.25.99-.55l.72-.55.5-.51.05-.05q.33-.39.6-.82.26-.39.47-.82.16-.36.29-.72.14-.48.26-.97c0-.12.05-.26.05-.38v-.22c0-.12-.05-.24-.05-.27v-.65c0-.21 0-.31.05-.5l-.22-.87q-.18-.51-.38-1a9 9 0 0 0-1.09-1.68l-.72-.72q-.44-.36-.92-.68-.56-.32-1.16-.58-.62-.23-1.25-.38c-.48-.1-1-.15-1.47-.2h-.51q-.48.1-.97.12zm177.56-97.56c1.02 2.1 1.28 4.6.25 6.68q-.34-3.31-.25-6.68m-38.63 4.46c1.9 2.13 1.02 5.05-.58 7.02a19 19 0 0 1-2.8-2.9q-1.15-1.83-1.9-3.83c1.4-1.56 3.18-2.05 5.28-.29m7.59 9.58c3.16-1.09 4.83 1.37 4.8 4q-1.13-.43-2.22-.94-1.81-.64-3.64-1.42c-.17-.08-.34-.12-.48-.22q.37-.57.94-1.04.28-.22.6-.4z"/><path fill="#272727" d="M428.67 202.68c2.9 1.4 2.46 3.93 1.86 6.53l-1.11-.38q-1.13-.44-2.22-.94-1.82-.65-3.64-1.42.18-.67.43-1.26c.9-2.03 2.37-3.23 4.66-2.56zm17.29 7.59q.17.59.29 1.18a87 87 0 0 1-6.64-.38 3.8 3.8 0 0 1 1.2-2.06c1.65-1.66 4.38-.84 5.15 1.26"/><path fill="#272727" d="M446.8 211.48h-.55a87 87 0 0 1-6.64-.39h-.1c0-1.1.18-2.22.78-3.23a3.37 3.37 0 0 1 4.63-1.3c1.88 1.08 1.83 3.09 1.88 4.97zm14.12-1.16q.24.35.43.77c-1.84.17-3.67.2-5.5.26h-.56a3.6 3.6 0 0 1 1.43-1.8 4 4 0 0 1 2.41-.42 2.7 2.7 0 0 1 1.79 1.19"/><path fill="#272727" d="M463.15 209.19c0 .38 0 .82-.1 1.28v.44q-.84.13-1.68.19c-1.84.16-3.67.19-5.5.26l-.03-.99q.01-.75.1-1.52c.26-1.25.8-2.14 1.47-2.68.58-.48 1.25-.7 1.93-.72a3.8 3.8 0 0 1 3.81 3.76z"/><path fill="#272727" d="M464.64 203.06c2.58 1.9 2.08 6.92-1.16 7.76h-.43q-.75.01-1.52-.16-.34-.14-.6-.32a2 2 0 0 1-.73-.65l-.2-.24a5 5 0 0 1-.64-4.03c.34-1.4 1.25-2.63 2.63-2.99q.58-.17 1.28-.1.4 0 .8-.04.06.25.16.5.22.12.44.27zm12.79-42.99q.14.92-.12 1.81a4.5 4.5 0 0 1-1.19 3l-.74-.4a6 6 0 0 1-2.27-1.78 5.1 5.1 0 0 1-.29-4.82c0-.05.05-.1.05-.12.26-.58.63-1.35 1.06-2.22 1.64 1.18 3.3 2.48 3.47 4.51z"/><path fill="#955a00" d="M229.95 222.26c-1.55-.65-2.22-2.32-2.2-3.88 0-1.09.53-2 1.04-2.92q.66-1.2 1.33-2.37 1.29-2.32 2.53-4.63c1.71-3.13 3.5-6.25 5.23-9.36q5.47-9.66 10.96-19.3l7.64-13.48c2.27-4.03 4.63-8 6.8-12.04a1 1 0 0 1 .15-.29c.12-.24.24-.46.24-.55q.19-.3.41-.56l.03.05c.3-.38.72-.7 1.15-.96l-1.13 1.03 1.54 2.7q2.27-.45 4.54-.96c.24 1.2 0 2.32-.46 3.28l-.1.17q-.21.36-.45.65-.78 1.3-1.48 2.6l-2.8 4.93-5.25 9.21a3177 3177 0 0 0-11.15 19.66q-3.88 6.9-7.81 13.75a223 223 0 0 1-3.86 6.59q-.93 1.56-1.84 3.16c-.72 1.28-1.37 2.72-2.72 3.45q-.62.3-1.3.31-.54 0-1.07-.22z"/><path fill="#955a00" d="M262.92 156.94c-.49-4.85 3.88-8.61 6.8-11.97 6.03-7.54 18.64-8.56 24.46-.21 2.31 3.8 8.34 10.7 2.9 14.25-2.08 1.04-4.33-.6-4.86-2.65-1.8-3.33-3.5-7.33-7.3-8.78-6.76-1.76-11.7 4.34-14.96 9.31-.77 4.2-6.27 4.3-7.04.05"/><path fill="#955a00" d="M336.33 235.9a4 4 0 0 1-1.74-2.28c-.65-1.4-1.5-2.75-2.22-4.1q-2.4-4.49-4.82-8.95-5.56-10.2-11.22-20.38c-7.45-13.44-14.88-26.87-22.58-40.19-.22-.36-.41-.72-.41-.72-.2-.34-.43-.65-.58-.99a4.9 4.9 0 0 1 .9-5.55 3.34 3.34 0 0 1 5.1.63c.4.58.68 1.25 1.02 1.86l2.51 4.7q2.63 4.84 5.28 9.67 5.64 10.36 11.34 20.68a2879 2879 0 0 0 21.06 37.58c.1.17.2.36.22.36q.21.42.45.8a4.8 4.8 0 0 1-.36 6.4c-.65.6-1.5.93-2.34.93q-.84.01-1.61-.46M186.26 338.6q-.74-.08-1.5-.12l-1.42-.22q-.75-.11-1.5-.19c-3-.84-5.64-2.24-7.5-5.04-6.12-6.75-5.23-16.93-1.49-24.68a45 45 0 0 1 3.16-5c.75-1.37 1.88-2.62 3.57-2.52 2.66.14 3.93 3.18 3.28 5.5-1.5 3.4-4.49 6.1-5.11 9.93-1.52 4.83-.17 9.82 3.9 12.88l.68.2.68.34q.8.37 1.64.6.16.08.34.12.82.3 1.68.46h.1q.5.08 1.01.12h.27c3.38 1.64 2.92 6.34.17 7.79q-.97-.1-1.96-.17"/><path fill="#955a00" d="M176 304.33c-1.44-2.92-2.96-5.82-4.12-8.88-1.52-4.25-6.56-22.92 2.22-20.99 1.88.78 2.66 3 2.32 4.88-.44 7.6 2.58 14.74 6.13 21.13 1.73 4.27-3.99 8.63-6.57 3.86z"/><path fill="#955a00" d="M212.02 327.78a42 42 0 0 1-24.44-10.08c-8.15-5.82-13.22-14.45-15.3-24.15-1.03-3.6-4.53-8.78-.06-11.39 5.45-1.78 5.5 6.35 7.06 9.7a40 40 0 0 0 5.75 12.76c5.64 5.74 12.25 11.48 20.21 13.46 8.88 2.37 17.63 2.2 25.9-1.54 2.16-.56 3.99.99 4.42 3.06.41 1.93-.5 4.75-2.68 5.24-.77.17-1.54.48-1.8.58a36.3 36.3 0 0 1-19.04 2.36zm25.08-78.33q-1-2.48-1.98-4.97.36-.02.72-.1c2.15-.55 3.98 1.02 4.39 3.07.4 2.73-.53 4.1-2.1 4.83q-.5-1.43-1.04-2.85zm-13.73 50.97c-28.4-6.15-24.42-43.92-.7-53.23l.67 1.76 2.2 5.74c-13 5.04-21.37 23.5-9.14 33.53 2.29 2.2 5.42 3.16 8.39 3.88 3.74 1.4 2.85 8.32-1.28 8.32h-.2zm.07-83.42s.02.08.04.1q0-.06-.04-.1m-24.27 8.85c.7-4.87 6.68-6.34 10.46-8.27l.53-.22.15.48c.31 1.09.6 2.18 1.01 3.21q.28.81.63 1.6.36.82.77 1.61.22.44.46.82c-1.9.7-3.76 1.52-5.62 2.34-1.54.87-2.58 2.44-4.39 2.85q-.24.04-.46.05c-2.15 0-3.79-2.4-3.55-4.47"/><path fill="#955a00" d="m237.09 249.45-1.76-4.42q.5-.59 1.2-.96c6.52-3.72 3.89-13.66-.8-17.85-3.27-2.2-6.46-3.36-10.07-3.45l-.41-1.16q-.4-1.05-.82-2.08l-.3-.72-1.3-3.23-.43-1.14c5.86-.4 11.72.73 16.67 4.22 8.49 6.54 11.72 21.09 4.58 29.68-1.47 1.54-3.33 3.59-5.57 3.85q-.47-1.37-1.02-2.75zm-8.16 71.95c-4.06-6.82-5.75-14.58-8.5-21.87-1.54-2.77.05-7.57 3.77-6.9 1.64.36 2.63 1.86 2.87 3.45.84 2.24 1.47 4.54 2.22 6.83 1.42 5.13 4.15 9.84 5.74 14.86.6 3.3-3.5 6.58-6.1 3.64m32.21 17.82h-1.01q-.72 0-1.43-.02h-.6c-.9 0-1.76 0-2.08-.02-1.66 0-3.32-.05-4.87-.05h-1.69c-1.54 0-3.08-.05-4.5-.05q-2.82-.04-5.44-.05c-.65 0-1.3 0-1.73-.02-1.35 0-2.7 0-3.81-.03h-1.19q-1.77 0-3.44-.05h-3.09c-1.2 0-2.4-.02-3.4-.04q-1.8-.01-3.48-.05h-1.1c-5.24-.08-10.45-.1-15.57-.17l-7.7-.07h-3.56c-.6 0-1.26-.03-1.86.02.17 0 .34-.05.5-.05q.28-.08.54-.12l.53-.2.48-.26s.05-.05.1-.07c-2.44 1.64-6.59.44-7.02-2.7-.22-1.5.7-2.85 2.03-3.48.86-.4 1.83-.5 2.77-.36a35 35 0 0 0 2.27.05c1.64.05 3.28.05 4.92.1l10.15.14q2.4.02 4.7.07h.51q4.47.08 8.83.13h1.72c.74 0 1.5 0 1.66.02h2.07c.78 0 1.55 0 1.74.02h4.51q2.43.01 4.85.05h.75q1.75.01 3.33.05c1.28 0 2.55.05 3.74.05l2.2.02c.79 0 1.58 0 2.16.03.77 0 1.57 0 2.25.02h6.41q.3.71.63 1.42.18.62.41 1.24a40 40 0 0 0 1.79 4.34h-.05zm112.33 1.53c-8-.17-16.04-.34-23.47-.44h-5.67c-1.08 0-2.17-.02-3.13-.05h-1.11q-.89 0-1.6-.02h-4.84c-4.08-.05-8.16-.07-11.6-.12h-1.5q-.91 0-1.76-.02h-5.26c-.48 0-1 0-1.74-.03-1.06 0-2.12 0-3.04-.05h-.2c-.57.05-1.17 0-1.75 0h-5.33c-.63 0-1.26 0-1.67-.02h-1.42c-1.28 0-2.56-.05-3.76-.05h-.44q-1.57.01-2.97-.05h-.43q-1.5 0-2.9-.05h-8.17c-.85.08-1.74 0-2.56-.02h-3.06l-.3-.55-.26-.73q-.58-1.48-1.23-2.97-.59-1.37-1.2-2.72h.26q2.08-.01 4 .05l4.7.04h.52l11.6.13c2.29 0 4.6.04 6.66.07h2.92q.83 0 1.56.02h2.2l1.06.05h1.88c1.06 0 2.12 0 2.92.02h1.91c1.88 0 3.73.05 5.04.08h13.46l1.61.02h6.97q.78 0 1.48.02h4.29-.1 1.33q6.63.07 13.25.1c4.07 0 8.15.12 12.23.05 2.1-.05 4.43 1.18 4.75 3.45a3.3 3.3 0 0 1-1.11 2.9c-.87.74-1.93.98-3.04.98h-.2zm10.69-20.44a3.8 3.8 0 0 1-2.44-2.27q-.68-1.25-1.44-2.5l-2.75-4.71c-1.74-2.92-3.38-5.93-5.12-8.88L365.4 290l-2.67-4.6-.68-1.12q.16-.9.17-1.8.01-.85-.05-1.7.58-.06 1.11-.17c.48.1.97.22 1.45.22.84 0 1.66-.17 2.5-.29q1.07-.14 2.13-.34l1.23 2.13q1.49 2.58 3.02 5.16c2.67 4.56 5.25 9.19 7.98 13.75q2.07 3.44 4.1 6.95l2.44 4.2c.53.89 1.03 1.8 1.52 2.53.31.48.53 1.06.53 1.69a3.8 3.8 0 0 1-1.86 3.18 5 5 0 0 1-4.15.55z"/><path fill="#955a00" d="M373.12 339.84c-3.28-.9-3.12-5.45-.07-6.56 3.52-.8 6.36-1.5 9.21-3.72 2.8-1.86 2.8-5.67 1.28-8.34-.48-1.6-2-2.49-2.32-4.13-.48-3.57 4.22-5.74 7-3.74a17.4 17.4 0 0 1 4.94 11.22c-.1 6.03-4.53 10.5-9.72 12.93-3.16 1.52-6.78 3.11-10.32 2.31zm-113.8 22.28.24.17a4 4 0 0 0 1.01.26c-.65-.12-1.37-.1-2.03-.1l-2.67-.11c-3.02-.15-6.03-.22-9.05-.34q-9.47-.34-18.94-.6c-1.08-.03-2.2 0-3.28-.1-1.97-.14-3.1-2.15-3.09-3.95.05-1.98 1.55-4.52 3.8-4.52 2.02 0 4.04.17 6.07.25q4.89.2 9.75.36c5.83.19 11.7.43 17.53.58l2.4.07h.26c2.22 0 3.66 1.8 3.62 3.98-.05 1.98-1.55 4.51-3.8 4.51q-1-.01-1.8-.46zm67.36 1.4h-.1q-.15 0-.29-.02h-.8q-.86-.02-1.73-.07-4.38-.16-8.76-.22c-7.33-.1-14.67-.27-22-.34q-1.89 0-3.79-.05h-1.95c-1.93-.14-3.2-1.88-3.26-3.8-.05-2.4 1.64-4.64 4.1-4.69q1.25.01 2.49.1 2.7.08 5.4.12 5.34.15 10.66.21c6.2.08 12.43.3 18.65.3h2.22c2.24 0 3.43 2.5 3.23 4.46-.21 2.14-1.86 4.07-4.1 4.07zm83.75-28.44c-1.3-1.6-.99-3.74-1.28-5.64a27 27 0 0 0-2.58-8.66 82 82 0 0 0-8.54-15.7c-.99-1.31-2.12-2.59-2.17-4.3-.24-4.34 5.57-6.92 7.24-2.17 6.2 9.19 12.35 19.42 13.38 30.68 1.14 3.96-2.1 9.41-6.07 5.82zm37.07-44.96q-.32-.01-.62-.1c-1.13-.12-2.31-.12-3.45-.16q-3.28-.2-6.56-.37l-8.56-.43-3.64-.17c-1.16-.05-2.35 0-3.48-.2-1.93-.33-2.75-2.74-2.5-4.43.26-1.88 1.68-3.76 3.68-3.9 1.09-.08 2.25.11 3.33.19l3.43.19q4.28.25 8.51.46c3.4.17 6.83.4 10.25.48q.12 0 .2-.03h.02q.67-.07 1.26.15c.58.14 1.08.5 1.47.96q.44.51.7 1.16a4.6 4.6 0 0 1-.08 3.55 4.4 4.4 0 0 1-2.33 2.43q-.44.22-.94.25h-.75.07z"/><path fill="#87a1c3" d="M457.75 276.32c-1.66-.2-3.33-.31-5-.46q-4.08-.37-8.17-.7c-4.12-.31-8.22-.7-12.35-1.06-1.6-.12-3.18-.31-4.8-.43-2.07-.17-4.17-.27-6.25-.44-2.24-.19-3.47-2.31-3.28-4.41.17-1.98 1.81-4.32 4.05-4.13 2.7.25 5.38.58 8.1.8l6.26.5c4.5.37 9 .83 13.5 1.19q2.87.26 5.72.48c1.06.1 2.13.24 3.21.27q.3-.04.58-.03h.15q.17.01.33.05c.5.1 1 .31 1.4.63h.03l.04.02q.25.18.49.44.36.4.57.91a4.9 4.9 0 0 1-1.63 5.84c-.46.34-.97.48-1.52.56h-.1l-.39.02a3 3 0 0 1-.91-.15zm-212.5 42.91a3.3 3.3 0 0 1-1.26-1.64c0-.04-.05-.07-.05-.12a6 6 0 0 1-.26-1.57v.49l.1.58.12.4q0 .07.04.13l-.12-.3c-1.51-3.15-3.16-6.26-4.75-9.38-2.29-4.5-4.5-9.04-6.94-13.5a4.8 4.8 0 0 1 1.13-6.13c1.6-1.28 4.1-1.01 5.09.92l.2.4c2.16 4.56 4.5 9 6.8 13.49 1.63 3.2 3.2 6.49 4.94 9.65l.05.1.14.24q-.17-.22-.29-.46l-.36-.39s-.12-.07-.17-.12c2 1.74 1.69 5.26-.4 6.92-.66.51-1.46.8-2.25.8-.6 0-1.23-.17-1.76-.55z"/><path fill="#87a1c3" d="M235.83 294.97c-4.37-3.33.5-8 2.53-11.17.84-2.12 3.25-4.07 5.52-2.65 3.21 2.2 1.33 6.22-.58 8.64-1.9 2.29-3.76 7.23-7.47 5.18"/><path fill="#965a00" d="M238.75 331.58c-4.1-.58-9.3-3.01-9.81-7.62-.08-2.6 2.29-5.5 5.06-4.4.94.37 1.42 1.14 2 1.89 2.03 1.76 4.95 2.12 7.55 1.98 4.47-.82 2.9-6.76 6.47-8.44 1.83-.73 2.65-.03 4.3-.17 5.03-.44 11.48-2.9 7.78-8.95-2.26-1.02-2.72-4.1-1.61-6.16.8-1.06.48-2.53.05-3.69-.73-1.37-1.7-2.72-3.19-3.32-1.13-.3-2.29-.3-3.23-1.14a4.8 4.8 0 0 1-1.42-3.28 4.6 4.6 0 0 0-6.3-4.58c-2.56 2.34-4.8.58-6.25-1.86-2.31-2.65-6.22-1.01-6.41 2.39-.37 3.01.5 7-2.95 8.51-2.8.75-2.8 4.15-5.18 5.31-2.97 1.38-5.55-1.98-4.7-4.78.98-2.8 2.8-5.57 5.37-7.14-.38-10.44 10.52-19.22 19.03-10.68 6.5-2.22 13.34 2.53 14.43 9.12 6.22 2.26 9.55 9.6 8.32 15.92 7 11.82-1.69 22.48-14.37 22.84-2.3 5.96-8.54 9.99-14.91 8.3z"/><path fill="#442e0c" d="M389.77 245.69c1.98 0 4 1.25 4 3.4v.21c-.12 2.13-2.31 3.8-4.39 3.8h-.34c-16.28-.4-32.56-.52-48.84-.73-15.06-.2-30.1-.34-45.16-.53-1.62 0-3.26-.1-4.87-.03h-.27c-.6 0-1.23-.12-1.8-.34-.9.15-1.87.08-2.76-.36-9.99-3.25-8.13-16.04 1.62-17.9 2.96-.4 6.82-1.9 9.6-.43h1.74l14.23.24 23.1.41q7.5.17 15.01.29c4.51.07 9.02.05 13.53.12 2.08.03 3.89 1.83 3.5 3.96-.38 2.12-2.46 3.33-4.32 3.45h-.79c-1.23 0-2.46-.08-3.67-.12l-5.9-.15c-4.01-.1-8.04-.12-12.07-.17-7.62-.1-15.25-.26-22.87-.36-7.72-.1-15.41-.36-23.1-.36h-.93c-.21 0-.43-.05-.57-.07a3 3 0 0 1-.73-.25c-2.84 0-5.9-.16-5.62 2.9a5.6 5.6 0 0 0 2.75 1.71q.26-.04.5-.05h.92c6.2.25 12.43.22 18.63.32l23.3.34c16.55.19 33.07.55 49.62.6l6.95.02z"/><path fill="#28384e" d="M201.84 206.17a4.4 4.4 0 0 1-1.47-2.24q-.42-1.12-.94-2.2l-1.74-3.98c-1.47-3.33-2.94-6.6-4.39-9.94-3.11-7.02-6.25-14.01-9.33-21.03-4.54-10.33-9.2-20.58-13.92-30.83l-.05-.12c0-.05-.05-.1-.07-.15-.8-1.93-.56-4.34 1.2-5.66 1.98-1.5 4.42-.3 5.29 1.8 6.12 14.65 12.78 29.05 19.25 43.55 3.57 7.98 7.06 15.99 10.73 23.85l.1.25s.04.12.07.16q.07.16.17.32l-.3-.46q-.15-.21-.33-.41c-.02 0-.05-.05-.1-.07q.4.37.68.84c1.3 1.9.97 4.92-.9 6.32a3.3 3.3 0 0 1-3.98 0zm17.2 5.83-2.75-6.4c-.65-1.48-1.42-2.97-1.88-4.52-.55-1.86.27-4.2 1.98-5.11 1.74-.94 3.69-.05 4.58 1.59.5.91.85 2 1.23 2.97l2.1 5.11q2.17 5.23 4.37 10.47l2.31 5.55h-1.85l-1.86-.03c-1.35 0-2.78-.07-4.13.15q-2.04-4.9-4.12-9.75zm33.92 64.83h-.15c-.05 0-.1-.05-.14-.05a5 5 0 0 0-.8-.14q-.7-.08-1.37-.12c-1.14-.1-2.27-.17-3.4-.12q-.45-.01-.9.04l-2-4.77-8.27-19.74q.34-.07.7-.19l.33-.14 1.04-.32q1.14-.38 2.24-.91.73-.36 1.38-.85l.4-.29q.22-.14.4-.31 5.86 14 11.77 28c-.39-.04-.82-.11-1.21-.07zm3.34 14.21h-.11q.06 0 .12-.05zm24.37 67.3a4 4 0 0 1-1.08-1.96c-.72-2.14-1.71-4.22-2.58-6.32l-4.22-10.18q-4.11-9.87-8.25-19.75l.26-.3.56-.7.04-.04q.65-.59 1.26-1.2.14-.12.24-.27a.2.2 0 0 1 .1-.1l.43-.5q.63-.77 1.11-1.64c.36-.65.6-1.38.92-2.06l7.26 17.3q2.63 6.27 5.3 12.5c1.33 3.1 2.59 6.24 3.96 9.21q.09.23.22.46.29.55.46 1.13a4.7 4.7 0 0 1-1.55 4.83c-.6.43-1.28.65-1.95.65-.9 0-1.76-.36-2.44-1.06zM207.2 220.76l-1.16-2.55-.4-.92a5 5 0 0 1-.8-2.24 4.6 4.6 0 0 1 1.76-4.2 3.3 3.3 0 0 1 4 .12 4.3 4.3 0 0 1 1.47 2.53c.58 1.67 1.3 3.28 1.98 4.92q1.08 2.64 2.2 5.24-.94.2-1.84.53-1.16.4-2.29.84-1.13.47-2.24 1.02-.17.06-.34.16l-2.31-5.42zm27.66 52.16-.02.05.04-.05z"/><path fill="#28384e" d="m221.73 255.07-2.3-5.42q.76-.25 1.48-.53h.17l5.28-1.33q5.14 12.15 10.23 24.31-.1.06-.22.1-.38.18-.77.41c-.5.05-.94.34-1.37.6l-1.06.65q-.9.58-1.74 1.24c-.31.24-.65.48-.94.77l-8.76-20.77zm23.35 37.78s-.1.02-.13.05q.08-.01.13-.05m20.17 66.12c-.68-1.45-1.2-2.97-1.8-4.44l-1.67-4.1-3.45-8.3q-3.33-7.9-6.61-15.77.32-.38.6-.8a14 14 0 0 0 1.47-2.53q.25 0 .46.02h.36q.69-.01 1.38-.1a9 9 0 0 0 1.9-.38c3.6 8.56 7.2 17.13 10.88 25.64l.34.82.5 1.13c.7 1.6 1.48 3.16 2.1 4.8.7 1.84.15 4.18-1.47 5.34-.57.4-1.23.6-1.88.6a3.5 3.5 0 0 1-3.1-2z"/><path fill="#28384e" d="M224.5 256.09a3 3 0 0 1-.97-.12 4 4 0 0 1-2.66-2.97v-.07c-.67-1.74-1.47-3.43-2.2-5.12a471 471 0 0 0-2.65-6.13c-1.68-3.88-3.3-7.81-5.04-11.7a94 94 0 0 0-1.66-3.59 5.2 5.2 0 0 1-.3-3.86c.5-1.66 2.47-3.2 4.23-2.5a4.1 4.1 0 0 1 2.56 2.62v.07c1.52 3.81 3.2 7.53 4.8 11.3q2.55 5.84 5.09 11.72c.5 1.16.96 2.36 1.54 3.5a4.6 4.6 0 0 1 .56 4.2 4 4 0 0 1-.85 1.51c-.6.7-1.45 1.14-2.34 1.18h-.1zm13.24.59a5 5 0 0 1-.8-1.56q0-.07-.05-.13v-.04.07q.01.06.05.12c0 .07.05.12.05.14l.02.08q.07.15.12.31l-.07-.2c-.12-.3-.2-.65-.26-.96l.12.58v-.05q-.1-.37-.15-.75l-.07-.6v.07c0 .22.05.41.05.63q.08.26.12.56l-.24-.75c-1.9-5.19-4.1-10.28-6.2-15.4-2.92-7.18-5.94-14.32-8.83-21.5a238 238 0 0 0-5.02-11.73c-.92-1.93-.31-4.66 1.57-5.77.94-.55 2.1-.6 3.06-.1a4 4 0 0 1 1.86 2.06c2.53 6.82 5.33 13.53 8.1 20.26 2.9 7.11 5.77 14.25 8.76 21.32q1.05 2.43 2.05 4.85.6 1.51 1.3 2.94.1.15.17.3c1.07 2 .63 4.96-1.4 6.17a3 3 0 0 1-1.59.43c-1.03 0-2.05-.5-2.72-1.37z"/><path fill="#952a04" d="M350.14 296.56c5.34-3.21 12.5-12.4 3.3-15.4-7.98-.52-15.91 1.4-23.8 1.12-8.15.29-15.7-2.9-22.8-6.54-5.52-3.18-10.1-8.27-13.05-13.82-1.73-2.15-3.16-5.45-6.12-5.91-2.85-.34-5.82.17-7.53 2.72-9.43 12.72 6.68 25.57 16.48 32.13 10.68 6.3 23.18 10.5 35.67 10.02 6.15-.1 12.52-1.09 17.88-4.3zm.97-24.15c13-.39 18.19 15.37 10.15 24.53-8.05 10.88-22.33 12.98-35 12.3-23.61-1.27-67.78-25.2-53.26-53.6 3.52-7.47 13.44-10.97 20.45-6.17 4.06 3.35 6.47 8.42 9.39 12.45 5.43 6.49 14.28 10.27 22.39 11.65 8.65.77 17.27-.65 25.9-1.16z"/><path fill="#952a04" d="M344.98 284.86c2.25.16 3.62 2.17 3.62 4.34a4.5 4.5 0 0 1-1.71 3.57c-.22.17-.39.26-.6.36l-.2.1q-.3.11-.62.19c-.9.26-1.77.65-2.63.92q-2.65.8-5.4 1.25-4.06.65-8.16.65-1.23.01-2.46-.05a54 54 0 0 1-19.9-4.92c-7.46-3.45-14.21-8.51-19.16-15.12a48 48 0 0 1-4.03-6.37 6 6 0 0 1-.81-2.85c0-1.71 1.15-4.05 3.1-4.2h.03a3.5 3.5 0 0 1 3.57 1.94 34 34 0 0 0 1.79 3.35q1.35 2.09 2.91 4l.15.17a42 42 0 0 0 8.92 7.82c2 1.3 4.13 2.48 5.82 3.28q3.91 1.81 8.06 2.94 3.88 1.03 7.81 1.4a44 44 0 0 0 7.75.02c2.19-.21 4.38-.55 6-.96 1.55-.39 3.11-.84 4.6-1.45l.47-.2c.34-.11.67-.2 1.06-.16zm132.44-124.79q.08.52.02 1.04 0 .17-.05.34-.01.22-.1.43a4.7 4.7 0 0 1-1.93 2.63c-.7.44-1.5.6-2.34.39-.16-.34-.38-.65-.57-.99q-.02-.06-.08-.12a6 6 0 0 0-.72-1.04l-.72-.87a34 34 0 0 0-1.81-1.88q-.06-.04-.1-.1.01-.02-.05-.04c-.34-.41-.75-.75-1.13-1.11q-.08-.06-.12-.12a13 13 0 0 0-2.46-1.72q-.42-.2-.82-.43-.76-.45-1.62-.87c-.22-.1-.94-.48-1.71-.62-2.17-.46-3.81 1.37-4.22 3.35-17.93-1.88-39.25 6.73-39.25 27.28-.92 7.4 2.82 10.52 9.14 13.2 8.32 3.88 17.8 4.46 26.83 4.12a27 27 0 0 1 3.1-.22c1.14-.04 2.3-.04 3.43-.1 1.35-.16 2.85-.6 4.08.08q.21.1.43.29a4 4 0 0 1 1.55 2.56q.17.84.05 1.7-.01.18-.05.35a5 5 0 0 1-.68 1.66q-.3.45-.72.8-.11.1-.22.17-.48.33-1.1.5l-.3.08h-.14q-.51.07-1.06.12l-1.64.14-1.16.07c-1.3.08-2.6.1-3.88.15q-1.41.07-2.78.17-2.83 0-5.7-.08h-.55q-1.52-.04-3.01-.12-.37.01-.7-.04c-.3 0-.6-.05-.9-.05q-1.05-.08-2.1-.2a42 42 0 0 1-9-1.85l-1.1-.39q-.48-.17-.94-.39-.65-.25-1.26-.55a55 55 0 0 1-4.12-1.64 28 28 0 0 1-6.63-4 15 15 0 0 1-1.11-1.02q-.2-.18-.37-.36-.71-.72-1.32-1.52-.37-.58-.68-1.16l-.34-.62q-.03-.08-.07-.13-.46-.93-.82-1.9c-3.23-8.61-.75-18.87 2.97-27.02 5.81-9.96 16.84-16.55 28.17-18.02 9.92-1.66 20.65-.87 29.6 4 .46.37.97.7 1.47 1.07q.46.32.92.67l.36.3q.4.32.73.64l.29.3q0 .02.04.04l.3.36q.14.16.21.34.16.26.27.5.07.2.14.34.01.07.05.13l.1.38q.06.22.07.48z"/><path fill="#952a04" d="M477.3 161.88v.46q-.01.18-.05.36-.02.13-.07.27-.02.13-.08.24-.03.14-.1.26-.32.75-.86 1.4c-.6.7-1.38 1.33-2.22 1.9q-.21-.6-.53-1.17-.16-.37-.34-.73-.28-.5-.58-.99c0-.04-.05-.07-.07-.12a6 6 0 0 0-.6-.89q-.08-.07-.12-.15l-.73-.86a33 33 0 0 0-1.8-1.89 9 9 0 0 1 3.73-2.12c1.47-.29 2.78.17 3.84 1.72q.63 1.22.65 2.24zm-9.79 9.72q.37.7.94 1.2a35 35 0 0 0-4.27 9.75c-1.76 5.43-1.56 11.34-.77 16.89.05.99.34 1.93.65 2.85l.17.48a9 9 0 0 1 .65 3.45c-.24 2-1.76 3.62-3.74 3.62h-.4c-3.19-.56-3.43-4.35-4.01-7.02l-.1-.51c-1.66-8.4-1.3-17.63 1.79-25.57.38-2.08 2.6-6.59 5.47-10.69q.26.19.49.41 1 .97 1.9 2.08l.5.72q.15.23.25.44.03.98.5 1.88z"/><path fill="#272727" d="M471.88 179.09c5.79-.13 6.56 10.15.29 9.9-5.5-.26-5.77-9.33-.3-9.9"/><path fill="#272727" d="M479.67 208.97c2.07-.22 2.36-1.74 1.95-3.28a28 28 0 0 1-4.17 1.88c.34.43.55.94.72 1.52q.74-.17 1.5-.12m1.25-50.85c10.38 7.19 16.62 22.36 11.63 34.37a25 25 0 0 1-4.68 8.78c.87 2.2 1.42 4.51 1.16 6.85-.39 5.19-5.55 10.09-10.88 9.2a3 3 0 0 1-.97-.32c-1.93 4.17-6.12 7.6-10.73 6.63a11 11 0 0 1-6.15-2.9c-2.37 3.77-7.2 6.26-11.5 5a10.6 10.6 0 0 1-6.04-4 9.6 9.6 0 0 1-7.57 2.94c-4.54.29-9.41-2.3-11.46-6.41a8.4 8.4 0 0 1-4.83 1.13c-5.52-.53-10.63-5.14-10.83-10.83-.43-2.8.92-9.99 3.67-13.05q.71 1.98 1.9 3.83a18 18 0 0 0 2.8 2.9c0 .02-.05.04-.07.1-.99 2.02-2.17 5.37-.22 7.11 5.43 4 5.02-.41 6.93-3.2l.48.2q1.82.8 3.64 1.43 1.1.5 2.22.94.53.2 1.11.39c-.36 1.52-.77 3.04-.65 4.39.96 2.53 4.37 3.06 6.8 2.68 2.51-.56 2.39-2.92 2.87-4.95v-.26h.1q3.3.31 6.63.38h.56q-.01.58.05 1.11c-.2 4.46 5.2 7.07 7.79 3.04.29-1.37.17-2.92.62-4.25h.56c1.83-.1 3.67-.11 5.5-.28q.84-.08 1.69-.2c.12 3.86 6 6.5 7.79 2.27.6-1.16.2-2.5.5-3.76-.07 0-.16.05-.23.05-2.47.48-5.1 1.32-7.63 1.35 3.23-.85 3.74-5.87 1.16-7.77a1 1 0 0 0-.44-.27q-.06-.25-.16-.5c3.42-.27 7.4-1.33 10.27-2.3a22 22 0 0 0 6.25-3.3c.48-.29.94-.63 1.47-.87.75-.55 1.5-1.1 2.03-1.95a28 28 0 0 0 3.04-8.78c-1.35 1.76-3.65 2.46-5.96.17-3.84-3.21-.07-10.35 4.56-8.5a34 34 0 0 0-1.62-3.56c-1.44-2.59-3.28-5.34-5.74-6.95a10 10 0 0 0-2.22-1.38 4.5 4.5 0 0 0 1.18-2.99q.26-.9.13-1.8c-.17-2.03-1.84-3.34-3.48-4.52 2.34-4.63 6.92-11.91 10.88-7.14 2.7 4.15-1.93 6.66-3.9 9.7z"/><path fill="#272727" d="M454.2 166.25c.91 1.8.98 3.9.45 5.83a7.2 7.2 0 0 1-2.96 4.06c-1.1.7-2.23.99-3.45.99q-.6-.01-1.16-.1a6.5 6.5 0 0 1-4.27-2.92 8 8 0 0 1-1.06-5.72c.67-4 4.92-7.09 8.92-5.52h.05c.26.1.5.22.63.29.33.24.67.43 1.01.7.8.6 1.4 1.47 1.86 2.36zm1.46 24.54q-.11 3.36.24 6.68-.29.61-.75 1.16c-1.73 2.34-5.88 3.47-8.2 1.23-6.51-5.05-.1-16.77 7.1-11.41q.97 1.01 1.63 2.36zm-23.42-14.6c8.8 2.4 7.43 15.27-1.86 15.29-3.6-.12-5.38-3.67-6.15-6.68-1.28-4.7 3.2-9.8 8-8.61m41.97-7.6c.27 2.32-.98 5.07-3.59 5.07h-.12a3 3 0 0 1-2.07-.87q-.58-.52-.94-1.2a4.5 4.5 0 0 1-.5-1.89l-.25-.44-.5-.72q-.9-1.09-1.91-2.07-.25-.24-.48-.41-.73-.62-1.48-1.16-.75-.55-1.59-.99-.52-.24-1.03-.43c-1.94-.34-3.07-2.51-3-4.35q.01-.39.1-.74c.39-1.98 2.05-3.81 4.22-3.36.77.17 1.5.53 1.71.63q.83.4 1.62.87a25 25 0 0 1 7.96 7.3q.03.09.07.13a8 8 0 0 1 .92 1.71c.43.94.72 1.96.87 2.97z"/><path fill="#e28800" d="M255.04 404.2c-9.62-2.37-18.02-9.2-27.66-11.15-5.02.15-5.9-7.18-1.3-8.68 3.49-.2 6.99 1.57 10.32 2.7 7.09 2.85 13 6.83 20.16 8.71 4.59 1.13 3.3 9.31-1.5 8.42zm58.18-4.9c-4.22-.05-4.87-6.58-1.35-8.27 5.91-1.79 11.44-4.4 16.87-7.29 3.66-1.56 5.98-5.47 9.64-6.78 2.97-.26 4.51 3.12 3.7 5.63-3.38 5.52-9.97 8.63-15.64 11.45-4.31 1.93-8.63 4.2-13.22 5.24z"/><path fill="#965a00" d="M288.44 451.1c1.33 4.33-3.19 7.5-6.32 9.64-8.73 5.55-19.47 5.53-29.45 5.55-14.82-1.1-30.93-1.93-43.3-11.1-7.72-4.7-13.13-9.62-11.82-19.46.19-3.12.77-8.57 5.11-7.82 2.17.53 3.18 2.97 2.82 5.04-3.45 9.41 3.09 11.58 9.48 16.31 9.48 5.81 20.82 7.21 31.7 8.08 11.77.65 26.49 2.12 35.48-6.95 1.55-2.55 5.48-2.34 6.3.73zm122.46-49.32c.95 10.04-4.53 19.04-9.6 27.26-11.72 18.07-31.57 33.2-53.76 33.48-3.36-.17-4.73-4.72-2.63-7.11a3.8 3.8 0 0 1 3.13-1.43c4.35-.26 8.86-.6 12.98-2.17 12.74-4.07 23.5-13.26 31.65-23.4l.05-.04c4.17-6.2 8.44-12.62 10.57-19.86 1.08-4.17.21-8.44-.85-12.54-.99-2.44-.34-6.06 2.53-6.83 2.73-.67 4.8 2.03 4.47 4.61.6 2.68 1.25 5.33 1.52 8.08z"/><path fill="#965a00" d="M379.85 421.8c3.79 3.19-.48 10.71-4.7 6.59-5.29-5.79-11.12-13-9.46-21.32.5-2.97.22-7.12 3.18-8.79 3.74-1.56 6.08 3.24 4.47 6.25-2.37 6.8 1.88 12.62 6.5 17.27m-119.62.28c5.76-.92 5.9 8.03.53 8.7a29.6 29.6 0 0 0-10.1 11.08c-.56 1.44-.47 3.23-1.8 4.26-1.68 1.67-4.55.97-5.42-1.15-2.5-7.46 10.16-20.77 16.79-22.92zm98.36-18.81c2.15.1 3.67 2.44 3.43 4.49 0 1.42-1.16 3.38-2.32 3.86-7.14 4.05-4.24 10.4 1.67 13.9 6.58 4.7.84 11.14-4.42 13.8-3.35 1.6-7.33 1.6-10.9.86-2.63-.63-4.15-1.69-6.25-2.5-1.4-.35-2.97-.4-3.86-1.72-2.31-2.7-.12-7.43 3.5-7.07 2.8.22 5.02 1.93 7.36 2.7 2.75.75 5.86.97 8.27-.62-10.37-6.54-8.44-24.42 3.52-27.67zm-107.4 14.12c3.18.24 4.27 4.22 2.75 6.65-1.21 2.13-3.89 2.13-6.03 2.34-3.28.34-6.3 1.07-9.44 1.7 1.26 8.77-5.74 14.51-13.96 11.38a13.4 13.4 0 0 1-8.18-9.92c-.46-3.28-.84-6.73-4.08-8.49-1.42-1.2-3.57-.99-4.77-2.48-2.03-2.41-1.14-6.95 2.29-7.48 1.61-.14 2.9 1.04 4.39 1.52 4.27 2.24 7.74 6 8.56 10.85.48 1.77.36 3.7 1.14 5.39 1.52 2.33 4.82 3.95 7.38 2.26.07-3.95-1.04-9.65 4.03-10.9 5.54-1.26 10.4-2.25 15.92-2.82"/><path fill="#000" d="M216.94 205.11s-.1-.07-.12-.1q-.07-.07-.17-.12a4.7 4.7 0 0 1-.82-5.84c1.7-3.06 3.5-6.05 5.21-9.11 1.74-3.11 3.45-6.23 5.21-9.31q5.41-9.53 10.76-19.09c5.8-10.34 11.63-20.67 17.4-31.06l1.15-2.08q.09-.21.22-.43l.34-.53a3.4 3.4 0 0 1 3.33-1.38c2.84.56 3.57 4.03 2.53 6.34l.07-.14.2-.55a5 5 0 0 1-.8 1.61c-.77 1.28-1.47 2.6-2.2 3.91l-3.76 6.7c-2.94 5.26-5.93 10.47-8.88 15.73-3.64 6.52-7.3 13-10.95 19.52q-5.37 9.5-10.69 19.06c-1.03 1.88-2.02 3.78-3.08 5.62a3.4 3.4 0 0 1-2.6 1.83q-.25.04-.49.05c-.63 0-1.28-.2-1.86-.6z"/><path fill="#000" d="M216.82 204.94a4.2 4.2 0 0 1-1.79-2.24q-.14-.32-.24-.68-.26-.61-.55-1.18c-6.44-14.5-13.17-28.85-19.78-43.28-4.32-9.36-8.54-18.74-12.96-28.03-.91-1.95-.65-4.56 1.2-5.91.9-.65 2.04-.82 3.07-.44a4 4 0 0 1 2.08 2.08c6.25 14.06 12.7 28.03 19.13 42.05l8.37 18.23q1.87 4.1 3.78 8.2c.66 1.4 1.26 2.85 1.96 4.22l.38.66.03.07s0 .05.02.05l.12.26-.1-.22.05.1.1.22c.36.9.48 1.76.39 2.75-.2 1.64-1.48 3.28-3.16 3.52l-.46.03q-.86-.02-1.62-.44z"/><path fill="#000" d="M170.73 133.41c-2.05-6.73 5.96-11.84 11.96-11.36 2.17 0 5 .41 5.43 2.97.5 2.17-1.33 4.36-3.3 5-2.13.7-4.47-1.12-6.42.52-.1 3.62-5.5 6.44-7.7 2.9z"/><path fill="#000" d="M142.76 256.37c-33.38-7.6-39.24-39.66-26.6-67.74 5.45-11.77 13.65-22.02 22.65-31.26 10.2-10.54 20.6-20.58 33.02-28.13 1.98-.55 4.25.2 4.66 2.44.4 2.15-1.16 4.17-3.11 4.9-2.61 1.93-5.2 3.98-7.82 5.86-18.38 15.37-41.08 35.9-45.98 60.23-3.4 12.5-1.64 26.35 7.1 36.19 7.81 6.49 18.95 13.36 29.01 8.32 8.1-4.4 14.33-11.22 18.53-19.35 5.89-10.85 13.53-22.02 25.38-26.8 2.36-1.2 6.08-2.58 7.38.73.77 2.12-.7 4.39-2.6 5.28a32 32 0 0 0-13.88 9.43c-7.21 8.32-11 19.01-18.3 27.24-7.97 7.3-17.98 15-29.46 12.68z"/><path fill="#000" d="M204.96 212.44c-1.28-3.18-2.95-6.32-3.67-9.65-.27-2.33 2.07-4.46 4.34-3.47 3.55 1.98 3.96 6.83 5.93 10.1 2.27 5.1-4.22 8.14-6.63 3.02z"/><path fill="#000" d="M199.6 228.67c-4.64-3.74.28-8 1.64-11.94 1.1-2.34 2.43-4.58 3.59-6.87a3.2 3.2 0 0 1 2.27-2.18c3.54-.89 6.1 3.7 4.56 6.54-.6 1-1.19 2.1-1.7 3.16-2.65 3.36-4.53 15.08-10.34 11.3z"/><path fill="#000" d="M173 283.05c-4.76-.58-4.06-6.2-3.94-9.68 0-8.27 2.63-16.93 6.25-24.22a53.5 53.5 0 0 1 18.74-23.85c2.7-1.81 6.8-5.07 9.5-1.6 2.51 3.45.66 6.35-3.04 7.43-6.5 3.8-11.81 9.94-15.58 16.26-4.2 7.72-7.55 16.17-8.37 24.94-.55 3.53 1.83 10.5-3.55 10.74z"/><path fill="#000" d="M201.07 360.16c-15.63-1.06-33.63.68-45.9-10.9-18.73-17.88-1.96-43.86 8.87-61.35 1.66-2.94 3.5-5.84 4.97-8.9.72-1.76 2.48-3.2 4.46-2.9 2.46.4 3.28 3.2 2.46 5.29-8.4 18.1-35.39 46.1-12.98 63.37 7.63 5.6 17.18 6 26.23 6.61 11.96 1.06 24.04.17 36.01.41 4.27.07 4.27 6.54.68 7.89-8.16.7-16.55.31-24.8.48m104.19-222.55c-2.85-4.8-5.36-9.77-10.2-12.9-9.82-5.05-24.47-4.76-31.2 5.01-1.54 1.79-2.1 5-5.11 4.59-2.6-.34-3.52-3.26-2.97-5.36 6.47-15.63 26-19.27 40.46-13.1 5.35 1.96 19.6 16.7 13.38 21.93a3.3 3.3 0 0 1-4.36-.17"/><path fill="#000" d="M361.19 239.16a4 4 0 0 1-1.28-1.76c-.94-1.95-2.1-3.83-3.14-5.74q-2.75-5.06-5.54-10.13a11553 11553 0 0 0-36.14-65.25c-3.45-6.22-6.97-12.45-10.47-18.65a4.85 4.85 0 0 1 1.23-5.93 3.36 3.36 0 0 1 5.04 1.16c7.36 13.62 14.86 27.18 22.32 40.74a7589 7589 0 0 0 24.1 43.5q2.77 4.98 5.57 9.93c1.06 1.88 2.07 3.79 3.18 5.65v.02q.33.47.56 1.01a4.9 4.9 0 0 1-1.04 5.07c-.68.7-1.6 1.08-2.51 1.08-.65 0-1.33-.19-1.9-.62z"/><path fill="#000" d="M385.72 254.3q.29-.9.46-1.89.31-1.54.43-3.13l.22-.6q.32-.91.6-1.82.16-.44.17-.86c1.67-.53 2.41-2.56 1.62-4.15-.5-.41-1.35-.53-1.98-.56-6.08-.12-12.01-.58-18.04-.38-.87-.12-1.81 0-2.75.12-1.71.21-3.45.43-4.78-.8-1.78-1.74-1.54-4.73.05-6.51.84-.94 2.1-1.3 3.23-1.04 5.29-.27 10.6-.48 15.88.05q1.7.08 3.4 0c3.59-.07 7.04-.15 9.84 2.53 3.09 3.28 3.38 8.73 1.76 12.79-1.04 3.04-5.4 6.56-8.64 6.56q-.8 0-1.5-.32zm12.06 50.87a3 3 0 0 1-1.3-1.18 5 5 0 0 1-.68-1.3c-.82-1.65-1.73-3.26-2.63-4.88q-2.48-4.6-5.01-9.17l-5.24-9.45c-1.28-2.32-2.7-4.58-3.95-6.92-1.16-1.84-.51-4.66 1.15-5.96 1.72-1.33 4-.77 5.05 1.08q0 .04.04.07c1.28 2.3 2.44 4.69 3.7 7l5.18 9.48q2.5 4.59 5.04 9.14 1.29 2.37 2.63 4.7a4 4 0 0 1 .53.83h.03s.02.07.05.1q.28.5.43 1.08.18.6.17 1.28a5 5 0 0 1-.36 1.86c-.6 1.5-1.96 2.58-3.48 2.58q-.7 0-1.4-.32z"/><path fill="#000" d="M380.62 271.95c-1.72-1.69-1.57-4.65-.03-6.4q.65-1.12 1.11-2.36.46-.74.82-1.54.46-1.04.87-2.07.33-.58.63-1.16a22 22 0 0 0 2.63-9.17l.21-.6q.32-.9.6-1.81l.13-.41 1.08.02c4.51 1.84 1.7 7.5 1.76 11.1-.55 3.67-2.58 15.27-7.4 15.27-.73 0-1.52-.26-2.39-.87z"/><path fill="#000" d="M380.48 272.1c-2.7-3.57 1.3-6.5 2.85-9.44 1.52-4.17 3.11-8.66 2.9-13.12-.54-4.3 5.01-7.21 7.06-2.63 1.86 4.95-4.92 32.64-12.8 25.21zm22.29 33.67c-3.18 0-7.23-1.19-6.56-5.21.27-1.74 1.38-3.45 3.19-3.81 2.63-.05 5.16 1.3 7.79.38 4.3-1.62 8.75-4.92 10.06-9.5.43-2.66 0-6.5 3.4-7.26 2.2-.49 3.86 1.37 4.15 3.4.77 11.43-10.54 22.94-22.05 21.97z"/><path fill="#000" d="M419.03 287.6c-7.21-1.98-9.31-11.24-6.25-17.37 2.2-5.37 10.81-7.93 9.87.27-.44 2.1-1.95 2.73-3.4 3.4-1.06 1.6-.65 4.68 1.4 5.26 5.79.26 3.9 10.3-1.62 8.44"/><path fill="#000" d="M445.83 286.55c-.54-2.08.38-4.59 2.46-5.43.65-.34 1.51-.24 2.07-.7.34-3.04-.75-7.07 2.5-8.93 5.3-1.61 10.4-4.12 12.7-9.43 1.4-2.68 1.59-7.98-2.1-8.7-1.88.14-3.88 2.02-5.4 2.81a20.7 20.7 0 0 1-11.44 4.2c-7.77.12-21.16-4.27-22.77 6.95.31 2.05-.97 4.51-3.09 4.97-7.36.14-3.4-10.83-.9-14.3 2.98-4.85 8.76-6.76 14.22-6.9 4.5-.32 8.95 1.18 13.46.7 7.3-.56 12.73-10.28 20.43-5.84 12.66 9.38 2.58 28.94-10.25 32.63.17 4.03-1.6 8.54-5.58 10.09-2.4 1.1-5.6 1.01-6.34-2.15z"/><path fill="#000" d="M410.31 332.14c-.43-3.98 2.68-5.14 5.8-5.65a47 47 0 0 0 8.6-3.32c11.51-5.31 17.59-17.01 19.95-28.93 1.23-3.81-.99-8.7 2.17-11.72a3.3 3.3 0 0 1 4.76.6 4.8 4.8 0 0 1 .74 3.9c.27 6.62-1.47 13.06-3.59 19.24-4.6 12.68-14.43 22.94-27.36 27.23-3.61 1.06-10.08 4.56-11.04-1.35zm29.55-80.04a62 62 0 0 1-22.87-7.55 64 64 0 0 1-29.1-34.98 65.6 65.6 0 0 1-.43-40.72l.1-.29v-.1a66 66 0 0 1 11.38-20.71 64 64 0 0 1 18.7-15.44 61 61 0 0 1 15.15-5.86q.55-.34 1.2-.46.12 0 .2-.03c1.54-.19 3.08-.55 4.63-.77q2.81-.4 5.67-.55 1.6-.11 3.23-.15c.77 0 1.69-.1 2.48.12a64 64 0 0 1 18.68 3.7 64 64 0 0 1 32.08 25.61 66 66 0 0 1 8.42 20.2c1.86 7.98 2.2 16.5.87 24.6a66 66 0 0 1-7.63 21.7 64 64 0 0 1-14.9 17.71 63 63 0 0 1-24.18 12.33 64 64 0 0 1-23.7 1.57zm12.68-8.06a58 58 0 0 0 9-1.5l.41-.09q4.44-1.18 8.66-3.01a63 63 0 0 0 7.84-4.25 62 62 0 0 0 6.7-5.04 67 67 0 0 0 5.68-5.72 60 60 0 0 0 7.86-12.13c.99-2.1 1.81-4.25 2.49-6.18l.12-.36v-.05a57 57 0 0 0 1.66-6.27q.7-3.78.99-7.65.18-3.18 0-6.36a74 74 0 0 0-.84-6.95 63 63 0 0 0-1.57-6.3 67 67 0 0 0-2.73-7.04 61 61 0 0 0-3.3-6 70 70 0 0 0-4.63-6.33 63 63 0 0 0-5.46-5.6 67 67 0 0 0-6.44-4.96 66 66 0 0 0-7.98-4.4 64 64 0 0 0-8.66-3.06 66 66 0 0 0-9.1-1.61h-.33q-1.5-.14-3-.17c-.74.12-1.56.05-2.31.02q-1.7-.01-3.4.05-.74.04-1.43.1c-2.31.21-4.6.5-6.85 1.06l-.24.07h-.07q-.52.19-1.09.2h-.16q-.4.08-.8.19c-3.04.8-6 1.8-8.73 2.99l-.24.12q-.12.04-.2.1a60 60 0 0 0-6.97 3.73 66 66 0 0 0-7.19 5.43 65 65 0 0 0-5.16 5.19q-2.55 3-4.73 6.27a64 64 0 0 0-3.37 6.03q-1.6 3.35-2.78 6.85a71 71 0 0 0-1.8 7.02 64 64 0 0 0-.83 6.3q-.2 3.53-.02 7.06c.17 2.37.46 4.7.75 6.45a60 60 0 0 0 1.78 7.11c.75 2.2 1.57 4.34 2.49 6.32q.01.07.07.15a58 58 0 0 0 3.42 6.27 68 68 0 0 0 4.51 6.15 66 66 0 0 0 5.43 5.57 67 67 0 0 0 6.78 5.19 65 65 0 0 0 7.74 4.22 57 57 0 0 0 8.54 3.02q4.8 1.21 9.72 1.68 4.9.4 9.8 0h-.03zM326.98 362.8c-2.22-.32-3.33-2.88-3.09-4.88.25-1.86 1.79-3.88 3.82-3.67.87-.02 1.76.03 2.63.05h5.69c3.74 0 7.5-.05 11.26-.05 8.28-.04 16.53-.07 24.78-.19q3.95-.04 7.91-.12c1.5-.05 3.01-.05 4.49-.14q.36-.09.74-.1h.03a3 3 0 0 1 .53.05q-.17 0-.34-.03c3.06.37 4.32 4.06 2.9 6.61a4 4 0 0 1-1.96 1.77h-.1q-.82.02-1.68.1-.2 0-.39.02c-2.29-.12-4.6-.05-6.87-.05q-5.65 0-11.3.07l-24.26.31-8.54.15-3.86.1-1.57.04q-.4.01-.82-.05"/><path fill="#000" d="M383.74 361.23c-2.1-.82-2.92-3.33-2.36-5.38.24-.87.7-1.62 1.35-2.15l.17.02h.14c.22 0 .44-.04.63-.04q.69-.07 1.37-.17c.6 0 1.19 0 1.76-.1a6 6 0 0 0 1.14-.31l.77-.15q1.41-.36 2.75-.94a31 31 0 0 0 3.76-2.02 46 46 0 0 0 8.66-7.48 48 48 0 0 0 3.04-3.86q1.04-1.63 1.93-3.35a18 18 0 0 0 .7-1.7v-.04q.19-.57.34-1.18l.07-.53c-.12-1.84.87-3.86 2.68-4.47a3.2 3.2 0 0 1 3.04.56c.7.55 1.1 1.28 1.35 2.1.34.82.36 1.78.12 2.7a24 24 0 0 1-3.28 9.07 49 49 0 0 1-8.7 10.5 42 42 0 0 1-11.9 7.9 20 20 0 0 1-4.37 1.3q-1.05.2-2.22.2a8 8 0 0 1-2.94-.5zm-48.11 18.62c-1.44-2.92-3.16-5.72-4.75-8.57l-3.45-6.15-1.59-2.8c-.38-.65-.82-1.3-1.1-1.97-.88-2.08.9-4.23 2.76-4.93 1.77-.65 4.2-.24 5.12 1.52.29.46.5 1 .77 1.45l1.55 2.82 3.42 6.15q1.69 3.01 3.35 6.04c.51.86 1 1.78 1.52 2.65.56.68.8 1.64.68 2.5a4.3 4.3 0 0 1-2.34 3.1c-.65.33-1.47.53-2.27.53-1.62 0-3.23-.73-3.67-2.32z"/><path fill="#000" d="M359.73 411.13c-4.2-.36-5.24-5.33-7.17-8.32-3.3-6.75-7.5-13.02-11.14-19.47-1.93.58-4.12.13-4.94-2-1.3-4.05 3.71-6.44 7.09-6.15 3.38-.05 5.16 3.52 6.3 6.06 4.43 6.75 8.24 13.87 12 21.03a9 9 0 0 1 3.75-.92c3.23-8.7 11.48-15.68 20.84-16.64 7.33-.82 16.09-.27 21.59 5.16 1.8 3-2.05 6.13-4.9 5.6-9.82-5.8-22.99-5.48-28.87 5.7-1 1.82-1 3.97-1.38 5.97-.65 3.84-6.3 5.02-8.37 1.98-1.5.97-2.92 2.17-4.8 2.03z"/><path fill="#000" d="M347.87 474.2c-8.06-1.29-14.23-10.19-10.32-17.93a67 67 0 0 1-5.1-8.08c-5.54.31-5.69-9.65-3.37-12.86 2-2.58 7.4-2.15 7.48 1.64-.07 1.06-.39 2.1-.5 3.16.14 2.3 2.07 4.42-.08 6.47a58 58 0 0 0 3.79 6.2q.5.72 1.03 1.44c3.1-.05 5.65 2.78 4.08 5.74-.5 2.4 1.25 4.47 2.97 5.89 10.56 5.84 36.23-9.75 44.24-17.3 6.08-5.16 10.85-11.67 15.24-18.28 3.07-4.4 5.89-9.02 7.1-14.28 1.78-7.5 2.55-18.02-5.1-22.43-.96.21-1.92.67-2.82 1-2.62 1.24-6.34-.93-5.33-4.04 1.09-3.12 4.97-3.48 7.72-4.35 7.31-.96 11.94 6.2 14.19 12.2 2.84 11.54-.9 23.92-7.55 33.44-5.7 8.9-12.28 17.3-20.48 24.03-11.82 8.95-32 20.99-47.14 18.28z"/><path fill="#000" d="M338.97 460.54c-1.83-3.35-4.2-6.39-6.18-9.7-4.4-5.13 1.14-11.3 5.36-5.18 2 4.08 5.48 7.45 7.14 11.63.97 3.93-3.67 6.49-6.32 3.25m-8.5-21.9c-4.68-5.45-9.1-11.72-13.54-17.25-5.16-6.56-11.26-14.33-9.55-23.23-6.87-12.47-14.62-24.43-21.8-36.69-2.44-5.02 3.88-8.27 6.53-3.25 4.37 8.08 9.72 15.55 14.16 23.59 2.97 5.23 5.77 9.99 8.7 15.1a5.6 5.6 0 0 1-.35 4.68c-.1 1.4.29 2.8.62 4.15 5.31 10.32 13.83 18.86 20.65 28.17 1.9 3.74-1.88 7.84-5.42 4.7z"/><path fill="#000" d="M284.42 469.28c-1.09-2.8 1.3-4.95 3.44-6.27 2.06-2.42 4.08-7.1 1.45-9.7-1.06-1.28-2.72-.1-4.07-.53a4.3 4.3 0 0 1-3.02-2.8c-1.37-7.6-4.39-15.92-12.06-19.08-7.24-4.3-14.3 4.97-14.74-7.77-2.34.41-5.04-.38-5.21-3.13-.17-1.91.9-3.07 1.69-4.27a121 121 0 0 1 3.76-7.48c-1.93-2.49-.14-5.55.68-8.1 1.56-3.96 2.65-8.09 3.74-12.14 1.73-5.02 3.25-10.83.74-15.85-2.14-3.7-1.73-8.32-3.93-11.87-1.33-2.39.24-5 2.12-6 1.19-.7 2.83-.51 4.03-.34 2.2.58 4.68-.51 6.59.94 1.25 1.42 1.78 4.05 4.24 3.54 2.03-4.05 4.93-4.24 9.02-4 2.95.24 7.56-1.3 9.05 2.07 1.01 2.9-1.52 6.23-4.56 6.06-1.1-.15-2.22-.29-3.35-.24h.39c-1.53.02-3 .07-4.5.12-2.65 4.36-9.04 5.3-13.11 2.46 1.66 4.17 3.47 8.32 3.04 12.95-.87 9-4.25 17.64-7.03 26.18 2 4.2-1.1 8.05-2.87 11.7 2.49.94 3.4 3.61 3.24 6.07 13.31-1.54 24.58 10.33 25.95 22.97 10.06.22 10.88 12.52 6.7 19.4-1.73 3.61-8.22 10.68-11.47 5.18zm-94.75-23.5c-.9-1.42-1.4-3.02-1.57-4.66v-.24q.02-1.25.07-2.5l.07-.95q.24-.65.39-1.37.04-.27.05-.53c1.47-4.8 5.2-9.1 9.79-10.3 2.68-5.17 3.93-12.55 9.67-15.1 2.8-6.32 5.87-12.52 8.9-18.72 1.5-3 2.66-6.88 5.99-8.25l-.07.33c2.4-8.73-1.1-17.82-2.59-26.43-.33-3.02 2.83-6.23 5.84-4.83 2.87 1.5 1.71 5.38 2.73 8 1.2 7.03 3.35 14.29 1.93 21.43-.97 3.47-1.04 9.38-5.77 9.65a504 504 0 0 0-9.07 18.96c-1.69 2.92-1.95 8.35-6.41 8.06a83 83 0 0 0-4.7 10.32c-.64 2.12-1.87 4.4-4.3 4.58-2.1-.21-3.55 1.26-4.4 3.02-.47.72-.64 1.5-.64 2.27q-.06.5-.05 1.01v.43q-.11.98-.12 1.98a13 13 0 0 0 .17 2.08c-.6 1.56-2.08 2.75-3.6 2.75-.77 0-1.6-.32-2.29-1.04z"/><path fill="#000" d="M241.59 478c-18.7-2.92-40.26-9.04-51.24-25.54q-.36-1.2-.67-2.4c-.32-1.03-.73-2.07-1-3.1v-.08l-.45-2.53q-.03-.58-.1-1.16c-.02-.77-.07-1.54-.05-2.31q.01-1.26.1-2.51c0-.27.05-.53.05-.8 1.59-1.03 3.9-1.23 5.43.05 1.3.92 1.59 2.39 1.54 3.88q.08.6.2 1.19a7 7 0 0 0 .52 2.55q.07.17.22.3l.07.21a17 17 0 0 0 3.45 5.86c14.9 16 39.22 20.65 60.24 19.52 8.05-.44 16.45-1.67 23.78-5.21a5.1 5.1 0 0 1 6.06-.97c8.63 7.38-14.24 11.22-18.72 12.28a131 131 0 0 1-17.9 1.28q-5.75 0-11.53-.58z"/><defs><filter id="crests-error-tracking-filter0_d_23_2289" width="447.05" height="411.43" x="93" y="96.08" color-interpolation-filters="sRGB" filterUnits="userSpaceOnUse"><feFlood flood-opacity="0" result="BackgroundImageFix"/><feColorMatrix in="SourceAlpha" result="hardAlpha" values="0 0 0 0 0 0 0 0 0 0 0 0 0 0 0 0 0 0 127 0"/><feOffset dx="12" dy="12"/><feComposite in2="hardAlpha" operator="out"/><feColorMatrix values="0 0 0 0 0 0 0 0 0 0 0 0 0 0 0 0 0 0 0.4 0"/><feBlend in2="BackgroundImageFix" result="effect1_dropShadow_23_2289"/><feBlend in="SourceGraphic" in2="effect1_dropShadow_23_2289" result="shape"/></filter></defs></svg>