<svg xmlns="http://www.w3.org/2000/svg" fill="none" viewBox="0 0 600 600"><g filter="url(#crests-experiments-filter0_d_24_469)"><mask id="crests-experiments-path-1-outside-1_24_469" width="363" height="522" x="135" y="39" fill="#000" maskUnits="userSpaceOnUse"><path fill="#fff" d="M135 39h363v522H135z"/><path d="M234.45 57.7c12.9-2.27 26.55-2.54 39.26.9 5.46 1.46 10.77 3.84 15.17 7.44a23 23 0 0 1 5.75 6.92 20 20 0 0 1 2.22 8.37c.13 2.72-.43 5.52-1.26 8.1a3 3 0 0 1-.3.65q-.06.23-.18.42c2.08 33.25 2.29 68.74 19.8 97.95 11.41 17.46 28.77 29.99 44.57 43.08 1.92 1.38 4.21 2.29 5.95 3.91q.5.5.76 1.06c18.74 13.72 36.18 29.34 51.15 47.12 2.71-1.32 5-3.44 7.17-5.5-3.2-5.2-1.62-13.3 3.54-15.98l-.2-.55c-2.54-4.48-1.47-10.05 2.02-13.7 1.6-1.52 3.44-3.04 5.68-3.36a12 12 0 0 1 4.8.86c1.71-2.44 4.5-4.48 6.88-4.56 9.83-3.06 17.59 2.32 23.45 9.81 7.9 9.94 5.5 26.1-4.85 33.37 2.93 9-6.53 16.2-14.92 15.88-2.6 5.22-10.58 14.09-16.7 16.19 1.14 8.72-2.12 25.02-2.99 28.24-4.5 15.67-11.35 30.76-21.72 43.42-3.7 4.9-8.29 9.22-12.77 13.38a28 28 0 0 1-2.7 2.85c.27.86.55 1.7.96 2.35 1.01 2.56 2.32 5.07 3.44 7.36 5.83-1.1 9.3 5.78 10.79 10.45l.38.96q.19-.08.37-.13c5.66-3.08 14.34-3.29 18.8.19a8 8 0 0 1 2.77 2.92h.02l.47-.1c11.35-5.93 25.53-.89 31.7 10.1.47.87 1.1 1.9 1.6 2.99 3.7-.1 8.12 1.71 10.05 3.86 1.9 2.1 3.81 4.34 4.5 7.12.51 3.43 1.26 6.8.11 10.1-2.72 13.6-16.15 21.85-26.47 29.74-15.94 11.3-34.91 19.67-54.72 18.2v-.02c-6.29-.75-12.63-2.88-16.84-7.83-3.93-5.03-5.86-12.02-2.03-17.52-4.84-7.11-6.35-16-5.76-24.36-4.43-6.96-11.17-14.95-7.28-23.56-2.03-3.78-4.02-7.63-6.16-11.37a173.6 173.6 0 0 1-80.95 18.1c-3.61-.42-24.9-1.91-34-5.78q-.47 1.07-.78 1.84c-1.6 4.24-3.57 8.7-5.25 12.77 1.03 1.74 1.37 5.75.55 8.73 1.2.7 2.31 1.63 3.11 2.39 3.92 3.49 5.76 8.63 5.63 13.8l-.12 1.5c2.03 1.15 3.87 2.74 5.64 4.2 9 9.23 11.78 24.98 4.82 36.15-.43.7-.93 1.47-1.5 2.18 3 4.6 2.56 11.23.03 15.92-3.68 6-12.02 6.37-18.31 5.68l-.03-.03c-25.27-3.68-51.44-16.82-68.45-36-7.57-8.56-16.3-21.8-8.02-32.63 1.68-1.87 4-3.07 6.34-3.9a7 7 0 0 1 4.41-1.36c.45-.86.91-1.67 1.2-2.37 3.67-6.6 8.58-13.88 16.15-16.26 2.5-6.55 3.7-17.08 12.2-18.15 1.8-4.15 3.99-7.88 5.98-11.72-5.1-3.09-14.2-10.25-17.36-15.88-.94.12-1.55.21-2.54.21l-.03.03c-10.95.18-21.77-7.23-23.13-18.55-.11-.96-.36-2.18-.54-3.45l-.2-.05h.03c-7.75-.45-11.2-10.16-7.97-16.47.4-.83.82-1.75 1.33-2.62-16.06-23.5-2.8-59.03 23.72-67.94q.3-.35.71-.58c12.42-22.1 25.3-44.8 30.7-69.78 3.53-24.41-3.86-49.28-12.33-71.88a131 131 0 0 0-10.53-21.94c-.92-2.2-3.3-4.47-4.11-6.8a3 3 0 0 1-1.3-.56v.08c-.74-.4-1.5-.77-2.16-1.15-3.86-2.23-7.38-5.09-9.78-8.93a19.7 19.7 0 0 1-2.45-14.79c1.33-5.94 4.77-11.09 8.8-15.54 4.85-5.33 10.82-9.57 17.03-13.14.48-.26.93-.53.96-.53 11.2-6.24 23.58-10.34 36.22-12.53m236.2 410.38"/></mask><path fill="#fff" d="M234.45 57.7c12.9-2.27 26.55-2.54 39.26.9 5.46 1.46 10.77 3.84 15.17 7.44a23 23 0 0 1 5.75 6.92 20 20 0 0 1 2.22 8.37c.13 2.72-.43 5.52-1.26 8.1a3 3 0 0 1-.3.65q-.06.23-.18.42c2.08 33.25 2.29 68.74 19.8 97.95 11.41 17.46 28.77 29.99 44.57 43.08 1.92 1.38 4.21 2.29 5.95 3.91q.5.5.76 1.06c18.74 13.72 36.18 29.34 51.15 47.12 2.71-1.32 5-3.44 7.17-5.5-3.2-5.2-1.62-13.3 3.54-15.98l-.2-.55c-2.54-4.48-1.47-10.05 2.02-13.7 1.6-1.52 3.44-3.04 5.68-3.36a12 12 0 0 1 4.8.86c1.71-2.44 4.5-4.48 6.88-4.56 9.83-3.06 17.59 2.32 23.45 9.81 7.9 9.94 5.5 26.1-4.85 33.37 2.93 9-6.53 16.2-14.92 15.88-2.6 5.22-10.58 14.09-16.7 16.19 1.14 8.72-2.12 25.02-2.99 28.24-4.5 15.67-11.35 30.76-21.72 43.42-3.7 4.9-8.29 9.22-12.77 13.38a28 28 0 0 1-2.7 2.85c.27.86.55 1.7.96 2.35 1.01 2.56 2.32 5.07 3.44 7.36 5.83-1.1 9.3 5.78 10.79 10.45l.38.96q.19-.08.37-.13c5.66-3.08 14.34-3.29 18.8.19a8 8 0 0 1 2.77 2.92h.02l.47-.1c11.35-5.93 25.53-.89 31.7 10.1.47.87 1.1 1.9 1.6 2.99 3.7-.1 8.12 1.71 10.05 3.86 1.9 2.1 3.81 4.34 4.5 7.12.51 3.43 1.26 6.8.11 10.1-2.72 13.6-16.15 21.85-26.47 29.74-15.94 11.3-34.91 19.67-54.72 18.2v-.02c-6.29-.75-12.63-2.88-16.84-7.83-3.93-5.03-5.86-12.02-2.03-17.52-4.84-7.11-6.35-16-5.76-24.36-4.43-6.96-11.17-14.95-7.28-23.56-2.03-3.78-4.02-7.63-6.16-11.37a173.6 173.6 0 0 1-80.95 18.1c-3.61-.42-24.9-1.91-34-5.78q-.47 1.07-.78 1.84c-1.6 4.24-3.57 8.7-5.25 12.77 1.03 1.74 1.37 5.75.55 8.73 1.2.7 2.31 1.63 3.11 2.39 3.92 3.49 5.76 8.63 5.63 13.8l-.12 1.5c2.03 1.15 3.87 2.74 5.64 4.2 9 9.23 11.78 24.98 4.82 36.15-.43.7-.93 1.47-1.5 2.18 3 4.6 2.56 11.23.03 15.92-3.68 6-12.02 6.37-18.31 5.68l-.03-.03c-25.27-3.68-51.44-16.82-68.45-36-7.57-8.56-16.3-21.8-8.02-32.63 1.68-1.87 4-3.07 6.34-3.9a7 7 0 0 1 4.41-1.36c.45-.86.91-1.67 1.2-2.37 3.67-6.6 8.58-13.88 16.15-16.26 2.5-6.55 3.7-17.08 12.2-18.15 1.8-4.15 3.99-7.88 5.98-11.72-5.1-3.09-14.2-10.25-17.36-15.88-.94.12-1.55.21-2.54.21l-.03.03c-10.95.18-21.77-7.23-23.13-18.55-.11-.96-.36-2.18-.54-3.45l-.2-.05h.03c-7.75-.45-11.2-10.16-7.97-16.47.4-.83.82-1.75 1.33-2.62-16.06-23.5-2.8-59.03 23.72-67.94q.3-.35.71-.58c12.42-22.1 25.3-44.8 30.7-69.78 3.53-24.41-3.86-49.28-12.33-71.88a131 131 0 0 0-10.53-21.94c-.92-2.2-3.3-4.47-4.11-6.8a3 3 0 0 1-1.3-.56v.08c-.74-.4-1.5-.77-2.16-1.15-3.86-2.23-7.38-5.09-9.78-8.93a19.7 19.7 0 0 1-2.45-14.79c1.33-5.94 4.77-11.09 8.8-15.54 4.85-5.33 10.82-9.57 17.03-13.14.48-.26.93-.53.96-.53 11.2-6.24 23.58-10.34 36.22-12.53m236.2 410.38"/><path fill="#fff" d="m234.45 57.7 2.9 16.74h.04zm39.26.9L269.27 75l.03.02zm15.17 7.44L278.1 79.19l.09.08zm5.75 6.92-15.02 7.97zm2.22 8.37-16.99.78v.06zm-1.26 8.1 16.18 5.24.02-.06zm-.3.65-14.58-8.73q-.88 1.47-1.44 3.08zm-.18.42-14.8-8.37a17 17 0 0 0-2.17 9.44zm19.8 97.95-14.57 8.75.35.55zm44.57 43.08-10.84 13.09q.44.36.89.69zm5.95 3.91 11.86-12.18-.23-.21zm.76 1.06-15.3 7.4a17 17 0 0 0 5.26 6.32zm51.15 47.12-13 10.95a17 17 0 0 0 20.44 4.33zm7.17-5.5 11.66 12.38a17 17 0 0 0 2.82-21.3zm3.54-15.98 7.81 15.1a17 17 0 0 0 8.11-21.05zm-.2-.55 15.92-5.93q-.46-1.26-1.13-2.44zm2.02-13.7-11.71-12.32q-.3.28-.58.57zm5.68-3.36-.73-16.98q-.84.03-1.68.15zm4.8.86-6.43 15.73a17 17 0 0 0 20.35-5.97zm6.88-4.56.59 17q2.29-.1 4.47-.77zm23.45 9.81-13.38 10.48.07.09zm-4.85 33.37-9.78-13.9a17 17 0 0 0-6.38 19.15zm-14.92 15.88.64-17a17 17 0 0 0-15.87 9.43zm-16.7 16.19L428.68 300a17 17 0 0 0-11.33 18.3zm-2.99 28.24 16.34 4.7.07-.27zm-21.72 43.42-13.15-10.77-.42.52zm-12.77 13.38-11.56-12.46q-.75.7-1.41 1.48zm-2.7 2.85-11.36-12.64a17 17 0 0 0-4.88 17.63zm.96 2.35 15.8-6.25q-.54-1.4-1.34-2.67zm3.44 7.36-15.28 7.46a17 17 0 0 0 18.4 9.25zm10.79 10.45-16.2 5.18q.2.57.42 1.13zm.38.96-15.84 6.16a17 17 0 0 0 22.38 9.53zm.37-.13 5.3 16.15q1.47-.48 2.83-1.22zm18.8.19-10.42 13.42q.75.58 1.55 1.07zm2.77 2.92-14.77 8.42a17 17 0 0 0 11.39 8.24zm.02 0-3.53 16.63a17 17 0 0 0 8.14-.26zm.47-.1 3.27 16.67q2.4-.46 4.59-1.6zm31.7 10.1 14.87-8.24-.05-.08zm1.6 2.99-15.4 7.19a17 17 0 0 0 15.87 9.8zm10.05 3.86-12.65 11.36zm4.5 7.12 16.82-2.48q-.12-.83-.32-1.65zm.11 10.1-16.06-5.57q-.38 1.1-.61 2.23zm-26.47 29.74 9.84 13.87.5-.36zm-54.72 18.2h-17a17 17 0 0 0 15.75 16.96zm0-.02h17a17 17 0 0 0-15-16.88zm-16.84-7.83-13.4 10.47.44.53zm-2.03-17.52 13.95 9.71a17 17 0 0 0 .1-19.27zm-5.76-24.36 16.95 1.19a17 17 0 0 0-2.61-10.31zm-7.28-23.56 15.49 7a17 17 0 0 0-.52-15.05zm-6.16-11.37 14.74-8.47a17 17 0 0 0-22.33-6.74zm-80.95 18.1-1.98 16.9q.8.09 1.61.1zm-34-5.78 6.66-15.64a17 17 0 0 0-22.33 9.05zm-.78 1.84-15.82-6.22-.09.22zm-5.25 12.77-15.72-6.47a17 17 0 0 0 1.1 15.17zm.55 8.73-16.4-4.45a17 17 0 0 0 7.89 19.17zm3.11 2.39-11.63 12.4.32.29zm5.63 13.8 16.94 1.37q.04-.47.05-.93zm-.12 1.5-16.93-1.57a17 17 0 0 0 8.57 16.37zm5.64 4.2 12.16-11.87q-.61-.63-1.3-1.2zm4.82 36.15-14.43-8.99-.1.15zm-1.5 2.18-13.3-10.57a17 17 0 0 0-.93 19.87zm.03 15.92 14.49 8.9.47-.82zm-18.31 5.68-12.02 12.02a17 17 0 0 0 10.16 4.88zm-.03-.03 12.02-12.02a17 17 0 0 0-9.57-4.8zm-68.45-36-12.73 11.26h.01zm-8.02-32.63-12.64-11.37q-.45.5-.86 1.03zm6.34-3.9 5.65 16.04a17 17 0 0 0 4.81-2.63zm4.41-1.36-.57 16.99a17 17 0 0 0 15.58-9.02zm1.2-2.37-14.86-8.26q-.51.9-.9 1.9zm16.15-16.26 5.08 16.23a17 17 0 0 0 10.8-10.16zm12.2-18.15 2.12 16.87A17 17 0 0 0 219 438.96zm5.98-11.72 15.1 7.82a17 17 0 0 0-6.3-22.37zm-17.36-15.88 14.84-8.3a17 17 0 0 0-17.04-8.56zm-2.54.21v-17a17 17 0 0 0-12.02 4.98zm-.03.03.29 17a17 17 0 0 0 11.73-4.98zm-23.13-18.55-16.9 1.9.02.12zm-.54-3.45 16.83-2.4a17 17 0 0 0-12.8-14.12zm-.2-.05v-17a17 17 0 0 0-4.66 33.35zm.03 0v17a17 17 0 0 0 1-33.97zm-7.97-16.47 15.14 7.73.23-.47zm1.33-2.62 14.69 8.57a17 17 0 0 0-.65-18.16zm23.72-67.94 5.41 16.12a17 17 0 0 0 7.28-4.8zm.71-.58 8.47 14.74a17 17 0 0 0 6.35-6.41zm30.7-69.78 16.62 3.6q.13-.58.21-1.18zm-12.33-71.88-15.93 5.94v.03zm-10.53-21.94-15.7 6.52q.5 1.18 1.15 2.28zm-4.11-6.8 16.06-5.57a17 17 0 0 0-12.84-11.11zm-1.3-.56 10.4-13.45a17 17 0 0 0-27.4 13.45zm0 .08-8.03 14.99a17 17 0 0 0 25.03-14.99zm-2.16-1.15-8.52 14.71.22.13zm-9.78-8.93 14.42-9-.06-.1zm-2.45-14.79-16.59-3.72v.03zm8.8-15.54-12.58-11.44-.03.04zm17.03-13.14L189 55.9l-.22.13zm.96-.53v17a17 17 0 0 0 8.27-2.15zm272.43 397.87 14.51 8.84a17 17 0 0 0-28.72-18.19zm-1.15 1.71-14.1-9.48a17 17 0 0 0 27.88 19.45zM234.45 57.7l2.94 16.74c11.26-1.98 22.26-2.03 31.88.57l4.44-16.41 4.44-16.41c-15.8-4.28-32.1-3.8-46.64-1.24zm39.26.9-4.4 16.42c3.77 1.01 6.72 2.47 8.8 4.17l10.76-13.15 10.77-13.16c-6.72-5.5-14.38-8.78-21.53-10.7zm15.17 7.44L278.2 79.27a6 6 0 0 1 1.41 1.66l15.02-7.97L309.65 65a40 40 0 0 0-10.1-12.2zm5.75 6.92-15.01 7.97q.07.13.13.37.08.25.11.8l16.99-.77 16.98-.77A37 37 0 0 0 309.65 65zm2.22 8.37-16.99.84-.05.48q-.1.6-.41 1.61l16.2 5.18 16.19 5.17a40 40 0 0 0 2.03-14.1zm-1.26 8.1-16.17-5.23q.54-1.62 1.29-2.85l14.59 8.73 14.58 8.74c.73-1.22 1.39-2.6 1.89-4.15zm-.3.65-16.03-5.65q.43-1.2 1.05-2.3l14.8 8.37 14.8 8.37q.85-1.5 1.42-3.13zm-.18.42-16.97 1.07c1.97 31.3 2.03 72 22.2 105.63l14.58-8.75 14.58-8.74c-14.87-24.8-15.22-55.1-17.43-90.27zm19.8 97.95-14.22 9.3c13.21 20.23 33.48 34.88 47.95 46.87l10.84-13.1 10.84-13.09c-17.13-14.19-31.57-24.59-41.17-39.28zm44.57 43.08-9.95 13.78a38 38 0 0 0 3.71 2.35l.7.4c.86.51.46.35-.15-.22l11.64-12.4 11.63-12.4a33 33 0 0 0-5.94-4.31l-1.44-.84-.24-.15zm5.95 3.91-11.87 12.18c-1.08-1.06-2-2.32-2.67-3.72l15.3-7.4 15.31-7.39a21 21 0 0 0-4.21-5.85zm.76 1.06-10.04 13.72C374 263.28 390.4 278 404.33 294.57l13-10.95 13.01-10.95c-15.99-19-34.48-35.52-54.1-49.88zm51.15 47.12 7.44 15.28c5.4-2.63 9.5-6.62 11.39-8.4l-11.66-12.38-11.65-12.38a44 44 0 0 1-2.4 2.17c-.56.45-.72.5-.56.42zm7.17-5.5L439 269.2c1.03 1.68.9 2.94.78 3.51-.1.51-.79 2.92-3.9 4.53l-7.82-15.1-7.81-15.1c-8.3 4.3-12.34 12.09-13.73 18.62a29.4 29.4 0 0 0 3.53 21.38zm3.54-15.98 15.92-5.95-.2-.53-15.93 5.93-15.93 5.93.22.58zm-.2-.55 14.8-8.37a5.4 5.4 0 0 1-.5 6.42l-12.28-11.75-12.29-11.75c-7.97 8.34-11.23 21.98-4.53 33.82zm2.02-13.7 11.7 12.33c.58-.55.54-.45.15-.2a9.5 9.5 0 0 1-3.77 1.34l-2.4-16.83-2.4-16.83c-8.1 1.16-13.4 6.35-15 7.87zm5.68-3.36.72 16.99q-.89.01-1.24-.07a5 5 0 0 1-1.11-.33l6.43-15.73 6.44-15.74a29 29 0 0 0-11.97-2.1zm4.8.86 13.92 9.76c-.29.4-.62.76-1.15 1.12a8 8 0 0 1-1.6.82c-.76.3-2.02.67-3.7.73l-.6-16.99-.58-16.99c-5.52.2-9.92 2.46-12.68 4.34a30 30 0 0 0-7.53 7.45zm6.88-4.56 5.06 16.23c.45-.14.56-.1.46-.1-.08-.01-.02-.03.25.1.74.36 2.25 1.44 4.3 4.06l13.38-10.48 13.39-10.48c-7.4-9.44-21.8-21.82-41.9-15.56zm23.45 9.81-13.31 10.57c.6.77 1.24 2.4.9 4.65-.33 2.27-1.4 3.67-2.22 4.25l9.78 13.9 9.79 13.9c18.28-12.86 22.38-40.19 8.38-57.84zm-4.85 33.37-16.16 5.25a7 7 0 0 1 .02-4.01 5 5 0 0 1 1.24-2.16c.22-.2.3-.2.2-.17-.08.03.02-.04.42-.02l-.64 16.99-.64 16.99a33.7 33.7 0 0 0 24.02-9.08c6.72-6.36 11.63-16.97 7.71-29.04zm-14.92 15.88-15.23-7.57q.03-.02-.3.5-.31.5-.88 1.25c-.75 1-1.7 2.1-2.73 3.15a24 24 0 0 1-2.78 2.46c-.87.64-.97.55-.3.32l5.52 16.08 5.53 16.08c6.86-2.36 12.64-7.41 16.25-11.08 3.86-3.91 7.78-8.88 10.14-13.63zm-16.7 16.19-16.86 2.21c.25 1.89.05 6.16-.71 11.61a132 132 0 0 1-1.76 9.71l-.07.28 16.41 4.43 16.41 4.43c.68-2.5 1.83-8.11 2.68-14.13.8-5.68 1.65-13.92.75-20.75zm-2.99 28.24-16.34-4.7c-4.06 14.14-10.02 26.95-18.53 37.35l13.15 10.77 13.15 10.77c12.23-14.93 19.97-32.28 24.91-49.5zm-21.72 43.42-13.56-10.25c-2.68 3.54-6.19 6.91-10.77 11.17l11.56 12.46 11.57 12.46c4.37-4.06 10.03-9.33 14.76-15.6zm-12.77 13.38-12.97-10.98a26 26 0 0 1-.98 1.09l-.08.07-.03.03 11.37 12.64 11.36 12.64a46 46 0 0 0 4.31-4.51zm-2.7 2.85-16.24 4.99c.22.71 1.03 3.54 2.73 6.29l14.47-8.93 14.46-8.92c.54.87.8 1.53.87 1.7.07.19.08.23-.03-.11zm.96 2.35-15.81 6.26c1.33 3.37 3.12 6.82 3.97 8.56l15.28-7.46 15.27-7.46c-1.4-2.85-2.21-4.4-2.9-6.15zm3.44 7.36 3.12 16.7c-2.29.44-4.65.06-6.57-.87a8 8 0 0 1-2.65-1.96c-.19-.23-.1-.18.11.27q.32.66.59 1.49l16.19-5.18 16.2-5.18c-1.05-3.27-3.1-8.47-6.84-13-3.9-4.74-11.89-11.11-23.28-8.98zm10.79 10.45-15.79 6.31.33.81 15.84-6.16 15.85-6.16-.45-1.12zm.38.96 6.54 15.7-.87.32-5.3-16.16-5.3-16.15q-.7.22-1.6.6zm.37-.13 8.13 14.93c-.08.04.07-.05.49-.15q.62-.15 1.24-.15c.41 0 .55.06.4.02q-.13-.02-.6-.24-.48-.2-1.28-.8l10.42-13.43 10.43-13.42c-6.27-4.88-13.78-6.13-19.39-6.13a38 38 0 0 0-17.97 4.43zm18.8.19-8.87 14.5a9 9 0 0 1-3.13-3.16l14.77-8.42 14.76-8.43a25 25 0 0 0-8.65-9zm2.77 2.92-3.38 16.66.24.05h.06-.03l-.09-.01-.3-.07 3.52-16.63 3.54-16.63-.46-.09.05.01.23.05zm.02 0 4.61 16.37-.87.2-3.27-16.68-3.27-16.68q-.93.19-1.8.43zm.47-.1 7.86 15.07a5.8 5.8 0 0 1 4.6-.22 8 8 0 0 1 4.4 3.56l14.83-8.32 14.83-8.31c-10.2-18.18-34.07-27.44-54.38-16.86zm31.7 10.1-14.88 8.23.47.83.6 1.08v.03l.01.01 15.4-7.2 15.4-7.19c-.83-1.78-2.05-3.87-2.13-4.03zm1.6 2.99.47 16.99c-.53.01-.82-.04-.89-.06l-.1-.02-.1-.05-.3-.16a8 8 0 0 1-1.68-1.48l12.65-11.36 12.64-11.36a29 29 0 0 0-10.78-7.24 32 32 0 0 0-12.37-2.26zm10.05 3.86-12.64 11.36a41 41 0 0 1 1.33 1.57c.05.08-.39-.53-.68-1.7l16.5-4.11 16.49-4.13c-1.86-7.44-6.78-12.6-8.36-14.35zm4.5 7.12-16.81 2.47.21 1.43.17 1.1c.1.65.13.99.14 1.17.02.33-.07-.45.34-1.64l16.06 5.57 16.06 5.57c2.85-8.23.85-16.78.65-18.15zm.11 10.1-16.67-3.34c-.4 1.98-1.71 4.49-5.44 8.04-4.1 3.9-8.48 6.8-14.69 11.54l10.33 13.5 10.33 13.5c4.11-3.14 11.6-8.32 17.48-13.92 6.25-5.95 13-14.37 15.33-25.99zm-26.47 29.74-9.83-13.87c-14.33 10.17-29.38 16.18-43.63 15.12l-1.26 16.96-1.25 16.95c25.35 1.88 48.26-8.85 65.8-21.29zm-54.72 18.2h17v-.02h-34v.03zm0-.02 2-16.88a17 17 0 0 1-4.49-1.08 4 4 0 0 1-1.4-.88l-12.95 11L369 513.24c8.2 9.65 19.56 12.74 27.8 13.71zm-16.84-7.83 13.4-10.48q-.35-.46-.5-.78c-.1-.21-.08-.23-.05-.04.04.21.08.7-.05 1.4a6 6 0 0 1-.88 2.09l-13.95-9.7-13.96-9.72c-10.02 14.4-3.43 29.98 2.6 37.7zm-2.03-17.52 14.05-9.56c-2.08-3.07-3.26-7.8-2.86-13.61l-16.95-1.19-16.96-1.18c-.77 10.93 1.06 23.94 8.66 35.1zm-5.76-24.36 14.34-9.12c-.66-1.05-1.35-2.08-1.94-2.96l-1.64-2.5a28 28 0 0 1-1.99-3.48c-.35-.8-.26-.87-.22-.43.04.6-.08 1.35-.34 1.93l-15.5-7-15.48-7c-4.67 10.32-2.4 19.84.47 26.3 2.44 5.49 6.73 11.46 7.95 13.39zm-7.28-23.56 14.97-8.05c-1.84-3.42-4.09-7.78-6.4-11.8l-14.73 8.48-14.74 8.47c1.99 3.46 3.7 6.8 5.93 10.95zm-6.16-11.37-7.6-15.21a156.6 156.6 0 0 1-72.98 16.32l-.37 17-.37 17c30.7.66 61.44-6.2 88.9-19.9zm-80.95 18.1 1.99-16.88c-3.41-.4-7.37-.6-14.71-1.57-7.11-.94-12.5-2.07-14.62-2.97l-6.66 15.64-6.65 15.64c6.97 2.97 16.78 4.51 23.49 5.4 6.48.85 14.97 1.6 15.18 1.63zm-34-5.78-15.67-6.6c0 .02-.66 1.54-.93 2.22l15.82 6.22 15.82 6.23c-.01.03 0-.03.14-.34l.5-1.14zm-.78 1.84-15.9-6c-1.5 3.96-3.14 7.6-5.07 12.3l15.72 6.47 15.72 6.48c1.42-3.46 3.73-8.72 5.43-13.24zm-5.25 12.77-14.61 8.7a12 12 0 0 1-1.26-2.96q-.13-.63-.12-.65v-.1q-.02-.06.14-.7l16.4 4.44 16.41 4.46c1-3.7 1.18-7.4.97-10.48-.19-2.6-.8-7.17-3.32-11.4zm.55 8.73-8.51 14.72-.18-.11-.1-.06-.03-.03.02.02.28.24 11.63-12.4 11.64-12.4a35 35 0 0 0-6.23-4.69zm3.11 2.39-11.3 12.69c-.19-.16-.22-.28-.18-.2.04.12.13.42.11.88l17 .43 17 .44c.23-9.3-3.06-19.58-11.32-26.94zm5.63 13.8-16.95-1.36-.1 1.29 16.92 1.57 16.93 1.57.14-1.7zm-.12 1.5-8.36 14.8.06.04.16.1.64.48c.63.49 1.2.97 2.27 1.86l10.87-13.07 10.87-13.07c-1.27-1.05-4.47-3.87-8.16-5.95zm5.64 4.2-12.16 11.89c4.3 4.4 4.81 11.63 2.55 15.27l14.43 8.99 14.43 8.99c11.65-18.7 6.63-42.97-7.1-57.01zm4.82 36.15-14.53-8.84-.28.45q-.08.13 0 0l13.32 10.57 13.31 10.58c1.22-1.53 2.14-3 2.7-3.93zm-1.5 2.18-14.22 9.3a5 5 0 0 1-.62-1.35c-.07-.27-.06-.39-.06-.35q0 .07-.04.23-.05.15 0 .01l14.97 8.08 14.95 8.08c4.7-8.7 6.5-22.2-.74-33.29zm.03 15.92-14.5-8.89a6 6 0 0 1 2-2.04c.56-.34.83-.36.56-.3s-.82.14-1.68.16q-1.28.01-2.83-.15l-1.86 16.9-1.86 16.9c4.04.44 9.81.7 15.75-.65 6.08-1.38 13.89-4.86 18.9-13.04zm-18.31 5.68 12.02-12.02-.03-.03-12.02 12.02-12.02 12.02.03.03zm-.03-.03 2.45-16.82c-21.69-3.16-44.08-14.56-58.17-30.46l-12.73 11.27-12.72 11.28c19.92 22.48 49.87 37.36 78.72 41.56zm-68.45-36 12.74-11.27c-3.32-3.75-5.73-7.3-6.73-10.04-.44-1.22-.38-1.67-.39-1.53-.03.34-.2.61-.14.55l-13.5-10.34-13.5-10.34c-8.75 11.43-7.8 24.04-4.4 33.34 3.19 8.72 8.94 16.08 13.2 20.89zm-8.02-32.63 12.64 11.37c-.55.61-1 .9-1.1.95s.02-.03.45-.18l-5.65-16.03-5.64-16.04c-3.64 1.28-8.96 3.7-13.34 8.56zm6.34-3.9 10.46 13.41a9.8 9.8 0 0 1-6.62 2.22l.57-17 .57-16.98a24 24 0 0 0-15.43 4.95zm4.41-1.36 15.01 7.97c.06-.1 1.23-2.18 1.95-3.97l-15.76-6.37-15.77-6.37q.15-.36.2-.43.02-.06-.04.07l-.22.42-.38.7zm1.2-2.37 14.85 8.27a37 37 0 0 1 4.43-6.65 9 9 0 0 1 1.49-1.39 3 3 0 0 1 .46-.26l-5.08-16.23-5.08-16.22c-14.66 4.6-22.36 17.8-25.93 24.22zm16.15-16.26 15.88 6.07c.49-1.28.9-2.53 1.23-3.57l.9-2.91c.56-1.84.93-2.86 1.24-3.52s.2-.14-.68.66a8 8 0 0 1-4.25 1.99l-2.11-16.87-2.12-16.87c-12.68 1.6-18.87 10.78-21.64 16.69a61 61 0 0 0-2.92 7.84c-.75 2.44-1.04 3.46-1.41 4.43zm12.2-18.15 15.6 6.76c1.5-3.45 2.95-5.8 5.47-10.66l-15.1-7.82-15.09-7.82c-1.46 2.82-4.37 7.93-6.47 12.78zm5.98-11.72 8.8-14.55a57 57 0 0 1-7.05-5.25 40 40 0 0 1-3.21-3.1c-.9-.99-1.14-1.42-1.06-1.28l-14.84 8.3-14.84 8.29c3.06 5.48 7.98 10.25 11.62 13.42a90 90 0 0 0 11.78 8.72zm-17.36-15.88-2.2-16.86-.19.02-.16.02-.22.03-.12.02.2-.02h.15v34c2.27 0 3.96-.25 4.74-.36zm-2.54.21-12.02-12.02-.03.02 12.02 12.03 12.02 12.02.03-.03zm-.03.03-.29-17a7.5 7.5 0 0 1-4.55-1.47c-1.08-.82-1.35-1.56-1.42-2.11l-16.87 2.03-16.88 2.02c2.62 21.87 22.67 33.82 40.3 33.52zm-23.13-18.55 16.89-1.91c-.12-1-.28-1.98-.37-2.51-.12-.69-.18-1.06-.23-1.44l-16.83 2.4-16.83 2.41c.13.9.28 1.78.36 2.26l.11.7zm-.54-3.45 4.03-16.52-.15-.03h.03l.57.15-4.67 16.35-4.67 16.35.75.2.13.03-.05-.02zm-.2-.05v17h.03v-34h-.02zm.03 0 1-16.97c1.68.1 3.3.75 4.54 1.73a6 6 0 0 1 1.94 2.41c.35.8.67 2.17-.3 4.09l-15.15-7.73-15.14-7.73c-4.2 8.23-3.78 17.61-.57 24.96 3.34 7.67 10.97 15.53 22.7 16.21zm-7.97-16.47 15.37 7.26.47-.98.13-.25.04-.08-14.68-8.57-14.68-8.57c-.95 1.64-1.7 3.26-2.02 3.93zm1.33-2.62 14.04-9.59c-4.41-6.46-5.28-15.34-2.14-24.13 3.16-8.84 9.67-15.56 17.23-18.1l-5.4-16.12-5.42-16.11c-18.97 6.37-32.34 21.87-38.43 38.9-6.1 17.06-5.56 37.7 6.09 54.74zm23.72-67.94 12.7 11.31c-.86.97-2.02 1.99-3.52 2.85l-8.47-14.74-8.47-14.74a20 20 0 0 0-4.93 4.01zm.71-.58 14.82 8.33c12.16-21.63 26.45-46.59 32.5-74.51l-16.61-3.6-16.62-3.6c-4.77 22.03-16.22 42.48-28.9 65.05zm30.7-69.78 16.83 2.42c4.18-29-4.67-57.4-13.25-80.27l-15.91 5.97-15.92 5.97c8.38 22.33 14.29 43.67 11.43 63.49zm-12.33-71.88 15.92-5.94a148 148 0 0 0-11.9-24.8l-14.55 8.8-14.55 8.8c3.56 5.9 6.63 12.33 9.15 19.08zm-10.53-21.94 15.7-6.52a27 27 0 0 0-2.39-4.45c-.62-.94-1.3-1.89-1.6-2.29l-.47-.69c0 .01.36.59.7 1.58l-16.05 5.58-16.06 5.58a26 26 0 0 0 2.42 5.03c.7 1.16 1.43 2.17 1.84 2.74.52.73.65.9.76 1.08.1.14-.21-.3-.55-1.12zm-4.11-6.8 3.22-16.68c1.72.33 3.84 1.1 5.88 2.67l-10.4 13.45-10.4 13.45a20 20 0 0 0 8.47 3.81zm-1.3-.56h-17v.08h34v-.08zm0 .08 8.03-14.98c-1.43-.77-1.3-.67-1.88-1l-8.3 14.83-8.31 14.84 2.43 1.3zm-2.16-1.15 8.52-14.7c-2.42-1.41-3.45-2.54-3.88-3.23l-14.42 9-14.41 9.02c4.36 6.97 10.37 11.55 15.67 14.62zm-9.78-8.93 14.36-9.1a2.8 2.8 0 0 1-.22-2l-16.6-3.69-16.59-3.69a36.7 36.7 0 0 0 4.7 27.59zm-2.45-14.79 16.59 3.72c.43-1.93 1.78-4.5 4.81-7.86l-12.6-11.4-12.62-11.4c-5 5.54-10.54 13.27-12.77 23.22zm8.8-15.54 12.57 11.44c3.24-3.56 7.6-6.77 12.93-9.84l-8.47-14.74-8.48-14.73c-7.08 4.07-14.67 9.33-21.13 16.43zm17.03-13.14 8.25 14.86.75-.42-.05.03-.54.28a16 16 0 0 1-4.02 1.37c-.59.12-1.84.35-3.43.35v-34a17 17 0 0 0-7.51 1.75l-.67.34c-.21.11-.4.23-.5.27l-.54.31zm.96-.53 8.27 14.85c9.32-5.2 19.86-8.73 30.85-10.63l-2.9-16.75-2.9-16.75c-14.28 2.47-28.53 7.15-41.6 14.43zm272.43 397.87-14.2-9.35-1.06 1.58 14.11 9.48 14.11 9.49 1.24-1.86zm-1.15 1.71 13.78 9.97q1-1.38 1.88-2.84l-14.51-8.85-14.52-8.84-.4.6z" mask="url(#crests-experiments-path-1-outside-1_24_469)"/></g><path fill="#ae4924" d="M400.22 316.15c-8.85-2.21-10.66-12.42-7.54-19.91 1.36-4.59 6.23-4.85 10.23-4.93 4.43-.86 8.96-.62 12.9-2.94 5.04-2.4 9.87-4.4 13.28-8.84.77-1.87 2.72-3.95 4.9-3.82 9.49-4.63 13.51 2.9 15.54 10.99.72 9.14-6.72 16.6-13.49 21.72a36.7 36.7 0 0 1-35.82 7.73M244.28 408.4c4.23 5.86 3.2 12.85.93 19.27-3.36 10.2-8.13 19.88-11.6 30.1-4.66 11.45-12.04 29.87-27.55 22.46-3.58-1.92-6.99-4.64-9.25-8.05-4.08-10.5 2.6-22.28 7.09-31.45 4.05-9.38 9.38-18.18 14.02-27.21 1.68-2.93 1.78-7.62 5.17-9.06 5.4-7.57 16.87-2.24 21.19 4zm163.27 35.5c2.24 14.13-7.27 21-20.33 15.97-4.05-1.92-6.5-5.74-8.77-9.39-3.68-6.07-8.37-11.38-11.2-17.96-2.69-4.67-5.25-9.36-7.2-14.37-3.17-5.35-5.35-11.96-3.27-17.96 1.41-6 6.58-10.34 12.37-11.97 4.37-1.36 8.42.99 12.31 2.64 2.72.7 5.14 1.65 4.53 4.98 8.61 10.5 11.91 24.26 17.14 36.52 1.12 3.94 3.7 7.38 4.4 11.54z"/><path fill="#fff" d="M447.84 291.36c-5.3-4.94-26.7-16.42-17.46-24.55 2.35-1.23 5.63-2.9 7.73-.3 5.54 1.98 10 6.14 14.66 9.6 3.17 2.72 7.28 5.46 8.26 9.76 1.34 8.52-7.73 10.68-13.2 5.46z"/><path fill="#fff" d="M451.11 281.55a86 86 0 0 1-8.58-8.5 23 23 0 0 1-1.84-2.37c.21 3.14-3.76 4.08-5.65 1.97-2.45-2.48-.32-6.34-.96-9.44-1.01-2.47-2.7-4.9-2.61-7.7a7.18 7.18 0 0 1 9.86-4.8c7.09-13.46 26.44-2.5 30.89 7.92.77 3.63.37 7.76-1.2 11.09-3.33 6.93-11.46 19.22-19.91 11.86zM233.44 452.7c4.29 7.99-3.15 16.5-7.5 22.84-6.07 10.31-16.15 12.98-26.91 8.1-16.24-9.46-1.58-30.63 1.6-43.71.8-2.16 4.02-2.59 5.2-.54 4.98 4.08 10.2 8.32 16.52 10.05 3.54 1.66 8.34.06 11.09 3.28zM414 447.88c2.82 13.14-12.16 28.38-25.25 22.52-5.11-1.9-7.97-6.42-10.23-11.14-1.73-3.87-4.96-6.85-6.37-10.88-3.5-7.11-1.97-11.08 6.18-11.91 7.12-3.25 14.45-6.93 18.5-13.92.3-1.73 2.1-3.22 3.86-2.71 1.5.42 2.46 2.31 3.07 3.57 1.57 2.64 1.17 6 2.8 8.5 4.16 4.16 5.17 10.63 7.4 15.94zm-20.33 54.76c-9.73-2.18-16.77-12.63-4.43-17.48 6.77-2.9 8.08 3.73 2.32 6.69 17.25 2.45 35.45-3.73 49.5-13.65 6.4-5.44 14.6-9.8 18.39-17.56-3.36-.08-3.46-4.37-1.23-6.1-5.38-4.94 7.39-10.27 11.3-8.56 3.23 1.54 6 4.98 5.66 8.71-2.06 12.72-14.93 20.93-24.23 28.57-16.05 12.24-36.65 22.18-57.28 19.36z"/><path fill="#fff" d="M390.29 502.99c-3.1-1.12-6.02-3.81-5.14-7.38.69-4.03 4.42-13.84 9.78-10.8 1.84 1.63.61 4.08-.86 5.47-1.25 1.54-1.83 3.54-2.18 5.46 3.57 2.8 8.05 2.13 12.2 2.19 16.35.2 31.72-7.44 44.78-16.66 5.81-4.96 12.3-9.5 16.32-16.13 1.54-2.85 5.35-8.47 1.25-10.47-3.81 1.28-6.24-3.34-3.1-5.87 1.74-1.6 4.46-.96 6.51-.45 3.52.77 4.77 4.48 5.28 7.65.3 5.62-3.52 10.6-6.48 15.08-17.35 20.63-51.1 39.48-78.39 31.94zM237.9 537.24c-22.68-7.5-45.5-18.05-62.42-35.3-4.05-5.51-8.8-10.87-9.5-17.82-1.54-7.95 5.87-11.86 12.19-7.3 4.69 2.18 4.02 8.04-1.68 6.9 8.31 13.7 21.05 25.18 35.72 31.58 10.1 4.61 20.33 9.97 31.26 11.4-.96-1.7-2.56-3.03-3.2-4.87a2.84 2.84 0 0 1 2.37-3.81c1.79-1.52 4.19-.4 5.81.77 6.9 3.55 9.65 10.9 4.35 17.17-4 3.62-10.16 2.77-14.9 1.28"/><path fill="#fff" d="M231.75 536.57c-19.67-4.37-37.85-15.17-52.75-28.52-5.84-6.1-16.9-18.58-13.27-27.46 1.36-4.07 5.44-7.14 9.83-6.07 2.99.93 8.82 2.66 7.41 6.82-2.02 3.57-5.54-.16-8.23-.45-1.84.4-2.38 2.69-2.96 4.23.16 1.98 1.36 3.82 2.08 5.65 9.17 19.92 50.13 43.21 71.85 40.5-1.27-3.15 2.99-5.2 5.23-3.1a4.7 4.7 0 0 1 1.9 4.34c-1.37 8.9-15.07 5.41-21.1 4.03z"/><path fill="#f09473" d="M254.5 488.13c7.89 9.78 4.96 25.3-2.9 34.22-1.66 1.79-4.43 5.33-6.96 4.77-3.3 1.17-7.17.96-10.5-.13a98 98 0 0 1-9.44-3.79 89 89 0 0 1-12.74-4.82 101 101 0 0 1-18.2-10.85c-5.39-4.05-10.4-8.69-14.29-14.2-1.9-2.7-3.54-5.84-4.08-9.12-.37-.59-.7-1.2-.88-1.76l-.02-.21q-.49-.7-.54-1.92l.16-1.12-.02-.4q.01-1.06.5-1.87a32.5 32.5 0 0 1 7.1-13.64c3.83-4.14 9.1-7.87 14.87-8.13.72.1 1.25.45 1.62.9q.14.13.27.3c1.65 1.33 1.12 4-.32 5.27-2.61 5.76-3.36 14.24 2.93 17.86.8.48 1.23 1.15 1.36 1.84 2.5.9 5.33 1.25 7.8.5 2.67-.77 4.7-2.74 6.14-5.08-1.36-2.08-2.72-4.19-4.24-6.13-.1-.2-.16-.35-.24-.54V470c-.5-1.33.08-3.01 1.07-4.02 6.82-6.5 18.44-5.33 26.1-.9a3.2 3.2 0 0 1 1.56 2.12 9.7 9.7 0 0 1 3.65 9.25c-.23 1.34-.47 3.12-.95 4.85 4.18 1.39 8.13 4.06 11.24 6.88zm209.86-31.91a4 4 0 0 1-1.01 2.32 48 48 0 0 1-8.21 11.94 71 71 0 0 1-16.07 12.6 79 79 0 0 1-18.6 7.9 65 65 0 0 1-20.53 2.53 72 72 0 0 1-7.17-.86q-.16.01-.37-.05-.07 0-.19-.03-.1 0-.21-.05a3.5 3.5 0 0 1-1.52-.8q-.35-.15-.72-.42c-7.52-7.28-12.1-18.18-10.48-28.58-.8-1.94-.45-3.7 1.84-4.87 1.7-.51 3.28.63 3.92 2.23 4.4 6.7 14.15 9.52 19.88 2.86l.06-.06c.82-1.04 1.46-1.84 2-2 1.25-1.86 2.53-3.73 3.65-5.67a23 23 0 0 0-7.33-3.3 3.86 3.86 0 0 1-3.12-3.47c-.05-.51 0-1.1.16-1.63a6 6 0 0 1 0-1.33c.93-5.63 2.83-11.7 7.65-15.14 2.13-1.68 6.42-3.6 9.17-2.85 2.3-.46 4.58-.56 6.9.26q1.3.28 2.45.91c2.46-.13 3.3 1.57 3.66 3.78 8.42-5.03 20.2-4.5 27.42 5.07 2.21 2.5 7.28 12.74 6.75 18.31q.01.19-.06.37z"/><path fill="#c1dcff" d="M425.12 323.21q.3.75.27 1.7c0 3.55-3.33 5.34-5.1 8-3.86 8.72-12.47 11.28-20.86 13.81-7.39 2.37-14.8 4.96-22.53 6.02-16.68 1.98-33.47 2.7-50.24 2.75-8.45.19-16.95.45-25.32-1.2-30.46-5.38-61.78-10.98-88.52-27.45a72 72 0 0 1-13.4-10.98c-1.33-1.5-2.99-3.04-4.08-4.8-5.14-1.66-1.65-8.9-.93-12.66 2-10.58 7.65-19.73 11.91-29.45 5.94-14.02 13.75-27.91 14.98-43.24.77-13.43-2.53-26.7-5.86-39.63-3.92-14.6-8.19-29.8-14.48-43.45a200 200 0 0 0-10.98-20.7c-6.31-2.51-12.28-7.02-14.44-13.7-2.35-7.34.6-14.8 5.11-20.6 4.22-5.47 9.9-9.82 15.73-13.39a100 100 0 0 1 17.72-8.48 127 127 0 0 1 15.04-4.47q.2-.1.4-.14c.18-.05.26-.05.34-.05l1.44-.27q.2-.03.4-.1.18-.08.38-.1l.2-.06.46-.08q.4-.09.8-.08c4-.7 7.97-1.3 12.02-1.63a87 87 0 0 1 21.16.85c3.5.6 6.94 1.55 10.21 2.88a30 30 0 0 1 9.01 5.57 19 19 0 0 1 5.81 10.19c.72 3.73.08 7.51-1.25 11l-.21.54c.48 9.72 1.89 19.64 2.29 29.24.13 9.22 2.34 18.87 3.81 27.82 4.13 23.64 12.87 46.86 31.16 63.06 18.52 19.62 41.1 34.65 61.28 52.46 14.97 10.98 27.5 26.1 33.98 43.6.88 2.88 2.85 11.44 2.34 17.17z"/><path fill="#c1dcff" d="M181.7 317.73c-2.9-2.16-.99-5.66.56-8.03-3.74-3.73 1.46-8.18 3.3-11.54 7.49-11.33 16.63-21.72 21.99-34.33a297 297 0 0 0 14.05-34.51c.32-3.39 3.75-5.97 6.02-2.35 5.76.4 2.61 7.28 1.41 10.58-2.74 7.7-6.1 15.78-9.25 22.95-7.43 15.43-11.7 32.33-23.34 45.13-1.12 1.35-2.51 3.3-4.5 3.17a3.7 3.7 0 0 1-1.6 2.42 9 9 0 0 1-1.87.99c-1.71 2.24-3.02 7.78-6.75 5.52z"/><path fill="#c1dcff" d="M187.08 308.15c-7.17-2.83 1.28-12.18 2.96-16.53 3.51-6.8 6.1-14.02 9.89-20.68 10.23-18.74 19.5-38.46 22.86-59.65 1.63-10.4.24-20.18.27-30.52-.05-1.73 1.04-3.68 2.96-3.73 5.33.19 2.66 10.96 3.49 14.66 2.24 24.97-7.04 48.72-17.83 70.66-7.36 14.02-14.2 28.33-21.14 42.54-.05 1.76-1.62 3.49-3.44 3.22z"/><path fill="#c1dcff" d="M220.37 252.03c-5.22-.67-3.09-7.36-2.5-10.82-.56-1.84.32-4.43.42-5.92.75-4.4 1-8.42 1.07-12.82.56-9.2 1.1-18.4.45-27.59.11-3.06-1.52-8.58 2.78-9.25.74-.03 1.36.22 1.86.64 6.19-2.3 4.53 7.5 4.93 10.98.27 10.5-.21 20.05-2.18 30.2-.99 4.1-1.23 8.34-1.52 12.56-.14 1.14-.72 2.31-1.73 2.87-1.26 2.96.8 8.61-3.6 9.15zm201.47 60.87a5 5 0 0 1-1.26-1.66c-3.3-2.82-3.75-7.75-6.42-11.2-2.3-4.18-7.3-6.57-9-10.95-1.85-2.26-5.95-5.33-3.45-8.44-6.23-7.41-13.78-13.52-21.05-19.83-9.2-9.28-20.02-16.53-30.66-23.94-36.64-28.55-54.6-53.87-70.92-97.15-.67-1.57 0-3.55 1.73-4 5.2-1.04 6.3 9.09 8.3 12.53 4.68 11.54 10.41 22.68 16.57 33.5 12.26 19.22 29.1 35.02 46.7 49.31a298 298 0 0 1 38 30.04c8.59 7.27 16.58 15.22 22.77 24.68 5.8 7.38 11.38 14.82 14.68 23.7 1.63 3.73-3.49 5.62-6 3.38z"/><path fill="#eff6ff" d="M274.39 81.34q.01.2-.05.45 0 .14-.06.3v.07q-.1.45-.32.86c-.64 2.1-2.02 3.91-3.62 5.49q-.3.45-.75.8l-.72.56v.02a30 30 0 0 1-3.3 2.45l-.53.38a78 78 0 0 1-10.82 5.46 115 115 0 0 1-18.08 5.73c-7.14 1.7-14.47 2.8-21.8 3.04q-2.4.07-4.8-.03-3.12-.12-6.23-.64c-3.52-.56-7.68-1.78-9.92-4.77a6.8 6.8 0 0 1-1.04-6.13c.72-2.48 2.4-4.48 4.27-6.2 4.9-4.43 11.03-7.34 17.1-9.76a105 105 0 0 1 13.63-4.4q3.57-.93 7.22-1.63a99 99 0 0 1 21.35-2.08q2.93.06 5.8.46 2.2.28 4.35.85.49.13 1.02.3c2.18.66 4.42 1.89 5.83 3.7l.3.4q.48.68.77 1.5.5 1.31.43 2.76z"/><path fill="#df6033" d="M430.4 317.16c.13 2.4.16 4.8.1 6.66a92 92 0 0 1-3.49 22.66c-3.7 13.09-10.31 25.32-18.66 36.03a133 133 0 0 1-28.09 26.6 157 157 0 0 1-36.17 18.98 168 168 0 0 1-41.87 9.52q-7.16.67-14.31.66-4.08 0-8.16-.18h-.13c-8.4-.4-16.74-1.52-24.53-3.25a128 128 0 0 1-38.75-15.38c-12.18-7.41-22.97-17.43-30.76-29.37a85 85 0 0 1-9.22-18.77A84 84 0 0 1 172 349.7c-1.07-14.57 2.02-29.26 7.78-42.61a103 103 0 0 1 1.47-3.3c.3-.62.77-1.1 1.3-1.4a21 21 0 0 1 1.44-1.54l.06-.06c2.69-2.45 5.86-4.23 9.17-5.75a87 87 0 0 1 9.48-3.6 167 167 0 0 1 20.42-4.9c13.7-2.56 27.64-4 41.55-4.9a554 554 0 0 1 66.64-.12 424 424 0 0 1 41.8 4.32c6.65 1.07 13.3 2.32 19.8 3.87a126 126 0 0 1 18.57 5.65 57 57 0 0 1 9.76 4.85c2.66 1.7 5.14 3.86 6.69 6.64a11.4 11.4 0 0 1 1.38 4.85c.5.61.8 1.44.83 2.2v.62c.03.9.13 1.79.19 2.67z"/><path fill="#f09473" d="M429.63 304.56q.16 1.07.11 2.21-.01.5-.19.91-.04.32-.13.64c-.88 3.63-3.57 6.53-6.37 8.82-5.44 4.32-12 7.2-18.5 9.47a192 192 0 0 1-21.77 6c-14.4 3.11-29.05 5-43.74 6.23q-9.31.8-18.63 1.2-13.27.6-26.55.42c-9.62-.1-19.24-.42-28.87-1.14l-.93-.06c-14.95-1.11-29.93-2.9-44.56-6.26-7.28-1.65-14.58-3.62-21.49-6.5a55 55 0 0 1-10.42-5.52c-3.06-2.16-6-4.9-7.3-8.5-1.25-3.41-.5-6.99 1.41-9.97 1.95-3.01 4.9-5.36 7.92-7.28 5.84-3.7 12.4-6.26 18.98-8.34a220 220 0 0 1 28.73-6.8 380 380 0 0 1 42.91-4.87 513 513 0 0 1 44.35-.75c14.37.37 28.76 1.41 43 3.36 14.01 1.92 28.14 4.53 41.41 9.54q4.04 1.52 7.84 3.5a39 39 0 0 1 6.98 4.52c2.08 1.76 4.03 3.87 5.07 6.43q-.01.07.05.1.41.58.5 1.31.14.66.22 1.33z"/><path fill="#ae4924" d="M166.28 365.28c-8.8-.56-10.53-17.94-10-24.81-1.2-14.18 5.52-26.07 16.66-34.5 8.72-8.44 24.68-10.23 34.78-3.43 2.19-.67 4.14 1.68 3.98 3.76 6.13 6.13 4.77 19.4-4.88 20.79-2.43.18-4.4-1.52-6.72-1.92-8.82-.88-12.66 4.85-14.55 12.63-2.16 6.45 2.48 13 1.04 19.43-1.15 3.63-5.17 4.05-8.32 4.9-3.89 1.1-7.78 3.15-11.86 3.15h-.16z"/><path fill="#ae4924" d="M209.09 324.47c-5.76-3.73 4.24-11.7-3.9-15.22-3.54-2.05-6.58-3.22-10.55-2.56-1.17.35-2.69.19-3.51-.8-5.1.75-6.38-6.6-1.63-7.43 8.98-.46 21.22-1.58 24.76 9.09 1.23 3.25 1.01 17.13-4 17.16a4 4 0 0 1-1.14-.21z"/><path fill="#fff" d="M166.94 378.28c-8.32.05-8.83-10.64-2.24-13.97 5.4-3.1 11.38-5.06 16.97-7.84 3.5-1.46 6.67-3.8 10.53-4 8.77-1.28 10.48 7.9 3.87 12.37-2.85 2.53-6.13 4.27-9.5 5.95-6.12 2.82-12.04 7.48-19.02 7.48z"/><path fill="#fff" d="M186.56 366.65c-1.39-4.1 4.15-4.77 6.55-6.6l-.21-.06c-4.24 1.79-6.77-3.38-2.9-5.76 2.8-1.54 6.66-.69 9.08 1.26 1.7 1.62 1.84 4.4.75 6.4-.96 2.2-6.85 6.31-10.56 6.31-1.22 0-2.2-.45-2.71-1.55"/><path fill="#fff" d="M169.84 377.66c2.23-7.43 11.43-7.51 17.64-9.65-1.84-2.18.61-5.46 3.2-5.38 2.85-.05 5.04 2.56 7.8 2.9 5.53 1.23 12.3 1.1 16.53 5.2 3.7 3.44 2.48 9.2-2.8 9.84 1.87 13.27-14.47 20.87-25.64 21.14-11.43-.46-18.7-13.65-16.7-24.07z"/><path fill="#df6033" d="M245.52 139.32c.1 3.97-2.06 7.87-5.79 9.47a9 9 0 0 1-3.6.74 8 8 0 0 1-2.98-.56 9 9 0 0 1-4.13-3.28c-3.68-5.11-1.04-13.38 5.11-15.03q1.19-.32 2.38-.32.3-.08.66-.08c.4 0 .8.1 1.2.19q1.2.27 2.3.85.7.37 1.38.85.49.37.77.86a9.6 9.6 0 0 1 2.7 6.34zm33 23.68a13.07 13.07 0 0 1-2.56 18.55 11.4 11.4 0 0 1-6.8 2.18c-1.57 0-3.17-.29-4.64-.9-3.78-1.58-6.37-5.15-7.25-9.07-1.3-5.91 2.03-12.47 7.76-14.6 2.08-.77 4.3-.96 6.48-.56q1.56.3 2.95 1.04.21.06.38.16l.13.08q.33.16.59.4c.26.19.56.37.8.56.8.61 1.46 1.36 2.1 2.13zm-7.96 43.68a21 21 0 0 1 2.02 10.42 21.5 21.5 0 0 1-3.91 10.85 19.7 19.7 0 0 1-11.23 7.65c-.8.29-1.75.37-2.58.45q-.96.09-1.92.1-.6 0-1.17-.02a19.9 19.9 0 0 1-18.37-16.6c-.5-3.2-.37-6.4.5-9.52a21 21 0 0 1 4.43-7.94 20 20 0 0 1 8.37-5.52 20 20 0 0 1 8.64-.85h.13c1.7.24 3.44.64 5.04 1.33h.05l.08.05q.11.02.22.1h.02c.16.09.3.14.46.25l1.06.56a20.3 20.3 0 0 1 8.16 8.72zm30.32 33.1a12.56 12.56 0 0 1-4.24 18.04 11 11 0 0 1-5.2 1.31c-1.8 0-3.7-.45-5.32-1.3a12.2 12.2 0 0 1-6.08-8.1c-.8-3.29 0-7.04 1.9-9.84a11.7 11.7 0 0 1 8.44-5.1c1.7-.13 3.41.06 5.01.62h.03q.6.09 1.04.43a3 3 0 0 1 .5.26q.37.21.65.48a12 12 0 0 1 3.25 3.2z"/><path fill="#fff" d="M352.59 267.19c2.47 5.33 4.45 11.7 2.1 17.43-3.57 11.8-18.04 22.3-30.46 18.76a21.5 21.5 0 0 1-8.72-4.42l-.13.37c-3.57 11.8-18.05 22.3-30.47 18.76-9.67-2.23-17.64-12.28-16.95-22.25 1.15-4 5.94-4.9 9.36-6.24 9.48-3.1 18.73-7.3 28.86-7.68.3-.66.8-1.22 1.39-1.62 1.52-3.33 5.89-4.21 9.06-5.44 9.49-3.09 18.74-7.3 28.87-7.68 1.3-2.9 6.05-3.4 7.08 0"/><path fill="#000" d="M283.75 308.07a16 16 0 0 1-6.96-7.2 17.4 17.4 0 0 1-1.52-10.74 16 16 0 0 1 4.48-8.58h.03q.32-.38.69-.7a15.8 15.8 0 0 1 11.11-4.1q.46.01.86.19h.18c2.24.27 4.4 1.01 6.32 2.19.53.13 1.01.45 1.41.85.35.32.75.61 1.1.93q.4.36.77.77.24.23.48.51a16.6 16.6 0 0 1 4.21 10.56 19 19 0 0 1-.7 5.62q-.1.4-.26.8-4.32-1.74-8.63-3.5l-.11-.05a2.5 2.5 0 0 0-2.37.32 2.67 2.67 0 0 0-.99 3.44c1.5 2.85 2.98 5.73 4.53 8.58q-1.75.94-3.62 1.42-1.8.44-3.68.42c-2.53 0-5.07-.6-7.3-1.75zm40.58-14.63a16 16 0 0 1-6.95-7.2 17.4 17.4 0 0 1-1.52-10.74 16 16 0 0 1 2.18-5.67c.54-.11.99-.4 1.36-.78l.5-.24q4.4-1.41 8.78-2.9 2.87-.99 5.73-2.05l2.08-.8q1.6.56 3.06 1.44a3 3 0 0 1 1.41.85c.35.32.75.61 1.1.93q.4.36.77.78.24.22.48.5a16.6 16.6 0 0 1 4.21 10.56 19 19 0 0 1-.98 6.5q-.17-.07-.32-.1c-2.96-.83-5.95-1.58-8.9-2.46a2.8 2.8 0 0 0-2.91.16 2.7 2.7 0 0 0-.93 3.07v.02q-.01.06.05.1.11.3.27.51 2.43 3.77 4.82 7.57-1.62.81-3.3 1.26-1.8.44-3.68.42c-2.53 0-5.07-.6-7.3-1.75z"/><path fill="#000" d="M273.3 316.84a31 31 0 0 1-6.86-7.92 31 31 0 0 1-3.89-10.74q-.07-.35-.1-.66c-.27-1.76.82-3.81 2.71-4.03 1.97-.21 3.28 1.57 3.52 3.33l.16 1.04q.26 1.32.64 2.62.4 1.2.88 2.31.56 1.2 1.25 2.35a25 25 0 0 0 3.81 4.69 24 24 0 0 0 5.33 3.73q1.66.81 3.39 1.39 1.85.56 3.73.85 1.92.24 3.84.24 2-.07 3.94-.43a29 29 0 0 0 3.87-1.09 34 34 0 0 0 3.44-1.62q1.72-1.05 3.25-2.3 1.26-1.09 2.37-2.29.96-1.09 1.81-2.3a27 27 0 0 0 2.62-5.16q.46-1.48.82-3.04.25-1.23.37-2.5.1-1.53.03-3.04-.09-1.25-.27-2.51-.28-1.36-.63-2.7-.42-1.23-.94-2.42c-.3-.61-.58-1.2-.93-1.78a4.1 4.1 0 0 1 .35-5.17 2.8 2.8 0 0 1 2.1-.8 3 3 0 0 1 2.05 1.06l.11.14q.06.1.19.2l.29.46-.03-.05v-.05l.03.05c.3.67.67 1.28.96 1.94a30.3 30.3 0 0 1 1.25 23.08 30 30 0 0 1-4.02 7.6 29 29 0 0 1-14.53 10.53c-2.8.93-5.7 1.36-8.6 1.36a29.5 29.5 0 0 1-18.3-6.42z"/><path fill="#000" d="M302.43 284q-.08-.35-.11-.66c-.24-1.6.67-3.46 2.26-3.92l-.42.96-1.68 3.95q-.01-.15-.05-.3zm11.81 19.5c.45-2.51 1.01-5.02 1.44-7.52a24 24 0 0 0 4.96 3.38q1.65.82 3.38 1.39 1.85.57 3.73.85a31 31 0 0 0 3.87.24q1.97-.07 3.94-.42 1.95-.4 3.87-1.1a32 32 0 0 0 3.44-1.62 29 29 0 0 0 3.25-2.3q1.26-1.08 2.37-2.29.94-1.09 1.81-2.29.92-1.37 1.63-2.85.53-1.14.98-2.32a28 28 0 0 0 1.18-5.54 23 23 0 0 0-.27-5.55 23 23 0 0 0-.64-2.69 26 26 0 0 0-.93-2.43q-.43-.9-.94-1.78a4.1 4.1 0 0 1 .35-5.17 2.8 2.8 0 0 1 2.1-.8c.86.05 1.55.5 2.06 1.06l.1.14s.11.13.2.21l.28.45-.02-.05v.05c.3.67.67 1.28.99 1.95a30.3 30.3 0 0 1 1.25 23.08 30 30 0 0 1-4.03 7.6 29 29 0 0 1-14.52 10.53c-2.8.93-5.7 1.36-8.61 1.36a29.5 29.5 0 0 1-17.22-5.6z"/><path fill="#ae4924" d="M266.15 285.72c-.46-2 1.35-3.87 3.25-4.16q.82-.26 1.65-.5l4.8-1.5q5.06-1.6 10.13-3.23l20.65-6.58q9.32-2.95 18.63-5.94l10.02-3.28c2.54-.85 5.07-1.73 7.63-2.53.08 0 .13-.06.21-.08l-.08.02c-.03 0-.05 0-.21.08 1.62-.53 3.68-.21 4.42 1.55.83 2-.85 4-2.72 4.5-2.53.72-5 1.55-7.51 2.32l-10.72 3.36q-10.59 3.38-21.19 6.8l-17.5 5.62c-5.47 1.76-10.94 3.47-16.3 5.3l-.1.03q-.06 0-.1.03-.45.2-.89.32-.4.09-.85.1c-1.41 0-2.85-.77-3.17-2.23z"/><path fill="#ae4924" d="M344.41 271.4c-.16-1.92 1.47-3.31 3.15-3.74l-.24.06c1.14-.38 2.31-.9 3.33-1.55.32-2.08-2.43-3.25-4.19-3.06-3.54 3.2-8.58-1.31-4.42-4.62 5.14-4.02 14.74-1.14 15.72 5.57.62 3.84-2.1 6.94-5.51 8.3-2.43 1.35-7.15 3.09-7.87-.97z"/><path fill="#ae4924" d="M261.94 299.39c-1.52-1.73-.2-4.4 1.8-5.06l.57-.2q.99-.2 1.94-.52 2.33-.65 4.64-1.4 4.75-1.44 9.52-2.95 10.2-3.17 20.3-6.42c12.8-4.05 25.57-8.16 37.83-12.13l.61-.19c2.93-.96 5.86-1.97 8.8-2.93 1.68-.56 3.83.38 4.2 2.16.4 1.95-1.22 3.5-2.92 4-12.53 3.7-24.95 7.68-37.43 11.6-12.76 4.04-25.5 8.1-37.76 12.04q-2.73.89-5.42 1.81c-.69.24-1.4.46-2.13.75a4 4 0 0 1-1.97.48c-.96 0-1.92-.35-2.56-1.1z"/><path fill="#ae4924" d="M261.11 299.91c-2.77-.29-5.17-2.8-5.7-5.46.16-2 .5-4.13 1.65-5.78 2.88-3.98 7.68-5.55 12.16-6.9l-.35.07c-.19.06-.35.14-.85.38 2.85-1.79 6.87 1.03 4.85 4.18 18.07-6.69 36.49-11.94 54.5-18.55 8.59-2.35 16.69-7.76 25.7-7.78 2.13.42 3.94 2.6 3.04 4.8-2.78 4.9-9.78 4.76-14.45 7-9.43 4.4-19.06 7.47-28.92 10.53-1.54.56-3.6-.19-4-1.86-13.67 4.95-27.66 8.9-41.1 14.39 1.68 4.05-3.4 5.46-6.47 4.98z"/><path fill="#ae4924" d="M348.4 269.64c-.16-.7-.13-1.46.08-2.19q-.13-.3-.19-.6-.22-1.1.11-2.17c-4.96 1.9-7.3-3.8-3.86-6.53 2.53-1.62 5.78-2.42 8.63-3.67 10.29-4.38 15 10.87 6.05 15.21-3.44.91-9.35 5.57-10.82-.05"/><path fill="#df6033" d="M340.24 298.45c7.44-.77 8.6 14.18 7.76 19.72-1.5 14.15-15.33 23.08-28.98 21-9.75-2.8-22.78-13.5-18.47-24.73.16-.8.4-1.57.8-2.27.3-1 .96-1.89 1.97-2.18q.2-.09.4-.13l.38-.11c2.61-.83 5.17-1.79 7.75-2.67q4.77-1.63 9.52-3.3l8.9-3.23q2.1-.76 4.21-1.49c.78-.3 1.58-.53 2.38-.85q.3-.21.69-.3l.32-.08s.21-.02.32-.05h.16c.72-.05 1.38.21 1.89.7z"/><path fill="#ae4924" d="M338.37 313.11c.4 2.21-.42 4.96-1.17 6.82-2.34 5.2-7.89 9.55-13.8 8.99-3.12-.32-6.48-.38-8.59-3.1-2.34-2.37-5.38-6.77-1.94-9.51 3.33-1.23 7.35-2.05 10.55-3.57 3.28-1.2 6.53-2.45 9.81-3.63q.25-.07.45-.1c.06 0 .14-.06.19-.08 1.73-1.02 3.7.24 4.34 2 .24.66.3 1.43.16 2.18"/><path fill="#df6033" d="m308.34 271.66.19-.05h.05c.08 0 .16-.06.24-.08l-.58.19q.06 0 .13-.06zm28.3 4.29 2.22-.77q1.54-.49 3.09-.94l-.16.56c-.16.49-.35 1-.54 1.44l-4.63-.29zm81.94 16.85c-2.37-.75-4.45-2.27-6.8-3.12a287 287 0 0 0-51.28-11.49q.09-1.73-.21-3.44-.26-1.48-.64-2.95c20.55 2.53 40.75 7.17 60.13 14.66 4.58.6 3.97 6.47-.16 6.47q-.47-.01-1.01-.1z"/><path fill="#df6033" d="M186.1 294.96c-7.6-10 56.85-19.64 63.91-20.81 21.14-2.75 42.78-4.62 64.4-4.78l-2.1.8q-1.19.49-2.38 1.02l-1.41.42h-.08.05l-.16.06c-1.86.58-3.73 1.22-5.57 1.83-1.7.56-3.38 1.29-5.09 1.87q-.45.16-.8.4c-28.17 1.3-56.26 5.52-83.58 11.46a158 158 0 0 0-15.86 5.23c-2.83.64-5.73 3.73-8.53 3.73-.93 0-1.87-.35-2.77-1.25z"/><path fill="#ab4b29" d="M305.89 344.1c-26.23.17-52.46-1.67-78.13-7.4-6.82-1.55-13.7-2.99-20.47-4.8-3.22-.9-10.18-2.1-7.2-6.74 2.14-2.8 4.88-1.26 7.5-.24 62.13 17.56 129.05 16.58 191.21-.08 11.35-2.56 20.58-9.6 29.93-16.1 3.92-2.99 8.1 2.32 3.63 5.12-1.28.66-2.5 1.49-3.23 2-16.23 13.5-37.05 18.15-57.38 21.45-21.75 3.92-43.74 6.56-65.86 6.8m-40.54-160.38a14.2 14.2 0 0 1-6.96-5.35 14.4 14.4 0 0 1-2.42-9.25 15 15 0 0 1 4.26-9.41 13.6 13.6 0 0 1 15.25-2.8c.26.08.53.16.58.3l.22.13a14.6 14.6 0 0 1 7.03 9.8c.62 3.07.16 6.19-1.04 9.07a14 14 0 0 1-6.45 6.8 13 13 0 0 1-6.05 1.46q-2.25 0-4.4-.72zm4.66-6.53q.65 0 1.28-.13.67-.14 1.33-.37.53-.22 1.04-.46.53-.3 1.02-.66.4-.34.8-.72l.61-.72q.25-.36.45-.72l.4-.83q.14-.45.3-.88l.13-.64c0-.24.05-.5.05-.74q.01-.48-.05-.96-.05-.39-.13-.78a7 7 0 0 0-1.23-2.53l-.64-.77a7 7 0 0 0-1.84-1.36c.08.03.16.05-.05 0q-.6-.3-1.23-.53-.7-.2-1.41-.35-.67-.08-1.33-.08c-.43 0-.86.08-1.26.13q-.67.15-1.36.38-.6.24-1.14.53-.45.27-.86.59c-.2.18-.45.37-.66.58q-.35.36-.67.78l-.56.85-.4.85-.24.77-.16.83-.02.7q-.01.38.05.77l.16.88q.12.47.32.95l.4.8.43.67q.3.4.66.77l.88.78q.57.38 1.12.69.49.25 1.01.45c.54.16 1.04.3 1.6.38q.66.08 1.3.08zm-33.57-25.96a11.2 11.2 0 0 1-8.6-5.52 12 12 0 0 1-1.42-7.96c.53-3.18 2.34-6.1 5.04-7.87a11 11 0 0 1 9.6-1.12q.28.11.53.27a12 12 0 0 1 3.35 2.37 12 12 0 0 1 .24 16.34 10.7 10.7 0 0 1-7.94 3.55q-.42 0-.83-.03zm1.2-7.25a6 6 0 0 0 1.73-.42q.37-.17.7-.38l.53-.4q.27-.24.5-.5.2-.24.35-.46.16-.26.3-.53l.16-.4q.07-.2.1-.43c0-.16.06-.34.08-.5v-.46q-.01-.2-.05-.4-.05-.26-.13-.53c-.06-.13-.11-.3-.16-.43l-.27-.47c-.13-.2-.27-.35-.4-.54l-.3-.32q-.35-.31-.71-.58l-.51-.3-.21-.08q-.29-.06-.56-.21-.09-.01-.16-.05c-.3-.08-.56-.14-.86-.16h-.9q-.47.04-.94.16-.4.12-.77.26-.33.16-.66.35-.3.2-.6.43l-.4.4q-.2.23-.36.5-.16.23-.3.5a4 4 0 0 0-.3.89q-.01.25-.07.45v.46q.01.23.05.47l.08.38.22.56.24.42.4.56.4.43q.27.25.58.45l.7.4.64.24q.46.13.98.19h.85z"/><path fill="#672913" d="M299.81 246.77q.01-.46-.05-.9-.09-.4-.13-.8c-.08-.3-.2-.56-.27-.86-.13-.32-.3-.61-.43-.93-.18-.32-.4-.67-.61-.96q-.31-.4-.67-.8a9 9 0 0 0-.93-.8q-.08-.07-.21-.13l-.38-.24h-.05a3 3 0 0 0-.5-.35q-.69-.33-1.37-.59-.7-.2-1.43-.34a9 9 0 0 0-4.46.48q-.57.24-1.14.53-.47.29-.94.61-.42.35-.82.75-.37.38-.7.8l-.58.93q-.2.4-.37.8t-.27.8q-.11.54-.19 1.07 0 .43-.05.85.01.47.05.93l.14.72.29.96.37.83q.28.48.59.96.36.47.77.9c.32.3.64.56.99.86q.53.35 1.04.66c.43.22.82.38 1.25.56q.76.25 1.57.38.72.07 1.39.1c.53 0 1.07-.08 1.57-.16q.68-.16 1.36-.4.64-.25 1.23-.58.5-.32.98-.67.41-.31.78-.67.37-.4.69-.8.35-.51.67-1.03l.32-.7a11 11 0 0 0 .42-1.62q.07-.53.08-1.04zm6.08-1.76c.85 7.23-3.97 14.66-11.14 16.31q-1.65.37-3.33.38-2.75.01-5.28-1.02a14.9 14.9 0 0 1-9.12-13.51 16 16 0 0 1 3.12-9.75 14.5 14.5 0 0 1 12.8-5.7c2 .18 3.94.8 5.7 1.78q.41.14.75.45.08.02.13.08.32.21.56.45 1.5 1.15 2.66 2.62a15.7 15.7 0 0 1 3.15 7.86zm-37.44-28.71q.01-.98-.06-1.96-.11-1-.31-2-.21-.85-.48-1.66-.4-.99-.88-1.94-.48-.88-1.04-1.68-.63-.85-1.34-1.63-.83-.83-1.78-1.62a22 22 0 0 0-2.1-1.39l-.27-.13-.35-.13-.37-.2s-.06 0-.08-.02h-.03s-.1-.05-.16-.1q-.6-.28-1.2-.51a17 17 0 0 0-5.46-.96q-1.41.01-2.78.24-1.27.24-2.47.64c-.75.3-1.47.59-2.19.96q-1 .57-2 1.25c-.72.53-1.38 1.12-1.68 1.41q-.72.72-1.36 1.52-.62.85-1.17 1.74-.46.84-.83 1.68a17 17 0 0 0-.96 3.46q-.12.83-.16 1.65-.01 1 .06 2 .12.88.26 1.7a15 15 0 0 0 1.34 3.69c.32.6.72 1.22 1.09 1.8q.63.86 1.33 1.66a16 16 0 0 0 9.04 4.82q1.35.21 2.72.24 1.43-.02 2.82-.24 1.2-.22 2.37-.6a17 17 0 0 0 4.3-2.25q.82-.61 1.62-1.36.73-.75 1.39-1.54.57-.75 1.06-1.58.5-.9.94-1.86.35-.86.6-1.7.26-.85.38-1.74.12-.83.16-1.65zm2.32-13.56a23 23 0 0 1 2.9 19.27 22.4 22.4 0 0 1-14.42 15 21.5 21.5 0 0 1-19.48-3.17 22.5 22.5 0 0 1-8.9-15.61 23.2 23.2 0 0 1 6.07-18.26 22 22 0 0 1 14.26-6.8c2.64-.24 5.36.1 7.9.86.85.26 1.75.56 2.6.93q.24.08.46.21c.05 0 .1.06.13.08q.23.13.45.3a22 22 0 0 1 8.02 7.22z"/><path fill="#607fa6" d="M197.22 125.68a75 75 0 0 1-5.42-.32c-1.89.13-4.02-.85-4.07-2.98 0-.96.48-1.82 1.2-2.4q.6-.48 1.33-.67a3.6 3.6 0 0 1 2.13-.08c2.1.3 4.27.35 5.84.4 5.09.13 10.18-.08 15.24-.53a154 154 0 0 0 36.95-8.27 142 142 0 0 0 15.78-6.77c3.8-1.97 7.51-4.13 10.95-6.47a76 76 0 0 0 7.12-5.55 46 46 0 0 0 4.23-4.31c.06-.06.08-.11.14-.2l.16-.18a4.1 4.1 0 0 1 4.9-.88c1.7.88 2.3 2.96 1.17 4.37q-.23.32-.53.59a85 85 0 0 1-3.76 3.84 68 68 0 0 1-6.98 5.67 106 106 0 0 1-17.35 10.03c-13.06 6.13-27.08 10.23-41.29 12.71a140 140 0 0 1-24.07 2.1q-2.1.02-4.23-.07h.53z"/><path fill="#607fa6" d="M199.63 109.82c-4.38-1.09-9.2-3.49-10.19-8.05l-.02-.2c-.8-5.15 3.12-9.55 6.8-12.56 4.31-3.57 9.3-6.3 14.39-8.59a120 120 0 0 1 20.2-6.93 110 110 0 0 1 19.7-3.14c5.94-.4 12.15-.37 17.88 1.36 2.64.8 5.36 2.02 7.2 4.16a8 8 0 0 1 1.94 6.74v.03q-.02.24-.08.48a14 14 0 0 1-1.87 3.9 26 26 0 0 1-4.76 5.08c-5.04 4.13-10.93 7.2-16.93 9.75a118 118 0 0 1-18.92 6.13 110 110 0 0 1-19.75 2.96q-2.22.13-4.43.14a46 46 0 0 1-11.2-1.23zm13.96-4.85a98 98 0 0 0 11.14-1.09h.08-.08q.13 0 .19-.03l.21-.02a114 114 0 0 0 26.2-7.62q.07 0 .14-.06l.18-.08q4.37-1.91 8.5-4.3 2.4-1.43 4.64-3.1a33 33 0 0 0 2.88-2.57q.69-.75 1.3-1.54.42-.58.75-1.2l.46-1.1q0-.38.13-.74v-.27q.01-.24-.05-.48l-.11-.37-.16-.32-.24-.35-.32-.34-.56-.46-.88-.5q-.73-.36-1.5-.64c-.82-.3-1.67-.51-2.52-.72q-1.96-.4-3.95-.59c-2.5-.21-5-.24-7.49-.19-3.33.14-6.66.48-9.78.96-.13 0-.27.06-.43.08h-.05q-7.3 1.21-14.42 3.25a120 120 0 0 0-12.66 4.56h-.03a94 94 0 0 0-8.31 4.21 51 51 0 0 0-4.9 3.3 33 33 0 0 0-2.62 2.3q-.85.88-1.57 1.84a18 18 0 0 0-.75 1.2q-.2.4-.34.8-.11.32-.16.64 0 .3-.06.58 0 .16.03.35c.03.14.05.24.1.38l.17.37.26.4.3.32.58.48.88.53q.65.31 1.33.59 1.2.4 2.4.69c1.44.3 2.88.5 3.81.61 2.43.22 4.83.27 7.25.24h-.07z"/><path fill="#662912" d="M258.03 287.53c-.42-1.23.14-2.53 1.12-3.33a4 4 0 0 1 1.92-.83h.08c2.3-.56 4.56-1.38 6.8-2.1q4.8-1.55 9.54-3.15l19.35-6.4q19.89-6.56 39.69-13.32c5.89-2 11.8-3.92 17.64-6.03l.08-.02c1.65-.75 3.97-.35 4.88 1.33.93 1.68-.19 3.54-1.81 4.26q-.23.12-.51.19-.24.08-.48.13-1.13.35-2.24.72l-4.53 1.44-9.89 3.28q-9.64 3.15-19.27 6.34c-13.2 4.35-26.36 8.77-39.53 13.14a824 824 0 0 0-16.25 5.55q-.53.18-1.02.4-.98.59-2.16.58c-1.46 0-2.9-.69-3.4-2.1zm4.56 13.25c-.72-2.05 1.09-3.81 3-4.16 1.08-.3 2.17-.67 3.2-1.01l9.18-2.99q10.03-3.29 20.07-6.66c13.3-4.5 26.62-8.9 39.92-13.38 6.61-2.24 13.25-4.4 19.62-6.75l.3-.1q.23-.12.47-.19h.06l.53-.13c1.7-.4 3.86.66 4.16 2.48.3 1.76-1.23 3.33-2.88 3.65-5.79 1.73-11.46 3.65-17.2 5.57q-9.77 3.28-19.56 6.53-20.32 6.75-40.62 13.6c-4.6 1.54-9.22 3.08-13.78 4.74-.05 0-.1.05-.1.02-.06 0-.08.03-.14.06h-.08s-.08.05-.1.08h-.06l-.08.02q.07 0 .14-.05l.24-.08q-.6.24-1.18.43c-.53.24-1.14.37-1.75.37-1.44 0-2.86-.67-3.34-2.08z"/><path fill="#662912" d="M259.61 303.44c-9.8-3.23-9.38-18.26 1.23-19.97 2.56-.32 5.11 2.56 3.33 4.85-.8 1.31-2.4 1.26-3.52 2.06-.96.74-.83 2.13-.77 3.22a5.4 5.4 0 0 0 2.1 3.81c.46.16.9.35 1.36.22 1.5-.7 3.57-.32 4.59.98 2.63 4.83-5.01 6.21-8.3 4.85zm97.9-34.7c-.8-2.3 1.39-3.52 3.01-4.4.65-2.21-.31-5.62-2.63-6.48-2.32.59-5.44.75-6.05-2.13-.35-2.1 1.65-3.57 3.49-3.76a9.45 9.45 0 0 1 10.63 3.9c1.79 2.95 2.9 6.95 1.44 10.28-1.33 3.5-7.7 6.99-9.89 2.56zm-57.62 44.54c-.78-1.76-.3-4.37 1.73-5.06h.02q.29-.12.56-.16l1.55-.5q2.25-.73 4.48-1.53l9.17-3.2q4.81-1.62 9.62-3.38c2.29-.83 4.64-1.63 6.88-2.59q.3-.2.66-.34c1.81-.62 3.52.8 4.03 2.48.48 1.57 0 3.57-1.52 4.4q-.57.3-1.12.31c-2.27.62-4.45 1.47-6.67 2.22q-4.84 1.63-9.64 3.43l-9.07 3.28a98 98 0 0 0-6.18 2.3 2 2 0 0 1-.7.29h-.07q-.43.14-.86.13c-1.28 0-2.45-.9-2.98-2.13z"/><path fill="#662912" d="M320.73 342.04c-11.33-1.76-22.44-10.82-23.13-22.84-.54-3.87.13-8.08 3.38-10.56 1.01-1.14 2.67-1.65 4.08-.58 1.76 1.33 2.1 4.29.5 5.86-.53.53-1.25.99-1.67 1.65-.8 4.45.96 9.23 4 12.53 16.65 16.55 47.76.32 36.06-22.74-1.23-2.74-4.77-1.97-7.17-1.8-4.05.44-5.1-6.54-1.07-7.26 6.3-1.04 11.92.54 14.15 6.93 9.87 20.6-7.2 41.2-29.13 38.81"/><path fill="#662912" d="M311.58 320.28c-.46-1.6.1-4.08 1.97-4.53 1.44-.5 2.9-.93 4.34-1.41q3.19-1.09 6.35-2.21 2.96-1.08 5.89-2.11c1.09-.4 2.2-.77 3.3-1.23q.35-.18.8-.29.28-.05.56-.05h.37q.47.08.94.32c1.38.72 2.05 2.42 1.89 3.92-.06.48-.22.98-.43 1.4q-.3.6-.82 1.02c-.4.35-.88.59-1.44.61-1.02.3-2 .67-2.99 1.02l-5.84 2.02q-3.15 1.07-6.26 2.21-1.87.68-3.73 1.39-.3.2-.7.3c-.07 0-.13.05-.2.07h-.11q-.45.16-.88.16c-1.47 0-2.72-1.28-3.12-2.69z"/><path fill="#662912" d="M321.16 330.2c-5.22-1.17-10.26-6.69-9.57-12.2.46-1.66 2.03-2.97 3.84-2.3 1.52.56 2.26 2.08 2.3 3.6 1.54 4.1 6.2 4.53 9.9 3.41 3.85-.93 7.63-4 5.98-8.32-2.32-2.6.64-7.8 3.97-5.35 2.77 2.8 2.98 7.6 2.18 11.25-1.94 7.7-11.38 11.24-18.63 9.94zm107.52-13.73c-1.6-2.75-.85-6.29-1.73-9.33-1.5-6.93-6.19-12.5-11.6-16.71-1.65-2.43.3-6.24 3.28-6.1 1.97.1 2.64 2.13 4.16 3.09a43 43 0 0 1 7.91 10.66c1.55 3.84 6.56 18.2.43 19.32a2.8 2.8 0 0 1-2.48-.96zm16.76-18.77c-4.88-3.83-9.4-8.15-14.23-12.12-2.24-2.5-7.07-4.29-5.95-8.34.7-3.12 4.96-2.72 6 0a760 760 0 0 0 16.63 14.34c3.87 2.08 2.05 8.58-2.48 6.16zm14.08-12.6a3.4 3.4 0 0 1-2.35-1c-5.97-3.93-12.82-6.62-18.18-11.39-2.48-2.5-6.98-3.28-8.15-6.8-.9-3.25 2.88-5.46 5.2-3 5.43 3.56 10.42 7.75 16.12 10.9 3.65 2.26 12.18 4.26 9.65 10.04a2.8 2.8 0 0 1-2.35 1.23zm-1.84-12.17c-3.34-.38-6.08-2.7-8.8-4.48-6.45-3.55-10.55-10.93-10.15-18.13-.54-2.26 1.22-4.77 3.73-3.97 7.06 3.95-3.3 10.13 12.6 18.34 3.7 2.61 9.07-.37 12.21-2.83 1.28-1.38 3.41-.96 4.59.35 5.09 6.61-9.5 10.82-14.21 10.69zm-297.52 91.5c-1.57-2.9 1.65-4.96 4.08-5.73 5.22-2.64 10.82-4.43 16.1-6.96-3.5-11 2.1-24.68 13.4-28.38 3.68-1.2 7.41-.11 11.12.13a7.1 7.1 0 0 0 5.83-7.73c-.02-9.97-10.4-15.54-19.4-14.4-2.85-.18-5.65 1.98-8.4.78-1.86-1.04-1.68-3.5-.32-4.88 1.26-1.36 3.25-1.28 4.9-1.84 3.9-.64 7.9-1.1 11.76-.18 9.5 1.14 17.86 8.52 18.26 18.36 1.41 8.02-5.25 15.6-13.14 16.36-3.1.35-6.16-1.2-9.25-.5-5.33 1.81-8.2 7.36-8.82 12.63-.48 3.6 1.06 6.9 1.5 10.34-.09 2.03-1.93 3.23-3.47 4.16-5.04 2.77-10.66 4.24-15.81 6.83-2.56 1-6.18 3.94-8.4.95z"/><path fill="#662912" d="M165.39 379.46c-1.12-3.31 2.66-4.72 5.06-5.65 4.34-3.23 31.61-10 26.68-16.21a7.7 7.7 0 0 0-10.13-2.43c-1.49 1.42-4.37 1.55-5.4-.26-2.03-4.43 3.96-5.92 7.06-6.88 2.69-.93 5.7-.3 8.31.67 6.45 2.1 10.24 9.65 5.92 15.48-4.77 5.36-12.05 7.63-18.55 10.21a419 419 0 0 0-12.26 5.44c-2.1 1.1-5.41 2.56-6.75-.37z"/><path fill="#662912" d="M209.58 383.38c-1.8-.32-2.66-2.3-2-3.94a4.1 4.1 0 0 1 4.3-2.51c3.43-3.9-7.68-7.25-10.45-8.13-2.08-.88-4.96.08-6.13-2.35-1.12-2.9 2.32-5.54 5.06-4.77 1.68.35 3.36.64 4.99 1.23 5.75 1.9 15.48 5.3 14.3 12.82-1.2 4.34-5.14 8.82-10.07 7.68z"/><path fill="#662912" d="M191.19 401.53c-1.28-4.32 4.42-4.72 6.8-6.77 5.08-3.2 13.08-10.93 4.79-15.41-5.33-.24-2.82-7.25 1.41-6.72 7.94 1.5 12.18 11.62 6.88 18.05-2.1 3.78-16.47 17.08-19.86 10.87zm51.73 36.25c-10.42-3.97-19.5-9.97-29.23-15.14-2.86-.86-5.87-4.56-3.15-7.2 1.3-1.1 3.06-.67 4.21.4 5.38 2.59 10.24 6 15.43 8.88 3.66 1.73 6.8 3.03 10.26 4.85 2.8 1.2 7.34 2.24 6.43 6.26a2.82 2.82 0 0 1-3.95 1.9zm116.5-14.54c-.9-1.75.3-3.62 1.76-4.58 4.42-2.4 8.8-5.12 12.98-7.86q7.43-5.24 14.6-10.9c1.1-1.2 2.88-1.82 4.35-1.1 2.98 1.44 1.36 5.2-1.01 6.35a673 673 0 0 0-9.92 7.35c-5.17 3.98-10.37 7.15-15.88 10.43-2.06 1.25-5.2 3.14-6.83.29zm9 13.36c-.14-4.98 6.66-4.87 10.1-6.4 5.89-2.85 12.77-6.82 15.19-13.19 1.15-2.1 4.7-2.88 6.05-.8 1.9 2.94-2.16 7.1-3.94 9.3-5.63 5.6-12.64 10.35-20.37 12.21-2.32.99-6.29 2.48-7.03-1.12m-139.53 17.33c-8.08-2.56-15.38-6.96-22.13-12.05-2.45-1.89-6.2-4.72-3.06-7.8 1.5-1.5 4.16-1.71 5.4.18 3.82 3.81 8.6 6.56 13.18 9.3 3.89 1.81 7.86 3.9 12.15 4.56 1.81-.37 3.6.93 3.57 2.8-.32 4.63-5.91 4.26-9.14 3.01zm166.39 16.09c-2.34-.48-4.82-1.25-6.56-3.01-1.92-2.08-3.89-6.32-7.33-4.72q-.4.61-.66 1.3c-.96 4.83-6.88 3.07-6.1-1.43.74-3.57 3.25-6.99 7.08-7.44 3.15-.74 6.1 1.2 8.32 3.28 1.7 1.6 2.56 4.16 5.14 4.53 4.83 1.47 10.8-1.44 11.94-6.47 2.14-4.48 7.47-.6 5.55 3.33-2.16 7.17-10.02 11.86-17.38 10.63"/><path fill="#662912" d="M412.25 457.56c-4.7-2.75-11.06-5.1-12.5-10.93-1.58-5.87 1.4-12.05 4.8-16.77 1.7-2 3.56-4.8 6.34-5.11 2.2.08 3.17 2.45 2.93 4.37-.4 2.58-2.56 2.77-3.9 4.48-2.34 3.09-5.59 7.78-3.86 11.67 2.67 2.48 5.87 4.08 9.1 5.73 3.46 1.9 1 8.66-2.91 6.56m19.15 15.64c-10.23-8.63-14.2-37.98-1.03-45.15 4.08-.66 4.93 5.79 1.49 7.17-6.56 7.57-3.97 24.87 2.82 31.7 3.68 2.07.64 9.08-3.27 6.28"/><path fill="#662912" d="M408.2 495.27c-7.75-.7-17.4.58-23.21-5.55-3.3-1.65-3.34-7.25.85-7.6 1.95.11 3.06 1.98 4.34 3.2 2.16 1.68 5.25 1.31 7.79 2.16 5.35.14 10.8 1.12 16.1.19 7.35-.85 14.04-4.4 20.47-7.89 9.51-5.46 26.97-17.56 26.38-29.64.48-3.14-2.77-6.16.06-8.85 2.87-2.5 5.4 1.25 5.78 4 2.37 11.73-4.7 22.68-13.78 29.48-12.23 10.87-27.93 20.6-44.8 20.52zm-200.66-10.15c-6.16-1.07-11.12-6.4-13.01-12.16-.99-3.94.58-7.83.7-11.7a6.8 6.8 0 0 0-3.16-4.02c-3.97-2.24.54-7.68 3.98-5.76a13 13 0 0 1 3.6 2.85 10.4 10.4 0 0 1 2.71 8c-.4 2.48-1.25 4.88-1 7.43.6 3.95 3.99 7.73 7.75 8.88 7.3-3.63 1.46-4.56 2.18-9.78 2.32-6.27 10-8.32 16-9.25 3.6 0 16.36-.7 13.86 5.49-1.26 2.21-4.32 3.25-6.27 1.52-5.68-1.2-11.8-1.07-16.4 2.72a8.37 8.37 0 0 1-1.51 11.38c-2.59 2.21-5.84 4.8-9.44 4.4m7.19 12.17c1.7-11.49 15.06-19.7 26.02-20.26 2.69.06 6.8-.24 8.07 2.7.85 3.2-3.36 5.6-5.97 3.97-8.37-1.36-18.84 4.71-21 12.98 0 3.92-7.06 5.09-7.15.61z"/><path fill="#662912" d="M241.32 529.2a36 36 0 0 1-13.94-3.5c-8.13-2.85-15.51-6-22.95-10.18-5.62-3.57-11.72-6.58-16.65-11.09-4.64-3.78-7.63-8.87-10.8-13.86-2.64-4.53-5.25-9.22-4.48-14.63a4.1 4.1 0 0 1 2.06-4.45c1.57-.99 4.07-.72 4.95 1.04.64 2.21-.26 4.61.11 6.93 4.61 11.62 12.69 21.56 23.88 27.35 7.17 4.45 14.71 8.36 22.68 11.16 7.95 2.88 18.13 8.56 25.22 1.44 1.22-2.53 5.6-3.22 6.63-.18-.08 7.09-10.84 10.15-16.7 9.97"/><path fill="#000" d="M185.83 124.3c-.74-.4-1.49-.78-2.16-1.15-3.86-2.24-7.38-5.1-9.78-8.93a19.7 19.7 0 0 1-2.45-14.8c1.33-5.94 4.77-11.08 8.8-15.53 4.85-5.33 10.82-9.57 17.03-13.14.48-.27.93-.54.96-.54a115 115 0 0 1 36.22-12.52c12.9-2.27 26.55-2.54 39.26.9 5.46 1.47 10.77 3.84 15.17 7.44a23 23 0 0 1 5.75 6.93 20 20 0 0 1 2.22 8.37c.13 2.72-.43 5.52-1.26 8.1-.58 1.81-2.77 2.83-4.56 2.48-1.7-.32-3.09-2.03-2.4-3.78a17 17 0 0 0 .97-3.92q.12-1.28.05-2.56-.12-1.16-.35-2.3-.32-1.2-.8-2.37a15 15 0 0 0-2.85-4.29q-1.19-1.23-2.53-2.32a36 36 0 0 0-2.83-1.92l-.34-.18a43 43 0 0 0-3.87-1.9l-.3-.13h-.02c-2-.8-4.02-1.44-5.8-1.89a68 68 0 0 0-7.66-1.44q-5.12-.6-10.29-.59c-4.26.03-8.5.32-12.2.8q-7.02.92-13.84 2.67h-.08l-.24.05a123 123 0 0 0-12.95 4.27 110 110 0 0 0-11 5.2 81 81 0 0 0-8.2 5.22l-.31.24h-.03A74 74 0 0 0 188.1 85q-.28.28-.56.53a52 52 0 0 0-3.65 3.97 41 41 0 0 0-2.5 3.55 30 30 0 0 0-1.66 3.2q-.06.12-.1.26-.53 1.35-.94 2.75-.28 1.14-.43 2.29-.12 1.33-.08 2.7.13 1.23.4 2.44.33 1.06.72 2.13a16 16 0 0 0 2.93 4.4q1 1.05 2.11 1.97a31 31 0 0 0 5.5 3.42c1.46.53 2.52 1.97 1.94 3.65-.54 1.54-2.27 2.58-3.92 2.58-.72 0-1.44-.18-2.03-.64z"/><path fill="#000" d="M181.8 298.96c-.2-1.41.35-3.07 1.6-3.79 12.42-22.1 25.3-44.8 30.7-69.78 3.53-24.41-3.86-49.28-12.33-71.88a131 131 0 0 0-10.53-21.94c-1.44-3.46-6.5-7.06-3.39-10.82 1.47-1.49 3.92-.85 4.8.99 2.59 3.78 4.72 7.62 6.9 11.62 12.61 25.85 21.97 54.3 21.62 83.27-.77 19.7-9.27 38.22-17.94 55.51-3.78 9.3-9.7 17.97-14.34 26.74-1.09 4.02-6.26 4.72-7.09.08m179.42-58.24c-7.76-4.48-14.13-10.77-20.98-16.37-6.37-5.81-12.8-10.77-18.71-16.95-30.07-31.27-30.1-77.72-32.78-118.26 0-4.85 6.2-4.53 6.29.18 2.15 33.59 2.15 69.57 19.88 99.13 11.4 17.46 28.76 29.98 44.56 43.07 1.92 1.38 4.21 2.3 5.95 3.92 3.06 2.98-.62 8.93-4.21 5.25zM387.67 403c-.3-1.6.5-3.89 2.24-4.37 2.21-2.42 5.2-5.09 7.36-7.14 19.48-19.38 32.14-47.2 30.6-74.81 0 .18.05.34.05.53-.4-2.5-.99-5.2 1.65-6.48 9.12-2.8 2.9 28.95 1.65 33.58-4.5 15.68-11.35 30.76-21.72 43.42-3.7 4.9-8.29 9.22-12.77 13.38-2.34 2.77-7.22 8.13-9.09 1.92z"/><path fill="#000" d="M413.26 288.7c-15.38-19.33-34.52-35.26-54.14-49.92-2.93-4.06 2.85-6.88 5.52-3.42 19.78 14.32 38.17 30.74 53.79 49.55 3.57 3.95-2.14 7.5-5.17 3.79"/><path fill="#000" d="M413.85 287.28c0-1.84 1.39-3.51 3.18-3.51 2.85-1.31 5.22-3.52 7.49-5.65-4.03-6.54-.51-17.68 8.2-16.82 3.84.82 3.26 7.91-.98 7.22-6.42 2.19 1.25 8.31-.85 12.37-2.4 3.8-15.89 16.5-17.04 6.37z"/><path fill="#000" d="M433.25 267.32c-3.22.42-4.55-3.44-5.4-5.74-2.54-4.47-1.47-10.04 2.02-13.7 1.6-1.51 3.44-3.03 5.68-3.35 3.73-.16 9.88 1.94 8.02 6.74-.7 1.63-2.59 2.53-4.19 1.52-.85-.61-1.89-.8-2.9-.99-1.97.51-3.25 2.43-3.87 4.24.06 1.52 1.04 2.77 1.42 4.19 3.04 1.44 2.53 7.22-1.25 7.06h.47z"/><path fill="#000" d="M449.44 299.73c-4.66-.05-5.38-7.33-.66-7.52 3.67.86 7.89-.16 10.36-3.11 2.3-2.19-.4-4.14-.74-6.4-.59-3.65 3.12-4.05 5.22-5.9 4.77-4.15 6.82-11.4 4.64-17.37-.56-2.32-2.27-4.03-3.7-5.84-2.6-2.88-5.74-5.54-9.63-6.31-3.2.24-7.86-.16-9.73 2.93-.16 1.68-1.33 3.38-3.2 3.22-7.62-2.29-.13-12.42 5.23-12.6 9.83-3.07 17.6 2.31 23.45 9.8 7.9 9.95 5.5 26.1-4.85 33.37 3.1 9.52-7.65 17-16.33 15.76z"/><path fill="#000" d="M429.61 316.01c-2.75-2.08-1.36-8.2 2.61-6.9 5.6-2.99 10.61-7.7 13.44-13.44 1.67-4 6.74-1.3 5.97 2.4-1.55 5.81-15.65 21.51-22 17.94zm-269.36 49.44c-18.47-24.07-4.03-62.55 24.65-70.36 3.39-.11 4.21 4.82 1.81 6.66-19 5.92-31.74 25.13-27.93 45.1a37 37 0 0 0 6.16 13.51c2.6 3.01-1.57 8.66-4.7 5.1"/><path fill="#000" d="M165.61 382.79c-7.75-.46-11.19-10.16-7.97-16.48 1.15-2.42 2.62-5.65 5.55-6.18 3.73-.13 4.21 5.62 1.22 7.12-2.98 3.03-1.83 8.76 3.02 8.34 1.7-.77 3.46.59 3.89 2.24 1.01 3.52-2.56 5.86-5.73 4.96z"/><path fill="#000" d="M189.45 404.83c-10.95.19-21.77-7.22-23.13-18.55-.35-3.06-2.13-8.9 1.4-10.5 2.2-.72 4.11 1.36 4.33 3.36-1.28 11.4 5.83 18.81 17.27 18.52 1.78-.05 2.93-.8 4.56 0 3.14 1.41 2.63 7.33-1.23 6.85-1.33.16-1.97.3-3.17.3z"/><path fill="#000" d="M212.05 421.86c-4.85-1.74-27.5-18.74-19.4-23.67q-.27.12-.53.32c1.97-1.63 4.6.37 5.06 2.45a39 39 0 0 0 7.25 8c2.9 2.16 5.04 4.05 8.13 5.67a4.2 4.2 0 0 1 3.28 4.86c-.32 1.7-2.1 3.14-3.79 2.4z"/><path fill="#000" d="M174.22 475.46c-3.84-1.98-.24-6.21.83-8.85 3.68-6.61 8.58-13.89 16.15-16.26 2.5-6.56 3.7-17.09 12.2-18.15 2.17-4.99 4.88-9.36 7.15-14.05.61-1.25 1.57-2.32 3.01-2.64 3.63-.82 4.88 3.7 2.37 5.81-2.87 4.99-5.27 10.24-7.78 15.4-1.06 2.38-3.38 3.02-5.6 2.27-4.13 4.93-3.38 11.7-7.11 16.58-1.44 1.33-3.33.96-4.96 1.87-5.38 3.38-8.85 9.33-11.35 15.08-.64 1.98-2.8 3.74-4.9 2.9zm105.56-31.94c-4.98-.58-43.55-3.2-37.47-11.27 1.57-1.95 4.18-1.57 6.13-.5a94 94 0 0 0 11.89 3.3c16.68 2.98 33.95 3.25 50.4.18 12.74-2.24 24.95-5.38 36.62-10.42 3.41-1.79 7.01-3.28 10.45-5.01 2.08-2.03 6.26-1.57 6.77 1.63.24 1.8-1.3 3.25-3.01 3.57a173.6 173.6 0 0 1-81.78 18.52"/><path fill="#000" d="M383.87 488.57c-1.63-.1-2.53-1.54-3.23-2.85-5.4-7.28-7.09-16.6-6.47-25.37-4.43-6.96-11.17-14.96-7.28-23.57-2.1-3.91-4.16-7.91-6.4-11.78-1.04-1.22-1.6-2.93-1.04-4.48.94-3.38 5.25-3.03 6 .33 2 4.02 4.19 7.4 6.05 11.16 1.5 2.24 3.07 5.73 1.18 7.84-3.52 8.15 8.28 13.4 7.7 21.19-.43 6.08.16 12.66 3.49 17.91.77 1.2 1.6 2.4 2.37 3.6 1.7 2.08.7 6.15-2.34 6.05zm20.79-58.64c-1.49-3.06-1.62-7.14-4.77-9.14-5.33 2.72-6.66-3.94-8.63-7.44-1.07-3.94-7.41-11.56-1.6-13.96 4.07-.67 3.78 4.42 5.33 6.93 1.01 2.56 2.32 5.06 3.44 7.35 5.83-1.09 9.3 5.79 10.79 10.45.9 2.27 2.27 5.33-.21 7.1-1.47 1.03-3.6.31-4.32-1.32z"/><path fill="#000" d="M426.8 433.78c-.93-.72-1.4-1.8-2.02-2.75-1.92-1.81-4.56-2.19-7.1-1.97-3.4 0-5.7 2.64-8.66 3.62-2.13.4-4.15-1.52-3.46-3.68 3.76-6.58 17.25-8.5 23.22-3.86a8 8 0 0 1 2.98 3.33c1.47 1.12 1.57 3.1.43 4.53a3.9 3.9 0 0 1-5.39.8z"/><path fill="#000" d="M459.57 446.4c-2.91-9.28-12.37-17.03-22.4-13.94-2.9.8-6.77 4.93-9.22 1.3-1.38-2.85 1.5-5.3 4.08-5.8 11.36-5.92 25.54-.88 31.7 10.1 1.51 2.74 4.44 7.14.58 9.27-1.47.83-3.92.8-4.75-.93"/><path fill="#000" d="M398.8 510.06c-6.29-.75-12.63-2.88-16.84-7.84-4.1-5.25-6.02-12.64-1.5-18.23 2.62-2.83 7.74-.16 5.34 3.46-2.1 3.73-.16 7.76 2.29 10.8 8 8 20.52 5.75 30.54 3.78 17.09-4.32 32.18-14.55 45.13-26.14 4.98-4.22 9.09-9.57 9.89-16.18.26-5.44-2.72-12.18-8.88-12.1-2.34 1.38-5.52-.06-5.12-2.83 1.82-6.26 12.42-3.54 15.73.13 1.9 2.1 3.81 4.35 4.5 7.12.51 3.44 1.26 6.8.11 10.1-2.72 13.6-16.15 21.86-26.47 29.75-15.94 11.3-34.91 19.67-54.72 18.2zM235.38 464.4c-2.72-1.63-1.01-4.8-.88-7.2.08-1.04-1.01-1.55-1.25-2.53a4.4 4.4 0 0 1-.08-2.51c1.36-4.24 3.78-8.66 5.27-12.69.8-2.02 1.66-4.05 2.3-6.13.18-1.81 1.86-3.62 3.8-3.22 4.6 1.36 1.45 6.95.46 9.46-1.6 4.24-3.57 8.69-5.25 12.77 1.92 3.22 1.44 14.34-4.37 12.04m4.19 78.48c-25.27-3.68-51.44-16.82-68.44-36.01-7.57-8.56-16.32-21.8-8.03-32.63 1.68-1.86 4-3.06 6.34-3.89 2.67-2.08 8.06-2.1 8.56 2.08.1 1.97-1.73 3.07-3.49 3.07-2.72 1.4-6.18 2.29-6.98 5.7-4.75 15.54 22.76 36.25 34.86 42.6 9.84 5.3 55.81 26.25 49.79.82-4.88-3.04.3-8.48 4.29-5.07 4.5 4.5 4.32 12.35 1.44 17.68-3.68 6-12.02 6.37-18.31 5.67z"/><path fill="#000" d="M251.95 523.06c-4.91-3.5 2.31-7.28 3.09-11.38 3.11-9.7.08-22.18-9.12-27.46-5.57.11-5.68-7.57.21-6.66 3.2.93 5.9 3.3 8.43 5.41 9 9.22 11.78 24.97 4.82 36.14-1.57 2.59-4.1 6.16-7.44 3.92z"/><path fill="#000" d="M244.14 483.45c-2.6-.75-3.36-3.65-2.3-5.94.64-4.5-1.33-9.39-5.46-11.5-1.41-.87-2.53-2.55-1.73-4.26 2.2-3.67 6.6-.32 8.76 1.71 3.92 3.5 5.76 8.64 5.63 13.8-.27 3.31-.35 7.31-4.9 6.16z"/><defs><filter id="crests-experiments-filter0_d_24_469" width="374.57" height="533.15" x="135" y="39" color-interpolation-filters="sRGB" filterUnits="userSpaceOnUse"><feFlood flood-opacity="0" result="BackgroundImageFix"/><feColorMatrix in="SourceAlpha" result="hardAlpha" values="0 0 0 0 0 0 0 0 0 0 0 0 0 0 0 0 0 0 127 0"/><feOffset dx="12" dy="12"/><feComposite in2="hardAlpha" operator="out"/><feColorMatrix values="0 0 0 0 0 0 0 0 0 0 0 0 0 0 0 0 0 0 0.4 0"/><feBlend in2="BackgroundImageFix" result="effect1_dropShadow_24_469"/><feBlend in="SourceGraphic" in2="effect1_dropShadow_24_469" result="shape"/></filter></defs></svg>