<svg xmlns="http://www.w3.org/2000/svg" fill="none" viewBox="0 0 600 600"><g filter="url(#crests-logs-filter0_d_35_2047)"><mask id="crests-logs-path-1-outside-1_35_2047" width="360" height="417" x="122" y="98" fill="#000" maskUnits="userSpaceOnUse"><path fill="#fff" d="M122 98h360v417H122z"/><path d="M284.15 116.16c1.04-.35 2.21-.16 3.22.91 5.71 4.42 9.07 11.33 10.13 18.39.3 4.39.79 9.05-.25 13.36-.44.68-.79 1.63-1.12 2.66 2.47 2.7 7.03 8.05 8.82 12.7 4.84-1.25 10.54-2.73 14.47 1.35 5.07 4.98 1.61 14.42 1.4 20.76l-.02.53 1.66-.69c3.07-1.26 6.16-2.46 9.23-3.7 7.3-2.9 14.56-5.87 21.86-8.82l21.88-8.9q5.6-2.3 11.19-4.62c3.37-1.4 6.79-2.81 10.12-4.34q.59-.25 1.18-.54c1.22-1.44 3.56-1.46 5.37-1.29 3.89.51 6.1 4.48 6.81 7.9 8.5-1.72 14.69 8.8 13.02 16.3l.16.2c2.65-.08 4.54 2.06 6.35 3.68a15.6 15.6 0 0 1 5.67 13.65 16.5 16.5 0 0 1 8.36 15.13 16.3 16.3 0 0 1 2.78 13.76c3.89 2.7 9 .51 12.87 2.93 10.3 8.8 4.6 17.17-1.3 26.32 2.3 3.4 3.18 7.48 2.77 11.53-.49 1.85-1.32 3.41-1.8 5.28 3.04 4.86 4.18 12.59-.78 16.6 2.46 4.75 3.09 10.85.4 15.43q-.06.42-.2.85c-5.57 13.89-22.65 15.86-34.75 21.43-11.78 3.77-22.9 9.3-34.57 13.37a23 23 0 0 1-3.2 1.15c-.87.43-1.9.78-2.92.86-1.5 1.6-3.35 3.2-5.19 4.32q.17.63.35 1.19c.16.8.36 1.65.47 2.51 5.2 5.82 3.47 18.74 3.67 25.92 4.77 1.9 8.49 5.58 9.06 10.79q.7.07 1.31.3c19.96 1.56 30.58 17.1 32.35 36.24 4.42 2.55 8.08 6.55 9.28 11.6.56 2.1 1.28 6.48.76 9.85a4 4 0 0 1 0 .65q-.01.61-.26 1.15c-.2.85-.38 1.7-.65 2.56a22 22 0 0 1-2.44 5.13 30 30 0 0 1-7.87 8.25c-8.76 6.33-19.95 8.75-30.6 8.89h-1.1q-6.32-.01-12.56-1.03l.01.01a77 77 0 0 1-6.1-1.22l-.45-.11a30 30 0 0 1-1.1 6.07c-1.64 5.63-5.32 10.53-9.87 14.15a41 41 0 0 1-10.33 5.88 61 61 0 0 1-7.06 2.32 61 61 0 0 1-7.67 1.42q-5.65.72-11.34.71-2.58 0-5.17-.12l-.02.02c-10.71-.5-21.39-2.79-31.6-6.04a151 151 0 0 1-18.58-7.34l-1.73-.83a3 3 0 0 1-1.22-.53h-.01l.19.14c-.4-.2-.8-.4-1.06-.55l-.19-.1-.14-.08c-6.63-3.48-12.79-8.1-17.5-14a39 39 0 0 1-7.3-13.9 30.4 30.4 0 0 1 .18-17.14c1.65-5.45 5.16-10.02 9.32-13.8-.54-8.49-2.45-18.2-.91-26.56-2.74.87-5.5 1.67-8.01 2.9a34 34 0 0 1-10.7 2.54c-3.3.55-6.55 1.34-9.79.16h-.06a8.3 8.3 0 0 1-5.55-4.48c-1.32.32-2.54.9-3.99.9-3.2-.02-6.32.94-9.53.55l-.02-.04a50 50 0 0 1-11.27-1.38c-6.44-.45-12.97-4.17-12.12-11.5-11.06-.07-20.17-3.98-21.25-16.14-3.82-3.19-5.39-9.07-4.45-13.87-5.47-3.82-6.27-11.26-3.24-16.87-5.47-2.67-8.94-10.82-6.36-16.5-1.36-3.78-.55-8.07 1.06-11.67-3.68-3.05-5.98-8.23-3.7-12.8-.7-5.21 1.46-10.58 4.6-14.59-.09-4.13 3.35-7.42 6.34-9.86-4.25-3.13-3.99-9.9-1.67-14.15 1.74-3.37 4.6-5.63 7.89-7.24q.57-.62 1.43-.92l.14-.06.59-.26.37-.12q21.6-8.54 43.15-17.23 23.25-9.37 46.5-18.8c9.6-3.91 19.22-7.78 28.7-11.82l.86-.38q.4-.63.87-1.24l.1-.2q.29-.4.59-.7l.3-.39c4.2-7.89 3.71-17.57 5.54-26.09-2-1.76-2.84-4.43-5-6.06-7.6 5.7-18.2 5.47-27.27 4.66-4.16-.24-7.42-3.09-10.71-5.37a11 11 0 0 1-2.25-1.69 3 3 0 0 1-2.02-1.08l.06.09h-.04c-3.25-3.66.3-8.3 1.95-11.88 3.68-9.52 13.41-14.06 23.1-14.62.95-5.95 4.85-13.31 8.08-16.65a31 31 0 0 1 9.72-5.86q.69-.2 1.32-.14m64.99 370.71q-1.01.38-2.03.74-2.25.75-4.58 1.3l-.47.14q.68-.15 1.34-.32a51 51 0 0 0 5.43-1.73zm73.85-35.34c-7.8 7.66-18.78 10.34-29.68 10.9a59 59 0 0 0 11.52-1.18q2.93-.64 5.78-1.62a47 47 0 0 0 3.9-1.64q1.75-.9 3.4-1.95 1.37-.95 2.66-2.02a32 32 0 0 0 2.42-2.49m11.96-7.45h.02v-.12zm.08-.43v-.04zm-193.23-43.7-.15.08zm.04-.01.04-.02.04-.02zm-28.2-9.88c-3.27.2-6.52.76-9.76 1.28 3.28-.1 6.53-.6 9.76-1.28m101.85-2.94q.25 1.9.42 3.7l.09-2.83a5 5 0 0 1-.5-.87m-127.37-6.44.17.25q.42.68.65 1.28.47-.52.92-1.06-.87-.3-1.74-.47m112.53-209.05.25-.08a4 4 0 0 1-.44-.45zm-22.48-9.86-1.49.8q-1.12.64-2.26 1.18a8.5 8.5 0 0 0 3.75-1.98m9.27-8.57.22.18-.07-.4zm-3.4-28.56q-.47.16-.91.34 1.81.58 3.13 1.82l-.2-.23c-.54-.74-1.3-1.33-2.02-1.93"/></mask><path fill="#fff" d="M284.15 116.16c1.04-.35 2.21-.16 3.22.91 5.71 4.42 9.07 11.33 10.13 18.39.3 4.39.79 9.05-.25 13.36-.44.68-.79 1.63-1.12 2.66 2.47 2.7 7.03 8.05 8.82 12.7 4.84-1.25 10.54-2.73 14.47 1.35 5.07 4.98 1.61 14.42 1.4 20.76l-.02.53 1.66-.69c3.07-1.26 6.16-2.46 9.23-3.7 7.3-2.9 14.56-5.87 21.86-8.82l21.88-8.9q5.6-2.3 11.19-4.62c3.37-1.4 6.79-2.81 10.12-4.34q.59-.25 1.18-.54c1.22-1.44 3.56-1.46 5.37-1.29 3.89.51 6.1 4.48 6.81 7.9 8.5-1.72 14.69 8.8 13.02 16.3l.16.2c2.65-.08 4.54 2.06 6.35 3.68a15.6 15.6 0 0 1 5.67 13.65 16.5 16.5 0 0 1 8.36 15.13 16.3 16.3 0 0 1 2.78 13.76c3.89 2.7 9 .51 12.87 2.93 10.3 8.8 4.6 17.17-1.3 26.32 2.3 3.4 3.18 7.48 2.77 11.53-.49 1.85-1.32 3.41-1.8 5.28 3.04 4.86 4.18 12.59-.78 16.6 2.46 4.75 3.09 10.85.4 15.43q-.06.42-.2.85c-5.57 13.89-22.65 15.86-34.75 21.43-11.78 3.77-22.9 9.3-34.57 13.37a23 23 0 0 1-3.2 1.15c-.87.43-1.9.78-2.92.86-1.5 1.6-3.35 3.2-5.19 4.32q.17.63.35 1.19c.16.8.36 1.65.47 2.51 5.2 5.82 3.47 18.74 3.67 25.92 4.77 1.9 8.49 5.58 9.06 10.79q.7.07 1.31.3c19.96 1.56 30.58 17.1 32.35 36.24 4.42 2.55 8.08 6.55 9.28 11.6.56 2.1 1.28 6.48.76 9.85a4 4 0 0 1 0 .65q-.01.61-.26 1.15c-.2.85-.38 1.7-.65 2.56a22 22 0 0 1-2.44 5.13 30 30 0 0 1-7.87 8.25c-8.76 6.33-19.95 8.75-30.6 8.89h-1.1q-6.32-.01-12.56-1.03l.01.01a77 77 0 0 1-6.1-1.22l-.45-.11a30 30 0 0 1-1.1 6.07c-1.64 5.63-5.32 10.53-9.87 14.15a41 41 0 0 1-10.33 5.88 61 61 0 0 1-7.06 2.32 61 61 0 0 1-7.67 1.42q-5.65.72-11.34.71-2.58 0-5.17-.12l-.02.02c-10.71-.5-21.39-2.79-31.6-6.04a151 151 0 0 1-18.58-7.34l-1.73-.83a3 3 0 0 1-1.22-.53h-.01l.19.14c-.4-.2-.8-.4-1.06-.55l-.19-.1-.14-.08c-6.63-3.48-12.79-8.1-17.5-14a39 39 0 0 1-7.3-13.9 30.4 30.4 0 0 1 .18-17.14c1.65-5.45 5.16-10.02 9.32-13.8-.54-8.49-2.45-18.2-.91-26.56-2.74.87-5.5 1.67-8.01 2.9a34 34 0 0 1-10.7 2.54c-3.3.55-6.55 1.34-9.79.16h-.06a8.3 8.3 0 0 1-5.55-4.48c-1.32.32-2.54.9-3.99.9-3.2-.02-6.32.94-9.53.55l-.02-.04a50 50 0 0 1-11.27-1.38c-6.44-.45-12.97-4.17-12.12-11.5-11.06-.07-20.17-3.98-21.25-16.14-3.82-3.19-5.39-9.07-4.45-13.87-5.47-3.82-6.27-11.26-3.24-16.87-5.47-2.67-8.94-10.82-6.36-16.5-1.36-3.78-.55-8.07 1.06-11.67-3.68-3.05-5.98-8.23-3.7-12.8-.7-5.21 1.46-10.58 4.6-14.59-.09-4.13 3.35-7.42 6.34-9.86-4.25-3.13-3.99-9.9-1.67-14.15 1.74-3.37 4.6-5.63 7.89-7.24q.57-.62 1.43-.92l.14-.06.59-.26.37-.12q21.6-8.54 43.15-17.23 23.25-9.37 46.5-18.8c9.6-3.91 19.22-7.78 28.7-11.82l.86-.38q.4-.63.87-1.24l.1-.2q.29-.4.59-.7l.3-.39c4.2-7.89 3.71-17.57 5.54-26.09-2-1.76-2.84-4.43-5-6.06-7.6 5.7-18.2 5.47-27.27 4.66-4.16-.24-7.42-3.09-10.71-5.37a11 11 0 0 1-2.25-1.69 3 3 0 0 1-2.02-1.08l.06.09h-.04c-3.25-3.66.3-8.3 1.95-11.88 3.68-9.52 13.41-14.06 23.1-14.62.95-5.95 4.85-13.31 8.08-16.65a31 31 0 0 1 9.72-5.86q.69-.2 1.32-.14m64.99 370.71q-1.01.38-2.03.74-2.25.75-4.58 1.3l-.47.14q.68-.15 1.34-.32a51 51 0 0 0 5.43-1.73zm73.85-35.34c-7.8 7.66-18.78 10.34-29.68 10.9a59 59 0 0 0 11.52-1.18q2.93-.64 5.78-1.62a47 47 0 0 0 3.9-1.64q1.75-.9 3.4-1.95 1.37-.95 2.66-2.02a32 32 0 0 0 2.42-2.49m11.96-7.45h.02v-.12zm.08-.43v-.04zm-193.23-43.7-.15.08zm.04-.01.04-.02.04-.02zm-28.2-9.88c-3.27.2-6.52.76-9.76 1.28 3.28-.1 6.53-.6 9.76-1.28m101.85-2.94q.25 1.9.42 3.7l.09-2.83a5 5 0 0 1-.5-.87m-127.37-6.44.17.25q.42.68.65 1.28.47-.52.92-1.06-.87-.3-1.74-.47m112.53-209.05.25-.08a4 4 0 0 1-.44-.45zm-22.48-9.86-1.49.8q-1.12.64-2.26 1.18a8.5 8.5 0 0 0 3.75-1.98m9.27-8.57.22.18-.07-.4zm-3.4-28.56q-.47.16-.91.34 1.81.58 3.13 1.82l-.2-.23c-.54-.74-1.3-1.33-2.02-1.93"/><path fill="#fff" d="m284.15 116.16-1.65 16.92c2.39.23 4.8-.04 7.08-.81zm3.22.91L275 128.74q.91.96 1.98 1.79zm10.13 18.39 16.95-1.18q-.05-.68-.14-1.34zm-.25 13.36 14.32 9.16a17 17 0 0 0 2.21-5.19zm-1.12 2.66-16.18-5.21a17 17 0 0 0 3.64 16.69zm8.82 12.7-15.88 6.09a17 17 0 0 0 20.13 10.37zm14.47 1.35-12.23 11.8.31.32zm1.4 20.76 17 .57v-.02zm-.02.53-16.98-.7a17 17 0 0 0 23.44 16.43zm1.66-.69L316 170.42l-.11.05zm9.23-3.7-6.29-15.79-.07.03zm21.86-8.82-6.37-15.76zm21.88-8.9 6.4 15.74h.02zm11.19-4.62 6.52 15.7zm10.12-4.34-6.9-15.53-.17.07zm1.18-.54 7.33 15.33a17 17 0 0 0 5.63-4.34zm5.37-1.29 2.2-16.85q-.3-.05-.62-.07zm6.81 7.9-16.64 3.46a17 17 0 0 0 20 13.2zm13.02 16.3-16.6-3.69a17 17 0 0 0 4.58 15.71zm.16.2-13.6 10.2a17 17 0 0 0 14.12 6.8zm6.35 3.68-11.37 12.65.6.51zm5.67 13.65-16.9-1.85a17 17 0 0 0 8.45 16.6zm8.36 15.13-16.97-1.06a17 17 0 0 0 3.3 11.17zm2.78 13.76-16.4-4.45a17 17 0 0 0 6.69 18.4zm12.87 2.93 11.06-12.91a17 17 0 0 0-2.07-1.52zm-1.3 26.32-14.29-9.21a17 17 0 0 0 .21 18.73zm2.77 11.53 16.44 4.33q.33-1.3.47-2.63zm-1.8 5.28-16.48-4.12a17 17 0 0 0 2.06 13.12zm-.78 16.6-10.68-13.23A17 17 0 0 0 443.1 295zm.4 15.43-14.66-8.6a17 17 0 0 0-2.12 5.91zm-.2.85 15.78 6.33q.22-.56.4-1.14zm-34.75 21.43 5.18 16.2q.99-.33 1.93-.75zm-34.57 13.37-5.6-16.05q-.76.27-1.5.61zm-3.2 1.15-4.74-16.33q-1.49.43-2.87 1.12zm-2.92.86-1.26-16.96a17 17 0 0 0-11.2 5.38zm-5.19 4.32-8.87-14.5a17 17 0 0 0-7.55 18.9zm.35 1.19 16.66-3.37q-.22-1.11-.6-2.19zm.47 2.51-16.86 2.16a17 17 0 0 0 4.18 9.16zm3.67 25.92-17 .46a17 17 0 0 0 10.7 15.32zm9.06 10.79-16.9 1.86a17 17 0 0 0 15.33 15.07zm1.31.3-6.22 15.83q2.37.93 4.9 1.13zm32.35 36.24-16.92 1.57a17 17 0 0 0 8.44 13.16zm9.28 11.6-16.54 3.93.11.45zm.76 9.85-16.8-2.6a17 17 0 0 0-.14 4.11zm-.04.86-16.8-2.62a17 17 0 0 0 33.4 6.25zm-.22.94-15.53-6.9q-.64 1.43-1 2.96zm-.65 2.56 16.2 5.16.04-.13zm-2.44 5.13-14.31-9.18-.04.06zm-7.87 8.25-9.92-13.8-.02.02zm-30.6 8.89v17h.23zm-1.1 0v17zm-12.56-1.03 2.7-16.78a17 17 0 0 0-10.3 31.99zm.01.01-2.66 16.8a17 17 0 0 0 10.27-32zm-6.1-1.22 4-16.52-.04-.01zm-.45-.11 4.17-16.48a17 17 0 0 0-21.12 15.3zm-1.1 6.07 16.33 4.77.04-.14zm-9.87 14.15 10.56 13.32h.01zm-10.33 5.88 6.24 15.81.06-.02zm-7.06 2.32 4.25 16.46.04-.01zm-7.67 1.42-2.12-16.87-.06.01zm-11.34.71v17zm-5.17-.12.8-16.98a17 17 0 0 0-12.82 4.96zm-.02.02-.8 16.98a17 17 0 0 0 12.82-4.96zm-31.6-6.04 5.16-16.2zm-13.36-5-6.72 15.61.06.03zm-5.22-2.34-7.15 15.43.06.02zm-1.73-.83 7.33-15.34a17 17 0 0 0-4.2-1.37zm-1.22-.53 9.94-13.79a17 17 0 0 0-2.89-1.67zm-.01 0 7.1-15.44a17 17 0 0 0-17.3 29.05zm.19.14-7.92 15.04a17 17 0 0 0 18.1-28.65zm-1.06-.55L257 496.74q.66.45 1.37.82zm-.19-.1 9.43-14.15q-.5-.33-1.02-.63zm-.14-.08 8.4-14.78-.5-.28zm-17.5-14 13.27-10.61-.01-.02zm-7.3-13.9 16.36-4.59v-.02zm.18-17.14 16.26 4.96v-.02zm9.32-13.8 11.42 12.6a17 17 0 0 0 5.54-13.67zm-.91-26.56 16.72 3.07a17 17 0 0 0-21.9-19.26zm-18.72 5.44-1.31-16.95q-.76.06-1.48.18zm-9.78.16 5.83-15.97a17 17 0 0 0-5.83-1.03zm-.06 0-3.9 16.55q1.93.45 3.9.45zm-5.55-4.48 15.3-7.43a17 17 0 0 0-19.3-9.1zm-3.99.9-.1 17h.1zm-9.53.55-15.13 7.75a17 17 0 0 0 13.1 9.13zm-.02-.04 15.13-7.75a17 17 0 0 0-15.13-9.25zm-11.27-1.38 3.8-16.57q-1.3-.3-2.62-.4zm-12.12-11.5 16.89 1.98a17 17 0 0 0-16.76-18.97zm-21.25-16.14 16.94-1.5a17 17 0 0 0-6.04-11.55zm-4.45-13.87 16.68 3.26a17 17 0 0 0-6.94-17.19zm-3.24-16.87 14.97 8.07a17 17 0 0 0-7.52-23.36zm-6.36-16.5 15.47 7.05a17 17 0 0 0 .52-12.8zm1.06-11.67 15.52 6.93a17 17 0 0 0-4.67-20.02zm-3.7-12.8 15.22 7.57a17 17 0 0 0 1.63-9.82zm4.6-14.59 13.39 10.47a17 17 0 0 0 3.6-10.8zm6.34-9.86 10.75 13.17a17 17 0 0 0-.67-26.86zm-1.67-14.15 14.92 8.14.18-.34zm7.89-7.24 7.48 15.27a17 17 0 0 0 4.99-3.71zm1.43-.92 5.19 16.2q.74-.25 1.45-.55zm.14-.06-6.31-15.78-.33.13zm.59-.26-5.37-16.13q-.48.16-.94.34zm.37-.12 5.37 16.12.85-.3zm43.15-17.23 6.33 15.78.04-.02zm46.5-18.8-6.4-15.76zm28.7-11.82 6.67 15.63.16-.07zm.86-.38 6.84 15.56a17 17 0 0 0 7.48-6.4zm.87-1.24 13.58 10.23q1.08-1.43 1.83-3.06zm.1-.2-13.67-10.1q-.93 1.25-1.62 2.66zm.59-.7 12.18 11.86q.7-.73 1.32-1.53zm.3-.39 13.6 10.2q.78-1.05 1.4-2.2zm5.54-26.09 16.63 3.57a17 17 0 0 0-5.4-16.34zm-5-6.06 10.24-13.56a17 17 0 0 0-20.43-.04zm-27.27 4.66 1.52-16.93-.52-.04zm-10.71-5.37 9.66-13.98q-.55-.39-1.15-.73zm-2.25-1.69L254 154.28a17 17 0 0 0-10.31-4.9zm-2.02-1.08 12.63-11.38a17 17 0 0 0-26.17 21.66zm.06.09v17a17 17 0 0 0 13.54-27.28zm-.04 0-12.7 11.29a17 17 0 0 0 12.7 5.7zm1.95-11.88 15.45 7.1.41-.97zm23.1-14.62.98 16.97a17 17 0 0 0 15.8-14.29zm8.08-16.65-11.17-12.82q-.56.48-1.05 1zm9.72-5.86-5.02-16.24q-.36.1-.71.24zm66.3 370.57 6.68 15.64a17 17 0 0 0-12.74-31.52zm-2.02.74 5.46 16.1.08-.03zm-4.58 1.3-3.87-16.56q-.6.15-1.19.32zm-.47.14-4.94-16.27a17 17 0 0 0 8.7 32.84zm1.34-.32 4.05 16.51.33-.08zm5.43-1.73 6.19 15.84.4-.16zm74.16-35.47 13.16 10.76a17 17 0 0 0-25.08-22.89zm-29.68 10.9-.87-16.98a17 17 0 0 0 .99 33.97zm5.28-.25 1.5 16.93.14-.01zm6.24-.94 3.46 16.64q.1 0 .17-.03zm5.78-1.6 5.53 16.07.35-.13zm3.9-1.65 7.3 15.35.4-.2zm3.4-1.95 9.24 14.26.4-.26zm2.66-2.02 10.88 13.06.59-.51zm2.03-2.03 12.55 11.47.27-.3zm12.35-7.91-16.64-3.48a17 17 0 0 0 16.64 20.48zm.02 0v17a17 17 0 0 0 17-17zm0-.12h17a17 17 0 0 0-33.74-3zm.06-.3 16.67 3.33q.33-1.66.33-3.34zm0-.05h17a17 17 0 0 0-34 0zM241.8 399.95l9.33 14.22a17 17 0 0 0-16.9-29.44zm-.15.08-7.68-15.17a17 17 0 0 0 13.05 31.3zm.19-.1-7.54-15.23a17 17 0 0 0 14.29 30.84zm.08-.03 7.37 15.32a17 17 0 0 0-14.12-30.93zm-28.28-9.84 3.53 16.63a17 17 0 0 0-4.62-33.6zm-9.76 1.28-2.68-16.79a17 17 0 0 0 3.24 33.78zm111.61-4.22 15.44-7.11a17 17 0 0 0-32.28 9.46zm.42 3.7-16.9 1.74a17 17 0 0 0 33.9-1.2zm.09-2.83 17 .5a17 17 0 0 0-3.35-10.63zm-127.88-7.31 3.22-16.7a17 17 0 0 0-17.13 26.48zm.17.25-14.58 8.75.22.36zm.65 1.28-15.9 6.02a17 17 0 0 0 28.44 5.45zm.92-1.06 13.23 10.67a17 17 0 0 0-7.45-26.65zm110.8-209.52-16.02 5.7a17 17 0 0 0 21.65 10.34zm.24-.08 5.6 16.04a17 17 0 0 0 5.15-29.21zm-.16-.14-11.94 12.1.23.22zm-.28-.31 13.16-10.76a17 17 0 0 0-29.1 16.7zm-22.3-9.33 12.02 12.03a17 17 0 0 0-20.25-26.9zm-1.48.8-8.03-14.98-.4.23zm-2.26 1.18-7.26-15.37a17 17 0 0 0 11.98 31.7zm13.02-10.55-14.13-9.46a17 17 0 0 0 3.54 22.77zm.22.18-10.68 13.23a17 17 0 0 0 27.35-16.57zm-.07-.4 16.89-1.96a17 17 0 0 0-31.07-7.43zm-3.55-28.34 10.72-13.2a17 17 0 0 0-16.18-2.9zm-.91.34-6.5-15.7a17 17 0 0 0 1.5 31.95zm3.13 1.82-11.56 12.47A17 17 0 0 0 299.38 116zm-.2-.23-13.63 10.16q.34.45.7.87zm-1.91-10.41 5.43 16.11a14 14 0 0 1-7.97.3 13.7 13.7 0 0 1-6.61-3.83l12.37-11.67 12.37-11.66a20 20 0 0 0-21.02-5.36zm3.22.91-10.4 13.46c1.5 1.15 3.15 3.68 3.71 7.45l16.81-2.52 16.82-2.52c-1.55-10.34-6.6-21.64-16.55-29.32zm10.13 18.39-16.96 1.17c.38 5.58.46 7.06.18 8.21l16.53 3.98 16.53 3.97c1.8-7.47.9-15.3.67-18.51zm-.25 13.36-14.32-9.17c-1.75 2.75-2.66 5.62-2.98 6.62l16.18 5.21 16.18 5.22c.12-.36.14-.4.09-.28l-.22.5q-.18.37-.6 1.06zm-1.12 2.66-12.54 11.48a55 55 0 0 1 3.55 4.26q.88 1.2 1.44 2.13c.38.63.5.94.5.92l15.87-6.09 15.87-6.09c-3.09-8.04-9.84-15.56-12.15-18.09zm8.82 12.7 4.25 16.46a50 50 0 0 1 2.77-.67c.68-.13.84-.11.66-.11a7 7 0 0 1-2.16-.43 9 9 0 0 1-3.28-2.1l12.23-11.8 12.23-11.8c-6.08-6.31-13.52-7.9-19.23-7.87-5.01.03-9.74 1.35-11.73 1.86zm14.47 1.35-11.92 12.12a8 8 0 0 1-2.26-3.88c-.14-.6-.03-.6-.1.48s-.25 2.3-.55 4.34c-.25 1.67-.67 4.43-.75 7.16l16.99.54 16.99.55c.01-.45.1-1.25.4-3.29.25-1.66.66-4.3.84-7 .33-4.77.43-15.12-7.71-23.14zm1.4 20.76-16.98-.56v-.03l-.01.15-.01.26 16.98.71 16.99.71q0 .02 0 0v-.12l.03-.55zm-.02.53 6.45 15.73 1.78-.74-6.57-15.68-6.57-15.67-1.54.63zm1.66-.69 6.46 15.73c3.12-1.28 5.68-2.26 9.14-3.66l-6.37-15.77-6.37-15.76c-2.67 1.08-6.3 2.5-9.32 3.74zm9.23-3.7 6.3 15.8c7.34-2.93 14.72-5.95 21.93-8.86l-6.37-15.76-6.37-15.76c-7.39 2.98-14.53 5.9-21.78 8.79zm21.86-8.82 6.37 15.76c7.31-2.95 14.7-5.98 21.92-8.92l-6.4-15.75-6.41-15.74c-7.38 3-14.56 5.94-21.84 8.89zm21.88-8.9 6.42 15.73q5.7-2.32 11.29-4.65l-6.52-15.7-6.52-15.7c-3.73 1.55-7.4 3.07-11.09 4.57zm11.19-4.62 6.52 15.7c3.26-1.36 7-2.9 10.67-4.57l-7.07-15.47-7.07-15.46c-3 1.38-6.09 2.65-9.58 4.1zm10.12-4.34 6.9 15.54c.64-.28 1.23-.56 1.61-.75l-7.33-15.33-7.34-15.34-.74.35zm1.18-.54 12.96 10.99a13 13 0 0 1-7.67 4.52c-1.2.2-1.9.1-1.5.13l1.58-16.93 1.58-16.92a28 28 0 0 0-7.32.2c-3.1.52-8.42 2.08-12.6 7.02zm5.37-1.29-2.2 16.86a10.2 10.2 0 0 1-6.73-3.7 4 4 0 0 1-.9-1.8l16.64-3.47 16.65-3.47a30 30 0 0 0-5.34-11.86 24 24 0 0 0-15.91-9.41zm6.81 7.9 3.35 16.66a8 8 0 0 1-5.01-.65 5 5 0 0 1-1.84-1.42 1 1 0 0 1-.16-.32 4 4 0 0 1 .08-1.66l16.6 3.69 16.6 3.69c2.04-9.21-.74-18.57-5.47-25.2-4.92-6.86-14.64-14.05-27.5-11.46zm13.02 16.3-12.02 12.02a16 16 0 0 1-1.51-1.74l-.03-.04v-.01h-.01l.13.17 13.6-10.2 13.6-10.2.05.07-.25-.33c-.29-.38-.8-1.03-1.54-1.76zm.16.2.52 17c-3.73.11-6.2-1.46-6.84-1.9-.3-.22-.39-.32-.12-.08l.53.49.9.82L429.62 182l11.36-12.64-.47-.44-.88-.8a33 33 0 0 0-3.07-2.49c-2.7-1.9-7.44-4.5-13.81-4.3zm6.35 3.68-10.77 13.16a1 1 0 0 1-.35-.47c-.08-.2-.15-.5-.11-.89l16.9 1.85 16.9 1.85a32.6 32.6 0 0 0-11.8-28.65zm5.67 13.65-8.45 14.75-.05-.03-.01-.02a1 1 0 0 1-.1-.63l16.97 1.06 16.96 1.06c.82-13.08-6.31-24.9-16.87-30.94zm8.36 15.13-13.67 10.1-.01-.04a1.5 1.5 0 0 1 .06-.75l16.4 4.45 16.4 4.46c2.79-10.23.15-20.68-5.51-28.33zm2.78 13.76-9.71 13.96c6.56 4.57 13.76 4.53 15.46 4.6 1.45.06 1.43.08 1.3.05a9 9 0 0 1-3.17-1.25l9-14.43 8.98-14.43a25 25 0 0 0-9.36-3.44c-2.31-.38-4.58-.44-5.37-.47-1.23-.05-1.12-.08-.76-.01.58.11 1.9.47 3.35 1.47zm12.87 2.93-11.05 12.92c1 .85.56.8.13-.35a5.6 5.6 0 0 1-.32-2.9c.04-.2-.03.28-.85 1.78-.83 1.53-1.89 3.16-3.5 5.66l14.3 9.2L472.3 263c2.27-3.53 7.44-10.94 9.1-19.14.96-4.79.9-10.26-1.22-15.88-2.08-5.47-5.66-9.87-9.81-13.42zm-1.3 26.32-14.08 9.52-.07-.12v-.02c0 .04.03.19 0 .45l16.92 1.7 16.91 1.7a34.4 34.4 0 0 0-5.6-22.76zm2.77 11.53-16.44-4.34c.03-.12.05-.13-.34.9-.3.78-.99 2.54-1.5 4.6l16.49 4.12 16.5 4.13c-.06.19-.1.22.26-.7.26-.69.95-2.41 1.47-4.38zm-1.8 5.28-14.42 9 .04.11c.04.12 0 .05 0-.25a6 6 0 0 1 .45-2.16 8.3 8.3 0 0 1 2.47-3.33l10.68 13.22 10.68 13.23c7.63-6.16 9.8-14.77 9.7-21.44a34.3 34.3 0 0 0-5.16-17.37zm-.78 16.6-15.1 7.8a3 3 0 0 1 .25.77v.03-.11q0-.11.05-.34c.07-.31.22-.79.54-1.32l14.66 8.6 14.66 8.6c6.55-11.16 4.23-23.73.04-31.84zm.4 15.43-16.79-2.69q.13-.8.4-1.65l16.19 5.2 16.19 5.18q.54-1.71.8-3.35zm-.2.85-15.78-6.33c-.4 1-1.34 2.5-6.15 4.67-2.44 1.1-5.16 2.07-8.69 3.3-3.23 1.13-7.35 2.56-11.24 4.35l7.1 15.44 7.12 15.44c2.15-.99 4.7-1.9 8.25-3.14 3.25-1.13 7.42-2.58 11.45-4.4 8.15-3.68 18.54-10.1 23.72-23zm-34.75 21.43-5.19-16.19a241 241 0 0 0-18.63 7.06c-5.9 2.43-11.07 4.61-16.35 6.45l5.6 16.05 5.6 16.05c6.4-2.23 12.61-4.85 18.14-7.14a209 209 0 0 1 16-6.08zm-34.57 13.37-7.1-15.44-.09.03-.75.23 4.74 16.33 4.73 16.33a40 40 0 0 0 5.59-2.04zm-3.2 1.15-7.6-15.2q.49-.26 1.22-.5a11 11 0 0 1 2.2-.4l1.26 16.96 1.26 16.95c3.82-.28 7.03-1.5 9.26-2.6zm-2.92.86L370.5 328.7a9 9 0 0 1-1.61 1.4l8.87 14.5 8.87 14.5a43 43 0 0 0 8.76-7.24zm-5.19 4.32-16.42 4.4c.14.54.38 1.4.7 2.34l16.07-5.55 16.07-5.56.05.15v.03l-.01-.06-.04-.14zm.35 1.19-16.66 3.36.15.74.1.46.02.11 16.86-2.16 16.87-2.16c-.22-1.67-.66-3.63-.68-3.72zm.47 2.51-12.68 11.32c-1.06-1.19-1.16-2.02-1-1.44.14.54.32 1.62.41 3.42.09 1.76.07 3.7.02 5.97-.05 1.98-.14 4.76-.07 7.11l16.99-.46 17-.47c-.04-1.24 0-2.76.07-5.4.05-2.36.1-5.36-.05-8.45-.26-5.1-1.14-15.24-8-22.92zm3.67 25.92-6.3 15.78c.36.15.12.14-.34-.37a5 5 0 0 1-1.2-2.76l16.9-1.86 16.9-1.86c-1.46-13.25-10.96-21.25-19.66-24.72zm9.06 10.79-1.56 16.93q-1.69-.15-3.35-.8l6.22-15.82 6.23-15.82a22 22 0 0 0-5.97-1.42zm1.31.3-1.32 16.96c5.44.42 8.83 2.53 11.24 5.43 2.67 3.23 4.85 8.38 5.5 15.42l16.93-1.57 16.93-1.56c-1.12-12.1-5.14-24.28-13.2-34-8.34-10.05-20.24-16.49-34.75-17.62zm32.35 36.24-8.48 14.73a5 5 0 0 1 1.24.98c.16.2.05.14-.02-.18l16.54-3.94 16.53-3.93c-2.56-10.76-10.02-18.18-17.32-22.39zm9.28 11.6-16.43 4.38.04.17a14 14 0 0 1 .33 2.7q-.02.39.02 0l16.8 2.6 16.8 2.6c1.04-6.7-.3-13.72-1.14-16.84zm.76 9.85-16.94 1.51a13 13 0 0 1 .1-3.27l16.8 2.62 16.8 2.6c.22-1.4.34-3.08.17-4.96zm-.04.86 16.6 3.63c.03-.08.07-.28.1-.48l-16.66-3.36-16.66-3.37.01-.06v-.01zm.04-.21-17-.3c.05-2.15.56-4 1.2-5.45l15.54 6.9 15.54 6.9a20 20 0 0 0 1.72-7.75zm-.26 1.15-16.53-3.94-.29 1.2-.07.28 16.24 5.02 16.24 5.03c.49-1.56.87-3.3.95-3.65zm-.65 2.56-16.2-5.15c-.06.2-.23.6-.55 1.1l14.31 9.18 14.31 9.17a39 39 0 0 0 4.33-9.14zm-2.44 5.13-14.35-9.12c-.8 1.27-1.96 2.5-3.44 3.57l9.92 13.8 9.93 13.8a47 47 0 0 0 12.3-12.94zm-7.87 8.25-9.94-13.78c-4.97 3.58-12.3 5.56-20.89 5.67l.23 17 .23 17c12.72-.17 27.76-3.03 40.32-12.1zm-30.6 8.89v-17h-1.1v34h1.1zm-1.1 0v-17q-4.88 0-9.86-.81l-2.7 16.78-2.7 16.79q7.5 1.22 15.26 1.24zm-12.56-1.03-7.6 15.2.01.02 7.6-15.2 7.6-15.21-.01-.01zm.01.01 2.66-16.79q-2.4-.38-4.75-.95l-4 16.52-4.01 16.52q3.68.9 7.44 1.5zm-6.1-1.22 3.96-16.53.06.01h-.04l-.06-.02-.2-.05-4.17 16.48-4.17 16.48h.04l.63.16zm-.45-.11-16.95-1.19c-.06.72-.2 1.56-.5 2.63l16.36 4.63 16.36 4.63c.83-2.94 1.46-6.1 1.7-9.52zm-1.1 6.07-16.3-4.77c-.5 1.68-1.83 3.77-4.15 5.61l10.58 13.31 10.57 13.31c6.79-5.4 12.82-13.1 15.63-22.69zm-9.87 14.15-10.57-13.31a24 24 0 0 1-6.06 3.4l6.3 15.79 6.3 15.79a58 58 0 0 0 14.6-8.35zm-10.33 5.88-6.25-15.81a44 44 0 0 1-5.1 1.68l4.29 16.45 4.29 16.45a78 78 0 0 0 9-2.96zm-7.06 2.32-4.25-16.46q-2.46.63-5.54 1.01l2.12 16.87L339.1 514c3.1-.4 6.4-.96 9.79-1.83zm-7.67 1.42-2.18-16.86q-4.48.58-9.16.57v34c4.44 0 8.98-.26 13.53-.85zm-11.34.71v-17q-2.18 0-4.37-.1l-.8 16.98-.8 16.98q2.99.15 5.97.14zm-5.17-.12-12.02-12.02-.02.02 12.02 12.02 12.02 12.02.02-.02zm-.02.02.8-16.98c-8.88-.42-18.06-2.33-27.24-5.26l-5.16 16.2-5.16 16.2c11.24 3.58 23.41 6.23 35.96 6.82zm-31.6-6.04 5.16-16.2a134 134 0 0 1-11.86-4.44l-6.66 15.64-6.66 15.64c4.8 2.04 9.73 3.93 14.86 5.56zm-13.36-5 6.72-15.62q-2.33-1.01-4.85-2.17l-7.1 15.45-7.08 15.45c1.76.81 3.65 1.67 5.6 2.5zm-5.22-2.34 7.14-15.42-1.54-.75-7.33 15.34-7.32 15.34 1.9.92zm-1.73-.83 3.14-16.7c1.94.36 3.87 1.15 5.58 2.38l-9.94 13.8-9.94 13.78a20 20 0 0 0 8.03 3.45zm-1.22-.53 7.05-15.46a16 16 0 0 0-1.25-.52l-.12-.04-.06-.02h-.02v-.01h.02l.08.04.12.04.16.06a18 18 0 0 1 1.12.47L267.29 483l-7.1 15.44a18 18 0 0 0 1.12.47l.28.1.08.03h.02-.01l-.07-.02-.72-.28-.64-.27zm-.01 0-10.2 13.6.2.15 10.19-13.61 10.18-13.6-.19-.15zm.19.14 7.91-15.04-.72-.38-.2-.1q-.05-.03 0 0l-8.05 14.97-8.06 14.97.45.24.33.16.42.22zm-1.06-.55 9.43-14.14a18 18 0 0 0-1.77-1.04l-.04-.02h.01l.08.05a16 16 0 0 1 1.53.9l-9.43 14.15-9.42 14.14a18 18 0 0 0 1.77 1.04l.04.02h-.02l-.4-.22q-.45-.24-1.21-.73zm-.19-.1 8.4-14.78-.14-.08-8.4 14.78-8.4 14.78.14.08zm-.14-.08 7.9-15.06c-5.06-2.65-9.2-5.89-12.13-9.55l-13.28 10.62-13.27 10.62c6.5 8.13 14.68 14.12 22.89 18.42zm-17.5-14 13.26-10.63a22 22 0 0 1-4.2-7.86l-16.37 4.59-16.37 4.58a56 56 0 0 0 10.41 19.96zm-7.3-13.9 16.36-4.61c-.7-2.5-.68-5.1.08-7.57l-16.26-4.96-16.26-4.97a47.4 47.4 0 0 0-.29 26.72zm.18-17.14 16.26 4.94c.48-1.58 1.75-3.67 4.48-6.15l-11.42-12.59-11.42-12.6c-5.6 5.08-11.34 12.14-14.17 21.45zm9.32-13.8 16.96-1.07c-.15-2.5-.4-5-.63-7.23-.24-2.32-.46-4.34-.61-6.35-.32-4.1-.28-6.86.09-8.84l-16.72-3.07-16.72-3.07c-1.17 6.38-.94 12.65-.55 17.62.2 2.53.46 5.05.69 7.2.23 2.25.41 4.14.52 5.88zm-.91-26.56-5.17-16.2c-2.02.65-6.4 1.9-10.34 3.85l7.5 15.26 7.5 15.25c1.07-.52 2.23-.86 5.68-1.96zm-8.01 2.9-6.72-15.6a18 18 0 0 1-5.3 1.2l1.31 16.94 1.32 16.95a51 51 0 0 0 16.11-3.87zm-10.7 2.54-2.8-16.77-1.37.24-2 .3c-.08.01.14-.01.54.03a7 7 0 0 1 1.67.4l-5.83 15.96-5.82 15.97c8.47 3.1 17.22.84 18.4.64zm-9.79.16v-17h-.06v34h.06zm-.06 0 3.9-16.54a8.7 8.7 0 0 1 5.84 4.63l-15.29 7.43-15.3 7.43a25.3 25.3 0 0 0 16.95 13.6zm-5.55-4.48-4-16.52a30 30 0 0 0-1.98.55l-.29.09-.2.06-.13.04a5 5 0 0 1 .72-.16q.69-.14 1.9-.16v34c3 0 5.4-.61 6.7-.98l1.31-.4c.25-.07.17-.04-.03 0zm-3.99.9.11-17c-1.64 0-3.1.1-4.22.22-.97.1-2.2.26-2.66.31-1.44.17-1.29.07-.73.14l-2.03 16.88-2.03 16.88c3.77.45 7.08.07 8.8-.14l2.09-.24.57-.05zm-9.53.55 15.13-7.75-.02-.04-15.13 7.75-15.13 7.75.02.04zm-.02-.04v-17c-2.25 0-4.66-.3-7.47-.95l-3.8 16.57-3.8 16.57a67 67 0 0 0 15.07 1.81zm-11.27-1.38 1.18-16.96-.3-.05c.02.01.45.16 1.07.67a8 8 0 0 1 2.19 2.98c.65 1.53.73 2.93.63 3.84l-16.89-1.97-16.88-1.97a25.9 25.9 0 0 0 9.46 23.46c5.75 4.7 12.66 6.56 18.36 6.96zm-12.12-11.5.13-17a19 19 0 0 1-4.1-.4c-.9-.2-1.15-.4-1.03-.32.2.13.53.44.76.83.2.36.01.25-.08-.75l-16.93 1.5-16.93 1.5c.95 10.69 5.88 19.63 14.44 25.3 7.7 5.07 16.52 6.3 23.62 6.35zm-21.25-16.14 10.9-13.05c.57.48.91.94 1.09 1.22s.24.48.26.54l.03.17q.02.07-.05.5l-16.68-3.25-16.69-3.25c-1.88 9.67.78 22.27 10.25 30.17zm-4.45-13.87 9.74-13.93a5.4 5.4 0 0 1 2.23 3.39 2.6 2.6 0 0 1-.25 1.74l-14.96-8.07-14.95-8.08c-6.1 11.3-5.74 28.97 8.45 38.89zm-3.24-16.87 7.45-15.29a6 6 0 0 1 1.78 1.3c.22.26.31.44.36.56s.16.45.18 1.02-.06 1.66-.66 2.96l-15.47-7.05-15.47-7.04c-3.73 8.19-2.58 16.64-.16 22.72 2.43 6.09 7.2 12.52 14.55 16.1zm-6.36-16.5 16-5.76c.38 1.08.3 1.8.3 1.84l.05-.2q.07-.24.23-.62l-15.52-6.93-15.53-6.93c-2.52 5.66-4.97 14.8-1.52 24.37zm1.06-11.67 10.85-13.09a4 4 0 0 1 1.2 1.88c.42 1.3.65 3.6-.53 5.98l-15.22-7.58-15.22-7.57c-7.15 14.36 1.01 27.62 8.07 33.47zm-3.7-12.8 16.85-2.25c.06.44-.05.45.11-.05a7 7 0 0 1 1.03-1.82l-13.4-10.47-13.39-10.47c-4.96 6.35-9.53 16.19-8.06 27.29zm4.6-14.59 16.99-.33a8.2 8.2 0 0 1-1.33 4.91c-.09.12-.05.04.23-.23q.39-.38 1.2-1.04l-10.75-13.17-10.75-13.17a42 42 0 0 0-7.22 7.32c-2.57 3.46-5.51 8.94-5.37 16.05zm6.34-9.86 10.08-13.69a8.4 8.4 0 0 1 3.58 5.9c.05.65-.04 1.11-.4 1.78l-14.93-8.14-14.93-8.14a31 31 0 0 0-3.66 16.77c.4 5.96 2.86 13.82 10.17 19.2zm-1.67-14.15 15.1 7.8a3 3 0 0 1-.49.67l.14-.1a6 6 0 0 1 .62-.34l-7.48-15.27-7.49-15.26c-5.36 2.63-11.56 7.07-15.5 14.69zm7.89-7.24 12.47 11.56a14 14 0 0 1-5.85 3.71l-5.2-16.19-5.18-16.19a20.3 20.3 0 0 0-8.71 5.56zm1.43-.92 6.64 15.65.15-.06-6.65-15.65-6.64-15.65-.15.06zm.14-.06 6.31 15.79.88-.38.4-.18-.1.04q-.18.1-.59.25l-6.31-15.78-6.31-15.79-.6.27zm.59-.26 5.38 16.13.36-.13-5.37-16.13-5.38-16.12-.37.12zm.37-.12 6.22 15.81c14.49-5.7 28.9-11.5 43.26-17.26l-6.33-15.78-6.34-15.77c-14.4 5.78-28.69 11.53-43.04 17.18zm43.15-17.23 6.37 15.76c15.46-6.25 31.02-12.5 46.54-18.82l-6.4-15.75-6.41-15.74c-15.48 6.29-30.95 12.51-46.47 18.8zm46.5-18.8 6.4 15.74c9.5-3.86 19.32-7.8 28.97-11.93l-6.68-15.63-6.67-15.64c-9.3 3.98-18.73 7.76-28.42 11.7zm28.7-11.82 6.83 15.56.45-.2.42-.18-6.84-15.56-6.83-15.57-.87.38zm.86-.38 14.32 9.16-.01.02.14-.2-13.58-10.22-13.58-10.23c-.45.6-1.02 1.4-1.6 2.3zm.87-1.24 15.41 7.17.05-.1.01-.02-.03.06-.07.14-15.28-7.45-15.28-7.44-.19.4-.03.07q0 .02 0 0zm.1-.2 13.66 10.12q-.3.43-.9 1.04l-12.17-11.86-12.18-11.86q-1.2 1.24-2.08 2.45zm.59-.7 13.5 10.33.12-.15.27-.37-13.6-10.2-13.6-10.2q.03-.04-.01.03l-.04.03-.03.06-.12.14zm.3-.39 15 8c3.53-6.62 4.78-13.4 5.5-18.42.86-6.11.9-8.53 1.67-12.1l-16.62-3.57-16.63-3.57c-1.06 4.96-1.69 11.64-2.1 14.47-.55 3.93-1.15 5.93-1.83 7.2zm5.54-26.09L298.45 162c.64.57.98 1.02 1.02 1.07l-.1-.15-.47-.68c-.65-.98-2.8-4.35-6.44-7.1l-10.24 13.57-10.24 13.57a9 9 0 0 1-1.52-1.44c-.15-.17-.17-.23.19.3.23.34.92 1.4 1.67 2.4.83 1.1 2.04 2.56 3.68 4zm-5-6.06-10.19-13.6c-1.8 1.34-6 2.19-15.56 1.33l-1.52 16.93-1.51 16.93c8.58.77 25.56 2.06 38.97-7.98zm-27.27 4.66 1-16.97c1.6.1 2.42.68 1.93.4-.25-.15-.63-.4-1.33-.9l-1.16-.83c-.43-.3-.94-.68-1.49-1.05l-9.66 13.98-9.67 13.99c.48.33 3.66 2.69 6.08 4.11 3 1.77 7.53 3.9 13.31 4.24zm-10.71-5.37 8.51-14.71c.13.07.63.37 1.26 1l-12.02 12.02-12.02 12.02a28 28 0 0 0 5.75 4.38zm-2.25-1.69 1.7-16.91a14 14 0 0 1 8.9 4.45l-12.62 11.38-12.63 11.39a20 20 0 0 0 12.94 6.6zm-2.02-1.08-13.54 10.28.06.08 13.54-10.28 13.54-10.27-.06-.08zm.06.09v-17h-.04v34h.04zm-.04 0 12.7-11.3a12 12 0 0 1 2.91 6.75 10 10 0 0 1-.34 3.96c-.1.27-.1.2.33-.63l.73-1.4c.3-.56.68-1.32 1.07-2.15l-15.45-7.11-15.44-7.1c-.2.42-.28.53-1.12 2.14a38 38 0 0 0-2.38 5.49c-1.66 5-3.04 14.4 4.28 22.64zm1.95-11.88 15.86 6.13c.26-.68.75-1.39 2.01-2.12 1.4-.82 3.56-1.51 6.2-1.66l-.98-16.97-.98-16.98c-13.4.78-30.98 7.4-37.97 25.48zm23.1-14.62 16.78 2.68c.12-.75.61-2.4 1.61-4.4.46-.9.93-1.71 1.34-2.33.45-.67.67-.88.57-.78l-12.22-11.82-12.22-11.82c-3.23 3.33-5.92 7.64-7.89 11.57-2 4-3.93 9.02-4.76 14.2zm8.08-16.65 11.17 12.82a14 14 0 0 1 4.28-2.67l-5.73-16-5.73-16.01a48 48 0 0 0-15.16 9.04zm9.72-5.86 5.01 16.25c-1.64.5-3.47.71-5.34.53l1.65-16.92 1.65-16.92c-2.7-.26-5.41.03-7.99.82zm66.3 370.57-6.06-15.88q-.75.3-1.5.54l5.54 16.08 5.54 16.07q1.28-.44 2.55-.93zm-2.02.74-5.46-16.1q-1.36.46-2.99.84l3.87 16.55 3.87 16.56a66 66 0 0 0 6.17-1.75zm-4.58 1.3-5.06-16.24-.35.1 4.94 16.28L347 505.3c.04 0 .35-.1.6-.18zm-.47.14 3.77 16.57 1.62-.38-4.05-16.5-4.05-16.52-1.06.25zm1.34-.32 4.38 16.43a67 67 0 0 0 7.24-2.32l-6.2-15.84-6.18-15.83c-.94.37-2.1.73-3.62 1.13zm5.43-1.73 6.59 15.68.4-.18.04-.02h.01l-.06.03-6.68-15.64-6.67-15.63-.22.09-.1.05.1-.05zm74.16-35.47-11.92-12.12c-3.44 3.37-9.4 5.57-18.63 6.04l.87 16.97.86 16.98c12.57-.64 28.57-3.8 40.73-15.74zm-29.68 10.9.12 17q3.3-.02 6.65-.32l-1.5-16.93-1.49-16.94q-1.91.17-3.9.18zm5.28-.25 1.64 16.92q3.96-.38 8.06-1.22l-3.46-16.64-3.46-16.64q-2.09.42-4.43.65zm6.24-.94 3.63 16.6a69 69 0 0 0 7.68-2.13l-5.53-16.08-5.54-16.07q-1.8.62-3.87 1.07zm5.78-1.6 5.88 15.94q2.7-1 5.33-2.24l-7.31-15.35-7.3-15.35q-1.23.59-2.5 1.05zm3.9-1.65 7.7 15.15q2.5-1.25 4.94-2.84l-9.25-14.26-9.24-14.27q-.86.56-1.86 1.07zm3.4-1.95 9.64 14a53 53 0 0 0 3.9-2.96l-10.88-13.06-10.88-13.06q-.63.52-1.43 1.08zm2.66-2.02 11.47 12.55q1.63-1.49 3.1-3.11l-12.54-11.47-12.54-11.47q-.46.5-.96.96zm2.03-2.03 12.82 11.16.73-.86L423 451.53l-13.17-10.75-.04.04zm12.35-7.91v17h.02v-34h-.02zm.02 0h17v-.12h-34v.12zm0-.12-16.74-3-.07.41v.08q0 .01 0 0l.03-.27.12-.58 16.64 3.48 16.64 3.48.12-.65.05-.32v-.04.05l-.06.34zm.06-.3-16.67-3.35a16 16 0 0 1 .37-1.5l.06-.2.05-.16.02-.05.01-.03v-.03.03l-.01.04-.02.05-.05.16-.06.21-.08.27a16 16 0 0 0-.29 1.2zl16.67 3.36a16 16 0 0 1-.36 1.46l-.07.21-.05.16-.02.09-.01.02v-.02l.03-.09.2-.64a15 15 0 0 0 .29-1.22zm0 0 17 .3-.02.52-.01.11v.02-.01l.03-.99h-34l.01-.67v-.19l.01-.08v.14l-.02.55zm0-.05h-17v.04h34v-.04zM241.8 399.95l-9.33-14.2a16 16 0 0 1 3.8-1.85l5.38 16.13 5.37 16.13c1.78-.6 3.14-1.36 4.1-2zm-.15.08 7.67 15.17h.01l.03-.02-7.56-15.23-7.56-15.22-.27.13zm.19-.1 7.53 15.25.06-.03.04-.02.02-.01h.01-.03l-.03.02-.06.03-7.5-15.25-7.5-15.26-.12.06-.05.02h.02l.07-.04zm.04-.01 6.72 15.61.07-.03.03-.01h-.02l-6.76-15.6-6.75-15.6-.05.03h-.01l.05-.02zm.04-.02-7.36-15.32h-.01l.08-.04.46-.2 6.75 15.6 6.75 15.6.7-.32zm-28.28-9.84-1.09-16.97c-4.26.28-8.43 1-11.35 1.46l2.68 16.79 2.67 16.79c3.57-.57 5.9-.96 8.19-1.1zm-9.76 1.28.56 17a73 73 0 0 0 12.73-1.65l-3.53-16.63-3.52-16.63c-2.6.55-4.8.85-6.8.92zm111.61-4.22-16.84 2.35c.13.88.22 1.8.35 3.09l16.91-1.74 16.91-1.74c-.1-1.08-.27-2.69-.5-4.3zm.42 3.7 17 .55.08-2.88-17-.5-16.99-.5-.08 2.78zm.09-2.83 13.65-10.13q.84 1.16 1.28 2.15l-15.44 7.11-15.44 7.12q.89 1.95 2.3 3.87zm-127.88-7.31-13.9 9.78c-.1-.15-.3-.42-.51-.78l14.58-8.75 14.57-8.74q-.5-.81-.84-1.3zm.17.25-14.36 9.11c-.25-.4-.59-1.01-.9-1.81l15.9-6.02 15.9-6.02a24 24 0 0 0-2.19-4.37zm.65 1.28 12.54 11.48c.38-.43.98-1.09 1.61-1.87l-13.23-10.67-13.24-10.67q.05-.06 0 0l-.22.25zm.92-1.06 5.78-15.98a28 28 0 0 0-4.3-1.19l-3.22 16.7-3.22 16.69q-.33-.06-.83-.23zm110.8-209.52 5.63 16.04.22-.07-5.61-16.05-5.61-16.05-.28.1zm.24-.08 10.75-13.17c.13.1.43.36.8.7l-11.71 12.33-11.71 12.32q.73.68 1.12.99zm-.16-.14 11.93-12.11q.57.57.95 1.04l-13.16 10.76-13.17 10.76q.64.78 1.51 1.65zm-.28-.31-15.93 5.94.1.3 16.02-5.7 16.02-5.71-.28-.77zm-22.3-9.33-8.24-14.87-1.27.7 8.03 14.97 8.04 14.99 1.7-.92zm-1.48.8-8.44-14.75q-.52.3-1.08.56l7.26 15.37 7.26 15.38a50 50 0 0 0 3.44-1.8zm-2.26 1.18 4.72 16.33c2.42-.7 7.02-2.26 11.04-6.28l-12.01-12.03-12.02-12.03a10 10 0 0 1 2.67-1.95c.6-.3.98-.4.88-.37zm13.02-10.55-10.59 13.3.02.02.04.03.07.06 10.68-13.23 10.67-13.23-.31-.25zm.22.18 16.67-3.34q.06.25.15.98l-16.89 1.95-16.89 1.95q.14 1.14.29 1.8zm-.07-.4-14.18-9.39-.1.15 14.13 9.46 14.12 9.46.21-.31zm-3.55-28.34-5.46-16.1q-.98.34-1.95.73l6.5 15.71 6.5 15.71-.13.05zm-.91.34-5 16.25a9 9 0 0 1-3.43-1.96l11.56-12.47 11.55-12.47a25 25 0 0 0-9.68-5.6zm3.13 1.82 13.12-10.8q.02 0 0 0l-.06-.07-.32-.39-12.93 11.03-12.94 11.03-.06-.07-.04-.05-.02-.03H273l.02.01.01.02.04.05.06.07zm-.2-.23 13.64-10.15c-2.07-2.79-4.68-4.76-4.94-4.97l-10.72 13.2-10.73 13.18.4.33q.1.08-.02-.03c-.13-.12-.65-.6-1.26-1.4z" mask="url(#crests-logs-path-1-outside-1_35_2047)"/></g><path fill="#b56c45" d="M371.43 336.26c0 12.34 0 24.7-.36 37.05-.45 7.72-1.02 16.83-6.96 22.5-3.74 2.77-7.42 6.7-12.38 6.72-4.13-.29-8.3.3-12.43-.27-4.9-.87-10.1-4.43-10.94-9.6-1.48-13.17-.28-26.53-.6-39.79q.12-12.33.03-24.65c0-3.5-.22-9.39 4.52-9.63a3 3 0 0 1 2.36 1.01c2.76-5.28 7.15-10.35 13.38-11.18 5.26-.25 11-.1 15.72 2.5 8.05 5.49 7.54 16.67 7.66 25.34m-60.54 6.05c2.44 12.12 1.34 24.83.32 37.11-.6 5.41-.55 10.86-1.77 16.19-2.9 9.07-10.12 19.13-20.45 19.52-6.47.06-12.88-2.34-18-6.24-4.98-3.46-5.47-10.13-5.23-15.68.13-5.63.05-11.28.1-16.92-1.1-5.33-.42-10.78-.04-16.14.25-4.11-1.84-14.56 4.24-14.64 2.6-7.49 7.62-16.05 16.34-16.8 5.31-.67 11.19-.77 15.52 2.85 3.92 2.68 8.1 5.75 8.97 10.75"/><path fill="#fff" d="M255.51 420.66c-.6-9.03-4.41-27.13 4.03-32.9 2.88-1.71 6.46-2.12 9.9-1.91h-.04a2.1 2.1 0 0 0-1.26 2.1c.1.92.81 1.64 1.7 1.8q.3.05.6.04.48.33 1.1.34h.2q1.24-.02 2.48-.16.26-.01.5-.12l1.35-.1h-.28l.46-.02h.13-.02.44-.28c1.3-.06 2.6-.08 3.9-.18h.1c1.12.06 2.24 0 3.32-.3a2.1 2.1 0 0 0 1.5-1.68l1.85-.32a93 93 0 0 0 6.2-1.26q1.62-.42 3.24-.8l.98-.22.32.43c.49.5 1.22.73 1.93.65a7 7 0 0 0 2.36-.88c.7-.36 1.34-.77 2.01-1.2h-.04q.9-.54 1.81-1.12l-.22.15q1.9-1.15 3.78-2.32a43 43 0 0 0 2.56-1.75c3.66 2.9 3.42 10.64 4.2 15.09.1 7.2.4 14.6-.35 21.76-1.2 8.23-1.55 17.24-7.12 23.95-2.32 3.15-4.31 6.9-8.16 8.36-4.43 1.38-8.9 3.35-13.62 3.2h-1.2c-20.78 0-27.53-11.1-30.34-30.65zm89.76 2.77c-11.81.14-22.16-5.82-21.8-18.75-.77-12.59-.14-25.64-1.3-38.1-2.26-3.34.98-8.49 4.94-6.35l.92.26c-.75.88-.53 2.42.5 3.03.6.35 1.2.33 1.86.29l.26.02q2.75.38 5.53.63a47 47 0 0 0 6.1.06 52 52 0 0 0 10.74-2H353l.18-.05h.08a53 53 0 0 0 6.1-2.24l.14-.06.57-.27c.05 0 .07-.04.1-.04h.05q-.07.01-.15.06-.02-.01-.04.04l.25-.1h-.06.08v-.04l.1-.04-.1.04c2-.9 4.02-1.69 5.94-2.74.95-.55 1.85-1.2 2.62-2 .5-.52.87-1.11 1.3-1.7l.08-.04.4-.19a2.05 2.05 0 0 0 1.05-2.68c-.15-.33-.4-.61-.65-.82 1.28.15 2.56 1.06 3.82 3.16 4.5 10.35.59 22.1.5 32.96-1.66 19.13-5.79 37.74-28.26 37.74q-.9.01-1.83-.04z"/><path fill="#fff" d="M314.17 490.07a117 117 0 0 1-19.57-3.9 109 109 0 0 1-17.6-6.82 79 79 0 0 1-16.13-10.29c-8.58-7.14-16.86-18.24-13.77-30.07a20 20 0 0 1 2.26-5.4 28 28 0 0 1 2.21-3.06l.43-.53c1.4-1.6 3.87-1.24 5.09.36a4.8 4.8 0 0 1-.29 5.98q-.3.31-.57.65-.53.68-1.02 1.4-.37.65-.7 1.29-.26.58-.47 1.18-.22.72-.37 1.46l-.14 1.2.02 1.55q.06.7.18 1.4.22 1 .53 2 .42 1.2.98 2.37.72 1.43 1.58 2.79 1.22 1.82 2.67 3.51a47 47 0 0 0 4.43 4.42c2.46 2.11 5.06 4 7.66 5.69l.2.12.09.04a93 93 0 0 0 11.61 6.14 115 115 0 0 0 16.61 5.68l.37.1a114 114 0 0 0 17.9 2.93c4.75.34 9.55.32 14.31-.1 3.38-.35 6.69-.9 9.96-1.75a47 47 0 0 0 6.19-2.16q2.16-1.02 4.2-2.32 1.31-.9 2.53-1.95.86-.79 1.58-1.67.58-.73 1.1-1.52.44-.74.81-1.5.22-.48.37-.98.2-.74.37-1.5.1-.63.14-1.27v-1.3a19 19 0 0 0-.25-1.83q-.21-.96-.52-1.93-.4-1.07-.88-2.12-.75-1.5-1.67-2.9a33 33 0 0 0-1.75-2.34 4.8 4.8 0 0 1-.34-5.88 3.4 3.4 0 0 1 3.23-1.44c1.08.18 2.04.93 2.55 1.9.8 1.19 1.68 2.33 2.48 3.55a28 28 0 0 1 2.82 5.77c1.6 4.64 1.95 9.48.47 14.2-1.67 5.32-5.63 9.41-10.25 12.38a40 40 0 0 1-8.7 4c-3.42 1.16-7 1.9-10.56 2.4q-5.55.78-11.16.76t-11.22-.63z"/><path fill="#fff" d="M311.37 483.23c-18.67-4.27-38-10.43-52.32-23.73-5.1-6.04-12.5-14.54-9.25-22.91-1.08-3.83 2.23-7.26 5.2-9.17 1.81-1.27 4.03-1.35 6.19-1.43 1.26-.04 2.48.2 3.37 1.18 2.73 2.89.6 8.07-3.46 7.95.45 1.93-.42 4.33-2.4 5.02-.69.25-1.38.23-1.97 0l-.63.66c6.43 19.31 28.75 26.43 46.49 31.84 9.27 3.84 19.25 2.07 29.02 2.22 5.34-.72 10.43-2.73 15.88-2.4 6.75-2.9 5.91-7.71 6.73-13.85.73-3.17.48-7.32 3.74-9.1 4.06-2.05 6.77 4.32 3.9 6.98a51 51 0 0 0-1.44 11.9c-.92 4.76-4.9 8.54-8.89 11-2.58 1.77-5.7 1.47-8.66 1.49-10.25 2.92-20.94 2.35-31.5 2.33z"/><path fill="#fff" d="M383.61 462.4a110 110 0 0 1-25.07-4.16c-2.4.4-4.35-1.55-4.46-3.88-5.04-3.18-1.95-10.15 2.49-12.35 4.3-2.88 9.65-2.94 14.57-4 4.25-.94 8.44-2.22 12.71-3.1 11.37-1.44 21.62-6.13 32.54-8.96 13.12-1.32 15.45 13.8 9.2 22.7-9.93 12.54-27.01 14.43-41.96 13.78zm5.51-20.37c-7.91 1.29-15.51 3.93-23.47 5.03 8.77-.8 17.57-1.92 26.38-1.39 4.23-1.13 8.38-1.97 12.34-3.72 1.4-.65 2.93-1.1 3.5-2.66.94-1.63 2.9-2.42 4.55-1.43q3.18-1.76 6.25-3.66c-9.9 1.14-19.42 6.61-29.55 7.85z"/><path fill="#fff" d="M302.76 488.6c-9.45-2.04-18.3-5.92-27-10.05-8.66-3.82-17.8-8.21-22.94-16.49-4.13-4.98-8.99-10.25-8.4-17.1.88-5.02 3.22-10.55 6.63-14.23.9-1 1.73-2 2.52-3.1 2.91-3.15 7.12.78 5.94 4.3-1.12 2.92-4 4.65-5.55 7.36-1.2 2.68-3.2 6.01-2 8.92 3.77 5.7 7.78 11.72 13.33 15.8a161 161 0 0 0 35.03 15.56c8.1 2.01 16.3 4.74 24.75 3.9 11.83-.38 24.08-4.17 33.08-12.03 1.1-2.69 2.67-5.21 2.45-8.28.1-3.62-1.7-7.91.46-11.14.84-1.83 2.77-2.75 4.66-1.85 3.76 2.78 3.7 9.33 3.09 13.58.1 3.99-6.1 18.93-10.8 17.83-16.14 10.68-36.9 13-55.23 7.02z"/><path fill="#88bdff" d="M408.38 395.96c9.74 6.75 14.2 18.7 13.55 30.28a33 33 0 0 1-1.26 5.43c.73 2.03 0 4.65-2.04 5.59a21 21 0 0 1-4.98 4.19c-8.78 6.5-20.44 8.9-31.15 8.13a60 60 0 0 1-21.05-4.06c.53 2.86.8 9.66-.5 14.45q.06.7-.05 1.37c.19.7.19 1.5-.04 2.31-.73 2.69-3.44 4.17-5.57 5.7a34 34 0 0 1-11.08 5.3c-6.04 2.5-12.33 5.21-19.04 4.52-4.63-.37-9.27-.1-13.9-.43-6.47-.47-12.61-2.74-18.7-4.86-15.08-5.02-29.15-13.5-38.3-26.68a4.8 4.8 0 0 1-.9-6.06c.08-6.2 5.19-16.16 7.3-18.78 3.46-5.03 8.54-.98 7.12 4.14-.18 2.8.57 5.62 1.79 8.14.87 2.03 1.46 4.6 3.72 5.55 5 2.64 10.27 1.28 15.41.04 2.18-.92 3.6-2.89 4.76-4.86a19 19 0 0 0-1.93-3.25c-1.53-2.79-4.31-5.6-3.46-9.01 2.59-8.67 20.36-9.68 27.52-7.22 2.13-.51 3.66 1 4.16 2.87 1.37-8-.77-17.5 5.3-23.84 7.13-3.62 6.46 8.93 9.08 12.75 2.93 6.94 12.35 5.09 17.35 1.61 1.07-2.6.18-5.75 1.38-8.4q.2-.52.47-.95c-1.38-2.5-3.21-4.78-4.07-7.49-.32-2.88 1.42-4.86 3.34-5.3 2.8-3.14 8.23-5.74 11.18-6.37 7.32-1.18 17.32-2.22 22.61 4.05.71 1.12.78 2.64.29 3.94-.15 1.2-.43 2.4-.7 3.42 7.53-1.55 15.68.3 22.4 3.82z"/><path fill="#88bdff" d="M315.23 425.42q0-1.39-.08-2.78-.14-2-.4-3.99c-3.7-.3-7 1.14-10.48 2.06-3.74.73-6.58 3.06-9.13 5.7a3.42 3.42 0 0 1-5-1.3c-2.32-4.59 2.99-7.7 6.2-9.94a42 42 0 0 1 20.11-4.92c6.86.82 5.27 10.17 5.88 15.15-.04 5.47-7.01 5.5-7.1 0z"/><path fill="#fff" d="M327.53 474.63c-5.22-5.92-3.09-18.99-.38-25.84 3.33-8.79 6.91-18.65 15.7-23.35 3.27-1.9 8.25-4.55 9.57.88q.51.14 1 .47 1.05.76 1.48 1.78c4.27-1.18 5.4 4.05 4.23 7.14 3.4.39 3.79 4.58 3.12 7.24 4.81 2.12 2.35 8.66 1.8 12.65-.4 2.1-.83 4.19-1.05 5.71-.19 1.39-.2 2.67-1.2 3.72a3.2 3.2 0 0 1-4.4.4c-1.38 3.57-5.67 8.65-8.86 3.7-1 1.56-2.3 3-4.19 2.96a3.6 3.6 0 0 1-3.05-1.9q-.64.65-1.5 1.05a3.1 3.1 0 0 1-3.3-.65c-1.04 1.97-2.66 4.8-5.29 4.12-1.1.74-2.6.68-3.7-.08zm-66.76-18.58a3.7 3.7 0 0 1-2.78-2.25 6 6 0 0 1-.43-2.59c-2.68-1.75-2.28-5.39-2.2-8.2-2.58-1.82-1.52-5.14-.73-7.62.7-2.2 1.27-5.16 3.75-5.91-.51-7.45 8.96-7.06 7.24.3a33.7 33.7 0 0 1 .2 19.44c-.9 2.62-1.36 7.18-5.06 6.83zm131.07-6.69c-3.77-3.72-3.4-9.8-3.79-14.72-.26-7.81.88-16.19 3.85-23.02a37 37 0 0 1 5.9-9.64c2.7-3.56 6.64-5.98 8.7-9.92q.22-.24.44-.41.48.8 1.12 1.5c1.22 1.35 2.8 2.2 4.52 2.75-.06.47-.2.96-.45 1.38q.16.43.22.86c1.94.5 2.81 2.62 2.77 4.45 4.72.65 3.42 6.69 2.5 9.92 3.46 1.14 3.03 5.41 2.52 8.28 3.8 1.5 2.34 6.49 1.59 9.33-1.2 3.85-3.15 12.3-8.73 9.42-1.34 4.35-5.8 8.25-8.6 2.62-.44.29-.93.43-1.46.6-.63.17-1.24.1-1.77-.13l-.4.65a4.7 4.7 0 0 1-3.16 2.28c-.14 2.13-1.91 4.43-3.96 4.43a3 3 0 0 1-1.81-.63m-62.72-30.64a3.6 3.6 0 0 1-2.5-1.77 3.2 3.2 0 0 1-1.91-1.12c-4.64.22-4.23-5.47-3.8-8.64-1.63-2.3-.3-4.76 1.01-6.86.19-3.88 3.99-7.56 6.88-3.41 4.15.38 3.9 5.5 3.23 8.58 1.32 1.36 1.53 3.41 1.36 5.22 2.55 3.22-.7 8.3-4.25 8z"/><path fill="#6b7230" d="M260.96 166.44c-12 .12-21.61-3.13-10.67-15.23 7.83-8.38 21.23-8.08 30.1-1.49 3.04-.32 4.67 3.5 3.51 6-.59 3.42-4.41 5.35-7.22 6.85-4.8 2.75-10.19 4.25-15.74 3.87z"/><path fill="#b66d46" d="M299.02 187.33c-5.65-.88-2.87-8.2-4.66-11.98-2.76-7.12-7.52-13.83-14.37-17.43-4.07-1.28-3.03-8.93 1.52-8.21 3.2 1.13 5.84 3.33 8.36 5.55a41.5 41.5 0 0 1 11.85 19.93c.45 2.66.61 5.36 1.26 7.95 0 2.11-1.66 4.57-3.96 4.2z"/><path fill="#939f34" d="M279.04 159.01c-9.23-4.83-12.16-18.48-7.32-27.43 1.75-3.35 4.13-7.3 8.46-7 9.96-.16 11.06 12.94 10.61 20.44-.3 3.85-2.52 7.04-4.68 10.09a5.8 5.8 0 0 1-3.7 2.42c-.77 1.08-2.05 1.77-3.37 1.48"/><path fill="#9c583b" d="M447.82 232.28c4.9-.12 11.08-.61 10.68 6.2-.19 1.83-1.38 3.42-2.22 5-1.54 3.89-2.26 8.18-4.94 11.53 1.65 1.91 2.4 4.35 2.73 6.81.91 3.5.77 7.18-1.84 9.95 4.2 4.5 5.58 12.9-1.87 14.78 1.49 1.9 1.8 4.21 2.73 6.33 1.44 2.1 2 4.98.26 7.1-9.6 11.9-24.97 15.04-38.94 19.4l-11.06 4.71c-15.13 6.43-30.24 12.9-45.37 19.3q-23.51 9.98-47.03 20c-15.56 6.64-31.13 13.25-46.69 19.92q-6.75 2.88-13.48 5.79l-5.27 2.26c-1.1 1.18-2.8 1.93-4.41 2.36-4.4 1.34-8.97 2.27-13.56 1.85-3.97.24-9.01-.35-8.56-5.5-9.89-.8-19.36 3.28-29.27 2.12-2.93.5-5.45-1.36-4.71-4.47.79-2.67 3.17-4.48 4.86-6.57-5.74-2.07-11.72 1.12-17.51-.39-4.35-1.38-9.64-4.74-9.68-9.8 0-1.62.59-3.21.95-4.82-2.86-.5-6.42-1.97-6.06-5.49.29-2.7 2.65-4.45 3.83-6.77-2.06-1.4-4.86-1.08-6.71-2.83-4.1-5.12 3.5-9.6 5.49-13.86l-.04-.1c-2.5-2.04-5.86-1.98-8.63-3.38-4.51-2.46-2.86-7.18-.38-10.5-4.88-4.16-3.07-8.51.71-12.62-4.35-2.08-7.77-7.06-4.31-11.47-4.15-5.33-.14-12.57 5.53-14.74-.4-4.4 4.72-5.56 7.32-8.04-9.05-5.24-9.48-9.5-1.83-14.78a3.9 3.9 0 0 1 2.3-2.5l.24-.1.27-.12v.04c3.09-1.18 6.16-2.46 9.2-3.75q5.47-2.22 10.87-4.51c7.18-3 14.4-5.96 21.57-8.95q22.08-9.17 44.19-18.26 18.67-7.7 37.33-15.43c.88-1.2 1.71-2.42 2.42-3.74q.61-1.72 1.18-3.46c2.02-6.04 2.63-11.67 3.15-17.83.23-3.11.6-6.67 3.1-8.85 5.28-2.38 11.06-3.96 16.5-5.98q.31 0 .62.04c1.85-.24 2.93.55 3.5 1.9 2.66 3.66.42 11.5.26 15.57-.26 3.15-.1 6.3.59 9.38l23.28-9.7 42.9-17.88c5.7-2.36 11.42-4.64 17.05-7.16q.2-.13.43-.22c1-.55 2.07-.37 2.96.2q.8.12 1.63.65c2.5 2.06 1.75 5.74 1.91 8.6 9.2-4.3 15.54 1.35 11.13 10.86a6 6 0 0 1 2.48 2.46c.32.62.57 1.33.69 2.04 5.5-1.08 10.35 2.54 9.41 8.38-.34 2.42-1.66 4.61-2.42 6.93a23.5 23.5 0 0 1 10.54 6.34c1.89 2.45 1.18 5.84-.14 8.38 5.4 2.52 2.72 7.9 2.11 12.22.28.96.47 2.34 1.36 2.9 2.18.89 4.27 2.15 6.67 2.3z"/><path fill="#d5a880" d="m250.11 291.15.04-.06q-.01.07-.06.14l.02-.06zm.08 38.57q.01.02.06.04-.01-.02-.06-.04m-.16 4.09-.02.02zm14.07-2.29.26-.75v.14l-.24.63zm-20.8 20.31-.1.06zm-.59.33-.16.1zm-21.35-99.86s.04.02.04.04l-.06-.04zm-.25 14.97s-.12.05-.2.05l-.23.04.41-.1zm-2.01.47-.16.04q.08 0 .16-.04m27.18 47.65v-.02q-.01.05-.05.1 0-.03.03-.06zm-.5.89-.04.08zm-7.19 51.3s.06 0 .08-.02q-.07.01-.14.06l.04-.02zm-.64.38.06-.02q-.02-.01-.06.04z"/><path fill="#d5a880" d="M196.04 379.87c-6.37-3.26-11.92-8.08-16.5-13.53l-.73-.89c-10.08-12.49-15.55-28.25-16.96-44.15a86 86 0 0 1 4.32-35.8c4.84-13.5 13.42-25.97 26.33-32.83a41 41 0 0 1 10.57-3.86l.29.14c.38.17.83.23 1.24.35q.94.27 1.89.49 1.14.36 2.32.59c1 .18 2.01.28 3 .44 1.06.2 2.08.47 3.14.61.81.1 1.63.14 2.44.27l1.12.26q.64.12 1.28.18-.71 1-1.32 2.06a19 19 0 0 0-1.53 3.94l.08-.26-.38 1.24v-.04c-.29.93-.55 1.87-.92 2.76q-.51 1.34-.93 2.75l-.25.83c-.24 1 .04 1.95.94 2.52q.55.34 1.2.33c.85 0 1.77-.35 2.52-.53h-.04l1.73-.38.97-.23q.06 0 .1-.02h-.06.17q.9-.2 1.85-.3c.97-.08 1.95-.05 2.9-.08l1.65-.1q.01.84-.04 1.7c-.12 1.16-.3 2.32-.4 3.48q-.06.54 0 1.1.03.21.1.42a2 2 0 0 0 .32 1c.65 1 1.97 1.3 3.07 1.5q1.12.22 2.26.33a121 121 0 0 0 6.2.45l-.1.44-.7 2.67q-.7 1.3-1.36 2.66c-.42.94-.77 1.93-.38 2.91q.26.84 1.08 1.24 0 .02.04.04c.36.45.97.67 1.48.9h.02q.42.28.86.54c.83.43 1.79.55 2.7.68h-.08q.37.06.75.08l1.1.26.43.12q.26.13.53.2 1.09.45 2.21.82a19 19 0 0 1 1.6.81q0 .06-.03.1 0 .04-.04.07-.06.15-.16.3-.66 1.05-1.4 2.06-1.49 1.87-3.1 3.62-1.07 1.09-2.11 2.21c-.63.65-1.35 1.3-1.87 2.08-.29.42-.51.83-.6 1.34-.1.73.25 1.58.88 1.99q.16.12.34.2.56.36 1.14.66h-.04l-.18-.13.22.13q1.21.65 2.44 1.28c.67.32 1.35.6 2 .95q.26.14.53.33l.36.3.81.75q0 .08-.06.17-.25.63-.54 1.28-.24.44-.5.85c-.4.61-.89 1.2-1.23 1.87-.33.65-.51 1.35-.8 2.02q-.2.4-.42.79l-.04.06c-.57.94-1.3 1.81-.86 2.99.29.8.96 1.14 1.73 1.38q.7.23 1.42.49 1.1.4 2.18.77-.61.94-1.16 1.96a8 8 0 0 0-.94 2.68c-.08.83.15 1.67.8 2.26.42.38.9.73 1.34 1.07l.45.43q.14.15.28.35l.06.08.09.24.03.17-.03-.15.06.4q.01-.12-.05-.25.05.36.05.73v.06l-.09.22-.14.29q-.43.69-.91 1.32v-.04l-.02.04-.02.04h.02l-.04.02-1.9 2.32c-.54.69-1.13 1.36-1.58 2.13q-.25.44-.37.9a19 19 0 0 0-1.3 1.28l-.18.2.06-.06q-.2.26-.43.5l-.04.05-.04.04v-.02c-.45.5-1 1.04-1.26 1.67q-.26.27-.45.6c-.47.9-.26 1.86.41 2.57.47.5 1.24.65 1.9.77a18 18 0 0 1 3.16 1 24 24 0 0 1-2.2 2.2q-.23.16-.44.38l-.73.6q-.68.47-1.38.87-.09.03-.15.08l-.06.04-.34.2q-.62.32-1.12.75-.22.2-.41.47-.3.14-.59.39c-.18.16-.4.34-.55.57q-.26.43-.34.9a2.1 2.1 0 0 0-.2 1.8c.16.53.54.92.93 1.28l1.1 1.02a59 59 0 0 1 2.15 2l.29.3c-.96.91-1.94 1.83-2.83 2.82a10 10 0 0 0-1.59 2.2q-.68.54-1.32 1.14-.06.01-.1.06-.06.03-.1.08l-.27.14.1-.04a2.1 2.1 0 0 0-1.17 1.93c0 .94.63 1.57 1.34 2.08l1.91 1.34q-.95 1.16-1.75 2.44c-.57.9-1.2 1.85-1.58 2.87a41 41 0 0 1-18.61 6.02q-1.15.07-2.3.08A43 43 0 0 1 196 379.9z"/><path fill="#fff" d="M295.64 278.89h-.04l-.06.02q.05 0 .1-.04z"/><path fill="#fff" d="M318.62 321.27a37.2 37.2 0 0 1-22.58-8.73c-6.65-5.5-11.06-13.54-12.6-22a36 36 0 0 1-.6-5.94q1.77-.82 3.52-1.67c1.63-.79 3.28-1.52 4.88-2.35l-.12.06 1.85-.92c.86-.18 1.71-.47 2.52-.77h-.02.04q.06 0 .1-.04l.13-.04-.08.02.34-.14q.1-.05.23-.08h-.05c3.83-1.43 7.57-3.12 11.35-4.7 3.54-1.5 7.08-2.97 10.62-4.5l2.25-.97.27-.1 1.42-.63q4.8-2.09 9.62-4.13a338 338 0 0 1 6.24-2.56q.54.17 1.06.04c1.81-.55 3.54-1.35 5.29-2.06q1.16-.49 2.34-.95a39 39 0 0 1 6.46 9.65c3.46 7.35 4.23 15.58 2.83 23.35l-.04.26-.04.17a38 38 0 0 1-13.12 21.57 36.4 36.4 0 0 1-23 8.18zm50.4-71.44s-.1.04-.16.04z"/><path fill="#fff" d="M370.2 303.74a37.2 37.2 0 0 1-22.57-8.73c-6.65-5.5-11.06-13.54-12.6-22a38 38 0 0 1-.41-10.6q1.65-.67 3.29-1.31.52.17 1.08.04c1.8-.55 3.53-1.34 5.28-2.06q1.4-.58 2.83-1.13l1.12-.43q.56-.08 1.14-.23 1.06-.3 2.13-.67.7-.24 1.43-.53l3.64-1.46c1.87-.73 3.74-1.53 5.59-2.3l.2-.08q3.66-1.28 7.36-2.52 5.89-1.99 11.84-3.88l6.65-2.1 3.3-1.04 2.06-.67c.82-.26 1.65-.5 2.43-.9a2.1 2.1 0 0 0 1.2-1.6l.24.25a38 38 0 0 1 7.26 10.47 38.7 38.7 0 0 1 2.82 23.34l-.04.27-.04.16a38 38 0 0 1-13.11 21.58 36.4 36.4 0 0 1-23 8.17l-1.1-.02z"/><path fill="#000" d="m325.25 269.42-.08.04zm-5.52 32.33.17.01zm-17.04 16.81a27 27 0 0 1-9.38-6.34 27.3 27.3 0 0 1-7.48-19.52c3.03-1.71 6.06-3.44 9.13-5.05a221 221 0 0 1 9.84-4.88l.43-.18.26-.12-.08.04q2.56-1.14 5.08-2.32h-.02q3.74-1.67 7.5-3.27c2.65-1.14 5.34-2.26 7.98-3.38l-.14.08c.36-.16.77-.28 1.14-.47.26-.1.52-.24.79-.34l1.85-.77a31 31 0 0 1 3.25 3.23q.25.17.5.45l.1.12.24.28.28.43q.66 1 1.3 2.03a28.3 28.3 0 0 1 3.86 17.14q-.42 4.37-2.13 8.34h-.14l-.53-.08h.08l-.69-.1q.15 0 .26.04l-.3-.04-.33-.04-.59-.08q.13 0 .27.04-.26-.03-.51-.08.13 0 .26.04l-.24-.04-.45-.06q-.28-.02-.57-.09.14.01.27.05c-.14 0-.29-.05-.43-.06q.13 0 .26.04l-.97-.15q.13 0 .26.04l-1.07-.14.26.04-.43-.06q.13 0 .27.04l-.57-.08q.15 0 .26.04l-.6-.08q.12 0 .26.04l-1.39-.18h-.04.04q-.19-.01-.4-.06.13 0 .26.04-.31-.06-.63-.08.13 0 .27.04l-.63-.09h.06-.21q-.2 0-.44-.06h.06-.08q-.13 0-.27-.04.13 0 .26.04l-.48-.06h-.21.05q-.12 0-.2-.02h-.25.04-.02.06l-.53-.08.26.04-.52-.08h.12-.14.02-.13.06-.06l-.38-.06q.13 0 .26.04l-.6-.08q.12 0 .26.04-.26-.02-.51-.08.15 0 .26.04l-.24-.04-.37-.04-.47-.06.27.04-.55-.08.26.04-1.38-.19q.13 0 .27.05l-.53-.09.26.04-.9-.12q.14 0 .27.04l-.59-.08q.13 0 .26.04l-.79-.1h-.08.02-.14.1-.02.04q-.23-.01-.45-.06h-.2.02-.06.04l-.4-.04-.53-.08h-.05.05q-.1 0-.19-.02h.02-.06q-.15 0-.3-.04h.22-.22q-.1 0-.19-.02h-.24.24q-.25-.04-.55-.05-.4 0-.75.19h-.06c-1.1.28-1.7 1.4-1.44 2.48l.18.77q1.62 7.19 3.3 14.38-1.28.35-2.59.57a27 27 0 0 1-4.76.43c-3.27 0-6.52-.62-9.57-1.88zm44.42-49.26.3-.2v.11q-.06.25-.07.49 0 .67.32 1.24l.16.43q-.26-.01-.52.06c-.07-.72-.1-1.45-.19-2.16zm11.07 32.7a31 31 0 0 1-4.72-2.49l.29-1c.46-1.74.79-3.55.97-5.34q.64-6.24-.08-12.49a46 46 0 0 0-1.1-6.18c-.55-2.13-1.24-4.35-2.48-6.2q-.33-.49-.85-.7l4.55-2.41c2.1-1.1 4.21-2.12 6.33-3.15 1.95-.96 3.98-1.8 5.98-2.7.87-.42 1.8-.74 2.7-1.13q1.48-.6 2.95-1.22 2.9-1.08 5.8-2.24c1.25-.42 2.52-.91 3.78-1.34a29 29 0 0 1 6.01 5.27q.25.17.5.45l.1.12q.15.15.24.28l.28.43q.66 1 1.3 2.04a28.2 28.2 0 0 1 3.86 17.14l-.03.44c-3.03.3-6.04.68-9.05 1-3.3.37-6.59.8-9.88 1.1h-.17q-.29.01-.54.12a2.1 2.1 0 0 0-1.37 2.12q.06.47.3.87l-.26.18q1.82 3.06 3.68 6.08.02.01.04.08l-.04-.08.1.17v.02l5 8.3q-.58.39-1.2.72a27 27 0 0 1-8.63 3.12 27 27 0 0 1-4.76.42c-3.28 0-6.53-.6-9.58-1.87z"/><path fill="#9c583b" d="M276.8 287.55c-.64-2.07.18-4.41 2.17-5.35h.04c.88-.42 1.85-.7 2.75-1.07l5.73-2.26q5.45-2.15 10.9-4.4 11.07-4.48 22.19-8.92 24.02-9.6 47.97-19.38 8.27-3.37 16.55-6.8l8.84-3.61c1.45-.59 2.95-1.18 4.2-1.79q.55-.28 1.21-.3c2.22 0 3.68 1.99 3.76 4.06.08 1.8-1 3.97-2.86 4.31-2.34.82-4.64 1.8-6.94 2.73l-11.32 4.51q-11.44 4.56-22.86 9.2c-15.94 6.46-31.87 12.97-47.79 19.43l-15.78 6.39q-4.2 1.7-8.4 3.45-2.08.89-4.16 1.73c-.53.23-1.08.51-1.63.7q-.58.27-1.14.26c-1.59 0-3-1.44-3.44-2.9z"/><path fill="#4d2616" d="M283.19 301.8c-4.42-.27-8.73-3.75-9.5-8.18-.53-4.23 1.81-9.25 5.77-11.04 5.54-1.37 6.45 7.2 1.71 8.76-.14.2-.3.4-.36.63.77.71 1.95 1.73 3.05 1.28 1.93-.95 3.96.1 4.74 2.04 1.48 3.64-1.8 6.77-5.41 6.5"/><path fill="#4d2616" d="M281.72 298.09c-.5-2 .33-4.54 2.4-5.27l.77-.33q1.51-.58 3.01-1.13 2.68-1.04 5.35-2.12 5.86-2.3 11.7-4.62l23.07-9.2a7898 7898 0 0 0 47.18-18.9c5.12-2.07 10.25-4.1 15.35-6.22 2.14-.87 4.25-1.83 6.4-2.69 1.82-.73 3.63-1.4 5.42-2.2h.04c2.07-1.17 4.41.34 5 2.57.55 2.12-.5 4.92-2.77 5.39-.91.28-1.8.71-2.7 1.06-1.75.69-3.46 1.42-5.23 2.07a474 474 0 0 0-10.59 4.13c-7.91 3.15-15.82 6.26-23.71 9.44q-23.54 9.5-47.08 18.97-7.88 3.18-15.73 6.38l-7.45 3.05-3.56 1.45-1.24.52q-.17.09-.34.15-.4.17-.77.3-.53.19-1.02.19c-1.65 0-3.03-1.39-3.46-3z"/><path fill="#9c583b" d="M400.74 251.65c-2.64-2.02-1.95-6.9 1.43-7.67.8-.22 1.64-.61 1.97-1.44-.35-.88-1.37-1.22-2.24-.94-.5 1.85-2.58 3.33-4.51 2.58-3.42-1.38-3.5-6.22-1.08-8.56 1.56-1.73 4.07-2.4 6.3-2.54 7.5 0 11.37 10.1 6.53 15.55-1.81 2.24-5.61 4.87-8.4 3.02"/><path fill="#9c583b" d="M278.4 295.91c-1.49-1.95-.98-4.77.08-6.8 3.74-7.06 12.48-7.94 19.11-11 11.88-6.09 23.57-12.62 36.67-15.7 2.11-.64 3.96 1.01 4.25 3.08 9.66-4.3 19.7-7.66 29.4-11.83 4.23-1.12 8.52-1.95 12.49-3.9h-.04c-.02 0-.05 0-.43.2 6.7-3.3 13.99-5.3 20.31-9.36 1.18-.79 2.2-1.97 3.72-1.93 2.22-.06 3.6 2.26 3.6 4.23-.12 6.33-16.81 10.62-21.92 13.3-6.08 3.34-13.15 4.35-19.46 6.94a1232 1232 0 0 1-63.12 24.03 183 183 0 0 1-16.04 8.4c-2.72 1.1-6.32 3.42-8.62.37z"/><path fill="#dc5e32" d="M381.83 298.39c5.15 5.96 4.1 17.63 3.2 25.05-1.76 13.26-14.95 24.91-28.37 24.67-13.8-.47-27.05-10.96-30.73-24.18-.9-3.13-.37-6.9 1.79-9.33a3.5 3.5 0 0 1 1.87-1.67q.28-.12.59-.2c.06 0 .1-.05.18-.06h.08c2.53-.88 5.09-1.61 7.63-2.43 3.74-1.17 7.42-2.48 11.14-3.74 7.45-2.5 14.9-4.92 22.31-7.48 1.85-.63 3.74-1.2 5.55-1.97q.72-.44 1.55-.45c1.06 0 1.93.47 2.54 1.2q.37.22.67.59"/><path fill="#833418" d="M344.17 327.27c-2.26-1.28-2.56-4.45-1.14-6.44.73-1.04 1.8-1.39 2.95-1.67l2.76-.65c2.28-.55 4.54-1.1 6.51-1.61l.82-.2c1.28-.35 2.52-.84 3.78-1.28l3.62-1.27c1.36-.46 2.72-.89 4.02-1.44l.23-.08h.02c.38-.16.75-.24 1.22-.24 2.21 0 3.6 2.23 3.58 4.25 0 1.83-1.14 3.78-2.97 4.14-1.67.5-3.3 1.08-4.92 1.65q-2.42.84-4.86 1.65c-1.9.63-3.85 1.04-5.47 1.44l-.53.14q-2.48.65-4.94 1.33c-1 .26-2.08.69-3.14.69a3 3 0 0 1-1.56-.4z"/><path fill="#c45159" d="M359.08 334.67c-4.82.26-9.9-.83-13.21-4.57-1.43-1.8-3.24-3.83-2.87-6.29.32-3.46 4.68-5.57 6.7-2.15 2.9-1.45 6.5 1.15 9.42-.53 1.35-2.02 4.48-4.44 6.86-2.83.48-5.49 7.1-5.37 7.26.12.14 4.25-1.2 8.44-4.44 11.33-2.1 3.31-5.75 5.39-9.7 4.94z"/><path fill="#38190d" d="M322.7 360.9c-.38-1.96.51-4.32 2.53-4.95q.24-.1.48-.14h.07c13.05-4.41 25.98-9.13 38.98-13.75l4.06-1.46c.61-.22 1.29-.4 1.92-.65q.54-.4 1.28-.5c1.54-.35 3.21.58 3.94 2.13.98 2.03.4 5-1.8 5.96q-.48.2-.94.3c-5.27 1.79-10.5 3.7-15.76 5.51a1650 1650 0 0 0-27.68 9.86c-.91.33-1.8.75-2.74 1q-.4.1-.76.1c-1.78 0-3.23-1.65-3.55-3.37z"/><path fill="#7c452f" d="M276.88 395.24c-4.99-.27-10.21-1.34-14.2-4.48a3 3 0 0 1-.4-.3c-.17-.14-.29-.28-.31-.28l-.16-.19c-1.5-1.52-1.5-4.35-.19-5.96a3.3 3.3 0 0 1 4.7-.4l.08.08.2.18.43.37q.46.31.96.6.9.45 1.8.78a22 22 0 0 0 3.4.88h.03c2.11.32 4.22.46 5.83.46 3.2 0 6.39-.32 9.01-.79a62 62 0 0 0 9.33-2.44 45 45 0 0 0 6.4-2.89 31 31 0 0 0 3.6-2.38q.92-.73 1.78-1.58l.26-.3a3.5 3.5 0 0 1 2-1.5 3.4 3.4 0 0 1 3.35 1.13c1.73 1.95 1.48 5.4-.8 6.79l.19-.1q.21-.14.4-.33a30 30 0 0 1-6.11 4.98 50 50 0 0 1-10.23 4.64 59 59 0 0 1-18.63 3.11q-1.37 0-2.75-.08zm56.77-25.29a33 33 0 0 1-10.5-3.24l-.38-.2c-1.97-.93-2.75-3.45-2.12-5.45.67-2.13 2.91-3.33 4.92-2.21h.05l.4.24.04.02q1.26.67 2.6 1.16c1.33.47 2.71.81 4.1 1.1q2.69.48 5.4.55 3.4 0 6.73-.47a45 45 0 0 0 13.75-4.53l.28-.17a53 53 0 0 0 5.82-3.74 38 38 0 0 0 3.72-3.3q.7-.68 1.28-1.44c.39-.59.94-1.1 1.57-1.36 1.36-.61 2.88-.1 3.84 1a4.7 4.7 0 0 1 .88 4.49c-.2.65-.61 1.34-1.16 1.85q-.59.61-1.12 1.24a46 46 0 0 1-7.59 6.38 52 52 0 0 1-10.94 5.48 48 48 0 0 1-16.25 2.92q-2.7.01-5.38-.34z"/><path fill="#4d2617" d="M191.53 378.55a60 60 0 0 1-11.23-8.93c-9.58-9.74-16.1-22.1-19.62-35.26-3.8-14.52-4.09-30.07-.18-44.6 3.82-14.23 11.91-27.85 24.4-36.07a47 47 0 0 1 14.4-6.32c.8-.2 1.66-.43 2.5-.51 2.2-.22 3.74 2 3.88 3.97.14 2.05-1.08 4.25-3.28 4.47-1.78.32-3.55.81-5.28 1.36q-2.93 1.05-5.63 2.48a50 50 0 0 0-5.66 3.68 53 53 0 0 0-4.63 4.15 53 53 0 0 0-8.46 11.55 68 68 0 0 0-3.2 6.92 76 76 0 0 0-2.7 8.62 85 85 0 0 0-1.6 9.07q-.52 4.78-.47 9.6.06 4.42.6 8.82a89 89 0 0 0 2.02 10.33 84 84 0 0 0 3.21 9.58 81 81 0 0 0 4.03 8.34 72 72 0 0 0 4.82 7.31 70 70 0 0 0 5.1 5.9 64 64 0 0 0 5.63 5.03 48 48 0 0 0 12.38 6.91q3.23 1.15 6.58 1.83 3.2.58 6.46.65 3.26.02 6.49-.49 2.99-.52 5.88-1.48a44 44 0 0 0 5.65-2.44l.32-.19a32 32 0 0 0 3.34-2.07l.3-.22c1.77-1.16 4.03-.19 4.92 1.68.53 1.1.62 2.4.25 3.56-.3.96-1 1.98-1.93 2.38-.86.51-1.69 1.08-2.54 1.59a44 44 0 0 1-22 6c-8.73 0-17.33-2.73-24.77-7.24z"/><path fill="#4d2617" d="M235.56 378.45c-2.66-1.18-3.11-4.94-1.38-7.1 1.08-2.1 2-4.33 3.6-6.12-3.01-.2-4.66-3.9-3.34-6.47 1.71-2.99 4.48-5.2 6.43-8.07-3.22-1.5-4.7-5.92-2.58-8.89 2.2-2.76 4.14-5.75 6.28-8.56 2.5-1.91 2.34-4.63 2.68-7.36-.65-.37-1.34-.32-2.05-.24a3.8 3.8 0 0 1-3.74-2.24c-1.85-3.9 1.77-7.34 3.07-10.78a45 45 0 0 0-7.44-5.43c-4.56-4.63 1.58-10.65 5.4-13.48-2-1.62-4.7-1.34-6.93-2.44-3.41-2.2-1.89-6.87-.77-10-2.4-.17-4.8.42-7.22.4-4.86-.53-4.07-6.55-3.42-10-3.1.02-6.02 1.01-9.03 1.56-7.9-.67-4.08-10.81-2.5-15.57-3.19-.96-6.44-1.39-9.72-1.91-1.14-.19-2.11-.41-2.94-1.37-2.12-2.3-1.19-7.13 2.2-7.54 1.23-.22 1.98.8 3.1.91 2.97.2 5.82.86 8.67 1.7 9.7.8 6.5 8.17 4.37 14.5 8.8-1.25 16.39-3.1 12.9 9.08 9.36-.59 14.37 1 10.28 11.29 2.97.93 5.33 3.07 8.46 3.64a5.1 5.1 0 0 1 3.03 5.02c-.6 4.57-5.76 6.5-8.62 9.56 2.94 2.52 6.93 4.63 8.23 8.46.73 2.74-1.6 4.92-2.52 7.32 2.24 1.3 4.37 3.43 4.66 6.12-.47 3.58-.7 7.24-1.87 10.67-.35 1.55-1.43 2.56-2.6 3.46-1.61 1.8-2.57 3.38-3.91 5.19 3.17.8 5.47 4.67 3.98 7.74-1.76 2.56-4.29 4.58-6.01 7.2 2.1 1.08 2.96 3.5 2.66 5.8-.86 3.37-3.1 4.98-4.8 7.64-1.63 2.48-2.54 7.83-6.6 6.3"/><path fill="#37180d" d="M276 284.89c-.83-2.18 0-4.86 2.3-5.68l.22-.1.53-.18 2.24-.86c15.31-5.85 30.56-11.83 45.83-17.77a7889 7889 0 0 0 47.26-18.6l13.83-5.51 6.28-2.5 3.2-1.29q.65-.25 1.28-.55.21-.15.42-.24c2-.94 4.05.45 4.76 2.34.67 1.79.27 4.09-1.36 5.22a3 3 0 0 1-1.1.5c-.59.13-1.16.38-1.73.58l-.2.08a6931 6931 0 0 0-44.57 17.29c-15.72 6.12-31.36 12.42-47.04 18.6q-7.35 2.9-14.7 5.84l-6.91 2.77q-2.48.95-4.92 1.97-.3.17-.66.28-.06 0-.12.04-.06.01-.12.06-.68.3-1.32.29c-1.53 0-2.87-1.12-3.44-2.62zm5.14 14.92c-.67-1.87-.14-4.63 1.9-5.47l.17-.08q.34-.15.7-.24c7.21-2.69 14.4-5.51 21.57-8.34q11.6-4.54 23.18-9.13c15.5-6.14 31.01-12.24 46.49-18.44l16.02-6.45c2.5-1.02 5.02-2.03 7.5-3.11q1.8-.74 3.58-1.6c.86-.56 2-.64 2.93-.23 1.43.61 2.28 2.11 2.44 3.62a4.4 4.4 0 0 1-1.3 3.68c-.45.4-1 .71-1.59.83l-.85.29c-1.1.34-2.18.75-3.15 1.1-7.73 2.84-15.36 5.95-23.02 8.98q-11.6 4.59-23.2 9.22a7570 7570 0 0 0-46.37 18.62l-12.1 4.9q-2.98 1.22-5.93 2.46c-1.22.51-2.44.98-3.62 1.5q-.21.14-.43.21l-.14.06h-.02q-.65.3-1.28.3c-1.53 0-2.91-1.21-3.44-2.68z"/><path fill="#37180d" d="M280.16 303.27c-8.17-1.4-11.23-10.45-8.48-17.61 1.1-2.75 3.62-4.68 6.1-6.08 3.99-2.28 7.12 3.7 4.48 6.67-1.12 1.3-3.18 1.44-4.1 3-.99 2.77-.14 5.62 3.16 5.7h.04c4.31-2.64 7.52 4.88 3.76 7.28-1.36 1.2-3.25 1.12-4.96 1.06zm121.24-51.69c-.6-2.5-.12-3.8.77-4.62l.88-.36c.5-.23 1.11-.41 1.56-.78q.17-.14.33-.32c1.54-.7 2.7-1.63 1.46-4.88-1-1.71-2.58-1.34-4.15-.84q-.33-.01-.67.04c-.43.09-.85.27-1.26.45a3.6 3.6 0 0 1-2.5-1.24c-2.01-2.17-1.32-6.44 1.75-7.24 2.46-.36 4.94-1.44 7.4-.36 7.26 2.9 9.54 14.31 3.97 19.78-1.65 1.36-4.13 2.95-6.25 2.95-1.38 0-2.6-.7-3.3-2.58m-55.4 56.12q1.5-1.61 2.78-3.4 1.26-1.8 2.3-3.76.97-1.93 1.77-3.94a34 34 0 0 0 1.81-7.87q.18-2.11.14-4.23-.1-2.04-.4-4.05a34 34 0 0 0-.61-2.97q-.24-.92-.55-1.8l-.04-.13-.13-.3c-.83-2.08.13-5.03 2.42-5.64a3.3 3.3 0 0 1 2.97.73 4.3 4.3 0 0 1 1.39 2.38q0 .06.04.13v.1s.08.18.1.28q.75 2.54 1.24 5.19c.42 2.44.59 4.9.6 7.38a41 41 0 0 1-4.2 18.16l-12.16 4.27.49-.51z"/><path fill="#37180d" d="M309.56 324.78a41 41 0 0 1-17.45-10.94 38 38 0 0 1-4.51-5.83 49 49 0 0 1-2.44-4.23c-.3-.6-.55-1.2-.86-1.8q-.15-.24-.26-.5c-.94-1.81-.4-4.47 1.32-5.61 1.79-1.18 4.07-.23 4.94 1.62v.02q.24.44.37.94l.16.4q.72 1.65 1.6 3.24 1 1.64 2.14 3.15a49 49 0 0 0 3.21 3.64 37 37 0 0 0 3.48 2.95 39 39 0 0 0 4.27 2.68q2.24 1.16 4.6 2 2.62.88 5.32 1.4 3 .48 6.02.5a43 43 0 0 0 4.25-.28q.1.49.37.92l.26.43q-.16 1.13-.02 2.27v.43q.06.76.17 1.52 0 1.21.14 2.36v.1a40 40 0 0 1-17.1-1.42zm43.71-22.47c.37-2.18 2.4-3.7 4.52-2.9q.42.12.79.34.73.34 1.48.65 2.02.75 4.11 1.24l-3.76 1.32q.12-.06.24-.08-3.46 1.2-6.91 2.42c-.47-.92-.63-2-.47-2.99m30.95.51s.04.13.08.19v.08s-.04-.19-.08-.27"/><path fill="#37180d" d="M385.22 306.42q-.09-.65-.24-1.28-.3-1.09-.68-2.11c-.3-.81-.6-1.6-1.01-2.38a37 37 0 0 0 4.17-1.73 41 41 0 0 0 4.94-3q1.98-1.49 3.78-3.22a41 41 0 0 0 3.78-4.4 34 34 0 0 0 4.07-7.6 46 46 0 0 0 1.4-4.66q.43-1.98.67-4.02.15-1.8.15-3.6a43 43 0 0 0-.33-4.25 44 44 0 0 0-.81-3.95 44 44 0 0 0-1.4-3.98 47 47 0 0 0-1.82-3.68 38 38 0 0 0-2.21-3.34l-.71-.87q1.03-.45 2.07-.88 1.03-.41 2.05-.87c.51-.22 1.12-.4 1.57-.77q.55-.45.73-1.08a42 42 0 0 1 7.85 23.3q.1 5.99-1.28 11.8a40 40 0 0 1-4.74 11.22 41 41 0 0 1-21.57 17.51q-.15-1.07-.39-2.12z"/><path fill="#701d00" d="M383.74 318.2q.07-1.69-.03-3.38-.15-1.53-.42-3.03-.35-1.59-.84-3.13a39 39 0 0 0-1.3-3.2 35 35 0 0 0-1.6-2.76q-.76-1.17-1.65-2.24l-.35-.06q-.09.06-.18.08l.16-.08-.38.16q-.17.06-.33.08c-2.62.72-5.12 1.81-7.64 2.77-3.83 1.44-7.63 2.95-11.45 4.43a1783 1783 0 0 0-21.82 8.54l-5.2 2.1q-.31.18-.7.3l-.1.04q0 .29.02.53.14 1.4.4 2.79.31 1.47.78 2.9.55 1.6 1.24 3.1.75 1.55 1.69 3 .93 1.4 1.99 2.71 1.27 1.47 2.7 2.77a32 32 0 0 0 2.65 2.05q1.7 1.13 3.56 2.03a30 30 0 0 0 8.27 2.42q2.37.28 4.76.19 2.33-.12 4.62-.61 2.44-.6 4.8-1.53 1.95-.86 3.78-1.95 1.76-1.13 3.35-2.44 1.55-1.37 2.93-2.95c.8-.93 1.5-1.93 2.2-2.95q.98-1.55 1.77-3.19.7-1.6 1.26-3.27.48-1.59.8-3.24.19-1.47.32-2.99zm7.07-2.5a34.7 34.7 0 0 1-15.84 30.66l-.37.22h-.04a34 34 0 0 1-17.52 5.02c-3 0-6-.4-8.9-1.2a34.5 34.5 0 0 1-21.04-16.65 36.6 36.6 0 0 1-4.35-18.26q.26-.66.47-1.34l.06-.1c.39-.6.77-1.14 1.2-1.71l.28-.23c.84-.42 1.7-.83 2.47-1.36h.01q.08.02.15.06h.12v-.04l.04-.02c.04 0 .08-.04.1-.04q.29-.11.53-.16l1.67-.61q2.57-.94 5.14-1.91l10.6-4.05q11.3-4.26 22.59-8.68a123 123 0 0 0 5.83-2.4q.17-.12.33-.19l-.02.03h-.04v.04s.04-.02.04-.04h.02l.49-.23q.43-.13.85-.14h.17q.32.01.63.08a3.2 3.2 0 0 1 2.56-.1h.26c1.49.06 2.5 1.08 3.15 2.28q-.08-.2-.16-.33l-.28-.43.2.29.9 1.06q.58.72 1.11 1.48 1.39 1.94 2.46 4.05c2.4 4.7 3.77 9.72 4.03 15z"/><path fill="#701d00" d="M367 319.21v-.4q0-.12-.02-.2l-1.9.75q-3.53 1.38-7.07 2.74c-2.58 1.02-5.19 2-7.79 3.05.88.4 1.67.98 2.5 1.42q.6.25 1.2.43l.25.06h.34q.8-.07 1.59-.08h1.24q.43-.02.83-.1.14-.05.29-.08c.8-.37 1.56-.78 2.4-1.06.53-.18 1.1-.28 1.6-.45l.15-.08 1.38-.91.34-.25q.43-.4.8-.85.6-.74 1.12-1.53l.18-.34q.15-.35.26-.71l.25-.96c0-.14.04-.3.04-.45zm6.12-5.3a14.8 14.8 0 0 1 .37 9.55 12 12 0 0 1-2.57 4.92q-.75.95-1.58 1.85c-.65.72-1.4 1.2-2.22 1.7-.75.48-1.44 1-2.3 1.31-.69.25-1.42.35-2.11.6-1.18.54-2.28 1.13-3.6 1.31-1.02.13-2.01.09-3.01.1q-.77.09-1.55.1h-.3a9 9 0 0 1-2.5-.54q-1.06-.31-2.01-.9c-.53-.3-1.02-.65-1.57-.93-.55-.27-1.1-.5-1.59-.87a9 9 0 0 1-1.62-1.61c-.6-.71-1.08-1.49-1.61-2.24-.67-.93-1.5-1.79-2.08-2.82-1.17-2.18-.89-5.84 1.88-6.68a3 3 0 0 1 1.14-.14l.14-.02c1.01-.34 1.99-.75 2.97-1.1q3.35-1.21 6.69-2.54c4.19-1.64 8.46-3.1 12.6-4.9q.57-.23 1.1-.53l-.43.29-.12.1a3.2 3.2 0 0 1 3.6-.37 4.5 4.5 0 0 1 2.22 3.85q.07.24.1.49z"/><path fill="#4d2617" d="M273.37 223.38c-3.62-4.42 2.85-9.62 4.45-13.83 1.43-2.36 1.77-5.19 2.95-7.6 4.1-5.56 10.19 1.64 5.74 5.7-1.73 5.6-5 10.76-8.06 15.66a3.28 3.28 0 0 1-5.1.06zm60.4 6.02c-4.7-.33-10.19-5.06-10.2-9.93.1-7.76 11.66-6.56 10.73-12.38-4.23-.14-7.44 4-11.41 5.17-3.78 1.42-7.85-.72-9.3-4.36-2-5.14.35-10.65.13-15.9.38-2.68 3.54-4.51 5.73-2.54 3.76 4.09-.34 9.97.51 14.8 1.85-.12 3.44-1.5 4.94-2.5a28 28 0 0 1 7.77-3.21c7.67-.8 10.53 8.11 8.01 14.13-1.42 3.89-5.06 6.06-8.68 7.57 2.05 1.66 4.27-.78 6.45-1.16 4.43-.92 8.33-3.07 12.42-4.94 5.92-2.1 10.92-3.77 16.57-5.78 2.3-.49 5.05-2.01 6.98.19a4.8 4.8 0 0 1 .16 5.95c-2 2.1-5.53 1.47-8.05 2.79-6.35 2.48-13.04 4.1-19 7.46-2.45 1.16-5.1 1.69-7.68 2.54-2.01.71-3.87 2.06-6.04 2.06zm56.61-27.36c-4.96-2.32-5.77-9.4-1.2-12.56 1.77-1.37 4.09-1.96 5.86-3.34-13.02 2-24.59 8.87-36.8 13.2-4.6.5-5.72-7.2-1.35-8.3q-.05 0-.1.04v-.02c13.36-4.35 26.09-12.59 40.3-13.26 5.74 1.53 6.49 8.97 3.74 13.44-1.36 2.22-3.8 3.3-6.08 4.44 2.44 2.9-.55 8.64-4.33 6.36zm-147.76 55.92c-2.12-.5-3.56-2.2-4.66-3.96-5.37-6.61-2.44-15.52 5.7-17.88 2.74-1.28 5.9-1.89 8.53-3.27 2.02-1.69 4.76-.24 5.51 1.97 2.3 8.97-12.76 6.2-15.37 12a17 17 0 0 0 1.8 3c5.58.46 10.53-3.24 15.71-4.75 7.63-3.13 15.4-5.81 23.18-8.42 6.65-1.75 16.35-6.53 19.77 1.75 1.03 3.58 4.78 10.05.87 12.8-3.96 1.27-8.05 2.17-11.71 4.28-3.11 1.67-7.24 4.25-9.1-.36-1.15-3.05 1.1-5.72 4.08-6.27 3.41-1.6 6.77-3.35 10.39-4.47q-.28-1.22-.88-2.34c-12.12 1.7-23.42 7.02-34.87 11.12-6.14 2.06-12.22 6.27-18.95 4.84zm13.57 17.19c-3.89-.45-4.6-6.39-1.3-8.14 3.94-.91 6.59-1.42 10.43-3.27 1.65-.9 3.64-1.55 5.18-.1 1.65 1.4 2 4.06.88 5.88-1.3 1.99-3.8 1.74-5.7 2.88-3.45 1.18-6.01 2.7-9.51 2.75zm66.31-25.81c-2.31-2-1.94-6.18.92-7.48 3.58-1.54 7.44-2.4 11.1-3.72 4.68-1.81 9.24-4.23 14.28-4.94 4.9-.39 5.29 8.56.25 8.34-7.7 1.85-14.85 5.65-22.43 7.99-1.16.9-3.03.87-4.11-.19M267.3 358.72c-4.82-.4-7.95-5.65-7.37-10.19.4-2.72 2.6-4.61 4.36-6.54 4.37-4.6 11.34-4.52 16.1-8.46 1.2-2.44-.65-5.6-1.58-7.95-3.95.59-7.65 2.35-11.5 3.41-1.74.96-3.96.7-5.08-1.08-1.93-2.64-.18-7 3.24-7.03 5.28-1.06 11.04-5.27 16.39-2.91 4.51 3.35 5.83 9.92 6.04 15.27-.3 11.63-15.13 9.66-20.62 17.02 3.86.55 7.48-2.01 10.84-3.66 4.73-2.5 7.44 5.33 3.17 7.48-4.31 2.3-8.95 5.09-14.01 4.6zm33.45-10.99c-4.08.04-5.18-6.51-1.58-8.16 3.62-1.7 7.64-2.54 11.18-4.39 1.75-1.3 4.03-.1 4.9 1.6 1.06 2.1.43 4.85-1.69 5.96-4.29 1.59-8.5 3.58-12.8 4.97zm110.09-42.63c-1.87-2.55-.24-7.06 3.1-7.04 5.9-3.42 24.93-5.51 21.24-15.23-2.8.28-5.4 1.69-7.99 2.72-4.57 1.85-6.91-6.06-2.76-7.8 4.17-1.4 8.56-4.3 13.11-2.91 4.25 2.11 5.66 7.4 5.27 11.81-.49 10.25-11.71 13.97-19.97 16.62-3.7.77-8.95 5.95-11.98 1.8zm10.14-71.7c-1.91-3.62 1.52-5.68 3.33-8.24-.6-.98-1.24-2.05-2.03-2.89-1.59-1.42-4.23-1.02-5.82-.63a67 67 0 0 0-10.35 2.63c-.69.06-1.4.08-2.07-.23-3.23-1.44-3.27-7 .26-8.05 5.56-1.28 11.23-3.21 16.96-3.05 4.07 1.12 7.06 4.13 8.97 7.79a9.4 9.4 0 0 1-1.04 10.8c-2.07 2.92-5.63 6.3-8.23 1.87zm-50.16.87c-2.36-.6-3.36-3.46-2.73-5.61.55-2.22 2.85-2.89 4.74-3.58 3.97-1.57 7.58-2.28 11.04-4.5 4.13-1.7 6.67 4.66 3.66 7.23-4.37 2.78-9.74 3.76-14.35 6.1a3 3 0 0 1-2.36.36m53.55 22.45c-2.24-1.89-2.02-5.96.67-7.3a102 102 0 0 1 11.65-4.15c5-.3 5.23 8.5.22 8.44-2.72.88-5.29 1.91-7.93 3-1.2 1.2-3.35 1.15-4.63.01zm-165.21 50.25c-3.3-3.46 1-10.1 4.96-6.06 3.3 3.46-1 10.1-4.96 6.06m-5.06 67.73c-3.3-3.45.99-10.1 4.95-6.06 3.3 3.46-1 10.11-4.96 6.06m154.96-172.45c-3.3-3.46 1-10.11 4.96-6.06 3.3 3.45-1 10.1-4.96 6.06"/><path fill="#38190d" d="M260.28 385.77c-.61-1.87 0-4.66 2.09-5.39l.14-.06q.3-.12.6-.18c2.31-.8 4.6-1.73 6.89-2.6l8.54-3.32c4.1-1.59 8.17-3.21 12.28-4.76q15.41-5.84 30.72-11.9c.63-.24 1.26-.48 1.75-.73l.13-.06c.04 0 .08-.04.12-.04q.43-.19.9-.2c2.2 0 3.71 1.89 3.83 4 .13 1.8-.97 4.13-2.94 4.42-1.87.63-3.7 1.38-5.53 2.1l-7.12 2.72-17.2 6.65c-9.7 3.78-19.47 7.4-29.12 11.28-.5.2-.98.43-1.47.61l-.24.08h-.06q-.46.14-.88.13c-1.58 0-2.93-1.14-3.45-2.77z"/><path fill="#3364a0" d="M301.8 477.8a102 102 0 0 1-22.1-7.26 68 68 0 0 1-17.77-11.65 39.4 39.4 0 0 1-10.07-14.48v-.04c-.8-1.9 0-4.58 1.91-5.47a3.2 3.2 0 0 1 3.03.22c1 .63 1.57 1.65 1.7 2.2.15.5.36 1.04.56 1.52q.54 1.25 1.22 2.42.88 1.46 1.91 2.81a44 44 0 0 0 3.46 3.82 55 55 0 0 0 4.86 4.13 69 69 0 0 0 8 5 89 89 0 0 0 12.13 5.29 104 104 0 0 0 16.08 4.09q8.12 1.36 16.33 1.4a88 88 0 0 0 13.83-1.16 64 64 0 0 0 9.92-2.6 37 37 0 0 0 9.64-5.12q1.05-.83 1.97-1.78a3.4 3.4 0 0 1 2.77-1.21c.87 0 1.75.58 2.3 1.2a4.8 4.8 0 0 1 .2 5.95q-.15.19-.3.33l-.31.26c-.39.33-.73.67-1.12.98q-1.29 1.04-2.64 2a43 43 0 0 1-9.6 4.95c-7.62 2.9-15.8 4.07-23.93 4.31q-1.43.04-2.85.04c-7.08 0-14.15-.79-21.09-2.23z"/><path fill="#3364a0" d="M361.37 468.51c-2.24-.24-3.4-2.56-3.32-4.6q0-.28.06-.52.1-.82.51-1.53a28 28 0 0 0 1.46-6.1q.19-1.75.2-3.5-.02-1.73-.22-3.45-.25-1.77-.67-3.48-.46-1.64-1.05-3.23-.68-1.65-1.5-3.2a34 34 0 0 0-1.94-3.05 39 39 0 0 0-2.52-3 44 44 0 0 0-2.8-2.57l-.2-.14-.05-.04a36 36 0 0 0-3.62-2.4q-1.9-1.04-3.9-1.85a35 35 0 0 0-4.74-1.36 37 37 0 0 0-5.4-.6q-2.47 0-4.93.33-2.48.43-4.88 1.16a34 34 0 0 0-4.4 1.9 36 36 0 0 0-4.06 2.55 33 33 0 0 0-3.01 2.63q-1.42 1.44-2.65 3.05-.57.8-1.1 1.62-.12.23-.26.43-.01.06-.06.1c-1.18 1.71-3.42 2.18-5.02.73-1.7-1.52-1.83-4.04-.72-5.91q.02-.05.07-.1.15-.24.32-.45a41 41 0 0 1 5.19-6.16 36 36 0 0 1 30.07-9.76c6.77.97 13.1 3.94 18.3 8.35a37.6 37.6 0 0 1 11.45 38.41c-.24.88-.59 1.75-.83 2.63l-.08.33c0 .04-.02.08 0 .01-.06.19-.15.37-.08.2q0-.03.04-.1l.02-.1q-.1.32-.23.57l-.04.1q-.2.5-.57.9a3.2 3.2 0 0 1-2.44 1.22h-.34z"/><path fill="#3364a0" d="M282.41 445.18c-2.7-.28-5.57.1-8.07-1.2-2.26-1.36-4.66-2.8-6.36-4.84-2.34-3.82-3.12-8.45-3.52-12.87a34.5 34.5 0 0 0-6.91 14.32c.36 5.02-5.92 6.18-7.06 1.16-.57-4.33 1.67-9.38 3.66-12.96 1.93-3.68 3.54-7.99 7.26-10.27 1.97-1.36 4.5-1.97 6.77-.97 5.14 2.58 2.4 9.66 4.4 14.11.77 3.68 5 5.33 8.43 5 2.62.53 5.92-.5 7.3-2.88-.73-3.72-4.25-5.88-4.84-9.62-.47-7.06 7.46-10.66 12.65-13.73 7.34-2.24 15.35-4.88 23.1-3.84 2.95 1.67 5.06 4.61 6.43 7.7 2.07 1.49 2.31 4.76.7 6.67-1.66 2.28-5.14 1.63-6.13-.91-.8-2.13-1.67-4.05-3.36-5.4-9.09.66-18.91 2.35-25.72 8.86 2.64 3.92 6.1 9.53 3.68 14.25-2.32 4.45-7.3 7.75-12.39 7.4zm59.07-28.32c-4.25-.86-8.7-3.16-10.96-6.98-1.59-2.8-2.1-6.1-3.34-9.03-1.58-.26-3.35-1.34-4.92-.59-1.95 1-4.02-.59-4.68-2.4-1.9-7.76 8.02-6.69 12.51-4.67 4.58 2.52 4.19 8.52 6.55 12.58 5.04 5.09 14.35 2.65 14.74-4.94-.34-.67-.7-1.4-1.14-2.01a8.4 8.4 0 0 1-2.1-7.32c2.96-13.32 19.08-17.67 31.08-17.2 5.27-.84 6.16 8 1.12 8.72-.82.14-1.43-.32-2.12-.39-3.5.08-7.12-.06-10.45 1.08-4.8 1.9-10.86 3.85-12.48 9.31a25 25 0 0 1 3.45 6.51c.43 1.69-.28 3.15-.71 4.74-.87 8-8.82 13.24-16.53 12.6zm24.37.18c-4.15-2.11-2.05-7.4-.67-10.67 4.19-9.99 13.22-17.53 23.38-20.9 3.36-1.4 6.84.4 6.67 4.08 0 2.24-1.97 4.37-4.29 3.8q.18.01.35.06c.04 0 .06 0 .18.04-9.1 2.24-17.49 9.46-20.5 18.35 1.06 3.09-1.87 6.54-5.1 5.26zm8.4 35.28a50 50 0 0 1-11.85-3.4c-2.1-.73-3.15-2.96-2.75-5.1.37-1.87 2.22-3.84 4.3-3.1 1.01.36 1.97.84 2.96 1.23a48 48 0 0 0 7.1 1.93q4.72.86 9.48 1.02 5.66.11 11.26-.7 4.36-.69 8.58-2.02l.47-.17q3.01-1.03 5.85-2.46a36 36 0 0 0 4.01-2.52q1.04-.8 1.97-1.69.77-.78 1.43-1.62.46-.63.83-1.3.22-.43.4-.88.16-.44.3-.9l.11-.62a8 8 0 0 0 0-1.3l-.12-.68-.14-.44-.2-.43a4.3 4.3 0 0 1-.57-2.62c.2-2.22 1.9-4.34 4.35-3.7a3.3 3.3 0 0 1 1.77 1.21q.36.42.6.94v.06c.07.14.11.29.11.3q.3.6.45 1.23c.59 1.8.91 3.66.85 5.6a16 16 0 0 1-2.26 7.35c-2.82 5.04-8.11 8.42-13.23 10.76-5.84 2.64-12.25 4.02-18.61 4.65q-3.25.31-6.53.33c-3.68 0-7.38-.3-11-.9z"/><path fill="#3365a1" d="M322.38 475.36a4.6 4.6 0 0 1-1.7-2.84 45 45 0 0 1-.97-13.18c-.12-10.5 3.46-20.58 9.69-28.98 3.4-4.04 7.05-8.88 12.16-10.65 4.53.06 4.96 7.18 1 8.6-7.25 4.7-11.97 12.83-14.57 20.88-1.2 3.95-1.01 8.2-1.32 12.3-.1 3.01.24 6.4.94 9.22.89 3.03-2.22 6.77-5.25 4.65zm61.91-31.46c-3.95-18.64-.17-43.06 17.93-53.05 5.65-1.85 7.3 7.9 1.67 8.34-14.32 9.27-15.68 29.24-12.45 44.45.08 5.53-6.8 5.84-7.15.26M265 459.54c-5.15-3.27.34-9.09 1.1-13.36 1.31-3.3.54-6.9 1.35-10.2 2.63-6.72 10.25-1.88 6.76 3.76.18 6.16-2.36 11.93-4.54 17.59-.73 1.9-2.78 3.19-4.66 2.21zm69.7-39.81c-3.56-.62-3.34-4.66-2.9-7.4-.22-2.32.94-5.03 3.53-5.21 2.7-.2 4.25 3.17 3.6 5.45-.09 2.8-.37 7.5-4.25 7.16z"/><path fill="#000" d="M157.04 257.28c-.49-1.97.36-4.56 2.46-5.23l.14-.06.6-.26.36-.13a6351 6351 0 0 0 43.15-17.22q23.25-9.37 46.5-18.8c9.6-3.91 19.22-7.78 28.7-11.82l2.5-1.1.04-.02.3-.14c2.3-.88 4.43 1.1 4.7 3.41a4.7 4.7 0 0 1-.9 3.38c-.32.42-.73.8-1.2 1.06q-.3.16-.65.26c-.26.08-.48.22-.75.3q-1.8.63-3.56 1.33-5.4 2.09-10.75 4.25-11.93 4.73-23.82 9.6c-15.41 6.28-30.82 12.5-46.24 18.76q-9.3 3.78-18.58 7.59c-5.8 2.38-11.6 4.74-17.35 7.2l-.49.24-.48.18-.13.04q-.06.01-.14.06-.53.21-1.02.2c-1.62 0-3.05-1.54-3.41-3.06z"/><path fill="#000" d="M279.63 209.27c-2.3-3.34.14-5.9 2.03-8.42 4.21-7.89 3.72-17.57 5.55-26.09-2-1.77-2.84-4.43-5-6.06-7.6 5.7-18.2 5.47-27.27 4.66-4.16-.25-7.42-3.1-10.71-5.37a8.7 8.7 0 0 1-3.7-3.72c-2.49-4.13 2.94-9.4 6.01-4.6 2.06 1.85 4.62 3.4 6.98 4.92 2.6.8 5.39.65 8.07.86 3.38.3 6.67-.29 9.95-1 2.7-.63 5.8-1.12 7.4-3.64 1.14-1.89 3.6-2.66 5.45-1.26 1.01.83 2.22 2.75 3.05 3.38 1.75 1.28 2.6 3.29 3.88 4.98 2.79 2.84 6.51 6.83 2.5 10.45-1.28 8.42-1.83 16.51-4.71 24.24-1.81 3.15-5.25 11.55-9.52 6.71z"/><path fill="#000" d="M239.98 165.3c-3.25-3.66.3-8.3 1.95-11.87 4.11-10.64 15.78-15.07 26.5-14.66 2.2-.15 3.6 2.31 3.6 4.2-.08 5.84-6.47 3.7-10.23 4.68-8.54.78-12.95 6.96-15.86 14.34.35 3.21-3.56 5.92-5.98 3.23l.06.08z"/><path fill="#000" d="M265.08 143.69c-1.55-5.98 3.82-17.18 8.03-21.53a31 31 0 0 1 9.72-5.86c3.3-1.02 5.53 3.05 4.29 5.81-.37.94-1.18 2-2.22 2.26-7.34 2.02-11.16 8.89-12.83 15.84 1.75 4.68-4.66 8.69-6.97 3.48zm23.75 10.12v.02l-.02-.04z"/><path fill="#000" d="m290.01 155.57-1.16-1.7-.02-.03q-.43-.64-.9-1.24c.64-2.44 2.14-5.05 2.75-7.08.39-6.59-.14-13.7-4.61-18.95-1.49-2-4.4-2.93-4.62-5.7-.6-3.29 3.23-6.65 5.92-3.8 5.71 4.42 9.07 11.33 10.13 18.39.3 4.39.79 9.04-.25 13.35-1.62 2.55-2.01 8.6-4.94 9.72a83 83 0 0 0-2.3-2.99z"/><path fill="#000" d="M298.97 169.23c-2.03-5.08-5.33-10.27-9.8-13.36-2.75-2.01-1.83-7.4 1.58-7.79 2.18-.43 3.2 1.63 4.72 2.69 3.4 3.62 14.15 15.78 8.7 20.23-1.85 1.44-4.37.37-5.2-1.77"/><path fill="#000" d="M314.18 196.48c-1.95-1.26-1.5-3.52-1.32-5.45.34-2.2.08-4.44.63-6.61 0-6.61 4.55-16.8-6.63-13.02-1.9.45-4.5 1.55-6.12 0-2.81-2.76.46-7.62 4.02-7.17 4.88-1.26 10.68-2.83 14.66 1.3 5.07 4.98 1.61 14.41 1.4 20.76q-.1 2.74-.38 5.45c.5 3.23-3.17 6.53-6.22 4.76z"/><path fill="#000" d="M314.93 196.25a3.4 3.4 0 0 1-1-2.9 4.9 4.9 0 0 1 3.81-4.1c1-.3 1.97-.72 2.87-1.07 14.54-5.84 28.95-11.92 43.41-17.91q9.16-3.82 18.28-7.65 4.55-1.9 9.11-3.84l.08-.04q.16-.08.35-.15c2.11-.91 4.23-1.9 6.36-2.8a4 4 0 0 1 2.69-.3 3.2 3.2 0 0 1 2.22 2.07c.67 2.01-.64 4.5-2.57 5.3q-1.65.66-3.31 1.29l-2.4.93c-.51.2-1.04.45-1.57.61l-.16.06-2.89 1.16c-7.24 2.93-14.45 5.94-21.7 8.9a4939 4939 0 0 0-44.06 18.39c-1.7.73-3.48 1.42-5.14 2.3a4 4 0 0 1-1.96.59c-.91 0-1.75-.23-2.44-.86z"/><path fill="#000" d="M316.5 196.89a4 4 0 0 1-2.52-2.05 4.8 4.8 0 0 1-.22-4.21 3.2 3.2 0 0 1 1.22-1.5c.28-.21.6-.35.87-.4q.05 0 .14-.04 3.26-1.2 6.47-2.56c3.07-1.26 6.16-2.46 9.23-3.7 7.3-2.9 14.56-5.88 21.86-8.82q10.94-4.44 21.88-8.91 5.6-2.3 11.19-4.62c3.37-1.4 6.79-2.8 10.12-4.33q.82-.36 1.65-.77a3 3 0 0 1 1.44-.49c2.22 0 3.85 1.75 4.13 3.9.12.96-.04 1.96-.5 2.8a3.4 3.4 0 0 1-2.14 1.64c-.6.2-1.2.38-1.32.4-3.42 1.23-6.82 2.63-10.17 4q-5.61 2.24-11.2 4.53-11.02 4.5-22.03 9.06c-7.2 3-14.42 5.94-21.6 8.97-3.08 1.3-6.2 2.63-9.3 3.9q-3.44 1.39-6.78 2.9l-.26.12h-.02q-.2.08-.41.14-.42.14-.92.14-.36 0-.77-.1z"/><path fill="#000" d="M451.7 307.9c-2.29-.6-3.55-3.3-2.96-5.52.81-2.66 3.99-3.68 4.47-6.5.3-3.4-2.05-6.02-3.27-8.95-1.1-3.11 1.18-6.14 4.13-6.95.8-1.35.08-3.06-.47-4.38-2.46-.95-3.46-4.1-2.46-6.44 1.22-2.48 2.58-5.2 2.48-8.04-.6-3.35-4.94-5.04-3.82-8.86 2.17-4.03 5.16-7.97 7.28-11.92 1.18-1.93.73-4.06-.8-5.65-1.78-.55-3.82-.04-5.69-.49-3.15-.22-5.86-1.89-8.78-2.89-7.37-3.64.02-9.17-2.79-14.43-2.76-.86-3.3-4.2-2.58-6.61a7.4 7.4 0 0 0-4.76-7.67c-4 2.28-7.44-3.66-4.78-6.77 3.34-2.97-.32-6.98-2.99-8.93-2.11 1.26-4.66-.44-5.29-2.5a3.3 3.3 0 0 0-.97-1.32 5 5 0 0 1-2.48-4.31c-.12-1.47 1-2.5 1.06-3.93-.05-2.09-1.45-4.53-3.58-5-2.14.16-3.95 1.4-6.06 1.5-1.98-.03-3.52-2.13-3.68-3.96-.2-1.8.77-3.5-.1-5.2-3.73 1.3-6.82-2.36-5.48-5.94.86-2.46 3.79-2.52 5.96-2.32 3.89.5 6.1 4.47 6.81 7.89 8.5-1.7 14.69 8.8 13.02 16.3l.16.21c2.65-.08 4.54 2.06 6.35 3.68a15.6 15.6 0 0 1 5.67 13.65 16.5 16.5 0 0 1 8.36 15.13 16.3 16.3 0 0 1 2.78 13.76c3.89 2.7 8.99.51 12.87 2.93 10.3 8.8 4.6 17.16-1.3 26.31 2.3 3.4 3.18 7.49 2.77 11.53-.49 1.85-1.32 3.42-1.8 5.3 3.04 4.85 4.18 12.58-.78 16.58 3.09 5.98 3.29 14.07-2.34 18.61-.94 1.34-2.42 2.54-4.15 2.1"/><path fill="#000" d="m387.45 337.52-.1-.67q0-1.73-.1-3.46-.06-1.39-.19-2.78l.19-.45c4.51-1.57 8.86-3.74 13.44-5.17 10.29-4.73 21.1-8.35 31.76-12.16 7.12-2.98 15.17-5.12 19-12.16 1.8-6.1 8.66-2.52 6.95 2.81-5.57 13.89-22.65 15.86-34.75 21.43-12.27 3.93-23.82 9.76-36.02 13.87l-.18-1.24zm-13.06 15.71c-3.46-.3-3.97-3.88-3.69-6.8q2.11-1.02 4.13-2.19v.02a11 11 0 0 0 1.59 2.38c.4.43.87.82 1.42 1q.14.11.29.2l-.2.19c.46 2.23-.98 5.22-3.5 5.22h-.05zm40.83 57.07q.09.19.14.37l.06.18-.2-.57z"/><path fill="#000" d="M430.23 447.39c-2.73-1.02-3.05-4.25-2.22-6.67.35-3.24-.5-7.04-2.84-9.42-1.04-.83-2.04-1.8-3.26-2.32a4 4 0 0 1-2.97-1.97c-1.6-5.19-1.36-10.72-3.56-16.33-3-9.98-12.7-16.06-22.67-17.2-1.62-.06-2.68 1.02-4.15 1.44-2.13.33-4.04-1.65-4.23-3.7-.14-1.26.2-2.48.17-3.74.08-3.78-3.44-5.49-6.73-5.94-3.3-1.2-3.12-5.18-2.65-8.05.23-6.65.43-12.63-1.07-19.1-5.62-2.4-2.63-10.9 1.7-8.62q.3.43.67.84c.41.42.86.83 1.4 1l.31.22c5.76 5.55 3.93 19.01 4.13 26.4 4.84 1.92 8.6 5.69 9.09 11.01 20.78.98 31.82 16.78 33.63 36.32 4.42 2.54 8.08 6.55 9.28 11.6.97 3.65 2.46 14.3-3.07 14.3q-.46 0-.96-.1z"/><path fill="#000" d="M379.56 468.62a77 77 0 0 1-6.1-1.22c-1.45-.35-2.87-.8-4.34-1.12-2.01-.43-3.33-2.46-2.54-4.43.75-1.93 3.32-3.26 5.33-2.62l1.02.32q3.88 1.16 7.84 1.83c3.16.5 6.3.85 9.5 1q4.16.16 8.32-.2 3.16-.3 6.24-.94 2.93-.64 5.78-1.6a47 47 0 0 0 3.9-1.66q1.75-.88 3.4-1.95 1.37-.94 2.66-2.01 1.06-.97 2.03-2.03.82-.95 1.53-2 .69-1.05 1.26-2.21.51-1.14.9-2.32a15 15 0 0 0 .46-2.18v.12-.16q0 .13-.04.27v.14a4.5 4.5 0 0 1 4.98-3.62c1.08.1 2.14.6 2.79 1.52.55.78.65 1.65.47 2.52h.02v-.14l.06-.28v-.04q0 .64-.27 1.2c-.2.85-.38 1.7-.65 2.56a22 22 0 0 1-2.44 5.12 30 30 0 0 1-7.87 8.26c-8.76 6.32-19.94 8.74-30.6 8.89h-1.1q-6.6-.01-13.14-1.12l.55.08z"/><path fill="#000" d="M320.44 497.74c-10.71-.51-21.39-2.79-31.6-6.04a151 151 0 0 1-18.58-7.34c-.84-.39-1.65-.82-2.49-1.18-1.58-.47-2.76-2.04-2.45-3.76.4-2.26 2.68-3.42 4.8-3.42.6 0 1.21.2 1.62.4l.37.21a85 85 0 0 0 9.92 4.6 144 144 0 0 0 17.96 5.95q7.2 1.8 14.51 2.73l.88.1a85 85 0 0 0 21 .1c2.36-.32 4.7-.8 7.02-1.36a51 51 0 0 0 5.43-1.73q2.11-.88 4.15-1.97a34 34 0 0 0 3.1-2q1.3-.98 2.51-2.09.9-.89 1.75-1.87.87-1.1 1.6-2.26.74-1.25 1.3-2.54.53-1.28.9-2.62.4-1.62.61-3.3.16-1.75.08-3.51l-.1-1-.02-.26v-.27c.08-1.95 1.75-3.48 3.64-3.84 1.93-.37 4.37.59 4.66 2.76v.06c.2 1.61.12 3.34 0 4.97a30 30 0 0 1-1.1 6.1c-1.65 5.63-5.33 10.53-9.88 14.15a41 41 0 0 1-10.33 5.88 61 61 0 0 1-7.06 2.31c-2.52.66-5.08 1.1-7.67 1.43q-5.65.72-11.34.71-2.58 0-5.17-.12z"/><path fill="#000" d="m267.49 483.14-1.06-.55-.19-.1-.14-.09c-6.63-3.47-12.79-8.09-17.5-13.99a39 39 0 0 1-7.3-13.9 30.4 30.4 0 0 1 .18-17.15c1.8-5.96 5.83-10.88 10.51-14.84 1.6-1.34 3.9-1.12 5.04.71.61 1 .78 2.26.51 3.38-.24 1.05-.91 2.3-1.91 2.84q-.05.02-.08.06-1.2.91-2.3 1.96-.94.96-1.79 2-.8 1.05-1.48 2.18-.67 1.2-1.24 2.43c-.27.65-.51 1.32-.68 1.82l-.03.19v.06a20 20 0 0 0-.57 2.42q-.16 1.12-.23 2.26c0 .87 0 1.75.08 2.6q.15 1.42.43 2.82.37 1.56.9 3.1.67 1.8 1.54 3.53a38 38 0 0 0 2.24 3.67 45 45 0 0 0 3.96 4.77 49 49 0 0 0 5.35 4.7 55 55 0 0 0 7.14 4.47c.65.33 1.28.68 1.95.96l-.5-.16q-.1 0-.17-.02c2.44.47 3.35 3.35 2.56 5.55-.59 1.63-2.05 2.76-3.6 2.76-.63 0-1.28-.18-1.87-.63z"/><path fill="#000" d="M250.92 426.24c-.33-14.46-6.55-33.57 7.83-43.23 3.1-2.24 8.07-4.4 9.31.87.4 2.1-.67 4.62-2.89 5.03a13 13 0 0 0-4.98 3.13c-3.1 2.93-4.05 8-3.72 11.85.12 6.92.93 13.83 1.46 20.68.35 4.8-5.59 6.2-7.01 1.67m-48.68-26.7a50 50 0 0 1-11.27-1.38c-6.44-.45-12.97-4.17-12.12-11.5-11.06-.08-20.17-3.98-21.25-16.14-3.82-3.2-5.39-9.07-4.45-13.87-5.47-3.82-6.26-11.26-3.23-16.87-5.47-2.67-8.95-10.82-6.37-16.5-1.36-3.78-.55-8.07 1.06-11.67-3.68-3.05-5.98-8.24-3.7-12.81-.7-5.2 1.46-10.57 4.6-14.58-.09-4.13 3.35-7.42 6.34-9.86-4.25-3.13-3.99-9.9-1.67-14.16 1.85-3.57 4.96-5.9 8.5-7.52 4.51-2.28 7.95 5.82 3.42 7.7-3.1 1.37-6.43 3.77-6.27 7.55 3.38 2 8.58 6.8 4.74 10.68-2.3 1.38-4.78 2.66-6.5 4.82.56 1.36.6 3.05-.25 4.25-1.93 1.93-3.86 3.05-4.72 5.7-.4 1.5-1.34 3.2-.91 4.75.9 1.77.67 4.09-.88 5.43.94 1.85 2.89 2.93 4.72 3.82 2.83 1.69 2.58 6.43.08 7.46-1.44 1.12-1.77 3.16-1.97 4.86 3.09 2.57 2.5 5.84-.22 8.32a7 7 0 0 0 1.85 4.03c1.34.22 2.78 1.03 4.1 1.24 1.47.14 2.75.63 3.62 1.97 1.28 1.85 1.14 4.8-.87 6.06-2.1 1.83-4.74 6.26-2.01 8.5 1.83.65 3.76 1.02 5.3 2.18 2.55 2.03 2.06 7.05-1.62 7.38-.5 1.36.26 2.82.7 4.1 4.05-.54 7.04 4.88 3.91 7.71 1.02 8.58 11.65 6.43 17.8 7.9 2.09-.27 4.37-.2 5.59 1.84 2.15 3.4.3 5.41-2.18 7.7 1.32 1 3.21.84 4.76 1.29 2.85.47 5.63 1.5 8.56 1.32 5.27.43 10.4-.3 15.5-1.46 4.71-1.16 7.01 6.97 2.11 8.15-1.85.1-3.35 1.1-5.25 1.1-3.2-.02-6.32.94-9.53.55z"/><path fill="#000" d="M221.33 402.61a8.4 8.4 0 0 1-6.24-6.53c-1.53-2-1.67-5.16.63-6.56 3.3-1.6 5.9 2.05 6.32 4.96 2.36 1.08 5.3.02 7.59-.25a32 32 0 0 0 8.56-1.8c4.53-2.12 9.37-3.46 14.05-5.21 4-3.42 8.7 3.74 4.98 6.73-4.74 2.87-10.67 3.6-15.57 6.08l.16-.08.32-.14a34 34 0 0 1-10.96 2.64c-3.29.55-6.54 1.34-9.78.16zM314 381.93c-5.03-1.67-2.98-7.95-2.9-11.82.43-3.3-.67-7.72 2.95-9.41a31 31 0 0 0 9.18-3.93c3.98-2.74 7.84 3.87 4.65 6.86a33 33 0 0 1-9.41 4.53c-.15 2.69-.37 5.19-.6 7.85 1.47 2.73-.54 6.75-3.9 5.92z"/><path fill="#000" d="M317.89 414.14c-2.12-.88-2.93-3.28-2.53-5.37l-.08.38q0 .22-.02.43v-.26q.05-.4.06-.8v.43c.3-12.04.98-24.3.9-36.34.6-3.84-2.34-10.75 2.93-12.01 2.78-.23 4.84 3.05 4.04 5.59.35 7.85.15 15.72.06 23.59-.1 6.2-.67 12.38-.7 18.56.44 3.03-.88 7.08-4.64 5.78z"/><path fill="#000" d="M315.2 386.26c-.43-2-1.67-3.66-2.56-5.36-1.06-2.34-1.18-6.08 1.83-6.96 2.38-.63 4.51 1.65 4.7 3.9a25 25 0 0 1 2.94 6.6c1.37 5.34-5.37 7.21-6.93 1.85zm57.63-33.76c-1.46-1.5-1.2-3.54-1.72-5.38-1.04-2.4-1.84-5.5-.41-7.3q.9-.43 1.73-1 .18-.13.36-.29.06 0 .13-.04c3.96-.32 4.25 4.54 5.2 7.3.39 1.91 1.02 4.2.02 6a3.3 3.3 0 0 1-2.93 1.8 3.2 3.2 0 0 1-2.4-1.07z"/><path fill="#000" d="M369.6 341.94q0-.92.36-1.81l.65-.29a11 11 0 0 0 1.8-1.04q.73-.56 1.4-1.22l1.05-.85a15 15 0 0 0 3.38-2.93l.46-.24q.19-.03.39-.1 1.56-.64 3.09-1.39l1.1-.43 2.64-1.03a4.5 4.5 0 0 1 .1 5.28c-1.28 3.42-8.27 10.31-12.75 10.31-1.85 0-3.27-1.17-3.68-4.29z"/><path fill="#000" d="M379.76 339.06c-2.22-2.07-.35-5.25 1.89-6.42q.38-.4.8-.68l.84-.32 1.37-.53c.89-.24 1.83-.43 2.66-.81.95-.53 2.11-.51 3.13-.67 1.69-.96 4.21-.7 5.25 1.12 1.58 2.96-1.47 5.6-4.15 6.01-1.65 1.37-3.64 2.08-5.67 2.67-.98.49-2.18.87-3.32.87a3.4 3.4 0 0 1-2.79-1.26zm-2.91-4.18-.06.06q.03-.01.06-.06m-.28.24-.02.02z"/><path fill="#000" d="M371.62 343.78c-1.62-1.6-1.26-3.2-.22-4.58.65-.32 1.24-.75 1.83-1.18q1.38-1 2.58-2.17l-.18.18q.26-.27.57-.55l.08-.08s.08-.08.12-.1l.04-.02.04-.04h.02l.14-.12-.02.02.15-.13.1-.08q.77-.69 1.46-1.46a4 4 0 0 1 2.14 0c4.78 1.8 1.77 6.18-1.2 8.17-1.32 1.47-3.36 3.07-5.37 3.07-.8 0-1.57-.24-2.3-.83z"/><path fill="#ba6a43" d="M228.83 358.26c.77 2.11-.1 5.18-2.59 5.67-3.86 2.63-8.21 4.68-13.01 4.11-7.9-.92-14.87-5.27-21.05-9.94-9.76-7.08-15.17-18.22-18.8-29.39-1.94-8.6-1.7-17.6-1.43-26.4 1.16-12.76 7.12-25.3 17.12-33.48 3.38-2.54 7.81-3.24 11.92-3.5 2.01-.45 3.84 1.32 4.2 3.23.47 2.14-.64 4.98-3.1 5.15-7.9-.53-12.55 4.45-16.46 10.61-6.2 8.54-7.28 19.54-6.79 29.8-.14 15.65 7.3 31.29 20.64 39.6 5.13 3 10.58 6.8 16.84 5.88 3.11-.3 5.23-2.85 8.05-3.82 1.93-.63 3.78.6 4.46 2.5z"/><path fill="#ba6a43" d="M232.15 337.23c6.62 8.08-10.42 14.75-16.68 13.47-9.1-1.61-15.62-9.42-19.95-17.1-9.31-15.58-9.96-37.83 3.3-51.35 2.3-2.12 6.69-2.99 7.87.75.65 1.83.12 4.68-1.94 5.45-4.65 2-6.67 7.95-8.09 12.53-3.37 14.62 2.89 30.99 14.93 39.85 4.86 2.79 10.16 1.53 14.58-1.42.44-.33.67-.85.95-1.32a3.3 3.3 0 0 1 5-.88z"/><path fill="#ba6a43" d="M235.04 315.47c.24 4.64 1.52 10.13-1.57 14.12-1.32 1.64-3.68 1.56-5.04.04-1.39-1.57-1.57-4.25-.19-5.88.17-.85.15-1.73.15-2.6-.1-6.85-3.24-21.43-10.27-24.08-2.83 3.8-7.55-.38-6.22-4.2 1.62-6.07 9.51-4.62 12.93-.94 5.98 6.2 8.97 15.15 10.19 23.57zm-18.31-38.43c3.3 3.46-1 10.1-4.96 6.06-3.3-3.46 1-10.1 4.96-6.06m.27 47.32c6.09.13 4.78 10.46-1.66 8.1-8.16-2.12-11.4-11.74-11.25-19.36.15-3.54.82-8.89 4.99-9.66 4.7-1.1 6.42 6.45 2.31 8.17-.81 4.52.33 11.64 5.6 12.73z"/><defs><filter id="crests-logs-filter0_d_35_2047" width="371.08" height="427.84" x="122.92" y="99" color-interpolation-filters="sRGB" filterUnits="userSpaceOnUse"><feFlood flood-opacity="0" result="BackgroundImageFix"/><feColorMatrix in="SourceAlpha" result="hardAlpha" values="0 0 0 0 0 0 0 0 0 0 0 0 0 0 0 0 0 0 127 0"/><feOffset dx="12" dy="12"/><feComposite in2="hardAlpha" operator="out"/><feColorMatrix values="0 0 0 0 0 0 0 0 0 0 0 0 0 0 0 0 0 0 0.4 0"/><feBlend in2="BackgroundImageFix" result="effect1_dropShadow_35_2047"/><feBlend in="SourceGraphic" in2="effect1_dropShadow_35_2047" result="shape"/></filter></defs></svg>