<svg xmlns="http://www.w3.org/2000/svg" fill="none" viewBox="0 0 600 600"><g filter="url(#crests-mobile-filter0_d_26_6722)"><mask id="crests-mobile-path-1-outside-1_26_6722" width="308" height="468" x="146" y="66" fill="#000" maskUnits="userSpaceOnUse"><path fill="#fff" d="M146 66h308v468H146z"/><path d="M249.72 88.45c14.87-3.25 30.67-6.9 45.92-4.86a5 5 0 0 1 3.26.2c19.12 3.84 24.97 25.84 31.96 41.4 11.93 27.33 19.28 56.07 27.1 84.72 4.27 14.4 8.58 28.78 12.61 43.25.4 2 1.4 3.94 1.88 5.92q.18.22.34.49c5.8 4.28 12.13 8.7 19.32 9.9q.77.1 1.6.17.6-.82 1.47-1.48c3.42-3.29 8.96-4.58 13.15-2q.96.5 1.86 1.31h.1c2.47-1.96 7.16-2.4 9.93-2.6 9.6-.72 14.63 9.49 13.18 17.88 10.36 15.22-10.32 36.1-26.25 29.69-1.2-.4-2.66-1-4-1.76-2.24 2.44-6.06 3.6-9.08 2.04v.03a12.4 12.4 0 0 1-8.3-7.99q-.25-.64-.4-1.4l-4.93-.77c2.78 16.43 5.12 32.77 7.74 49.13 1.95 16.99 5.94 34.54 2.56 51.55-1.97 7.4-5.98 14.4-12.04 19.1-.59.55-1.26 1.19-1.97 1.75q.43 1.1 1.06 2.13c5.06.4 6.92 6.28 9.1 10.07 4.5-.87 8.23 3.04 10.12 6.35 9.32-1.38 20.7 1.78 24.14 11.4 5.5 1.18 9.31 6 11.14 11.03 3.06 12.52-14.5 22.77-23.34 28.76-7.83 4.4-30.15 18.2-40.78 16.67a3.8 3.8 0 0 1-2.97.47l-.03.03c-9.52-1.2-13.8-11.7-11.47-20.26-4.72-8.68-6.49-19.87-2.75-29.19-2.94-6.63-5.72-13.4-8.62-20.04q-1.03.48-2.02.9c-12.72 5.72-26.88 9.8-40.8 9.76v.02c-1.2-.17-2.43-.26-3.64-.37a34 34 0 0 1-4.27 6.74 10.5 10.5 0 0 1 2.9 8.22c5.4 2.07 10.04 6.34 12.06 11.79.64 2.06 1 4.21 1 6.37.02.8.07 1.73.03 2.64 2.34 2.1 3.69 5.24 4.27 8.52l.04.5-.02 1.5v.4l-.1 1.64v.07q-.51 2.18-1.21 4.33 0-.07.04-.16-.15.45-.32.86-.06.17-.16.3l-.08.14v.03q-.37.64-.82 1.25-.92 1.26-1.95 2.38l-.4.46-.06.03-.2.22-.3.09a41 41 0 0 1-10.45 4.5 52 52 0 0 1-13.88 1.78h-.45l-.02.04a65.6 65.6 0 0 1-32.87-9.34 51 51 0 0 1-14.6-12.88q-1.11-1.48-2.12-3.02c-.38-.64-.72-1.32-1.13-1.95l-.18-.25a3 3 0 0 1-.44-2.1c-1.47-2.76-3.45-7.18-2.4-9.85.2-1.47.71-2.94 1.1-4.3 1.41-4.98 4.93-9.45 10.03-10.95 1.66-3.97 4.76-7.4 8.84-8.98 3.14-5.16 6.54-13 13.12-13.56-4.26-5.45-7-11.89-9.83-18.24-11.7-25.67-20.16-52.5-28.8-79.3-1.52-4.33-2.74-8.76-4.25-13.1l-.43.16a40 40 0 0 1-13.52 2.34c-9.6 0-19.03-3.47-26.4-9.71l-.02-.04a42 42 0 0 1-13.54-41.44 41 41 0 0 1 6.05-13.88c-1.2-3.12-1.44-6.74-.25-9.8 1.64-4.1 6.34-7.74 10.74-7.72q-.14-1.78 0-3.59c.95-6.6 1.1-15.51 8.04-18.73a8.3 8.3 0 0 1 6.37.58c-5.56-31.15-12.23-62.46-9.52-94.2l-.03-.03.05-.26.01-.1q.21-1.14.39-2.3l.07-.5q.23-1.5.53-3l.45-2.23.55-1.86.1-.27q.07-.18.17-.37a49.4 49.4 0 0 1 17-17.85c13.34-8.95 29.6-11.63 44.92-15.42m33.8 406.49q-.27.24-.57.45l.9-.02zm-10.09-.86q-.26.07-.52.1.27.08.55.13zM205.6 288.2a8 8 0 0 1-4.73 1.44q-2.24.01-4.98-1.08v.01a7 7 0 0 0 .22 3.25c1.65 3.27 5.55 6.56 9.18 4.4.48-.27.98-.54 1.32-.97q.34-.51.8-.85c-.5-1.74-1.15-3.9-1.81-6.2"/></mask><path fill="#fff" d="M249.72 88.45c14.87-3.25 30.67-6.9 45.92-4.86a5 5 0 0 1 3.26.2c19.12 3.84 24.97 25.84 31.96 41.4 11.93 27.33 19.28 56.07 27.1 84.72 4.27 14.4 8.58 28.78 12.61 43.25.4 2 1.4 3.94 1.88 5.92q.18.22.34.49c5.8 4.28 12.13 8.7 19.32 9.9q.77.1 1.6.17.6-.82 1.47-1.48c3.42-3.29 8.96-4.58 13.15-2q.96.5 1.86 1.31h.1c2.47-1.96 7.16-2.4 9.93-2.6 9.6-.72 14.63 9.49 13.18 17.88 10.36 15.22-10.32 36.1-26.25 29.69-1.2-.4-2.66-1-4-1.76-2.24 2.44-6.06 3.6-9.08 2.04v.03a12.4 12.4 0 0 1-8.3-7.99q-.25-.64-.4-1.4l-4.93-.77c2.78 16.43 5.12 32.77 7.74 49.13 1.95 16.99 5.94 34.54 2.56 51.55-1.97 7.4-5.98 14.4-12.04 19.1-.59.55-1.26 1.19-1.97 1.75q.43 1.1 1.06 2.13c5.06.4 6.92 6.28 9.1 10.07 4.5-.87 8.23 3.04 10.12 6.35 9.32-1.38 20.7 1.78 24.14 11.4 5.5 1.18 9.31 6 11.14 11.03 3.06 12.52-14.5 22.77-23.34 28.76-7.83 4.4-30.15 18.2-40.78 16.67a3.8 3.8 0 0 1-2.97.47l-.03.03c-9.52-1.2-13.8-11.7-11.47-20.26-4.72-8.68-6.49-19.87-2.75-29.19-2.94-6.63-5.72-13.4-8.62-20.04q-1.03.48-2.02.9c-12.72 5.72-26.88 9.8-40.8 9.76v.02c-1.2-.17-2.43-.26-3.64-.37a34 34 0 0 1-4.27 6.74 10.5 10.5 0 0 1 2.9 8.22c5.4 2.07 10.04 6.34 12.06 11.79.64 2.06 1 4.21 1 6.37.02.8.07 1.73.03 2.64 2.34 2.1 3.69 5.24 4.27 8.52l.04.5-.02 1.5v.4l-.1 1.64v.07q-.51 2.18-1.21 4.33 0-.07.04-.16-.15.45-.32.86-.06.17-.16.3l-.08.14v.03q-.37.64-.82 1.25-.92 1.26-1.95 2.38l-.4.46-.06.03-.2.22-.3.09a41 41 0 0 1-10.45 4.5 52 52 0 0 1-13.88 1.78h-.45l-.02.04a65.6 65.6 0 0 1-32.87-9.34 51 51 0 0 1-14.6-12.88q-1.11-1.48-2.12-3.02c-.38-.64-.72-1.32-1.13-1.95l-.18-.25a3 3 0 0 1-.44-2.1c-1.47-2.76-3.45-7.18-2.4-9.85.2-1.47.71-2.94 1.1-4.3 1.41-4.98 4.93-9.45 10.03-10.95 1.66-3.97 4.76-7.4 8.84-8.98 3.14-5.16 6.54-13 13.12-13.56-4.26-5.45-7-11.89-9.83-18.24-11.7-25.67-20.16-52.5-28.8-79.3-1.52-4.33-2.74-8.76-4.25-13.1l-.43.16a40 40 0 0 1-13.52 2.34c-9.6 0-19.03-3.47-26.4-9.71l-.02-.04a42 42 0 0 1-13.54-41.44 41 41 0 0 1 6.05-13.88c-1.2-3.12-1.44-6.74-.25-9.8 1.64-4.1 6.34-7.74 10.74-7.72q-.14-1.78 0-3.59c.95-6.6 1.1-15.51 8.04-18.73a8.3 8.3 0 0 1 6.37.58c-5.56-31.15-12.23-62.46-9.52-94.2l-.03-.03.05-.26.01-.1q.21-1.14.39-2.3l.07-.5q.23-1.5.53-3l.45-2.23.55-1.86.1-.27q.07-.18.17-.37a49.4 49.4 0 0 1 17-17.85c13.34-8.95 29.6-11.63 44.92-15.42m33.8 406.49q-.27.24-.57.45l.9-.02zm-10.09-.86q-.26.07-.52.1.27.08.55.13zM205.6 288.2a8 8 0 0 1-4.73 1.44q-2.24.01-4.98-1.08v.01a7 7 0 0 0 .22 3.25c1.65 3.27 5.55 6.56 9.18 4.4.48-.27.98-.54 1.32-.97q.34-.51.8-.85c-.5-1.74-1.15-3.9-1.81-6.2"/><path fill="#fff" d="m249.72 88.45-3.64-16.6-.45.1zm45.92-4.86-2.25 16.85a17 17 0 0 0 7.44-.66zm3.26.2L293 99.75q1.25.45 2.56.73zm31.96 41.4 15.58-6.8-.07-.16zm27.1 84.72-16.4 4.48.1.35zm12.61 43.25 16.67-3.36q-.12-.6-.3-1.2zm1.88 5.92-16.5 4.05c.56 2.3 1.6 4.47 3.06 6.35zm.34.49-14.52 8.84a17 17 0 0 0 4.42 4.83zm19.32 9.9-2.8 16.77.45.07zm1.6.17-1.72 16.92a17 17 0 0 0 15.36-6.78zm1.47-1.48 10.28 13.54q.78-.6 1.5-1.28zm13.15-2-8.91 14.48q.48.3.97.56zm1.86 1.31-11.38 12.63a17 17 0 0 0 12.63 4.33zm.1 0 .6 16.99a17 17 0 0 0 9.98-3.68zm9.93-2.6 1.16 16.96h.12zm13.18 17.88-16.76-2.9a17 17 0 0 0 2.7 12.47zm-26.25 29.69 6.36-15.77q-.52-.21-1.06-.39zm-4-1.76 8.44-14.76a17 17 0 0 0-21 3.29zm-9.08 2.04 7.79-15.1a17 17 0 0 0-24.79 15.1zm0 .03-4.77 16.31a17 17 0 0 0 21.77-16.31zm-8.3-7.99 16.17-5.23q-.13-.43-.3-.86zm-.4-1.4 16.63-3.48a17 17 0 0 0-14-13.32zm-4.93-.77 2.79-16.77a17 17 0 0 0-19.55 19.61zm7.74 49.13 16.9-1.94-.11-.75zm2.56 51.55 16.43 4.39q.15-.54.25-1.08zm-12.04 19.1-10.41-13.44q-.63.5-1.2 1.02zm-1.97 1.75-10.5-13.38a17 17 0 0 0-5.23 19.83zm1.06 2.13-14.35 9.1a17 17 0 0 0 12.99 7.84zm9.1 10.07-14.74 8.47A17 17 0 0 0 390.1 453zm10.12 6.35-14.78 8.4a17 17 0 0 0 17.26 8.41zm24.14 11.4-16 5.73a17 17 0 0 0 12.44 10.9zm11.14 11.03 16.51-4.04q-.21-.9-.53-1.76zm-23.34 28.76 8.34 14.81q.6-.34 1.2-.73zm-40.78 16.67 2.42-16.83a17 17 0 0 0-11.36 2.37zm-2.97.47 4.12-16.49a17 17 0 0 0-16.14 4.47zm-.03.03-2.12 16.86a17 17 0 0 0 14.14-4.84zm-11.47-20.26 16.4 4.48a17 17 0 0 0-1.46-12.59zm-2.75-29.19 15.78 6.34a17 17 0 0 0-.24-13.23zm-8.62-20.04 15.58-6.8a17 17 0 0 0-22.95-8.53zm-2.02.9-6.94-15.51-.02.01zm-40.8 9.76.05-17a17 17 0 0 0-17.05 17zm0 .02-2.48 16.82a17 17 0 0 0 19.48-16.82zm-3.64-.37 1.47-16.93a17 17 0 0 0-16.92 9.85zm-4.27 6.74-13.38-10.48a17 17 0 0 0 1.46 22.6zm2.9 8.22-16.88-1.93a17 17 0 0 0 10.8 17.8zm12.06 11.79 16.25-5-.31-.93zm1 6.37h-17v.5zm.03 2.64-16.98-.82a17 17 0 0 0 5.63 13.48zm4.27 8.52h17q0-1.5-.26-2.96zm.04.5h17v-.01zm-.02 1.5-16.98-.77-.02.77zm0 .4 16.94 1.42q.06-.7.06-1.41zm-.1 1.64-16.98-.7-.01.7zm0 .07 16.5 4.12a17 17 0 0 0 .5-4.12zm-1.21 4.33h-17a17 17 0 0 0 33.12 5.38zm.04-.16 16.13 5.38a17 17 0 0 0-32-11.48zm-.32.86-15.69-6.54-.1.23zm-.16.3-13.6-10.2q-.62.84-1.16 1.76zm-.08.14-14.64-8.64a17 17 0 0 0-2.24 10.73zm0 .03 14.71 8.52a17 17 0 0 0 2.18-10.45zm-.82 1.25 13.74 10.02.04-.07zm-1.95 2.38-12.58-11.43-.32.37zm-.4.46 9.09 14.36a17 17 0 0 0 2.92-2.34zm-.06.03-9.07-14.38q-1.97 1.25-3.54 2.98zm-.2.22 5.37 16.13a17 17 0 0 0 7.26-4.76zm-.3.09-4.4-16.43a17 17 0 0 0-4.46 1.92zm-10.45 4.5 4.53 16.4.04-.02zm-14.33 1.78v-17a17 17 0 0 0-15.27 9.53zm-.02.04-.1 17a17 17 0 0 0 15.37-9.52zm-32.87-9.34-8.7 14.6.02.01zm-14.6-12.88L220.4 504.4q0 .03.03.05zm-2.12-3.02-14.53 8.82.25.39zm-1.13-1.95 14.3-9.2q-.33-.5-.7-1zm-.18-.25-14.37 9.08q.36.58.77 1.12zm-.44-2.1 16.78 2.74a17 17 0 0 0-1.79-10.76zm-2.4-9.85 15.82 6.23q.75-1.93 1.03-3.98zm1.1-4.3 16.33 4.74.04-.12zm10.03-10.95 4.78 16.32a17 17 0 0 0 10.9-9.77zm8.84-8.98 6.17 15.85a17 17 0 0 0 8.37-7.04zm13.12-13.56 1.42 16.94a17 17 0 0 0 11.97-27.41zm-9.83-18.24 15.53-6.91-.06-.14zm-28.8-79.3 16.17-5.21-.12-.38zm-4.25-13.1 16.07-5.56a17 17 0 0 0-22-10.37zm-.43.16 5.77 16zm-11.16 2.27 1 16.97h.02zm-2.36.07v17zm-26.4-9.71-15.07 7.86a17 17 0 0 0 4.09 5.12zm-.02-.04 15.07-7.87a17 17 0 0 0-4.1-5.12zm-13.95-24.3-16.74 3 .03.12zm.4-17.14 16.6 3.71zm6.06-13.88 14.12 9.47a17 17 0 0 0 1.74-15.59zm-.25-9.8-15.78-6.34-.09.22zm10.74-7.72-.06 17a17 17 0 0 0 17.01-18.17zm0-3.59-16.83-2.42q-.07.5-.12 1.01zm8.04-18.73-5.1-16.22q-1.05.33-2.05.8zm6.37.58-7.65 15.18a17 17 0 0 0 24.39-18.17zm-9.52-94.2 16.94 1.44a17 17 0 0 0-4.3-12.81zm-.03-.03-16.68-3.26a17 17 0 0 0 3.9 14.46zm.05-.26 16.7 3.16q.17-.84.24-1.68zm.01-.1-16.74-2.96q-.13.73-.2 1.47zm.39-2.3L170 124.03a17 17 0 0 0-.9 3.46zm0 0 15.91 5.97q.63-1.67.9-3.44zm.07-.5-16.78-2.66-.03.16zm.53-3-16.61-3.64-.05.22zm.45-2.23-16.3-4.83q-.2.64-.33 1.3zm.55-1.86-15.7-6.53q-.34.84-.6 1.7zm.1-.27 15.7 6.52.1-.2zm.17-.37 14.57 8.75q.13-.2.24-.41zm17-17.85 8.93 14.47.56-.35zm78.73 391.07 14.24-9.29a17 17 0 0 0-25.77-3.2zm-.58.45-9.65-14a17 17 0 0 0 9.68 31zm.9-.02.41 17a17 17 0 0 0 12.43-28.15zm-10.42-1.3 16.87-2.1a17 17 0 0 0-21.6-14.22zm-.52.11-2.06-16.87a17 17 0 0 0-1.95 33.4zm.55.13-3.78 16.58a17 17 0 0 0 20.65-18.7zm-67.86-206.1 16.33-4.7a17 17 0 0 0-26.2-9.14zm-4.73 1.44v17zm-4.98-1.08 6.4-15.75a17 17 0 0 0-23.3 13.9zm0 .01-16.9-1.84a17 17 0 0 0 4.88 13.86zm0 0-4.4 16.42a17 17 0 0 0 16.44-28.43zm0 0 4.44-16.4A17 17 0 0 0 179 286.75zm.22 3.25-15.87 6.09q.3.81.7 1.6zm9.18 4.4-8.43-14.76-.24.14zm1.32-.97 13.34 10.54q.46-.6.86-1.2zm.8-.85 9.97 13.77a17 17 0 0 0 6.38-18.47zm42.3-205.96 3.64 16.6c15.67-3.42 28.33-6.17 40.04-4.6l2.25-16.86 2.26-16.85c-18.8-2.51-37.74 2.02-51.82 5.1zm45.93-4.86 5.19 16.2a12 12 0 0 1-7.84-.05l5.91-15.94 5.9-15.94a22 22 0 0 0-14.34-.46zm3.26.2-3.34 16.68c2.9.58 5.76 2.45 9.27 8.34 4.1 6.86 6.07 13.44 10.52 23.35l15.5-6.97 15.52-6.96c-2.54-5.66-6.98-17.86-12.34-26.84-5.94-9.96-15.57-21-31.79-24.26zm31.96 41.4-15.58 6.8c11.32 25.94 18.33 53.28 26.29 82.4l16.4-4.48 16.4-4.48c-7.7-28.17-15.4-58.31-27.93-87.04zm27.1 84.72-16.3 4.83c4.3 14.48 8.55 28.69 12.54 43l16.37-4.58 16.38-4.57c-4.08-14.63-8.44-29.18-12.69-43.5zm12.61 43.25-16.66 3.36c.49 2.43 1.27 4.53 1.6 5.45l.43 1.16 16.51-4.05 16.52-4.05a34 34 0 0 0-.87-2.92c-.24-.72-.52-1.45-.65-1.82-.38-1.05-.3-.91-.21-.49zm1.88 5.92-13.44 10.4q-.4-.51-.74-1.07l14.52-8.85 14.52-8.84q-.66-1.08-1.4-2.04zm.34.49-10.1 13.67c5.46 4.03 14.86 11.04 26.62 13l2.8-16.76 2.8-16.77c-2.61-.44-5.87-2.28-12.03-6.82zm19.32 9.9-2.35 16.84c.6.09 1.13.14 1.48.18.55.05.43.03.75.07l1.72-16.92 1.72-16.9-.53-.06-.34-.03-.1-.01zm1.6.17 13.64 10.14a10 10 0 0 1-1.9 1.92l-10.27-13.54-10.28-13.54a24 24 0 0 0-4.84 4.89zm1.47-1.48 11.77 12.26q-1.01 1-2.54 1.28c-1.11.2-3.03.15-5-1.06l8.92-14.47 8.92-14.48c-12.37-7.62-26.3-3.04-33.85 4.2zm13.15-2-7.94 15.04a8 8 0 0 1-1.58-1.1l11.38-12.62 11.39-12.63c-1.6-1.44-3.4-2.7-5.3-3.72zm1.86 1.31 1.25 16.96-.55.03-.6-17-.58-16.98-.76.04zm.1 0 10.58 13.31a10 10 0 0 1-2.25 1.35l-.22.07.21-.05q.4-.08 1.17-.18l1.6-.14-1.16-16.96-1.16-16.96c-1.56.11-4.37.33-7.38.96-2.6.54-7.56 1.8-11.96 5.29zm9.93-2.6 1.28 16.96a6 6 0 0 1-3.14-.74 5 5 0 0 1-1.67-1.45c-.15-.23-.11-.25-.07-.05s.01.31.02.26l16.76 2.9 16.75 2.9a34.8 34.8 0 0 0-4.94-24.5c-5.04-7.79-14.22-14.14-26.27-13.23zm13.18 17.88-14.05 9.57c.01.02-.08-.12-.14-.4-.04-.24-.01-.35-.03-.27a6 6 0 0 1-1.51 2.5 8.6 8.6 0 0 1-3.45 2.31c-.93.3-1.05.08-.71.21l-6.36 15.77-6.35 15.76c16.68 6.73 32.96-1.41 41.8-10.93 9.04-9.75 16.1-27.57 4.85-44.1zm-26.25 29.69 5.3-16.16a7 7 0 0 1-.86-.36l-8.44 14.76-8.44 14.75a39 39 0 0 0 7.15 3.16zm-4-1.76L390.6 299.2a8.4 8.4 0 0 1 4.2-2.5c1.7-.43 4.32-.5 7.06.9l-7.79 15.11-7.79 15.12c11.45 5.9 23.32.97 29.41-5.7zm-9.08 2.04h-17v.03h34v-.03zm0 .03 4.77-16.32a4.6 4.6 0 0 1 3.1 3.1l-16.17 5.23L369.6 310a29.4 29.4 0 0 0 19.7 19.06zm-8.3-7.99 15.87-6.09q.3.83.36 1.2l-16.64 3.48-16.64 3.48c.26 1.25.64 2.62 1.18 4.02zm-.4-1.4 2.64-16.8c-2.14-.34-3.13-.46-4.78-.74l-2.8 16.77-2.79 16.77c1.63.27 3.93.6 5.08.79zm-4.93-.77-16.76 2.84c2.78 16.42 5.02 32.15 7.72 48.98l16.78-2.7 16.79-2.68c-2.55-15.9-4.99-32.85-7.77-49.28zm7.74 49.13-16.89 1.94c1.2 10.38 2.4 16.4 3.25 25.43.75 7.87.76 14.67-.47 20.87l16.68 3.31 16.67 3.31c2.15-10.8 1.86-21.3.97-30.7-.78-8.24-2.56-19.5-3.32-26.1zm2.56 51.55-16.42-4.38c-1.24 4.64-3.54 8.11-6.03 10.05l10.41 13.43 10.42 13.44c9.61-7.46 15.34-18 18.05-28.15zm-12.04 19.1-11.6-12.42-.7.64-.16.15 10.49 13.38 10.49 13.37c1.4-1.1 2.64-2.28 3.09-2.7zm-1.97 1.75L361 430.57a30 30 0 0 0 2.44 4.78l14.35-9.1 14.36-9.1q.24.37.3.52.08.14 0 0zm1.06 2.13-1.36 16.94a11 11 0 0 1-5.37-1.97 9 9 0 0 1-1.28-1.13q-.36-.42-.37-.45l.2.32.53 1 .37.74.45.88c.31.6.72 1.4 1.2 2.2l14.73-8.46 14.74-8.48c-.28-.48-.44-.84-1.25-2.4a46 46 0 0 0-2.95-5.05c-2.64-3.86-8.34-10.29-18.27-11.09zm9.1 10.07 3.2 16.7a9.5 9.5 0 0 1-7.27-1.43c-.4-.3-.57-.5-.58-.51l-.01-.01 14.78-8.4 14.78-8.4a33 33 0 0 0-8.75-10.01c-4.25-3.14-11.06-6.23-19.35-4.64zm10.12 6.35 2.48 16.81c.94-.13 1.97-.16 2.98-.06s1.81.33 2.37.56c.55.22.7.38.63.33a2 2 0 0 1-.32-.51l16-5.73 16.01-5.73c-3.69-10.31-11.58-16.6-19.43-19.82a45 45 0 0 0-23.2-2.67zm24.14 11.4-3.56 16.62a5 5 0 0 1-1.39-.53 2 2 0 0 1-.47-.35l.21.3q.2.33.37.79l15.98-5.8 15.98-5.8c-2.9-7.97-10.1-18.96-23.55-21.85zm11.14 11.03-16.51 4.04a5 5 0 0 1-.1-1.76c.08-.53.21-.78.18-.71-.13.27-.75 1.28-2.5 2.96-3.78 3.6-8.58 6.52-13.94 10.15l9.53 14.08 9.53 14.08c3.5-2.37 11.89-7.56 18.34-13.71 6-5.72 15.83-17.44 11.99-33.17zm-23.34 28.76-8.34-14.82c-4.51 2.54-11.14 6.57-18.39 10.07a70 70 0 0 1-9.32 3.83c-2.98.93-3.44.6-2.31.76l-2.42 16.83-2.41 16.83c6.44.92 12.76-.56 17.19-1.93a104 104 0 0 0 14.05-5.7c8.53-4.12 16.98-9.2 20.29-11.06zm-40.78 16.67-8.94-14.46a13.2 13.2 0 0 1 10.09-1.56l-4.12 16.5-4.13 16.49a20.8 20.8 0 0 0 16.04-2.51zm-2.97.47-12.02-12.02-.03.03 12.02 12.02 12.02 12.02.03-.02zm-.03.03 2.13-16.87a4.3 4.3 0 0 1 1.98.83c.56.43.79.82.84.91.04.08-.02 0-.04-.23q-.02-.34.02-.42l-16.4-4.48-16.4-4.48a35.2 35.2 0 0 0 2.56 25.12c4.1 8.01 11.98 15.07 23.19 16.48zm-11.47-20.26 14.94-8.11c-2.98-5.48-3.3-11.3-1.91-14.75l-15.78-6.33-15.77-6.33c-6.1 15.2-2.88 31.74 3.58 43.64zm-2.75-29.19 15.54-6.89c-3.06-6.9-5.34-12.53-8.58-19.96l-15.58 6.8-15.58 6.8c2.56 5.87 5.84 13.78 8.66 20.14zm-8.62-20.04-7.37-15.33c-.4.2-.66.3-1.58.72l6.93 15.52 6.94 15.52c.36-.17 1.48-.65 2.44-1.11zm-2.02.9-6.96-15.5c-11.37 5.1-23.07 8.3-33.79 8.26l-.05 17-.06 17c17.13.06 33.75-4.92 47.83-11.25zm-40.8 9.76h-17v.02h34v-.02zm0 .02 2.47-16.82c-1.86-.27-3.8-.41-4.64-.48l-1.47 16.94-1.47 16.93c1.6.14 2.08.17 2.63.25zm-3.64-.37-15.45-7.08a18 18 0 0 1-2.2 3.34l13.38 10.48 13.38 10.5a52 52 0 0 0 6.35-10.15zm-4.27 6.74-11.92 12.13a7 7 0 0 1-1.74-2.6 7 7 0 0 1-.32-3.24l16.89 1.93 16.89 1.93a27.5 27.5 0 0 0-7.88-22.27zm2.9 8.22-6.08 15.87c.6.24 1.17.6 1.6 1.01.42.4.57.72.6.83l15.94-5.92 15.94-5.93c-3.94-10.58-12.54-18.14-21.9-21.73zm12.06 11.79-16.25 5c.2.64.25 1.11.25 1.37h34c0-4.05-.68-7.9-1.75-11.37zm1 6.37-17 .5.05 1.16v.16l16.98.82 16.98.83c.09-1.79-.01-3.74-.02-3.98zm.03 2.64-11.35 12.66a5 5 0 0 1-1.17-1.46c-.08-.17-.02-.1.05.29l16.74-2.97 16.74-2.96c-.98-5.53-3.53-12.72-9.66-18.21zm4.27 8.52-17 .01a18 18 0 0 0 .14 2.27l.03.2-.01-.07-.04-.33a18 18 0 0 1-.08-1.57l17-.01 17-.01a18 18 0 0 0-.14-2.27l-.03-.2.01.07.04.33a18 18 0 0 1 .08 1.57zm.04.5h-17v.73l16.98.77 16.98.77c.05-.95.04-1.84.04-2.27zm-.02 1.5h-17v.4h34v-.4zm0 .4-16.94-1.4c-.08.95-.12 1.84-.14 2.33l16.99.7 16.98.72.05-.93zm-.1 1.64h-17v.07h34v-.07zm0 .07-16.48-4.13a49 49 0 0 1-.86 3.08l16.13 5.38 16.12 5.38c.69-2.06 1.2-4.02 1.6-5.6zm-1.21 4.33h17c0 2.69-.67 4.7-.84 5.22l-.15.45.16-.45-16.13-5.38-16.13-5.38.13-.36-.01.03-.04.1-.14.4c-.18.57-.86 2.63-.86 5.37zm.04-.16-15.87-6.1-.23.62-.06.19-.03.06-.01.04.02-.06.17-.43 15.7 6.54 15.69 6.54.33-.85.17-.48.03-.07.01-.05.01-.03-.06.18zm-.32.86-15.78-6.31c.29-.73.9-2.1 2.02-3.6l13.6 10.2 13.6 10.2a18 18 0 0 0 2.35-4.17zm-.16.3-14.76-8.44.14-.23.04-.06.01-.03v.01l-.03.05-.05.08-.07.12 14.63 8.64 14.64 8.65-.07.13v-.02l.1-.16.18-.3zm-.08.14-16.88 2.09a19 19 0 0 0 .22 1.32l.01.06v.02-.03l-.02-.08-.13-.75-.09-.67 16.89-1.93 16.89-1.93a18 18 0 0 0-.25-1.55v.01l.01.06.05.25.17 1.05zm0 .03-14.71-8.51c.1-.19.17-.27.11-.2l13.78 9.96 13.78 9.95q.83-1.1 1.75-2.68zm-.82 1.25-13.73-10.02q-.3.42-.8.97l12.58 11.43 12.58 11.44a46 46 0 0 0 3.1-3.8zm-1.95 2.38-12.9-11.06-.06.07q-.02 0 .04-.06c.06-.06.24-.26.5-.51l12.01 12.02 12.02 12.02c.7-.7 1.28-1.4 1.3-1.42zm-.4.46-9.1-14.37.14-.09.1-.06.07-.04h.01-.02l-.07.05-.11.07-.15.1 9.07 14.37 9.07 14.38-.24.14-.05.04h-.02l.04-.01.07-.05.28-.17zm-.06.03-12.61-11.4-.23.25 12.64 11.37 12.63 11.37.18-.19zm-.2.22-5.38-16.13q.44-.15.62-.19l.1-.02h-.04l4.4 16.43 4.4 16.42.11-.03.26-.07.9-.28zm-.3.09-8.86-14.51a24 24 0 0 1-6.16 2.64l4.57 16.38 4.57 16.37a58 58 0 0 0 14.74-6.37zm-10.45 4.5-4.52-16.38a35 35 0 0 1-9.36 1.16v34a69 69 0 0 0 18.41-2.38zM282 516.46v-17h-.45v34h.45zm-.45 0-15.27-7.48-.02.05 15.27 7.47 15.27 7.48.02-.05zm-.02.04.1-17a48.6 48.6 0 0 1-24.29-6.96l-8.68 14.62-8.68 14.62a82.6 82.6 0 0 0 41.45 11.72zm-32.87-9.34 8.7-14.6a34 34 0 0 1-9.7-8.49l-13.6 10.2-13.6 10.2a68 68 0 0 0 19.5 17.3zm-14.6-12.88 13.63-10.15a40 40 0 0 1-1.46-2.08l-14.28 9.2-14.3 9.22c.94 1.44 1.9 2.8 2.77 3.95zm-2.12-3.02 14.54-8.82-.03-.06-.24-.42c-.2-.34-.6-1.06-1.1-1.84l-14.3 9.19-14.3 9.2c-.1-.16-.12-.22.05.1l.32.56.53.91zm-1.13-1.95 13.6-10.2.16.22-.34-.47-13.6 10.2-13.6 10.2-.16-.22.34.47zm-.18-.25 14.37-9.09a14 14 0 0 1 1.97 9.73l-16.78-2.74-16.78-2.75c-.76 4.7.15 9.67 2.85 13.94zm-.44-2.1 14.99-8.02a19 19 0 0 1-.88-1.92c-.03-.1.12.31.17 1.14.06.77.1 2.74-.86 5.18l-15.81-6.23-15.82-6.24c-2.76 7-.96 13.6-.19 16.1a46 46 0 0 0 3.41 8zm-2.4-9.85 16.85 2.25c-.05.4-.1.52 0 .14l.22-.73.36-1.22-16.33-4.73-16.32-4.73a44 44 0 0 0-1.62 6.76zm1.1-4.3 16.37 4.62c.07-.28.16-.33.03-.18-.16.19-.68.66-1.59.93l-4.78-16.32-4.79-16.3c-12.12 3.55-19.05 13.59-21.6 22.65zm10.03-10.95 15.69 6.55c.05-.13.1-.18.06-.14a2 2 0 0 1-.74.46l-6.16-15.85-6.17-15.84c-9.07 3.53-15.24 10.77-18.37 18.28zm8.84-8.98 14.54 8.81c.52-.85 1-1.7 1.42-2.42l1.16-2a25 25 0 0 1 1.61-2.52c.38-.5.3-.25-.33.18a8 8 0 0 1-3.86 1.33l-1.42-16.94-1.43-16.94c-10.34.87-16.7 7.48-19.88 11.6-2.81 3.65-5.8 9.2-6.34 10.09zm13.12-13.56 13.39-10.47c-2.7-3.46-4.6-7.72-7.69-14.68l-15.53 6.91-15.53 6.92c2.55 5.74 6.14 14.34 11.96 21.79zm-9.83-18.24 15.47-7.05c-11.21-24.6-19.37-50.41-28.1-77.46l-16.17 5.22-16.18 5.22c8.55 26.52 17.32 54.37 29.51 81.12zm-28.8-79.3 16.04-5.6a191 191 0 0 1-1.94-6c-.67-2.15-1.43-4.6-2.28-7.06L218 328.68l-16.06 5.57c.65 1.87 1.25 3.8 1.95 6.05a234 234 0 0 0 2.3 7.09zm-4.25-13.1-5.93-15.93-.27.1 5.77 16 5.77 15.98.6-.21zm-.43.16-5.77-15.99a23 23 0 0 1-6.4 1.29l1.01 16.97 1.02 16.97a57 57 0 0 0 15.9-3.25zm-11.16 2.27-1-16.97q-.65.03-1.36.04v34q1.69 0 3.36-.1zm-2.36.07v-17c-5.54 0-11.1-2.03-15.42-5.69l-10.98 12.98-10.98 12.98a58 58 0 0 0 37.38 13.73zm-26.4-9.71 15.07-7.86-.02-.05-15.07 7.87-15.08 7.86.03.04zm-.02-.04 10.97-13a25 25 0 0 1-8.21-14.41l-16.71 3.11-16.71 3.12a59 59 0 0 0 19.69 34.16zm-13.95-24.3 16.73-2.99q-.91-5.13.26-10.44l-16.58-3.71-16.6-3.72a60 60 0 0 0-.55 23.85zm.4-17.14 16.6 3.7a24 24 0 0 1 3.58-8.11l-14.12-9.47-14.12-9.46a58 58 0 0 0-8.52 19.63zm6.06-13.88 15.86-6.12c.04.12.1.3.1.59.02.3 0 .95-.35 1.84l-15.86-6.12-15.87-6.11c-3 7.78-2.14 15.83.26 22.04zm-.25-9.8 15.77 6.33c-.3.73-.6 1.18-.8 1.4q-.28.36-.57.56a4 4 0 0 1-1.05.55 8 8 0 0 1-2.67.44l.06-17 .05-17c-6.74-.02-12.48 2.64-16.53 5.62a30 30 0 0 0-10.04 12.76zm10.74-7.72 16.95-1.18c-.04-.6-.02-.9-.01-1L180.6 245l-16.94-1.42c-.19 2.31-.14 4.4-.01 6.17zm0-3.59 16.82 2.43c.15-1.02.28-2.06.38-2.9l.3-2.4c.22-1.5.4-2.37.57-2.92s.15-.25-.3.37a7 7 0 0 1-2.57 2.11l-7.16-15.42-7.15-15.42c-9.66 4.48-13.67 12.81-15.41 18.68-1.5 5.04-2.09 11.49-2.31 13.05zm8.04-18.73 5.1 16.22a9 9 0 0 1-6.38-.46l7.65-15.18 7.65-15.18a25.3 25.3 0 0 0-19.12-1.62zm6.37.58 16.74-2.99c-5.74-32.12-11.8-60.8-9.32-89.77l-16.94-1.44-16.94-1.45c-2.95 34.52 4.34 68.46 9.73 98.64zm-9.52-94.2 12.64-11.37q-.33-.36-.5-.52l-.1-.12-.04-.03.06.06a9 9 0 0 1 .7.76l-12.79 11.2-12.79 11.19.57.61.15.16.07.07-.02-.02-.12-.12q-.16-.15-.47-.5zm-.03-.03 16.69 3.27.05-.28.03-.16v-.03l-.01.1-16.71-3.16-16.7-3.15-.05.23v.06l-.01.02v.02-.03l.03-.15zm.05-.26 16.94 1.48v-.1l-16.93-1.48-16.94-1.49.01-.05v.06l-.02.1zm.01-.1 16.74 2.95c.11-.63.3-1.7.47-2.77l-16.82-2.47-16.82-2.48c-.07.47-.15.9-.31 1.81zm.39-2.3 15.92 5.95.4-1.2.05-.17.03-.12.02-.07v-.02.02l-.02.07-.03.13-.05.17-.07.23a13 13 0 0 1-.34.98zL170 123.97l-.25.72-.08.27-.07.23-.05.17-.04.13-.02.08v.02-.02l.02-.07.03-.12.12-.39.08-.27.25-.7zm0 0 16.8 2.53.01-.02.02-.1q0-.12.06-.4l-16.81-2.5-16.82-2.5-.01.08-.06.37zm.07-.5 16.8 2.68c.17-1.12.27-1.73.38-2.28l-16.65-3.4-16.66-3.42c-.3 1.45-.52 2.89-.65 3.76zm.53-3 16.6 3.62.3-1.42.18-.9-16.63-3.53-16.63-3.53c-.41 1.96-.16.9-.43 2.12zm.45-2.23 16.3 4.83.3-1.02.24-.84-16.3-4.83-16.3-4.83q-.15.55-.3 1.01l-.24.85zm.55-1.86 15.7 6.53.1-.28-15.7-6.52-15.69-6.53-.11.27zm.1-.27 15.8 6.31.08-.22.02-.06.01-.02-.1.26c-.11.27-.46 1.1-1.07 2.11l-14.57-8.75-14.58-8.74a18 18 0 0 0-1.41 2.92l.04-.13zm.17-.37 14.81 8.34a32.4 32.4 0 0 1 11.12-11.72l-8.92-14.47-8.93-14.47a66.4 66.4 0 0 0-22.9 23.99zm17-17.85L214.3 118c10.13-6.81 22.18-8.75 39.51-13.04l-4.08-16.5-4.09-16.5c-13.29 3.29-33.76 6.7-50.3 17.81zm78.73 391.07L272 482.44a13 13 0 0 1 1.2-.98l.1-.07 9.65 14 9.65 14c.36-.26 1.36-.95 2.46-1.96zm-.58.45.03 17 1.28-.02-.4-17-.41-17-.53.02zm.9-.02 12.84-11.15q.5.56 1.07 1.43l-14.23 9.29-14.24 9.29q.88 1.32 1.73 2.3zm-10.42-1.3-4.74-16.32q1-.3 2.16-.44l2.06 16.87 2.05 16.88q1.7-.22 3.21-.66zm-.52.11-4 16.52.77.19 3.78-16.57 3.8-16.58-.34-.08zm.55.13 16.87-2.12-.03-.22-16.87 2.1-16.87 2.11.02.16.02.1zm-67.86-206.1-9.86-13.84a9 9 0 0 1 5.13-1.72v34a25 25 0 0 0 14.59-4.59zm-4.73 1.44v-17c1.1 0 1.63.26 1.42.17l-6.4 15.75-6.4 15.75a30 30 0 0 0 11.38 2.33zm-4.98-1.08-16.9-1.85-.04.44v.03-.11l.02-.14.02-.2zl16.9 1.85.02-.2.02-.15v-.11.11l-.02.14-.02.2zm0 .01-12.02 12.02zl12.02-12.02zm0 0 4.43-16.4.1.02.06.02.11.03.06.02h.02-.02l-.02-.01-.03-.01-.11-.03-.07-.02-.09-.02zL191.45 305l-.08-.03-.08-.02-.1-.03-.06-.01h-.01.02l.06.02.11.03.07.02.1.02zm0 0-16.9-1.83a24 24 0 0 0 1.25 11.17l15.87-6.09 15.87-6.09c.65 1.7.79 3.09.82 3.76s-.02 1.05 0 .93zm.22 3.25-15.16 7.69a27.6 27.6 0 0 0 10.4 11.2c5.43 3.2 14.1 5.19 22.62.13l-8.68-14.62-8.67-14.62a12.3 12.3 0 0 1 7-1.66c2.31.14 4 .9 4.95 1.46a6.5 6.5 0 0 1 2.7 2.73zm9.18 4.4 8.44 14.76a38 38 0 0 0 1.9-1.17 20 20 0 0 0 4.32-4.02l-13.34-10.54-13.34-10.54a14 14 0 0 1 3.1-2.93l.62-.4-.13.08zm1.32-.97 14.2 9.34a14 14 0 0 1-3.43 3.58l-9.96-13.77-9.97-13.78a20 20 0 0 0-5.04 5.29zm.8-.85 16.35-4.7-.9-3.03-.93-3.17-16.33 4.7-16.34 4.7 1.01 3.45.81 2.75z" mask="url(#crests-mobile-path-1-outside-1_26_6722)"/></g><path fill="#e7a847" d="M384.38 297.68c-10.2-2.18-20.53-6.21-28.65-12.88-4.62-4.15-8.23-9.6-11.22-14.95-3.09-5.3-7.35-21.82-.12-24.88 3.56-5.2 6.94 2.06 9 4.79 4.88 6.8 11.35 12.34 18.13 17.12 3.7 2.09 7.26 4.4 11.1 6.2 3.73 1.47 7.84 1.04 11.74 1.79 5.74 1.1 3.97 8.75 3.08 12.88-1.51 5.85-6.26 12.47-13.08 9.93z"/><path fill="#e7a847" d="M388.58 297.92c-3.04-1.23-5.06-3.95-7.76-5.72-2.95-1.65-4.38-5.78-1.57-8.26 1.6-1.5 4.15-.47 4.95 1.37 3.45 3.26 7.82 4.67 10.89.15-1.84-1.9-4.97-3.42-4.06-6.62.86-4.47 6.91-3.42 9.1-.59 2.2 3.4 3.19 8.17 2.24 12.14-2.07 5.67-7.72 9.7-13.82 7.53z"/><path fill="#e7a847" d="M386.27 282.8c-6.63-3.42-13.4-6.77-19.24-11.51-5.26-4.74-10-10.1-14.67-15.43a10 10 0 0 0-3.68-2.65c-2.31.45-3.22 2.77-5 3.95-2.62-3.61-2.16-9.33 2.21-11.28 6.36-2.9 11.23 4.68 15 8.71 3.4 3.59 6.73 7.28 10.43 10.57a104 104 0 0 0 14.22 8.87c2 1.14 4.72 2.04 5.06 4.65.54 2.59-1.88 5.29-4.33 4.13"/><path fill="#fff" d="M394.85 305.85c-6.87-2.34-4.01-10.75-2.65-15.95 1.8-5.5 4.94-23.43 13.6-18.23 4.89 4.38 1.96 11.8.58 17.14-1.57 4.9-4.68 18.67-11.53 17.02z"/><path fill="#fff" d="M407.23 287.7a4 4 0 0 1-2.15-1.36 3.3 3.3 0 0 1-.75-1.97l-2.34-2.56q.3-.43.68-.73l-.34.32c4.06-4.72 8.8-9.46 15.27-10.21 4.71-1.34 10.16.68 11.38 5.76.86 2.63.37 5.8-2.18 7.33-2.65 1.79-6.25 1.47-9.16 1.88-3.5.2-6.94 1.81-10.4 1.54"/><path fill="#fff" d="M412.52 308.34c-4.22-1.2-17.15-6.64-15.6-12.06.31-1.98 2.47-3.63 4.42-2.84-.14-6.94 3.79-13.47 8.98-17.8.98-.66 2.27-.44 3.36-.3 6.96.59 14.99 3.83 16.08 11.61 1.95 10.66-5.06 23.52-17.22 21.4z"/><path fill="#e7a847" d="M380.17 454.03c.36 6.7-5.29 13.4-12.23 12.73-5.4-.25-10.95-3.32-12.81-8.6-2.86-6.08-5.06-12.43-7.47-18.69a340 340 0 0 0-4.49-11.23c-1.02-2.47-2.79-5.21-1.29-7.9-2.5-15.87 18.85-17.25 25.31-5.75 2.75 5.01 4.2 10.89 6.24 15.99 2.63 7.69 6.6 15.2 6.71 23.47z"/><path fill="#fff" d="M362.75 471.48c-1.7-.36-3.38-2.43-3.83-3.7a214 214 0 0 1-7.94-17c-1.5-4.66 4.7-7.74 6.44-2.55 2.23 5.38 4.52 10.82 7.3 15.83 1.25 2.07 1.89 7.53-1.3 7.53q-.31 0-.69-.06z"/><path fill="#fff" d="M352.07 450.79c-.9-2.02-.2-4.85 2-5.67 3.5-2.2 7.14-4.1 10.77-6.12 3.93-1.41 10.62-9.4 13.25-2.68.59 1.97-.27 4.7-2.47 5.24-3.16 1.7-6.13 3.72-9.33 5.35-2.65 1.45-5.3 2.93-7.84 4.56-1 .9-2.25 1.47-3.4 1.47-1.23 0-2.37-.63-2.98-2.15"/><path fill="#fff" d="M364.48 474.6c-4.06-3.22-5.56-9.84-7.83-14.45-.9-4.03-4.8-8.84-2.65-12.83 1.9-2.88 5.87-1.14 7.14 1.43l.1-.1q.2-.16.4-.27c-1.5-3.99 3.45-7.69 5.78-3.38.3-.72.82-1.36 1.46-1.74a2.95 2.95 0 0 1 3.28.25 3 3 0 0 1 2.23-1.27c-1.36-2.27-3.22-5.04-1.4-7.58 1.62-2.59 5.43-1.5 6 1.34 3.47 6.06 5.78 12.04 8.91 18.14.64 1.5 2.05 2.45 2.25 4.13.4 2.25-.88 4.22-2.86 5.2-5.67 4.42-11.9 8.27-18.7 10.59a5.5 5.5 0 0 1-2.7.88q-.73.01-1.44-.31z"/><path fill="#cbe6ff" d="M357.66 485.75c-4.4-6.32-6.4-26.94 5.29-26.2 4.58.94 3.44 9.2-1.37 8.17-1.88 5.1.96 10.25 1.6 15.24-.05 2.68-3.36 4.84-5.54 2.77z"/><path fill="#cbe6ff" d="M368.5 474.3c-3.23-.43-5.2-2.95-7.1-5.3-4.54-1.05-2.82-9.2 1.74-7.88 2.45.55 3.72 3.02 5.33 4.7 3.4 1.88 8.21.09 10.91-2.4l-.1-.2q-.67-1.27-1.46-2.46c-7.15-.77-4.56-9.5-.14-12.27 2.52-1.84 5.17-3.47 7.73-5.26 4.88-3.25 9.55 3.7 9.4 8.12-.94 5.42-5.68 3.5-7.29-.48-.52.34-1.04.73-1.54 1.07l-3.6 2.45c2.83 3.85 6.2 9.68 2.42 14.01-4 4.45-10.34 7-16.26 5.9z"/><path fill="#cbe6ff" d="M359.63 489.8c-1.04-.73-1.5-1.89-1.77-3.1a73 73 0 0 1-.68-16.8c.43-4.42 6.08-4.9 6.8-.34q.3 0 .64.12c.66.18 1.16.5 1.59.88a3.5 3.5 0 0 1 3.7.16c1.58-.25 3.1-.39 4.65-.2q4.79-3.2 9.88-5.93c-.7.14-1.47 0-2.2-.47-5.67-4.92 5.13-12.11 9.24-14.13 7.55-2.95 16.71-2.61 22.97 2.97 1.8 2.06 4.83 4.04 4.02 7.17-.39 1.65-1.89 3.3-3.75 3.06-14.06-2.43-37.01 13.18-47.47 22.2-2.22 1.9-4.01 6.58-7.57 4.38zm26.45-26.09c5.46-2.9 10.88-6.12 16.96-7.53-6.5-.64-12.72 1.86-16.6 7.17l.25-.3c0-.04.05-.07.05-.11q-.29.41-.66.77"/><path fill="#cbe6ff" d="M380.4 467.02c-2.01-5.15 4.55-6.96 7.97-8.87 5.1-2.47 11.68-5.69 16.85-1.77-3.79 5.63-10.75 6.76-16.28 9.92-2.77 1.47-6.4 5.08-8.53.72m-.06-9.75c-1.84-2.27-.66-5.22 1.31-6.97 1.27-1.43 3.04-3.4 5.13-2.33 3.47 1.72 2.06 8-1 9.39-1.57 1.22-4.13 1.72-5.44-.1"/><path fill="#547491" d="M362.62 503a8 8 0 0 1-2.86-3.16 8 8 0 0 1-.81-3.65l-.03-.3a10 10 0 0 1 .6-3.29c.4-1.31 1.04-2.56 1.74-3.76a31 31 0 0 1 4.15-5.4c3.72-3.97 8-7.28 12.52-10.3a99 99 0 0 1 16.6-8.8c5.88-2.45 12.14-4.47 18.49-4.99 3.65-.31 7.87-.11 10.84 2.3a8 8 0 0 1 2.84 5.94q.07 1.12-.16 2.24a9.6 9.6 0 0 0-7.3 1.09c-2.93 1.72-5.56 3.97-8.2 6.12q-1.94 1.6-3.8 3.3-1.76.42-3.25 1.58l-1.3 1.04a9 9 0 0 0-1.62 1.73 47 47 0 0 0-3.3 2.22l-2.24 1.61q-3.83 2.16-7.62 4.42-.88.5-1.72 1.05c-1.45.7-2.9 1.38-4.34 2.13q-1.72.9-3.47 1.84c-.95.5-1.97.97-2.9 1.54l-.2.09v.02q-.34.2-.64.43-.65.48-1.2 1.07l-1.25.75q-1.9 1.19-3.1 2.95-.84-.03-1.66-.16a13 13 0 0 1-4.81-1.61z"/><path fill="#df6133" d="M426.75 469.83a8 8 0 0 1-1.12 3.27 23 23 0 0 1-2.94 3.94 57 57 0 0 1-8.4 7.28 144 144 0 0 1-16.76 10.53 128 128 0 0 1-17.6 7.98 43 43 0 0 1-8.25 2.23c-1.37.2-2.88.38-4.31.18a7 7 0 0 1-1.98-.57 5 5 0 0 1-2.67-3.2 7 7 0 0 1 .22-4.04c.55-1.67 1.7-3.15 2.82-4.49 1.86-2.22 4.1-4.1 6.32-5.92 2.45-2 5.04-3.8 7.65-5.57 5.7-3.8 11.66-7.17 17.78-10.19 3.56-1.75 7.19-3.38 10.93-4.74q2.69-1 5.42-1.77c.64-.18 1.25-.36 1.89-.38q.51-.3 1.08-.3h.12l.11-.02c1.48-.23 3.02-.41 4.51-.25.84.09 1.68.27 2.43.68 2.02 1.06 2.86 3.17 2.72 5.4z"/><path fill="#e7a847" d="M292.82 437.63c2.47 7.46-.62 15.01-5.54 20.7-6.17 7.47-13.2 17.5-23.97 17.02-6.51-.37-11.37-6.49-11.75-12.7-.23-4.9 2.77-9.08 5.96-12.52 4.56-5.4 8.46-10.03 12.05-15.81 1.45-1.9 1.79-5.06 4.17-6.04 1.34-2.85 4.97-2.92 7.67-2.4 5.87 1.02 9.84 6.33 11.4 11.77z"/><path fill="#fff" d="M262.08 477.07a16 16 0 0 1-6.29-2.51c-3.22 2.31-6.28-2.23-5.14-5.26-3.72-5.86-.64-13.34 3.2-18.2 1.74-1.65 2.44-4.76 4.9-5.46 2.03-2.54 5.6-.86 5.91 2.1 3.7 4.93 9.71 7.8 15.79 8.24 3.26-.5 5.6 2.68 4.76 5.72-.72 4.4-4.2 7.3-7.64 9.7-4.5 3.36-9.6 6.8-15.47 5.67z"/><path fill="#fff" d="M261.55 481.52c-7.9.23-16.63-6.05-15.13-14.65.7-4.08 3.08-7.57 5.15-11.09 1.47-2.7 4.83-6.92 7.75-3.45 1.68 2.09 1.02 5.17-1.13 6.63-2.31 3.8-8.5 10.4-2.13 13.3 8.39 4.66 15.17-4.62 19.66-10.24 3.15-2.66 6.51-1.59 6.7 2.74v-.25q-.01-.28-.05-.56c.7 2.88-1.52 5.21-2.72 7.62-1.2 1.95-2.82 4.71-5.45 4.15-3.49 3.24-7.82 5.58-12.65 5.78z"/><path fill="#547491" d="M278.23 510.26c-13.22-.5-26.53-5.7-35.7-15.4-4.67-5.25-9.84-11.41-9.18-18.88a9.8 9.8 0 0 1 6.19-9.23c2.22-1 4.85-.31 5.56 2.25.52 1.79-.07 4.06-1.8 4.94 4.52 16.67 25.75 26.43 41.63 28.3 5.05.37 9.86-2.64 13.58-5.7-.54-1.78-2.13-3.05-1.84-5.06.03-2.5 2.95-4.63 5.15-2.98 3.7 3.45 5.15 9.6 3 14.27-5.47 8.67-17.6 7.49-26.56 7.49z"/><path fill="#cbe6ff" d="M281.27 503.28a49.6 49.6 0 0 1-32.08-13.61c-8.68-7.2-12.2-15.79-6.03-26.09 4.92-10.13 15.52-9.11 12.88 3.27 1.66 2.2 5.08 3.77 7.78 2.9-1.06-6.96 3.88-8.52 9.71-9.23 6.7-1.92 18.28-1.38 15.06 8.55a20 20 0 0 1 13.84 17.29c.56 3.51 1.1 7.44-.7 10.68-4.59 6.1-13.48 6.24-20.47 6.24m7.07-8.24c2.75-.4 5.65-.81 7.78-2.7 1.32-12.27-9.84-19.57-20.98-15.5-2.65 1.49-5.51 3.17-7.3 5.7a3.2 3.2 0 0 1-2.56 1.5c-2.9 0-4.38-3.67-3.16-6h.3c-5.86-.46-12.77-4.25-13.16-10.71-1.36 2.47-3.13 5.5-2.22 8.39 1.63 4.04 5.62 7.17 8.66 9.8a42.4 42.4 0 0 0 32.73 9.48h-.11zm-17.73-24.47 1.02-.59q-.42-.38-.66-.86l-.34.09v1.34z"/><path fill="#cbe6ff" d="M275.6 498.47a3.8 3.8 0 0 1-1.94-2.79q-.13-.79-.22-1.61c-.7.2-1.43.18-2.09-.16l-.39-.23q-.04 0-.09.03c-.68 4.51-6.26 5.01-6.91.25-2.34 2.42-6 .16-5.76-2.97-1.98.54-3.61-1.1-4.04-2.9a3.5 3.5 0 0 1-1.84-.85q-.5-.44-.82-.95c-2.17.59-4.1-1.68-4.01-3.72-4.9-.32-3.43-6.35-3.02-9.62.37-2.08.37-4.26 1.1-6.26.72-2.36 3.83-3.33 5.5-1.29 1.82-.07 3.52 1.77 3.47 3.72q0 1.43-.09 2.83c.1.05.2.07.3.14q.75.38 1.2 1.05.73-.19 1.47.04c.55.16 1 .5 1.39.9 1.06-1.35 3.1-1.76 4.47-.42q.75.76 1.15 1.72.4-.37.91-.7c.73-.46 1.54-.5 2.3-.25l.13-3.43q-.02-3.2.18-6.35c.43-4.74 6.42-4.26 6.53.32-.02 2.54-.09 3.95-.11 6.26.56-.25 1.22-.3 1.83-.1.91.33 1.75.87 2.23 1.69.52-.27 1.1-.41 1.68-.32a3.2 3.2 0 0 1 2.4 1.9c1.77-1.88 4.65-.27 5.08 1.98a3 3 0 0 1 2.27-.7c.66.09 1.27.43 1.75.9 5.96-2.54 7.44 10.69 7.6 14.56.47 3.54-2.55 8.58-6.06 4.97-1.36 1.13-3.54.6-4.6-.7q-.79.71-1.91.97c-1.27.32-2.43-.4-3.11-1.45q-.45.39-.95.7c-.77.48-1.61.5-2.36.2-.55 1.91-2.66 3.68-4.65 2.66z"/><path fill="#547491" d="M386.34 390c1.37 23.68-19.91 32.98-38.28 41.2-19.08 8.27-39 18.45-60.43 14.74-7.07-.82-13.63-3.52-19.8-6.97a5 5 0 0 1-.8-.13 12 12 0 0 1-2.6-1.82h-.02q-.67-.45-1.14-1.09v-.02c-13.22-13.81-26.83-62.78-32.36-78.1-11-32.68-19.64-66.02-26.63-99.75-8.75-39.94-15.92-80.58-15.6-121.52a4.3 4.3 0 0 1 .54-2.32c.16-1.31.36-2.63.59-3.85 3.2-18.13 26.04-26.97 41.9-31.2 18.43-4.25 36.6-10.2 55.52-11.42.4-.05.81 0 1.15.11 2.73.32 5.42 1.38 8.1 3.09 2.93 1.4 5.56 3.4 7.21 6.14 22.89 24.36 41.65 89.5 48.66 110.96 12.76 37.06 20.34 75.62 26.1 114.32 3.54 22.43 7.01 44.97 7.87 67.68z"/><path fill="#a6c4e0" d="M229.82 173.89v-.41l.02.52v-.1z"/><path fill="#a6c4e0" d="M306.04 442.14c-12.64-1.83-17.67-16.26-21.69-26.33-5.87-15.5-11-31.25-15.6-47.18-11.75-41.1-24.13-82.08-32.73-124a739 739 0 0 1-5.78-33.66 9.5 9.5 0 0 0 1.47-5.3q-.04-1.5-.11-3-.14-6.3-.34-12.59c-.12-4.1-.6-8.2-.89-12.31q-.3-4.09-.75-8.17-.5-11.77-.97-23.54c-.16-4.42-.25-8.9-.28-13.31q0-3.64-.04-7.26c0-2.25.04-4.5-.05-6.74q.76-.78 1.55-1.5 1.21-1.02 2.47-1.97c1.22-.57 2.45-1.18 3.67-1.75 1.55-.72 3.11-1.38 4.68-2.06 4.51-1.95 8.98-3.81 13.6-5.47q6.45-2.09 13.05-3.65c6.32-1.27 12.68-2.65 19.12-3.29h.18q1.95-.03 3.88.07c2.6.32 5.21.73 7.84 1.05q2.5.28 4.97.47.92.47 1.86.9.7 1.15 1.27 2.34c11.87 19.94 17.97 42.55 27.54 63.6 9.23 23.52 19.57 46.66 26.97 70.84 7.28 24.04 11 48.94 15.74 73.58 3.97 19.14 7.25 38.7 8.66 58.1.7 8.01 1.48 16.02 1.7 24.05a24.4 24.4 0 0 1-5.55 18.42c-10.08 13.13-26 18.55-41.04 23.9-9.5 2.48-19.34 6.15-29.28 6.15q-2.56 0-5.12-.36z"/><path fill="#cbe6ff" d="M349.58 200.54c4.74 16.65 12.73 40.42 8.73 59.2l-.13 1.5c-2.04 29.55-22.6 60.33-55.44 56.34-57.36-7.8-68.02-79.95-74.05-127.02-2.6-18.12-3.93-37.08-6.28-55-.98-8.76-3.04-20.5 5.35-26.27l1.66-1.2c1.6-1.47 3.92-2.6 5.6-3.54a116 116 0 0 1 17.46-7.07c11.77-3.8 23.77-7.03 36.07-8.49 5.96-.93 12.6-1.38 17.4 3.02 6.39 5.13 9.88 13.02 13.56 20.03 6.75 13 11.75 26.8 16.14 40.76 4.59 15.9 9.33 31.77 13.9 47.72z"/><path fill="#cbe6ff" d="M293.45 316.7c-27.5-5.45-42.05-28.45-51.38-52.85-8.69-23.3-13.95-47.8-17-72.43a1022 1022 0 0 1-5.36-49.28c-1.48-15-2.04-30.69 14.24-37.56 4.18-.91 5.51 5.37 2.34 7.41-7.9 3.8-10.82 9.1-10.39 17.7.4 16.26 2.65 32.57 4.33 48.7 4.88 37.6 10.82 77.04 32.14 109.18 12.6 17.47 35.77 27.5 56.25 18.33 9.87-2.7 15.02-10.68 20.46-18.58a38 38 0 0 1 6.44-6.26c.07.12 0 .3 0 .43-.7 6.44-2.4 13.02-6.48 18.2-5.22 7.82-13.36 12.6-22.28 15.14-7.5 2.48-15.49 3.48-23.31 1.82z"/><path fill="#a6c4e0" d="M296.17 290.9s-.16-.07-.23-.07q.12.01.23.1zm.08.05h.05l.56.2z"/><path fill="#a6c4e0" d="M300.82 291.27h-.16q-1.2-.15-2.4 0l-1.59-.25-1-.27q-.53-.2-1.04-.46a177 177 0 0 1-8.8-5.06 29 29 0 0 1-1.32-1.04l-2.15-1.95.04.02-.11-.09q-.24-.2-.48-.43l.48.43q.01.04.07.07a46 46 0 0 0-4.1-3.13c-.96-1.38-1.82-2.81-2.75-4.22-1.14-1.74-2.36-3.42-3.43-5.21-1.06-1.77-1.93-3.68-2.92-5.47-1.23-2.18-2.63-4.26-3.97-6.37a67 67 0 0 1-2.34-4.59q-.89-2.1-1.7-4.21l-.27-.7a297 297 0 0 1-3.2-8.47c0-3.72-2.09-6.98-5.26-8.8a2338 2338 0 0 1-10.07-31.75l-.34-1.77-1.43-7.26-1.57-8.96q-.14-1.08-.31-2.15-.49-3.6-1-7.17-.39-2.9-.82-5.78l-1.27-8.51-.68-4.56-.25-1.72c-.43-2.75-.93-5.5-1.38-8.24v.07l-.28-1.63q-.07-.37-.1-.73v.07c-.21-1.11-.37-2.22-.57-3.33v-.1.07l-.16-.86-.16-10.39-.1-4.49q.04-.52.12-1.04l.25-1.72c.16-1.1.36-2.18.48-3.3q0-.16.04-.33l.39-.62q.33-.52.7-1 2.42-.87 4.8-1.76l6.45-2.07 5.67-1.81c1.88-.61 3.74-1.34 5.62-2q2.86-.95 5.7-1.95h.09l5.08-1.5c.27-.09.54-.13.82-.2l1.68-.4q.94-.25 1.9-.48 1.64-.41 3.29-.78c.52-.13 1.09-.24 1.6-.4l3.19-.91c.68-.2 1.38-.36 2.06-.61q2.55-.84 5.15-1.66.84-.13 1.72-.23c9.41-3.51 14.31 2.18 18.94 9.62 12.11 19.53 19.03 41.92 25.68 63.8.31 2.36 2.3 7.9 3.2 12.84l.47 1.45c.36 3.56.8 7.15 1.2 10.71q.07 1.33.18 2.65.24 2.73.53 5.5.2 2.2.5 4.44l.36 5.2c0 4.53.18 9.06.22 13.58.07 5.78-.09 11.54-.15 17.3q-.01.37-.05.73h.05c0 1.13.25 2.22.65 3.24l-.34 3.18q-.5 4.24-1.31 8.41-.38 1.33-.8 2.66c-1.22 3.2-2.36 6.44-3.83 9.55a123 123 0 0 1-4.1 6.94q-.68.9-1.39 1.74a145 145 0 0 1-4.99 4.86q-1.33 1.07-2.7 2.08l-2.51.8q-4 1.23-8.01 2.29-1.85.25-3.7.43-2.7.16-5.42.16z"/><path fill="#a6c4e0" d="M299 290.16c-33.6-6.24-47.49-38.4-54.84-68.32-3.08-12.13-4.2-24.65-6.03-37.01-1.88-12.41-3.9-24.8-5.15-37.27-.77-8.44-1-16.92-1.06-25.38-.16-2.59-.12-6.24 3.15-6.7 3.72-.24 3.97 4.32 3.63 6.68 0 5.17.04 10.36.3 15.53.92 17.94 4.32 34.75 6.73 52.38 2.56 22.45 7.37 45.36 18.35 65.16 6.78 12.8 18.62 22.05 32.39 26.33 25.65 6 41.4-17.28 42.3-40.42-.7-19.14-2.61-37.47-9.1-55.32-4.08-10.61-10.16-20.41-11.3-31.95a61 61 0 0 1 9.26 11.13c8.5 14.2 13.34 31.35 15.43 47.5 1.29 12.02 3.76 24.29 1.63 36.33-3.13 23.23-20.37 44.64-45.66 41.3z"/><path fill="#a2bb7a" d="M343.16 240.56v.04c0 .19-.05.34-.05.53zm-68.86 25.49c-1.87-.11-3.84-.13-5.68-.52-2.92-4.76-5.98-9.46-8.91-14.22q-3.54-5.71-7.03-11.45c-5.44-14.43-8.71-30.76-.8-44.1 3.77-4.8 9.94-6.78 15.4-8.96 17.58-5.85 54.33-23.77 66.67-2.92 3.01 4.94 6.3 14.3 8.82 24.43q.18 1.76.32 3.56c.27 2.85.47 5.71.7 8.57-.32 7.49-.57 14.95-1.02 22.43l-.18 2.54q-.15 1.03-.25 2.07l-.14 1c-13.92 12.22-52.66 17.6-67.77 17.6h-.14z"/><path fill="#a2bb7a" d="M266.44 267.55c-10.68-2.72-12.81-19.26-17.07-28.08-4.4-11.05-5.31-23.59-1.2-34.86 1.7-4.52 3.92-9.98 8.66-11.96 2.18-.6 4.1 1.43 4.17 3.52 2.7 3.83-1.34 5.85-3.56 8.35a37 37 0 0 0-2.77 6.92 4.3 4.3 0 0 1-2.02 3.06c-1.54 9.32 1.73 19.35 5.15 27.65 3.02 5.87 3.59 13.9 9.42 17.33 11.86 1.95 23.38-1.53 34.7-4.34a128 128 0 0 0 32.1-11.7c6.91-5.44 2.37-17.08 3.12-24.75-.06-4.17-.13-7.91.34-11.86 2.07 3.33 4.06 6.83 5.24 10.62 1.95 8.91 3.56 19.53-.7 27.94-3.74 6.2-11.34 8.19-17.62 10.84-8.99 3.93-18.56 6.08-28.06 8.3-9.66 2.7-19.9 4.22-29.9 3z"/><path fill="#a2bb7a" d="M337.9 246.61c-.32-1.56.47-3.67 1.7-4.51 1.88-2.27 1.2-5.9 1.04-8.64-2.06-12.18-5.71-48.02-19.85-50.6-4.35-1.07-2.85-9.15 1.75-7.83 18.64 4.01 22.34 42.53 24.97 58.5.43 5.42.25 13.24-5.42 15.83-1.88.56-3.85-.78-4.2-2.75"/><path fill="#7099c0" d="M290.26 315.47c-1.61-2.16-.8-5.33-1.34-7.35-1.45-3.43-5.7-6.4-9.53-6.26-1.81.38-3.3 1.68-4.9 2.58v-.02c-2.24 1.16-4.58-1.09-4.6-3.36-.13-1.56.68-3.35 2.13-4.06 3.25-2.22 6.99-3.94 10.98-2.83 5.33 1.56 10.96 5.8 12.5 11.3.18 3.24 1.65 7.05-.41 9.93-1.27 1.47-3.54 1.63-4.83.07"/><path fill="#7099c0" d="M290.31 318.67c-5.8-1.75-10.62-5.97-15.15-9.82-2.09-1.95-5.08-3.5-5.83-6.44-.54-2.27 1.13-5.13 3.65-4.97 1.93.11 2.65 2.1 4.08 3.08-.09-1.06.23-2.29 1.07-2.94 4.7-3.32 10.1 6.26 12.75 9.32 1.31 1.97 2.92 3.92 3.72 6.19 1.02 2.72-1.14 6.35-4.27 5.58zm37.87-6.54c-3.7-1.25-3.06-6.08-3.72-9.18-.82-6.99 2.43-13.52 6.87-18.72 3.54-4.1 6.92-8.6 11.34-11.75 2.77-1 5.88-1.27 8.8-1.13 3.2.4 3.86 4.36 2.32 6.56-.16 1.1-.27 2.4-.62 3.51-2.65 9.26-8.61 17.1-15.15 24.02-2.85 2.22-5.96 7.08-9.84 6.74zm19.03 13.59a5.3 5.3 0 0 1-2.56-2.93c-1.3-3.72.34-7.62 2.45-10.73a26 26 0 0 1 5.56-5.94 18 18 0 0 1 3.78-2.29c.82-.34 1.98-.81 2.88-.7h.64c1.38.07 2.7.7 3.6 1.75 1.64 1.86 1.78 4.49 1.23 6.8-.5 2.06-1.5 3.97-2.68 5.74a25 25 0 0 1-5.82 6.1 14 14 0 0 1-4.95 2.5 7 7 0 0 1-1.72.22c-.84 0-1.7-.16-2.45-.54zm4.74-8.28q.55-.35 1.1-.73.9-.72 1.74-1.51.85-.9 1.63-1.89.48-.6.86-1.29-.52.3-1.04.68-.9.72-1.72 1.5-.9.9-1.64 1.88-.46.65-.9 1.34z"/><path fill="#7099c0" d="M352.78 315.28c-1.25-4.08 4.4-14.24 8.75-8.89 2.86 4.74-4.42 10.12-8.75 8.9"/><path fill="#7099c0" d="M350.15 318.28c-1.3-3.4-.48-9.6 3.74-10.4 2.15-.28 3.67 2.06 3.44 4-.29 3.38-3.99 6.1-7.19 6.38zm1.48 30.02a5.4 5.4 0 0 1-2.24-2 7.7 7.7 0 0 1-.98-4.5l.16-1.15c.41-2.04 1.25-3.9 2.3-5.6a25 25 0 0 1 5.3-5.99c2.3-1.86 5.63-3.79 8.69-2.86q.06.01.13.05.75.18 1.23.68.9.63 1.52 1.6c.68 1.19.95 2.62.9 3.98-.09 2.56-1.1 4.97-2.42 7.12a24 24 0 0 1-6.92 7.21 10.5 10.5 0 0 1-4.74 1.86q-.33.05-.7.05-1.17 0-2.27-.48zm4.34-8.15q.29-.16.59-.36a15 15 0 0 0 4.01-4.18l.59-1-.77.48q-.61.46-1.16.93-.81.78-1.54 1.61-.66.82-1.23 1.68l-.47.82z"/><path fill="#7099c0" d="M355.35 340.64c-1.25-3.92 1.86-10.61 6.26-11.07 3.6.37 4.08 5.65 1.43 7.44-2.02 2-4.65 4.06-7.69 3.63m-1.21 28.5q-.5-1.05-.68-2.14c-.5-3.88 1.38-7.66 3.76-10.61a23 23 0 0 1 6.15-5.5 10.6 10.6 0 0 1 5.1-1.53q.42 0 .8.11.41.08.84.23a5.6 5.6 0 0 1 3.2 3.38c1.2 3.26-.05 6.87-1.73 9.7a23 23 0 0 1-6.56 7.08 12 12 0 0 1-5.1 2.18q-.45.07-.88.07a5.5 5.5 0 0 1-4.93-2.98zm6.76-5.65q.16-.1.34-.18.7-.46 1.38-.98a17 17 0 0 0 2.95-3.22q.34-.5.66-1.04-.15.06-.28.16-.87.55-1.68 1.2-.76.65-1.45 1.38-.63.76-1.2 1.54-.37.56-.7 1.14z"/><path fill="#7099c0" d="M359.5 365.1c-.75-4.4 6.23-17.31 10.72-10.4 2.36 4.68-6.44 11.05-10.73 10.4m1.66 30.1c-1.95-.73-3.06-2.44-3.56-4.39-.43-1.65-.11-3.49.36-5.1a18 18 0 0 1 3.36-5.92c1.63-2 3.63-3.67 5.87-4.97a9.4 9.4 0 0 1 4.54-1.31h.29q.28.01.46.07h.02q.07 0 .16.04c.95.18 1.81.52 2.6 1.16 1.14.9 1.87 2.4 2.1 3.83.51 3.09-.69 6.2-2.34 8.76a21 21 0 0 1-7.7 7.07 9 9 0 0 1-4.1 1.1q-1.05 0-2.08-.37zm3.63-8.04.68-.34q.74-.47 1.45-1 .64-.54 1.25-1.15.59-.66 1.1-1.36.42-.61.8-1.25l-.72.36c-.46.27-.89.6-1.32.9a16 16 0 0 0-2.47 2.62q-.42.6-.8 1.25z"/><path fill="#7099c0" d="M365.19 387.75c-.16 0-.86-.02-.9-.18-.87-3.22.76-6.8 2.99-9.12 4.17-4.06 8.1 3.2 4.28 6.13.03 0 .05-.05.1-.07q.04-.05.04-.02c-1.7 1.79-3.9 3.33-6.49 3.24zm-75.09-38.78a21 21 0 0 1-9.7-3.06c-2.75-1.7-4.99-4.38-5.2-7.7-.18-2.9 1.48-5.34 3.95-6.7 2.07-1.14 4.7-1.25 6.97-1.07q2.78.26 5.42 1.16c1.02.36 2.2.77 3.13 1.36q.64.26 1.06.75.75.5 1.43 1.1a10.4 10.4 0 0 1 3 4.32c.6 1.7.52 3.83-.3 5.44a7.5 7.5 0 0 1-2.93 3.08 12 12 0 0 1-5.78 1.34l-1.09-.02zm1.21-7.83q.74 0 1.47-.15l-.13-.12-.34-.22q-.42-.15-.8-.46l-.54-.32q-.92-.44-1.9-.81-1.32-.41-2.7-.66-1.04-.14-2.07-.14-.64.04-1.25.14l.23.18q.73.51 1.48.9 1.04.52 2.13.9c.88.24 1.74.47 2.65.6q.88.11 1.8.12z"/><path fill="#7099c0" d="M288.62 344.16c-3.04-.61-6.47-1.63-8.57-4.04-3.13-3.49 1.85-10.05 5.21-5.42 4.15 1.59 8.12 3.56 10.53 7.37-1.9 1.7-4.65 2.32-7.17 2.1m1.03 28.25c-3.18-.8-6.74-2.25-8.6-5.1a7 7 0 0 1-.93-5.81 7 7 0 0 1 2.9-3.86 13 13 0 0 1 7.22-1.9c3.67 0 7.35.54 10.7 2.08q.17.09.37.16l.06.02.23.12q.49.23.84.59.64.4 1.23.86c2.01 1.66 3.35 4.04 3.03 6.71-.4 3.5-3.35 5.58-6.53 6.4q-2.15.53-4.44.52c-2.07 0-4.16-.3-6.08-.8m7.9-7.17c.13 0 .24-.05.38-.07l-.62-.27q-1.3-.52-2.67-.86a27 27 0 0 0-3.3-.48q-.83-.01-1.7.05l-.99.13.43.2c.88.37 1.81.64 2.75.9q1.68.34 3.4.49 1.16.02 2.33-.07z"/><path fill="#7099c0" d="M295.32 368.4c-1.52-.27-2.97-1.07-4.52-1.27-1.6-.07-3.3-.3-4.58-1.36-1.27-1.07-1.59-3.04-1.09-4.56 1.86-4.99 7.94-1.27 11.57-.73q-.2-.01-.39-.06H296c2.24.02 3.65 2.08 3.49 4.26q0 .22-.05.43c.07.11.28.23.28.36l-.39.16c-.5 1.8-2.15 3.09-4.04 2.77zm2.25 27.72a17 17 0 0 1-5.22-2.63 11 11 0 0 1-3.65-4.7 7.3 7.3 0 0 1 .68-6.58 8.4 8.4 0 0 1 4.62-3.2 15 15 0 0 1 6.1-.4q1.48.17 2.89.54c.63.16 1.36.34 1.92.64h.03q.37.14.7.38c.82.41 1.63.82 2.4 1.32a11 11 0 0 1 3.81 4.06 7.6 7.6 0 0 1-.3 7.85 7.6 7.6 0 0 1-3.46 2.67c-1.54.62-3.22.89-4.9.89-1.9 0-3.86-.34-5.65-.89zm5.44-6.99q.75-.02 1.5-.11.44-.1.88-.23l-.36-.3-1.11-.7a3 3 0 0 0-1.05-.38l-.18-.07-.04-.02-.6-.23q-.96-.31-1.92-.5-1.09-.17-2.18-.2-.74 0-1.47.11l-.8.2c.12.1.2.19.32.28q.54.36 1.11.7.82.4 1.63.7.99.3 2 .55 1.13.17 2.27.2"/><path fill="#7099c0" d="M299.86 390.85c-1.89 0-4.13-.31-5.36-1.9-2.01-2.31-.68-6.94 2.7-6.83 2.48.55 6.17.64 7.03 3.52 1.07.84 2.18 1.83 2.9 3-2.15 1.26-4.76 2.33-7.27 2.2zm8.05 30c-6.6-.27-17.08-5.35-14.29-13.5 1.27-3.72 5.38-5.06 8.94-5.06q2.91 0 5.72.75a16 16 0 0 1 3.85 1.43c.03 0 .07.05.1.07q.3.17.56.36l.66.39q.96.6 1.81 1.34a9.6 9.6 0 0 1 3.31 5.15 7.7 7.7 0 0 1-.56 4.71 6.7 6.7 0 0 1-2.5 2.8c-1.83 1.26-4.24 1.58-6.46 1.58q-.58 0-1.14-.02m1.34-7.85q.71-.02 1.45-.09.1 0 .2-.05-.46-.35-.94-.63l-.2-.11a3 3 0 0 1-.64-.3q-.78-.39-1.6-.7-1.16-.4-2.42-.68-1.16-.22-2.33-.25-.81 0-1.6.11-.08 0-.17.05.58.44 1.2.81.89.48 1.81.84 1.36.48 2.77.77 1.22.2 2.47.28z"/><path fill="#7099c0" d="M305.8 415.34c-2.31-.16-4.6-1-6.44-2.41-2.54-2.22-1.25-7.35 2.38-7.33 1.48-.09 3.09.41 3.79 1.8a17 17 0 0 1 6.51 5.6 9 9 0 0 1-6.24 2.33m7.86-74.5a7.4 7.4 0 0 1-4.16-4.63 8 8 0 0 1 .87-5.97c1.93-3.13 5.21-4.99 8.66-6.05 3.18-.98 6.62-1.3 9.9-.57q.37.07.7.27.1.04.18.1.88.32 1.74.79a8 8 0 0 1 2.4 2.24c1.8 2.56 1.28 6.01-.36 8.49-1.95 2.94-5.5 4.69-8.82 5.62-1.75.5-3.67.8-5.58.8-1.9 0-3.81-.32-5.53-1.1m5.92-6.85c.77 0 1.56-.1 2.33-.19q1.22-.24 2.4-.6.96-.36 1.84-.8.62-.35 1.2-.73l.12-.09h-.16q-.09 0-.18-.05a3 3 0 0 0-.61-.13q-.9-.14-1.77-.16-1.23 0-2.45.18-1.15.22-2.27.57-1 .37-1.95.84-.61.35-1.18.72l-.16.12q.45.13.93.22.95.14 1.88.16z"/><path fill="#7099c0" d="M312.45 334.04c2.61-3.44 16.18-12.2 17.83-4.6 1.23 7.73-13.36 6.2-17.83 4.6m10.22 30.99c-2.85-.18-6.12-1.16-7.41-3.97-1.6-3.38-.37-7.12 2.26-9.62a19 19 0 0 1 6.88-3.9c2.83-.93 6.05-1.52 9.03-.9l.15.01q.56.07 1.1.34.62.21 1.26.48a7 7 0 0 1 2.8 2.47c1.99 3.4.76 7.51-2.07 10.1a20 20 0 0 1-13.23 4.96h-.77zm2.75-7.96q1.32-.2 2.58-.55 1.01-.34 2-.77.76-.37 1.47-.84l.53-.39-1.34-.15q-.94-.01-1.89.06-1.2.19-2.4.46-1.14.34-2.25.81l-1.02.57-.9.7q.6.1 1.22.16 1 .01 1.97-.06z"/><path fill="#7099c0" d="M325.96 359.6c-2.1-.16-4.44-.8-6.23-1.81a33 33 0 0 1 11.33-6.97c4.34-2.38 6.88 4.88 3.18 7.06-2.43 1.52-5.44 1.9-8.28 1.7zm-1.29 26.4c-2.59-1.63-3.5-4.65-2.77-7.53.89-3.51 4.27-5.99 7.44-7.35a21 21 0 0 1 7.08-1.67c1.79-.1 3.72.1 5.37.88q.08.02.14.07h.02s.05 0 .07.02q.6.19 1.09.68.89.67 1.52 1.61a7 7 0 0 1 1.04 4.06c-.11 3.02-2.25 5.6-4.6 7.26a19 19 0 0 1-10.78 3.36 11 11 0 0 1-5.65-1.4zm7.05-6.5q1.09-.14 2.18-.37.92-.27 1.81-.61.83-.37 1.61-.82l.39-.25-.5-.07q-.84-.03-1.68 0-1.07.11-2.15.37-1.01.27-2 .65a8 8 0 0 0-1.86 1.04q.18.02.36.08c.62.04 1.2.04 1.82 0z"/><path fill="#7099c0" d="M332.18 381.53a9.5 9.5 0 0 1-4.13-1.9 15 15 0 0 1 11-6.49c4.33-.38 4.9 6.92.95 7.92-2.58.47-5.21 1.13-7.82.47m-1.75 27.3a6.8 6.8 0 0 1-2.65-5.83 9.4 9.4 0 0 1 3.1-6.33c1.8-1.7 4.06-2.9 6.38-3.72 2.63-.93 5.76-1.38 8.5-.73.05 0 .12.03.1.05h.08q.18 0 .35.09.4.13.74.34.85.36 1.66.88a6.5 6.5 0 0 1 2.38 3.13c1.09 3-.14 6.24-2.15 8.51-2.16 2.4-5.22 3.92-8.3 4.72-1.37.36-2.84.56-4.3.56-2.1 0-4.17-.47-5.91-1.7zm7.42-6.24q.98-.14 1.97-.36a22 22 0 0 0 1.7-.62q.75-.34 1.45-.8.48-.32.96-.7l.02-.02a9 9 0 0 0-1.09-.15l-1.5.02q-.99.13-1.95.36-.97.3-1.9.68l-1.16.61q-.47.3-.9.66-.11.09-.19.18h.05q.51.1 1.02.16l1.5-.02z"/><path fill="#7099c0" d="M341.9 404.24c-2.6-.04-5.38-.6-7.54-2.01 2.25-3.56 6.08-6.29 10.41-6.15 2.11.07 3.27 2.38 3.16 4.26-.39 3.6-2.95 4-6.04 3.9"/><path fill="#e7a847" d="M237.5 291.93c3.7 1.7 6.21 10.23 3.24 13.08 0 .07-.05.14-.05.2q-.07.24-.18.44a38.8 38.8 0 0 1-27.97 23.25 37 37 0 0 1-17.44-.5 38.4 38.4 0 0 1-25.36-22.25 40 40 0 0 1-2.53-22.1 39.6 39.6 0 0 1 13.06-23.15 6 6 0 0 1 2.52-2.11c6.42-3.74 13.31 2.09 14.42 8.55 1.4 5.63-1.93 10.86-3.45 16.1-2.74 11 .66 21.26 13.8 19.35 5.82-2.31 9.52-8.28 15.46-10.6 4.4-2.08 10-2.37 14.45-.29z"/><path fill="#fff" d="M196.44 283.34c-6.91-3.2-12.22-8.96-17.46-14.34-2.81-2.63-5.01-6.58-3.52-10.48 1.2-2.85 4.15-5.03 7.3-3.99 1.3.14 2.41 1 3 2.2 2.9 1.97 5.67 4.1 8.12 6.6 4 4.15 9.23 8.5 10.03 14.52.43 4.22-3.56 7.4-7.47 5.46z"/><path fill="#fff" d="M185.88 263.38c-.32-8.8-.25-18 1.54-26.7.62-4.27 4.97-8.8 8.6-4.29 3.4 5.9 2.09 13.48 2.25 20.05-.05 1.25.06 2.61-.23 3.84-.52 2.5-3.63 3.9-5.38 1.63-.31 2.81 1.12 7.28-2.4 8.46-2 .57-3.79-1.11-4.35-2.97z"/><path fill="#fff" d="M191.38 264.4c-2.84-7.31-1.61-15.7-1.34-23.23-.11-1.34-.1-2.63.77-3.77 2.5-3.17 6.9.48 6.1 3.81 0 8.05-1.34 16.22-5.51 23.18z"/><path fill="#fff" d="M216.2 272.38c-6.66-.3-13.28-.9-19.95-1.05-4.02.53-6.78-5.05-3.38-7.57-3.72-3.54.72-7.55 4.76-6.08 7.83 1.45 16.1.68 23.73 3.06 3.74.95 5.94 5.94 3.15 8.96-2.1 2.22-5.35 2.77-8.3 2.68"/><path fill="#fff" d="M202.27 267.5a4 4 0 0 1-1.61.3 3.6 3.6 0 0 1-2.97-2.2c-4.6.4-5.54-5.94-4.95-9.37-2.5-4.33 1.48-11.27 4.77-14.31 3.44-3.1 8.39.25 8.98 4.26 4.6-1.06 7.8 3.9 7.41 8.06 2.64 1.06 3.88 4.01 3.54 6.73-.61 5.26-6.6 6.4-10.93 6.78-1.38.19-3.02.57-4.22-.25zm76.9-7.09a24 24 0 0 1-12.3-4.01 25 25 0 0 1-3.26-2.54l-.05-.05-.09-.09a26.2 26.2 0 0 1-8.23-16.62q1.47-.63 2.67-1.64c3.31-1.38 6.58-2.95 9.85-4.42l3.29-1.2c4.21-1.36 8.5-2.66 12.7-4.1a94 94 0 0 0 8.64-2.37c2.15-.72 4.29-1.4 6.4-2.22.83-.32 1.72-.63 2.58-.95a24 24 0 0 1 2.63 5.22 28 28 0 0 1 1.5 6.14 25 25 0 0 1-.75 9.94l-.5 1.77a26 26 0 0 1-2.47 5.21 25 25 0 0 1-4.88 5.76 25 25 0 0 1-5.2 3.54q-3 1.5-6.32 2.16h-.11l-.16.04a27 27 0 0 1-4.58.46q-.7.01-1.4-.05z"/><path fill="#fff" d="M311.88 249.28a24 24 0 0 1-12.3-4.02 25 25 0 0 1-3.26-2.54l-.05-.04-.09-.1a26.2 26.2 0 0 1-8.23-16.62c.98-.4 1.88-.97 2.68-1.63 3.3-1.39 6.57-2.95 9.84-4.43l3.29-1.2c4.22-1.36 8.5-2.65 12.7-4.1 2.9-.68 5.83-1.41 8.64-2.36 2.16-.73 4.29-1.4 6.4-2.23l2.58-.95a24 24 0 0 1 2.64 5.22 28 28 0 0 1 1.5 6.15 25 25 0 0 1-.76 9.93q-.22.89-.5 1.77a26 26 0 0 1-2.47 5.22 25 25 0 0 1-4.87 5.76 25 25 0 0 1-5.2 3.54q-3.01 1.5-6.33 2.15h-.1l-.17.05a27 27 0 0 1-4.58.45q-.7.01-1.4-.05z"/><path fill="#000" d="M274.53 223.92a17 17 0 0 1 3.5-5 17 17 0 0 1 4.62-3.14 15 15 0 0 1 5.42-1.39c.66-.04 1.36-.09 2.02.05.39-.07.75 0 .82 0q.14.02.3.09h.1c.96.2 1.91.4 2.82.75q.91.34 1.81.8l-22.36 10.54q.37-1.4.95-2.7m45.85 13.18V236l.16-2.27c.07-1.11.18-2.22.2-3.36q.02-.27.07-.54c.1-.82.16-1.66.27-2.5.35-.4.3-1.06-.09-1.45a1 1 0 0 0-.54-.27c-.3-.2-.68-.25-1.02-.11-3.33 1.36-6.72 2.7-10.05 4.06a18 18 0 0 1-2.18-5.72 16.9 16.9 0 0 1 4.74-14.9 18 18 0 0 1 4.63-3.17 15 15 0 0 1 5.42-1.39c.66-.04 1.36-.09 2.02.05.39-.07.75-.03.82 0l.3.06h.11c.95.2 1.9.41 2.8.75q2.5.96 4.61 2.59c2.5 2.06 4.27 4.7 5.36 7.73.93 2.63 1.04 5.58.59 8.33a16.4 16.4 0 0 1-9.33 12.02 15 15 0 0 1-8.87 1.11zm6.4-13c-.14.73-.02 1.54.36 2.16q.48.8 1.25 1.24c.45.23.97.39 1.5.39h.2a3.2 3.2 0 0 0 2.83-2.06c.44-1.07.19-2.3-.52-3.18a3.3 3.3 0 0 0-2.51-1.16h.2-.23q-.2.01-.4.1-.08.01-.14.06c-.5.02-.98.27-1.38.55a3.2 3.2 0 0 0-1.16 1.9m1.04-1.81.12-.1zm-44.35 26.41v-1.08l.13-2.27q.16-1.66.23-3.36.02-.27.07-.54.1-1.23.27-2.5c.34-.4.3-1.08-.09-1.45a1 1 0 0 0-.54-.27c-.3-.2-.68-.25-1.02-.11l-10.05 4.06a16.5 16.5 0 0 1-1.88-12.95l22.36-10.55q1.48.76 2.79 1.8a17.5 17.5 0 0 1 5.35 7.73 17 17 0 0 1 .6 8.32 16.4 16.4 0 0 1-9.33 12.02 15 15 0 0 1-8.87 1.11zm6.4-12.97c-.14.73-.03 1.55.36 2.16q.46.79 1.25 1.25.69.39 1.5.4h.2a3.2 3.2 0 0 0 2.83-2.06 3.2 3.2 0 0 0-.54-3.18 3.2 3.2 0 0 0-2.52-1.15h.2-.22q-.21 0-.41.09l-.14.07c-.5.02-1.02.3-1.4.59l.02-.03-.07.07-.02.03a3 3 0 0 0-1.05 1.81z"/><path fill="#000" d="m290.94 233.9.04-.04-.07.04z"/><path fill="#e7a847" d="M250.97 231.93a4.4 4.4 0 0 1-1.3-3.59c.12-1.36.91-2.88 2.28-3.35 3.01-1.07 6.05-2.02 9.09-3.02q5.64-1.9 11.3-3.85l21.72-7.6 17.04-6q4.38-1.54 8.75-3.12c1.98-.73 3.97-1.4 5.85-2.31h.05s.05-.05.1-.07q.07-.06.15-.1l.05-.02c2.2-1.31 4.53.7 4.9 2.9.34 2.07-.87 4.59-3.07 4.77-.7.11-1.38.32-1.88.48-3.56 1.1-7.08 2.36-10.62 3.6l-10.88 3.84q-11.04 3.91-22.1 7.87-7.42 2.6-14.78 5.28c-4.5 1.64-8.92 3.4-13.43 5a3.1 3.1 0 0 1-3.27-.69z"/><path fill="#e7a847" d="M252.72 239.57c-6.13-2.38-6.5-13.26.4-14.63 3.54-.06 4.68 5.02 2.34 7.2 3.56-.66 5.78 2.85 4.31 5.98-1.18 2.68-4.85 2.36-7.05 1.43z"/><path fill="#e7a847" d="M254.6 236.94c-.52-1.95.27-4.22 2.2-5.01 1.18-.48 2.45-.82 3.65-1.22q2.35-.83 4.72-1.62 5.2-1.78 10.39-3.6c7.32-2.59 14.7-5.13 22.02-7.69q9.41-3.3 18.8-6.65 4.38-1.58 8.76-3.2c2.04-.74 4.15-1.47 6.15-2.33a3 3 0 0 1 1.65-.52c1.66-.03 2.93 1.31 3.34 2.83.43 1.61 0 3.52-1.36 4.58-.48.39-1.05.6-1.6.64-2.8.82-5.55 1.81-8.32 2.74q-5.3 1.8-10.57 3.68-11.36 4.03-22.72 8.12-8.73 3.16-17.47 6.28l-8.7 3.15-3.9 1.41c-.94.34-1.85.75-2.8 1.04q-.5.15-.97.14c-1.57 0-2.86-1.16-3.32-2.77z"/><path fill="#e7a847" d="M333.58 210.68c-1.43-.12-2.38-1.43-2.81-2.66a4 4 0 0 1-.1-2.27c-1.67-.58-3.51 1.84-5.44.12-2.56-1.88-2.13-6.85 1.25-7.42 5.58-3.15 12.25 2.52 11.09 8.5-.39 2.03-1.8 3.89-4 3.73"/><path fill="#e7a847" d="M254.96 233.9c-1.86-2.56.05-6.12 3-6.71 3.79-1.4 7.53-2.95 11.3-4.38 15.8-5.78 31.97-10.52 47.67-16.62 4.97-1.77 9.87-3.81 14.95-5.24 2.04-.48 3.7 1.38 3.99 3.24.52 2.77-1.57 4.74-4.18 5.08-19.57 6.96-39.32 13.47-58.97 20.3-3.8 1.45-7.55 3.04-11.34 4.56-2.04.97-4.83 2.04-6.42-.2z"/><path fill="#df6133" d="M288.15 259.44h-.07a3 3 0 0 1-1.79-1.58q-.2-.46-.32-.98-.1-.49-.06-1 0-.23.04-.45c.16-1.14.8-2.2 1.86-2.7l.16-.07q.27-.11.54-.16l.53-.13q1.05-.23 2.1-.5l4.9-1.16q4.8-1.13 9.58-2.36c6.42-1.6 12.83-3.2 19.23-4.94 1.22-.34 2.47-.66 3.67-1.07q.3-.19.69-.3c1.7-.54 3.33.9 3.67 2.57.36 1.81-.59 3.9-2.25 4.33-.15.03-.29.07-.29.05-.18.04-.39.04-.39.02q-.82.12-1.5.27c-2.87.62-5.7 1.39-8.57 2.11q-4.9 1.23-9.77 2.52-9.68 2.51-19.28 5.2c-.5.13-1.09.38-1.61.43h-.18q-.47 0-.87-.14z"/><path fill="#df6133" d="M314.46 288.61c-5.97 0-12.07-2.18-15.9-6.87-5.99-5.6-11.05-12.5-13.5-20.37.03-2.33-.38-5.44 1.73-7.03 1.52-1.47 4.13-3.54 6.08-1.54a469 469 0 0 1 18.82-5.79c6.56-1.67 13.09-4.46 19.85-4.85 5.56 1.04 5.67 7.98 6.46 12.45 1.05 8.4-.8 17.1-6.26 23.7-4.22 5.24-10.05 10.78-17.26 10.32zm1.77-7c6.67-1.35 11.38-7.88 14.45-13.39 2.2-6.06 2.06-12.97.04-19.05-13.06 2.6-25.67 7.14-38.4 11q.4.93.75 1.88a6 6 0 0 1 .32 3.15c2.65 5 6.78 9.06 10.75 13 3.33 2.81 7.87 3.59 12.11 3.43z"/><path fill="#df6133" d="M313.4 285.16a2.8 2.8 0 0 1-2.04-1.47q-.34.13-.7.22c-.9.25-1.8-.16-2.4-.84-2.97 4.13-6.38 0-5.2-3.92a3 3 0 0 1-.93-.82 2.5 2.5 0 0 1-1.86.18q-.3-.09-.56-.27c-2.57 2.97-5.79-.68-4.97-3.7-1.8-.45-2.61-2.35-2.36-4.06a3.3 3.3 0 0 1-2.06-2.7c-.23-2.13-.2-4.28-.39-6.41-2.6-2.8.45-8.65 4.15-5.74 1-3.43 5.33-2.95 5.7.54q.38.07.72.23a2.7 2.7 0 0 1 2-1.07q.3-.02.6.07c.71-1.95.67-4.08 1.73-5.9 2-2.7 5.54-.65 5.36 2.36l.36.18c1.15-1.67 3.54-1.17 4.53.4.75-1.8 2.95-3.23 4.6-1.62 1.1-1.97 1.28-5.13 3.73-5.85 1.22-.27 2.38.5 3 1.52 2.33-4.65 6.6-.73 5.44 3.31 5.94.36 1.54 10.48 1.47 14.18a69 69 0 0 1-1.77 7.41c-.48 2.38-.95 6.78-4.38 5.97a34 34 0 0 1-2.76 5.64c-1.41 2.27-4.77 1.05-5-1.4a2.5 2.5 0 0 1-2.2 0h-.04c-.66 1.63-1.61 3.9-3.76 3.6z"/><path fill="#832e1b" d="m302.09 267.9-.36-.77v-.16c-.62-1.4-1.07-2.9-1.53-4.38l-.08-.27q.17-.48.5-.88c.74-.96 1.76-1.12 2.74-1.41 1.04-.3 2.06-.64 3.08-.93q2.94-.85 5.88-1.66l6.92-1.92c1.58-.44 3.17-.87 4.74-1.41a2 2 0 0 1 2.22.23q.2.84.36 1.72v.05-.05.07l.3 1.7q.05.69.06 1.38v-.16q.01.86.05 1.7-.3.46-.73.78-.55.4-1.13.4c-1.38.25-2.75.7-4.13 1.1q-3.54.96-7.08 1.99-3 .86-6.03 1.68l-3.13.8c-.7.17-1.47.51-2.22.51q-.19 0-.36-.02zm3.54 6.31.06.1zm-.09-.11.1.1z"/><path fill="#832e1b" d="M314.11 278.27c-.59 0-1.13-.02-1.72-.07h-.07a9 9 0 0 1-1.14-.27h-.04q-.2-.07-.39-.16c-.47-.22-.97-.52-1.45-.75s-.93-.52-1.38-.81c-.68-.5-1.32-1.1-1.98-1.66l-.22-.25-.07-.09q-.5-.66-.93-1.36c-.4-.64-.84-1.3-1.23-1.97v-.05q-.4-.81-.77-1.63-.44-1.02-.95-2.04v-.07.02-.18q-.56-1.32-1.02-2.77.1-1.08.55-1.97c.77-1.52 2.47-1.9 3.65-.88a4.7 4.7 0 0 1 1.4 3.62c1.25 3.22 2.8 6.54 5.33 8.49 4.56 2.72 9.26-2.73 10.82-7.6.93-3.45-.93-10.41 3.59-10.41l.4.13.12.53q.16.8.3 1.7.05.7.06 1.36v-.16c.02 1.04.1 2.09.1 3.13q0 .78-.08 1.56v-.15l-.2 2.22c-.07.77-.11 1.54-.23 2.31a37 37 0 0 1-1.88 3.68l-.48.68q-.5.6-1.04 1.13l-1.34 1.3q-.71.67-1.47 1.3-.56.41-1.11.78-.6.38-1.2.68l.1-.07a9 9 0 0 1-1.92.68q-.92.06-1.84.07z"/><path fill="#832e1b" d="M312.38 278.2h-.11.02a9 9 0 0 1-1.13-.28h-.05.05-.05l-.18-.06a3.6 3.6 0 0 1-1.07-1.66c-.93-.14-1.72-.9-2.2-1.86a5 5 0 0 1-.47-2.24c-2.23-1.07-2.16-4.36-1.57-6.74.18-1.25.34-2.5.82-3.63.81-2.04 3.22-2.7 4.42-.7q.72.04 1.34.56.24.21.43.46c.82-2.4 3.4-3.72 4.8-1.3a2.1 2.1 0 0 1 3.25-.34c2.18-2.36 5 1.07 4.27 4-.73 2.47-.89 6.57-3.45 7.2-1.07 2-3.09 5.09-5.26 3.43-.75 1.27-1.73 2.8-3 3.22q-.43 0-.86-.04z"/><path fill="#e5765e" d="M312.6 272.32q-.31 0-.63-.09l-.48-.09c-.34-.06-.68-.06-1.02-.13l-.57-.19c-.38-.15-.77-.38-1.13-.58h-.02c-.41-.35-.82-.73-1.25-1.05a3.3 3.3 0 0 1 .52-1.9c3.09-3.4 8.64-5.02 12.9-3.04a2.4 2.4 0 0 1 1.32 1.9q-.13.3-.3.6v.04q-.1.2-.24.4t-.32.41q-.17.18-.36.34l.06-.06q-.37.33-.74.63c-.39.32-.75.64-1.16.95l-.52.32-.07.02h.02c-.36.19-.7.32-1.06.48q-.68.29-1.34.55-.63.21-1.27.36l-.52.07q-.35 0-.66.02l-.88.04z"/><path fill="#000" d="M267.22 259.33s.1.05.14.1zm13.99-28.71 2.54-2.13c.12 0 .2-.03.32-.03q-.36.46-.73.86-1.23 1.25-2.47 2.55.08-.67.32-1.25z"/><path fill="#3c5368" d="M340.3 222c.45 4.23.14 8.45-.88 12.01a32 32 0 0 1-4.72 9.8q-.2-.01-.4.05-2.08.75-4.11 1.58-.35-.17-.77-.1c-.57.1-1.14.29-1.7.44-1.48.41-2.93.93-4.4 1.41-1.28.43-2.52.93-3.8 1.4l-2.85 1.12a1.3 1.3 0 0 0-.86-.12c-2.68.7-5.4 1.3-8.08 1.93l-3 .73-2.44.61q-.18.02-.32.07-.17.02-.34.09-.18.02-.36.1-2.07.61-4.13 1.24l-1.43.43-.27.09a1.2 1.2 0 0 0-1.05-.2c-.43.13-.7.47-.77.88l-1.5.54-1.01.39q-2.17.92-4.34 1.8c-.56.22-.84.92-.59 1.49.23.52.82.77 1.36.63l1.46-.38v.11q.13.31.36.52l-.98.39c-.56.23-.81.97-.56 1.5q.1.24.31.43a30 30 0 0 1-20.88-3.66l-.1-.04-.06-.04a31.6 31.6 0 0 1-13.82-18.42c-.52-1.9.14-4.33 2.11-5.1 1.9-.75 3.9.67 4.38 2.53q.3 1.22.73 2.39.47 1.25 1.08 2.45.68 1.25 1.46 2.4.96 1.34 2.08 2.58c.75.8 1.54 1.55 1.98 1.91q1.47 1.2 3.08 2.18 1.67.98 3.47 1.72 1.85.73 3.79 1.18 1.9.38 3.83.5 2.1.08 4.18-.16a30 30 0 0 0 3.99-.84q1.86-.59 3.63-1.43a30 30 0 0 0 3.06-1.79 27 27 0 0 0 2.95-2.43q1.14-1.15 2.15-2.4a24 24 0 0 0 3.88-7.55c.27-1.02.5-2.04.66-2.97v-.14q.18-1.22.23-2.43c0-.97 0-1.97-.1-2.95q-.13-1.31-.4-2.6.01-.08-.05-.14-.3-1.3-.75-2.56l-.48-1.16.1.16.04.09.18.25c-1.24-1.93-1.09-4.9 1.05-6.15 2.04-1.22 4.42.36 4.9 2.5q.38 1.04.72 2.13.23 1.05.52 2.1.25.96.52 1.91.21 1.03.32 2.07a32 32 0 0 1-.88 12.02c-.73 2.6-1.82 5.1-3.16 7.42l.53.04q2.1.08 4.17-.16 2.01-.27 4-.86 1.86-.59 3.62-1.43a27 27 0 0 0 3.04-1.79 24 24 0 0 0 5.1-4.8q.8-1.05 1.48-2.16.82-1.4 1.5-2.88.5-1.23.9-2.52c.27-1.02.5-2.04.68-2.97v-.14.02a22 22 0 0 0-.27-8.03q0-.07-.02-.13-.3-1.28-.75-2.54-.24-.62-.5-1.2-.07-.1-.1-.2c.1.15.17.31.21.38q.01.06.05.09.07.13.16.25c-1.25-1.93-1.1-4.9 1.04-6.17 2.02-1.2 4.42.36 4.88 2.5a35 35 0 0 1 2.1 8.2z"/><path fill="#547491" d="m337.33 274.26-.39 1.02q-.55 1.33-1.09 2.58a27 27 0 0 1-10.23 11.44 85 85 0 0 1 8.74-11.7q1.06-1.3 2.2-2.53zm-84.88-33.14-.59-.25c-7.78-1.59-9.25-11.8-4.87-17.26 1.58 6.03 3.38 11.9 5.46 17.5m58.74 44.62c2.54 1.34 2.79 5.22.43 6.8q-1.1-.16-2.2-.47a36 36 0 0 1-9.64-6.01q1.6.1 3.2.09c1.09.09 2.22-.18 3.33-.43 1.68-.41 3.36-.8 4.9.04zm25.19-86.06a11.7 11.7 0 0 1 2.04 8.2l-.66-2.64q-.67-2.78-1.38-5.56"/><path fill="#547491" d="M340.58 254.15c.63 6.7-.89 13.86-3.25 20.1l-.38 1.02a2 2 0 0 1-.39-.2l-.27-.16c-2.5-2-1.48-5.33.04-7.6a69 69 0 0 0 4.25-13.16"/><path fill="#832e1b" d="M288.3 257.77c-1.22-.16-2.1-1.3-2.4-2.4-.36-1.4.02-3.05 1.18-3.93.93-.7 2.2-.93 3.29-1.34q2.3-.86 4.7-1.54 5.22-1.51 10.45-2.95c6.62-1.89 13.3-3.65 19.9-5.6.8-.25 1.67-.46 2.49-.75q.2-.11.4-.18c1.98-.73 3.82.81 4.3 2.67.47 1.77-.14 3.93-1.8 4.86q-.58.31-1.22.38-.54.12-1.05.27l-2 .53c-6.57 1.79-13.13 3.72-19.7 5.53q-5.03 1.41-10.05 2.79-2.48.69-5.01 1.18c-.98.18-2 .54-3 .54q-.24 0-.47-.02z"/><path fill="#832e1b" d="M309.43 292.04c-9.85-4.02-16.95-12.95-22.91-21.46-4.31-5.74-5.72-17.94 2.93-20.05 3.58 0 4.3 5.56 1.45 7.15-5.17 6 13.86 23.97 19.44 26.33 17.98 5.58 28.98-24.04 20.82-36.68-3.31.64-5.38-3.54-3.75-6.19 1.64-2.83 5.88-2.2 7.94-.23 8.44 10.16 5.56 25.8.48 36.93-4.45 9.57-15.7 17.24-26.4 14.2"/><path fill="#3c5368" d="M212.23 280.25c-2.5-.82-5.99-.16-7.44-2.73-1.11-2-.5-5.33 1.93-6.07 3.83-.28 7.55 1.65 11.48 1.09 2.74-.32 6.17-1.84 7-4.68 1.1-3.51-2.1-6.94-5.67-6.44-1.97.07-3.28-1.52-3.6-3.42-.14-1.43.18-2.93-1.2-3.86-1.89-.3-2.88-2.2-3.07-3.95-.54-1.54-2.01-2.42-3.28-3.35-.69-.44-1.55-.34-2.25-.75-1.3-.73-1.72-1.86-2.09-2.88-.8-1.39-2.51-1.5-3.42-2.75-1.77-2.1-.68-5.99 2.06-6.58 3.09-.18 5.63 2.61 7.15 5.04a14.7 14.7 0 0 1 8.1 8.08c2.13 1.58 3.96 3.92 4.48 6.55 6.45 1.25 10.73 8.21 9.64 14.52-.59 9.55-11.45 13.92-19.82 12.18m77.46 171.11c-8.19-.5-15.95-3.52-22.89-7.76-2.83-1.54-7.69-4.1-5.22-7.94 1.3-1.7 3.66-1.34 5.15-.16 7.13 4.86 14.93 8.4 23.57 8.49 6.35.04 6.49 8.96-.59 7.37zm50.54-13.3c-1.13-1.75-.25-3.81 1.54-4.65a791 791 0 0 0 15.34-7.42c3.4-1.7 6.84-3.35 10.27-5.06q.17-.07.34-.18l.27-.13c.87-.46 1.73-.84 2.59-1.3l.09-.06q.45-.27.93-.43c1.77-.57 3.95.02 4.99 1.6a3.07 3.07 0 0 1-.66 4.09q-.41.35-.93.57l-.34.13c-.97.43-1.93.95-2.93 1.4-1.54.71-3.03 1.48-4.53 2.2q-6.47 3.16-12.93 6.27c-2.88 1.38-5.71 2.88-8.57 4.33q-.87.44-1.84.43a4.4 4.4 0 0 1-3.65-1.84z"/><path fill="#547491" d="M375.12 301.43c-1.75-1.31-1.75-4.22-2.07-6.19-.93-4.54-1.97-9.05-2.9-13.59-1.02-5.05-1.9-10.13-3.15-15.15-.43-2.31-1.5-4.65-.98-7.03.52-2.54 3.81-3.58 5.56-1.54a4.6 4.6 0 0 1 1.2 3.24c.73 3.65 1.61 7.28 2.36 10.94 1.45 7.98 3.5 15.9 4.94 23.86 1.34 3.35-1.1 8.14-4.94 5.48z"/><path fill="#a97424" d="M388.05 300.18c-3.49-.95-3.15-5.29-1.95-7.9 2.38-6.55 3.5-13.6 6.58-19.88a3.14 3.14 0 0 1 4.79-.91c2.72 2.13 1 5.67-.12 8.07-1.86 5.67-3.35 11.41-5.24 17.08-.13 2.07-1.88 4.08-4.03 3.54zm-200.32-15.63c-3.3-3.63-7.33-6.46-11.25-9.34-3.3-1.84-7.35-5.72-3.84-9.37 1.52-1.38 3.7-.95 4.83.68 4.77 4.17 10.6 7.37 14.84 12.23 3.13 3.24-.73 9.52-4.58 5.82zM347.47 448.7c-.45-1.95.52-4.85 2.88-4.96 5.76-2.32 11.05-5.7 16.54-8.56a79 79 0 0 0 6.6-4.33c1.13-.84 2.68-.63 3.72.23 2.04 1.66 2.04 5.15-.1 6.74-5.87 4.15-12.44 7.2-18.66 10.81-3.38 1.57-9.39 5.9-11.02.07zm-66.51 12.22c-7.32-1.27-15.15-4.67-19.64-10.68-1.74-1.97-3.3-4.7-1.81-7.26a3.1 3.1 0 0 1 4.76-.9c3.84 6.8 11.3 10.32 18.9 11.04 4.94 1.45 3.08 9.44-2.2 7.78z"/><path fill="#7099c0" d="M289.6 459.8c.2 1.92-.9 4.12-2.98 4.37-6.49.5-12.9 1.65-19.4 2.27-.76 3.22-.2 10.5-5.39 9.05l-.39-.2c-.47.08-1 0-1.5-.26-11.6-3.92-3.37-10.43-10.31-13.2-3.97 1.32-6.13-4.56-3.38-7.03 2.38-2 5.67-.63 8 .77 3.68 2.25 5.24 6.7 5.43 10.8l.63.25q.15-.86.2-1.61c.25-3.27 2.02-6.78 5.79-6.49 6.5-.66 12.97-1.65 19.48-2.36 2.07-.34 3.65 1.82 3.84 3.65z"/><path fill="#7099c0" d="M266.31 487.7a4.6 4.6 0 0 1-1.72-5.44c1.95-5.12 5.83-9.48 10.27-12.6 3.2-2.25 6.9-3.86 10.28-4.4 2.24-.4 4.44-.37 6.69.04q-.1 0-.23-.05l-.25-.04h-.27c1.97.07 3.47 1.72 3.7 3.72a4.2 4.2 0 0 1-.8 3.08q-.47.62-1.18.93c-.52.25-1.43.43-1.97.16a3 3 0 0 0-.61-.13q-.6-.08-1.2-.12a14 14 0 0 0-4.86.84q-1.74.6-3.38 1.5a32 32 0 0 0-3.29 2.18q-1.54 1.25-2.9 2.67-.9 1-1.66 2.09-.68 1.02-1.22 2.1a16 16 0 0 0-.7 1.75c0 .05-.05.12-.05.16a3 3 0 0 1-2.93 2.05c-.56 0-1.15-.16-1.67-.48z"/><path fill="#3c5368" d="M280.17 505.29c-16.04-.25-32.37-9.69-39.6-24.11a20 20 0 0 1-2.32-11.1c.25-2.33-.45-5.23 1.75-6.84 3.65-2.04 6.06 2.54 5.1 5.69-.36 2.86.05 6.53 1.52 8.85a26 26 0 0 0 8.6 10c3.92 3.42 7.73 5.78 12.59 7.37 11.18 3.47 25.13 4.36 32.9-5.72 1.82-2.42 5.48-.95 5.93 1.82.84 3.04-1.97 4.94-3.79 6.9-6.12 5.66-14.45 8.05-22.68 7.14m76.87-13.68c-.11-2.5 1.95-4.3 3.43-6.1 3.8-5.24 9-9.19 14.08-13.11 12.89-9.73 27.58-15.42 43.5-17.33 4.52.27 3.88 7.28-.13 7.9-19.03 1.92-36.56 11.06-50.1 24.44-1.34 1.55-3 3.9-4.27 5.27-.77 1.02-1.56 1.97-2.9 2.2-1.95.34-3.54-1.34-3.6-3.27"/><path fill="#832e1b" d="M360.43 503.65c-5.92-15.74 32.77-36.38 45.2-40.3 7.06-2.48 16.88-7.12 22.82-.25 4.1 4.2-1.95 10.95-5.67 5.37-4.35-2.9-10.2.7-14.7 1.95-14.7 5.45-29.37 13.36-39.55 25.45-1.1 1.64-2.84 3.54-.82 5.15.95.16 1.8.73 2.3 1.75 1.29 2.52-.76 6.19-3.61 6.19-2.63 0-4.95-3.15-5.97-5.33z"/><path fill="#7099c0" d="M367.88 468.17c-2.86-.34-4.44-2.95-5.94-5.08-1.34-1.75-3.22-.6-4.67.31a3.6 3.6 0 0 1-3.15 1.3c-2.86-.37-3.4-4.18-2-6.2 1.09-1.54 2.97-2.33 4.63-3.15 5.49-3.2 9.77.64 12.79 5.01q.66.06 1.34.07c-2.77-5.85 2.17-12.2 6.1-16.06 2.24-2.26 6.26-7.96 9.12-3.44 1.2 2.51-.7 5.1-2.5 6.64-2.31 2.66-5.01 4.56-6.3 7.74 3.76 1.15 4.71 5.94 2.2 8.8a14 14 0 0 1-11.6 4.06zm20.14-10.83c-2.7-3.97 4.3-12.81 7.98-14.29 4.2-1.34 5.92 4.27 3 6.71a11.4 11.4 0 0 0-4.79 5.47c-.43 2.81-4.26 4.9-6.2 2.11"/><path fill="#a97524" d="M249 225.97a5 5 0 0 1 .04-2.89c.32-.9 1.05-1.95 2.02-2.24l.25-.07c14.5-4.51 28.9-9.32 43.3-14.09l17.26-5.71 8.35-2.79c1.65-.55 3.38-1.04 4.97-1.75q.21-.13.45-.22c1.95-.8 3.83.68 4.4 2.51.57 1.89-.11 4.34-2.09 5.13q-.4.17-.86.2c-.63.14-1.27.37-1.4.41-7.08 2.2-14.09 4.56-21.14 6.9a3273 3273 0 0 0-22.68 7.48c-9.5 3.18-19.04 6.3-28.5 9.62q-.55.17-1.06.18c-1.54 0-2.83-1.09-3.33-2.7zm5.58 15.19c-1.82-1.04-2.25-3.38-1.36-5.2.8-1.6 2.74-1.99 4.29-2.58q2.54-1 5.12-1.9 5.3-1.87 10.64-3.7 10.62-3.7 21.23-7.35 9.66-3.33 19.32-6.7 4.6-1.6 9.19-3.23c2.34-.84 4.72-1.6 6.99-2.59q.09-.08.22-.14c2.32-1.15 4.56.62 4.9 3a4.6 4.6 0 0 1-.75 3.26q-.45.63-1.13 1.05c-.66.36-1.23.36-1.95.36.13 0 .3 0 .43.02.16 0 .32-.02.57-.04q-.2 0-.37.04l-.75.2c-3.12.94-6.19 2.07-9.27 3.14q-5.18 1.78-10.34 3.58c-6.99 2.43-13.95 4.92-20.94 7.37l-27.1 9.48q-2.32.77-4.63 1.5c-.93.32-2.02.8-3.04.8q-.65 0-1.27-.32z"/><path fill="#a97524" d="M251.87 240.87c-9.6-1.95-9.6-17.01-.9-20.12 2.5-1.38 4.98 1.48 4.53 3.97-.14 3.04-4.5 3.4-4.2 6.6.25 1.36 1.77 1.66 2.88 1.93 1.45.4 2.43.73 3.18 2.04 1.9 3.95-1.4 7.62-5.5 5.58m80.04-26.07c-2.22-.7-2.84-3.58-2.11-5.5.32-1.12 1.3-1.48 1.77-2.36.59-1.54-1-3.31-2.61-3.06-.61.06-1.18.27-1.75.43-2 .52-3.85-1.61-3.97-3.45-.45-4.36 3.75-5.33 7.28-4.9 6.74 1.02 9.96 9.82 6.72 15.45-1 1.92-3.02 4.17-5.36 3.4z"/><path fill="#3c5368" d="M293.73 311.3c-.25-2.2.1-4.8-.98-6.68-2.9-9.18-14.2-8.05-20.77-3.33q1.26.92 2.42 1.68a66 66 0 0 0 7.74 4.33q3.9 1.8 8.03 3.08 1.76.51 3.56.91m48.95-72.09c-.53-2.79.38-6.17-.05-8.87-.48-7.64-2.33-15.1-4.22-22.5.39-2.83-.38-5.87-2.04-8.19-4.26-16.58-9.7-32.8-15.15-49.01-3.58-11.05-7.21-22.11-12.52-32.48q-.23-.45-.36-.88a3.4 3.4 0 0 1-2.36-1.84c-2.9-5.45-7.01-12.39-14.02-12.02-9.89.5-19.71 2.99-29.2 5.78-8.3 2.95-17.32 4.36-23.97 10.3-2.44 2.06-2.33 5.5-3.24 8.25a3 3 0 0 1-.18.46c-.82 8.8-.8 17.62.16 26.4 2.24 18.8 5.15 44.95 11.45 68.97-4.37 5.47-2.92 15.68 4.88 17.26q.3.16.59.25c5.15 14 11.88 26.2 20.93 34.32 7.22 6.6 16.72 10.05 26.38 10.62 2.9 2.47 6.1 4.55 9.64 6a19 19 0 0 0 2.2.48c-.09.1-.2.14-.31.2-2.75 1.03-5.83 1.3-8.8 1.3h-1.03q-4.66-.11-8.89-.93a17 17 0 0 1 5.36 6.35c1.22 2.36 3.42 8.94 2.63 12.9q2.65.2 5.33.17 3.76-.18 7.44-.87 3.95-.84 7.7-2.31 1.41-.55 2.78-1.2c-.3-.93-.53-1.88-.84-2.72-1.3-4.95-.98-10.28 1.79-14.68l.84-1.43a27.4 27.4 0 0 0 11.31-14.02l.4-1.02c2.35-6.23 3.87-13.4 3.23-20.1a115 115 0 0 0 2.11-14.94zm7.73 40.1q.57-1.3 1.09-2.6c-5.17.04-9.35 2.78-12.23 6.82-3.9 4.99-8.77 9.96-10.25 16.29-.25 1.6.25 3.29.68 4.96a55 55 0 0 0 4.88-3.67 56 56 0 0 0 5.92-5.94 66 66 0 0 0 5.51-7.56 79 79 0 0 0 4.38-8.3zm13.63-40.5q.23 3.85.16 7.68c-.11 6.38-.72 12.73-2 18.96-2.63 12.9-8.05 25.52-16.69 35.57A59 59 0 0 1 330 313.79a50 50 0 0 1-18.92 6.14 50 50 0 0 1-6.14.37 57 57 0 0 1-13.2-1.61 66 66 0 0 1-20.33-9.03c-9.6-6.28-17.71-14.72-24.13-24.22 4.78 16.69 10.23 33.18 14.17 50.1 1.16 4.35 2.45 8.69 3.61 13.04.5 1.3 1.02 3.04 1.07 4.67 1.29 1.39 2.08 3.65 2.58 5.31 4.56 13.77 8.26 27.83 12.48 41.74 4.17 13.06 7.4 27.14 16.35 37.78a18.7 18.7 0 0 0 17.28 4.36 3 3 0 0 1 2.75-.55c2.95.75 4.85 4.83 2.29 7.06-2.68 1.43-6.15 1.47-9.17 1.63-22.65-.84-29.05-26.26-34.9-44.02-4.74-15.31-8.8-30.85-13.77-46.03-.4-1.2-1.13-2.67-1.45-4.12a5 5 0 0 1-1.18-2.9c-2-7.74-4.26-15.4-6.15-23.14a603 603 0 0 0-7.98-28.17 22 22 0 0 1-3.13 8.16c-1.02 1.18-2.27 3.11-3.72 4.27q-.21.44-.48.81c-.95 1.14-2.15 2.09-3.29 3.04-4.58 3.18-9.02 7.4-14.22 9.26-3.67-.12-4.56-5.36-1.9-7.44 1.63-1.18 3.56-2.07 5.21-3.22 3.36-2.4 6.76-4.79 9.76-7.65h.02c1.45-2.58 4.76-4.99 4.85-8.1 1.1-3.67-1.83-6.98-5.17-8.14-2.45-.5-4.56-.16-6.76.12a18 18 0 0 0-4.74 2.22q-.37.33-.88.57-.24.17-.5.31l-.48.14c-2.47 1.36-5.06 4.2-7.78 2.4-2.06-1.6-1.97-5.12.07-6.71 1.9-1.07 3.72-2.36 5.67-3.33 8.71-6.24 18.49-4.74 23.73.88-2.9-9.93-5.58-19.94-7.49-30.14-6.53-30.87-13-61.83-16.74-93.18a293 293 0 0 1-2.63-31.5q-.01-.62-.07-1.27c-1.13-.98-1.38-2.68-1.13-4.22-.45-16.24 13.06-26.63 26.58-32.57 12.5-5.67 25.72-9.8 39.08-12.89 2.04-.47 4.4-1.13 6.04.66 2.2 2.61-.91 6.13-3.86 5.88-12.8 2.56-25.29 6.75-37.29 11.86-11.32 4.99-23.72 13.22-22.72 27.17.09.75 0 1.5-.32 2.16 1.13 2.88.31 6.41.77 9.45 2.56 39.47 10.5 78.28 18.82 116.9l.07.19q.52 1.26 1 2.54c.45 1.13.98 2.2 1.5 3.3a271 271 0 0 0 2.74 5.59c2.13 4.15 4.51 8.14 6.85 11.54q3.2 4.63 6.92 8.87a89 89 0 0 0 7.37 7.26q.3.28.61.52c1.5-5.2 6.85-7.26 11.75-8.05q1.29-.2 2.54-.2c-26.44-12.1-37.92-47.12-43.73-74.65-4.33-17.58-6.8-35.47-8.8-53.44-1.45-11.66-2.17-23.47-.68-35.18-.81-6.69 5.4-13.22 11.23-16.1 10.45-5.2 21.73-8.03 32.93-10.93 18.65-4.09 30.74-7.38 40.35 12.83q.1.3.16.62.64.6 1.18 1.65c4.83 7.15 38.38 102.68 34.82 124.14-.27 8.07-2.84 23.68-6.65 31.75q.5-.23 1.04-.38c2.2-.77 4.56-1.02 6.88-1.18 1.15-.07 2.36-.14 3.36.27a92 92 0 0 0 3.21-21.3q.17-6.36-.42-12.68V235s0-.09-.03-.13q-.1-.44-.11-.87v-.68c.13-1.38.9-2.7 2.31-3.13 2.07-.6 3.81 1.07 4.45 2.9.09.26.11.46.13.69q.07.27.07.56v.28q.09.82.16 1.65l.16 2.52z"/><path fill="#3c5368" d="M296.37 341.58v-.25q0-.08-.02-.14-.03-.13-.1-.27l-.22-.48a7 7 0 0 0-1.2-1.56q-.45-.42-.93-.82a22 22 0 0 0-1.93-1.25q-.78-.42-1.63-.77-.81-.3-1.66-.52a3 3 0 0 1-1-.2l-.38-.1q-1.09-.19-2.18-.24-.94 0-1.88.09-.64.12-1.3.32-.4.15-.79.34l-.61.36-.27.25-.2.23q-.02.07-.07.1-.02.09-.07.14v.32q-.01.1.04.2l.14.42.16.36.4.61q.37.47.78.9a12 12 0 0 0 2.7 2.05q.9.48 1.86.88a20 20 0 0 0 2.74.82q1.2.22 2.38.25.88-.01 1.75-.11.62-.1 1.25-.28.58-.2 1.13-.47.26-.15.5-.32l.27-.23q.09-.08.16-.18c0-.02.05-.04.05-.09l.09-.18v-.1zm6.44-2.36c.6 2.68.32 5.47-1.29 7.76a10.2 10.2 0 0 1-5.74 3.94 16 16 0 0 1-4.28.57c-3.02 0-6.06-.77-8.71-2.02-5.04-2.38-9.64-6.92-9.6-12.84a9.3 9.3 0 0 1 4.02-7.48c2-1.43 4.58-2.02 7-2.13 1.57-.07 3.2.04 4.72.38h.02q.55.07.98.28c.9.31 1.81.56 2.7.93q1.96.79 3.7 1.97c3.06 2.1 5.5 4.99 6.46 8.62zm27.39-8.51v-.11a.3.3 0 0 0-.05-.16q0-.08-.04-.14-.06-.09-.11-.22l-.16-.25q-.14-.14-.23-.27c-.13-.14-.3-.25-.43-.4l-.7-.44-.89-.41a13 13 0 0 0-2.27-.48q-.39.01-.77-.04h-.59q-1.25.02-2.47.2-1.21.22-2.38.61-1.03.4-2.02.89-.74.44-1.45.95a9 9 0 0 0-1.84 1.88q-.25.36-.45.75a4 4 0 0 0-.37.98q0 .14-.04.3v.29q0 .07.05.18.01.07.06.16l.12.22q.07.14.15.23l.32.36q.21.2.41.34c.2.16.43.27.64.41q.5.25 1.04.45.67.22 1.38.37 1.1.17 2.23.2c.65 0 1.33-.09 2-.16q1.36-.25 2.71-.72a13 13 0 0 0 3.63-1.95c.37-.3.68-.62 1.02-.93q.41-.46.78-.93.23-.34.42-.7.14-.25.21-.48l.14-.43.04-.25v-.3zm5.2 23.1v-.25q-.02-.14-.07-.26l-.1-.2-.1-.2-.21-.28-.27-.27-.34-.27-.82-.46q-.54-.25-1.11-.4-.08 0-.12-.03-.55 0-1.06-.2c-.18 0-.36-.05-.57-.05q-1.04-.06-2.13 0-1.09.12-2.13.34-1.1.3-2.16.73-.8.37-1.56.84-.71.48-1.39 1.02a12 12 0 0 0-.93.93q-.34.38-.6.8-.19.26-.33.56-.1.2-.18.43l-.11.36q0 .19-.05.37v.32q.01.07.05.13l.04.14q.07.08.1.18.08.13.18.25l.34.36.43.34.77.45q.53.22 1.06.39.84.21 1.7.32 1.03.06 2.05 0 1.12-.13 2.2-.37.98-.27 1.95-.65.95-.43 1.84-.96.71-.46 1.4-1.02.41-.39.82-.81.37-.45.68-.91.23-.37.45-.77l.14-.36q.02-.16.09-.32l.02-.2zm6.44 22.51v-.09s0-.11-.03-.18v-.04l-.09-.25-.13-.25-.25-.32-.3-.3-.68-.52a7 7 0 0 0-.72-.38q-.49-.2-1-.37a10 10 0 0 0-1.4-.27h-.03c-.2 0-.43-.02-.6-.04q-1.37-.15-2.76-.07-1.29.12-2.52.38-1.17.3-2.26.75-.86.41-1.7.89-.82.55-1.57 1.2-.42.41-.82.86-.24.3-.47.66c-.12.18-.2.39-.32.57l-.18.47q-.03.2-.1.39 0 .13-.02.23v.34q.01.06.05.13 0 .06.05.12l.13.25.16.22.4.41.55.4q.41.25.87.49.6.25 1.24.45.94.23 1.86.36 1.13.08 2.25 0 1.4-.13 2.79-.43 1.2-.34 2.4-.82.98-.45 1.88-1 .69-.46 1.3-.97.47-.45.9-.93a6 6 0 0 0 .8-1.27l.16-.43.09-.34q0-.15.04-.32zm5.83 22.48v-.13s0-.12-.05-.19q-.06-.17-.11-.38l-.16-.36q-.07-.13-.16-.25l-.27-.32-.32-.3-.4-.27-.46-.23q-.17-.04-.3-.09-.24-.07-.47-.2-.46-.17-.93-.27-.86-.16-1.75-.2-.98 0-1.95.08-.92.18-1.84.41-1.16.38-2.24.93-.96.52-1.84 1.14-.68.53-1.34 1.13-.44.46-.84.95-.34.47-.63.96-.22.38-.39.77-.14.31-.2.65-.08.3-.12.62v.75q.01.12.05.25l.09.27.09.2.16.27q.1.16.2.25l.41.39q.28.18.52.36.45.24.89.43.55.2 1.13.34.79.15 1.61.2.98 0 1.95-.08 1.05-.18 2.11-.48a23 23 0 0 0 2.18-.88q.92-.5 1.77-1.1a14 14 0 0 0 1.25-1.06q.5-.52.97-1.09.35-.47.66-.97l.38-.78q.16-.35.25-.72l.1-.5zm5.1-5.74a11.2 11.2 0 0 1 1.56 7.33c-.75 5.78-5.05 10.3-10.2 12.68a18.5 18.5 0 0 1-7.7 1.7c-4.05 0-8.02-1.45-10.4-5.01a11.4 11.4 0 0 1-1.54-9.12 16.3 16.3 0 0 1 4.6-7.62q1.37-1.34 3.02-2.36l-1.18.04a16.4 16.4 0 0 1-9.21-2.65 10.5 10.5 0 0 1-4.04-5.49c-.82-2.54-.59-5.17.43-7.6a14 14 0 0 1 3.15-4.37 19 19 0 0 1 3.5-2.52h-.14c-2.56 0-5.1-.57-7.3-1.9a10 10 0 0 1-3.97-4.32 10.7 10.7 0 0 1-.8-6.5 13.6 13.6 0 0 1 3.13-6.15 18 18 0 0 1 5-3.86q-.72.07-1.44.07-2.22 0-4.37-.57c-2.84-.77-5.58-2.47-7.1-5.06a11 11 0 0 1-1.5-4.58c-.18-1.65.14-3.3.68-4.9q1.21-3 3.56-5.21a18 18 0 0 1 4.79-3.22 20.5 20.5 0 0 1 7.96-2.05q.67-.02 1.31 0 .62-.06 1.16.1.92.12 1.8.31 1.36.3 2.67.87a11.3 11.3 0 0 1 5.88 5.62 11.2 11.2 0 0 1-.05 8.87c-1 2.33-2.7 4.24-4.7 5.76q-1.19.92-2.51 1.63.3 0 .6-.04h1.55l1.07.09q.13 0 .22.04a3 3 0 0 1 1.28.28c1.65.47 3.17 1.04 4.58 2.1a10 10 0 0 1 4.01 7.04 12.7 12.7 0 0 1-2.33 8.2 16 16 0 0 1-5.2 4.59 10 10 0 0 1 2.3.09h.13q.72 0 1.31.27.85.18 1.66.4c1.04.33 2.09.78 3.04 1.35a11.5 11.5 0 0 1 3.88 3.65 10 10 0 0 1 1.5 3.92c.67 3.54-.82 7.15-3.16 9.73a17 17 0 0 1-3.63 3 16 16 0 0 1 6.08.97l.16.07c.3.11.57.3.82.48 1.63.97 3.06 2.15 4.12 3.83zm7.67-82.79-.02-.4-.05-.28s-.04-.11-.04-.16c0-.04-.05-.09-.07-.16l-.07-.09-.04-.04q-.06-.02-.1-.07l-.15-.07q-.16-.02-.32-.09l-.39-.04q-.34.02-.65.06h-.1q-.33.09-.68.1l-.27.1a11 11 0 0 0-3 1.6q-.91.72-1.74 1.54a17 17 0 0 0-2.42 3.31q-.42.77-.73 1.56-.22.63-.4 1.25-.12.49-.19 1l-.02.55.02.31c0 .12.05.25.07.37q-.01.05.04.09.02.06.07.13l.07.1.05.04q.07.02.1.09l.12.04.34.1.43.04q.4-.02.84-.07a8 8 0 0 0 2.27-.81q.76-.45 1.47-.96a15 15 0 0 0 1.68-1.5q.87-.9 1.61-1.92c.32-.48.66-.98.93-1.48q.38-.75.73-1.52.25-.61.4-1.27.1-.45.17-.93l.04-.65zm4.02 22.75v-.43q-.02-.18-.07-.36l-.14-.43q-.04-.13-.11-.25l-.14-.25-.06-.1-.05-.04h-.02l-.05-.04-.25-.14-.09-.05q-.12-.06-.25-.1l-.48-.14-.54-.07q-.44-.01-.86.04-.56.1-1.11.27-.61.24-1.18.5-.71.4-1.38.87-.81.64-1.6 1.36-.64.7-1.24 1.45-.45.6-.82 1.25l-.63 1.29q-.25.67-.48 1.38-.13.55-.23 1.1l-.04.65q-.01.3.05.61a3 3 0 0 0 .2.82l.07.16.11.18q.03.05.1.09.06.07.13.11.09.08.22.14l.32.16.46.13q.28.06.56.07.42 0 .84-.04.53-.11 1.05-.25.74-.28 1.45-.62.67-.37 1.29-.81.72-.59 1.4-1.23.68-.67 1.28-1.45.41-.57.79-1.18.46-.82.82-1.68.24-.67.45-1.36.12-.54.2-1.04.01-.3.05-.6zm5.12 22.82v-.45s0-.12-.02-.19l-.05-.15-.06-.16c0-.03-.05-.07-.05-.1l-.02-.04-.1-.09a2 2 0 0 1-.47-.2h-.07l-.47-.1h-.66q-.54.07-1.04.21-.57.18-1.14.43-.67.35-1.31.73-.87.6-1.66 1.31-.57.56-1.11 1.16a29 29 0 0 0-1.32 1.81q-.4.7-.74 1.4-.24.55-.44 1.12-.13.46-.22.93l-.1.75v.4c0 .14.05.26.05.4q-.01.06.05.1s0 .05.02.07c0 .05.05.1.07.12 0 0 .04.04.04.07 0 0 .05.02.05.04q.07.09.16.11c.04 0 .07.05.11.07l.32.12.4.06q.37 0 .73-.02.45-.06.89-.16.6-.18 1.18-.43.77-.4 1.52-.86.7-.5 1.38-1.09.72-.68 1.36-1.4.66-.82 1.22-1.68.38-.66.73-1.34.25-.6.45-1.2.16-.55.25-1.1l.07-.63zm4.29 23.95q.01-.23-.05-.5l-.06-.3-.1-.22q-.03-.13-.1-.23-.03-.06-.1-.13l-.09-.1-.11-.08-.14-.1q-.06-.01-.16-.06h-.04s-.05-.02-.05-.05q-.18-.01-.32-.07h-.04l-.57-.04q-.48 0-.95.09-.61.14-1.18.32-.75.28-1.45.66-.82.46-1.59 1.04-.92.74-1.75 1.59-.71.79-1.36 1.65-.65.94-1.2 1.95a22 22 0 0 0-.75 1.66q-.25.67-.4 1.36c-.1.36-.14.72-.21 1.09q-.04.41-.05.84c0 .13 0 .3.05.43q.01.16.07.31.02.15.09.25l.09.19.09.16q.06.07.11.1l.05.05a3 3 0 0 0 .43.25l.4.12c.17 0 .35.04.53.04q.46 0 .9-.09.52-.12 1.03-.27.92-.35 1.77-.8.76-.47 1.47-1.01a17 17 0 0 0 4.31-5.27q.4-.81.77-1.65.25-.72.46-1.46l.15-.97.03-.77zm3.56-7.69c2.36 2.2 3.2 5.54 3.06 8.69-.2 4-1.86 7.87-4.22 11.07-2.1 2.88-5 5.56-8.32 6.96a12 12 0 0 1-4.8 1.09q-.42.01-.83-.05a8.5 8.5 0 0 1-4.7-1.97c-2.5-2.06-3.35-5.62-3.21-8.75.16-3.8 1.7-7.53 3.85-10.6a25 25 0 0 1 5.47-5.64q-.85.3-1.7.52-.99.25-2 .25a8 8 0 0 1-5.67-2.27c-1.83-1.77-2.58-4.45-2.63-6.92-.04-2.79.93-5.65 2.25-8.07a22 22 0 0 1 4.74-5.92q-1.5.52-3.06.63h-.6a8.6 8.6 0 0 1-6.8-3.2 11.7 11.7 0 0 1-2.27-8.05c.2-3.01 1.27-5.85 2.84-8.41q.72-1.16 1.56-2.23a8 8 0 0 1-5.98-2.79c-3.63-4.26-2.16-10.77.27-15.2a24 24 0 0 1 5.42-6.6 20 20 0 0 1 3.7-2.44 8 8 0 0 1 2.42-.89c.41-.18.86-.3 1.1-.3.3 0 .6-.08.9-.08 1.02 0 2.06.04 3.04.36a8.3 8.3 0 0 1 5.26 5.26c.93 2.47.68 5.24.07 7.74a21.5 21.5 0 0 1-4.45 8.41q.43 0 .84.03c1.04.08 2.11.33 3 .86.47.16.93.45 1.29.81 1.2 1 2.18 2.23 2.81 3.66 1.2 2.74 1.18 5.87.52 8.75a20.5 20.5 0 0 1-5.35 9.41q-.4.42-.82.8a9.5 9.5 0 0 1 6.35-.25q.65.16 1.23.61c.54.34 1.09.68 1.56 1.16a8 8 0 0 1 1.86 2.8c1 2.5.98 5.3.34 7.86-.77 3.17-2.56 6.07-4.67 8.53q-1.36 1.58-3.04 2.8 1.54-.53 3.16-.65c.47-.05.97-.02 1.47 0q.34.04.63.11l.46.05a9 9 0 0 1 3.6 2.02zm-75.37-6.35v-.11q0-.08-.02-.12l-.13-.31-.3-.5q-.3-.4-.61-.77a11 11 0 0 0-2.47-1.95q-.86-.52-1.77-.94a10 10 0 0 0-1.48-.5q-.92-.3-1.83-.56-1.37-.29-2.73-.4-1.11-.03-2.2.04-.85.13-1.67.31-.6.2-1.16.43l-.61.34q-.17.15-.37.28c-.06.09-.16.16-.22.25q-.02.05-.07.09l-.07.11v.02q.01.13.07.25.06.18.16.34l.31.55.5.63a10 10 0 0 0 2.32 1.86q1.13.68 2.31 1.18 1.33.55 2.75.89 1.3.27 2.63.4 1.28.07 2.56-.04.72-.1 1.45-.27.72-.23 1.4-.52l.6-.35.31-.24q.08-.1.19-.19 0-.03.04-.06l.05-.12v-.07zm7.54 23.09v-.1l-.05-.2c0-.06-.05-.1-.07-.18q-.07-.16-.16-.31-.1-.18-.22-.34l-.73-.84q-.49-.46-1-.87-.67-.46-1.38-.88a18 18 0 0 0-2.36-1.04l-.45-.14q-.49-.01-.98-.23c-.48-.11-.95-.25-1.43-.31q-1.33-.23-2.67-.25-1.16 0-2.27.18-.78.17-1.6.4-.53.22-1.08.48-.35.2-.66.46l-.36.31q-.1.14-.2.23l-.12.2-.04.07q0 .04-.03.1v.29l.07.2.18.37.34.52q.3.4.69.75.44.41.9.79.72.51 1.5.95 1.07.56 2.22.98 1.34.45 2.72.72 1.43.2 2.86.25 1.05 0 2.11-.16.9-.16 1.8-.47.5-.19.97-.43.37-.2.7-.46l.45-.4.19-.23.09-.14v-.27zm5.82 24.66v-.37q0-.1-.04-.2l-.14-.41-.2-.4q-.23-.36-.46-.67a9 9 0 0 0-1.65-1.58q-.69-.48-1.38-.89-.45-.23-.94-.45a3 3 0 0 1-.54-.2c-.05 0-.09-.05-.13-.07l-.32-.14q-.46-.2-.91-.36-1.29-.41-2.6-.68a21 21 0 0 0-2.39-.2q-.92 0-1.84.15-1 .21-2 .52-.56.24-1.08.5-.37.21-.73.48l-.45.4-.27.32-.16.25-.12.25s0 .07-.02.1l-.02.15v.3q.01.14.07.3l.11.29.25.5.45.68q.3.36.64.72.5.47 1.04.89a14 14 0 0 0 3.86 1.97q1.32.44 2.72.7 1.24.18 2.5.2 1 0 2-.15.89-.17 1.76-.43.67-.28 1.36-.62l.73-.47.45-.41.27-.32s.1-.16.12-.22l.09-.2v-.05q0-.1.04-.2zm6.22-3.27c.9 3.01.61 6.17-1.11 8.82-1.54 2.38-4 3.9-6.67 4.7q-2.46.7-5.06.7a22 22 0 0 1-10.73-2.83 17 17 0 0 1-6.08-5.68 10.9 10.9 0 0 1-.97-10 10.8 10.8 0 0 1 5.44-5.42 14 14 0 0 1 5.02-1.3c-2.18-.2-4.31-.72-6.33-1.47-4.58-1.74-9.12-5.42-10-10.48a9.6 9.6 0 0 1 1.88-7.62 11 11 0 0 1 4.9-3.35 17 17 0 0 1 2.99-.77 26 26 0 0 1-4.83-.91c-4.45-1.3-8.91-4.04-11.18-8.19a10 10 0 0 1-.73-8.19c.95-2.58 3-4.33 5.47-5.42a15 15 0 0 1 5.71-1.13 23 23 0 0 1 7.74 1.15q.44.11.81.32c3.68 1.59 7.26 3.74 9.35 7.28a10.3 10.3 0 0 1 1.25 7.67 9.3 9.3 0 0 1-5.06 6.03q-1.75.85-3.63 1.18 1.97.15 3.86.66.05 0 .15.04a4 4 0 0 1 1.6.91l-.21-.2-.41-.3-.43-.25.81.32h.12c4.6 1.66 9.05 4.7 10.61 9.53a9.5 9.5 0 0 1-.97 8.05 10.7 10.7 0 0 1-5.45 4.2q-1.95.7-3.96.93a24 24 0 0 1 6.57 1.47q.12.03.23.09.42.17.77.45c1.22.66 2.4 1.34 3.54 2.2 2.24 1.7 4.2 4.09 5.01 6.83z"/><path fill="#a6c4e0" d="M202 276.84c-.89-.43-1.61-1.14-2.32-1.82l-2.45-2.26c-.77-.75-1.45-1.62-2.13-2.43-1.27-1.45-2.72-2.77-3.76-3.75-1.46-1.29-2.93-2.56-4.02-3.51-1.79-1.59-3.58-3.22-5.37-4.51a4.3 4.3 0 0 1-1.93-4.25c.22-1.81 1.52-3.3 3.4-3.44h.1c.99 0 1.83.47 2.42 1.18a192 192 0 0 1 6.44 5.62c2.4 2.11 4.88 4.15 7.03 6.49.86.93 1.68 1.93 2.6 2.81l2.25 2.06.41.32.25.14c1.89.93 2.38 3.56 1.66 5.37a3.5 3.5 0 0 1-3.13 2.32q-.72 0-1.43-.34zm197.13 29.8c-1.07-1.65-.46-3.54 0-5.24 1.2-4.33 2.38-8.69 3.65-13a216 216 0 0 0 4.42-16.8c.32-1.36.88-2.84 2.22-3.52 3.54-1.7 6.1 3.16 4.27 6-1.57 5.89-3 11.8-4.81 17.64-1.23 4.56-2.54 9.11-3.65 13.7-.66 3.04-4.45 4.2-6.08 1.22zm21.44-17.91c-2.36-1.02-1.77-3.97-.37-5.56 1.59-1.86 4.18-2.6 6.04-4.06 3.6-3.54 7.6 2.36 4.94 5.65-2.52 2.22-7.17 5.69-10.62 3.94z"/><path fill="#df6133" d="M420.4 478.44c2.2 2.36.32 7-2.97 6.94-5.22-.3-10.55.3-15.76-.48-4.52-.9-2.72-8.6 1.6-7.87 4.82.73 9.7.39 14.55.41.97 0 1.88.25 2.56 1zm-18.63 12.59c1.95 3.04-1.2 7.01-4.6 6.3-4.11 0-8.22-.31-12.32-.42-4.75-.2-3.72-7.99.6-7.94 4.14.2 8.17.59 12.3.54 1.5-.16 3.15.12 4 1.5z"/><path fill="#000" d="M177.63 321.4a42 42 0 0 1-13.54-41.43 42 42 0 0 1 7.57-16.01 3.13 3.13 0 0 1 4.85-.14 4.6 4.6 0 0 1 .3 5.72q-.78 1.02-1.5 2.06a36 36 0 0 0-2.15 3.74 39 39 0 0 0-1.57 3.8 40 40 0 0 0-1.09 3.98 43 43 0 0 0-.6 4.18q-.15 2.24-.05 4.49a43 43 0 0 0 .4 3.47c.28 1.5.62 2.92 1.05 4.38q.61 1.94 1.45 3.8.89 1.91 1.97 3.7a44 44 0 0 0 2.54 3.56q1.5 1.77 3.18 3.36a44 44 0 0 0 3.4 2.81 46 46 0 0 0 4.31 2.63q.13.08.25.12l.1.04q2.25 1.08 4.64 1.88 2.8.87 5.7 1.3c2.01.27 4.08.38 6.12.34q2.78-.14 5.49-.64 2.94-.62 5.74-1.65a36 36 0 0 0 3.8-1.75l.23.66.91 2.72v-.04.06-.04.07q.25.78.45 1.56l.3 1.02.11.37.36 1.24a41 41 0 0 1-15.94 4.33q-1.16.07-2.36.07a41 41 0 0 1-26.4-9.7z"/><path fill="#000" d="M202.45 305.03c-10.46-1.25-15.65-12.2-12.66-21.78 0-1.79 1.4-3.67 3.27-3.74 6.5.86 1.56 8.42 3.06 12.32 1.65 3.26 5.56 6.55 9.18 4.4.48-.28.98-.55 1.32-.98a3.15 3.15 0 0 1 4.83-.57c4.58 5.4-4.01 10.62-8.98 10.37z"/><path fill="#000" d="M195.9 288.58c-3.2-.86-6.16-4.03-4.37-7.46a3.35 3.35 0 0 1 3.47-1.88l.11.11a4.6 4.6 0 0 0 2.23 1.3q.47.26 1.02.47.23.14.45.23.73.3 1.47.3h.14c.39 0 .73 0 1.09-.12 0 0 .05 0 .07-.02q.27-.01.56-.1.08-.14.12-.29l.25-.23c.52-.52.81-1.22 1-1.92q.16-.61.16-1.25c0-.5-.05-1.05-.21-1.52-.36-1.02-1.07-1.84-1.75-2.68l-.72-.93-.05-.04a4 4 0 0 1 1.25-1.6l.5.12q1.87.4 3.76.62.52.61.75 1.4c4.38 7.58 1.36 16.56-6.32 16.56q-2.25.02-5-1.09z"/><path fill="#000" d="M211.59 301.24c-1.45 0-2.88-1-3.31-3.29-.23-2.43-3.56-11.45-4.85-18.6q.07-.19.1-.38.18-.61.17-1.25c0-.5-.05-1.05-.2-1.52q-.25-.6-.57-1.13c-.05-1.62.1-2.95.6-3.86q1.65.32 3.3.5.66.05 1.33.04h.07c.23.52.37 1.1.5 1.66 1.68 7.8 4.45 15.3 6.3 23.07q.17 1.07-.04 1.92l-1.59 1.66-.95.77-.04.05-.16.11q-.16.01-.32.1l-.2.1h-.1z"/><path fill="#000" d="M206.92 300.4c-.68-2.17.52-4.46 2.42-5.57q-.27.18-.52.4c3-2.52 5.83.8 5.56 3.8q-.52.51-1 1.03l-.95.77-.07.05-.16.11a1 1 0 0 0-.31.1c-.64.34-1.18.86-1.75 1.29l-.43.34-.14.11a3.2 3.2 0 0 1-2.65-2.45zm-35.33-31.48c-2.36-3.56-3.27-8.57-1.7-12.63 2.4-6 11.31-10.98 16.3-5.06 3.25 2.93-.2 9.48-4.24 6.21-1.13-1.77-3.3-.4-4.56.57-3.15 2.5-.3 5.13.12 7.99.43 3.21-3.68 5.78-5.92 2.9z"/><path fill="#000" d="M182.21 256.88a4 4 0 0 1-.9-2.2c-.35-3.25-.96-6.42-.69-9.69.95-6.6 1.11-15.51 8.05-18.74 6.42-2.01 12.28 4.3 13.2 10.26.7 2.5.82 6.14-2.3 6.92-4.5.6-3.7-4.84-5.13-7.49-.69-1.02-2.73-2.63-3.9-1.86-3.59 4.94-3.54 13.02-2.55 18.87 1.14 3.5-3 7.24-5.76 3.9z"/><path fill="#000" d="M197.2 239.25v-.02.18c-5.78-35.43-14.83-71.01-11.65-107.17l.38-2.29c1.43-3.83 6.88-2.54 6.51 2.18-2.01 21.18-.06 42.78 3.81 63.6 2.75 14.33 5.4 28.69 7.76 43.1.07 2.67-1.65 4.1-3.4 4.1-1.57 0-3.15-1.18-3.43-3.68zm68.18 203.77c-1.04-.07-2-.68-2.63-1.5-5.37-5.87-8.48-13.22-11.7-20.45-11.7-25.68-20.16-52.51-28.8-79.3-1.87-5.33-3.3-10.82-5.34-16.08-.43-1.25-.84-2.6-.27-3.92 1.75-4 6.3-1.75 6.72 1.6 11.02 33.19 20.66 66.92 35.54 98.56 1.86 3.94 3.49 8.07 6.21 11.52.89.98 1.84 1.9 2.7 2.93 1.95 2.17.93 6.82-2.45 6.67z"/><path fill="#000" d="M228.15 480.5c-1.05-2.46.04-5.27.74-7.7 1.41-4.99 4.93-9.45 10.03-10.95 1.65-3.97 4.76-7.4 8.84-8.98 3.5-5.76 7.33-14.86 15.52-13.45 1.2-2.63 5.28-4.6 7.1-1.5 1.09 1.97-.27 3.79-1.45 5.33-1.39 3.04-5.15 6.6-8.26 3.5-2.88.83-4.08 5.19-5.76 7.4-1.16 1.69-1.68 3.93-3.47 5.09-1.02.8-2.22.43-3.18 1.16-3.56 2.38-3.4 9.4-8.84 8.77-3.47 1.68-4.13 6.2-4.42 9.58-.55 3.17-5 5.05-6.83 1.79zm58.53-11.86c-.6-1.73.3-3.68-.7-5.33-1.04-1.3-3.02-1.02-3.88-2.68-.86-1.22-.52-2.83.41-3.9a19.7 19.7 0 0 0 6.92-10.12c1.34-2.74 5.78-2.67 7.3-.13.84 1.3.41 2.6-.2 3.8-1.11 3.05-2.95 5.8-4.92 8.31 2.7 2.65 4.06 7.83 1.9 11.14-1.86 2.04-5.76 1.4-6.85-1.11z"/><path fill="#000" d="M300.08 490.88c-1.24-1.31-.52-3.01-.47-4.6.77-6.42-3.52-12.11-9.5-13.79-4.52-.82-4.04-6.71.54-6.76 6.96 1.22 13.43 6.15 15.92 12.86.64 2.06 1 4.22 1 6.37.07 2.27.36 5.45-1.9 6.8a4.5 4.5 0 0 1-5.56-.88zm-18.56 25.61a65.6 65.6 0 0 1-32.86-9.35 51 51 0 0 1-14.6-12.88q-1.11-1.47-2.12-3.02c-.38-.63-.72-1.31-1.13-1.95l-.18-.25c-.98-1.54-.39-3.44 1.13-4.37 1.61-1 3.86-.8 5.29.45q.69.6 1.02 1.5.18.38.38.75a31 31 0 0 0 2.11 3.28 41 41 0 0 0 8.21 8.15 52 52 0 0 0 11.34 6.48q3.52 1.46 7.17 2.48c2.09.56 4.2 1.02 6.2 1.33h.15l.14.05q3.27.48 6.6.59 3 .08 5.99-.2c1.79-.19 3.56-.46 5.14-.82l.3-.07h.11q2.13-.54 4.13-1.25 1.76-.66 3.45-1.5 1.5-.8 2.88-1.74.46-.34.88-.68a4.54 4.54 0 0 1 5.7.16 3.4 3.4 0 0 1 1.1 2.1q-.36.66-.8 1.25-.94 1.26-1.96 2.39l-.4.45a41 41 0 0 1-11 4.85 52 52 0 0 1-13.89 1.77h-.45z"/><path fill="#000" d="M230.7 487.89c-2-3.56-6.3-12.2.44-13 2.16 0 4.5 1.66 4.42 4-.5 1.58.62 3.37 1.14 4.67 4.22 5.05-2.66 8.95-6 4.33m73.43 22.41c-2.79-.52-4.6-4.38-1.95-6.21a4.5 4.5 0 0 0 2.34-4.04c-.48-3.06-.34-5.78-2.38-8.1-3.61-2.29-1.14-7.12 2.85-6.03 4 1.77 6.1 5.85 6.88 10.2l.04.5-.02 1.5v.41l-.1 1.63v.07q-.51 2.18-1.22 4.33l.05-.16q-.15.46-.32.87-.06.16-.16.3-.42.7-.9 1.4a29 29 0 0 1-2.61 3.1 4.7 4.7 0 0 1-2.45.14zm-4.61-58.08c-2.32-.34-4.68-.34-6.94-.8-2.68-1.22-2.66-5.19-.55-6.94 1.43-1.24 3.09-.79 4.74-.5 6.01.91 12.23.05 18.08-1.2a95 95 0 0 0 22.59-7.35c2.81-1.33 7.24-4.49 8.75.1 1.14 4.1-2.88 5.57-5.87 6.91-12.72 5.72-26.88 9.8-40.8 9.76z"/><path fill="#000" d="M365.18 511.02c-9.52-1.2-13.81-11.7-11.47-20.25-4.72-8.69-6.5-19.87-2.75-29.2-3.54-7.98-6.85-16.17-10.4-24.08-.8-4.31 5.07-7.35 6.75-2.52 3.47 7.46 6.46 15.18 9.89 22.68 1.93 2.8.54 5.7-.66 8.44-1.75 5.72-.14 12.07 1.63 17.49.37 1 1 1.86 1.6 2.72l-.1-.14c1.68 2.02 1.14 4.6.5 6.9-.5 3.04.05 6.6 2.65 8.55a9 9 0 0 0 4.25 1.5c2.1.02 3.3 2.26 3.1 4.15-.18 2.45-2.52 4.35-4.96 3.74z"/><path fill="#000" d="M365.2 509.48a3.2 3.2 0 0 1 .44-4.44c2.22-2.02 5.42-1.03 8.12-1.82 3.63-.68 7.92-2.45 10.86-3.97 14.61-7.37 30.17-14.13 39.72-27.62 1.9-3.27-.86-6.9-2.84-9.33-2-1.47-5.85-1.45-5.5-4.76.24-2.36 2.7-3.67 4.87-3.54 5.65 1.07 9.57 5.97 11.43 11.1 3.06 12.51-14.5 22.77-23.34 28.75-8.66 4.88-35.09 21.26-43.75 15.63"/><path fill="#000" d="M414.87 457.38c-2.02-5.8-9.44-7.46-14.9-7.03-1.8-.18-3.27.93-5.04.75-3.5-.84-3.34-6.74-7.24-6.87-2.38 2.56-5.37.18-6.03-2.48-1.14-2.54-2.34-5.12-4.06-7.35-2.27 1.41-4.5-.72-5.1-2.85-1.18-2.73-2.8-5.31-3.4-8.21-.62-3.45 3.87-6.4 6.12-3.09.9 1.95 1.4 4.13 2.58 5.99 5.06.4 6.92 6.28 9.1 10.07 4.49-.86 8.23 3.04 10.12 6.35 9.36-1.38 20.82 1.81 24.2 11.55 1.74 4.37-4.34 8.25-6.36 3.13z"/><path fill="#000" d="M371.07 424.11c-2.23-3.74.79-5.9 3.44-7.98a25 25 0 0 0 8.62-11.57c5.04-15.26.46-32.73-1.04-48.1-2.93-18.22-5.4-36.86-8.69-54.87-.97-2.8-.8-7.35 3.04-7.44 1.98.06 3.38 2.13 3.25 4.01 3.13 17.92 5.64 35.72 8.5 53.55 1.95 17 5.94 34.55 2.56 51.56-1.97 7.4-5.98 14.4-12.04 19.1-2.09 1.95-5.24 5.03-7.62 1.72zM186.08 133.13a3 3 0 0 1-.59-.52q.29-1.57.52-3.16.23-1.5.53-3.01l.45-2.23.54-1.86.12-.27q.06-.18.16-.36a49.4 49.4 0 0 1 17-17.85c13.34-8.96 29.6-11.64 44.92-15.42 15.65-3.43 32.32-7.29 48.3-4.5-.26 1.84-.58 3.68-.88 5.54l-.18 1.38a10 10 0 0 0-2.74-.4c-16.56-2.02-32.8 2.33-48.81 5.87-14.56 3.56-29.94 6.71-41.67 16.7a45 45 0 0 0-10.43 13.83c-.37 1-.82 2.02-.89 3.1-.18 2.16-2.31 3.72-4.37 3.72-.69 0-1.39-.15-2-.56z"/><path fill="#000" d="M367.18 263.45c-2.15-3.1-2.54-7.4-3.8-10.97-3.12-10.87-6.2-21.73-9.44-32.53-8.03-25.97-13.36-53.16-23.77-78.3a566 566 0 0 0-12.96-31.12c-4.37-9.11-10.57-18.82-21.52-19.32-4.7-2.56-2.47-9.53 3.22-7.42 19.12 3.84 24.97 25.84 31.96 41.4 11.93 27.33 19.28 56.07 27.1 84.71 4.27 14.4 8.58 28.78 12.61 43.26.57 2.8 2.3 5.46 2.16 8.34-.23 2.77-3.6 4.18-5.56 1.95"/><path fill="#000" d="M394.12 277.66c-7.33-.66-13.86-4.08-19.85-8.12-2.74-1.88-6.48-3.63-7.57-7-1.07-4.11 3.7-6.93 6.1-2.98 5.8 4.29 12.13 8.71 19.32 9.91 1.95.27 4.4.12 5.6 1.95 2.16 3.06-.04 7.49-3.96 6.17l.34.07zm-6.84 26.01c-3.04-.55-6.1-.89-9.12-1.5-1.29-.2-2.6-.46-3.51-1.48-2.68-2.63-.64-8.3 3.4-6.46 3.9 1.3 8.73.34 12.16 2.75 2.5 2.35.9 7.64-2.9 6.66z"/><path fill="#000" d="M394.08 312.74a12.4 12.4 0 0 1-8.3-7.98c-1.38-3.6-.86-10.8 4.58-7.7 1.86 1.35 1.5 3.3 1.75 5.04.4 2.04 3.38 3.7 5.28 3.18.98-.48 1.11-1.59 1.88-2.25 2.48-2.2 5.88.55 5.74 3.45-.3 4.95-6.48 8.53-10.93 6.24zm1.36-35.78c-4.33-1.66-3.45-6.38-.25-8.8 3.42-3.3 8.96-4.59 13.15-2 2.02 1.07 4.24 3.36 4.18 5.76-.05 1.77-1.34 3.95-3.4 3.63-1.3-.16-2.23-.95-2.95-1.97-1.7-1.6-4.09-.66-5.86.34-1.47 1.36-2.5 3.72-4.87 3.06z"/><path fill="#000" d="M407.16 312.43c-4.08-1.34-10.98-4.92-6.8-9.87 1.47-1.4 3.76-.83 4.88.7 5.21 3.66 11.97 2.89 16.91-.76 4.5-3 8.96-9.05 6.42-14.54-1-.8-2.06-1.72-2.29-3.06-.45-2.63 1.05-5.27.23-7.94-.9-6.08-9.05-4.45-12.88-2.27-1.84 1.02-3.95-.63-4.63-2.31-2.09-6.29 6.92-7.22 11.23-7.51 9.6-.73 14.63 9.48 13.17 17.87 10.37 15.22-10.31 36.11-26.24 29.7"/><path fill="#000" d="M407.4 273.62c-1.88-3.97 2.5-8.67 5.79-4.58 1.24 1.72 1.5 5.01-.05 6.23-1.8 2.1-4.94.69-5.74-1.65"/><defs><filter id="crests-mobile-filter0_d_26_6722" width="319.24" height="479.48" x="146" y="66.01" color-interpolation-filters="sRGB" filterUnits="userSpaceOnUse"><feFlood flood-opacity="0" result="BackgroundImageFix"/><feColorMatrix in="SourceAlpha" result="hardAlpha" values="0 0 0 0 0 0 0 0 0 0 0 0 0 0 0 0 0 0 127 0"/><feOffset dx="12" dy="12"/><feComposite in2="hardAlpha" operator="out"/><feColorMatrix values="0 0 0 0 0 0 0 0 0 0 0 0 0 0 0 0 0 0 0.4 0"/><feBlend in2="BackgroundImageFix" result="effect1_dropShadow_26_6722"/><feBlend in="SourceGraphic" in2="effect1_dropShadow_26_6722" result="shape"/></filter></defs></svg>