<svg xmlns="http://www.w3.org/2000/svg" fill="none" viewBox="0 0 600 600"><g filter="url(#crests-onboarding-filter0_d_23_3892)"><mask id="crests-onboarding-path-1-outside-1_23_3892" width="429" height="385" x="78" y="102" fill="#000" maskUnits="userSpaceOnUse"><path fill="#fff" d="M78 102h429v385H78z"/><path d="M355.42 120.48c3.62-1.4 7.56.43 9.8 3.4 3.08 4.27 3.18 9.83 5.27 14.56l.25.4c1.4.26 2.8.76 4.13 1 4.51 1.13 9 2.31 13.23 4.28a96.4 96.4 0 0 1 40.6 31c1.97 2.7 9.7 12.7 11.06 19.05l.15.39q3.16 9.55 6.42 19.06c.58.68.87 1.54.82 2.4l8.14 23.51q3.87 11.29 7.79 22.62 2.53 7.5 5.23 15 .24.47.36 1.02c4.95 2.72 8.91 6.96 12.3 11.43 10.18 14.49 12.32 34.52 3.12 50-1.15 1.77-2.98 5.2-5.1 7.28.46 22.31-14.82 42.7-34.1 52.74a32 32 0 0 1-5.97 2.61l2.84 1.27c5.54 2.45 10.84 5.42 16.37 7.84 1.9.52 3.75 1.88 3.85 4.02q.02.6-.16 1.14.09.33.13.65c.11.8.02 1.63-.26 2.39l.05 1.41.07 3.76c.03 1.3 0 2.61.05 3.92.02 1.2.09 2.38.13 3.5l.03.02-.02.2v.03c-.04.76-.1 1.5-.1 2.26v2.07q-.1.21-.19.45-.15.37-.26.74-.74.27-1.52.46-.45.21-1.01.27h-.1l-5.47 1.45q-5.72 1.52-11.43 2.93-11.58 2.89-23.17 5.75-22.69 5.63-45.42 11.23l-20.46 5.06c-3.18.81-6.4 1.6-9.57 2.43-2.45.62-4.92 1.19-7.35 1.88-.4.14-.83.23-1.16.26-.19 0-.38.04-.57.04q-.32.01-.64-.04l-.03-.03a5 5 0 0 1-2.19-.97c-1-.07-2-.44-2.78-1.07v.02l.19.19.45.31.5.24c-1.33-.64-2.76-1.17-4.14-1.71l-8.31-3.43q-10.35-4.2-20.65-8.45c-14.28-5.82-28.56-11.67-42.86-17.4l-4.81-1.91-1.95.47-6.1 1.5q-5.57 1.36-11.15 2.8-11.47 2.98-22.95 5.9c-15.92 4.03-31.82 8.17-47.71 12.25-2.97.79-5.99 1.48-8.93 2.36l-.26.11a3 3 0 0 1-.58.17h-.02c-.1 0-.19.05-.28.05l-.43.1a5 5 0 0 1-.87.03c-1.1.7-2.66.82-4.3-.16v.02c-11.24-4.72-22.79-8.79-33.86-13.92-2.71-1.56-9.09-2.85-11.65-5.65l-.24-.05v-.07c-1.66-.34-2.63-2.12-2.66-3.71 0-3.02.15-6.01.17-9 0-3.45.05-6.87.05-10.32 0-7.6.05-15.23.02-22.83v-18.15q.01-4.45-.05-8.91c0-1.5 0-3-.1-4.5a5 5 0 0 1 0-1.41c-.29-1.48.07-3.2.48-4.57 1.43-4.94 6.16-7.98 11-8.9q.28-.1.57-.16c-.26-2.48-.38-5.05-.5-7.4a4.3 4.3 0 0 1-.64-2.19q0-.3.03-.62c.02-1.16-.1-2.35-.17-3.51a39 39 0 0 1 0-6.63c.14-1.45.5-2.87.83-4.3q.53-2.28 1.33-4.44a14 14 0 0 1 2.14-4.07c.83-1.06 1.88-1.94 2.85-2.85a49 49 0 0 1 3.97-3.42c1.6-1.19 3.33-2.16 5.04-3.13 1.75-1 3.73-1.67 5.6-2.36q2.51-.9 5.11-1.4c1.9-.36 3.85-.36 5.8-.33 2.09.05 4.13.21 6.15.69 1.9.43 3.76 1.23 5.52 2.04 1.78.83 3.58 1.69 5.25 2.76a29 29 0 0 1 5.15 4.1 23 23 0 0 1 3.92 5.54c1.02 1.95 1.78 4 2.47 6.06q.44 1.4.83 2.83l.16.58c1.43 2.22 1.28 6.05 1.56 8.1q.51-.13 1.03-.24 4.4-1.05 8.79-2.16c7.3-1.83 14.6-3.6 21.9-5.42 3.78-.94 7.54-1.97 11.3-2.96-1.74-14.18 4.78-28.55 15.57-37.76 1.53-1.1 3.71-3.13 5.83-4.16l.72-2.12 1.83-5.11q2.01-5.63 3.99-11.3l8.15-23.25c5.44-15.53 10.93-31.02 16.3-46.59l1.42-4.15c.39-1.11.7-2.37 1.39-3.34.44-.9.87-1.78 1.1-2.6 5.24-12.04 14.87-21.62 25.15-29.5a101 101 0 0 1 30.4-15.33 69 69 0 0 1 11.98-3.05l.12-.61c.5-4.85 2.1-10.05 6.56-12.66a12 12 0 0 1 9.46-.95c.86-.6 1.88-1 2.88-1.17m-216.08 216.4c.05-1.29-1.5-2.05-2.59-1.5-1.3.95-1.16 2.8-1.4 4.18q-.21 1.01-.23 2.05l1.96-.53 2.48-.71a14 14 0 0 0-.22-3.5m205.8-204.73-.12.23c-.97 1.8-.93 5.12-1.6 7.58q.47-1.04.73-2.19c.7-1.78.73-3.74 1-5.62"/></mask><path fill="#fff" d="M355.42 120.48c3.62-1.4 7.56.43 9.8 3.4 3.08 4.27 3.18 9.83 5.27 14.56l.25.4c1.4.26 2.8.76 4.13 1 4.51 1.13 9 2.31 13.23 4.28a96.4 96.4 0 0 1 40.6 31c1.97 2.7 9.7 12.7 11.06 19.05l.15.39q3.16 9.55 6.42 19.06c.58.68.87 1.54.82 2.4l8.14 23.51q3.87 11.29 7.79 22.62 2.53 7.5 5.23 15 .24.47.36 1.02c4.95 2.72 8.91 6.96 12.3 11.43 10.18 14.49 12.32 34.52 3.12 50-1.15 1.77-2.98 5.2-5.1 7.28.46 22.31-14.82 42.7-34.1 52.74a32 32 0 0 1-5.97 2.61l2.84 1.27c5.54 2.45 10.84 5.42 16.37 7.84 1.9.52 3.75 1.88 3.85 4.02q.02.6-.16 1.14.09.33.13.65c.11.8.02 1.63-.26 2.39l.05 1.41.07 3.76c.03 1.3 0 2.61.05 3.92.02 1.2.09 2.38.13 3.5l.03.02-.02.2v.03c-.04.76-.1 1.5-.1 2.26v2.07q-.1.21-.19.45-.15.37-.26.74-.74.27-1.52.46-.45.21-1.01.27h-.1l-5.47 1.45q-5.72 1.52-11.43 2.93-11.58 2.89-23.17 5.75-22.69 5.63-45.42 11.23l-20.46 5.06c-3.18.81-6.4 1.6-9.57 2.43-2.45.62-4.92 1.19-7.35 1.88-.4.14-.83.23-1.16.26-.19 0-.38.04-.57.04q-.32.01-.64-.04l-.03-.03a5 5 0 0 1-2.19-.97c-1-.07-2-.44-2.78-1.07v.02l.19.19.45.31.5.24c-1.33-.64-2.76-1.17-4.14-1.71l-8.31-3.43q-10.35-4.2-20.65-8.45c-14.28-5.82-28.56-11.67-42.86-17.4l-4.81-1.91-1.95.47-6.1 1.5q-5.57 1.36-11.15 2.8-11.47 2.98-22.95 5.9c-15.92 4.03-31.82 8.17-47.71 12.25-2.97.79-5.99 1.48-8.93 2.36l-.26.11a3 3 0 0 1-.58.17h-.02c-.1 0-.19.05-.28.05l-.43.1a5 5 0 0 1-.87.03c-1.1.7-2.66.82-4.3-.16v.02c-11.24-4.72-22.79-8.79-33.86-13.92-2.71-1.56-9.09-2.85-11.65-5.65l-.24-.05v-.07c-1.66-.34-2.63-2.12-2.66-3.71 0-3.02.15-6.01.17-9 0-3.45.05-6.87.05-10.32 0-7.6.05-15.23.02-22.83v-18.15q.01-4.45-.05-8.91c0-1.5 0-3-.1-4.5a5 5 0 0 1 0-1.41c-.29-1.48.07-3.2.48-4.57 1.43-4.94 6.16-7.98 11-8.9q.28-.1.57-.16c-.26-2.48-.38-5.05-.5-7.4a4.3 4.3 0 0 1-.64-2.19q0-.3.03-.62c.02-1.16-.1-2.35-.17-3.51a39 39 0 0 1 0-6.63c.14-1.45.5-2.87.83-4.3q.53-2.28 1.33-4.44a14 14 0 0 1 2.14-4.07c.83-1.06 1.88-1.94 2.85-2.85a49 49 0 0 1 3.97-3.42c1.6-1.19 3.33-2.16 5.04-3.13 1.75-1 3.73-1.67 5.6-2.36q2.51-.9 5.11-1.4c1.9-.36 3.85-.36 5.8-.33 2.09.05 4.13.21 6.15.69 1.9.43 3.76 1.23 5.52 2.04 1.78.83 3.58 1.69 5.25 2.76a29 29 0 0 1 5.15 4.1 23 23 0 0 1 3.92 5.54c1.02 1.95 1.78 4 2.47 6.06q.44 1.4.83 2.83l.16.58c1.43 2.22 1.28 6.05 1.56 8.1q.51-.13 1.03-.24 4.4-1.05 8.79-2.16c7.3-1.83 14.6-3.6 21.9-5.42 3.78-.94 7.54-1.97 11.3-2.96-1.74-14.18 4.78-28.55 15.57-37.76 1.53-1.1 3.71-3.13 5.83-4.16l.72-2.12 1.83-5.11q2.01-5.63 3.99-11.3l8.15-23.25c5.44-15.53 10.93-31.02 16.3-46.59l1.42-4.15c.39-1.11.7-2.37 1.39-3.34.44-.9.87-1.78 1.1-2.6 5.24-12.04 14.87-21.62 25.15-29.5a101 101 0 0 1 30.4-15.33 69 69 0 0 1 11.98-3.05l.12-.61c.5-4.85 2.1-10.05 6.56-12.66a12 12 0 0 1 9.46-.95c.86-.6 1.88-1 2.88-1.17m-216.08 216.4c.05-1.29-1.5-2.05-2.59-1.5-1.3.95-1.16 2.8-1.4 4.18q-.21 1.01-.23 2.05l1.96-.53 2.48-.71a14 14 0 0 0-.22-3.5m205.8-204.73-.12.23c-.97 1.8-.93 5.12-1.6 7.58q.47-1.04.73-2.19c.7-1.78.73-3.74 1-5.62"/><path fill="#fff" d="m355.42 120.48 2.75 16.78q1.75-.3 3.4-.93zm9.8 3.4 13.77-9.96-.19-.26zm5.27 14.56-15.55 6.88q.4.88.88 1.72zm.25.4-14.46 8.94a17 17 0 0 0 11.48 7.8zm4.13 1 4.08-16.5-.94-.2zm13.23 4.28-7.18 15.41.9.39zm40.6 31 13.73-10.02-.24-.33zm11.06 19.05-16.63 3.55a17 17 0 0 0 1.23 3.67zm.15.39 16.15-5.31-.04-.14zm6.42 19.06-16.08 5.51a17 17 0 0 0 3.19 5.58zm.82 2.4-16.98-.86c-.1 2.17.2 4.33.9 6.38zm8.14 23.51 16.07-5.53v-.02zm7.79 22.62 16.08-5.51-.02-.05zm5.23 15-15.99 5.78q.36.97.82 1.9zm.36 1.02-16.58 3.74a17 17 0 0 0 8.39 11.15zm12.3 11.43 13.92-9.77-.38-.52zm3.12 50 14.2 9.34q.23-.32.42-.65zm-5.1 7.28-11.9-12.15a17 17 0 0 0-5.1 12.5zm-34.1 52.74-7.86-15.08-.64.35zm-5.97 2.61-5.35-16.14a17 17 0 0 0-1.6 31.65zm2.84 1.27 6.87-15.55h-.01zm16.37 7.84-6.82 15.57q1.12.5 2.31.82zm3.85 4.02-16.98.75v.2zm-.16 1.14-16.05-5.6a17 17 0 0 0-.32 10.19zm.13.65-16.85 2.23.02.13zm-.26 2.39-15.92-5.97a17 17 0 0 0-1.07 6.55zm.05 1.41 17-.32v-.2zm.07 3.76 17-.31v-.01zm.05 3.92 17-.32v-.3zm.13 3.5-16.98.72a17 17 0 0 0 7.86 13.63zm.03.02 16.94 1.45a17 17 0 0 0-9.34-16.66zm-.02.2-16.94-1.37q-.09 1.02-.04 2.06zm0 .03 16.97 1.06q.06-.87.02-1.74zm-.1 3.26 16.6 3.69q.4-1.82.4-3.7zm0 .03-16.57-3.8a17 17 0 0 0-.43 3.8zm0 1.04 15.2 7.6a17 17 0 0 0 1.8-7.6zm-.19.45-15.62-6.7-.16.39zm-.26.74 6.16 15.84a17 17 0 0 0 10.12-10.96zm-1.52.46-4.12-16.5q-1.54.39-3 1.06zm-1.01.27v17q.83 0 1.66-.08zm-.1 0v-17a17 17 0 0 0-4.33.56zm0 0 4.27 16.46.07-.02zm-5.47 1.45-4.28-16.45-.13.04zm-11.43 2.93 4.11 16.5.01-.01zm-23.17 5.75-4.06-16.51h-.03zm-45.42 11.23-4.06-16.5h-.03zm-20.46 5.06-4.08-16.5-.1.03zm-9.57 2.43 4.16 16.48.13-.03zm-7.35 1.88L331.32 453q-.51.15-1.01.32zm-1.16.26v17q.6 0 1.21-.05zm-.57.04v17zm-.64-.04-11.77 12.26a17 17 0 0 0 8.08 4.33zm-.03-.03 11.78-12.26a17 17 0 0 0-8.95-4.5zm-2.19-.97 10.58-13.3a17 17 0 0 0-9.27-3.65zm-2.78-1.07 10.7-13.2a17 17 0 0 0-27.7 13.2zm0 .02h-17a17 17 0 0 0 4.97 12.01zm.19.19-12.02 12.02q1.19 1.2 2.59 2.13zm.45.31-9.43 14.14a17 17 0 0 0 2.73 1.48zm.5.24-6.7 15.62A17 17 0 0 0 337.1 453zm-4.14-1.71-6.45 15.72.19.08zm-8.31-3.43 6.45-15.72-.05-.02zm-20.65-8.45L303.1 439l-.05-.02zm-42.86-17.4 6.32-15.78zm-4.81-1.91 6.3-15.8a17 17 0 0 0-10.33-.72zm-1.95.47-3.82-16.56-.22.05zm-6.1 1.5 4.01 16.51h.01zm-11.15 2.8-4.2-16.47-.1.02zm-22.95 5.9 4.18 16.47h.01zm-47.71 12.25-4.23-16.46q-.06 0-.11.03zm-8.93 2.36-4.87-16.3a17 17 0 0 0-2.73 1.09zm-.26.11 5.96 15.92q.84-.31 1.64-.71zm-.58.17v17q1.07 0 2.11-.13zm-.3.05-.02-17q-1.4 0-2.78.23zm-.43.1 2.1 16.86q1.3-.15 2.57-.52zm-.6.04v17zm-.27 0 .99-16.98a17 17 0 0 0-10.1 2.62zm-4.3-.17 8.67-14.62A17 17 0 0 0 126.42 461zm0 .02-6.6 15.67a17 17 0 0 0 23.6-15.67zm-33.86-13.92-8.5 14.72q.65.4 1.35.7zm-11.65-5.65 12.56-11.46a17 17 0 0 0-10.25-5.39zm-.24-.05h-17a17 17 0 0 0 12.12 16.28zm0-.07h17a17 17 0 0 0-13.66-16.67zm-2.66-3.71h-17v.25zm.17-9 17 .13v-.13zm.05-10.32h17zm.02-22.83h-17v.06zm0-18.15h-17zm-.05-8.91h-17v.27zm-.1-4.5 16.98-1.07q-.05-.86-.2-1.71zm0-1.41 16.8 2.64a17 17 0 0 0-.12-5.98zm.48-4.57 16.3 4.86q0-.08.04-.14zm11-8.9 3.2 16.7q1-.2 1.97-.51zm.57-.16 3.55 16.63a17 17 0 0 0 13.36-18.43zm-.5-7.4 16.98-.88a17 17 0 0 0-2.43-7.9zm-.64-2.19h-17zm.03-.62 16.9 1.88a17 17 0 0 0 .1-1.53zm-.17-3.51 16.97-1.04-.02-.24zm0-6.63-16.92-1.66v.02zm.83-4.3-16.55-3.88v.02zm1.33-4.44 15.91 6 .08-.24zm2.14-4.07 13.38 10.5.04-.06zm2.85-2.85 11.56 12.47.11-.1zm3.97-3.42-10.17-13.62-.14.1zm5.04-3.13-8.4-14.79-.02.01zm5.6-2.36-5.71-16-.14.04zm5.11-1.4-3.13-16.7h-.07zm5.8-.33.39-17h-.18zm6.15.69-3.9 16.55q.1 0 .17.03zm5.52 2.04 7.18-15.4-.09-.05zm5.25 2.76-9.2 14.3h.02zm5.15 4.1-12.2 11.84.18.19zm3.92 5.54 15.06-7.9-.03-.05zm2.47 6.06 16.25-5-.12-.37zm.83 2.83 16.42-4.4q0-.06-.03-.1zm.16.58-16.38 4.54a17 17 0 0 0 2.06 4.62zm1.56 8.1-16.84 2.33a17 17 0 0 0 20.83 14.2zm1.03-.24 3.68 16.6.19-.05zm8.79-2.16-4.14-16.5-.02.01zm21.9-5.42-4.08-16.5-.05.01zm11.3-2.96 4.35 16.43a17 17 0 0 0 12.52-18.5zm15.57-37.76-9.92-13.8q-.57.4-1.12.87zm5.83-4.16 7.43 15.3a17 17 0 0 0 8.55-9.51zm.72-2.12-16.04-5.65-.05.16zm1.83-5.11 15.99 5.77zm3.99-11.3 16.03 5.64.02-.04zm8.15-23.25-16.05-5.61zm16.3-46.59 16.07 5.55zm1.42-4.15-16.05-5.59-.05.13zm1.39-3.34 13.83 9.88q.81-1.14 1.43-2.4zm1.1-2.6-15.6-6.79q-.48 1.13-.8 2.31zm25.15-29.5-10.04-13.72-.3.22zm30.4-15.33 4.9 16.27.95-.31zm11.98-3.05 2.91 16.75a17 17 0 0 0 13.71-13.19zm.12-.61 16.8 2.65.11-.9zm6.56-12.66 8.58 14.67.2-.12zm9.46-.95-5.5 16.08a17 17 0 0 0 15.19-2.11zm-213.2 215.23-16.98-.63a17 17 0 0 0 .43 4.5zm-2.59-1.5-7.6-15.2q-1.26.62-2.4 1.45zm-1.4 4.18 16.6 3.71.15-.82zm-.23 2.05-17-.5a17 17 0 0 0 21.38 16.92zm1.96-.53 4.42 16.42.2-.06zm2.48-.71 4.71 16.33a17 17 0 0 0 12.29-15.98zm205.58-208.22 16.84 2.39a17 17 0 0 0-31.9-10.29zm-.12.23 14.95 8.1q.26-.48.5-.98zm-1.6 7.58L327 135.57a17 17 0 0 0 32.02 11.17zm.73-2.19-15.84-6.17q-.48 1.22-.76 2.5zm11.27-17.29 6.16 15.85a9.6 9.6 0 0 1-6.8.1 7 7 0 0 1-3.15-2.34l13.58-10.21 13.59-10.22c-5.26-7-16.68-14.02-29.53-9.03zm9.8 3.4-13.79 9.95c-.38-.54-.22-.66.37 1.54.14.53.7 2.77 1.05 4 .45 1.62 1.1 3.72 2.09 5.95l15.55-6.88 15.55-6.87c-.34-.77-.4-1.27-1.39-4.96-.75-2.83-2.18-7.87-5.65-12.69zm5.27 14.56-14.67 8.6.36.59.08.13.02.02 14.46-8.93 14.46-8.94-.06-.1-.05-.07-.02-.03-.01-.02-.01-.03.02.04.08.14zm.25.4-2.99 16.74c-.14-.02-.14-.03.63.18l1.32.34q.81.22 2.03.46l3.14-16.71 3.14-16.7c.14.02.16.03-.73-.21-.62-.17-2.01-.55-3.56-.83zm4.13 1-4.08 16.51c4.52 1.12 7.56 1.98 10.13 3.18l7.18-15.4 7.19-15.41c-5.89-2.75-11.84-4.26-16.34-5.37zm13.23 4.28-6.29 15.8a79.4 79.4 0 0 1 33.42 25.57l13.48-10.36 13.48-10.36a113.4 113.4 0 0 0-47.8-36.44zm40.6 31-13.72 10.04c1.23 1.68 3.2 4.25 5.2 7.35a45 45 0 0 1 2.38 4.05c.66 1.3.67 1.63.57 1.16l16.63-3.55 16.62-3.54c-1.4-6.55-5.31-12.98-7.64-16.58-2.7-4.17-5.57-7.94-6.3-8.95zm11.06 19.05-15.4 7.22c-.1-.23-.33-.72-.55-1.39l16.1-5.44 16.1-5.45c-.3-.93-.64-1.67-.86-2.16zm.15.39-16.15 5.3q3.2 9.7 6.49 19.27l16.08-5.5 16.08-5.52a1573 1573 0 0 1-6.35-18.86zm6.42 19.06-12.9 11.09a13.6 13.6 0 0 1-3.26-9.55l16.98.86 16.98.85a20.4 20.4 0 0 0-4.9-14.33zm.82 2.4-16.07 5.52c2.7 7.85 5.45 15.77 8.14 23.54l16.06-5.55 16.07-5.55c-2.73-7.91-5.43-15.66-8.12-23.49zm8.14 23.51-16.08 5.53 7.8 22.65 16.07-5.56 16.06-5.56-7.78-22.59zm7.79 22.62L447 267.66c1.7 4.95 3.45 10.11 5.32 15.27l15.99-5.79 15.98-5.78c-1.75-4.83-3.4-9.69-5.13-14.72zm5.23 15-15.17 7.68a13 13 0 0 1-1.05-2.92l16.58-3.74 16.58-3.75a21 21 0 0 0-1.78-4.97zm.36 1.02-8.2 14.9c1.9 1.04 4.15 3.1 6.97 6.81l13.54-10.28 13.53-10.29c-3.97-5.23-9.65-11.64-17.65-16.04zm12.3 11.43-13.9 9.76c6.9 9.85 7.7 22.66 2.4 31.57l14.62 8.68 14.62 8.68c13.1-22.07 9.6-49.33-3.81-68.46zm3.12 50-14.2-9.33c-.49.74-1 1.58-1.3 2.08-.37.6-.66 1.08-.96 1.54q-.43.66-.65.94c-.15.2-.12.13.12-.1l11.88 12.15 11.9 12.15a39 39 0 0 0 5.3-6.66 100 100 0 0 0 2.12-3.43zm-5.1 7.28-17 .36c.3 14.34-9.94 29.48-24.96 37.3l7.86 15.08 7.85 15.07c23.55-12.26 43.87-37.89 43.24-68.16zm-34.1 52.74-8.5-14.73c-.65.38-1.54.78-2.82 1.2l5.35 16.14 5.34 16.14a48 48 0 0 0 9.12-4.03zm-5.97 2.61-6.96 15.51 2.94 1.31 6.86-15.55 6.86-15.56-2.75-1.22zm2.84 1.27-6.87 15.55a161 161 0 0 1 7.47 3.6c2.65 1.32 5.73 2.85 8.95 4.26l6.82-15.57 6.82-15.57a165 165 0 0 1-7.41-3.55c-2.64-1.32-5.71-2.86-8.9-4.27zm16.37 7.84-4.5 16.4c-1.12-.31-2.83-1-4.55-2.62a13.2 13.2 0 0 1-4.08-9l16.98-.76 16.98-.76c-.58-13.08-11.51-18.33-16.32-19.65zm3.85 4.02-16.97.96c-.11-1.9.18-3.75.76-5.42l16.05 5.6 16.05 5.6a20 20 0 0 0 1.08-7.7zm-.16 1.14-16.37 4.59q-.22-.76-.35-1.7l16.85-2.24 16.86-2.22a22 22 0 0 0-.62-3.01zm.13.65-16.83 2.36a12 12 0 0 1 .65-5.94l15.92 5.97 15.92 5.97c1.27-3.4 1.68-7.1 1.18-10.71zm-.26 2.39-17 .58c.05 1.34.03.44.06 1.37l17-.54 16.98-.53q0-.51-.03-.88l-.02-.58zm.05 1.41-17 .32.04 1.88.04 1.88 17-.32 17-.32-.05-1.88q0-.94-.03-1.88zm.07 3.76-17 .3c.01.27.02 2.95.06 4.24l17-.62 16.98-.62c-.05-1.33 0-1.26-.04-3.61zm.05 3.92-17 .31c.03 1.46.11 3.01.15 3.9l16.98-.7 16.99-.72c-.06-1.34-.1-2.18-.12-3.1zm.13 3.5-9.12 14.35-.36-.24.12.08c.17.12.85.57 1.79 1.03l7.6-15.2 7.6-15.2a17 17 0 0 1 1.77 1.01l.1.07-.38-.24zm.03.02-16.94-1.45-.02.28 16.94 1.37 16.95 1.38v-.13zm-.02.2-16.98.69v.25l.02.18v.14-.13l-.01-.17-.01-.25 16.99-.68 16.98-.68-.01-.25-.01-.18v-.11l-.01-.03v-.01.13l.02.17v.25zm0 .03-16.96-1.06c-.04.63-.13 1.93-.13 3.32h34v-.31l.06-.89zm-.1 2.26h-17v1h34v-1zm0 1-16.59-3.7.06-.25.05-.19.03-.11.01-.05v.03l-.03.1-.04.16-.06.24 16.57 3.8 16.57 3.8-.1.4-.02.08v.02l.01-.06.03-.12.11-.46zm0 .03h-17v1.04h34v-1.04zm0 1.04-15.2-7.6a19 19 0 0 0-.74 1.65l.13-.3 15.62 6.7 15.63 6.7.22-.54.04-.12-.14.34-.35.77zm-.19.45-15.78-6.31c-.21.52-.5 1.29-.76 2.16l16.28 4.89 16.28 4.88-.15.48-.08.22zm-.26.74-6.16-15.85c.32-.12.55-.19.61-.2q.12-.05-.09.01l4.12 16.5 4.12 16.49a29 29 0 0 0 3.56-1.1zm-1.52.46-7.11-15.44a14 14 0 0 1 4.43-1.2l1.67 16.91 1.66 16.92c2.33-.23 4.5-.85 6.47-1.75zm-1.01.27v-17h-.1v34h.1zm-.1 0-4.33-16.44.14-.03.1-.03.06-.01h.01-.02l-.06.01-.26.07zl4.35 16.44-.14.04-.1.02-.07.02h-.01.01l.07-.02.1-.02.14-.04zm0 0-4.28-16.45-2.86.76-2.6.69 4.27 16.45 4.27 16.46 2.86-.76 2.6-.7zm-5.47 1.45-4.42-16.41c-3.62.97-7.29 1.88-11.13 2.84l4.12 16.5 4.12 16.49c3.76-.94 7.74-1.93 11.72-3zm-11.43 2.93-4.11-16.5q-11.59 2.9-23.12 5.74l4.06 16.5 4.07 16.51q11.63-2.86 23.21-5.76zm-23.17 5.75-4.09-16.5q-22.7 5.63-45.4 11.23l4.07 16.5 4.06 16.51q22.76-5.61 45.46-11.25zm-45.42 11.23-4.09-16.5-20.45 5.06 4.08 16.5 4.08 16.5 20.46-5.05zm-20.46 5.06-4.18-16.47c-2.97.75-6.45 1.6-9.7 2.45l4.3 16.45 4.3 16.45c3.13-.82 6.07-1.54 9.46-2.4zm-9.57 2.43-4.17-16.49c-1.99.5-5.08 1.23-7.82 2.01l4.64 16.36 4.65 16.35c2.1-.6 3.95-1.02 6.86-1.75zm-7.35 1.88-5.65-16.04a12 12 0 0 1 3.28-.66l1.21 16.96 1.21 16.95c2.16-.15 4.1-.65 5.61-1.18zm-1.16.26v-17a19 19 0 0 0-2.35.15l.32-.04q.46-.06 1.45-.07l.01 17v17a19 19 0 0 0 2.2-.13l.2-.02h-.05a15 15 0 0 1-1.78.1zm-.57.04v-17l.64.02c.5.03 1.36.1 2.4.34l-3.68 16.6-3.69 16.6c1.26.27 2.34.37 3.05.41.66.04 1.24.03 1.28.03zm-.64-.04 11.77-12.27-.02-.02-11.78 12.26-11.77 12.27.03.02zm-.03-.03 2.83-16.76c1.93.32 3.85 1.12 5.56 2.48l-10.58 13.31-10.58 13.31a22 22 0 0 0 9.95 4.43zm-2.19-.97 1.31-16.95c2.09.16 4.46.92 6.61 2.67l-10.7 13.2-10.7 13.21a22 22 0 0 0 12.17 4.82zm-2.78-1.07h-17v.02h34v-.02zm0 .02-12.03 12.01.03.03.05.05.12.12 12.02-12.02 12.02-12.02-.12-.12-.05-.05-.01-.01zm.19.19-9.43 14.14-.06-.04-.03-.01h.02q0 .02.04.04l.17.12.3.2 9.44-14.14 9.43-14.14.06.04.02.01h-.01l-.04-.04-.18-.12-.3-.2zm.45.31-6.7 15.62q-.4-.16-.55-.25l-.1-.04a18 18 0 0 0 1.15.53l6.7-15.62 6.7-15.63.55.25.09.05-1.14-.53zm.5.24 7.38-15.32c-2.06-.99-4.45-1.88-5.25-2.2l-6.27 15.8-6.26 15.8c1.95.78 2.41.94 3.01 1.23zm-4.14-1.71 6.46-15.73-4.14-1.7-4.18-1.72-6.45 15.73-6.45 15.72 8.31 3.42zm-8.31-3.43 6.4-15.74L303.1 439l-6.47 15.72-6.47 15.72q10.33 4.25 20.71 8.48zm-20.65-8.45 6.42-15.75c-14.25-5.8-28.6-11.68-42.96-17.43l-6.32 15.79-6.32 15.78c14.24 5.7 28.45 11.51 42.76 17.35zm-42.86-17.4 6.31-15.78-4.82-1.92-6.3 15.79-6.3 15.79 4.8 1.91zm-4.81-1.91-4.03-16.52-1.74.43 3.82 16.56 3.82 16.56 2.16-.51zm-1.95.47-4.03-16.51-3.08.75-3.03.74 4.03 16.52 4.03 16.51 3.08-.75 3.03-.75zm-6.1 1.5-4.03-16.52c-3.82.93-7.63 1.9-11.32 2.85l4.2 16.47 4.2 16.47c3.77-.96 7.37-1.88 10.97-2.75zm-11.15 2.8-4.3-16.45q-11.37 2.96-22.85 5.87l4.2 16.47 4.2 16.48q11.46-2.9 23.04-5.92zm-22.95 5.9-4.18-16.48c-15.95 4.04-31.93 8.2-47.76 12.27l4.23 16.46 4.23 16.47c15.96-4.1 31.77-8.22 47.66-12.25zm-47.71 12.25-4.34-16.43c-2.18.57-6.22 1.53-9.46 2.5l4.87 16.29 4.86 16.29c2.65-.8 4.65-1.22 8.4-2.21zm-8.93 2.36-7.6-15.21.6-.29.16-.07.03-.01-.1.04-.96.45 7.6 15.2 7.6 15.21-.76.35-.03.02.1-.04a11 11 0 0 0 .95-.45zm-.26.11-5.97-15.91a15 15 0 0 1 3.29-.79l2.1 16.87 2.11 16.87a19 19 0 0 0 4.43-1.12zm-.58.17v-17h-.01v34h.01zm-.02 0v-17a18 18 0 0 0-4 .47l-.2.05-.09.02.05-.01.87-.2a17 17 0 0 1 3.07-.28l.02 17 .01 17a17 17 0 0 0 4.2-.52l.07-.02-.04.01-.17.04a17 17 0 0 1-3.79.44zm-.28.05-2.8-16.77c-.56.1-1.34.24-2.3.52l4.67 16.34 4.67 16.35a14 14 0 0 1-1.45.33zm-.43.1-2.11-16.88.27-.02q.42-.05 1.24-.06v34c1.43 0 2.63-.17 2.7-.18zm-.6.04v-17l.72.02-1 16.97-.98 16.97q.5.03 1.27.04zm-.27 0-9.1-14.37a13.4 13.4 0 0 1 7.27-2.1c2.57.03 4.7.79 6.2 1.68L143.41 461l-8.67 14.62c6.64 3.94 15.1 4.33 22.08-.1zm-4.3-.17h-17v.02h34V461zm0 .02 6.59-15.66c-12.75-5.37-22.34-8.6-33.3-13.68l-7.15 15.42-7.15 15.43c11.18 5.18 24.69 10.07 34.41 14.16zm-33.86-13.92 8.5-14.72a29 29 0 0 0-2.9-1.45c-.8-.35-1.58-.65-2.2-.88l-1.78-.66a78 78 0 0 1-2.34-.9l-.21-.08.36.24c.3.22.85.65 1.48 1.34l-12.56 11.46-12.56 11.45a26 26 0 0 0 7.01 5.36 45 45 0 0 0 5.21 2.35l3.39 1.25c.99.37.73.33.1-.04zm-11.65-5.65 2.31-16.85c.3.05 1.2.18 2.34.51l-4.89 16.29-4.88 16.28c1.3.39 2.36.55 2.82.6zm-.24-.05h17v-.07h-34v.07zm0-.07 3.34-16.67c4.55.9 7.44 3.7 8.9 5.9a12.5 12.5 0 0 1 2.1 6.8l-17 .26-17 .25c.1 6.2 3.9 17.64 16.33 20.13zm-2.66-3.71h17c0-1.27.03-2.57.07-4.07.04-1.44.09-3.12.1-4.8l-17-.13-17-.14c-.01 1.31-.05 2.63-.09 4.2-.03 1.49-.08 3.19-.08 4.94zm.17-9h17l.02-5.04.03-5.28h-34l-.03 5.04-.02 5.28zm.05-10.32h17c0-7.42.05-15.28.02-22.88l-17 .05-17 .06c.03 7.6-.02 15-.02 22.77zm.02-22.83h17v-18.15h-34v18.15zm0-18.15h17c0-2.95 0-6.05-.05-9.18l-17 .27-17 .27c.05 2.81.05 5.65.05 8.64zm-.05-8.91h17c0-1.4.01-3.44-.12-5.57l-16.97 1.08-16.97 1.08c.06.86.06 1.82.06 3.41zm-.1-4.5 16.78-2.78c.24 1.44.21 2.8.02 4.01l-16.8-2.64-16.78-2.65c-.35 2.18-.37 4.5.02 6.86zm0-1.41 16.68-3.34c.34 1.7.2 2.9.15 3.25-.05.4-.11.56-.06.38l-16.29-4.86-16.3-4.85c-.52 1.78-2 6.94-.84 12.76zm.48-4.57 16.34 4.71a5.6 5.6 0 0 1-1.84 2.87c-.37.28-.48.24-.3.21l-3.2-16.7-3.2-16.7c-8.61 1.65-20.32 7.69-24.13 20.9zm11-8.9 5.17 16.19q-.72.21-1.05.28l-3.55-16.63-3.54-16.62q-.91.18-2.2.58zm.57-.16 16.9-1.8c-.2-1.91-.29-3.93-.42-6.48l-16.98.88-16.98.88c.12 2.14.25 5.27.58 8.32zm-.5-7.4 14.55-8.79a13 13 0 0 1 1.81 6.6h-34c0 4.28 1.31 8.04 3.09 10.98zm-.64-2.19h17v.18q0 .38-.08 1.08l-16.9-1.87-16.89-1.88c-.14 1.3-.13 2.4-.13 2.5zm.03-.62 17 .35c.04-2.09-.18-4.63-.2-4.9l-16.97 1.04-16.97 1.04.07 1.03.05.71.02.39zm-.17-3.51 16.95-1.28c-.12-1.63-.12-2.8-.03-3.71l-16.92-1.64-16.92-1.64a55 55 0 0 0-.03 9.54zm0-6.63 16.92 1.66.07-.36.16-.7.24-1.04-16.56-3.86-16.55-3.86c-.23.95-.92 3.67-1.2 6.5zm.83-4.3 16.55 3.88c.23-.96.45-1.7.69-2.33l-15.9-6-15.91-6a52 52 0 0 0-1.98 6.57zm1.33-4.44 16 5.76q.12-.3.04-.12c-.06.11-.22.4-.52.78l-13.38-10.49-13.37-10.49a31 31 0 0 0-4.76 8.79zm2.14-4.07 13.42 10.44c-.3.38-.48.53-.3.36l.45-.4.84-.78-11.56-12.47-11.55-12.47c-.14.13-2.78 2.4-4.72 4.89zm2.85-2.85 11.67 12.36c1.06-1 1.86-1.7 2.61-2.26l-10.31-13.52-10.31-13.52a66 66 0 0 0-5.33 4.58zm3.97-3.42 10.17 13.63c.58-.44 1.32-.88 3.28-2l-8.41-14.76-8.42-14.78c-1.46.84-4.19 2.35-6.79 4.29zm5.04-3.13 8.39 14.78c-.05.03.1-.06.66-.28q.38-.16 1-.38l.65-.24.76-.28-5.86-15.96-5.85-15.96c-1.2.44-4.85 1.66-8.14 3.53zm5.6-2.36 5.72 16.01q1.34-.48 2.6-.71l-3.2-16.7-3.21-16.7q-3.97.77-7.62 2.1zm5.11-1.4 3.13 16.71.48-.03c.46-.02 1.03-.02 1.98-.01l.21-17 .2-17c-1.85-.02-5.37-.08-9.13.62zm5.8-.33-.39 17c1.49.03 2.23.14 2.65.24l3.9-16.55 3.89-16.55a46 46 0 0 0-9.66-1.14zm6.15.69-3.73 16.58c-.1-.02 0 0 .4.15.42.16.94.39 1.75.76l7.1-15.45 7.1-15.45a45 45 0 0 0-8.88-3.18zm5.52 2.04-7.2 15.4c1.88.88 2.69 1.3 3.25 1.66l9.2-14.3 9.19-14.3a58 58 0 0 0-7.26-3.86zm5.25 2.76-9.18 14.3a13 13 0 0 1 2.13 1.64l12.2-11.83 12.2-11.84a46 46 0 0 0-8.18-6.59zm5.15 4.1-12.02 12.03c-.02-.02.29.28.92 1.47l15.02-7.96 15.03-7.95a40 40 0 0 0-6.93-9.6zm3.92 5.54-15.05 7.9c.39.74.8 1.77 1.4 3.54L167 323.4l16.13-5.37a57 57 0 0 0-3.54-8.58zm2.47 6.06-16.25 5q.4 1.28.7 2.34l16.38-4.51 16.4-4.5q-.5-1.81-.98-3.33zm.83 2.83-16.42 4.4.2.72 16.38-4.54 16.38-4.55-.12-.44zm.16.58-14.32 9.16a11 11 0 0 1-1.28-2.8c-.1-.39-.1-.53-.07-.25l.11 1.37.1 1.21c.03.45.09 1.06.18 1.74l16.84-2.33 16.84-2.34c.03.18.02.19-.04-.68-.05-.63-.12-1.76-.27-2.97-.14-1.2-.39-2.85-.87-4.65a24 24 0 0 0-2.9-6.62zm1.56 8.1 3.99 16.52.72-.17-3.68-16.6-3.7-16.59q-.71.15-1.3.31zm1.03-.24 3.87 16.55c3.11-.73 6.17-1.5 9.07-2.23l-4.15-16.48-4.16-16.49c-2.94.74-5.72 1.44-8.5 2.1zm8.79-2.16L183.5 349l10.87-2.7 11.04-2.72-4.14-16.5-4.13-16.48-10.87 2.69q-5.48 1.34-11.04 2.73zm21.9-5.42 4.08 16.5c3.96-.98 8.01-2.09 11.57-3.03l-4.35-16.43-4.35-16.44c-3.96 1.05-7.43 2-11.03 2.9zm11.3-2.96 16.87-2.06c-.95-7.78 2.69-16.75 9.75-22.78l-11.05-12.92-11.04-12.93c-14.53 12.41-23.92 32.18-21.4 52.75zm15.57-37.76 9.93 13.8c.76-.55 1.48-1.12 1.93-1.48l1.22-.97.61-.45c.1-.07-.06.05-.43.23l-7.43-15.29-7.44-15.28a35 35 0 0 0-6.08 3.88 46 46 0 0 0-1.64 1.3l-.47.36-.12.1zm5.83-4.16 15.98 5.79.83-2.42-16.1-5.5-16.08-5.48c-.43 1.24-.41 1.26-.62 1.83zm.72-2.12 16.03 5.65 1.79-4.99-16-5.77-15.98-5.77c-.62 1.7-1.26 3.47-1.88 5.23zm1.83-5.11 15.99 5.77c1.38-3.83 2.75-7.78 4.03-11.43l-16.03-5.65-16.04-5.65c-1.37 3.9-2.62 7.52-3.94 11.2zm3.99-11.3 16.05 5.6q2.01-5.79 4.06-11.6t4.08-11.63l-16.04-5.62-16.05-5.6-8.15 23.23zm8.15-23.25 16.04 5.62c5.42-15.45 10.94-31.05 16.33-46.66l-16.07-5.55-16.07-5.54c-5.36 15.51-10.8 30.9-16.28 46.52zm16.3-46.59 16.07 5.55 1.45-4.25-16.1-5.45-16.1-5.46-1.4 4.07zm1.42-4.15 16.06 5.58.24-.7.15-.47.08-.25a12 12 0 0 1-1.3 2.38l-13.84-9.88-13.84-9.87a24 24 0 0 0-2.92 5.6l-.51 1.49-.17.53zm1.39-3.34 15.26 7.48c.26-.52 1.5-2.93 2.23-5.6l-16.4-4.48-16.4-4.48q.16-.57.27-.82l.1-.25-.08.17-.25.5zm1.1-2.6 15.58 6.8c3.58-8.22 10.6-15.67 19.92-22.81l-10.35-13.5-10.34-13.49c-11.25 8.63-23.48 20.33-30.4 36.21zm25.15-29.5 10.04 13.71a84 84 0 0 1 25.27-12.77l-4.92-16.27-4.92-16.27a118 118 0 0 0-35.5 17.88zm30.4-15.33 5.85 15.96a52 52 0 0 1 9.04-2.26l-2.91-16.75-2.91-16.75c-4.58.8-9.72 1.92-14.94 3.84zm11.98-3.05 16.62 3.56c.05-.21.19-.85.3-1.52l-16.8-2.65-16.8-2.65.06-.29.02-.1-.02.09zm.12-.61 16.91 1.74q.1-.93.23-1.44c.09-.36.14-.47.12-.41s-.18.38-.54.8c-.38.46-.92.93-1.58 1.32l-8.58-14.67-8.59-14.67c-11.84 6.93-14.25 19.5-14.88 25.59zm6.56-12.66 8.78 14.55c-1.22.74-2.1.88-2.46.91-.38.04-1.18.07-2.36-.33l5.5-16.08 5.5-16.09a29 29 0 0 0-23.74 2.48zm9.46-.95 9.69 13.97a10 10 0 0 1-4.06 1.64l-2.75-16.78-2.75-16.78a24 24 0 0 0-9.81 3.97zm-213.2 215.23 17 .63a18.6 18.6 0 0 0-9.72-16.99 18.9 18.9 0 0 0-17.47-.35l7.6 15.2 7.6 15.21a15.1 15.1 0 0 1-14.02-.22 15.4 15.4 0 0 1-7.98-14.11zm-2.59-1.5-10-13.75a20 20 0 0 0-7.74 12.2c-.27 1.3-.39 2.44-.43 2.84-.07.7-.04.35.02 0l16.75 2.89 16.75 2.89c.18-1.04.28-2.14.3-2.2.03-.37 0 0-.1.53a14 14 0 0 1-5.55 8.35zm-1.4 4.18-16.59-3.71c-.46 2.04-.6 3.87-.64 5.26l17 .5 16.99.5s-.01.47-.17 1.16zm-.23 2.05 4.38 16.42 2-.53-4.42-16.42-4.42-16.41-1.92.51zm1.96-.53 4.62 16.36 2.57-.74-4.71-16.33-4.71-16.34-2.4.7zm2.48-.71 17 .35c.01-.93.15-4.25-.66-7.72l-16.56 3.88-16.55 3.87q-.15-.67-.18-1.02l-.04-.42v.71zm205.58-208.22-15.05-7.9-.5 1.02 15.44 7.11 15.44 7.12-.27.54zm-.12.23-14.94-8.1a24 24 0 0 0-2.16 5.75 38 38 0 0 0-.64 3.49l-.27 1.91c-.07.45-.08.4 0 .14l16.42 4.4 16.42 4.38a35 35 0 0 0 .96-5.1l.13-.91c.07-.56.1-.59.05-.4-.03.12-.27 1.17-1.02 2.54zm-1.6 7.58 15.6 6.78c.67-1.54 1.29-3.3 1.73-5.3l-16.6-3.67-16.6-3.67c.1-.46.23-.78.29-.92zm.73-2.19 15.84 6.18a29 29 0 0 0 1.66-6.67l.23-1.88c.05-.5.07-.71.1-.86l-16.84-2.4-16.83-2.39-.24 2-.11.97c-.02.17-.02.12.02-.06q.05-.31.33-1.06z" mask="url(#crests-onboarding-path-1-outside-1_23_3892)"/></g><path fill="#5d96e1" d="M144.5 451.72a5 5 0 0 1 1.23-4.32c-.93-1.19-1.17-2.73-1.2-4.23q-.36-6.33-.44-12.69c-.29-15.35.45-30.67.85-46.02a4 4 0 0 1-1.9-2.61 5 5 0 0 1 .22-3c.38-.92 1.2-1.97 2.25-2.23q.26-.08.5-.12h.05c3.4-.85 6.84-1.61 10.26-2.42q5.99-1.4 11.93-2.83 12.53-2.96 25.04-5.99c16.73-4.06 33.46-8.2 50.18-12.25l49.44-12.07 31.53-7.8q7.06-1.73 14.14-3.54 3.43-.86 6.82-1.76c.97-.26 2.02-.5 2.99-.85q.44-.21.93-.29 1.18-.17 2.11.45h.26c2.14 0 3.35 2.1 3.4 4.02.26 17.46-.5 34.88-.76 52.34-.28 3.3.3 6.8 0 10.1l.36-.1q-.01 1.66-.05 3.33l-.17 1.64-.24 2.42-.07 1.26c-3.1.7-6.2 1.5-9.26 2.28l-12.14 3.07-24.45 6.2q-24.93 6.32-49.87 12.71-25.23 6.44-50.44 12.95-24.6 6.38-49.18 12.83c-3.28.85-6.53 1.76-9.81 2.59q-.1 0-.17.04h-.05a4 4 0 0 1-.85.12c-1.74 0-3.14-1.4-3.47-3.16z"/><path fill="#9bc2f6" d="M301.97 306.1s-.1.03-.12.06q.08-.01.12-.05"/><path fill="#9bc2f6" d="M145.12 380.8c-1.57.2-2.97-.7-3.64-2.27-10.52-3.83-20.4-10.3-30.1-15.4a4 4 0 0 1-.55-.26h-.1l-2.34.6c-.62.16-1.36.42-2 .42h-.14c-2.69-.21-3.95-3.2-3.02-5.56.31-.78.88-1.47 1.62-1.9.47-.3 1.11-.43 1.66-.55l1.92-.5c1.33-.33 2.66-.68 3.9-1 15.87-4.22 31.81-8 47.73-12 16.61-4.15 33.2-8.35 49.8-12.51q24.86-6.26 49.7-12.57c11.5-2.92 23-5.82 34-8.74 1.79-.48 3.57-.93 5.35-1.45q1.13-.31 2.26-.7a4 4 0 0 1 1.87-.42q-.16.01-.33-.05c-.17 0-.3.05-.47.05q-.12 0-.22.05.3-.09.57-.15a3.3 3.3 0 0 1 2.14.4c3.66.91 7.22 2.17 10.79 3.38l1.8.64q4.64 2.6 9.48 4.78a146 146 0 0 0 7.49 3.14q1.8.7 3.65 1.3 1.6.74 3.21 1.43 1.22.54 2.47 1.04l1.43.55 1.83.74.71.38 3.04 1.59q1.43.75 2.85 1.54c-.4 1.45-1.42 2.74-2.99 2.88h-.21c-.76.07-1.57.28-2.1.43l-.45.1c-7.81 1.82-15.6 3.82-23.4 5.74q-12.14 3-24.33 6.04-23.98 5.97-47.97 11.9-24.79 6.15-49.58 12.4c-16.25 4.09-32.5 8.15-48.75 12.3l-4.85 1.24c-1.21.31-2.45.74-3.69.93v-.05z"/><path fill="#457ac0" d="M147.49 379.9c.1 1.12 0 2.29 0 3.36v5.8c-.05 4.03-.12 8.05-.12 12.09q-.07 12.12-.22 24.23c-.04 4.7-.04 9.43-.1 14.16 0 3.38-.06 6.72 0 10.1v.28q-.02-.24-.09-.5l-.14-.54q-.02-.09-.07-.17.28.73.3 1.52a5 5 0 0 1-.85 3.1c-.42 1.32-1.47 2.49-2.9 2.72q-.25.05-.47.05c-1.38 0-2.47-.93-3.09-2.14 0 .05.05.1.05.15l.28.47.34.43.38.36.12.09-.34-.14c-6.03-2.83-12.2-5.35-18.31-8.01a936 936 0 0 0-19.42-8.27q-.49-.21-1.02-.4c-2.04-.83-2.87-3.28-2.3-5.32q.17-.61.52-1.17c.17-2.4.17-4.84.26-7.24l.38-11.93q.34-12.15.64-24.3c.22-8.85.31-17.68.4-26.52v-.64c.03-1.86 1.31-3.83 3.24-4.09q.46-.21.97-.21c1.38 0 2.6.73 3.83 1.28q2.4 1.07 4.77 2.26l10.08 5.03q5.33 2.68 10.71 5.35c2.73 1.35 5.47 2.75 8.27 4l.38.16q.45.14.9.38c.36.24.7.52.93.85a4.2 4.2 0 0 1 1.73 3.38zm3.4-15.04.1.05zm-2.38-1.69.05.05zm6.11-49.72s.05.05.07.05c0 0-.05-.05-.07-.05m-27.44-6.7h.05q-.06 0-.12.05.03 0 .07-.03zm35.55 17.85s.03.1.05.11q0-.06-.05-.11M155.4 366c-.47 0-.94-.07-1.42-.12h.1q-.8-.14-1.57-.38h-.05a15 15 0 0 1-1.43-.57h.03q-.72-.36-1.36-.8.08.02.12.09-.66-.5-1.26-1.02-.31-.3-.59-.62l-.26-.55-.74-1.78q.01-2.61-.05-5.25v.17c0-1.9-.26-3.83-.45-5.73a61 61 0 0 1-.28-5.46v-4.8q0-1.06-.03-2.12c-.02-.47 0-.95-.26-1.33a7.95 7.95 0 0 0-6.3-7.91 8.5 8.5 0 0 0-3.94.17 8 8 0 0 0-1.73.78c-1.05.3-2 .83-2.76 1.57-1.35 1.92-1.7 4.2-1.66 6.63q-.2 3.73-.26 7.46c-.03 1.47 0 2.94 0 4.42q.01.84.07 1.68-8.35 1.99-16.7 4.02a4.3 4.3 0 0 1-1.05-1.95q-.02-1.1-.07-2.21c-.12-2.2-.28-4.4-.38-6.6l-.17-3.38q-.07-1.2-.19-2.42c-.1-4.06.05-8.08.83-11.95l.24-.72q-.01-.02.05-.09.63-1.66 1.4-3.23-.02.08-.07.14l.17-.35-.07.14q.77-1.46 1.68-2.8l.17-.27c0 .03-.05.05-.05.1q.02-.08.07-.12v.05a28 28 0 0 1 2.97-3.57q1.67-1.66 3.59-3.01-.08.02-.12.09 1.91-1.35 4.02-2.38l-.15.08a30 30 0 0 1 3.95-1.57h.07l.12-.05.1-.02q1.87-.53 3.8-.81h-.03a31 31 0 0 1 3.92-.26q1.78.02 3.59.23a33 33 0 0 1 3.63.74q1.86.53 3.64 1.28c-.05 0-.1-.04-.14-.04l.38.16q1.62.76 3.18 1.69 1.58.95 3.02 2.16 1.28 1.1 2.47 2.33l-.12-.12q.96 1.01 1.8 2.1.13.5.57.75 1.01 1.43 1.84 2.93a32 32 0 0 1 1.47 3.18q.46 1.26.85 2.59c.67 6.63.31 13.35.6 19.98.1 5.34.6 11.83-1.74 16.13q-.32.29-.64.52-.5.39-1.1.72a22 22 0 0 1-1.4.66q.03 0 .1-.05a12 12 0 0 1-2.59.67h-.12q-.57.04-1.19.05h-.16z"/><path fill="#457ac0" d="M111.57 351.6q.57-.62 1.43-.95c4.7.19 9.29-1.02 13.92-2.16a3.4 3.4 0 0 1 2.38.52c0 .48.05.97.07 1.45-5.92 1.4-11.8 2.83-17.73 4.25q.01-1.55-.04-3.11zm42.51 14.29h.04a10 10 0 0 1-1.61-.38h-.05.03q-.81-.27-1.6-.64.07.02.15.07-.72-.36-1.36-.8.08.01.12.09a10 10 0 0 1-1.85-1.67q-.14-.25-.24-.52-.37-.84-.69-1.66 0-.06-.05-.1v-3.51q.33-1.62.98-3.05a3 3 0 0 1 4.27-.7c2.24 1.58 1.43 4.65 1.67 7.02 1.09.72 2.5.72 3.73.53 2.23-3.95.45-8.75.26-12.97-.45-4.83-.55-9.27-1.02-13.98-.27-2.56-1.4-5.75.73-7.81 1.76-1.86 4.64-.67 5.42 1.54 1.35 5.13 1.26 10.55 1.64 15.87v.43q.01 4.19-.05 8.39c-.07 2.66 0 5.34 0 8l-.07.22c-.19.57-.43 1.12-.6 1.69q-.46.58-.97 1.11a10 10 0 0 1-3.56 2.28l.1-.02a12 12 0 0 1-2.6.66h-.07.05-.1.05q-.69.08-1.42.05c-.45 0-.9-.07-1.36-.12z"/><path fill="#457ac0" d="M160.1 357.83c-3.57-1.45-2.33-6.03-2.6-9.1-.11-6.86 0-13.83-1.47-20.55.24-4.85 4.42-6.75 7.06-2.02l.38.57.33 1.17.02.14q0-.07-.02-.1-.01.08.05.15l.07.3c0 .65.05 1.26.05 1.88v-.16c.04 1.52.19 3.01.33 4.53v-.16q.21 2.14.3 4.3v-.1q.05 2.42.06 4.87.01 4.2-.05 8.39-.01 1.38-.05 2.76c-.64 1.97-1.69 3.25-3.4 3.25a4 4 0 0 1-1.04-.14z"/><path fill="#ae4c29" d="M456.3 427.07c1.99 2.16 1.25 6.42-2.05 6.68q-.5.01-1.04-.14-.54.16-1.12.28l-2.95.76q-2.96.75-5.89 1.45-5.87 1.46-11.78 2.97c-8.03 2.07-16.07 4.04-24.1 6.04-16.03 3.96-32.1 7.86-48.13 11.85-6.91 1.71-13.83 3.42-20.46 5.13l-1.18.31c-.4.53-.93.98-1.57 1.19a3 3 0 0 1-1.05.17c-.78 0-1.52-.31-2.18-.83l.21.16.45.31s-.05-.02-.07-.05c-5.73-2.47-11.5-4.82-17.25-7.22a5721 5721 0 0 0-21.43-8.89l-45.14-18.67c-14.95-6.2-29.94-12.3-44.88-18.5q-9.76-4.06-19.48-8.2-5-2.16-9.98-4.24-2.43-.98-4.83-2.01-1.35-.55-2.66-1.14c-.6-.27-1.2-.53-1.66-1.03-2-2.16-1.26-6.41 2.04-6.67.34-.03.7.05 1.05.14.36-.12.74-.19 1.12-.29l2.94-.75q2.96-.75 5.9-1.45l11.78-2.98c8.03-2.06 16.06-4.03 24.09-6.03 16.04-3.97 32.1-7.86 48.13-11.86 6.92-1.7 13.83-3.42 20.46-5.13l1.19-.3a3.4 3.4 0 0 1 2.59-1.38 3.7 3.7 0 0 1 1.97.66l-.38-.26c5.73 2.47 11.5 4.82 17.27 7.22a5894 5894 0 0 0 21.43 8.89q22.59 9.33 45.15 18.67c14.94 6.2 29.93 12.31 44.88 18.51q9.76 4.05 19.48 8.2 4.98 2.15 9.98 4.23 2.43.99 4.82 2.02c.9.38 1.78.73 2.66 1.14.6.26 1.21.52 1.67 1.02z"/><path fill="#ae4c29" d="M164.96 387.47c.47-3.45-1.07-8.72 2.75-10.55 1.24-.7 2.8-.24 3.9.54a4.7 4.7 0 0 1 2.95 2.48c4.25.28 5.68 7.72 1.42 9.12q-.5.9-1.3 1.54a3.5 3.5 0 0 1-3.95.1c-2.33 2.4-5.96-.26-5.75-3.21zm279.74 45.3c-1.69-1.21-1.83-3.28-2.12-5.18l-.35-2.35c-2.64-2.5-.31-8.55 3.58-7.37.83-1.82 3.12-3.01 4.92-1.73 2.14-2.21 5.68-.5 6.01 2.33.9 2.37.45 5.01.48 7.5.83 3.6-1.74 9.2-5.85 5.95q-1 .2-1.95-.2c-1.02 1.64-3.16 2.21-4.75 1.05z"/><path fill="#de6336" d="M456.29 414.53c2 2.16 1.26 6.41-2.04 6.67a3 3 0 0 1-1.05-.14q-.54.16-1.12.28l-2.94.77q-2.96.74-5.9 1.44l-11.78 2.97c-8.03 2.07-16.06 4.04-24.09 6.04-16.04 3.97-32.1 7.86-48.13 11.85-6.92 1.71-13.83 3.43-20.46 5.14l-1.19.3c-.4.53-.93.98-1.57 1.2a3 3 0 0 1-1.04.16c-.79 0-1.52-.31-2.19-.83q.09.09.21.16l.4.26.06.05q-.02 0-.07-.05c-5.73-2.47-11.5-4.82-17.25-7.22a5720 5720 0 0 0-21.43-8.88l-45.15-18.68c-14.94-6.2-29.93-12.3-44.88-18.5q-9.75-4.06-19.48-8.2-4.98-2.15-9.98-4.23-2.42-1-4.82-2.02-1.35-.56-2.66-1.14c-.6-.26-1.21-.52-1.67-1.02-2-2.17-1.25-6.42 2.05-6.68q.5-.01 1.04.14.55-.16 1.12-.28l2.95-.76q2.96-.75 5.89-1.45l11.78-2.97c8.03-2.07 16.06-4.04 24.1-6.04 16.03-3.96 32.1-7.86 48.13-11.85 6.91-1.71 13.83-3.42 20.46-5.13l1.19-.31a3.4 3.4 0 0 1 2.58-1.38c.88 0 1.7.4 2.38 1l-.4-.34-.38-.26c5.72 2.47 11.5 4.83 17.27 7.23q10.7 4.46 21.43 8.88l45.14 18.68c14.95 6.2 29.94 12.3 44.88 18.5q9.76 4.05 19.48 8.2 5 2.15 9.98 4.23 2.43 1 4.83 2.02 1.34.56 2.66 1.14c.6.26 1.2.52 1.66 1.02z"/><path fill="#a36248" d="M474.23 331.67c1.5 16.9-.83 34.4-13.16 47.04-19.74 23.22-39.03 21.17-66.78 21.79-22.67 0-45.27 2.64-67.93 2-16.16-1.24-32.24-1.36-48.14-4.38-20.4-6.48-35.28-12.85-44.07-33.69-6.89-13.99-6.25-29.72-3.73-44.69a106 106 0 0 1 2.66-18.05l.17-.62a233 233 0 0 1 5.75-22.55c4.87-15.54 8.84-31.38 14.28-46.76 3.23-10.8 7.46-21.28 11.83-31.67 1.61-2.85 2.68-10.19 5.82-11.83 2.64-5.08 5.42-10.1 8.74-14.75 16.16-19.25 39.37-32.79 65-32.3 32.22-.8 65.34 14.9 82.97 42.3 7.04 9.86 10.93 21.29 14.83 32.62 3.18 9.24 6.89 18.58 9.79 27.87 9.17 28.96 21.6 56.93 21.95 87.7z"/><path fill="#a36248" d="M321.42 422.74c-18.91-1.05-15.8-14.45-14.45-28.59.6-2.44 3.8-3.65 5.56-1.59 1.62 1.74.83 4.28.88 6.42.62-1.43 1.24-3.04 2.07-4.3q.36 1.06.64 2.14.45-.16 1-.12c.43 0 .83.14 1.23.33a3.2 3.2 0 0 1 4.33.05c1-1.5 2.7-2.14 4.44-1.24q.83.45 1.28 1.1c.9-.53 2-.62 3-.15.52-2.2 2.52-4.73 5.01-3.66 2.78 1.29 2.64 4.33 2.7 6.94.08 2 .13 4.02 0 6.04-.85 11.85-5.46 17.13-17.64 16.67zm61.21-.02c-9.31-1.81-12.69-9.48-11.33-18.3.23-2.42.59-4.85.47-7.25.2-1.87 2.52-3.25 4-1.7.2-.48.35-.9.37-1.46.29-1.28 1.78-.54 2.19.27 1.7-.34 3.3.8 3.99 2.3 1.54-2.19 5.08-2.16 6.4.26q.62.01 1.25.24c.85-2.97 5.06-4.28 6.63-1.14.73-1.8 2.8-3.26 4.73-2.42 4.75 2.51 2.11 13.78 1.64 18.36-1.55 11.4-10.77 12.24-20.37 10.81zm.62-8.49v-.4q-.22.15-.48.26.1.02.2.07z"/><path fill="#f6b985" d="M405.73 248.51v-.07l-.15.47q0 .12-.02.22zm25.13 83.1c4.28 19.9 8.89 41.44 1.74 61.16a14 14 0 0 1-1.83 3.74q-.15.5-.48.97a4 4 0 0 1-3.37 1.54q-4.19.99-8.48.9c-32.93 1.31-65.63 3.62-98.58 3.07-6.32-.38-28.25-.21-34.78-5.13l-.48-.31c-16.06-10.26-20.17-24.1-18.62-42.39.73-25.87 13.44-50.34 31.9-68.06.98-.67 2.33-1.55 3.83-2.38-8.41-6.92-6.3-20.36-6.37-30.48.36-7.46.36-14.97 1.1-22.43.16-1.4.26-2.97.94-4.23q.12-.71.27-1.43.38-1.76 1.02-3.44a49 49 0 0 1 3.13-6.77 58 58 0 0 1 9.06-12.14 61 61 0 0 1 12.09-9.6 59 59 0 0 1 14.2-6.2 59 59 0 0 1 29.41-.8 59 59 0 0 1 25.27 12.7 59.5 59.5 0 0 1 16.82 23.71 62 62 0 0 1 3.63 14.26q.75 6.1.38 12.23v.05q-.01.33-.1.62c.2 4.96-.04 10.02.13 11.6-.03 7.43 1.16 16.03-3.73 22.28a12 12 0 0 1-2 1.9c14.87 8.67 19.13 29.32 23.93 45.05z"/><path fill="#a36248" d="M294.08 308.8c-4.9-1.22-8.81-4.79-10.95-9.25-1.6-3.11-3.73-8.67.1-10.7 2.54-1.23 4.53 1.29 4.53 3.71 1.55 4.61 5.9 9.13 11.12 8.22 3.5-.8 2.54-5.3 1.1-7.57-1.34-2.21-3.33-3.45-4.1-5.8-.82-2.64 1.46-6.3 4.43-5.23 11.64 7.56 11.4 30.37-6.2 26.59z"/><path fill="#a36248" d="M292.25 303.94c-2.54-.38-3.82-3.13-4.84-5.2-2.02-3.38-3.35-10.55 2.2-11.07.1-.7.32-1.33.67-2a3.5 3.5 0 0 1 2.21-1.78c4.68-5.63 7.99 4.8 10.38 7.8 1.03 1.68 1.93 3.48 1.93 5.48.17 2.92-2.92 5.75-5.77 4.32a3.2 3.2 0 0 1-3.33.64 3.3 3.3 0 0 1-3.45 1.81m111.36 2.56c-4.7-5.54-2.2-13.29 1.83-18.44 2-2.19 4.09-6.16 7.56-5.33 1.73.55 2.63 2.71 2.37 4.4-.19 1.95-1.78 2.92-2.92 4.28-1.85 2.37-4.18 5.03-4.23 8.17 2.12 5.3 10.84 3.23 11.03-2.21 1.66-5.51 8.17-2.64 6.89 2.45-1.2 10.45-16.02 15.49-22.5 6.67z"/><path fill="#a36248" d="M409.65 305.15c-6.42-3.1-1.86-14.46 1.66-18.48 3.04-3.97 8.53-3.47 9.1 2 5.18 3.58 2.04 11.02-2.47 13.75-2.1 2.1-5.3 4-8.3 2.76z"/><path fill="#a36248" d="M407.98 290.88c-.52-3.3.97-6.63 2.9-9.27.66-2.06 1.78-4.3 3.8-5.34 3.85-3.3 7.36 2.54 5.13 5.94 1.21 3.44-2 6.36-3.97 8.84-2.09 3.06-6.55 4.22-7.84-.17z"/><path fill="#fff" d="M317.84 258c.1-1.24 0-2.52.03-3.78v-13.24q-.01-2.67-.1-5.39-.02-1.4-.07-2.8c0-.55-.07-1.12-.02-1.67.14-1.83 1.18-3.77 3.18-4.06 2.16-.28 3.78 1.69 3.94 3.68.12 1.43 0 2.88 0 4.3v5.25c0 2.67.07 5.35.1 8.01.05 3.09.05 6.2.12 9.31v.27-.2q0-.05-.03-.11a5 5 0 0 1-.33 2.56 3.7 3.7 0 0 1-2.8 2.3l-.48.03c-2.3 0-3.6-2.42-3.5-4.58v.12z"/><path fill="#fff" d="M337 243.62a4.2 4.2 0 0 1-1.57-2.93h-.02c-.29-3.58.71-8.93-3.47-10.5-5.9-.59-3.75 5.9-8.5 6.16-3.64 2.54-6.37-2.24-5.59-5.59.43-5.5 5.2-10 10.76-9.86 6.13-.38 12.31 3.95 13.66 10 .72 4.05 1.9 16.16-5.25 12.7z"/><path fill="#fff" d="M335.3 254.81v-5.25c0-2.66-.06-5.35-.09-8-.04-3.1-.04-6.2-.12-9.32v-.07s0 .07.03.12a5 5 0 0 1 .33-2.57 3.7 3.7 0 0 1 2.8-2.3q.26-.05.48-.05c2.3 0 3.61 2.42 3.5 4.59v-.12c-.1 1.23 0 2.51-.03 3.77v13.24q0 2.04.05 4.08a48 48 0 0 0-7.01 2.52v-.66z"/><path fill="#fff" d="M336.7 253.5c1.5-1.04 2.83-.85 3.85-.02q-3.88 1.23-7.5 3.1c.73-1.48 1.44-2.95 3.65-3.07m-18.83 5.43c-.71-4.03-1.9-16.15 5.25-12.68a4.2 4.2 0 0 1 1.57 2.92h.05c.28 3.54-.7 8.81 3.32 10.45a39 39 0 0 0-6.46 5.66 12.4 12.4 0 0 1-3.68-6.32z"/><path fill="#fff" d="M318.8 256.67c-1.74-1.4-1.69-3.45-1.62-5.47.29-5.77-.05-11.57.12-17.32.07-4.6 6.13-6.41 7.46-1.5.12 6.59 1.02 13.55-.38 19.99.38 2.99-2.68 6.48-5.58 4.27z"/><path fill="#fff" d="M325.62 257.8c-4.49-3.06-2.52-9.48-2.75-14.09.7-4.32-.93-16.96 5.65-16.41.93-1.69 3.28-2.43 4.82-1.12 2.9-1.69 5.2 1.61 5.25 4.28q.07.02.17.1c6.06.09 3.75 11.3 4.28 15.41-.08 1.54.04 4.25-.17 6.87a47 47 0 0 0-16.6 8.12 12 12 0 0 1-.63-3.13zm41.84-4.77v-12.55q-.01-2.67-.1-5.39-.01-1.4-.07-2.8c0-.55-.07-1.12-.02-1.67.14-1.83 1.19-3.77 3.18-4.06 2.17-.28 3.78 1.69 3.95 3.68.12 1.43 0 2.88 0 4.3v5.25c0 2.67.07 5.35.1 8.01q.02 4 .09 8.03a42 42 0 0 0-7.1-2.78z"/><path fill="#fff" d="M386.58 243.1a4.2 4.2 0 0 1-1.57-2.92h-.03c-.28-3.6.72-8.94-3.47-10.5-5.89-.6-3.75 5.89-8.5 6.15-3.63 2.54-6.37-2.24-5.58-5.59.42-5.5 5.2-10 10.76-9.86 6.13-.38 12.3 3.95 13.66 10 .71 4.05 1.9 16.16-5.25 12.7z"/><path fill="#fff" d="M391.87 231.36c-.1 1.24 0 2.52-.03 3.78v13.23q.01 2.68.1 5.4c0 .92.05 1.87.07 2.8 0 .55.07 1.12.02 1.66-.14 1.83-1.18 3.78-3.18 4.06-2.16.29-3.78-1.68-3.94-3.68-.12-1.42 0-2.87 0-4.3v-5.25c0-2.66-.08-5.34-.1-8-.05-3.1-.05-6.2-.12-9.32v-.26.19q0 .06.03.12a5 5 0 0 1 .33-2.57 3.7 3.7 0 0 1 2.8-2.3l.48-.02c2.3 0 3.6 2.42 3.49 4.58v-.12zm-24.97 21.5c-.06-4.6.93-9.48 5.8-7.12a4 4 0 0 1 1.57 2.92h.03c.19 2.18-.12 5.06.57 7.3a41 41 0 0 0-7.96-3.1"/><path fill="#fff" d="M379.84 259.02c3.38-.97 2.38-5.77 6.46-6.03 3.64-2.55 6.37 2.23 5.59 5.58a11 11 0 0 1-4.54 7.93 35 35 0 0 0-7.5-7.48m-13.09-6.18q-.09-1.04 0-2.14c.29-5.77-.05-11.57.12-17.32.07-4.61 6.13-6.42 7.46-1.47.12 6.58 1 13.54-.38 19.98a5 5 0 0 1-.83 3.25 42 42 0 0 0-6.37-2.3"/><path fill="#fff" d="M373.28 255.2c-1.9-3.38-.64-8.27-.83-12 .71-4.33-.93-16.97 5.63-16.42.93-1.69 3.3-2.43 4.82-1.12 2.9-1.69 5.2 1.62 5.25 4.28q.08.02.17.07c6.06.1 3.75 11.3 4.28 15.42-.22 4.11.97 16.25-6.04 13.78-.17 1.5-1.02 2.97-2.45 3.47a37 37 0 0 0-10.8-7.49z"/><path fill="#000" d="M319.86 267.93c-8.17-1.93-8.25-18.49-8.03-25.1.17-6.65.12-13.9 4.04-19.6 4.42-6.39 13.8-8.98 20.74-5.27 8.81 5.42 8.17 17.34 8.03 26.4-.21 3.56 1.3 10.62-4.09 10.57-3.16-.36-3.47-4.5-3.01-6.75.04-2.14.04-4.28.1-5.77-.3-5.54.99-12.93-3.83-16.8-3.9-2.11-9.03-.76-11.95 2.38-2.62 3.27-2.69 7.81-2.88 11.8-.05 6.2-.74 11.9 1.26 17.75.57 2.33 3.06 3.52 3.06 6.06.12 1.97-1.25 4.32-3.44 4.35z"/><path fill="#000" d="m334.16 238.6.12.1q-2.8-2.24-5.66-4.42-.48-.37-1-.72v-1.42q0-3.23-.09-6.47.01-1.58-.05-3.18c0-.88-.04-1.73.17-2.61.38-1.52 1.74-2.88 3.37-2.88q.76.01 1.38.36a1.1 1.1 0 0 0-.57.97h-.12q-.16-.06-.3-.07-.26-.04-.48-.1a2 2 0 0 0-.64 0q-.11.02-.22.08l-.12.04a1 1 0 0 0-.35.38v.05c-.24.29-.33.7-.22 1.07q.26.66.9.88.11.08.25.14.62.24 1.28.34.13.01.24.07l.33.07q.27.1.52.1l.36.11h.05q.42.2.85.29l.33.14v6.15q-.33-.02-.66.08-.5.15-.86.5c-.78.73-1.14 1.99-.6 2.94q.14.32.39.55.51.49 1.16.61l.22.07.4.08q.04 3.06.1 6.1l-.5-.4zm-6.37 17.96c-.02-2.12 0-4.23-.05-6.34q0-1.22-.02-2.43.3-.06.54-.26c.93-.69 1.83-1.43 2.76-2.14q1.85-1.43 3.68-2.87.07 6.55.17 13.06v.17a51 51 0 0 0-3.92 2h-.02q-.07 0-.1.05l.1-.05c-.03 0-.08.05-.1.05q-.28.14-.52.3-1.26.72-2.45 1.57c0-1.07-.05-2.11-.05-3.16zm12.51-2.91s-.06 0-.09.02l.1-.02"/><path fill="#000" d="M331.16 245.32c1.48-1.14 2.92-2.3 4.42-3.44.36-.29.5-.76.4-1.2v-.11a1.1 1.1 0 0 0-.42-.83l-1.29-1-2.77-2.19q.06-3.62-.08-7.22a4.2 4.2 0 0 1 .65-2.64c-1.07-.8-2.28-.92-3.02-2.04-1.14-1.76-1.29-4.4.35-5.96a3 3 0 0 1 2.69-1q-.08.09-.12.21-.1.22-.12.46a.3.3 0 0 1-.16-.05l-.17-.03-.55-.11a1.5 1.5 0 0 0-.85.07l-.1.04a.7.7 0 0 0-.33.38c-.26.29-.36.72-.21 1.1.16.45.5.71.9.88q.1.07.24.14c.42.17.9.26 1.35.36q.09 0 .17.04c.12.05.21.05.33.1q.27.1.52.1l.36.11h.05q.42.2.88.29.24.14.52.23l.3.15q.5.2.98.47l.05.07q.21.29.55.46l1.09.7-.07-.04.69.5q.22.24.45.45l-.12-.12a21 21 0 0 1 1.78 2.02q.2.25.3.5v.02q.12.23.3.34l.11.23q.1.22.26.43l.38.93q.2.52.38 1.1l.17.54q.03.28.1.57 0 .08.02.12.03.42.1.85.07.63.16 1.24l-.02-.17c.1.71.14 1.45.21 2.16v-.16q.1 1.38.17 2.8v-.1 3-.17.36-.02.7c0 .53-.03 1.08 0 1.62q.01.73-.05 1.45c-.05.57-.02 1.14-.05 1.71 0 1.1.05 2.17.03 3.26v-.17c0 1.02-.05 2.05-.05 3.04q-.03-.01-.1.05c-.83.17-1.66.43-2.47.69h-.02s-.07 0-.1.02a45 45 0 0 0-4.89 1.93q-2.25.98-4.37 2.2c-.05 0-.07.06-.1.06q-.46.24-.88.52l-.28.17c.05-4.5 1.38-9.8 1.52-13.24zm2.69-17.17q-.5.14-.86.5c-.78.7-1.14 1.99-.6 2.94q.14.3.39.55c.3.3.74.52 1.16.61l.22.07c.16.05.38.08.54.08.5 0 1.03-.17 1.36-.57l.12-.12q.14-.15.23-.29.16-.18.26-.42c.17-.4.22-.88.17-1.31a2 2 0 0 0-.43-1.07l-.16-.2-.14-.13q-.25-.25-.57-.43l-.34-.14q-.4-.16-.83-.17-.26-.02-.55.07zm55.94 40.95c8.17-1.92 8.24-18.48 8.03-25.08-.17-6.66-.12-13.9-4.04-19.6-4.42-6.4-13.8-8.98-20.74-5.28-8.82 5.42-8.18 17.35-8.04 26.4.22 3.56-1.3 10.62 4.1 10.57 3.15-.36 3.46-4.49 3-6.75-.04-2.14-.04-4.27-.09-5.77.29-5.54-1-12.93 3.83-16.8 3.9-2.11 9.03-.76 11.95 2.38 2.61 3.28 2.69 7.82 2.88 11.8.04 6.2.73 11.91-1.26 17.75-.57 2.33-3.07 3.52-3.07 6.06-.12 1.98 1.26 4.33 3.45 4.35z"/><path fill="#000" d="m386.14 239.22.11.1q-2.8-2.24-5.65-4.43c-.33-.23-.64-.5-1-.7v-1.43q-.01-3.23-.1-6.47.01-1.59-.04-3.18c0-.88-.05-1.74.17-2.61.38-1.53 1.73-2.88 3.37-2.88q.76.02 1.38.36a1.1 1.1 0 0 0-.57.97h-.12q-.16-.06-.31-.07-.25-.04-.48-.1a2 2 0 0 0-.64 0q-.1.02-.21.08l-.12.04a1 1 0 0 0-.36.38v.05c-.23.29-.33.7-.21 1.07.17.45.47.71.9.88q.1.08.24.14a6 6 0 0 0 1.28.34q.14.01.24.07l.33.07q.26.1.53.1l.35.11h.05q.43.2.86.29l.33.14v6.15q-.34-.02-.67.07-.5.17-.85.5c-.79.74-1.14 2-.6 2.95q.15.32.38.55.52.49 1.17.61l.21.07.4.08.1 6.1-.5-.4zm-5.51 20.48h-.05q.07.03.1.07l-.17-.12q-.01.01.04.05-.34-.25-.73-.43c0-.69-.05-1.38-.05-2.07-.02-2.11 0-4.22-.05-6.34l-.02-2.42q.29-.06.55-.26l2.75-2.14 3.68-2.88q.07 6.55.17 13.07v.17a51 51 0 0 0-3.92 2h-.02l-.08.04-.52.3q-.82.48-1.59.98s-.05-.02-.07-.05zm11.69-5.47s-.07 0-.1.03q.06 0 .1-.03"/><path fill="#000" d="M383.16 245.92q2.19-1.72 4.42-3.44c.35-.29.5-.76.4-1.2v-.11a1.1 1.1 0 0 0-.43-.83l-1.28-1-2.78-2.19q.07-3.62-.07-7.22a4.2 4.2 0 0 1 .64-2.64c-1.07-.8-2.28-.92-3.02-2.04-1.14-1.76-1.28-4.4.36-5.96a3 3 0 0 1 2.66-1q-.08.09-.12.21-.1.22-.12.46a.3.3 0 0 1-.16-.05l-.17-.03q-.29-.05-.55-.12a1.5 1.5 0 0 0-.85.08l-.1.04a.7.7 0 0 0-.33.38c-.26.29-.36.72-.21 1.1.16.45.5.71.9.88q.1.07.24.14.66.22 1.35.36.08 0 .17.04c.12.05.21.05.33.1q.27.1.52.1l.36.11h.05q.42.2.88.29.24.14.52.23l.3.15q.5.2.98.47 0 .02.05.07.22.3.54.45l1.1.72c-.03 0-.05-.05-.07-.05l.69.5q.2.24.45.45l-.12-.12c.62.64 1.23 1.28 1.78 2.02q.2.25.3.5v.02a1 1 0 0 0 .3.34l.11.23q.1.22.26.43l.38.93q.2.52.38 1.1l.17.54a5 5 0 0 0 .12.69q.03.42.1.85.07.64.16 1.24l-.02-.17c.1.71.14 1.45.21 2.16v-.16q.1 1.38.17 2.8v-.1 3-.17.36-.03.72c0 .52-.03 1.07 0 1.61q.01.73-.05 1.45c-.05.57-.02 1.14-.05 1.71 0 1.1.05 2.17.03 3.26v-.17c0 1.02-.05 2.05-.05 3.04q-.03-.01-.1.05c-.83.17-1.66.43-2.47.69h-.02s-.07 0-.1.02q-2.5.83-4.89 1.93a47 47 0 0 0-4.37 2.2c-.05 0-.07.06-.1.06-.28.16-.6.33-.88.52-.1.04-.19.12-.28.16.05-4.49 1.38-9.78 1.52-13.23zm2.68-17.18q-.5.14-.85.5c-.79.72-1.14 2-.6 2.95q.15.3.38.55c.31.3.74.52 1.17.61l.21.08q.28.06.55.07c.5 0 1.02-.17 1.35-.57l.12-.12q.14-.15.24-.29.15-.18.26-.43c.16-.4.21-.87.16-1.3a2 2 0 0 0-.42-1.07l-.17-.2-.14-.13q-.26-.25-.57-.43l-.33-.15q-.4-.15-.84-.16-.25-.02-.54.07zm-4.14 31.82.1.07q-.06-.02-.1-.07"/><path fill="#000" d="M387.44 266.83v-.1a2 2 0 0 0-.5-1.04l-.64-.74q-.71-.76-1.45-1.52a37 37 0 0 0-2.64-2.42q-.76-.71-1.6-1.3h.03q-.04 0-.07-.06l.1.08q-.07-.07-.17-.12h.02l-.54-.31c.1-.9.33-1.8.66-2.62.64-2.1 1.74-4.91 4.37-4.8 1.52-2.66 5.5-1.61 6.16 1.17 2.68 2.5.52 6.13-.38 8.98-.57 1.88-1.76 4.06-3.33 4.8l-.02-.05z"/><path fill="#8eb466" d="m412.36 234.16.21.86q-.08-.25-.14-.52l-.07-.2v.05q.34.9.33 1.98c0 1.94-1.6 4.03-3.66 4.03h-.16c-2.1-.11-3.19-2.04-3.35-3.92v.12q.01.22.07.48l-.1-.62q-1.37-1.06-2.78-2.07a77 77 0 0 0-10.57-6.15c-4.18-2-8.48-3.63-12.93-4.99a103 103 0 0 0-16.32-3.37c-5.53-.64-11.12-.81-16.68-.55-2.66.17-5.34.38-7.98.76-2.85.4-5.65.97-7.94 1.5a75 75 0 0 0-11.07 3.54 84 84 0 0 0-10.1 5.13c-1.66.95-3.3 1.9-5.06 2.66l-1.14.52c-.4.2-.78.45-1.18.67-.36.19-.79.36-1.22.43a3 3 0 0 1-3.84-.03 3.8 3.8 0 0 1-1.31-2.78h-.02c-.08-.88.16-1.7.4-2.54.24-.86.5-1.66.78-2.5a58 58 0 0 1 7.58-15.16 61 61 0 0 1 15.76-15.53 59 59 0 0 1 20.24-8.8 62 62 0 0 1 22.1-.85 60 60 0 0 1 38.22 22.15 62 62 0 0 1 11.36 23.09v.05c.45.76.66 1.69.62 2.59zm-71.37 170.69h-.38q-.47.01-.95-.1c-2.19-.26-2.7-2.63-4.35-3.68-7.93-4.87-21.24-6.32-27.32 2.14a3.7 3.7 0 0 1-3.02 1.33h-.12c-.28 0-.6-.05-.85-.12l-.57.07q-2.65-.14-5.25-.38H298c-6.08-.92-11.76-3.58-16.75-7.22a2 2 0 0 0-.64-.76l-1.62-1.4s-.05 0-.05-.05a83 83 0 0 1-5.1-5.25q-1.04-1.36-2-2.75 0-.03-.05-.1l-.28-.43-.17-.33-.28-.55-.45-.9-1.03-1.97q-.44-.83-.95-1.62.32-.54.81-.97c.7-.6 1.48-.83 2.26-.9.8-.55 1.85-.86 2.73-.86 4.23 0 8.44-.07 12.69.05 25.5.69 50.96-.34 76.43-1.3 17.56-.94 35.12-3.22 52.75-2.65q2.67-.17 5.34-.26c-.14.26-.21.57-.12.88.12.43.43.71.83.86.6.21 1.29.1 1.88-.03q.95-.18 1.85-.5c-.16.17-.26.31-.38.53-.21.43-.07.97.27 1.3q.35.35.83.34.23 0 .45-.1c.52-.21.97-.57 1.42-.9q.52-.39 1.03-.8.18-.18.4-.34c.36.33.88.45 1.38.21.33-.16.6-.47.69-.8q.82.13 1.66.3c.97 0 1.95.12 2.83.53v.2l-.1 1.3v1.64l-.02 2.1v.2c0 .59-.03 1.23 0 1.83l-.12.95q-.04.5-.1.92 0 .15-.04.29l-.31 1.66q-.02.14-.07.26v.03l-.34 1.28v.02q-.04.22-.1.43a35 35 0 0 1-1.01 3.04v-.05l-.33.88q-.11.26-.15.55a17 17 0 0 1-4.42 5.13q-.8.67-1.66 1.24-.82.09-1.66.16-2.69.31-5.32.64c-3.66.48-7.3.98-10.98 1.36h-.38l-.38.02q-1 .07-2 .1l-.19-.17q-.67-.67-1.38-1.3-.19-.2-.4-.38c-.4-.38-.8-.79-1.28-1.07q.1-.17.21-.29c-7.1-5.13-17.34-4.75-24.61-.12-2.19 1.14-3.92 3.83-6.04 5.04l-1.02.21-1.83.38q-.69-.15-1.4-.5l-.22-.14c-3.51 1.43-9.12.98-12.06 1.24-4.59.1-9.17.73-13.78.76h-.1a5 5 0 0 1-2.07-.36z"/><path fill="#8eb466" d="M279.38 377.34c-4.12-.6-8.3-.95-12.36-1.62-3.42-.88-4.44-6.58-.38-7.25 9.57.81 19.58 2.28 27.63 7.94a47 47 0 0 1-14.9.9z"/><path fill="#8eb466" d="M355.1 382.16c-23.9.21-47.71-2.45-71.33-5.87-4.08-.6-8.2-.88-12.3-1.33-3.1-.17-7.2-.9-7.56-4.64-.12-3.16 3.56-3.73 5.96-2.92 3.97.6 7.94 1.05 11.93 1.57 11.74 1.42 23.48 3.11 35.26 4.16 28.06 2.33 56.24-1.43 84.3-3.35 6.44-.71 12.85-1.55 18.77-2.16 1.87-.22 4.1-.98 5.82.04a4.5 4.5 0 0 1 2.47 3.8l-.43.22c.05 0 .1-.05.14-.07q-1.44.72-2.97 1.3c.05 0 .1-.04.15-.04-.55.16-1.1.33-1.67.42q-.13.01-.26.05a1.2 1.2 0 0 0-1.16.05 1.2 1.2 0 0 0-.71 1.4q0 .14.09.26a638 638 0 0 1-39.25 3.52c.1 3.2-3.4 3.51-5.85 3.28-5.53.16-11.07.45-16.58.45q-2.4 0-4.82-.07z"/><path fill="#8eb466" d="M417.13 370.14a3.3 3.3 0 0 1 .45-2.47 3.2 3.2 0 0 1 2.12-1.3c3.54-.43 7-1.9 10.6-1.76 5.86.54 6.26 6.58 2.41 7.84q-.04-.17-.11-.34.26-.3.5-.66c.09-.14.11-.31.16-.48a1.2 1.2 0 0 0-1.45-1.47c-.33.1-.6.29-.85.45q-.47.31-.98.6-1 .59-2.04 1.09c.05 0 .1-.05.14-.07q-1.45.72-2.97 1.3c.05 0 .1-.04.14-.04q-.75.25-1.52.4h-.14l-.26.02c-.36-.16-.8-.16-1.16.05q-.17.08-.29.2l-.02.01h-.2c-2.08 0-3.84-.75-4.53-3.42z"/><path fill="#8eb466" d="M425.7 380.35c-1.4.88-2.9.14-4.2-.45-3.7.85-5.23-4.26-3.04-6.68 1.95-2.02 4.09-3.87 6.06-5.9a3.2 3.2 0 0 1 4.06-.35 4 4 0 0 1 1.97-.6c1.5-.04 2.69 1.22 3.07 2.6 3.44 1.4 2.59 6.39.05 8.31-1.55 2.55-5.28 6.35-7.96 3.05zm-127.18 5.11a80 80 0 0 0-23.52-3.13 3.38 3.38 0 0 1-5.44-.15c-5.78-1.04-3.92-12.42 1.83-11.42 2.04-1.88 5-.36 5.84 2.01q.3.22.57.5c.29.31.52.7.69 1.07l4.25.31c2.28-6.2 8.32-.45 12.12.88 5.13 1.3 10.43 1.71 15.61 2.71a63 63 0 0 1-6.96 2.38c.38 2.78-2.12 5.67-5 4.84"/><path fill="#fefefe" d="M339.58 370.2q-15.15-.19-30.22-1.28a396 396 0 0 1-29.99-3.3q-1.78-.26-3.56-.55h-.05c-5.96-.78-11.88-1.8-17.68-3.2q-2.56-.61-5.13-1.36-2.99-.53-5.86-1.45a46.6 46.6 0 0 1-20.1-12.43 38.3 38.3 0 0 1-10.08-20.33 37 37 0 0 1 3.16-21.39 42 42 0 0 1 12.69-15.46c.8-.6 1.85-.93 2.9-.95-.15.9-.1 1.83-.17 2.75q-.1 1.53.02 3.1.15 1.63.43 3.27a25 25 0 0 0 1.85 6.13q.36.86.86 1.64c.28.48.62.9.95 1.35.38.53.71 1.07 1.14 1.57l.02.05.17.28q.93 1.36 2.04 2.62 1.45 1.5 3.07 2.85a54 54 0 0 0 5.08 3.54 87 87 0 0 0 8.25 4.3c4.8 2.11 9.76 3.9 14.3 5.3a204 204 0 0 0 22.17 5.32c11.1 2.02 22.3 3.35 33.05 4.11 13.25.9 26.56 1.1 39.46.57a327 327 0 0 0 35.5-3.47c8.05-1.26 16.03-2.9 23.87-5.04q7.1-1.96 13.9-4.63a94 94 0 0 0 8.82-4.06l.14-.1.12-.07q2.86-1.6 5.51-3.44 1.85-1.37 3.5-2.88 1.16-1.15 2.18-2.4.78-1.02 1.45-2.11.53-1.01.93-2.05.3-.91.47-1.87c.07-.6.14-1.24.14-1.83q-.06-.94-.21-1.88-.18-.75-.43-1.5.32-.84.62-1.73.81-2.56 1.16-5.2v.02-.14.05-.07c.29-2.38.26-4.85-.23-7.23q-.3-1.36-.84-2.66c.93 0 1.86.26 2.62.74a43 43 0 0 1 14.09 14.47c3.8 6.41 5.6 13.8 5.18 21.07a37.6 37.6 0 0 1-8.1 21.05 46 46 0 0 1-18.87 13.9 43 43 0 0 1-5.7 1.88q-2.46.93-4.97 1.73c-9.43 3.07-19.24 5.09-29.1 6.75a365 365 0 0 1-27.45 3.51q-.27.06-.59.05l-.85.07q-3.58.34-7.15.6-7.35.56-14.71.88l-2.71.12q-10.3.38-20.6.38-3.28.01-6.56-.05z"/><path fill="#fefefe" d="M338.6 370.35h-2.7a436 436 0 0 1-21.91-.74q-.43.01-.86-.04-.3.01-.59-.05a368 368 0 0 1-27.56-2.6c-9.9-1.32-19.81-3-29.37-5.74q-2.53-.72-5.03-1.57a52 52 0 0 1-5.78-1.69 46 46 0 0 1-19.43-13.25 38 38 0 0 1-9-20.75 37 37 0 0 1 4.27-21.24 42.5 42.5 0 0 1 13.47-14.92 5 5 0 0 1 1.9-.76q-.2.69-.3 1.4c-.17.93-.12 1.9-.17 2.86q-.1 1.52.02 3.09.15 1.63.43 3.27a25 25 0 0 0 1.85 6.13l.22.45q-.16.57-.27 1.15-.1.95-.14 1.87.06.94.22 1.83.21.95.57 1.85.45 1.04 1.02 2 .7 1.06 1.52 2.07 1.06 1.2 2.28 2.3 1.71 1.47 3.61 2.76a64 64 0 0 0 5.66 3.25l.12.08s.09.04.14.09a99 99 0 0 0 8.98 3.78q6.91 2.42 14.09 4.15a221 221 0 0 0 24.07 4.21 346 346 0 0 0 35.61 2.26c12.9.1 26.2-.55 39.42-1.93a309 309 0 0 0 32.83-5.25c7.2-1.59 14.68-3.56 21.93-6.08 4.49-1.54 9.36-3.52 14.06-5.77a79 79 0 0 0 8.08-4.59 58 58 0 0 0 4.94-3.7q.5-.46 1-.95.3-.07.55-.31a26.6 26.6 0 0 0 6.53-11v-.05c.55-1.71.93-3.5 1.14-5.28.29-2.37.27-4.84-.23-7.22a9 9 0 0 0-.29-1.1 5.2 5.2 0 0 1 3.47.84 42.5 42.5 0 0 1 13.33 15.04 37 37 0 0 1 4.08 21.26 38 38 0 0 1-9.19 20.67 46 46 0 0 1-19.58 13.1 48 48 0 0 1-5.8 1.63 95 95 0 0 1-5.06 1.52 168 168 0 0 1-17.53 3.8h-.05l-3.54.67a418 418 0 0 1-29.84 4.33 512 512 0 0 1-30.15 2.28q-12.44.57-24.9.57h-2.25z"/><path fill="#fefefe" d="M317.1 341.6c-12.28 0-24.56-.65-36.73-2.2-8.17-1.01-16.1-3.27-23.78-5.96 6.9-.76 14.19-.7 21.2-.26 31.43 3.78 63.24 2.76 94.77.55 27.58-1.62 55.86-5.2 81.5-14.64.68-2.73 5.5-3.04 6.9-.73 4.14 7.62-25.77 12.26-31.5 14.09-19.05 4.75-38.9 6.17-58.54 7.4-17.92 1.27-35.83 2.15-53.8 1.8z"/><path fill="#fefefe" d="M337.63 338.03a403 403 0 0 1-62.32-7c-12.16-2.52-25.33-4.28-35.85-10.53 12.35-3.2 24.28 2.83 36.35 4.44 17.6 3.56 35.88 5.49 53.79 6.87 38.44 1.45 77.24-1.21 114.28-10.98 2.9-.9 5.92-1.85 8.67-3.04 3.28-1.33 6.99-4.87 10.2-1.5 1.23 1.45.56 3.45-1.2 4.28l.39-.21c-14.97 7.93-32.84 9.95-49.61 13.2-24.69 3.9-49.66 4.95-74.7 4.5z"/><path fill="#fefefe" d="M306.4 343.98c21.73-4.92 44.61-5.5 66.85-8.2 33.24-3.52 66.36-12.4 93.58-30.05 2.88-2.38 9.1-.53 6.47 3.3-7.18 4.23-14.3 8.9-21.98 12.59-17.8 8.77-37.54 13.76-57.35 17.34-28.85 4.78-58.29 6.7-87.58 5z"/><path fill="#fefefe" d="M315.35 339.91a219 219 0 0 1-35.6-4.63c14.17-2.6 28.51-1.76 42.84-1.1 23.83.34 47.71-1.37 71.11-5.53a332 332 0 0 0 35.6-7.55c13.68-2.98 27.24-7.9 38.65-15.19 3.37-2.56 9.5 1.62 5.32 4.66-13.85 8.62-29.72 13.7-45.97 17.37-36.33 8.98-74.25 13.42-111.93 11.97z"/><path fill="#eca843" d="M220.67 302.68a42.5 42.5 0 0 1 13.47-14.92 5 5 0 0 1 1.9-.76q-.21.69-.3 1.4v.12l-.08.6c-.07.7-.05 1.44-.1 2.15-.04 1.03-.07 2.05.03 3.1a39 39 0 0 0 .73 4.82q-1.82.32-3.65.61c-2.21.34-4.5.6-6.58 1.48a33 33 0 0 0-5.09 2.85q-.75.45-1.5.95.53-1.17 1.17-2.35zm262.87 6.92c-3.16-3.64-6.87-7.04-11.07-9.39a30 30 0 0 0-7.23-3q.23-.8.4-1.63.29-1.33.46-2.66c.28-2.4.26-4.85-.24-7.22l-.12-.55-.14-.55q-.21-.82-.55-1.56c.93 0 1.86.26 2.62.73a43 43 0 0 1 14.09 14.47 37 37 0 0 1 5.13 16.2c-1-1.75-2.12-3.42-3.37-4.87zm-91.28 47.66a55 55 0 0 0-3.64-13.62c-.88-2.09-1.9-4.13-2.92-6.17l-2.23-4.52q-.46-1.26-.88-2.52 5.56-.78 11.1-1.78a332 332 0 0 0 35.58-7.55q2.54-.54 5.06-1.2l.38.1q1.1.42 2.17.9 1.31.73 2.59 1.53 1.6 1.13 3.08 2.37 2.14 1.97 4.12 4.11 1.92 2.26 3.65 4.66 1.84 2.68 3.5 5.44a105 105 0 0 1 2.8 5.37q1.29 2.8 2.42 5.68a91 91 0 0 1 1.48 4.3q-1.4.59-2.85 1.12a48 48 0 0 1-5.8 1.63 95 95 0 0 1-6.18 1.83c-8.34 2.48-16.94 4.19-25.54 5.66-9 1.52-18.08 2.64-27.16 3.5-.14-3.64-.28-7.3-.78-10.87zm-78.25 12.32q-.43.01-.86-.04-.31.01-.59-.05a367 367 0 0 1-27.56-2.6 224 224 0 0 1-25.16-4.63l-1.73-.4q-2.58-.6-5.14-1.35-1.24-.22-2.47-.5v-.76c.17-4.16.5-8.27 1.26-12.36a76 76 0 0 1 1.8-6.13c.77-1.83 1.6-3.56 2.48-5.32a85 85 0 0 1 4.23-7.27l1.07-1.35q.7-.75 1.5-1.45.95-.75 1.92-1.45l1.64-.98a87 87 0 0 0 9.45 1.93c15.26 3.09 31 4.94 46.6 6.3a86 86 0 0 0-3.26 16.06 200 200 0 0 0-.71 22.57q-2.23-.1-4.45-.24z"/><path fill="#fff" d="M344.93 169.47a11.4 11.4 0 0 1-6.15-7.63c-3.04-1.33-2.4-5.37-2.6-8.12.44-6.2 6.64-9.94 7.97-15.95 1.09-2.8.54-6.03 1.85-8.74 2-3.9 6.9-2.42 8.5 1 2.98 6.84 1.22 14.85 1.4 22.12-.44 5.18 1.05 11.54-3.27 15.44-1.97 1.95-5.01 3-7.68 1.9z"/><path fill="#fff" d="M339.75 176.95a79 79 0 0 1-14.42-12.88c-2.7-4.18-1.04-11.19 4.23-12.26 5.44-1.07 16.7 5.32 13.92 11.7 2.93 2.87 4.97 7.28 2.93 11.23a4.65 4.65 0 0 1-6.66 2.2"/><path fill="#fff" d="M342.46 177.71c-1.76-.97-2.38-3.18-1.93-5.03.14-.6.4-1.07.72-1.55q-.4-.87-.93-1.64c-7.06-2.97-.2-13.25 4.94-6.03 7.3-.26 3.44 17.3-2.83 14.28zm21.2-8.53a11.4 11.4 0 0 0 6.15-7.63c3.04-1.33 2.4-5.37 2.6-8.12-.44-6.2-6.64-9.93-7.97-15.94-1.1-2.8-.55-6.04-1.85-8.75-2-3.9-6.9-2.42-8.5 1-2.98 6.84-1.22 14.85-1.4 22.12.44 5.18-1.05 11.55 3.27 15.44 1.97 1.95 5.01 3 7.67 1.9z"/><path fill="#fff" d="M368.83 176.66a79 79 0 0 0 14.43-12.88c2.7-4.18 1.04-11.19-4.23-12.26-5.44-1.06-16.7 5.33-13.93 11.7-2.92 2.87-4.96 7.29-2.92 11.23a4.65 4.65 0 0 0 6.65 2.21"/><path fill="#fff" d="M366.1 177.4c1.76-.98 2.38-3.19 1.93-5.04-.14-.6-.4-1.07-.71-1.54a10 10 0 0 1 .92-1.64c7.06-2.97.2-13.26-4.94-6.04-7.3-.26-3.44 17.3 2.83 14.28z"/><path fill="#9bc2f6" d="M347.2 171.33a574 574 0 0 0-12.57-12.64c-1.71-2.19-4.87-3.76-4.35-6.99.22-2.9 3.8-4.92 5.97-2.54 3.94 4.63 8.74 8.53 12.83 12.97 2.13 2.14 5 4.66 3.08 7.94-.95 1.73-3.35 2.63-4.96 1.23z"/><path fill="#9bc2f6" d="M352.34 166.8c-1.24-1.23-1.26-2.89-1.28-4.5-.36-9.87.19-19.75-.9-29.59-.32-2.97-1.15-7.81 2.8-8.62 2.18-.26 3.82 1.47 4.08 3.56.55 10.58 1.12 21.1 1.05 31.7-.1 2.5.76 5.42-1.14 7.44a3.2 3.2 0 0 1-4.61 0z"/><path fill="#9bc2f6" d="M357.89 173.68c-4.66-4.11 1.59-8.67 4.18-11.7 3.35-3.98 6.6-8.04 10.22-11.8a4.2 4.2 0 0 1 2.28-1.4c3.35-.48 4.96 3.78 3.47 6.37-1.72 2.37-4.6 4.75-6.11 6.81q-4.53 5.47-9.24 10.77c-.98 1.64-3.26 2.18-4.78.95z"/><path fill="#c37f45" d="M253.33 360.06c-.43 2.02-1.5 3.56-4.28 3.02-1.85-.86-2.54-2.5-2.7-4.4q3.49.92 7 1.38zm15.29-36.37q.04.3.04.66.01.34-.04.7-.02.16-.07.35c-1.05.02-2.1-.03-3.12-.26-2.44-.31-4.82-.9-7.05-1.7a22 22 0 0 1 3.2-2.51 5.3 5.3 0 0 1 4.9-.38q.63.31 1.1.8a4 4 0 0 1 1.04 2.34m-29.52-26.9c4.77.21 4.66 8.15.05 8.7h-.9a38 38 0 0 1-3.1-8.2q1.97-.28 3.95-.5m202.3 22.96q-1.71.6-3.42 1.07c-1.66.4-3.66 1.23-5.51 1.45a5 5 0 0 1-2.76-.36l-.14-.38q-.15-.42-.22-.83c-.28-1.85.76-4.09 2.55-4.68q.25-.11.54-.12.22-.04.48-.05.81.2 1.59.48l.93.33q3.16 1.18 5.98 3.09zm18.81 31.33q-.25 1.08-.97 1.95a3 3 0 0 1-3.95.38q2.5-1.07 4.92-2.33m1.27-56.71q1.98-.24 3.95-.24a119 119 0 0 1-2.33 6.94q-.3.76-.69 1.5a5 5 0 0 1-1.43-.33c-2.99-1.64-2.66-6.63.48-7.9z"/><path fill="#284f81" d="M108.04 352.32c-.15-1.95 1.04-4.23 3.04-4.59q4.8-1.34 9.6-2.73 2.71-.77 5.44-1.62c.88-.28 1.75-.5 2.63-.83l-.47.2-.43.25-.43.34-.19.21a3.3 3.3 0 0 1 3.14-1.05c1.47.34 2.47 1.7 2.73 3.14a4.7 4.7 0 0 1-1.33 4.35 3.3 3.3 0 0 1-2.4.9h.53q.17-.02.33-.07c-.83.19-1.64.45-2.47.69-1.83.5-3.64 1.05-5.44 1.57q-4.92 1.45-9.84 2.94-.45.15-.9.15c-1.93 0-3.38-1.93-3.5-3.8zm45 18.65c-5.27-.88-10.6-4.16-12.11-9.56-.79-3.96-2-19.1 2.8-20.24 1.33-.07 2.16 1.1 2.5 2.26 1.56 4.44 1 9.12 1.3 13.73-.07 2.8 2.6 4.18 4.87 5.06 12.38 4.18 11.2-9.74 10.53-17.77-.26-3.42-1.78-9.15 3.01-9.88 3.5-.15 3.83 3.87 3.85 6.44 1.67 12.56 1.17 32.93-16.75 29.95m-6.91 12.34a3 3 0 0 1-1.64-.62c-2.6-1.35-5.33-2.42-7.99-3.58q-5.35-2.36-10.73-4.69c-7.06-3.06-14.1-6.22-21.2-9.24q-2.22-.96-4.46-1.87c-1.57-.67-2.4-2.6-2.24-4.23.07-.81.29-1.52.72-2.21v-.03c.85-1.35 2.63-2.16 4.15-1.45 6.13 2.86 12.33 5.54 18.51 8.25 7.18 3.13 14.3 6.34 21.48 9.45 1.45.62 2.87 1.29 4.35 1.83a3 3 0 0 1 1.11.45c1.67 1.1 2.17 3.4 1.55 5.2-.5 1.48-1.8 2.76-3.42 2.76h-.24z"/><path fill="#284f81" d="M143.36 455.46q-.01-.33.05-.64c.1-1.9.07-3.83.07-5.73v-11.02l-.16-22.95-.17-18.13c-.05-5.63-.2-11.24-.29-16.85-.02-2.04 1.45-4.27 3.61-4.37 2.14-.1 3.69 2.04 3.6 4.06-.03 7.32-.08 14.62-.03 21.93.05 7.63.05 15.26.1 22.86.04 5.9.04 11.76.11 17.65.07 4.09.03 8.18.26 12.24v.02c.03.22.05.4.05.62 0 2.04-1.42 4.28-3.6 4.4h-.15c-2.14 0-3.47-2.1-3.47-4.07z"/><path fill="#284f81" d="M143.73 382.7c-.2-1.73.6-3.65 2.16-4.5q.71-.4 1.43-.41c1.09-.2 2.18-.53 3.25-.76a609 609 0 0 0 15.68-3.95c.4-.1.81-.26 1.24-.33 1.92-.26 3.47 1.02 3.92 2.88.47 2.04-.48 4.56-2.54 5.3-1.22.42-2.57.61-3.83.9q-3.25.75-6.51 1.56c-3.35.81-6.7 1.6-10 2.5-.4.19-.86.3-1.3.3h-.08c-1.9 0-3.23-1.73-3.42-3.5z"/><path fill="#7e3318" d="M165.37 395.37c-4.85-.83-2.6-7.72-2.78-10.7.26-2.8-.34-5.86 1.16-8.38 2.43-3.5 6.94-.86 6.42 2.97-1.74 4.49 1.9 16.01-4.8 16.13z"/><path fill="#7e3318" d="M247 433.86c-1.28-.05-2.5-.29-3.73-.64-2.42-.67-4.75-1.71-7.06-2.69q-6.76-2.8-13.54-5.63-14.02-5.9-28.03-11.71c-8.72-3.61-17.44-7.27-26.14-10.79l-.1-.05-.28-.12c-1.02-.4-2.06-.87-3.13-1.18a3 3 0 0 1-1.05-.31c-1.78-.88-2.38-3.14-1.92-4.97.45-1.75 2.04-3.37 3.99-3.13q.93.11 1.57.66.86.43 1.73.79l3.25 1.4 6.78 2.85 13.75 5.73q14.14 5.88 28.3 11.66l13.59 5.6q3.35 1.38 6.68 2.79c2.4 1.02 4.84 2.11 6.84 3.82q.3.24.54.48c.48.38 1 .69 1.36 1.16.83 1.07.8 2.6-.1 3.64a2.4 2.4 0 0 1-1.68.76h-.05c-.52 0-1.02-.15-1.54-.15z"/><path fill="#7e3318" d="M162.24 398.86a4.7 4.7 0 0 1-.2-4.3c0-2.45 1.27-5.53 4.16-5.27 6.78 1.09 1.53 16.53-3.96 9.57m3.37-17.94a3.8 3.8 0 0 1-1.95-2.5 4.8 4.8 0 0 1 .38-3.53c.48-.93 1.4-1.83 2.45-2.02.83-.14 1.64-.38 2.45-.55q2.5-.57 5.01-1.19 5.77-1.37 11.55-2.78 12.37-3 24.7-6.1l10.6-2.66c2.95-.76 5.9-1.48 8.32-2.21q.27-.1.52-.17.68-.4 1.43-.45c1.95-.12 3.37 1.57 3.63 3.37a4.6 4.6 0 0 1-2 4.59q-.82.48-1.73.47c-3.01.48-5.98 1.33-8.93 2.07-3.97.98-7.94 2-11.9 2.97-8.22 2.07-16.44 4.13-24.64 6.27-5.94 1.55-11.93 3-17.32 4.52q-.65.22-1.28.24-.65 0-1.29-.29z"/><path fill="#648a3b" d="M439.58 366.74c1.54 1.3 2.09 3.65.5 5.18-.5.23-1.05.45-1.57.66q-2.14.8-4.42 1.33h-.1c-3.82.88-7.84 1.28-11.61 1.8-10.79 2.07-21.72 2.88-32.67 3.29-19.34 1.16-38.73 1.92-58.12 1.54-15.84-.48-31.86-2.07-47.56-4.04-5.25-.5-10.67-1.62-15.87-2.47h-.07l-.2-.02-1.85-.29q-.28-.01-.57-.1a5 5 0 0 1-3.51-1.97 3.5 3.5 0 0 1-.64-1.75 3 3 0 0 1 1.35-2.71c1.23-.86 2.76-.81 4.23-.6l.26 2q.19 0 .38.05c11.55 1.64 23.12 3.04 34.71 4.32 40.06 2.5 81.04 2.19 120.8-3.7q5.58-.46 11-1.76 0-.73-.08-1.48c1.66-.47 3.38-.71 4.87.17q.37.2.7.5z"/><path fill="#c37f45" d="m275.3 319.27-.26.57c-.33 1.29-.86 2.8-1.73 3.85a3 3 0 0 1-2.55 1.5q-.5.08-1.04.12l-1.14-.29q-.22-.04-.43-.1c-1.95-1.04-2.5-2.94-1.71-4.37q.39-.8 1.35-1.3.51-.29 1.2-.43c1.4-.28 2.82-.17 4.22.07l2.07.4zm160.26-2.5c2.14 2.9-.14 4.5-3.06 5.49a5 5 0 0 1-2.76-.36 2 2 0 0 1-.48-.28l-1.51.5q-.12.02-.22.07c-.3-.17-.62-.43-.85-.71a42 42 0 0 1-1.72-4.5c1.38-.26 2.76-.54 4.12-.75q.35-.08.7-.12.8-.16 1.7-.26c.3-.05.64-.08.94-.1.9-.05 1.79.07 2.55.52q.25.15.47.38.08.06.12.12m-168.62 49.88.26 2c-1.56-.2-3.44-.3-4.7-1.24q-.45-.34-.8-.86a3.1 3.1 0 0 1 .7-4.35c.6-.47 1.24-.71 1.93-.85 1.6.57 2.7 2.42 2.47 4.23q.08.53.12 1.07zm169.31-6.8c3.5-.67 6.75-.48 6.32 3.85-.42 1.28-1.54 1.92-2.75 2.23l-.95.29q-2.4.72-4.8 1.28 0-.71-.07-1.47.01-.38-.05-.76c-.31-1.24.05-2.5.76-3.47h.17a4.5 4.5 0 0 1 1.2-1.88c.03 0 .08-.05.1-.05z"/><path fill="#638a3b" d="M338.54 395.06c2.87 2.5 6.86 6.8 4.22 10.74-1.68 2.33-4.91 1.14-5.94-1.11-4.25-7.49-20.45-7.04-26.37-1.95-2.47 1.83-3.18 6.53-6.86 6.08-2.95-.55-3.97-4.73-2.16-6.94 1.06-1.19 1.78-2.61 2.82-3.82 7.27-8.96 25.4-9.72 34.33-2.97zm70.29 9.54c-.8-.58-1.21-1.5-1.71-2.36-1.66-2.54-4.49-4-7.32-4.92-7.22-1.4-15.99-1.97-21.95 3-2.4 2.6-9.27 8.5-8.22.78 3.8-14.83 24.2-15.44 35.87-10.29 3.85 1.97 7.75 5.3 8.8 9.62.54 3-2.64 6.25-5.47 4.14zm-142.07-25.81c-.53-1.76.3-3 1.59-3.74q.02.17.07.34c.19.92.36 1.83.6 2.73q.22.96.5 1.9.13.57.3 1.14v.05c-1.35-.33-2.54-.98-3.09-2.45zm157.39-4.71s.1 0 .16-.02v.02zm9.89-.76c.1-.85.19-1.68.16-2.54q-.02-1.2-.14-2.4c0-.19-.05-.38-.07-.57 2.64-.17 4.94.45 4.99 3.64-.3 1.8-2.28 2.85-4.04 2.7q-.49.16-.97.27.06-.56.07-1.12z"/><path fill="#638a3b" d="M266.07 381.12c-3.95-.6-3.66-7.03.16-7.65a3.3 3.3 0 0 1 1.9.19q.12.87.29 1.7c.19.94.36 1.84.6 2.74l.47 1.78a3 3 0 0 1-2.57 1.31q-.39.01-.85-.1zM411.06 246c-26.13-29.16-68.73-32.13-102.38-14.95a187 187 0 0 0-9.02 5.1c-1.81 1.34-4.64 2.17-6.32.22-1.86-2.28.11-5.25 2.44-6.22 36.14-22.53 84.18-24.66 116.68 5.44 1.69 1.78 3.73 3.28 5.18 5.25 2.19 3.63-3.51 7.77-6.56 5.13z"/><path fill="#c27f45" d="M311.8 293.25q.54 2.33.43 4.64l-1.85.02c-.97 0-1.88.05-2.75-.47-2.24-1.31-2.71-4.42-1.34-6.42q.47-.64 1.2-1.12c.82-.5 1.82-.38 2.77-.38h.29q.82 1.85 1.26 3.71zm88.28.17c.29 2-.78 4.4-2.97 4.7l-.4.03q-.5 0-.95-.15-.2 0-.38-.02h-.34v-.33c.03-2.62.62-5.32 1.86-7.87 1.7.27 2.97 1.98 3.2 3.69z"/><path fill="#c27f45" d="M310.57 289.55c.55 1.21.98 2.47 1.26 3.7-.78.63-1.8.93-2.83.65-1.4-.38-2.28-1.55-2.66-2.88a4 4 0 0 1-.14-.7q-.06-.44-.05-.87c0-.73.2-1.5.34-2.2a73 73 0 0 1 .61-2.88 12 12 0 0 1 2.76 3.73q.39.71.74 1.45zm90.67 5.25v.3q.01.29-.04.56-.04.3-.15.61-.07.25-.16.46a3.6 3.6 0 0 1-1.88 2q-.57.25-1.12.25h-.16q-.65 0-1.29-.28a3 3 0 0 1-1.06-.76q-.19-.15-.34-.36c.03-2.61.62-5.32 1.86-7.86q.28-.57.59-1.14a12 12 0 0 1 2.54-3.57q.08.3.12.57c.38 1.67.64 3.3.8 5a46 46 0 0 1 .3 3.86q-.01-.13-.05-.26-.01-.18-.05-.35l-.17-.57.07.3q.08.31.12.62c.03.22.05.4.05.62z"/><path fill="#5d2f1c" d="M353.46 277c-3.57-2.47-7.8-5.56-8.1-10.29-.65-3.72 2.94-6.05 6.27-5.27 2.9.26 5.8 0 8.7.05 2.8.05 4.87 3.87 4.01 6.41-1.62 4.38-5.25 11.4-10.88 9.13zm-82.2 39.63c-2.71-.9-5.04-2.83-7.65-4.02a3.9 3.9 0 0 1-2.95-2.42c-.9-2.28.14-5.1 2.64-5.75 2.11-.3 4.04 1.24 5.84 2.1 1.62 1.04 3.52 1.58 5 2.84 2.42 2.4.9 7.91-2.86 7.27zm5.84-12.54c-2.1-1.6-4.16-3.3-6.56-4.44-2.1-.62-2.85-3.4-2.38-5.26.53-2.2 2.9-3.73 4.95-2.58v-.03c3.65 2.64 11.7 5.3 8.93 11.07-1.02 1.86-3.26 2.47-4.97 1.24zm-18.41-3.73c-2.45-2.71-7.08-3.57-8.37-7.15-.78-2.52 1.17-5.97 4.07-5.4 2.44.88 4.15 2.9 6.44 4.16 1.63 1.14 3.54 2.38 3.73 4.59.5 3.32-2.97 6.39-5.87 3.8m-9.11 9.14c-2.57-1.4-6.51-2.15-6.35-5.81 0-1.86 1.14-3.85 3.1-4.18 1.94-.24 3.39 1.25 5.08 1.9 2.11.76 3.85 2.47 3.82 4.82a3.7 3.7 0 0 1-5.68 3.3zm16.15-22.66c-2.85-2.42-8.18-5-5.73-9.5 1.17-2.14 3.9-2.55 5.54-.72 1.76 1.67 4.04 2.83 5.37 4.85 2.09 3.5-1.55 8.34-5.2 5.4zm-26.11 5.92c-.9-.6-1.78-1.29-2.76-1.74-2-.93-2.47-3.75-1.73-5.6s2.87-3.17 4.75-2.05c1.69 1.16 3.63 2.1 4.8 3.85 2.23 3.5-1.36 7.96-5.04 5.51zm11.24-11.06c-2.3-1.97-5.2-3.84-6.23-6.84-.95-2.82 2.07-6.5 4.9-4.42 1.82 2.71 5.94 3.64 6.43 7.2.46 2.83-2.28 5.7-5.08 4.06zm8.46-14.84c-2.36-1.88-5.87-3.94-4.87-7.5.54-2.15 2.8-3.78 4.96-2.62 2.73 2.04 6.42 5.01 5.11 8.86-.71 2.12-3.56 2.23-5.2 1.26m4.55-16.06c-1.78-.02-3.06-1.5-3.54-3.09-.47-1.12-1-3.09.62-3.52a5.5 5.5 0 0 1 3.4.86c2 1.26 2.66 5.6-.45 5.75z"/><path fill="#5d2f1c" d="M249.21 264.9c-3.2-1.7-7.58-4.34-5.32-8.57 2.47-4.26 7.3-.12 9.27 2.54 1.9 2.97-.1 7.41-3.95 6.03m10.46-15.13c-2.38-1.54-4.25-3.66-3.06-6.65.64-1.62 2.49-3.02 4.27-2.26 2.21 1.2 4.51 3.07 4.92 5.68.71 3.73-3.47 6.01-6.13 3.23m.8-14.94c-1.35-.42-2.37-1.78-3.66-2.42-2.85-2.04-1.75-7.75 1.98-7.82 2.37.34 4.32 2.38 5.67 4.2 1.79 3-.19 7.37-3.99 6.04m4.17-19.75c-1.07-.64-2.42-1.3-3.11-2.35-2.21-2.75.05-8.12 3.87-6.77.76.28 1.24.88 1.83 1.33 1.19.76 2.42 1.57 2.9 3 1.54 3.65-2.07 7.15-5.51 4.8zm10.28-16.82c-1.26-.47-2.21-1.45-3.23-2.28a3.5 3.5 0 0 1-2.1-1.95c-1.01-2.11-.16-5.44 2.4-5.86 3.47 0 8.08 4.15 7.51 7.84-.33 2.18-2.73 2.97-4.56 2.25zm11.76-11.8c-2.94-1.57-7-7.3-3.9-10.32 2.84-2.68 5.12.76 6.7 2.93 2.53 2.56 1.84 8.86-2.77 7.39zm11.62-11.31c-1.04-1.43-2.33-2.83-2.9-4.54-.73-2.61 1.07-5.7 3.97-5.4 2.54.55 3.8 3.86 4.78 6.02 1.16 3.94-2.69 7.27-5.85 3.94zm15.76-9.6c-1.31-.67-1.95-1.93-2.67-3.14a4 4 0 0 1-1.66-2.7c-.26-2 .95-4.07 3.07-4.21 3.25.24 6.27 5.1 5.44 8.22-.34 1.95-2.55 2.83-4.2 1.83zm-12.56-3.61c-1.99-1.76-3.49-4.66-3.25-7.34.57-4.45 6.2-4.9 7.03-.36 2.19 3.28 1.81 11.52-3.77 7.67zm-13.55 13.76c-2.45-2.8-4.84-6.66-4.8-10.5.17-2 2-3.93 4.09-3.57 2.28.33 2.85 2.7 3.37 4.6.95 2.1 1.97 2.98 2.54 4.86.98 3.04-2.2 6.77-5.22 4.6zm-35.21 202.06c-2.26-.78-3.37-3.73-1.55-5.51 1.88-1.71 4.7-1.3 7.04-1.9 2.82-.29 6.32-1.26 8.62.92 2.85 2.88-.47 6.8-3.94 5.8-3.57-.16-6.82 1.74-10.17.72zm6.27 13.34a3.2 3.2 0 0 1-1.66-3.64c1.28-3.32 6.22-3.37 9.22-4.37 4.04-.88 7.3 4.28 2.87 6.32-3.44.55-6.91 3.56-10.4 1.69zm-11.07-4.57c-2-.8-3.28-3.16-1.88-5.08 1.74-2.07 4.9-1.9 7.34-2.47 3.5-.81 6.99 3.47 3.3 5.82-2.8.8-5.81 2.87-8.78 1.73zm-10.47-12.52c-3.3-1.83-1.78-6.15 1.76-6.3 1.97.05 4.06-.47 5.98-.11 2.35.47 3.88 3.49 1.97 5.32-1.14 1.19-3.04 1.3-4.58 1.52-1.69.21-3.56.57-5.1-.43zM391.7 165.95c-1.05-2.28.8-4.32 1.99-6.1 1.02-3.76 6.56-4.02 8.15-.76 1.02 1.94-.86 3.84-1.86 5.39-1.3 3.14-6.46 5.18-8.29 1.47m14.29 8.72c-.88-3.82 6.06-8.55 9.36-6.34 1.95 1.07 1.8 4-.1 5.01-1.19.86-2.09 2.07-3.44 2.71-1.88.98-5.06 1.07-5.85-1.4zm14.92 16.66c-4.27-4.68 6.23-10.39 9.08-5.45 1.45 2.2-.47 4.97-2.87 5.28-1.76 1.26-4.47 1.62-6.2.17m9.51 14.52c-1.98-2.5 1.97-4.92 4.27-4.87 1.02-.07 2.88-.38 2.9 1.09-.5 3-4.42 5.6-7.17 3.78m-13.47-26.83c-1.28-3.9 5.68-7.86 8.89-6.32 3.54 1.64 1.8 6.32-1.78 6.32-1.83 1.43-5.75 2.45-7.1 0m-11.48-13.22c-2.5-.99-1.95-4.41-.5-6.08 1.02-2.18 3.94-2.87 6.06-1.9 5.53 2.9-1.22 9.6-5.56 7.99"/><path fill="#5d2f1c" d="M433.37 206.1c-2.67-.54-2.69-2.92-1.07-4.65 2.3-3.47 10.07-3.4 9.2 1.9-1.03 3.2-5.35 3.37-8.13 2.76m6.55 13.97c-1.78-.17-4.08-1.24-3.75-3.45.45-2.97 4-4.04 6.58-4.32 5.37-.33 6.1 6.46.69 7.15-1.16.3-2.3.76-3.52.62m4.12 17.84c-1.81-.24-3.73-1.81-3.19-3.78 1.21-3.45 6.75-4.52 9.74-2.97 2.26 1.23 2.02 4.58-.11 5.8-1.84 1.06-4.33 1.02-6.42.97zm4.18 16.18c-1.75-.38-3.9-1.61-3.18-3.75 1.47-3.61 6.63-4.23 10-3.54 1.93.62 3.28 2.64 2.38 4.63-.8 1.78-3.04 2.66-4.92 2.28-1.4.27-2.83.72-4.28.4zm-.48 16.08c-2.5-2.11.45-5.3 2.88-5.8 3.09-.45 6.1-2.3 9.21-1.83 3.95 1.45 2.24 5.63-1.23 6.42-3.5.95-7.46 3.68-10.88 1.23zm10.12 15.78c-1.92-.08-4.49-1.12-4.04-3.47 1-3.4 5.47-3.76 8.44-3.95 4.28.2 4.68 5.73.43 6.42-1.6.38-3.16 1.04-4.83.97z"/><path fill="#5d2f1c" d="M428.02 320.32c-2.11-4.68 4.61-5.44 7.3-6.28 7.91-2.18 15.56-6.55 19.4-14.1a97 97 0 0 0 4.9-16.4c-.4-2.52 2.47-4.44 4.78-4 2.9.36 4.25 2.93 3.37 5.64a118 118 0 0 1-4.65 15.87c-4.26 10.48-14.62 16.82-25.14 19.74-3.2.79-7.72 3.23-9.98-.5zm9.81-39.49c-2.5-.45-3.94-3.73-1.87-5.56 1.45-1.33 3.4-1.43 5.22-1.88 2.9-.62 7.23-1.76 8.65 1.8 1.17 3.93-3.47 4.8-6.34 5.02-1.85.38-3.75 1.07-5.66.62m3.27-15.93c-3.83-1.25-1.57-5.41 1.23-6.34 2.38-1 5.61-.9 7.04 1.52 2.09 4.83-4.97 6.11-8.27 4.83"/><path fill="#5d2f1c" d="M442.55 294.18c-4.25-1.74-1.47-5.92 1.88-6.42 3.3-.64 8.79-2.61 9.98 2.02.4 2.28-1.72 3.95-3.8 4.11-2.67.22-5.5 1.55-8.06.31zm-3.52 13.4c-5.45-5.16 10.21-9.01 12.35-5.07 1.9 2.5-.86 5.5-3.64 5.11-2.82.64-6.12 1.97-8.72-.05m-11.08-6.97c-4.18-2.48.4-6.25 3.59-6.44 2.54-.76 5.87-2.26 7.84.47 3.54 5.7-7.96 7.87-11.45 5.97zm3.65 15.32c-7.58-3.95 5.4-10.72 7.13-3.74.47 3.78-4.3 4.85-7.13 3.74M280.84 301.2l-.04-.06q-1.28-1.85-2.5-3.69a95 95 0 0 1-9.1-18.03 94 94 0 0 1-5.4-22.97 94 94 0 0 1-.28-15.07q0-.22.03-.45v-.1a93 93 0 0 1 16.03-46.25 92.6 92.6 0 0 1 37.1-31.36q2.02-.96 4.08-1.83c2.04-.86 4.01.95 4.49 2.8.52 2.04-.33 4.5-2.38 5.28q-1.93.76-3.82 1.59a85 85 0 0 0-10.98 6.03 90 90 0 0 0-10.02 7.72 95 95 0 0 0-8.32 8.6 93 93 0 0 0-6.34 8.63 98 98 0 0 0-5.11 9.22l-.2.4a100 100 0 0 0-3.87 9.86 89 89 0 0 0-2.51 10q-.03.25-.1.5a97 97 0 0 0-1.26 10.76q-.2 4.72.1 9.39v.24a93 93 0 0 0 1.28 9.95q1.1 5.44 2.8 10.74a88 88 0 0 0 3.78 9.34 82 82 0 0 0 4.73 8.62c1.1 1.69 2.16 3.42 3.45 4.94l-.34-.38-.4-.35-.43-.29-.48-.21h-.11c1.64.5 2.7 2.23 2.7 4.04 0 2.02-1.37 4.25-3.58 4.25a3.5 3.5 0 0 1-3-1.85"/><path fill="#5d2f1c" d="M296.74 312.54c-5.8.05-11.43-2.85-14.37-7.91-2.33-2.66-3-8.32 1.37-9.17 2.38-.17 3.47 1.73 4.11 3.68 2.12 4.18 7.15 5.56 11.53 4.78 6.63-.79 6.94-8.08 3.56-12.53-3.09-1.8-2.75-7.55 1.1-8.12 2.7-.24 4.72 2.7 5.77 4.82 6.13 10.81.4 25.02-13.07 24.45"/><path fill="#5d2f1c" d="M302 287.62a26 26 0 0 1-2.2-1.73 21 21 0 0 1-4.26-5.9 71 71 0 0 1-4.85-12.28l-.09-.33a69 69 0 0 1-2.33-26.97c1.05-9.55 4.28-18.74 8.96-27.08a86 86 0 0 1 17.53-21.6 115 115 0 0 1 16.63-12.38q1.61-.96 3.19-1.87.47-.4 1.1-.6h.06a3.3 3.3 0 0 1 2.54.29 4 4 0 0 1 1.86 2.66 5 5 0 0 1-.52 3.52c-.29.5-.72.95-1.2 1.28a3 3 0 0 1-.73.38c-.48.24-.93.55-1.35.78l-2 1.17a114 114 0 0 0-12.83 9.17 91 91 0 0 0-8.6 8.29 76 76 0 0 0-11.3 16.28 69 69 0 0 0-3.17 7.34q-1.25 3.58-2.11 7.27a69 69 0 0 0-1.2 7.62 69 69 0 0 0-.2 6.7v.26q.17 3.68.7 7.32c.48 2.85 1.17 5.7 1.81 7.91a71 71 0 0 0 2.85 7.77c.98 2.26 2.12 4.42 3 6.7a29 29 0 0 1 1.26 4.14c.21.97.54 1.92.47 2.92-.07.57-.28 1.16-.83 1.43q-.32.14-.64.14c-.55 0-1.1-.31-1.55-.62z"/><path fill="#5d2f1c" d="M303.76 291.26c-1.14-.05-1.97-.7-2.64-1.57l-.14-.22c-3.92-1.73-3.35-9.8 1.68-9.14 2.12.57 3.16 2.9 4.38 4.53 1.4 2.45-.22 6.47-3.28 6.37zm122.7 10.43.04-.07q1.27-1.85 2.5-3.68a95 95 0 0 0 9.1-18.04 94 94 0 0 0 5.39-22.97c.52-5.06.57-10.12.28-15.06l-.02-.46v-.1a93 93 0 0 0-16.04-46.25 92.6 92.6 0 0 0-37.08-31.36 128 128 0 0 0-4.09-1.83c-2.04-.86-4.02.95-4.5 2.8-.51 2.05.34 4.5 2.38 5.28q1.94.76 3.83 1.59a85 85 0 0 1 10.98 6.03 90 90 0 0 1 10.02 7.72 95 95 0 0 1 8.32 8.6 94 94 0 0 1 6.34 8.63 98 98 0 0 1 5.11 9.22l.2.4a100 100 0 0 1 3.86 9.86 89 89 0 0 1 2.62 10.5 97 97 0 0 1 1.26 10.77q.2 4.7-.1 9.38v.24a93 93 0 0 1-1.28 9.95 99 99 0 0 1-2.8 10.74 88 88 0 0 1-3.78 9.34 82 82 0 0 1-4.73 8.63c-1.1 1.68-2.16 3.42-3.45 4.94l.34-.38q.18-.18.4-.36l.43-.29.47-.2h.12c-1.64.49-2.7 2.23-2.7 4.03 0 2.02 1.37 4.25 3.58 4.25 1.33 0 2.38-.78 3-1.85"/><path fill="#5d2f1c" d="M410.56 313.02c5.8.05 11.43-2.85 14.38-7.9 2.33-2.67 3-8.32-1.38-9.18-2.38-.16-3.47 1.74-4.11 3.69-2.12 4.18-7.15 5.55-11.52 4.77-6.63-.78-6.94-8.08-3.57-12.52 3.1-1.8 2.76-7.56-1.09-8.13-2.7-.23-4.73 2.71-5.77 4.83-6.13 10.8-.4 25.02 13.06 24.44"/><path fill="#5d2f1c" d="M405.29 288.1a25 25 0 0 0 2.2-1.74 21 21 0 0 0 4.26-5.89 71 71 0 0 0 4.85-12.28l.1-.33a69 69 0 0 0 2.32-26.97c-1.05-9.55-4.28-18.75-8.96-27.09a86 86 0 0 0-17.53-21.6c-1.02-.92-2.1-1.82-2.73-2.37q-6.58-5.51-13.9-10l-3.19-1.88q-.47-.4-1.09-.6h-.07a3.3 3.3 0 0 0-2.54.3 4 4 0 0 0-1.86 2.65 5 5 0 0 0 .53 3.52q.44.77 1.18 1.28.34.25.74.38c.48.24.93.55 1.35.79l2 1.16q6.77 4.16 12.83 9.17a92 92 0 0 1 8.6 8.3 76 76 0 0 1 11.3 16.28 69 69 0 0 1 3.17 7.33q1.25 3.58 2.11 7.27a69 69 0 0 1 1.2 7.63c.18 2.42.25 4.87.2 6.7v.26a75 75 0 0 1-.7 7.32 72 72 0 0 1-1.81 7.9 70 70 0 0 1-2.85 7.78c-.98 2.25-2.12 4.42-3 6.7a29 29 0 0 0-1.26 4.13c-.21.98-.54 1.93-.47 2.92.07.57.28 1.17.83 1.43q.32.14.64.14c.55 0 1.1-.3 1.55-.62z"/><path fill="#5d2f1c" d="M403.53 291.73c1.14-.05 1.97-.7 2.64-1.57l.14-.21c3.92-1.74 3.35-9.82-1.69-9.15-2.11.57-3.16 2.9-4.37 4.54-1.4 2.44.21 6.46 3.25 6.36zM364.27 185.8c-5.51-.86-10.24-6.28-9.17-11.96.43-2.94 1.14-7.53 4.9-7.62 2.2 0 3.49 2.42 3.42 4.37-.05 1.64-1.38 3.02-1.31 4.73 1.04 1.66 2.97 2.35 4.87 2.25 1.12-.19 2.3-.14 3.18.7 1.67 1.51 1.83 3.82.81 5.74-1.28 2.43-4.42 2.1-6.68 1.76z"/><path fill="#5d2f1c" d="M338.74 184.25c-4.54-.64-6.1-6.7-2-9.03 1.4-.78 2.93-.2 3.9.9 4.59 1.1 5.32-2.11 5.44-5.84.53-2.93 4.14-2.5 5.47-4.75 3.75-4.14 8.22 2.13 5.18 5.77a11.5 11.5 0 0 1-3.85 3.33c-.78 6.67-7.53 11.88-14.16 9.62z"/><path fill="#5d2f1c" d="M353.9 173.03c-5.4-1.12-3.13-10.79 2.21-8.06 6.37 1.07 4.09 10.98-2.2 8.06m-33.56-5.46c-2.24-1.86-1.33-5.35-1.88-7.94-1.43-8.08 7.03-14.44 14.59-13.4 1.4-2.54 1.97-6.51 5.25-7.22 2.73-.43 4.04 2.8 3.68 5.01-.71 2.64-2.47 5.18-3.3 7.67-.6 3.3-4.18 5.78-6.84 2.88a7.5 7.5 0 0 0-6.25 2.7c-.15 2.07.3 4.12.47 6.19.38 3.23-2.8 6.31-5.68 4.1zm63.51-1.04c-2.73-1.64-1.78-4.85-.97-7.25-.69-4-4.47-7.82-8.48-5.1-4.33.87-5.37-5.02-6.8-7.94-1.85-2.62-.88-7.42 2.85-7.34 3.16.19 3.52 4.01 4.64 6.3 9.33-2.6 17.13 9.64 14.28 17.88-.6 2.38-2.95 5.04-5.52 3.47z"/><path fill="#5d2f1c" d="M336.75 182.84c-3.4-.76-5.9-3.94-8.5-6.13-3.66-3.9-11.48-9.64-8.8-15.6 1.17-2.24 4.5-2.38 5.78-.2 1.19 2.95 3.54 5.59 5.82 7.58 2.64 3.07 6.44 5 8.96 8.06 1.4 2.42-.22 6.39-3.24 6.32zm27.15 1.34c-2.68-2.02-1.54-7.35 1.88-7.68 5.37-2.04 9.67-6.18 13.57-10.26 1.63-1.78 3.06-4.8 5.98-3.78 1.88.6 2.55 3.02 2.26 4.75-1.28 5.01-18.6 20.86-23.66 16.99z"/><path fill="#5d2f1c" d="M378.06 190.97c-10.2-4.09-21.83-4.75-32.67-4.28-3.04.17-7.05.81-9.71 1.66-2.6 1.22-6.58.48-6.85-2.9-.04-2.56 2.76-3.56 4.83-4.06 16.01-3.65 33.73-2.47 49.01 3.57 4.8 3-.43 8.5-4.58 6z"/><path fill="#5d2f1c" d="M332.04 189.19c-5.04-.12-5.35-5.28-1.03-7.03 6.8-2.19 8.6 7.24 1.03 7.03m94.59 132.29c-2.35-5.2-3.28-11.1-6.04-16.42-2.56-6.3 6.09-10.74 6.97-2.8a93 93 0 0 1 4.56 12.78c.78 1.8.97 4.13-.07 5.8q-.94.2-1.83.5-1.28.38-2.55.8-.1.02-.21.07a3 3 0 0 1-.86-.7zm-153.91 2.81q-1.08-.22-2.19-.36l-2.16-.29-.24-.04c-3.42-5.35 9.65-23.43 12.62-26.6 2.82-2.1 6.08 1.15 5.32 4.2-1.5 3.94-5.8 7.43-7.63 11.6-1.14 2.34-2.4 4.62-3.4 7.02-.4 1.54-1.09 3.44-2.35 4.47z"/><path fill="#5d2f1c" d="M265.43 325.14c-17.97-2.3-31.15-18.53-31.39-36.38 0-2.75-1.23-6.72 1.85-8.24 2.26-.97 4.61.95 5.06 3.16.2 3.5.08 6.96.86 10.38 1.95 13.14 14.68 24 28.01 22.76 4.78-.21 5.73 8.03.98 8.37-1.79.23-3.6.33-5.37-.05m-32.09 30.24q.3 1.7-.26 2.8a4 4 0 0 0-1.48-.56h-.02a80 80 0 0 0-.67-2.52c-.45-1.62-.97-3.2-1.44-4.8l-.31-1.05c1.14.22 2.28 1.07 3.23 1.95.26 1.4.52 2.83.95 4.2z"/><path fill="#5d2f1c" d="M379.98 428.34c-9.98-1.45-14.97-8.22-15.47-17.6-5.77.42-11.64.28-17.37.73-.88-.12-1.85-.04-2.85.07-1.16 12.57-9.76 17.13-22.28 16.85-6.3-.55-13.55-1.66-17.4-7.22-2.78-3.28-4.06-7.46-4.32-11.67l-.64-.21a445 445 0 0 1-17.87-4.56c-4.06-.22-8.15-.72-12-2.07-19.76-5.54-36.7-20.81-41.98-40.94-.07-.76.07-1.52.38-2.18.6-1.29 1.86-2.17 3.4-1.9h.02q.88.15 1.48.57a5 5 0 0 0 .26-2.8c-.43-1.39-.7-2.81-.95-4.21l.6.6c2.68 2.75 6.14 4.6 9.73 5.86a56 56 0 0 0 19.25 2.85q1.08.09 1.85.71c1.88.31 3.28 2.38 3.02 4.38.45 3.9 1.1 7.76 1.9 11.35q.31 1.82.93 3.56.06.35.19.7c.07.23.14.5.28.7 0 0 .02.05.05.05a33 33 0 0 0 10.83 14.07q.4.44.62.9 2.01.36 4.11.64c4.97 1.14 9.15 2.5 13.76 3.45 1.61.4 3.4.26 4.77 1.3a5 5 0 0 1 2.14 1.55c1.07-1.28 2.7-2.02 4.35-1.28 8.27.69 16.56.4 24.85.14 2-.12 3.11.97 3.52 2.38q.39-.18.78-.22a10 10 0 0 1 5.23-.64c5.3.05 10.64-.36 15.94-.74 1.78.31 4.32-.35 6.49-.38a4.6 4.6 0 0 1 3.68-.04q.28-.28.64-.48c1.35-.74 2.85-.69 4.32-.64.72.02 1.43.05 2.12 0h5.34c6.56.02 13.17.05 19.56-1.14q.82-.06 1.47.17c1.62-.7 4.42-1.07 9.4-1.4 4.21-.67 7.38-1.05 11.27-2.12 1.74-.76 4.3-.95 5.73.21-1.62-3.68 2.35-10.8 2.37-14.44.36-3.78.64-7.25.72-10.67a14 14 0 0 0 0-3.14c0-1.35-.08-2.7-.15-4.1-.3-1.24.05-2.5.76-3.47h.17c.24-.72.66-1.38 1.21-1.88 2.47-1.74 5.82-1.69 8.6-2.78a76 76 0 0 0 27.75-14.02c3.78-3.8 8.06 1.28 5.47 5.18-10.12 9.36-23.45 14.66-36.64 18.2-.12 2.54-.17 5.1-.26 7.67a63 63 0 0 1-2.5 18.2c-.66 2.74-1.11 7.3-4.58 7.3q-.32.01-.69-.05a4 4 0 0 1-1.42-.8q.18.48.2 1.13c.18 5.94-17.1 6.27-21.78 7.37-.92 14.25-12.16 21.43-24.92 21.43q-2.65 0-5.4-.43zm-3.78-9.57c7.18 4.25 19.74 3.8 24.19-4.11.8-2.1 1.26-3.88 1.52-5.4-4.9.84-9.86.79-14.85.76-2.45 0-4.87-.04-7.3.05a60 60 0 0 0-6.86.17h-.22c.29 3.13 1.24 6.32 3.52 8.53m-65.53-1.78c6.18 4.4 14.9 3.82 21.67 1.25 2.92-1.33 4.2-4.58 4.61-7.72q-.76.41-1.76.43-6.3.2-12.66.1-2-.04-3.97-.03c-3.42 0-6.84 0-10.26-.4q-.38 0-.74-.12c.31 2.45 1.19 4.77 3.11 6.5zm-74.43-52.06c6.74 15.58 17.65 23.85 31.36 28.51-4.06-6.27-6.25-13.78-7.18-21.24-.12-1.05-.38-2.21-.6-3.4-8.35-.33-16.88-1.83-24.27-5.77.21.69.4 1.33.69 1.9"/><path fill="#5d2f1c" d="M305.02 410.7c-5.48-.7-4.32-10.32 1.31-8.32 5.1.71 3.82 9.86-1.3 8.31m32.87.71c-4.65-1.14-3.68-8.81 1.22-8.5 5.53-.36 5.34 8.79-.14 8.5q.24-.08.5-.12l.09-.07c-.5.2-1.1.26-1.66.22zm33.6-10.07c4.78 0 4.78 8.55 0 8.55-4.77 0-4.77-8.55 0-8.55"/><path fill="#284e7e" d="M233.35 355.38q.28 1.7-.27 2.8a4 4 0 0 0-1.47-.56h-.02c-1.55-.26-2.8.64-3.4 1.9a4.5 4.5 0 0 1-1.97-2.97c-.62-3.19-1.14-6.01-3.57-8.32-3.99-5.7-7.39-12-8.74-18.89-.38-2.94-2.5-6.72.21-9.1 1.72-1.35 4.04-.5 5.16 1.2 1.57 3.89 1.4 8.38 3.28 12.25 2.09 5.56 6.15 9.84 9.22 14.75.26.9.43 1.81.62 2.71.26 1.4.52 2.83.94 4.2z"/><path fill="#5d2f1c" d="M229.57 366.3c-2.16-3.36-3.28-7.42-3.66-11.34-.19-2.04.81-4.42 3.02-4.8 4.78-.43 3.85 5.44 5.08 8.43.46 2.33 2.67 4.11 2.29 6.6-.39 3.88-5.02 4.67-6.75 1.1z"/><path fill="#7e3318" d="M333.58 452.4s-.05 0-.07-.03q-.29-.12-.53-.29c-1.02-.52-2.11-.95-3.18-1.4q-2.74-1.17-5.51-2.3l-11.03-4.59q-11.5-4.76-23.04-9.5-23.6-9.73-47.24-19.36c-15.49-6.35-31-12.64-46.5-18.96q-8.5-3.5-17.03-6.97l-8.79-3.56q-2.01-.83-4.09-1.64c-.8-.3-1.82-.6-2.44-1.21a4.7 4.7 0 0 1-.5-5.92 3.8 3.8 0 0 1 2.64-1.61h.16q.8-.05 1.55.33c.73.26 1.47.64 2.16.93q2.66 1.13 5.37 2.25l11.07 4.61 21.79 9a28324 28324 0 0 0 94.3 38.9L319.6 438c5.22 2.11 10.43 4.34 15.42 6.17q.35.16.7.24-.24-.07-.47-.1h-.52q-.1.01-.21.05.44-.07.88 0c2.6.48 3.73 3.38 2.87 5.75a4 4 0 0 1-2.66 2.6q-.37.09-.74.09-.71-.01-1.33-.31z"/><path fill="#7e3318" d="M335.32 465.9c-4.4-.97-2.82-6.36-2.8-9.59.52-3.18-.57-7.22 1.92-9.72a3 3 0 0 1 4.3.45c1.79 2.71.46 6.42.74 9.48-.14 3.28.5 9.34-4.18 9.37z"/><path fill="#7e3318" d="M336.36 451.82c-1.37-.4-2.25-1.76-2.42-3.14a4.6 4.6 0 0 1 1.14-3.7q.7-.72 1.64-.98c.4-.14.86-.24 1.26-.33l2.52-.64c1.95-.48 3.9-1 5.87-1.47q6.21-1.56 12.42-3.07l24.19-5.99c16.2-4.01 32.4-7.96 48.61-12q6.88-1.7 13.76-3.44c3.44-.88 6.91-1.69 9.8-2.54.72-.24 1.46-.38 2.2-.57.8-.34 1.78-.29 2.56.12a4 4 0 0 1 2.04 3.08 4.8 4.8 0 0 1-.83 3.45 3.7 3.7 0 0 1-2.68 1.6c-.7.16-1.38.4-1.6.42-.92.14-1.87.43-2.8.64q-2.5.56-5.01 1.17-5.82 1.39-11.6 2.82-12.06 2.96-24.13 5.99-24.3 6.08-48.66 12.1c-4.9 1.2-9.8 2.46-14.7 3.65q-3.57.89-7.14 1.74l-3.13.78c-.55.12-1.07.29-1.62.38q-.43.11-.83.12a3 3 0 0 1-.83-.12z"/><path fill="#b26b2e" d="M393.73 289.9s0-.12-.03-.17a44 44 0 0 0-.94-4.58 57 57 0 0 0-1.64-4.8 50 50 0 0 0-2.14-4.37q-1.35-2.37-3-4.54a49 49 0 0 0-3.51-4.04 49 49 0 0 0-4.18-3.66l-.12-.07-.05-.05a44 44 0 0 0-4.9-3.16 51 51 0 0 0-5.37-2.47 48 48 0 0 0-7.27-1.95 48 48 0 0 0-6.36-.6q-3.76 0-7.46.58-3.36.6-6.56 1.69-3.38 1.18-6.51 2.87a49 49 0 0 0-5.13 3.4 49 49 0 0 0-4.94 4.44 44 44 0 0 0-3.14 3.83q-1.57 2.23-2.87 4.63a47 47 0 0 0-2.17 4.7 47 47 0 0 0-1.45 4.8q-.28 1.31-.5 2.66l-.07.48q2.7.02 5.4.07 5.7.06 11.43.1c8.31.07 16.65.19 24.99.2q10.37.05 20.76.06h9.96c2.59 0 5.2 0 7.82-.1zm6.3-4.87c-1.1 1-1.98 2.4-2.55 3.56q-.33.57-.6 1.14a18.4 18.4 0 0 0-1.84 7.87v.33q-1.46-.06-2.9-.07-2.92-.06-5.85-.1l-11.62-.07q-12.15-.08-24.35-.05c-7.48 0-14.97.1-22.45.12q-5.06.01-10.1.05c-1.73 0-3.44.05-5.18.05h-.33a18 18 0 0 0-1.69-8.34q-.35-.73-.73-1.45a12 12 0 0 0-2.76-3.73l.1-.38a49.3 49.3 0 0 1 15.25-25.11 47.4 47.4 0 0 1 34.45-11.45c14.2.94 27.49 8.74 35.61 20.36a49 49 0 0 1 7.56 17.22zm-11.61 81c-.4-2.64.14-5.75-.31-8.06-1.14-9.62-2.47-18.84-9.27-25.85q-.4-.38-.66-.87c-16.75 1.16-33.55 1.23-50.32.83q-.8-.07-1.55-.1c-.28.64-.6 1.26-.76 1.93a62 62 0 0 0-2.75 14.94c-.29 4.47-.31 8.96.12 13.4.38 1.5.04 3.47-.9 4.75 12.09.4 24.18.26 36.27.1q15.13.04 30.13-1.07m67.69-29.53c1.57 3.51 5.22 10.28 4.1 14.6a66 66 0 0 1-4.91 2.33 2 2 0 0 1-.52-.47c-1.64-1.85-1.52-4.47-2.4-6.68-2.69-7.31-7.49-14.4-13.93-18.88-1.87-1.17-3.77-2.36-5.86-3.07a3.4 3.4 0 0 1-2.33-1.4c-1.45.38-2.85.64-3.73.93-10.62 1.52-20.96 4.58-31.6 5.86q-3.9.46-7.77.81a32 32 0 0 1 2.85 4.68c3.61 8.63 5.06 18.18 5.4 27.5.04.82.11 1.8.11 2.75a546 546 0 0 0 34.62-4.23c1.52-.22 3.82-.98 6.06-1.38-.03 0-.07.05-.1.05a4.5 4.5 0 0 0-1.2 1.88h-.17a4.2 4.2 0 0 0-.77 3.46q.01.38.05.76.06.74.07 1.48a74 74 0 0 1-11 1.75c-39.75 5.9-80.73 6.23-120.79 3.71a1060 1060 0 0 1-34.7-4.32c-.13 0-.27-.05-.39-.05l-.26-2q-.08-.52-.12-1.06a4.06 4.06 0 0 0-2.47-4.23c1.69-.31 3.59.16 5.23.4 5.87.76 11.69 1.69 17.55 2.33a292 292 0 0 0 29.8 2.75c-2.83-5.32-1.55-24.92 1.78-35.35-16.58-1.1-32.81-2.26-48.97-6.18l1.05-.12a3.2 3.2 0 0 0 2.54-1.5 10 10 0 0 0 1.74-3.84q.12-.3.26-.57c.88.17 1.75.36 2.63.45 35.26 6.27 71.5 6.84 107.1 3.85 12.91-.55 25.17-4.61 37.9-6.2l1.95-.38q.73 2.3 1.71 4.49.38.44.86.71.1-.02.21-.07l1.52-.5q.22.18.48.29c.83.4 1.78.47 2.75.35 1.86-.21 3.85-1.07 5.52-1.45a63 63 0 0 0 3.42-1.07c6.15 4.14 10.9 10.46 14.7 16.75zm-190.7-11.36q1.59.3 3.11.26c-.4 1.85-1.97 3.35-3.99 3.18-8.1 5.9-10.05 17.18-11.02 26.57 0 1.45.12 3.35-.22 4.96q-3.52-.45-7-1.38c-.22-2.23.28-4.77.33-6.7 1.28-10.02 4.06-21.47 11.71-28.53q3.39 1.21 7.06 1.69zm-30.26-27.85a37 37 0 0 0 3.09 8.2c-4.85.12-9.65 1.25-13.28 4.68-1.38 1.61-3.64 3.06-5.64 1.59-3.73-3.52.43-8.22 3.78-10.15 3.54-2.8 7.77-3.73 12.07-4.32zm238.15-1.69c4.9 2.26 16.37 10.01 14.2 16.21-.63 1.69-2.46 2.71-4.15 2.12-1.54-.55-2.28-2.17-3.25-3.4-3.02-3.14-6.44-6.3-10.67-7.58-2.26-.86-4.7-.1-7.01-.38q.37-.75.69-1.5 1.27-3.41 2.33-6.94c2.68 0 5.4.43 7.86 1.45z"/><path fill="#5d2f1c" d="M344.83 286c-4.04.05-6.54-4.96-3.64-7.96a3.2 3.2 0 0 1 4.16-.45c2.11.45 4.4-.73 5.87-2.2.92-1.53 2.28-3.22 4.27-2.84 5.32 1.67 2.3 8.6-1.23 10.65-2.73 1.92-6.08 3.18-9.46 2.8z"/><path fill="#5d2f1c" d="M363.88 287.45a13.2 13.2 0 0 1-9.82-5.46c-1.83-2.52-3.04-6-1.59-8.96 2.3-3.97 7.08-1.14 6.65 2.85a6.4 6.4 0 0 0 4.8 3.14c1 .1 2-.22 2.95.23 4.92 2.17 2.04 9.18-2.97 8.18z"/><path fill="#000" d="M236.57 289.78c-2.24 0-3.57-2.25-3.57-4.27q.01-.5.1-.95a4 4 0 0 1 .54-1.5c.4-.98.72-2 1.05-2.97l1.83-5.1q2.01-5.65 3.99-11.32l8.15-23.23c5.44-15.54 10.93-31.03 16.3-46.6l1.42-4.15c.57-1.64.98-3.62 2.69-4.47 1.02-.5 2.09-.4 2.92.02q.36.22.69.5.66.58 1 1.5c.28.83.4 1.69.28 2.56-.12.93-.54 1.88-.88 2.76q-.95 2.7-1.95 5.42l-3.94 11.17q-4 11.5-8.08 23c-5.51 15.6-11.05 31.19-16.46 46.82-.79 2.26-1.57 4.52-2.28 6.68q-.02.11-.08.19l-.04.14q-.12.3-.17.57l-.05.2-.1.28-.06.23c-.55 1.36-1.71 2.48-3.26 2.48h-.02z"/><path fill="#000" d="M212.82 325.88c-2.52-14.74 4.09-29.92 15.33-39.51 3.04-2.2 8.64-8.04 11.2-2.43 1.06 2.76-.4 5.37-3.06 6.3-11.04 6.91-18.4 20.07-16.6 33.16 1.38 4.95-5.3 7.94-6.87 2.43z"/><path fill="#000" d="M165.18 342.04a3.3 3.3 0 0 1-1.61-2.6c-.1-1.7 1.12-3.04 2.56-3.65l.22-.1h.05l.19-.1.23-.06h.03s.12-.05.19-.05h.1q.1-.01.2-.05l3.24-.76q4.41-1.05 8.79-2.16c7.3-1.83 14.61-3.59 21.9-5.42 4.52-1.12 9-2.38 13.5-3.54h.07c1.95-.5 4.44.43 4.94 2.57.5 2.18-1.35 3.96-3.32 4.46q-.08 0-.15.03c-13.97 3.18-27.84 6.77-41.72 10.33-2 .52-4.04.98-6.03 1.57l.57-.17q.3-.14.54-.23l.31-.2c-.5.3-1.07.5-1.42.6l-.2.02h-.18q-.38.08-.76.08c-.79 0-1.55-.17-2.24-.6zm-55.18 1.7a4.74 4.74 0 0 1-3.96-5.08c.02-1.17-.1-2.36-.17-3.52a39 39 0 0 1 0-6.63c.14-1.45.5-2.87.83-4.3q.53-2.28 1.33-4.44a15 15 0 0 1 2.14-4.06c.83-1.07 1.88-1.95 2.85-2.86a49 49 0 0 1 3.97-3.42c1.6-1.19 3.33-2.16 5.04-3.13 1.75-1 3.73-1.67 5.6-2.36a35 35 0 0 1 5.11-1.4 30 30 0 0 1 5.8-.33c2.09.05 4.13.21 6.15.69 1.9.43 3.76 1.23 5.52 2.04 1.78.83 3.58 1.69 5.25 2.76a29 29 0 0 1 5.15 4.1 23 23 0 0 1 3.92 5.54c1.02 1.95 1.78 4 2.47 6.06q.44 1.4.83 2.83c.27.97.62 2.02.5 3.02a3.3 3.3 0 0 1-1.66 2.56 3.7 3.7 0 0 1-3.63-.19 5 5 0 0 1-1.38-1.2 4.6 4.6 0 0 1-1.03-2.57q-.04-.3-.11-.57a52 52 0 0 0-1.38-4.64q-.46-1.14-1-2.28-.58-1.06-1.23-2.09l-.67-.83q-.72-.75-1.47-1.43-.97-.77-1.95-1.47a34 34 0 0 0-2.73-1.57 50 50 0 0 0-4.8-2.09q-.84-.26-1.71-.45a28 28 0 0 0-2.83-.33q-2.1-.1-4.18 0-1.53.19-3.02.52a49 49 0 0 0-6.04 2.16 33 33 0 0 0-7.77 5.1q-1.27 1.23-2.56 2.43-.47.47-.9.98-.28.38-.5.8-.53 1.15-.95 2.36a45 45 0 0 0-1.28 5.06q-.18 1.24-.24 2.47c-.05 2.95.5 5.87.35 8.62-.14 1.79-1.44 3.16-3.25 3.16l-.45-.02z"/><path fill="#000" d="M165.6 343.48c-4.78-.95-2.4-7.2-3.62-10.62-.4-2.11-1.19-3.73 0-5.65.79-1.22 2-2.21 3.54-2.07 4.19.69 3.61 7.25 4.07 9.98.59 3.2.42 8.5-3.97 8.36zm-57.98 8.69c-.66-3.58-.8-7.7-1-11.23-.4-2.12.43-4.61 2.55-5.47 3.66-1.28 4.96 2.64 4.68 5.56.12 3.14.33 6.32 1 9.36.73 4.92-6.28 7.46-7.23 1.76zm-9.94 89.15c-1.67-.34-2.64-2.12-2.67-3.71 0-3.02.15-6.01.17-9 0-3.45.05-6.87.05-10.32 0-7.6.05-15.23.02-22.83v-18.15q.01-4.45-.05-8.91c0-1.5 0-3-.09-4.5-.1-.56-.07-1.18.07-1.77.38-1.64 1.69-3.19 3.42-3.35a3.3 3.3 0 0 1 3.35 2.11c.36.8.43 1.69.29 2.54-.24 5.87-.14 11.76-.2 17.63q-.02 11.34 0 22.67a4410 4410 0 0 0 .08 26.23c.05 2.3.14 4.6.14 6.91 0 1.67-.85 3.66-2.54 4.3q-.71.27-1.38.29-.31.02-.66-.07z"/><path fill="#000" d="M96.63 364.86c-2.26-1.52-1.71-4.7-1.05-6.94 1.43-4.94 6.16-7.98 11-8.9 3.87-1.24 9.46 1.51 5.8 5.74-2.12 2.66-6.04 1.95-8.72 3.8a3 3 0 0 0-1.43 2.2c.24 2.87-2.87 5.93-5.63 4.15zm46.79 96.15c-11.24-4.72-22.79-8.79-33.86-13.92-3.66-2.11-14-3.7-12.62-9.24 2-4.5 6.9-.98 9.84.45 13.35 6.03 27.2 11.21 40.67 16.82 4.23 3.16.4 8.5-4.03 5.87z"/><path fill="#000" d="M144.79 459.88a3.2 3.2 0 0 1-.62-3.87 4 4 0 0 1 2.1-1.72q.38-.13.63-.19.33-.08.64-.11c2.67-.53 5.3-1.31 7.92-1.98l11.45-2.92 23.8-6.06c8.06-2.04 16.09-4.15 24.12-6.2 7.43-1.9 14.9-3.78 22.3-5.75l6.61-1.78 3.02-.8c.71-.2 1.47-.48 2.21-.55 1.88-.2 4 .66 4.63 2.56.65 1.9-.64 3.57-2.3 4.28-.48.21-1.05.28-1.55.43l-2.75.66-6.1 1.5q-5.56 1.36-11.15 2.8-11.47 2.99-22.95 5.9c-15.92 4.03-31.81 8.17-47.71 12.25-2.97.79-5.99 1.48-8.93 2.36l-.26.11q-.29.13-.58.17h-.02c-.1 0-.19.05-.28.05q-.2.03-.43.1-.28.03-.6.04c-1.18 0-2.4-.45-3.2-1.28"/><path fill="#000" d="m328.58 467.57.19.2.45.3.5.24c-1.33-.64-2.76-1.17-4.14-1.71l-8.31-3.42q-10.35-4.2-20.65-8.46c-14.28-5.82-28.56-11.67-42.86-17.4l-5.72-2.27q-.08-.02-.17-.08h-.05c-1.87-.8-3.04-2.97-1.97-4.84 1.1-1.93 3.7-2.43 5.65-1.64 13.74 5.6 27.42 11.28 41.18 16.9 12.8 5.2 25.63 10.42 38.46 15.58q.97.4 1.93.76c.47.14.95.38 1.35.69 1.14.9 1.74 2.37 1.21 3.77-.64 1.69-2.23 2.45-3.87 2.45-1.14 0-2.3-.38-3.18-1.1z"/><path fill="#000" d="M333.56 469.6c-1.98-.34-3.9-1.96-3.5-4.17.2-.94.74-1.66 1.48-2.16.3-.23.66-.4.92-.47l.22-.1.33-.1.83-.16c2.66-.55 5.3-1.28 7.94-1.9l11.19-2.73q11.25-2.77 22.54-5.58c15.11-3.76 30.2-7.47 45.31-11.22l21.12-5.2q5.02-1.24 10.08-2.38 2.5-.56 5.01-1.16 1.18-.3 2.38-.5a4 4 0 0 1 2.47.3c.05 0 .1.06.14.08q-.11 1.23-.12 2.47v2.09q-.1.21-.19.45-.15.37-.26.74c-.86.33-1.83.52-2.64.74l-5.46 1.44q-5.71 1.52-11.43 2.93-11.58 2.89-23.17 5.75-22.69 5.63-45.42 11.23l-20.46 5.06q-4.78 1.2-9.57 2.43c-2.45.62-4.92 1.19-7.35 1.88-.4.14-.83.23-1.16.26l-.57.04q-.32.01-.64-.04z"/><path fill="#000" d="M454.8 434.21c-.09-1.8 0-3.63-.04-5.44 0-1.42-.1-2.85-.12-4.3-.05-2.04-.05-4.09-.12-6.13q-.1-.76.05-1.47c.07-.55.21-1.1.52-1.57.93-1.38 2.45-2.2 4.09-1.52 1.5.62 2.42 2.23 2.52 3.85.04.33 0 .69-.03 1.04 0 .76.05 1.52.07 2.28l.07 3.76c.03 1.3 0 2.61.05 3.92.03 1.28.1 2.56.14 3.75q-.07 1.13-.09 2.26v1c-.33 1.5-1.3 2.83-3 3h-.35c-2.19 0-3.85-2.31-3.73-4.4z"/><path fill="#000" d="M458.06 418.75c-5.94-1.7-11.26-5.27-16.94-7.72-4.61-2.23-9.48-4-14.07-6.25-1.56-.9-2.51-3.09-1.68-4.77 1.54-2.95 5.08-1.78 7.36-.48 3.04 1.26 6.01 2.64 9.03 3.97 5.54 2.45 10.84 5.42 16.37 7.84 1.9.52 3.75 1.88 3.85 4.02.12 2.09-1.93 3.63-3.92 3.37zm4.07-137.47c-.12-.22-.2-.4-.26-.62v-.05c-.07-.17-.12-.3-.17-.47-.52-1.67-1.14-3.33-1.69-4.97q-1.58-4.75-3.23-9.46l-7.72-22.52c-5.18-15.11-10.29-30.22-15.66-45.26 0-.05-.04-.1-.04-.14-.5-1.4-.38-3.14.47-4.37l.5 1.16.62 1.35c.16.34.28.74.5 1.07s.62.55 1.02.55q.25 0 .47-.12c.34-.17.62-.47.67-.85v-.22a1 1 0 0 0-.29-.9 63 63 0 0 1-1.52-3.45c1.74-.38 3.54.86 4.11 2.55 4.95 15.04 10.2 29.98 15.38 44.97q3.86 11.29 7.79 22.62 2.53 7.5 5.23 15a4.7 4.7 0 0 1-.79 5.31c-.64.62-1.4.9-2.16.9-1.3 0-2.59-.8-3.23-2.06z"/><path fill="#000" d="M472.83 347.07c-1.76-2.47-.52-5.44 1.66-7.13 2.88-3.02 4.75-6.87 6.25-10.71 6.2-16.47-1.69-37.02-17.37-44.93-2.32-2-2.18-6.65 1.1-7.6a3.2 3.2 0 0 1 3.25.97c5.4 2.68 9.65 7.18 13.26 11.93 10.17 14.49 12.3 34.52 3.11 50-2.18 3.33-6.77 12.67-11.24 7.45z"/><path fill="#000" d="M424.4 402.3c-1.82-6 4.45-6.13 8.37-7 21.05-5.4 40.06-27.14 39.08-49.28-.69-2.83 1.4-6.65 4.66-5.35 2.35.98 2.59 3.61 2.47 5.85.64 22.45-14.7 43-34.1 53.1-4.48 2.59-9.52 3.7-14.51 4.82-2.38.86-4.97.67-5.96-2.11zm-295.89-52.2c-1.1-3.67-.38-6.74-.3-10.4.16-4.96 1.94-10.66 7.07-12.5 10.53-2.42 11.83 7.78 11.57 15.66a4.6 4.6 0 0 1-1 3.26q-2.14.56-4.3 1.16a4 4 0 0 1-.8-.64c-2.07-2.54-.7-6.72-1.4-9.76.04-1.29-1.5-2.05-2.6-1.5-1.3.95-1.16 2.8-1.4 4.18-.71 3.18.45 6.6-.45 9.5l-3.42.93-2.61.71a3 3 0 0 1-.36-.6"/><path fill="#000" d="M128.36 348.47c-.74-2.18.19-4.96 2.5-5.72.8-.26 1.68-.43 2.49-.67l3.73-1 3.3-.95c.57-.16 1.14-.28 1.71-.47q.61-.26 1.33-.24c1.74.1 2.97 1.57 3.3 3.18a5 5 0 0 1-.56 3.45l-8.65 2.33-6.06 1.64-1.62.42a4 4 0 0 1-1.5-1.97zM436.07 199.6c-3.28-.95-4.65-5.51-5.99-7.96-11.11-20.52-29.76-36.68-52.12-43.6-3.1-.85-6.2-1.63-9.34-2.25a4.4 4.4 0 0 1-3.23-2.35c-.64-1.26-.14-2.93.95-3.78 2.54-2 5.75-.34 8.53.19 4.51 1.12 9 2.3 13.23 4.28a96.4 96.4 0 0 1 40.6 31c2.9 3.97 18.32 23.8 7.4 24.45z"/><path fill="#000" d="M368.02 145.76c-4.54-1.88-5.11-8.08-6.6-12.21-.65-1.78-.55-4.33-2.2-5.5-1.11.25-1.2.3-2.01.58-1.93 2.61-6.01.83-6.65-2-1.03-3.2 1.97-5.67 4.87-6.15 3.6-1.4 7.55.43 9.78 3.4 3.1 4.27 3.19 9.83 5.28 14.56.8 1.38 1.85 2.64 1.64 4.35-.22 2.11-2.14 3.52-4.11 2.97"/><path fill="#000" d="M338.75 142.86c-1.94-.8-3.32-3.18-2.78-5.25.26-.95.48-1.9.55-2.35.5-4.85 2.1-10.05 6.56-12.66 4.49-2.71 13.11-2.05 13.94 4.18.1 2.3-1.82 4.13-4.13 3.54a5 5 0 0 1-2.02-1.14c-2.35-.6-4.87 1.1-5.84 3.2-1.86 3.43-.05 12.27-6.3 10.48z"/><path fill="#000" d="M267.82 193.38c-3.54-2.54.21-6.58 1.04-9.62 5.25-12.05 14.88-21.63 25.16-29.51a101 101 0 0 1 30.4-15.33c4.65-1.7 9.5-2.68 14.37-3.44 1.63-.26 3.25.3 3.87 1.97 1.4 5.4-4.68 6.18-8.53 6.5-20.22 4.33-39.3 15.07-52.1 31.47a46 46 0 0 0-7.32 12.9c-.79 3.01-3.38 6.93-6.94 5.06z"/><defs><filter id="crests-onboarding-filter0_d_23_3892" width="440.93" height="395.71" x="78" y="102.95" color-interpolation-filters="sRGB" filterUnits="userSpaceOnUse"><feFlood flood-opacity="0" result="BackgroundImageFix"/><feColorMatrix in="SourceAlpha" result="hardAlpha" values="0 0 0 0 0 0 0 0 0 0 0 0 0 0 0 0 0 0 127 0"/><feOffset dx="12" dy="12"/><feComposite in2="hardAlpha" operator="out"/><feColorMatrix values="0 0 0 0 0 0 0 0 0 0 0 0 0 0 0 0 0 0 0.4 0"/><feBlend in2="BackgroundImageFix" result="effect1_dropShadow_23_3892"/><feBlend in="SourceGraphic" in2="effect1_dropShadow_23_3892" result="shape"/></filter></defs></svg>