<svg xmlns="http://www.w3.org/2000/svg" fill="none" viewBox="0 0 600 600"><g filter="url(#crests-platform-features-filter0_d_26_10865)"><mask id="crests-platform-features-path-1-outside-1_26_10865" width="376" height="486" x="94" y="55" fill="#000" maskUnits="userSpaceOnUse"><path fill="#fff" d="M94 55h376v486H94z"/><path fill-rule="evenodd" d="M384.33 72.48c3.97-1.19 8.32-.18 11 3.08 2.72 2.91 3.96 6.93 4.01 10.87q0 .3-.04.57l.71.98 3.9 5.2c2.37 3.19 4.85 6.3 7.25 9.45q6.55 8.58 13.14 17.14c4.47 5.84 8.84 11.75 13.14 17l.4.48.08.09.05.04-.02-.02a5 5 0 0 1 1.3 4.04q.23.72.24 1.46c.07 7.78.33 15.54.58 23.32q.28 10.43.66 20.83c.09 2.57.14 5.12.26 7.69 1.33 2 2.96 3.82 4.05 6.01 2.22 3.05 6.4 19 5.1 27q.4.97.38 2.02c-.05 1.57 0 3.13 0 4.7q-.01 3.34.05 6.7l.18 12.74q.2 12.77.38 25.55c.22 17.69.53 35.38.83 53.07.13 6.56.18 13.14.38 19.68v.46c.02.78.02 1.59.1 2.02l.05.5v.05c.03.2 0 .43 0 .66a5 5 0 0 1-1.47 3.46 5 5 0 0 1-1.96 2.64q-.8.54-1.65.61c-.7.2-1.41.48-2.12.7-1.62.54-3.2 1.1-4.83 1.68l-12.2 4.42c-8.09 2.9-16.15 5.91-24.24 8.9-6.21 2.27-12.43 4.62-18.65 6.92l-10.76 3.98q-.64.43-1.37.56l-.34.08-4.04 1.53c0 5.77.27 11.56.49 17.33 7.7.08 9.32 5.02 10.4 11.62l.35.02c18.18.94 31.94 16.34 34.08 33.93 6.7 2.67 10.13 11.85 6.7 18.24a6.4 6.4 0 0 1-2.82 3.02c-4.17 3.18-9.34 5.02-14.3 6.71-12.97 5.2-27.2 5.16-40.85 3.29v-.03c-7.59-1.17-26.21-4.44-39.63-9.34a37 37 0 0 1 3.01 13.29c4.14 1.02 7.7 4.2 8.8 8.43.72 2.7-.38 6.51-2.44 8.85-.9 3.72-8.15 7.13-10.77 9.07-11.4 7.15-25.1 8.34-38.24 7.45v-.02c-17.54-1.54-35.4-4.98-51.32-12.69-1.65-1-5.7-2.9-9.26-5.14a3.5 3.5 0 0 1-2.24-1.05l-.03-.02c-11.72-7.66-9.35-24.24 1.17-31.82.25-8.57 1.44-19.03 10.18-22.95.76-8.84 1.44-17.05 2.5-25.77l.04-.77c-3.08-1.76-6.1-3.6-9.09-5.3l-.43-.23q-.03 0-.05-.03c-4.02-2.27-8.03-4.57-11.57-6.6l-8.4-4.77c-2.5-1.41-5.02-2.85-7.35-4.2l-1.03-.57-.2-.13q-.84-.46-1.67-.94-.04 0-.08-.05l-.17-.1-.3-.17-.08-.05-.1-.06a3559 3559 0 0 0-21.6-12.2c-3.53-1.97-7.06-3.97-10.57-5.91-2-1.12-3.97-2.23-6.02-3.24l-.24-.11c-45.43-11.76-60.74-76.72-24.8-107.57 1.69-1.27 4.2-3.82 6.66-5.37-1.52-9.2 6.85-18.4 16.42-15.9 1.65-2.23 3.74-4.08 5.52-6.22v-1.5q.08-2.31.12-4.67.15-5.61.25-11.22.26-11.36.59-22.72c.12-4.37.22-8.72.4-13.1q.15-3.08.23-6.18.03-1.62.1-3.24l.02-.45c-.75-1.78-.49-4.15.97-5.44.63-.55 1.34-1 2.02-1.49q1.23-.87 2.45-1.8c2.25-1.63 4.5-3.33 6.72-5 3.72-2.8 7.49-5.58 11.18-8.44l.9-.73a4 4 0 0 1 1.7-1.1c.07-1.81 1.03-3.76 2.85-4.25q.23-.07.43-.18c4.12-1.64 8.24-3.26 12.16-4.8a7625 7625 0 0 0 48.74-19.64c16.56-6.7 33.08-13.36 49.61-20.09q24.49-9.96 48.93-19.94 9.15-3.7 18.27-7.45l9.2-3.8 4.17-1.76.98-.43c.44-.6 1.05-1.1 1.81-1.37m-91.6 425.02h.06q0-.03-.03-.05zm-6.75-.07.29.02-.13-.25zm72.62-36.68q-.37.16-.76.3l.95.13zm-42.14-50.16q-6.14 2.25-12.26 4.6c-7.05 2.65-14.12 5.3-21.12 8.04l-.72.28c-.17 2.19-.73 4.54-.74 6.39 1.01 1.46.7 3.44.3 5.08-.22 2.88.18 5.76.13 8.64 7.13-.4 13.31 5.36 13.93 12.28a10 10 0 0 1 1.71.33q1.09.1 2.15.28c-.28-5.65 2.66-12.78 6.16-15.14.4-9.35 2.45-20.32 10.5-26.13.06-1.45-.08-3.07-.04-4.65m7.7 3.27.07 1.74.2.06-.04-1.82zM153.56 295.5c-1 .76-2 1.55-2.74 2.53a9 9 0 0 0-1.81 3.77q-.3 1.05-1.05 1.77v.02q-.15.44-.18.86c-2.28 6.8-1.5 14.26 1.46 20.83v.33a6 6 0 0 0 .29 1.37 24 24 0 0 0 6.72 7.63l.2-8.64c.15-7.63.22-15.26.35-22.87q.02-2.1-.02-4.18l-.3-.23v-.02c-.81-1.06-1.92-2.09-2.92-3.17M212 217.94c-7.49-4.76-17.77-7.59-25.96-3.37-6 4.1-5.57 12.22-6.24 18.85 2.97-.5 6.07-.35 8.27.49l.11-.04 4.25-1.44q8.42-2.94 16.82-5.93 1.19-.45 2.37-.83l2.97-1.05 1.07-.37q.9-.36 1.89-.8-.46-.64-.99-1.26a29 29 0 0 0-4.56-4.25m199.49-60.15a10324 10324 0 0 0-36.4 14.26l-.15 1.48v.21l-.01.19q.17.8.06 1.57.08.91-.22 1.76l-.1.6-.09 1.39q0 .2-.03.41-.01 1.13.02 2.4c10.29-5.68 23.11-8.15 34.62-5.7 2.53 1 5 2.41 7.12 4.21l-.04-3.66c-.05-4.37-.08-8.74-.2-13.11-.08-2.25-.23-4.53-.23-6.78q0-.5.1-.98zm26.15-20.71-.06-.07h-.03z" clip-rule="evenodd"/></mask><path fill="#fff" fill-rule="evenodd" d="M384.33 72.48c3.97-1.19 8.32-.18 11 3.08 2.72 2.91 3.96 6.93 4.01 10.87q0 .3-.04.57l.71.98 3.9 5.2c2.37 3.19 4.85 6.3 7.25 9.45q6.55 8.58 13.14 17.14c4.47 5.84 8.84 11.75 13.14 17l.4.48.08.09.05.04-.02-.02a5 5 0 0 1 1.3 4.04q.23.72.24 1.46c.07 7.78.33 15.54.58 23.32q.28 10.43.66 20.83c.09 2.57.14 5.12.26 7.69 1.33 2 2.96 3.82 4.05 6.01 2.22 3.05 6.4 19 5.1 27q.4.97.38 2.02c-.05 1.57 0 3.13 0 4.7q-.01 3.34.05 6.7l.18 12.74q.2 12.77.38 25.55c.22 17.69.53 35.38.83 53.07.13 6.56.18 13.14.38 19.68v.46c.02.78.02 1.59.1 2.02l.05.5v.05c.03.2 0 .43 0 .66a5 5 0 0 1-1.47 3.46 5 5 0 0 1-1.96 2.64q-.8.54-1.65.61c-.7.2-1.41.48-2.12.7-1.62.54-3.2 1.1-4.83 1.68l-12.2 4.42c-8.09 2.9-16.15 5.91-24.24 8.9-6.21 2.27-12.43 4.62-18.65 6.92l-10.76 3.98q-.64.43-1.37.56l-.34.08-4.04 1.53c0 5.77.27 11.56.49 17.33 7.7.08 9.32 5.02 10.4 11.62l.35.02c18.18.94 31.94 16.34 34.08 33.93 6.7 2.67 10.13 11.85 6.7 18.24a6.4 6.4 0 0 1-2.82 3.02c-4.17 3.18-9.34 5.02-14.3 6.71-12.97 5.2-27.2 5.16-40.85 3.29v-.03c-7.59-1.17-26.21-4.44-39.63-9.34a37 37 0 0 1 3.01 13.29c4.14 1.02 7.7 4.2 8.8 8.43.72 2.7-.38 6.51-2.44 8.85-.9 3.72-8.15 7.13-10.77 9.07-11.4 7.15-25.1 8.34-38.24 7.45v-.02c-17.54-1.54-35.4-4.98-51.32-12.69-1.65-1-5.7-2.9-9.26-5.14a3.5 3.5 0 0 1-2.24-1.05l-.03-.02c-11.72-7.66-9.35-24.24 1.17-31.82.25-8.57 1.44-19.03 10.18-22.95.76-8.84 1.44-17.05 2.5-25.77l.04-.77c-3.08-1.76-6.1-3.6-9.09-5.3l-.43-.23q-.03 0-.05-.03c-4.02-2.27-8.03-4.57-11.57-6.6l-8.4-4.77c-2.5-1.41-5.02-2.85-7.35-4.2l-1.03-.57-.2-.13q-.84-.46-1.67-.94-.04 0-.08-.05l-.17-.1-.3-.17-.08-.05-.1-.06a3559 3559 0 0 0-21.6-12.2c-3.53-1.97-7.06-3.97-10.57-5.91-2-1.12-3.97-2.23-6.02-3.24l-.24-.11c-45.43-11.76-60.74-76.72-24.8-107.57 1.69-1.27 4.2-3.82 6.66-5.37-1.52-9.2 6.85-18.4 16.42-15.9 1.65-2.23 3.74-4.08 5.52-6.22v-1.5q.08-2.31.12-4.67.15-5.61.25-11.22.26-11.36.59-22.72c.12-4.37.22-8.72.4-13.1q.15-3.08.23-6.18.03-1.62.1-3.24l.02-.45c-.75-1.78-.49-4.15.97-5.44.63-.55 1.34-1 2.02-1.49q1.23-.87 2.45-1.8c2.25-1.63 4.5-3.33 6.72-5 3.72-2.8 7.49-5.58 11.18-8.44l.9-.73a4 4 0 0 1 1.7-1.1c.07-1.81 1.03-3.76 2.85-4.25q.23-.07.43-.18c4.12-1.64 8.24-3.26 12.16-4.8a7625 7625 0 0 0 48.74-19.64c16.56-6.7 33.08-13.36 49.61-20.09q24.49-9.96 48.93-19.94 9.15-3.7 18.27-7.45l9.2-3.8 4.17-1.76.98-.43c.44-.6 1.05-1.1 1.81-1.37m-91.6 425.02h.06q0-.03-.03-.05zm-6.75-.07.29.02-.13-.25zm72.62-36.68q-.37.16-.76.3l.95.13zm-42.14-50.16q-6.14 2.25-12.26 4.6c-7.05 2.65-14.12 5.3-21.12 8.04l-.72.28c-.17 2.19-.73 4.54-.74 6.39 1.01 1.46.7 3.44.3 5.08-.22 2.88.18 5.76.13 8.64 7.13-.4 13.31 5.36 13.93 12.28a10 10 0 0 1 1.71.33q1.09.1 2.15.28c-.28-5.65 2.66-12.78 6.16-15.14.4-9.35 2.45-20.32 10.5-26.13.06-1.45-.08-3.07-.04-4.65m7.7 3.27.07 1.74.2.06-.04-1.82zM153.56 295.5c-1 .76-2 1.55-2.74 2.53a9 9 0 0 0-1.81 3.77q-.3 1.05-1.05 1.77v.02q-.15.44-.18.86c-2.28 6.8-1.5 14.26 1.46 20.83v.33a6 6 0 0 0 .29 1.37 24 24 0 0 0 6.72 7.63l.2-8.64c.15-7.63.22-15.26.35-22.87q.02-2.1-.02-4.18l-.3-.23v-.02c-.81-1.06-1.92-2.09-2.92-3.17M212 217.94c-7.49-4.76-17.77-7.59-25.96-3.37-6 4.1-5.57 12.22-6.24 18.85 2.97-.5 6.07-.35 8.27.49l.11-.04 4.25-1.44q8.42-2.94 16.82-5.93 1.19-.45 2.37-.83l2.97-1.05 1.07-.37q.9-.36 1.89-.8-.46-.64-.99-1.26a29 29 0 0 0-4.56-4.25m199.49-60.15a10324 10324 0 0 0-36.4 14.26l-.15 1.48v.21l-.01.19q.17.8.06 1.57.08.91-.22 1.76l-.1.6-.09 1.39q0 .2-.03.41-.01 1.13.02 2.4c10.29-5.68 23.11-8.15 34.62-5.7 2.53 1 5 2.41 7.12 4.21l-.04-3.66c-.05-4.37-.08-8.74-.2-13.11-.08-2.25-.23-4.53-.23-6.78q0-.5.1-.98zm26.15-20.71-.06-.07h-.03z" clip-rule="evenodd"/><path stroke="#fff" stroke-linejoin="round" stroke-width="34" d="M384.33 72.48c3.97-1.19 8.32-.18 11 3.08 2.72 2.91 3.96 6.93 4.01 10.87q0 .3-.04.57l.71.98 3.9 5.2c2.37 3.19 4.85 6.3 7.25 9.45q6.55 8.58 13.14 17.14c4.47 5.84 8.84 11.75 13.14 17l.4.48.08.09.05.04-.02-.02a5 5 0 0 1 1.3 4.04q.23.72.24 1.46c.07 7.78.33 15.54.58 23.32q.28 10.43.66 20.83c.09 2.57.14 5.12.26 7.69 1.33 2 2.96 3.82 4.05 6.01 2.22 3.05 6.4 19 5.1 27q.4.97.38 2.02c-.05 1.57 0 3.13 0 4.7q-.01 3.34.05 6.7l.18 12.74q.2 12.77.38 25.55c.22 17.69.53 35.38.83 53.07.13 6.56.18 13.14.38 19.68v.46c.02.78.02 1.59.1 2.02l.05.5v.05c.03.2 0 .43 0 .66a5 5 0 0 1-1.47 3.46 5 5 0 0 1-1.96 2.64q-.8.54-1.65.61c-.7.2-1.41.48-2.12.7-1.62.54-3.2 1.1-4.83 1.68l-12.2 4.42c-8.09 2.9-16.15 5.91-24.24 8.9-6.21 2.27-12.43 4.62-18.65 6.92l-10.76 3.98q-.64.43-1.37.56l-.34.08-4.04 1.53c0 5.77.27 11.56.49 17.33 7.7.08 9.32 5.02 10.4 11.62l.35.02c18.18.94 31.94 16.34 34.08 33.93 6.7 2.67 10.13 11.85 6.7 18.24a6.4 6.4 0 0 1-2.82 3.02c-4.17 3.18-9.34 5.02-14.3 6.71-12.97 5.2-27.2 5.16-40.85 3.29v-.03c-7.59-1.17-26.21-4.44-39.63-9.34a37 37 0 0 1 3.01 13.29c4.14 1.02 7.7 4.2 8.8 8.43.72 2.7-.38 6.51-2.44 8.85-.9 3.72-8.15 7.13-10.77 9.07-11.4 7.15-25.1 8.34-38.24 7.45v-.02c-17.54-1.54-35.4-4.98-51.32-12.69-1.65-1-5.7-2.9-9.26-5.14a3.5 3.5 0 0 1-2.24-1.05l-.03-.02c-11.72-7.66-9.35-24.24 1.17-31.82.25-8.57 1.44-19.03 10.18-22.95.76-8.84 1.44-17.05 2.5-25.77l.04-.77c-3.08-1.76-6.1-3.6-9.09-5.3l-.43-.23q-.03 0-.05-.03c-4.02-2.27-8.03-4.57-11.57-6.6l-8.4-4.77c-2.5-1.41-5.02-2.85-7.35-4.2l-1.03-.57-.2-.13q-.84-.46-1.67-.94-.04 0-.08-.05l-.17-.1-.3-.17-.08-.05-.1-.06a3559 3559 0 0 0-21.6-12.2c-3.53-1.97-7.06-3.97-10.57-5.91-2-1.12-3.97-2.23-6.02-3.24l-.24-.11c-45.43-11.76-60.74-76.72-24.8-107.57 1.69-1.27 4.2-3.82 6.66-5.37-1.52-9.2 6.85-18.4 16.42-15.9 1.65-2.23 3.74-4.08 5.52-6.22v-1.5q.08-2.31.12-4.67.15-5.61.25-11.22.26-11.36.59-22.72c.12-4.37.22-8.72.4-13.1q.15-3.08.23-6.18.03-1.62.1-3.24l.02-.45c-.75-1.78-.49-4.15.97-5.44.63-.55 1.34-1 2.02-1.49q1.23-.87 2.45-1.8c2.25-1.63 4.5-3.33 6.72-5 3.72-2.8 7.49-5.58 11.18-8.44l.9-.73a4 4 0 0 1 1.7-1.1c.07-1.81 1.03-3.76 2.85-4.25q.23-.07.43-.18c4.12-1.64 8.24-3.26 12.16-4.8a7625 7625 0 0 0 48.74-19.64c16.56-6.7 33.08-13.36 49.61-20.09q24.49-9.96 48.93-19.94 9.15-3.7 18.27-7.45l9.2-3.8 4.17-1.76.98-.43c.44-.6 1.05-1.1 1.81-1.37Zm-91.6 425.02h.06q0-.03-.03-.05zm-6.75-.07.29.02-.13-.25zm72.62-36.68q-.37.16-.76.3l.95.13zm-42.14-50.16q-6.14 2.25-12.26 4.6c-7.05 2.65-14.12 5.3-21.12 8.04l-.72.28c-.17 2.19-.73 4.54-.74 6.39 1.01 1.46.7 3.44.3 5.08-.22 2.88.18 5.76.13 8.64 7.13-.4 13.31 5.36 13.93 12.28a10 10 0 0 1 1.71.33q1.09.1 2.15.28c-.28-5.65 2.66-12.78 6.16-15.14.4-9.35 2.45-20.32 10.5-26.13.06-1.45-.08-3.07-.04-4.65Zm7.7 3.27.07 1.74.2.06-.04-1.82zM153.56 295.5c-1 .76-2 1.55-2.74 2.53a9 9 0 0 0-1.81 3.77q-.3 1.05-1.05 1.77v.02q-.15.44-.18.86c-2.28 6.8-1.5 14.26 1.46 20.83v.33a6 6 0 0 0 .29 1.37 24 24 0 0 0 6.72 7.63l.2-8.64c.15-7.63.22-15.26.35-22.87q.02-2.1-.02-4.18l-.3-.23v-.02c-.81-1.06-1.92-2.09-2.92-3.17ZM212 217.94c-7.49-4.76-17.77-7.59-25.96-3.37-6 4.1-5.57 12.22-6.24 18.85 2.97-.5 6.07-.35 8.27.49l.11-.04 4.25-1.44q8.42-2.94 16.82-5.93 1.19-.45 2.37-.83l2.97-1.05 1.07-.37q.9-.36 1.89-.8-.46-.64-.99-1.26a29 29 0 0 0-4.56-4.25Zm199.49-60.15a10324 10324 0 0 0-36.4 14.26l-.15 1.48v.21l-.01.19q.17.8.06 1.57.08.91-.22 1.76l-.1.6-.09 1.39q0 .2-.03.41-.01 1.13.02 2.4c10.29-5.68 23.11-8.15 34.62-5.7 2.53 1 5 2.41 7.12 4.21l-.04-3.66c-.05-4.37-.08-8.74-.2-13.11-.08-2.25-.23-4.53-.23-6.78q0-.5.1-.98zm26.15-20.71-.06-.07h-.03z" clip-rule="evenodd" mask="url(#crests-platform-features-path-1-outside-1_26_10865)"/></g><path fill="#c79a81" d="M247.01 472.56c-7.15.63-3.23-14.18-3.97-18.75-.02-10.42-.7-20.88.51-31.27-.3-2.5.4-5.86 3.23-6.44 7.2-6.47 20.6-6.42 23.84 4.2 3.13 8.69 2.57 18.06 2.78 27.16.07 5.89.35 11.8-.3 17.67 0 5.46-6.45 5.56-10.32 7.02-4.93 1.22-11.42 4.43-15.77.4m90.3-29.48c-5.45-.94-11.14-4.2-11.85-10.21-.76-7.86.08-15.8.3-23.66.18-4.57.28-9.14.61-13.7.36-3.38-.12-8.46 3.59-10.03 5.16-16.3 24.87-10.16 30.05 2.73 2.7 8.52.98 17.85 1.16 26.67.68 13.54-7.3 32.92-23.86 28.2m6.65-8.37h.1q.41-.11.79-.27a3 3 0 0 1-.76-.36l-.13.66zm5.61-3.99.38-.48-.25-.13q-.08.3-.13.61m.83-42.1.36-.13-.18-.18-.28-.22q.07.24.1.5zm-4.92-3.24.35-.15-.1-.05q-.3-.13-.63-.25l.38.43z"/><path fill="#c79a81" d="M240.25 444.53c-.73-4.78.15-9.7.1-14.53.66-6.17-1.57-13.55 3.16-18.45.4-1.64 1.09-3.59 2.12-4.95 2.78-2.94 7.08.6 6.3 4.06q-.24 1.29-.3 2.58c-.41 9.6-.29 19.18-.49 28.79.03 2.4-2 5.03-4.62 4.3-1.92 2.5-5.66 1.08-6.27-1.83zm23.65-1.29c-.47-9.02.1-18.14-.63-27.17-3.46-4.17 1.82-11.42 6.1-6.46q.76-.58 1.84-.64c.2-.5.25-1.26.53-1.64l.23 1.7c5.1 1.51 2.58 10.08 2.75 14.1-.33 4.3-.6 8.64-1.16 12.93-.25 2.3-.13 5.1-2.15 6.63-.25 5.18-6.72 5.8-7.48.53zm64.15-27.35c-2.45-1.82-1.95-4.96-2.07-7.63.15-6.2.35-11.15 1.1-16.94.21-5.86 7.41-5.86 7.56 0-.12 7.18-.22 14.36-.85 21.5-.18 2.76-3.37 4.94-5.74 3.07m19.84-8.96a275 275 0 0 0-.28-17.09c-7.25-1.06-1.5-18.3 4.73-12.73a3.7 3.7 0 0 1 2.32-1.55c1.19-.2 2.35.3 3.13 1.2l.28.02c1.62.28 2.83 1.82 3.09 3.38.8.86 1.23 2.08 1.2 3.24-.1 4.35-.45 8.67-.75 13.01-.48 3.84.35 11.12-5.48 10.29q-.34.19-.71.25c-.4 5.74-7.33 5.71-7.5-.02z"/><path fill="#fff" d="M247.07 481.57c-9.95-2.83-10.3-10.15-9.75-19.05.08-7.3-.38-14.91 1.87-21.81a27 27 0 0 0 5.84.1c2.27-.15 4.54-.18 6.82-.35a30 30 0 0 0 6.3-1.24l2.47-.76c1.74-.53 3.51-1.04 5.2-1.72q2.71-1.05 5.36-2.27 2.58-.29 5-1.12.15.57.2 1.27c.19 7.6-.07 15.24-.4 22.82-.32 5.23-.65 10.9-3.76 15.34a25 25 0 0 1-19.38 9.6q-2.92 0-5.74-.76zm-2.17-11.62c.83 2.83 5.84 3.69 8.5 3.46 5.32-.25 11.06-2.83 13.69-7.63 2.25-8.26 1.39-16.73 1.8-25.15-5.82 2.45-12.09 4.05-18.43 3.92-.96 1.92-3 2.25-4.93 1.87-1.03 7.81-.63 15.7-.66 23.55z"/><path fill="#fff" d="M247.16 477.73c-9.25 3.69-6.22-15.11-6.5-20.1.56-3.5-.2-12.86 2.5-16.75q.96-.01 1.88-.1c2.27-.15 4.55-.17 6.82-.35q.99-.08 1.95-.23c.38.94.55 2 .45 3.03.91-.4 1.92-.43 2.86.08q.27.14.5.33.26-.57.69-1.09c.8-.99 1.94-1.6 3.15-1.42 4.88-8.2 11.5-1.44 10.37 5.9-.18 5.9-.69 11.82-1.27 17.73-.1 2.63-1.34 6.37-4.47 6.3-.36 2.04-.56 4.2-1.64 5.99-1.42 2.83-5.51 2.3-6.37-.71a3.24 3.24 0 0 1-4.4 0 4.1 4.1 0 0 1-3.8 2.96 3.2 3.2 0 0 1-2.72-1.57m89.14-26.51c-11.09-1.49-12.12-13.42-11.77-22.47-.23-5.86.05-11.72-.23-17.56a8 8 0 0 1-.15-1.51h1.34c2.1-.06 4.22-.06 6.32-.33l3.49-.48c.93-.13 1.84-.36 2.77-.53 2.15-.43 4.25-.99 6.37-1.55.91-.22 1.8-.55 2.7-.83.87-.28 1.75-.48 2.59-.8l.58-.24.07-.02c3.82-1.31 7.6-2.86 11.25-4.6l.5-.25q.28 1.3.36 2.6c-.2 12 1.66 24.69-2.02 36.29-3.21 8.52-12.9 12.4-21.61 12.4q-1.29 0-2.58-.12z"/><path fill="#506480" d="M283.76 517.04c-8.8-.33-17.28-2.89-25.7-5.24-10.91-2.93-21.68-6.47-31-13.04-2.18-1.34-4.15-2.78-5.7-4.82-4.47-5.92-.37-15.93 6.98-16.91 4.63-.6 5.94 6.72 2.03 8.54 1.54-.15 2.85 1.01 4.04 1.87 7.15 4.95 15.39 8.32 23.78 10.36 14.33 3.74 29.57 5.41 44.22 2.86 5.34-1.34 10.09-4.35 15.42-5.69 4.95-1.82 10.64.96 9.93 6.72-4.77 14.79-30.9 15.65-43.97 15.32zm79.64-35.24c-17.77-3.58-34.83-10.74-50.9-19.03-9-4.4-7.99-18.27 2.65-18.97 3.54-.3 5.18 4.17 3.56 6.92 6.78 3.16 13.53 6.42 19.7 10.69-.51.18-1.35.1-1.95.2 19.96 5.18 52.76 8.22 71.34-1.56 3.36-1.32 6.97 1.23 7.35 4.72.81 17.41-39.5 18.6-51.73 17.06z"/><path fill="#90abce" d="m240.95 458.3.1.18q-.08-.09-.1-.18"/><path fill="#90abce" d="M228.56 483.05c.8-8.98-1.75-21.49 6.8-27.3q.23-.11.5-.2 1.13.14 2.3.2.56.37 1.11.79l.43.35q.5.5.94 1.06l.55.73q.73 1.3 1.55 2.56s.02.05.05.05c0 .05.05.07.05.12q.29.71.5 1.47-.38.38-.88.66c-.69.58-1.5.48-2.3.4-.81-.1-1.57-.18-2.18.4-2.47 6.37-1.26 12.87-1.87 19.39-.35 2.55-2.02 3.76-3.69 3.76-1.92 0-3.84-1.54-3.86-4.42z"/><path fill="#90abce" d="M285 506.43c-11.87-.76-23.55-4.12-34.84-7.79-6.85-1.97-12.11-7.17-18.8-9.32v-.05c-3.98-1.37-3.5-8.62 1.13-8.77 5.84 1.06 10.41 5.48 15.67 7.98 4.27 1.82 8.7 3.26 13.14 4.53 17.16 4.72 35.99 7.45 52.67-.5 2.02-.82 4.04.25 4.85 2.27 2 5.58-3.8 6.87-7.81 8.26-8.29 2.96-17.24 3.82-26 3.36z"/><path fill="#90abce" d="M313.2 498.66c-1.03-1.54-.98-3.16-.95-4.95.27-3.31-.33-6.52-1.42-9.63-2.17-11.52-16.17-16.32-26.2-11.85-3.6 2.45-7.49-.5-6.45-4.63.68-3 4.02-3.91 6.6-4.75 8.92-2.7 19.08-.7 26 5.64 7.03 6.52 9.32 17.1 9.1 26.38 1 3.77-4.05 7.5-6.65 3.82zm-70.63-37.68s.1.18.18.25q-.07-.12-.18-.25"/><path fill="#90abce" d="M309.4 500.16a4 4 0 0 1-2.43-2.68 3.2 3.2 0 0 1-3.06-.66 3.9 3.9 0 0 1-5.5.78c-.7.86-1.6 1.5-2.79 1.5a3.5 3.5 0 0 1-2.85-1.65c-1.44 2.93-5.31 2.63-6.62-.25-2.08 3.2-5.87 3.16-7.59-.35a3.6 3.6 0 0 1-3.48 1.61c-3.52-.6-7-1.44-10.5-2.22-3.56-.84-7.1-1.87-10.5-2.8-2-.71-4.53-.56-6-2.25-2 .88-3.94-.84-5.63-1.75-2.68-1.9-6.34-2.22-8.31-5.03-3.04-4.75-1.42-24 5-25.6.9-.18 1.67-.05 2.35.3.43.71.83 1.44 1.31 2.15q.02.06.08.13a41 41 0 0 1 1.29 4.17q.34 1.44.76 2.9 0 .1.05.2.02.15.07.31.13 1.14.56 2.2c4.57 3.61 11.5 1.7 16.22-.76.96-.6 1.67-1.46 1.77-2.63.66-8.97 2.8-14.53 12.26-16.73 4.1-1.24 9.78-2.32 12.74 1.62 1.82 2.75 1.2 6.32 1.56 9.48.74 2.35-.55 5.43-3.13 5.94q0 .08-.03.15a7 7 0 0 1 1.3-.13c1.36-2.75 5.35-2.4 6.54.3a3.46 3.46 0 0 1 4.47.66q.91-.68 2.18-.68c2.04-.03 3.6 2.02 3.68 4a3 3 0 0 1 1.44-.1c.86.14 1.67.67 2.23 1.38 2.58-2.22 5.99.6 5.81 3.59.1 1.64.05 3.29-.05 4.95 1.42 1.4 1.47 3.47 1.77 5.31.56 2.86 1.39 6.62-1.7 8.34-.32 2.1-1.94 4.47-4.14 4.47q-.52 0-1.08-.17zm-32.78-10.37a4 4 0 0 1 1.21.69v-4.07c-1.72-1.85-1.16-4.5-.86-6.77-1.72 3.03-1.41 6.9-.35 10.1zm-15.22-9.55-.73.28q1.65.7 3.26 1.52.57.25 1.14.55c-.15-1.36 0-2.83.2-4.2a19 19 0 0 1-3.87 1.85m53.3-32.41c-3.2-2.66-1.29-7.48-1.19-11.05 1.04-5.81 2.56-13.7 8.95-15.72a5 5 0 0 1 2.1-.25l1.06.86q.07.08.1.15.36.68.7 1.4.3.48.56.98l.16.43.83 3.18q0 .08.03.13.1.6.25 1.21a3.3 3.3 0 0 1-3.7 1.04c-.22-.1-.45-.18-.67-.33-2.91 3.91-3.01 9.35-3.36 14.05.07 2.27-1.77 4.6-3.87 4.6-.63 0-1.29-.2-1.92-.69z"/><path fill="#90abce" d="M373.02 470.6c-10.92.14-21.84-.84-32.12-4.76-9.28-3.23-17.11-7.28-24.7-13.22-2.67-1.56-3.96-5.2-1.97-7.8a3.53 3.53 0 0 1 5.87.12c11.14 9 25.1 14.48 39.27 16.33 10.92.78 21.96.8 32.57-2.15a71 71 0 0 0 9.08-3.06 3.4 3.4 0 0 1 2.8.28c2.93 1.64 2.78 6.42-.1 8.06a84 84 0 0 1-30.68 6.2z"/><path fill="#90abce" d="M401.99 463.8c-1.52-1.17-1.82-3.14-1.82-4.93-.69-12.36-7.13-22.3-20.25-23-4.24-.68-8.26.74-12.1 2.3-2.6.46-4.9-2.02-4.43-4.6 1.04-5.5 8.37-6.16 12.97-6.75 12.66-.63 25.65 6.78 29.04 19.44.78 4.55 5.36 15.7-.18 18.04a3.4 3.4 0 0 1-3.18-.53z"/><path fill="#90abce" d="M374.37 465.1a7 7 0 0 1-1.77-1.97l-.03-.05c-1.92 2.63-6.62 2.98-7.58-.66-1.26 1.57-3.66 1.87-5.1.28a6 6 0 0 1-1.3-1.94c-3.23 1.41-7.02.96-10.43.43-2.65 2.3-5.79-.38-8.31-1.57-3.97-2.83-8.9-3.84-12.81-6.72-3.34 1.26-6.98-1.72-8.7-4.4-3.03-5.41-.2-27.75 9.35-20.98q.15.14.28.33v.08c.18.9.35 1.87.63 2.78q.29.87.84 1.51a10 10 0 0 0 .6 1.97c3.57 6.73 13.6 4.55 18.22.13 1.85-4.9 0-12.63 6.22-15.11 5.71-1.64 12.69-6.95 18.1-1.92 2.14 2.2 1.92 5.46 3 8.16 2.4 2.6.91 8.14-3.06 7.7 0 .21-.05.41-.07.62 2.53-1.4 5.13 1 5.25 3.56.71-1.42 1.34-2.88 2.18-4.25 1.36-2.62 5.18-2.5 6.26.26 3.09-.74 5.19 2.62 7.06 4.55 3.28-.54 4.67 3.33 4.42 5.98 2.3.64 3.1 3.34 2.85 5.54 2.38 4.02 2.53 11.95-3.33 10.61a4.5 4.5 0 0 1-2.02 1.54 4 4 0 0 1-3.77-.7q-.37.42-.78.8a3.5 3.5 0 0 1-4.02.66c-1.21 2.66-4.83 3.77-7 1.57a4.4 4.4 0 0 1-3.36 1.92 2.7 2.7 0 0 1-1.85-.7zm-35.33-17.71q.56.4 1.16.8.54.39 1.11.76 1.13-1 2.58-1.66.15-.54.46-1.04a23 23 0 0 1-5.31 1.11z"/><path fill="#90abce" d="m341.67 453.99-.61-.81-.05-.06c-6.06.71-6.8-8.64-.91-9.2 2.4-2.57 6.6-2.87 9.93-3.23 7.03-2.42 14.23-4.75 20.75-8.34a7.6 7.6 0 0 1 3.92-1.44c3.61-.43 6.4 3.74 4.55 6.88a3.8 3.8 0 0 1-1.77 1.61c-7.99 2.73-15.85 6.6-24.04 9.28a7 7 0 0 1-3.26 2.17q-.9.37-1.84.7c-.05 3.44-4.52 5.54-6.67 2.44m-65.35 38.08c-2.37.5-4.52-1.85-4.75-4.05a53 53 0 0 1-4.12 2.68c-2.95 1.64-5.91-1.9-5.53-4.77-4.55 3.2-8.14-4.7-4.17-7.4 4.34-2.28 13.01-10.14 15.77-2.23 3.66-3.47 8.97-.79 8.31 4.22a4.2 4.2 0 0 1 2.86 3.86q.23.24.43.5l.17.24c1.34.12 2.88.22 4.1.6a35 35 0 0 1-3.36 3.34c-.71 3.9-7.38 7.28-9.7 3.03z"/><path fill="#c79a81" d="M390.16 212.7h1.56q-.14.35-.25.72a10 10 0 0 1-1.34-.74zm45.98 31.9a3.6 3.6 0 0 1-2.25-1.26c-2.88 2.12-7.35 1.47-8.62-2.15-.98-3.81-.15-7.96-1.56-11.75q-.72-1.54-1.67-2.93a7 7 0 0 0-.46-1.01c-.73-1.5-1.54-3-2.65-4.27l-.84-.89-.45-.88a16 16 0 0 0-4.37-5.16 31 31 0 0 0-4.65-3.13c-1.42-.73-2.93-1.29-4.37-2-1.07-.58-2.15-1.18-3.29-1.56a28 28 0 0 0-3.39-.81l.5.12q-.6-.1-1.2-.3l-1.92-.83c-.69-.3-1.42-.46-2.18-.61-1.03-.23-2.2-.1-3.26-.05l-3.49.15c-.58-6.7 4.6-13.95 10.57-16.75.9-1.32 2.88-2.33 4.4-1.44 2.35.1 4.7.25 6.97.78 12.97 2.48 29.11 7.63 33.92 21.28 3.2 8.64 2.55 18.72-.3 27.3-1 2.9-1.27 8.1-5.19 8.1h-.33z"/><path fill="#a6603b" d="M259.61 421.05c.71 1.82.36 4.65-1.8 5.38q-.55.19-1.08.18c-1.21 0-2.32-.63-3.44-1.19q-.56-.3-1.13-.58c-.86-.1-1.57-.5-2.12-1.08q-.94-.5-1.87-.96c-3.44-1.75-6.78-3.6-10.16-5.44q-10.65-5.84-21.3-11.72c-14.62-8.04-29.22-16.1-43.9-24.04l-7.71-4.14c-1.42-.73-2.83-1.57-4.27-2.28a4 4 0 0 1-.74-.27s-.05-.03-.05-.06l-.17-.1q-.04 0-.1-.05a4.6 4.6 0 0 1-2.38-3.99q-.01-1.06.35-2.05v-1.59q.01-2.51-.05-5.05c-.05-3.67-.07-7.33-.07-10.34v-1.79c0-17.34.12-34.65.22-51.99q0-3.9.03-7.86v-4.85c0-4.2 0-8.41.05-11.98v-.55c0-1.44.03-2.91-.05-4.35l-.03-.3q-.01-.94.23-1.8c0-1.11 0-2.22.13-3.33a4 4 0 0 1 .7-1.98c.18-2.32 1.9-4.54 4.43-4.14.33.05.55.15.76.25q.33.16.63.36c1 .63 2.12 1.13 3.18 1.69l5.16 2.7q5.35 2.81 10.74 5.56 11.01 5.74 22.09 11.43c14.8 7.65 29.72 15.08 44.32 23.07.81.45 1.72.91 2.38 1.54.38.18.75.4 1.08.74 1.57 1.54 1.32 3.99 1.34 6l.1 6.07q.08 6.65.13 13.25l.28 25.2c.2 16.62.3 33.27.5 49.9.06 4.48.06 8.98.2 13.45q.5.27 1 .58a5.3 5.3 0 0 1 2.34 2.4z"/><path fill="#bc7b57" d="M447 350.1c.4 1.45.18 3.06-.7 4.28a3.8 3.8 0 0 1-2.56 1.59c-2.3.7-4.57 1.54-6.84 2.32l-7.89 2.76q-7.99 2.82-16.02 5.69l-17.06 6.09q-7.42 2.87-14.86 5.7l-31.36 12.06-31.31 12.06c-10.7 4.09-21.36 8.24-32.02 12.35l-13.98 5.41q-3.34 1.3-6.7 2.63c-1.96.78-3.96 1.52-5.9 2.38q-.55.35-1.2.48-.31.06-.63.05a3.9 3.9 0 0 1-3.26-2.1c-1.67-.6-2.63-2.53-2.65-4.3v-.4q0-.26.02-.5c.03-1.42 0-2.84.03-4.25 0-2.3.08-4.6.08-6.93l.15-15.14c.1-10.48.15-20.97.28-31.48.12-10.97.17-21.94.5-32.9.13-4.43.35-8.85.76-13.25q.13-1.63.38-3.2l.3-1.75a4.4 4.4 0 0 1 0-5.89q.5-.5 1.09-.76c1-.63 2.17-1.04 3.23-1.46q2.85-1.17 5.74-2.33c4-1.62 7.99-3.29 12-4.88q12.53-4.99 25.1-9.95c16.6-6.55 33.15-13.15 49.76-19.72q25.29-10 50.6-20.04a5994 5994 0 0 0 28.42-11.37c2.8-1.13 5.61-2.22 8.34-3.44.05 0 .1-.05.15-.07a3.3 3.3 0 0 1 1.85-.58c1.84 0 3.26 1.49 3.69 3.16.23.88.23 1.84 0 2.73.05.96 0 1.94.05 2.8.05 2.07.05 4.12.1 6.2q.08 6.22.23 12.48c.2 8.39.3 16.78.4 25.17q.3 24.7.5 49.38l.13 9.65c0 2.45-.05 4.93.08 7.36a5 5 0 0 1 .98 1.84z"/><path fill="#dbcac0" d="M440.8 227.1c2.11.93 3.15 3.89 2.27 6.19q-.3.78-.91 1.39a3.55 3.55 0 0 1-3.06 2.83c-8.57 1.67-15.6 5.73-23.5 8.84-39.1 15.97-78.98 29.92-118.58 44.58a776 776 0 0 0-35.43 13.6c-3.49.88-7.2 4.2-10.76 3.3-6.55-5.2-15.45-5.65-22.88-9.2-8.8-3.5-16.98-8.13-25.1-12.98a3169 3169 0 0 1-26.96-15.95c-3.58-2.78-9.7-4.7-10.15-9.78q-.29.08-.64.08-.6 0-1.21-.25a4 4 0 0 1-2.07-2.4c-.66-1.9-.05-4.5 1.94-5.34 2.76-1.19 5.59-2.27 8.37-3.38l7.48-3.01q7.59-3.03 15.19-6.02 15.63-6.13 31.26-12.3 15.11-6 30.27-11.98l31.54-12.49q15.53-6.13 31.01-12.35l14.38-5.77a317 317 0 0 0 9.96-4.12l1.74-.75c.5-.3 1.04-.5 1.64-.5a3.5 3.5 0 0 1 3.26.04q21.27 11.38 42.66 22.54c14.84 7.76 29.65 15.62 44.53 23.28a137 137 0 0 0 3.54 1.8q-.22-.09-.46-.13-.26-.02-.53-.08-.09 0-.17.03.76 0 1.41.28z"/><path fill="#a69992" d="M410.96 212c1.6 1.6 1.57 3.44.66 4.73l-.74.4q-.33.2-.7.36l-1.77.91a46 46 0 0 0-3.49 1.87 4 4 0 0 0-1.29 1.26c-15.84 6.1-31.56 12.51-47.33 18.86-16.7 6.72-33.44 13.44-50.12 20.21s-33.38 13.5-50.06 20.27q-8.84 3.58-17.66 7.2l-8.2 3.4-4.08 1.68c-.97.4-1.93.86-2.89 1.17-.3.1-.63.15-.9.15-1.62 0-3.06-1.34-3.62-2.83a5.4 5.4 0 0 1 0-3.67c-9.55-5.53-19.23-11.02-29.62-14.38a4 4 0 0 1-.9-.48l-.46.18c-.81.33-1.5.58-2.3.58q-.3.01-.66-.05c-2.48-.43-3.64-3.54-3.08-5.74q.22-.84.76-1.54h-.03a4.5 4.5 0 0 1 2.02-1.49l1.37-.53q1.62-.65 3.26-1.26 3.05-1.2 6.11-2.38 6.23-2.42 12.41-4.87 12.63-4.97 25.22-9.96 25.6-10.12 51.15-20.27 25.85-10.25 51.68-20.57a2315 2315 0 0 0 23.38-9.43l4.88-2q1.22-.3 2.45-.68l.68-.2 1.16-.38 1.34-.45q.04 0 .08-.03 1.3-.45 2.55-.98 1.01.17 2.02.58c12.2 6.72 24.9 13.16 36.7 20.37z"/><path fill="#d5b9a9" d="M252.71 316.1c-.83-2.79-.33-5.85-.45-8.73-.48-3.08 2.02-7.2 5.5-5.45 1.8.98 2.46 3.13 2.13 4.97-.25 2.86.28 5.8-.25 8.6-.79 3.63-5.67 4.24-6.93.58z"/><path fill="#d5b9a9" d="M254.81 309.63c-1.71-.99-2.35-3.26-1.79-5.1a4.3 4.3 0 0 1 2.35-2.79c.73-.33 1.47-.6 2.22-.9q2.64-1.1 5.26-2.13l11.78-4.6q12.08-4.71 24.16-9.45 24.85-9.75 49.68-19.56 25.02-9.9 49.96-19.94c11.88-4.78 23.8-9.48 35.61-14.43l3.08-1.3q.6-.24 1.22-.52.42-.27.9-.46c1.98-.63 3.85.71 4.53 2.53.7 1.95.18 4.4-1.54 5.64q-.67.47-1.42.6c-.88.26-1.74.63-2.62.96l-5.29 2c-3.91 1.5-7.86 3.03-11.75 4.55q-11.94 4.67-23.83 9.35a10649 10649 0 0 0-100.23 39.95l-21.98 8.87c-3.54 1.44-7.08 2.91-10.64 4.3l-5 1.95c-.66.25-1.32.53-1.98.7a3 3 0 0 1-1.1.18q-.85 0-1.58-.4"/><path fill="#d5b9a9" d="M437.03 237.7c.28-2.93-.84-6.87 2.25-8.59 1.72-.96 3.97-.12 4.8 1.62 1.31 2.96.25 6.37.45 9.53-.17 1.72 0 4.22-.38 6.37l-.22.1-1.34.58c-.84.38-1.67.73-2.48 1.14-.78.38-1.6.75-2.37 1.13-2.56-2.73-.26-8.36-.74-11.87z"/><path fill="#d5b9a9" d="M252.6 319.02c-.97-2.25-.16-5.26 2.22-6.24 3.05-1.27 6.21-2.35 9.3-3.54l11.5-4.42q11.92-4.59 23.8-9.2c16.48-6.4 32.95-12.87 49.4-19.31 16.4-6.44 32.83-12.86 49.19-19.4l21.02-8.42q5.08-2.06 10.1-4.15c2.81-1.16 5.62-2.3 8.35-3.59q.03 0 .07-.05a3.4 3.4 0 0 1 1.9-.65c2.32-.06 3.92 2.27 3.92 4.42 0 .98-.26 2-.79 2.83h-.02c-.84.38-1.67.73-2.48 1.14-1.13.55-2.32 1.08-3.46 1.69l-5.33 2a917 917 0 0 0-11.75 4.47q-12.33 4.78-24.64 9.6-24.46 9.63-48.88 19.36-24.72 9.82-49.4 19.74-10.65 4.26-21.28 8.59l-9.99 4.04c-2.62 1.09-5.25 2.23-7.9 3.26q-.7.38-1.4.36c-1.49 0-2.93-1.14-3.53-2.56z"/><path fill="#d5b9a9" d="M257.5 311.02c-1.37-5.44 4.97-6.5 8.61-8.22 15.12-6.4 30.68-11.55 46.15-17 34.32-12.72 69.24-25.4 102.15-41.17 7-3.52 13.95-7.23 21.53-9.28 2.3-.5 4.1 1.72 4.35 3.8.27 2.22-.92 4.64-3.21 5.12-9 2.5-17.21 7.03-25.68 10.84-46.73 21.2-95.7 36.75-143.14 56.13-3.56 1.5-9.02 5.66-10.79-.23z"/><path fill="#b1907d" d="M250.2 309.43a4 4 0 0 1-1.06-.63c-.56-.36-1.14-.66-1.72-.99a164 164 0 0 0-4.58-2.5q-5.27-2.79-10.59-5.53c-7.22-3.74-14.43-7.53-21.65-11.27-14.33-7.41-28.71-14.76-43.04-22.17q-2.81-1.45-5.59-3c-.93-.51-1.92-.94-2.67-1.67l-.06-.05q-.43-.42-.7-.97a4.7 4.7 0 0 1-.23-3.96 3.4 3.4 0 0 1 2.68-2.23q.6-.06 1.16.08c.91.2 1.77.73 2.6 1.16 7.26 3.54 14.33 7.38 21.46 11.1l21.45 11.22 20.68 10.74c6.64 3.43 13.26 6.95 19.5 10.03l.9.43c1.05.53 2.14 1.09 3.25 1.54q.46.11.94.38c2 1.19 2.7 3.94 1.87 6.04-.58 1.42-1.9 2.45-3.36 2.45q-.6 0-1.22-.23z"/><path fill="#b1907d" d="M251.04 321.55c-4.1-.4-3.87-5.05-3.74-8.14.38-3.15-.08-6.57.96-9.55.68-2.05 3.4-3.03 5.05-1.49 3.11 3 1.04 8.87 1.6 12.51.3 2.75-.36 6.82-3.87 6.72z"/><path fill="#b1907d" d="M250.05 322.12c-2.23-1.04-4.37-2.2-6.52-3.34-3.41-1.82-6.82-3.69-10.24-5.5q-11.24-6.09-22.54-12.11a3584 3584 0 0 0-43.62-23.13l-4.7-2.4q-.66-.35-1.36-.63-.5-.1-.96-.4a4.9 4.9 0 0 1-2.2-4.22c0-2.15 1.57-4.4 3.9-4.25.88.05 1.6.4 2.22.96.7.45 1.46.86 2.2 1.26q2.45 1.37 4.95 2.7 5.34 2.9 10.69 5.75 11.1 5.93 22.23 11.82c14.44 7.63 28.94 15.11 43.37 22.77 1.77.94 3.54 1.87 5.23 2.9 1.72 1.04 2.43 3.32 1.92 5.21-.4 1.52-1.8 2.88-3.38 2.88q-.58.01-1.2-.27"/><path fill="#b1907d" d="M244.94 312.87c-24.36-14.53-50.16-26.56-75.2-39.65a4.5 4.5 0 0 1-3.24.12c-1.72 2.05-4 1.04-5.74-.27-3.94-2.99-2.5-8.52-2.5-12.77-.02-2.12 1.57-4.37 3.87-4.24 3.36.2 3.49 3.81 4.4 6.21a4.2 4.2 0 0 1 2.6 1.72c1.54-.3 2.93.63 4.07 1.55 5.2 2.77 10.3 5.55 15.54 7.98 13.77 7.3 27.4 13.57 40.84 21.36 5.63 3.1 11.42 5.96 17 9.14 1.04.63 2.08 1.34 2.66 2.43 1.82 2.9-.6 7.9-4.3 6.44z"/><path fill="#fff" d="M414.52 214.48c-4.78-7.99-10.41-15.74-13.78-24.41-1.69-4.55.86-11.98 6.8-9.96 7.3-1.62 15.57 23.5 15.87 29.47.4 5.48-4.85 11.24-8.9 4.9"/><path fill="#fff" d="M390.68 216.02a4.7 4.7 0 0 1-3.46-2.42 7.4 7.4 0 0 1-.59-5.06c-5.43 4.58-11.42.43-8.69-6.19-3.2 1.97-7.93.48-8.41-3.51-.63-4.58 2.78-8.57 6.09-11.27 5.03-4.73 31.13-12.87 31.66-1.65a5.1 5.1 0 0 1 1.52 5.41c3.81.35 5.69 5.28 3.08 8.06 3.39.46 6.6 2.48 5.71 6.32-.43 2.02-2.42 3.97-4.65 3.21-1.61-.53-3.23-1.11-4.93-1.24-6.92 0-10.68 8.24-17.38 8.32z"/><path fill="#fff" d="M402.15 212.76c-.84-4.52.68-10.38 5.08-12.53 2.55-1.57 5.56.86 5.6 3.66 1.62-.33 3.14.15 4.68.58 4.12 1.3 3.67 8.4-.7 8.9-3.19 1.49-4.73 5.58-8.67 5.53-3.24.16-5.49-3.3-6-6.14"/><path fill="#bc7b57" d="M226.85 276.98a5 5 0 0 1-1.62-3.94q-.01-.3.05-.6c.08-1.34 0-2.71 0-4.07 0-2.53-.08-5.06-.13-7.56-.02-1.21-.07-2.33.4-3.51a3.65 3.65 0 0 1 3.6-2.3c1.61.12 2.8 1.41 3.33 2.88.4 1.08.28 2.25.28 3.38v3.44q-.01 3.5.05 7v.73c.4 2-.43 4.33-2.3 5.16q-.65.29-1.34.28c-.83 0-1.67-.33-2.32-.89m43.25-23.43c.07-1.19.02-2.37.05-3.56q-.02-3.39-.08-6.75v-.78c.03-1.47.91-3.31 2.38-3.84.93-.33 1.8-.38 2.73 0a4.5 4.5 0 0 1 2.52 3.89c.05 1.74-.05 3.49-.1 5.2a140 140 0 0 0 .03 6.5c.3 2.33-.86 4.93-3.41 5.13h-.3c-2.79 0-4.35-3.23-3.8-5.79zm-64.36 16.43c-.45-.96-.6-2.2-.38-3.31.13-1.8.1-3.62.15-5.4q.08-2.6.13-5.16c0-.71 0-1.47.08-2.2 0-.38.1-.74.2-1.12.2-.75.58-1.46 1.26-2.02a3.4 3.4 0 0 1 4.47.1c1.67 1.55 1.52 3.62 1.47 5.64l-.13 4.93-.07 4.27a4.1 4.1 0 0 0-3.36.96q-.21.19-.38.4a4.3 4.3 0 0 0-1.44 2.45c-.18 1.07.07 2 .6 2.79a4.1 4.1 0 0 1-2.6-2.3z"/><path fill="#a6603b" d="M225.36 262.46a274 274 0 0 0-16.13-4.04c-5.3-1.19-4.1-10.87 1.7-8.82 4.8 1.6 9.93 2.33 14.8 3.92 3.24-.03 5.41 3.34 4.38 6.34-.64 2-2.76 3.46-4.76 2.6m46.09-21.15h.05l.07.03-.18-.05c-1.1-.23-2.25-.33-3.36-.48q-2.23-.29-4.42-.64l-5.28-.7q-1.4-.2-2.8-.36c-.79-.1-1.83-.07-2.56-.38a4.6 4.6 0 0 1-2.73-4.3c0-1.89 1.17-4.14 3.24-4.44.96-.13 1.94.13 2.88.25l.88.13a3.9 3.9 0 0 0 2.73 3.56l.36.13h.12q7.18 2.41 14.36 4.7l-.46-.15q.59.18 1.19.4c-.66 1.37-1.92 2.35-3.39 2.35q-.31.02-.65-.07z"/><path fill="#a6603b" d="M224.1 261.12a5.2 5.2 0 0 1-.96-4.77 4.2 4.2 0 0 1 2.17-2.58l.08-.03.25-.1c6.27-2.32 12.44-5 18.63-7.53q9.7-3.97 19.35-7.98l3.92-1.65 7.23 2.33-.45-.15 4.19 1.39q-.27.7-.76 1.31c-.4.5-.93.86-1.39 1.04-2.75.96-5.4 2.2-8.11 3.26-5.94 2.37-11.85 4.83-17.77 7.25l-12.3 5.08c-3.34 1.39-6.7 2.7-9.99 4.22q-.62.27-1.28.28c-1.07 0-2.08-.5-2.81-1.31z"/><path fill="#a6603b" d="M218.7 257.55c-1.8-.76-2.68-2.86-2.58-4.73.22-3.82 4.34-5 7.35-6.14 3.67-1.42 7.43-2.55 10.64-3.62 6.42-2.45 12.96-4.92 18.9-8.36 2.03-1.8 5.03-.5 5.82 1.9q2.02-.9 4.12-1.62 5.89 1.93 11.77 3.81l-.45-.15 2.7.89a3.7 3.7 0 0 1-3 1.92c-11.35 2-21.71 7.65-32.94 10.46-6.39 1.82-12.9 5.86-19.63 5.86q-1.36 0-2.7-.22"/><path fill="#bc7b57" d="M209.23 253.48c-3.06-.38-4-3.94-3.32-6.52.36-3.72.71-7.46.71-11.2 0-1.72 1.24-3.56 2.96-4 1.84-.45 3.71.87 4.32 2.59 2 4.75 0 9.73-.58 14.6-.05 2.28-1.62 4.8-4.12 4.55z"/><path fill="#bc7b57" d="M207.8 237.3c-.68-2.15.1-4.75 2.23-5.74 1.26-.6 2.63-1.08 3.92-1.61q2.43-1.04 4.87-2.02 5.65-2.37 11.25-4.78c7.25-3.06 14.5-6.1 21.73-9.25 1.32-.56 2.63-1.11 3.92-1.75 1.74-1.03 3.82-.25 4.85 1.4a5.1 5.1 0 0 1-.35 5.88 3.6 3.6 0 0 1-2.5 1.24h.05q.28-.02.55-.07l.48-.16q-1.12.41-2.25.91l-4.6 1.9-11.14 4.75c-7.18 3.06-14.4 6.1-21.56 9.2-2.17.93-4.32 2-6.52 2.83q-.65.29-1.26.28c-1.67 0-3.16-1.42-3.66-3.01"/><path fill="#bc7b57" d="M254.6 230.6c-.04-4.9.39-9.83.54-14.73.2-4.42 5.63-5.38 7.08-1.09.7 5.19-.28 10.7-.03 15.98-.38 5.48-7.23 5.2-7.58-.16"/><path fill="#bc7b57" d="M205.8 251.98c-.65-2.02 0-4.92 2.18-5.76 3.08-1.36 6.3-2.53 9.43-3.81q5.57-2.28 11.14-4.63 10.43-4.35 20.88-8.67c2.1-.88 4.27-1.66 6.31-2.65.79-.46 1.72-.6 2.6-.35a4.3 4.3 0 0 1 2.76 2.83c.88 2.68-.68 5.99-3.54 6.01q.14 0 .28.03.28-.03.56-.1l.45-.16c-2.05.74-4.07 1.62-6.06 2.46l-9.83 4.06c-7.4 3.06-14.81 6.07-22.2 9.15l-5.17 2.2c-1.62.68-3.21 1.44-4.86 2.07q-.63.26-1.28.26c-1.67 0-3.14-1.27-3.67-2.94z"/><path fill="#bc7b57" d="M210.95 241.5c.33-9.99 23.3-13.45 31.14-17.04 4.32-.8 10.99-8.16 13.64-1.52 1.95 1.77 3.9 4.45 2.93 7.2-.73 3.04-4.95 3.9-6.77 1.35-8.36 3.38-16.85 6.52-25.07 10.3-4.67 1.63-14.63 8.22-15.87-.3"/><path fill="#6580a3" d="M167.96 259.42s.13.05.18.1q-.11-.04-.18-.1"/><path fill="#6580a3" d="M168.34 259.62c-.99-.5-1.97-1.04-3.04-1.37q-.52-.16-1.06-.25.08-4.38.13-8.77l.28-21.86q.09-10.23.22-20.5c.06-3.43.08-6.9.16-10.33.07-3.64.3-7.25.58-10.9.1-1.36.12-2.7.25-3.78.15-1.62 1.14-3.34 2.98-3.34 1.85 0 2.8 1.62 2.98 3.08v.43c.1 1.52.13 3.01.18 4.32.48 7.94.28 15.85.18 23.78l-.28 23.2c-.08 6.3-.18 12.59-.18 18.86 0 2.75-.05 5.56-.07 8.31 0 .15-.05.3-.05.45l-.08.23-3.23-1.56z"/><path fill="#6580a3" d="M235.09 225.73c-.81 0-1.5-.3-1.92-.68l-.13-.1-.23-.2-.12-.1c-2.63-1.78-5.36-3.42-8.04-5.09q-5.12-3.15-10.28-6.29-10.64-6.48-21.28-12.91-5.43-3.26-10.84-6.55a196 196 0 0 1-10.31-6.77l-2.25-1.44q-.7-.43-1.4-.91c-1.97-.76-2.6-3.36-1.81-5.23a3.5 3.5 0 0 1 2.02-1.97c.93-.3 2-.08 2.73.58 1.26.58 2.45 1.41 3.64 2.07 1.54.86 3.1 1.6 4.65 2.45 3.43 1.92 6.82 4.02 10.18 6.07q10.49 6.44 20.98 12.83l14.02 8.52 7.28 4.35c1.47.86 2.9 1.77 4.42 2.55h.08c1.77.63 2.6 2.65 2.6 4.4 0 2.12-1.6 4.4-3.87 4.4h-.07z"/><path fill="#6580a3" d="M236.35 296.01q-1.72-.71-3.49-1.29-.13-.6-.12-1.2-.01-.33.05-.64c.1-1.85.02-3.72 0-5.56q-.01-6.15-.1-12.33c-.1-8.42-.18-16.8-.3-25.23q-.12-7.53-.16-15.08c0-2.53-.05-5.03-.05-7.56 0-1.84-.15-3.71 0-5.56 0-2.12 1.36-4.27 3.64-4.24 1.26 0 2.38.86 2.96 1.97q.53 1 .53 2.15c.15 1.36.05 2.8.1 4.17q.08 3.24.12 6.5c.06 3.86.16 7.72.18 11.59l.23 25.4c.07 7.8.05 15.64.35 22.94v.66q.08.46.08.94c0 1.26-.56 2.6-1.5 3.48l-2.52-1.13zm-69.59-82.71c-5.59-13.96 15.9-23.96 27.06-19.52 4.27 2.25 1.75 10.5-3.2 8.2-6.17-1.22-12.62 1.4-17 5.7-1.81 1.72-3.76 8.57-6.89 5.61z"/><path fill="#6580a3" d="M168.95 201.6c-2.12-2.6-.38-6.22-.68-9.25-.15-3.67 1.11-10.67 6.14-7.3.6-.3 1.31-.41 2-.3a3.9 3.9 0 0 1 2.63 2.04c3.86-1.24 6.26 4.2 3.96 7-1.94 1.9-4.4 5.2-7.48 3.87q-.45.57-1.06 1.03c.28 2.83-3.31 5.08-5.48 2.88z"/><path fill="#6580a3" d="M167.66 185.62c-3.03-1.08-3.08-6.01-.3-7.43 7.68-5.78 16.1-11.04 23.8-16.4 5.19-3.23 8.2 5.71 3.65 7.89-5.19 3.3-11.07 7.17-16.08 10.33-3.46 1.75-7.02 6.12-11.07 5.61"/><path fill="#6580a3" d="m231.9 222.42-.05-.05c-3.33-4.6-6.82-9.08-10.26-13.6l-13.75-18.02-8.64-11.37c-1.61-2.15-3.28-4.25-4.93-6.4q-1.09-1.43-2.22-2.87-.57-.75-1.04-1.52a4.9 4.9 0 0 1 .48-5.49c1.22-1.38 3.52-1.69 4.88-.27.84.86 1.52 1.84 2.25 2.8l3.77 5q3.45 4.55 6.92 9.08c4.55 5.94 9.07 11.93 13.62 17.86l9.6 12.54 3.37 4.37c.55.7 1.1 1.47 1.69 2.15a4.6 4.6 0 0 1 1.34 3.16c0 2.15-1.14 4.57-3.59 4.7h-.18c-1.41 0-2.62-.94-3.3-2.15l.04.05z"/><path fill="#6580a3" d="M222.56 215.78c-2.15-2.56-4.22-5.21-6.37-7.79q-1.79-2.01-3.56-4.07c-8.72-.88-16.23-6.09-22.47-12.03-2.1.91-4.32-.9-4.73-2.98a3.3 3.3 0 0 1-3.66-.78 4.5 4.5 0 0 1-1.24-3.16c-2.17 1.67-5.33 1.21-6.3-1.52-1.53-3.76 2.1-6.52 4.73-8.54 3.31-2.6 6.9-5.03 10.74-6.6 2.7-1.44 5.06.86 6.55 2.94 9.9 13.31 20.9 25.7 31.41 38.51 3.6 3.44-1.24 10.59-5.1 5.99z"/><path fill="#6580a3" d="M234.96 239.68c-5.05-1.64-3.91-8.39-6.21-12.26a52 52 0 0 0-6-9.42c-1.63-2.25-4.06-4.96-2.87-7.91a3.15 3.15 0 0 1 5.86-.36c5.79 6.02 10.66 13.15 12.23 21.49.76 2.78.81 8.23-3 8.46m-45.09-75.46c0-1.24.4-2.5 1.26-3.39q.58-.58 1.4-.93c3.02-1.27 6.1-2.4 9.17-3.62q5.67-2.23 11.34-4.5a15895 15895 0 0 0 72.68-29.26c16.4-6.62 32.83-13.22 49.23-19.89q12.07-4.9 24.09-9.83c7.63-3.1 15.28-6.14 22.82-9.45l.48-.23.35-.18q.45-.34.99-.55c1.94-.7 3.86.55 4.6 2.37.78 1.9.35 4.38-1.32 5.7q-.86.63-1.74.7c-1.17.35-2.28.83-3.41 1.24l-5.69 2.22-11.52 4.6q-12 4.8-23.99 9.65c-16.47 6.67-32.95 13.4-49.4 20.1q-24.38 9.9-48.73 19.83a4297 4297 0 0 0-47.63 19.64q-.6.23-1.2.23c-2.14 0-3.76-2.38-3.78-4.48zm233.41-8.42c-2.43-1.49-2.68-5.28-.44-7.05 1.62-1 3.42-2.22 5.34-2.42 3.96.12 4.95 5.88 2.05 8.1-1.93 1.12-4.76 2.48-6.95 1.4z"/><path fill="#6580a3" d="m430.49 224.36-1-.58q-.78-.45-1.58-.86a6 6 0 0 1-.7-1.29 5 5 0 0 1-.29-2.15q-.01-.19.05-.42c.08-2.25 0-4.5-.05-6.73l-.15-11.52q-.2-10.68-.3-21.36l-.2-15.49c-.06-2.83-.06-5.68-.1-8.54 0-1.21-.06-2.42-.06-3.61 0-.76.05-1.52.26-2.25.45-1.37 1.36-2.6 2.85-2.86 1.64-.28 3.16.86 3.72 2.38.45 1.21.43 2.45.45 3.71q.03 3.04.1 6.1c.1 4.09.15 8.2.23 12.33q.2 10.82.35 21.63.1 7.48.23 14.96c.05 3.71.03 7.45.23 11.17q.07.4.07.8c0 .31-.05.59-.05.72q0 .15-.05.3c-.1.53-.25 1.03-.53 1.51a3.9 3.9 0 0 1-3.26 2.03h-.2z"/><path fill="#6580a3" d="M423.89 220.95a5 5 0 0 1-.43-1.97v-.43c0-1.49-.08-3-.13-4.5-.1-3.89-.27-7.78-.38-11.67-.25-7.76-.58-15.54-.85-23.3l-.51-14.2q-.15-3.87-.25-7.74c-.1-2.5-.76-6.09 1.77-7.63a3 3 0 0 1 1.66-.55q.96 0 1.7.45c2.1 1.09 2.07 3.74 2.14 5.79l.23 5.91.43 11.42q.44 11.54.84 23.1c.17 5 .4 10.03.58 15.06.1 2.48.17 5 .35 7.48q.05.33.05.66c0 1.8-.93 3.77-2.65 4.4q-2.25-1.2-4.58-2.25z"/><path fill="#6580a3" d="M429.5 223.79a73 73 0 0 0-5.44-2.76 4 4 0 0 1-.2-1.46c-.1-2.66 2.5-4.96 5.06-3.62 3.46.74 6.31 4.35 4.37 7.76a4 4 0 0 1-1.42 1.5q-1.16-.74-2.37-1.42m-262.8 43.46q-.01-.39.06-.76v-.16c.53-8.97.75-17.94 1.18-26.88.28-6.07.5-12.1.81-18.17.3-6.22.46-12.44.63-18.68q0-.33.03-.66c.18-1.94 1.74-3.84 3.79-3.84 2.27 0 3.94 2.35 3.84 4.5v.08q0 .2-.03.4-.6 11.15-1.06 22.32c-.25 6.64-.45 13.29-.75 19.93q-.31 6.67-.56 13.32-.07 2.28-.18 4.55c-.05 1.16-.17 2.38-.15 3.54v.48c0 2.15-1.47 4.52-3.84 4.52s-3.82-2.35-3.82-4.52z"/><path fill="#6580a3" d="M227.3 289.36c.23-19.44 3.36-39.58-1.97-58.5-4.75-17.4-28.5-33.52-44.58-20.32-3.44 3.26-5.08 7.88-6.14 12.4 0 2.1-1.57 4.35-3.82 4.35s-3.86-2.35-3.81-4.5c3.08-24.97 27.47-33 47.26-19.35 13.72 8.82 20.26 24.53 21.17 40.38 1.27 15.16-.15 30.38-.45 45.54-.1 5.86-7.53 5.96-7.63 0z"/><path fill="#6580a3" d="M229.93 294.42c-3.64-2.27-2.88-9.65 2.15-9.17 2.9.83 4.93 4.72 3.8 7.58-.84 2.48-3.98 3.41-5.92 1.56z"/><path fill="#90abce" d="M292.23 233.08q-.34-.2-.64-.48a4 4 0 0 1-1.13-1.67 5 5 0 0 1-.33-2.78q.06-2 .07-3.97c0-3.28.03-6.6 0-9.9q.01-4.7-.05-9.43-.02-2.5-.07-4.95c0-1.32-.2-2.7 0-4.02.3-2.13 2.17-4.02 4.42-3.5 2 .49 3.29 2.69 3.18 4.71.03 1.01-.05 2.05-.07 3.06 0 1.56-.05 3.16-.05 4.72q-.04 4.63-.03 9.25c0 4.75-.02 9.53.13 14.28a5.3 5.3 0 0 1-.58 3.39 4 4 0 0 1-1.14 1.24c-.53.38-1.14.55-1.72.58H294a3.3 3.3 0 0 1-1.74-.5z"/><path fill="#90abce" d="M290.45 230.65c-.63-2.18.2-4.76 2.38-5.7 3.08-1.33 6.27-2.52 9.38-3.78 3.84-1.57 7.63-3.16 11.47-4.75q12.26-5.12 24.51-10.26 7.16-3.03 14.28-6.1c3.46-1.48 6.95-2.9 10.34-4.52l.25-.12q.35-.23.73-.4c1.95-.77 3.9.47 4.65 2.24.81 1.9.46 4.37-1.19 5.71a3 3 0 0 1-1.41.69c-.68.22-1.4.5-2.07.78-1.77.68-3.54 1.44-5.28 2.15l-11.12 4.6a3530 3530 0 0 0-24.27 10.26l-14.7 6.29c-4.38 1.87-8.7 3.9-13.07 5.74q-.6.25-1.19.25c-1.69 0-3.18-1.47-3.66-3.11z"/><path fill="#90abce" d="M364.19 202.54c-2.96-2.12-2.15-6.24-2.2-9.42-.4-7.38-.2-14.74.15-22.12.18-2.12 1.72-4.32 4.1-4.06 6.16 1.23 2.47 11.14 2.95 15.59.23 5 .15 9.88.43 14.56 1.34 3.25-2.02 7.7-5.46 5.45z"/><path fill="#90abce" d="M293.08 204.06c-1.87-5.89 5.33-6.75 9.07-8.94a757 757 0 0 0 31.69-14.3c10.49-4.8 20.98-9.69 31.64-14.03 4.9-.86 6.4 6.92 2.12 8.69-17.64 6.37-34.37 15.19-51.5 22.82-5.3 2.38-10.67 4.7-15.85 7.35-2.6 1.87-6.01 1.98-7.17-1.56z"/><path fill="#90abce" d="M296.12 227.8c-4.35-1.5-2.73-6.6-1.42-9.76a5.5 5.5 0 0 1-.43-4l.58-2.01c-2.07-3.42.48-11.18 5.08-10.62a3.26 3.26 0 0 1 4.17-1.31q.2.08.38.2c1.24-2.53 4.17-4.73 6.5-2.05 2.55-3.38 6.24-16.58 11.32-8.9.8-.35 1.8-.4 2.58 0q1.21.65 1.92 1.7-.06.06-.1.13c2.12-2.56 4.8-8.65 8.54-4.6.4-.4.83-.79 1.31-1.07.84-.5 1.75-.58 2.58-.32q.75-.62 1.67-1.01a3.2 3.2 0 0 1 3.08.4c1.67-2 3.36-3.97 5.2-5.79a3 3 0 0 1 3.37-.45c.45-.33.88-.6 1.44-.84 1.13-.5 2.35-.2 3.26.53 2.07-2.25 4.7-7.27 8.21-4.4 3.62 3.42-.33 7.44-2.53 10.37.13.9 0 1.84-.4 2.65l-.53.96q.28.38.48.84.26.1.48.27a4.7 4.7 0 0 1 1.84 4.6c1.82 3.95-2.3 7.94-6.14 8.04-5.48 2.78-11.07 5.33-16.62 7.96-1.45.6-2.91 1.82-4.55 1.6-1.5.85-3.54.52-4.58-.9-1.94 2.4-4.77 5.82-7.55 2.33a376 376 0 0 0-10.5 8.42c-2.65 2.65-7.04 3.64-8.26-.91-.65.58-1.41.9-2.27 1.16q-.7.19-1.39.03c-1.67 2.55-2.96 7.63-6.82 6.82z"/><path fill="#658048" d="M434.42 141.65c.8 1.72.63 3.91-.64 5.35-.22.28-.5.51-.75.66a4.2 4.2 0 0 1-2.3 2.15l-.18.05q-.56.23-1.09.23l-.2.07c-7.7 2.63-15.34 5.61-22.97 8.52l-24.31 9.28c-16.7 6.36-33.36 12.83-50.02 19.3q-24.53 9.55-49.02 19.13l-21.84 8.55-10.46 4.11c-2.9 1.14-5.79 2.4-8.72 3.5q-.67.26-1.31.27c-1.67 0-3.11-1.26-3.67-2.93a5 5 0 0 1-.25-1.85c-1.36-1.77-2.8-3.48-4.22-5.23l-7.3-8.92q-7.31-8.86-14.58-17.76c-4.07-4.96-8.22-9.89-12.34-14.84a5.06 5.06 0 0 1 0-6.34q.2-.23.46-.43a3.6 3.6 0 0 1 1.82-1.65c6.42-2.65 12.91-5.18 19.35-7.78q12.04-4.87 24.01-9.78 24.5-10.04 49-20.12 24.03-9.89 48.02-19.83l24.31-10.11q5.76-2.4 11.47-4.85c2.86-1.22 5.74-2.4 8.57-3.7q.28-.1.5-.22.5-.34 1.07-.46.88-.18 1.72.05c1.11-.1 2.27.36 3.06 1.32v.05s.02.05.05.05q.04.08.1.13c4.22 5.56 8.59 11.01 12.91 16.5l16.6 21.02q3.7 4.66 7.4 9.28c1.55 1.92 3.02 3.92 4.68 5.76.46.43.84.94 1.1 1.44z"/><path fill="#90abce" d="M191.91 164.42c-.68-2.03-.05-4.93 2.13-5.8l.43-.17h.07c16.25-6.52 32.5-13.01 48.72-19.58 17.09-6.93 34.17-13.8 51.23-20.73 16.98-6.9 33.96-13.72 50.95-20.62a5765 5765 0 0 0 22.11-9l10.82-4.4q2.66-1.06 5.28-2.2c.98-.4 2.02-.77 2.96-1.25q.12-.08.25-.13c1.87-.89 3.96.13 4.88 1.97 1 2.05.53 5.48-1.87 6.37l-.23.07-.6.2c-3.37 1.22-6.68 2.61-10 3.95l-12.2 4.93-25.32 10.23-50.92 20.65q-25.59 10.35-51.13 20.75c-14.05 5.7-28.1 11.47-42.15 17.23q-.23.11-.43.18a4 4 0 0 1-1.31.28c-1.65 0-3.11-1.24-3.7-2.88z"/><path fill="#c79a81" d="M159.52 375c-12.2-.8-21.43-9.04-28.89-18.04-10.2-10.31-13.62-25.1-14.58-39.15-1.54-20.11 11.75-37.75 27.04-49.4 3.72-3.52 8.26 1.46 6.12 5.48-.61 1.19-1.6 1.85-2.63 2.58-5.1 3.87-9.5 8.6-13.65 13.44-12.48 14.84-11.17 35.89-3.18 52.5a73 73 0 0 0 18.12 19.73c17.66 9.73 44.32 1.31 57.16-13.1 1.57-2.32 3.59-6.06 6.85-3.86 1.95 1.37 2.35 4.12 1.37 6.17-10.77 17.03-34.25 25.02-53.7 23.68z"/><path fill="#c79a81" d="M165.1 356.18c-12.89-2.23-22.77-12.54-29.36-23.28-10.24-16.83-4.58-39.93 10.91-51.53-.63-1.31-1.74-2.17-2.88-3-2.63-2.15-2.35-7.03.99-8.32 1.54-3.81 7.07-3.38 9.98-1.44 4.75 3.24 5.1 10 4.45 15.16.15 1.98-1.01 4.2-3.09 4.6-2.78 1.8-5.05 4.3-7.17 6.8-14.66 16.93-8.14 40.49 11.67 49.64 10.29 4.4 20.42-1.82 29.55-6.2 4.3-2.17 8.74-4.52 13.74-3.03 9.38 1.62 11.6 13.1 5.34 19.49-1.8 2.07-5.08 1.2-6.02-1.27-1.01-2.2.03-3.81.13-5.86-2.08-1.87-5.03-2.07-7.69-1.77-7.58 8.5-19.56 11.47-30.6 10.03z"/><path fill="#c79a81" d="M164.87 367.25s-.16-.05-.23-.05a6 6 0 0 1-2.3-1.32c-2.02 5.59-8.14 1.34-11.1-1.08-4.22 1.34-7.75-4.32-10.84-6.52-12.91-11.48-20.09-28.76-20.22-45.92.91-12.92 8.42-24.31 18.17-32.32 2.28-1.82 3.57-6.07 7.18-3.67 4.96-.68 8.7 5.3 5.08 9.13-2 1.79-4.4 3.13-6.34 5-2.25 7.4-3.84 15.01-5.97 22.46-.4 1.7-.96 3.54-2.35 4.66-.85 9.22 6.68 16.45 11.9 23.25 2.48 3.63 6.65 6.44 8.04 10.69 6.2-.41 12.66-.94 18.6 1.16q2.31-.64 4.65-1.14c3.95-4.55 10.26-5.79 15.55-8.16 3.03-.69 6.21.17 8.92 1.51 3.38 2.48 2.88 7.66-.13 10.19-2.2 3.81-6.65 5.5-10.59 6.97-7.98 4.5-19.23 10.49-28.02 5.18z"/><path fill="#fff" d="M163.76 295c-6.29-2.6-8.97-10.2-13.21-15.06-4-6.12-13.73-13.72-8.14-21.5 3.06-4.23 12.1-6.5 12.71.63l.2.22.08.1c3.26 1.04 4.75 4.7 6.32 7.46 2.85 3.76 6.04 7.3 8.44 11.4 4.57 6.37 4.2 19.2-6.42 16.73z"/><path fill="#fff" d="M168.64 272.66c-6.42-7.36 7.1-19.26 13.04-23.1-8.44 2.4-15.95 8.29-21.18 15.24-.15 2.58-2.5 5.84-5.4 4.27-9.08-7.1 10.03-21.05 15.97-24.46 6.03-3.67 21.96-9.05 23.57 1.54 0 8.49-10.66 10.38-15.31 15.92-1.34 1.41-2.78 2.78-3.82 4.45-1.36 2.7-3.2 6.7-6.87 6.11z"/><path fill="#fff" d="M154.01 272.92c-2.68-3.34.38-6.83 3.06-8.95 2.45-2.37 4.3-4.04 6.44-6.2 5.41-5.93 13.25-11.34 21.38-11.77 2.99.94 3.67 5.28 1.67 7.46-2.45 2.5-6.14 3.2-9.17 4.85-4.32 2.27-8.09 5.94-11.37 9.5-1.42 2.6-2.3 6.8-6.27 5.1-1.67 1.45-4.22 2.03-5.74 0"/><path fill="#fff" d="M163.93 278.9c-.5-1.82-.18-3.56.2-5.38l.1-.48c-3.36-.76-4.34-5.61-1.66-7.76 4.75-3.92 10.43-6.44 15.62-9.75.4-3.4 4.22-4.35 6.84-5.67 4.73-2.32 10.6-3.59 15.6-1.44 3.05 1.34 4.12 5.29 2.88 8.22-2.07 4.9-8.06 5.48-12.28 7.75-6.85 3.87-13.7 8.14-19.03 13.98-.91 1.04-1.72 2.32-2.91 3.06-2.1 1.31-4.73-.28-5.33-2.55z"/><path fill="#fff" d="M190.18 290.02c-6.55-3.92-14.66-1.06-21.58-2.8-5.36-3.04-2.18-9.73 1.62-12.64 6.29-6.04 12.66-11.6 20.31-15.24.23-3.49 3.9-4.52 6.85-4.37 4.1.03 8.92-.18 11.5 3.66 3.94 4.1 1.7 10.01-3.39 11.73-3.23 1.39-6.74 2.17-9.65 4.22 10.92 4.2 6.14 20.32-5.63 15.47zm172.32 36.79a28.3 28.3 0 0 1-3.68 16.7 27 27 0 0 1-13.75 11.63 27 27 0 0 1-16.3.73 26.6 26.6 0 0 1-13.04-8.26 26 26 0 0 1-4.14-6.42 4.2 4.2 0 0 1-2.25-2.32c-.58-1.75-.46-3.08.17-4.15q-.23-1.2-.32-2.42 0-.19-.03-.38v-.5q0-.57.13-1.12c.55-1.94 2.3-3.69 4.5-2.95 1.44.47 2.42 1.94 2.65 3.46 1.56-.48 3.08-.94 4.24-1.47 10.39-3.81 20.14-9.12 30.03-14.02q.2-.11.43-.18c.38-1.8 1.64-3.41 3.6-3.46a3.7 3.7 0 0 1 3.27 2c.28.52.63.98.93 1.5a28.5 28.5 0 0 1 3.64 11.63z"/><path fill="#fff" d="M397.08 312.1c.5 5.82-.76 11.66-3.69 16.71a27 27 0 0 1-13.75 11.63 27 27 0 0 1-16.3.73 26.6 26.6 0 0 1-13.03-8.26 26 26 0 0 1-4.15-6.42 4.2 4.2 0 0 1-2.25-2.33c-.58-1.74-.45-3.08.18-4.14q-.24-1.21-.33-2.43 0-.18-.03-.38v-.5q.01-.56.13-1.12c.56-1.94 2.3-3.69 4.5-2.95 1.44.48 2.43 1.94 2.65 3.46 1.57-.48 3.09-.94 4.25-1.47 10.38-3.81 20.14-9.12 30.02-14.02q.21-.11.43-.18c.38-1.8 1.64-3.41 3.61-3.46a3.7 3.7 0 0 1 3.26 2c.28.53.64.98.94 1.51a28.5 28.5 0 0 1 3.64 11.63z"/><path fill="#000" d="M344.28 343.37a15.4 15.4 0 0 1-10.3-4.5 16 16 0 0 1-3.65-5.51l-.15-.38a15 15 0 0 1-1-4.6 14 14 0 0 1 0-2.3q0-.51.1-1.04.16-1.52.62-2.93c2.23-.9 4.38-1.94 6.55-2.93l6.6-2.98q.56-.27 1.13-.5a213 213 0 0 0 6.4-2.36l1.82-.63q1.8 1 3.33 2.45l.35.36a3 3 0 0 1 1.17 1.16v.02q.15.27.25.54l.05.07-.15-.35v-.03q.61.99 1.24 1.97a16.5 16.5 0 0 1 2.02 7.08v.13a17 17 0 0 1-1.09 6.97 16 16 0 0 1-5.88 7.53 15.6 15.6 0 0 1-9.03 2.75h-.38"/><path fill="#fff" d="M349.07 334.02c-5.94-.84-3.89-10.51 1.72-8.57 4.8 1.21 3.39 9.45-1.72 8.57"/><path fill="#000" d="M380.75 328.46a15.4 15.4 0 0 1-10.31-4.5 16 16 0 0 1-3.64-5.5q-.07-.21-.16-.38a15 15 0 0 1-1-4.6q-.1-1.13 0-2.3.01-.53.1-1.04.16-1.53.63-2.93c2.22-.91 4.37-1.95 6.54-2.93l6.6-2.98q.57-.28 1.13-.5a219 219 0 0 0 6.4-2.36l1.82-.63q1.81 1 3.33 2.45l.36.35q.68.4 1.11 1.09.01.04.05.08v.02q.15.27.25.53.01.04.05.08l-.15-.36v-.02l1.24 1.97a16.5 16.5 0 0 1 2.02 7.08v.12c.13 2.35-.23 4.73-1.08 6.98a16 16 0 0 1-5.9 7.53 15.6 15.6 0 0 1-9.01 2.75z"/><path fill="#fff" d="M385.55 319.11c-5.94-.83-3.9-10.51 1.71-8.56 4.8 1.2 3.39 9.45-1.71 8.56"/><path fill="#d95032" d="M363.04 367.88a16 16 0 0 1-8.44-2.9c-4.48-3.12-6.93-8.4-7.05-13.78-.08-3.06.78-6.02 2.2-8.7a16.7 16.7 0 0 1 6.29-6.34 15.2 15.2 0 0 1 11.12-1.59q.5-.04 1.03.1.76.18 1.37.53-.08-.04-.15-.1l-.5-.23c1.08.48 2.14.91 3.13 1.55a17 17 0 0 1 4.95 4.72 17.5 17.5 0 0 1 2.53 13.95c-1.24 4.83-4.43 9.23-9.03 11.3a17 17 0 0 1-6.77 1.51H363zm1.16-8.85q.94-.08 1.9-.27.6-.17 1.21-.4a10 10 0 0 0 2.4-1.5q.41-.37.78-.76.34-.39.64-.78l.6-1.01q.22-.48.4-.96.09-.25.13-.48.14-.64.18-1.3v-.83q-.01-.49-.1-.96l-.23-.96q-.12-.36-.28-.73-.22-.46-.48-.94-.34-.53-.73-1.03l-.7-.76q-.44-.38-.9-.73-.62-.42-1.28-.76a12 12 0 0 0-1.42-.53 3 3 0 0 1-.65-.3l-.69-.1q-.9-.09-1.79-.06-.8.08-1.57.26-.73.2-1.41.48-.63.3-1.24.63a10 10 0 0 0-1.82 1.49q-.42.5-.8 1.04-.31.49-.56.98-.19.42-.33.84a8 8 0 0 0-.36 1.76v.99q.02.34.08.68l.23 1.06a8 8 0 0 0 2.22 3.54q.5.45 1.06.84.59.37 1.21.7.74.31 1.5.56.72.18 1.44.28.69.05 1.39.02z"/><path fill="#d95032" d="M362.9 360.12q-.35-.35-.6-.78a3.5 3.5 0 0 1-1.72-.56c-1.6 2.02-4.65 3.16-6.4.68-5.05 4.07-8.34-3.56-4.85-7.3 2.9-3.31 8.42-18.65 13.72-12.74 2.73-3.69 7.5-.76 6.72 3.36 3.77-2.02 6.75 3.47 4.55 6.45 2.73 2.7-1.77 13.01-5.86 10.71-1.64 1.17-4.02 1.87-5.56.16z"/><path fill="#a6603b" d="M304.58 331.25c-1.6-2.03-1.37-5.72 1.06-7.06.8-.45 1.74-.73 2.6-1.06l4.78-1.9a782 782 0 0 0 10.59-4.31c7.68-3.19 15.36-6.32 23.05-9.5l19.03-7.94c5.83-2.45 11.67-4.88 16.93-7.33l.58-.28q.76-.66 1.87-.83h-.3l-.53.15c.22-.08.4-.18.68-.23 3.13-.55 5 2.9 4.4 5.61a5 5 0 0 1-1.1 2.13l-.2.2-.04.05c-.23.2-.49.4-.66.48q-.07 0-.13.05h-.05s-.15.1-.25.13l-.1.04q-.57.27-1.22.28c-1.1.38-2.2.84-3.28 1.27q-2.63 1.01-5.2 2.07c-4.02 1.62-8 3.31-11.96 4.98q-12.01 5.04-23.98 10.16-9.28 3.96-18.55 7.88-4.24 1.82-8.5 3.7l-3.81 1.68c-.56.26-1.14.59-1.72.76q-.5.21-1.08.23h-.08a3.6 3.6 0 0 1-2.83-1.47z"/><path fill="#a6603b" d="M306.09 338.11c-6.2-2.53-5.2-12.66.99-14.38 3.4-.68 5.33 3.74 4.01 6.45 4.7 3.59.26 10.71-5 7.93"/><path fill="#a6603b" d="M307.94 338.41a4 4 0 0 1-2.38-2.4c-.91-2.25-.08-5.28 2.32-6.22 6.5-2.5 12.9-5.2 19.31-7.88q11.73-4.84 23.43-9.76c13.44-5.66 26.96-11.24 39.75-17.05l.83-.4a3.6 3.6 0 0 1 1.77-.9c2.1-.37 3.72 1.25 4.25 3.1l-.15.67q-.16.56-.36 1.17l-.37.75c-.16.23-.28.46-.44.69l-.27.32-.4.36q-1.11.82-2.13 1.77-.27.25-.53.55l-2.63 1.09-5.38 2.17c-3.9 1.57-7.74 3.21-11.6 4.83q-11.64 4.9-23.23 9.86c-13.14 5.63-26.33 11.2-39.3 17.08a4 4 0 0 1-1.51.35q-.5 0-1.01-.17zm88.54-46.39.1.13v.02l-.13-.18z"/><path fill="#a6603b" d="m389.67 301.95-.58-.16a3.6 3.6 0 0 1-1.54-1.03c-.53 0-1.06-.15-1.51-.4-2.43.3-4.38-2.18-4.25-4.48 0-2.25 1.64-4.04 3.71-5.2q.58.07 1.2-.06c1.6-.32 3.15-.88 4.7-1.41q.56 0 1.05.02.29.06.59.1.06 0 .1.03l.27.15q.07.06.16.1 1.02.86 2.04 1.62l.4.35q.3.31.59.64c.48 1.03.66 2.22.55 3.4-.22 3.24-2.4 6.45-6.09 6.45q-.68 0-1.41-.15z"/><path fill="#744126" d="M396.47 292.02s.12.15.17.25zm-6.39 8.2a5 5 0 0 1-.38-3.99 4.8 4.8 0 0 1-.69-6.2c.89-.27 1.77-.6 2.66-.9h.15a12 12 0 0 1 1.34.25l.28.15.15.1q1.02.86 2.05 1.62l.4.36.68.75q.02.06.08.13l.5 1.09q.09.18.13.4.01.9-.05 1.85-.16.9-.35 1.81-.16.6-.36 1.17l-.38.76-.45.68-.28.33-.4.35q-.8.59-1.52 1.24-.3.04-.6.05c-1.12 0-2.2-.56-3.04-1.97z"/><path fill="#a6603b" d="M380.74 299.22a4.9 4.9 0 0 1 1.62-5.8c.5-1.48 1.97-2.11 3.33-2.62 1.7-.66 3.36-1.77 5.23-1.82 8.44-2.32 7.58 14.84-.9 10.9-2.91 1.56-7.59 3.5-9.26-.69zm-253.57-21.84s.05.08.08.1l-.3.18zm-3.87 5.75a55 55 0 0 1 2.1-3.29q-.08.2-.1.4l-.64 2.94q-.67-.16-1.36-.06m-3.39 6.78q0 .36-.02.7-.15.83-.23 1.65c0-.18.05-.33.05-.48l-.1.73v.28q0 .07-.03.18v-.13l-.83 5.94h-.05c-.63 0-1.29.2-1.84.56q1.16-4.82 3.08-9.38zm-4.59 29.11.6 2.3.23 1.34v2.6a58 58 0 0 1-.84-6.24m11.1 31.19q.15.18.28.38-.13-.2-.28-.38"/><path fill="#a6603b" d="M116.75 329.25q.22.56.6 1.08.22.3.49.53a97 97 0 0 0 2.57 8.77c-.15.99.1 2 .66 2.88l1.04 1.62q.73 1.82 1.67 3.54a13 13 0 0 0 2.83 3.79q.59.5 1.28.7.7.88 1.42 1.75.43.68.86 1.4a30 30 0 0 0 3.94 5.05c.81.78 1.67 1.69 2.68 2.22q.44.23.88.43l1.34 1.31a101 101 0 0 0 5 4.4q.92.73 1.88 1.39a8 8 0 0 0 2.07.94 3.6 3.6 0 0 0 3.72-1.04c.1 0 .17.05.27.05l.1.08c.64.48 1.42.7 2.2.68v3.03q-.01.29.05.58c-21.2-5.03-34.16-23.96-37.6-45.16zm19.5-59.22a4 4 0 0 0-1.24-.83l.69-.58q.33-.2.63-.51c.17-.15.38-.28.55-.43q.59.19 1.22.18c.17 0 .38 0 .55-.05q-.77 1.18-1.44 2.45-.45-.19-.98-.25zm13.29 63.19.08.07q-.01-.02-.1-.07zm7.91 9.08.07.06-.08-.05"/><path fill="#a6603b" d="M163.1 375.82s0-.12.03-.18c.18-1.49.18-3.03.1-4.54q.84-.08 1.64-.23c2.02-.3 4.02-.6 6-1.06 2.12-.48 4.16-1.14 6.26-1.72a46 46 0 0 0 6.5-2.17l-.46.2c2.68-1.14 5.4-2.18 8.06-3.39 1.27-.58 2.48-1.24 3.7-1.9q1.7-.88 3.45-1.76a28 28 0 0 0 7.99-6.04 3.9 3.9 0 0 0 1.82-3.92q0-.15.02-.25.28-.42.43-.96a8.3 8.3 0 0 0-1.44-5.08 10 10 0 0 0-1.59-2.35 7.4 7.4 0 0 0-5.1-2.43 18 18 0 0 0-5.59.99l.48-.15c-1.39.4-2.68.88-3.97 1.56q-1.47.8-2.98 1.54-1.68.67-3.28 1.42c-1.2.53-2.45.93-3.72 1.34-.07 0-.15.05-.23.07q-.37.1-.75.23-1.07.31-2.13.56-1.97.46-3.94.86-1.9.19-3.82.28-.54-.02-1.08-.1c.15 0 .33.04.48.04-1.6-.25-3.21-.45-4.78-.75q-.96-.24-1.94-.43h-.08s-.05-.03-.05-.05q-.58-.36-1.21-.69-.77-.33-1.55-.63c-.05 0-.07-.05-.12-.05l-2.55-1.6q-.65-.42-1.27-.93c-.7-.68-1.34-1.44-2.05-2.12q-.9-.9-1.76-1.84l-.81-1.01v-.08a4 4 0 0 0-1.44-2.58l-.33-.28-.25-.22.05.02-.05-.05q-.45-.63-1.22-1.16l-.17-.13c-.97-1.72-1.98-3.43-2.81-5.2a39 39 0 0 1-2.22-7.33c-.23-1.9-.23-3.82-.28-5.71a48 48 0 0 1 .07-6.32c.2-1.32.53-2.55.86-3.84q.84-2.73 1.75-5.41l.33.18.17 3.18v1.06q.01.6.25 1.14a43 43 0 0 0-.88 3.08 32 32 0 0 0-.5 3.14c-.1 1.13-.13 2.25-.13 3.13v.38q.09 1.74.35 3.44.26 1.44.63 2.83.53 1.78 1.24 3.48.76 1.7 1.72 3.34.87 1.36 1.85 2.68 1.37 1.7 2.93 3.18 1.5 1.37 3.18 2.56 1.77 1.19 3.7 2.17a34 34 0 0 0 4.44 1.74h.05q2.23.63 4.5.96 2.54.28 5.1.18 2.55-.16 5.06-.73 2.15-.54 4.2-1.34a35 35 0 0 0 4.19-2.13q.94-.59 1.84-1.24a9 9 0 0 1 3.36-2.6 14.15 14.15 0 0 1 17.5 2.35c4.52 4.75 7.35 12.26 4.21 18.48-1.09 2.07-2.6 4.5-4.8 5.45q-.39 1.08-1.39 1.82c-11.95 8.65-26 15.93-40.86 15.93q-2.43 0-4.86-.28zm280.32-138.84c-.3-2.65-.7-5.33-.86-8v-.99l.06-.2c.3-.76.32-1.6.12-2.36q.24-1.17.23-2.47c.13-6.67-1.37-13.45-5.61-18.65-1.75-2.4-3.9-3.72-6.1-4.98q-.05-4.95.03-9.88.23.11.43.28a30 30 0 0 1 8.06 5.2q.22.76.49 1.5a38 38 0 0 0 2.42 5.27q1.21 2.19 2.2 4.53.43 1.21.78 2.42.2 1.1.36 2.23.12 1.37.17 2.75c-.05 1.9-.17 3.77-.22 5.64-.05 2.04 0 4.12.15 6.16q.4 5.45.76 10.95-.83.72-2.08.96c-.5 0-1-.16-1.49-.4z"/><path fill="#744126" d="M163.1 375.82v-.15q.25-2.25.08-4.57.83-.08 1.67-.23a75 75 0 0 0 5.99-1.06c2.12-.48 4.16-1.14 6.26-1.72a46 46 0 0 0 6.5-2.17l-.46.2c2.68-1.14 5.41-2.18 8.06-3.39a63 63 0 0 0 3.7-1.9q1.7-.88 3.46-1.76a28 28 0 0 0 7.98-6.04 4 4 0 0 0 1.82-3.92q0-.12.03-.25.26-.41.43-.94a8.3 8.3 0 0 0-1.44-5.08 9 9 0 0 0-1.6-2.32 7.4 7.4 0 0 0-5.1-2.43 18 18 0 0 0-5.59.99l.48-.15c-1.39.4-2.68.88-3.96 1.56q-1.47.8-2.99 1.55-1.67.66-3.28 1.41a35 35 0 0 1-3.72 1.34q-.11.02-.22.07l-.76.23q-1.06.31-2.12.56-1.96.45-3.95.83-1.9.2-3.81.28-.33.01-.66-.05c-1.57-.25-3.16-.45-4.73-.78q-.95-.24-1.94-.43h-.08s-.05 0-.05-.05c-.4-.23-.78-.48-1.21-.66q-.77-.37-1.54-.63-.07-.01-.13-.05c-.86-.53-1.67-1.09-2.55-1.6-.03 0-.08-.05-.1-.07q.04-3.39.1-6.77 1.4.87 2.88 1.64a34 34 0 0 0 4.45 1.74h.05q2.23.64 4.5.96 2.53.29 5.1.18 2.55-.16 5.06-.73 2.15-.54 4.2-1.34 2.14-.91 4.19-2.12.93-.6 1.84-1.24a9 9 0 0 1 3.36-2.6 14.15 14.15 0 0 1 17.49 2.34c4.52 4.75 7.35 12.26 4.22 18.48-1.09 2.07-2.6 4.5-4.8 5.46q-.4 1.07-1.4 1.81c-11.94 8.65-26 15.93-40.86 15.93q-2.39 0-4.82-.28z"/><path fill="#6580a3" d="M293.11 203.8v.6l-7.8 3.1c-.11-4.11.42-7.93 3.96-8.2 2.35 0 3.84 2.34 3.84 4.5M374 170.31q.66.9.8 1.82l-7.73 3.04q.01-.63.1-1.27a8 8 0 0 1 1.47-4.04l.3-.28c1.62-1.26 3.71-.96 5.03.7z"/><path fill="#a6603b" d="M264.56 209.38c2.07 1.04 2.47 3.41 2.12 5.51l-7.83 3.1q0-1.24.05-2.5c-.3-3.28 1.66-7.95 5.66-6.13zm-38.4 16.71c.88 3.84-1.77 5.46-4.88 6.6a32 32 0 0 0-2.33-7.13c-.22-.4-.5-.81-.75-1.22q1.62-.59 3.2-1.24c2.18-.85 4.25 1 4.78 3.01z"/><path fill="#744126" d="M206.24 264.03v.23l-.56-.15-.05-.03a3.5 3.5 0 0 1-1.44-1.23l-.28-.46c-.4-.8-.53-1.77-.43-2.7l.4.17q.05 0 .08.06l.18.12.2.15.15.13.08.07s.1.13.18.2l.02.06.18.2.05.08.1.15q.07.13.18.28.03.09.1.17l.15.38.13.33.15.5q.12.2.2.44.07.16.1.32v.05q.01.08.05.18v.03c0 .1.05.2.05.3zm16.84-4.31c2.73.15 4.5 2.7 4.12 5.3-.25 2.1-2.12 4.25-4.35 3.8q-.14-.02-.25-.08.01-4.56.05-9.12l.43.13zm18.47 5.68v.69l-1.31.6q-.74.35-1.5.36a3.85 3.85 0 0 1-3.5-2.68c-.74-2-.1-5 2.02-5.92q2.06-.88 4.1-1.8.06 4.41.17 8.78zm-19.05-18.44c2.5.73 3.79 4.52 2.3 6.85a4 4 0 0 1-2.1 1.82l-.08.02q0-3.78-.07-7.58 0-.56-.06-1.13zm18.6-5.11.12 6.14q-.43.2-.86.36c-2.12.86-4.22-.96-4.75-3.01-.63-2.17.43-5 2.73-5.69q1.35-.53 2.7-1.1l.05 3.28z"/><path fill="#744126" d="M206.25 264.27a5.1 5.1 0 0 1-1.74 4.12q-.07-.72-.1-1.44c-.05-1.09-.05-2.18-.13-3.26a9 9 0 0 1-.1-.86v-.28c-.05-.78 0-1.6.18-2.37q.96.74 1.46 2.55c.28.48.4 1 .46 1.54zm46.56 35.69h.4l.51.07s.08 0 .1.03q-.46-.11-.96-.1zm5.78 122.1v.05q-.01.35-.1.68a3.9 3.9 0 0 1-2.99 3.09c.23-1.87 1.2-3.06 2.4-3.57 0 0-.05-.02-.07-.05h.18q.3-.12.6-.17z"/><path fill="#a6603b" d="M198.6 274.38v.08q.01.08.05.15c0-.08-.05-.15-.05-.23m54.25 25.57h.4l.5.08h.08q-.45-.09-.9-.1z"/><path fill="#a6603b" d="M252.85 299.96h.4l.5.07s.1 0 .16.05c-.3-.07-.66-.12-.99-.12zm4.07 6.04v-.77q-.01-.49-.18-.93v-.2q.05-.27.03-.54v-.17q-.05-.5-.2-.91c0-1.09.12-2.23-.38-3.24a3.8 3.8 0 0 0-1.72-1.72l.6-.22h.64a4.4 4.4 0 0 0 2.65-1.24l1.74-.68 12.23-4.78q12.18-4.78 24.32-9.6 25.35-10.04 50.72-20.04l51.32-20.4 20.88-8.34c5.99-2.4 12.03-4.7 17.89-7.35.05 0 .1-.05.1-.05a3.3 3.3 0 0 1 2.3-.48 4 4 0 0 1 2.93 2.53c.58 1.38.5 3.03-.2 4.34a4 4 0 0 1-2.83 2.07c-1.16.38-2.3.86-3.41 1.3q-3.03 1.13-6.02 2.3-6.2 2.41-12.4 4.87c-8.55 3.34-17.04 6.75-25.56 10.1q-25.59 10.15-51.14 20.38-25.32 10.15-50.68 20.27l-20.24 8.1-9.8 3.98q-1.81.72-3.62 1.49v-.1zm188.4-55.66c.58 2.32-.66 5.23-3.01 5.71-1.06.33-2.12.8-3.16 1.21l-5.79 2.28q-5.9 2.32-11.8 4.72l-25.04 10.06q-25.2 10.16-50.37 20.37c-16.75 6.77-33.48 13.62-50.21 20.44-6.5 2.66-13.02 5.26-19.51 7.89l-10.04 4.12c-2.7 1.14-5.4 2.3-8.16 3.38q-.52.2-1.06.2h-.18q-.02-1.25-.07-2.47l-.16-6.62q.14-.07.28-.1c3.09-1.26 6.22-2.43 9.33-3.67q5.95-2.35 11.9-4.77 12.06-4.89 24.16-9.73l50.24-20.17q24.98-10.06 49.94-20.22l20.27-8.23c5.63-2.28 11.24-4.53 16.8-6.98a3.5 3.5 0 0 1 3.06-.4 4.3 4.3 0 0 1 2.55 3.03zM266.23 426.7l-.28.07zm-10.18 2.32a5.4 5.4 0 0 1-.63-2.53q-.01-.34.05-.63c.22-1.87 1.18-3.06 2.4-3.56l-.08-.06h.31q.22-.08.47-.12l.36-.1c4.75-1.4 9.35-3.34 14.18-4.42q1.26-.19 2.2.35a4 4 0 0 0-1.22 2.43c-.12.98-.07 2.04-.07 3.05v.08q-.7.15-1.34.53-.2.15-.43.25a26 26 0 0 1-5.97 2.35c-1.26.28-2.57.53-3.81.91-1.17.38-2.33.81-3.52 1.14h-.02.02l-1.18.28q-.57.06-1.14.05-.29 0-.58-.03z"/><path fill="#744126" d="M256.05 429.02a5.4 5.4 0 0 1-.63-2.53q-.01-.33.05-.63c.22-1.87 1.18-3.06 2.4-3.56a4.6 4.6 0 0 1 1.87 3.06 5.3 5.3 0 0 1-.6 3.33l-.19.05h.05q-.59.16-1.18.28-.57.06-1.14.05l-.58-.02z"/><path fill="#a6603b" d="M258.07 428.96s-.12 0-.17.03q.08 0 .17-.03"/><path fill="#a6603b" d="M256.68 429.04h-.58a5.4 5.4 0 0 1-.63-2.53c.15-5.99 7.6-5.99 7.73 0q0 .5-.07.91-.3.07-.61.18c-1.19.38-2.35.83-3.54 1.16q-.56.16-1.16.25-.5.05-.99.06h-.15z"/><path fill="#744126" d="m245.75 419.13-.3-.23.35.25h-.05z"/><path fill="#744126" d="M255.95 429.01q-.95-.17-1.85-.45-1.01-.31-2.02-.5h.07-.05a6 6 0 0 1-1.1-.28q-.72-.25-1.42-.46-1.26-.33-2.58-.5-.22-.06-.48-.1l-.58-.23-.48-.23a3.7 3.7 0 0 0-3.03-1.34q-.42.02-.79.08a5.3 5.3 0 0 1-2-2.76c-.42-1.77 0-3.84 1.37-4.95q.09.07.18.1a20 20 0 0 0 4.75 1.9c.55.35 1.13.58 1.84.63h.3q.55-.01 1.1-.18.78.41 1.6.78c.06 0 .11.05.16.05q-.01-.3.05-.58v-1.49a3.7 3.7 0 0 0 .48-4q0-.7-.33-1.43-.09-.23-.22-.43-.05-5.08-.13-10.11c-.1-8.67-.28-17.34-.4-25.98l-.4-27.24c-.36-6.95-.49-13.9-.64-20.88h-.18c-.2 0-.38-.07-.55-.12q-.58-.18-1.04-.56c-2.15-1.29-4.37-2.45-6.57-3.66q-4.88-2.7-9.76-5.34c-7.12-3.91-14.27-7.8-21.43-11.75q-6.22-3.44-12.48-6.85l-5.66-3.05q-1.44-.8-2.88-1.57l-.4-.2q-.39-.21-.69-.5.8.1 1.64.17c4.28.18 9.28.76 12.87-1.95q3.98 2.16 7.93 4.38l21.56 11.82q5.54 3.04 11.07 6.1 2.72 1.49 5.43 2.95l.91.5v-.78c-.05-3.16-.18-6.32-.25-9.5-.05-1.09-.08-2.27.1-3.36l-2-1.04q-4.27-2.31-8.56-4.6-11.1-5.95-22.22-11.87l-8.87-4.73c.15-2.35-.22-4.78-1.08-6.98q1.36-.83 2.5-1.94c.86.93 2 1.56 3.26 1.74 3.2 1.72 6.42 3.39 9.6 5.1l.94.51 7.68 4.1 13.82 7.35 6.62 3.51 1.57.84c-1.21.15-2.4.9-2.88 2.02-.2.48-.38.96-.4 1.49v2.33a7 7 0 0 0 .05 1.03q.02.26.07.48l.13.46q.01.14.1.27c0 .05.05.1.07.15 0 0 0 .06.06.08a2 2 0 0 0 .45.68q.16.24.4.43l.38.28.05.05q.17.11.33.18c.18.1.38.15.56.23l.45.1q.14.04.28.05h.05l.25.02h.43q.26.01.48-.05.13.01.26-.05.17-.01.35-.1l.33-.13a1 1 0 0 0 .3-.17 2 2 0 0 0 .4-.28l.18-.15q.08-.05.15-.13.08-.04.1-.1l.23-.28.2-.3q.19-.33.33-.66l.13-.33.08-.22q.04-.14.05-.28.14.44.17.93v1.34c0 2.1.06 4.2.06 6.32q0 4.32.1 8.62l-.28.1.15 6.62.07 2.48h.18l.23 14.65q.08 2.37.2 4.73c.25 1.26.3 2.78-.07 4.07.25 15.9.4 31.76.7 47.66q.1 6.24.23 12.46c.05 1.84.05 3.66.1 5.5q.06.4.05.74v.53q.01.46-.05.96-.3.07-.6.18h-.18c.02 0 .05.05.07.05-1.18.53-2.17 1.72-2.4 3.56q-.04.29-.05.64c0 1 .26 1.87.63 2.52h-.1z"/><path fill="#744126" d="M252.31 298.26c4.6 0 4.6 8.22 0 8.22s-4.6-8.22 0-8.22"/><path fill="#744126" d="M248.15 303.62c-2.48-2.25-1.77-7.3 1.52-8.17q.87.57 1.9.84c.62.28 1.28.5 1.94.58 2.07 2.7.63 7.99-2.53 7.99-.83 0-1.8-.38-2.83-1.24"/><path fill="#744126" d="M249.19 309.33c-.43-2.86-1.72-5.64-1.77-8.52.27-3.48 4.62-5.35 6.72-2.17 2.45.48 3.59 3.39 3.03 5.64-.45 2.67-.53 6.36-3.44 7.45-1.87.73-3.86-.6-4.54-2.4"/><path fill="#744126" d="M250.68 300.68c0-1.54.76-3.16 2.02-4q.46.13.94.18c.55.26 1.14.43 1.77.43h.33q.61-.04 1.16-.27c2.55 2.27 1.77 8.24-2.35 8.24-2.38 0-3.87-2.38-3.87-4.55z"/><path fill="#344b68" d="m193.37 169.75.5-1.26a5 5 0 0 0 2.03-.91 4 4 0 0 1-1.65 1.9l-.1.07q-.16.1-.33.17l-.42.28v-.22z"/><path fill="#344b68" d="M233.35 223.86q-.47-.46-.78-.96l-.03-.05c0-.05-.05-.08-.05-.1q-.16-.26-.35-.48l.07.1-.3-.4c-4.25-5.67-8.67-11.2-13-16.76-4.56-5.87-9.14-11.78-13.71-17.64-3.87-4.95-7.71-9.9-11.63-14.81q-.08-.86-.12-1.72l-.08-1.29.5-1.26a5 5 0 0 0 2.05-.91q1.12-.86 2.15-1.8l.1-.1c8.37 11.02 16.96 21.84 25.43 32.76l7.98 10.26q2.16 2.79 4.37 5.58c.58.73 1.14 1.54 1.77 2.25.23.2.43.4.5.53l.16.2a5.2 5.2 0 0 1 1 4.1 4.3 4.3 0 0 1-2.34 3.18q-.65.27-1.34.28c-.86 0-1.72-.3-2.35-.91z"/><path fill="#354b68" d="M241.78 293.99c-.68-.8-1.57-1.42-2.38-2.07a33 33 0 0 0-2.15-1.52c-.75-.53-1.59-1-2.4-1.49q-.13-.07-.27-.18 0-1.1-.06-2.2l-.17-11.16c-.1-8.04-.3-16.1-.46-24.14q-.16-8.22-.3-16.45c-.08-4.47-.33-8.92-.4-13.4-.06-2.14 1.44-4.52 3.76-4.54 2.35-.03 3.84 2.3 3.9 4.47.04 2.75 0 5.53.04 8.31.03 4.07.16 8.17.23 12.23l.46 23.56.32 16.5c.08 3.1.06 6.27.23 9.38q.09.45.1.9c0 .64-.12 1.3-.35 1.88 0 0-.05-.05-.05-.08zm-11.51-8.54v.88l-1.9-1.04-3.94-2.1-1.87-1.26v-.58c-.05-4.2-.02-8.42 0-12.61q0-4.56.06-9.12v-3.94q0-3.8-.08-7.59-.01-.56-.05-1.13c-.15-4.83-.25-9.66-1.21-14.3a32 32 0 0 0-2.33-7.13q-.36-.6-.76-1.22c-5.03-7.4-15.29-12.89-24.06-12.73-12.5.73-14.83 10.5-14.37 21.2q-.13.65-.16 1.39c-2.47.35-5 1.09-7.48 2.07 0-7.86-.15-15.82 3.49-22.8 4.55-8.46 15.34-12.28 24.49-10.33 28.8 7.8 30.32 26.66 30.12 52.7-.15 9.9-.18 19.75.08 29.63zM425 208.52c.12 3.26.27 6.52.32 9.75a4.2 4.2 0 0 1-1.44 2.91q-.67-.34-1.38-.63-1.22-.53-2.43-.99l-.43-.17q-.75-.3-1.54-.58a6 6 0 0 1-.15-1c.1-1.53-.2-3.25-.4-5q-.08-1.16-.1-2.32c0-.58-.06-1.16-.06-1.74-.6-17.57-.78-35.16-1.34-52.72v-.05c-.53-3.74 4-7.13 6.7-3.49q.22.38.4.73c1.14 2.48.23 5.34.56 8.04.18 9 .5 18 .66 27.02.05 6.74.35 13.5.63 20.26zm11.3 17.68q-1.43-.59-2.86-1.1c-.98-.38-1.94-.84-2.9-1.22a5 5 0 0 1-.18-1.28v-.18c.05-2.55 0-5.1-.05-7.66q-.06-6.32-.08-12.69l-.22-24.69c-.08-7.86-.1-15.74-.28-23.6-.05-2.43-.5-5.3 1.7-6.97a3.3 3.3 0 0 1 3.88-.13q.3 3.67.48 7.35c.2 4.07.48 8.14.94 12.18q.38 3.6.68 7.2c.1 7.94.15 15.88.25 23.81.1 8.19.28 16.38.33 24.54v.73a5 5 0 0 1-1.62 3.72q-.03.01-.1-.05zm-241.66-54.45a5 5 0 0 1 .38-3.66c.3-.16.61-.3.89-.53q1.1-.87 2.15-1.8l.1-.1c1.94-.8 3.91-1.54 5.88-2.3q5.82-2.3 11.63-4.65 12.07-4.87 24.19-9.7 24.9-10.01 49.8-20.1 24.72-9.97 49.44-19.98 12.52-5.1 25.04-10.16l12.71-5.16c3.9-1.57 7.79-3.1 11.63-4.78l.83-.38q.56-.4 1.32-.53c1.79-.35 3.4.89 4.06 2.5a5.1 5.1 0 0 1-.88 5.31c-.5.53-1.19.94-1.92 1.09h-.13c-1.19.4-2.35.88-3.49 1.34q-2.96 1.16-5.9 2.35l-12.42 5q-12.65 5.09-25.27 10.21-24.92 10.06-49.83 20.17l-49.56 20.12c-14.94 6.09-29.9 12.1-44.78 18.3q-.51.19-1.01.42-.58.27-1.17.26c-1.72 0-3.2-1.6-3.66-3.19z"/><path fill="#3e5427" d="m431.48 147.52.05.08q-.01-.04-.05-.08"/><path fill="#3e5427" d="m431.5 147.62-.07-.13c-.38-.55-.87-1.08-1.3-1.62q-1.16-1.47-2.37-2.95-3.65-4.53-7.33-9.05a5627 5627 0 0 0-15.52-19.13c-5.28-6.47-10.58-12.91-15.81-19.4-1.45-1.78-1.2-4.76.37-6.38a3.5 3.5 0 0 1 2.5-1.08c1.2 0 2.18.65 2.89 1.54 9.2 11.4 18.37 22.84 27.62 34.22 3.97 4.9 7.88 9.83 11.9 14.68l.23 1.74c.35 3.01.6 6.02.83 9.03q-.48.15-1.03.15a3.5 3.5 0 0 1-2.94-1.62z"/><path fill="#3e5427" d="M236.9 221.92c-.58-2.18.33-4.75 2.53-5.64l.12-.05c15.4-5.79 30.66-11.88 45.97-17.84q25.32-9.84 50.6-19.76c16.85-6.62 33.7-13.2 50.54-19.9l23.25-9.2q5.68-2.23 11.4-4.52c3.2-1.28 6.44-2.52 9.6-3.91q.1-.09.25-.18a3 3 0 0 1 1.57-.58q.5-.12 1.03 0 .5.12.94.35.41 3.87.7 7.74-.61.58-1.4.78h-.06q-.27.07-.53.1c-1.24.4-2.45.91-3.66 1.37q-3.02 1.14-6.04 2.32-6.12 2.37-12.23 4.78-12.76 4.96-25.5 9.98-25.26 9.91-50.5 19.86-25.26 9.97-50.49 20.02c-14.43 5.74-28.91 11.47-43.31 17.26q-.57.23-1.14.23c-1.72 0-3.24-1.54-3.67-3.21z"/><path fill="#3e5427" d="m235 225.32-.33-.4q-.25-.3-.43-.66c-1.13-1.66-2.45-3.23-3.66-4.82l-6.6-8.5c-4.5-5.78-8.94-11.6-13.47-17.38-3.05-3.92-6.14-7.84-9.17-11.78q-1.96-2.55-3.97-5.05c-.96-1.22-2.07-2.4-2.9-3.7a5.1 5.1 0 0 1 .32-5.4c1.14-1.52 3.44-2.15 4.98-.8.79.67 1.37 1.58 2 2.42q1.34 1.81 2.73 3.59c1.84 2.4 3.74 4.8 5.58 7.22q6.91 9 13.9 17.95l8.8 11.32c2.32 3 4.62 6.04 7.05 8.97.5.48.9 1.11 1.14 1.77v-.13q-.15-.26-.26-.56.36.56.53 1.27c.53 2.3-.53 5.3-3.1 5.74q-.3.04-.59.05c-.98 0-1.84-.46-2.5-1.14zm13.65-8.36c-.86-1.02-1.57-2.15-2.35-3.21l-3.74-5.16-7.05-9.63q-7.5-10.22-15.06-20.4c-1.82-2.47-3.62-5-5.56-7.37l-.05-.05.05.05q.18.18.38.35l.45.3s.15.03.2.06a4.6 4.6 0 0 1-2.37-4.17c0-2.15 1.56-4.48 3.89-4.45 1.92 0 3.2 1.6 3.61 3.31v-.05l-.17-.6-.23-.54c-.1-.18-.23-.33-.3-.5.9 1.49 2.02 2.85 3.03 4.27l6.44 8.82c4.85 6.62 9.73 13.16 14.6 19.76a552 552 0 0 0 8.22 11c.48.63 1.04 1.26 1.47 1.94a5.2 5.2 0 0 1-.08 5.89 3.8 3.8 0 0 1-2.98 1.49c-.88 0-1.77-.35-2.4-1.11m14.41-8.52-1.77-2.73q-1.5-2.34-3.06-4.65-3.3-5-6.65-9.98-6.89-10.33-13.84-20.57a291 291 0 0 0-4.48-6.47 5.1 5.1 0 0 1-.68-6.32c1.09-1.64 3.26-2.25 4.93-1.06.8.5 1.36 1.29 1.67 2.17.5.81 1.06 1.6 1.56 2.38q1.5 2.31 3.03 4.62 3.26 4.88 6.55 9.76a2949 2949 0 0 0 13.98 20.64q1.5 2.24 3.05 4.43c1.44 2.04 3.57 4.3 2.86 7.02-.43 1.67-1.54 3.13-3.39 3.26h-.25c-1.62 0-2.65-1.19-3.49-2.48zm13.77-8.82a1365 1365 0 0 0-9.73-15.92q-6.6-10.66-13.32-21.25c-1.06-1.64-2.07-3.34-3.14-5-.22-.36-.48-.69-.63-.89a5 5 0 0 1-1.26-3.24c0-2.14 1.39-4.52 3.74-4.57 1.44 0 2.6.86 3.26 2.05v-.03l.23.43q.03.1.1.2c.43.86.93 1.65 1.44 2.48q1.64 2.66 3.28 5.36c2.13 3.56 4.38 7.1 6.55 10.64q6.44 10.44 13.01 20.8 1.71 2.68 3.46 5.35c.71 1.1 1.47 2.1 1.67 3.42.3 2.07-.58 4.75-2.9 5.18q-.34.07-.69.07c-2.6 0-3.86-3.03-5.05-5.03zm21.71-.1a3.9 3.9 0 0 1-2.63-2c-3.92-6.69-8.09-13.24-12.18-19.8q-6.7-10.78-13.45-21.49l-1.08-1.69q-.89-1.41-1.82-2.78c-.46-.63-.81-1.34-1.16-1.77l-.23-.3a4.8 4.8 0 0 1-.91-2.93c0-2.15 1.49-4.5 3.84-4.5 1.72 0 2.93 1.24 3.49 2.73q0-.07-.03-.13l-.25-.53q.09.19.18.33c.3.6.7 1.16 1.03 1.74.58 1.04 1.19 2.02 1.8 3.03l6.09 9.86q6.82 11 13.77 21.91l1.01 1.6q2.99 4.7 6.04 9.34c1.26 1.93 1.29 4.65-.4 6.35a3.6 3.6 0 0 1-2.53 1.08q-.26.01-.56-.05zm113.76-47.73c-.62-.73-1.18-1.6-1.66-2.25l-.78-1.06-1.07-1.44c-4.85-6.57-9.85-13.02-14.83-19.49-5-6.52-9.98-13.06-15.04-19.56-1.34-1.72-2.62-3.51-4.1-5.15q-.52-.46-.95-1.12c-1.06-1.64-1.16-4.04.43-5.38 1.6-1.34 3.94-.8 5.36.5q.75.7 1.18 1.65c.46.73 1.02 1.42 1.17 1.6 4.82 6.49 9.78 12.88 14.73 19.27 5.13 6.63 10.21 13.32 15.34 19.94l3.1 3.95c1.1 1.39 2.3 2.72 3.3 4.2 1.08 1.58 1.13 4-.44 5.32a3.3 3.3 0 0 1-2.17.79 5 5 0 0 1-3.61-1.77zm-15.22 7.02c-1.7-.83-2.7-2.7-3.77-4.2l-2.55-3.5-5.2-7.13-.77-1.01a2691 2691 0 0 0-14.4-19.2l-6.55-8.55c-1.1-1.47-2.27-2.93-3.4-4.4a4.6 4.6 0 0 1-1.45-3.18c0-.96.18-1.87.81-2.66a3.5 3.5 0 0 1 3.03-1.16 5 5 0 0 1 3.7 2.45c0-.02-.06-.07-.08-.1l-.33-.43.23.33q.04.08.1.13l.07.1c.48.66.91 1.31.99 1.44 2.73 3.66 5.4 7.38 7.93 10.82.1.15.23.3.3.43 4.3 5.8 8.68 11.6 13 17.4q3.35 4.48 6.77 8.9 1.59 2.1 3.18 4.15.75 1 1.52 1.94c.89 1.14 1.85 2.23 2.07 3.7.2 1.28-.05 2.62-1.08 3.48-.64.53-1.34.73-2.1.73a5 5 0 0 1-2.07-.5zm-17.86 6.09a7 7 0 0 1-2.23-1.89l-.73-1.06-1.87-2.75-3.41-4.96q-3.66-5.25-7.36-10.51a2595 2595 0 0 0-14.12-19.89c-1.55-2.12-3.06-4.27-4.68-6.34-.3-.28-.56-.6-.68-.81-.13-.18-.23-.36-.28-.43q-.02-.07-.08-.1c0 .05.06.07.08.12l.02.05-.1-.17q-.3-.57-.43-1.16-.13-.58-.12-1.17c.05-1.34.8-2.58 2.04-3.1 1.34-.56 2.73-.2 3.92.5.84.5 1.47 1.26 1.87 2.15 1.52 2.4 3.19 4.72 4.83 7.05 2.32 3.33 4.7 6.67 7.05 10q7.19 10.2 14.48 20.32 1.7 2.4 3.49 4.78l1.74 2.38.76 1.03c.58.79.83 1.65.98 2.6a3.4 3.4 0 0 1-1.49 3.3q-.85.5-1.87.5-1 0-1.81-.46zM362 172.3c-.6-.76-1.12-1.64-1.6-2.35l-.4-.6q-.1-.18-.23-.36-.06-.12-.1-.13l-.63-.9a1735 1735 0 0 0-27.77-40.06c-.76-1.06-1.44-2.15-2.25-3.16l-.13-.13a5 5 0 0 1-1.31-3.2c0-2.23 1.77-3.97 4.02-3.64a5 5 0 0 1 3.76 3l.08.15 4.01 5.97c4.58 6.77 9.28 13.44 13.95 20.14q6.78 9.74 13.7 19.36c.43.6.91 1.19 1.3 1.84 1 1.65.95 4.07-.7 5.3-.62.49-1.33.7-2.04.7a5 5 0 0 1-3.69-1.93zm-14.77 6c-2.6-.71-3.86-3.34-5.25-5.41a809 809 0 0 0-9.88-14.36c-4.18-5.96-8.35-11.93-12.52-17.81l-.12-.2-.18-.26-3.51-4.87-1.9-2.68-.73-1.04a4 4 0 0 1-.53-.58c-1.36-1.67-1.67-4.42.15-5.92 1.85-1.46 4.48-.55 5.81 1.12q.48.62.79 1.31c.4.63.86 1.24 1.26 1.85l3.06 4.47c2.02 2.98 4.1 5.91 6.14 8.87 3.92 5.58 7.78 11.17 11.73 16.73l.32.48q1.1 1.53 2.2 3.1 1.68 2.36 3.39 4.7.99 1.38 1.97 2.71c1.09 1.5 2.2 2.93 2 4.93a3.26 3.26 0 0 1-4.2 2.86m-19.41 4.45-1.64-2.58-3.44-5.3c-2.3-3.52-4.57-7.03-6.9-10.52-4.45-6.75-8.87-13.5-13.44-20.17-1.52-2.22-2.98-4.47-4.58-6.64-1.74-1.85-2.25-5.06.18-6.5 2.38-1.41 5.28.33 6.27 2.7 1.49 2.48 3.1 4.9 4.7 7.3 2.22 3.42 4.5 6.8 6.74 10.2a3655 3655 0 0 0 13.75 20.54l2.73 4.02c1.04 1.49 2.3 2.98 2.96 4.7.45 1.16.35 2.78-.53 3.74-.5.55-1.04.9-1.8 1.08q-.42.11-.86.1c-1.71 0-3.28-1.26-4.16-2.65zm-12.93 9.11c-1.7-.3-2.76-1.66-3.6-3.03q-.87-1.48-1.76-2.93-1.48-2.42-2.98-4.8l-6.9-11.07q-6.55-10.4-13.17-20.77c-1.36-2.13-2.68-4.3-4.12-6.35a4.7 4.7 0 0 1-1.41-3.16c0-.96.17-1.87.8-2.62a3.5 3.5 0 0 1 3.04-1.17 5.1 5.1 0 0 1 4.07 3.26c1.49 2.6 3.16 5.13 4.72 7.69 2.15 3.43 4.3 6.9 6.47 10.3l13.62 21.41q1.36 2.13 2.76 4.25.78 1.16 1.56 2.37c.38.56.76 1.11.96 1.77q.45 1.47-.05 2.93c-.47 1.42-1.84 2.03-3.2 2.03q-.42 0-.84-.08z"/><path fill="#354b68" d="M204.29 168.36c-.68-2.14.05-4.7 2.22-5.63q.07-.01.15-.05.07-.01.13-.05c1.14-.4 2.27-.89 3.41-1.34q4.81-1.9 9.58-3.84 11.55-4.59 23.12-9.25l48.04-19.41c15.93-6.45 31.82-12.89 47.72-19.41 13.77-5.66 27.5-11.52 41.32-17.1a47 47 0 0 0 3.33-1.42q.54-.34 1.14-.46c1.8-.33 3.46.91 4.2 2.48.7 1.51.68 3.43-.28 4.82a3.6 3.6 0 0 1-1.72 1.4q-.22.08-.46.12c-1.8.58-3.54 1.4-5.28 2.1-2.73 1.14-5.48 2.2-8.24 3.28q-10.83 4.31-21.66 8.65a6594 6594 0 0 0-48.16 19.48q-24.12 9.81-48.2 19.71c-14.38 5.92-28.78 11.75-43.08 17.82l-2.28.99q-.58.22-1.16.22c-1.75 0-3.29-1.54-3.82-3.16z"/><path fill="#90abce" d="M206.25 264.27a5.1 5.1 0 0 1-1.75 4.12c-1.03.93-2.4 1.3-3.69.68a8.5 8.5 0 0 0 3.59-2.12 4.5 4.5 0 0 0 1.21-2.86 4.5 4.5 0 0 0-1.46-1.54l-.25-.18c-.69-.45-1.45-.86-2.08-1.39a3 3 0 0 1-.88-1.16c.8-.36 1.72-.46 2.53-.13q.45.16.85.5.97.75 1.47 2.56c.28.48.4 1.01.46 1.54z"/><path fill="#fff" d="M199.8 268.32c-.8-.91-.97-1.67-1.25-2.28-2.22-5.3 5.54-9.85 7.23-3.3 1.95 3.53-2.63 8.96-6.01 5.58z"/><path fill="#6580a3" d="M189.4 295.03q-.8-.07-1.64-.18a37 37 0 0 1-8.32-2.25c-.9-.58-1.9-1.03-2.85-1.51l-.13-.13a29 29 0 0 0-2.07-1.84 9 9 0 0 0-1.57-1.37q-1.11-.72-2.25-1.39l-.12-.08q-.15-.23-.26-.5c-.68-1.16-1.49-2.28-2.2-3.39l-3.61-5.63c-2.96-4.55-5.81-9.13-8.8-13.65l-2.2-3.29a5 5 0 0 1-.52-1.16 5.6 5.6 0 0 0-3.95-1.54 6.6 6.6 0 0 0-6.44 5.2l-.13.81-.1.1a32 32 0 0 0-5.08 7.06q-.46-.18-.96-.26-.27-.28-.63-.53-.15-.33-.28-.7a3.7 3.7 0 0 0 1.67-1.62l.4-.81c1.34-2.78 2.76-5.53 4.15-8.29q.73-1.4 1.41-2.8c.06 0 .1-.06.13-.08.63-.43 1.29-.86 1.84-1.36.03 0 .06-.06.08-.08a4 4 0 0 0 1.54-.5c.86.58 1.95.8 3.03.42a7 7 0 0 0 1.72-.8c1.01.32 2.13.17 3.11-.33 1.8-.99 3.24-2.73 4.42-4.37.61-.84 1.24-1.67 1.72-2.58.56-1.04.64-2.23.26-3.29a59 59 0 0 1 11.22-6.09c2.47-.98 5-1.72 7.48-2.07 6.62-.96 12.91.68 17.18 7.33 2.3.15 4.5.96 6.42 2.25a12.7 12.7 0 0 1 5.46 7.78q.38 1.8.13 3.74.59.43 1.1.88a9.5 9.5 0 0 1 2.46 3.37c.93 2.04 1.09 4.34.68 6.6a14.8 14.8 0 0 1-6.75 9.82c.86 2.2 1.24 4.6 1.09 6.98a13.8 13.8 0 0 1-4.3 9.5q-.38.36-.8.68c-2.3 1.75-5.24 2.1-8.14 2.1-1.6 0-3.21-.1-4.73-.18zm-24.82-45.09a8 8 0 0 1-3.84 3.39q-.68.45-1.36.99.14.15.25.35c2.75 4.25 5.38 8.54 8.16 12.76l7.28 11.25q.66 1.03 1.39 2.1.4.46.66 1c1.31.41 2.55 1.42 3.69 1.8 4.37 1.77 15.56 5.23 18.67.63.36-1.11.5-2.85-.1-3.89-1.03-1.14-2.58-1.29-3.79-2.1-2.88-2.12-1.84-7.45 1.67-8.24 1.14-.25 2.4-.53 3.59-.96 1.28.63 2.65.26 3.69-.68a5.1 5.1 0 0 0 1.74-4.12 3.5 3.5 0 0 0-.46-1.54 4.7 4.7 0 0 0-1.46-2.55q-.41-.35-.86-.5a3.3 3.3 0 0 0-2.53.12c-.78-1.75.18-3.94.2-5.79-.42-2.07-3-3.23-4.9-3.61-1.9.05-3.86.12-5.1-1.54-.73-.81-.76-2-1.27-2.91-1.64-2.22-4.4-2.83-7.02-2.98-.4-.03-.84-.05-1.24-.05-6.34 0-11.8 3.74-17.06 7.02z"/><path fill="#744126" d="M156.13 375.67c-1.34-2.45-.02-6.32 2.99-6.6 1.69-.1 3.4-.2 5.1-.43 14.96-3.61 32.53-5.86 42.36-19.05.73-.94 1.06-2.1 1.44-3.19-.05-.27-.13-.6-.23-.88-.99-6.72-9.3-9.2-14.66-5.69-10.44 7.13-26.4 11.32-37.8 4.3-4.8-3.67.27-12.64 4.92-6.87 6.62 2.5 14.13 1.39 20.75-.64 5.59-2.27 10.24-6.97 16.53-7.35 10.18-.63 18.12 8.34 18.1 18.04-.69 6.3-5.36 11.12-9.81 15.22-9.76 7.73-22.09 10.84-34.04 13.52-4.43.55-12.92 4.5-15.67-.38z"/><path fill="#6580a3" d="M152.52 293.08c-3.14-.43-4.3-5.08-6.07-6.9-2.98-4.01-5.76-7.93-8.82-11.77a5.6 5.6 0 0 1-1-5.03c.85-3.41 5.58-3.87 7-.56 1.86 3.13 4.57 6.22 6.31 8.82 2.4 4.17 9.12 9.1 5.59 14.2a3.5 3.5 0 0 1-2.99 1.27zm8.36 8.09c-4.3-1.06-4.27-8.54.35-8.94 1.52 0 2.58.8 4.07.63 2.17.12 4.57-1.52 4.98-3.62-1.54-3.05.96-7.83 4.67-6.24 5.13 3.51 3.06 11.48-.9 15.17-3.24 3.6-8.73 4.3-13.22 2.98z"/><path fill="#a6603b" d="M320.22 406.32c-1.09-2.25-.4-5.23 1.92-6.34.71-.36 1.52-.53 2.25-.81q2.44-.9 4.88-1.77c3.44-1.26 6.87-2.58 10.3-3.87q10.82-3.96 21.57-8.16c.73-.28 1.51-.56 2.22-.88q.66-.45 1.57-.54c1.82-.12 3.33 1.3 3.89 2.94.58 1.77.2 3.91-1.21 5.18q-.74.64-1.52.78-.18.01-.35.1c-6.07 2.1-12.06 4.45-18.07 6.72q-10.35 3.9-20.65 7.91c-.86.33-1.72.76-2.63.99q-.38.07-.73.07a4 4 0 0 1-3.46-2.34z"/><path fill="#506480" d="M235.94 443.42a5.3 5.3 0 0 1 .45-4.3c.69-1.06 2.03-1.99 3.34-1.74 4.22-.45 8.52-.9 12.81-1.41l1.3.33q1.44.31 2.92.3h.46c2.73-.08 5.23-1.09 7.8-1.9 2.2-.55 4.43-.96 6.53-1.79l.32-.13 2.28-.53c4.73-2.6 7.89 5.51 3.74 7.94-9.05 3.49-19.13 3.26-28.6 4.95-2.4.18-5.7 1.37-8.5 1.37-2.15 0-4-.69-4.88-3.09zm8.56 30.53c-1.74-3.59-2.95-7.48-5.48-10.66-1.31-1.9-3.51-3.19-4.22-5.49-1.34-3.51 1.4-6.65 4.95-5.03 4.86 3.14 7.71 8.7 9.99 13.93 3.61-.96 7.58-1.01 10.96-2.68 2.81-12.33 4-17.08 17.01-21.15 4.12-.16 5.49 5.88 2.66 8.31-2.7 1.64-6.25 1.84-8.62 4.22-4.45 5.76-1.37 15.97-10.67 18-3.18.9-6.52 1.23-9.75 2.02-2.38.65-5.43 1.03-6.85-1.5zm93.86-32.36c-11.07-.86-9.05-8.95-13.17-15.47-1.29-1.24-2.76-2.38-4.63-2.05-4.62-.5-4.82-8.54-.07-8.94v-.03c8.44-.23 13.24 8.11 14.63 15.47 1.21 3.64 8.67 2.52 8.52-1.55.12-4.64.33-10.05 4.22-13.24a35.4 35.4 0 0 1 16.47-7.65c2.08-.23 3.67 1.71 4.05 3.53.5 2.33-.84 5.41-3.54 5.44-4.75 1.46-12.13 3.05-13.42 8.54.66 8.34-3.69 16.65-13.06 15.97z"/><path fill="#506480" d="M320.29 409.6c-.2-2.75 1.87-5.33 4.8-4.75 8.31.25 16.48-1.39 24.34-4 3-1.06 5.99-2.27 8.82-3.73 2.2-1.8 5.43-2.05 6.77.9.96 1.95.58 4.9-1.42 6.1-11.17 6.19-24 9.37-36.74 9.65-.91 0-1.87 0-2.78.1-2.15 0-3.64-2.27-3.8-4.22z"/><path fill="#6580a3" d="M420.9 212.76c.81 2.4.36 4.75-.8 6.77q-.4.66-.92 1.29a4.4 4.4 0 0 1-1.06-2.05q-.1-.45-.15-.98c.1-1.55-.2-3.26-.4-5q-.16-1.2-.2-2.33h.1c1.44-.05 2.8.96 3.43 2.3"/><path fill="#354b68" d="M417.97 217.82c.28-4.15-2.37-9.83 1.44-12.86 1.92-1.32 4.32-.08 5.23 1.81.91 3.34.46 7.03.94 10.5.28 5.9-7.13 6.41-7.63.52z"/><path fill="#744126" d="M281.1 237.06c3.3 1.06 3.34 5.76 1.27 7.8-.1 2.05-1.39 4.02-3.56 4.3h.18l.5-.1-1.77.76c-.07 2.25-.3 4.5-.05 6.77-.1 5.92-7.5 5.92-7.66 0 .1-1 .06-2.17-.02-3.36q-7.4 3.36-14.78 6.67a732 732 0 0 0-13.65 6.2v-.69q-.07-4.4-.18-8.77a2748 2748 0 0 0 30.83-13.85 155 155 0 0 0-8.94-3.63c-7.48 2.55-14.79 5.7-22.07 8.81l-.12-6.14-.05-3.28c5.91-2.43 11.72-4.96 17.69-7.18v-.15c.05-4.4.05-8.82.15-13.22l7.83-3.1q-.08.46-.2.88c-.23 5.05-.1 10.1-.1 15.16 5 1.77 9.83 4.22 14.7 6.12m-58.49 22.54q0 4.56-.05 9.12l-9.58-2.63a11 11 0 0 0-.68-6.6 10 10 0 0 0-2.05-2.98l-.4-.38q-.51-.46-1.11-.88.26-1.93-.13-3.74a12 12 0 0 0-3.56-6.24 12 12 0 0 0-1.9-1.55q.2-4.72.28-9.5c.05-2.15.05-4.8 2-6.19a3.4 3.4 0 0 1 3.18-.48h.33q4.65-1.5 9.2-3.26.42.6.76 1.21a31 31 0 0 1 2.32 7.13c-1.97.7-4.14 1.19-5.7 1.92-1.48.38-3.04 1.21-4.6 1.7-.16 4.87-.18 9.8-.54 14.65 3.39-1.16 6.72-2.65 10.06-3.91a3.2 3.2 0 0 1 2-.08q0 .57.05 1.14.07 3.78.07 7.58l-5.89 2.2c1.98.58 3.92 1.18 5.92 1.74z"/><path fill="#506480" d="M418.12 218.79q.32 1.29 1.06 2.05c-2.68 3.3-7.4 5.28-11.47 4.22-2.43-.1-5.36-2.03-7.56-4.55-2.35 1.54-5.53 1.87-8.24 1.36a16.5 16.5 0 0 1-6.87-2.78c-.99.35-2.1.5-3.16.3-4.6-.35-8.57-4.37-9.18-8.9a9.8 9.8 0 0 1-5.38-2.97l-.96.38q-2.76 1.06-5.53 2.17c-4.07 1.62-8.14 3.2-12.2 4.83q-12.07 4.78-24.12 9.6c-11 4.42-22.01 8.74-32.95 13.32q-.57.22-1.14.22c-1.72 0-3.2-1.56-3.66-3.2l-.08-.4c-1.09-1.55-1.04-3.57-1.09-5.47-.05-4.27 0-8.56-.05-12.84.3-2-.17-5.4-.25-8.66l7.8-3.11c0 7.78-.14 15.56.09 23.37 5.5-2.07 10.94-4.3 16.4-6.44 8.18-3.23 16.35-6.5 24.54-9.73q8.8-3.48 17.63-7c4.7-1.87 9.48-3.66 14.13-5.71l.1-1.75c.1-5 .53-11.01.89-15.59.32-2 .12-4.22.2-6.37q3.87-1.53 7.73-3.03c.13.63.15 1.21.13 1.62-.1 1.82-.25 3.71-.36 5.5-.5 6.88-1.06 13.78-1.08 20.7q.23.84.18 1.72c.4.1.85.18 1.26 0l-.05.03c2.88-1.52 5.74 1.62 5.46 4.47-.4 2.18-.43 4.55 2.5 4.27 1.39-1.77 4.02-1.61 5.4.05q.33.41.59.86c.7.46 1.41.94 2.2 1.22 1.66.58 3.61.98 5.28.12q.35-.27.73-.48c.35-1.44 1.47-2.6 3.54-3.23 2.27-.23 4.04 2.1 4.12 4.2.13.45.66 1 .86 1.36 1.97 2 5.79 2.7 7.78.4.86-1.49 1.14-3.46 2.96-4.14q.52-.26 1.08-.28c0 .76.1 1.54.2 2.32.23 1.75.51 3.47.41 5q.04.54.15 1z"/><path fill="#354b68" d="M440.36 230.8c-7.3-2.22-14.4-5.3-21.33-8.49-2.86-1.64-2.68-6.84.4-8.13 2.96-.91 5.16 1.66 7.81 2.45 4.7 1.59 9.1 4.02 13.85 5.25 2.76.06 4.3 3.14 3.84 5.56-.35 2.08-2.37 4.05-4.55 3.34z"/><path fill="#000" d="m356.72 318 .08-.02zm-1.26 17.58q.46-1.8.73-3.63.22-1.84.28-3.67 0-2.01-.2-4.02-.1-.87-.23-1.74c-.12-.4-.23-.83-.23-1.26a4.7 4.7 0 0 1 .94-3.26l3.61-1.5q.1.01.18.05a3.8 3.8 0 0 1 2.38 2.15c.3.63.53 1.32.53 2.05.28 2.2.55 4.37.58 6.62q.05 3.72-.58 7.36-.68 0-1.4.07c-1.38.13-2.75.35-4.09.8-1.03.36-1.94.94-2.93 1.42l.43-1.41zm-40 14.53a46 46 0 0 1-6-7.93 5.2 5.2 0 0 1-.7-3.57q1.31-.54 2.56-1.13c1.16-.5 2.33-.99 3.44-1.57q.5.42.86 1.04a30 30 0 0 0 1.77 2.88q1.22 1.7 2.65 3.28c.9.96 1.9 1.87 2.9 2.7q1.5 1.2 3.14 2.23 1.66.96 3.44 1.67 1.75.67 3.61 1.09 1.56.3 3.1.37c1.1 0 2.18-.02 3.27-.15q1.44-.24 2.83-.63 1.36-.46 2.68-1.09 1.2-.66 2.35-1.46.5-.37.96-.76a10 10 0 0 0-.74 3.31q-.16 1.1-.12 2.2.05 1.36.18 2.73c.05.7.22 1.41.53 2.02a25 25 0 0 1-9.78 2.7q-.75.07-1.52.06c-8.11 0-15.95-4.2-21.45-9.99z"/><path fill="#000" d="m377.2 342.71-.42-.7c-.5-.76-.99-1.52-1.62-2.18-.58-.6-1.27-1.11-1.92-1.67l-.05-.05s-.05-.02-.05-.05a14 14 0 0 0-2.93-1.9c-1.01-.47-2.1-.57-3.19-.75-.6-.15-1.16-.4-1.77-.53a11 11 0 0 0-3.23-.13c-1.4.13-2.76.36-4.1.81q-.53.19-.98.4c.76-2.17 2.75-3.66 5.43-2.04 16.68 5.08 29.64-8.34 28.3-24.7v.66c-.12-1.74-.9-3.86-.9-5.73l1.16-.3c1.8-.46 3.51-.87 5.2-1.7l.36-.17q.57.84.76 1.84c4.44 15.09-4.45 34.8-19.84 39.1q-.07-.12-.18-.23zm-20.7-24.63.08-.03h-.08zm2.32 4.67c-1.87-.48-2.9-2.35-3.08-4.32l.68-.3q.03 0 .07-.03h.16q.08-.02.17-.08c-.05 0-.1.06-.17.08h-.03q3.12-1.25 6.2-2.58c.35.76.55 1.62.6 2.48.1 2.45-1.11 4.9-3.69 4.9q-.41 0-.86-.07z"/><path fill="#422414" d="M302.92 339.4c-.76-2.16 0-4.72 2.12-5.78q.36-.18.7-.25c6.27-2.33 12.44-4.9 18.6-7.4l22.07-8.95q11.9-4.82 23.78-9.6l11.95-4.86c3.8-1.56 7.63-3.06 11.43-4.7q.73-.3 1.44-.68a3.3 3.3 0 0 1 2.02-.48c2.42.23 3.61 2.68 3.61 4.85 0 1.87-1.39 3.72-3.16 4.07l-.33.1h-.02q-.12.02-.2.08h-.1c-3.52 1.26-6.98 2.75-10.44 4.17q-6 2.4-11.95 4.82l-23.74 9.66c-14.15 5.79-28.37 11.35-42.4 17.38q-.19.1-.38.16-.66.29-1.31.27c-1.65 0-3.14-1.28-3.67-2.9zm-3.42-13.1c-.65-2.06.08-4.82 2.23-5.73h.02c3.36-1.39 6.75-2.68 10.11-4.02l11.52-4.65 24.34-9.88q11.29-4.6 22.57-9.25l11.1-4.6c2.82-1.16 5.73-2.27 8.48-3.61q.33-.24.74-.4c1.9-.81 3.89.37 4.7 2.14.86 1.87.55 4.38-1.06 5.74q-.77.64-1.65.78h-.02c-3.21 1.09-6.37 2.45-9.5 3.72l-11.78 4.8q-12.25 5-24.46 10.03-11.1 4.58-22.22 9.2-5.47 2.24-10.89 4.53c-3.1 1.31-6.17 2.65-9.27 3.91l-.06.03q-.64.29-1.26.28c-1.67 0-3.16-1.4-3.66-3.01z"/><path fill="#422414" d="M301.63 342.38c-7.23-1.77-8.77-10.94-5.69-16.86 1.7-3.89 8.27-8.18 10.39-2.4.7 2.08 0 4.83-2.15 5.76-1.92.44-2.25 2.38-2.17 4.07.58.74 1.54.89 2.43.99 2.07.1 3.43 2.32 3.56 4.2.15 3.86-2.83 5.73-6.37 4.24m97.68-38.16c-4.4.02-5.38-6.37-2.07-8.5-.13-6.26-5.59-.73-8.37-3.5-2.65-2.23-1.8-7.74 1.95-8.04 4.93-1.67 10.03.25 12.4 4.9 2.61 4.85 2.56 13.57-3.88 15.11z"/><path fill="#6f2211" d="M356.4 368.7a19 19 0 0 1-9.87-9.84c-2.78-6.3-2.23-13.97 1.76-19.63a19 19 0 0 1 13.65-8.04c3.87-.4 7.83.63 11.2 2.55l.4.23.25.15q.42.27.74.6a19 19 0 0 1 6.17 7.63c2.3 5.19 2.4 11.15.17 16.36a19.2 19.2 0 0 1-10.39 10.2 18 18 0 0 1-6.7 1.3c-2.52 0-5.05-.53-7.37-1.52m6.93-7.31a14 14 0 0 0 4.3-.74q.74-.27 1.44-.63.86-.5 1.67-1.08.68-.55 1.31-1.17.46-.5.88-1.03.44-.66.86-1.34l.53-1.14q.23-.63.4-1.26.15-.64.24-1.32.06-.66.05-1.34a9 9 0 0 0-.3-2.17q-.19-.63-.41-1.24-.27-.65-.6-1.26a11 11 0 0 0-1.7-2.23c-.36-.35-.73-.65-1.11-.98l-.4-.3q-.15-.08-.31-.2-.49-.34-1.01-.64l-1.52-.7c-.58-.2-1.13-.36-1.74-.49q-1.02-.15-2.05-.2-.99 0-1.97.13-1.09.19-2.15.53-.83.3-1.67.73-.85.48-1.64 1.06-.58.45-1.11.99-.56.6-1.09 1.29-.44.64-.8 1.29a10 10 0 0 0-.92 2.35q-.15.65-.22 1.26-.05.55-.05 1.09.01.72.1 1.44.1.6.25 1.21.16.52.35 1.06.3.7.66 1.37.3.53.68 1.03.48.63 1.04 1.2l1.11.98q.71.53 1.47.96.8.42 1.64.75.95.3 1.95.54.95.15 1.92.2z"/><path fill="#6f2211" d="M363.1 355.53c-6.78-.3-6.43-11.98.85-10.21 6.22.02 5.51 11.8-.86 10.2"/><path fill="#744126" d="m266.23 426.7-.28.07zm-12.13 1.86h.08q-.06 0-.1-.02z"/><path fill="#744126" d="M255.96 429.03q-.9-.16-1.77-.43h-.08q-.71-.24-1.47-.38v-.05a4.8 4.8 0 0 1 1.44-3.9q.42-.37.94-.6c.55-.2 1.14-.38 1.31-.46 6.7-2.32 13.35-4.82 20.02-7.22q11.89-4.31 23.75-8.65 23.86-8.72 47.67-17.51 6.75-2.44 13.5-4.93l6.51-2.42c.96-.38 1.97-.74 2.93-1.17q.46-.27.99-.43c2.02-.5 3.84.99 4.47 2.83.58 1.77.23 3.92-1.19 5.18-.5.43-1.1.74-1.74.84-.68.15-1.34.4-1.62.5-7.35 2.56-14.6 5.34-21.9 7.99q-11.59 4.19-23.16 8.44c-16.07 5.91-32.17 11.8-48.21 17.77l-.76.27a3.9 3.9 0 0 0-4.93-.63q-.2.15-.4.25-1.3.69-2.58 1.22c-1.14.45-2.25.8-3.42 1.13-1.26.28-2.57.54-3.81.91-1.16.38-2.33.81-3.51 1.14h-.03.03l-1.2.28q-.56.06-1.13.05-.36.01-.7-.05z"/><path fill="#744126" d="M255.23 429.65c-4.43-.76-8.52-2.81-13.04-3.24a4.57 4.57 0 0 1-4.85-5c.1-2.08 1.74-4.4 4.06-4.1 4.93.5 9.56 2.25 14.3 3.36 4.94.46 4.66 9.28-.47 8.97"/><path fill="#744126" d="M250.19 422.07c.07-3.34.12-6.73.5-10.01.76-3.06 4.98-3.84 6.55-1.01 1.71 3.18.35 6.85.53 10.28.25 2.2-1.06 4.8-3.47 4.98-2.27.15-4.06-2.07-4.12-4.2z"/><path fill="#744126" d="M257.62 430.56c-5.5-1.37-4.4-8.8 1.04-9.56 4-1.41 8-2.75 11.95-4.24 2.28-.86 5.03-1.92 7 .13 2.2 2.02 1.24 5.63-1.14 7.1-6.19 2.14-12.58 4.77-18.85 6.54z"/><path fill="#506480" d="M271.02 484.71c-2.08-.7-3.04-2.9-2.91-4.95 0 0 .02-.2.05-.3 0-.1.02-.23.05-.3q.01-.24.1-.46a20 20 0 0 1 2.98-6.67 37 37 0 0 1 5.34-6.42 41 41 0 0 1 11.14-7.91l.38-.18h.03c3.15-1.39 6.67-2.3 10-1.14 2.63.56 3.84 3.94 2.93 6.4-.65-.1-1.31-.1-2-.1-2.09 0-4.36.98-5.98 2.42q-1.15.37-2.28.86a32 32 0 0 0-4.01 2.3 49 49 0 0 0-4.25 3.34 42 42 0 0 0-3.87 4.1q-.86 1.1-1.61 2.32a23 23 0 0 0-.99 1.94q-.2.43-.3.86l-.18.88a3.76 3.76 0 0 1-3.56 3.19q-.54 0-1.06-.18m83.81-37.11a4.95 4.95 0 0 1-2.02-6c2.53-5.96 6.95-11.19 11.9-15.28a30 30 0 0 1 7.76-4.73 15.6 15.6 0 0 1 8.16-1.21q.26.04.49.1c2.65.13 4.19 3.49 3.6 5.86q-.06.38-.22.74c-.7.02-1.41.1-2.07.35a5.5 5.5 0 0 0-2.25 1.87q-.19-.05-.38-.13l-.38-.07h-.9q-.64.06-1.27.2-1.09.3-2.15.73-1.69.77-3.26 1.77a41 41 0 0 0-3.79 2.83 47 47 0 0 0-3.84 3.94 34 34 0 0 0-2.53 3.5q-.9 1.47-1.67 3.1l-.15.38c-.63 1.46-1.94 2.53-3.41 2.53q-.8.02-1.64-.46z"/><path fill="#000" d="M159.68 246.32a5 5 0 0 1-.23-1.36v-.91c0-.26 0-.48.08-.74v-1.54q.08-2.31.12-4.67.15-5.61.25-11.22.26-11.37.59-22.72c.12-4.37.22-8.72.4-13.1q.15-3.09.23-6.19.03-1.6.1-3.23c.05-1.01.07-2.1.53-3.03.53-1.06 1.47-1.9 2.68-1.97a3.3 3.3 0 0 1 3.18 2.1l.13.32q.08.22.13.43.22.9.22 1.9l-.02 3.33c0 1.87-.05 3.74-.05 5.61 0 4.02-.08 8.06-.13 12.1q-.2 11.38-.45 22.7c-.16 6.7-.4 13.42-.4 20.12v.25c.14 1.92-1.02 4.12-3 4.6q-.37.09-.75.1c-1.7 0-3.16-1.36-3.66-2.95z"/><path fill="#000" d="M137.86 266.64c-2.55-9.6 6.14-19.76 16.15-17.16 1.67-2.25 3.79-4.12 5.58-6.3a3.6 3.6 0 0 1 2.83-1.76c4.53 0 5.29 6.27 2.18 8.62-1.67 1.77-3.74 3.94-5.08 5.73-1.01 1.7-2.33 3.5-4.55 3.29-2.4-.94-4.98-1.52-7.4-.1-4.83 2.58.5 9.5-5.14 11.2-2.22.55-4.14-1.42-4.54-3.52z"/><path fill="#000" d="M158.37 378.95c-47.46-9.88-64.07-76.75-27.45-108.2 3.67-2.75 11.17-11.46 13.6-3.12.6 3.48-1.77 4.87-4.27 6.44a58 58 0 0 0-12.46 12.3c-15.85 22.14-10.87 55.6 9.8 72.89 6.4 4.7 13.42 9.38 21.36 10.77 4.9.55 4.5 9.37-.6 8.94z"/><path fill="#000" d="M235.5 423.47q-.22-.12-.46-.28c-3.2-1.81-6.34-3.74-9.45-5.5q-.2-.12-.43-.23-.04-.01-.05-.03l-11.57-6.6-8.4-4.77c-2.5-1.42-5.02-2.86-7.34-4.2-.38-.2-.76-.43-1.04-.58l-.2-.12-1.67-.94q-.04 0-.08-.05l-.17-.1-.3-.18s-.06-.02-.08-.05l-.1-.05a3535 3535 0 0 0-21.6-12.2q-5.3-2.98-10.57-5.92c-2-1.1-3.97-2.22-6.02-3.23a4.4 4.4 0 0 1-1.57-1.14 3.44 3.44 0 0 1 .13-4.6 5 5 0 0 1 6.34-.68c.05.02.1.08.13.1.56.38 1.14.7 1.72 1.06q2.51 1.5 5.05 2.93l11.55 6.6q.14.07.15.1l.76.43 1.85 1.06c14.78 8.42 29.64 16.68 44.42 25.05q4.2 2.36 8.44 4.7 2.84 1.49 5.59 3.05a3.5 3.5 0 0 1 1.09 4.93 4.9 4.9 0 0 1-4 1.95c-.75 0-1.51-.15-2.17-.5z"/><path fill="#000" d="M220.8 504.3c-11.73-7.66-9.36-24.24 1.16-31.82.25-8.57 1.44-19.03 10.18-22.95.76-8.84 1.44-17.06 2.5-25.77.1-2 .16-4.18 1.7-5.7 2.95-3.15 7.53.06 6.19 4-1.04 7.7-1.7 15.19-2.3 22.77-.83 4.07.73 8.4-2.63 11.3-1.21.9-2.75 1.08-4.07 1.82-1.36.8-2 2.45-2.6 3.84-1.52 4.7-.58 9.78-1.72 14.48-1.39 2.88-4.95 3.39-6.37 6.32-3.44 4.3-2.7 10.59 1.97 13.64 1.42 1.17 2.3 1.57 2.73 3.26 1.01 3.72-3.56 7.89-6.72 4.83z"/><path fill="#000" d="M283.64 523.2c-17.54-1.55-35.4-4.98-51.32-12.69-3.7-2.25-19.54-9-14.71-14.15 2.55-2.58 6.16-.73 8.31 1.39 3.49 2.83 7.48 4.88 11.5 6.85 20.3 8.77 43.42 13.09 65.35 10.26a47 47 0 0 0 18.4-8.57c1.31-.94 2.65-1.84 3.66-3.1 1.52-1.78 4.55-1.52 6.25-.24 5.96 5.06-5.71 10.24-9.2 12.82-11.4 7.15-25.1 8.34-38.24 7.45z"/><path fill="#000" d="M325.7 507.76c-1.65-1.22-2.5-3.9-.79-5.46 1.14-1.06 2.07-2.99 1.14-4.43-.86-1.44-2.45-1-3.87-1.08-5.25-.66-5.53-7.81.08-7.69.45 0 .93.08.12 0 5.64-.5 11.28 3.21 12.72 8.75 1.33 5.05-3.67 13.97-9.43 9.88z"/><path fill="#000" d="M322.18 495.98c-2.88-.03-5.58-2.63-4.47-5.59q-.22.52-.28 1.07c.56-11.48-5.74-24.62-17.71-27.25-4.48-1.28-12.54 2.18-12.77-4.8.81-2.98.08-7.63-3.53-8.14-2.94.28-6.32 1.82-8.75-.68-1.62-1.56-1.39-4.07-1.41-6.14.15-3.76-.5-7.56-.08-11.3-1-1.36-.76-3.15-.3-4.7.28-2.7.45-5.43.7-8.13.13-2.35 2.71-3.49 4.78-3.21 6.45 1 3.29 8.36 3.26 12.78 1.01 1.47.71 3.44.3 5.09-.22 2.88.18 5.76.13 8.64 7.2-.4 13.45 5.48 13.95 12.5 18.63.56 31.16 18.83 30.28 36.37 0-.43 0-.86-.18-1.24.78 2.58-1.34 4.73-3.94 4.7z"/><path fill="#000" d="M274.15 422.24c-.52-2.15.54-4.88 2.71-5.71 1.92-.73 3.87-1.37 5.79-2.05q5.55-2.03 11.12-4.1 10.4-3.8 20.74-7.73a283 283 0 0 0 6.12-2.4q.54-.34 1.16-.5c2-.48 3.77.93 4.25 2.83.5 2.02-.38 4.4-2.2 5.46q-.62.37-1.31.45-.13.02-.26.08c-6.09 2.02-12.08 4.35-18.07 6.62-7.05 2.65-14.12 5.3-21.12 8.04-1.4.53-2.76 1.13-4.17 1.64q-.67.23-1.3.23c-1.63 0-3.03-1.14-3.46-2.89z"/><path fill="#000" d="M304.23 463.64c-7.94-2.73-3.8-18.53 1.77-22.27.4-9.35 2.45-20.32 10.51-26.13.13-3.46-.86-7.88 2.1-10.44v.13c-.79-4.9 5.81-8.4 7.63-2.75.07 3.2 1.11 7.53-2.1 9.47-.02 1.85.08 3.72.18 5.54.07 2.73-2.15 4.3-4.27 5.48-3.51 2.5-4.68 7.05-5.69 11.04a42 42 0 0 0-.68 6.85c.2 2.23.15 4.6-1.47 6.32-1.13 1.14-2.9 1.57-3.5 3.21-.84 1.92-1.7 4.14-.77 6.2 1.75 2.85-.05 7.52-3.71 7.32zm58.68 21.83c-11.6-1.8-48.95-8.47-54.15-18.42-.3-3.64 4.52-5.29 7.25-3.52 10.59 6.8 23.05 9.46 35.15 12.16 20.55 4.62 42.28 5.86 60.65-5.51 3.44-2.35 9.36 1.36 6.27 5.3-4.17 3.2-9.35 5.04-14.33 6.73-12.96 5.2-27.19 5.15-40.84 3.28zm.09-92.8a3.7 3.7 0 0 1-2.17-2.45c-.7-2.4.69-5.26 3.09-6.04 6.44-2.07 12.76-4.5 19.13-6.8 7.58-2.73 15.16-5.43 22.74-8.19q9.18-3.31 18.32-6.67c5.87-2.17 11.75-4.27 17.57-6.52q1.3-.54 2.63-1.04l1.36-.53a4 4 0 0 1 2.17-.68c1.82.02 3.14 1.52 3.39 3.26a5.2 5.2 0 0 1-2.17 4.95q-.8.54-1.65.61c-.7.2-1.41.48-2.12.7-1.62.54-3.2 1.1-4.83 1.68l-12.2 4.42c-8.09 2.9-16.15 5.91-24.24 8.9-6.21 2.27-12.43 4.62-18.65 6.92-6.11 2.27-12.25 4.5-18 6.72l-.5.2q-.26.12-.53.2-.04 0-.07.03l-.5.2q-.83.35-1.65.36-.55.01-1.09-.2z"/><path fill="#000" d="M412.74 471.6a5.5 5.5 0 0 1 1.64-3.27 6.1 6.1 0 0 0-3.34-5.73s-.96-.38-.96-.4c-2.07-.41-3.61-2.03-3.5-4.23-.9-15.44-13.4-28.96-29.2-29.03-6.09.7-4.62-7.4-6.62-11-4.07-1.59-9.1 1.82-9.17-5.08 0-6.52-.5-13.01-.43-19.53-.38-3.74-.38-9.68 4.9-9.2 2.07.4 3 2.48 2.83 4.42-.12 6.7.2 13.42.46 20.12 7.7.07 9.32 5.03 10.4 11.62 18.36.76 32.28 16.25 34.43 33.94 6.7 2.68 10.13 11.85 6.7 18.25-2.13 4.57-8.27 5.18-8.1-.89zm32.12-115.61.02-.54c.16-2.34.03-4.75 0-7.12l-.17-12.94-.4-26.1-.9-52.57c-.14-8.87-.3-17.74-.55-26.18-.1-2.2.99-4.7 3.39-5.16 2.55-.48 4.37 2 4.27 4.35-.05 1.57 0 3.13 0 4.7q-.01 3.34.05 6.7l.18 12.73.38 25.55c.22 17.7.53 35.38.83 53.07.13 6.57.18 13.14.38 19.69v.45c.02.79.02 1.6.1 2.03l.05.5v.05c.03.2 0 .43 0 .66 0 2.17-1.67 4.52-3.97 4.57h-.07c-2.35 0-3.64-2.3-3.64-4.4zm-11.49-159.46v-.27c.03-1.2-.05-2.4-.07-3.62l-.13-4.77q-.25-10.32-.53-20.63c-.23-7.98-.43-15.97-.8-23.95-.11-2.15 1.48-4.58 3.78-4.7 2.33-.13 3.84 2.12 3.87 4.27.07 7.78.33 15.54.58 23.32q.28 10.43.66 20.83c.1 2.85.15 5.68.3 8.54l.03.5v.05c0 2.18-1.44 4.58-3.8 4.7h-.17c-2.23 0-3.7-2.2-3.7-4.27z"/><path fill="#000" d="M443.8 231.5c-1.85-1.68-1.3-4.25-1.14-6.48.05-8.84-2.02-18.32-8.09-25.04-1.71-2.2-1.56-6.01 1.12-7.45 2.02-1.1 4.21-.23 5.1 1.87 1.36 2.12 3.1 4.01 4.25 6.31 3.28 4.5 10.81 37.08-1.24 30.78m-8.43-86.23a3.5 3.5 0 0 1-2.88-1.66c-.38-.63-.86-1.22-1.3-1.8q-1.43-1.93-2.87-3.81-3.74-4.92-7.53-9.83l-13.07-17.01c-2.75-3.56-5.43-7.15-8.19-10.7a333 333 0 0 0-4.62-5.85l-1.92-2.43-.74-.91a5.2 5.2 0 0 1 .1-5.91c1.32-1.72 3.92-2.08 5.41-.36.81.94 1.52 2 2.25 2.98l3.9 5.21c2.37 3.18 4.85 6.3 7.25 9.45l13.14 17.14c4.47 5.83 8.84 11.75 13.14 17 .18.2.33.43.53.61l-.4-.38q-.04 0-.08-.05a5 5 0 0 1 1.8 3.87c0 2.12-1.57 4.44-3.85 4.44zm-248.09 12.16c-.43-2.05.5-4.88 2.75-5.48q.23-.07.43-.18c4.12-1.64 8.24-3.26 12.16-4.8 16.27-6.47 32.52-13.07 48.75-19.64q24.82-10.03 49.6-20.09l48.93-19.94q9.15-3.7 18.27-7.45l9.2-3.8q2.08-.86 4.17-1.76c.78-.36 1.6-.66 2.35-1.06l.48-.3c2.02-1.17 4.32.47 4.98 2.4.78 2.22-.15 5.38-2.63 6.08q-.27.07-.5.1c-1.22.36-2.43.89-3.62 1.34-1.97.76-3.92 1.55-5.4 2.13-16.28 6.5-32.5 13.11-48.73 19.71q-24.56 9.95-49.08 19.94l-49.56 20.27-20.8 8.54c-5.73 2.35-11.42 4.88-17.18 7.15q-.52.2-1.01.2c-1.77 0-3.26-1.77-3.61-3.4z"/><path fill="#000" d="M161.73 181.07c-1.29-1.8-1.24-4.8.48-6.32.63-.55 1.34-1 2.02-1.49q1.23-.88 2.45-1.8 3.38-2.48 6.73-5c3.71-2.8 7.48-5.58 11.17-8.44l.9-.73q.47-.52 1.1-.86c1.81-.96 3.88 0 4.8 1.72.98 1.84.7 4.35-.81 5.84q-.47.45-.96.68c-1.45.96-2.81 2.05-4.17 3.08q-2.92 2.22-5.87 4.4c-3.91 2.93-7.86 5.86-11.7 8.92-.38.3-.76.66-1.16.94q-.95.66-2.02.65a3.6 3.6 0 0 1-2.93-1.56zm229.98-94.24c.08-2.4-1.14-6.04-4.02-5.91-1.84.43-3.94.63-5.15-1.19-1.67-2.27-1.06-6.22 1.8-7.25 3.96-1.19 8.3-.18 10.99 3.08 2.72 2.9 3.96 6.93 4.01 10.87-.15 5.71-7.12 6.04-7.6.25v.15zm-242.5 213.62s-.02.08-.05.1z"/><path fill="#000" d="M152.44 343.08c-5.73-6.29-11.44-13.31-12.8-21.98-1.25-8.12-.84-17.9 3.2-25.4l.28-.35q1.35-1.75 2.83-3.37.51-.52 1.04-1 1.04 1.09 2.07 2.22-.19-.18-.33-.36 1.05 1.16 2.07 2.35-.5 1.64-.96 3.26l-.33 1.37-.35.83v.03c-.46.96-.91 1.92-1.22 2.9q-.14.43-.17.86c-2.28 6.8-1.5 14.26 1.46 20.83v.33c.18 2.22 1.77 4.37 3.24 5.96.86.93 1.77 1.77 2.65 2.65.71.84 1.4 1.72 2.33 2.23 3.06 2.68.96 8.03-2.23 8.03-.86 0-1.82-.4-2.78-1.36z"/><path fill="#000" d="M152.16 340.35q.12-4.47.2-8.94.06.08.13.13 1.3 1.33 2.65 2.65c.91 1.08 1.77 2.22 3.2 2.58q.4.09.8.1.3.07.63.07v3.57c.02 2.14-1.07 4.57-3.5 4.75h-.25c-2.5 0-3.96-2.63-3.89-4.88zm-3.04-40.89c-1.67-1.97-3.8-4.37-3.74-6.84q.27-.34.55-.64.52-.52 1.04-1l2.1 2.22q-.19-.18-.33-.36c.7.79 1.36 1.57 2.07 2.35a53 53 0 0 0-.94 3.26q-.18.68-.32 1.37 0 .06-.06.12l-.35-.43z"/><path fill="#000" d="M153.83 343.26c-4.9-3.54-9.83-8.24-11.68-14.15-1-5.28 5.56-7.78 7.3-2.25 1.53 2.93 4.1 5.66 6.6 7.66 1.75 1 3.31 2.42 3.4 4.6.42 2.98-2.81 6.04-5.62 4.14"/><path fill="#000" d="M159.64 346.7c-2.4-.22-3.61-2.67-3.61-4.85 0-.17 0-.35.03-.43v-.32c.15-1.67.12-3.37.15-5.03q.13-5.03.22-10.11c.16-7.63.23-15.27.36-22.87.05-2.6-.1-5.2.02-7.81.1-2.12 1.67-4.32 4.02-4.12 2.4.23 3.61 2.65 3.61 4.83 0 2.17-.17 4.44-.22 6.67q-.13 5.15-.18 10.28c-.1 7.64-.38 15.27-.38 22.9 0 1.84-.07 3.69-.02 5.53v.48l-.1-.6-.05-.18c.07.38.12.78.15 1.06v.46c0 2.04-1.62 4.14-3.74 4.14h-.3z"/><path fill="#000" d="M154.2 342.36c-1.17-6.25 7.07-7.81 7.88-1.3.45 5.4-6.73 6.8-7.89 1.3m-10.63-38.32c-5.33-4.28 1.27-12.7 5.08-15.62 2.76-2.38 5.64-4.15 7.94-.18 2.37 5.38-3.26 6.42-5.76 9.78a9 9 0 0 0-1.82 3.77c-.61 2.3-3.31 3.66-5.41 2.27z"/><path fill="#000" d="M156.47 298.65c-2.07-2.7-6.04-5.12-5.38-9a4.2 4.2 0 0 1 2.93-3.38c2.65-.83 3.84 2.05 5.46 3.54l-.05-.05-.25-.25c2.22 2.12 4.67 5.23 2.62 8.34a3.5 3.5 0 0 1-5.33.83zm47.93-64.48c-2.76-6.47 5.83-7.83 10.15-9.53 3.95-1.24 10.31-5.81 11.88.69 1.16 5.55-5.71 6.08-9.45 7.58q-.33.03-.66.15-1.99.73-4.01 1.41l-5.36 1.9c-.99-.18-1.87-.81-2.58-2.2z"/><path fill="#000" d="M175.06 243.85c-6.01-1.24-2.6-9.53-2.68-13.5.61-9.17 2.43-20.6 11.93-24.61 15.32-6.3 35.69 2.32 42.06 17.61 2.32 2.88-.23 8.72-4.25 6.95-1.57-.73-2.35-2.3-2.8-3.87-1.4-3-3.7-5.48-6.12-7.7-7.56-5.23-18.53-8.62-27.17-4.17-6.92 4.72-5.28 14.78-6.65 21.76-.2 2.98-.22 7.75-4.34 7.53z"/><path fill="#000" d="M171.94 243.65c-5.5-9.02 11.25-12.66 17.13-9.28 2.33.96 5.16 3.34 6.7 6-2.75.95-5.48 1.94-8.24 2.87-2.4-1.59-6.01-1.54-8.61-.5-1.44 1.03-2.94 2.25-4.45 2.25-.84 0-1.67-.38-2.53-1.34"/><path fill="#000" d="M185.83 238.4c.28-2.82 2.98-3.38 5.18-3.96 5.38-1.82 10.74-4.1 16.2-5.79 3.54-.68 5.26 3.19 4.47 6.04-8.03 2.86-16.07 5.74-24.13 8.54a5.1 5.1 0 0 1-1.72-4.82"/><path fill="#000" d="M187.29 242.58a4.3 4.3 0 0 1-2.25-2.63c-.78-2.32.13-4.98 2.43-5.89.07 0 .15-.05.22-.05l.48-.15 4.25-1.44c7.4-2.58 14.76-5.23 22.16-7.8q1.36-.47 2.73-.97c.66-.22 1.4-.43 1.95-.73a3.4 3.4 0 0 1 1.74-.33c2.33.23 3.74 2.68 3.62 4.85l-5.13 3.82q.52.16 1.08.28h.56l.55-.1c-.93.17-1.87.6-2.25.73-6.72 2.35-13.39 4.75-19.58 6.9q-4.89 1.7-9.78 3.51v-.02q-.12.04-.23.1-.59.19-1.19.2-.64.01-1.31-.28zm182.87-50.29c-4.98-.91-3.29-6.95-3.21-10.54.45-3.44-.88-8.26 2.78-10.24 3.31-1.46 6.12 2.84 5.03 5.74-.91 4.22 1.74 14.99-4.6 15.04"/><path fill="#000" d="M366.75 190.93c-.99-4.28 3.71-5.92 6.42-8.1 10.5-6.23 23.98-9.04 36-6.49a24 24 0 0 1 9.36 6.42c3.59 4.22-1.9 10.97-5.79 5.74-7.83-7.96-24.84-3.26-33.79.99-4.14 1.94-9.55 9.3-12.15 1.44z"/><path fill="#000" d="M419.47 190.93c-2.1-.53-3.29-2.88-3.11-4.96q-.01-.23.05-.43c.05-1.18-.08-2.42-.1-3.58q-.01-2.55-.05-5.06c-.05-4.37-.08-8.74-.2-13.11-.08-2.25-.23-4.53-.23-6.78s1.72-4.34 3.99-4.14c2.4.2 3.67 2.65 3.67 4.83q-.01 4.57.05 9.14c0 .66.05 1.32.05 1.75.1 3.33.12 6.67.17 9.8v1.04l.13 6.07v.48-.18.17q.06.44.05.86-.02.37-.08.74c-.27 1.87-1.79 3.51-3.66 3.51a3 3 0 0 1-.8-.1z"/><path fill="#000" d="M415.35 189.95c-3.1-4.05 2.98-10.57 6.67-6.42 3.97 4.32-2.85 11.6-6.67 6.42M368.9 178.3c-2.09-1.78-1.58-4.66-1.48-7.06-.08-2.68.25-6.27 3.56-6.6 4.8 0 4.35 5.8 3.92 9.18.88 3.46-2.96 7.13-6.02 4.47z"/><path fill="#000" d="M369.02 172.18a5.1 5.1 0 0 1-1.64-5.1 4.2 4.2 0 0 1 2.8-3.01l1.14-.4c1.16-.41 2.3-.87 3.46-1.27 3.51-1.29 7-2.63 10.49-3.94 7.38-2.8 14.76-5.54 22.14-8.34 3.2-1.24 6.44-2.43 9.6-3.72l.35-.15a3 3 0 0 1 2.38-.7 4 4 0 0 1 1.5.46c2.42 1.38 2.87 4.81 1.36 6.99q-.27.4-.66.68a3.4 3.4 0 0 1-2.02.8c-.96.31-1.9.7-2.83 1.04-1.9.69-3.74 1.42-5.61 2.13l-10.85 4.14c-7.22 2.8-14.48 5.51-21.7 8.37a400 400 0 0 0-5.54 2.17l-1.08.45q-.51.2-1.02.2c-.8 0-1.64-.3-2.22-.8z"/><path fill="#000" d="M416.53 156.82a15.6 15.6 0 0 1-.45-7.79c.68-2.52 3.94-3.94 5.96-2a5 5 0 0 1 1.42 4.83c.1 1.47.35 3.11-.1 4.45a3.59 3.59 0 0 1-6.83.5"/><defs><filter id="crests-platform-features-filter0_d_26_10865" width="387.49" height="497.46" x="94.01" y="55.01" color-interpolation-filters="sRGB" filterUnits="userSpaceOnUse"><feFlood flood-opacity="0" result="BackgroundImageFix"/><feColorMatrix in="SourceAlpha" result="hardAlpha" values="0 0 0 0 0 0 0 0 0 0 0 0 0 0 0 0 0 0 127 0"/><feOffset dx="12" dy="12"/><feComposite in2="hardAlpha" operator="out"/><feColorMatrix values="0 0 0 0 0 0 0 0 0 0 0 0 0 0 0 0 0 0 0.4 0"/><feBlend in2="BackgroundImageFix" result="effect1_dropShadow_26_10865"/><feBlend in="SourceGraphic" in2="effect1_dropShadow_26_10865" result="shape"/></filter></defs></svg>