<svg xmlns="http://www.w3.org/2000/svg" fill="none" viewBox="0 0 600 600"><g filter="url(#crests-product-led-sales-filter0_d_23_12065)"><mask id="crests-product-led-sales-path-1-outside-1_23_12065" width="390" height="431" x="128.56" y="79" fill="#000" maskUnits="userSpaceOnUse"><path fill="#fff" d="M128.56 79h390v431h-390z"/><path d="M318.43 97.06a3 3 0 0 1 2.08.32q.24.05.48.15l.38.17q4.28 1.97 8.62 3.83l4.74 2.08c.96.41 1.95.92 2.96 1.3.49.08.95.27 1.29.58a4 4 0 0 1 1.36 1.79 4.7 4.7 0 0 1 1.13 3.03c-.05 2.7-.17 5.44-.26 8.16q-.15 5.63-.22 11.25-.2 11.03-.44 22.07l-.04 3.91c0 .65-.05 1.35-.03 2q.03.29.02.56c1.76 1.85.51 5.38-2.06 6.06l-1.48.5c5.96 1.12 11.92 2.34 17.9 3.27q.15.02.28.06c2.25-.09 4.72 2.26 4.28 5.18 5.55 40.94.58 50.96 44.23 64.96 12.58 5.22 25.61 12.34 32.83 24.29.62 1.06 1.47 2.46 2.2 3.96q.84-.02 1.59.34c1.35-.28 2.77-.43 3.83-.66 12.53-2.73 25.86 2.07 34.26 11.66 2 1.93 4.96 7.11 5.68 11.45 1.94.34 3.86.84 5.23.89 3.36.7 7.59-.32 9.93 2.75.92 1.28.82 2.6.16 3.6q.02.25.01.48.09 1.24.1 2.48l.12 3c0 .36.05.72.05.82.43 7.9.68 15.79 1.06 23.08l.2 4.6q0 .42.04.83v.1q.05.37.05.75 0 .6-.17 1.18a4 4 0 0 1-1.25 1.96 5 5 0 0 1-2.56 2.12l-11.03 4.61-.5.22c-15.05 6.37-30.06 12.89-45.06 19.36-7.43 3.21-14.87 6.37-22.3 9.6l-10.58 4.64q-2.46 1.06-4.87 2.15l-.84.37a4 4 0 0 1-2.69 1.47l-.58.02c-.94 0-1.88-.22-2.8-.39l-.02.05-3.17-.55-6.15-1.04q-5.48-.85-10.94-1.67c-7.96-1.18-15.9-2.48-23.87-3.7q-6.36-.94-12.7-1.9c-1.6-.23-3.21-.53-4.81-.78.26 2.52.53 5.03.49 7.56.01 1.42.12 2.82.19 4.25 9.33-1.43 13.88 4.63 14.92 12.58 20.14-.42 39.58 12.49 41.62 33.75a31 31 0 0 1-.39 9.63c3.06 3.28 4.75 9.99 3.9 13.45-2.58 18.3-36.5 17.24-50.7 17.77v-.02c-11.26-.24-22.55-.38-33.8-1.43a19 19 0 0 1-.52 7.36c-4.54 14.87-27.76 17.33-45.38 17.33-4.86 0-9.3-.2-12.8-.34v.08c-20.4-1.62-40.82-5.6-59.99-12.94-4.37-1.96-10-2.92-12.75-6.96q-.15-.39-.21-.76c-1.59-2.04-2.3-4.73-2.91-7.2a20.8 20.8 0 0 1 3.88-19.25c-.2-10.34 5.24-32.45 15.57-37.9l.03-.16c.39-6.25-1.25-13.69 2.63-19.05-.6-5.48 1.6-12.04-1.37-16.87q-.49-.56-.93-1.18-2.69-.4-5.37-.74l-11.9-1.52q-12.06-1.52-24.12-2.97c-1.78-.21-3.6-.36-5.38-.62-2.22-.32-3.4-2.76-3.19-4.8q.06-.66.31-1.28l-.03-.28v-.1c-.05-.44 0-.9.07-1.35.04-.82 0-1.65 0-1.84.1-17.11 0-34.25-.05-51.37l-.15-51.61c-.05-12.39-.17-24.77-.21-37.16 0-.68.12-1.39.37-2.04l-.1-.38v.03c-.5-2.1.45-4.54 2.55-5.31l.27-.1c5.36-1.76 10.64-3.72 15.98-5.6l9.39-3.33 1.88-.67a26 26 0 0 1-1.96-2.04 29 29 0 0 1-5.28-9.15c-3.2-8.74-1.96-18.61 1.54-27.04a57 57 0 0 1 3.98-7.58c.34-.5.66-1.16 1.14-1.54l.25-.2q.43-.93 1.24-1.55v-.02c.5-.36.98-.53 1.5-.65 7-1.86 13.95-3.89 20.92-5.87q11.59-3.29 23.13-6.76c1.33-.41 2.76-.72 3.87-1.1 1.11-.74 2.59-.98 3.87-1.31 4.41-.9 7.46 3.28 8.62 7.02 1.42 3.77.53 7.78-.9 11.35-1.59 5.89-2.9 13.54 2.03 18.15a17 17 0 0 0 4.3 2.55l.06-3.36q.08-3.75.13-7.48l.33-20.35q.15-7.74.15-15.48a4.8 4.8 0 0 1 1.02-2.95 4 4 0 0 1-.1-1.62 4.1 4.1 0 0 1 2.58-3.42c.85-.34 1.77-.56 2.66-.78 2.12-.6 4.25-1.23 5.89-1.69 15.11-4.22 30.27-8.25 45.4-12.45l2.6-.73 1.32-.36c1.33-.39 2.66-.75 3.67-1.04l5-1.42c.84-.24 1.74-.46 2.56-.77q.47-.27 1.01-.39m-67.2 304.04q.12 1.58.11 3.17 2.15-.3 4.33-.3c3.04.66 3.87 4.64 4.42 7.22.2 2.23 1.46 5.35 1.57 7.99q2.41-.52 4.88-.65c.03-4.49 2.01-10.86 4.26-15.77-6.43.33-13-.2-19.57-1.66m-73.28-241.42a40 40 0 0 0-1.69 3.75q-.81 2.12-1.35 4.3a42 42 0 0 0-.7 3.86v.19q-.16 1.63-.17 3.28.03 1.56.24 3.12.22 1.44.58 2.84.3 1.05.68 2.06c-2.47-7.6-.3-16.3 2.6-23.75z"/></mask><path fill="#fff" d="M318.43 97.06a3 3 0 0 1 2.08.32q.24.05.48.15l.38.17q4.28 1.97 8.62 3.83l4.74 2.08c.96.41 1.95.92 2.96 1.3.49.08.95.27 1.29.58a4 4 0 0 1 1.36 1.79 4.7 4.7 0 0 1 1.13 3.03c-.05 2.7-.17 5.44-.26 8.16q-.15 5.63-.22 11.25-.2 11.03-.44 22.07l-.04 3.91c0 .65-.05 1.35-.03 2q.03.29.02.56c1.76 1.85.51 5.38-2.06 6.06l-1.48.5c5.96 1.12 11.92 2.34 17.9 3.27q.15.02.28.06c2.25-.09 4.72 2.26 4.28 5.18 5.55 40.94.58 50.96 44.23 64.96 12.58 5.22 25.61 12.34 32.83 24.29.62 1.06 1.47 2.46 2.2 3.96q.84-.02 1.59.34c1.35-.28 2.77-.43 3.83-.66 12.53-2.73 25.86 2.07 34.26 11.66 2 1.93 4.96 7.11 5.68 11.45 1.94.34 3.86.84 5.23.89 3.36.7 7.59-.32 9.93 2.75.92 1.28.82 2.6.16 3.6q.02.25.01.48.09 1.24.1 2.48l.12 3c0 .36.05.72.05.82.43 7.9.68 15.79 1.06 23.08l.2 4.6q0 .42.04.83v.1q.05.37.05.75 0 .6-.17 1.18a4 4 0 0 1-1.25 1.96 5 5 0 0 1-2.56 2.12l-11.03 4.61-.5.22c-15.05 6.37-30.06 12.89-45.06 19.36-7.43 3.21-14.87 6.37-22.3 9.6l-10.58 4.64q-2.46 1.06-4.87 2.15l-.84.37a4 4 0 0 1-2.69 1.47l-.58.02c-.94 0-1.88-.22-2.8-.39l-.02.05-3.17-.55-6.15-1.04q-5.48-.85-10.94-1.67c-7.96-1.18-15.9-2.48-23.87-3.7q-6.36-.94-12.7-1.9c-1.6-.23-3.21-.53-4.81-.78.26 2.52.53 5.03.49 7.56.01 1.42.12 2.82.19 4.25 9.33-1.43 13.88 4.63 14.92 12.58 20.14-.42 39.58 12.49 41.62 33.75a31 31 0 0 1-.39 9.63c3.06 3.28 4.75 9.99 3.9 13.45-2.58 18.3-36.5 17.24-50.7 17.77v-.02c-11.26-.24-22.55-.38-33.8-1.43a19 19 0 0 1-.52 7.36c-4.54 14.87-27.76 17.33-45.38 17.33-4.86 0-9.3-.2-12.8-.34v.08c-20.4-1.62-40.82-5.6-59.99-12.94-4.37-1.96-10-2.92-12.75-6.96q-.15-.39-.21-.76c-1.59-2.04-2.3-4.73-2.91-7.2a20.8 20.8 0 0 1 3.88-19.25c-.2-10.34 5.24-32.45 15.57-37.9l.03-.16c.39-6.25-1.25-13.69 2.63-19.05-.6-5.48 1.6-12.04-1.37-16.87q-.49-.56-.93-1.18-2.69-.4-5.37-.74l-11.9-1.52q-12.06-1.52-24.12-2.97c-1.78-.21-3.6-.36-5.38-.62-2.22-.32-3.4-2.76-3.19-4.8q.06-.66.31-1.28l-.03-.28v-.1c-.05-.44 0-.9.07-1.35.04-.82 0-1.65 0-1.84.1-17.11 0-34.25-.05-51.37l-.15-51.61c-.05-12.39-.17-24.77-.21-37.16 0-.68.12-1.39.37-2.04l-.1-.38v.03c-.5-2.1.45-4.54 2.55-5.31l.27-.1c5.36-1.76 10.64-3.72 15.98-5.6l9.39-3.33 1.88-.67a26 26 0 0 1-1.96-2.04 29 29 0 0 1-5.28-9.15c-3.2-8.74-1.96-18.61 1.54-27.04a57 57 0 0 1 3.98-7.58c.34-.5.66-1.16 1.14-1.54l.25-.2q.43-.93 1.24-1.55v-.02c.5-.36.98-.53 1.5-.65 7-1.86 13.95-3.89 20.92-5.87q11.59-3.29 23.13-6.76c1.33-.41 2.76-.72 3.87-1.1 1.11-.74 2.59-.98 3.87-1.31 4.41-.9 7.46 3.28 8.62 7.02 1.42 3.77.53 7.78-.9 11.35-1.59 5.89-2.9 13.54 2.03 18.15a17 17 0 0 0 4.3 2.55l.06-3.36q.08-3.75.13-7.48l.33-20.35q.15-7.74.15-15.48a4.8 4.8 0 0 1 1.02-2.95 4 4 0 0 1-.1-1.62 4.1 4.1 0 0 1 2.58-3.42c.85-.34 1.77-.56 2.66-.78 2.12-.6 4.25-1.23 5.89-1.69 15.11-4.22 30.27-8.25 45.4-12.45l2.6-.73 1.32-.36c1.33-.39 2.66-.75 3.67-1.04l5-1.42c.84-.24 1.74-.46 2.56-.77q.47-.27 1.01-.39m-67.2 304.04q.12 1.58.11 3.17 2.15-.3 4.33-.3c3.04.66 3.87 4.64 4.42 7.22.2 2.23 1.46 5.35 1.57 7.99q2.41-.52 4.88-.65c.03-4.49 2.01-10.86 4.26-15.77-6.43.33-13-.2-19.57-1.66m-73.28-241.42a40 40 0 0 0-1.69 3.75q-.81 2.12-1.35 4.3a42 42 0 0 0-.7 3.86v.19q-.16 1.63-.17 3.28.03 1.56.24 3.12.22 1.44.58 2.84.3 1.05.68 2.06c-2.47-7.6-.3-16.3 2.6-23.75z"/><path fill="#fff" d="m318.43 97.06-3.3-16.68-.04.01zm2.08.32-8.04 14.98q2.07 1.11 4.36 1.62zm.48.15-6.25 15.8q.44.18.87.32zm.38.17 7.19-15.41-.87-.38zm8.62 3.83 6.93-15.52-.17-.07zm4.74 2.08-6.84 15.56.19.09zm2.96 1.3-6.05 15.89q1.72.66 3.53.93zm1.29.58-11.57 12.46q.84.78 1.77 1.44zm1.36 1.79-15.81 6.23q1.08 2.75 3.03 4.98zm1.13 3.03 17 .3v-.1zm-.26 8.16-17-.6v.17zm-.22 11.25 17 .28v-.06zm-.44 22.07-17-.33v.33zm-.04 3.91h17zm-.03 2-16.99.63.07 1.01zm.02.56-17-.25a17 17 0 0 0 4.7 12zm-2.06 6.06-4.35-16.44q-.54.14-1.07.32zm-1.48.5-5.5-16.08a17 17 0 0 0 2.35 32.78zm17.9 3.27 3.06-16.72-.47-.08zm.28.06-3.83 16.56q2.2.51 4.46.42zm4.28 5.18-16.81-2.52q-.36 2.4-.03 4.8zm44.23 64.96 6.5-15.7q-.63-.27-1.3-.49zm32.83 24.29 14.67-8.6-.12-.2zm2.2 3.96-15.26 7.48a17 17 0 0 0 15.74 9.5zm1.59.34-7.39 15.32a17 17 0 0 0 10.9 1.32zm3.83-.66-3.62-16.61h-.04zm34.26 11.66-12.79 11.2q.47.54.98 1.03zm5.68 11.45-16.77 2.78a17 17 0 0 0 13.77 13.95zm5.23.89 3.48-16.65q-1.46-.3-2.94-.35zm9.93 2.75 13.81-9.91-.3-.41zm.16 3.6-14.3-9.2a17 17 0 0 0-2.66 10.39zm.01.48-16.99-.55q-.03 1.02.06 2.04zm.1 2.48-17 .5.01.2zm.12 3h17l-.01-.68zm.05.82h-17l.02.93zm1.06 23.08 16.98-.8v-.1zm.2 4.6h17l-.02-.79zm.04.83h17q0-.77-.07-1.54zm0 .1h-17q0 .85.09 1.69zm.05.75h17zm-.17 1.18-16.22-5.07-.17.57zm-1.25 1.96-10.9-13.04q-2.47 2.07-4.02 4.9zm-2.56 2.12-6.49-15.71-.03.01zm-11.03 4.61 6.31 15.79.22-.1zm-.5.22 6.62 15.65.38-.16zm-45.06 19.36-6.73-15.6zm-22.3 9.6-6.79-15.58-.04.02zm-10.58 4.64 6.67 15.64.16-.07zm-4.87 2.15-6.95-15.51zm-.84.37-6.76-15.6a17 17 0 0 0-6.71 5.23zm-2.69 1.47v17q1 0 1.99-.12zm-.58.02v17zm-2.8-.39 3.08-16.71a17 17 0 0 0-18.28 9.11zm-.02.05-3.05 16.73a17 17 0 0 0 18.25-9.12zm-3.17-.55 3.05-16.73-.28-.05zm-6.15-1.04 2.76-16.78-.1-.01zm-10.94-1.67 2.56-16.8-.06-.01zm-23.87-3.7-2.6 16.81h.05zm-12.7-1.9 2.59-16.8-.1-.02zm-4.81-.78 2.63-16.8a17 17 0 0 0-19.54 18.54zm.49 7.56-17-.29v.45zm.19 4.25-16.98.8a17 17 0 0 0 19.55 16zm14.92 12.58-16.85 2.2a17 17 0 0 0 17.2 14.8zm41.62 33.75-16.93 1.62.05.43zm-.39 9.63-16.68-3.25a17 17 0 0 0 4.27 14.87zm3.9 13.45-16.5-4.05q-.21.83-.33 1.68zm-50.7 17.77h-17a17 17 0 0 0 17.64 16.99zm0-.02h17a17 17 0 0 0-16.64-17zm-33.8-1.43 1.57-16.93a17 17 0 0 0-18.43 19.12zm-.52 7.36 16.26 4.96.16-.55zm-45.38 17.33v17zm-12.8-.34.7-16.98a17 17 0 0 0-17.7 16.98zm0 .08-1.34 16.94a17 17 0 0 0 18.34-16.94zm-59.99-12.94-6.94 15.51q.42.2.86.36zm-12.75-6.96-15.77 6.33a17 17 0 0 0 1.73 3.26zm-.21-.76 16.76-2.8a17 17 0 0 0-3.35-7.64zm-2.91-7.2 16.5-4.07-.18-.7zm3.88-19.25 12.99 10.98a17 17 0 0 0 4.01-11.31zm15.57-37.9 7.93 15.03a17 17 0 0 0 8.71-11.56zm.03-.16 16.55 3.9q.33-1.42.42-2.85zm2.63-19.05 13.77 9.99a17 17 0 0 0 3.13-11.85zm-1.37-16.87 14.48-8.9q-.75-1.23-1.7-2.3zm-.93-1.18 13.96-9.71a17 17 0 0 0-11.48-7.11zm-5.37-.74 2.27-16.84-.1-.02zm-11.9-1.52 2.15-16.86h-.02zm-24.12-2.97-2.05 16.88h.03zm-5.38-.62 2.5-16.82-.12-.02zm-3.19-4.8 16.9 1.78.03-.18zm.31-1.28 15.79 6.32a17 17 0 0 0 1-9.02zm-.03-.28h-17q0 .88.09 1.77zm0-.1h17a17 17 0 0 0-.1-1.88zm.07-1.35 16.79 2.65q.14-.82.18-1.66zm0-1.84-17-.1v.1zm-.05-51.37-17 .05zm-.15-51.61 17-.05v-.02zm-.21-37.16h-17v.07zm.37-2.04 15.88 6.07a17 17 0 0 0 .25-11.44zm-.1-.38 16.57-3.76a17 17 0 0 0-33.58 3.76zm0 .03-16.58 3.8a17 17 0 0 0 33.57-3.8zm2.55-5.31-4.13-16.5q-.88.23-1.74.54zm.27-.1-5.31-16.15-.07.02zm15.98-5.6 5.66 16.03zm9.39-3.33 5.67 16.02.05-.01zm1.88-.67 5.62 16.05a17 17 0 0 0 6.01-28.44zm-1.96-2.04L186.85 184l-.1-.12zm-5.28-9.15-15.98 5.83.03.07zm1.54-27.04-15.65-6.64-.05.12zm2.56-5.16 14.89 8.2.13-.25zm1.42-2.42-14.14-9.43-.07.1zm1.14-1.54L185.94 163l.14-.11zm.25-.2 9.84 13.87a17 17 0 0 0 5.6-6.74zm1.24-1.55 10.2 13.6a17 17 0 0 0 6.8-13.6zm0-.02-9.89-13.83a17 17 0 0 0-7.11 13.83zm1.5-.65 3.93 16.54.42-.11zm20.92-5.87 4.64 16.36h.01zm23.13-6.76 4.9 16.28.17-.05zm3.87-1.1 5.56 16.06q2.03-.7 3.81-1.88zm3.87-1.31-3.37-16.67-.9.21zm8.62 7.02-16.24 5.03q.15.5.34.99zm-.9 11.35-15.79-6.3q-.36.91-.62 1.86zm2.03 18.15-11.62 12.41q.42.39.85.74zm4.3 2.55-6.44 15.73a17 17 0 0 0 23.43-15.11zm.06-3.36-17-.33v.03zm.13-7.48-17-.3v.13zm.33-20.35-17-.32v.01zm.15-15.48h17zm1.02-2.95 13.29 10.6a17 17 0 0 0 3.15-14.91zm-.1-1.62 16.82 2.5.02-.2zm2.58-3.42-6.3-15.79-.05.02zm2.66-.78 4.02 16.52.63-.16zm5.89-1.69 4.57 16.38zm45.4-12.45 4.56 16.38.18-.05zm2.6-.73-4.6-16.37-.15.05zm1.32-.36 3.34 16.67q.72-.15 1.4-.34zm3.67-1.04 4.67 16.35.06-.02zm5-1.42-4.67-16.35-.06.02zm2.56-.77 6.07 15.88q1.02-.4 1.99-.92zm-66.2 303.65 3.66-16.6a17 17 0 0 0-20.6 17.83zm.12 3.17-17-.16a17 17 0 0 0 19.28 17.01zm4.33-.3 3.57-16.62a17 17 0 0 0-3.57-.37zm4.42 7.22 16.93-1.56a17 17 0 0 0-.3-2.01zm1.57 7.99-16.99.67a17 17 0 0 0 20.58 15.95zm4.88-.65.9 16.98a17 17 0 0 0 16.1-16.87zm4.26-15.77 15.46 7.07a17 17 0 0 0-16.33-24.05zm-92.85-243.07-15-8-.08.15zm-1.69 3.74-15.8-6.27-.13.33zm-1.35 4.3-16.5-4.13-.08.37zm-.7 3.86-16.86-2.19q-.14 1.1-.14 2.19zm0 .19 16.93 1.5q.07-.75.07-1.5zm-.17 3.28h-17v.4zm.24 3.12-16.84 2.35.03.17zm.58 2.84-16.47 4.23.2.7zm.68 2.06-15.9 6.05a17 17 0 0 0 32.07-11.3zm2.6-23.75 15.84 6.2a17 17 0 0 0-30.73-14.4zm140.29-62.27 3.3 16.68c-3.46.68-6.73-.02-9.26-1.38l8.04-14.98 8.04-14.98c-3.76-2.02-8.45-3-13.42-2.02zm2.08.32-3.68 16.6q-.98-.22-2.09-.64l6.25-15.81 6.25-15.81a20 20 0 0 0-3.06-.94zm.48.15-5.38 16.12q-.75-.25-1.18-.45l-.54-.23c-.01-.01-.04-.03 0 0l.18.08q.27.14 1 .43l6.3-15.78 6.32-15.79c.4.16.7.3.8.35l.1.04h-.01l-.02-.01-.07-.03c-.2-.1-1.03-.5-2.13-.86zm.38.17-7.18 15.4a363 363 0 0 0 9.04 4.03l6.76-15.6 6.76-15.6a330 330 0 0 1-8.2-3.64zm8.62 3.83-6.92 15.53c1.6.72 3.4 1.49 4.82 2.11l6.84-15.56 6.83-15.56-4.64-2.04zm4.74 2.08-6.65 15.65 1.04.47c.55.25 1.47.67 2.52 1.07l6.05-15.89 6.06-15.88-.49-.22-.76-.35-1.12-.5zm2.96 1.3-2.52 16.82a14.6 14.6 0 0 1-7.76-3.78l11.56-12.46 11.57-12.45a19.4 19.4 0 0 0-10.32-4.94zm1.29.58-9.8 13.9a13 13 0 0 1-4.66-5.88l15.82-6.23 15.81-6.24a21 21 0 0 0-7.39-9.45zm1.36 1.79-12.78 11.2c-2-2.27-3.12-5.18-3.09-8.37l17 .2 17 .2a21.6 21.6 0 0 0-5.35-14.44zm1.13 3.03-17-.3c-.04 2.5-.15 4.93-.25 7.86l16.99.6 16.99.6c.09-2.52.22-5.55.27-8.45zm-.26 8.16-17-.43q-.15 5.73-.22 11.46l17 .22 17 .22q.07-5.5.21-11.03zm-.22 11.25-17-.27c-.12 7.33-.29 14.56-.43 22l17 .34 17 .33c.13-7.28.3-14.72.43-22.12zm-.44 22.07h-17c0 .47 0 .97-.02 1.64l-.02 2.27h34c0-.47 0-.96.02-1.64 0-.63.03-1.44.03-2.27zm-.04 3.91h-17v.07l-.02.47c0 .38-.03 1.19 0 2.1l17-.64 16.98-.62v.24-.16l.02-.22v-.32l.02-.92zm-.03 2-16.92 1.64a12 12 0 0 1-.05-1.33l17 .25 17 .26q.01-1.11-.1-2.45zm.02.56L328.2 170a13.7 13.7 0 0 1-3.17-13.84 13 13 0 0 1 9.06-8.28l4.35 16.44 4.33 16.43a21 21 0 0 0 14.39-13.45c1.9-5.48 2.06-14.05-4.36-20.78zm-2.06 6.06L333 148.2l-1.55.54 5.5 16.08 5.5 16.08 1.4-.47zm-1.48.5-3.15 16.7c5.61 1.06 12.1 2.39 18.45 3.37l2.6-16.8 2.6-16.8c-5.6-.87-11.03-1.98-17.34-3.18zm17.9 3.27-3.06 16.72-.49-.1 3.83-16.56 3.83-16.57q-.59-.13-1.05-.21zm.28.06.63 16.98a12.9 12.9 0 0 1-10.14-4.17c-2.12-2.36-3.64-6-3.02-10.15l16.81 2.52 16.81 2.51a21.5 21.5 0 0 0-5.29-17.58 21.2 21.2 0 0 0-16.43-7.1zm4.28 5.18-16.84 2.28c.66 4.92 1.17 9.39 1.66 13.61.47 4.15.93 8.23 1.47 11.99 1.06 7.37 2.64 15.26 6.48 22.59 8.34 15.94 24.23 23.6 46.27 30.68l5.19-16.19 5.2-16.19c-21.62-6.93-25.07-11.27-26.54-14.07-1.07-2.04-2.02-5.22-2.95-11.67-.45-3.16-.85-6.7-1.34-10.98-.48-4.22-1.03-9.02-1.75-14.34zm44.23 64.96-6.51 15.7c12.05 5 20.57 10.4 24.79 17.38l14.55-8.8 14.55-8.78c-10.22-16.92-27.76-25.77-40.87-31.2zm32.83 24.29-14.67 8.6c.4.65.64 1.07.95 1.61q.42.74.66 1.23l15.26-7.48 15.26-7.49c-1.08-2.2-2.31-4.25-2.8-5.07zm2.2 3.96.48 16.99c-2.33.07-4.47-.46-6.28-1.33l7.39-15.32 7.38-15.3a20.4 20.4 0 0 0-9.45-2.04zm1.59.34 3.52 16.64c.15-.04.4-.08 1.1-.19l1.18-.19c.44-.07 1.04-.18 1.7-.32l-3.67-16.6-3.66-16.6q.2-.05-.02 0l-.73.11c-.6.1-1.74.27-2.94.52zm3.83-.66 3.62 16.6c6.11-1.32 13.27 1.03 17.85 6.26l12.79-11.2 12.78-11.2c-12.22-13.95-31.7-21.2-50.65-17.07zm34.26 11.66-11.81 12.23a7 7 0 0 1-.56-.6q-.08-.11.01.03a10 10 0 0 1 1.16 2.26c.14.39.14.5.11.31l16.77-2.78 16.77-2.8a40 40 0 0 0-4.05-11.67 37 37 0 0 0-6.6-9.21zm5.68 11.45-3 16.73 1.06.2 1.53.31c.94.19 2.94.57 5.1.64l.54-17 .54-16.99.77.06-.12-.02-.35-.06-1.24-.25-1.82-.36zm5.23.89-3.47 16.64c1.16.24 2.2.38 3.03.46s1.59.13 2.12.16l1.25.07.35.03q-.08 0-.66-.13a11.6 11.6 0 0 1-6.2-4.16l13.5-10.32 13.52-10.32c-5.27-6.9-12.46-8.38-16.02-8.82-1.6-.2-3.37-.27-3.82-.3-.84-.04-.63-.06-.12.04zm9.93 2.75-13.81 9.9a13.9 13.9 0 0 1-.32-15.5l14.3 9.2 14.29 9.21a20.1 20.1 0 0 0-.65-22.72zm.16 3.6-16.96 1.19q-.03-.52-.02-1.26l17 .55 16.98.54q.03-1.2-.04-2.2zm.01.48-16.93 1.5v.23l.02.5.02.75 16.99-.5 17-.5c-.01-.13-.03-2-.16-3.48zm.1 2.48-16.99.7.12 2.98 17-.68 16.98-.68-.12-3zm.12 3h-17a23 23 0 0 0 .08 1.88l.02.2v.05l-.02-.24-.03-1.07h34l-.02-.76-.02-.4-.03-.39-.01-.13q0-.02 0 0a6 6 0 0 1 .03.86zm.05.82-16.98.93q.3 5.74.54 11.55c.17 3.84.33 7.74.53 11.5l16.97-.9 16.98-.9q-.27-5.29-.5-11.13c-.17-3.87-.34-7.91-.57-11.99zm1.06 23.08-16.98.8.09 2.17.1 2.44 16.98-.8 16.99-.8-.1-2.17q-.03-1.15-.1-2.44zm.2 4.6h-17c0 1.15.1 2.17.11 2.37l16.93-1.54 16.93-1.54c0-.12 0-.08 0 0l.02.72zm.04.83h-17v.1h34v-.1zm0 .1-16.91 1.69-.01-.12c-.01-.12-.03-.42-.03-.82h34c0-1.18-.1-2.2-.13-2.45zm.05.75h-17c0-.98.12-2.35.6-3.9l16.23 5.08 16.23 5.07c.72-2.32.94-4.46.94-6.25zm-.17 1.18-16.4-4.5a13 13 0 0 1 4.25-6.58l10.9 13.04 10.9 13.04a21 21 0 0 0 6.75-10.5zm-1.25 1.96-14.92-8.14a12.2 12.2 0 0 1 5.87-5.45l6.5 15.71 6.48 15.71a21.8 21.8 0 0 0 11-9.69zm-2.56 2.12-6.52-15.7-11.04 4.62 6.53 15.7 6.53 15.69c3.99-1.66 7.03-2.95 11.03-4.61zm-11.03 4.61-6.32-15.78-.83.35-.24.1-.08.04-.03.01h-.01v.01h-.01l7.01 15.49 7.01 15.49h-.03l-.01.01-.01.01h-.02l-.12.06zm-.5.22-6.64-15.65c-15.11 6.4-30.2 12.95-45.15 19.4l6.73 15.61 6.74 15.6c15.04-6.48 29.97-12.96 44.94-19.3zm-45.06 19.36-6.74-15.6c-7.29 3.14-14.91 6.39-22.35 9.62l6.79 15.59 6.78 15.59c7.44-3.24 14.68-6.32 22.26-9.6zm-22.3 9.6-6.83-15.56-5.28 2.32-5.3 2.31 6.83 15.57 6.83 15.57 5.28-2.31 5.3-2.32zm-10.58 4.64-6.67-15.63c-1.8.77-3.55 1.55-5.15 2.27l6.95 15.51 6.94 15.52c1.64-.74 3.12-1.4 4.6-2.03zm-4.87 2.15-6.96-15.51-.64.28 6.76 15.6 6.77 15.6 1.02-.46zm-.84.37-13.47-10.37a13 13 0 0 1 8.8-5.05l1.98 16.89 1.99 16.88a21 21 0 0 0 14.18-7.99zm-2.69 1.47v-17a19 19 0 0 0-1.24.04l.66-.02v34a19 19 0 0 0 1.24-.04l-.66.02zm-.58.02v-17a10 10 0 0 1 1.3.09l-.04-.01-.19-.04-.32-.06-.47-.08-3.08 16.71-3.08 16.72.6.12 1.16.2c.92.15 2.38.35 4.12.35zm-2.8-.39-15.2-7.6-.03.05 15.2 7.6 15.21 7.6.03-.04zm-.02.05 3.04-16.72q-.95-.18-1.73-.3l-1.44-.26-3.04 16.73-3.04 16.72q.95.18 1.73.3l1.44.26zm-3.17-.55 2.77-16.78-2.98-.5-3.18-.54-2.76 16.78-2.77 16.77 2.99.5 3.17.54zm-6.15-1.04 2.67-16.8c-3.71-.58-7.55-1.14-11.05-1.67l-2.56 16.8-2.56 16.8c3.8.59 7.25 1.09 10.83 1.66zm-10.94-1.67 2.5-16.81c-8.15-1.21-15.37-2.4-23.83-3.69l-2.54 16.8-2.55 16.82c7.47 1.13 16.15 2.54 23.93 3.7zm-23.87-3.7 2.59-16.8-6.45-.96-6.25-.94-2.6 16.8-2.58 16.8 6.45.97 6.24.94zm-12.7-1.9 2.49-16.81c-1.76-.26-2.27-.39-4.67-.76l-2.63 16.8-2.64 16.79c.81.12 3.52.58 4.96.8zm-4.81-.78-16.91 1.74c.28 2.79.42 4.22.4 5.53l17 .29 17 .28c.06-3.74-.35-7.33-.58-9.58zm.49 7.56-17 .16c.02 1.84.17 4.16.2 4.9l16.99-.81 16.98-.8c-.1-2.12-.16-2.6-.17-3.61zm.19 4.25 2.57 16.8c.35-.05-.1.08-1.03-.18a6.6 6.6 0 0 1-2.72-1.56c-.7-.67-.94-1.2-.96-1.26-.01-.03.11.26.2.98l16.86-2.2 16.86-2.21c-.82-6.24-3.26-13.95-9.46-19.88-6.83-6.53-15.86-8.68-24.9-7.3zm14.92 12.58.35 17c13.65-.29 23.37 8.17 24.34 18.37l16.93-1.62 16.92-1.62c-3.1-32.33-32.26-49.68-58.88-49.13zm41.62 33.75-16.88 2.05q.25 1.98-.2 4.33l16.7 3.25 16.68 3.25c.93-4.77 1.2-9.8.57-14.94zm-.39 9.63-12.4 11.62a6 6 0 0 1-.64-.77l-.12-.21q.05.09.2.55c.08.3.1.47.09.41v-.54c.02-.3.07-.88.26-1.66l16.51 4.05 16.5 4.06c1.42-5.75.47-11.55-.6-15.4-1.12-4.05-3.33-9.38-7.38-13.72zm3.9 13.45L378 449.28c.18-1.31 1.13-1.84.46-1.4-1.13.74-3.6 1.79-7.92 2.64-8.84 1.75-18.7 1.6-27.04 1.91l.63 17 .64 16.98c5.86-.22 20.05-.1 32.36-2.53 6.25-1.24 13.64-3.39 20.04-7.61 6.85-4.52 13.02-11.78 14.5-22.24zm-50.7 17.77h17v-.02h-34v.02zm0-.02.36-17c-11.51-.24-22.09-.38-32.59-1.35l-1.57 16.92-1.57 16.93c12 1.11 24 1.27 35.02 1.5zm-33.8-1.43-16.86 2.2c.02.1.02.38-.08.75l16.42 4.4 16.42 4.42a36 36 0 0 0 .96-13.96zm-.52 7.36-16.26-4.96c.29-.94.51.92-6.24 2.87-6.25 1.8-14.54 2.42-22.88 2.42v34c9.27 0 21.4-.6 32.3-3.76 10.4-3 24.51-9.8 29.34-25.61zm-45.38 17.33v-17c-4.45 0-8.55-.18-12.1-.32l-.7 16.98-.7 16.99c3.45.14 8.24.35 13.5.35zm-12.8-.34h-17v.08h34v-.08zm0 .08 1.34-16.95c-19.13-1.52-37.9-5.23-55.25-11.87l-6.08 15.88-6.08 15.87c21 8.04 43.07 12.3 64.73 14.01zm-59.99-12.94 6.94-15.52c-1.75-.79-3.5-1.41-4.6-1.81-1.32-.48-2-.73-2.6-.98-1.26-.55.21-.2 1.55 1.77l-14.04 9.58-14.04 9.59c4.1 6 9.75 8.85 13.08 10.28 1.7.74 3.42 1.35 4.48 1.73 1.26.45 1.85.68 2.29.87zm-12.75-6.96 15.78-6.33q.5 1.24.77 2.77l-16.76 2.8-16.77 2.8q.38 2.27 1.2 4.3zm-.21-.76 13.41-10.44c.34.43.54.79.64.98q.14.3.1.18t-.2-.63c-.1-.36-.21-.77-.35-1.36l-16.51 4.06-16.51 4.07c.5 2 1.85 8.26 6 13.58zm-2.91-7.2 16.32-4.77a3.9 3.9 0 0 1 .55-3.5l-12.99-10.97-12.98-10.98c-8.41 9.96-10.64 23.27-7.22 34.98zm3.88-19.25 17-.34c-.05-2.75.78-8.84 2.88-14.83 1-2.87 2.1-5.14 3.1-6.67 1.1-1.67 1.44-1.51.52-1.03l-7.93-15.03-7.93-15.04c-6.08 3.2-10.3 8.18-13.12 12.51a65 65 0 0 0-6.73 14.03c-3.16 9.01-4.93 19.16-4.78 26.75zm15.57-37.9 16.64 3.47v-.04l.01-.01v.02l-.07.3-16.55-3.9-16.54-3.9-.1.46-.03.1v.02zm.03-.16 16.97 1.05c.15-2.38.1-4.7.06-6.3a71 71 0 0 1-.04-3.97c.08-2.1.41-1.23-.6.16l-13.75-9.99-13.77-9.98c-4.89 6.75-5.68 14.01-5.85 18.54-.09 2.28-.02 4.55.01 6.03.04 1.72.05 2.67 0 3.41zm2.63-19.05 16.9-1.86s-.03-.35.03-1.54c.03-.48.21-3.26.26-4.68.13-3.54.19-10.76-4.08-17.7l-14.48 8.91-14.48 8.9c-1.3-2.1-.85-3.62-.94-1.3-.01.47-.04 1-.09 1.72l-.15 2.42c-.08 1.73-.16 4.25.14 7zm-1.37-16.87 12.78-11.2.25.3-13.96 9.72-13.95 9.7q1 1.43 2.1 2.69zm-.93-1.18 2.48-16.82c-1.93-.29-3.96-.55-5.58-.76l-2.27 16.84-2.27 16.85c1.96.27 3.51.46 5.16.7zm-5.37-.74 2.16-16.86-11.91-1.52-2.15 16.86-2.15 16.87q5.96.74 11.9 1.52zm-11.9-1.52 2.13-16.86a4070 4070 0 0 0-24.22-2.99l-2.03 16.88-2.02 16.88q12 1.44 24.01 2.96zm-24.12-2.97 2.06-16.87c-2.9-.35-3.28-.32-4.94-.57l-2.5 16.82-2.5 16.81c1.91.29 5.16.6 5.83.69zm-5.38-.62 2.38-16.84c5 .71 8.17 3.82 9.67 6.3 1.39 2.3 1.95 4.9 1.67 7.52l-16.9-1.79-16.91-1.79c-.5 4.67.54 9.51 3.03 13.63a20.5 20.5 0 0 0 14.68 9.8zm-3.19-4.8 16.93 1.6q-.2 1.88-.83 3.44l-15.79-6.32-15.78-6.3a22 22 0 0 0-1.45 5.96zm.31-1.28 16.79-2.7.08.63-16.9 1.79-16.91 1.77q.07.7.16 1.22zm-.03-.28h17v-.1h-34v.1zm0-.1 16.9-1.88a13 13 0 0 1-.04 3.18l-16.8-2.65-16.78-2.66a21 21 0 0 0-.18 5.88zm.07-1.35 16.97 1a32 32 0 0 0 .04-2.47l-.01-.66v-.1.39h-34v.6l.01.2v.23l.02-.2zm0-1.84 17 .1c.1-17.21 0-34.47-.05-51.52l-17 .05-17 .05c.05 17.18.14 34.2.05 51.23zm-.05-51.37 17-.05-.07-25.8-.08-25.81-17 .05-17 .04.08 25.81.07 25.8zm-.15-51.61 17-.07q-.03-9.34-.1-18.63t-.11-18.52l-17 .06-17 .07q.03 9.34.1 18.63t.11 18.52zm-.21-37.16h17q.01 1.98-.75 4.03l-15.88-6.07-15.88-6.07a23 23 0 0 0-1.5 8.11zm.37-2.04 16.13-5.37q.12.35.34 1.22l-16.58 3.77-16.58 3.77q.31 1.26.56 1.99zm-.1-.38h-17v.03h34v-.03zm0 .03 16.56-3.81a12 12 0 0 1-.76 7.65 13 13 0 0 1-7.38 6.8l-5.87-15.96-5.87-15.95c-12.08 4.44-15.15 16.83-13.26 25.07zm2.55-5.31 4.13 16.49a18 18 0 0 0 1.51-.46l-5.37-16.13-5.38-16.13-.94.34-.08.04-.03.01.06-.02q.14-.07.62-.23.47-.17 1.35-.4zm.27-.1 5.3 16.15c5.6-1.84 11.33-3.95 16.34-5.72l-5.66-16.03-5.66-16.03c-5.66 2-10.5 3.8-15.63 5.48zm15.98-5.6 5.67 16.02 4.71-1.67 4.68-1.66-5.67-16.02-5.67-16.03-4.72 1.67-4.67 1.66zm9.39-3.33 5.72 16 1.78-.62-5.62-16.05-5.62-16.04-1.98.7zm1.88-.67 11.63-12.4q-.4-.37-.68-.7l-12.9 11.06-12.91 11.06a43 43 0 0 0 3.23 3.38zm-1.96-2.04 12.8-11.19a12 12 0 0 1-2.14-3.85l-15.94 5.9-15.95 5.89c1.8 4.85 4.47 9.9 8.43 14.44zm-5.28-9.15 15.97-5.82c-1.32-3.6-1.12-8.93 1.27-14.7l-15.7-6.52-15.7-6.52c-4.6 11.1-6.87 25.51-1.82 39.39zm1.54-27.04 15.65 6.65q.64-1.53 1.8-3.61l-14.9-8.2-14.88-8.2a74 74 0 0 0-3.32 6.72zm2.56-5.16 15.02 7.95q.3-.56.62-1.04l-14.22-9.33-14.2-9.32a47 47 0 0 0-2.25 3.78zm1.42-2.42 14.15 9.43.61-.97a13 13 0 0 1-.9 1.2c-.42.53-1.12 1.29-2.1 2.07l-10.62-13.27-10.62-13.28a20 20 0 0 0-4.2 4.64c-.28.43-.52.84-.57.92l.1-.17zm1.14-1.54 10.76 13.16q-.27.22-.67.51l-9.84-13.87-9.83-13.87q-.66.48-1.19.91zm.25-.2 15.44 7.13a13 13 0 0 1-4 4.92L176.8 148l-10.2-13.6a21 21 0 0 0-6.47 8.03zm1.24-1.55h17v-.02h-34v.02zm0-.02 9.88 13.83a13 13 0 0 1-4.45 2.06l-3.94-16.54-3.94-16.54c-1.8.43-4.55 1.3-7.44 3.36zm1.5-.65 4.35 16.43c7.19-1.9 14.4-4 21.21-5.94l-4.64-16.36-4.64-16.35c-7.13 2.02-13.84 3.98-20.65 5.79zm20.92-5.87 4.65 16.35q11.69-3.31 23.38-6.83l-4.9-16.28-4.9-16.28q-11.4 3.44-22.88 6.69zm23.13-6.76 5.07 16.23c.24-.08.53-.15 1.33-.37.6-.16 1.8-.48 3.03-.9l-5.56-16.07-5.55-16.06c.1-.04.04-.01-.7.18-.51.14-1.6.43-2.7.77zm3.87-1.1 9.37 14.18a12 12 0 0 1-2.77 1.34l.26-.06.22-.06 1.06-.26-4.27-16.45-4.28-16.46c-.12.04-.19.05-.69.17-.38.1-1.04.25-1.76.46a24 24 0 0 0-6.5 2.95zm3.87-1.31 3.37 16.66c-1.94.4-4.03.25-5.95-.43-1.81-.63-3-1.56-3.67-2.2-1.14-1.1-1.35-1.89-1.37-1.98l16.24-5.03 16.24-5.03a29.6 29.6 0 0 0-7.55-12.48c-4.42-4.24-11.71-7.99-20.68-6.18zm8.62 7.02-15.9 6.02a6 6 0 0 1-.37-2.23l-.06.23q-.09.36-.36 1.03l15.8 6.3 15.78 6.3c1.9-4.78 4.72-13.83 1-23.66zm-.9 11.35-16.4-4.44c-.91 3.34-2.18 8.69-2.02 14.47.17 6.04 1.98 14.12 8.83 20.53l11.62-12.4 11.62-12.42a7 7 0 0 1 1.68 2.5c.26.7.24 1.06.24.84a8 8 0 0 1 .15-1.61q.22-1.29.7-3.03zm2.03 18.15-10.77 13.15a34 34 0 0 0 8.63 5.13l6.44-15.73 6.44-15.73-.05-.02.04.02.04.03zm4.3 2.55 16.99.62c.05-1.33.06-2.86.07-3.68l-17-.3-17-.3c-.02 1.4-.02 2.13-.05 3.04zm.06-3.36 17 .33c.05-2.47.1-5.06.13-7.65l-17-.16-17-.17-.12 7.32zm.13-7.48 17 .3.16-10.2.17-10.15-17-.3-17-.3-.33 20.34zm.33-20.35 17 .31q.15-7.9.15-15.79h-34q0 7.58-.14 15.16zm.15-15.48h17c0 2.66-.85 5.34-2.7 7.65l-13.28-10.6-13.3-10.6a22 22 0 0 0-4.72 13.55zm1.02-2.95 16.44-4.31c.4 1.55.56 3.31.28 5.19l-16.82-2.5-16.81-2.48c-.44 2.95-.22 5.82.46 8.42zm-.1-1.62 16.84 2.3a13 13 0 0 1-7.9 10.04l-6.36-15.76-6.35-15.77a21.1 21.1 0 0 0-13.07 16.9zm2.58-3.42 6.32 15.78-.4.15-.07.02.26-.07.25-.06.32-.08-4.02-16.52-4.02-16.51a35 35 0 0 0-4.95 1.5zm2.66-.78 4.65 16.36c2.47-.7 4.12-1.2 5.81-1.67l-4.57-16.37-4.58-16.38c-1.58.44-4.18 1.2-5.96 1.71zm5.89-1.69 4.58 16.38c15.37-4.3 29.73-8.1 45.38-12.45l-4.55-16.38-4.55-16.38c-14.62 4.05-30.58 8.31-45.44 12.46zm45.4-12.45 4.74 16.33 2.6-.73-4.75-16.33-4.74-16.32-1.01.28-1.56.44zm2.6-.73 4.58 16.37.42-.11.33-.1q.07 0 .1-.03h.03-.03l-.09.03-.08.02-.12.03q-.08 0-.18.04l-.13.03-.17.03-3.34-16.67-3.34-16.67c-.95.2-2.56.66-2.57.66zm1.32-.36 4.75 16.32c1.4-.4 2.18-.6 3.6-1.01l-4.68-16.35-4.67-16.34-3.75 1.06zm3.67-1.04 4.73 16.33 2.4-.68 2.6-.74-4.73-16.33-4.74-16.33-2.39.68-2.6.75zm5-1.42 4.67 16.35.48-.14.82-.23a36 36 0 0 0 2.66-.87l-6.07-15.88-6.07-15.88c.25-.1.35-.12.11-.05l-.47.13-.8.22zm2.56-.77 8.06 14.96c-.52.28-1.83.94-3.71 1.32l-3.34-16.67-3.34-16.67c-2.6.52-4.59 1.47-5.73 2.09zm-66.2 303.65-16.95 1.23q.09 1.14.07 1.78l17 .16 17 .18c.02-1.7-.06-3.27-.16-4.58zm.12 3.17 2.28 16.85q1.13-.14 2.05-.14v-34q-3.44 0-6.6.45zm4.33-.3-3.56 16.63a12.5 12.5 0 0 1-8.7-6.54c-.23-.5-.28-.76-.22-.54l.28 1.25 16.62-3.58 16.62-3.57c-.18-.86-.87-4.5-2.5-7.96-1.66-3.56-5.92-10.37-14.97-12.3zm4.42 7.22-16.93 1.56c.16 1.67.46 3.13.68 4.06.2.9.47 1.93.6 2.41l.27 1.15c.04.2-.02-.02-.04-.52l16.99-.67 16.98-.67a31 31 0 0 0-.55-4.62c-.24-1.2-.51-2.3-.7-3.05l-.41-1.63c-.09-.36-.01-.13.04.43zm1.57 7.99 3.6 16.62q1-.23 2.18-.29l-.9-16.98-.9-16.97q-3.76.2-7.57 1zm4.88-.65 17 .12c0 .04 0-.24.12-.9q.15-.94.54-2.34a40 40 0 0 1 2.06-5.58l-15.46-7.07-15.47-7.07c-2.62 5.74-5.74 14.7-5.79 22.73zm4.26-15.77-.87-16.98a56 56 0 0 1-15.05-1.28l-3.65 16.6-3.66 16.6a91 91 0 0 0 24.1 2.04zm-92.85-243.07-15.08-7.85a57 57 0 0 0-2.41 5.32l15.8 6.27 15.8 6.26q.52-1.31.97-2.16zm-1.69 3.74-15.93-5.94a57 57 0 0 0-1.92 6.11l16.5 4.12 16.49 4.13q.26-1.07.79-2.48zm-1.35 4.3-16.58-3.76a59 59 0 0 0-.98 5.43l16.86 2.19 16.86 2.18q.12-.97.42-2.3zm-.7 3.86h-17v.19h34v-.2zm0 .19-16.94-1.5a54 54 0 0 0-.23 4.78h34c0-.39.02-.91.1-1.78zm-.17 3.28-17 .4q.04 2.36.4 5.07l16.84-2.35 16.84-2.35q-.07-.41-.09-1.16zm.24 3.12-16.81 2.52q.35 2.33.92 4.55l16.47-4.22 16.47-4.23q-.15-.59-.24-1.15zm.58 2.84-16.27 4.94c.2.65.56 1.87 1.06 3.17l15.89-6.05 15.89-6.04-.08-.22-.22-.72zm.68 2.06 16.17-5.24c-.53-1.65-.4-5.5 2.27-12.32l-15.83-6.2-15.84-6.19c-3.16 8.09-7.34 21.63-2.94 35.2zm2.6-23.75-14.89-8.2-.01.03-.06.1-.23.42 15 8 15 8-.04.08q0 .01 0 0t.02-.03l.02-.05.09-.16z" mask="url(#crests-product-led-sales-path-1-outside-1_23_12065)"/></g><path fill="#c7e2f9" d="M327.84 330.27c.26 13.85-.05 27.76-.3 41.62-2.22-3.31-6.97.46-15.01 1.59a52 52 0 0 1-16.44-.99q-2.39-.5-4.68-1.3c-.17-.12-.37-.27-.53-.34q-.3-.17-.58-.27-.63-.21-1.19-.14v-.94c.05-3.58.12-7.15.2-10.87.26-7.58.5-15.18.4-22.76v-.36q-.02-3.02-.14-6.04c0-2.73-.92-7.12 1.02-9.22.53-.58 1.3-1 2.36-1.14.58-2.02 1.4-3.96 2.6-5.77 1-1.47 2.3-2.7 3.8-3.66.07-3.75 4.85-5.85 6.76-2.1 5.67.07 10.67 3.71 15.13 6.88q.46.36.87.72c4.2 3.81 5.68 9.58 5.75 15.13z"/><path fill="#c7e2f9" d="M322.09 315.13c5.94 14.68 1.45 31.63-1.04 46.72-1.4-9.5-2-19.46-2.85-29.14-.77-7.46-1.08-18.95-10.43-20.4-5 .2-8.35 1.5-9.56 5.65q-.35 1.25-.46 2.85c-.6 5.38-.77 10.81-.99 16.22q-.05 1.48-.12 2.92l-.12 2.54c-.33 8.03-1.08 16.07-.94 24.14.1 3.47-2.6 4.95-4.73 4.2a3 3 0 0 0-.58-.27 3.4 3.4 0 0 1-1.16-1.1 5 5 0 0 1-.77-2.5c-.1-8.95.8-17.9 1.16-26.84q.15-2.06.21-4.13v-.53c.2-5.1.2-10.23.87-15.26q.49-3.89 1.67-7.67c2.82-7.4 13.2-10.46 20.2-7.7 3.68 1.64 6.52 4.66 8.62 8.01q.54 1.13 1.04 2.3z"/><path fill="#c7e2f9" d="M298.21 317.96c1.09.58 1.91 1.8 2.08 3.7a162 162 0 0 0-3.5 15.4q-.19 1.2-.34 2.38.15.27.22.54c1.1 2.87.77 6.1.55 9.12-.33 7.8-.77 15.6-1.16 23.4q-2.37-.52-4.68-1.31c-.17-.12-.36-.27-.53-.34q-.3-.18-.58-.26c-.4-.15-.82-.2-1.18-.15q-.72.02-1.3.44c-.08-11.69.21-23.37 1.9-34.84q0-.08.03-.17 1.03-7.3 2.96-14.48c.7-3.33 3.55-4.5 5.56-3.38z"/><path fill="#fff" d="M329.06 381.62c-.1 9.41 2.22 20.57-4.49 28.27-6.32 7.48-17.62 12.12-26.75 6.98-7.72-2.73-11.68-10.17-12.09-18.06-.41-4.83-.75-9.8-.27-14.66-.29-3.16-1.1-7.5.22-9.94.22-1.4.97-2.73 2.05-3.38a3 3 0 0 1 1.3-.44q.59-.07 1.19.15a6 6 0 0 1 1.11.6q2.29.75 4.68 1.3a53 53 0 0 0 16.44 1c8.04-1.14 12.8-4.9 15.02-1.6 1.01 1.5 1.5 4.44 1.54 9.76z"/><path fill="#f2a443" d="M341.42 464.69c-22.9-.9-45.9-4.01-66.77-13.84-2.63-1.09-5.53-2.05-7.54-4.13-5.16-6.25-4-19.26 4.69-21.65 3.93-.07 5.12 5.82 2.22 7.97 9.34 4.6 19.4 7.58 28.78 12.19 13.37 4.05 27.3 5.98 41.28 4.7 12.19-1.28 25.59-.94 35.46-9.22 2.92-2 7.15-1.32 8.7 2.03 9.55 20.74-34.27 23.49-46.8 21.94z"/><path fill="#df6133" d="M332.85 454.57a130 130 0 0 1-51.81-14.07c-3.91-2.69-12.5-5.63-11.66-11.35 0-3.8-.17-7.7-.27-11.64l.49-3.3.24-1.3q.55-2.39 1.2-4.76l.7-2.47q.34-1.16.78-2.31v.04l.43-1.1q0 .05-.05.11l.17-.4-.05.14c.44-1.04.87-2.13 1.36-3.14.26-.5.48-1.06.74-1.57l.77-1.37q.36-.62.78-1.24l.82-1.13c.58-.7 1.13-1.38 1.76-2.05l.31-.32c13.55-.84 8.89 12.92 16.64 19.44 5.38 4.1 12.8 2.53 17.57-1.72-.6-1.69-1.2-3.43-1.78-5.02-1.21-2.46-2.54-5.48.05-7.72 7.74-5.24 17.11-9.1 26.62-9.25 4.88.07 6.16 5.6 6.64 9.54.3 1.2.46 2.68.24 4 7.6-1.25 16.06.46 22.77 3.82 7.96 3.79 13.23 11.68 15.45 20.06.77 3.23 3.33 13.8.75 17.65a4 4 0 0 1-1.16 1.52c-11.8 8.9-26.92 11.15-41.55 11.15q-4.52-.01-8.93-.24z"/><path fill="#f2a443" d="M361.79 458.17c-2.66-.94-3.48-3.96-3.91-6.44-2.3-11.6.38-24.43 8.06-33.56 2.22-2.6 5.2-4.44 8.04-6.25a2.9 2.9 0 0 1 3.07-.6l.24.28 1.25 1.6q.26.3.48.62.77 1.14 1.57 2.27.72 1.13 1.36 2.3.06.2.17.4c.38.97.72 1.96 1.15 2.9l.49 1.07.26.55.27.5.31.73q.18.46.46.75c2.05 8.26 1.28 18.18-2.66 24.1-1.97 3.01-6.13 4.9-9.22 5.64-3.01.97-5.86 1.81-8.69 2.76q-.8.43-1.76.45-.47 0-.94-.14zm-87.97-16.24a4 4 0 0 1-1.5-1.14c-3.52-.43-3.52-4.54-3.43-7.31-.07-5.27-.4-10.55-.34-15.82q.12-.62.2-1.2.14-1.1.26-2.22a5.5 5.5 0 0 1 3.67-2.78c.87-.2 1.81 0 2.51.46 4.13 1.98 7.94 4.95 10 9.15 2.36 4.34 5.21 25.83-2.06 26-3.66-.41-7.53-1.6-9.31-5.12z"/><path fill="#f2a443" d="M270.62 418.92a12 12 0 0 1-1.93-2.17q.01-.16.05-.32l.3-2.46c.06-.65.16-1.28.2-1.93l.13-1.55a3 3 0 0 1 2.44-.7c3.01.75 5.33 4.74 3.79 7.66a3.7 3.7 0 0 1-3.19 2.07 3 3 0 0 1-1.79-.6"/><path fill="#c7e2f9" d="M243.57 351.3c.27 13.85-.05 27.76-.29 41.61-2.22-3.3-6.98.46-15.02 1.6-5.45.53-11.08.22-16.44-1q-2.37-.5-4.68-1.3c-.17-.12-.36-.26-.53-.33q-.3-.17-.58-.27-.62-.22-1.18-.14v-.95c.05-3.57.12-7.14.2-10.86.26-7.58.5-15.18.4-22.77v-.36q-.02-3.01-.14-6.03c0-2.73-.92-7.12 1.01-9.22.53-.58 1.3-1 2.37-1.14.58-2.03 1.4-3.96 2.6-5.77 1-1.47 2.3-2.7 3.8-3.67.07-3.74 4.85-5.84 6.75-2.1 5.68.07 10.67 3.72 15.14 6.88q.45.36.87.73c4.2 3.81 5.67 9.58 5.75 15.13z"/><path fill="#c7e2f9" d="M237.82 336.16c5.93 14.68 1.44 31.63-1.04 46.71-1.4-9.48-2-19.45-2.85-29.13-.77-7.46-1.09-18.95-10.43-20.4-5 .19-8.35 1.5-9.56 5.65a14 14 0 0 0-.46 2.84c-.6 5.39-.77 10.82-.99 16.23l-.12 2.92q-.08 1.26-.12 2.53c-.34 8.04-1.09 16.08-.94 24.14.1 3.48-2.6 4.95-4.73 4.2q-.3-.17-.58-.26a3.4 3.4 0 0 1-1.16-1.11 5 5 0 0 1-.78-2.49c-.1-8.95.8-17.91 1.16-26.84q.15-2.06.22-4.13v-.53c.2-5.1.2-10.24.87-15.26a45 45 0 0 1 1.67-7.68c2.82-7.38 13.2-10.45 20.2-7.7 3.67 1.64 6.52 4.66 8.62 8.02q.53 1.13 1.04 2.3z"/><path fill="#c7e2f9" d="M213.96 338.99c1.08.57 1.9 1.8 2.07 3.69a162 162 0 0 0-3.5 15.4q-.19 1.22-.34 2.4.15.25.22.52c1.11 2.88.77 6.11.56 9.13-.34 7.8-.78 15.6-1.16 23.4q-2.38-.52-4.69-1.31a3 3 0 0 0-.53-.34q-.28-.17-.58-.27-.62-.21-1.18-.14c-.48 0-.92.17-1.3.43-.07-11.68.21-23.36 1.9-34.83q0-.08.03-.17c.7-4.88 1.66-9.7 2.97-14.49.7-3.33 3.55-4.49 5.55-3.38z"/><path fill="#fff" d="M244.8 402.65c-.1 9.42 2.23 20.57-4.49 28.27-6.32 7.48-17.62 12.12-26.74 6.98-7.73-2.73-11.69-10.16-12.1-18.06-.4-4.83-.75-9.8-.26-14.65-.3-3.17-1.11-7.51.21-9.95.22-1.4.97-2.73 2.06-3.38a3 3 0 0 1 1.3-.43q.58-.07 1.18.14a6 6 0 0 1 1.11.6q2.3.77 4.69 1.3a53 53 0 0 0 16.44 1c8.04-1.14 12.8-4.9 15.01-1.6 1.02 1.5 1.5 4.45 1.55 9.76z"/><path fill="#f2a443" d="M257.15 485.72c-22.91-.9-45.9-4.01-66.78-13.84-2.63-1.08-5.53-2.05-7.53-4.12-5.17-6.26-4-19.27 4.68-21.66 3.94-.07 5.12 5.82 2.22 7.97 9.34 4.6 19.41 7.58 28.78 12.19 13.37 4.05 27.3 5.99 41.28 4.7 12.2-1.27 25.59-.94 35.46-9.22 2.93-2 7.15-1.32 8.7 2.03 9.55 20.74-34.26 23.5-46.8 21.95z"/><path fill="#df6133" d="M248.55 475.6a130 130 0 0 1-51.8-14.08c-3.92-2.68-12.51-5.62-11.66-11.35 0-3.79-.17-7.7-.27-11.63l.48-3.31q.14-.65.24-1.3a113 113 0 0 1 1.91-7.22q.33-1.16.77-2.32v.05l.44-1.11q-.01.06-.05.12l.17-.41-.05.14c.44-1.03.87-2.12 1.35-3.13.27-.51.48-1.07.75-1.57l.77-1.38q.35-.62.78-1.23.4-.57.82-1.13c.58-.7 1.13-1.38 1.76-2.06l.31-.31c13.55-.85 8.89 12.91 16.64 19.43 5.38 4.1 12.8 2.54 17.57-1.71-.6-1.7-1.2-3.43-1.79-5.02-1.2-2.46-2.53-5.48.05-7.73 7.75-5.24 17.12-9.1 26.63-9.24 4.88.07 6.16 5.6 6.64 9.53.29 1.2.46 2.68.24 4 7.6-1.25 16.05.47 22.77 3.82 7.96 3.8 13.23 11.69 15.45 20.06.77 3.24 3.33 13.81.74 17.65a4 4 0 0 1-1.15 1.52c-11.8 8.91-26.92 11.16-41.55 11.16q-4.53-.01-8.93-.24z"/><path fill="#f2a443" d="M277.5 479.2c-2.66-.94-3.48-3.96-3.92-6.45-2.29-11.58.4-24.43 8.07-33.55 2.22-2.61 5.19-4.44 8.04-6.26a2.9 2.9 0 0 1 3.06-.6l.24.29 1.26 1.6q.26.3.48.62.76 1.13 1.57 2.27.72 1.13 1.35 2.3l.17.4c.39.97.73 1.96 1.16 2.9l.48 1.06.27.56.26.5.32.73q.17.45.46.75c2.05 8.25 1.28 18.18-2.66 24.1-1.98 3-6.13 4.9-9.22 5.64-3.02.97-5.87 1.81-8.69 2.75a4 4 0 0 1-1.76.46 3 3 0 0 1-.94-.14zm-87.97-16.25a4 4 0 0 1-1.5-1.14c-3.52-.43-3.52-4.54-3.42-7.31-.08-5.27-.41-10.55-.34-15.82l.2-1.2.26-2.23a5.5 5.5 0 0 1 3.67-2.77c.87-.2 1.8 0 2.5.46 4.14 1.98 7.95 4.95 10 9.15 2.37 4.34 5.22 25.83-2.05 26-3.67-.41-7.53-1.6-9.32-5.12z"/><path fill="#f2a443" d="M186.33 439.97a11 11 0 0 1-1.93-2.18q0-.16.05-.31l.29-2.46c.07-.66.17-1.28.22-1.94l.12-1.54a3 3 0 0 1 2.43-.7c3.02.75 5.34 4.73 3.8 7.65a3.7 3.7 0 0 1-3.2 2.08 3 3 0 0 1-1.78-.6"/><path fill="#c7e1f9" d="M353.77 174.94c.49 1.88-.19 4.17-1.98 5.14q-.73.4-1.5.39l-.3.07c-3.75 1.01-7.47 2.24-11.16 3.4q-6.3 1.96-12.58 3.96-11.87 3.74-23.73 7.56l-49.42 15.83q-11.1 3.55-22.18 7.18-5.58 1.81-11.15 3.64l-4.95 1.62c-1.33.43-2.63.92-3.99 1.3q-.51.15-.99.15c-1.5 0-2.75-1-3.33-2.42a734 734 0 0 1-39.3-3.84c-2.3-.45-5.67-.33-8.11-1.2-1.26.38-2.49.82-3.74 1.13q-.38.09-.7.1c-1.86 0-3.29-1.93-3.5-3.65-.3-1.93.72-4.46 2.82-4.9 1.14-.36 2.3-.65 3.43-.96 1.88-.53 3.74-1.1 5.62-1.62l12.31-3.57q12.36-3.61 24.68-7.25 24.65-7.25 49.27-14.58l24.04-7.17a1829 1829 0 0 0 12.27-3.72c3.4-1.03 6.85-2 10.19-3.2a3 3 0 0 1 2.14-.4q.32-.05.63-.04.29-.01.53.05c1.52.14 3.07.21 4.57.34l10.47.65 21.58 1.37q4.47.28 8.89.7 2.11.17 4.22.39c1.28.12 2.68.22 3.58 1.26q.15.16.26.33c.5.56.9 1.23 1.09 1.98z"/><path fill="#81b1dd" d="M430.97 265.3s-.2-.04-.29-.04a3.1 3.1 0 0 0-3.62.05c-1.2.6-2.54 1.01-3.77 1.5l-6.13 2.31q-6.1 2.34-12.21 4.61l-1.7.66c-.55.21-1.23.45-1.9.72-7.85 2.94-15.89 5.94-23.95 8.9-16.32 6.04-32.61 12.13-48.93 18.16l-24.07 8.89-11.42 4.17q-2.97 1.1-5.99 2.17c-1.42.51-2.92.97-4.32 1.57-1.6.7-2.39 2.5-2.37 4.18a3 3 0 0 1-.7.07q-.24.01-.5-.05a3 3 0 0 1-1.28-.48 4 4 0 0 1-1.6-2.17v-.05a5 5 0 0 1 .1-3.14c-5.77-12.8-18.32-17.16-31.4-20.25-8.67-2.97-18.16-5.43-24.92-11.95-14.63-15.98-10.16-39.23-10.67-59q-.1-1.19.46-2.3c.26-1.5 1.18-2.92 2.7-3.38 1.3-.5 2.68-.89 4-1.32q2.73-.9 5.44-1.84l11.69-3.98 24.26-8.33q23.92-8.22 47.85-16.51l21.24-7.41c6.86-2.42 13.76-4.71 20.47-7.3l.2-.07.16-.07q.46-.17.92-.39.45-.33 1.04-.5.31-.1.6-.12a3.43 3.43 0 0 1 4.27 1.98c.68 1.76.6 3.81.66 5.7.48 13.75 1.57 28.58 8.71 40.67 6.86 8.64 17.67 14.41 27.84 18.03 14.07 5.36 33.24 11.01 39.15 26.27z"/><path fill="#c7e1f9" d="M435.52 277.1c1.9 10.8 1.16 21.84 0 32.7-.5 3.24-.6 9.76-4.54 9.93a4.5 4.5 0 0 1-1.76 1.9 3 3 0 0 1-1.14.44c-2.14.72-4.25 1.6-6.32 2.41l-9.85 3.77c-7.46 2.85-14.97 5.62-22.43 8.47q-23.93 9.13-47.87 18.35a14101 14101 0 0 0-47.8 18.47l-4.59 1.78-.12.05a3 3 0 0 1-1.16.22c-1.59 0-2.96-1.33-3.38-2.92a4.7 4.7 0 0 1 1.98-5.12c.08-2.37.73-5.1.46-7.02-.26-11.3-.92-22.58-3.98-33.4a4 4 0 0 1-2.51-2.57 5 5 0 0 1-.24-1.4c-.03-1.7.77-3.5 2.36-4.18 1.4-.6 2.9-1.06 4.32-1.57l6-2.17q5.71-2.07 11.41-4.18c8.01-2.94 16.05-5.94 24.07-8.88a28566 28566 0 0 0 72.88-27.07l1.9-.72c.73-.27 1.43-.56 1.7-.65a4066 4066 0 0 1 18.35-6.93c1.25-.48 2.56-.92 3.76-1.5q.45-.3 1-.48a3.1 3.1 0 0 1 2.62.44q.15 0 .3.04a3.6 3.6 0 0 1 2.45 2.1c.32.85.42 2.03.37 3.24 1.04 1.93 1.25 4.51 1.74 6.47z"/><path fill="#9bb8d1" d="M287.2 342.1c.87 8.52.44 18.13-.05 26.24 0 2.05-.14 4.8-1.69 6.13-.57 1.08-1.56 1.93-2.84 1.93h-.12q-.25.01-.51-.05h-.05q-.19-.02-.34-.07-.87-.13-1.74-.22l-4.7-.65q-6.37-.83-12.75-1.62l-25.06-3.16q-25.53-3.22-51.06-6.4-8.77-1.1-17.5-2.17-4.63-.58-9.27-1.11c-2.78-.34-5.55-.6-8.33-1-2.22-.3-3.38-2.8-3.14-4.82.17-1.42 1.14-3.02 2.51-3.55v-7.7q.06-6.17.08-12.33.02-12.45.07-24.92.1-25.92.14-51.8.01-10.2-.04-20.38 0-5.08-.03-10.16c0-2.4-.07-4.78 0-7.17.05-2.06 1.57-4.25 3.8-4.18q.28 0 .55.07c7.34.5 15.04.92 22.45 2.1 6.25 1.04 12.58 2.27 18.88 2.73 4.94.75 11.17-.24 15.04 3.43 1.23 1.47 1.2 3.81.26 5.43q0 .71-.05 1.4c-.1 3.33-.26 6.66-.33 10-.8 21.58.89 34.73 20.83 46.2 5.67 4.27 12.8 5.75 19.05 8.6 23.9 10.52 32.5 23.46 35.94 49.22zm5.29-156.48c-4.2-1.04-5.96-5.34-5.34-9.35-.04-4.85-.48-8.09 1.53-12.96 1.1-1.93 4.05-1.88 5.04.12.07-3.36 2.6-7.85 6.2-4.8 4.76 1.83 1.94 9.05 2.42 13 .12 7.03-.24 15.94-9.85 13.99"/><path fill="#81b1dd" d="M273.2 173.26c-3.57-.41-3.43-4.52-3.19-7.2.03-11.4-.2-22.79.56-34.16-.32-7.7 9.07-7.6 7.29.1-.87 9.75-.9 19.55-.65 29.33-.25 3.91 1.74 11.59-4.03 11.93z"/><path fill="#81b1dd" d="M269.33 177.77c-1.66.07-3.09-1.13-3.55-2.82-.55-2.08.34-4.59 2.4-5.48.84-.37 1.83-.51 2.7-.73q2.64-.68 5.29-1.4l11.56-3.11q11.81-3.18 23.58-6.37c5.9-1.62 11.86-3.14 17.68-4.93l.45-.17a3.5 3.5 0 0 1 1.45-.46c1.98-.12 3.43 1.6 3.7 3.45.26 1.94-.65 4.13-2.54 4.9q-.64.25-1.23.25c-1.23.21-2.41.6-3.62.91l-5.58 1.5-12.1 3.3-33.28 9.3q-2.31.65-4.61 1.33-.73.23-1.48.41h-.1q-.34.1-.7.17v-.02z"/><path fill="#81b1dd" d="M327.65 155.15q-.01-.31.05-.63h-.03c1.09-13.86.27-27.79.22-41.65.05.49.1.94.3 1.36-1.8-3.96 3.5-8.67 6.32-4.37 1.4 3.23.55 6.97.65 10.4-.05 11.37.46 22.77-.17 34.14.14 2.1-1.23 4.49-3.48 4.68-2.12.2-3.86-1.88-3.84-3.94z"/><path fill="#81b1dd" d="M275.3 169.08c-1.32-.6-2.05-2.03-2.12-3.45q-.13-2.46.22-4.93c-2.97-2.2-1.57-6.27-1.62-9.41.41-6.4.78-12.87 2.18-19.12 1.18-4.9 7.43-4.37 11.22-6.18 3.6-1.33 7.65-1.7 11.08-3.38a3.2 3.2 0 0 1 2.37-.39 523 523 0 0 0 31.53-11.68c2.12-.66 3.95 1.3 4.3 3.23.6 3.19-1.82 5.1-4.62 5.84 1.06 5 .73 10.21.87 15.29 1.64 4.15-.02 9.1-.46 13.42-.21 2.94.3 7.46-3.57 7.94q-.65.7-1.43 1.28a12.6 12.6 0 0 1-5.7 2.15c-1.1 2.31-4.46 2.7-5.79.36-2.7-.27-5.14.84-7.62 1.71-1.38 1.02-3.72 1-4.76-.48l-.7.17c-.97 1.67-3.4 2.32-4.85.9-1.16 2-3.75 3.93-5.8 1.93-1.13 2.26-4.25 3.4-5.89.96-.87 1.42-2.53 2.51-4.2 1.74-.92 1.57-2.77 2.97-4.58 2.12z"/><path fill="#9bb8d1" d="M249.92 170.36a6 6 0 0 1-.12-1.28q-.01-.3.04-.6c.15-3.1.13-6.21.25-9.33.21-6.13.21-12.26.38-18.4q.14-4.59.2-9.19l.04-4.78c0-1.83.1-3.81 1.8-4.97a3.3 3.3 0 0 1 3.95-.08c1.6 1.04 1.6 3.02 1.55 4.71l-.15 4.52c-.1 3.04-.12 6.08-.2 9.12-.09 6.18-.33 12.36-.38 18.57-.02 3.18-.2 6.37-.17 9.56q.04.34.03.67v.05h-.03c-.05 1.76-.92 3.55-2.68 4.2q-.57.22-1.1.22c-1.63 0-2.98-1.33-3.39-2.97z"/><path fill="#9bb8d1" d="M262.24 177.57c-3.43-.8-6.6-2.34-9.9-3.55-1.09-.38-1.88-1.47-2.22-2.56-.7-2.31.56-5.62 3.28-5.84 3.67.6 6.86 2.95 10.63 3.55 4.56 1.19 2.99 9.44-1.77 8.38z"/><path fill="#9bb8d1" d="M264.96 174.44c-2.22-.2-3.28-2.4-3.28-4.23.2-10.86.92-21.67 1.3-32.54.22-3.4 0-6.85.4-10.23.84-4.83 7.02-4.71 7.3.33a839 839 0 0 0-1.7 33.75c-.56 4.16 2.16 12.44-4.02 12.92"/><path fill="#9bb8d1" d="M266.05 177.77c-3.33-1.02-4.46-4.73-5.48-7.7q-.3.07-.63.12c-1.42.12-2.58-.75-3.2-1.91-2.61-.6-3.02-3.72-2.86-5.96-.1-6.18-.28-12.34-.1-18.54.37-4.2.08-27.62 8.26-20.79 1.94-1.76 5.15-.58 5.65 1.93 3.36-1.47 5.97 2.88 4.57 5.8-.44 4.78-.51 9.6-.7 14.4-.3 7.4-.46 15.58-.58 22.68-.08 3.79.36 10.7-4.95 9.97z"/><path fill="#c7e1f9" d="m259.27 126.88-2.7-.94c.04 0 .09.05.14.05q-1.56-.6-3.12-1.14-.97-.34-1.98-.67-.57-.2-1.16-.34c.34-1.43 1.28-2.73 2.73-3.1 2.97-.84 5.96-1.56 8.93-2.36 3.7-.99 7.37-2.05 11.06-3.06 8.04-2.25 16.08-4.42 24.14-6.67l10.02-2.8 4.95-1.42c.94-.27 1.9-.5 2.82-.82q.49-.27 1-.39 1.4.42 2.84.82a4.4 4.4 0 0 1 1.3 2.42c.34 1.9-.48 4.15-2.31 5q-.66.28-1.28.28c-1.13.27-2.27.63-3.4.92q-2.73.72-5.41 1.47-5.8 1.6-11.59 3.24c-7.94 2.22-15.9 4.49-23.85 6.7-3.24.9-6.47 1.77-9.68 2.71l-1.98.58-1.5-.48z"/><path fill="#c7e1f9" d="M268.25 130.14s.1.05.14.05c-1.25-.46-2.46-1.04-3.71-1.5a96 96 0 0 0-2.8-.97c-.85-.29-1.72-.53-2.59-.82l-2.7-.94c.05 0 .1.05.15.05l-3.12-1.14-1.81-.62c.31-1.72 1.45-3.24 3.33-3.43 4.44.55 8.79 1.8 13.25 2.3 3.46 1.2 3.38 5.47 1.29 7.45a17 17 0 0 1-1.45-.43z"/><path fill="#c7e1f9" d="M268.25 130.14s.1.05.15.05c-1.14-.41-2.25-.94-3.38-1.38l-.05-.27c-.39-2.17.72-4.44 2.85-5.14h.05q.16-.06.33-.1c15.43-3.9 30.78-8.1 46.14-12.26l8.37-2.29c1.65-.46 3.29-.87 4.93-1.38a3 3 0 0 1 1.64-.31q.11.02.22.07l-.24-.05h-.2q.24-.01.46.05l.77.22q.25.1.49.24c2.1 1.28 2.22 4.35 1.04 6.33l-.05.04c-.08.1-.12.2-.22.3q-1.63.5-3.26 1.06l-2.2.74-3.26.9q-14.32 3.88-28.68 7.8l-14.12 3.83q-2.67.75-5.36 1.48l-.6.14q-1 .26-2 .48l-.9.22q-1.5-.31-2.92-.8z"/><path fill="#c7e1f9" d="M328.26 114.38a50 50 0 0 0-13.74-1.36c-2.24-.05-3.45-2.65-3.28-4.58.3-3.1 2.68-4.42 5.58-3.96q2.01 0 4.13.14l11.37 3.33c.48.85.67 1.91.38 3.17-.33 1.69-1.86 3.4-3.6 3.4a3 3 0 0 1-.81-.12z"/><path fill="#c7e1f9" d="M329.38 113.96c-.41-.22-.87-.5-1.24-.87-4.3-1.88-13.61.27-13.3-6.45a4.7 4.7 0 0 1 1.74-3.28l3.3.97 16.81 4.92a4.7 4.7 0 0 1-1.23 3.82q-2.32.71-4.61 1.47-.72-.16-1.45-.56z"/><path fill="#fff" d="M299.8 237.26a36.8 36.8 0 0 1-7.73 23.03 35 35 0 0 1-9.44 8.52 38 38 0 0 1-12.5 4.88q-3.1.6-6.2.6c-5.75 0-11.45-1.5-16.52-4.1a36 36 0 0 1-12.1-10.4 36 36 0 0 1-4.12-7.08 32 32 0 0 1-1.48-3.84c-.34-1.01-.7-2.07-.87-3.14-.29-1.93.3-4.12 2.18-5.04a3.4 3.4 0 0 1 4.17 1.16c.9-.25 1.81-.39 2.7-.32a396 396 0 0 1 42.3-14.6c2.9-.78 5.48-2.44 8.16-3.77a4.7 4.7 0 0 1 1.14-6.25 3.3 3.3 0 0 1 3.98.17 4 4 0 0 1 1.13 1.54c.27.56.6 1.09.87 1.62a37.4 37.4 0 0 1 4.32 17z"/><path fill="#fff" d="M349.3 220.44a36.8 36.8 0 0 1-7.72 23.03 35 35 0 0 1-9.44 8.53 38 38 0 0 1-12.5 4.87q-3.1.6-6.2.6c-5.75 0-11.45-1.5-16.52-4.1a36 36 0 0 1-12.1-10.4 36 36 0 0 1-4.12-7.08 32 32 0 0 1-1.48-3.83c-.34-1.02-.7-2.08-.87-3.14-.29-1.93.3-4.13 2.18-5.05a3.4 3.4 0 0 1 4.17 1.16 8 8 0 0 1 2.7-.31 396 396 0 0 1 42.3-14.6c2.9-.78 5.48-2.45 8.16-3.78a4.7 4.7 0 0 1 1.13-6.25 3.3 3.3 0 0 1 3.99.17 4 4 0 0 1 1.13 1.55c.27.55.6 1.08.87 1.61q1.1 2.15 1.96 4.4a37 37 0 0 1 2.37 12.6z"/><path fill="#000" d="M251.04 256.26h.02v.02zM270.5 271a23 23 0 0 1-5.12-1.26l-.22-.07c0-.1.05-.2.05-.29l-.02.12q.7-3.65 1.37-7.31 0 .09-.02.17 1.22-6.46 2.41-12.87c.12-.7-.26-1.38-.92-1.55q-.19-.04-.38 0a1.2 1.2 0 0 0-1.06-.31l-1.65.29-.21-.12c-.49-.2-1.07 0-1.38.4q-7.12 1.27-14.24 2.5a31 31 0 0 1 .04-14.1l2.2-.9 2.63-1.18.95-.31q2.65-.9 5.3-1.91 4.08-1.54 8.12-3.11l.9-.37 4.22-1.37c2.92-.97 5.81-1.91 8.71-2.9q1.37-.44 2.7-.9c.37-.11.7-.21 1.07-.3q-.08 0-.15.04 2.02-.57 4.03-1.1 1.48 1.32 2.73 2.86c.46.34.82.8 1.01 1.16q.07.09.1.17l.05.07q.5.76.94 1.55.51.81 1 1.66a29 29 0 0 1 3.32 12.9v.67a29 29 0 0 1-1.08 8.14 33 33 0 0 1-1.43 4.03 29 29 0 0 1-2.24 4.1l-.32.49a26 26 0 0 1-2.8 3.4 26 26 0 0 1-3.72 3.21 25 25 0 0 1-10.28 4.18 22 22 0 0 1-6.61.1z"/><path fill="#000" d="M263.67 248.85c-5.38 1.35-6.25-8.48-1.16-9.01 2.3-.02 4.6-.53 6.9-.6 4.26.43 4.3 7.9.37 8.98-2 .12-4.1.94-6.1.63"/><path fill="#000" d="M252.88 251.57c-1.93.02-3.36-1.76-3.55-3.8-.22-2.1 1-4.97 3.21-5.26.17 0 .34-.04.53-.04h.39c2.49-.12 5-.44 7.48-.7 3.14-.34 6.3-.63 8.91-.95q.7-.06 1.43-.16a3.1 3.1 0 0 1 2.6.19c.82.36 1.43 1.33 1.72 2.17a5.5 5.5 0 0 1-.1 3.84l-.31.65c-.68 1.33-2.2 2.25-3.62 2.03-.51 0-1.02.1-1.5.14l-3.74.37c-2.9.31-5.82.6-8.38.89-1.52.17-3.04.31-4.54.58q-.19 0-.34.05zm49.69-17.8h.02v.02zm19.45 14.73a23 23 0 0 1-5.12-1.25l-.22-.08c0-.1.05-.19.05-.28l-.02.12q.7-3.66 1.37-7.32 0 .09-.02.17 1.23-6.46 2.41-12.87c.13-.7-.26-1.37-.91-1.54q-.2-.06-.39 0a1.2 1.2 0 0 0-1.06-.32l-1.64.3-.22-.13c-.48-.2-1.06 0-1.38.41q-7.11 1.27-14.24 2.49a31 31 0 0 1 .05-14.1q1.1-.43 2.2-.9l2.63-1.17q.46-.14.94-.32 2.66-.9 5.3-1.9 4.08-1.54 8.12-3.12l.9-.36 4.22-1.38c2.92-.96 5.82-1.9 8.71-2.9q1.37-.44 2.7-.89c.37-.12.7-.22 1.07-.31q-.08 0-.15.05c1.36-.4 2.68-.75 4.04-1.12q1.47 1.34 2.72 2.88c.46.34.82.8 1.02 1.16l.1.17.04.07q.5.75.94 1.54.51.81 1 1.67a29 29 0 0 1 3.33 12.89v.68a29 29 0 0 1-1.09 8.13 34 34 0 0 1-1.43 4.03 29 29 0 0 1-2.24 4.1l-.31.49a26 26 0 0 1-2.8 3.4 26 26 0 0 1-3.72 3.22 25 25 0 0 1-10.29 4.17 22 22 0 0 1-6.61.1z"/><path fill="#000" d="M315.18 226.37c-5.38 1.35-6.25-8.47-1.16-9 2.3-.03 4.59-.53 6.9-.6 4.25.43 4.3 7.89.37 8.97-2 .13-4.1.95-6.11.63"/><path fill="#000" d="M304.42 229.1c-1.93.02-3.36-1.77-3.55-3.8-.22-2.1.99-4.97 3.21-5.26.17 0 .34-.05.53-.05h.39c2.49-.12 5-.43 7.48-.7 3.14-.33 6.3-.62 8.91-.94q.7-.07 1.43-.17a3.1 3.1 0 0 1 2.6.2c.82.36 1.43 1.32 1.72 2.17a5.5 5.5 0 0 1-.41 4.49c-.68 1.33-2.2 2.24-3.62 2.03-.51 0-1.02.1-1.5.14l-3.74.36c-2.9.32-5.82.6-8.38.9-1.52.17-3.04.31-4.54.58q-.19 0-.34.04z"/><path fill="#fff" d="M278.62 245.46h-.05q-.51-.16-1.02-.24-.18-.02-.36-.07a6 6 0 0 1-1.6-1.06 6.2 6.2 0 0 1-1.32-6.81 6 6 0 0 1 4.4-3.55c.74-.12 1.5-.07 2.22.07q.36 0 .65.2 1.03.41 1.86 1.15c.6.56 1.08 1.28 1.4 2.03h-.07a41 41 0 0 0-2.25.8q.06-.01.12-.05l-.75.29-.12-.17-.34-.34c-.12-.07-.24-.17-.24-.2q-.06-.01-.12-.06a2 2 0 0 0-.41-.2 1 1 0 0 1-.41-.12h-.07q-.28-.06-.56-.07-.26 0-.5.02c-.17 0-.34.08-.51.1l-.46.2a1 1 0 0 0-.27.16l-.31.24q-.1.13-.24.25a1 1 0 0 0-.17.24l-.14.29-.13.29q-.01.12-.07.24 0 .15-.02.29v.31s0 .17.05.27q.01.15.07.31l.12.3.17.3q.1.16.24.32l.24.24q.17.16.39.26.25.14.5.25.23.08.44.12l.53.07.56-.02q.1-.01.19-.05h1.88l2 .31q.23.02.44.07a5.6 5.6 0 0 1-3.89 2.97h-1.59l-.41-.07z"/><path fill="#fff" d="M279.75 254.61a6.2 6.2 0 0 1-2.63-2.66l2.32-.8q.36-.1.72-.23l.2.17q.18.15.38.26a3 3 0 0 0 .92.39l.68.12h.63q.32-.05.65-.15.24-.08.48-.19l.43-.24.39-.31.39-.42.21-.31q.08-.12.13-.24.1-.21.16-.41t.08-.39.04-.4v-.37l-.02-.22-.1-.38q-.07-.2-.17-.39l-.21-.36-.22-.3-.05-.04-.26-.27-.39-.29q-.26-.15-.56-.28-.1-.02-.19-.08-.1-.02-.2-.07-.05.01-.11-.05a3 3 0 0 0-.63-.07h-.31c-.39-.1-.8-.12-1.19-.15h-2.22l-.4-.07h-.03a8 8 0 0 0-1.02-.24q-.11.01-.24-.05a6.6 6.6 0 0 1 2.92-2.46 6 6 0 0 1 2.2-.46q.83.11 1.64.27l.6.1q.12.01.22.07.07.01.15.07.36.16.65.34.89.54 1.57 1.32 1.2 1.43 1.52 3.29a6.8 6.8 0 0 1-.9 4.63 6.4 6.4 0 0 1-3.5 2.73 6 6 0 0 1-4.63-.43zm-2.98-18.88q-.34-.96-.65-1.91l-.4-1.14a2 2 0 0 1-.25-.84q-.07-.63.3-1.16c.45-.65 1.3-.72 1.92-.27q.29.23.46.51.08.11.12.22.02.08.07.14.07.15.1.3l.36 1 .63 1.77.2.48c.28.77-.06 1.86-.9 2.13q-.21.06-.41.07c-.72 0-1.3-.63-1.55-1.28z"/><path fill="#fff" d="M283.89 257.38c-.32-1.42-1.36-2.94-1-4.42a1.34 1.34 0 0 1 1.77-.82c.75.3 1.01 1.02 1.13 1.74.27.75.48 1.5.75 2.25.87 2.02-1.71 3.43-2.68 1.28zm46.91-31.8h-.05q-.51-.16-1.02-.25-.18-.02-.36-.07a6 6 0 0 1-1.6-1.06 6.2 6.2 0 0 1-1.32-6.8 6 6 0 0 1 4.4-3.56q1.13-.16 2.22.07.35.01.65.2a6 6 0 0 1 3.26 3.19h-.08q-1.12.36-2.24.8.06 0 .12-.06l-.75.3-.12-.18-.34-.34c-.12-.07-.24-.16-.24-.19q-.06-.02-.12-.07a2 2 0 0 0-.41-.2 1 1 0 0 1-.41-.11h-.07q-.29-.06-.56-.08-.26 0-.5.03c-.17 0-.34.07-.51.1q-.25.09-.46.19-.16.07-.27.17l-.31.24q-.1.12-.24.24a1 1 0 0 0-.17.24l-.15.29q-.05.15-.12.29-.01.12-.07.24l-.02.3v.3s0 .17.05.27q.01.16.07.31l.12.3.17.3q.1.17.24.32l.24.24q.17.16.39.27.25.14.5.24.23.08.44.12l.53.07.56-.02q.1-.01.19-.05c.26.03.55 0 .84 0h1.04q1 .14 2 .32.23.01.44.07a5.6 5.6 0 0 1-3.89 2.97h-1.59l-.41-.08z"/><path fill="#fff" d="M331.93 234.72a6.2 6.2 0 0 1-2.63-2.66l2.32-.8.72-.24.2.17q.18.16.38.27.23.13.49.24l.43.14.68.12h.63q.32-.03.65-.14.23-.08.48-.2l.43-.24.39-.31.39-.41.21-.31q.08-.12.12-.25.11-.2.17-.4t.08-.4q0-.18.04-.4v-.37l-.02-.21q-.04-.2-.1-.39-.07-.19-.17-.39l-.21-.36-.22-.29-.05-.04-.26-.27q-.18-.15-.39-.29-.26-.15-.56-.29c-.07 0-.12-.05-.19-.07q-.1-.02-.2-.08-.05.01-.11-.04a3 3 0 0 0-.63-.07h-.31q-.6-.13-1.19-.15h-2.22l-.4-.07h-.03q-.51-.16-1.02-.24-.12.01-.24-.05a6.6 6.6 0 0 1 2.92-2.47 6 6 0 0 1 2.2-.45q.83.11 1.64.26l.6.1q.12.02.22.07.08.02.15.07.36.16.65.34.89.54 1.57 1.33 1.2 1.42 1.52 3.28a6.8 6.8 0 0 1-.9 4.64 6.4 6.4 0 0 1-3.5 2.73 6 6 0 0 1-4.64-.44zm-2.94-18.88q-.35-.96-.65-1.9l-.41-1.14a2 2 0 0 1-.25-.85c-.04-.4.05-.82.3-1.16.45-.65 1.3-.72 1.92-.26q.29.21.46.5l.13.22q.01.07.07.15.07.14.1.29.15.5.36 1.01.3.9.62 1.76l.2.49c.29.77-.05 1.85-.9 2.12q-.2.07-.4.07c-.73 0-1.31-.62-1.55-1.28z"/><path fill="#fff" d="M336.1 237.5c-.3-1.43-1.35-2.95-.98-4.42a1.34 1.34 0 0 1 1.76-.82c.75.29 1.01 1.01 1.13 1.74.27.75.49 1.5.75 2.24.87 2.03-1.71 3.43-2.68 1.28z"/><path fill="#1b61a1" d="M221.06 237.2c-1.24-2.24-.32-5.5 2.12-6.49 1.28-.5 2.58-.92 3.89-1.37l5.57-1.98 12.37-4.4q11.93-4.28 23.87-8.66c16.22-5.92 32.45-11.79 48.62-17.77q5.7-2.11 11.37-4.25 2.72-1.05 5.4-2.05c1.26-.49 2.52-.94 3.75-1.48.27-.19.53-.33.87-.45 1.84-.7 3.67.43 4.35 2.17.72 1.86.16 4.2-1.43 5.43a3.6 3.6 0 0 1-1.83.72h-.05c-3.45 1.04-6.86 2.37-10.26 3.58l-11.76 4.22a4167 4167 0 0 0-24.53 9c-15.95 5.9-31.93 11.76-47.87 17.73l-11.3 4.27-5.3 2c-1.17.44-2.3.92-3.48 1.33a3 3 0 0 1-1.3.27 3.5 3.5 0 0 1-3.07-1.86z"/><path fill="#1b61a1" d="M222.44 246.49c-4.61-3.91-4.47-11.8.12-15.64 1.83-1.21 4.08-.22 4.92 1.69 1.19 2.24-.29 4.25-1.18 6.22.68 1.4 2.32 1.67 3.07 3.02 2.7 4.93-3.12 9.22-6.96 4.73z"/><path fill="#1b61a1" d="M226.76 248.44a4 4 0 0 1-2-2.5c-.56-2.01.26-4.67 2.34-5.49 1.54-.6 3.16-1.1 4.73-1.69l5.72-2.05q5.87-2.1 11.73-4.22l24.43-8.84a5634 5634 0 0 0 58.98-21.75l5.7-2.17c1.09-.44 2.22-.82 3.28-1.33a3.5 3.5 0 0 1 2.46-.75c2.47.36 3.63 3.02 3.1 5.26q-.27 1.19-1.1 2.1-.34.42-.81.68-.04 0-.07.05a3 3 0 0 1-1.7.5l-.62.2c-7.66 2.56-15.21 5.38-22.82 8.16-8.04 2.92-16.07 5.91-24.09 8.88-15.98 5.94-31.94 11.95-47.92 17.92l-9.95 3.74c-2.94 1.1-5.86 2.34-8.83 3.35q-.66.23-1.3.24-.65 0-1.28-.29z"/><path fill="#1b61a1" d="M345.16 203.3c-3.35-1.06-3.23-5.33-1.33-7.67-1.61 0-3.25.82-4.82.19-2.85-1.35-2.88-5.9-.3-7.53 2.66-.87 5.85-1.81 8.5-.51 5.85 2.44 4.86 16.27-2.07 15.5z"/><path fill="#1b61a1" d="M226.68 244.25c-2.34-.2-3.72-2.54-3.55-4.74.75-7.86 22.93-12.4 29.81-15.98 24.41-9.2 48.72-19.67 73.37-27.95 4.4-1.43 8.13-2.6 12.07-4.08a3.7 3.7 0 0 1 3.7.26c2.29-1.73 5.42-1.4 6.32 1.62.63 2.03-.17 4.66-2.22 5.55-7.54 4.06-15.67 6.76-23.71 9.66-16.7 6.1-33.41 12.2-50.02 18.56-15.21 5.7-30.2 12.68-45.77 17.12zM362.8 255.1c-3.77-1.43-4.61-6.86-2.15-9.79 2.49-2.5 6.28-3.6 9.75-3.28 2.4-.14 4.08 2.7 4.69 4.78 1.23 5.94-7.46 9.78-12.3 8.3zm22.61 7.21a6 6 0 0 1-2.44-6.95 7.4 7.4 0 0 1 3.4-4.06 10.7 10.7 0 0 1 9.04-.63h.04q.18.07.32.17.52.24.99.56c1.4.94 2.2 2.44 2.44 4.08.63 4-2.9 7.12-6.47 7.87q-1.2.26-2.44.26a9 9 0 0 1-4.88-1.32zm-20.75 13.35c-3.45-1.14-5.12-4.73-4.06-8.19 1.2-3.9 5.82-6.44 9.8-6.03h.2l.17.02q.3.06.6.15 1.12.28 2.12.91a6.3 6.3 0 0 1 2.7 4.88c.23 2.92-1.56 5.43-3.9 6.98a10 10 0 0 1-5.29 1.6q-1.24 0-2.37-.37zm-26.56-7.27c-1.31-1.5-1.68-3.4-1.58-5.31.1-1.77 1-3.45 2.08-4.78 2.46-3.02 7.4-4.61 11-2.78q.18.08.34.2.24.1.4.21l.02.03q.22.15.4.33a7 7 0 0 1 1.5 1.76 7.5 7.5 0 0 1 .9 4.57c-.34 3.16-2.64 5.87-5.44 7.2-1.28.6-2.73.93-4.12.93a7 7 0 0 1-5.49-2.36zm-10.48 20.11c-2.32-2.49-1.9-6.5.12-9 1.81-2.25 4.27-3.38 7.05-3.92 2.58-.5 5.77.03 7.87 1.74q.59.42.97 1.06c.53.7.94 1.48 1.13 2.37a7.5 7.5 0 0 1-.7 5.14c-1.3 2.49-3.86 4.16-6.52 4.88q-1.52.4-3.14.41c-2.5 0-5-.82-6.76-2.68z"/><path fill="#df6133" d="M323.78 257.94a14 14 0 0 1 2.25 8.83c-.22 3.57-2.27 6.98-5.03 9.17-1.1.9-2.41 1.55-3.79 1.96a57 57 0 0 1-23.25 9.58c-2.58.44-5.16.75-7.8.75q-1.43 0-2.91-.12a21 21 0 0 1-5.44-1.1h-.33q-.95 0-1.86-.18a11 11 0 0 1-4.06-1.52 12 12 0 0 1-3.62-3.33q-.65-.9-1.16-1.96v-.04l-.12-.25q0-.03-.05-.07-.04-.14-.1-.24-.01-.08-.07-.14 0-.08-.04-.12c0-.05-.05-.1-.05-.17q-.01-.08-.05-.15-.05-.08-.05-.14-.07-.15-.1-.3v-.04q-.02-.16-.1-.27v-.05q-.35-1.33-.45-2.7v-.22a13 13 0 0 1 .92-5.52 12.7 12.7 0 0 1 4.39-5.73 11.6 11.6 0 0 1 6.8-2.31q.78-.01 1.58.04.57.06 1.16.2.39.08.72.24 1 .3 1.93.77.05-.01.1.05c3.79.39 7.7.75 11.42-.05 4.08-1.35 7.6-4.08 10.33-7.36a3.1 3.1 0 0 1 3.36-1.16q1.02-.59 2.14-.92a12 12 0 0 1 8.94.7c.19.1.38.17.55.3l.17.09s.05 0 .05.05l.8.5q.33.25.65.53.2.19.36.4.98.84 1.76 2z"/><path fill="#1b61a1" d="M403.63 286.18c.62 2.03-.17 4.66-2.2 5.55q-.44.2-.92.27a685 685 0 0 1 2.03 25.44 4.4 4.4 0 0 1-1.71 3.72 3.7 3.7 0 0 1-2.15 2.05c-2.9 1-5.85 1.91-8.79 2.85a1112 1112 0 0 0-11.73 3.91l-22.3 7.44q-1.26.4-2.5.82l-4.27 2.41c-1.33.8-2.8 1.33-4.34.87q-.34-.07-.68-.17l-7.05 2.37q-4.7 1.56-9.37 3.19l-3.13 1.08c-.46.17-.95.3-1.4.49a3.3 3.3 0 0 1-2.51.24 3.8 3.8 0 0 1-2.44-2.78 5 5 0 0 1 .8-4.08 3.8 3.8 0 0 1 2.46-1.54q4.71-1.47 9.44-3.05a257 257 0 0 1-16.66-7.36c-2.03-1.25-4.95-1.74-6.95-3.14l-.22.05q-.4.09-.8.1c-1.6 0-2.9-1.16-3.38-2.7a4.7 4.7 0 0 1 2.2-5.56c.17-.1.34-.12.48-.17h.1l.94-.34q.06 0 .1-.04l.14-.05c1.69-.6 3.4-1.23 4.59-1.67l.58-.21q.63-.25 1.28-.46c.77-.39 1.69-.65 2.29-.82l.31-.12h.05c16.27-5.92 32.54-11.95 48.8-17.97l18.27-6.8q4.56-1.7 9.1-3.43 2.14-.8 4.27-1.64c.65-.27 1.33-.51 2-.82l.1-.08 3.38.39.7.07q.74.75 1.09 1.76z"/><path fill="#6e777e" d="m393.2 373.3.17.1q.26.06.5.16c-.5-.17-1.1-.2-1.61-.29-1.23-.22-2.46-.4-3.48-.55-16.39-2.47-32.8-4.66-49.22-6.96l-19.27-2.65c-5.57-.75-11.2-1.38-16.75-2.25-1.96-.31-2.94-2.7-2.82-4.44q.06-1.03.53-1.96v-11.7c0-5.68 0-11.35-.15-17.02v-.27a5 5 0 0 1 0-2.46c.48-1.98 2.58-3.89 4.66-3.07 6.04 1.19 12.17 2.03 18.23 3.02q11.85 1.97 23.68 3.91l17.57 2.85c.44.43 1.1.48 1.67.56l1.57.19c.68.07 1.35.2 2.03.2h.48q11.19 1.77 22.38 3.44a3.5 3.5 0 0 1 2.75 2.22q.27.4.41.87c1.4 8.84-.5 18.16.3 27.14.2.55.28 1.18.23 1.81a4.7 4.7 0 0 1 1.3 3.5c-.14 2.13-1.75 4.03-3.74 4.03q-.69.01-1.42-.34z"/><path fill="#6e777e" d="M302.85 357.39c-.53-2.03.34-4.71 2.44-5.46 7.37-2.68 14.78-5.24 22.19-7.87q11.93-4.28 23.85-8.67 7.31-2.67 14.63-5.3.48.12.97.14l1.56.2c.68.09 1.36.18 2.03.18h.36c.22 0 .44-.1.63-.21q.33-.08.68-.2l1.95-.7h-.04q.58-.22 1.15-.4 3.63-1.33 7.22-2.78a408 408 0 0 1 14.2-5.44l3.86-1.42 1.42-.53c.51.5.87 1.18 1.07 1.88.62 2.37-.82 5.2-3.02 5.6h-.1c-3.5 1.14-6.93 2.47-10.38 3.7l-11.68 4.22c-7.9 2.85-15.74 5.72-23.64 8.57-15.54 5.6-31.1 11.2-46.54 17.02q-.14.07-.27.1c-.38.14-.8.22-1.16.22-1.59 0-2.97-1.21-3.4-2.85z"/><path fill="#6e777e" d="M377.05 354.75c-1.88-3.55 1.3-7.2 4.28-8.86a5 5 0 0 1-.6-.99 5 5 0 0 1-.27-1.04q-2.06.87-4.1 1.67c-1.72.65-3.48-.34-4.13-1.98-1.33-3.12 1.25-5.55 3.76-6.95-1.4-5 15.52-11.66 19.63-13.55a5 5 0 0 1-.1-1.71q.62-.22 1.23-.46l3.87-1.42c.94-.34 1.9-.73 2.9-1.04a1 1 0 0 0 .36-.22c9.75 1.6 19.91 1.7 29.67 3.67 2.75.36 5.57.46 8.35.7 3.6.58 4.1 5.7 1.47 7.77-7.97 4.57-16.6 8.04-24.96 11.9-4.73 1.87-29.04 13.94-38.07 13.94-1.72 0-2.87-.44-3.24-1.45zm41.1-23.66c-3.05 2.7-6.57 4.76-9.95 7l1.56-.7q8.6-3.9 17.17-7.84-2.97-.53-5.99-1l-1.25-.16a4.6 4.6 0 0 1-1.52 2.73z"/><path fill="#9bb8d1" d="M433.9 286.23q.52 0 1.04.05l.99.22q-1.02-.16-2.03-.27m55.29 47.82.17.1q.24.07.5.17c-.5-.17-1.1-.2-1.62-.3l-3.47-.55c-16.4-2.46-32.81-4.66-49.23-6.95q-9.63-1.35-19.26-2.65c-5.58-.75-11.2-1.38-16.75-2.25-1.96-.31-2.95-2.7-2.83-4.44q.07-1.03.53-1.96v-11.71c0-5.67 0-11.34-.14-17.01v-.27a5 5 0 0 1 0-2.46v-.05h.05q5.43.71 10.86 1.47l30.13 4.06q15.13 2.02 30.25 4.08l23.44 3.16q.18.3.31.58.26.39.41.87c1.4 8.83-.5 18.15.3 27.13q.3.86.23 1.81a4.7 4.7 0 0 1 1.3 3.5c-.14 2.13-1.76 4.04-3.74 4.04q-.69.01-1.42-.34z"/><path fill="#649c5f" d="M465.5 310.78c2.59 1.71 2.95 6.8-1.23 7.99a1197 1197 0 0 1-62.04 24.96c-5 1.93-10.07 3.7-15.14 5.5a11.5 11.5 0 0 1-8.8.6c-13.8-3.08-27.77-5.33-41.68-7.74-3.81-.97-8.4-.2-11.75-2.34a5.1 5.1 0 0 1-.44-6.45c1-.92 2.2-2.24 3.5-3.38a5 5 0 0 1 .87-3.04c1.04-1.45 3.19-1.88 4.8-2.46q2.71-.98 5.41-2 6.01-2.23 11.98-4.47l23.1-8.74q6.9-2.6 13.74-5.2l5.84-2.24c1.52-.58 3.07-1.13 4.56-1.76l.05-.02.41-.22q.56-.22 1.16-.22-.02.33-.07.65c3.64-.8 8.66.92 11.9 1.14 16.92 1.69 33.68 4.32 50.5 6.74a4 4 0 0 1 3.33 2.77z"/><path fill="#649c5f" d="M322.58 338.59c-.8-.55-1.19-1.35-1.98-1.9-2.2-2.1-1.5-6.36 1.28-7.64 1.25-.57 2.56-.84 3.69-1.71 1.93-1.01 4.37-1.9 6.5-1.06 1.68-.15 3.6-.2 5.14.65 5.55 2.63 1.59 12.53-3.84 8.74-.73 1.16-1 2.58-2.22 3.38-2.47 1.47-6.18.99-8.55-.48z"/><path fill="#f2a443" d="M390.25 323.67a6.7 6.7 0 0 1-4.23-3.06 6.7 6.7 0 0 1 1.04-7.75c2.03-2.2 5.48-2.73 8.23-1.72a3.4 3.4 0 0 1 1.33.73q.8.56 1.42 1.3a6.4 6.4 0 0 1 1.19 5 7.05 7.05 0 0 1-7.08 5.72q-.98 0-1.93-.24zm31.03-1.47c-1.95-2.31-1.86-5.55-.22-8a8.3 8.3 0 0 1 8.1-2.93c.55.02 1.05.22 1.46.5q.88.39 1.65 1.02a6.4 6.4 0 0 1 2.12 5.14 6.9 6.9 0 0 1-4.2 5.85 9 9 0 0 1-3.52.7c-2.03 0-4.06-.7-5.41-2.3z"/><path fill="#81b1dd" d="M494.44 297.87c.75.87 1.18 2.1.96 3.48a28 28 0 0 0-.53 4.6c-.4 6.67-.43 13.3-.36 19.97.07 1.28.1 2.8-.24 4.15a4.7 4.7 0 0 1-1.6 4.3c-.4.36-1.1.7-1.7.8-1.17.43-2.3.94-3.44 1.4l-5.26 2.17-10.91 4.51c-7.7 3.2-15.43 6.35-23.13 9.54a5748 5748 0 0 0-50.33 21q-.6.25-1.19.24c-1.59 0-2.97-1.27-3.4-2.87a5 5 0 0 1-.14-1.45q-.07-.15-.1-.29c-.87-8.71-.68-17.55-.7-26.29-.1-.72-.12-1.59-.07-2.48a4 4 0 0 1-.54-1.55c-.26-2 .73-4.1 2.54-4.85v-.02c15.62-6.4 31.26-12.68 46.86-19.12 15.74-6.5 31.53-12.85 47.17-19.58l.82-.36q.3-.18.6-.32c1.6-.65 3.31.12 4.16 1.57q.39.68.53 1.47z"/><path fill="#6e777e" d="m393.2 373.29.17.1q.26.06.5.16c-.5-.17-1.1-.2-1.61-.29a109 109 0 0 0-3.48-.55c-16.39-2.47-32.8-4.66-49.22-6.96q-9.63-1.34-19.27-2.65c-5.57-.75-11.2-1.38-16.75-2.25-1.96-.31-2.94-2.7-2.82-4.44q.06-1.04.53-1.95v-11.71c0-5.68 0-11.35-.15-17.02v-.27a4.7 4.7 0 0 1 1.28-4.66l4.9.65 8.21 1.04h.07-.05.05l10.7 1.38-.17-.02q5.43.72 10.81 1.37 2.14.26 4.28.56l6.56 1.08 17.6 2.85c.44.44 1.09.48 1.67.56l1.57.19c.67.07 1.35.2 2.03.2h.48a2402 2402 0 0 0 22.38 3.44q1.2.21 1.95 1.02l.1 1.98q.11 1.95.17 3.9l.12 4.2v-.16l.02.9v-.05c.12 2.75.3 5.48.44 8.23v2.34l.12 4.75q.01 1.39.1 2.78 0 1.13.1 2.3c.09 2.14.16 4.3.4 6.42-.65.6-1.45.99-2.32.99q-.7.01-1.42-.34z"/><path fill="#6e777e" d="M302.85 357.38c-.53-2.03.34-4.7 2.44-5.46 7.37-2.68 14.78-5.24 22.19-7.87q11.93-4.28 23.85-8.66 7.31-2.68 14.63-5.31c.31.1.65.12.97.14l1.56.2q1.02.17 2.03.19h.36c.22 0 .44-.1.63-.22l.36-.1 6.3.97q2.88.43 5.75.9l-6.08 2.19c-7.9 2.85-15.74 5.72-23.64 8.57-15.54 5.6-31.1 11.2-46.54 17.02l-.27.1c-.38.14-.8.21-1.16.21-1.59 0-2.97-1.2-3.4-2.85z"/><path fill="#6e777e" d="M377.05 354.74c-1.88-3.55 1.3-7.19 4.28-8.86a5 5 0 0 1-.6-.99 5 5 0 0 1-.27-1.03q-2.06.87-4.1 1.66c-1.72.65-3.48-.34-4.13-1.98-1.33-3.11 1.25-5.55 3.76-6.95-.46-1.6 1.02-3.4 3.33-5.14l16.03 2.46c0 1.04.08 2.08.12 3.14q.13 1.95.17 3.9.07 2.1.12 4.21v-.17q.01.45.05.9v-.05q.14 3 .32 6c-6.23 2.42-12.2 4.3-15.8 4.3-1.7 0-2.87-.43-3.23-1.44z"/><path fill="#6e777e" d="M392.6 341.25s-.1-.02-.15-.05h.02l-.1-.02c-1.56-.36-3.23-.53-4.8-.8l-9.82-1.5q-11.02-1.64-22.04-3.25-7.31-1.09-14.58-2.13c-3.4-.5-6.84-1.04-10.26-1.42-2.23-.27-3.34-2.92-3.07-4.88a4.4 4.4 0 0 1 2.25-3.35q9.81 1.48 19.62 3.01l28.58 4.4 17.12 2.63c0 1.04.07 2.07.12 3.14q.12 1.78.17 3.6a3.3 3.3 0 0 1-3.02.62z"/><path fill="#c7e1f9" d="M442.92 339.17a7.4 7.4 0 0 1-2.22-5.3 7.6 7.6 0 0 1 3.91-6.67q1.35-.72 2.88-.8c.6 0 1.28 0 1.86.24q.2.01.45.1l.27.12a7.4 7.4 0 0 1 2.75 2.03 7.6 7.6 0 0 1-.58 10.14 7 7 0 0 1-4.4 1.98h-.45a6.8 6.8 0 0 1-4.5-1.86zm5.05-3.55q.22 0 .46-.1l.34-.11.29-.17.21-.17q.12-.11.2-.22l.12-.17q.08-.1.12-.21.02-.09.07-.17c0-.08.05-.12.05-.2v-.53l-.05-.2-.07-.2q-.08-.13-.12-.25l-.17-.24q-.13-.16-.27-.27a4 4 0 0 0-.6-.36c-.07 0-.12-.05-.2-.07h.05l.08.02s-.05 0-.05-.02h-.03s-.16-.05-.24-.1q-.25-.02-.53-.07h-.4q-.23.01-.44.1l-.34.12-.36.19-.22.17-.22.22-.1.12-.14.26q0 .08-.05.12 0 .08-.05.17 0 .12-.02.22v.34q0 .1.05.22.03.1.1.21.04.12.12.22l.19.26q.1.12.2.2.13.14.33.24t.39.22l.45.14c.15 0 .27.05.41.05h.42z"/><path fill="#c7e1f9" d="M443.14 337.38c-3.4-4.56 2.66-14.07 7.22-7.65 4.9 4.44-2.68 13.08-7.22 7.65"/><path fill="#fff" d="m230.5 233.17-.34-.36c-.8-1.11-.75-3.47-.22-4.51 2.68-7.05 2.49-16.44-3.13-22.02-15.02-12.6-35.32.82-47.85-16.9-7.32-9.03-4.4-21.22-.44-31a4.4 4.4 0 0 1 2.61-4.32c.8-.34 1.71-.48 2.56-.7l3.02-.8q2.9-.76 5.81-1.56 5.8-1.57 11.54-3.21c4.18-1.21 8.28-2.54 12.46-3.67q3.28-.9 6.57-1.84l3.35-.94c.7-.2 1.43-.34 2.13-.58q.51-.3 1.06-.36.44-.08.87-.05l.5-.1c2.25-.07 3.65 2.32 3.65 4.3 0 2.97-3.14 4.51-3.74 7.36-5.82 17.14 8.25 26.63 23.68 28.1 14.41-.6 34.35 5.31 34.79 22.55 0 2.95.55 8.93-1 12.58l-6.97 2.63-28.8 10.89-14.07 5.33-6.57 2.47a4.3 4.3 0 0 1-1.52-3.24z"/><path fill="#6e777e" d="M219.35 157.12a4.8 4.8 0 0 1-1.18 4.47 3.4 3.4 0 0 1-2.37.99l-.34.1c-9.08 2.24-17.98 5.01-26.99 7.5q-.5.13-.94.12c-1.71 0-3.14-1.33-3.55-3.11-.46-1.96.39-4.73 2.56-5.31 4.95-1.36 9.92-2.56 14.9-3.87q3.87-1.04 7.75-2.12l3.47-1q.77-.2 1.55-.45c.7-.39 1.5-.56 2.3-.41 1.49.29 2.55 1.64 2.89 3.07zm-12.6 12.98c4.88-1.4 6.47 6.73 2.12 8.22-4.87 1.38-9.8 2.66-14.58 4.35-3.01.99-7.65 3.52-9.3-.72-.98-2.37.25-5.77 3-6.11 6.25-1.91 12.53-3.8 18.76-5.72zm25.16 9.53c.49 1.85-.16 4.17-1.95 5.11-7.9 2.97-16.1 5.31-24.14 7.9-3.58 1.28-7.8 3.16-8.84-2.15-.26-2.05.9-4.56 3.12-4.9 5.28-1.45 10.5-3.14 15.71-4.83 4.08-1.23 8.04-2.82 12.07-4.15 1.9-.51 3.6 1.32 4.03 3zm17.67 10.77c1.16 5.48-5.6 6.18-9.27 7.75-4.3.77-12.6 7.19-14.7.62-1.5-6.8 8.42-6.32 12.62-8.66 3.58-1 9.51-5.12 11.32.28zm25.29 7.85c.5 1.96-.29 4.7-2.44 5.34-10.74 2.63-20.8 7.7-31.45 10.35-2.2-.05-3.7-2.2-3.65-4.3 0-1.97 1.38-4.15 3.43-4.3a267 267 0 0 0 15.88-5.35 537 537 0 0 1 13.72-4.64c2.12-.65 4 .82 4.53 2.88zm-17.07 15.22c2.41.87 3.18 4.05 1.9 6.18a4.7 4.7 0 0 1-2.77 2.15 422 422 0 0 0-12.68 4.58c-2.5 1.28-5.19-1.35-5.04-3.98.19-5.43 7.36-5.1 11.08-7.12 2.46-.63 4.88-2.51 7.48-1.81z"/><path fill="#c7e2f9" d="M327.13 365.05c.37 1.52.08 3.21-.87 4.18-3.35 4.7-7.07 9.1-11.73 12.6-16.22 12.75-37.25 19.94-57.89 19.03-30.95-1.16-57.12-26.85-66.31-55.24-1.48-6.16-3.1-13.79-1.86-20.35.1-2.6 1.54-5.17 2.97-7.22 3.98-5.67 11.2-8.28 17.98-7.65 14.66 1.33 14 18.49 17.29 29.2 8.69 29.82 39.13 36.9 64 21.16 2.96-1.89 4.87-4.25 7.33-6.57 1.72-1.33 4.37-.9 6.4-.77 5.77.21 11.64 1.1 16.73 4 2.41 1.3 5.2 2.78 5.92 5.65q.25 1 .07 2z"/><path fill="#fff" d="M328.3 363.51a175 175 0 0 1-18.81-2.3c-5.97-1.2-14.56-.3-17.53-6.85-1.54-3.9.63-9.05 4.54-10.57 2.87-.7 7.56-1.02 9.39 1.69 1.33-.82 2.82-.9 4.35-.8 4.53.24 9.1.6 13.61 1.14 5.24.87 11.54.96 14.97 5.62 5.12 8.4-2.25 13.69-10.53 12.07m-22.41-11.4q-.47-.3-.87-.67-.32.26-.67.49.75.11 1.52.19z"/><path fill="#fff" d="M306.44 355.4c-2.68.39-4.6-2.46-4.2-4.92.65-5.12 5.97-3.45 9.47-2.85 6.64.94 12.65 3.77 18.27 7.1-7.41 3.19-15.79 1.98-23.54.67"/><path fill="#fff" d="M327.6 352.45c-5.4-.75-11.1-1.54-15.85-4.4q-.5.01-1-.16-.13-.04-.23-.1a3.3 3.3 0 0 1-3.24 1.4q-.55-.1-1.04-.36c-2.05 2.82-6.15 1.02-6.4-2.24-.19-3.02 1.65-5.92.78-8.98-4.7-4.2-11.73-12.44-5.97-18.35 4.4-3.96 9.71-.05 12.1 4.13 1.13-8.67 13.1-13.06 15.28-2.56 3.77-4.59 11.47-6.06 13.04 1.16 4.54-4.18 11.1-1.77 11.61 4.41.41 4.08-2.63 7.13-4 10.67-1.36 9.42-3.97 16.54-15.12 15.36zm96.77-54.65c-5.32-6.79-.95-20.14 7.94-21.22 2.97-.51 7.53-.68 8.08 3.14 2.3 1.03 3.02 4.73 1.4 6.68-1.78 2.42-4.05.49-5.26 3.43-1.18 1.57-.75 3.57-1.23 5.36-1.04 5.36-7.53 6.8-10.91 2.63z"/><path fill="#fff" d="M445.44 304.18c-8.83-.73-10.7-11.62-7.97-18.54.9-4.47 8.16-11.95 10.26-4.3 5.07-3.53 11.57 2.87 7.08 7.58-.8.82-2 1.11-2.6 2.1-1.38 2.75-.1 6.28-1.4 9.13-.8 2.31-2.83 4.12-5.37 4.03"/><path fill="#fff" d="M457.48 301.5c-6.85-2.69-7.75-12.54-4.1-17.94 2.1-5.14 8.2-1.74 6.83 3.01 1.96-3.69 7.92-4.46 8.57.56.24 1.93-.77 4.37-2.85 4.83-.6 4.3-2.82 11.23-8.45 9.54m1.04-9.88c.24-1.16.46-2.32.87-3.4a5.5 5.5 0 0 0-.87 3.4"/><path fill="#fff" d="m476.06 294.2-1.35-.17a26 26 0 0 0-1.9-.22q-.2.01-.42-.05l-1.2-.16-.22-.1-.82-.36c-1.74.67-3.65.48-5.53.26q-1.41-.17-2.8-.19c-3.5.24-7-2.05-6.03-5.9q-.2-.28-.32-.62c-4.03-1.98-10.55-.92-11.15-6.15-2.03.62-4.15 1.18-5.82 2.53-5.21 9.37-16.87-9.39 10.12-11.68 11.1-.66 24.09 5.33 29.13 15.52 1.28 2.2 1.21 5.99-.77 7.44-.31-.08-.63-.1-.94-.15z"/><path fill="#1b61a1" d="M291.36 186.36c-8.06-5.19-5.82-16.32 4.35-16.17 2.99-1.96 6.03 1.42 6.51 4.3 1.91 6.6-3.52 14.94-10.84 11.87z"/><path fill="#000" d="M290.91 263.56a58 58 0 0 1-5.48-1.28c-.65-.16-1.3-.38-1.96-.53-.4-.07-.84-.19-1.25-.21a43 43 0 0 0 2.92-2.64c.07-.1.15-.16.24-.26.92-.97 1.74-1.98 2.54-3.07.77-1.1 1.5-2.3 2.17-3.5q.88-1.7 1.6-3.52.64-1.82 1.1-3.67c.27-1.23.46-2.49.53-3.12q.23-2.1.2-4.2a35 35 0 0 0-.27-3.18q-.28-1.89-.77-3.72-.47-1.71-1.14-3.33l-.74-1.7q-.18-.24-.32-.5.69-.24 1.38-.56l1.86-.84q1.21-.54 2.36-1.09.59-.29 1.21-.55c.44.99.9 1.95 1.26 2.97a41 41 0 0 1 1.93 7.4 40 40 0 0 1-.94 16.52 37 37 0 0 1-6.59 13.16l-1.24 1.52q-.28-.03-.58-.1zm-49.61 5.94a39.6 39.6 0 0 1-14.32-20.56 6 6 0 0 1-.22-1.7q.46.13.95.15l.53.03c1.04 0 2.07-.22 3.06-.49q.34-.08.68-.19.95-.19 1.88-.48c0 .07.05.14.05.22q.53 1.8 1.26 3.57a36 36 0 0 0 1.59 3.2q.9 1.49 1.9 2.86a40 40 0 0 0 2.59 3 42 42 0 0 0 3.28 2.89c1.23.92 2.51 1.71 3.84 2.46q2.06 1.09 4.23 1.9 2.53.88 5.14 1.38 2.57.45 5.19.49 2.28 0 4.51-.34a10.2 10.2 0 0 0-1.76 7.12q.01.14.05.27.08.63.27 1.28-1.36.1-2.7.1a37 37 0 0 1-22-7.13z"/><path fill="#000" d="M293.57 252.94q.1-.18.15-.43.33-2.22.74-4.42l.54-2.82.17-.97q1.67 1.22 3.5 2.22 2.05 1.08 4.22 1.91 2.53.88 5.14 1.38 2.58.41 5.2.48a32 32 0 0 0 14.98-3.8 37 37 0 0 0 4.04-2.62 36 36 0 0 0 3.45-3.14q1.36-1.44 2.53-3.07c.77-1.1 1.5-2.3 2.17-3.5q.9-1.73 1.6-3.52.65-1.8 1.1-3.67c.27-1.23.47-2.49.56-3.12.15-1.37.22-2.8.2-4.2a48 48 0 0 0-.27-3.18 33 33 0 0 0-.75-3.72 43 43 0 0 0-1.15-3.36l-.75-1.66-.17-.27c.9-.31 1.76-.6 2.63-.96 1.3-.56 2.63-1.09 3.91-1.7l.34-.11q.55 1.19 1.04 2.41a41 41 0 0 1 1.93 7.41 40 40 0 0 1-.94 16.51 40 40 0 0 1-3.9 9.18c-.79 1.4-1.73 2.7-2.7 3.98-.5.68-1.06 1.3-1.61 1.96q-.44.5-.92.96l-.05.05-.17.17h-.02q-1.04 1.08-2.13 2.05a37 37 0 0 1-14.07 7.75 8 8 0 0 0-.56-.7c-.62-.7-1.56-1.09-2.4-1.45-.52-.22-1.05-.38-1.58-.58q-.76-.33-1.57-.6c-.6-.17-1.25-.27-1.86-.39-.45-.12-.89-.26-1.35-.26q-.58 0-1.16.07-.74.08-1.5.12c-.62.05-1.25.05-1.88.12a9 9 0 0 0-2.1.63c-.53.22-1.08.43-1.54.8q-.16.1-.27.21a5.5 5.5 0 0 0-1.9 1.28q-.42.4-.8.87a36 36 0 0 1-9.95-4.42z"/><path fill="#5081ae" d="M244.66 410.49a4.8 4.8 0 0 1-.92-3.36c.36-3.13.44-6.32.87-9.46.27-3.84 4.73-5.5 6.18-1.4.27 3.98 2.25 14.87-3.33 15.52a3.2 3.2 0 0 1-2.8-1.3m80.56-41.07c-1.2-.29-2.48-.46-3.71-.67q-4.88-.93-9.78-1.74c-6.47-1.13-12.92-2.37-19.41-3.38q-.11.01-.22-.05c-4.68-1.08-3.23-9.05 1.55-8.45 1.08.15 2.17.44 3.26.63l5.81 1.09 9.7 1.71c4.86.87 9.71 1.86 14.6 2.54.64.04 1.27.28 1.8.72a4.3 4.3 0 0 1 1.47 3.57 4.7 4.7 0 0 1-1.9 3.6 3.5 3.5 0 0 1-3.16.46z"/><path fill="#5081ae" d="M330.6 368.5c-2.23-2.9.76-6.56 3.83-7.1 3.3-.55 3.96-4.12 2.7-6.8-3.98-8.16-14.75-5.65-22.2-7.05-6.52.14-13.38-2.3-19.73-.56-2.94 1.57-4.13 5.43-1.06 7.53 3.4.63 3.98 5.75 1.4 7.7-2.44 2.15-5.43-.04-7.12-2.07-6.38-6.33-3.34-17.53 4.44-21.17 8.18-2.83 17.14.38 25.61.31 4.76.53 9.59.6 14.27 1.64 7.12 1.93 12.67 9.25 12.17 16.66.17 4.83-2.51 9.66-7.12 11.42-2.25 1.09-5.44 1.8-7.2-.48z"/><path fill="#5081ae" d="M297.64 344.05c-1.86-.24-2.85-1.86-3.84-3.28-5.07-6.57-10.02-16.68-3.91-24.14 5.14-6.52 19.77-3.17 17.93 6.13-.62 1.71-2.36 3.02-4.25 2.51-1.66-.56-1.88-1.52-2.68-2.46-1.18-1.3-3.28-1.26-4.87-.82-4.9 2.7 2.1 11.25 4.25 14.26 2.82 2.18 1.25 8.19-2.63 7.78z"/><path fill="#5081ae" d="M337.8 348.97c-3.07-1.04-3.14-5.31-1.13-7.41a74 74 0 0 0 5.74-8.16c2.46-2.44 1.64-12.07-3.02-9.32-2.68 2.87-6.76-.29-6-3.72-1.7-1.66-5.25-1.25-7.2-.12-1.3.73-1.72 2.42-3.19 2.92a3.4 3.4 0 0 1-3.57-.67c-1.16-.94-.97-2.66-2.18-3.45-3.08-.95-6.63-.63-7.96 2.72-.48 1.3-.82 2.7-1.93 3.62-1.98 1.77-5 .42-5.56-2.02-.72-4.86 3.4-9.59 7.1-12.3 4.2-1.66 10.48-1.56 13.76 1.9 4.88-3.32 13.23-3.24 16.64 2.16 8.93-1.5 13.15 9.61 11.54 16.93-.7 3.79-3.12 7.05-5.22 10.16-1.98 2.27-3.7 6.86-7.02 6.86q-.4 0-.8-.1m8.43-15.81a1.2 1.2 0 0 0 .94 1.42l.21.03c.56 0 1.09-.39 1.21-.97q.13-.72.22-1.4 0 .08-.03.14l.27-1.37q.14-.75.1-1.5a15 15 0 0 0-.34-2.5q-.19-.78-.41-1.55-.17-.59-.41-1.16a1.3 1.3 0 0 0-.87-.97 2 2 0 0 0-.58-.07c-.44.02-.77.34-.97.72a1.2 1.2 0 0 0 .27 1.36c0 .04.05.1.05.12v-.05s.02.1.05.14l.62 2.25q.1.6.17 1.18v-.1.15-.07.07c0 .39.05.77.05 1.16q0 .15-.05.29-.2.9-.31 1.86v-.07l-.15.86zm81.1-29.43c-9.34-2.24-10.81-13.64-7.48-21.3 3.06-7.35 10-12.2 17.09-15.3 1.76-1.3 4.34-.36 5.1 1.67 1.85 5.21-2.83 6.37-6.33 7.97-3.77 2.07-7.44 4.92-9.3 8.88-.91 2.51-1.8 6.04.1 8.26 1.88 1.98 6.04 3.11 6.57-.54.58-2.31.19-5.14 2.53-6.54a3.06 3.06 0 0 1 3.74.39c2.68 3.11.82 7.92-.5 11.3a8.9 8.9 0 0 1-11.54 5.24z"/><path fill="#5081ae" d="M440.11 306.08a8.6 8.6 0 0 1-5.1-4.42c-1.27-2.34-2.77-5.45-1.32-8.04.99-1.78 3.16-2.85 5.02-1.59 1.57.94 1.47 2.9 2.17 4.42 1 2.27 4.3 2.53 6.13 1.1q0-.03.03-.06.11-.45.17-.9-.02.17-.07.34l-.05.27c.31-3.34-1.02-7.27 1.5-10 1.76-2.17 4.41-.84 5.16 1.5.87 4.03 1 8.52-.31 12.48-2.03 4.92-8.6 7.02-13.33 4.88z"/><path fill="#5081ae" d="M434.13 291.96c-2.1-4.1 1.42-11.47 6.32-11.3 1.3.02 2.18 1.01 2.42 2.22.43 2.34-.9 4.42-2.08 6.3.39 3.65-4.56 6.42-6.66 2.78m16.69 2.07c-5.28-1.01-3.47-8.84.05-10.98 1.45-1 3.99-.8 4.66 1.08a6.5 6.5 0 0 1-.63 5.43c.05 2.32-1.66 4.64-4.1 4.5z"/><path fill="#5081ae" d="M457.22 306.78c-4.23-.66-7.87-4.93-8.36-9.1-.38-4.54 5.68-6.7 7.18-1.84.07.6.38 1.11.77 1.6l-.15-.22s0-.03-.14-.22c1.35 2.22 4.7 1.52 5.74-.65.44-4.25.63-8.55 2.2-12.6 1.5-4.2 6.86-3.24 6.93 1.18 0 2-1.11 3.81-1.35 5.82-.2 8.62-2.56 16.41-12.8 16.03z"/><path fill="#5081ae" d="M476.98 295.75c-2.93-.51-5.97-.3-8.84-.83-3.21-1.06-3.5-5.65-1.09-7.67 2.34-1.74 5.34.05 8.02-.17 1.79.2 3.9-.1 5.1 1.57 2.16 2.48.33 7.43-3.2 7.12zm-58.83-2.59c-6.73-.75-13.47-1.64-20.2-2.44-3.91-.8-3.99-7.39-.2-8.43 4.23.08 8.43.95 12.6 1.57 3.8 1.02 9.66-.8 12 3 1.53 2.75-.67 7.46-4.2 6.27z"/><path fill="#5081ae" d="M395.35 300.89c-2.05-2.78-.72-6.61-1.1-9.82 0-1.94-.42-3.96.19-5.82.67-1.94 2.53-3.53 4.65-2.66 1.94.77 2.64 2.95 2.32 4.85-.05 2.06.05 3.91.05 5.87 0 1.4.05 2.85.07 4.2.3 3.28-3.64 6.23-6.18 3.36z"/><path fill="#5081ae" d="M454.98 308.25c-.65-.1-1.33-.12-1.98-.14l-4.06-.32-.5-.05c-12.3-.99-24.58-1.8-36.87-2.75q-3.65-.3-7.31-.53l-3.5-.22c-.68-.05-1.38-.12-2.05-.1-2.25.13-3.67-2.29-3.7-4.27 0-2.12 1.72-4.82 4.18-4.27.84.17 1.79.17 2.63.24 1.55.12 3.11.27 4.13.34 12.5.99 25.03 1.86 37.56 2.8l7.46.5 2.75.2c.56.02 1.14.12 1.7.12l.45-.02c.3 0 .5.02.77.1q.18.02.4.09c2.26.94 3.15 3.67 2.28 5.91a4 4 0 0 1-1.32 1.77v.05a4 4 0 0 1-2.06.7q-.5 0-.94-.15z"/><path fill="#5081ae" d="M393.53 338.05c-1.4-1.77-.46-4.16 1.18-5.39q.35-.26.6-.36l.18-.07.21-.1.17-.07h.07l.27-.1c1.25-.46 2.49-.99 3.72-1.47l6.9-2.7c7.1-2.8 14.15-5.68 21.22-8.55 13.88-5.63 27.76-11.3 41.67-16.9 4.06-1.64 8.11-3.33 12.21-4.92a381 381 0 0 0 10.22-4.23 4.4 4.4 0 0 1 3.96.24c1.25.73 1.73 2.37 1.3 3.7a5.1 5.1 0 0 1-3.16 3.09q-.83.33-1.64.62-2.71 1.04-5.44 2.13c-3.06 1.2-6.08 2.48-9.12 3.71l-20.84 8.4c-13.83 5.58-27.66 11.11-41.47 16.71q-5.98 2.41-11.95 4.93c-1.67.7-3.33 1.35-4.97 2.07-.17.08-.39.2-.58.25q-.8.3-1.7.3h-.16a3.4 3.4 0 0 1-2.8-1.27zm52.35 8.54a11 11 0 0 1-3.04-.92 11.2 11.2 0 0 1-5.43-5.17l-.12-.19a12.3 12.3 0 0 1-1.38-6.18q.05-2.21.8-4.32l.15-.44a12 12 0 0 1 2.68-4.15l.14-.14a12 12 0 0 1 4.13-2.73c1.18-.5 2.48-.77 3.79-.82h.1c2.05-.12 4.46.4 6.22 1.5q.44.25.75.6s.05.02.07.05q.89.38 1.45 1.16l.6.67q1.21 1.37 1.99 3.07.83 1.86 1.06 3.84v.09a13.1 13.1 0 0 1-7.12 13.16 11 11 0 0 1-6.88.97zm2.63-8.26q.48-.07.95-.17a6 6 0 0 0 1.4-.6q.29-.19.55-.41.19-.17.34-.34l.29-.36q.16-.23.27-.44l.21-.5.15-.46.07-.41v-.39q.01-.22-.05-.43l-.12-.53-.17-.49-.29-.58-.29-.43-.26-.3a4 4 0 0 1-.77-.62l-.3-.14q-.36-.22-.72-.39l-.8-.29a5 5 0 0 0-.84-.14h-.85q-.46.06-.91.16-.4.12-.75.27-.33.16-.65.34l-.49.36q-.24.2-.46.46l-.26.34-.29.48-.17.39-.12.36-.07.46v.43l.02.46.12.53q.07.23.17.46l.24.48q.19.32.41.6.25.3.51.54.32.26.63.48l.72.41q.44.18.9.31l.84.15h.9z"/><path fill="#324558" d="M345.77 327.85q.15-.65.44-1.23c.12.38.21.8.3 1.18q.11.6.18 1.2v-.09q.04.66.05 1.3.01.15-.05.3l-.2.99a5 5 0 0 1-.74-3.65zm4.16-3.54c.82 2.73 1.6 6.26.87 8.8l-2.05-.3q.03-.29.1-.6l.21-1.23q.15-.76.1-1.5a15 15 0 0 0-.75-4.06q-.14-.38-.26-.77a3.3 3.3 0 0 1 1.8-.34z"/><path fill="#5081ae" d="M347.09 336.37c-4.4-.31-2.97-5.46-3.84-8.38-1.38-3.04-2.37-7.17 1.62-8.69 2.22-.58 4.03.92 4.42 3.02 1.44 4.15 4.15 12.99-2.2 14.07zm-128.1 59.08c-5.53-1.04-21.7 1.18-18.95-8.18.67-2.13 3.45-3.29 5.26-1.79 7.77 1.5 15.71 1.62 23.61 1.64 4.8.12 4.8 8.45 0 8.57-3.3.1-6.62-.07-9.92-.22zm53.28-216.48c-4.59-1.18-2.66-6.93-3.1-10.4-.11-11.08 0-22.14-.47-33.2-.6-3.23 1.13-8.3 5.21-6.42 3.5 2.15 1.54 7.03 2.1 10.43.2 10.07.1 20.16.39 30.23.07 3.38.91 9.72-4.13 9.36"/><path fill="#5081ae" d="M268.82 180.45c-.38-1.93.56-4.73 2.75-5.22 7-1.54 13.98-3.28 20.96-5q10.76-2.66 21.56-5.26l8.3-2.03c1.47-.38 3.02-.7 4.5-1.2.57-.22 1.2-.3 1.85-.15 1.71.39 2.75 2.13 2.87 3.8a4.6 4.6 0 0 1-1.86 4.15c-.6.4-1.4.6-2.17.55h.55c-6.75 1.4-13.44 3.21-20.13 4.85q-10.58 2.6-21.2 5.17c-4.5 1.11-9.05 2.22-13.54 3.45q-.43.11-.87.12c-1.76 0-3.16-1.5-3.52-3.26z"/><path fill="#b44a23" d="M284.98 293.86c-33.59-.92-28.88-41.04-1.8-36.6 4.2-.58 8.7 0 12.54-2.32 5.55-3.01 10.23-7.87 17.02-7.9 9.39-.96 18.61 8.46 18.2 17.78-1.55 20.4-28.27 29.76-45.96 29.04m2.12-8.38c12.75-.17 35-6.7 36.62-21.5-.07-2.52-1.9-4.84-3.86-6.14-4.06-4.06-10.7-2.41-14.73.85-5.28 4.07-11.2 6.9-17.93 6.8-2.47 2.13-5.63-.65-8.45-.26-7.27-.41-13.23 8.33-8.48 14.48 4.2 4.56 11.08 5.39 16.83 5.75z"/><path fill="#b44a23" d="M286.51 279.62c-2.63-.04-5.4-.04-7.87-.96-3.48-1.62-3.11-7.94 1.01-8.36 4.45 1.07 8.62 1.1 13.06.7 4.8-.84 9.54-2.53 13.52-5.4 1.74-1.98 4.47-3.87 6.62-1.26 6.35 9.59-19.73 16.61-26.34 15.28m-66.78 161.15c-20.45-1.67-8.98-18.86-19.3-22.07-1.8-.34-3.66.77-5.3-.41-1.4-.99-1.91-2.56-1.91-4.2 0-2.75 2.51-4.15 5-3.94 5.57-.62 10.74 3.4 13.01 8.29 1.5 3.52 1.06 7.58 2.39 11.17 2.8 3.65 8.67 2.8 12.65 1.89-1.14-5.49-6.93-13.93.22-17.41 9-4.78 18.8-10.11 29.18-10.11 3.04.65 3.87 4.63 4.42 7.21.36 3.94 4 10.63-1.2 12.63-5.68.38-4.52-7.56-5.94-11.23-7.95 1.23-15.31 4.71-22.24 8.62 4.73 12.41 4.66 19.94-10.96 19.53z"/><path fill="#b44a23" d="M302.56 479.61a4.3 4.3 0 0 1-1.81-4.03q.01-.37.1-.67v-.1q.1-.4.24-.77l.07-.27.02-.1v-.07q.5-1.96.8-4a36 36 0 0 0-.02-8.94 45 45 0 0 0-.95-5.02c-.4-1.52-.89-3.02-1.37-4.34l-.1-.22V451c-.72-1.72-1.5-3.4-2.22-4.74q-.1-.19-.2-.33a45 45 0 0 0-2.7-4.28 49 49 0 0 0-3.81-4.51 44 44 0 0 0-4.08-3.6 39 39 0 0 0-4.56-2.94 34 34 0 0 0-4.8-2.1 35 35 0 0 0-4.93-1.23 30 30 0 0 0-4.44-.32c-1.43.05-2.8.2-4.2.44q-1.96.39-3.84 1.08-1.72.69-3.33 1.55-1.3.75-2.52 1.64-1.33 1.06-2.55 2.27-1.08 1.15-2.06 2.41-.98 1.34-1.78 2.75c-.24.49-.51 1-.87 1.38-1.14 1.23-2.85 1.74-4.35.77a4.5 4.5 0 0 1-1.76-4.66 13 13 0 0 1 1.96-3.81 32.3 32.3 0 0 1 12.77-11.4c6.59-3.23 14.29-3.62 21.34-1.85 7.2 1.8 13.59 5.94 18.63 10.98q.2.18.34.36a50 50 0 0 1 13.47 27.74c.3 2.1.41 4.2.44 6.33a50 50 0 0 1-1.48 11.51 5 5 0 0 1-.72 1.93 3.7 3.7 0 0 1-3.02 1.74q-.87.01-1.69-.48z"/><path fill="#b44a23" d="M267.95 423.24c-3.77-3.47.8-17.45 4.73-24.14q.62 0 1.23-.05.35-.02.75-.07l1.81-.17q2.1-.17 4.13-.6c1.04 3.2-2.47 5.53-3.29 8.57-1.37 3.84-3.18 7.75-3.5 11.83.95 2.63-1.2 5.55-3.62 5.55q-1.14.02-2.24-.94z"/><path fill="#b44a23" d="M290.64 409.4c-2.87-5.84-5.14-11.7-10.45-7.38-1.55.77-3.4-.1-4.28-1.45a7 7 0 0 1-.53-1.64l1.09-.1a34 34 0 0 0 10.89-2.78c.87-.36 1.71-.8 2.56-1.2l.45-.22.05.05c4.32 3.96 5.34 10.26 8.98 14.68 3 1.1 6.71-.42 9.59-1.53-1.21-4.75-2.35-10.38.8-14.65 5.64-6.23 14.77-9.78 23.07-10.26 4.13.34 4.83 6.86 1.16 8.4-4.95.24-9.7 1.84-14.14 4.2-1.89 1.26-5.07 2.34-4.88 5.02.17 3.94 2.8 8.09.82 11.93-3.45 4.68-10.33 5.7-15.81 5.82h-.12c-4.52 0-7.05-4.44-9.23-8.89zm38.65 11.57q-.07-.3-.1-.59v-.11q-.06-.3-.05-.63 0-.51.12-1.02l.15-1.52q.25-1.87.7-3.72a28 28 0 0 1 4.51-9.73 22 22 0 0 1 7.27-6.42 18 18 0 0 1 10.19-2.02q.8.06 1.6.26a3.8 3.8 0 0 1 2.86 2.46c.6 1.81.37 3.58-.89 5.02v.03a3.2 3.2 0 0 1-2.92.99q-.87-.21-1.74-.32-.96-.06-1.9 0-.9.1-1.77.32-.86.25-1.69.6-.85.41-1.64.9-.84.56-1.6 1.2a16 16 0 0 0-2.91 3.45q-.65 1.04-1.19 2.13-.47 1.08-.87 2.2-.37 1.23-.62 2.46-.22 1.22-.32 2.44v.43c0 1.7-.99 3.48-2.6 4.03q-.52.18-1.04.17c-1.67 0-3.12-1.4-3.5-3.06zm24.49 30.27c-2.03-15.89 3.1-34.04 16.54-43.72 2.77-1.84 6.9-4.76 8.98-.48 1.5 3.1-.73 6.1-3.8 6.95-11.68 7.1-16.14 22.6-14.57 35.56.94 5.38-5.92 7.34-7.15 1.66z"/><path fill="#b44a23" d="M338.07 456.6a198 198 0 0 1-31.99-3.23c-3.86-.82-3.4-5.87 0-7.07 2.75-1.07 6.3.48 8.88.67 8.19 1.3 16.47 1.84 24.65 2.08 11.8.05 24.65-.37 34.89-6.88 4.46-2.06 7.94-10.24 13.5-7 4.07 4.37-3.73 7.75-6.19 10.62-12.1 9.9-28.7 11-43.72 10.81zm-51.8-29.45c-1.47-5.33-3.84-13.13-10.52-13.16-3.36.34-5.9-4.39-3.77-7.05 1.64-2.07 4.61-1.42 6.76-.72 8.5 2.78 13.52 11.85 14.56 20.28-.27 4.18-5.65 4.25-7.03.68zm-29.82 51.93c-20.3-1.28-59.59-4.71-72.14-22.05-1.93-3.11-4.97-7.4-2.34-10.9a4.3 4.3 0 0 1 4.06-1.67c1.61.31 2.48 1.74 2.58 3.26 1.93 5.55 6.73 9.29 11.85 11.75 19.46 8.43 41.86 11.45 62.77 11.54 8.4-.14 16.73-1.37 24.98-2.77 5.36-.8 10.6-3.36 12.41-8.82.68-1.76 2.76-3.11 4.64-2.72 2.12.43 3.06 2.87 2.39 4.8-3.8 11.08-14.51 14.68-25.23 15.57a134 134 0 0 1-25.95 2.03z"/><path fill="#b44a23" d="M268.96 473.86c-3.91-2.18-1.3-7.6-1.57-11.2.63-13.7 8.45-27.07 20.2-34.1 2.86-1.35 5.66 1.84 4.52 4.62a5 5 0 0 1-2.73 3.09 28 28 0 0 0-5.38 4.56c-4.8 5.22-8.23 11.64-8.88 18.76-1.02 4.59 1.5 15.62-6.14 14.27zm-67.74-12.84c.51-8.84-1.78-18.1-9.53-23.25-1.98-1.71-5.48-1.95-6.2-4.8-.88-3.29 3.08-7.17 6.17-5.05 12.92 6.18 17.84 18.52 17.2 32.28-.18 4.85-7.44 6.59-7.61.82z"/><path fill="#5081ae" d="M244.86 399.38c-22.67-4.17-36.8-18.63-48.96-37.22-9.47-15.24-16.15-43.43 4.03-52.9 8.69-3.04 18.78.25 22.45 9.03 3.53 9.1 3.89 19.22 8.62 27.96 8.09 18.76 31.77 24.21 49.83 18.25a21 21 0 0 0 10.2-7.2 3.33 3.33 0 0 1 5.15.1c3.8 5.87-5.7 11.35-10 13.79-15.18 6.61-34 5.12-47.94-3.89-10.6-7.44-16-20.13-19.12-32.18-1.74-5.67-1.28-12.84-6.56-16.66-4.93-3.57-13.06-1.71-16.03 3.53-9.56 19.77 10.6 45.48 24.86 58.06 13.23 10.19 30.54 13.2 46.79 14.43 21.8.17 43.38-12.57 53.8-31.55 3.22-5.21 8.84.12 6.16 4.7-17.43 29.27-50.81 41.9-83.3 31.78z"/><path fill="#4f80ad" d="M289.27 214.48c-1.35-1.42-1.23-3.47-1.04-5.28 2.6-20.86-18.47-27.4-35.44-27.43-4.92 1.11-7.12-6.08-3.09-8.2l.27.1 1.83.5c.12.4.46.75.9.82q1.05.2 2.14.38c.15.37.48.66.9.73l1.97.29h.08q1.07.25 2.15.34 1.04.16 2.07.19l1.86.17 1.01.05c.4 0 .75.05 1.12.05h1.27c.3 0 .6 0 .87-.15l.12-.07h.1l.1.02q.34.08.67 0h.94s.08.03.13.03q.08 0 .12.04c.45.13.94.13 1.42.1q.77-.07 1.55-.29l.62-.17c10.05 3.62 18.4 10.43 20.98 21.92 1.02 3.91.82 7.97.6 11.98-.1 1.37-.26 2.82-1.15 3.88l-2.9.73-.8.22a4 4 0 0 1-1.3-.95zm-57.23 4.4c.32 3.8-.72 8.21-1.66 11.71-.24 2.73-2.68 5.92-5.56 4.08-2.5-1.66-2.07-4.92-1.25-7.4 7.15-28.06-19.6-19.78-36.67-23.93-1.98-.53-4.06-1.33-5.46-2.9-1.86-2.08-1.42-6.57 1.7-7.27 1.85-.5 2.82 1 4.31 1.57 18.98 4.37 42.73-3.35 44.6 24.12z"/><path fill="#4f80ad" d="M286.52 364.37c-2.78-.36-3.6-3.43-3.26-5.82.2-3.67-.17-7.2-.38-10.81-.56-20.93-10.22-44.16-31.44-51.11-31.24-10.3-43.23-18.42-43.52-53.13-.37-6.88-.8-13.76-1-20.67 0-1.45.3-3.11 1.55-4.03 3-2.49 6.64 1.3 5.75 4.56.07 5.17.38 10.33.67 15.5 1.14 12.67-.5 28.44 10.94 36.94 15.76 12.1 39.37 11.8 50.82 29.76 7.38 10.33 11.7 22.6 12.98 35.22.49 5.6.9 11.23.95 16.86.17 2.77-.4 7.04-4.04 6.75z"/><path fill="#4f80ad" d="M207.83 226.26s-.07 0-.12-.02c-2.95-.63-5.91-1.06-8.88-1.55l-11.88-2q-12.36-2.08-24.74-4.06a761 761 0 0 0-10.29-1.59c-2.22-.34-3.45-2.68-3.26-4.76.17-1.95 1.81-4.17 4-3.76 15.82 2.9 31.7 5.48 47.6 8.06l5.8.94c.93.15 1.87.32 2.81.41q.72 0 1.4.34c1.62.8 2.39 2.7 2.24 4.44-.14 1.67-1.2 3.36-2.92 3.75q-.32.06-.65.07a4 4 0 0 1-1.13-.2z"/><path fill="#4f80ad" d="M207.76 223.45c-.75-2.22.31-5.24 2.83-5.7 3.1-1.04 6.13-2.32 9.22-3.36 3.4-.94 8.71-4.32 10.35.73.73 2.3-.29 4.9-2.65 5.65-3.67 1.16-6.4 2.02-9.83 3.3-3.3 1.19-8.28 4.42-9.94-.62zm79.41-29.73a4.1 4.1 0 0 1 2.4-2.92c7.3-2.3 14.62-4.51 21.91-6.83l23.03-7.34 9.44-3 4.25-1.34c.85-.27 1.71-.51 2.56-.82a3 3 0 0 1 1.57-.44c.22 0 .4.03.63.07q-.07 0-.12-.02l-.51-.03a3.5 3.5 0 0 1 1.57.37 4.6 4.6 0 0 1 .94 7.1 3.3 3.3 0 0 1-2.08 1.08h-.1c-3.06.9-6.08 1.9-9.12 2.87q-5.63 1.8-11.27 3.58-11.7 3.68-23.4 7.4c-5.7 1.82-11.34 3.75-17.04 5.54q-.58.18-1.11.17c-2.56 0-4.13-2.95-3.55-5.44m-8.87 123.15c-.63-1.9 0-4.7 2.07-5.5 3.23-1.21 6.52-2.32 9.75-3.48l11.8-4.22c7.95-2.85 15.84-5.78 23.76-8.65l48.57-17.74c15.89-5.82 31.8-11.64 47.61-17.65 1.23-.46 2.51-.9 3.72-1.45q.33-.25.72-.43a3.2 3.2 0 0 1 2.59.02h.04a3.6 3.6 0 0 1 1.84 1.81l-.24-.36-.03-.02.3.4c.4.83.57 1.8.5 2.66-.05 1.62-1.23 3.31-2.82 3.7l-.66.1-.67.23c-7.9 2.68-15.7 5.58-23.54 8.43q-12.09 4.42-24.21 8.88-24.04 8.9-48.07 17.77a5144 5144 0 0 0-46.62 17.4l-1.69.66a3 3 0 0 1-1.23.24c-1.59 0-2.97-1.18-3.5-2.78z"/><path fill="#5081ae" d="m270.77 136.17-.32-.14c-.77-.34-1.6-.63-2.36-.94l-4.3-1.72-7.22-2.84c-1.93-.75-3.84-1.55-5.8-2.23-2.02-.58-2.96-2.99-2.62-4.92.33-2.13 2.5-4.32 4.78-3.3 4.3 1.9 8.71 3.52 13.08 5.23q2.2.86 4.4 1.69c.8.31 1.56.65 2.36.92 1.06.17 1.96 1.1 2.39 2a5 5 0 0 1 .29 3.6c-.48 1.64-1.93 2.92-3.52 2.92q-.59 0-1.19-.24z"/><path fill="#5081ae" d="M269.23 133.34c-.29-2 .63-3.98 2.46-4.75v-.03c1.52-.48 3.07-.87 4.1-1.16a4606 4606 0 0 0 53.72-15.88c1.52-.46 3.1-.87 4.56-1.45a3 3 0 0 1 1.11-.46c1.96-.38 3.63 1.14 4.1 2.92.52 1.86-.09 4.18-1.85 5.2q-.72.4-1.52.4a20 20 0 0 0-2.37.63l-.34.1c-15.69 4.54-31.3 9.37-46.95 14.1l-6.37 1.93c-1.96.6-3.89 1.25-5.87 1.81h-.05l-.5.14q-.37.11-.73.1c-1.81 0-3.26-1.95-3.5-3.62z"/><path fill="#1b61a1" d="M287.46 156.45v-.05q.01.06-.04.12v-.07z"/><path fill="#1b61a1" d="M287.46 156.45v-.05q.01.06-.04.12v-.07z"/><path fill="#1b61a1" d="M287.46 156.45v-.05q.01.06-.04.12v-.07zm112.79 217.04c.6 3.14-2.83 6.86-5.82 4.54-2.13-1.89-1.43-5.12-1.76-7.65a861 861 0 0 1-1.24-30.54q-.1.01-.21-.05l-3.55-.63q-5.76-.97-11.52-1.9c-7.63-1.26-15.28-2.57-22.93-3.75l-2.4-.36c.76-2.56-.02-6.08-.86-8.79q.14-.01.27.05a878 878 0 0 0 20.83 3.57c7.17 1.16 14.31 2.49 21.5 3.5q.94.16 1.87.27c.21 0 .43.05.55.05q.07 0 .1.02.31.09.58.22l.2.1q.42.22.79.55a4.04 4.04 0 0 1 2.12 4.61c-.33 10.4.41 20.86 1.09 31.26.12 2.03.17 3.46.39 4.98z"/><path fill="#000" d="M147.3 360.86q-.2-.17-.37-.39a5 5 0 0 1-1.03-2.56v-.09c-.05-.44 0-.9.07-1.35.04-.83 0-1.65 0-1.84.1-17.12 0-34.25-.05-51.37l-.15-51.61c-.04-12.39-.17-24.77-.21-37.16 0-2.05 1.1-4.37 3.43-4.49 2.14-.12 3.88 2.05 3.88 4.1v.8c-.1 16.4-.05 32.76-.05 49.15 0 17.38.08 34.8.1 52.17q0 11 .05 21.97c0 3.57.05 7.12.05 10.7q-.01 2.56.04 5.11-.01 1.38.05 2.76.11.6.07 1.2a5 5 0 0 1-1.06 2.68q-.35.4-.82.7c-.4.24-.53.3-.48.24q-.46.21-1.04.25h-.2c-.84 0-1.63-.37-2.26-.92z"/><path fill="#000" d="M196.66 370.29c-2.15-.34-4.3-.6-6.45-.9l-11.9-1.52q-12.06-1.52-24.12-2.97c-1.78-.21-3.6-.36-5.38-.62-2.22-.32-3.4-2.76-3.19-4.8s1.84-4.06 4.06-3.73h.05c1.01.1 2.05.3 3.04.41q3.07.42 6.16.82l11.85 1.53q11.98 1.53 23.95 2.97 1.27.15 2.53.26h.77c2 .3 3.22 2.32 3.26 4.23.05 1.9-1.06 3.98-3.04 4.39q-.3.06-.6.05-.52 0-1.04-.17z"/><path fill="#000" d="M198.37 413.41c-2.87-.4-3.7-3.72-3.12-6.18.39-6.25-1.25-13.69 2.63-19.05-.6-5.48 1.6-12.04-1.37-16.87-1.88-2.15-3.5-5.26-1.6-7.92 2.15-2.97 5.63-1.37 6.55 1.7 1.16 1.73 2.12 2.77 2.94 4.55 1.35 5.17.53 10.99.68 16.25 0 2.13.34 4.1-.2 5.82a5 5 0 0 1-1.76 2.44c-.58.91-.21 2.17-.38 3.2-1.3 4.62 2.48 15.9-4.37 16.06"/><path fill="#000" d="M180.16 473.23c-2.68-2.06-3.62-5.56-4.4-8.7a20.8 20.8 0 0 1 3.9-19.23c-.22-10.87 5.79-34.72 17.16-38.6 2.1-.75 4 .89 4.54 2.72.82 2.4-.63 5.48-3.24 5.72-1.93.97-3.11 2.92-4.27 4.66-4.97 9.22-7.12 18.8-7.22 29.04-2.2 3.34-5.29 6.47-4.4 10.84.44 2.63.8 5.5 2.74 7.49 2.29 3.13-1.1 8.6-4.8 6.06"/><path fill="#000" d="M251.63 492.4c-20.4-1.62-40.82-5.6-59.99-12.94-4.37-1.96-10-2.92-12.75-6.96-1.42-3.55 3.34-5.89 6.09-4 5.21 3.16 10.38 4.56 15.93 6.68a220 220 0 0 0 50.58 10c12.91.77 57.72 1.9 49.51-19.3v-.04q-.06-.6-.22-1.18c-.17-.7-.4-1.43-.55-2.15-.12-.7-.17-1.43-.37-2.1l-.07-.3q1.27.12 2.56.06 1.26-.07 2.51-.17h2.2l.07.12c3.33 4.32 4.08 10 2.68 15.2-4.54 14.88-27.76 17.34-45.38 17.34-4.86 0-9.3-.2-12.8-.34z"/><path fill="#000" d="M344.13 469.4c-11.6-.24-23.24-.39-34.83-1.52-2.9-.07-7.1-.87-6.9-4.56.19-2.27 2.53-3.31 4.56-3.07 15.33 1.93 30.66 2 46.03 1.74 10.96-.8 41.94-1.72 31.58-19.27-1.47-1.04-2.03-3.26-.94-4.78 7.14-6.44 12.6 8.02 11.2 13.71-2.58 18.3-36.5 17.24-50.7 17.77z"/><path fill="#000" d="M386.03 442.84c-4.15-.7-4.49-4.18-3.16-7.54 2.63-21.22-15.96-35.39-35.97-32.9-5.26-.05-6.45-7.2-.58-7.39 21.29-2.03 42.85 11.1 45 33.56.46 3.76.17 7.53-.73 11.2-.12 2.22-2.58 3.33-4.56 3.07"/><path fill="#000" d="M342 399.91c-1.14-3.33-.22-6.61-2.47-10.11-1.18-.6-2.77-.37-3.95-.17-12.37 3.81-8.53-8.57-9.61-16.1 0-3.72-2.73-10.2 2.65-11.01 2.42-.27 4.76 1.3 5.12 3.71.22 4.01.94 7.97.84 11.98v-.51c0 1.52.13 3.02.2 4.54 10.57-1.62 15.01 6.37 15.16 15.84.72 4.51-5.99 5.38-7.92 1.86z"/><path fill="#000" d="m395.74 380.07-3.17-.55-6.15-1.04q-5.48-.85-10.94-1.67c-7.96-1.18-15.9-2.48-23.87-3.69-4.23-.65-8.48-1.25-12.7-1.9-2.6-.4-5.24-.93-7.82-1.19q-.68-.1-1.3-.34l1.88-4.03-1.24-2.97.46-.02q.8-.04 1.6.19c2.53.46 5.1.8 7.63 1.2 4.94.78 9.87 1.6 14.8 2.37q11.3 1.73 22.59 3.53a687 687 0 0 0 15.93 2.44l2.97.4c1.11.15 2.34.22 3.38.66 1.52.65 2.83 2.1 2.68 3.86-.17 1.71-1.69 2.87-3.33 3.07l-.58.02c-.94 0-1.88-.22-2.8-.39z"/><path fill="#000" d="M394.8 378.31c-1.21-2.17.5-4.66 2.63-5.36l.38-.12c1.43-.46 2.8-1.13 3.6-1.47 14.92-6.28 29.74-12.75 44.61-19.15 15.12-6.51 30.23-12.98 45.27-19.67q1.37-.62 2.73-1.2c1.9-.85 4.51-.73 5.62 1.27.53.97.5 2.13 0 3.11a4.8 4.8 0 0 1-2.63 2.25c-3.72 1.54-7.44 3.11-11.03 4.61l-.5.22c-15.05 6.37-30.06 12.89-45.06 19.36-7.43 3.21-14.87 6.37-22.3 9.6l-10.58 4.64q-2.46 1.06-4.87 2.15l-1.6.7-.6.36a5 5 0 0 1-2.2.53c-1.37 0-2.75-.57-3.42-1.8z"/><path fill="#000" d="M497.27 336.6c-2.53-.25-3.93-2.98-3.64-4.67.07-1.25-.07-2.53-.12-3.79l-.2-5.72c-.26-6.98-.45-13.95-.7-20.9-.04-1.58-.21-3.2-.19-4.76q-.13-1.1.29-2.18a3.3 3.3 0 0 1 2.7-2.07c2.42-.17 4.04 2.3 3.96 4.54.08.82.08 1.66.1 2.48l.12 3c0 .36.05.72.05.82.43 7.9.68 15.79 1.06 23.08l.2 4.6q0 .42.04.83v.1q.05.37.05.74 0 .62-.17 1.19c-.4 1.5-1.69 2.73-3.28 2.73h-.31zM183.29 202.05a35 35 0 0 1-4.45-2.56 27 27 0 0 1-4.9-4.44 29 29 0 0 1-5.28-9.15c-3.2-8.74-1.96-18.61 1.54-27.04a57 57 0 0 1 3.98-7.58c.34-.5.66-1.16 1.14-1.54 1.33-1.09 3.04-1.3 4.4-.12 1.37 1.16 1.78 3.23 1.25 4.92-.24.78-.68 1.33-1.11 1.98a38 38 0 0 0-1.91 3.16 40 40 0 0 0-1.69 3.75 40 40 0 0 0-1.35 4.3 42 42 0 0 0-.7 3.86v.19q-.16 1.63-.17 3.28.03 1.56.24 3.12.22 1.44.58 2.84.34 1.2.8 2.37.56 1.31 1.25 2.58.61 1.01 1.33 1.98.82 1.05 1.76 2.03 1.09 1.05 2.25 1.96a28 28 0 0 0 3.01 1.88q.29.16.56.27c.84.21 1.62.84 2.08 1.54.8 1.2.94 2.75.53 4.1a4.1 4.1 0 0 1-2.59 2.76q-.44.14-.87.12a3.4 3.4 0 0 1-1.66-.46z"/><path fill="#000" d="M145.82 212.1c-.48-2.1.46-4.54 2.56-5.31l.27-.1c5.36-1.76 10.64-3.72 15.98-5.6l9.39-3.34c2.7-.96 5.48-1.88 8.14-2.96a4 4 0 0 1 1.01-.56h.05l.12-.02q.2-.08.48-.12h.41l2.37 1.1q-1.4-.5-2.8-1.03l-1.19 5.67 3.1 2.44q-.08.02-.15.07-.74.4-1.47.39-1.17.36-2.3.77-2.3.8-4.6 1.64l-9.86 3.6c-5.62 2.08-11.25 4.08-16.82 6.23-.05 0-.1.05-.15.05q-.04 0-.07.02-.51.19-1 .2c-1.68 0-3.1-1.58-3.47-3.17zm29.32-60.53c0-1.43.6-2.78 1.67-3.57v-.03c.5-.36.98-.53 1.5-.65 7-1.86 13.95-3.89 20.92-5.87q11.59-3.29 23.13-6.76c1.54-.48 3.23-.82 4.4-1.3l.45-.22q.08-.02.15-.07h.07q.54-.26 1.16-.27c2.24 0 3.67 2.25 3.67 4.3 0 1.98-1.28 4.15-3.38 4.3-.24.02-.48.1-.68.14q-.07.01-.17.05l-.24.07c-7.05 1.91-14.02 3.96-21.03 6a1100 1100 0 0 0-22.01 6.5l-4.01 1.24c-.6.2-1.23.44-1.88.44-2.25 0-3.67-2.25-3.67-4.3z"/><path fill="#000" d="M256.07 181.55c-1.4 0-2.8-.05-4.2-.07q-1.02.01-2.05-.05h-.29q-.69-.06-1.4-.1c-11.06-1.88-20.06-10.28-18.92-22.64.14-3.86.89-7.68 1.97-11.37.87-2.15 1.65-4.56-.04-6.54-.58.07-1.14.29-1.7.48-3.66 1.62-6.3-3.4-4.44-6.33.97-1.88 3.24-2.17 5.1-2.65 4.42-.9 7.46 3.28 8.62 7.02 1.42 3.77.53 7.78-.9 11.35-1.59 5.89-2.9 13.54 2.03 18.15 3.48 2.85 7.58 3.84 11.83 4.2q.2.01.39.05.65.27 1.3.58.57.4 1.18.68 1 .51 2 .87.72.39 1.5.72 1.65.69 3.4 1.09h.1-.07l.12.02h.05a5 5 0 0 1-1.2 4q-.25.28-.54.47h-3.9z"/><path fill="#000" d="M247.35 177.07a3 3 0 0 1-1.18-.39 4 4 0 0 1-1.76-2.08v-.02a5 5 0 0 1-.31-1.74v-.14q0-.3.02-.58v-.05c.07-1.35.07-2.73.1-4.08l.12-7.48.33-20.35q.15-7.74.15-15.48c0-2.05 1.42-4.3 3.67-4.27 2.24 0 3.62 2.27 3.62 4.32 0 3.21-.22 6.42-.27 9.63q-.1 5.43-.14 10.87l-.29 18.92c-.03 2.68-.2 5.39-.1 8.04l.03.41v.29q-.01.28-.05.56-.01.26-.1.5-.07.3-.17.56a4 4 0 0 1-1.83 2.22q-.76.4-1.5.39-.22 0-.4-.03z"/><path fill="#000" d="M248.71 124.56c-2-.34-3.26-2.49-2.97-4.45a4.1 4.1 0 0 1 2.58-3.42c.85-.34 1.77-.56 2.66-.78 2.12-.6 4.25-1.23 5.89-1.69 15.11-4.22 30.27-8.25 45.41-12.45.92-.27 1.84-.51 2.58-.73.6-.17 1.21-.34 1.33-.36 1.33-.39 2.66-.75 3.67-1.04l5-1.42c.84-.24 1.74-.46 2.56-.77q.47-.27 1.01-.39c1.96-.39 3.6 1.16 4.1 2.94.51 1.89-.12 4.18-1.88 5.17q-.7.4-1.42.41c-.92.15-1.81.44-2.68.65l-5.15 1.38c-3.57.99-7.16 1.93-10.74 2.92-7.67 2.1-15.33 4.22-22.86 6.33-.39.12-.8.21-.9.26-.26.07-.5.15-.64.17-.25.07-.46.12-.49.14l-1.95.56c-.46.12-.9.27-1.09.31l-.34.1q-7.23 2.04-14.48 4l-6.95 1.87c-.56.14-1.14.31-1.72.31q-.26.01-.48-.05z"/><path fill="#000" d="M335.09 112.88c-2.56-1.2-5.17-2.3-7.75-3.43l-4.95-2.14c-1.11-.49-2.22-1-3.36-1.45l-.38-.15c-2.1-.77-2.85-3.45-2.3-5.43.56-1.96 2.56-3.57 4.64-2.75l.38.17q4.28 1.97 8.62 3.83l4.74 2.08c.96.41 1.95.92 2.96 1.3.49.08.95.27 1.28.58 1.72 1.21 2.1 3.75 1.33 5.58-.65 1.5-2.1 2.46-3.43 2.37q-1.05-.02-1.8-.58z"/><path fill="#000" d="M336.36 162.41c-1.74-.26-2.9-1.9-3.14-3.57a5 5 0 0 1-.05-.65q-.01-.33.05-.65v-.2c.21-4.9.24-9.82.36-14.72.17-7.87.38-15.77.5-23.64.05-2.85 0-5.72.08-8.57.05-2.05 1.3-4.32 3.6-4.34 2.2-.05 3.74 2.2 3.71 4.25-.05 2.7-.17 5.43-.26 8.16q-.15 5.62-.22 11.25c-.12 7.36-.29 14.7-.43 22.06 0 1.3-.05 2.6-.05 3.91 0 .65-.05 1.35-.03 2 .08.75-.02 1.53-.29 2.23-.53 1.4-1.8 2.53-3.3 2.53q-.25.01-.51-.05z"/><path fill="#000" d="M319.02 169.6h.05q-4.13-.62-8.28-1.2l-3.88-.58-1.19-.17a10 10 0 0 1 3.48-1.19 254 254 0 0 0 17.8-5.72c4.07-.89 8.1-4.37 12.33-3.26 3.33 1.33 2.12 6.04-.9 6.84-5.3 1.78-10.9 3.86-16.39 5.7l-3.02-.44z"/><path fill="#000" d="M352.69 175.5c-9.88-1.79-19.25-3.94-29.12-5.29-6.08-.24-4.4-7.5.85-7.48 10.16 1.35 20.27 3.79 30.44 5.36 5.67 1.04 2.7 8.28-2.17 7.41"/><path fill="#000" d="m438.44 274.58-.3-.08-1.7-.43q.06 0 .16.05l-1.2-.37-.97-.38h.05-.03q-.65-.3-1.3-.56l-.07-.26c-5.9-18.01-27.55-24.94-43.7-30.83-23.15-8.84-32.54-20.86-34.2-45.7-.75-8.4-2.95-16.85-3.02-25.23 1.64-5.14 7.94-1.98 7.26 2.54 5.56 40.94.58 50.96 44.23 64.96 12.58 5.22 25.61 12.34 32.83 24.29 1.81 3.09 5.5 8.98 2.87 12.07q-.47-.02-.91-.07m55.93 23.48c-4.2-.36-8.7-1.2-12.82-1.57-2.3-.12-4.9-1.57-4.92-4.15.77-5.9 8.83-2.24 12.65-2.12 3.35.7 7.58-.32 9.92 2.75 2.27 3.16-1.67 6.52-4.83 5.12z"/><path fill="#000" d="M475.53 291.85c.87-10.74-11.75-17.91-21.14-19.1-3.7-.04-7.37.51-10.99 1.24-2.6 1.1-6.2.5-7.2-2.46-1.18-4.71 4.84-4.64 7.9-5.31 12.53-2.73 25.86 2.07 34.26 11.65 3.52 3.4 10.04 16.9 2 18.09-2.34.1-4.78-1.62-4.85-4.08z"/><defs><filter id="crests-product-led-sales-filter0_d_23_12065" width="400.75" height="440.98" x="128.56" y="80" color-interpolation-filters="sRGB" filterUnits="userSpaceOnUse"><feFlood flood-opacity="0" result="BackgroundImageFix"/><feColorMatrix in="SourceAlpha" result="hardAlpha" values="0 0 0 0 0 0 0 0 0 0 0 0 0 0 0 0 0 0 127 0"/><feOffset dx="11.31" dy="11.31"/><feComposite in2="hardAlpha" operator="out"/><feColorMatrix values="0 0 0 0 0 0 0 0 0 0 0 0 0 0 0 0 0 0 0.4 0"/><feBlend in2="BackgroundImageFix" result="effect1_dropShadow_23_12065"/><feBlend in="SourceGraphic" in2="effect1_dropShadow_23_12065" result="shape"/></filter></defs></svg>