<svg xmlns="http://www.w3.org/2000/svg" fill="none" viewBox="0 0 600 600"><g filter="url(#crests-signals-filter0_d_35_2048)"><mask id="crests-signals-path-1-outside-1_35_2048" width="350" height="458" x="149.02" y="68.34" fill="#000" maskUnits="userSpaceOnUse"><path fill="#fff" d="M149.02 68.34h350v458h-350z"/><path d="M310.78 86.35q4.12 0 8.2.43c5.29.52 10.5 1.58 15.59 3.05 11.02 3.23 21.34 8.64 30.6 15.35 4.23 3.07 8.2 6.43 12.02 9.98a141 141 0 0 1 21.95 26.7 169 169 0 0 1 15.6 31.3 181 181 0 0 1 11.4 67.4q-.2 8.62-1.25 17.15a162 162 0 0 1-3.1 17 157 157 0 0 1-5.59 18.15c1.5-.06 2.95-.18 4.45-.12 4.28-5.01 13.45-7.1 17.43-1.4q.26-.12.49-.25c3.12-2.1 4.8-5.7 7.94-7.73 6.73-3.82 13.75 3.34 12.33 10a40 40 0 0 1 5.35-.02c5.08-.28 11.04-.8 15.17 2.8 3.5 3.07 3.29 8.41.8 12.07-2.94 3.86-8.29 3.86-12.7 4.22q-.6 0-1.3.1c.8 4.36-.08 10.8-1.33 12.82-3.46 6.23-10.87 10.07-17.92 9.72v-.02a28 28 0 0 1-11.24-3.01c-4.77 4.2-13.3 3.66-16.04-2.18-3.77.78-7.85.7-11.63.7-3.77-.15-7.4-.28-11.04-1.02-10.7 14.96-26.1 27.7-43.06 34.13-.26 6.52-.42 13.16-.56 19.5 5.76 4.07 4.54 12.2 4.26 18.35l-.01.29c1.22-.02 2.48.09 3.6-.03 2.64.43 6.23-.1 7.94 2.38 1.8 2.62 3.73 5.52 2.97 8.83q0 .64-.09 1.27 1.48-.08 2.94-.05a24.3 24.3 0 0 1 18.29 9.05 29 29 0 0 1 2.93 4.4c3.05 5.73 4.2 12.22 3.96 18.67a46 46 0 0 1-.33 3.91c1.88.46 3.71 1.66 5.33 2.52 6.1 4.6 3.68 13.66-.3 18.92-7.7 9.24-21.23 11.94-32.68 11.6-2.28-.3-13-.55-20.77-1.93 1.6 4.01 2.08 8.34.57 12.47-1.74 4.78-6 8.29-10.46 10.48-4.5 2.2-9.41 3.4-14.37 4.06-3.4.48-6.82.68-10.24.68q-2.74 0-5.45-.16h-.02l-.42-.02h.08a124 124 0 0 1-31.74-6.25c-10.02-3.34-19.76-7.77-28.49-13.75a64 64 0 0 1-12.27-10.71c-.76-.89-1.45-1.82-2.12-2.64a2.1 2.1 0 0 1-.45-1.85c-3.85-5.65-5.36-12.9-4.57-19.65.8-7.62 7.12-17.36 15.78-15.7.27-.32.48-.72.7-1.1-.28-6.61-.31-13.23-.48-19.84.43-5.46-1.93-14.38 4.13-17.23.03-5.61.35-11.24.2-16.87-.08-.58-.17-1.27-.2-1.95l-.84-.41c-1.92 3.53-6.6 5.13-10.56 4.32l.02.02c-3.83-.7-6.1-4.13-6.94-7.63l-.69.03h-1.27l-2.56-.02h.02a66 66 0 0 1-19.7-3.34h-.01c-.11-.04-.22-.06-.24-.09a51 51 0 0 1-7.5-3.34l-.42-.19c-8.27-4.52-13.62-10.84-16.6-18.06l-.35-.79c-4.35-10.06-4.29-21.47-2.1-32.05a88 88 0 0 1 2.58-9.57 6 6 0 0 0-.3-.65l-.08-.2a257 257 0 0 1-6.45-16.1q-2.97-8.44-5.24-17.1a193 193 0 0 1-5.78-34.59c-.9-12.08-.67-24.22.78-36.23a159 159 0 0 1 8.16-34.66 140 140 0 0 1 15.5-31c.43-.64.89-1.27 1.1-1.6a124 124 0 0 1 23.9-25.95q4.8-3.87 9.96-7.3 2.75-1.78 5.6-3.43a2.3 2.3 0 0 1 1.72-.32 3.8 3.8 0 0 1 2.62-1.03h-.41l-.3.05a566 566 0 0 0 10.56-1.89q8.24-1.52 16.47-3.1c11.4-2.16 22.79-4.26 34.2-6.4 3-.56 6.04-1.12 9.02-1.77a3 3 0 0 1 .56-.07q.49-.38 1.15-.47h.29c1.1-.09 2.25-.04 3.35-.04m33.96 409q-2.11 2.23-4.67 3.94.45-.26.77-.47a17 17 0 0 0 3.3-2.73zM268 492.52q3.27 1.54 6.58 2.86a64 64 0 0 1-3.1-1.6q-2.1-.76-4.2-1.6zm28.32-73.89.23-.15v-.1q-.11-.15-.19-.33zm11.04-45.55a31 31 0 0 1-8.4 2.5c.16 8.3-.64 16.57-.66 24.86 3.25 3.14 3.12 7.92 2.96 12.12h.29q.64 0 1.2.17c.97-1.2 1.85-2.6 2.98-3.68.08-2.98.88-6.14-.97-8.72-1.56-4.03-.67-9.63 2.7-12.45-.16-4.9.05-9.95-.1-14.8m-11.62 33.2q.34 1.25.52 2.53a9 9 0 0 0-.52-2.54m13.31-9.62q.03.33.13.66.11.26.24.5l-.1-1z"/></mask><path fill="#fff" d="M310.78 86.35q4.12 0 8.2.43c5.29.52 10.5 1.58 15.59 3.05 11.02 3.23 21.34 8.64 30.6 15.35 4.23 3.07 8.2 6.43 12.02 9.98a141 141 0 0 1 21.95 26.7 169 169 0 0 1 15.6 31.3 181 181 0 0 1 11.4 67.4q-.2 8.62-1.25 17.15a162 162 0 0 1-3.1 17 157 157 0 0 1-5.59 18.15c1.5-.06 2.95-.18 4.45-.12 4.28-5.01 13.45-7.1 17.43-1.4q.26-.12.49-.25c3.12-2.1 4.8-5.7 7.94-7.73 6.73-3.82 13.75 3.34 12.33 10a40 40 0 0 1 5.35-.02c5.08-.28 11.04-.8 15.17 2.8 3.5 3.07 3.29 8.41.8 12.07-2.94 3.86-8.29 3.86-12.7 4.22q-.6 0-1.3.1c.8 4.36-.08 10.8-1.33 12.82-3.46 6.23-10.87 10.07-17.92 9.72v-.02a28 28 0 0 1-11.24-3.01c-4.77 4.2-13.3 3.66-16.04-2.18-3.77.78-7.85.7-11.63.7-3.77-.15-7.4-.28-11.04-1.02-10.7 14.96-26.1 27.7-43.06 34.13-.26 6.52-.42 13.16-.56 19.5 5.76 4.07 4.54 12.2 4.26 18.35l-.01.29c1.22-.02 2.48.09 3.6-.03 2.64.43 6.23-.1 7.94 2.38 1.8 2.62 3.73 5.52 2.97 8.83q0 .64-.09 1.27 1.48-.08 2.94-.05a24.3 24.3 0 0 1 18.29 9.05 29 29 0 0 1 2.93 4.4c3.05 5.73 4.2 12.22 3.96 18.67a46 46 0 0 1-.33 3.91c1.88.46 3.71 1.66 5.33 2.52 6.1 4.6 3.68 13.66-.3 18.92-7.7 9.24-21.23 11.94-32.68 11.6-2.28-.3-13-.55-20.77-1.93 1.6 4.01 2.08 8.34.57 12.47-1.74 4.78-6 8.29-10.46 10.48-4.5 2.2-9.41 3.4-14.37 4.06-3.4.48-6.82.68-10.24.68q-2.74 0-5.45-.16h-.02l-.42-.02h.08a124 124 0 0 1-31.74-6.25c-10.02-3.34-19.76-7.77-28.49-13.75a64 64 0 0 1-12.27-10.71c-.76-.89-1.45-1.82-2.12-2.64a2.1 2.1 0 0 1-.45-1.85c-3.85-5.65-5.36-12.9-4.57-19.65.8-7.62 7.12-17.36 15.78-15.7.27-.32.48-.72.7-1.1-.28-6.61-.31-13.23-.48-19.84.43-5.46-1.93-14.38 4.13-17.23.03-5.61.35-11.24.2-16.87-.08-.58-.17-1.27-.2-1.95l-.84-.41c-1.92 3.53-6.6 5.13-10.56 4.32l.02.02c-3.83-.7-6.1-4.13-6.94-7.63l-.69.03h-1.27l-2.56-.02h.02a66 66 0 0 1-19.7-3.34h-.01c-.11-.04-.22-.06-.24-.09a51 51 0 0 1-7.5-3.34l-.42-.19c-8.27-4.52-13.62-10.84-16.6-18.06l-.35-.79c-4.35-10.06-4.29-21.47-2.1-32.05a88 88 0 0 1 2.58-9.57 6 6 0 0 0-.3-.65l-.08-.2a257 257 0 0 1-6.45-16.1q-2.97-8.44-5.24-17.1a193 193 0 0 1-5.78-34.59c-.9-12.08-.67-24.22.78-36.23a159 159 0 0 1 8.16-34.66 140 140 0 0 1 15.5-31c.43-.64.89-1.27 1.1-1.6a124 124 0 0 1 23.9-25.95q4.8-3.87 9.96-7.3 2.75-1.78 5.6-3.43a2.3 2.3 0 0 1 1.72-.32 3.8 3.8 0 0 1 2.62-1.03h-.41l-.3.05a566 566 0 0 0 10.56-1.89q8.24-1.52 16.47-3.1c11.4-2.16 22.79-4.26 34.2-6.4 3-.56 6.04-1.12 9.02-1.77a3 3 0 0 1 .56-.07q.49-.38 1.15-.47h.29c1.1-.09 2.25-.04 3.35-.04m33.96 409q-2.11 2.23-4.67 3.94.45-.26.77-.47a17 17 0 0 0 3.3-2.73zM268 492.52q3.27 1.54 6.58 2.86a64 64 0 0 1-3.1-1.6q-2.1-.76-4.2-1.6zm28.32-73.89.23-.15v-.1q-.11-.15-.19-.33zm11.04-45.55a31 31 0 0 1-8.4 2.5c.16 8.3-.64 16.57-.66 24.86 3.25 3.14 3.12 7.92 2.96 12.12h.29q.64 0 1.2.17c.97-1.2 1.85-2.6 2.98-3.68.08-2.98.88-6.14-.97-8.72-1.56-4.03-.67-9.63 2.7-12.45-.16-4.9.05-9.95-.1-14.8m-11.62 33.2q.34 1.25.52 2.53a9 9 0 0 0-.52-2.54m13.31-9.62q.03.33.13.66.11.26.24.5l-.1-1z"/><path fill="#fff" d="M310.78 86.35v17zm8.2.43-1.74 16.91h.08zm15.59 3.05 4.78-16.31-.06-.02zm30.6 15.35 10.01-13.74-.03-.03zm12.02 9.98 11.66-12.37-.07-.07zm21.95 26.7 14.33-9.13zm15.6 31.3-15.9 6zm8.86 32.73 16.76-2.82v-.03zm2.55 34.68 17 .45zm-1.25 17.14 16.86 2.11.01-.06zm-3.1 17 16.54 3.92v-.03zm-5.6 18.15-15.94-5.89 16.7 22.88zm4.45-.12-.63 16.98 13.55-5.94zm17.43-1.4-13.94 9.74 21.67 5.4zm.49-.25 8.43 14.76 1.07-.66zm7.94-7.73-8.39-14.79-.86.53zm12.33 10-16.63-3.55 17.59 20.52zm5.35-.02-1.38 16.95 2.32.02zm15.17 2.8 11.2-12.79-.05-.05zm.8 12.07 13.5 10.32.55-.75zm-12.7 4.22-.28 17 1.69-.06zm-1.3.1-2.26-16.85-14.46 19.87zm-1.33 12.82-14.46-8.93-.4.68zm-17.92 9.72h-17l16.17 16.98zm0-.02h17l-16.25-16.99zm-11.24-3.01 7.57-15.22-18.8 2.46zm-16.04-2.18 15.4-7.21-18.85-9.44zm-11.63.7-.72 17h.72zm-11.04-1.02 3.4-16.66-17.22 6.77zm-43.06 34.13-6.02-15.9-10.97 15.22zm-.56 19.5-17-.37 7.19 14.25zm4.26 18.35-16.98-.77v.2zm-.01.29-16.99-.66 17.33 17.66zm3.6-.03 2.75-16.78-4.52-.13zm7.94 2.38 14.02-9.62zm2.97 8.83-16.57-3.79-.43 4.09zm-.09 1.27-16.82-2.43 17.83 19.4zm2.94-.05.56-17h-.23zm7.78 1.5-5.84 15.96.03.01zm10.51 7.55-13.21 10.69zm2.93 4.4 15-8-.06-.1zm3.96 18.67 16.99.63zm-.33 3.91-16.87-2.09 12.86 18.61zm5.33 2.52 10.25-13.57-2.26-1.44zm-.3 18.92 13.06 10.88.5-.62zm-32.68 11.6-2.18 16.86 1.66.13zm-20.77-1.93 2.96-16.74-18.75 23.03zm.57 12.47-15.97-5.84-.02.05zm-10.46 10.48-7.48-15.27zm-14.37 4.06-2.28-16.84-.08.01zm-10.24.68v17zm-5.45-.16.88-16.97-17.88 16.97zm0 0-.95 16.98 17.95-16.98zm-.02 0 .95-16.97h-.06zm-.42-.02v-17l-.94 33.98zm.08 0v17l1-33.97zm-31.74-6.25-5.37 16.13h.01zm-28.49-13.75-9.62 14.02h.02zm-12.27-10.71-12.93 11.04.06.07zm-2.12-2.64 13.17-10.75-.11-.13zm-.5-1.47-16.99-.71v.08zm.05-.38 16.63 3.49-2.58-13.05zm-4.57-19.65 16.88 1.97.03-.2zm15.78-15.7-3.22 16.7 16.2-5.71zm.7-1.1 14.7 8.52 2.28-9.23zm-.48-19.84-16.95-1.35-.04 1.78zm4.13-17.23 7.25 15.37 9.75-15.3zm.2-16.87 17-.45-.15-1.82zm-.2-1.95 17-.5-9.23-14.62zm-.65-.34 7.9-15.05-2.84-1.18zm-.19-.07 6.63-15.66-21.57 7.55zm-10.56 4.32 3.4-16.66-15.42 28.68zm.02.02-3.04 16.73 15.06-28.75zm-6.94-7.63 16.53-3.97-17.23-13.01zm-.69.03v17h.42zm-3.83-.02v-17l-.42 33.99zm.02 0v17l.39-34zm-19.7-3.34 5.47-16.1-5.46-.9zm-.01 0-6.32 15.78 6.32 1.22zm-.24-.09 11.97-12.06-6.3-3.96zm-7.5-3.34 8.2-14.9-1.24-.6zm-.42-.19-8.15 14.92.9.46zm-16.6-18.06 15.7-6.5-.24-.56zm-.35-.79 15.61-6.72v-.02zm-2.1-32.05-16.65-3.46v.02zm2.58-9.57 16.14 5.32-.26-11.37zm-.3-.65-15.51 6.94.66 1.31zm-.08-.2-15.58 6.8.06.14zm-6.45-16.1-16.03 5.67.02.05zm-5.24-17.1 16.45-4.31v-.03zm-5.78-34.59-16.95 1.28zm.78-36.23-16.87-2.05zm8.16-34.66-16-5.75zm15.5-31 14.1 9.52.05-.08zm1.1-1.6-13.95-9.7-.19.28zm23.9-25.95-10.65-13.25zm9.96-7.3-9.24-14.27-.13.1zm5.6-3.43 8.53 14.7.29-.17zm1.72-.32-3.47 16.64 15.5-4.64zm2.62-1.03v17-34zm-.41 0v-17l-1.7.09zm-.3.05-4.12-16.5 6.9 33.27zm10.56-1.89-3.1-16.71zm16.47-3.1 3.15 16.71h.02zm34.2-6.4L293.28 72h-.01zm9.02-1.77 3.61 16.6h.03zm.56-.07.46 17 10.08-3.66zm1.15-.47v-17l-1.9.1zm.29 0v17l1.32-.05zm37.31 408.96 13.4 10.46-25.79-22.1zm-4.67 3.94-9.44-14.15 17.8 28.95zm.77-.47-9.33-14.2-.1.05zm1.86-1.36 10.89 13.06.27-.23zm1.43-1.37 12.56 11.47.3-.36zM268 492.52l-7.3 15.36.05.02zm6.58 2.86-6.31 15.79 13.7-31.1zm-3.1-1.6 8.22-14.88-2.42-1.1zm-4.2-1.6 6.35-15.78-13.75 31.08zm29.04-73.55-16.96-1.23 26.6 15.24zm.23-.15 9.21 14.28 7.79-14.4zm0-.1h17l-2.75-9.27zm-.19-.33 15.32-7.37-32.28 6.2zm11-44.97 17-.53-23.95-14.99zm-8.4 2.5-2.28-16.84-14.73 17.18zm-.66 24.86-17-.04 5.18 12.26zm2.96 12.12-16.98-.61 16.99 17.61zm1.5.17-4.55 16.38 17.87-5.82zm2.97-3.68 11.77 12.27 5.22-11.82zm-.97-8.72-15.85 6.14 2.03 3.76zm2.7-12.45 10.9 13.06 6.1-13.65zm-11.72 18.4 15.96-5.87-32.38 10.25zm.52 2.53-16.82 2.44 33.77-3.7zm12.8-12.15 9.68-13.97-26.62 15.53zm.12.66-16.32 4.78.84 2.26zm.24.5-15.13 7.75 32.07-9.22zm-.1-1 16.89-1.98-8.97-13.06zm1.47-310.47v17q3.18 0 6.46.34L319 86.78l1.74-16.91a97 97 0 0 0-9.95-.52zm8.2.43-1.66 16.92q6.2.61 12.52 2.46l4.73-16.33 4.72-16.33c-5.96-1.73-12.2-3-18.64-3.64zm15.59 3.05-4.78 16.32c8.87 2.6 17.46 7.04 25.41 12.8l9.98-13.77 9.97-13.77c-10.58-7.66-22.64-14.04-35.8-17.9zm30.6 15.35-10 13.74q5.34 3.9 10.43 8.67l11.59-12.43 11.59-12.44a146 146 0 0 0-13.6-11.28zm12.02 9.98-11.67 12.36a124 124 0 0 1 19.28 23.49l14.34-9.14 14.33-9.15a158 158 0 0 0-24.62-29.93zm21.95 26.7L384.8 151a152 152 0 0 1 14.03 28.15l15.91-5.98 15.91-5.99a186 186 0 0 0-17.18-34.45zm15.6 31.3-15.9 6a162 162 0 0 1 8 29.6l16.76-2.87 16.75-2.85a195 195 0 0 0-9.7-35.86zm8.86 32.73-16.77 2.82a164 164 0 0 1 2.32 31.42l17 .44 17 .44c.33-12.82-.7-25.52-2.8-37.94zm2.55 34.68-17-.45a165 165 0 0 1-1.13 15.54l16.88 2.05 16.87 2.06q1.13-9.37 1.37-18.75zm-1.25 17.14-16.87-2.1q-.96 7.55-2.78 15.2l16.55 3.9 16.55 3.9a179 179 0 0 0 3.41-18.79zm-3.1 17-16.54-3.93a140 140 0 0 1-5 16.2l15.94 5.88 15.95 5.9a174 174 0 0 0 6.19-20.13zm-5.6 18.15.76 16.99c2.3-.1 2.5-.15 3.06-.13l.63-16.99.62-16.98c-2.41-.1-5.13.1-5.83.13zm4.45-.12 12.92 11.04c-.46.54-.83.76-.97.84s-.43.2-.93.26c-.48.07-1.6.12-3.09-.4a9.3 9.3 0 0 1-4.44-3.4l13.94-9.73 13.94-9.73c-6.68-9.57-17.2-11.44-24.75-10.45a31.4 31.4 0 0 0-19.54 10.52zm17.43-1.4 7.73 15.15 1.2-.64-8.44-14.76-8.44-14.76.26-.14.01-.01-.06.03zm.49-.25 9.5 14.1c3.83-2.58 6.5-5.9 7.41-6.97 1.44-1.7 1.12-1.14.28-.6l-9.25-14.26-9.25-14.26c-3.98 2.58-6.7 5.94-7.67 7.08-1.5 1.77-1.23 1.29-.52.8zm7.94-7.73 8.4 14.79a9.4 9.4 0 0 1-10.46-1 7.5 7.5 0 0 1-2.24-7.34l16.63 3.55 16.63 3.54c2.15-10.1-2.1-19.55-8.46-25.2-6.9-6.1-18.15-9.22-28.89-3.13zm12.33 10 .96 16.97c1.59-.1 2.43-.1 3.01-.04l1.38-16.95 1.37-16.94c-2.97-.24-5.7-.13-7.68-.02zm5.35-.02.94 16.98c1.47-.09 2.4-.15 3.4-.17.93-.02 1.47 0 1.78.04.63.06-.63.05-2.1-1.23l11.15-12.83 11.15-12.83c-5.6-4.87-11.9-6.42-16.56-6.92-4.34-.46-8.72-.12-10.7-.01zm15.17 2.8-11.2 12.78a9 9 0 0 1-3.14-6.4 6.3 6.3 0 0 1 1.09-3.87l14.05 9.56 14.05 9.57c5.66-8.3 8.33-23.94-3.64-34.43zm.8 12.07-13.5-10.32a9 9 0 0 1 2.63-2.3c.76-.42 1.26-.53 1.2-.51-.08.01-.4.08-1.22.16l-1.38.11-1.85.14 1.41 16.94 1.42 16.94c1.08-.09 5.5-.29 9.36-1.19 4.4-1.03 10.7-3.44 15.44-9.65zm-12.7 4.22.27-17c-1.66-.02-3.08.15-3.83.25l2.27 16.85 2.26 16.85-.24.02q-.28.04-1.01.03zm-1.3.1-16.73 3.02.01.09.02.57a14 14 0 0 1-.25 2.68l.15-.46q.09-.25.31-.73.2-.47.7-1.28l14.46 8.93 14.47 8.94a25 25 0 0 0 2.84-6.96c.48-1.84.8-3.76 1.01-5.58.4-3.44.53-7.91-.25-12.24zm-1.33 12.82-14.86-8.25c.04-.07-.14.25-.77.59-.64.34-1.22.41-1.46.4l-.83 16.98-.83 16.98c13.09.64 26.8-6.18 33.61-18.44zm-17.92 9.72h17v-.02h-34v.02zm0-.02.75-16.99a11 11 0 0 1-4.42-1.24l-7.56 15.22-7.57 15.22a45 45 0 0 0 18.05 4.77zm-11.24-3.01-11.23-12.76a5.5 5.5 0 0 1 4.32-1.46 8.3 8.3 0 0 1 6.27 4.83l-15.4 7.2-15.4 7.22c4.43 9.45 13.23 13.7 20.78 14.54 7.39.82 15.6-1.26 21.9-6.8zm-16.04-2.18-3.45-16.65c-1.68.35-3.73.36-8.19.36v34c3.12 0 9.22.15 15.1-1.06zm-11.63.7.71-16.98c-4.12-.17-6.3-.28-8.35-.7l-3.4 16.66-3.4 16.66c5.23 1.06 10.31 1.2 13.72 1.35zm-11.04-1.02-13.82-9.9c-9.05 12.64-21.86 23.06-35.26 28.13l6.01 15.9 6.02 15.9c20.54-7.77 38.5-22.85 50.87-40.13zm-43.06 34.13-17-.68c-.26 6.69-.42 13.46-.56 19.8l17 .38 17 .37c.13-6.33.29-12.84.54-19.2zm-.56 19.5-9.81 13.88a7.4 7.4 0 0 1-2.36-2.76c-.38-.8-.37-1.19-.32-.78.04.42.08 1.17.03 2.5l-.11 2.12-.15 2.62 16.98.77 16.98.78c.08-1.62.63-7.57.04-12.68-.67-5.82-3.08-14.4-11.47-20.33zm4.26 18.35-16.99-.56v-.12q0-.02 0 0v.31l16.98.66 16.99.65v.07-.18l.01-.26zm-.01.29.34 17h.67l.54.02c.7 0 2.17.03 3.81-.14l-1.76-16.91-1.77-16.9.53-.05h-.62l-.54-.02h-1.54zm3.6-.03-2.75 16.78c1.62.26 3.2.35 3.73.39l.66.04c-.22-.04-1.35-.23-2.83-.95a13 13 0 0 1-4.88-4.25l14.01-9.63 14.01-9.63c-4.76-6.94-11.75-8.6-14.95-9.12-1.62-.26-3.15-.35-3.76-.39-.93-.06-.8-.07-.5-.02zm7.94 2.38-14.02 9.62c.46.66.68.99.83 1.24.14.24.07.15-.06-.16a8 8 0 0 1-.53-2.06c-.14-1.07-.12-2.31.18-3.6l16.57 3.8 16.57 3.78c2.68-11.72-4.6-20.89-5.52-22.24zm2.97 8.83-17 .3q0-.87.09-1.46l16.82 2.44 16.83 2.43q.28-1.89.26-4zm-.09 1.27 1.01 16.98q.74-.05 1.62-.03l.31-17 .33-17q-2.07-.04-4.27.09zm2.94-.05-.55 16.99q1.36.05 2.5.47l5.83-15.97 5.83-15.96a42 42 0 0 0-13.05-2.52zm7.78 1.5-5.8 15.97a7.3 7.3 0 0 1 3.1 2.27l13.22-10.7 13.21-10.68a41.3 41.3 0 0 0-17.93-12.84zm10.51 7.55-13.2 10.7q.6.75 1.18 1.79l14.95-8.1 14.94-8.1a46 46 0 0 0-4.65-6.99zm2.93 4.4-15.01 7.98c1.37 2.58 2.13 5.97 1.98 10.06l16.99.63 16.99.63c.32-8.81-1.21-18.4-5.94-27.3zm3.96 18.67-16.99-.63q-.05 1.04-.21 2.45l16.87 2.09 16.87 2.09c.2-1.61.38-3.43.45-5.37zm-.33 3.91-4.01 16.52a8 8 0 0 1-1.06-.33q-.22-.1.01.01l.82.45c.34.2.97.55 1.59.88l7.98-15.01 7.99-15.01-.92-.51-1.81-.99c-1.37-.7-3.7-1.83-6.58-2.53zm5.33 2.52-10.24 13.56a8 8 0 0 1-2.66-3.64 6 6 0 0 1-.39-2.36c.02-.2.04-.08-.11.29-.15.35-.34.65-.45.8l13.55 10.26 13.55 10.27a37 37 0 0 0 7.3-18.32c.74-7.53-1.22-17.56-10.3-24.43zm-.3 18.92-13.06-10.9c-2.63 3.17-9.41 5.8-19.11 5.5l-.51 17-.52 16.99c13.2.4 33.48-2.38 46.26-17.7zm-32.68 11.6 2.17-16.86c-1.29-.17-3.1-.28-4.27-.35q-2.25-.12-5.05-.31c-3.83-.27-7.7-.63-10.66-1.15l-2.96 16.74-2.96 16.74c4.81.85 10.18 1.3 14.22 1.59 2.07.14 3.98.25 5.37.33 1.73.1 2.11.15 1.96.13zm-20.77-1.93-15.8 6.3c.25.6.28.92.28.95l.01-.2q.03-.19.11-.42l15.97 5.84 15.96 5.84c3.32-9.07 1.95-17.85-.74-24.6zm.57 12.47-15.99-5.79c.21-.58.42-.65.07-.32-.36.34-1.03.84-2.02 1.32l7.48 15.27 7.49 15.26c6.48-3.18 15.12-9.37 18.95-19.95zM341.5 504.3l-7.48-15.27c-2.32 1.14-5.3 1.97-9.17 2.49l2.28 16.85 2.28 16.84c6.05-.82 12.9-2.37 19.58-5.65zm-14.37 4.06-2.36-16.83q-3.72.51-7.88.5v34c4.06 0 8.28-.22 12.6-.83zm-10.24.68v-17q-2.2 0-4.57-.13l-.88 16.97-.89 16.98q3.06.16 6.34.18zm-5.45-.16h-17zh17zm0 0 .94-16.97.4.03h.12-.12l-.17-.01-.24-.02-.95 16.97-.94 16.98-.4-.03h-.12v-.01h.07l.06.01.16.01.24.02zm-.02 0 .89-16.97-.36-.02-.95 16.97-.94 16.98.37.02h.11zm-.42-.02v17h.08v-34H311zm.08 0 1-16.97a107 107 0 0 1-27.39-5.42l-5.35 16.14-5.36 16.13a141 141 0 0 0 36.1 7.1zm-31.74-6.25 5.36-16.13c-8.9-2.97-17.13-6.77-24.24-11.64l-9.6 14.02-9.61 14.03c10.33 7.07 21.58 12.14 32.72 15.85zm-28.49-13.75 9.62-14.01a47 47 0 0 1-9.03-7.81l-12.86 11.1-12.87 11.12a81 81 0 0 0 15.53 13.62zm-12.27-10.71 12.93-11.04c-.79-.92-.38-.5-1.88-2.35l-13.17 10.75-13.17 10.74.84 1.07c.38.49.91 1.16 1.52 1.87zm-2.12-2.64 13.06-10.88a15 15 0 0 1 3.43 10.03l-17-.62-16.98-.63c-.18 5 1.57 9.55 4.43 12.98zm-.5-1.47 16.99.7q-.07 1.26-.3 2.4L236 473.67l-16.64-3.48q-.32 1.5-.4 3.15zm.05-.38 14.05-9.56c-1.3-1.92-2.1-4.98-1.74-8.12l-16.88-1.97-16.89-1.98c-1.2 10.37 1.02 21.81 7.4 31.2zm-4.57-19.65 16.9 1.78.07-.3a5 5 0 0 1 .8-1.66c.1-.12-.22.32-1.18.74a7 7 0 0 1-4.03.44l3.22-16.7 3.2-16.69c-12.18-2.35-21.6 3.84-26.87 9.91a38.5 38.5 0 0 0-9.02 20.7zm15.78-15.7 12.97 10.99a21 21 0 0 0 1.96-2.74l.39-.67.08-.14v-.02l-14.7-8.51-14.72-8.52-.23.41.06-.1c.1-.19.52-.86 1.2-1.68zm.7-1.1 16.98-.7c-.27-6.5-.28-12.42-.47-19.58l-16.99.44-17 .43c.16 6.07.2 13.38.49 20.13zm-.48-19.84 16.95 1.34c.1-1.42.12-2.74.1-3.78s-.06-2.07-.09-2.83c-.07-1.8-.08-2.6-.04-3.17.04-.6.08.28-.62 1.72a10.5 10.5 0 0 1-4.92 4.86l-7.25-15.37-7.25-15.38c-11.7 5.52-13.55 16.86-13.88 21.87-.19 2.7-.07 5.32-.01 6.82l.07 1.97v.6zm4.13-17.23 17 .06c.02-4.1.35-11.68.2-17.38l-17 .45-17 .46c.16 5.56-.17 9.24-.2 16.34zm.2-16.87L268.6 381l-.05-.32-.01-.14v.04l.01.25-17 .49-16.98.49c.05 1.7.26 3.23.33 3.74zm-.2-1.95 7.77-15.12-.52-.27-7.9 15.05-7.9 15.05.8.41zm-.65-.34 5.06-16.23c.66.2 1.16.41 1.38.5l-6.63 15.66-6.63 15.65c.35.15.97.4 1.77.65zm-.19-.07-14.94-8.12a8.5 8.5 0 0 1 4.27-3.94 6 6 0 0 1 3.5-.28l-3.39 16.66-3.39 16.66c9.4 1.9 22.56-1.22 28.89-12.87zm-10.56 4.32-12.02 12.02.02.02 12.02-12.02 12.02-12.02-.02-.02zm.02.02 3.04-16.73a9.3 9.3 0 0 1 5.43 3.08c.84 1 1.05 1.8 1.12 2.05l-16.53 3.97-16.53 3.97c1.6 6.66 7.12 17.96 20.43 20.39zm-6.94-7.63-.7-16.99-.21.01-.14.01h-.05l.41 17 .42 17 .96-.04zm-.69.03v-17h-1.27v34h1.27zm-1.27 0v-17c-.88 0-1.51 0-2.13-.02l-.43 17-.42 16.99c1.11.03 2.17.03 2.98.03zm-2.56-.02v17h.02v-34h-.02zm.02 0 .39-17a49 49 0 0 1-14.62-2.44l-5.46 16.1-5.46 16.1a83 83 0 0 0 24.77 4.23zm-19.7-3.34v-17h-.01v34h.01zm-.01 0 6.3-15.78c-.83-.34-1.64-.58-1.44-.51l.25.07a17 17 0 0 1 4.12 2.02c.63.42 1.53 1.09 2.5 2.05L208.8 374.2l-11.97 12.07a17 17 0 0 0 6.73 4.12l.31.1c.29.08-.42-.12-1.15-.42zm-.24-.09 5.68-16.02a34 34 0 0 1-4.99-2.21l-8.2 14.89-8.2 14.9a68 68 0 0 0 10.03 4.47zm-7.5-3.34 6.96-15.5-.11-.06-7.27 15.37-7.25 15.38.7.32zm-.42-.19 8.15-14.92c-4.9-2.67-7.56-6.04-9.04-9.63l-15.71 6.49-15.72 6.49c4.48 10.85 12.53 20.13 24.17 26.5zm-16.6-18.06 15.46-7.06-.2-.45-15.61 6.72-15.62 6.72.5 1.12zm-.35-.79 15.6-6.74c-2.49-5.76-2.82-13.3-1.05-21.87l-16.65-3.44-16.65-3.44c-2.6 12.6-3.07 27.87 3.14 42.24zm-2.1-32.05 16.64 3.45a71 71 0 0 1 2.08-7.7l-16.14-5.32-16.15-5.32a104 104 0 0 0-3.08 11.43zm2.58-9.57 15.88-6.05c-.14-.37-.6-1.57-1.31-2.86l-14.86 8.26-14.86 8.25a16 16 0 0 1-.6-1.19l-.14-.37zm-.3-.65 15.53-6.94-.09-.2-15.52 6.94-15.52 6.94.09.2zm-.08-.2 15.58-6.8a235 235 0 0 1-6.02-15.02l-16 5.72-16.02 5.72a269 269 0 0 0 6.88 17.19zm-6.45-16.1 16.03-5.67a197 197 0 0 1-4.82-15.74l-16.45 4.3-16.44 4.32q2.43 9.3 5.66 18.46zm-5.24-17.1 16.44-4.34a176 176 0 0 1-5.27-31.54l-16.95 1.29-16.95 1.29a210 210 0 0 0 6.3 37.64zm-5.78-34.59 16.96-1.28c-.83-11-.61-22.04.7-32.92l-16.88-2.03-16.87-2.04a203 203 0 0 0-.86 39.55zm.78-36.23 16.88 2.04c1.28-10.59 3.7-21 7.28-30.94l-16-5.76-16-5.75a176 176 0 0 0-9.03 38.36zm8.16-34.66 16 5.76a123 123 0 0 1 13.6-27.24l-14.1-9.51-14.09-9.51a157 157 0 0 0-17.4 34.75zm15.5-31 14.15 9.44.41-.61.3-.41.4-.59-14.15-9.43-14.15-9.42q.08-.14 0 0l-.25.36q-.34.47-.85 1.24zm1.1-1.6 13.96 9.71a107 107 0 0 1 20.6-22.41L216 112.12l-10.66-13.24a141 141 0 0 0-27.19 29.49zm23.9-25.95 10.65 13.25q4.26-3.43 8.68-6.36l-9.37-14.18-9.37-14.19c-3.93 2.6-7.68 5.37-11.24 8.23zm9.96-7.3 9.23 14.28q2.44-1.58 4.9-3l-8.53-14.71-8.52-14.71a151 151 0 0 0-6.32 3.87zm5.6-3.43 8.82 14.53a14.7 14.7 0 0 1-10.57 1.8l3.47-16.65 3.47-16.64a19.3 19.3 0 0 0-14 2.42zm1.72-.32 12.04 12c-3 3.02-6.6 3.97-9.42 3.97v-34a20.8 20.8 0 0 0-14.67 6.03zm2.62-1.03v-17h-.41v34h.4zm-.41 0-1.7-16.91h-.07l-.11.02a24 24 0 0 0-1.52.22c-.2.04-.57.11-1.02.22l4.11 16.5 4.12 16.5a16 16 0 0 1-2.01.36h-.1zm-.3.05 2.77 16.77c3.7-.61 7.38-1.3 10.88-1.94l-3.1-16.72-3.09-16.71q-5.25.98-10.24 1.83zm10.56-1.89 3.09 16.72q8.32-1.54 16.53-3.1l-3.15-16.71-3.16-16.7c-5.52 1.04-10.95 2.07-16.4 3.08zm16.47-3.1 3.17 16.71c11.4-2.16 22.67-4.24 34.17-6.4l-3.14-16.7-3.14-16.72c-11.32 2.13-22.82 4.25-34.23 6.42zm34.2-6.4 3.12 16.71c2.95-.55 6.24-1.16 9.51-1.87l-3.6-16.61-3.62-16.62c-2.7.6-5.46 1.1-8.54 1.68zm9.02-1.77 3.64 16.6q-1.45.3-2.62.33l-.46-17-.45-17q-1.74.04-3.74.46zm.56-.07 10.54 13.34a15 15 0 0 1-7.48 3.08l-1.9-16.89-1.91-16.9a19 19 0 0 0-9.78 4.03zm1.15-.47v17h.29v-34h-.29zm.29 0 1.32 16.95h2.03v-34c-.21 0-2.7-.05-4.68.1zm37.31 408.96-12.39-11.64q-.66.72-1.72 1.43l9.44 14.15 9.43 14.14c2.7-1.8 5.28-3.94 7.64-6.45zm-4.67 3.94 8.36 14.8c.4-.22 1.1-.63 1.84-1.12l-9.43-14.15-9.43-14.15.24-.15.1-.06-.05.03zm.77-.47 9.34 14.2a39 39 0 0 0 3.4-2.5l-10.88-13.06-10.88-13.06.09-.07q-.03 0-.1.07l-.16.12-.14.1zm1.86-1.36 11.16 12.83c.66-.58 1.71-1.52 2.83-2.74l-12.56-11.46-12.55-11.46.19-.2-.05.05-.07.06-.1.09zm1.43-1.37L357 507.2q.6-.67 1.14-1.38l-13.4-10.47-13.4-10.47-.07.1zM268 492.52l-7.25 15.38q3.77 1.77 7.52 3.27l6.3-15.79 6.32-15.78a102 102 0 0 1-5.65-2.46zm6.58 2.86 7.4-15.3q-1.17-.57-2.28-1.18l-8.22 14.88-8.22 14.88q1.95 1.08 3.92 2.03zm-3.1-1.6 5.8-15.98q-1.85-.67-3.65-1.4l-6.34 15.78-6.34 15.77q2.37.96 4.74 1.81zm-4.2-1.6-7.4 15.3.83.4 7.29-15.36 7.28-15.36-.58-.28zm29.04-73.55 9.63 14q-.03.04-.19.13l-9.21-14.28-9.22-14.28q-.38.24-.64.43zm.23-.15 17-.11v-.29l-.01-.05V418v.39h-34v.35l.01.15v-.29zm0-.1 14.25-9.27q.46.72.88 1.57l-15.32 7.37-15.32 7.37q.58 1.2 1.25 2.22zm-.19-.33-16.96-1.18-.04.53 16.96 1.23 16.95 1.24.02-.24.03-.4zm11-44.97-6.95-15.52c-1.56.7-2.84 1.06-3.73 1.18l2.27 16.85 2.27 16.84a48 48 0 0 0 13.09-3.84zm-8.4 2.5-17 .34c.06 3.55-.07 7.21-.25 11.35-.17 3.99-.4 8.55-.41 13.13l17 .04 17 .04c0-3.7.19-7.43.38-11.73.18-4.14.36-8.76.27-13.5zm-.66 24.86-11.82 12.22a8 8 0 0 1-1.76-2.45 5 5 0 0 1-.43-1.3 46 46 0 0 1-.01 3.03l16.99.62 16.98.61c.07-1.85.26-5.8-.43-9.88a26.8 26.8 0 0 0-7.7-15.07zm2.96 12.12v17h.29v-34h-.29zm.29 0v17c-1.37 0-2.52-.22-3.34-.45l4.55-16.38 4.55-16.38c-1.6-.44-3.54-.79-5.76-.79zm1.2.17 13.33 10.56c.42-.53.79-1.02 1.04-1.36l.6-.8c.3-.4.17-.19-.22.19l-11.77-12.26-11.78-12.27a32 32 0 0 0-3.3 3.76c-1.04 1.37-.78 1.07-1.22 1.63zm2.98-3.68 17 .45c0-.2.01-.4.09-1.41.06-.78.17-2.2.15-3.78-.05-3.3-.65-8.67-4.39-13.88l-13.82 9.9-13.82 9.9a11 11 0 0 1-1.7-3.6 8 8 0 0 1-.27-1.86l-.05.73-.1 1.26q-.05.77-.09 1.85zm-.97-8.72 15.86-6.14a5 5 0 0 1 .32 2.78c-.12.58-.6 2.32-2.59 3.97l-10.88-13.06-10.88-13.06a27 27 0 0 0-9 15.51 29 29 0 0 0 1.32 16.14zm2.7-12.45 17-.6c-.07-2.05-.07-4.2-.05-6.73 0-2.4.03-5.2-.06-8l-16.99.53-17 .53c.07 2.05.06 4.2.05 6.75-.02 2.44-.03 5.27.07 8.12zm-11.72 18.4-16.42 4.38q.06.22.12.6l16.82-2.45 16.82-2.44q-.3-2.19-.91-4.48zm.52 2.53 16.95-1.25c-.15-2.03-.54-4.5-1.51-7.15l-15.96 5.86-15.95 5.87a8 8 0 0 1-.48-2.08zm12.8-12.15-16.94 1.56c.11 1.15.33 2.47.74 3.88l16.32-4.78 16.31-4.78c.29.97.43 1.85.5 2.55zm.12.66-15.48 7.04c.24.52.46.96.59 1.21l15.13-7.75 15.13-7.74q0-.05 0 0l.1.2zm.24.5 16.94-1.47-.15-1.51-16.89 1.98-16.88 1.99.05.48zm-.1-1 7.92-15.04c.73.39 1.27.75 1.5.9l-9.69 13.98-9.69 13.96c.4.29 1.12.76 2.05 1.25z" mask="url(#crests-signals-path-1-outside-1_35_2048)"/></g><path fill="#ae751e" d="M403.72 252.93q0 .02.04.04 0-.02-.05-.04"/><path fill="#7ba3d9" d="M410.62 296.3c8.12-.45 23.61-1.45 23.5 10.09-.56 6.54-2.33 13.76-6.81 18.7-2.1 1.73-4.92 2.27-7.62 2.27q-.7.01-1.39-.04c-5.4-.3-10.95-.48-16.23-1.58-5.46-.65-11.02-1.08-16.06-3.46-28.3-15.46-22.43-52-4.44-73.4q.95-.77 1.97-1.47.58-.36 1.2-.72l.03-.02a9 9 0 0 1 1.26-.54c.45-.15.93-.26 1.4-.41l1.65-.46.74-.1c.63-.05 1.25 0 1.88.04a26 26 0 0 1 3.64.5l.58.23h.02c.7.35 1.35.76 2.04 1.1q.72.36 1.4.76.64.43 1.2.87l.34.35.91 1.06q.27.33.5.65.3.5.63 1 .25.35.47.7.17.26.3.5.15.24.2.5l.32 1.1q.18.52.29 1.07.22 1.24.34 2.47v.13l.2 2.6v-.14q.06.67.02 1.32c-.59 2.4-1.82 4.68-2.99 6.84a39 39 0 0 0-4.78 14.16c-1.28 8.74 4.59 14.41 13.25 13.22z"/><path fill="#fff" d="M428.67 331.71c-10.68-.15-6.35-12.31-6.35-19.13.09-4.29.93-8.66.42-12.88.32-2.73 1.77-5.6 4.32-6.86 3.57-1.9 8.47-.52 10.2 3.24 1.9 4.25.97 8.8 1.08 13.2-1.1 7.63 1.73 22.71-9.65 22.45z"/><path fill="#fff" d="M435.53 308.48a2.4 2.4 0 0 1-2.23-1.73q-.14-.69.1-1.38a2 2 0 0 1-.83-.96c-.56-1.28.2-2.5 1.23-3.22-1.6.39-3.76-.76-3.55-2.6.56-3.4 4.7-2.68 7.14-3.77 3.86-1.49 6.5-6.14 11.26-5.28 2.92.63 4.61 4.16 4.29 6.97-1.58 7.66-10.4 11.13-17.36 12z"/><path fill="#fff" d="M437.48 305.78c-1.45-5.26 10-3.8 10.37-12.83-3.4 3.74-7.55 9.2-13.1 8.76-1.53-.36-2.33-2.16-1.49-3.5.87-1.71 2.92-1.43 4.33-2.34a32 32 0 0 0 4.42-4.16c1.73-1.97 3.4-4.1 5.52-5.69 2.6-1.8 6.47.1 6.36 3.36.13 6.06-2.38 12.16-7.97 15.04-2.4 1.17-6.42 4.67-8.48 1.38z"/><path fill="#fff" d="M444.78 298.6c.1-1.55 1.62-2.74 3.11-2.78q.49 0 .98-.04h.38q6.2-.18 12.4-.46 3.48-.13 6.96-.3c1.47-.07 2.96-.09 4.41-.2l.3-.02c1.43 0 2.84.9 2.73 2.5-.1 1.5-1.64 2.76-3.12 2.76h-.04c-1.56 0-3.14.09-4.72.15l-6.94.26c-4.14.16-8.3.3-12.45.52-.13 0-.24.05-.37.05q-.48-.01-.97.04h-.13c-1.39 0-2.69-1-2.58-2.49z"/><path fill="#fff" d="M441.8 310.26c-2.31.09-4.9-1.9-3.42-4.28 6.24-6.63 22.43-6.35 31.15-6.56-1.1-1.56.22-3.55 1.82-4.12 1.73-.75 3.66.26 5.32.78 5.61 3.25 3.45 11.58-2.55 12.93-10.7 1.27-21.58.23-32.34 1.27z"/><path fill="#fff" d="M447.23 333.33c-4.98-.76-9.48-3.27-14.29-4.65-3.14-2.28.5-5.63 3.44-4.94l.18-.45q-.3-.52-.24-1.2t.4-1.18a2.2 2.2 0 0 1-1-1.67q-.06-.78.34-1.43c-.76-.32-1.37-1-1.43-1.86a2.8 2.8 0 0 1 1.06-2.3c-1.23-1.25-.28-3.46 1.15-4.04-.2-2.34 2.46-3.5 4.48-3.27 4.67.04 9.4.24 14 1.02-1.02-1.5-.04-3.4 1.47-4.05 4.57-1.95 5.37 5.95 6.7 8.85 3.3 11.73-3.43 22.5-16.26 21.15z"/><path fill="#fff" d="M456.5 326.43c-1.08-1.13-.56-2.73.48-3.66 2.92-4.68.95-10.48 1.08-15.6.63-4.3 7.56-3.3 5.85 1.07.52 6.06 1.58 13.6-3.31 18.2-1.1.96-3.04 1.1-4.1-.01"/><path fill="#7ba3d9" d="M349.5 334.03c3.18 12.56.73 25.56.34 38.31-.41 7.99-.89 15.98-.71 23.96-.52 3.73 2.1 19.33-3.57 18.2-3.8 5.07-10 5.72-15.85 6.2-5.28 1.08-10.43-1.43-14.7-4.3-4.02-4.55-3.96-11.61-4.02-17.37.15-5.2-.33-10.9-.33-15.93-.15-10.54-.56-21.1-.13-31.65.07-7.63 2.62-15.9 8.55-20.97a13.4 13.4 0 0 1 9.83-3.05c3.25-.15 6.47-.78 9.72-.39 4.44.48 9.83 1.95 10.87 6.97zm-56.04 24.23c3.18 12.55.74 25.56.35 38.3-.42 8-.9 15.98-.72 23.97-.52 3.72 2.1 19.33-3.57 18.2-3.79 5.07-10 5.72-15.84 6.2-5.29 1.07-10.44-1.44-14.7-4.31-4.03-4.55-3.96-11.6-4.03-17.36.15-5.2-.32-10.91-.32-15.94-.15-10.54-.56-21.1-.13-31.64.06-7.64 2.62-15.9 8.55-20.97a13.4 13.4 0 0 1 9.82-3.06c3.25-.15 6.48-.77 9.72-.39 4.44.48 9.83 1.95 10.87 6.97z"/><path fill="#fff" d="M295.3 404.83c2.35 6.71.68 14.12.58 21.09-.3 7.64-1.48 15.26-5.5 21.92-4.29 9.16-12.36 14.57-22.64 12.7-6.09-.27-13.1-2.55-15.44-8.74-3.35-9.54-2.1-20.1-2.2-30.06.15-4.5.47-9 .78-13.49 0-2.25 1.27-5.08 3.83-4.13 3.68.06 7.72 2.1 12.12 1.6 4.5-.26 9-.95 13.33-2.23 4.68-1.21 12.25-4.18 15.13 1.34m56.92-15.23c1.3 2.18 1.46 4.78 1.37 7.27-.28 7.23-.76 14.45-1.62 21.62-1.09 17.68-7.93 27.01-26.52 27.19-23.96-2.7-14.22-32.67-16.13-48.86-2.5-1.32-1.56-5.95 1.45-5.65 5.13 1.26 10.7 2.02 16.04 1.06a72 72 0 0 0 11.26-2.46c4.28-1.73 10.97-5.57 14.13-.18z"/><path fill="#cc8518" d="M381.24 224.68c1.08 12.34.78 24.87-.78 37.14a165 165 0 0 1-8.7 36.17c-4.33 11.82-10.08 23.23-17.5 33.42a115 115 0 0 1-12.06 14.24c-4.5 4.44-9.31 8.51-14.5 12.13a86 86 0 0 1-16.24 8.91 83 83 0 0 1-32.82 6.65q-1.9 0-3.8-.09c-12-.54-23.84-3.9-34.57-9.2-10.96-5.4-20.72-12.85-29.29-21.51-8.72-8.81-16-18.98-22.01-29.79a163 163 0 0 1-13.98-33.85 175 175 0 0 1-4.36-18.76c-.04-.2-.06-.42-.08-.55 0-.08-.02-.2-.05-.28v-.1c-2.03-12-2.87-24.2-2.44-36.35a177 177 0 0 1 5.22-36.86 149 149 0 0 1 13.63-35.02 122 122 0 0 1 21.88-29.2 101 101 0 0 1 16.52-13.03 91 91 0 0 1 12.34-6.54l.1-.04.35-.15a84 84 0 0 1 26.86-6.56l.52-.04 1.28-.1q.3-.08.63-.1h.39c1.82 0 3.61-.04 5.41 0h.09a61 61 0 0 1 5.65.33q.35.02.64.12l1.85.22a82 82 0 0 1 16.57 3.85 92 92 0 0 1 10.18 4.12 106 106 0 0 1 29.48 21 138 138 0 0 1 22.14 29.08 164 164 0 0 1 14.1 32.45l.45 1.47a180 180 0 0 1 6.97 36.78z"/><path fill="#ffb13a" d="M422.83 218.12c1.08 12.33.77 24.87-.78 37.14a165 165 0 0 1-8.7 36.17c-4.34 11.82-10.1 23.22-17.52 33.42a115 115 0 0 1-12.05 14.24q-6.73 6.68-14.5 12.12a86 86 0 0 1-16.24 8.92 83 83 0 0 1-36.62 6.56c-12-.54-23.83-3.9-34.57-9.2-10.95-5.41-20.72-12.86-29.29-21.52-8.72-8.8-16-18.98-22-29.78a163 163 0 0 1-14-33.85c-1.81-6.3-3.3-12.7-4.34-18.77-.05-.2-.07-.41-.09-.54q0-.15-.04-.28v-.11c-2.04-12-2.88-24.2-2.45-36.34a177 177 0 0 1 5.22-36.86 149 149 0 0 1 13.63-35.03 122 122 0 0 1 21.89-29.2c5.1-4.97 10.78-9.41 16.51-13.03a91 91 0 0 1 12.34-6.53l.1-.05.36-.15a84 84 0 0 1 26.86-6.56l.52-.04 1.27-.09q.3-.08.63-.1h.39c1.82 0 3.62-.05 5.41 0h.09a61 61 0 0 1 5.65.32q.35.02.65.13l1.84.22a82 82 0 0 1 16.58 3.85 92 92 0 0 1 10.17 4.11c10.95 5.15 20.93 12.47 29.48 21a138 138 0 0 1 22.14 29.09c2.71 4.7 5.11 9.52 7.3 14.4a157 157 0 0 1 7.25 19.52 180 180 0 0 1 6.97 36.77z"/><path fill="#7ba3d8" d="M402.1 234.7q.03 2.32 0 4.63a248 248 0 0 1-.2 4.96 186 186 0 0 1-.74 9.33 105 105 0 0 1-1.05 7.62l-.06.34q-.62 3.64-1.41 7.28-.56 2.59-1.25 5.15l-.5 1.81q-.34 1.24-.72 2.43-.68 2.27-1.43 4.52a181 181 0 0 1-2.64 7.1 93 93 0 0 1-2.27 5.26 100 100 0 0 1-5.9 11.06 96 96 0 0 1-8.7 12.1 80 80 0 0 1-5.05 5.46 61 61 0 0 1-5.29 4.78 85 85 0 0 1-5.17 3.9l-.13.1-.7.46a73 73 0 0 1-9.75 5.41 63 63 0 0 1-13.75 4.33q-3.6.7-7.27.91a61 61 0 0 1-7.2.02 65 65 0 0 1-14.42-2.53 75 75 0 0 1-13.38-5.54 87 87 0 0 1-22.8-17.86 115 115 0 0 1-18.11-26.02l-.13-.23q-.16-.34-.32-.63l-.59-1.17a146 146 0 0 1-8.74-21.82 158 158 0 0 1-6-28.38 161 161 0 0 1-.76-29.02c.6-9.53 2.13-19 4.6-28.23q1.84-6.96 4.43-13.66c1.75-4.45 3.7-8.85 6.04-13.05a99 99 0 0 1 10.89-16.21A77 77 0 0 1 283.3 121a62 62 0 0 1 23.2-7.52h.42l1-.11a64 64 0 0 1 5.77-.26c.16-.05.3-.07.5-.09q.3-.03.54.05a69 69 0 0 1 17.66 3.05c.8.24 1.65.45 2.37.9q3 1.1 5.97 2.47c2.7 1.24 5.37 2.7 7.86 4.29a91 91 0 0 1 10.58 7.77q.16.13.26.24l.2.17.04.04a95 95 0 0 1 9.05 8.99l.93 1.06a122 122 0 0 1 16.73 25.43 145 145 0 0 1 4.83 10.89l1.01 2.55q1.4 3.65 2.56 7.38c1.04 3.2 1.92 6.5 2.72 9.77q1.24 4.86 2.08 9.8.69 3.8 1.17 7.62l.26 2.2q.13.98.22 1.96.16 1.6.28 3.13c.06.78.1 1.59.17 2.28l.13 1.88q.23 3.9.26 7.8z"/><path fill="#c7dfff" d="m270.77 317.6.02.02zm.04.06.05.05zm30.01 21.58q-.02.01-.09-.04c.04 0 .09.04.13.04z"/><path fill="#284c7c" d="M383.5 238.23q.03 2.3 0 4.63a260 260 0 0 1-.2 4.95c0 .44-.04.83-.04.83q-.25 4.24-.7 8.53c-.26 2.57-.62 5.15-1.06 7.61l-.06.35q-.62 3.64-1.4 7.25-.58 2.59-1.26 5.15l-.5 1.82q-.34 1.23-.72 2.42-.68 2.29-1.43 4.53-.84 2.4-1.75 4.83-.42 1.13-.89 2.27-1.05 2.63-2.27 5.24a102 102 0 0 1-9.98 17.23q-2.2 3.06-4.63 5.95a86 86 0 0 1-10.32 10.26 85 85 0 0 1-5.18 3.9l-.13.1-.69.46a73 73 0 0 1-9.76 5.4q-1.98.92-4.03 1.65-.9.1-1.86.11h-.82q-1.07.01-2.17-.04-1.64-.1-3.29-.24h-.43q-2.5-.3-4.96-.65c.16 0 .29.05.44.05q-3.12-.52-6.17-1.2l-.89-.2c-.43-.3-.97-.47-1.51-.62-.5-.22-1.02-.37-1.54-.54q-.3-.06-.59-.17-.09-.08-.19-.2c-.5-.39-1.17-.62-1.75-.86-.74-.26-1.45-.57-2.19-.83q-.4-.15-.82-.28l-.26-.1c-.74-.26-1.47-.57-2.21-.83q-.21-.06-.43-.17-.15-.07-.28-.1l-.72-.33a10 10 0 0 0-1.56-.61q-.25-.15-.52-.35-1.45-.93-2.92-1.94-1.4-.95-2.73-1.97-1.32-1-2.66-2.06l.11.1c-1.06-.88-2.12-1.72-3.16-2.61a102 102 0 0 1-5.54-5.09q-1.36-1.35-2.7-2.75l-1.3-1.38-.05-.05-.04-.04-.05-.04v-.02q-1.67-1.83-3.24-3.7a125 125 0 0 1-8.79-11.73l.09.1q-1.95-2.97-3.77-6.04a152 152 0 0 1-9.16-18.62l-.02-.06c-.56-1.45-1.12-2.85-1.66-4.3a148 148 0 0 1-7.51-29v-.12l-.24-1.64c-.63-4.53-1.13-9.1-1.34-13.66q-.4-7.6-.07-15.24c.22-4.98.74-9.91 1.45-14.85v-.06l.2-1.3v-.15l.19-1.2.24-1.33v-.14l.15-.82q.02-.2.09-.37a132 132 0 0 1 6.14-22.05c1.78-4.63 3.77-9.16 6.06-13.57l.05-.09.02-.04q.34-.66.7-1.3c.84-1.56 1.7-3.05 2.59-4.57q1.46-2.37 2.99-4.67a102 102 0 0 1 10.28-12.86q2.08-2.17 4.26-4.24 1-.94 2.06-1.84 2.9-2.12 5.88-4.14 1.78-1.23 3.58-2.4l.54-.3q1.64-.84 3.33-1.65 1.63-.75 3.23-1.56l2.2-1.1.29-.13.47-.17a41 41 0 0 1 3.12-.07q.21-.05.5-.09t.54.05a70 70 0 0 1 9.7 1.08 66 66 0 0 1 7.96 1.95c.8.26 1.65.47 2.36.9q3.01 1.13 5.97 2.48c2.7 1.23 5.37 2.7 7.86 4.28a87 87 0 0 1 11.04 8.18q.02.06.04.05a94 94 0 0 1 9.05 8.98l.93 1.06a121 121 0 0 1 16.73 25.41c1.74 3.46 3.25 7 4.7 10.58l.13.3 1.02 2.58q1.39 3.65 2.55 7.39c1.04 3.2 1.93 6.49 2.73 9.78q1.23 4.87 2.08 9.8.68 3.78 1.17 7.62l.25 2.21q.14.98.22 1.95.18 1.6.28 3.14l.18 2.27.13 1.9q.22 3.9.26 7.78z"/><path fill="#7ba3d9" d="M350.3 226.71q.83 7.59.62 15.22a103 103 0 0 1-3.33 24.02l-.04.13-.09.3v.03c-1.32 4.8-3 9.52-5.26 13.96a55 55 0 0 1-8.38 12.53 39 39 0 0 1-12.23 9.2 28.5 28.5 0 0 1-14.37 2.51c-10.06-.74-19.03-6.77-25.65-14.07-6.88-7.6-11.86-16.69-15.43-26.23a115 115 0 0 1-6.69-29.96c-.89-9.98-.52-20.17 1.39-30.02 1.9-9.78 5.17-19.4 10.67-27.77 5.5-8.4 13.83-15.72 24-17.43 4.85-.82 9.72-.4 14.4 1.09a38 38 0 0 1 11.01 5.75l.28.2q.22.16.37.34.52.39 1 .78a56 56 0 0 1 5.1 4.77 67 67 0 0 1 8.69 11.45c5.21 8.57 8.8 18 11.25 27.72a113 113 0 0 1 2.69 15.44z"/><path fill="#fff" d="M291.5 141.06c-1.7-.71-1.76-2.79-1.82-4.37-.1-3.29-.76-6.62-.65-9.91.67-3.34 4.72-2.8 4.93.47.44 3.4.48 6.84.89 10.24.54 1.93-1.21 4.44-3.33 3.57z"/><path fill="#fff" d="M298.79 138.49c-1.78-2.62-4.79-5.04-6.8-7.19-1.43-1.27-3.31-2.66-2.49-4.87.87-2.5 3.5-2.49 4.96-.52 2.83 3.12 6.4 5.68 8.63 9.31 1.56 2.77-2.18 6.45-4.3 3.27"/><path fill="#fff" d="M299.63 137.06c-.24-3.8-.65-7.6-.91-11.4-.1-1.48.56-3.17 2.16-3.51 1.48-.33 2.82.95 2.9 2.38 0 .21.03.43.03.47.15 2.36.36 4.72.54 7.08l.26 3.01.08 1.13.02.15c.18 1.47-.6 3.18-2.14 3.53q-.25.05-.47.04c-1.46 0-2.5-1.5-2.45-2.9zm70.01 95.46c-1.15-.16-1.84-1.02-2.12-2.04h-.02q-.07-.2-.09-.39-.09-.39-.1-.78c-.22-1.58-.53-3.16-.8-4.72-.31-1.77-.66-3.55-.96-5.34-.24-1.43.48-3.16 2.01-3.49 1.54-.32 2.75 1.02 2.99 2.43.56 3.4 1.02 6.81 1.69 10.2l.08.34c.03.24.1.45.1.69.08 1.47-.96 3.1-2.52 3.1h-.3z"/><path fill="#fff" d="M368.39 220.2c-1.93-.22-2.73-2.23-2.25-3.96.39-1.56 1.9-2.01 3.29-2.17h-.13c2.27-.32 5.86-1.94 6.88 1.09.48 1.43-.04 3.22-1.45 3.9-2.01.53-4.24.77-6.34 1.12zm1.34 7.14c-3.07-.1-3.53-5.04-.67-5.9 2.44-.42 5.24-2.15 6.15 1.4.65 3.42-2.9 4.1-5.48 4.53z"/><path fill="#fff" d="M370.6 233.2c-2.45-.05-3.29-3.28-1.88-5 .8-1.09 2.12-.96 3.29-.98 1.43-.07 2.68-.91 4.11-.87 1.56 0 2.45 1.76 2.38 3.14-.06 1.47-1.17 2.92-2.75 2.86a14 14 0 0 1-5.15.84m-51.77 108.64c-2.72.08-5.4-2.06-4.09-4.92.65-1.45 2.34-2.08 3.7-1.12 1.6.4 3.31-.03 4.35-1.39q-.13-.43-.4-.78c-2.37.24-4.94.63-7.02-.89-3.96-3.07-2.51-10.08 1.73-12.2 2.8-1.43 7.53-.22 7.94 3.29a2.94 2.94 0 0 1-1.88 3.07c-1 .37-1.93-.26-2.68-.82a1.6 1.6 0 0 0-2.34 1.62c2.36.74 5.26-1.06 7.27 1.08 5.65 5.22.56 13.94-6.6 13.06zm-81.18-92.23-.2-1.06-.58-3.12-1.2-6.06-.5-3.96v-2.49c1.98 1.13 1.72 4.37 2.8 6.3 1.39-2.8 4.1-1.97 5.46.35.47-2.8-1.13-7.62 2.46-8.47 1.54-.17 2.67 1.26 2.75 2.69.07 2.12-.21 4.22-.21 6.34-.1 2.7.84 5.84-.7 8.25-2.47 2.7-5.21-1.02-6.6-3.01-.37 1.84-1.77 4.22-3.44 4.22zm89.85-103.86c-3.61-.74-2.75-6.86.82-6.77 4.12.2 2.9 7.33-.82 6.77m21 21.78c-3.27-.8-2.62-6.69.95-6.15 3.83.46 2.62 6.84-.95 6.15m19.63 28.35-.05.04zm-3.41 2.12s-.06.04-.09.04l.1-.04"/><path fill="#fff" d="M363.62 197.58c-2.36-2.07-.4-6.73 2.75-6.25 2.01.56 2.43 2.55 1.88 4.26q-.54.34-1.01.7l-1.43 1.03-.18.1q-.41.22-.82.49l-.3.2q-.43-.18-.87-.5zm1.98 92.62q-.34-.13-.7-.3-.55-.33-1.14-.63l-.9-.52a7 7 0 0 0-.7-.34 4 4 0 0 1-.1-1.17c.32-2.19 1.5-3.12 2.74-3.2l.09.04 1.5.86q.55.35 1.14.63l.15.06c.24.5.35 1.09.24 1.72a3.1 3.1 0 0 1-2.1 2.94q-.11-.06-.22-.09m-17.48 23.23-.02-.02-.4-.44q-.45-.47-.92-.9-.22-.23-.48-.42-.41-.39-.86-.73c-.4-1.9.73-4.18 2.83-4.25l.46.48q.5.55 1.03 1.06l1.17 1.17c.11 1.88-1 4.03-2.75 4.03h-.08zm24.61-54.33a19 19 0 0 0-1.95-.26q-.7-.1-1.39-.15c-1.23-1.52-.69-3.8.52-4.98q.13 0 .26.04.14.04.26.04.92.17 1.84.3.78.14 1.56.22h.13c.84 1.52.28 3.73-.95 4.8q-.14 0-.26-.04zm-107.65 45.69c-1.86-.46-2.49-2.62-1.97-4.3q.41-.34.87-.68l.67-.48q.66-.46 1.3-.97c1.64.04 2.49 1.65 2.44 3.23-.04 1.62-.97 3.24-2.83 3.24q-.24.01-.5-.04zm28.52 19.61.02.05zm-1.27 1.1c-1.34-.37-2.02-1.43-2.17-2.64l.28-.04-.13.02.42-.04h.32-.04.04l.63.25.69.3q.06.06.13.1.44.32.82.7-.06-.04-.1-.1l.27.3.16.22q0-.03-.05-.07 0 .04.05.07v.04l.1.33.07.24v.1q-.45.24-1.04.24-.23.01-.5-.04zm-44.1-48.3c-2.28-.23-3.12-2.91-2.3-4.8l.3-.13q.5-.23.96-.5.62-.32 1.19-.69.24-.13.5-.3.05 0 .1-.04c1.2.34 1.89 1.77 1.93 3.2.02.97-.24 1.93-.87 2.55l-.06.02q-.59.16-1.13.44l-.32.15-.24.1h-.09zm2.72-104.66q-.23-.2-.5-.39l-.15-.17q-.26-.3-.56-.54-.53-.46-1.09-.9l-.17-.12c-.56-1.93.65-4.33 2.73-4.61q.3.35.63.67.75.72 1.51 1.4l.11.12.15.12.26.33q.1.1.15.2c0 1.85-1.23 3.87-2.92 3.87h-.17zm16.82-25.61q-.22-.3-.46-.54l-.97-1.82-.65-1.17v-.1q0-.28.02-.55 0-.14.04-.28.01-.07.05-.15v-.04q.24-.39.45-.78s0-.05.05-.05l.04-.08c.2-.09.4-.15.6-.28l.16-.13c.43-.13.86-.29 1.3-.37h.25q.19 0 .35.04h.09s.13.09.2.11q.11.07.2.1l.22.16q.07.19.18.35.26.31.65.39l.2.28.8 1.25.12.22c-.2 1.73-1.64 3.48-3.48 3.48q-.2.01-.41-.04m-30.35 56.5a3.96 3.96 0 0 1 .44-4.96l1.31.3q.83.16 1.6.28l1.07.16c.86 1.64.3 4.22-1.4 4.97zm86.31-51.07a3.3 3.3 0 0 1-.9-3.83q.02-.06.07-.13l.44-1.1q.48-1.16.9-2.36.6-1.58 1.15-3.16l.28-.82q.38-1.05 1.32-1.63c1.45-.88 3.16.4 3.49 1.86a4 4 0 0 1-.3 2.52q-.36.9-.7 1.81c-.47 1.26-.97 2.5-1.4 3.77v.04l-.05.16-.02.1-.39 1.13a3 3 0 0 1-.78 1.4c-.45.46-1.06.72-1.66.72-.48 0-.98-.15-1.39-.48zm18.62 17.19c0-.82.35-1.69.93-2.25l-.21.24-.05.04.11-.13c.56-.7 1.15-1.36 1.69-2.06q.76-.93 1.51-1.88.25-.34.52-.65a3 3 0 0 1 1.63-1.04c1.16-.23 2.25.7 2.62 1.71.45 1.17.2 2.51-.61 3.44l-.65.78-1.58 1.95-1.12 1.4-.26.33c-.52.65-1.17 1.13-2.04 1.13-1.56 0-2.53-1.62-2.51-3.03z"/><path fill="#fff" d="M363.95 192.41h.04l-.13.06q.02-.02.09-.04z"/><path fill="#fff" d="M357.02 199.03c-.87-1.39.1-3.14 1.53-3.66.76-.34 1.5-.8 2.23-1.21q1.51-.81 3.01-1.67l.07-.04h-.03c1.37-.74 3.32-.67 4.2.76.59.93.37 1.9-.21 2.64l-.59.4-1.38 1-1.8.96q-1.34.73-2.64 1.47l-.13.08-.15.1-.09.03c-.45.27-1 .4-1.53.4-.98 0-1.97-.42-2.5-1.26m-84.61-46.49a3 3 0 0 1-1.86-1.39v-.02l-.13-.26q-.34-.56-.67-1.04-.64-1.05-1.32-2.06l-1.58-2.31-.02-.05-.44-.8q-.06-.16-.08-.28c-.41-1.38 0-3.11 1.51-3.59a2.1 2.1 0 0 1 1.95.32q.07.16.15.29.24.3.59.39.3.32.52.69l.71 1.12c.07.11.1.2.2.3q.16.23.28.46a99 99 0 0 0 2.25 3.36l.04.04.09.1q.06.09.04.1l.09.1c.73 1.2.8 2.86-.22 3.9-.43.43-1 .67-1.6.67q-.23.01-.45-.04zm-22.05 19.48-.04-.04q-.27-.3-.57-.54-.52-.45-1.08-.89-.37-.3-.73-.54l-.24-.28-.4-.44-.1-.08-.84-.54q-.29-.2-.55-.46a3 3 0 0 1-.82-.86l.11-.28q.3-.73.54-1.45.32-.67.6-1.33.23-.43.42-.86l.28-.67h.1c.48.04.94.26 1.24.5l.11.08.26.24.24.22.04.04q.69.42 1.3.93.58.53 1.08 1.15s.09 0 .11.02l.5.52q.69.66 1.4 1.3.17.36.24.76a4 4 0 0 1-.08 1.97 2.4 2.4 0 0 1-2.25 1.66q-.4 0-.83-.15zm-6.07 27.88s-.02-.05-.04-.05c0 0 .02.05.04.05m.02 0 .04.02zm.05.05-.05-.05s.02.05.04.05m.49.69.04.06zm.2 2.76s-.05.05-.05.07q0-.03.05-.07m-1.74 1.37h-.03l-.58-.15q-1.62-.36-3.25-.7-.12-.01-.26-.06l-1.75-.44-1.77-.4v-.16l.06-.62.09-.83q.23-1.1.43-2.23l.13-.97q.52 0 .93.15.26.09.5.15c1.92.46 3.9.8 5.86 1.15q.16 0 .33.04l.24.15q.01.04.06.07l.48.67.1.2v.04-.02.02q.14.3.22.58c0 .07.05.13.05.2v.91q.01.23-.05.45v.17l-.2.3-.06.1-.08.08c-.26.22-.59.37-.85.56l-.65.54zm1.73 71.21-.9-2.23-.22-.54.21-.1q.51-.17.96-.35.59-.22 1.17-.48.48-.23.95-.5.62-.32 1.19-.69.1-.07.2-.1l.77-.4q.46-.16.85-.43.05-.02.08-.06.19-.14.41-.22a2.35 2.35 0 0 1 3.36 1.34c.48 1.39-.1 3.31-1.52 3.96q-.02-.01-.04.05-.01-.01-.06.04c-.8.39-1.63.71-2.08.93-.24.1-.5.22-.5.24-.93.43-1.88.84-2.8 1.34q-.55.3-1.12.54-.44-1.16-.9-2.31zm17.31 31.67q-.97-1.4-1.97-2.75.04.06.09.1l-.85-1.14q1.37-1.18 2.67-2.43l2.03-1.9.33-.22q.65-.44 1.27-.95.33-.1.67-.1c.78 0 1.48.43 1.89 1.05.93 1.39.52 3.25-.67 4.33 0 0-.03.05-.05.05-.88.73-1.7 1.51-2.57 2.27q-1.25 1.09-2.45 2.25l-.39-.59zm30.07 15.47h.02l.05.02q-.04 0-.07-.04zm-4.62 9.78-1.17-.92-.15-.13q-.25-.2-.5-.37l-.41-.32c.65-1.09 1.43-2.1 1.73-2.97.87-1.47 1.62-4.26 3.1-5.37h.04q.2 0 .39-.04h.34q.32.15.63.26.36.13.72.3.06.03.1.09.45.34.83.71-.08-.05-.11-.1.15.13.28.3l.15.21-.04-.06q.03.07.06.1v.05q.1.21.16.43-.01-.06-.05-.13.02.13.07.24v.07q-.13.7-.33 1.43 0-.08.05-.13l-.13.43q-.05.11-.05.24-.16.21-.37.43c-1.01 1.36-1.99 4.48-3.37 6.58q-.98-.64-1.93-1.34zm62.85-17.03-.09-.07-.04-.02-.06-.04-.13-.09s-.18-.15-.26-.24l-.07-.08-.04-.05-.4-.45-1.46-1.47-.4-.44q-.45-.47-.92-.9l-.48-.44-.35-.32a67 67 0 0 0-1.97-1.78l-.15-.13a4 4 0 0 1-.45-.43c-.87-1.06-1.3-2.68-.2-3.79a2.3 2.3 0 0 1 2.02-.62q.88.1 1.58.67.3.23.54.54a95 95 0 0 0 3.29 3.3l.32.33.41.4c.11.08.2.19.3.25l1.33 1.21a4 4 0 0 1 .8.74v.02h.02l.06.11q.1.13.11.2c.37.6.59 1.27.48 1.99a2.3 2.3 0 0 1-1.6 1.88q-.37.12-.74.1-.81 0-1.54-.45zm16.47-24.99h.04a60 60 0 0 0-3.5-1.87c-1.22-.58-2.5-1.1-3.71-1.7a1 1 0 0 1-.37-.2l-.2-.1c-1.3-.68-2.14-2.43-1.5-3.82.64-1.4 2.42-1.62 3.65-.9q.3.13.54.3c1.32.71 2.66 1.45 3.75 1.99l.62.37q.56.34 1.15.62.33.16.7.15l.34.16c1.56.43 2.8 2.16 2.34 3.78-.24.87-.98 1.5-1.86 1.63l-.42.02q-.83 0-1.55-.43zm8.85-31.2h.05c-.16 0-.29-.04-.26-.07q-.26-.04-.5-.1h-.03a72 72 0 0 0-7.12-1.02l-.32-.02c-1.45-.11-2.9-1.41-2.77-2.93.13-1.62 1.8-2.33 3.22-2.16h.1q.13 0 .27.04h.09q.07 0 .15.03c.43.15.9.21 1.36.3q.14 0 .26.04l1.84.33 1.56.21q.42.08.85.09.48.07.97.1.46-.02.93.05c1.02.2 1.97.87 2.38 1.82.59 1.36-.3 2.88-1.73 3.2q-.43.1-.87.11l-.4-.02zm-42.54-31.95c.4 1.13.09 2.3-.09 3.44l-.51 3.36q-.56 3.4-1.09 6.81-1 6.6-1.97 13.19l-3.98 26.9a2951 2951 0 0 0-4.33 29.96c.22 1.02 0 2.16-.7 2.94a2.5 2.5 0 0 1-2 1.15h-.07c-1.54-.04-2.5-1.65-2.44-3.1-1.56-3.72-3.23-7.4-4.87-11.08l-7.02-15.8-3.24-7.3-11.04-23.76c-.96-2.03-1.9-4.1-2.86-6.1l-1.45-3.06q-.3-.64-.63-1.27a4.4 4.4 0 0 1-.5-1.89 3.1 3.1 0 0 1 1.48-2.68q.31-.3.73-.45a2.4 2.4 0 0 1 1.17-.53q.15-.02.26-.08.26-.07.52-.09c4.55-1.01 9.09-2.16 13.61-3.27q7.46-1.84 14.92-3.63c2.4-.59 4.8-1.13 7.18-1.73q1.55-.4 3.1-.83.48-.1.97-.26c.11-.6.3-1.16.7-1.69a2.4 2.4 0 0 1 2.3-.9c.86.2 1.55.9 1.83 1.73z"/><path fill="#df6033" d="M333.24 225.07c.45.89.5 1.97.13 2.88a3.1 3.1 0 0 1-1.38 2.42 2 2 0 0 1-.42.2h-.08l-.2.06q-.23.08-.45.09h-.11c-.76.15-1.5.37-2.25.54q-1.56.38-3.12.8l-6.17 1.56c-4.43 1.13-8.85 2.34-13.26 3.5l-10.07 2.67q-2.5.66-5 1.36l-2.34.65c-.47.13-.93.28-1.4.28q-.27 0-.55-.08c-1.01-.28-1.68-1.26-1.84-2.25-.13-.85.05-1.72.52-2.4 0-1.24.2-2.71.67-3.88l.1-.54.45-3.01q.52-3.47 1.01-6.95l1.8-13.07q1.88-13.5 3.72-26.97 1.83-13.33 3.64-26.67c.43-3.3.89-6.56 1.23-9.78v-.4a3.3 3.3 0 0 1 .95-2.03q.32-.31.74-.47.11-.1.26-.2c1.24-.78 2.9-.22 3.36 1.04.28.5.43 1.06.62 1.62l1.3 3.62q1.43 3.99 2.92 7.99 3.04 8.17 6.06 16.36c4.14 11.1 8.23 22.23 12.4 33.33 1.63 4.29 3.23 8.57 4.73 12.5q.71 1.9 1.47 3.78c.2.52.39 1.08.56 1.4z"/><path fill="#fff" d="M400.15 452.67c7.14 1.71 6.34 9.63 2.66 14.37-6.77 9.79-20.06 13.38-31.47 12.6-15.04-1.84-30.63-3.94-44.07-11.36-9.78-3.55-19.33-8.18-27.01-15.37-4.6-3.53-9.42-7.73-9.91-13.87-.1-7.67.23-19.94 9.52-21.91 3.42-.76 8.31 1.25 6.15 5.32 5.21 7.36 12.53 12.39 19.39 18.08 4.91 3.35 9.74 6.9 14.87 9.91 6.02 3.01 12.84 3.5 19.33 4.74 8.46 1 16.43-.24 24.8-.75 5.26-.24 10.42-3 15.7-1.78z"/><path fill="#df6033" d="M397.12 438.34a39 39 0 0 1 1.28 12.95 38 38 0 0 1-1.71 8.92l-.22.6-.2.67a3 3 0 0 1-1.53 1.8l-.08.09c-2.47 2-5.5 3.59-8.73 3.7q-.65.23-1.28.26-.36.11-.8.1c-4.97.65-9.97 1.58-15.02 1.35-25.02-1.08-53.87-8.86-66.53-32.38q-.65-1.45-1.06-2.97a3.2 3.2 0 0 1-1.2-2.68 26.3 26.3 0 0 1 9.1-19.61c2.55-2.2 7.38-2.4 8.13.15.52.63.83 1.58.61 2.81-.15 2.86-.48 5.28-.15 7.9.2.56.28 1.21.24 1.86q.2.6.13 1.2c-1.22 9.43 8.03 10.36 14.91 8 3.03-1.6 4.16-4.91 4.87-8q-.14-.33-.32-.66c-1.37-2.85-4.49-6.1-3-9.37.25-1.38 1.42-2.38 2.5-3.22a30 30 0 0 1 7.62-4.38c6.6-2.81 14.22-4.06 21.2-2.07 3.88 1.4 3.64 6.25 2.8 9.54q-.23.6-.43 1.47 1.07-.13 2.06-.17h.64c3.88-.04 7.71.89 11.15 2.62 3.77 1.93 7 4.78 9.29 7.86a34 34 0 0 1 5.73 11.64z"/><path fill="#df6033" d="M338 421.64c-3.75-.11-3.4-6.3.34-6 3.34.26 3.01 6.1-.34 6"/><path fill="#df6033" d="M327.12 435.8c-6.83 0-13.52-5.42-14.52-12.26-.37-3.1-2.62-15.39 3.6-12.3 1.64 1.33.84 3.36.82 5.11-.54 10.18 5.47 14.96 15.26 13.25 2.92-.56 5.2-2.62 6.73-5.09.47-1.12 1.51-2 2.83-1.7 2.56.62 2.34 4.28.9 5.7-3.3 5.42-9.43 7.84-15.6 7.3z"/><path fill="#fff" d="M344.35 478.17c7.14 1.71 6.34 9.64 2.66 14.38-6.77 9.78-20.06 13.37-31.47 12.6-15.04-1.85-30.63-3.95-44.07-11.37-9.78-3.55-19.33-8.18-27.01-15.37-4.59-3.53-9.42-7.73-9.92-13.87-.08-7.67.24-19.94 9.53-21.9 3.42-.77 8.31 1.25 6.15 5.32 5.21 7.36 12.53 12.38 19.39 18.07 4.91 3.36 9.74 6.9 14.87 9.91 6.02 3.01 12.84 3.51 19.33 4.74 8.46 1 16.43-.23 24.8-.75 5.26-.24 10.42-2.99 15.7-1.78z"/><path fill="#df6033" d="M341.32 463.84a39 39 0 0 1 1.28 12.94 38 38 0 0 1-1.7 8.92l-.22.6-.2.68a3 3 0 0 1-1.54 1.8l-.08.08c-2.47 2.01-5.5 3.6-8.73 3.7q-.65.22-1.27.28-.37.12-.8.11c-4.98.65-9.98 1.58-15.03 1.37-25.02-1.09-53.87-8.86-66.53-32.39-.41-.97-.8-1.94-1.06-2.96a3.2 3.2 0 0 1-1.2-2.69 26.3 26.3 0 0 1 9.1-19.6c2.55-2.2 7.38-2.4 8.14.15.51.62.82 1.58.6 2.81-.15 2.86-.47 5.28-.15 7.9.2.56.28 1.21.24 1.86q.2.6.13 1.2c-1.21 9.43 8.03 10.36 14.91 8 3.03-1.6 4.16-4.91 4.87-8q-.14-.33-.32-.66c-1.37-2.85-4.48-6.1-2.99-9.37.24-1.38 1.4-2.38 2.49-3.22a30 30 0 0 1 7.62-4.38c6.6-2.81 14.22-4.07 21.21-2.07 3.88 1.4 3.64 6.25 2.8 9.54q-.24.6-.44 1.47 1.07-.13 2.06-.17h.64c3.88-.04 7.71.89 11.15 2.62 3.77 1.93 7 4.78 9.29 7.86a34 34 0 0 1 5.73 11.64z"/><path fill="#df6033" d="M282.2 447.14c-3.74-.11-3.4-6.3.35-6 3.33.26 3.01 6.1-.35 6"/><path fill="#df6033" d="M271.32 461.3c-6.84 0-13.53-5.42-14.53-12.26-.37-3.07-2.62-15.39 3.6-12.3 1.64 1.32.84 3.36.82 5.11-.54 10.18 5.48 14.96 15.26 13.25 2.92-.56 5.2-2.62 6.73-5.09.48-1.12 1.52-2 2.84-1.7 2.55.62 2.33 4.28.88 5.7-3.29 5.42-9.41 7.84-15.58 7.3z"/><path fill="#ae751e" d="M218.58 301.35q0 .02.04.04 0-.02-.04-.04"/><path fill="#7ba3d9" d="M225.49 344.7c8.11-.46 23.61-1.45 23.5 10.09-.56 6.53-2.34 13.76-6.82 18.7-2.1 1.73-4.91 2.27-7.62 2.27q-.69.01-1.38-.04c-5.41-.3-10.95-.48-16.23-1.58-5.46-.65-11.02-1.09-16.06-3.47-28.3-15.45-22.43-51.99-4.44-73.4q.95-.76 1.97-1.47l1.19-.71.04-.02q.6-.33 1.26-.55c.45-.15.93-.25 1.4-.4q.82-.25 1.65-.46.37-.07.73-.1c.63-.05 1.26 0 1.89.03q1.59.1 3.14.4l.5.1.58.24h.02c.7.35 1.34.76 2.03 1.1q.73.35 1.41.76.62.41 1.2.87l.34.34q.44.54.9 1.06l.5.65q.3.52.63 1 .26.36.48.71l.3.5a2 2 0 0 1 .2.5l.32 1.1q.18.52.28 1.06.22 1.26.35 2.47v.13l.2 2.6v-.13q.06.66.02 1.32c-.59 2.4-1.82 4.68-3 6.84a39 39 0 0 0-4.78 14.16c-1.27 8.74 4.6 14.41 13.25 13.22z"/><path fill="#fff" d="M243.54 380.1c-10.67-.15-6.34-12.31-6.34-19.13.08-4.28.93-8.66.4-12.88.33-2.72 1.78-5.6 4.34-6.86 3.57-1.9 8.46-.52 10.2 3.25 1.9 4.24.97 8.79 1.08 13.2-1.1 7.62 1.73 22.7-9.66 22.45z"/><path fill="#fff" d="M250.4 356.9a2.4 2.4 0 0 1-2.23-1.72q-.14-.7.09-1.39a2 2 0 0 1-.82-.95c-.57-1.28.19-2.51 1.23-3.22-1.6.38-3.77-.76-3.55-2.6.56-3.42 4.72-2.69 7.14-3.77 3.86-1.5 6.5-6.15 11.26-5.28 2.92.63 4.6 4.16 4.28 6.95-1.58 7.66-10.39 11.12-17.36 11.99z"/><path fill="#fff" d="M252.35 354.2c-1.45-5.26 10-3.8 10.37-12.83-3.4 3.74-7.56 9.2-13.1 8.76-1.53-.37-2.34-2.16-1.5-3.5.87-1.71 2.93-1.43 4.34-2.34a32 32 0 0 0 4.41-4.16c1.74-1.97 3.4-4.11 5.52-5.7 2.6-1.79 6.47.12 6.37 3.36.13 6.06-2.38 12.17-7.97 15.05-2.4 1.17-6.43 4.67-8.48 1.38z"/><path fill="#fff" d="M259.66 347.01c.1-1.53 1.62-2.72 3.12-2.77q.48 0 .97-.04h.39q6.2-.18 12.4-.46 3.48-.13 6.95-.3c1.47-.06 2.97-.08 4.42-.2l.3-.01c1.43 0 2.84.88 2.73 2.48-.11 1.52-1.65 2.77-3.12 2.77h-.02c-1.56 0-3.14.1-4.72.16q-3.47.11-6.95.25c-4.13.16-8.29.3-12.44.53-.13 0-.24.04-.37.04q-.49-.01-.98.04h-.13c-1.38 0-2.68-1-2.57-2.49z"/><path fill="#fff" d="M256.67 358.66c-2.32.08-4.91-1.9-3.42-4.29 6.24-6.6 22.43-6.34 31.15-6.56-1.1-1.56.22-3.55 1.82-4.11 1.73-.76 3.65.24 5.32.78 5.6 3.25 3.44 11.58-2.55 12.92-10.7 1.28-21.58.24-32.34 1.28z"/><path fill="#fff" d="M262.1 381.75c-4.98-.76-9.48-3.27-14.29-4.65-3.13-2.28.5-5.63 3.45-4.94q.06-.23.17-.45-.3-.52-.24-1.2.07-.67.41-1.19a2.2 2.2 0 0 1-1.01-1.66q-.06-.78.34-1.43c-.76-.33-1.36-1-1.43-1.86a2.8 2.8 0 0 1 1.06-2.3c-1.23-1.25-.28-3.46 1.15-4.04-.2-2.34 2.47-3.51 4.48-3.27 4.68.04 9.4.24 14 1.01-1.01-1.49-.04-3.4 1.48-4.04 4.56-1.95 5.37 5.95 6.69 8.85 3.3 11.73-3.42 22.49-16.26 21.15z"/><path fill="#fff" d="M271.37 374.83c-1.08-1.13-.56-2.73.48-3.66 2.92-4.68.95-10.48 1.08-15.6.63-4.3 7.55-3.3 5.84 1.07.52 6.06 1.58 13.6-3.3 18.2-1.11.96-3.04 1.09-4.1-.01m19.1-112.4a28 28 0 0 1-5.95-1.09 27 27 0 0 1-6.84-3.1 27 27 0 0 1-7.64-7.05 28.6 28.6 0 0 1-5.84-16.8v-1.53l53.33-13.44a25 25 0 0 1 1.5 3.2l.06.15a30 30 0 0 1 2.01 8.85c.15 2.04.04 4.07-.24 6.09l-.13.86q-.21 1.46-.62 2.88a27.5 27.5 0 0 1-7.28 12.53 28 28 0 0 1-8.61 6.04q-.08.03-.15.09a27 27 0 0 1-10.87 2.44h-.32q-1.2 0-2.4-.1z"/><path fill="#fff" d="M334.86 253.65a28 28 0 0 1-5.95-1.08 27 27 0 0 1-6.84-3.1 27 27 0 0 1-6.97-6.16q-.35-.43-.67-.89a28.6 28.6 0 0 1-5.84-16.8c0-.73 0-1.5.04-2.23v-.36q.03-.71.13-1.41l51.9-13.1a29 29 0 0 1 2.77 5.3l.07.16a30 30 0 0 1 2.01 8.85q.21 3.05-.24 6.08l-.12.87q-.23 1.45-.63 2.88a27.5 27.5 0 0 1-7.27 12.53 28 28 0 0 1-8.62 6.04q-.07.02-.15.09a27 27 0 0 1-10.87 2.44h-.32q-1.2 0-2.4-.1z"/><path fill="#000" d="M312.62 214.56q.63-.47 1.21-.97l2.56-.84.6.71-1.43.35-2.96.78zm-48.85 10.11.7-.32.82-.4q-.8.47-1.58.96l.06-.26zm27.09 39.81a29 29 0 0 1-6.32-1.21q-.06 0-.13-.04a31 31 0 0 1-17.45-13.61 31.5 31.5 0 0 1-3.95-21.63l1.51-1.02c.74-.5 1.52-.93 2.28-1.38q1.1-.66 2.2-1.28c.05 0 .09-.05.11-.07q-.4 1.06-.76 2.15c-.24.82-.4 1.64-.58 2.46a33 33 0 0 0-.4 3.58q-.02 1.5.07 2.98.15 1.49.42 2.95.35 1.62.84 3.18a34 34 0 0 0 1.21 2.92q.75 1.45 1.6 2.81 1.04 1.56 2.28 3 1.06 1.15 2.23 2.22a36 36 0 0 0 3.3 2.47q1.64.97 3.32 1.77a33 33 0 0 0 4.48 1.54q2.2.49 4.44.67 2.02.1 4.04-.06h-.04.09c.17 0 .34-.05.37-.05h.08q1.92-.25 3.83-.73c1.54-.46 3.06-1 4.46-1.67a37 37 0 0 0 3.3-1.84q1.97-1.35 3.52-2.77 1.13-1.1 2.17-2.32 1.11-1.4 2.07-2.94.86-1.43 1.56-2.94.36-.85.67-1.71l.4-1.13q.43-1.55.75-3.16.16-1.14.26-2.27l.04-.63c.05-1.15 0-2.3-.06-3.44q-.16-1.59-.46-3.14a30 30 0 0 0-.84-3 38 38 0 0 0-1.08-2.56q-.66-1.29-1.41-2.5.1-.27.17-.56.09-.35.13-.7c.09-.46-.21-.96-.65-1.16a1.1 1.1 0 0 0-1.19.22 8 8 0 0 0-.54-.67l3.31-1 2.02-.6a31 31 0 0 1 3.63 7.27 32 32 0 0 1 1.78 8.77q.15 3.19-.35 6.34a31 31 0 0 1-3.62 10.8l-.25.47a31 31 0 0 1-5.3 6.76 29 29 0 0 1-7.84 5.5 29 29 0 0 1-9.27 2.79q-.81.1-1.62.17-1.25.1-2.51.11h-.2q-1.13 0-2.25-.1zm24.81-54.33a1 1 0 0 0 0-.45q.6-.34 1.17-.63l-.71.97-.5.18v-.05zm-2.09.67s.1-.07.17-.09q.12.03.24.09l-.7.26q.16-.1.29-.24z"/><path fill="#000" d="M307.18 218.36q.94-.66 1.88-1.28l1.97-1.36q.78-.59 1.56-1.13.3-.2.56-.43l.67-.26-.26.52a30 30 0 0 0-1.23 3.31l-.1.39a1 1 0 0 0-.31-.6 1.1 1.1 0 0 0-1.17-.25c-1.3.52-2.51 1.17-3.74 1.82q.05-.37.15-.73zm-.6 4.74 2.34-1.67 1.53-1.1.93-.65c.26-.22.5-.41.68-.7q-.15.56-.24 1.13l-.8 1.37q-.41-.18-.85 0c-.84.34-1.69.8-2.5 1.19q-.56.26-1.07.54v-.11zm4.96 4.47v.11l-.04.13-.6 1.54q.3-.88.64-1.75zm-4.11 4.69q.32-.69.69-1.37-.17.59-.37 1.17-.12.37-.2.76zm29.66 23.65q-1.15 0-2.25-.1-1.17-.1-2.36-.29a34 34 0 0 1-3.94-.93q-.07 0-.16-.04-2.25-.65-4.37-1.69a29 29 0 0 1-7.42-5.02c.45.09.93-.17 1.17-.6q.68-1.27 1.23-2.58.26-.65.56-1.32l.44.4a37 37 0 0 0 3.3 2.5q1.62.97 3.32 1.77 2.19.93 4.48 1.54 2.2.48 4.44.67 2 .09 4.05-.06h.04c.17 0 .34-.05.34-.05h.1q1.94-.26 3.82-.71h.02c1.54-.46 3.06-1 4.46-1.65q1.08-.51 2.08-1.1l1.2-.74a31 31 0 0 0 3.52-2.77q1.13-1.1 2.16-2.31 1.12-1.43 2.08-2.95.84-1.42 1.56-2.94a39 39 0 0 0 1.06-2.84q.44-1.54.76-3.16.16-1.13.26-2.27c0-.22.04-.41.04-.63q.03-1.72-.06-3.44-.16-1.6-.46-3.16-.35-1.52-.82-3a38 38 0 0 0-1.08-2.56 39 39 0 0 0-1.82-3.18 29 29 0 0 0-1.9-2.51q-.08-.07-.13-.16a23 23 0 0 0-2.39-2.31q-.87-.75-1.77-1.4l1.23-.36q1.43-.38 2.84-.82l2.16-.65a35 35 0 0 1 3.27 3.9 30 30 0 0 1 3.98 7.77 32 32 0 0 1 1.78 8.77q.16 3.19-.35 6.34a29 29 0 0 1-.65 3.33 30 30 0 0 1-3.22 7.94 31 31 0 0 1-5.3 6.76 29 29 0 0 1-7.84 5.5 29 29 0 0 1-9.26 2.79l-1.63.15q-1.24.12-2.5.1h-.2z"/><path fill="#000" d="M292.99 251.45q-1.23 0-2.47-.2-1.61-.22-3.1-.75a19 19 0 0 1-6.06-3.38 18 18 0 0 1-3.59-4.06 19.6 19.6 0 0 1-2.9-8.36q-.07-.67-.08-1.34v-.44q-.07-1.96.36-3.91.37-1.9 1.13-3.68l.15-.35q.15-.38.35-.76.5-1.04 1.12-2l1.21-.38 3.75.13c.58 0 1.1-.43 1.15-1.01q-.01-.29-.11-.55l.65-.2q3.9-1.14 7.81-2.33.35.14.65 0 .17-.07.3-.1.06-.01.11-.05h-.06.02l1.82-.71q1.54-.46 3.1-.96h-.03c-.04 0-.09.05-.1.05q.06-.01.14-.05h.05q1.18-.31 2.36-.67a17.6 17.6 0 0 1 6.94 5.57q.43.21.72.62l.17.26.13.18q.17.29.3.62v.05a22 22 0 0 1 2.54 7.62c.37 3 0 6.19-1.08 9.02l-.29.7q-.09-.01-.21-.05l.13.05-.5-.11s.08 0 .15.02c-.07 0-.1-.02-.2-.04l-.19-.05-.45-.09h-.09.04l-.4-.06c-1.13-.24-2.24-.43-3.36-.65l-1.84-.37h-.11q-.3-.08-.63-.1c-.06 0-.1-.05-.2-.05l.14.04-.91-.17.13.02-.4-.08s.1 0 .14.02l-.4-.09s.1 0 .14.02l-1.43-.28.13.05q-.18-.04-.35-.1.07.01.13.05l-1.43-.28q.07 0 .13.02l-.36-.08c-.1 0-.16-.05-.24-.05l-.24-.04h-.48c-.58-.1-1.14.39-1.2.93l.01.41q0 .19.07.37c.82 2.14 1.69 4.28 2.53 6.4q.84 2.17 1.71 4.34 0 .05.04.1-.97.42-1.97.72-2.37.7-4.85.71H293zm-7.97-11.75c-.56.1-1.1.35-1.51.78a2.6 2.6 0 0 0 3.14 4.07 2.61 2.61 0 0 0-.5-4.72l-.17-.04q-.08 0-.13-.03a2 2 0 0 0-.87-.04zm52.13 2.93q-1.23 0-2.47-.2-1.61-.23-3.1-.76a18 18 0 0 1-6.06-3.37 18 18 0 0 1-3.59-4.07 19.6 19.6 0 0 1-2.9-8.36q-.07-.67-.08-1.34v-.43q-.07-1.97.36-3.92.37-1.9 1.13-3.68l.15-.35q.15-.38.35-.75a18 18 0 0 1 4.32-5.74l2.47-.5 2.82-.58c2.81-.46 5.65-1 8.46-1.48q-.07 0-.13.03 2.54-.36 5.06-.76l-.12.02.47-.08a18 18 0 0 1 7.51 5.8q.42.21.72.62l.17.26.13.18q.17.29.3.62v.05a21 21 0 0 1 2.53 7.62 19 19 0 0 1-3 12.79h-.02q-.01-.02-.1-.04l-1.85-.76-3.57-1.45-4.07-1.67-2.08-.84-.09-.05a1.1 1.1 0 0 0-1.25.33c-.35.24-.52.67-.44 1.1.05.2.09.35.11.54l.46 2.3q-.01-.07-.05-.15l1.7 8.61q-1.9.43-3.82.46zm-9.14-13-.15.18c-.1.1-.24.26-.3.4l-.1.19-.1.2a2 2 0 0 0-.21 1v.35q.07.46.3.94a3 3 0 0 0 .89.93q.46.27 1.02.34h.34c.46 0 .93-.1 1.3-.37q.23-.13.43-.32.42-.4.61-.89c.15-.34.24-.78.2-1.17a3 3 0 0 0-.24-.9 1 1 0 0 0-.13-.3 2.7 2.7 0 0 0-1.76-1.16l-.39-.02h-.26q-.21 0-.38.07-.1 0-.2.04l-.15.07q-.4.14-.7.43z"/><path fill="#ffb13a" d="M253.38 231.2c.1-2.58.96-5.66 2.82-7.6.32-.85 1-1.54 1.95-1.74h.08c5.37-1.14 10.74-2.4 16.1-3.63q8.81-2 17.63-4.07c11.6-2.7 23.22-5.33 34.8-8.05 9.44-2.21 18.9-4.27 28.3-6.6q.16-.07.25-.07c.05 0 .05 0 .09-.02q.2-.04.39-.04.45-.18 1.04-.11c2.16-.67 4.41-.8 6.66-.59 4.6.87 6.7 6.37 5.8 10.56a6 6 0 0 1-.84 1.89q.06.32.06.65l-.12.2-.03.03-.1.14-.72.71q-.1.06-.22.17c-.5.4-1 .74-1.47 1.13l-1.06.82-1.51.35-4.24.97q-4.43.98-8.84 2.04-8.71 2-17.42 4.06c-11.8 2.82-23.62 5.68-35.41 8.47-10.95 2.62-21.9 5.15-32.86 7.8l-1.82.45c-.39.3-.86.5-1.47.51a8.37 8.37 0 0 1-7.81-8.44z"/><path fill="#df6033" d="M279.66 273.5a12.4 12.4 0 0 1-6.32-14.05c.3-1.25.8-2.49 1.5-3.6a14 14 0 0 1 2.87-3.24 12.2 12.2 0 0 1 7.39-2.6q1 0 2 .18h.29q.13.01.24.06l1.04.3q.56.16 1.08.4l.2.08.08.04.17.11c1.87.91 3.51 2.38 4.61 4.1a12.7 12.7 0 0 1 2.04 7.7 12.4 12.4 0 0 1-9.57 11.43 12 12 0 0 1-7.66-.95zm4.7-4q.66.03 1.32 0 .67-.07 1.36-.24.56-.17 1.04-.37.53-.26 1.02-.54l.82-.59a8 8 0 0 0 1.24-1.34l.5-.8.38-.89q.12-.35.22-.71l.13-.74.04-.82q-.01-.49-.08-.95l-.18-.78q-.15-.48-.32-.95-.19-.42-.41-.83-.3-.45-.6-.84-.34-.38-.7-.74-.44-.4-.93-.75-.45-.3-.91-.52-.02.01-.09-.05-.07-.01-.1-.06-.58-.26-1.15-.41-.07-.01-.15-.05l-.07-.02q-.1 0-.2-.04h-.04q-.2-.01-.37-.07-.3-.06-.6-.08-.7-.05-1.39 0l-1.27.21q-.52.16-1 .35-.54.25-1.06.54-.49.33-.95.7l-.6.58-.49.58-.51.85q-.2.42-.37.84-.14.38-.24.8-.09.44-.15.87l-.02.93q0 .3.04.63.09.51.22 1.04l.3.82a8 8 0 0 0 1.7 2.38q.48.41.98.75.65.39 1.32.72l1.06.37q.65.15 1.28.21z"/><path fill="#df6033" d="M297.44 261.32a32 32 0 0 1-7.04-3.23c-1.1-.67-2.12-1.5-3.16-2.27-1.08-.85-1.12-2.64-.43-3.73.67-1.03 2.19-1.53 3.18-.58.41.39.87.74 1.06.89 1.09.8 2.25 1.51 3.14 1.99q2.18 1.1 4.48 1.88 2.54.8 5.13 1.21 2.6.36 5.24.33 2.19-.07 4.35-.46 1.66-.33 3.25-.88c.73-.29 1.5-.61 2.19-1l.12-.06q.5-.28 1.06-.24c1.39.1 2.17 1.5 2.1 2.79-.06.97-.65 2.01-1.55 2.38q-.92.44-1.87.82-3.07 1.18-6.36 1.63-3.48.47-7.01.17a36 36 0 0 1-7.88-1.6z"/><path fill="#df6033" d="M326.57 274c-1.45-1.3-.97-4.18.98-4.7 1.27-.39 2.27-1.51 3.18-2.44 2.47-3.79-1.54-9.33-5.89-8.53-2.5.15-5.37 4.5-7.2 1.02-1.13-2.36 1.25-4.03 3.13-4.92 3.88-2.44 8.8-1.6 11.97 1.6 4.05 4.07 4.55 11.76.05 15.66-1.58 1.34-4.07 3.91-6.2 2.31z"/><path fill="#df6033" d="M292.7 279.76a43 43 0 0 1-13.03-5.71l-.59-.42q-.64-.45-1.25-.95c-1.1-.82-1.17-2.6-.5-3.7.71-1.15 2.1-1.47 3.16-.63q.61.5 1.19.93 1.8 1.27 3.77 2.28 2.86 1.4 5.86 2.38h.07l.26.08h-.05l.24.07c2.77.84 5.6 1.45 8.36 1.86q.15 0 .3.04 4.35.54 8.7.44h.13q3.6-.17 7.1-.85a30 30 0 0 0 4.78-1.4q1.36-.55 2.6-1.24c.7-.41 1.34-.87 2-1.34l.66-.6c.4-.5 1.09-.87 1.74-.8 1.38.1 2.18 1.44 2.14 2.76a3 3 0 0 1-1.17 2.23c-.74.6-1.47 1.24-2.27 1.75a26 26 0 0 1-6.35 2.9 46 46 0 0 1-13.76 1.85 56 56 0 0 1-14.05-1.88z"/><path fill="#df6033" d="M298.84 277.1a3 3 0 0 1-1.02.25c-.93.03-1.6-.47-2-1.2-1.2 1.34-3.5.8-3.8-1.02q-.45.23-1 .28c-.8.06-1.47-.37-1.88-1-1.58 1.67-4.05.4-3.87-1.84-1.52 1.3-3.77.05-3.94-1.8-1.6-.17-2.5-1.86-2.62-3.33-2.19-4.18-2.02-10.52 2.31-13.25.59-2.25 3.53-3.35 4.48-.73 2.45.86 4.53 2.4 6.84 3.5 1.67.55 3.18 1.22 4.66 2.08a2 2 0 0 1 1.58-.26 2.2 2.2 0 0 1 1.3 1.04c1 .37 1.99.15 2.98.33 5.35-1.43 10.87-2.15 16.28-3.27 2.12-.67 4.22-1.67 6.47-1.21 9.48 1.66 13.1 12.5 5.17 18.68-1.9 1.16-4.65 4.3-6.47 1.49a2 2 0 0 1-.8-.71l-.89.19c-1.14 1.52-3.63 3.31-5.23 1.5-2.88.54-7.62 3.74-9.2.17q-.19-.17-.35-.37c-.93.67-2.03 1-3.12.28a2 2 0 0 1-.62-.63c-1.13 1.67-4.03 3.3-5.22.83z"/><path fill="#973310" d="M280.44 276.3c-3.61-.18-6.27-3.2-8.05-6.09-4.4-7.74-.26-18.96 8.18-21.94 3.49-1.09 12.38-1.39 11.9 3.98q.01-.2.05-.43.01-.22-.04-.44c.34 1.82-1.24 3.64-2.84 3.42l-1.06-.45q-.16-.13-.28-.26a9 9 0 0 0-1.23-.41l-.18-.09q-.3-.12-.62-.09c-7.1-1.06-13.49 7.73-9.22 14.07q.28.36.54.65c.1.3.39.59.62.8.3.26.59.55.9.78a10 10 0 0 0 1.81 1.26q.57.3 1.17.5.34.21.67.39.26.6.26 1.32c0 1.34-.95 3-2.42 3h-.11z"/><path fill="#973310" d="M304.23 283.29c-6.69.23-33.53-5.66-31.45-14.57.6-1.52 2.3-2.23 3.7-1.24q1.22 1.34 2.75 2.47c.52.41 1.06.82 1.64 1.13h.05c10 6.23 27.03 7.68 37.05 5.2 5.22-1.33 10.8-3.36 13.53-8.3 2.6-3.9 1.67-10.7-3.38-11.93-5.06-1.25-9.9 1.71-14.71 2.86-4.36.89-8.97.72-13.32-.06l-2.3-.5-.23-.1q-.03-.01-.06-.05a1 1 0 0 0-.5-.15l-.43-.16h.04l-.09-.04h-.02l-.1-.04-.2-.09h.04q-1.14-.53-2.23-1.06-1.33-.6-2.66-1.17l-3.23-1.4-.2-.42c-.73-1.77.31-4.45 2.41-4.5 1.13 0 1.88.93 2.84 1.39 6.12 2.79 13.16 3.85 19.78 2.44 4.91-1.53 9.98-3.94 15.22-3 10.6 1.77 12.53 16.12 6.12 23.33-6.5 8.22-17.85 9.93-27.88 9.93q-1.07 0-2.12-.02z"/><path fill="#973310" d="M300.12 270.67a55 55 0 0 1-9.1-2.25 73 73 0 0 1-7.98-3.34h.02c-1.1-.54-1.95-1.57-1.77-2.87a2.2 2.2 0 0 1 1.27-1.73 3.2 3.2 0 0 1 2.77.08q.26.13.48.28l.17.11q1.65.95 3.38 1.69c1.69.7 3.44 1.25 5.2 1.77a63 63 0 0 0 6.42 1.39h.09q2.85.42 5.74.5 2.33.03 4.7-.2c1.2-.15 2.4-.32 3.22-.52q1.5-.35 2.94-.93.9-.38 1.73-.84.38-.22.74-.48a2.6 2.6 0 0 1 1.84-.78c1.51 0 3.07.95 3.38 2.53a2.3 2.3 0 0 1-1.26 2.5q-1.48.9-3.05 1.6c-1.93.8-3.94 1.32-6 1.66-2.14.4-4.33.54-6.51.54a58 58 0 0 1-8.42-.69z"/><path fill="#152c4c" d="m351.58 211.32.15-.17.02.09-.65.6.48-.54zm-6.68-5.8s.09.15.11.24q.07.06.09.13a4 4 0 0 1-.46-1.39 112 112 0 0 0-3.44-8.96 98 98 0 0 0-4.91-9.48 76 76 0 0 0-5.3-7.62 68 68 0 0 0-5.18-5.67 53 53 0 0 0-4.82-4.07l-.22-.15a48 48 0 0 0-5.22-3.2 37 37 0 0 0-4.48-1.91q-2-.67-4.11-1.08-.06-.87-.17-1.74-.16-1.52-.35-3.05l-.15-1.19c4.02.59 7.85 1.97 11.32 3.77 7.88 4.09 14.37 10.58 19.44 17.81a95 95 0 0 1 12.12 24.53q.36.6.47 1.25.08.2.11.41l-.58.41-.41.16q-1.05.42-2.06.95c-.39.22-.8.39-1.2.63l-.3.2q-.15-.51-.34-.98zM257.99 220a100 100 0 0 1 4.26-26.32c2.62-8.44 6.43-16.58 12.06-23.44a44 44 0 0 1 9.45-8.62 34 34 0 0 1 11.8-5.02q.37-.1.74-.15h.15q.42-.12.84-.05 1.17-.17 2.34-.23v.13l-.13 1.55-.04.52-.04 2.73v.89q-.74.05-1.48.15a3 3 0 0 1-1.14.26l-.22.04h-.02q-2.14.46-4.18 1.17c-1.67.65-3.27 1.4-4.52 2.12-1.52.91-2.95 1.9-4.18 2.88a45 45 0 0 0-8.5 9.46 66 66 0 0 0-3.77 6.4 76 76 0 0 0-3.62 8.58 93 93 0 0 0-4.59 22.34c-.21 2.75-.34 5.5-.34 8.16q-.37.12-.74.28c-.65.3-1.28.76-1.84 1.19a27 27 0 0 0-2.34 2.1q-.08-3.57.02-7.14zm90.07-2.3q.17.19.4.27c.27.08.55.17.83.17q.16.01.35-.04.5-.12.9-.37.4-.22.74-.48.78-.59 1.5-1.23l.13.67q-.65.3-1.28.63-.73.38-1.43.78l-1.67 1-.17.1-.28-1.51zm-28.36 88.64.32-2.12q.35-2.1.65-4.22.76-.3 1.52-.63a33 33 0 0 0 7.03-4.33 47 47 0 0 0 4.63-4.37 49 49 0 0 0 3.49-4.37q2.36-3.46 4.26-7.17a76 76 0 0 0 3.49-8.24 87 87 0 0 0 2.79-9.87l.06-.28v-.07q.79-3.63 1.28-7.3.56-.2 1.08-.47a28 28 0 0 0 4.25-2.62q-.31 3.26-.8 6.47a86 86 0 0 1-7.75 25.13 60 60 0 0 1-7.32 11.41 45 45 0 0 1-4.5 4.83 44 44 0 0 1-5.02 3.94 33 33 0 0 1-9.48 4.37v-.09zm-15.7.36c-8.47-2-16-7.2-21.9-13.47a79 79 0 0 1-14.28-21.82l-.3-.67q-.1-.2-.17-.39a113 113 0 0 1-7.34-23.8q-1.11-5.82-1.62-11.68.11.01.23.05.04.31.22.63c.15.26.46.5.78.56.04.26.1.5.28.7.2.23.48.43.76.49q.34.07.67.09.2.01.39-.05.55-.13 1.04-.43l.26.15a1 1 0 0 0 .56.04q.32 2.86.76 5.57 1.12 6.75 3.05 13.33c1.21 4.05 2.64 8.03 4.18 11.54l.2.43q.06.1.08.2l.93 2a74 74 0 0 0 9.33 15.09 62 62 0 0 0 5.1 5.57l.16.15a54 54 0 0 0 4.85 4.07 44 44 0 0 0 4.91 3.05 39 39 0 0 0 5.33 2.27q2.1.67 4.3 1.04 2.6.4 5.26.37 1.11-.04 2.21-.17.1.16.22.3l.24.2q.2 1.35.5 2.72.24 1.24.56 2.5-2.15.3-4.33.3-3.72 0-7.36-.87z"/><path fill="#973310" d="M288.88 218.08c-1.56-.48-2.06-2.3-1.71-3.66v-.06c.45-2.45.75-4.94 1.12-7.4l1.26-8.3q1.26-8.75 2.57-17.5c1.73-11.76 3.5-23.51 5.07-35.31q0-.13.04-.26-.01-.2.04-.4 0-.05.03-.14c.19-1.43 1.32-2.86 2.9-2.67 1.49.18 2.42 1.89 2.16 3.3v.15l-.1.43c-.46 2.53-.8 5.06-1.2 7.6q-.68 4.32-1.3 8.61l-2.57 17.66-2.58 17.67a1042 1042 0 0 0-2.47 17.44v.22c-.17 1.34-1.23 2.68-2.62 2.68q-.3 0-.64-.08z"/><path fill="#973310" d="m323.41 208.1-.02-.07v-.02l-.06-.15q.01.08.06.17c-1.77-4.93-3.72-9.78-5.6-14.67q-3.13-8.11-6.3-16.24-3.21-8.18-6.4-16.4-1.6-4.2-3.28-8.36c-.85-2.12-1.65-4.24-2.53-6.34l-.11-.24-.05-.1s0-.05-.02-.07c-.6-1.39-.17-3.25 1.15-4.07 1.3-.8 2.84-.1 3.42 1.21q.03.1.07.15l.15.46c1.88 5.2 3.94 10.35 5.95 15.52l6.5 16.73q3.15 8.14 6.36 16.3l3.14 8.03c.73 1.88 1.45 3.77 2.2 5.54q.32.62.35 1.36c.04 1.35-.89 3.19-2.47 3.19a2.6 2.6 0 0 1-2.55-2.04v.07z"/><path fill="#152c4c" d="M316.67 316.27q-.33-.44-.58-.95l.02.05q.04.1.1.17l-.23-.52c-.26-.56-.58-1.1-.84-1.62l-1.7-3.25-3.82-7.43a1767 1767 0 0 0-9.55-18.29l-.17-.3q-.01-.07-.07-.1-.06-.14-.13-.24l-.02-.07q-.16-.44-.24-.93l.94.15.62.09q.19.01.41.06h-.15.05q1 .12 1.99.18l1.1.02h1.01c4.44 8.76 9.06 17.42 13.58 26.14l1.23 2.34.05.09.02.04q.15.22.28.48.17.34.3.7a3.4 3.4 0 0 1-.6 3.17 2.4 2.4 0 0 1-1.84.87q-1.02.01-1.76-.82z"/><path fill="#152c4c" d="M317.76 316.15c-.95-.93-1.02-2.31-.7-3.53 1.4-7.14 2.58-13.52 4.03-20.39a117 117 0 0 0 2.26-11.53q1.28-.4 2.48-1 1.16-.56 2.25-1.23l.74-.46q.06 0 .13-.04.06-.01.15-.07c0 .65-.1 1.32-.3 1.89-1.32 5.95-2.36 12.01-3.85 17.96-1.15 5.72-1.97 11.6-3.2 17.23a2.8 2.8 0 0 1-2.52 1.82 2 2 0 0 1-1.47-.65"/><path fill="#152c4c" d="M326.85 342.27c0-1.23.75-2.75 2.03-3.07q.15-.08.35-.15a81 81 0 0 0 9.7-5.78l.14-.1a92 92 0 0 0 18.06-16.8l.13-.18q4-4.96 7.4-10.34a119 119 0 0 0 6.77-12.6c2.04-4.5 3.8-9.1 5.26-13.7q2.33-7.59 3.8-15.4 1.48-8.34 1.98-16.81a144 144 0 0 0-2.5-35.54 147 147 0 0 0-4.73-17.8 146 146 0 0 0-6.8-16.7l-.1-.24c0-.05-.04-.09-.04-.09a136 136 0 0 0-9.05-15.76 129 129 0 0 0-10.46-13.53 115 115 0 0 0-12.12-11.77q-.04-.02-.08-.09-.1-.06-.2-.17-6.31-5.2-13.33-9.44a94 94 0 0 0-13.68-6.7h-.05s-.06-.05-.08-.05l-.18-.07.22.09h.04l-1.14-.43h-.05q-.15-.07-.34-.13c-1.45-.59-1.75-2.62-1.26-3.9.52-1.34 1.82-2.14 3.18-1.69l-.12-.04q.07.01.15.06.3.07.56.2a107 107 0 0 1 29.13 17.36 126 126 0 0 1 23.08 25.63 141 141 0 0 1 16.01 31.38 153 153 0 0 1 8.12 34.5 148 148 0 0 1 0 34.03 133 133 0 0 1-8 32.7 114 114 0 0 1-17.17 30.2 97 97 0 0 1-23.75 21.4 87 87 0 0 1-4.95 2.9c-.5.3-1.02.55-1.54.83l-.6.3c-.35.24-.8.42-1.22.42-1.56 0-2.57-1.35-2.57-2.84z"/><path fill="#294c7d" d="M298.97 431.34c-3.85-.78-1.8-6.38-2.18-9.13-.2-2.88-1.22-8.36 2.88-8.7 1.75.13 2.55 2.1 2.12 3.63-.44 1.95.23 3.97.1 5.94-.54 2.77 1.32 7.98-2.92 8.24z"/><path fill="#905700" d="M253.45 342.28q-.64-.31-1.02-.91l-.89-.83q-.85-.82-1.69-1.66a123 123 0 0 1-6.04-6.7 141 141 0 0 1-18.7-28.97 168 168 0 0 1-11.75-32.32 192 192 0 0 1-5.46-59.29c.52-8.13 1.58-16.19 3.03-23.78a172 172 0 0 1 9.66-32.67 141 141 0 0 1 11.82-22.83c6.38-9.9 13.98-19.05 23.07-26.6a97 97 0 0 1 11.17-8 101 101 0 0 1 7.94-4.32c1.39-.7 2.84.09 3.38 1.47.6 1.52.04 3.33-1.3 4l-.17.07-.11.04a76 76 0 0 0-9.46 5.22l-.15.1h-.02a100 100 0 0 0-10.76 8.26 107 107 0 0 0-9.98 10.21 124 124 0 0 0-9.26 12.5c-3.16 4.93-6 10.08-8.51 15.36q-4.2 9-7.3 18.44a175 175 0 0 0-5.19 20.26 185 185 0 0 0-2.88 45.59v.29c.5 7.8 1.45 15.53 2.82 22.8a186 186 0 0 0 5.3 21.1q.13.36.24.74.05.2.15.41.3.94.63 1.86l1.19 3.4c1.58 4.33 3.35 8.6 5.28 12.73q0 .03.04.06l.09.18c2.64 5.58 5.6 11 8.7 15.88q4.58 7.16 10.02 13.66c2.7 3.19 5.59 6.3 8.7 9.1a3.3 3.3 0 0 1 1.04 3.4c-.28 1.12-1.23 2.11-2.44 2.11q-.65-.02-1.13-.32zm53.34 27.25a87 87 0 0 1-11.06-1.54 55 55 0 0 1-11.8-3.7 26 26 0 0 1-4.8-2.82 2.4 2.4 0 0 1-1.06-1.99c.04-1.58 1.62-2.49 3.05-2.49.86 0 1.62.37 1.97.67q.37.3.73.54a30 30 0 0 0 6.45 3.1c2.17.74 4.38 1.34 6.54 1.8 3.23.65 6.47 1.12 9.33 1.36l.45.04c4.6.37 9.18.46 13.36.3q7.32-.31 14.48-1.49h.06l.2-.04a100 100 0 0 0 11.19-2.55c1.34-.42 2.66-.91 4-1.35 1.41-.45 3.2-.1 3.97 1.32.7 1.39-.2 2.84-1.52 3.36h-.06q-.06 0-.11.04-.19.08-.37.11-1.31.43-2.56.8a118 118 0 0 1-31.34 4.83 101 101 0 0 1-11.15-.3h.07z"/><path fill="#905700" d="M266.45 347.12c-1.32-.8-1.39-2.66-.63-3.87.43-.59.76-1.4.88-2.06 1.35-3.07-1.53-6.15-4.47-4.46-2.52 2.23-4.44 5.15-7.17 7.17l-.22.06c-.47.17-.93.41-1.43.59l-.34.08h-.04q-.39.07-.74.07h.09q-1.22.03-2.43-.05c-.78-1.03-.6-2.7.24-3.68 4.98-2.68 7.25-8.8 12.88-10.34 5.41-1 10.28 4.07 9.13 9.44-.52 2.44-1.49 7.33-4.46 7.33q-.58.01-1.27-.28z"/><path fill="#905700" d="M265.77 345.74a3.3 3.3 0 0 1 2.99-2.92h.6c4.65 0 9.29-.26 13.94-.4 1.02-.01 2.06-.01 3.07-.1q.27-.06.52-.06h.26c1.74.15 2.56 1.94 1.95 3.55-.5 1.32-1.86 2.29-3.18 2.12-.15 0-.3-.07-.43-.11q-.2-.06-.4-.18l.12.07.34.13q.17.02.33.06h.04-.04q-1.62.01-3.23.1l-3.5.1c-2.23.09-4.46.1-6.7.17-1.18.03-2.37.11-3.56.15q-.19.05-.42.05h-.43c-1.47 0-2.42-1.32-2.27-2.75z"/><path fill="#905700" d="M278.06 361.65c-1.54-.2-2.06-2.08-1.67-3.35.59-2.28 2.9-2.4 4.83-2.51 3.61-.74 10.73 0 9.76-5.59a4.6 4.6 0 0 0-3.2-2.16c-1.26-.29-2.56.45-3.68-.35-1.78-1.23-1.1-4.1.65-5.02 4.26-1.5 9.52.67 11.27 4.87 1.48 4.28-1.1 9.28-4.67 11.73-2.04 1.3-4.59 1.45-6.93 1.67-2.1.2-4.2.82-6.34.69z"/><path fill="#905700" d="M262.2 384.8c-4.01-.3-7.78-1.98-11.28-3.82-.98-.3-1.45-1.22-1.5-2.17.56.3 1.39-.04 1.52-.69q.19-.98.24-1.95.1.04.19.04c.5.07.93-.23 1.15-.67l.06-.17q.35 0 .7.13c6.14 3.7 15.08 6.08 20.1-.7a14.8 14.8 0 0 0 3.27-12.29c-1.6-2.64-.26-6.94 3.33-6 1.09.38 1.58 1.65 1.43 2.71 3.47 11.43-5.37 25.65-17.64 25.65q-.78 0-1.6-.08zm-23.18-37.05c-2.4.04-3.49-3-2.23-4.85a19 19 0 0 1 3.44-3.44c3.5-2.25 9.2-2.27 12 1.13a6 6 0 0 1 1.36 3.87l-.18.06q-.16.03-.34.1h-.05q-.39.05-.73.06h.08c-1.12.04-2.22-.03-3.35-.11h-.09q-.37-.02-.73-.09c-1.71-1.15-4.7-.78-6.17.63-.82 1-1.26 2.62-2.77 2.62H239z"/><path fill="#905700" d="M249.55 379.6a2 2 0 0 1-.78-.2q.07-.38.09-.8-.01-.17.04-.35.16.32.48.5c.56.34 1.45 0 1.58-.65q.19-.97.24-1.95c.06 0 .1.04.2.04.36.05.68-.1.92-.34l-.06.8c-.05 1.4-1.06 2.94-2.58 2.94z"/><path fill="#294c7d" d="M418.6 326.09q.49-12.51.74-24.98c.4-2.73-1.21-7.86 2.7-8.3 3.77.61 2.04 5.5 2.28 8.13-.2 8.18-.32 16.34-.65 24.52.33 3.77-4.7 4.63-5.06.63m14.13.76c.02-9.92.93-19.12.58-28.9-.04-2.03-.2-4.68 1.73-5.95 2.7-1.67 4.87 2.2 3.31 4.41.2 9.94-.51 19.87-.58 29.83.33 3.76-4.7 4.61-5.04.63zm17.52-25.99c-1.28-1.88-.1-4.02 1.54-5.2.97-1.2 2.16-2.46 3.87-2.18 3.2.18 3.1 5.7.02 6-1.3 1.62-3.74 3.83-5.43 1.4zm-4.06 29.81c-2.21-7.08-.98-16.15 4.28-21.58 3.18-2.34 7.4-1.5 11.02-1.88 1.73.39 2.3 2.42 1.88 3.94-.58 2.16-2.94 2.42-4.82 2.2-3.2-.3-6.24.1-6.97 3.75-1.8 4.07-1.7 8.6-.35 12.7.37 3.6-4.46 4.7-5.04.8zm-213.16 44.57c-1.03-1.17-.84-2.82-.73-4.25.56-8.42 1.23-17.1 1.86-25.4.78-3.99 5.74-2.56 4.98 1.2-.7 8.58-1.52 17-1.86 25.53.67 2.44-2.25 5.17-4.27 2.94zm15.46 1.16v-.31c.12-1.93.07-3.85.12-5.78.04-2.66 0-5.35.04-8.03.02-2.6 0-5.2.04-7.8 0-2.37.07-4.74.05-7v-.55c-.3-1.58.56-3.5 2.25-3.72.9-.11 1.75.37 2.25 1.1.63.93.65 2.06.3 3.1q.04-.14.09-.24.05-.24.09-.32l.02-.29q-.06.9-.05 1.78 0 1.87-.04 3.74-.01 4.12-.06 8.2c-.03 5.07-.09 10.14-.05 15.2v.4c.02.19.05.4 0 .49 0 1.38-.78 2.88-2.3 3.1h-.27c-1.54 0-2.64-1.65-2.51-3.1z"/><path fill="#915700" d="M236.76 349.52c-3.32-1.08-1.87-5.17-.05-7 .82-.87 1.56-2.09 2.92-2 1.54.09 2.52 1.71 2.4 3.14 0 1.56-1.27 2.4-2.14 3.53-.54 1.3-1.53 2.72-3.13 2.33m14.62-2.34c-1.1.05-1.7-1.08-2.45-1.56-.54-.45-1.23-.54-1.77-1-2.93-3.22.82-7.48 4.26-4.24 2.64-2.68 5.67 1.93 3.49 4.23-1.09 1-1.87 2.64-3.51 2.6z"/><path fill="#915700" d="M227.45 349.83c-20.62-1.02-21.64-20.65-12.44-35.02 2.55-5 3.44-9.8-.41-14.4-4.27-2.4-9.16-3.87-13.97-2.03-4.04 1.97-7.07 5.9-9.09 9.85-1.1 1.94-1.1 6.01-4.2 5.54-2.48-.33-2.9-3.55-1.66-5.33 1.1-1.58 1.5-3.46 2.5-5.1 3.26-4.79 7.28-10.11 13.3-11.22 5.24-1.27 10.2.13 14.74 2.66 4.24 2.71 6.47 8.55 6.08 13.49-.54 7.31-5.97 12.97-7.38 20.06-3.79 13.36 10.13 17.5 20.63 15.11 3.42-.86 4.3 4.94 1.19 5.8-3.1.65-6.21.72-9.27.59zm57.58 26.06c-2.81-.48-8.76 1-8.76-3.27.26-1.54 1.97-2.32 3.4-2.14 5.73.8 11.53.04 17.27.25a3 3 0 0 1 1.7 1.09c1.35 1.84-.4 4.09-2.5 4-3.68-.32-7.4.3-11.1.07"/><path fill="#294c7d" d="M260.31 405.87c-2.53-.52-8.05-.98-6.8-4.74.7-1.34 2.58-1.8 3.92-1.21 8.36 3.1 17.17.88 25.17-2.08 3.1-1.28 17.97.08 15.59 5.3-.89 2-3.94 2.08-5.26.46-5.65-2.84-11.24.19-16.75 1.68-5.11 1.7-10.61 1.26-15.87.57zm61.19-10.95c-3.2 0-6.37-.48-9.25-1.95-1.83-.54-4.58-1.71-3.5-4.11 2.19-3.38 6.1.15 8.9.69 4.32.58 8.93.48 13.03-1.13 6.75-2.81 13.96-7.18 21.42-4.56 1.24.3 2.36 1.45 2.19 2.79-1.34 4.48-6.56.1-9.5 1.82-7.8 2.46-14.83 7.14-23.31 6.47z"/><path fill="#915700" d="M394.66 328.03c-3.22-3.35 2.45-7.14 3.6-10.37 4.32-7.6 8.72-15.58 11.77-23.65.26-1.13.63-2.1 1.69-2.7 1.84-1 4 .83 3.76 2.8-1.94 5.76-4.87 11.32-7.75 16.74a120 120 0 0 1-8 14.3c-1.3 1.78-2.7 4.55-5.07 2.9z"/><path fill="#973310" d="M324.84 433.23c-4-.02-7.32-3.35-9.42-6.51-1.12-2.56-1.3-5.46-1.25-8.2-.18-2.13.15-4.85-2.1-6-.59-.2-1.2.04-1.67.39-1.19.78-2.96.9-3.87-.4-.87-1.25-.18-2.96 1-3.74 2.87-2.23 7.29-2.36 9.84.44 4.2 4.17.82 10.8 3.75 15.45 1.88 1.95 3.35 3.46 6.03 3.35 3.4.3 6.5 0 8.23-3.18-.95-1.97-2.58-3.72-2.69-6 0-1.55.4-3.09.87-4.56 1.95-4.09 7.01-5.95 10.84-7.88 3.64-1.9 7.67-2.81 11.48-4.15 1.53-.59 3.24.13 3.52 1.84a3.2 3.2 0 0 1-1.05 2.7c-.79.74-1.76.89-2.78 1.06a45 45 0 0 0-16.66 7.51c-1.45 2.7.84 4.72 1.9 7.08 1.1 2.77-.93 5.22-2.66 7.19-3.25 3.85-8.64 4.22-13.31 3.63zm20.84 11.34c-4.48-1.4.4-6.77 1.06-9.44 2.88-6.99 8.6-12.87 14.81-17 2.66-1.42 9.98-5.61 12.4-3.02 1.17 1.22.35 3.19-.84 4.03-8.96 1.5-16.45 7.9-20.67 15.9-.87 2.28-2.08 4.68-2.97 6.83-.43 1.66-2.01 3.03-3.76 2.73zm25.91 25.69c-9.31-.43-18.6-2.6-27.56-4.87-2.27-.4-7.88-.24-7.3-3.66 1-3.76 4.66-2.31 7.35-1.73 7.62 1.04 15.21 4.05 22.88 4.46 8.83.74 24.65 1.6 26.73-9.54-1.02-2.6 2.85-5.63 5.15-4 1.82 1.38.32 3.7.04 5.47-2.57 11.77-17.14 13.98-27.34 13.85zm-102.45-10.61c-8.25-1.92-12.51-8.94-9.85-17.05-.07-1.63.13-4.57-2.32-3.73a7 7 0 0 0-2.9 1.24c-1.23.8-1.86 2.42-3.22 2.96-3.19 1.24-4.46-3.68-2.02-5.24 2.99-3.5 8.99-7 13.18-3.54 2.52 2.6 2.62 6.66 2.13 10.04-.3 1.69-1.06 3.46-.05 5.06 3.1 5.61 10.7 5.78 15.15 1.84a50 50 0 0 1-2.27-7.6c-.39-4.84 3.9-8.6 7.86-10.64 6.99-3.14 30.74-8.49 29.96 4.35-.11 2.79-1.06 4.87-2.04 7.14-.39 1.67-1.4 3.81-3.48 3.33-1.48-.34-2.12-2.12-1.76-3.48.65-2.75 2.64-5.07 2.08-7.84-5.24-2.4-11.9-1.43-17.27-.02-5.4 1.39-12.92 3.49-8.99 10.41.87 2.36 1.93 5.07.18 7.3-1.32 1.84-3.18 3.52-5.44 4.02-2.7 1.41-5.86 2.19-8.91 1.45z"/><path fill="#973310" d="M337.5 488.8c-.91-.73-1.02-2.07-.82-3.15 1.64-6.47 2.22-13.31-.2-19.66-5.09-14.85-25.1-21.01-37.9-11.97-3.5 2.58-7.36 6-7.66 10.6-.13 2.48-3.49 3.97-4.92 1.59-1.19-2.49.7-5.2 1.54-7.51 5.28-10.05 17.2-15.67 28.33-14.57 7.17.65 14.05 4.16 19.16 9.18a32 32 0 0 1 8.05 23.5c-.34 3.04-.6 6.09-1.3 9.07.37 2.28-2.33 4.7-4.3 2.93zm-38.64-56.22c-3.72-.74-1.67-5.59-1.51-8.03a36 36 0 0 1 2.9-8.64c.51-1.64 1.73-3.57 3.7-3 1.56.32 2.25 2.05 1.88 3.52-.95 1.97-2.2 3.77-2.86 5.93-.6 2.06-.97 4.59-1.19 6.56.11 1.71-1.01 3.77-2.94 3.66z"/><path fill="#973310" d="M296.75 495.4a101 101 0 0 1-27.51-9.5 77 77 0 0 1-12.45-8.04c-3.77-2.98-7.34-6.45-9.98-10.5-2.57-3.91-4.5-8.44-4.48-13.2a18 18 0 0 1 5.5-12.81q.1-.14.24-.24l.26-.24.24-.22c1.1-.99 2.83-.58 3.55.66a3.3 3.3 0 0 1-.65 3.96l-.11.08-.26.24q-.56.55-1.08 1.13-.5.57-.91 1.19-.37.58-.67 1.19-.3.63-.52 1.3-.17.55-.3 1.12-.11.6-.18 1.26-.03.64 0 1.32c.04.6.1 1.2.13 1.42q.21 1.13.54 2.24.45 1.32 1.04 2.61.64 1.3 1.43 2.54.1.16.2.28a40 40 0 0 0 3.18 4.13 52 52 0 0 0 5.3 5.05 73 73 0 0 0 9.46 6.49 93 93 0 0 0 14.02 6.5 105 105 0 0 0 16.13 4.4c4.93.9 9.93 1.44 14.59 1.46q5.26.02 10.47-.74h.09l.2-.04q3.27-.56 6.42-1.56a36 36 0 0 0 4.03-1.64q1.01-.52 1.97-1.13l.2-.13c.32-.2.69-.35 1.06-.35 1.55 0 2.55 1.26 2.55 2.77 0 1.15-.76 2.6-1.9 3.04l-.66.36a35 35 0 0 1-3.87 1.84 46 46 0 0 1-9.8 2.64q-5.19.81-10.44.8c-5.67 0-11.36-.64-16.92-1.7z"/><path fill="#915700" d="M302.2 343.04c-11.1-3.51-21.13-9.85-29.63-17.75a106 106 0 0 1-16.67-20 137 137 0 0 1-15.28-32.69 158 158 0 0 1-6.9-35.17 158 158 0 0 1 1.07-35.41 141 141 0 0 1 9.66-35 88 88 0 0 1 1.88-4.16c5.09-10.67 11.67-20.63 20.02-29 8.14-8.16 18.01-14.57 28.99-18.2q.2-.11.39-.18h-.05q.05 0 .09-.02h.04q.19-.07.37-.11 1.21-.37 2.42-.67l1.5-.4c.58-.14 1.17-.23 1.73-.38q.32-.1.6-.07a62 62 0 0 1 24.64.22c.21.04.43.1.52.13 11.77 2.58 22.5 8.42 31.73 16.08 9.42 7.82 17.19 17.62 23.33 28.14 5.15 8.79 9.2 18.18 12.3 27.82l.1.34v.05a153 153 0 0 1 4.55 18.22 160 160 0 0 1 2.62 35.11 150 150 0 0 1-5.13 34.37c-3.14 11.45-7.66 22.64-13.92 32.75a100 100 0 0 1-8.53 11.88 90 90 0 0 1-8.42 8.81c-8.48 7.67-18.55 13.53-29.65 16.43a60 60 0 0 1-15.22 1.93c-6.51 0-13-1.02-19.24-2.97zm26.28-3.32a66 66 0 0 0 9.21-1.92c3.14-.95 6.2-2.15 8.94-3.42l.26-.13a74 74 0 0 0 8.27-4.79 79 79 0 0 0 15.5-14l.07-.09q.16-.2.3-.34l.15-.2h.02q3.81-4.66 6.97-9.56 3.64-5.75 6.6-11.91c2.08-4.46 3.94-9.05 5.4-13.33a146 146 0 0 0 4.47-17.02c1.1-5.78 1.89-11.6 2.32-17.25q.71-10.1.15-20.22-.59-9.74-2.34-19.34a162 162 0 0 0-4.3-17.39v-.06c-.05-.11-.07-.22-.18-.56a141 141 0 0 0-6.25-16.06q-3.52-7.5-7.92-14.48a119 119 0 0 0-9.33-12.52 99 99 0 0 0-9.16-9.13l-.15-.13-.28-.26q-.07-.07-.13-.1l-.07-.07c-3-2.51-6.12-4.83-9.26-6.82l-.26-.18q-.17-.12-.35-.21a78 78 0 0 0-10.02-5.1 72 72 0 0 0-10.09-3.21 65 65 0 0 0-10.21-1.39c-3.27-.13-6.54 0-9.6.37a62 62 0 0 0-4 .65q-.25.13-.54.15c-.6.06-1.23.26-1.81.39q-1.3.3-2.58.67c-.52.17-1.17.46-1.71.52a74 74 0 0 0-7.43 2.88 72 72 0 0 0-8.26 4.72 81 81 0 0 0-8.49 6.6l-.32.3a84 84 0 0 0-7.32 7.64 102 102 0 0 0-7.27 9.87 117 117 0 0 0-6.47 11.65 128 128 0 0 0-10 30.8 154 154 0 0 0-2.32 17.6 162 162 0 0 0-.15 19.44c.37 6.53 1.15 13 2.25 19.06q1.75 9.47 4.61 18.58a147 147 0 0 0 6.26 16.03q3.52 7.49 7.9 14.42 4.15 6.44 9.1 12.25 4.52 5.2 9.7 9.72a86 86 0 0 0 10.14 7.45 78 78 0 0 0 10 5.13 70 70 0 0 0 10.17 3.26q5.04 1.09 9.98 1.41h.24c3.3.13 6.62 0 9.67-.39z"/><path fill="#915700" d="M255.98 224.33c-.17-1.45.65-3.14 2.19-3.47q.15-.01.3-.06.16-.02.28-.09.22-.06.41-.06c4.94-1.04 9.83-2.19 14.74-3.3l17.34-3.89q17.92-4.06 35.8-8.2 7.76-1.8 15.52-3.57 3.94-.9 7.84-1.84c2.36-.57 4.72-1.09 6.69-1.65l.36-.1c.37-.11.74-.25.8-.25q.16-.06.33-.08c1.7-.35 2.9 1.3 2.9 2.86 0 .84-.33 1.7-.93 2.31a2.6 2.6 0 0 1-1.73.8h-.07q-1.38.22-2.77.52-2.18.46-4.33.96-4.35.96-8.7 1.97l-17.94 4.1q-17.73 4.06-35.46 8.21l-16 3.77c-4.56 1.08-9.13 2.1-13.67 3.24q-.24.1-.5.13l-.43.09q-.09 0-.18.04-.24.07-.5.07c-1.27 0-2.22-1.28-2.38-2.49z"/><path fill="#915700" d="M258.43 240.55c-10-2.15-8.49-17.8.45-19.94 1.5.2 2.43 1.88 2.17 3.29-.11 2.14-2.3 2.6-3.42 4.05-2.73 3.72-.09 7.27 4.24 7.1 3.42-.46 3.8 5.23.7 5.86-1.37.24-2.84-.08-4.14-.37"/><path fill="#915700" d="M260.44 238.14c-.2-1.39.6-3.23 2.14-3.5l.33-.1q.15-.03.32-.04c2.02-.39 4.03-.93 6.04-1.38q4.23-.97 8.42-1.9 8.52-1.92 17.04-3.9c11.86-2.75 23.72-5.46 35.58-8.25q8.75-2.06 17.47-4.16c5.28-1.27 10.58-2.46 15.87-3.83q.22-.06.45-.1.23-.11.45-.16.37-.09.74-.06h.13c.84.13 1.6.78 1.95 1.6a3.4 3.4 0 0 1-1.37 4.1q-.47.25-1.04.27h-.06q-1.1.2-2.16.48-1.89.44-3.77.84l-8.27 1.89-17.62 4.02c-11.7 2.69-23.37 5.5-35.06 8.23a4429 4429 0 0 0-33.73 8.05l-.3.06q-.15.07-.3.09-.17.02-.33.09-.25.06-.52.06c-1.25 0-2.23-1.23-2.38-2.44z"/><path fill="#915700" d="M362.82 213.97c-.37-1.41.23-3.25 1.7-3.8.33-.12.61-.36.85-.6.97-1.28.32-3.35-.43-4.6-1.21-1.16-3.12-1.26-4.7-1.59-1.84 1.8-4.52-.4-4.05-2.64.46-6.3 12.15-2.58 13.5 1.65 1.61 3.65 2 8.42-.94 11.51-1.48 1.93-5.05 3.3-5.91.09z"/><path fill="#000" d="M184.45 310.41v-.06a5 5 0 0 0-.34-.8l-.09-.2a257 257 0 0 1-6.45-16.1q-2.97-8.44-5.24-17.1a193 193 0 0 1-5.78-34.6c-.9-12.07-.67-24.21.78-36.23a159 159 0 0 1 8.16-34.65 140 140 0 0 1 15.5-31c.43-.64.89-1.27 1.1-1.6a124 124 0 0 1 23.9-25.95q4.8-3.87 9.96-7.3 2.75-1.78 5.6-3.44c1.32-.8 2.82-.21 3.51 1.13.78 1.5.35 3.44-1.17 4.26l-.21.13q-7.23 4.13-13.77 9.27-6.94 5.55-12.97 11.99a125 125 0 0 0-19.54 28.07 138 138 0 0 0-7.28 16.78 158 158 0 0 0-5.21 18 170 170 0 0 0-3.2 20.37q-1.02 11.2-.65 22.47c.3 7.7 1.08 15.35 2.25 22.97a203 203 0 0 0 5.21 23.22q3.58 12.17 8.53 23.68v.05l1.3 2.83c.2.44.39.87.54 1.13.72 1.25.63 2.98-.45 4q-.7.6-1.52.6a2.7 2.7 0 0 1-2.47-1.88z"/><path fill="#000" d="M232.51 102.5c.28-1.6 1.88-2.46 3.38-2.46h-.41l-.3.04q5.29-.89 10.56-1.88 8.24-1.54 16.47-3.1c11.4-2.16 22.79-4.26 34.2-6.4 3-.56 6.04-1.13 9.02-1.78 1.39-.3 3.1.42 3.34 1.93a2.4 2.4 0 0 1-.46 1.78c-.43.62-1.27 1.27-2.08 1.34h-.02c-5.13.8-10.21 1.82-15.3 2.77q-8.55 1.59-17.08 3.2c-11.12 2.12-22.27 4.1-33.38 6.26-1.53.3-3.1.56-4.56.93q-.43.09-.89.08c-1.45 0-2.73-1.25-2.47-2.72z"/><path fill="#000" d="M411.2 297.17c-1.26-.8-2-2.53-1.35-3.94v-.04q.08-.19.17-.35a73 73 0 0 0 1.41-3.48l.22-.55a134 134 0 0 0 5.52-18.74c1.6-7.4 2.68-14.91 3.22-22.1a175 175 0 0 0 .15-22.86 174 174 0 0 0-2.66-21.51 183 183 0 0 0-5.8-22.62 175 175 0 0 0-7.77-19.44 164 164 0 0 0-9.29-16.8 157 157 0 0 0-10.08-13.94l-.11-.13-.07-.08a134 134 0 0 0-10.97-11.76l-.15-.15s-.04-.02-.04-.04l-2.15-1.95c-2.81-2.53-5.8-4.91-8.79-7.1a96 96 0 0 0-21.88-12.06 91 91 0 0 0-10.5-3.3 85 85 0 0 0-10.93-1.89 75 75 0 0 0-10.06-.32h-.09l-.65.04h-.39c-1.54 0-2.86-1.43-3.05-2.9-.17-1.39.7-2.62 2.03-2.77h.1-.14.33c1.1-.09 2.25-.04 3.35-.04q4.12 0 8.2.43a87 87 0 0 1 15.59 3.05c11.02 3.22 21.34 8.64 30.6 15.35 4.23 3.07 8.2 6.42 12.02 9.97a141 141 0 0 1 21.95 26.72 169 169 0 0 1 15.6 31.3 181 181 0 0 1 11.4 67.4q-.2 8.6-1.25 17.14a162 162 0 0 1-3.1 17 164 164 0 0 1-6.77 21.31q-.05.18-.15.35c-.37.86-1.19 1.25-2.03 1.25-.54 0-1.1-.15-1.56-.45zm-182.46 80.45a66 66 0 0 1-19.7-3.33h-.01c-.11-.04-.22-.06-.24-.09a44 44 0 0 1-14.94-8.57 39 39 0 0 1-9.93-13.8c-4.35-10.07-4.29-21.48-2.1-32.06a88 88 0 0 1 2.79-10.22c.37-1.45 1.82-2.25 3.2-1.67a3.35 3.35 0 0 1 1.73 4.18c-.34.8-.6 1.64-.84 2.4a74 74 0 0 0-2.38 9.63 63 63 0 0 0-.82 7.13v.38c-.09 2.06-.07 4.1.06 5.9q.22 2.75.76 5.49.5 2.37 1.28 4.68.67 1.9 1.56 3.72.89 1.79 1.94 3.44a35 35 0 0 0 5.26 6.15l.09.08q1.7 1.48 3.5 2.77c1.4.94 2.84 1.8 3.99 2.4a50 50 0 0 0 5.6 2.43l.29.09q3.52 1.2 7.18 1.9a77 77 0 0 0 10.76 1.15h.24q1.87.05 3.76 0c.9 0 1.78 0 2.67-.1h.19c1.56 0 2.8 1.27 3.01 2.78.2 1.35-.6 3.08-2.16 3.08h-.24c-.89 0-1.8.06-2.69.08h-1.27l-2.56-.02h.04z"/><path fill="#000" d="M240.18 385.25c-4.28-.78-6.62-4.98-7.18-8.88a3.4 3.4 0 0 1 .21-3.13c.72-1.35 2.43-1.52 3.55-.61 1.7 1.36.98 3.98 2.1 5.71 1.84 2.02 5.98 1.43 7.45-.82.15-.52.2-.7.24-1.1.1-1.45 1.47-2.62 2.92-2.25 1.62.43 2.53 2.38 2.1 3.96-.54 5.43-6.52 8.1-11.4 7.1z"/><path fill="#000" d="M253.36 382.17c-1.56-.65-3.03-1.56-4.54-2.34-2.3-1-2.58-4.65-.24-5.75 1.06-.52 2.2 0 2.9.86 1.04.74 2.25 1 3.25 1.71-.33-.2-.63-.28-.98-.32 3.46.43 3.4 6.47-.39 5.84"/><path fill="#000" d="M247.93 437.82c-.3-6.82-.33-13.64-.5-20.46.43-5.45-1.93-14.37 4.13-17.23.03-5.6.35-11.23.2-16.86-.26-1.92-.65-4.93 1.8-5.45 2.25-.63 4.02 2.3 3.18 4.24.3 4.55 0 9.1 0 13.64-.16 2.9.21 5.84-.2 8.7-.5 1.5-2.03 1.64-3.33 1.51-1.45 4.74-.46 10.05-.63 14.98.22 5.6.1 11.65.5 17.01.28 4.33-5 4.03-5.13-.06z"/><path fill="#000" d="M239.87 477.38c-.84-.06-1.5-.62-1.97-1.27-5.24-5.9-7.38-14.33-6.47-22.1.8-7.62 7.12-17.36 15.78-15.7.71-.84.93-2.14 2.2-2.4 1.65-.41 3.19 1.15 3.27 2.66.37 2.23-1.58 4-2.85 5.59-1.22.82-2.6.32-3.8-.24-7.22.6-10.25 9.33-9.71 15.65.17 3.85 1.62 6.93 3.2 10.3.67 1 1.54 1.84 2.27 2.82 1.35 1.6.48 4.87-1.9 4.65z"/><path fill="#000" d="M311.43 508.88a124 124 0 0 1-32.1-6.27c-10.02-3.34-19.76-7.77-28.49-13.75a64 64 0 0 1-12.27-10.71c-.76-.89-1.45-1.82-2.12-2.64a2 2 0 0 1-.5-1.47c.06-1.56 1.67-2.58 3.1-2.58 1.08 0 2 .48 2.5 1.23.59.93 1.35 1.8 1.82 2.36a54 54 0 0 0 5.16 5.15 70 70 0 0 0 7.81 5.85 108 108 0 0 0 11.65 6.47 127 127 0 0 0 30.15 9.72q6.74 1.23 13.59 1.66h.06a90 90 0 0 0 10.26 0c2.51-.19 5.03-.47 7.5-.95q2.53-.5 4.97-1.25c1.3-.44 2.56-.91 3.79-1.5.97-.47 1.95-1 2.53-1.38a17 17 0 0 0 3.3-2.73q.61-.7 1.16-1.5.37-.57.67-1.18.33-.74.59-1.52.22-.79.34-1.58.13-1.07.09-2.14a16 16 0 0 0-.32-2.27q-.33-1.34-.83-2.6a25 25 0 0 0-2.85-5.07q-.12-.12-.2-.26l-.28-.39c-1-1.19-.17-2.87 1-3.54a3.3 3.3 0 0 1 4.1.7c.66.83 1.22 1.78 1.59 2.37a27 27 0 0 1 2.1 4.02c1.66 4.07 2.18 8.49.65 12.69-1.74 4.78-6 8.29-10.46 10.48-4.5 2.2-9.41 3.4-14.37 4.06q-5.1.7-10.24.68-2.96 0-5.89-.18h.44zm-5.7-98.72c-.18-3.3 1.1-6.93-.98-9.83-1.56-4.03-.67-9.63 2.7-12.45-.16-4.91.05-9.95-.1-14.8-3.53 1.58-7.49 2.73-11.36 2.7-3.38-.26-2.97-6.12.3-5.97 4.46.09 8.85-1.86 12.62-4.07 2.53-.93 3.79 2.1 3.38 4.16.06 5 .02 9.7.12 14.65q0-.16-.04-.32c-.1 2.9 1.52 9-2.7 9.3-.46 1.2-.87 2.54-.5 3.79.54 1.19 1.32 2.23 1.5 3.57.55 2.81.14 5.67.08 8.5.39 3.86-4.63 4.88-5.07.76z"/><path fill="#000" d="M297.68 419.36c-1.25-.57-1.7-1.82-1.69-3.12-.1-3.53 1.07-7.56-.62-10.8-1.13-1.24-2.32-2.45-2.19-4.27.04-4.28.3-8.57.43-12.83.11-4.11.48-8.25.35-12.36-.26-1.56-.32-3.31.7-4.63 2.11-2.8 5.51.39 4.26 3.18.26 8.63-.6 17.27-.63 25.9 3.25 3.15 3.12 7.93 2.96 12.13h.29q.64 0 1.2.17c1.33-1.67 2.5-3.66 4.36-4.74 2.94-1.99 5.24 3.01 2.83 4.9-1.47.95-2.55 2.46-3.48 3.93-.35.91-.74 1.73-1.67 2.19-1.51.82-2.75-.91-4.26-.43-.7.73-1.8 1.27-2.81.82zm57.09-12.92c-2.58-.22-2.56-3.3-2.23-5.18.2-3.72.75-7.57-.33-11.19a3.6 3.6 0 0 0-2.2-2.01c-1.28-.56-1.91-1.86-1.82-3.23.37-7.72.58-15.45.73-23.18q0 .2-.04.4c.15-3.67 4.78-3.84 5.09-.14-.3 7.08-.48 14.35-.63 21.26 5.76 4.07 4.54 12.2 4.26 18.35-.06 1.95-.21 4.94-2.83 4.92"/><path fill="#000" d="M368 417.9c-2.94-.69-1.47-3.9-1.44-5.97-.26-1.6-1.39-2.99-2.3-4.33-3.14-.6-6.06-.67-9.09.06-2.31-.02-3.05-2.98-1.51-4.5 1.88-1.99 5.04-1.12 7.53-1.38 2.64.43 6.23-.11 7.94 2.38 1.8 2.62 3.73 5.52 2.97 8.83.04 2.49-1.06 5.39-4.07 4.91z"/><path fill="#000" d="M394.5 453.88a2.3 2.3 0 0 1-.52-2.2l.09-.4-.09.35v.07-.28l.1-.57q.4-2.72.4-5.47 0-2.86-.46-5.7a35 35 0 0 0-1.14-4.74l-.07-.21v-.07a33 33 0 0 0-1.77-4.03 28 28 0 0 0-2.19-3.4 28 28 0 0 0-2.55-2.74q-1.17-1.05-2.47-1.88a25 25 0 0 0-2.69-1.46q-1.32-.55-2.68-.95-1.36-.34-2.77-.54-1.36-.13-2.73-.13-1.32.03-2.62.22-.15.01-.32.06h-.15c-.6.07-1.2.05-1.75-.26a2.3 2.3 0 0 1-1.2-1.8c-.12-1.55 1.2-2.9 2.64-3.22q.09 0 .18-.04l.39-.07 1.38-.13q1.73-.12 3.44-.08a24.3 24.3 0 0 1 18.29 9.05 29 29 0 0 1 2.93 4.39c3.05 5.74 4.2 12.23 3.96 18.68q-.12 2.64-.5 5.17v.2-.13c-.06 1.58-1.47 2.9-3.05 3.03h-.24a2.5 2.5 0 0 1-1.84-.74z"/><path fill="#000" d="M372.15 483.27c-3.86-.5-31.84-.88-28.88-6.75.5-1.38 2.17-2.47 3.66-2.1 7.08 2.1 14.28 2.9 21.45 3.3 5.45.12 10.95.86 16.21-.7 6.78-1.45 14.53-4.05 17.51-10.89.93-2.64 2.04-6.06-.21-8.31-.93-1.2-2.54-1.64-3.9-2.23-1.08.2-2.2-.2-2.81-1.23-.96-1.63.37-3.66 2.01-4.18 2.77-.65 5.58 1.32 7.94 2.57 6.1 4.62 3.68 13.66-.3 18.92-7.7 9.25-21.23 11.95-32.68 11.6M351.26 363.8c-2.34-1.2-1.08-4.75 1.17-5.23 1.58-.32 2.94-1.3 4.46-1.81 8.29-3.38 15.45-8.83 22.18-14.66 4.61-4.37 9.12-8.9 12.84-14.07 1.25-1.81 2.36-4.52 4.93-4.54 3.79-.2 3.6 4.52.5 5.52-10.87 15.39-26.69 28.5-44.13 34.91-.18 0-.26.04-.46.07q.07 0 .15-.03h.03c-.57.11-1.13.1-1.67-.15zm61.31-65.7c-3.22.26-3.87-3.64-1.08-4.85a3.3 3.3 0 0 1 2.06-.37c2.47.11 4.74-.24 7.1-.15 4.72-5.52 15.39-7.49 18.48.63.44 1.51-.88 2.94-2.25 3.33-1.32.4-3-.08-3.44-1.51a3 3 0 0 0-.93-1.17c-1.78-1.88-4.37-.54-6.26.5-1.47 1.06-2.42 2.9-4.26 3.42-3.14.15-6.34-.05-9.52.2h.1z"/><path fill="#000" d="m434.33 295.98-.07-.18c-.82-2.72 2.49-3.68 4.3-4.72 3.13-2.1 4.81-5.69 7.95-7.72 7.56-4.29 15.48 5.26 11.41 12.4-1.39 2.84-6.62 1.73-5.28-1.6 1.19-2.23.26-5.4-2.08-6.39-.48-.21-1.08-.4-1.51 0-.96 1.04-1.98 2.02-2.8 3.16-2.14 2.25-9.52 9.57-11.94 4.96l.02.06z"/><path fill="#000" d="M459.53 310.8c0-3.76 4.66-3.05 7.21-3.46 2.86-.56 6.26.18 8.68-1.66 1.26-2.04 1.1-4.96-1.1-6.24-5.05-2.07-10.9-.8-16.24-.9-1.75.1-4.41.86-5.17-1.15-.48-1-.15-2.19.63-2.95.88-.9 2.2-1.17 3.42-.97 2.4-.15 4.82-.33 7.23-.13 5.08-.28 11.04-.8 15.17 2.8 3.5 3.06 3.29 8.41.8 12.07-2.94 3.85-8.29 3.85-12.7 4.22-2.67-.04-7.17 2.03-7.93-1.58z"/><path fill="#000" d="M446.9 335.05a28 28 0 0 1-11.22-3.01c-5.24 4.6-15 3.5-16.67-4.03-1.02-3.27 4.54-5.28 5.65-1.93.17.61.34 1.2.67 1.78 1.58 2.36 4.9 2.16 6.88.41 1.13-1.54 3.03-2.53 4.94-1.8a33 33 0 0 0 6.81 2.84c4.77 1.45 10.59.17 13.99-3.42 2.66-2.4 2.6-6.15 2.77-9.46.41-2.36-2.17-4.65-.6-6.77 8.02-6.41 6.98 12 4.71 15.69-3.46 6.23-10.87 10.06-17.92 9.72z"/><path fill="#000" d="M408 330.57c-4.1-.18-8.04-.3-12-1.24-3.37-1.51-.5-5.89 2.5-4.95 1.49.21 3.35.62 4.78.77 4.11.18 8.22.44 12.34.13 2.22-.2 4.39-1.19 6.62-.97 2.3.35 2.68 3.25.9 4.5-4.65 1.88-10.14 1.75-15.14 1.75"/><defs><filter id="crests-signals-filter0_d_35_2048" width="362.14" height="468.86" x="149.02" y="69.34" color-interpolation-filters="sRGB" filterUnits="userSpaceOnUse"><feFlood flood-opacity="0" result="BackgroundImageFix"/><feColorMatrix in="SourceAlpha" result="hardAlpha" values="0 0 0 0 0 0 0 0 0 0 0 0 0 0 0 0 0 0 127 0"/><feOffset dx="12.15" dy="12.15"/><feComposite in2="hardAlpha" operator="out"/><feColorMatrix values="0 0 0 0 0 0 0 0 0 0 0 0 0 0 0 0 0 0 0.4 0"/><feBlend in2="BackgroundImageFix" result="effect1_dropShadow_35_2048"/><feBlend in="SourceGraphic" in2="effect1_dropShadow_35_2048" result="shape"/></filter></defs></svg>