<svg xmlns="http://www.w3.org/2000/svg" fill="none" viewBox="0 0 600 600"><g filter="url(#crests-surveys-filter0_d_23_1571)"><mask id="crests-surveys-path-1-outside-1_23_1571" width="485" height="333" x="57.87" y="134" fill="#000" maskUnits="userSpaceOnUse"><path fill="#fff" d="M57.87 134h485v333h-485z"/><path d="M263.87 175.47a67 67 0 0 1 17.42 1.52 66.4 66.4 0 0 1 34 19.57 11 11 0 0 1 1.78 1.75 29 29 0 0 1 10.42-8.23c5.36-2.62 11.44-3.85 17.37-4.06 12.32-.45 25.3 3.08 34.9 10.98a31 31 0 0 1 8.19 10.1 23 23 0 0 1 2.24 8.02q0 .22.02.4l.8.07q1.55.16 3.09.4 4.04.62 8 1.73a57 57 0 0 1 14.16 6.2c9.89 6.05 17.74 15.45 21.04 26.67a45 45 0 0 1 1.56 17.37 49 49 0 0 1-4.88 16.64 55 55 0 0 1-5.1 8.2c4.91-.6 9.2-3.35 11.96-7.54 1.4-1.91 2.03-4.13 2.64-6.36-4.42-3.1-4.55-11.08.14-14a15 15 0 0 1 4.82-2.07c.32-17.61 16.84-17.8 31-15.52 4.89.5 9.89.68 14.54-1.1 3.11-1.63 6.2-3.71 9.89-3.5 14.05 1.21 11.43 14.42 2.78 21.2-4.52 4.6-11.34 6-17.5 7.26.71 2.05.24 4.57-.98 6.81-1.78 2.8-5.03 4.03-8.27 4.22-2.93 33.22-39.96 54.13-71.2 51a45 45 0 0 1-3.46 6.62c-6.79 10.68-18.24 17.9-30.33 21.08a60 60 0 0 1-16.5 1.94c.2 2.58.47 5.14.43 7.75 2.06 1.1 2.6 3.57 2.69 5.72.33 3.5.22 7.04.53 10.55 2.29.48 4.54 1.88 6.09 3.34 13.6-4.72 26.53 5.15 31.05 17.72.72 2.9.37 6.05-.12 8.99q.59.32 1.04.73c4.16 2.31 5.28 6.87 5.05 11.31-.1 2.72-2.06 4.9-3.67 6.93-13.68 13.16-37.33 12.76-55.2 12.62v-.05c-8.55-.68-16.22-3.1-23.95-6.5-2.22-1.38-4.41-2.1-5.86-3.93-5.37-4.16-6.1-13.83-1.15-18.55-2.52-9.1-1.28-19.36 5.05-26.68.2-5.5-2-11.62-.58-17a70 70 0 0 1-11.01 4.3c-.07 0-.12.05-.19.05h-.07a72 72 0 0 1-24.33 2.76c-.36 1.9-.92 3.88-.71 5.33.08.74-.04 1.55-.36 2.25a8.5 8.5 0 0 1 3.84 5.45 66 66 0 0 1 1.66 18.86c.01 1.05.13 2.47.09 3.86 1.15.58 2.26 1.55 3.48 2 3.4 2.46 3.5 7.5 1.69 10.94-.7 1.78-3.61 5.72-6.37 7.44l-.12.14c-.3.33-.73.54-1.1.8a46 46 0 0 1-3.13 1.84 46 46 0 0 1-6.64 2.97 72 72 0 0 1-16.97 3.8q-5.02.54-10.1.53-8.21 0-16.27-1.4v.02a83 83 0 0 1-16.4-4.46 55 55 0 0 1-12.57-6.85 56 56 0 0 1-2.57-2.1l.33.25h.04a3 3 0 0 1-.64-.68l-.22-.18-.02.02c-5.38-5.43-1.92-14.1 4-17.57-1.33-13.58 10.44-27.08 24.36-26.86 2.27 0 4.53.37 6.67 1.07a12.5 12.5 0 0 1 4.67-3.94c-1-6.05-3.03-15.31 4.19-18.23a5 5 0 0 1-.07-.78 53 53 0 0 1-4.57-4.79l-.36-.42q-.38-.42-.6-.95a52 52 0 0 1-5.53-8.29c-4.79 1.18-9.64 1.27-14.56 1.25-15.63-.21-31.84-4.85-43.1-16.12-20.86-.38-42.32-9.6-53.09-28.14-3.38-5.14-5.46-10.94-6.67-16.93-7.39-.16-12.43-6.86-10.8-13.44-9.95-2.56-27.5-9.64-27.84-19.14-.26-6.97 6.52-14.1 13.67-11.69.93-.12 1.66.18 2.18.71q.3.18.6.44c6.64 2.01 13.5 3.84 20.48 3.7 13.03-1.88 27.57-3.84 33.41 11.05.27 1.1.66 2.76.8 4.43q1.02-.01 2.02.27a11.3 11.3 0 0 1 6.17 6.03q1.26-5.23 3.3-10.24a79 79 0 0 1 8.26-15.06 69 69 0 0 1 12.06-13.23 52 52 0 0 1 12.6-8.02q2.75-1.2 5.64-1.98 1.12-.3 2.27-.54c.44-.1.88-.14 1.3-.23l.13-.04q.48-1.85 1.03-3.68a75 75 0 0 1 2.34-6.48 67 67 0 0 1 22.49-28.14 66 66 0 0 1 35.27-12.28M162.08 388.84a12.4 12.4 0 0 1 10.22-1.31 13 13 0 0 1 3.8 1.92c.01 0 .06.02.06 0a18 18 0 0 1 3.13 3.55 13.7 13.7 0 0 1 1.96 7.13c0 3.04-1.15 6.06-3.1 8.35a12.4 12.4 0 0 1-9.27 4.37 13 13 0 0 1-3.45-.5l-.03.05a13 13 0 0 1-7.27-5.58 13.6 13.6 0 0 1-1.7-9.68 12.7 12.7 0 0 1 5.65-8.3m25.2-35.04c5.47-1.7 11.48-.68 16.32 2.27a15 15 0 0 1 1.5 1.03c.3.3.68.56 1 .84q.8.7 1.5 1.47a20 20 0 0 1 3.06 4.33 21 21 0 0 1 1.96 14.82 20.8 20.8 0 0 1-7.34 11.57 21 21 0 0 1-6.22 3.32 20 20 0 0 1-6.24.94h-.4l.05-.03a20 20 0 0 1-8.44-2.1 21 21 0 0 1-7.43-6.4 21.3 21.3 0 0 1-2.78-18.92 21.6 21.6 0 0 1 5.63-8.72 20 20 0 0 1 7.83-4.42m-31.67-65.5q-.35.39-.74.72l-.11.1q.42.7.9 1.35a51 51 0 0 1-.05-2.18m337.03-28.88a96 96 0 0 1-7.3 2.8q-.06.31-.2.58c2.56-.88 5.43-1.5 7.5-3.38M118.01 161.1q1.66 0 3.32.14.94.09 1.9.21.36.06.65.16a41 41 0 0 1 11.34 3.44q2.73 1.26 5.26 2.9a42 42 0 0 1 12.27 12.09 40 40 0 0 1 4.28 8.13q1.19 2.96 1.91 6.06l.05.16.1.42a43.7 43.7 0 0 1-5.1 31.82q0 .02-.03.04a43 43 0 0 1-15.83 15.36 42.3 42.3 0 0 1-34.47 3l.02.02a43 43 0 0 1-15.87-9.84 43.65 43.65 0 0 1-9.47-48 43 43 0 0 1 3.88-7.13A42 42 0 0 1 95 167.65a40 40 0 0 1 9.51-4.45 48 48 0 0 1 8.42-1.8q.42-.18.9-.2c.9 0 1.76-.1 2.63-.1zm365-10.1q1.66 0 3.32.14.95.09 1.9.21.36.05.65.16a41 41 0 0 1 11.34 3.44q2.73 1.25 5.26 2.9a42 42 0 0 1 12.27 12.09 40 40 0 0 1 4.28 8.13q1.2 2.96 1.92 6.06l.04.16.1.42a43.7 43.7 0 0 1-5.12 31.86q-1.5 2.56-3.37 4.84a42.3 42.3 0 0 1-46.94 13.51l.02.03a43 43 0 0 1-15.87-9.84 43.65 43.65 0 0 1-9.47-48 43 43 0 0 1 3.88-7.13 42 42 0 0 1 12.79-12.43 40 40 0 0 1 9.51-4.45 48 48 0 0 1 8.42-1.8q.42-.18.91-.2c.89 0 1.75-.1 2.62-.1z"/></mask><path fill="#fff" d="M263.87 175.47a67 67 0 0 1 17.42 1.52 66.4 66.4 0 0 1 34 19.57 11 11 0 0 1 1.78 1.75 29 29 0 0 1 10.42-8.23c5.36-2.62 11.44-3.85 17.37-4.06 12.32-.45 25.3 3.08 34.9 10.98a31 31 0 0 1 8.19 10.1 23 23 0 0 1 2.24 8.02q0 .22.02.4l.8.07q1.55.16 3.09.4 4.04.62 8 1.73a57 57 0 0 1 14.16 6.2c9.89 6.05 17.74 15.45 21.04 26.67a45 45 0 0 1 1.56 17.37 49 49 0 0 1-4.88 16.64 55 55 0 0 1-5.1 8.2c4.91-.6 9.2-3.35 11.96-7.54 1.4-1.91 2.03-4.13 2.64-6.36-4.42-3.1-4.55-11.08.14-14a15 15 0 0 1 4.82-2.07c.32-17.61 16.84-17.8 31-15.52 4.89.5 9.89.68 14.54-1.1 3.11-1.63 6.2-3.71 9.89-3.5 14.05 1.21 11.43 14.42 2.78 21.2-4.52 4.6-11.34 6-17.5 7.26.71 2.05.24 4.57-.98 6.81-1.78 2.8-5.03 4.03-8.27 4.22-2.93 33.22-39.96 54.13-71.2 51a45 45 0 0 1-3.46 6.62c-6.79 10.68-18.24 17.9-30.33 21.08a60 60 0 0 1-16.5 1.94c.2 2.58.47 5.14.43 7.75 2.06 1.1 2.6 3.57 2.69 5.72.33 3.5.22 7.04.53 10.55 2.29.48 4.54 1.88 6.09 3.34 13.6-4.72 26.53 5.15 31.05 17.72.72 2.9.37 6.05-.12 8.99q.59.32 1.04.73c4.16 2.31 5.28 6.87 5.05 11.31-.1 2.72-2.06 4.9-3.67 6.93-13.68 13.16-37.33 12.76-55.2 12.62v-.05c-8.55-.68-16.22-3.1-23.95-6.5-2.22-1.38-4.41-2.1-5.86-3.93-5.37-4.16-6.1-13.83-1.15-18.55-2.52-9.1-1.28-19.36 5.05-26.68.2-5.5-2-11.62-.58-17a70 70 0 0 1-11.01 4.3c-.07 0-.12.05-.19.05h-.07a72 72 0 0 1-24.33 2.76c-.36 1.9-.92 3.88-.71 5.33.08.74-.04 1.55-.36 2.25a8.5 8.5 0 0 1 3.84 5.45 66 66 0 0 1 1.66 18.86c.01 1.05.13 2.47.09 3.86 1.15.58 2.26 1.55 3.48 2 3.4 2.46 3.5 7.5 1.69 10.94-.7 1.78-3.61 5.72-6.37 7.44l-.12.14c-.3.33-.73.54-1.1.8a46 46 0 0 1-3.13 1.84 46 46 0 0 1-6.64 2.97 72 72 0 0 1-16.97 3.8q-5.02.54-10.1.53-8.21 0-16.27-1.4v.02a83 83 0 0 1-16.4-4.46 55 55 0 0 1-12.57-6.85 56 56 0 0 1-2.57-2.1l.33.25h.04a3 3 0 0 1-.64-.68l-.22-.18-.02.02c-5.38-5.43-1.92-14.1 4-17.57-1.33-13.58 10.44-27.08 24.36-26.86 2.27 0 4.53.37 6.67 1.07a12.5 12.5 0 0 1 4.67-3.94c-1-6.05-3.03-15.31 4.19-18.23a5 5 0 0 1-.07-.78 53 53 0 0 1-4.57-4.79l-.36-.42q-.38-.42-.6-.95a52 52 0 0 1-5.53-8.29c-4.79 1.18-9.64 1.27-14.56 1.25-15.63-.21-31.84-4.85-43.1-16.12-20.86-.38-42.32-9.6-53.09-28.14-3.38-5.14-5.46-10.94-6.67-16.93-7.39-.16-12.43-6.86-10.8-13.44-9.95-2.56-27.5-9.64-27.84-19.14-.26-6.97 6.52-14.1 13.67-11.69.93-.12 1.66.18 2.18.71q.3.18.6.44c6.64 2.01 13.5 3.84 20.48 3.7 13.03-1.88 27.57-3.84 33.41 11.05.27 1.1.66 2.76.8 4.43q1.02-.01 2.02.27a11.3 11.3 0 0 1 6.17 6.03q1.26-5.23 3.3-10.24a79 79 0 0 1 8.26-15.06 69 69 0 0 1 12.06-13.23 52 52 0 0 1 12.6-8.02q2.75-1.2 5.64-1.98 1.12-.3 2.27-.54c.44-.1.88-.14 1.3-.23l.13-.04q.48-1.85 1.03-3.68a75 75 0 0 1 2.34-6.48 67 67 0 0 1 22.49-28.14 66 66 0 0 1 35.27-12.28M162.08 388.84a12.4 12.4 0 0 1 10.22-1.31 13 13 0 0 1 3.8 1.92c.01 0 .06.02.06 0a18 18 0 0 1 3.13 3.55 13.7 13.7 0 0 1 1.96 7.13c0 3.04-1.15 6.06-3.1 8.35a12.4 12.4 0 0 1-9.27 4.37 13 13 0 0 1-3.45-.5l-.03.05a13 13 0 0 1-7.27-5.58 13.6 13.6 0 0 1-1.7-9.68 12.7 12.7 0 0 1 5.65-8.3m25.2-35.04c5.47-1.7 11.48-.68 16.32 2.27a15 15 0 0 1 1.5 1.03c.3.3.68.56 1 .84q.8.7 1.5 1.47a20 20 0 0 1 3.06 4.33 21 21 0 0 1 1.96 14.82 20.8 20.8 0 0 1-7.34 11.57 21 21 0 0 1-6.22 3.32 20 20 0 0 1-6.24.94h-.4l.05-.03a20 20 0 0 1-8.44-2.1 21 21 0 0 1-7.43-6.4 21.3 21.3 0 0 1-2.78-18.92 21.6 21.6 0 0 1 5.63-8.72 20 20 0 0 1 7.83-4.42m-31.67-65.5q-.35.39-.74.72l-.11.1q.42.7.9 1.35a51 51 0 0 1-.05-2.18m337.03-28.88a96 96 0 0 1-7.3 2.8q-.06.31-.2.58c2.56-.88 5.43-1.5 7.5-3.38M118.01 161.1q1.66 0 3.32.14.94.09 1.9.21.36.06.65.16a41 41 0 0 1 11.34 3.44q2.73 1.26 5.26 2.9a42 42 0 0 1 12.27 12.09 40 40 0 0 1 4.28 8.13q1.19 2.96 1.91 6.06l.05.16.1.42a43.7 43.7 0 0 1-5.1 31.82q0 .02-.03.04a43 43 0 0 1-15.83 15.36 42.3 42.3 0 0 1-34.47 3l.02.02a43 43 0 0 1-15.87-9.84 43.65 43.65 0 0 1-9.47-48 43 43 0 0 1 3.88-7.13A42 42 0 0 1 95 167.65a40 40 0 0 1 9.51-4.45 48 48 0 0 1 8.42-1.8q.42-.18.9-.2c.9 0 1.76-.1 2.63-.1zm365-10.1q1.66 0 3.32.14.95.09 1.9.21.36.05.65.16a41 41 0 0 1 11.34 3.44q2.73 1.25 5.26 2.9a42 42 0 0 1 12.27 12.09 40 40 0 0 1 4.28 8.13q1.2 2.96 1.92 6.06l.04.16.1.42a43.7 43.7 0 0 1-5.12 31.86q-1.5 2.56-3.37 4.84a42.3 42.3 0 0 1-46.94 13.51l.02.03a43 43 0 0 1-15.87-9.84 43.65 43.65 0 0 1-9.47-48 43 43 0 0 1 3.88-7.13 42 42 0 0 1 12.79-12.43 40 40 0 0 1 9.51-4.45 48 48 0 0 1 8.42-1.8q.42-.18.91-.2c.89 0 1.75-.1 2.62-.1z"/><path fill="#fff" d="m263.87 175.47-.74-16.98h-.04zM281.3 177l3.76-16.58h-.04zm31.82 17.32 12.02-12.02-.08-.08zm2.18 2.25-12.41 11.62q1 1.08 2.19 1.97zm1.78 1.75L304 209.18a17 17 0 0 0 26.6-.55zm10.42-8.23 7.43 15.3.04-.03zm17.37-4.06.6 16.98h.02zm34.9 10.98-10.8 13.13.03.02zm8.19 10.1-15.28 7.46.02.04zm2.24 8.02h17q0-.7-.06-1.4zm.02.4-16.67 3.28a17 17 0 0 0 15.31 13.66zm.8.07L389 232.47l.1.01zm3.09.4-2.67 16.79.18.03zm8 1.73 4.57-16.37-.04-.02zm14.16 6.2-8.9 14.48.02.01zm21.04 26.67L421 255.39v.01zm1.56 17.37 16.9 1.84v-.02zm-4.88 16.64 15.17 7.67v-.01zm-5.1 8.2-13.61-10.18a17 17 0 0 0 15.7 27.06zm11.96-7.54-13.7-10.06-.47.68zm2.64-6.36 16.39 4.5a17 17 0 0 0-6.65-18.43zm.14-14 8.98 14.43.1-.06zm4.82-2.07 3.13 16.7a17 17 0 0 0 13.87-16.4zm31-15.52-2.7 16.79q.5.08 1 .13zm14.54-1.1 6.07 15.89q.95-.37 1.85-.84zm9.89-3.5 1.47-16.94-.5-.03zm2.78 21.2-10.48-13.38q-.87.67-1.65 1.47zm-17.5 7.26-3.4-16.66a17 17 0 0 0-12.65 22.27zm-.98 6.81 14.36 9.1q.3-.47.57-.97zm-8.27 4.22-1-16.97a17 17 0 0 0-15.94 15.48zm-71.2 51 1.7-16.91a17 17 0 0 0-17.35 10.3zm-3.46 6.62-14.36-9.12zM374.9 360.9l4.3 16.45h.03zm-15.14 1.94v17zm-1.35 0 .21-17a17 17 0 0 0-17.17 18.26zm.42 7.75-17-.27a17 17 0 0 0 8.99 15.26zm2.69 5.72-16.99.74q.01.44.06.87zm.53 10.55-16.94 1.48a17 17 0 0 0 13.46 15.16zm6.09 3.34-11.66 12.38a17 17 0 0 0 17.23 3.68zm31.05 17.72 16.49-4.12q-.2-.82-.5-1.62zm-.12 8.99-16.77-2.78a17 17 0 0 0 8.5 17.63zm1.04.73-11.4 12.61a17 17 0 0 0 3.14 2.25zm5.05 11.31-16.98-.89v.3zm-3.67 6.93 11.79 12.24q.83-.79 1.53-1.68zm-55.2 12.62h-17a17 17 0 0 0 16.87 17zm0-.05h17a17 17 0 0 0-15.65-16.94zm-23.95-6.5-9 14.43q1.05.65 2.17 1.14zm-5.86-3.93 13.33-10.56a17 17 0 0 0-2.9-2.87zm-1.15-18.55 11.74 12.29a17 17 0 0 0 4.64-16.84zm5.05-26.68 12.85 11.13a17 17 0 0 0 4.14-10.52zm-.58-17 16.43 4.34a17 17 0 0 0-24-19.57zm-11.01 4.3.04 17q2.47 0 4.84-.71zm-.19.05v17zm-.07 0v-17q-2.43 0-4.76.68zm-20.24 2.88v17zm-4.09-.12.98-16.98a17 17 0 0 0-17.68 13.81zm-.71 5.33 16.9-1.9-.08-.55zm-.36 2.25-15.52-6.94a17 17 0 0 0 6.47 21.33zm3.84 5.45-16.65 3.4.12.56zm1.66 18.86-16.97-.94-.03 1.08zm.09 3.86-17-.58a17 17 0 0 0 9.42 15.8zm3.48 2 9.97-13.77a17 17 0 0 0-4.07-2.17zm1.69 10.94-15.02-7.96q-.48.89-.84 1.82zm-6.37 7.44-9-14.42q-2.3 1.45-4.06 3.54zm-.12.14 12.46 11.57.14-.15zm-1.1.8 9.28 14.24.35-.23zm-3.13 1.84-8.12-14.93-.07.04zm-6.64 2.97-5.72-16-.15.05zm-16.97 3.8-1.86-16.9h-.03zm-10.1.53v17zm-16.27-1.4 2.9-16.75a17 17 0 0 0-19.9 16.75zm0 .02-2.88 16.76a17 17 0 0 0 19.88-16.76zm-16.4-4.46-6.3 15.78.08.03zm-12.57-6.85-10.31 13.51.11.09zm-2.57-2.1 10.62-13.28a17 17 0 0 0-21.71 26.15zm.33.25-10.62 13.27a17 17 0 0 0 10.62 3.73zm.04 0v17a17 17 0 0 0 10.16-30.64zm-.64-.68 14.12-9.47a17 17 0 0 0-3.5-3.8zm-.22-.18 11.53-12.5a17 17 0 0 0-23.55.48zm-.02.02-12.07 11.97a17 17 0 0 0 24.1.05zm4-17.57 8.59 14.68a17 17 0 0 0 8.34-16.34zm24.36-26.86-.27 17h.27zm6.67 1.07-5.31 16.15a17 17 0 0 0 19.35-6.57zm4.67-3.94 7.16 15.42a17 17 0 0 0 9.61-18.2zm4.19-18.23 6.37 15.76a17 17 0 0 0 10.4-18.58zm-.07-.78 17-.2a17 17 0 0 0-5.52-12.34zm-4.57-4.79-13.06 10.88.09.12zm-.36-.42 13.06-10.88q-.32-.4-.67-.76zm-.6-.95 15.61-6.71a17 17 0 0 0-2.43-4.01zm-5.53-8.29 15-7.98a17 17 0 0 0-19.06-8.53zm-14.56 1.25-.22 17h.14zm-43.1-16.12 12.02-12.02a17 17 0 0 0-11.72-4.98zm-53.09-28.14 14.7-8.53q-.23-.42-.5-.82zm-6.67-16.93 16.66-3.37a17 17 0 0 0-16.3-13.63zm-10.8-13.44 16.5 4.06a17 17 0 0 0-12.27-20.52zm-27.84-19.14 16.99-.6v-.03zm13.67-11.69-5.42 16.11a17 17 0 0 0 7.66.74zm2.18.71-12.13 11.9a17 17 0 0 0 3.47 2.73zm.6.44-11.1 12.87a17 17 0 0 0 6.18 3.4zm20.48 3.7.34 17q1.06-.03 2.08-.18zm33.41 11.05 16.5-4.09q-.27-1.08-.67-2.12zm.8 4.43-16.94 1.4a17 17 0 0 0 16.73 15.6zm2.02.27 6.1-15.87q-.56-.21-1.13-.39zm6.17 6.03-15.49 7.02a17 17 0 0 0 32.03-3.1zm3.3-10.24 15.75 6.43.02-.05zm8.26-15.06-13.98-9.67zm12.06-13.23 11.02 12.95.06-.05zm12.6-8.02-6.79-15.58-.1.05zm5.64-1.98 4.59 16.36h.01zm2.27-.54-3.5-16.64h-.03zm1.3-.23 3.7 16.59a17 17 0 0 0 2.12-.62zm.13-.04 4.97 16.25a17 17 0 0 0 11.44-11.83zm1.03-3.68 16.22 5.1v-.03zm2.34-6.48-15.64-6.67-.04.1zm22.49-28.14-9.91-13.82-.02.02zm-66.52 201.09 8.95 14.45.02-.01zm10.22-1.31-4.95 16.26.17.05zm3.74 1.87-9.83 13.87q1.04.75 2.18 1.31zm.07.05-12.02 12.02a17 17 0 0 0 4.55 3.25zm.05 0 11.26-12.74a17 17 0 0 0-28.26 12.61zm3.13 3.55 14.36-9.1-.14-.22zm1.96 7.13h17v-.16zm-3.1 8.35-12.92-11.07-.06.08zm-8.14 4.3-1.87-16.9-.24.03zm-1.12.07v17zm-3.46-.5 4.44-16.4a17 17 0 0 0-19.65 8.8zm-.03.05-4.96 16.26A17 17 0 0 0 180.6 420zm-7.27-5.58-14.45 8.95.03.04zm-1.7-9.68 16.66 3.35v-.02zm30.85-43.34-5.06-16.23-.04.02zm16.32 2.27-8.84 14.52.1.06zm1 .66-9.87 13.83q.69.5 1.44.93zm.5.37-12.91 11.06q.42.5.89.96zm1 .84 11.16-12.83-.1-.08zm1.5 1.47-12.58 11.44.22.24zm3.06 4.33-14.97 8.05.04.08zm1.96 14.82 16.5 4.1v-.01zm-7.34 11.57 10.23 13.58.08-.06zm-6.22 3.32-5.17-16.2-.03.02zm-6.24.94v17zm-.4 0-7.6-15.2a17 17 0 0 0 7.6 32.2zm.05-.03 7.6 15.2a17 17 0 0 0-7.05-32.19zm-8.44-2.1-7.74 15.13.03.02zm-7.43-6.4-13.82 9.9.05.06zm-2.78-18.92-16.05-5.61q0 .04-.03.07zm5.63-8.72 11.62 12.41zm-23.84-69.93h17a17 17 0 0 0-29.7-11.3zm-.74.73-11-12.96-.08.07zm-.11.1-10.7-13.22a17 17 0 0 0-3.9 21.93zm.9 1.35-13.69 10.09a17 17 0 0 0 30.67-10.82zm336.98-31.05 11.44 12.57a17 17 0 0 0-18.12-28.2zm-7.3 2.8-5.37-16.12a17 17 0 0 0-11.22 12.43zm-.2.58-15.23-7.55a17 17 0 0 0 20.77 23.62zm-363.8-101.56-1.44 16.94.18.01zm1.9.21-1.89 16.9.2.02zm.65.16-5.97 15.92q1.66.63 3.43.9zm8.13 2.1-5.92 15.94.14.06zm3.2 1.34-7.18 15.4.06.04zm5.27 2.9-9.3 14.24.17.1zm12.27 12.09-14.16 9.41.15.22zm4.28 8.13-15.82 6.23.06.15zm1.91 6.06-16.53 3.94q.09.38.2.75zm.05.16 16.77-2.8a17 17 0 0 0-.43-1.9zm.1.42-16.77 2.8q.07.45.18.91zm0 19.05 16.58 3.72zm-5.1 12.77-14.6-8.72a17 17 0 0 0-2.4 8.7zm-.03.04v-17a17 17 0 0 0-14.64 8.38zm-3.36 4.84-13.18-10.74-.05.06zm-12.46 10.52-8.26-14.85-.06.03zm-16.23 5.12-1.8-16.9-.1.01zm-4.34.24v17zm-13.91-2.36 5.65-16.04a17 17 0 0 0-17.67 28.06zm.02.02-5.57 16.06a17 17 0 0 0 17.6-28.08zm-15.87-9.84-11.84 12.2zm-12.89-33.06-16.97-.85zm3.42-14.94 15.61 6.73v-.01zm3.88-7.13 14.08 9.53.17-.25zM95 167.65l9.1 14.35.07-.04zm9.51-4.45 5.04 16.24h.02zm5.5-1.35 3.13 16.7.12-.02zm2.92-.45 2 16.88q2.36-.28 4.53-1.18zm.9-.2v-17zm2.63-.1v-17zm369.86-9.96-1.44 16.94.19.01zm1.9.21-1.88 16.9.18.02zm.65.16-5.97 15.92q1.66.63 3.43.9zm8.14 2.1-5.93 15.94.14.05zm3.2 1.34-7.2 15.4.07.04zm5.26 2.9-9.3 14.24.17.1zm12.27 12.09-14.15 9.41.15.22zm4.28 8.13-15.82 6.22.06.16zm1.92 6.06-16.54 3.94.2.75zm.04.16 16.77-2.8q-.15-.96-.43-1.9zm.1.42-16.77 2.8q.07.46.18.91zm0 19.05 16.58 3.72zm-5.1 12.77-14.6-8.72a17 17 0 0 0-2.4 8.5zm-.02.04-.2-17a17 17 0 0 0-14.45 8.38zm-3.37 4.84-13.17-10.74-.05.06zm-12.46 10.52-8.26-14.86-.06.03zm-16.22 5.12-1.8-16.9H485zm-4.35.24v17zm-13.91-2.36 5.65-16.04a17 17 0 0 0-17.67 28.06zm.02.02L463.12 251a17 17 0 0 0 17.58-28.08zm-15.87-9.84-11.84 12.2zm-12.88-33.06-16.98-.85zm3.41-14.94 15.61 6.73v-.01zm3.88-7.13 14.08 9.53.17-.25zM460 157.55l9.1 14.35.07-.04zm9.51-4.45 5.05 16.24h.01zm5.5-1.35 3.13 16.7.12-.02zm2.92-.45 2 16.88q2.36-.28 4.54-1.18zm.91-.2v-17zm-214.98 24.37.75 16.99c4.42-.2 8.81.2 12.95 1.12L281.3 177l3.72-16.59a84 84 0 0 0-21.88-1.91zM281.3 177l-3.76 16.58a49.4 49.4 0 0 1 23.64 12.85l11.94-12.1 11.94-12.1a83.4 83.4 0 0 0-40-21.8zm31.82 17.32-12.02 12.03q.95.95 1.79 1.84l12.4-11.62 12.42-11.61a112 112 0 0 0-2.57-2.66zm2.18 2.25-10.22 13.59a8 8 0 0 1-.83-.71l-.25-.27 13.08-10.86 13.07-10.86a28 28 0 0 0-4.63-4.47zm1.78 1.75 13.51 10.3a12 12 0 0 1 4.34-3.23l-7.43-15.3-7.42-15.29a46 46 0 0 0-16.53 13.2zm10.42-8.23 7.47 15.27c2.77-1.35 6.4-2.2 10.5-2.34l-.6-17-.6-16.98c-7.77.27-16.3 1.9-24.23 5.78zm17.37-4.06.62 16.98c8.97-.32 17.65 2.34 23.49 7.13l10.8-13.13 10.8-13.13c-13.39-11-30.65-15.4-46.32-14.84zm34.9 10.98L369 210.15a14 14 0 0 1 3.68 4.4l15.28-7.45 15.28-7.45a48 48 0 0 0-12.69-15.8zm8.19 10.1-15.26 7.5a6 6 0 0 1 .56 1.92l16.94-1.4 16.94-1.4a40 40 0 0 0-3.92-14.11zm2.24 8.02h-17v.26a18 18 0 0 0 .35 3.42l16.67-3.28 16.69-3.29c.22 1.15.27 2.04.28 2.4l.01.49zm.02.4-1.36 16.94.14.01h.07-.07l2.02-16.88 2.03-16.88-1.46-.14zm.8.07-1.92 16.9c1.1.12 1.74.2 2.34.29l2.67-16.8 2.67-16.78a91 91 0 0 0-3.84-.5zm3.09.4-2.49 16.82q2.78.4 5.95 1.3l4.53-16.4 4.54-16.38a84 84 0 0 0-10.05-2.16zm8 1.73-4.59 16.37c3.51.98 6.95 2.53 9.85 4.3l8.9-14.48 8.9-14.48a74 74 0 0 0-18.49-8.08zm14.16 6.2-8.88 14.5c6.76 4.13 11.64 10.28 13.6 16.96l16.32-4.8 16.3-4.78c-4.62-15.77-15.45-28.41-28.47-36.39zm21.04 26.67-16.3 4.8a28 28 0 0 1 .96 10.74l16.9 1.83 16.9 1.82c.88-8.09.13-16.23-2.15-24zm1.56 17.37-16.9-1.84a32 32 0 0 1-3.16 10.82l15.18 7.66 15.18 7.66a66 66 0 0 0 6.6-22.46zm-4.88 16.64-15.17-7.67q-1.5 2.97-3.54 5.69l13.6 10.19L442.5 303a73 73 0 0 0 6.66-10.72zm-5.1 8.2 2.09 16.88a33.8 33.8 0 0 0 24.05-15.04l-14.18-9.38-14.17-9.38-.11.14q-.03.01 0 0l.23-.09zm11.96-7.54 13.71 10.05c3.54-4.82 4.82-10.1 5.32-11.9l-16.4-4.51-16.38-4.51-.53 1.78c-.04.1.12-.34.57-.97zm2.64-6.36 9.74-13.93c3.38 2.36 3.91 5.47 3.91 6.87 0 1.46-.63 5.07-4.53 7.5l-8.98-14.44-8.98-14.44c-8.6 5.35-11.5 14.4-11.5 21.37 0 6.9 2.8 15.54 10.6 21zm.14-14 9.08 14.37.12-.07.07-.04-.27.1q-.26.12-1.05.28l-3.13-16.71-3.12-16.71a32 32 0 0 0-10.77 4.4zm4.82-2.07 17 .3c.03-1.7.4-1.37-.33-.38-.73.98-1.46 1.14-1.03 1 .6-.2 2-.47 4.45-.45 2.38.01 5.15.3 8.2.8l2.71-16.79 2.7-16.78c-7.39-1.2-18.6-2.4-28.72.94a31.4 31.4 0 0 0-15.67 11.09c-4.36 5.9-6.18 12.86-6.3 19.96zm31-15.52-1.7 16.92c5.18.52 13.66 1.17 22.3-2.13l-6.06-15.89-6.06-15.88c-.23.09-.77.25-1.91.3a33 33 0 0 1-4.87-.23zm14.54-1.1 7.92 15.05 1.41-.76 1.06-.58c.63-.34.92-.48 1.06-.54.24-.1-.8.4-2.53.3l.97-16.97.97-16.97a28 28 0 0 0-12.86 2.41c-2.4 1.04-5.53 2.81-5.92 3.02zm9.89-3.5-1.47 16.93c.98.09-.65.18-2.66-1.74a9.4 9.4 0 0 1-2.97-6.6c0-1.46.42-2.02.25-1.72-.12.22-.42.6-.85.95l10.48 13.38 10.49 13.38c7.16-5.62 13.69-15.14 13.63-26.15a24.6 24.6 0 0 0-7.61-17.89c-5.2-4.94-11.77-6.96-17.82-7.48zm2.78 21.2L494.53 252c.15-.16-.12.21-1.72.78a54 54 0 0 1-7.06 1.73l3.4 16.66 3.39 16.66c4.97-1.01 17.43-3.04 26.24-12zm-17.5 7.26-16.05 5.6a10 10 0 0 1-.52-4.88c.16-1 .46-1.66.66-2.03l14.93 8.13 14.93 8.12c2.58-4.73 4.94-12.4 2.1-20.54zm-.98 6.81-14.36-9.1a8.6 8.6 0 0 1 3.52-3.19c.9-.42 1.5-.46 1.57-.46l1 16.97 1 16.97c6.16-.37 15.79-2.87 21.63-12.09zm-8.27 4.22-16.94-1.5c-.9 10.28-7.12 19.6-17.45 26.47-10.44 6.94-23.62 10.27-35.1 9.12l-1.7 16.91-1.7 16.92c19.74 1.97 40.7-3.59 57.32-14.63 16.72-11.12 30.48-28.85 32.5-51.8zm-71.2 51-15.65-6.61a28 28 0 0 1-2.17 4.11l14.36 9.12 14.34 9.11a62 62 0 0 0 4.79-9.12zm-3.46 6.62-14.36-9.11c-4.04 6.36-11.47 11.43-20.3 13.75l4.33 16.44 4.33 16.44c15.35-4.03 30.83-13.4 40.35-28.41zM374.9 360.9l-4.28-16.45c-3.53.92-7.21 1.4-10.86 1.4v34c6.54 0 13.1-.85 19.43-2.5zm-15.14 1.94v-17h-1.14l-.21 17-.21 17h1.56zm-1.35 0-16.96 1.26c.25 3.27.4 4.62.38 6.21l17 .27 17 .28c.05-3.62-.33-7.4-.47-9.29zm.42 7.75-8.01 14.99a12.5 12.5 0 0 1-5.73-6.3 9 9 0 0 1-.56-2.23l16.99-.74 16.98-.74c-.1-2.5-.72-14.14-11.66-19.98zm2.69 5.72-16.93 1.6c.1 1.13.15 2.36.2 4.18.06 1.65.12 3.92.32 6.25l16.94-1.48 16.93-1.48c-.1-1.18-.14-2.43-.2-4.3-.05-1.7-.11-4-.34-6.37zm.53 10.55-3.48 16.64a6 6 0 0 1-1.61-.56q-.23-.14-.48-.36l11.66-12.38 11.66-12.37a30.4 30.4 0 0 0-14.28-7.61zm6.09 3.34 5.57 16.06c1.27-.44 2.56-.4 4.33.72a13.5 13.5 0 0 1 5.14 6.68l16-5.74 16-5.74c-6.36-17.73-26.97-36.94-52.61-28.04zm31.05 17.72-16.5 4.13c-.14-.56-.08-.74-.1-.3-.01.46-.09 1.17-.29 2.38l16.77 2.78 16.77 2.78c.52-3.13 1.48-9.32-.16-15.89zm-.12 8.99-8.26 14.85a11 11 0 0 1-2.1-1.51l11.4-12.6 11.4-12.62a23 23 0 0 0-4.17-2.98zm1.04.73-8.26 14.86a8 8 0 0 1-3.41-3.84c-.36-.93-.22-1.25-.25-.6l16.97.9 16.98.89c.36-6.96-1.14-20.04-13.76-27.07zm5.05 11.31-16.99-.58c.1-2.7 1.12-4.4 1.27-4.66.1-.14.1-.11-.15.2l-.44.55-.68.85 13.32 10.56 13.32 10.57c.3-.37 2.15-2.58 3.54-4.82a24.5 24.5 0 0 0 3.8-12.08zm-3.67 6.93-11.79-12.25c-3.24 3.11-8.59 5.47-16.84 6.75-8.24 1.27-17.18 1.2-26.43 1.12l-.13 17-.14 17c8.62.07 20.44.25 31.9-1.53 11.46-1.77 24.78-5.8 35.22-15.85zm-55.2 12.62h17v-.05h-34v.05zm0-.05 1.35-16.94c-6.05-.48-11.81-2.2-18.48-5.13l-6.82 15.57-6.83 15.57c8.81 3.86 18.39 7 29.44 7.88zm-23.95-6.5 9-14.42a46 46 0 0 0-2.58-1.48l-.43-.23-.33-.18-.36-.2c-.29-.16.94.48 2.17 2.02l-13.32 10.56-13.33 10.56a26 26 0 0 0 7.44 6.28c.8.47 1.7.94 2.02 1.12l.72.4zm-5.86-3.93 10.42-13.43a6 6 0 0 1 1.79 2.12 3 3 0 0 1 .3 1.11c.02.19.1 2-1.92 3.94l-11.74-12.3-11.74-12.29c-6.97 6.66-9 15.68-8.52 22.92.49 7.23 3.65 15.67 11 21.37zm-1.15-18.55 16.38-4.55c-1.38-4.98-.24-8.96 1.52-11l-12.85-11.13-12.85-11.12c-10.9 12.6-12.25 29.13-8.58 42.34zm5.05-26.68 17 .61a46 46 0 0 0-.3-6.68c-.15-1.35-.5-3.85-.57-4.51-.33-2.71-.1-2.77-.28-2.08l-16.44-4.34-16.43-4.33c-1.6 6.06-.98 11.75-.6 14.82.5 4.16.67 4.9.63 5.9zm-.58-17-7.56-15.23a53 53 0 0 1-8.33 3.25l4.88 16.28 4.88 16.29a87 87 0 0 0 13.68-5.36zm-11.01 4.3-.05-17a17 17 0 0 0-6.26 1.2l-.09.04h-.02.02l.07-.03a15 15 0 0 1 1.51-.51 17 17 0 0 1 4.63-.65v34a17 17 0 0 0 5.46-.89l.53-.19.32-.12.08-.03.03-.02-.01.01-.07.03a20 20 0 0 1-1.5.5 17 17 0 0 1-4.6.66zm-.19.05v-17h-.07v34h.07zm-.07 0-4.76-16.32a55 55 0 0 1-15.48 2.2v34c8.4 0 16.86-1.18 25-3.56zm-20.24 2.88v-17a54 54 0 0 1-3.1-.1l-.99 16.98-.98 16.97q2.51.15 5.07.15zm-4.09-.12-16.7-3.17-.23 1.1c-.1.48-.25 1.2-.39 1.99a25 25 0 0 0-.21 7.86l16.82-2.45 16.82-2.45a13 13 0 0 1 .07 2.85v.02l.05-.28.12-.55.16-.77.2-1zm-.71 5.33-16.9 1.9a12.7 12.7 0 0 1 1.02-6.6l15.52 6.95 15.52 6.94a21.4 21.4 0 0 0 1.73-11.1zm-.36 2.25-9.05 14.39a8.5 8.5 0 0 1-3.76-5.54l16.65-3.4 16.66-3.4a25.5 25.5 0 0 0-11.44-16.44zm3.84 5.45-16.53 3.96a49 49 0 0 1 1.22 13.96l16.97.94 16.98.95a83 83 0 0 0-2.1-23.77zm1.66 18.86-17 .14q.01.83.04 1.39l.02.51.02.43.02.6v.21l16.99.58 16.99.58a45 45 0 0 0-.05-3.85l-.02-.41v-.32zm.09 3.86-7.58 15.22c-.42-.21-.67-.37-.61-.33l.65.42a24 24 0 0 0 5.12 2.64l5.9-15.95 5.9-15.94c.76.28 1.28.56 1.5.68.2.11.29.18.09.05l-.4-.26-.67-.43a27 27 0 0 0-2.33-1.32zm3.48 2-9.97 13.77a10 10 0 0 1-4.12-6.76q-.24-2.2.76-4.03l15.01 7.96 15.02 7.97a27.3 27.3 0 0 0 3-15.7 24 24 0 0 0-9.73-16.98zm1.69 10.94-15.86-6.14a11 11 0 0 1 .52-1.15l.12-.2a6 6 0 0 1-.8.98l.07-.06q.12-.12.58-.41l9 14.42 9 14.43a34 34 0 0 0 8.13-7.38c1.6-1.96 3.8-5 5.09-8.34zm-6.37 7.44-13.06-10.88.34-.4 12.6 11.42L300 450.6l.58-.67zm-.12.14-12.46-11.56a15 15 0 0 1 2.55-2.19l.03-.02-.85.56 9.63 14 9.63 14.02-.28.18.6-.39c.6-.39 2.1-1.4 3.6-3.03zm-1.1.8-9.28-14.25q-.74.48-1.97 1.16l8.12 14.94 8.12 14.93a63 63 0 0 0 4.29-2.54zm-3.13 1.84-8.19-14.9q-1.9 1.05-4.17 1.86l5.72 16.01 5.72 16.01a63 63 0 0 0 9.1-4.08zm-6.64 2.97-5.87-15.95a55 55 0 0 1-12.96 2.84l1.86 16.9 1.85 16.9a89 89 0 0 0 20.98-4.73zm-16.97 3.8-1.9-16.9q-3.94.44-8.2.43v34q5.9.01 11.99-.64zm-10.1.53v-17q-6.75 0-13.37-1.15l-2.9 16.75-2.91 16.75q9.51 1.65 19.18 1.65zm-16.27-1.4h-17v.02h34v-.02zm0 .02 2.87-16.75a66 66 0 0 1-13.03-3.53l-6.23 15.82-6.23 15.81a100 100 0 0 0 19.74 5.4zm-16.4-4.46 6.32-15.79a38 38 0 0 1-8.69-4.66l-10.2 13.6-10.2 13.6a72 72 0 0 0 16.47 9.03zm-12.57-6.85 10.31-13.52c-.5-.39-1.07-.85-1.79-1.47l-11.09 12.88-11.1 12.88c.97.83 2.1 1.78 3.36 2.74zm-2.57-2.1-10.62 13.27.36.28c.06.04.02.01-.03-.03l10.62-13.27 10.62-13.28-.36-.28c-.06-.04-.02-.01.03.03zm.33.25v17h.04v-34H202zm.04 0 10.16-13.64q2 1.52 3.31 3.49l-14.1 9.47-14.12 9.48a20 20 0 0 0 4.6 4.83zm-.64-.68L212 420.61q.29.23.7.6l-11.53 12.5-11.52 12.5q.63.57 1.13.96zm-.22-.18-12.02-12.02-.02.02 12.02 12.02 12.02 12.02.03-.02zm-.02.02 12.07-11.98c1 1 1.77 2.41 2.1 3.97.3 1.43.12 2.54-.06 3.15s-.4.95-.55 1.15a3 3 0 0 1-.97.82l-8.58-14.68-8.58-14.67a31 31 0 0 0-14.02 18.06c-2.27 7.97-1.33 18.24 6.52 26.15zm4-17.57 16.93-1.66c-.14-1.4.4-3.6 2.2-5.6 1.77-1.99 3.7-2.62 4.96-2.6l.27-17 .27-17c-24.56-.38-43.82 22.33-41.54 45.53zm24.36-26.86v17q.71 0 1.36.22l5.3-16.15 5.31-16.15a38 38 0 0 0-11.97-1.92zm6.67 1.07 14.04 9.58a6 6 0 0 1-1.43 1.48q-.21.14-.78.42l-7.16-15.42-7.15-15.42a29.5 29.5 0 0 0-11.57 9.78zm4.67-3.94 16.77-2.78c-.31-1.9-.52-3-.68-4.3q-.1-.86-.13-1.37v-.51l-.02.16-.11.5a8 8 0 0 1-.84 1.93 9.7 9.7 0 0 1-4.43 3.9l-6.37-15.76-6.38-15.76c-11.84 4.8-15.2 15.37-15.75 22.37-.47 6.04.84 12.42 1.17 14.4zm4.19-18.23 16.76-2.82q.15.92.17 1.85l-17 .19-17 .19q.01 1.68.3 3.41zm-.07-.78 11.48-12.54q-1.51-1.39-3.09-3.24l-12.96 11-12.97 10.99a70 70 0 0 0 6.06 6.32zm-4.57-4.79 13.06-10.88-.18-.2q-.07-.12-.18-.22l-13.06 10.88L227 373.09q.07.1.17.2l.18.22zm-.36-.42 12.4-11.64a14 14 0 0 1 2.61 3.98l-15.62 6.71-15.62 6.72c.85 1.96 2.1 4 3.85 5.87zm-.6-.95 13.18-10.72a35 35 0 0 1-3.7-5.55l-15.01 7.98-15.01 7.99a69 69 0 0 0 7.35 11.03zm-5.53-8.29-4.06-16.5c-2.55.62-5.54.77-10.42.75l-.08 17-.08 17c4.97.02 11.68-.02 18.69-1.74zm-14.56 1.25.23-17c-12.86-.17-24.18-4-31.31-11.14l-12.03 12.02-12.02 12.01c15.4 15.42 36.5 20.86 54.9 21.1zm-43.1-16.12.3-17c-16.75-.3-31.73-7.69-38.68-19.67l-14.7 8.53-14.71 8.53c14.57 25.12 42.52 36.15 67.48 36.6zm-53.09-28.14 14.2-9.35c-1.9-2.9-3.31-6.52-4.2-10.95l-16.67 3.37-16.66 3.37c1.53 7.55 4.27 15.52 9.14 22.91zm-6.67-16.93.37-17a5.98 5.98 0 0 1 5.33 7.62l-16.5-4.06-16.52-4.05c-4.32 17.6 9.16 34.1 26.96 34.48zm-10.8-13.44 4.23-16.46a58 58 0 0 1-13.25-5.23 15 15 0 0 1-3.13-2.23c-.24-.26 1.19 1.18 1.3 4.18l-17 .6-16.98.6c.27 7.75 4.02 13.64 7.48 17.45a47 47 0 0 0 11.32 8.84c7.39 4.27 15.81 7.18 21.78 8.72zm-27.84-19.14 16.98-.63c.08 2-.7 3.13-1.42 3.78a6.4 6.4 0 0 1-2.68 1.41c-1.45.4-3.1.38-4.63-.14l5.42-16.1 5.43-16.12c-10.7-3.6-20.49.35-26.55 5.93a29.4 29.4 0 0 0-9.54 22.5zm13.67-11.69 2.24 16.85a14.6 14.6 0 0 1-12.2-4.23l12.14-11.9 12.14-11.91a19.5 19.5 0 0 0-16.56-5.66zm2.18.71-8.66 14.63q-1.08-.65-1.84-1.32l11.1-12.87 11.1-12.87a21 21 0 0 0-3.04-2.2zm.6.44-4.92 16.27c6.71 2.03 15.83 4.62 25.75 4.42l-.35-17-.34-17c-4.06.09-8.64-.97-15.2-2.96zm20.48 3.7 2.42 16.82c3.34-.48 6.05-.85 8.58-1.02 2.52-.16 4.17-.06 5.23.14.95.18 1.02.36.8.2-.26-.22.06-.15.56 1.12l15.82-6.2 15.83-6.22c-2.43-6.17-6.12-11.44-11.17-15.42a35.5 35.5 0 0 0-15.5-6.88c-9.3-1.77-19.13-.21-24.98.63zm33.41 11.05-16.5 4.1a23 23 0 0 1 .34 1.56l.02.16 16.94-1.4 16.94-1.39a45 45 0 0 0-1.24-7.12zm.8 4.43-.21 17c-.17 0-1.27-.02-2.73-.47l4.96-16.26 4.97-16.26c-2.8-.85-5.26-1-6.78-1.01zm2.02.27-6.1 15.87a5.7 5.7 0 0 1-3.22-2.82l15.5-7.02 15.48-7.01a28.3 28.3 0 0 0-15.56-14.89zm6.17 6.03 16.54 3.92q.92-3.86 2.5-7.73l-15.73-6.43-15.74-6.44a86 86 0 0 0-4.11 12.76zm3.3-10.24 15.77 6.38c1.6-3.95 3.8-7.9 6.47-11.77l-13.98-9.67-13.98-9.67a96 96 0 0 0-10.03 18.34zm8.26-15.06 13.98 9.68a52 52 0 0 1 9.1-9.96l-11.01-12.95-11.03-12.94a86 86 0 0 0-15.02 16.5zm12.06-13.23 11.07 12.9a35 35 0 0 1 8.43-5.38l-6.9-15.54-6.9-15.53a68 68 0 0 0-16.76 10.65zm12.6-8.02 6.8 15.59q1.52-.67 3.43-1.2l-4.6-16.37-4.58-16.37q-3.86 1.06-7.84 2.77zm5.64-1.98 4.6 16.36c.17-.05.44-.11 1.2-.27l-3.53-16.63-3.53-16.63c-.8.17-2.02.43-3.34.8zm2.27-.54 3.5 16.63-.16.04.6-.1 1.05-.21-3.69-16.6-3.68-16.59.42-.09-.06.01-.52.09-.96.18zm1.3-.23 5.81 15.97-.7.24-4.98-16.25-4.98-16.26c.01 0 .05-.01 0 0l-.95.32zm.13-.04 16.41 4.42c.4-1.46.59-2.21.84-3l-16.22-5.1-16.22-5.1c-.52 1.65-.96 3.36-1.23 4.35zm1.03-3.68 16.23 5.07a58 58 0 0 1 1.79-4.98l-15.68-6.57-15.68-6.56a92 92 0 0 0-2.89 7.97zm2.34-6.48 15.63 6.68a50 50 0 0 1 16.78-21.02l-9.92-13.8-9.93-13.8a84 84 0 0 0-28.2 35.27zm22.49-28.14 9.9 13.8a49 49 0 0 1 26.16-9.1l-.79-16.98-.78-16.98a83 83 0 0 0-44.4 15.44zm-66.52 201.09 8.97 14.44a4.6 4.6 0 0 1-3.7.51l4.95-16.26 4.94-16.26a29.4 29.4 0 0 0-24.13 3.13zm10.22-1.31-4.78 16.31a6 6 0 0 1-1.3-.57l9.82-13.87 9.83-13.87a30 30 0 0 0-8.79-4.31zm3.74 1.87-7.65 15.18a16 16 0 0 1-4.3-3.11l12.02-12.02 12.02-12.02c-1.54-1.55-3.05-2.43-3.28-2.57-.53-.32-.96-.54-1.17-.65zm.07.05-7.47 15.27c.2.1 1.69.85 3.72 1.31.59.14 4.13 1 8.45-.22a17 17 0 0 0 12.35-16.24l-17-.12-17-.13a17 17 0 0 1 12.33-16.21c4.3-1.23 7.84-.36 8.41-.23 2.02.46 3.48 1.2 3.67 1.3zm.05 0-11.27 12.73.2.18.04.04.01.02v-.01l-.03-.03-.04-.06 14.22-9.32 14.22-9.32a34 34 0 0 0-6.1-6.97zm3.13 3.55-14.36 9.1a5 5 0 0 1-.6-1.31q-.1-.36-.08-.5l17-.16 17-.16a30.7 30.7 0 0 0-4.6-16.07zm1.96 7.13h-17q.02-.9.26-1.5a4 4 0 0 1 .72-1.22l12.91 11.07 12.9 11.06a30 30 0 0 0 7.21-19.41zm-3.1 8.35-12.99-10.99a4.6 4.6 0 0 1 2.98-1.61l1.87 16.9 1.86 16.9a29.4 29.4 0 0 0 19.25-10.22zm-8.14 4.3-2.11-16.87q.47-.06.98-.06v34q1.64 0 3.24-.2zm-1.12.07v-17c.62 0 .96.1.98.1l-4.44 16.4-4.45 16.41c2.26.62 4.95 1.09 7.9 1.09zm-3.46-.5-15.21-7.6-.02.05 15.2 7.6 15.2 7.6.03-.04zm-.03.05 4.97-16.26a4 4 0 0 1 2.18 1.68l-14.42 9-14.42 9a30 30 0 0 0 16.73 12.84zm-7.27-5.58 14.45-8.96a3.4 3.4 0 0 1 .5 2.64l-16.65-3.36-16.67-3.36a30.6 30.6 0 0 0 3.92 22zm-1.7-9.68 16.66 3.33c-.18.91-.74 2-2.06 2.82l-8.95-14.45-8.95-14.46a29.7 29.7 0 0 0-13.37 19.42zm30.85-43.34 5.06 16.23a2 2 0 0 1 .85-.02 4 4 0 0 1 1.57.58l8.84-14.52 8.84-14.52c-8.48-5.16-19.52-7.31-30.22-3.98zm16.32 2.27-8.75 14.58q.04.02 0 0l-.12-.1 9.88-13.82 9.88-13.84q-1.17-.81-2.14-1.4zm1 .66-8.43 14.75a16 16 0 0 1-3.98-3.32l12.9-11.06L218 346.04c-2.19-2.56-4.63-3.88-4.96-4.07zm.5.37-12.02 12.02c.85.86 1.64 1.49 1.91 1.7l.2.15.07.06-.22-.18 11.06-12.9 11.06-12.92-.42-.35-.3-.24-.1-.09-.09-.06-.04-.04-.02-.01.05.04.47.4.4.4zm1 .84-11.15 12.83-.02-.02.09.1 12.58-11.44 12.58-11.43q-1.25-1.4-2.92-2.87zm1.5 1.47-12.35 11.68c-.02-.01.15.17.44.7l14.97-8.05 14.98-8.05a37 37 0 0 0-5.69-7.95zm3.06 4.33-14.93 8.13c.46.84.56 1.94.4 2.6l16.5 4.09 16.5 4.09a38 38 0 0 0-3.54-27.04zm1.96 14.82-16.5-4.1c-.33 1.36-.94 2-1.14 2.15l10.3 13.52 10.31 13.52c7.28-5.55 11.63-13.33 13.53-20.99zm-7.34 11.57-10.22-13.58c-.75.56-1.12.7-1.17.7l5.18 16.2 5.17 16.2a38 38 0 0 0 11.27-5.94zm-6.22 3.32-5.2-16.18c-.13.04-.43.12-1.04.12v34c3.65 0 7.51-.49 11.45-1.76zm-6.24.94v-17h-.4v34h.4zm-.4 0 7.6 15.2.06-.02-7.6-15.2-7.61-15.21-.05.02zm.05-.03.55-16.99a3 3 0 0 1-1.28-.26l-7.7 15.15-7.72 15.15a37 37 0 0 0 15.6 3.94zm-8.44-2.1 7.75-15.13c-.5-.26-.97-.63-1.41-1.25l-13.77 9.97-13.77 9.97a38 38 0 0 0 13.46 11.57zm-7.43-6.4 13.82-9.9a4.3 4.3 0 0 1-.53-3.48l-16.07-5.54-16.07-5.54a38.3 38.3 0 0 0 5.03 34.35zm-2.78-18.92 16.05 5.61a4.6 4.6 0 0 1 1.2-1.92l-11.62-12.4-11.62-12.42a38.6 38.6 0 0 0-10.06 15.52zm5.63-8.72 11.62 12.4.29-.18q.3-.19 1.02-.42l-5.1-16.22-5.1-16.21a37 37 0 0 0-14.35 8.23zm-23.84-69.93-12.7-11.3q.27-.31.96-.93l11 12.96 11 12.96c.99-.83 1.8-1.66 2.44-2.38zm-.74.73-11.08-12.89.57-.47-.05.04-.25.2 10.7 13.22 10.7 13.2-.2.16-.02.02.04-.03.68-.56zm-.11.1-14.6 8.7a34 34 0 0 0 1.81 2.74l13.69-10.09 13.68-10.08.01.01zm.9 1.35 16.98-.73-.03-1.46-17 .02h-17q0 1.48.06 2.91zm336.98-31.05-6.68-15.64q-3.18 1.37-5.99 2.32l5.38 16.12 5.37 16.13c3.03-1 5.91-2.15 8.6-3.3zm-7.3 2.8-16.59-3.69c.3-1.36.76-2.47 1.16-3.28l15.23 7.55 15.23 7.55a20 20 0 0 0 1.57-4.44zm-.2.58 5.54 16.07 1.59-.51c.72-.23 1.77-.57 2.91-1.01a28 28 0 0 0 8.9-5.36l-11.44-12.57-11.44-12.58a8 8 0 0 1 1.44-1.05c.31-.17.46-.22.33-.17l-1.03.35-.46.14-1.88.61zM118.01 161.1v17q.94 0 1.88.08l1.44-16.94 1.44-16.94a57 57 0 0 0-4.76-.2zm3.32.14-1.26 16.95c-.07 0-.06 0 .18.03l.43.05.66.08 1.88-16.9 1.88-16.9-.8-.1c-.4-.04-1.01-.11-1.72-.16zm1.9.21-1.7 16.92a15 15 0 0 1-3.62-.84l5.97-15.92 5.97-15.91c-.94-.35-2.7-.94-4.94-1.16zm.65.16-2.54 16.81q2.43.38 4.75 1.23l5.92-15.93 5.93-15.94a58 58 0 0 0-11.52-2.97zm8.13 2.1-5.78 16q.8.28 1.8.75l7.19-15.4 7.19-15.41a56 56 0 0 0-4.62-1.92zm3.2 1.34-7.12 15.44q1.69.78 3.1 1.7l9.29-14.24 9.29-14.23a58 58 0 0 0-7.43-4.1zm5.27 2.9-9.13 14.34c2.81 1.8 5.3 4.25 7.24 7.16l14.16-9.41 14.16-9.42a59 59 0 0 0-17.3-17.01zm12.27 12.09-14 9.63a23 23 0 0 1 2.46 4.73l15.82-6.23 15.82-6.22a57 57 0 0 0-6.1-11.55zm4.28 8.13-15.76 6.38q.66 1.64 1.14 3.62l16.53-3.94 16.54-3.95a59 59 0 0 0-2.7-8.49zm1.91 6.06-16.34 4.7.05.16 16.34-4.7 16.34-4.7-.05-.16zm.05.16-16.77 2.8.1.42 16.76-2.8 16.77-2.8q-.12-.74-.22-1.11l-.07-.3-.03-.13v.03l.05.19.18.9zm.1.42-16.6 3.72c.86 3.81.86 7.8 0 11.62l16.6 3.71 16.58 3.72a61 61 0 0 0 0-26.48zm0 19.05-16.6-3.71a26 26 0 0 1-3.1 7.76l14.6 8.72 14.59 8.72a60 60 0 0 0 7.1-17.77zm-5.1 12.77-17-.03v-.28l.06-1.11a16.9 16.9 0 0 1 8.48-13.3 17 17 0 0 1 8.43-2.24v34A17 17 0 0 0 171 226.93v-.27zm-.03.04-14.64-8.62q-.86 1.46-1.9 2.72l13.18 10.74 13.17 10.75q2.69-3.3 4.84-6.96zm-3.36 4.84-13.23-10.68a26 26 0 0 1-7.5 6.35l8.27 14.85 8.26 14.86a60 60 0 0 0 17.42-14.7zm-12.46 10.52-8.32-14.82a25 25 0 0 1-9.7 3.04l1.8 16.9 1.8 16.9a59 59 0 0 0 22.73-7.19zm-16.23 5.12-1.9-16.89q-1.1.13-2.44.13v34q2.99.01 6.25-.34zm-4.34.24v-17a25 25 0 0 1-8.26-1.4l-5.65 16.03L98 261.07a59 59 0 0 0 19.57 3.33zm-13.91-2.36-12.02 12.02.02.02 12.02-12.02 12.02-12.02-.02-.03zm.02.02 5.56-16.06a26 26 0 0 1-9.6-6L87.8 235.22l-11.83 12.2a60 60 0 0 0 22.13 13.7zm-15.87-9.84L99.65 223a26.7 26.7 0 0 1-7.75-20l-16.98-.85-16.97-.85c-.85 16.91 5.67 34.12 18.02 46.1zm-12.89-33.06 16.98.85c.17-3.25.87-6.31 2.05-9.06l-15.61-6.73-15.62-6.72a60 60 0 0 0-4.77 20.81zm3.42-14.94 15.62 6.72a26 26 0 0 1 2.34-4.32l-14.08-9.53-14.08-9.53a60 60 0 0 0-5.42 9.95zm3.88-7.13 14.25 9.28c1.79-2.76 4.4-5.3 7.64-7.36l-9.1-14.35-9.1-14.36a59 59 0 0 0-17.94 17.52zM95 167.65l9.17 14.3c1.74-1.1 3.71-2 5.38-2.51l-5.04-16.24-5.04-16.23a57 57 0 0 0-13.65 6.37zm9.51-4.45 5.06 16.23q1.66-.51 3.57-.87L110 161.85l-3.13-16.71a65 65 0 0 0-7.42 1.83zm5.5-1.35 3.25 16.68q.58-.11 1.68-.25l-2.01-16.88-2.01-16.88a62 62 0 0 0-4.17.64zm2.92-.45 6.53 15.7c-.67.28-2.75 1.1-5.62 1.1v-34c-3.53 0-6.21 1-7.45 1.51zm.9-.2v17c.98 0 1.87-.06 2.24-.08l.39-.02v-34c-.97 0-1.86.05-2.22.07l-.4.02zm2.63-.1v17H118v-34h-1.54zM483 151v17q.96 0 1.88.08l1.44-16.94 1.44-16.94q-2.4-.2-4.76-.2zm3.32.14-1.25 16.95.16.02.44.06.67.08 1.88-16.9 1.87-16.9-.78-.1c-.4-.04-1.02-.11-1.73-.16zm1.9.21-1.7 16.92a15 15 0 0 1-3.62-.84l5.97-15.92 5.97-15.91c-.87-.33-2.65-.94-4.93-1.16zm.65.16-2.54 16.81q2.44.38 4.75 1.23l5.93-15.93 5.92-15.94a58 58 0 0 0-11.52-2.97zm8.14 2.1-5.79 16q.81.29 1.8.74l7.19-15.4 7.19-15.4a56 56 0 0 0-4.61-1.92zm3.2 1.34-7.13 15.44q1.69.77 3.1 1.7l9.29-14.24 9.29-14.24a58 58 0 0 0-7.43-4.1zm5.26 2.9-9.13 14.34a25 25 0 0 1 7.25 7.16l14.15-9.41 14.16-9.42a59 59 0 0 0-17.3-17.01zm12.27 12.09-14 9.63a23 23 0 0 1 2.46 4.72l15.82-6.22 15.82-6.22a57 57 0 0 0-6.1-11.55zm4.28 8.13-15.76 6.38q.67 1.64 1.14 3.62l16.54-3.94 16.53-3.95a59 59 0 0 0-2.7-8.49zm1.92 6.06-16.34 4.7.04.16 16.34-4.7 16.34-4.7-.05-.16zm.04.16-16.76 2.8a19 19 0 0 0 .27 1.36l.04.13-.01-.03-.04-.18-.17-.86 16.77-2.8 16.76-2.8q-.12-.7-.2-1.07l-.07-.29a8 8 0 0 0 .18.94zm.1.42-16.6 3.71c.86 3.82.86 7.8 0 11.63l16.6 3.71 16.59 3.72a61 61 0 0 0 0-26.48zm0 19.05-16.6-3.71a26 26 0 0 1-3.1 7.76l14.6 8.72 14.6 8.72a60 60 0 0 0 7.08-17.77zm-5.1 12.77-17-.22a17 17 0 0 1 3.76-10.41 17 17 0 0 1 13.03-6.33l.19 17 .19 17a17 17 0 0 0 16.83-16.82zm-.02.04-14.65-8.62q-.85 1.46-1.9 2.72l13.18 10.74 13.18 10.75q2.68-3.3 4.84-6.96zm-3.37 4.84-13.22-10.68a26 26 0 0 1-7.5 6.34l8.26 14.86 8.26 14.86a60 60 0 0 0 17.43-14.7zm-12.46 10.52-8.31-14.83a25 25 0 0 1-9.71 3.05l1.8 16.9 1.8 16.9a59 59 0 0 0 22.73-7.19zm-16.22 5.12-1.91-16.9q-1.1.14-2.44.14v34q3.01.01 6.25-.35zm-4.35.24v-17a25 25 0 0 1-8.26-1.4l-5.65 16.04-5.66 16.03a59 59 0 0 0 19.57 3.33zm-13.91-2.36-12.02 12.02.02.02 12.02-12.02 12.02-12.02-.02-.03zm.02.02 5.57-16.06a26 26 0 0 1-9.61-6l-11.83 12.22-11.83 12.2a60 60 0 0 0 22.14 13.7zm-15.87-9.84 11.84-12.2a26.7 26.7 0 0 1-7.74-20.01l-16.98-.85-16.98-.85c-.85 16.91 5.67 34.12 18.02 46.1zm-12.88-33.06 16.98.85c.16-3.25.86-6.32 2.04-9.06l-15.6-6.73-15.62-6.72a60 60 0 0 0-4.78 20.81zm3.41-14.94 15.62 6.72a26 26 0 0 1 2.34-4.32l-14.08-9.53-14.08-9.53a60 60 0 0 0-5.42 9.95zm3.88-7.13 14.25 9.28c1.8-2.76 4.41-5.3 7.64-7.36l-9.1-14.35-9.1-14.36a59 59 0 0 0-17.93 17.52zM460 157.55l9.18 14.3c1.73-1.1 3.7-1.99 5.38-2.51l-5.05-16.24-5.04-16.23a57 57 0 0 0-13.65 6.37zm9.51-4.45 5.06 16.23a32 32 0 0 1 3.57-.87l-3.13-16.71-3.14-16.71a65 65 0 0 0-7.42 1.84zm5.5-1.35 3.25 16.68q.59-.12 1.68-.25l-2.01-16.88-2.01-16.88a62 62 0 0 0-4.17.64zm2.92-.45 6.54 15.7c-.67.28-2.75 1.1-5.63 1.1v-34c-3.53 0-6.22 1-7.45 1.51zm.91-.2v17c.97 0 1.86-.06 2.23-.08l.39-.02v-34c-.97 0-1.86.05-2.21.07l-.4.02zm2.62-.1v17H483v-34h-1.54z" mask="url(#crests-surveys-path-1-outside-1_23_1571)"/></g><path fill="#577091" d="M213.17 317.32c.96 6.26-2.83 12.83-8.98 14.7-2.52.56-7.15 2.88-9.56 1.62a87 87 0 0 1-20.43 1.42c-27.8-1.12-53.35-19.12-56.31-48.01q.01-1.05.44-1.78c.14-1.96 1.54-3.6 4-2.3 7.57.38 15.1-.7 22.65-1.28.37-.02.8.1 1.12.28 1.24-.2 2.64.5 3.23 2.43a27 27 0 0 0 6.96 13.94c1.13.68 2.18 1.77 3.4 2.2 7.99 4.41 18.06 5.8 27 4.2 10-3.97 20.12-3.04 23.77 5.24 1.9 1.8 2.38 4.88 2.69 7.36zm252.43-43.95c7.45-.3 12.08 1.45 11.68 9.84.52 15.57-10.56 29.3-24.08 35.91-13.11 8.65-28.84 13.6-44.62 11.64-6.18-.74-12.7-1.28-18.26-4.27-9.73-7.11-9.03-20.86-.4-28.53 8.63-8.2 20.76-1.5 30.97-2 6.15.25 12.89-.3 18-4.03 4.17-4.5 8.89-9.44 9.66-15.7 0-1.57 1.05-3.19 2.74-3.23 4.76.02 9.53.05 14.28.35zm-188.15 85c.5 9.75.84 19.66-.58 29.34-.4 6.87-6.32 13.98-13.68 12.72-15.57-2.04-15.55-15.32-15.38-27.87-.17-8.23-.84-16.46-.61-24.71-.19-3.6.77-7.55 3.55-10.03 3.3-2.76 8.28-3.1 12.4-2.43 2.45.44 4.32 2.13 6.52 3.13 2.17.96 4.72 1.64 5.84 3.93 2.3 4.98 1.66 10.59 1.92 15.9zm79.05 10.41c-.21 8.6 3.36 18.8-2.88 25.97-4.02 4.1-10.57 6.22-16.08 4.26-13.77-3.56-12.16-21.23-11.7-32.26.31-6.53 0-13.07.12-19.62-.93-6.64 4.89-12.74 11.62-11.57 4.75.26 9.9.6 13.52 4.07 7.48 7.64 4.1 19.52 5.35 29.15z"/><path fill="#fff" d="M279.08 376.88c2.95 4.55 1 10.44.42 15.45-1.5 8.46-10.6 12.22-18.42 10.96-4.81-.98-8.65-4.18-11.9-7.69-1.7-1.82-3.6-3.67-4.13-6.22-.96-3.67-.9-7.45-1.22-11.2.02-.79.28-1.6.77-2.24 0-1.21.75-2.52 1.92-2.94.98-.33 1.84 0 2.64.58 1.7 1.26 3.6 2.27 5.47 3.25a25.6 25.6 0 0 0 17.65-.58c2.25-.94 5.24-2 6.8.6zm78.95.79c.96 4.9.56 10.07-.3 14.94-3.05 7.1-11.3 13.72-19.36 12.53-10.62-2.36-15.8-9.73-15.25-20.46-.11-2.08.33-4.3-.23-6.31-.42-1.45.21-3.3 1.64-3.95 1.26-2.62 4.77-1.52 4.95 1.17 3.67 1.66 7.9 1.21 11.83 1.28 3.65-.35 7.67.5 10.76-1.94 1.26-.84 2.99-1.5 4.34-.46.99.74 1.36 2.03 1.64 3.2zm113.68-98.11c-5.96-.96-28.87.58-28.85-7.06.82-10.5 17.2-6.36 24.27-6.15 5.28 1.07 13.46-.87 16.1 5.16 1.55 6.43-6.61 8.49-11.52 8.05"/><path fill="#fff" d="M468.94 270.53q-.31-.56-.28-1.17c-.87-.11-1.73-.18-2.58-.37l-.81-.17c-.94.8-2.39 1.1-3.51.64-1.43-.61-3.11-1.38-3.9-2.8q-.04 0-.07-.06c.25 2.97-3.02 4.94-5.6 3.6-1.49-.63-2.07-2.85-.83-4-.1-3.78-1.43-8.18.49-11.66 2.52-4.07 7.03-5.75 11.66-5.96 9.9-.68 19.45 4.02 29.32 2.2 7.43-3.3 16.64-11.48 19.17 1.75.77 6.52-6.57 9.7-11.25 12.48-7.76 4.17-16.55 5-25.1 6.39-2.2.3-5.26 1.5-6.69-.9zM485.1 263c2.57-.88 5.45-1.5 7.53-3.38a96 96 0 0 1-7.3 2.8q-.06.31-.2.58zm-370.22 25.06c-6.5-.8-7.83-9.2-2.66-12.71 1.94-1.57 4.55-1.38 6.92-1.48 3.36-.2 6.61-.53 9.98-.35 7.36.42 14.82-1.42 22.09-.02 5.87 1.66 5.12 10.12-.19 12-4.51 1.54-9.72 1.58-14.4 2.07-7.22.24-14.52 1.1-21.72.52z"/><path fill="#fff" d="M141.09 277.92c-1.54-.26-2.46-1.76-2.46-3.25-12.1 2.15-24.54 4.65-36.7 1.7-4.98-1.28-9.68-3.6-14.12-6.17-2.52-1.54-5.58-2.73-6.9-5.59-3.01-5.14 1.22-12.1 6.76-13.02 2.9-.51 5.59.82 7.95 2.36 11.6 7.5 25.88 1.5 38.64 2.41 7.5.73 11.04 4.7 11.37 12.16.4 1.92-.14 3.76-.59 5.59.96 2.33-1.73 4.41-3.95 3.8m139.07 102.08c-11.97-1.36-23.83-5.92-32.83-14.08a45 45 0 0 1-11.03-15.03q-.25-.55-.47-1.15a62 62 0 0 1-14.91 1.85 61.55 61.55 0 0 1-58.12-41.61l-.07-.19q-.03-.12-.1-.23v-.07a62.5 62.5 0 0 1-.04-39.6c4.04-12.2 12-23 22.42-30.51a62 62 0 0 1 20.6-9.66c.16-4.88 1.21-9.8 3.08-14.28a52 52 0 0 1 10.36-15.64c8.97-9.4 20.97-15.38 33.45-18.49a73 73 0 0 1 37.05.42 59 59 0 0 1 17.44 8.07 46 46 0 0 1 12.14 12.32q.95-.92 1.91-1.76a36 36 0 0 1 5.64-3.92c3.62-2.1 7.6-3.6 11.69-4.59a49 49 0 0 1 13.9-1.19 47 47 0 0 1 14.06 2.97c8.67 3.34 16.48 9.7 19.75 18.6q.99 2.72 1.36 5.57c.13 0 .25.05.4.05q2.1.25 4.18.6a63 63 0 0 1 7.78 1.95c11.74 3.74 22.37 10.87 29.62 20.92a44 44 0 0 1 7.57 17.32 39 39 0 0 1-5.28 28.48 42 42 0 0 1-6.1 7.45 44 44 0 0 1-7.13 5.61 47 47 0 0 1-7.48 3.95 72 72 0 0 1-5.28 1.92q-.15.3-.36.61c2.93 15.69 2 35.3-13.2 44.37a57 57 0 0 1-32.43 8.37c-6.54-.5-13.49-.5-19.5-3.46q-.73-.42-1.42-.89a51 51 0 0 1-7.22 8.77 57 57 0 0 1-15.74 10.54 67 67 0 0 1-28.03 6.08q-3.9 0-7.74-.44zm-91.48 10.75a18 18 0 0 1-8.72-5.84 18.7 18.7 0 0 1-4.23-13.28c.16-1.73.47-3.41 1.05-5.07a18 18 0 0 1 2.34-4.51 18.05 18.05 0 0 1 22.9-5.85q.33.08.62.24l.09.04q.3.14.56.33.71.42 1.38.96.09.08.21.14l.6.49q.25.2.45.44l.96.94a18.6 18.6 0 0 1 4.51 8.02 19.4 19.4 0 0 1-3.62 17.16 18.4 18.4 0 0 1-9.1 5.96q-2.25.65-4.58.65c-1.8 0-3.62-.28-5.37-.77zm-22.85 18.61a9.5 9.5 0 0 1-5.77-5.87 10.6 10.6 0 0 1 1.63-9.68 9.3 9.3 0 0 1 10.4-3.17q.25.07.45.18.08.01.14.05.3.1.56.26l.33.2a10 10 0 0 1 3.06 2.95 10.3 10.3 0 0 1 1.36 8.07 10 10 0 0 1-4.8 6.36 9 9 0 0 1-4.39 1.17c-1 0-2-.2-2.99-.5zm191.67 32.8c-10.8.16-42.2-1.06-42.15-15.78.56-4.94 6.6-4 10.12-3.09 9.47.75 19.1 1.73 28.48 1.64 11.8.1 23.33-2.67 34.9-4.28 1.45-7.48 14.66 1.38 12.86 6.62-.73 13.02-34.02 14.44-44.23 14.86zm6.05-9.5c10.17.24 20.88.22 29.41-6.14-3.8-1.12-7.64.14-11.38.93-4.8.73-9.61 1.22-14.4 2.01-12.23 1.62-24.45.21-36.7-.3 3.01.56 6.03 1.35 9.11 1.5.98.02 2.04.44 2.7 1.19 7.05 1 14.16 1.14 21.26.8zm-127.73 9.29c-6.8-.58-13.47-1.99-20.01-3.81a16 16 0 0 1-12.13-8.09c-1.87-2.8-1.2-7.62 1.7-9.47 2.39-1.26 5.36-2.29 8.07-1.94 3.48.63 3.32 5.1-.21 5.43.84 3.78 4.95 4.44 8.18 5.42 9 3.25 20.55 2.55 29.88 1.4 9.04-1.42 18.67-.42 26.97-4.77-1.4-.51-2.33-2.38-1.4-3.71 1.3-1.94 3.93-1.48 5.84-.92 11.79 2.06 8.14 12.65-1.05 15.32-14.7 4.79-30.53 5.75-45.82 5.19z"/><path fill="#fff" d="M239.3 443.98c-9.91-1.31-20.39-1.12-29.22-6.43-6.57-3.76-10.85-11.46-3.81-17.16 1.91-2.1 5.91-.4 5.73 2.43-.24 2.06-3.04 2.95-3.2 5.05 3.43 10.17 24.56 9.6 33.73 10.68 9.37-.44 38.92 1.76 39.25-11.15-2.1-1.63-6.62-1.12-6.45-4.74.16-1.64 1.87-2.43 3.34-2.15 7.62 1.14 12.74 7.29 7.34 14.28-9.68 11.4-33.03 9.05-46.73 9.19zm100.08-.08a64 64 0 0 1-12.23-2.92c-3.74-1.33-7.5-3.25-9.93-6.5a8.5 8.5 0 0 1-1.45-6.73 10 10 0 0 1 1.54-3.53c.5-.7 1.08-1.57 1.78-2.06 1.38-.91 3.04-.28 3.74 1.15a3.7 3.7 0 0 1-.73 4.2l-.14.14-.44.57-.28.44-.14.3q0 .05-.03.1l-.02.16v.21q0 .08.02.14.02.1.07.19l.17.35.28.42a9 9 0 0 0 1.59 1.5c.8.56 1.63 1.05 2.13 1.3 1.7.87 3.5 1.55 5.33 2.16 3.5 1.07 7.1 1.77 10.73 2.29q.22.01.44.07c6 .8 12.11.95 18.1.75a107 107 0 0 0 17.32-2.02c3.6-.77 7.17-1.68 10.61-3.01l.12-.05q.05 0 .11-.04 2.25-.9 4.33-2.06 1.17-.7 2.27-1.52l.93-.84.63-.73q.17-.23.33-.51.08-.14.12-.26.01-.1.07-.2l.02-.2V427l-.02-.16c0-.05-.05-.12-.05-.17l-.21-.4-.23-.34q-.3-.35-.61-.66c-.1-.1-.19-.16-.28-.26l-.05-.02-.02-.02.04.04.08.05q-.07-.04-.12-.1a3.6 3.6 0 0 1-.82-4.1c.35-.76.98-1.41 1.8-1.65q.75-.2 1.43.05.77.22 1.26.87l.07.07c1.05 1 1.94 2.15 2.5 3.5q1.2 2.88.28 5.9a11 11 0 0 1-3.23 4.81 24 24 0 0 1-5.82 3.81 36 36 0 0 1-3.55 1.52 69 69 0 0 1-12.06 3.32q-6.29 1.18-12.63 1.66a113 113 0 0 1-25.15-.75z"/><path fill="#fff" d="M238.5 445.03a93 93 0 0 1-8.5-1.08 68 68 0 0 1-11.01-2.78c-4.21-1.5-8.47-3.5-11.67-6.7a12.5 12.5 0 0 1-3.27-5.46 10.4 10.4 0 0 1 1.77-8.97c.68-.96 1.53-2.18 2.72-2.48.93-.26 1.9.14 2.5.86.8.96.89 2.25.54 3.4-.26.81-.92 1.4-1.43 2.03a7 7 0 0 0-.7 1.21q-.09.22-.16.45l-.07.32q0 .15-.03.29v.37q.01.16.05.3l.11.42a6 6 0 0 0 .68 1.27q.35.46.73.88.71.75 1.5 1.38 1.37 1.03 2.9 1.9 2.56 1.34 5.3 2.36a64 64 0 0 0 9.94 2.62l.25.04c5.33.91 10.7 1.34 16.09 1.38q7.8 0 15.38-1.24.09 0 .16-.02h.1q5.06-.87 9.84-2.45.05-.01.11-.05a43 43 0 0 0 5.22-2.22q1.48-.8 2.85-1.78.78-.6 1.5-1.28.46-.45.86-.99.2-.27.38-.56c.09-.11.16-.28.18-.3.33-.5.73-.91 1.29-1.15a2.4 2.4 0 0 1 2.31.21 3 3 0 0 1 1.29 2.13c.14.84 0 1.97-.5 2.55l-.04.1a20.5 20.5 0 0 1-7.53 6.54 52 52 0 0 1-13.32 4.74 93 93 0 0 1-20.06 2.13q-4.15 0-8.25-.33z"/><path fill="#c1dcff" d="M280.12 393.13c7.1.1 8.04 36.54.33 34.25a38 38 0 0 1-9.61 4.72c-4.51 1.6-9.3 2.44-14.05 3.02-3.09.37-6.17.54-8.88.56h-1.71c-8.88 0-17.9-1.03-26.3-3.95a44 44 0 0 1-8.2-3.81 3.2 3.2 0 0 1-1.38-1.64c-.85-.2-1.62-.96-1.94-2.33-2.81-14.4 7.31-32.76 23.49-31.35 1.96.14 3.93.49 5.75 1.14q.29-.84 1.05-1.52a15.2 15.2 0 0 1 12.4-2.85c3.9.82 10.12 3.53 6.28 8.23-.8 2.57 1.9 3.9 3.72 4.98 3.62 1.54 8.02 1.03 10.3-2.46a4.2 4.2 0 0 0 .85-2.85c.1-4.49 4.42-4.8 7.9-4.18zm105.71 2.76c8.18 6.12 13.86 17.9 9.51 27.84a5.7 5.7 0 0 1-1.66 2.74 2.7 2.7 0 0 1-2.12 1.51h.09q.2-.01.37-.06l.36-.15c-.59.24-1.13.59-1.71.9a60 60 0 0 1-3.95 1.8 58 58 0 0 1-9.54 2.9 87 87 0 0 1-18.12 1.86c-6.1 0-12.25-.63-18.26-1.77a86 86 0 0 1-9.44-2.41q-2.17-.7-4.32-1.45c-1.01-.38-2.02-.82-3.02-1.22l-.44-.16-.07-.02h-.05s-.05 0-.05-.03a2.8 2.8 0 0 1-1.43-1.38 3 3 0 0 1-1-.72c-5.35-7.3-4.56-29.39 5.52-32.24 1.98.05 2.85 2.25 2.78 3.95 3.2 3.32 9.72 7.2 14.07 4.1-.58-1.43-1.42-2.81-1.33-4.4a3.1 3.1 0 0 1 2.74-3.04q.3-.24.63-.45c4.67-3.71 11.62-4.62 17.32-3.04 1.59.68 3.76 1.57 5.07 2.93 5.82-1.97 12.81-.87 18 2.06z"/><path fill="#fff" d="M346.39 263.4c5.68-1.14 3.22 14.27 2.75 17.54-3.25 11.8-15.47 20.9-27.77 20.13-10.78-1.36-18.05-5.3-22.49-11.9-5.5 6.47-13.9 10.61-22.37 10.07-18.24-2.29-26.46-12.06-27.89-29.33a3.4 3.4 0 0 1-.19-2.67c-.11-1.87-.16-3.95 1.45-5.21 1.85-1.57 4.56.05 4.23 2.38v.87c13.42.42 26.89-.42 40.33-1.17l.28-.26a2.5 2.5 0 0 1 3.37.05q.52-.02 1.07-.07a3.6 3.6 0 0 1 2.34-2.22c1.47-.28 2.38.51 2.94 1.94 13.63-.68 27.26-.98 40.82.4q.5-.39 1.08-.52z"/><path fill="#000" d="M276.76 286.75a19 19 0 0 1-3.95-.5l-.49-.11h-.07q-.07-.01-.14-.05a19.5 19.5 0 0 1-8.02-4.23l-.04-.05a20 20 0 0 1-2.93-3.18l-.72-1.05a21 21 0 0 1-2.08-4.11 21.6 21.6 0 0 1-1.05-10.34c.33-2.33 1.1-4.62 2.27-6.73l4.93-.28c.44.58 1.14.96 1.9.91l1.86-.11h-.05.2l1.63-.15h.35q-.09 0-.21.03l3.6-.4q2.25-.2 4.51-.44h-.3l3.32-.28q2.72-.16 5.44-.28c1.31-.07 2.62-.07 3.93-.1 1 0 1.99-.04 3-.04q.39.45.58 1c.18.4.42.8.58 1.2q.6 1.33 1 2.73.63 1.93.85 3.97a22 22 0 0 1-.35 6.71l-.26 1.17a17 17 0 0 1-1.8 4.42l-3.86-1.15c-1.3-.4-2.62-.8-3.97-1.1l-.87-.16c-.42-.16-.84-.3-1.28-.33h-.84.07-.05c-.02 0-.07-.04-.1-.04a2.4 2.4 0 0 0-1.86-.1 2.37 2.37 0 0 0-1.36 3.02l.8 2.17-.12-.28q1.28 3.59 2.57 7.13-.36.14-.68.24-2.4.77-4.93.86h-1.05zm49.73-4.99s-.03-.1-.05-.12c0 .05.05.1.05.14z"/><path fill="#000" d="M322.52 289.95a19 19 0 0 1-3.95-.5l-.5-.1h-.06l-.14-.05a19.5 19.5 0 0 1-8.02-4.24l-.05-.04a20 20 0 0 1-2.92-3.18q-.39-.53-.73-1.05a19 19 0 0 1-1.8-3.44c.26-.75.47-1.5.73-2.24.42-1.31.84-2.6 1.1-3.96l-.05.3.07-.39q.3-1.41.42-2.85 0 .16-.02.3l.04-.58v-.14.14-.1.17c0-.19.05-.4.07-.59q.14-1.05.24-2.1l.04-.84q-.15 0-.32-.03v-.53c0-1.24-1.17-2.22-2.36-2.22a20 20 0 0 1 3.88-6.06c.81.05 1.66.07 2.47.14q3.6.3 7.18.56c2.08.2 4.19.47 6.27.28a2.3 2.3 0 0 0 1.84-1.28q2.94.21 5.92.47 3 .24 5.98.63.7.8 1.29 1.73.65.54.93 1.33c.19.4.42.8.59 1.2q.59 1.33 1 2.73.63 1.93.84 3.97a22 22 0 0 1-.35 6.71l-.25 1.17c-.33 1.3-.84 2.6-1.48 3.81a3 3 0 0 0-.51-.23c-1.87-.54-3.79-1.03-5.66-1.55l-3.41-.9-1.61-.43-.5-.12q-.35-.17-.77-.2-.68-.19-1.4.09a2.35 2.35 0 0 0-1.3 3.04l.09.18.04.1c.38.84.7 1.7 1.08 2.55v-.05l.02.07c0 .05.05.1.05.14v.05q.67 1.62 1.38 3.24a21 21 0 0 0 1.59 3.09l.28.42q-.63.26-1.29.47-2.4.77-4.93.86h-1.05z"/><path fill="#b6cff0" d="M350.31 257.6c-6.06-.06-12.1-.23-18.19-.25q-9.56-.08-19.17-.12c-12.74-.06-25.48-.18-38.24-.25l-14.73-.07q-3.54 0-7.06-.03h-3.62q-.3.06-.59.05h-.61q-.36.01-.72-.05-.13.01-.26-.04c-1.1-.26-2.08-1-2.31-2.15-.38-1.85 1.42-3.23 3.1-3.23h.64q.3-.01.63.05h.37c5.87.19 11.79.12 17.65.19q9.56.08 19.13.14 19 .13 38 .23c4.43.02 8.84.1 13.24.1h8.55q2.02.01 4.03-.05h.25c1.55-.05 3.25.98 3.3 2.66.05 1.66-1.61 2.85-3.18 2.83h-.3z"/><path fill="#b6cff0" d="M244.54 266.66c-7.56-.4-8.3-9.37-3.07-13.4 2.46-2.14 9.47-4.02 10.38.45.1 2.62-2.87 3.02-4.88 2.92-1.97.5-2.62 2.55-2.3 4.37.78.42 1.76.12 2.6.14 1.54-.07 3.27.87 3.37 2.57 0 3.11-3.81 3.14-6.1 2.97z"/><path fill="#b6cff0" d="M350.9 267.28h-.36c-.72-.1-1.47-.05-2.22-.07-1.12 0-2.22-.05-3.34-.05q-3.51-.06-7.06-.07-7.14-.03-14.29-.1-7.89-.07-15.78-.11h-.8c-2.7 0-5.41-.02-7.66-.05q-7.42-.01-14.84-.1h-.52c-8.41 0-16.83-.09-25.24-.13h-9.15c-1.5 0-3.55.2-4.58-1.17a2.7 2.7 0 0 1-.58-1.38c-.05-.66.23-1.24.63-1.73.8-.94 2.06-1.15 3.2-1.15h2.57l4.7.07c3.13.05 6.3.05 8.96.1 9.93 0 19.87.14 29.78.19 7.22.04 14.47.11 21.25.16h5.1c6.24 0 12.5.1 18.3.12h11.13l.42-.03h.23c1.36-.11 2.92.77 3.25 2.15.4 1.66-1 3-2.52 3.3q-.32.07-.61.07z"/><path fill="#b6cff0" d="M349.12 264.3c-.12-2.18 2.08-2.74 3.71-3.13.92-.85.33-2.44-.23-3.35-.7-.35-1.5-.35-2.27-.46-1.77-.22-3.2-2.2-2.33-3.9.79-1.67 3.08-2.2 4.65-1.36 5.21.23 8.65 6.1 6.45 10.77-1.43 3.37-8.84 6.31-9.98 1.43"/><path fill="#b6cff0" d="M328.85 264.76c-10.38-.05-20.92.44-31.12.04-10.14-.6-20.17-2.15-30.36-1-4.98.18-9.5.2-14.08.16-3.3-.37-10.42.94-11.17-3.46.16-3.62 5.7-4.25 8.5-4.93 2.46-2.71 7.02-1.03 10.3-1.29 6.63.54 14 .84 20.38.87 23.38-2.5 46.87-1.45 70.18 1.35 2.48-.49 5.05-.14 6.08 2.48 1.91 8.81-23.82 5.63-29.13 5.8h.47z"/><path fill="#df6033" d="M356.2 296.56c.68 2.52.61 5.05 0 7.57a14 14 0 0 1-3.4 6.15q-.1.53-.48.96c-.42.49-.9.77-1.47 1.05a96 96 0 0 1-4.54 2.15 82 82 0 0 1-6.14 2.5 108 108 0 0 1-12.37 3.58 133 133 0 0 1-34.9 3.11c-9.19-.4-18.45-1.66-27.26-4.37a77 77 0 0 1-8.67-3.2q-2.1-.95-4.14-2.04c-.63-.33-1.24-.7-1.87-1.03q-.18-.07-.35-.18-.3-.19-.56-.4-1.23-.37-2.39-.94a14 14 0 0 1-6.43-7.1 14.7 14.7 0 0 1-.49-9.92c1.4-4.58 5.15-8.44 9.82-9.58a14 14 0 0 1 8.37.47q.23.07.47.18.38.16.65.38a15 15 0 0 1 3.46 2.52l.63.68q.32.15.61.33.26.17.51.37c1.6.98 3.28 1.83 4.96 2.64a68 68 0 0 0 7.04 2.79 78 78 0 0 0 9.19 2.33q4.63.85 9.35 1.17 4.88.29 9.72 0c2.88-.18 5.75-.58 8.6-1.07q3.7-.73 7.27-1.87a52 52 0 0 0 5.83-2.32 51 51 0 0 0 4.58-2.5q1.43-.94 2.76-2 .15-.15.32-.29l.38-.33a3 3 0 0 1 1.05-.54q1.5-.85 3.23-1.28a14 14 0 0 1 8.36.47q.24.07.47.18.37.16.66.38.43.21.84.47a14 14 0 0 1 6.31 8.58z"/><path fill="#c1dcff" d="M155.16 202q.15 2.8-.16 5.6a38.3 38.3 0 0 1-8.65 20.72 38 38 0 0 1-19.13 12.3 39 39 0 0 1-9.88 1.28q-4.42.01-8.68-1.05a37.9 37.9 0 0 1-27.63-26.84 38 38 0 0 1-1.43-9.75v-1.98q.18-3.81.99-7.55c.72-3.3 1.98-6.53 3.6-9.47a37 37 0 0 1 10.4-12.2 33 33 0 0 1 4.25-2.83 34 34 0 0 1 7.79-3.32 39 39 0 0 1 13.11-1.55c2.58.17 5.05.54 7.56 1.2q.37.1.7.32a37 37 0 0 1 11.54 5.7q.5.18.92.6c.46.39.93.76 1.16.97a39 39 0 0 1 9.38 11.9 37 37 0 0 1 4.14 15.95zm365.38-9.82q.15 2.8-.16 5.61a38.3 38.3 0 0 1-8.65 20.71 38 38 0 0 1-19.12 12.3 39 39 0 0 1-9.9 1.29c-2.91 0-5.84-.33-8.67-1.06a37.9 37.9 0 0 1-27.63-26.84 38 38 0 0 1-1.42-9.74v-1.99q.17-3.81.98-7.55c.72-3.3 1.98-6.52 3.6-9.47a37 37 0 0 1 10.4-12.2 33 33 0 0 1 4.26-2.83 34 34 0 0 1 7.78-3.32 39 39 0 0 1 13.12-1.54c2.57.16 5.05.54 7.55 1.19q.38.09.7.33a37 37 0 0 1 11.55 5.7q.49.17.9.59l1.18.98a39 39 0 0 1 9.37 11.9 37 37 0 0 1 4.14 15.94z"/><path fill="#a3b464" d="M458.12 196.23c-1.29-3.25 1.91-4.68 4.02-6.34 1.73-1.1 3.06-3.13 5.14-3.46 1.66 0 2.8 1.71 2.76 3.25-.05 3.14-3.53 4.14-5.47 6.03-1.17 1.13-2.76 2.34-4.14 2.34-.89 0-1.7-.49-2.31-1.82"/><path fill="#a3b464" d="M472.81 212.1c-.53-.55-1.12-1.04-1.68-1.58l-2.83-2.67q-3.94-3.76-7.92-7.48l-1.52-1.4a4.4 4.4 0 0 1-1.24-1.59 3.7 3.7 0 0 1 .37-3.46 2.6 2.6 0 0 1 2.83-1 3 3 0 0 1 1.31.9q.52.53 1.07 1.04l2.46 2.31 3.88 3.62q2.98 2.83 5.98 5.62.37.35.75.67c1.22.84 1.64 2.74 1.1 4.14a2.9 2.9 0 0 1-2.08 1.87q-.21.04-.42.05c-.8 0-1.59-.42-2.08-1.08z"/><path fill="#a3b464" d="M478.53 215.1c-2.97 0-6.24-1.97-6.43-5.15-.24-3.2 3.76-4.93 5.16-1.66.64.38 1.38.38 2.09.35 1.3-1.59 3.22-3.88 5.26-1.87a3.6 3.6 0 0 1 .28 4.56c-1.45 1.8-3.11 3.83-5.52 3.83q-.38 0-.8-.07zm-2.08-11.09c-3.01-2.62-5.21-5.77-8.13-8.42-1.4-1.45-3.04-3.22-2.67-5.4.24-3.32 4.7-3.85 5.35-.46 3.18 3.6 6.71 6.87 9.85 10.4 1.38 2.13-.36 5-2.37 5-.67 0-1.37-.33-2-1.12z"/><path fill="#a3b464" d="M475.98 209.13c-4.19-2.45-8.44-5.42-10.06-10.2-1.17-1.4-2.43-2.98-2.45-4.83-.05-4.2 5.73-4.16 5.98-.12 2.74 2.86 5.2 7.06 9.05 8.35 1.64.26 2.43 2.1 2.24 3.6-.3 1.75-1.68 3.6-3.39 3.6q-.65 0-1.35-.37z"/><path fill="#a3b464" d="M475.43 203.96a3.65 3.65 0 0 1-.18-4.88l.14-.17.2-.25.22-.24c3.25-3.78 6.38-7.66 9.56-11.5a847 847 0 0 0 7.22-8.76l1.87-2.27-.04.1q.44-.8 1.3-1.18c.92-.37 1.92-.1 2.62.56a3.6 3.6 0 0 1 .05 5c-.58.64-1.07 1.31-1.64 1.97q-1.41 1.67-2.8 3.39c-2.97 3.53-5.87 7.1-8.86 10.64a306 306 0 0 0-5.56 6.78c-.08.09-.12.18-.22.28l-.25.28a2.7 2.7 0 0 1-2.01.95 2.4 2.4 0 0 1-1.69-.7z"/><path fill="#a3b464" d="m494.58 175.8-.05.06q0-.03.05-.07m8.46 10.43-.05-.04-.05-.03-.16-.14q-1.44-1.25-2.92-2.43l-2.15-1.8c-1.08-.89-2.3-1.66-2.7-3.08-.53-1.83.5-3.98 2.53-4.02 1.22-.05 2.34 1.23 3.23 1.96.8.65 1.54 1.29 2.34 1.94.93.75 1.87 1.52 2.69 2.24a3.6 3.6 0 0 1 1.21 4.14 2.75 2.75 0 0 1-2.5 1.82q-.78.02-1.5-.56z"/><path fill="#a3b464" d="M479.87 209.68a3.7 3.7 0 0 1 1.14-2.8c.54-.57 1.03-1.18 1.55-1.76a268 268 0 0 0 3.41-3.88c3.6-4.14 7.25-8.28 10.85-12.42 2.08-2.38 4.11-4.83 6.2-7.22 1.07-1.22 2.9-1.07 3.9.16a3.66 3.66 0 0 1-.1 4.59c-2.64 3.01-5.33 6-7.97 9.02-3.55 4.07-7.13 8.13-10.64 12.25-1.21 1.42-2.5 2.83-3.69 4.3l.26-.33q.1-.16.2-.37c-.46.82-1.2 1.56-2.24 1.56-1.68 0-2.82-1.51-2.87-3.13z"/><path fill="#a3b464" d="M473.67 210.76c-2.55-.8-2.87-4.79-.54-6.05.38-.26.66-.5.96-.77 2.64-3 4.19-3.77 6.55-6.62a166 166 0 0 1 14.6-16.48c2.3-2.36 6.13-.33 6.86 2.2.67 2.7-1.7 4.72-3.28 6.59-3.18 3.97-6.4 7.6-9.58 11.46a356 356 0 0 1-9.56 10.19c-.91 1.19-2.25 1.96-3.44 1.96-1.14 0-2.15-.72-2.57-2.45z"/><path fill="#df6033" d="M129 220.61c-1.14 0-1.87-.77-2.29-1.5q.1.19.21.33v.02c-1.17-1.35-2.5-2.6-3.74-3.88l-5.33-5.4-11.97-12.13c-1.87-1.87-3.74-3.76-5.68-5.56q-.2-.15-.37-.33-.06-.08-.12-.12a3.6 3.6 0 0 1-.47-4.18c.84-1.45 2.93-2.04 4.12-.63l.14.11q.17.19.33.4.96 1.04 1.96 2.06 1.56 1.62 3.13 3.22 3.13 3.19 6.34 6.36l11.17 11.27c1.29 1.29 2.57 2.62 3.93 3.86 1.45.89 1.8 3.25.98 4.67a2.7 2.7 0 0 1-2.29 1.45z"/><path fill="#df6033" d="M126.94 219.47s.17.18.24.28zm-25.2-26.97c-3.8-1.07-2.39-5.79.16-7.5 2.15-1.4 4.77-5.7 7.3-2.64 2.35 3.4-1.7 5.87-4 7.72-.66 1.24-1.45 2.55-3.19 2.34.43.07.8 0 1.17-.1q-.54.2-1.1.21l-.34-.02"/><path fill="#df6033" d="M132.3 213.69c-.68-.75-1.43-1.43-2.13-2.13l-4.51-4.49q-6.3-6.16-12.51-12.39a202 202 0 0 0-7.18-6.97l-.32-.28c-1.17-1.16-1.22-3.27-.26-4.58.91-1.24 2.8-1.54 3.88-.3a2 2 0 0 1 .33.37c.72.77 1.5 1.52 2.22 2.27q1.61 1.66 3.27 3.27l6.73 6.6 10.92 10.73q1.6 1.62 3.27 3.18l.1.09h.02a3.7 3.7 0 0 1 .54 4.25 2.7 2.7 0 0 1-2.32 1.48c-.84 0-1.56-.47-2.05-1.1"/><path fill="#df6033" d="M129.2 213.39c.97-.68 1.55-1.24 2.32-2.01a2.8 2.8 0 0 1 2.43-1.8c2.5-.07 3.4 3.34 2.27 5.16-.89 1.62-2.5 2.67-3.83 3.88a3.4 3.4 0 0 1-2.5 1.17c-3.37-.09-3.72-5.51-.7-6.4z"/><path fill="#df6033" d="M129.87 216.52c-6.43-5.76-12.53-12.04-18.72-18.08-3.32-2.12-5.36-5.47-8.02-8.22-2.71-1.6-1.38-6.92 2.06-5.97 1.12.5 1.89 1.53 2.75 2.39 7 8.63 15.83 15.6 23.69 23.45 4.37.37 3.13 6.7-.4 6.7q-.63 0-1.36-.27"/><path fill="#df6033" d="M98.63 215.4c-.96-1.26-1.03-3.41.16-4.56q.06-.04.1-.1l.11-.11q.18-.22.43-.37c3.64-3.51 7.15-7.2 10.63-10.85 3.77-3.93 7.6-7.78 11.39-11.67q1.48-1.5 2.94-3.03l.91-.94q.28-.46.68-.73l.05-.04a2.2 2.2 0 0 1 2.1-.47q.66.13 1.22.66.55.55.8 1.28a3.7 3.7 0 0 1-.55 3.41q-.28.39-.63.63c-2.22 2.13-4.34 4.4-6.5 6.6l-11.96 12.2c-2.48 2.55-5.03 5.05-7.42 7.7a2 2 0 0 1-.46.5q-.02.04-.07.08l-.07.07c-.5.56-1.15.81-1.8.81a2.6 2.6 0 0 1-2.08-1.05z"/><path fill="#df6033" d="M130.7 192.24c-2.07-2.88-8-4.56-4.87-8.89 1.07-1.63 3.58-1.33 4.4.38 1.75 1.36 3.48 2.76 4.79 4.56 1.73 2.22-.05 5.35-2.13 5.35-.75 0-1.52-.4-2.2-1.38z"/><path fill="#df6033" d="M104.2 220.28a3.7 3.7 0 0 1-.73-2.6c.1-.88.53-1.89 1.28-2.4 2.04-1.94 4-3.97 6.01-5.94 3.83-3.76 7.6-7.57 11.39-11.4l4.93-4.96c1.38-1.4 2.66-2.88 4-4.16 1.1-1.22 2.9-1.06 3.9.2 1.1 1.38.98 3.63-.37 4.8l-.26.26q-.04.01-.1.07h-.04l-.1.11c-3.62 3.44-7.13 7.02-10.63 10.57-3.58 3.6-7.18 7.18-10.7 10.82q-1.4 1.44-2.81 2.83c-.64.63-1.34 1.24-1.52 1.43a2.7 2.7 0 0 1-1.76 1.33q-.23.06-.46.05a2.7 2.7 0 0 1-2.06-1.05z"/><path fill="#df6033" d="M105.3 220.8c-1.98-.2-2.48-2.06-4.13-2.81-2.95-1.55-4.8-4.5-1.69-7.04 2.18-1.54 3.25.54 4.72 1.73 1.66 1.22 3.86 2.57 3.84 4.86 0 1.4-1.03 3.23-2.6 3.23h-.16z"/><path fill="#df6033" d="M101.43 215.82c-.93-2.32.64-4 2.46-5.17 7.18-7.88 15.15-15.03 22.2-23.03 2.18-2.66 5.5.28 4.64 3.14-1.76 3.36-6.4 6.78-8.93 10.03-4.52 4.3-9.12 8.48-13.07 13.32-1.31 1.4-3.23 3.6-4.98 3.6-.84 0-1.66-.51-2.32-1.87z"/><path fill="#000" d="M242.62 270.5q-.2-1.23-.38-2.47v-.05q-.06-.23-.07-.47v-.18c0-1.66 1-3.53 2.88-3.53 1.54 0 2.48 1.33 2.62 2.73 0-.14-.05-.28-.05-.42q.1.41.1.87l.09.86a34 34 0 0 0 2 7.16 35 35 0 0 0 1.85 3.62 34 34 0 0 0 2.46 3.53q1.16 1.4 2.45 2.66h-.11q-.46.03-.94.1-1.02.01-1.96.16-.88.09-1.76.33c-.72.1-1.56.23-2.22.6a36.4 36.4 0 0 1-6.96-15.5m44.64 27.8-2.93-.52q-1.57-.3-3.15-.58-.18-.02-.35-.07l-1.2-.42q-1.62-.56-3.25-1.15l-2.47-.89-.78-.32-2.52-1.34q-.72-.38-1.43-.81.46.14.9.25 2.45.62 4.95.9 2.81.2 5.63 0 2.39-.24 4.72-.83a37 37 0 0 0 4.84-1.68 37 37 0 0 0 3.7-1.96c1.26-.82 2.5-1.71 3.64-2.67a30 30 0 0 0 5.03-5.56 40 40 0 0 0 2.04-3.37q.85-1.69 1.54-3.48.52-1.49.9-3.02.35-1.49.55-3.04-.01-.18.04-.37c.2-1.54 1.64-3.02 3.25-2.74 1.69.29 2.39 2.13 2.18 3.65a38 38 0 0 1-6.2 15.94 37 37 0 0 1-10.24 9.94 35 35 0 0 1-9.2 4.18l-.24-.04z"/><path fill="#000" d="M289.53 280.84s.05-.05.07-.05q-.03.04-.1.07zm17.16 18.69s-.2-.05-.29-.05a35 35 0 0 1-11.17-8.65q.28-.25.56-.54l1.36-1.45q1.1-1.2 2.17-2.43 1.08 1.22 2.27 2.34a36 36 0 0 0 3.79 3c1.42.93 2.92 1.75 4.23 2.33q.18.07.32.16 2.25.94 4.61 1.62 2.46.63 4.98.86h.26l-2.15.7-.61.21-3.11.63-4.68.96-2.05.42-.52-.14zm42.08-11.41a31 31 0 0 0-2.62-1.17 8 8 0 0 0-1.08-.35q1.09-1.26 2.04-2.58a37 37 0 0 0 2.03-3.36q.87-1.69 1.54-3.5.53-1.49.92-3.02a33 33 0 0 0 .58-3.42c.19-1.54 1.64-3.01 3.25-2.73 1.68.28 2.38 2.13 2.17 3.64a38 38 0 0 1-6.2 15.95q-.45.65-.95 1.3-.83-.43-1.66-.76z"/><path fill="#000" d="M353.97 272.12c-2.55-.89-1.92-5.21-1.2-7.18.64-2.57 4.35-3.1 5.15-.4.54 2.81.14 8.47-3.95 7.56z"/><path fill="#21334a" d="M177.26 338.8c-8.3-6.2-14.05-15.11-17.12-24.93-1.47-5.89-4.3-11.85-4.3-17.93.87-4.1 6.01-2.57 5.4 1.29 2.25 10.1 4.96 20.1 10.94 28.59 2.3 2.87 5.2 5.3 8.04 7.62 1.4.9 1.8 2.94 1.1 4.4-.67 1.58-2.73 2.14-4.04.95zm228.01-5.48c-2.6-1.14-1.76-4.18-.99-6.26 1.4-7.2.05-14.6-.42-21.8.4-2.94 3.74-2.75 5.94-3.6 4.35-2.45 8.8-4.76 11.92-8.76 4-5.87 8.6 3.25 3.3 5.07a39.6 39.6 0 0 1-15.43 10.36c.42 4.28 2.85 26.6-4.3 24.99zm71.53-49.02h-.21c-4.58-.4-9.2-.58-13.81-.8-4.6-.2-9.24-.48-13.84-.7h-1.27c-1.68-.1-2.73-1.63-2.73-3.24s1.12-3.18 2.76-3.2h.49q.2 0 .37.04c4.07.33 8.16.5 12.23.7q7.41.4 14.82.77.76.05 1.5.03h.14c1.7 0 2.76 1.7 2.73 3.25 0 1.54-1.07 3.22-2.76 3.22q-.22.01-.44-.04h.02zm-357.57 8.88h-.16c-1.29-.1-2.27-1.1-2.55-2.38-.3-1.45.38-3.58 2.01-3.95l.42-.1h.98q1.12-.01 2.22-.07c2.48-.12 4.96-.3 7.44-.44q3.5-.2 7.03-.38 3.66-.18 7.3-.46l3.67-.3q.86-.06 1.7-.15.5-.2.96-.16h.1q.3-.01.65.04a3 3 0 0 1 .73.29c.47.28.84.72 1.1 1.21.88 1.75.16 4.07-1.71 4.77-.26.1-.44.07-.56.1q-.53.09-1.03-.05h-.43l-1.11.04h-.33c-.68.05-1.38.07-2.01.1-4.72.2-9.44.63-14.17.98-2.5.19-5 .33-7.5.51l-3.44.3-.96.1h-.44.14zm147.36 85.96c-6.6-.35-13.02-1.47-18.5-5.25-3.6-3.23 1.55-8.7 4.5-4.52 1.86 1.26 3.94 1.62 6.03 2.18q.05.01.11.07.7.52 1.52.9.71.4 1.43.73 1.47.74 2.99 1.36c1.54.68 3.16 1.24 4.72 1.9-.2 1.4-1.14 2.63-2.73 2.63zm74.22-1.25c-6.03-.5-12.72-.78-17.88-4.19-2.71-3.41 2.85-6.64 5.21-3.6 7.3 2.5 15.92 3.88 23.03.5 1.82-1.1 3.83-2.16 5.68-.57 4.95 5.52-12.6 8.65-16.02 7.86zm4.97-122.58-9.25-.14c-6.3-.07-12.58-.07-18.87-.14-12.79-.16-25.6-.16-38.39-.23q-8.78-.05-17.57-.07c-4.87 0-9.73-.07-14.6.07h-.02q-.23.02-.46 0c-1.6 0-2.88-1.36-2.6-2.95.3-1.68 1.97-2.78 3.63-2.78q.22-.01.44.05c1.28.1 2.6.1 3.9.1h1.43q4.43.07 8.84.1 9.07.12 18.16.15c12.76.07 25.5.21 38.27.21 6.17 0 12.34.05 18.51.07h8.94q3.15.01 6.3-.05h.27c1.58 0 2.87 1.36 2.59 2.95-.3 1.68-1.97 2.78-3.62 2.78-1.97 0-3.93-.1-5.92-.12zm4.18 14.57q-1-.06-2-.05l-4.27-.1q-4.56-.08-9.12-.1-9.59-.12-19.19-.2c-12.39-.09-24.8-.25-37.2-.3-5.51-.02-11-.14-16.52-.16-5.33 0-10.68-.12-16.01 0h-.57a3 3 0 0 1-1.56-.5 2.5 2.5 0 0 1-1.05-2.07c.04-1.64 1.63-3.07 3.22-3.14h.64q.2 0 .41.03c5.85.23 11.74.23 17.58.3l18.54.17q9.37.07 18.73.16 9.33.12 18.68.16c5.58.03 11.2.1 16.78.12 4.54.02 9.1.12 13.56 0h.42-.2q-.18 0-.34.05c1.52-.3 3.28.35 3.49 2.08.2 1.63-1.03 2.9-2.34 3.34q-.55.21-1.15.21-.27.01-.53-.05z"/><path fill="#21334a" d="M351.17 269.67c-1.56-.1-2.87-1.29-2.6-2.93.33-1.87 2.28-2.94 4.05-2.8a6.6 6.6 0 0 0 3.49-2.55c.37-2.38-1.67-4.84-3.82-5.68-1.17.16-2.45-.19-2.99-1.3-.91-1.97.73-3.91 2.6-4.4 3.34-.47 6.87 1.87 8.65 4.6 5.3 6.9-2 14.99-9.43 15.06zm-106.73-.85c-8.6-.14-10.92-10.3-5.54-15.99 1.73-1.84 4.16-2.78 6.6-3.2 1.18-.75 2.84-.84 3.92.14 1.28 1.22.8 3.48-.7 4.35-2.43 1.56-5.9.63-6.4 4.35-.55 2.22.76 4.7 3.24 4.63 4.2.53 2.48 5.9-1.12 5.72"/><path fill="#7c3015" d="M346.28 313.74c-1.59-3.34 2.32-5.23 4.19-7.34.84-1.1 1.21-2.6 1.5-3.95 1.16-8.3-5.92-14.61-13.9-11.06-2.05 1.15-4.25 4.89-6.73 2.41a3.66 3.66 0 0 1 1.36-5.63c1.61-1.4 3.3-2.93 5.52-3.3 16.27-5.87 25.74 17.2 14.4 27.54-1.6 1.8-4.58 4.49-6.31 1.3zm-99.78.41c-7.36-3.97-9.84-12.76-7.31-20.5 3.02-10.07 16.72-16.27 25.18-8.74 2.08 1.7.89 5.87-1.9 5.87-1.75-.26-2.92-1.94-4.65-2.46-8.09-2.66-16.5 6.48-13.6 14.4.72 3 3.36 4.4 5.65 6.13 2.76 2.08-.2 7.62-3.34 5.33z"/><path fill="#7c3015" d="M285.55 300.02a79 79 0 0 1-20.55-8.1c-1.48-.81-2.9-1.75-4.35-2.63-1-.52-1.78-1.5-1.78-2.6.03-1.75 1.73-2.57 3.25-2.57.8 0 1.52.37 1.78.58a72 72 0 0 0 5.66 3.49 71 71 0 0 0 7.52 3.55 75 75 0 0 0 8.63 2.8c2.88.7 5.78 1.3 8.23 1.6a65 65 0 0 0 16.08.07q3.85-.5 7.6-1.45a56 56 0 0 0 6.34-2.08c2.2-.9 4.32-1.92 6.03-2.88.9-.54 1.84-1.08 2.7-1.7 1.34-.99 3.47-.6 4.57.58 1.03 1.12 1 3.06-.42 3.88-1 .58-2.01 1.21-2.67 1.59a61 61 0 0 1-21.83 7.34q-4.7.66-9.5.65c-5.84 0-11.68-.72-17.36-2.05zm8.53 26.33c-15.93-1.1-32.15-4.04-46.27-11.8-2.69-.92-4.1-4.33-.8-5.57 1.76-.6 3.33.59 4.75 1.45 26.18 13.07 61.7 14.3 88.7 3.34 2.29-1.51 4-2.38 6.05-3.92 1.36-1.22 3.7-.9 4.84.42 2.52 3.08-2.27 4.88-4.25 6.26-7.37 5-16.35 6.83-25.04 8.12a122 122 0 0 1-28 1.7z"/><path fill="#7c3015" d="M275.82 310.16c-7.25-1.75-14.37-4.23-20.87-7.9l-.07-.02-.26-.14.12.06.07.05.04.03-.04-.03a3 3 0 0 1-1.71-2.22c-.28-2.17 2.38-3.55 4.2-2.71.69.28 1.25.68 1.7.91a57 57 0 0 0 6.02 2.92 84 84 0 0 0 9.3 3.14 107 107 0 0 0 13.26 2.68q6.75.93 13.56 1.08c4.47.07 8.9-.12 12.93-.54a89 89 0 0 0 10.54-1.85h.14q2.84-.76 5.56-1.77 2.28-.87 4.42-2.01 1.37-.77 2.67-1.7a12 12 0 0 0 1.21-1.06q.14-.09.24-.21l-.05.05.1-.1a3.6 3.6 0 0 1 4.18-.16c1.45.96 1.9 2.94.51 4.18q-.07.08-.16.14l-.1.07-.27.24a29 29 0 0 1-5.66 3.57 47 47 0 0 1-8.44 3.25 83 83 0 0 1-17.74 2.97q-3.97.26-7.93.26c-9.26 0-18.54-1.08-27.51-3.25z"/><path fill="#415d83" d="M107.85 277.69c-.47-1.57.8-3.04 2.31-3.32.1 0 .21-.05.3-.05h.48c.93-.07 1.84-.26 2.75-.35q2.19-.25 4.38-.54 5.44-.7 10.89-1.35c4.77-.59 9.54-1.15 14.3-1.8.15 0 .31-.05.33-.05q.24-.02.47-.07c.1 0 .16 0 .26-.05l.12-.02h.09a3.7 3.7 0 0 1 2.66.49c.56.35 1 .84 1.22 1.54q.14.46.1.9v.06q-.06.35-.17.63v.03a3.2 3.2 0 0 1-2.69 1.75c-2.4.16-4.8.54-7.18.82q-3.85.48-7.71 1-5.62.74-11.24 1.43-3.8.47-7.6.98h-.14q-.4.1-.77.1c-1.36 0-2.76-.85-3.16-2.13m375.11-5.29c-.53-.13-1.14-.16-1.7-.25q-2.01-.31-4.05-.59c-2.85-.4-5.72-.74-8.6-1.12q-7.37-.96-14.75-1.87l-.89-.1c-1.73.05-3.44-1.37-2.95-3.22.47-1.77 2.55-2.69 4.26-2.24 1.3.23 2.64.37 3.97.56l7.83 1.05c5.64.75 11.3 1.5 16.95 2.15.45.05.9.12 1.17.12h.24c1.54.19 2.82 1.59 2.38 3.18a3 3 0 0 1-1.21 1.66c-.57.4-1.36.72-2.1.72q-.3.02-.57-.07zM456 264.19l-.9-.82-.27-.12zM244.3 415.52q-.01-.23.05-.42v-.09q0-.17.04-.35.08-1.14.05-2.27-.09-1.1-.23-2.2-.24-1.22-.59-2.43-.45-1.41-1.07-2.76-.5-.98-1.06-1.94-.76-1.2-1.68-2.31-.69-.78-1.45-1.5c-.7-.58-1.43-1.14-1.87-1.42a10 10 0 0 0-1.73-.91l.35.14h.07c-1.26-.36-2.03-1.71-2-3.04.01-1.52 1.11-3.32 2.82-3.32q.67 0 1.17.28c1 .58 2.03 1.12 2.97 1.82a21 21 0 0 1 3.62 3.41 26.7 26.7 0 0 1 6.03 19.06q.01.3-.04.6v.05h-.03c-.25 1.4-1.17 2.78-2.76 2.83h-.07c-1.73 0-2.68-1.73-2.61-3.3v.12zm21.34-5.16c-8.33-.3-13.24-9.33-8.14-16.16-3.62-2.9-8.77-1.14-12.97-1.8-3.23-.89-2.48-6.61.95-6.4 1.03.28 2.74.09 3.53.11 5.8-.44 14.36 1.17 14.24 8.49.1 2.5-3.18 4.23-2.1 6.75 4.74 5.08 7.88 2.32 8.25-3.8 1.1-3.93 5.28-6.01 8.81-6.8 3.86-.71 4.4 5.67.84 6.33-1.37.32-2.5.72-3.62 1.47-1.66 1.1-.75 3.41-1.57 5.03-1.28 3.34-4.32 6.96-8.18 6.78z"/><path fill="#415d83" d="M246.28 437.98c-13.23-.33-26.81-3.9-37-12.6a27 27 0 0 1-3.11-3.74c-2.76-2.93 2.47-6.34 4.86-3.81 1.33 1.5 2.29 3.25 3.79 4.42 3.8 2.45 7.43 5.35 11.8 6.61 14.07 5.5 28.73 3.95 42.67-.72a40 40 0 0 0 13.62-8.28c2.15-1.2 5.6.7 4.5 3.3-.22.98-1.1 1.8-2.09 2.17a39 39 0 0 1-8.16 5.28 82 82 0 0 1-30.88 7.34zm108.53-1.73c-9.75-.3-19.68-1.47-28.4-6.15a84 84 0 0 1-6.13-3.85c-2.36-1.5-7.03-4.26-3.3-7.02 1.41-.9 3.5-.77 4.54.59a85 85 0 0 0 8.56 5.7c8.72 4.56 18.58 5.33 28.22 5.43a80 80 0 0 0 15.73-1.71c6.1-1.15 12.67-2.38 17.04-7.18 1.12-1.7 1.2-4.35 3.53-4.98 3.02-1.19 6.22 2.67 3.23 4.87-6.01 13.11-30.28 14.2-43.02 14.35zm-9.33-29.26c-3.3-2.64-6.57-11.1-1.4-13.4 3.6-2.03 8-3.45 11.57-5.04 2.22-1.15 6.24-2.32 7.13 1 .33 1.61-1.1 3.04-2.64 3.34-4.23 1.06-8.32 3.16-12.3 4.98a9 9 0 0 0 1.64 4.51c1.52.94 2.17 2.79.86 4.21-1.19 1.31-3.48 1.6-4.86.38z"/><path fill="#415d83" d="M336.68 408.16c-2.97-.36-6.01-1.76-7.7-4.33-1.33-1.43-1.84-5.05-4.25-4.58-1.5.28-3.32-.42-3.65-2.06-.2-4.46 6.6-4.09 9.2-2.2 3.33 2.5 4.13 9.07 9.55 7.65 1.24-.37 2.08-1.47 3.23-2.06 1.73-.96 4.53-.07 4.67 2.08.17 1.54-1.07 2.6-2.4 3.16a11 11 0 0 1-8.65 2.31zM358.61 419c-3.5-6.98-1.35-15.91 3.14-22.04 1.84-2.12 6.2-8.46 9.23-5.63 2.92 4.37-4.23 6.45-5.66 9.98a15.6 15.6 0 0 0-2.12 13.3c2.5 2.74-2.1 7.7-4.59 4.4"/><path fill="#7d3015" d="M97.67 191.9c-2.2-3.27 1.73-5.65 3.74-7.7a94 94 0 0 1 4-3.47c.55-.84 1.44-1.4 2.54-1.21 1.8.28 2.46 2.22 2.25 3.62-.85 3.34-4.84 4.56-6.78 7.22-1.55 1.55-3.81 4.12-5.75 1.55"/><path fill="#7d3015" d="M107.5 202.78c-2.85-2.75-5.68-5.54-8.56-8.25l-.79-.75q-.2-.13-.37-.35l-.2-.23a3.65 3.65 0 0 1 .17-4.32c.84-1.03 2.25-1.38 3.3-.78l.05.03q.13.07.28.18.3.24.53.54c1.4 1.5 2.93 2.9 4.4 4.33q1.76 1.7 3.55 3.4.06.09.12.13l.19.16.67.66c.75.74 1.45 1.5 2.22 2.24l.12.12.07.16c-.11.47-.25.96-.3 1.45v-.1q.01.14-.05.26l-.12.26q-.14.27-.32.54c-.28.42-.59.84-.77 1.33a2 2 0 0 0-.17.87l-.98 1.02-3.02-2.9zm3 2.91.13-.14zm16.12 15.66.02.02-.04-.05z"/><path fill="#7d3015" d="M126.66 221.4v-.03s-.05-.05-.05-.1q-.4-.4-.84-.81l-1.48-1.45-5.02-4.89q-2.5-2.4-4.96-4.81l.21-.15c.61-.44 1.17-1 1.7-1.5q.37-.34.73-.7c.52-.06 1.05-.2 1.55-.3q.52-.04 1.07-.04h.05l.07.02q.03-.01.1.05.23.16.46.28c.1.04.19.12.28.14.77.72 1.57 1.47 2.38 2.1q.07.07.15.1l.46.44 6.17 5.94.1.1.04.04.4.37a3.4 3.4 0 0 1 1.24 2.8c-.1 1.57-1.24 3.23-2.92 3.23-.7 0-1.36-.32-1.83-.84zm-8.28-25.62h-.04l-.75-.3h.05l-.57-.2-.3-.3-1.52-1.52c-.51-.51-1.05-1.12-1.68-1.54-2.2-2.25-4.4-4.51-6.69-6.66-1.3-.99-1.3-3.14-.54-4.42.77-1.24 2.64-2.06 3.88-.91q.16.13.26.25h.02l.2.21 1.33 1.4q1.53 1.63 3.08 3.2c1.9 1.97 3.83 3.89 5.75 5.85q.95.94 1.87 1.9-1.15 1.02-2.2 2.15l-.56.56q-.22.07-.44.2l-.21.08q-.21.03-.42.1h-.54zm5.44 3.73-.02.05-.07.16q.04-.1.11-.2z"/><path fill="#7d3015" d="M134.28 213.07c-.58-.67-1.24-1.26-1.84-1.89l-4.84-4.98-3.51-3.55q0-.29-.12-.56l-.35-1-.07-.27v.03-.05s0-.1-.02-.12v-.35q.08-.24.11-.49s.1-.2.12-.3q0-.04.05-.07v-.05l.3-.56q.24-.24.4-.56c.33-.42.7-.82.98-1.29q.43-.34.8-.72 3.32 3.32 6.59 6.69 2.53 2.6 5.14 5.14v.02c1.29 1.03 1.4 3.11.59 4.47a3 3 0 0 1-1.97 1.42q-.2.05-.4.05c-.79 0-1.54-.4-2-1.05z"/><path fill="#7d3015" d="M127.18 220.8a3.7 3.7 0 0 1 1.7-4.95 45 45 0 0 1 3.77-3.95c1.64-1.2 2.46-3.88 4.8-3.62 1.75.28 2.45 2.13 2.22 3.7-.75 2.94-3.93 4.46-5.73 6.75-1.47 2.08-4.75 5.4-6.76 2.08m-8.83-25.03h-.02q-.35-.12-.73-.28l-.56-.21-.3-.3q-.76-.75-1.52-1.53l-.4-.42.28-.28a551 551 0 0 0 6.36-6.78c.98-1.05 1.94-2.15 2.9-3.18l.07-.07q.26-.43.65-.72a.2.2 0 0 0 .1-.1c1.21-1.02 2.94-.98 3.88.43a3.6 3.6 0 0 1-.61 4.53l-.16.19q-.1.1-.2.16c-1.7 1.82-3.45 3.6-5.02 5.22q-.17.08-.32.23-1.15 1.05-2.23 2.17-.27.29-.58.56a2 2 0 0 0-.42.21q-.1.02-.21.07l-.42.07h-.54zm-21.1 20.21c-1.22-1.36-.96-3.6.28-4.8l.1-.09.23-.25c2.92-3.04 5.86-6.03 8.5-8.8 1.45-1.51 2.9-3.08 4.35-4.62l.12.1c.75.74 1.45 1.49 2.22 2.23l.14.12q.02.09.07.17-.22.72-.33 1.44l-.02.17s-.07.19-.12.26q-.14.26-.32.53c-.28.42-.59.87-.78 1.34q-.15.38-.16.81l-.96 1.01q-.05.08-.11.12l.07-.07q-.08.06-.14.16-1.17 1.15-2.3 2.34-.24.24-.37.51l-6.31 6.83q-.08.1-.19.2l-.16.17c-.45.45-.96.8-1.62.9l-.37.01c-.7 0-1.36-.3-1.82-.84zm28.64-11.43q-.21-.17-.42-.4-.71-.7-1.38-1.44.01-.33-.1-.66l-.37-1-.07-.28v.04-.04s0-.1-.02-.12v-.3l.11-.5.17-.37.33-.58a2 2 0 0 0 .37-.54q.33-.38.63-.8l4.1-4.3c1.07-1.12 2.19-2.22 3.22-3.41l.07-.1.1-.11q.16-.24.37-.5a2.6 2.6 0 0 1 1.75-.86c.84-.04 1.61.35 2.13 1 1.12 1.43.86 4.08-.8 5.03l-.3.26c-2.04 1.99-3.98 4.07-5.94 6.13l-3.86 3.97q-.04-.06-.1-.1zm-21.19 18.4c-.98-1.26-.93-3.42.24-4.56l.16-.16q.21-.26.47-.45c2.76-2.69 5.42-5.47 8.1-8.25q.43-.1.8-.37c.61-.45 1.17-1.01 1.71-1.5.23-.23.5-.47.72-.7.52-.07 1.06-.21 1.52-.3q.53-.05 1.08-.05h.05l.07.02c.02.02.04 0 .09.05q.23.16.47.28.13.1.3.16.82.8 1.69 1.54-5.59 5.82-11.06 11.7l-2.25 2.42c-.04.08-.11.12-.11.15s-.05.04-.07.06q-.04.03-.07.1a2.52 2.52 0 0 1-3.89-.12z"/><path fill="#7d3015" d="m133.29 192.94-3-2.69c-1.35-1.21-2.68-2.45-4.09-3.62l-.26-.21-.04-.05c-1.31-1.05-1.43-3.08-.59-4.46.8-1.29 2.6-2.01 3.88-.94l.05.05.35.33q2.21 2 4.47 4c.96.84 1.9 1.75 2.9 2.52a3.3 3.3 0 0 1 1.14 2.71c-.07 1.54-1.21 3.23-2.9 3.23-.89 0-1.54-.47-2.05-1.12l.18.25zm-27.78 30.79c-3.01-.8-4.9-3.64-7.1-5.65-1.6-.73-2.1-2.74-1.43-4.35 1.64-3.25 4.44-1.78 6.17.51 1.1 1.08 2.13 2.32 3.46 3.09 1.64.26 2.53 2.1 2.25 3.62-.07.3-.05.17 0 0-.3 1.62-1.6 3.14-3.32 2.8z"/><path fill="#59652b" d="M459.6 199.23c-2 .14-3.4-2.17-2.94-4.02.35-1.52 1.54-2.43 2.69-3.34 2.92-1.83 6.96-9.24 10.54-5 .89 1.42.68 3.52-.56 4.53-.65.77-1.73.7-2.38 1.4a48 48 0 0 1-4.7 4.56c-.42 1.12-1.43 1.96-2.64 1.87"/><path fill="#59652b" d="M474.54 199.62c-.21-.28-.47-.51-.7-.75q-.92-.94-1.83-1.84c-1.96-1.97-4.02-3.84-5.96-5.82-1.15-1.17-1.1-3.35-.07-4.56 1-1.2 2.6-1.17 3.6-.26l.19.16.25.28c.99 1.03 2 2.06 2.72 2.79.11.14.25.25.28.28l.14.14.11.11q1.63 1.63 3.28 3.23c.46.44.88.91 1.38 1.3l.14.13c.9.79 1.28 2.12 1.07 3.3-.19 1.09-.93 2.14-2.06 2.42q-.29.07-.58.07c-.89 0-1.64-.51-2.17-1.21l.18.26zm.02 15.7c-2.78-2.93-5.7-5.73-8.56-8.6-2.47-2.53-5-4.96-7.52-7.42a3.7 3.7 0 0 1-.73-4.18c.77-1.6 2.71-2.13 4.07-.89q.24.2.42.44c3.02 3.14 6.1 6.2 9.19 9.28l4.6 4.59c.78.75 1.5 1.56 2.34 2.24q-.16-.1-.3-.26H478a3.4 3.4 0 0 1 1.47 2.7c.07 1.47-.89 3.38-2.6 3.38a2.7 2.7 0 0 1-2.12-1l-.21-.24z"/><path fill="#59652b" d="M477.05 201.36c-1.3-1.22-1.47-3.56-.28-4.89q.14-.14.24-.28.14-.18.32-.32c2.81-3.11 5.5-6.34 8.21-9.52 1.45-1.7 2.88-3.44 4.3-5.14 1.45-1.76 3.02-3.44 4.21-5l.4-.54-.21.37-.17.4q-.07.2-.11.44c.28-1.17 1.14-2.45 2.5-2.45 1.68 0 2.83 1.45 2.92 3.08.05 1.03-.4 2.3-1.26 2.95-1.26 1.3-2.36 2.73-3.53 4.11l-4.77 5.57q-2.56 3-5.07 6.03c-1.17 1.4-2.37 2.8-3.51 4.23q-.16.28-.37.51c-.07.08-.12.12-.17.2l-.07.08c-.54.57-1.21.9-1.94.9q-.87 0-1.66-.69zM476 216.2c-2.1-1.7-1.38-6.37 1.78-6.1.44.29 1 .76 1.33.87.49.28 1.1-.16 1.4-.53a2.5 2.5 0 0 1 3.84-.54c4.09 4.65-4.59 10.17-8.35 6.3"/><path fill="#59652b" d="M481.38 214.62c-1-1.22-1.15-3.37-.1-4.45l.1-.14.04-.04.24-.26c.65-.7 1.21-1.5 1.82-2.24q1.35-1.62 2.69-3.3l5.38-6.73c3.45-4.35 7-8.63 10.38-13.05l.95-1.3.12-.17a2.6 2.6 0 0 1 1.61-1.17c.96-.23 1.92.19 2.55.94 1.12 1.35 1.1 3.8-.33 4.93q-.37.46-.79.93c-.96 1.08-1.82 2.22-2.71 3.34-1.85 2.34-3.74 4.63-5.59 6.97-3.83 4.84-7.71 9.66-11.5 14.54l-.54.7s-.02.05-.05.05q-.13.21-.3.42-.03.05-.1.1c-.48.6-1.16.88-1.86.88-.75 0-1.5-.32-2.04-.98z"/><path fill="#59652b" d="M503.5 185.77a270 270 0 0 0-7.5-6.25l-.14-.11q-.08-.06-.12-.12a3.7 3.7 0 0 1-.84-4.51c.4-.7 1.1-1.27 1.92-1.36.7-.1 1.36.17 1.9.59l4.62 3.88 2.22 1.82q.32.25.63.54c1.03.58 1.62 1.94 1.62 3.06 0 1.59-1.08 3.09-2.79 3.09-.56 0-1.12-.28-1.54-.64l.05.05z"/><path fill="#000" d="M103.68 245.24a43 43 0 0 1-15.87-9.84 43.6 43.6 0 0 1-12.88-33.05A43.2 43.2 0 0 1 95 167.85a40 40 0 0 1 9.51-4.45 48 48 0 0 1 8.42-1.8q.42-.2.91-.21c.89 0 1.75-.1 2.62-.1H118q1.66 0 3.32.15c.63.04 1.26.14 1.9.2q.36.05.65.17a41 41 0 0 1 11.34 3.44q2.73 1.26 5.26 2.9a42 42 0 0 1 12.27 12.08 40 40 0 0 1 4.28 8.14q1.19 2.96 1.91 6.05l.05.16.1.42a43.4 43.4 0 0 1-5.1 31.82s0 .05-.03.05q-1.5 2.55-3.36 4.84a42.25 42.25 0 0 1-46.94 13.51zm18.75-4.28a44 44 0 0 0 6.26-1.4 42 42 0 0 0 5.69-2.29 43 43 0 0 0 5.04-3.06 44 44 0 0 0 4.05-3.37 41 41 0 0 0 3.46-3.8 39 39 0 0 0 2.29-3.28c.19-.3.37-.63.42-.68l.16-.3a47 47 0 0 0 2.27-4.6q.78-1.97 1.36-3.98.65-2.42 1.03-4.91.28-2.16.32-4.3 0-2.22-.18-4.42a43 43 0 0 0-.84-4.86c-.36-1.31-.73-2.6-1.2-3.86a46 46 0 0 0-1.96-4.4l-.8-1.42q-.87-1.47-1.84-2.88l-.99-1.3q-.9-1.17-1.91-2.25l-.45-.47a55 55 0 0 0-3.36-3.1 45 45 0 0 0-2.48-1.85q-1.02-.7-2.06-1.34-1.34-.77-2.73-1.47-1.22-.6-2.48-1.1a44 44 0 0 0-6-1.82c-.1 0-.17-.05-.27-.05q-1.05-.2-2.12-.37h-.45c-1.33-.14-2.66-.3-4-.38q-2.14-.06-4.27.14c-.1 0-.19.05-.28.05l-.45-.02-1.12.11q-1 .15-2.01.33h-.07q-.16.02-.33.07h-.1c-.09 0-.2.05-.3.07h-.09c-.1 0-.2.05-.3.07h-.1l-.32.07h-.07c-.1 0-.21.05-.3.07q-.07 0-.12.02c-.07 0-.14.05-.24.05q-.1.01-.2.05h-.1l-1.31.35c-.19.05-.35.12-.42.12q-.08 0-.14.04H106a49 49 0 0 0-5.38 2.2q-2.64 1.34-5 3.02c-1.55 1.14-3 2.33-4.38 3.67a51 51 0 0 0-3.5 3.95 47 47 0 0 0-2.55 3.78l-.12.2q-1.17 2.1-2.13 4.27a43 43 0 0 0-1.52 4.42 41 41 0 0 0-.93 4.49 44 44 0 0 0-.35 4.27q-.02 2.47.21 4.9.28 2.13.72 4.25.59 2.37 1.45 4.67a45 45 0 0 0 1.69 3.76q.06.14.14.26 1.14 2.1 2.5 4.05a45 45 0 0 0 3.13 3.83 45 45 0 0 0 3.58 3.37 40 40 0 0 0 4.74 3.32l.17.09q2.53 1.43 5.14 2.5 2.88 1.1 5.9 1.78 3.06.64 6.21.8 3.34.1 6.64-.31zm346.25-5.82a43 43 0 0 1-15.87-9.84 43.65 43.65 0 0 1-9.47-48 43 43 0 0 1 3.88-7.12 42 42 0 0 1 12.79-12.44 40 40 0 0 1 9.51-4.44 48 48 0 0 1 8.42-1.8q.42-.2.91-.21c.89 0 1.75-.1 2.62-.1h1.54q1.66 0 3.32.15c.63.04 1.27.14 1.9.2q.36.06.65.17a41 41 0 0 1 11.34 3.44q2.73 1.26 5.26 2.9a42 42 0 0 1 12.27 12.08 40 40 0 0 1 4.28 8.14q1.2 2.96 1.92 6.05l.04.17.1.41a43.4 43.4 0 0 1-5.1 31.82s0 .05-.02.05a43 43 0 0 1-15.83 15.36 42.3 42.3 0 0 1-34.48 2.99zm18.75-4.27q3.18-.48 6.27-1.4a41 41 0 0 0 5.68-2.3 43 43 0 0 0 5.05-3.06 43 43 0 0 0 4.04-3.37 41 41 0 0 0 3.46-3.8 39 39 0 0 0 2.3-3.28l.41-.68.17-.3a47 47 0 0 0 2.26-4.6q.78-1.97 1.36-3.98.65-2.42 1.03-4.91.28-2.16.32-4.3 0-2.21-.18-4.42a43 43 0 0 0-.84-4.86q-.51-1.97-1.2-3.86a46 46 0 0 0-1.96-4.4l-.8-1.42q-.87-1.47-1.84-2.88l-.98-1.3q-.9-1.17-1.92-2.25l-.44-.47a55 55 0 0 0-3.37-3.1 46 46 0 0 0-2.48-1.85q-1-.7-2.06-1.34-1.33-.77-2.73-1.47-1.23-.6-2.48-1.1a44 44 0 0 0-6-1.82c-.1 0-.17-.05-.26-.05a58 58 0 0 0-2.13-.37h-.44c-1.34-.14-2.67-.3-4-.38q-2.15-.06-4.28.14c-.1 0-.19.05-.28.05l-.45-.02-1.12.11q-1 .15-2 .33h-.08c-.11 0-.2.05-.33.07h-.09q-.15.02-.3.07h-.1c-.09 0-.2.05-.3.07h-.1l-.32.07h-.07c-.1 0-.21.05-.3.07q-.06 0-.12.03l-.24.04-.2.05h-.1l-1.3.35c-.2.05-.36.12-.43.12q-.08 0-.14.04H471a49 49 0 0 0-5.38 2.2q-2.62 1.34-5 3.02a44 44 0 0 0-4.37 3.67 51 51 0 0 0-3.51 3.95 47 47 0 0 0-2.55 3.78l-.12.2a52 52 0 0 0-2.12 4.27 43 43 0 0 0-1.52 4.42q-.59 2.2-.94 4.49-.28 2.13-.35 4.28-.02 2.46.21 4.88.28 2.15.73 4.25.58 2.38 1.45 4.68a45 45 0 0 0 1.68 3.77l.14.25q1.15 2.1 2.5 4.05a45 45 0 0 0 3.13 3.83 45 45 0 0 0 3.58 3.37 40 40 0 0 0 4.75 3.32l.16.09q2.53 1.43 5.14 2.5a43 43 0 0 0 5.9 1.78q3.06.64 6.21.8 3.34.1 6.64-.31zm-378.77 49.6c-8.84-1.7-30.44-9.28-30.81-19.83-.26-6.96 6.52-14.1 13.67-11.68 3.7-.5 4.3 5.8.82 6.4-1.57.4-3-.6-4.58-.47-2.4.52-4.37 3.07-4.44 5.5 1.05 3.39 4.72 4.6 7.24 6.64 4.56 2.1 9.03 4.7 13.94 5.89 2.8.86 6.92.58 6.94 4.3 0 1.45-1.08 3.37-2.76 3.22z"/><path fill="#000" d="M117.4 293.21c-9.43.47-15.48-9.6-9.85-17.4 3.62-3.29 6.92 2.6 3.6 5.15-1.45 3.81 3.02 6.1 6.24 5.8 3.6.05 3.6 6.4 0 6.47zm26-21.55c.86-6.1-4.14-10.96-9.68-12.48-5.07-.73-10.54.07-15.38.63-6.31 1-12.74-.26-18.9-1.64-2.63-.8-5.34-1.38-7.92-2.38-3.69-1.76-.95-8.91 2.79-5.68 6.63 2 13.49 3.83 20.47 3.69 13.03-1.87 27.57-3.83 33.41 11.06.7 2.83 2.22 9.54-2 10.03-1.62 0-2.84-1.69-2.75-3.23z"/><path fill="#000" d="M147.88 287.44c0-1.52 1.05-3.27 2.76-3.23a1.5 1.5 0 0 0 1.61-.93q-.07.15-.16.26c2.01-2.62.21-6.85-2.76-7.9-1.94-.1-4.32.88-5.42-1.29-1.1-1.78-.23-4.75 2-5.03 1.72.1 3.42-.28 5.1.24 5.97 2.29 8.75 9.72 6.7 15.57a12 12 0 0 1-2.84 4.09c-2.34 2-6.96 2.2-6.96-1.8z"/><path fill="#000" d="M156.12 299.66c-2.93-2.64-11.79-12.08-5.9-15.03 2.18-.7 3.35 1.38 3.74 3.18a17 17 0 0 0 3.28 4.7c1.17 1.03 1.84 1.57 2.78 2.67 2.24 2.54-1.22 7.33-3.98 4.44l.03.04z"/><path fill="#000" d="M156.59 298.38a51 51 0 0 1-.54-16.67 66 66 0 0 1 4.44-16.36c2.15-5.31 5-10.36 8.25-15.06a69 69 0 0 1 12.06-13.23 52 52 0 0 1 12.6-8.02q2.75-1.19 5.64-1.99 1.12-.3 2.27-.54c.44-.09.89-.13 1.3-.23q.39-.15.8-.14c1.7 0 2.76 1.66 2.78 3.23 0 1.54-1.03 3.27-2.73 3.27h-.26c-1.33.16-2.64.47-3.55.72a32 32 0 0 0-4.89 1.8 44 44 0 0 0-6.12 3.44 57 57 0 0 0-6.27 4.82 71 71 0 0 0-11.67 13.93l-.04.1a77 77 0 0 0-4.4 8.2 65 65 0 0 0-2.7 6.92 74 74 0 0 0-1.92 7.5c-.35 1.99-.59 4-.68 5.57-.1 1.91-.12 3.85 0 5.72.1 1.03.2 2.06.4 3.07.14.67.25 1.33.46 1.98l.07.24c.38 1.54-.2 3.46-1.8 4.04q-.43.15-.81.14c-1.31 0-2.34-1.14-2.67-2.4zM177 338.3c-21.09-.16-42.94-9.37-53.84-28.14-3.83-5.83-5.98-12.49-7.1-19.31-.5-1.2-.42-2.65.56-3.56 2-1.77 5.19.54 5.12 2.9 2.87 25.58 28.1 42.32 52.57 42.03 2.15-.4 4.89.5 5.38 2.88.4 1.7-.91 3.53-2.8 3.23h.13z"/><path fill="#000" d="M219.35 354.41c-15.94-.21-32.47-5.03-43.76-16.78-1-.47-1.9-1.6-1.7-2.76.72-3.42 5.28-2.95 6.8-.33a61 61 0 0 0 9.42 7.53c5.21 3.13 11.27 4.37 17.02 5.98a98 98 0 0 0 20.92.75c3.18-.37 8.3-3.44 10.29.35.98 2.74-2.15 3.7-4.26 3.98-4.84 1.21-9.75 1.3-14.73 1.28"/><path fill="#000" d="M245.77 368.04a53 53 0 0 1-13.37-17.97c-.52-3.09 3.2-4.17 5.05-2.2 2.78 5.66 6.17 11.31 11.17 15.43 3.6 2.24.9 7.36-2.85 4.74m69.59-170.58-.04.02zm-110.75 34.66c-1.61-.2-2.66-2.05-2.45-3.6l.07-.46q.06-.32.16-.56c.47-1.64.87-3.3 1.38-4.94a75 75 0 0 1 2.34-6.47 67 67 0 0 1 22.49-28.15 66 66 0 0 1 35.27-12.27c5.9-.26 11.79.26 17.42 1.52a66.4 66.4 0 0 1 34.36 19.96l-.18.19-.17.14-.16.16-.05.05.05-.05q-1.7 1.6-3.34 3.25l-.26.28a61 61 0 0 0-5.45-5.14 70 70 0 0 0-7.64-5.42 66 66 0 0 0-8.56-4.26 64 64 0 0 0-9.25-2.9 66 66 0 0 0-10.48-1.45h-.2a66 66 0 0 0-10.2.35 67 67 0 0 0-10.2 2.1 63 63 0 0 0-9.74 3.84 69 69 0 0 0-7.8 4.63 68 68 0 0 0-7.4 6.06c-1.98 1.94-3.85 4-5.35 5.84a70 70 0 0 0-5.1 7.5 60 60 0 0 0-5.61 13.14 43 43 0 0 0-1 4.33c-.28 1.26-1.27 2.4-2.62 2.4q-.17 0-.33-.02zm182.1-12.29a2.6 2.6 0 0 1-1.7-1.5 2.4 2.4 0 0 1-.31-1.42v-.47a15 15 0 0 0-.77-3.79 27 27 0 0 0-.94-2.22 23 23 0 0 0-3.88-5.4 34 34 0 0 0-3.48-3.18 46 46 0 0 0-5.7-3.7 51 51 0 0 0-7-2.99 55 55 0 0 0-8.36-2.05c-2.9-.45-5.85-.63-8.68-.61h-.32a53 53 0 0 0-7.42.75 44 44 0 0 0-5.7 1.52 41 41 0 0 0-4.2 1.82 31 31 0 0 0-3.05 1.9q-1.11.82-2.15 1.77-.76.77-1.47 1.59-.57.73-1.07 1.5l-.36.6q-.06.17-.16.3l-.12.2c-.65 1.4-2.48 2.17-3.83 1.28-1.4-.91-1.59-2.97-.84-4.35l.02-.04.07-.14q.1-.26.28-.47c2.74-4.65 7.1-8.11 11.93-10.45 5.35-2.62 11.43-3.86 17.36-4.07 12.32-.44 25.3 3.09 34.9 10.99a31 31 0 0 1 8.19 10.1 23 23 0 0 1 2.27 8.41v.78q0 .29-.07.58-.07.32-.17.65a3.1 3.1 0 0 1-2.76 2.1q-.28.02-.53-.06z"/><path fill="#000" d="M314.52 204.4c-1.22-1.08-2.01-2.34-3.11-3.46-.96-.92-1.48-2.34-.73-3.56 2.57-3.95 6.34.68 7.88 3.23 2.74 3.01-1.17 6.17-4.04 3.79m107.42 91.01-.91-.07-.07-.33v-.16q.01-.2.1-.37v-.05l.18-.38.25-.44.08-.1.3-.34q.24-.31.37-.64a50 50 0 0 0 6.61-9.56q1.28-2.45 2.25-5a42 42 0 0 0 2.38-9.94c.15-1.6.22-3.22.22-4.62v-.33a42 42 0 0 0-.38-4.56 41 41 0 0 0-.98-4.67l-.11-.38a50 50 0 0 0-1.71-4.75 45 45 0 0 0-2.38-4.58 47 47 0 0 0-3.72-5.14 44 44 0 0 0-4.51-4.58q-.05-.03-.1-.1c-.07-.04-.14-.11-.14-.11a53 53 0 0 0-6.31-4.6 51 51 0 0 0-7.48-3.75 59 59 0 0 0-9.14-2.8 52 52 0 0 0-8.46-1.15h-.54c-1.45-.23-2.32-1.59-2.25-3.04.07-1.68 1.34-3.3 3-3.32h.04q.39-.02.73.07l1.75.17q1.55.16 3.09.4 4.05.62 8 1.72a57 57 0 0 1 14.16 6.2c9.89 6.05 17.74 15.45 21.04 26.67a45 45 0 0 1 1.56 17.37 49 49 0 0 1-4.88 16.65 56 56 0 0 1-7.46 11.15q-2.3-.32-4.6-.54zM406.2 313.7l.22.04zm4.6 9.53.67.12v.11l-.68-.2zM357 363a64 64 0 0 1-16.85-3.19l-.58-.2a1 1 0 0 1-.42-.12l-.21-.1c-1.62-.54-2.3-2.43-1.94-4 .18-.81.67-1.59 1.42-2.03.7-.4 1.43-.4 1.97-.21q.12.03.23.1.17.06.3.13c1.87.75 3.84 1.31 5.8 1.8a63 63 0 0 0 9.3 1.4q5.03.31 10.04-.23 4.53-.53 8.97-1.8a56 56 0 0 0 7.88-2.97 51 51 0 0 0 6.4-3.67 50 50 0 0 0 5.13-4.06l.2-.22a51 51 0 0 0 3.84-4.06q1.65-2.07 3.01-4.28 1.17-1.96 2.1-4.02.44-1 .8-1.99 1.96.2 3.93.3l1.73.2a44 44 0 0 1-4.81 10.23c-6.78 10.69-18.24 17.9-30.32 21.09a60 60 0 0 1-15.15 1.94q-1.38.01-2.74-.05z"/><path fill="#000" d="M281.33 382.93a68 68 0 0 1-23.82-6.73 55 55 0 0 1-11.15-7.37 50 50 0 0 1-5.96-6l-.35-.43a3.6 3.6 0 0 1-.29-4.44 2.6 2.6 0 0 1 2.06-1.17c.9-.02 1.66.47 2.1 1.06q.73.94 1.48 1.82l.35.4a47 47 0 0 0 4 3.86 52 52 0 0 0 13.7 8.22 68 68 0 0 0 9.37 3.04h.07c.07 0 .17.05.19.05h.1a67 67 0 0 0 10.86 1.57q6.11.34 12.18-.33 5.6-.68 11.01-2.22l.24-.07c3.15-.94 6.21-2.1 9.09-3.49l.23-.11h.05a70 70 0 0 0 7.67-4.47 48 48 0 0 0 9.5-8.65l.13-.19q1.06-1.36 2.01-2.78c.23-.37.47-.75.75-1.05a2.5 2.5 0 0 1 1.85-.91c.93-.02 1.84.54 2.26 1.36a3.9 3.9 0 0 1 .05 3.62c-.16.35-.42.7-.66 1.03q-.87 1.25-1.84 2.43a52 52 0 0 1-9.37 9.16 68 68 0 0 1-5.55 3.77 67 67 0 0 1-14.84 6.38c-.07 0-.12.05-.19.05h-.07a72 72 0 0 1-27.28 2.52z"/><path fill="#000" d="M235.76 395.56c-2.32-3.4 2.17-7.58 5.1-8.93-1.01-6.06-3.05-15.31 4.18-18.24-.8-4.72 5.28-6.43 5.73-1.21-.7 2.2.51 5-1.36 6.75-.7.82-1.85.59-2.78.61-.75.23-1.17 1-1.29 1.75-.3 3.7.52 7.44 1.29 11.04 1.14 2.69-.59 5.6-3.67 5.21-1.69.5-2.25 2.15-3.32 3.34-1.08 1.22-2.95.94-3.86-.32z"/><path fill="#000" d="M205.53 418.72c-3.07-14.33 9.25-29.46 23.98-29.22 2.46 0 4.89.42 7.18 1.24 1.68 0 2.75 1.7 2.75 3.25.15 2.1-2.26 4.25-4.2 2.99-2.41-1.1-5.12-1.24-7.72-1.12-9.89 1.21-17.93 10.21-16.95 20.29 1.55 3.86-3.71 6.8-5.14 2.29z"/><path fill="#000" d="M201.15 433.93c-6.2-6.25-.68-16.8 6.83-18.75 3.18.14 3.53 4.72 1.26 6.3-1 .73-2.34.8-3.25 1.71-1.38 1.57-3.06 4.07-1.26 5.92 2.5 2.4-.54 7.57-3.55 4.8zm84.31-10.29c-2.08-.24-2.68-2.5-2.33-4.02.28-3.23.18-6.67.16-9.9-.86-4.22.75-13.8-5.19-14.09-1.17-.23-1.9-1.4-2.08-2.5-.6-2.5 2.48-5.35 4.68-3.53a8.7 8.7 0 0 1 6.28 6.52 66 66 0 0 1 1.66 18.87c.03 2.85.92 8.48-3.18 8.62z"/><path fill="#000" d="M280.41 392.44c-4.09-.9-1.7-6.03-1.84-8.9.19-2.34.35-6.71 3.7-6.1 4.46 1.3.74 7.62 1.23 10.98.21 1.87-.91 4.21-3.06 4.05zm2.39 45.61c-.36-1.7.79-3.36 2.33-3.97 2.08-1.7 6.17-5.73 3.1-8.16-1.58-.93-3.94-1.29-4.41-3.39a3.7 3.7 0 0 1 1.5-3.55c2.64-1.78 4.55 1 6.9 1.87 3.38 2.45 3.5 7.5 1.67 10.94-1.16 3.01-8.78 12.32-11.1 6.26"/><path fill="#000" d="M233.2 447.93a83 83 0 0 1-16.4-4.47 55 55 0 0 1-12.57-6.85 55 55 0 0 1-2.57-2.1l.33.25h.04a2.5 2.5 0 0 1-.56-3.6c1.17-1.54 3.77-1.82 5.17-.42q.06.08.12.12l.77.7a41 41 0 0 0 3.93 2.88 54 54 0 0 0 5.4 2.92l.25.12h.05c2.53 1.14 5.1 2.1 7.34 2.78q4.95 1.49 10.03 2.38 5.5.9 11.08 1.2 5.63.22 11.27-.21 4.52-.4 8.88-1.24h.19a71 71 0 0 0 7.06-1.92c.05 0 .12-.05.16-.05h.07q2.72-.97 5.33-2.2a32 32 0 0 0 3.13-1.77q.8-.57 1.6-1.1c1.51-.98 4.3-.56 4.86 1.38.28 1.03-.07 1.9-.75 2.64-.3.33-.73.54-1.1.8a46 46 0 0 1-3.13 1.84 46 46 0 0 1-6.64 2.97 72 72 0 0 1-16.97 3.79q-5.02.55-10.1.54-8.22 0-16.3-1.4h.03zm84.1-9.14c-6.1-3.8-7.15-14.17-1.96-19.13-2.52-9.1-1.28-19.36 5.05-26.67.24-6.52-2.9-13.91.61-19.9 1.36-1.7 1.8-5.2 4.77-4.37 1.54.52 2.24 2.53 1.75 4-.4 1.82-1.56 3.16-2.52 4.7-.35 5.4.96 10.87.98 16.32.14 1.7-.54 3.18-2.01 3.92-3.46 4.19-4.86 9.63-4.37 15.01.56 3.44 2.36 7.37.42 10.66-.66.87-1.73 1.29-2.17 2.32-.57 1.38-.1 2.97 0 4.4.5 2.91 4.7 3.62 3.15 7.12-.58 1.36-2.29 2.46-3.67 1.62zm40.53-47.84a3.3 3.3 0 0 1-1.16-2.2c-.38-4.06-.2-8.18-.66-12.2-3.37-.88-2.5-5.3-2.64-7.97-.12-2.24-.47-4.49-.52-6.73-.25-2.17 1.06-4.86 3.58-4.51 2.1.26 2.76 3.04 1.92 4.67.19 2.93.54 5.82.49 8.77 2.06 1.1 2.6 3.58 2.69 5.73.35 3.7.2 7.43.58 11.13v.2-.2q0-.1-.05-.2c.54 2.37-1.98 5.2-4.27 3.54z"/><path fill="#000" d="M392.53 417.82c.9-4.28 1.31-8.7-1.56-12.34-3.6-7.9-13.37-13.47-21.72-9.5-1.96 1.66-5.92 1.45-6.17-1.68.1-1.26-1.5-1.35-2.32-1.8-3.41.82-5.6-3.53-2.52-5.21 3.34-1.33 7.48.82 9.91 3.1 13.6-4.71 26.53 5.15 31.05 17.73.77 3.08.32 6.47-.21 9.58.04 1.76-1.62 2.88-3.25 2.88-1.48 0-3.32-1.08-3.23-2.76z"/><path fill="#000" d="M346.3 448.65c-8.55-.68-16.22-3.11-23.95-6.5-2.55-1.6-5.08-2.32-6.46-4.84-.58-1.57.7-3.04 2.18-3.41 1.33-.35 2.94.09 3.71 1.26q3.59 2.55 7.77 3.88c14.19 7.32 61.69 6.52 69.15-9.77.2-2.85.04-6.1-2.93-7.39-1.47-.07-3.13-1.12-3.08-2.76.32-3.93 5.24-3.27 7.43-1.29 4.16 2.32 5.28 6.88 5.05 11.32-.1 2.71-2.06 4.89-3.67 6.92-13.67 13.16-37.33 12.76-55.2 12.62zm61.57-115.35c-4.42.22-5.99-5.14-1.05-5.88a44 44 0 0 0 15.03.58c24.47-3 50.75-20.71 51.73-47.3-.18-3.97 6.92-3.94 6.43.12-1.9 34.44-40.25 56.13-72.14 52.49m15.63-34.91a2 2 0 0 0-.68-.2q-.38-.23-.72-.47l-.33-.26-.07-.07c-.19-.44-.33-.91-.5-1.38v-.05.05-.17l-.18-.84v-.16l.1-.37v-.05q.06-.17.16-.3l.02-.05s0 .05-.02.05l.28-.5q.02-.05.07-.09l.3-.37q.15-.2.26-.4c.91-.12 1.82.02 2.74.16.79.12 1.58.24 2.38.2a16.7 16.7 0 0 0 13.54-7.68c1.8-2.45 2.3-5.42 3.17-8.27 1.5-3.3 7.72-1.9 5.85 1.96.12-.19.16-.35.25-.56-.81 2.1-1 4.47-2.17 6.38-3.8 8.4-12.58 13.56-21.65 13.56q-1.34.01-2.69-.16z"/><path fill="#000" d="M443.48 279.1c-4.42-3.1-4.56-11.09.14-14 2.41-1.53 7.56-3.98 8.91-.12.52 3.48-3.46 3.03-5.35 4.48-1.2 1.29-.5 3.56.14 4.98.77.66 1.73.96 2.29 1.85 1.96 3.55-4.49 6.13-6.13 2.83zm33.12 3.15c-3.63-.96-2.81-5.43.7-5.63 2.75.5 6.21.46 5.75-3.32-4.98-1.43-2.01-7.06 2.2-5.43 4.9 1.52 5.07 6.36 2.92 10.31-2.39 3.76-7.44 4.68-11.55 4.07z"/><path fill="#000" d="M482.74 272.08c-2.88-1.4-2.15-4.84.8-5.47 3.7-.1 7.45-1.12 11.1-2.04 5.28-.35 18.84-12.8 9.96-15.9-3.04-1.1-5.45 1.64-8.1 2.58a33 33 0 0 1-9.18 2.01c-8.88.58-17.58-2.76-26.16-.68-5.12 1.6-6.83 6.87-6.27 11.69.12 3.53-6.1 4.25-6.42.59-.82-19.43 16.34-19.71 30.97-17.35 4.89.49 9.89.68 14.54-1.1 3.11-1.64 6.2-3.72 9.89-3.5 14.05 1.2 11.43 14.42 2.78 21.2-5.26 5.35-13.63 6.38-20.45 7.88-1.12.32-2.32.65-3.42.09zM192.5 388.27q1.33 0 2.64-.16 1.25-.22 2.48-.59 1.28-.45 2.5-1.05.98-.57 1.91-1.24.88-.7 1.69-1.5.65-.69 1.24-1.47a21 21 0 0 0 1-1.54q.48-.9.87-1.82.27-.78.51-1.6.18-.85.33-1.72.09-.83.1-1.66c0-.7-.08-1.4-.15-2.08q-.14-.8-.3-1.57-.21-.74-.47-1.43a16 16 0 0 0-3.16-4.83 20 20 0 0 0-1.37-1.22l-.15-.1-.02-.02h-.02q-.16-.1-.3-.23c-.43-.3-.9-.6-1.3-.84l-.06-.05-.1-.05q-1.05-.57-2.17-1-1.13-.39-2.3-.63-1.24-.21-2.54-.28-1.34-.01-2.64.16-1.27.2-2.5.58a16 16 0 0 0-4.26 2.23q-.9.69-1.7 1.47a16 16 0 0 0-2.36 3.08q-.44.84-.82 1.69-.32.83-.56 1.66-.21.95-.35 1.91l-.1 1.62a17 17 0 0 0 .1 1.56q.12.86.32 1.69c.17.58.35 1.19.56 1.75q.36.84.8 1.68.46.8 1 1.57.6.76 1.27 1.5.69.68 1.47 1.3.94.7 1.92 1.29c.72.37 1.45.73 2.2 1 .76.26 1.56.5 1.96.59.96.19 1.9.28 2.7.33h.2-.1zm-.03 6.29c-2.92-.1-5.82-.77-8.44-2.1a21 21 0 0 1-7.43-6.41 21.3 21.3 0 0 1-2.78-18.91 21.6 21.6 0 0 1 5.63-8.72 20 20 0 0 1 7.83-4.42c5.47-1.7 11.48-.68 16.32 2.27a15 15 0 0 1 1.5 1.03c.3.3.67.56 1 .84q.8.7 1.5 1.47a20 20 0 0 1 3.06 4.32 21 21 0 0 1 1.96 14.83 20.8 20.8 0 0 1-7.34 11.57 21 21 0 0 1-6.22 3.32 20 20 0 0 1-6.24.93h-.4zM165.4 412.6a13 13 0 0 1-7.27-5.59 13.6 13.6 0 0 1-1.7-9.68 12.38 12.38 0 0 1 15.87-9.6 13 13 0 0 1 3.8 1.91s.06.02.06 0a17 17 0 0 1 3.13 3.55 13.7 13.7 0 0 1 1.96 7.13 13 13 0 0 1-3.1 8.35 12.4 12.4 0 0 1-9.27 4.37q-1.75-.02-3.45-.49zm3.53-5.85q.63-.06 1.26-.16.6-.16 1.17-.37l1.22-.61.86-.63q.4-.36.7-.7.3-.37.57-.75.24-.4.46-.82l.28-.7.21-.84q.07-.42.1-.82v-.77q-.04-.37-.1-.73-.07-.37-.18-.75l-.24-.58-.42-.77q-.22-.35-.49-.66-.3-.34-.6-.65l-.2-.17a2 2 0 0 1-.5-.4q-.13-.07-.24-.18-.42-.25-.84-.47-.5-.2-.98-.37-.6-.17-1.22-.26a9 9 0 0 0-2.55.12q-.6.14-1.14.35-.57.24-1.13.56-.45.31-.9.65-.4.36-.78.78l-.49.63q-.29.46-.54.96l-.28.7q-.14.44-.23.89l-.1.77v.8c0 .18.05.37.07.55q.09.42.22.84l.28.73q.17.36.4.72l.5.7q.26.3.54.54.4.36.85.68.45.3.9.54.57.26 1.18.44a8 8 0 0 0 2.38.28z"/><defs><filter id="crests-surveys-filter0_d_23_1571" width="496.26" height="344.11" x="57.87" y="134" color-interpolation-filters="sRGB" filterUnits="userSpaceOnUse"><feFlood flood-opacity="0" result="BackgroundImageFix"/><feColorMatrix in="SourceAlpha" result="hardAlpha" values="0 0 0 0 0 0 0 0 0 0 0 0 0 0 0 0 0 0 127 0"/><feOffset dx="12" dy="12"/><feComposite in2="hardAlpha" operator="out"/><feColorMatrix values="0 0 0 0 0 0 0 0 0 0 0 0 0 0 0 0 0 0 0.4 0"/><feBlend in2="BackgroundImageFix" result="effect1_dropShadow_23_1571"/><feBlend in="SourceGraphic" in2="effect1_dropShadow_23_1571" result="shape"/></filter></defs></svg>