<svg xmlns="http://www.w3.org/2000/svg" fill="none" viewBox="0 0 600 600"><g filter="url(#crests-talent-filter0_d_23_7047)"><mask id="crests-talent-path-1-outside-1_23_7047" width="366" height="431" x="117.51" y="83.87" fill="#000" maskUnits="userSpaceOnUse"><path fill="#fff" d="M117.51 83.87h366v431h-366z"/><path d="M266.14 124.54c5.5-14.87 22.97-29.3 38.66-19.41 23.68 14.32 21.65 46.07 33.52 68.04 3.86 6.09 7.86 7.62 12.23 7.3 2.52-.58 5.04-1.34 7.37-1.94q.96-.2 1.94-.36a77 77 0 0 1 5.42-1.57c8.07-1.35 16.35-.66 24.26 1.47q1.32.15 2.6.38l1.35.56q1.2.51 2.4 1.08l.14.07q3.65 1.37 7.1 3.09c10.24 4.79 18 12.68 23.17 22.11 3.36 4.1 14.8 8.53 18.28 13.83 2.44 1.87 2.27 6.4-.44 8.08-.92.92-1.77 1.95-2.64 2.93-2.47 2.88-5.06 5.68-7.59 8.54a65 65 0 0 1-2.34 15.14 86 86 0 0 1-25.82 40.71q-.12.54-.37 1.04l-2 1.24-1.96 1.23a74 74 0 0 1-7.98 5.26l-1.53.95-1.16.5-.73.36c0 .7-.01 1.32.05 1.77a277 277 0 0 0 1.69 14.08c1.03 8 2.5 15.96 4 23.87.08 1.02.34 2.21.63 3.47 4.8-1.36 9.65-2.5 14.52-3.65q.88 0 1.76.03h-.1q.94.03 1.9.16l1.29.31 1.19.43q.23.11.44.24l-.02-.03.4.26.68.77-.05-.06q.48.56.98 1.1l-.03-.04.08.1.02.03-.02-.02.28.39q.21.32.37.63V349a11 11 0 0 1 .98 2.66c.05 1.4.18 2.74.58 3.8 8.36-1.16 17.6 1.71 24.18 6.85 2.85 1.87 6.9 10.67 7.86 17.25 1.93.25 3.89 1.07 5.24 2.26 9.02 6.04 8.65 19.28 3.3 27.67-15.25 21.23-49.73 22.76-73.78 23.52-18.54-1.58-58.41-4.8-67.35-23-3.48-7.43-1.19-18.03 5.88-22.54.5-3.16 1.82-6.1 3.72-8.64-4.62-8.76-14.66-15.02-24.48-10.85-8.15 4.04-12.55 12.66-16.75 20.3a152 152 0 0 0-5.72 14.85c5.44 1.9 10.01 6.87 12.43 11.82 13.82.24 14.4 18.57 10.57 28.38-8.88 22.13-31.33 34.63-52.37 43.26-19.42 8.62-41.25 13.76-62.38 9.57v.03c-4.17-1.3-14.81-1.69-19.4-5.18a8 8 0 0 1-2.76-1.27l.03.03c-11.29-8.36-9-25.27 2.53-32.25-1.16-11.8 6.75-23.69 16.83-29.3-.72-5.65 1.76-11.61 6.67-14.67a29 29 0 0 1 9.15-3.47q-.04-.55-.12-1.09h.06c-.56-9.15-.06-18.54 2.82-27.3 2.6-8.94 9.7-16.95 8.36-26.74-1.69-9.97-10.95-9.75-18.96-10.65-12.3-1.59-24.9-4.06-35.34-11.1-9.1-6.62-19.26-13.11-23.77-23.87-6.51-15.01-4.35-34.53 8.18-45.79 9-8.44 21.94-7.12 33.26-9 9.12-.78 16.88-5.98 24.73-10.25 10.18-5.46 19.94-12.58 29.39-18.94l.9-.69.13-.28q.7-1.94 1.29-3.92c-2.2 2.28-5.01 4.15-7.08 6.5-.84.8-1.87 1.64-3.11 1.56h.02c-4.32-.37-6.04-5.3-8.99-7.92-7.28-6.06-.71-12 4.17-16.77 1.46-1.98 3.36-3.01 5.02-2.86 1.8-.78 4.05-.16 5.06 2.52 2.24 3.1 6.4 5.45 7.2 9.32l3.1-10.03q3.93-12.94 7.9-25.9c4.6-15 9.19-30.01 13.62-45.1.28-.96.9-1.81 1.7-2.38.44-1.75 1.15-3.5 1.56-4.85m122.3 308.47h-.02zm64.59-198.81c1.82-.37 3.32.84 4.09 2.4 3.23 3.39 9.95 8.49 6.88 13.5-.06.7-.25 1.4-.61 2.01-2.03 2.7-5.25 4.64-7.7 7.07-1.77 1.74-4.2 3.61-6.67 2.11h.02c-2.37-1.5-4.14-3.82-6.22-5.7-1.9-2.08-4.49-4.08-4.54-7.14.45-5.22 6.23-7.5 9.18-11.3 1.54-2.07 3.6-3.1 5.33-2.9zm-3.54-54.3a3.9 3.9 0 0 1 3.27 2c3.27 2.6 7.04 5.2 9.18 8.84 1.19 2.46-.38 5.9-2.81 6.53-1.16 2.63-3.92 4.44-5.67 6.71-1.64 1.98-4.25 4.27-6.78 2.32l.02-.03c-2.92-2.5-5.38-5.32-8.75-7.14-5.57-3.77-.13-9.63 3.11-12.9 1.3-1.4 2.3-3.03 3.67-4.32a3.4 3.4 0 0 1 2.06-.77 4 4 0 0 1 2.7-1.24M194.1 168.36a3.6 3.6 0 0 1 4.64.46l.08.08s.05.05.05.08c4.67 4.8 9.4 9.63 14.06 13.95a5.2 5.2 0 0 1 1.45 5.79q-.07.6-.34 1.18c-2.64 4.19-6.78 7.33-10 11.1-2.03 1.85-3.77 5.33-6.88 4.9l-.03.03c-2.42-.45-3.48-3.43-5.27-4.7-4.33-4.63-15.17-7.98-14-15.5.39-1.87 2.66-3.75 3.66-4.96 3.77-4.22 7.49-8.62 11.9-12.16q.35-.15.68-.25m28.56-23.54c1.3-1.87 3.96-2.34 5.62-.66 3.14 3.2 6.4 6.28 9.65 9.4 1.9 1.34 2.22 4.4 1.21 6.35a4 4 0 0 1-2.45 2.06c-.73 2.81-3.86 4.27-5.88 6.27-1.85 1.53-3.48 4.35-6.23 3.93-3.87-1.85-8.15-6.36-11.31-9.42-5.72-6.62 3.7-12.42 8.02-16.56q.43-.34.9-.51.19-.45.47-.86"/></mask><path fill="#fff" d="M266.14 124.54c5.5-14.87 22.97-29.3 38.66-19.41 23.68 14.32 21.65 46.07 33.52 68.04 3.86 6.09 7.86 7.62 12.23 7.3 2.52-.58 5.04-1.34 7.37-1.94q.96-.2 1.94-.36a77 77 0 0 1 5.42-1.57c8.07-1.35 16.35-.66 24.26 1.47q1.32.15 2.6.38l1.35.56q1.2.51 2.4 1.08l.14.07q3.65 1.37 7.1 3.09c10.24 4.79 18 12.68 23.17 22.11 3.36 4.1 14.8 8.53 18.28 13.83 2.44 1.87 2.27 6.4-.44 8.08-.92.92-1.77 1.95-2.64 2.93-2.47 2.88-5.06 5.68-7.59 8.54a65 65 0 0 1-2.34 15.14 86 86 0 0 1-25.82 40.71q-.12.54-.37 1.04l-2 1.24-1.96 1.23a74 74 0 0 1-7.98 5.26l-1.53.95-1.16.5-.73.36c0 .7-.01 1.32.05 1.77a277 277 0 0 0 1.69 14.08c1.03 8 2.5 15.96 4 23.87.08 1.02.34 2.21.63 3.47 4.8-1.36 9.65-2.5 14.52-3.65q.88 0 1.76.03h-.1q.94.03 1.9.16l1.29.31 1.19.43q.23.11.44.24l-.02-.03.4.26.68.77-.05-.06q.48.56.98 1.1l-.03-.04.08.1.02.03-.02-.02.28.39q.21.32.37.63V349a11 11 0 0 1 .98 2.66c.05 1.4.18 2.74.58 3.8 8.36-1.16 17.6 1.71 24.18 6.85 2.85 1.87 6.9 10.67 7.86 17.25 1.93.25 3.89 1.07 5.24 2.26 9.02 6.04 8.65 19.28 3.3 27.67-15.25 21.23-49.73 22.76-73.78 23.52-18.54-1.58-58.41-4.8-67.35-23-3.48-7.43-1.19-18.03 5.88-22.54.5-3.16 1.82-6.1 3.72-8.64-4.62-8.76-14.66-15.02-24.48-10.85-8.15 4.04-12.55 12.66-16.75 20.3a152 152 0 0 0-5.72 14.85c5.44 1.9 10.01 6.87 12.43 11.82 13.82.24 14.4 18.57 10.57 28.38-8.88 22.13-31.33 34.63-52.37 43.26-19.42 8.62-41.25 13.76-62.38 9.57v.03c-4.17-1.3-14.81-1.69-19.4-5.18a8 8 0 0 1-2.76-1.27l.03.03c-11.29-8.36-9-25.27 2.53-32.25-1.16-11.8 6.75-23.69 16.83-29.3-.72-5.65 1.76-11.61 6.67-14.67a29 29 0 0 1 9.15-3.47q-.04-.55-.12-1.09h.06c-.56-9.15-.06-18.54 2.82-27.3 2.6-8.94 9.7-16.95 8.36-26.74-1.69-9.97-10.95-9.75-18.96-10.65-12.3-1.59-24.9-4.06-35.34-11.1-9.1-6.62-19.26-13.11-23.77-23.87-6.51-15.01-4.35-34.53 8.18-45.79 9-8.44 21.94-7.12 33.26-9 9.12-.78 16.88-5.98 24.73-10.25 10.18-5.46 19.94-12.58 29.39-18.94l.9-.69.13-.28q.7-1.94 1.29-3.92c-2.2 2.28-5.01 4.15-7.08 6.5-.84.8-1.87 1.64-3.11 1.56h.02c-4.32-.37-6.04-5.3-8.99-7.92-7.28-6.06-.71-12 4.17-16.77 1.46-1.98 3.36-3.01 5.02-2.86 1.8-.78 4.05-.16 5.06 2.52 2.24 3.1 6.4 5.45 7.2 9.32l3.1-10.03q3.93-12.94 7.9-25.9c4.6-15 9.19-30.01 13.62-45.1.28-.96.9-1.81 1.7-2.38.44-1.75 1.15-3.5 1.56-4.85m122.3 308.47h-.02zm64.59-198.81c1.82-.37 3.32.84 4.09 2.4 3.23 3.39 9.95 8.49 6.88 13.5-.06.7-.25 1.4-.61 2.01-2.03 2.7-5.25 4.64-7.7 7.07-1.77 1.74-4.2 3.61-6.67 2.11h.02c-2.37-1.5-4.14-3.82-6.22-5.7-1.9-2.08-4.49-4.08-4.54-7.14.45-5.22 6.23-7.5 9.18-11.3 1.54-2.07 3.6-3.1 5.33-2.9zm-3.54-54.3a3.9 3.9 0 0 1 3.27 2c3.27 2.6 7.04 5.2 9.18 8.84 1.19 2.46-.38 5.9-2.81 6.53-1.16 2.63-3.92 4.44-5.67 6.71-1.64 1.98-4.25 4.27-6.78 2.32l.02-.03c-2.92-2.5-5.38-5.32-8.75-7.14-5.57-3.77-.13-9.63 3.11-12.9 1.3-1.4 2.3-3.03 3.67-4.32a3.4 3.4 0 0 1 2.06-.77 4 4 0 0 1 2.7-1.24M194.1 168.36a3.6 3.6 0 0 1 4.64.46l.08.08s.05.05.05.08c4.67 4.8 9.4 9.63 14.06 13.95a5.2 5.2 0 0 1 1.45 5.79q-.07.6-.34 1.18c-2.64 4.19-6.78 7.33-10 11.1-2.03 1.85-3.77 5.33-6.88 4.9l-.03.03c-2.42-.45-3.48-3.43-5.27-4.7-4.33-4.63-15.17-7.98-14-15.5.39-1.87 2.66-3.75 3.66-4.96 3.77-4.22 7.49-8.62 11.9-12.16q.35-.15.68-.25m28.56-23.54c1.3-1.87 3.96-2.34 5.62-.66 3.14 3.2 6.4 6.28 9.65 9.4 1.9 1.34 2.22 4.4 1.21 6.35a4 4 0 0 1-2.45 2.06c-.73 2.81-3.86 4.27-5.88 6.27-1.85 1.53-3.48 4.35-6.23 3.93-3.87-1.85-8.15-6.36-11.31-9.42-5.72-6.62 3.7-12.42 8.02-16.56q.43-.34.9-.51.19-.45.47-.86"/><path fill="#fff" d="m266.14 124.54-15.94-5.9q-.19.5-.35 1.02zm38.66-19.41-9.06 14.38.26.17zm33.52 68.04-14.96 8.08.6 1.03zm12.23 7.3 1.23 16.96q1.3-.1 2.58-.39zm7.37-1.94-3.3-16.68-.97.22zm1.94-.36 2.9 16.75q1.15-.2 2.26-.55zm5.42-1.57-2.82-16.76q-.6.1-1.16.23zm24.26 1.47-4.41 16.42q1.25.33 2.52.47zm2.6.38 6.48-15.72q-1.64-.67-3.38-1zm1.35.56 6.76-15.6-.28-.12zm2.4 1.08 7.98-15.02-.79-.39zm.14.07-7.97 15.01q.96.53 2 .9zm7.1 3.09-7.58 15.22.37.18zm23.17 22.11-14.91 8.17q.76 1.39 1.75 2.6zm18.28 13.83-14.21 9.33a17 17 0 0 0 3.88 4.18zm-.44 8.08-8.99-14.43q-1.66 1.03-3.03 2.4zm-2.64 2.93-12.69-11.32-.21.25zm-7.59 8.54-12.73-11.27a17 17 0 0 0-4.25 10.64zm-2.34 15.14 16.34 4.68.03-.08zm-25.82 40.71-11.17-12.81a17 17 0 0 0-5.34 8.78zm-.37 1.04 8.75 14.58a17 17 0 0 0 6.58-7.22zm-2 1.24-9.17-14.32-.07.05zm-1.96 1.23-9.02-14.4q-.62.38-1.2.83zm-7.98 5.26-8.4-14.79a17 17 0 0 0-3.62 2.76zm0 0 9.07 14.37a17 17 0 0 0 2.95-2.35zm-1.53.95 6.9 15.53q1.13-.5 2.17-1.16zm-1.16.5-6.63-15.66q-.57.25-1.12.52zm-.73.36-7.57-15.22a17 17 0 0 0-9.43 15.1zm.05 1.77 16.93-1.51q-.03-.45-.1-.9zm1.69 14.08 16.86-2.17-.03-.19zm4 23.87 16.97-1.17q-.08-1-.26-2zm.63 3.47-16.55 3.86a17 17 0 0 0 21.21 12.49zm14.52-3.65v-17q-1.99 0-3.92.46zm1.76.03v17a17 17 0 0 0 .77-33.98zm-.1 0v-17a17 17 0 0 0-.71 33.98zm1.9.16 4.12-16.5q-1-.25-2.02-.37zm1.29.31 5.38-16.12a18 18 0 0 0-1.26-.37zm1.19.43 8.43-14.76q-1.46-.84-3.06-1.37zm.44.24-8.98 14.44a17 17 0 0 0 21.26-26.2zm-.02-.03 8.74-14.58a17 17 0 0 0-23.95 22.18zm.4.26 12.63-11.37a17 17 0 0 0-3.89-3.2zm.68.77-12.24 11.8a17 17 0 0 0 24.94-23.1zm-.05-.06 12.02-12.02a17 17 0 0 0-24.87 23.16zm.98 1.1-12.8 11.2a17 17 0 0 0 26.4-21.39zm-.03-.04L432.4 337a17 17 0 0 0-28.26 18.5zm.08.1-13.47 10.38q.3.4.64.78zm.02.03-12.02 12.02a17 17 0 0 0 24.87-23.15zm-.02-.02 12.07-11.97a17 17 0 0 0-25.56 22.31zm.28.39 14.42-9.01q-.27-.45-.58-.87zm.37.63-15.2 7.6a17 17 0 0 0 32.2-7.6zm0-.02 15-8a17 17 0 0 0-32 8zm.56 1.26 16.13-5.37-.21-.6zm.42 1.4 16.99-.64a17 17 0 0 0-.61-3.91zm.58 3.8-15.92 5.97a17 17 0 0 0 18.26 10.87zm24.18 6.85-10.45 13.4q.55.45 1.14.82zm7.86 17.25L436.86 382a17 17 0 0 0 14.69 14.42zm5.24 2.26-11.29 12.72q.87.76 1.83 1.41zm3.3 27.67 13.8 9.91q.28-.37.52-.76zm-141.13.53-15.4 7.2.14.3zm5.88-22.55 9.14 14.33a17 17 0 0 0 7.66-11.72zm3.72-8.64L344.3 389a17 17 0 0 0 1.43-18.13zm-24.48-10.85-6.64-15.65-.9.42zm-16.75 20.3-14.9-8.16q-.28.5-.53 1.04zm-5.72 14.85-16.1-5.47a17 17 0 0 0 10.5 21.52zm12.43 11.82-15.28 7.46a17 17 0 0 0 14.99 9.54zm10.57 28.38 15.78 6.34.06-.16zm-52.37 43.26-6.45-15.73-.46.19zm-62.38 9.57 3.31-16.67a17 17 0 0 0-20.31 16.67zm0 .03-5.03 16.23a17 17 0 0 0 22.03-16.23zm-19.4-5.18 10.26-13.54a17 17 0 0 0-6.34-3zm-2.76-1.27 10.28-13.54a17 17 0 0 0-22.3 25.57zm.03.03-10.12 13.66a17 17 0 0 0 22.14-25.68zm2.53-32.25 8.82 14.53a17 17 0 0 0 8.1-16.2zm16.83-29.3 8.28 14.84a17 17 0 0 0 8.58-16.97zm6.67-14.67-8.64-14.64-.36.22zm9.15-3.47 3.16 16.7a17 17 0 0 0 13.8-18.04zm-.12-1.09v-17a17 17 0 0 0-16.83 19.38zm.06 0v17a17 17 0 0 0 16.97-18.02zm2.82-27.3 16.15 5.3.17-.53zm8.36-26.74 16.84-2.31-.08-.52zM197.2 344.3l-2.17 16.86.28.03zm-35.34-11.1-10 13.74q.23.18.5.35zm-23.77-23.87 15.68-6.57-.08-.2zm8.18-45.79 11.36 12.64.27-.24zm33.26-9-1.47-16.93q-.66.06-1.31.16zm24.73-10.25-8.03-14.98-.09.04zm29.39-18.94 9.49 14.1q.48-.32.93-.67zm.9-.69 10.19 13.6a17 17 0 0 0 5.2-6.39zm.13-.28 14.9 8.2q.65-1.18 1.1-2.44zm1.29-3.92 16.26 4.96a17 17 0 0 0-28.48-16.78zm-7.08 6.5 11.63 12.4q.6-.55 1.13-1.17zm-3.11 1.56v-17a17 17 0 0 0-1.09 33.96zm.02 0v17a17 17 0 0 0 1.45-33.94zm-8.99-7.92 11.26-12.73-.38-.33zm4.17-16.77 11.89 12.15q.97-.95 1.78-2.05zm5.02-2.86-1.49 16.93c2.8.25 5.63-.2 8.21-1.32zm5.06 2.52-15.92 5.97a17 17 0 0 0 2.14 3.99zm7.2 9.32-16.62 3.51a17 17 0 0 0 32.88 1.49zm3.1-10.03-16.26-4.97zm7.9-25.9 16.25 5.02.01-.05zm13.62-45.1-16.3-4.83-.02.04zm1.7-2.38 9.9 13.8a17 17 0 0 0 6.56-9.58zM388.44 433v17a17 17 0 0 0 1.44-33.94zm-.03 0-.54-17a17 17 0 0 0 .54 34zm64.61-198.81 3.27 16.68.11-.02zm4.09 2.4-15.26 7.5a17 17 0 0 0 2.97 4.24zm6.88 13.5-14.5-8.89a17 17 0 0 0-2.44 7.48zm-.61 2.01 13.57 10.25a17 17 0 0 0 1.16-1.75zm-7.7 7.07 11.93 12.11.02-.02zm-6.67 2.11v-17a17 17 0 0 0-8.82 31.54zm.02 0v17a17 17 0 0 0 9.1-31.36zm-6.22-5.7-12.57 11.46q.58.62 1.2 1.19zm-4.54-7.14-16.94-1.46a17 17 0 0 0-.06 1.75zm9.18-11.3 13.42 10.45.24-.32zm5.33-2.9-2.07 16.88q3.17.38 6.26-.4zm-3.3-54.35v-17h-.37zm3.27 2-14.63 8.66a17 17 0 0 0 4.1 4.68zm9.18 8.84 15.3-7.4q-.29-.6-.64-1.2zm-2.81 6.53-4.29-16.45a17 17 0 0 0-11.28 9.61zm-5.67 6.71 13.1 10.83.35-.44zm-6.78 2.32-12.02-12.02a17 17 0 0 0 1.64 25.49zm.02-.03 12.03 12.03a17 17 0 0 0-.97-24.94zm-8.75-7.14-9.54 14.07q.71.48 1.47.9zm3.11-12.9 12.07 11.97.41-.43zm3.67-4.32-10.52-13.36q-.6.46-1.14.98zm2.06-.77.18 17a17 17 0 0 0 12.08-5.22zM194.1 168.36l4.74 16.33a17 17 0 0 0 4.68-2.18zm4.43.25 13.05-10.9q-.84-1.01-1.83-1.87zm.21.21 12.02-12.02q-1.19-1.2-2.59-2.12zm.08.08 12.06-11.98-.04-.04zm.05.08-17 .1a17 17 0 0 0 4.81 11.75zm14.06 13.95-11.56 12.47q.36.33.73.63zm1.45 5.79-15.88-6.06q-.69 1.8-.95 3.7zm-.34 1.18 14.39 9.05q.54-.87.98-1.78zm-10 11.1 11.44 12.58q.8-.73 1.5-1.55zm-6.88 4.9 2.28-16.84a17 17 0 0 0-14.3 4.82zm-.03.03-3.09 16.72a17 17 0 0 0 15.11-4.7zm-5.27-4.7-12.44 11.6q1.2 1.28 2.63 2.3zm-14-15.5-16.64-3.51-.17.92zm3.66-4.96-12.68-11.33-.43.5zm11.9-12.16-6.9-15.54q-2.02.9-3.75 2.28zm29.24-23.79 13.97 9.69.02-.03zm5.62-.66 12.12-11.92zm9.65 9.4-11.77 12.26q.91.88 1.94 1.6zm1.21 6.35-15.12-7.77-.08.17zm-2.45 2.06-4.41-16.42a17 17 0 0 0-12.04 12.16zm-5.88 6.27 10.84 13.09q.58-.48 1.11-1zm-6.23 3.93-7.3 15.35q2.26 1.06 4.72 1.45zm-11.31-9.42-12.86 11.12q.5.57 1.04 1.1zm8.02-16.56L210.8 132.8q-.66.52-1.28 1.11zm.9-.51 6 15.9a17 17 0 0 0 9.65-9.26zm43.95-21.14 15.94 5.9c1.52-4.1 4.88-8.24 8.35-10.33a7.5 7.5 0 0 1 3.32-1.23c.43-.02 1 .02 1.99.63l9.06-14.38 9.06-14.38c-14.55-9.17-29.88-6.46-40.99.24-10.56 6.37-18.68 16.87-22.68 27.64zm38.66-19.41-8.8 14.55c6.38 3.85 10.18 10.31 13.78 21.72 2 6.34 3.09 11.1 5.32 18.68 1.95 6.65 4.44 14.1 8.26 21.17l14.96-8.08 14.96-8.08c-2.12-3.91-3.82-8.66-5.56-14.6-1.47-5-3.58-13.2-5.52-19.32-4.27-13.55-11.3-30.12-28.6-40.59zm33.52 68.04-14.35 9.11c2.97 4.68 6.86 9 12.15 11.88a28 28 0 0 0 15.66 3.27l-1.23-16.96-1.24-16.95c.08-.01.5-.03 1.12.08.65.13 1.33.36 1.94.7 1.23.66 1.2 1.17.3-.23zm12.23 7.3 3.8 16.57c2.7-.62 6.52-1.72 7.83-2.05l-4.26-16.46-4.27-16.46c-3.34.87-4.55 1.3-6.9 1.83zm7.37-1.94 3.3 16.68 1.53-.29-2.9-16.75-2.9-16.75q-1.14.2-2.33.43zm1.94-.36 5.16 16.2a63 63 0 0 1 4.24-1.24l-3.98-16.53-3.98-16.53a94 94 0 0 0-6.61 1.9zm5.42-1.57 2.81 16.77c5.26-.89 11.06-.5 17.04 1.12l4.41-16.42 4.41-16.42c-9.83-2.64-20.61-3.64-31.5-1.81zm24.26 1.47-1.89 16.9q.8.08 1.41.2l3.09-16.72 3.09-16.72a54 54 0 0 0-3.81-.56zm2.6.38-6.46 15.72.68.28.66.27L393.5 179l6.48-15.72-.68-.27-.67-.28zm1.35.56-6.75 15.6q.94.4 1.96.88l7.2-15.4 7.18-15.4c-.9-.43-1.87-.87-2.83-1.28zm2.4 1.08-7.97 15.01q-.02 0 0 0l.14.07 7.97-15 7.98-15.02H404l-.13-.08zm.14.07-5.97 15.92q2.8 1.05 5.49 2.39l7.57-15.22 7.58-15.22a92 92 0 0 0-8.69-3.78zm7.1 3.09-7.2 15.4c6.61 3.1 11.83 8.26 15.46 14.88l14.9-8.17 14.91-8.17c-6.7-12.23-17-22.86-30.88-29.34zm23.17 22.11-13.16 10.77a34 34 0 0 0 7.46 6.49c1.98 1.33 4.35 2.74 5.9 3.7a52 52 0 0 1 3.95 2.6c1.04.79.62.67-.08-.4l14.2-9.33 14.22-9.33a33 33 0 0 0-7.79-8.03 83 83 0 0 0-6.7-4.49c-2.18-1.33-3.52-2.12-4.74-2.94-1.4-.95-.95-.84-.11.19zm18.28 13.83-10.33 13.5a12.2 12.2 0 0 1-4.94-10.2c.12-2.6 1.38-6.87 5.84-9.65l8.99 14.43 8.99 14.43c7.17-4.47 9.86-11.84 10.14-17.59.27-5.67-1.65-13.29-8.37-18.42zm-.44 8.08-12.02-12.02c-1.37 1.37-3.08 3.38-3.3 3.63l12.68 11.32 12.69 11.31c1.51-1.7 1.5-1.74 1.97-2.22zm-2.64 2.93-12.9-11.07c-2.4 2.8-4.52 5.06-7.42 8.34l12.73 11.27L446.64 250c2.15-2.43 5.23-5.78 7.77-8.74zm-7.59 8.54-16.98-.63a48 48 0 0 1-1.73 11.18l16.37 4.6 16.37 4.59a82 82 0 0 0 2.96-19.12zm-2.34 15.14-16.34-4.68a69 69 0 0 1-20.65 32.58l11.17 12.81 11.17 12.82a103 103 0 0 0 31-48.85zm-25.82 40.71-16.51-4.03q.25-1.1.82-2.29l15.32 7.36 15.33 7.36q1.03-2.19 1.56-4.36zm-.37 1.04-8.74-14.58c-.76.46-1.6.97-2.43 1.5l9.17 14.32 9.16 14.32q.74-.47 1.59-.98zm-2 1.24-9.24-14.27c-.5.33-1.01.64-1.74 1.1l9.02 14.4 9.02 14.41c.59-.36 1.39-.86 2.17-1.37zm-1.96 1.23-10.23-13.57a57 57 0 0 1-6.15 4.04l8.4 14.79 8.4 14.78a91 91 0 0 0 9.81-6.46zm-7.98 5.26-12.02-12.03zl12.03 12.02zm0 0-9.08-14.37-1.53.94 9.08 14.38 9.07 14.37.6-.37.93-.58zm-1.53.95-6.9-15.54-.89.38 6.63 15.66 6.63 15.65 1.43-.62zm-1.16.5L383 289.67l-.55.28 7.57 15.22 7.58 15.22.9-.45zm-.73.36-17-.11v1.35c.01.5.04 1.63.22 2.94l16.83-2.4 16.83-2.41a13 13 0 0 1 .12 1.35v-.6zm.05 1.77-16.93 1.51c.46 5.15 1.11 10.15 1.78 14.94l16.84-2.37 16.83-2.36c-.64-4.6-1.2-8.94-1.59-13.23zm1.69 14.08-16.86 2.17a422 422 0 0 0 4.17 24.88l16.7-3.18 16.7-3.17c-1.5-7.93-2.9-15.44-3.85-22.87zm4 23.87-16.95 1.18c.18 2.6.78 5.09 1.03 6.15l16.55-3.86 16.56-3.86-.25-1.14-.01-.07.04.43zm.63 3.47 4.66 16.35c4.34-1.24 8.79-2.27 13.77-3.45l-3.91-16.55-3.92-16.54c-4.74 1.12-10.02 2.35-15.25 3.84zm14.52-3.65v17l1 .01.76-16.98.77-16.98c-1.03-.05-2.03-.05-2.53-.05zm1.76.03v-17h-.1v34h.1zm-.1 0-.71 16.98q.24.01.5.05l2.1-16.87 2.11-16.87q-1.63-.2-3.3-.28zm1.9.16-4.13 16.49 1.3.32 4.12-16.5 4.12-16.49-.77-.19-.52-.12zm1.29.31-5.38 16.13.12.05 1.07.37 5.38-16.12 5.37-16.13-.12-.05-1.06-.37zm1.19.43-8.44 14.76.32.17.22.12.13.07.02.01h.01l-.06-.03-.17-.09-.57-.33 8.98-14.44 8.99-14.43-1-.57zm.44.24 12.28-11.76c.57.6 1.84 2 2.9 4.12l-15.2 7.6-15.2 7.6a17 17 0 0 0 2.95 4.2zm-.02-.03-8.75 14.57-.8-.5q-.02-.04 0-.01l.33.23.86.55 8.75-14.58 8.75-14.58.8.52q.02.01 0 0l-.1-.07-.23-.16-.87-.55zm.4.26-12.64 11.37.61.69 12.7-11.3 12.71-11.29-.75-.84zm.68.77 12.24-11.8-.01-.01v-.01l-.03-.02-.05-.06-.18-.18-12.02 12.02-12.02 12.02q-.09-.09-.12-.1l-.02-.04-.02-.01v-.01zm-.05-.06-12.85 11.14.68.76.36.4 12.79-11.2 12.8-11.19c-1.16-1.3-.22-.22-.94-1.04zm.98 1.1 13.6-10.19c.27.36.93 1.26 1.56 2.53l-15.2 7.62-15.2 7.61a18 18 0 0 0 1.63 2.63zm-.03-.04-13.06 10.88-.53-.66.03.03.17.23 13.47-10.38 13.46-10.38.14.18v.01l-.04-.05-.58-.74zm.08.1-12.83 11.16.1.12.08.08.04.05.01.01v-.01l-.05-.05-.07-.08-.1-.12 12.84-11.13 12.85-11.13-.19-.22-.05-.05-.02-.02h.01q0 .02.04.05l.16.19zm.02.03 12.02-12.02.2.2.13.14.1.1.02.02v.01-.01l-.08-.08-.14-.14-.2-.2-12.07 11.96-12.07 11.97-.32-.34-.07-.07-.02-.01.05.04.09.1.34.35zm-.02-.02-13.49 10.34-.1-.13-.05-.07.02.03.03.04.04.06 13.83-9.88 13.84-9.88c-.01-.01-.31-.44-.63-.85zm.28.39-14.41 9 .04.07v.01-.02l-.05-.07q-.1-.16-.41-.76l15.2-7.6 15.2-7.6a21 21 0 0 0-1.15-2.04zm.37.63h17V349h-34v.02zm0-.02-15 8-.31-.66-.05-.11 15.92-5.97 15.92-5.97c-.26-.7-.75-1.94-1.48-3.3zm.56 1.26-16.13 5.38.17.57 16.38-4.55 16.38-4.55q-.27-.95-.67-2.23zm.42 1.4-16.99.64c.06 1.57.22 5.3 1.65 9.13l15.92-5.97 15.92-5.97a10 10 0 0 1 .5 1.87c.02.14 0 .08-.01-.34zm.58 3.8 2.34 16.84c3.3-.46 8 .77 11.39 3.42l10.45-13.4 10.46-13.41c-9.8-7.64-23.56-12.15-36.98-10.3zm24.18 6.85-9.31 14.22a11 11 0 0 1-2.26-1.9c-.27-.3-.35-.44-.27-.32.17.25.55.9 1.02 1.93.45.99.88 2.1 1.23 3.2.35 1.13.55 2.02.63 2.57l16.82-2.45 16.82-2.45a58 58 0 0 0-8.24-21.68 26 26 0 0 0-7.12-7.34zm7.86 17.25-2.13 16.87a6 6 0 0 1-1.73-.47 8 8 0 0 1-2.19-1.42l11.29-12.72 11.28-12.71a27 27 0 0 0-14.39-6.41zm5.24 2.26-9.46 14.13a2 2 0 0 1-.56-.62c-.06-.1.06.07.1.66s-.01 1.38-.24 2.26-.56 1.6-.87 2.1l14.32 9.14 14.33 9.15c4.6-7.21 7-16.24 6.37-25.08-.65-9.06-4.7-19.28-14.53-25.86zm3.3 27.67-13.81-9.92c-4.12 5.74-11.79 10.06-23.61 12.8-11.69 2.7-24.73 3.27-36.9 3.65l.54 17 .54 16.99c11.88-.38 28.1-.96 43.48-4.52 15.24-3.53 32.44-10.6 43.56-26.09zM388.43 433l1.44-16.93c-9.48-.81-22.77-1.94-34.68-4.85-5.94-1.45-10.78-3.18-14.28-5.09-3.59-1.96-4.46-3.39-4.57-3.62l-15.26 7.5-15.26 7.5c4.36 8.86 11.82 14.66 18.8 18.47 7.07 3.85 15.03 6.44 22.5 8.27 14.89 3.64 30.8 4.92 39.86 5.7zm-67.35-23 15.4-7.2c.08.18.02.14 0-.14a3 3 0 0 1 .27-1.44c-.02.02-.2.28-.65.57l-9.14-14.33-9.14-14.33c-7.96 5.07-12.43 12.98-14.26 20.43-1.83 7.43-1.47 15.98 2.12 23.65zm5.88-22.54 16.8 2.61c.02-.11.11-.5.53-1.06l-13.6-10.2-13.62-10.18a36.5 36.5 0 0 0-6.9 16.21zm3.72-8.64 15.04-7.94c-6.94-13.15-25.08-27.51-46.16-18.56l6.64 15.65 6.65 15.65c.02-.01-.12.04-.3.03-.13-.01-.04-.04.3.13s.84.5 1.39 1.05a8 8 0 0 1 1.41 1.92zm-24.48-10.85-7.54-15.23c-13.94 6.9-20.79 21.3-24.11 27.37l14.9 8.17 14.91 8.17c2.32-4.24 3.87-7.13 5.7-9.65 1.7-2.32 2.9-3.2 3.69-3.6zm-16.75 20.3-15.43-7.12a168 168 0 0 0-6.38 16.5l16.1 5.47 16.1 5.47a135 135 0 0 1 5.05-13.18zm-5.72 14.85-5.6 16.05c-.17-.06.24.06 1 .8a9 9 0 0 1 1.75 2.43l15.28-7.46 15.28-7.45c-3.78-7.74-11.29-16.65-22.1-20.42zm12.43 11.82-.3 17c-.17 0-.75-.05-1.55-.37a6 6 0 0 1-2.05-1.35c-1-.98-.94-1.6-.73-.73.19.8.32 2.15.17 3.83s-.5 3.06-.8 3.83l15.83 6.17 15.84 6.18c3.02-7.74 4.32-18.31 2.03-27.9-1.2-4.98-3.63-10.83-8.5-15.62a28.3 28.3 0 0 0-19.65-8.03zm10.57 28.38L290.97 437c-6.06 15.08-22.3 25.35-43.05 33.86l6.45 15.73 6.44 15.73c21.34-8.75 49.99-23.48 61.7-52.65zm-52.37 43.26-6.9-15.54c-17.69 7.86-35.79 11.69-52.17 8.44l-3.31 16.67-3.3 16.67c25.86 5.14 51.44-1.32 72.58-10.7zm-62.38 9.57h-17v.03h34v-.03zm0 .03 5.04-16.24a49 49 0 0 0-6.42-1.4c-2-.33-3.4-.54-5.07-.84-1.58-.3-2.67-.56-3.39-.79-.87-.28-.33-.24.7.55l-10.27 13.55-10.27 13.54a32 32 0 0 0 9.47 4.74c2.7.87 5.4 1.44 7.57 1.84 2.1.39 4.41.74 5.73.96 1.8.3 2.12.4 1.88.32zm-19.4-5.18 3.92-16.54c1.12.27 2.34.78 3.6 1.73l-10.28 13.54-10.28 13.54a24.5 24.5 0 0 0 9.1 4.28zm-2.76-1.27-12.02 12.02.03.03 12.02-12.02 12.02-12.02-.03-.03zm.03.03 10.12-13.66c-.33-.24-.39-.39-.4-.45-.06-.1-.14-.4-.1-.87a3.7 3.7 0 0 1 1.73-2.74l-8.82-14.54-8.81-14.53c-20.03 12.14-26.5 43.67-3.84 60.45zm2.53-32.25 16.92-1.67c-.35-3.54 2.57-9.66 8.19-12.79l-8.28-14.85-8.28-14.84c-14.53 8.1-27.44 25.77-25.47 45.81zm16.83-29.3 16.86-2.13c.04.3 0 .51-.1.72-.1.23-.4.73-1.1 1.16l-8.99-14.42-9-14.43c-11.11 6.94-16 19.71-14.54 31.22zm6.67-14.67 8.64 14.64a12 12 0 0 1 3.67-1.4l-3.16-16.71-3.16-16.7a46 46 0 0 0-14.63 5.53zm9.15-3.47 16.95-1.34q-.07-.93-.23-2.13l-16.84 2.38-16.83 2.38v-.05.1zm-.12-1.09v17h.06v-34h-.06zm.06 0 16.97-1.02c-.49-7.98.04-15 2-20.97l-16.15-5.3-16.15-5.3c-3.8 11.54-4.27 23.3-3.64 33.62zm2.82-27.3 16.32 4.77c.9-3.07 1.95-4.32 4.88-10.91 2.3-5.19 5.33-13.23 4-22.91l-16.84 2.31-16.84 2.32c.01.1.17.96-1.4 4.46-.93 2.12-1.53 3.22-2.92 6.19a63 63 0 0 0-3.52 9.01zm8.36-26.74 16.76-2.83a28 28 0 0 0-6.55-14.15 28 28 0 0 0-11.42-7.69c-6.1-2.26-13.84-2.65-15.86-2.88l-1.9 16.9-1.88 16.9 3.29.32c1 .1 1.8.18 2.52.28q1.05.15 1.59.26l.44.1a6 6 0 0 1-2.3-1.71 6 6 0 0 1-1.45-2.66zM197.2 344.3l2.17-16.86c-11.97-1.54-21.1-3.68-28.01-8.34l-9.5 14.1-9.5 14.09c13.97 9.43 30.05 12.24 42.67 13.87zm-35.34-11.1 10-13.75c-10.83-7.88-15.86-11.36-18.09-16.7l-15.68 6.58-15.68 6.57c6.79 16.19 22.08 25.68 29.44 31.04zm-23.77-23.87 15.6-6.77c-4.27-9.83-2-21.03 3.94-26.38l-11.36-12.64-11.37-12.64c-19.1 17.18-21.16 45.01-12.4 65.2zm8.18-45.79 11.63 12.4c1-.93 2.66-1.88 6.91-2.59 2.18-.36 4.53-.59 7.57-.87 2.82-.26 6.38-.58 9.92-1.16l-2.77-16.77-2.78-16.78c-2.12.36-4.42.57-7.49.86-2.85.26-6.42.58-10.02 1.18-7.3 1.21-16.6 3.83-24.6 11.33zm33.26-9 1.46 16.94c13.68-1.18 25.67-9.15 31.4-12.26l-8.13-14.93-8.12-14.94c-10 5.44-13.5 7.86-18.08 8.26zm24.73-10.25 8.04 14.98c11.17-6 22.15-13.97 30.84-19.82l-9.5-14.1-9.49-14.1c-10.2 6.86-18.74 13.13-27.92 18.06zm29.39-18.94 10.42 13.43.67-.52-10.2-13.6-10.2-13.6-1.12.86zm.9-.69 15.39 7.21-.37.71-14.89-8.2-14.89-8.2q-.4.75-.64 1.27zm.13-.28 16 5.75c.6-1.66 1.11-3.27 1.55-4.71l-16.26-4.96-16.26-4.96c-.37 1.2-.7 2.21-1.02 3.13zm1.29-3.92-12.22-11.82c-.38.39-.85.8-2.36 2.07a49 49 0 0 0-5.26 5.02l12.76 11.23 12.76 11.23.1-.1.32-.31c.31-.29.7-.62 1.3-1.12.96-.82 2.99-2.5 4.82-4.38zm-7.08 6.5-11.63-12.4c-.25.23.45-.48 1.7-1.2 1.4-.82 4.18-2.05 7.9-1.81l-1.08 16.97-1.09 16.96c9.43.6 15.47-5.78 15.83-6.12zm-3.11 1.56v17h.02v-34h-.02zm.02 0 1.45-16.94a11.4 11.4 0 0 1 5.3 1.86c1.06.71 1.51 1.33 1.3 1.07l-.49-.62-1.04-1.38c-.43-.55-1-1.28-1.67-2.04a29 29 0 0 0-2.58-2.6l-11.26 12.73-11.26 12.74c-.52-.46-.66-.72-.16-.07.14.18 1.42 1.9 2.35 3.02 2.14 2.57 7.47 8.38 16.62 9.16zm-8.99-7.92 10.88-13.06c.17.14 1.9 1.67 2.6 4.85.72 3.2-.14 5.67-.59 6.6-.35.75-.54.8.2-.02.71-.8 1.52-1.57 2.97-2.99l-11.9-12.15-11.88-12.15c-1.44 1.4-7.16 6.52-10.12 12.79a23.6 23.6 0 0 0-1.86 15.33c1.38 6.14 5.01 10.7 8.82 13.86zm4.17-16.77 13.67 10.1a9 9 0 0 1-2.89 2.48c-1.49.84-4 1.78-7.25 1.49l1.49-16.93 1.48-16.94c-9.7-.85-16.7 4.99-20.18 9.7zm5.02-2.86 6.72 15.6a13.4 13.4 0 0 1-10.63-.03 12.8 12.8 0 0 1-6.95-7.08l15.92-5.97 15.91-5.97a21.2 21.2 0 0 0-11.4-12.2 20.6 20.6 0 0 0-16.3.03zm5.06 2.52-13.78 9.96a36 36 0 0 0 3.72 4.3l1.26 1.22.76.76c.4.4.23.3-.07-.17a10 10 0 0 1-1.31-3.24l16.63-3.51 16.63-3.52c-1.46-6.92-5.7-11.41-7.53-13.29l-1.41-1.4-.93-.91c-.51-.52-.43-.49-.2-.15zm7.2 9.32 16.26 5c1-3.28 2.07-6.7 3.1-10.06l-16.26-4.97-16.26-4.97-3.08 10zm3.1-10.03 16.25 4.97c2.67-8.71 5.24-17.25 7.9-25.85l-16.24-5.02-16.25-5.02c-2.67 8.65-5.31 17.41-7.92 25.95zm7.9-25.9 16.26 4.97c4.59-14.99 9.2-30.09 13.67-45.28l-16.31-4.79-16.31-4.79c-4.4 14.98-8.97 29.9-13.56 44.92zm13.62-45.1 16.3 4.83a12.4 12.4 0 0 1-4.7 6.6l-9.9-13.81-9.92-13.81a21.6 21.6 0 0 0-8.08 11.36zm1.7-2.38 16.46 4.22c.05-.18.15-.51.4-1.26l.43-1.22.55-1.7-16.28-4.89-16.29-4.89c-.07.25-.15.46-.55 1.63-.31.9-.79 2.3-1.2 3.88zM388.44 433v-17h-.03v34h.03zm-.03 0 .54 16.99.24-.01.16-.01h.14-.29l-.23.02-.54-17-.54-16.99-.5.03h-.03.12l.16-.02h.23zm.02 0-1.45 16.93-.24-.02-.2-.02-.16-.02-.14-.02-.1-.01-.07-.01h-.05.05l.07.01.1.01.14.02.17.02.2.02.24.02zl1.44-16.94.24.02.2.02.17.02.13.02.1.01.08.01h.05-.06l-.07-.01-.1-.01-.13-.02-.17-.02-.2-.02-.25-.02zm64.59-198.81 3.38 16.66a13.8 13.8 0 0 1-10.17-1.9 12 12 0 0 1-4.38-4.86l15.26-7.5 15.25-7.5c-2.59-5.27-10.3-14.08-22.72-11.56zm4.09 2.4-12.3 11.74c.65.68 1.31 1.32 1.8 1.8l1.37 1.34q.6.58.9.94l.31.35-.11-.16-.28-.5a10 10 0 0 1-.8-2.4 12 12 0 0 1 1.5-8.5l14.5 8.88 14.49 8.88c7.1-11.6 1.08-22.25-1.86-26.27a46 46 0 0 0-4.65-5.31c-1.75-1.74-1.87-1.78-2.58-2.53zm6.88 13.5-16.94-1.41c.12-1.46.55-3.25 1.6-5.07l14.73 8.5 14.73 8.49a22 22 0 0 0 2.82-9.11zm-.61 2.01-13.57-10.24c.27-.36.3-.26-.95.77l-.94.77-1.18.97a48 48 0 0 0-3.02 2.72l11.96 12.08 11.95 12.09c.51-.5.91-.79 2.88-2.42a39 39 0 0 0 6.44-6.5zm-7.7 7.07-11.93-12.11c-.58.58.2-.38 2.05-1.2a13.4 13.4 0 0 1 12.02.88l-8.81 14.54-8.82 14.54a20.7 20.7 0 0 0 19.23 1.2c4.13-1.8 7-4.57 8.19-5.74zm-6.67 2.11v17h.02v-34h-.02zm.02 0 9.1-14.36c.45.28.49.42-.28-.35l-.6-.61-.8-.82c-.58-.6-1.37-1.38-2.28-2.2l-11.36 12.64-11.37 12.65c.6.53.65.66 2.33 2.34a36 36 0 0 0 6.17 5.07zm-6.22-5.7 12.56-11.45-1.1-1.17-.73-.75c-.41-.42-.4-.44-.28-.28.15.2.64.84 1.1 1.91.49 1.15.88 2.62.9 4.3l-16.99.3-17 .3a23.5 23.5 0 0 0 5.16 14.08 38 38 0 0 0 2.64 3c.83.86.91.93 1.17 1.22zm-4.54-7.14 16.94 1.45a9.6 9.6 0 0 1-1.46 4.34c-.5.78-.87 1.04-.41.62l.93-.8c.38-.31 1.04-.86 1.64-1.38a35 35 0 0 0 4.96-5.08l-13.42-10.44-13.42-10.44c.33-.41.45-.44-.28.18-.15.13-2.2 1.83-3.25 2.77-2.7 2.45-8.37 8.08-9.17 17.32zm9.18-11.3 13.66 10.13a9 9 0 0 1-3.06 2.56 12.4 12.4 0 0 1-7.34 1.29l2.07-16.88 2.06-16.87c-9.85-1.2-17.28 4.57-21.05 9.66zm5.33-2.9 4.19 16.48c-.34.09-.6.14-.68.15l-3.27-16.68-3.27-16.68q-.39.06-1.17.26zm-3.3-54.35v17c-5.82 0-9.64-3.44-11.36-6.34l14.63-8.65 14.64-8.65c-3.1-5.23-9.34-10.36-17.9-10.36zm3.27 2-10.54 13.34 1.37 1.07 1.19.93c.74.58 1.29 1.03 1.74 1.43.95.84.97 1.03.76.68l14.66-8.6 14.66-8.61c-4.2-7.15-11.55-12.19-13.3-13.57zm9.18 8.84-15.3 7.4a12.3 12.3 0 0 1-.31-10.3c.94-2.12 3.4-5.7 8.51-7.02l4.29 16.45 4.29 16.45c7.54-1.97 12-7.57 14.04-12.2 2.08-4.73 3-11.52-.21-18.18zm-2.81 6.53-15.57-6.84c.42-.96.87-1.56 1.04-1.78.15-.19.17-.19-.17.16l-.63.62-.97.97c-.72.72-1.77 1.82-2.83 3.19l13.46 10.39 13.45 10.4c-.18.22-.23.25.1-.09l.62-.61.97-.96a29 29 0 0 0 6.1-8.62zm-5.67 6.71-13.1-10.83c-.38.45.42-.75 2.54-1.8a13.7 13.7 0 0 1 14.15 1.48l-10.37 13.47-10.38 13.47a20.3 20.3 0 0 0 21.6 2.1c4.47-2.2 7.4-5.53 8.66-7.06zm-6.78 2.32 12.02 12.02.03-.02-12.03-12.03-12.01-12.02-.03.03zm.02-.03 11.06-12.91c-1.74-1.49-1.24-1.2-3.97-3.62-1.8-1.6-4.4-3.76-7.78-5.58l-8.06 14.97-8.07 14.96.29.2q.31.23 1.03.86c.52.46 1.02.93 1.8 1.66.72.66 1.64 1.51 2.65 2.38zm-8.75-7.14 9.54-14.07a12 12 0 0 1 4.82 7.64c.71 3.6-.33 6.17-.64 6.84-.33.72-.53.86-.12.36.36-.44.85-.96 1.58-1.7l-12.07-11.97L429 174.26c-1.36 1.37-5.74 5.66-8.26 11.18a22.7 22.7 0 0 0-1.78 13.82c1.25 6.37 5.14 11 9.46 13.94zm3.11-12.9 12.48 11.54c.7-.75 1.27-1.44 1.7-1.98.38-.47.83-1.06 1-1.28.56-.7.47-.54.15-.23l-11.66-12.37-11.66-12.38a35 35 0 0 0-3.59 4.02l-.75.95q-.23.28-.15.2zm3.67-4.32 10.51 13.35a13.7 13.7 0 0 1-8.27 2.88l-.18-17-.19-17a20.4 20.4 0 0 0-12.39 4.4zm2.06-.77 12.26 11.78a13.2 13.2 0 0 1-9.2 3.98l-.36-17-.37-17a20.8 20.8 0 0 0-14.6 6.47zM194.1 168.36l9.42 14.15a13.4 13.4 0 0 1-16.21-1.13l11.22-12.77 11.22-12.77a20.6 20.6 0 0 0-25.07-1.63zm4.43.25-13.05 10.9a19 19 0 0 0 1.52 1.62c.26.24 1.1 1.03 2.31 1.84l9.43-14.15 9.43-14.14a17 17 0 0 1 3.4 3.03zm.21.21-12.02 12.02.08.08 12.02-12.02 12.02-12.02-.08-.08zm.08.08-12.06 11.98a17 17 0 0 1-3.89-6.16 17 17 0 0 1-1-5.65l17-.1 17-.08c-.02-4.57-1.91-7.78-2.2-8.28a17 17 0 0 0-2.79-3.69zm.05.08-12.19 11.85a405 405 0 0 0 14.7 14.57l11.55-12.47 11.55-12.47a373 373 0 0 1-13.42-13.33zm14.06 13.95-10.83 13.1a11.8 11.8 0 0 1-3.6-13.37l15.88 6.06 15.89 6.06a22.2 22.2 0 0 0-6.51-24.95zm1.45 5.79-16.83-2.36c.15-1.11.49-2.4 1.12-3.74l15.37 7.28 15.37 7.27a21 21 0 0 0 1.81-6.1zm-.34 1.18-14.4-9.05a19 19 0 0 1-2.45 2.78c-1.2 1.2-3.92 3.8-6.08 6.34L204.04 201l12.94 11.03c1.05-1.23 2-2.1 4.34-4.45a51 51 0 0 0 7.11-8.63zm-10 11.1-11.43-12.58c-1.41 1.28-2.56 2.65-2.96 3.11-.66.76-.62.7-.5.59.17-.17 1.16-1.12 2.91-1.94a13.3 13.3 0 0 1 7.38-1.12l-2.28 16.85-2.28 16.84c9.33 1.27 15.57-3.91 17.98-6.26 1.2-1.17 2.25-2.42 2.59-2.81.6-.7.42-.46.03-.1zm-6.88 4.9-12.02-12.02-.03.03 12.02 12.02 12.02 12.02.03-.02zm-.03.03 3.1-16.72a13.6 13.6 0 0 1 5.71 2.53c.55.43.93.8 1.14 1.02s.32.35.3.31l-.34-.41c-.18-.23-.52-.67-.91-1.13a22 22 0 0 0-4.47-4.18l-9.8 13.89-9.8 13.88a12 12 0 0 1-2-1.76l.05.06.2.25.83 1.04c1.06 1.28 5.29 6.53 12.9 7.94zm-5.27-4.7 12.44-11.58a41 41 0 0 0-7.1-5.83c-2.21-1.49-3.07-2-4.12-2.8-.96-.72-.48-.55.2.5a10.2 10.2 0 0 1 1.38 6.8l-16.8-2.6-16.8-2.58c-2.16 13.95 7.81 22.2 11.46 24.96 2.05 1.56 4.64 3.22 5.65 3.9 1.6 1.08 1.62 1.22 1.25.83zm-14-15.5 16.63 3.51a13 13 0 0 1-1.59 4.05c-.37.6-.66.92-.6.86l.55-.6.7-.73c.26-.28.66-.71 1.08-1.22l-13.11-10.83-13.1-10.83c.23-.28.38-.42-.11.1a28 28 0 0 0-4.31 5.34 21 21 0 0 0-2.78 6.84zm3.66-4.96 12.67 11.33c4.29-4.8 6.85-7.8 9.86-10.23l-10.64-13.26-10.63-13.26c-5.8 4.65-10.68 10.44-13.94 14.1zm11.9-12.16 6.88 15.54q-.7.31-1.46.54l-4.74-16.33-4.74-16.33q-1.43.42-2.84 1.04zm29.24-23.79 14 9.66c-3.76 5.44-13.47 8.75-20.5 1.61l12.12-11.93 12.11-11.92c-10.35-10.52-25.38-6.25-31.72 2.93zm5.62-.66-12.12 11.92c3.36 3.42 6.9 6.77 10 9.74l11.77-12.27 11.77-12.27c-3.39-3.25-6.39-6.07-9.3-9.04zm9.65 9.4-9.83 13.87a12.6 12.6 0 0 1-5.25-8.2 11.4 11.4 0 0 1 1.17-7.09l15.12 7.77 15.13 7.77a22.7 22.7 0 0 0 2.13-13.9 21.4 21.4 0 0 0-8.64-14.1zm1.21 6.35-15.2-7.6a13 13 0 0 1 8.34-6.76l4.41 16.42 4.42 16.42a21 21 0 0 0 13.24-10.88zm-2.45 2.06-16.45-4.26c.49-1.9 1.32-3.28 1.97-4.14.6-.77 1.06-1.15.97-1.07l-.33.26-.36.28-1.84 1.47c-.51.44-1.14.99-1.8 1.64l11.96 12.09 11.95 12.09c-.24.24-.33.28.2-.13.28-.23 1.4-1.07 2.33-1.88 1.88-1.6 6.16-5.51 7.86-12.09zm-5.88 6.27-10.85-13.1c-1.32 1.1-2.43 2.28-2.76 2.62-.59.61-.48.48-.25.28.29-.24 1.36-1.14 3.14-1.86 2-.8 4.47-1.22 7.08-.81l-2.59 16.8-2.58 16.8c8.57 1.32 14.57-2.96 17.11-5.14a35 35 0 0 0 2.57-2.48c.58-.6.37-.35-.03-.02zm-6.23 3.93 7.31-15.35c.3.14.24.15-.2-.18q-.64-.44-1.7-1.4c-1.62-1.45-2.89-2.76-4.9-4.71l-11.82 12.22-11.82 12.22c1.15 1.12 3.6 3.59 5.88 5.62 2.24 2 5.75 4.93 9.94 6.93zm-11.31-9.42 12.86-11.12a10 10 0 0 1 1.7 3.03c.55 1.57.75 3.26.6 4.9a10 10 0 0 1-.91 3.4c-.32.67-.6 1.02-.6 1.03l.4-.43q.46-.46 1.3-1.19l1.93-1.66c.7-.6 1.6-1.39 2.5-2.24l-11.76-12.28-11.76-12.28c-.76.73-1.2 1.02-3.34 2.9a47 47 0 0 0-6.09 6.28c-2.05 2.64-4.95 7.16-5.53 13.26-.64 6.85 1.86 12.92 5.84 17.52zm8.02-16.56 10.47 13.39a14 14 0 0 1-3.57 2l-6-15.9-6-15.9a20 20 0 0 0-5.38 3.02zm.9-.51 15.65 6.64q-.45 1.06-1.2 2.19l-13.98-9.69-13.97-9.68q-1.33 1.94-2.15 3.9z" mask="url(#crests-talent-path-1-outside-1_23_7047)"/></g><path fill="#f5ae41" d="M227.18 448.97c-13.48-5.09-19.07-21.68-18.15-35.07 1.38-14.35 5.04-28.38 8.07-42.39 1.2-6.9 3.22-13.95 1.09-20.83-4.36-11.45-32.07-8.97-42.97-14.5-10.12-4.18-21.02-9.1-27.37-18.42-7.1-11.5-11.74-27.35-5.41-40.09 6.28-12 20.2-15.4 32.3-18.51 10.8-2.93 20.87-7.97 30.52-13.48 8.9-4.98 17.62-10.23 26.35-15.43 3.3-1.92 6.6-3.87 10.02-5.53q.09-.45.13-.87c4.17-26.56 11.56-51.62 19.86-76.99 3.67-11.18 6.73-23.5 15.33-32.05 10.13-9.91 26.13-5.03 33.5 5.78 12.52 15.38 15.55 35.4 22.83 53.3 4.38 11.45 15.88 6.91 24.64 4.65a86 86 0 0 1 28.9-.7q2.76.16 5.33.62l1.34.55q1.2.52 2.4 1.08a76 76 0 0 1 2.5 1.37c.96.56 1.88 1.11 2.86 1.64.95.53 1.9.97 2.87 1.45.98.47 1.95.9 2.9 1.42q-.08-.02-.15-.08l.81.48.27.2q1.1.87 2.24 1.7l.5.44a51 51 0 0 0 4.54 3.9 46 46 0 0 1 3.19 4.78s.05.06.08.06c14.87 19.38 18.09 50.84 5.35 72.13-7.78 12.87-19.44 23.44-32.33 30.99-4.78 3.43-1.27 10.68-1.27 15.61 1.06 8.89 2.5 17.72 3.8 26.58 1.76 12.06 2.16 24.27 2.24 36.45.63 9.31-3.03 19.73-12.42 23.19-8.36 3.08-18.57 5.7-26.93 1.4-17.36-8.4-14.67-37.98-35.53-41.25a25.1 25.1 0 0 0-21.6 9.65 1.34 1.34 0 0 0-2.53-.37q-1.15 2.46-2.19 5.01l-.18.37-.8 1.03a88 88 0 0 0-5.64 8.62 69 69 0 0 0-4.43 9.1 47 47 0 0 0-2.21 7.47l-.3 1.81q0-.07.03-.18c-.08.42-.13.82-.05 1.24a55 55 0 0 0-1.63 4.11c-.19.56.1 1.22.57 1.5q.33.18.7.2h.1c-1.3 3.16-2.64 6.3-4.12 9.38-5.56 11.21-14.56 21.6-26.8 25.48-5.19 1.45-10.73 3.03-16.19 3.03a23 23 0 0 1-7.07-1.03z"/><path fill="#78bfff" d="M287.16 426.94c6.27-7.57 15.56-7.54 16.11 3.88-2.85 39.61-74.61 63.14-108.53 60.37-12.4.71-32.86-8.1-24.53-23.24 2.64-4.48 9.95-8.99 14.59-5.03 15.88-.48 32 1.1 47.52-3.32 20.81-5.65 41.36-15.65 54.86-32.66zm92.81-1.26a153 153 0 0 1-44.63-8.79c-11.1-4.56-18.11-16.21-6.3-24.65 3.17-1.9 9.57-3.49 11.26 1.15.8 2.09.32 4.67-1.58 6.02 30.33 7.22 81.86 19.78 106.1-5.28-2.82-4.4.5-9.07 5.7-7.62 8.04.66 13 9.87 8.5 16.78-19.37 21.91-51.89 22.07-79 22.41z"/><path fill="#b4dbff" d="M277.8 409.25c8.71.44 17.78 7.86 16.7 17.17-1.05 5.06-4.77 9.04-8.15 12.76-9.28 10.29-20.38 18.62-32.6 25.13-15.9 9.16-34.52 14.9-52.98 13.3a96 96 0 0 1-18.17-2.9c-1.8-.48-3.43-.98-4.4-2.77-4.07-14.75 2.16-35.6 18.61-39.46-1.79-5.67-1.92-11.76 5.25-13 8.81-2.11 18.04-1.3 27-1.8 4.89.85 4.25 6.81 4.76 10.56 1 3.34 4.95 4.43 7.9 5.43 9.21 1.82 21.42.05 19.4-12.08-2.14-9.13 9.65-12.48 16.71-12.32z"/><path fill="#b4dcff" d="M442.9 371.17c3.77 5.59 9.31 20.04 4.75 25.92-13.13 14.82-44.86 17.1-63.82 17.86-9.34-.56-18.5-2.77-27.64-4.6-7.5-2.23-16.51-4-21.95-9.9-.42-.8-.6-1.62-.63-2.4l-.19-.25c-5.67-10.15.32-26.9 13.59-18.8 3.77 2.64 6.7 6.54 11.42 7.44 7.67 1.69 19.17 1.55 22.89-6.65-4.46-3.82-10.58-10.87-3.43-15.32 9.63-6.83 21.02-11.98 32.78-13.16 3.25.26 5.7 6.64 6.25 10.86 9.55-2.3 20.26.48 25.96 9z"/><path fill="#fff" d="M304.32 264.17a29 29 0 0 1 2.06 13c-.58 8.68-5.17 16.67-11.63 22.32a35.7 35.7 0 0 1-23.21 8.83q-1.23.01-2.45-.1c-6.65-.5-13.14-3.17-17.88-7.92a27.5 27.5 0 0 1-7.7-15.87c-.3-2.24.84-4.93 3.3-5.38 1.84-.35 3.5.9 4.24 2.53 9.12-3.75 17.8-8.1 26.69-12.32 5.32-2.66 10.63-5.4 15.93-8.1a5 5 0 0 1 .92-3.24 3.7 3.7 0 0 1 6.04-.1l.24.31c.47.72 1 1.38 1.45 2.09q1.2 1.87 2.03 3.9z"/><path fill="#fff" d="M350.76 243.44a29 29 0 0 1 2.06 13c-.58 8.68-5.17 16.67-11.63 22.32a35.7 35.7 0 0 1-23.21 8.83q-1.23 0-2.45-.1c-6.65-.5-13.14-3.17-17.88-7.92a27.5 27.5 0 0 1-7.7-15.87c-.3-2.25.84-4.94 3.3-5.38 1.84-.35 3.5.9 4.24 2.53 9.12-3.75 17.8-8.1 26.69-12.32 5.33-2.66 10.63-5.4 15.93-8.1a5 5 0 0 1 .92-3.24 3.7 3.7 0 0 1 6.04-.1l.24.31c.47.71 1 1.37 1.45 2.09q1.2 1.86 2.03 3.9z"/><path fill="#000" d="M271.77 286.77s.06 0 .08-.03c-.05 0-.08.05-.1.05z"/><path fill="#000" d="m277.52 296.61-.21-.4-.56-2q-.33-1.15-.58-2.35l-.66-3.14c-.15-.7-.29-1.53-.7-2.16q-.38-.57-1.01-.63c-.8-.1-1.37.42-1.98.84h-.05c-.77.4-1.45.93-2.14 1.43-.5.37-.97.84-1.45 1.26q-.78.75-1.6 1.48s-.06.05-.09.05q-1.13 1-2.26 1.93-.68.5-1.32 1.03a21 21 0 0 1-3.04-2.96 20.5 20.5 0 0 1-2.66-21.47 5 5 0 0 1 .9-2.08s0-.05.02-.05 0 0 0-.06a24 24 0 0 1 4.22-4.85 19 19 0 0 1 4.54-2.85q.8-.4 1.63-.7c1.8-.72 3.78-1.01 5.7-1.09.55 0 1.13 0 1.69.08a19.3 19.3 0 0 1 11.58 4.98 20.8 20.8 0 0 1 6.46 12.77c.6 4.59-.6 9.44-3.03 13.34a20 20 0 0 1-9.6 7.92q-1.62.63-3.3.92-.26-.64-.56-1.24zm5.25-19.5-.06.04h-.02q-.15.08-.32.13c-.45.24-.9.53-1.19.95-.15.23-.29.42-.42.66q-.14.28-.24.6a3 3 0 0 0 0 1.37c.11.3.16.53.32.77.19.29.32.45.58.71q.28.25.58.42.24.24.48.43c.34.26.79.44 1.2.55q.45.09.96.1.32.02.6-.07a4 4 0 0 0 .98-.4l.05-.03.37-.23q.28-.21.5-.48.3-.32.5-.71c.24-.42.48-.9.53-1.4 0-.26.08-.55.06-.82-.03-.23-.06-.55-.16-.79-.1-.2-.19-.5-.34-.68-.14-.16-.24-.32-.4-.48-.34-.34-.8-.58-1.24-.76a4 4 0 0 0-1.66-.3h-.29q-.77.01-1.43.46zm45.16-2.39c-.16-.69-.34-1.4-.63-2.03-.48-1.08-1.03-2.08-1.56-3.11q-.75-1.41-1.45-2.85l-1.06-2.09c-.23-.44-.5-.84-.97-1.02-.77-.32-1.5.15-1.95.79l-.56.79-.52.84v.06c-.43.6-.9 1.15-1.37 1.73-.53.67-1.11 1.27-1.67 1.93l-1.58 1.8c-.32.36-.66.7-.95 1.1a22 22 0 0 1-4.93-4.3 20.5 20.5 0 0 1-2.66-21.47 5 5 0 0 1 .9-2.08s0-.05.02-.05v-.05a24 24 0 0 1 4.22-4.86 19 19 0 0 1 4.54-2.85q.8-.4 1.63-.7c1.8-.72 3.77-1.01 5.7-1.09q.84-.02 1.69.08a19.3 19.3 0 0 1 11.57 4.99 20.8 20.8 0 0 1 6.46 12.76c.61 4.59-.6 9.44-3.03 13.35a20 20 0 0 1-11.79 8.6q0-.12-.05-.22zm3.96-21.79c-.43.11-.77.37-1.11.61a3.7 3.7 0 0 0-1.27 3.9c.19.48.42.87.77 1.27.37.42.87.74 1.4.98.34.18.76.31 1.18.37h.56c.58 0 1.18-.11 1.66-.45q.88-.66 1.21-1.67.16-.3.24-.65l.24-.69c.18-.84-.08-1.8-.58-2.45a3.8 3.8 0 0 0-2.59-1.4h-.4q-.66.01-1.29.18z"/><path fill="#965b00" d="M242.47 279.87c-2.66-.06-4-3-3.19-5.33q.16-.48.45-.92l.03-.06q.34-.52.9-.9c1.15-.94 2.63-1.52 3.92-2.2 1.85-.98 3.64-2.06 5.44-3.07 3.72-2.03 7.51-3.93 11.28-5.8l.24-.13c.53-.26 1.08-.56 1.14-.56l3.08-1.55 1.53-.77c.3-.13.58-.29.6-.29.9-.44 1.78-.9 2.17-1.08l.6-.31c.35-.16.67-.35.88-.45.18-.1.4-.19.47-.24.48-.24.98-.47 1.22-.6l47.02-23.69 11.68-5.9 5.83-3.02c1.06-.55 2.11-1.1 3.14-1.74.58-.6 1.35-1 2.27-1.05.6-.08 1.26 0 1.9.34 2.21 1.08 2.93 3.93 2.19 6.15-.45 1.34-1.72 2.71-3.22 2.9-1.43.55-2.8 1.27-4.17 1.92a791 791 0 0 0-7.83 3.88c-15.64 7.86-31.25 15.85-46.92 23.74l-21.65 11.02c-3.59 1.82-7.15 3.64-10.79 5.33l-5.2 2.35-2.58 1.24c-.74.34-1.56.79-2.4.79h-.05zm2.4 10.49c-3.49-.2-4.51-4.67-2.7-7.17a6 6 0 0 1 2.35-1.71l2.77-1.4q3.01-1.5 5.99-3.06 6-3.03 12.05-6.01c8.18-4.07 16.35-8.18 24.5-12.24 16.51-8.23 33.05-16.4 49.43-24.82 2.69-1.37 5.48-2.69 8.1-4.25q.54-.47 1.2-.7c2.06-.72 4.04.68 4.75 2.58.77 2 .27 4.58-1.5 5.9q-.64.46-1.32.61l-.08.03c-3.4 1.5-6.72 3.19-10.05 4.82q-5.94 2.93-11.86 5.88l-24.93 12.5-24.63 12.43c-8.12 4.09-16.22 8.25-24.4 12.24q-2.45 1.19-4.9 2.42l-2.06 1.03c-.79.4-1.63.87-2.56.87h-.15z"/><path fill="#965b00" d="M240.68 290.65c-9.5-1.55-8.23-15.58.13-17.98 4.75-2.8 7.44 5.43 3.43 7.75 3.75.06 5.1 5.1 2.98 7.76a7.4 7.4 0 0 1-6.56 2.47zm108.73-56.15c-1.6-.79-2.11-2.71-1.98-4.35q.09-.89.4-1.64c-1.24.38-2.32 1.2-3.51 1.67-2.58 1.1-5.22-1.32-5.38-3.88-.21-2.35 1-5.12 3.64-5.38 2.9-1.71 6.4-2.58 9.52-.87 4.27 1.8 5.51 6.94 3.88 11-.87 2.58-3.8 5.14-6.54 3.45z"/><path fill="#965b00" d="M241.15 281.74c-1.5-7.25 8.8-7.23 13.21-10.1A1886 1886 0 0 0 306.13 246q10.89-5.78 21.66-11.84c6.64-3.74 13.13-7.73 19.88-11.31 2-1.06 4.2.16 4.96 2.13.8 2 .21 4.78-1.82 5.83-3.95 2.11-7.73 4.6-11.58 6.86a737 737 0 0 1-38.6 21c-12.98 6.48-26.04 12.84-39.04 19.27-5.06 2.56-10.29 4.7-15.53 6.88-2.17.95-4.44-1.05-4.96-3.1z"/><path fill="#f5ae41" d="M283.36 323.8c3.7 11.42-12.37 14.85-20.78 14.27-15.35-.5-24.69-15.85-23.45-30.15.24-1.26-.42-2.32-1-3.4-.76-1.92-.37-4.67 1.45-5.9 5.06-2.22 10.9-2.27 16.35-2.01 17.1 1.8 24.1 11.16 27.4 27.2zm86.48-66.46c3.4 15.72-7.15 35.63-24.32 36.61a3.6 3.6 0 0 1-2.6-1.13c-2.46-.64-3.25-3.49-4.1-5.6-7.06-14.37 1.4-31.64 14.83-38.87 3.56-1.56 8.75-5.22 10.86-.53 3.22 1.43 4.49 6.38 5.33 9.52"/><path fill="#d95032" d="M324.6 305.7c-1.64-1.4-2.64-3.29-3.38-5.27-18.04 5.6-19.73-20.89-1.16-16.75 2.88-6.2 10.08-13.13 17.2-9.04 4.53 3.53 3.37 11.23-.53 14.8 7.3 10.15.55 25.81-12.13 16.27"/><path fill="#fff" d="M427.84 236.76c-2.61-1.9-4.77-4.51-7.8-5.86-4.52-.95-6.7-4.74-4.02-8.8 2.27-3.04 4.8-5.78 7.12-8.63a4 4 0 0 1 3.83-1.93c1.98.14 2.5 2.2 3.8 3.28 3.16 3.1 8.86 5.7 8.46 10.84-.58 3.3-3.64 5.38-5.33 8.1-1.2 2.18-3.42 4.4-6.06 2.97zm.31-11.16q.44.32.82.69.36-.49.77-.98c-1.08-.9-2.2-1.74-3.27-2.66l-.58.68.29-.34-.6.71q1.34.89 2.6 1.9z"/><path fill="#fff" d="M427.08 233.68a4.6 4.6 0 0 1-1.74-3c-3.72-1.77-3.43-8.1-.11-10.13-3.67-2.06-3.06-8.76 1.53-9.1 1.27-.08 2.24.69 3.09 1.45 4.58 2.77 12.81 8.26 7.27 14.03-3.21 2.27-5.27 9.79-10.07 6.75zm17.29-37.98c-1.64-2.9-.4-7.41 3.24-7.94 2.53-.58 5.4.45 6.04 3.27 2.03 6.2-5.9 11.2-9.28 4.67m7.42 57.7c-6.07-1.16-5.12-11.07 1.1-10.94 6.78-.08 5.36 11.84-1.1 10.95m-255.3-54.81c-2.35-.66-3.09-2.69-4.83-4-2.6-2.36-7.25-4.12-5.83-8.5 1.32-3.56 4.51-5.94 7-8.68 1-1.03 2.2-2.08 3.8-1.69 2.68.95 4.32 3.46 6.43 5.25 2.82 2.67 5.93 7.2 2.32 10.55a59 59 0 0 0-4.4 4.48c-.98 1.48-2.54 3.04-4.47 2.59zm27.99-34.73c-7.05-1.37-5.49-12.95 1.9-11.98 3.45.48 5.3 4.72 3.48 7.62-.56 2.48-2.54 5.1-5.38 4.36m-.83 54.64c-5.38-2.74-2.45-12.84 3.8-10.89 6.49 2.24 2.98 14.43-3.8 10.9"/><path fill="#965b00" d="M336.93 278.2s.05.09.05.14q-.01-.06-.05-.13m9.12 6.76a59 59 0 0 1-3.69-.29c-1.03-.1-2.1-.23-3.09-.63v-.13a9 9 0 0 0-.4-4.51 5 5 0 0 0-.75-1.4q-.27-.37-.67-.66l-.52-.34a3 3 0 0 1 .4-.6c.65-.9 1.5-1.4 2.53-1.64.9-.21 1.76.02 2.5.52q.94.16 1.93.27 2.24.17 4.48.1 2.05-.26 4.06-.74c.9-.29 1.74-.6 2.61-.92q1.86-.9 3.64-1.98 2.2-1.49 4.25-3.21 1.24-1.15 2.4-2.4 1.06-1.34 2-2.75.35-.59.66-1.21 1.18-2.8 2.11-5.7c.42-1.31.95-2.42 2.24-3.16a3.5 3.5 0 0 1 3.85.31 5.26 5.26 0 0 1 1.13 6.54h.03q.16-.32.27-.6a6 6 0 0 0-.32.95c-.55 1.63-1.19 3.22-1.82 4.8-1.87 4.67-5.3 8.68-9.2 11.79a48 48 0 0 1-6.49 4.35 29 29 0 0 1-7.2 2.64q-2.75.64-5.57.63-.66 0-1.37-.03m21.38 25.7c-2.77-.13-5.49-.74-8.18-1.27-4.69-.95-9.28-2.3-13.84-3.7-2.9-.89-6.3-2.42-6.73-5.8-.31-2.45 1.03-4.8 3.46-5.4 1.34-.34 2.6.37 3.43 1.4q.33.2.68.34c2.93 1.13 5.96 1.93 9 2.77a82 82 0 0 0 12.07 2.35c1.45.08 2.88.05 3.75 0a39 39 0 0 0 4.9-.87c4.78-1.4 9.37-3.12 13.4-4.9a76 76 0 0 0 7.52-4.2c1.13-.74 2.19-1.64 3.35-2.35 2.08-1.24 4.48.24 5.3 2.27.55 1.37.47 3-.16 4.32l-2 1.24c-1.35.87-2.72 1.7-4.06 2.59-1.98 1.29-3.96 2.56-5.88 3.9l-1.54.95q-2.14.93-4.32 1.8c-2.22.86-4.46 1.79-6.75 2.47q-2.12.66-4.25 1.19a32 32 0 0 1-7.6.92l-1.58-.02z"/><path fill="#965b00" d="M340.2 266.86c5.3 0 5.3 9.5 0 9.5s-5.3-9.5 0-9.5"/><path fill="#000" d="M291.61 276.06q.15-.47.26-.95.28-.89.5-1.79l-.39 1.95-.21 1.03q-.07-.12-.19-.24zm58.23-17.4s-.05.05-.05.08c0 0 .05-.05.05-.08"/><path fill="#613b01" d="M320.19 281.9h1.06c-.43.65-.8 1.36-1.14 2.05-1.08-.34-2.27-.5-3.32-.53a11.4 11.4 0 0 0-6.36 1.64 6.7 6.7 0 0 0-2.9 3.53l-.18-.08q-.76 2.14-1.8 4.2a37.4 37.4 0 0 1-11.34 13.31 34.6 34.6 0 0 1-14.71 6.18l-1.93-2.62q-.4-.76-.84-1.45l-1.56-2.5q-.72-1.14-1.56-2.17 2.1-.03 4.2-.34a29 29 0 0 0 12.74-5.4 30 30 0 0 0 5.53-5.54q1.16-1.62 2.17-3.35a41 41 0 0 0 1.5-3.27q.56-1.46.95-2.96.43-1.76.66-3.53.19-1.76.18-3.5-.03-1.61-.23-3.23a31 31 0 0 0-.58-3.05 39 39 0 0 0-1.14-3.49q-.43-.98-.9-1.92l.61-.34 3.43-1.83q1.08-.55 2.16-1.15l.06-.03c.31-.16.66-.3.97-.45q.67 1.42 1.19 2.88a38.5 38.5 0 0 1 2.21 16.66l1.32.56q2.23.79 4.56 1.26 2.5.45 5.04.53zm36.12-33.74q-1.16.59-2.32 1.13c-.82.4-1.58.87-2.37 1.3l-.98.55c-.37.24-.74.42-1.08.66q-.36.19-.71.42l-.13-1.48a29 29 0 0 0-1.75-6.51 31 31 0 0 0-1.92-3.85q.2-.1.34-.19l2.96-1.74q1.18-.71 2.32-1.47l1.32-.85s.05-.03.05-.05l.42.71a39 39 0 0 1 3.85 11.34zm-101.14 48.82q-1.5.12-2.98.34h-.1q-1.56.14-3.1.53a32 32 0 0 0-2.7.8h-.09l-.95.28q-.64-.8-1.21-1.63a31 31 0 0 1-2.87-4.67 5 5 0 0 1-.56-2.3 10 10 0 0 0 1.74-.29c1.5-.42 3-.92 4.43-1.6l.85-.43.34-.15.18.34q.32.63.66 1.24.82 1.42 1.8 2.77 1.12 1.43 2.34 2.74c.8.76 1.59 1.48 2.25 2.03z"/><path fill="#613b01" d="M239.42 291.15c-.81-2.14-.18-5.1 2-6.22l.25-.11c15.35-7.2 30.54-14.74 45.76-22.2 16.19-7.97 32.4-15.83 48.58-23.87q3.67-1.82 7.3-3.67c1.58-.8 3.25-1.56 4.8-2.45q.52-.44 1.16-.66c2.06-.72 4.01.66 4.75 2.56.79 2 .29 4.58-1.5 5.9a4 4 0 0 1-1.4.64h-.08c-3.38 1.53-6.67 3.19-10 4.8l-11.63 5.64c-8.2 4-16.38 8.07-24.58 12.1-15.9 7.81-31.8 15.6-47.66 23.5q-6.26 3.14-12.5 6.36-.8.4-1.63.4c-1.58 0-3.03-1.14-3.67-2.75zm-6.56-15.85c-.79-2.1-.18-5.17 2-6.22 7.66-3.67 15.33-7.23 22.95-10.9q12.35-5.98 24.69-12.05a6874 6874 0 0 0 48.45-23.84l4.64-2.32c1.08-.55 2.19-1.05 3.24-1.66q.44-.44.98-.74c.6-.31 1.56-.6 2.24-.4 1.06.16 1.9.77 2.48 1.61q.2.26.34.5l-.02.03q.44.87.6 1.82a5 5 0 0 1-1 3.8 3.8 3.8 0 0 1-2.66 1.56h-.08c-3.64 1.66-7.23 3.45-10.84 5.16q-6.11 2.95-12.19 5.94-12.25 5.97-24.47 12.03c-16.33 8.07-32.68 16.08-48.9 24.34l-6.99 3.56q-.06.02-.13.08h-.03a3.3 3.3 0 0 1-1.6.4 4.1 4.1 0 0 1-3.67-2.75z"/><path fill="#613b01" d="M352.14 239.27c-2.11-1.16-2.74-3.96-1.9-6.1.56-1.6 2.16-2.29 3.22-3.47 1.77-4.67-5.12-6.7-8.41-4.54l.37-.16c-1.43.4-2.46 1.69-4.04 1.6a4.1 4.1 0 0 1-3.4-2.13c-1.72-3.16.08-6.78 3.48-7.62 3.96-2.16 9.2-2.58 13.27-.45 6.56 3.51 9.2 12.95 4.95 19.18-1.66 2.18-4.59 5.22-7.54 3.71zm-114.6 54.65c-7.91-2.64-12.47-12.66-7.46-19.83 1.6-2.35 3.72-5.28 6.78-5.52 4.8 0 5.3 7.94 1.02 9.29-3.95 2.87-.63 6.99 3.2 7.38 1.02-.13 1.95-.53 3-.1 2.96 1.08 3.51 5.09 1.85 7.46-1.95 2.45-5.75 2.32-8.42 1.3z"/><path fill="#973019" d="M315 304.73c-5.28-1.19-10.9-5.49-11.85-11.05-1.05-8.28 7.25-15.35 15.24-14.4 1.16.1 2.35.16 3.49.5 3.95 1.27 3.93 7.62.13 9.07-2.03.69-3.9-.7-6.02-.26a6.4 6.4 0 0 0-4.93 3.48c1.5 1.74 3.62 3.5 6.04 3.45 2.16-1.08 4.7-1.05 5.94 1.35 2.8 5.38-3.25 8.92-8.05 7.86"/><path fill="#973019" d="M322.44 310.38c-3.4-2.88-7.84-8.97-4.1-13.09a3.62 3.62 0 0 1 5.63.48c.87 1.24.92 3 2.08 4.11 1.03 1.37 3.38 2.24 4.9 2.27a5.8 5.8 0 0 0 4.07-1.74l-.13.16.15-.19c3.09-3.08.85-6.67-1.08-9.65a5.16 5.16 0 0 1 2.09-6.4c4.95-7.92-3.14-11.98-8.92-5.84a2.8 2.8 0 0 0-.63 1.9c-.05 2.24-1.5 4.7-3.98 4.7-4.22-.21-4.51-5.33-3.48-8.47 1.13-4.14 4.53-7.07 8.22-9 14.48-6.53 22.95 10.19 15.56 21.8 7.36 12.78-7.78 28.9-20.33 18.98z"/><path fill="#965b00" d="M236.78 432.55c-4.8-3.51-5.38-9.53-5.88-14.96-5.83-1.48-12 .5-17.94.5-1.84 1-3.95.08-5-1.71-1.3-2.11-.96-5.17 1.02-6.73 1.1-.84 2.45-.87 3.77-.9 5.96-.15 11.92-1.55 17.88-.81 9.79 1.71 7.1 9.02 9.47 15.64 3.7 4.53 11.08 3.3 15.75 1 2.58-2.5 1.42-6.4 1-9.55-.74-4.88 4.35-7.3 8.04-9.07 2.25-.84 4.49-2.3 6.94-2.16 4.62.92 4.46 7.96.13 9.23-2.37.79-4.7 1.74-6.83 3.03.84 5.57 0 12-4.43 15.9-6.67 4.86-17.17 5.6-23.95.56zm124.37-43.84c-7.4-1.45-12.97-8.1-20.94-7.44-6.14.24-6.67-8.04-.9-9.23 4.7-.34 9.63.85 13.85 2.88 5.46 4.2 12.82 6.72 19.25 3.1-3.16-5.85-6.51-13.6.58-18.06 4.62-3.19 9.58-5.82 14.56-8.38 1.98-1 4.64-2.46 6.89-1.72 2.92.95 3.66 5.33 1.84 7.57a4 4 0 0 1-3.16 1.66c-5.78 2.3-11.18 5.54-16.25 8.97 1.16 4.56 6.15 8.39 4.46 13.34-3.88 6.47-13.1 8.55-20.18 7.28zM275.9 320.3c-.82-1.65-1.19-3.44-1.71-5.18q-.17-.5-.37-.98-.61-1.18-1.3-2.32a18 18 0 0 0-2.9-3.5q-1.32-1.12-2.74-2.09l-.9-.5q-1.7-.65-3.48-1.16a37 37 0 0 0-3.37-.55c-2.64-.16-5.3-.08-7.94.13q-1.82.19-3.56.6-1.82.57-3.56 1.27-.97.55-2.22.37c-2.4-.42-3.64-3.08-3.35-5.35.24-1.8 1.61-3.67 3.38-3.99.53-.18 1.03-.4 1.55-.57q1.68-.59 3.38-1c2.22-.56 4.59-.64 6.88-.75 2.22-.08 4.43-.08 6.65.14 2.27.2 4.48.76 6.65 1.53 4.8 1.68 8.94 5.32 11.68 9.6a26 26 0 0 1 2.85 5.64q.5 1.59.97 3.17l.24.63c.92 2.08.6 4.77-1.3 6.22-.65.5-1.39.74-2.13.74-1.37 0-2.72-.8-3.37-2.1zm67.27-46.14a10 10 0 0 0-1.48-2.24l.11.13q-.4-.48-.84-.93l-.72-.6a8 8 0 0 0-1.79-1.35q-.09-.03-.18-.1c-.24-.6-.8-1-1.4-.93 2.66-10.2 9.97-18.62 19.49-23.44 3.35-1.8 8.94-3.96 10.26 1.19 1.03 4.82-2.5 5.85-6.25 6.9-10.26 4.62-15.14 12.82-16.72 22.3-.14-.33-.24-.67-.4-.98z"/><path fill="#965b00" d="M270.9 411.42c-2.38-1.82-2.2-5.78.15-7.54 2.95-2.3 8.2-4.06 9.5.9a4.9 4.9 0 0 1-4.12 6.22c-1.82.52-3.77 1.9-5.54.42m152.97-169.27c-4.85-3.27-10.55-6.62-14.95-10.18-3.11-1.45-4.4-5.25-2.4-8.12 3.4-5.44 7.3-10.5 11.4-15.43.47-1.48 1.63-2.7 3.32-2.7 2.5 0 3.87 2.75 3.53 5 .05 1.86-1.1 3.5-2.24 4.92-2.4 3.33-4.85 6.62-7.17 10 1.92 1.32 3.74 2.87 5.67 4.14 3.93 2.37 11.39 5.17 8.44 11.05-1.06 2.14-3.96 2.88-5.78 1.16l.16.16z"/><path fill="#4c7fac" d="M389.5 415.3c-19.23-.9-41.75-.27-56.34-14.83-1.85-1.71-3.95-3.64-3.95-6.35-.11-4.33 5.64-6.18 7.22-1.88 14.27 13.77 35.76 13.06 54.3 13.77 13.64.16 26.56-1 38.7-6.9 6.83-3.2 14.03-7.6 17.67-14.3.76-2.14 3.24-3.4 5.3-2.27 5.12 3.43.47 9.86-2.61 13.05-15.43 16.06-38.85 20.44-60.3 19.73z"/><path fill="#4c7fac" d="M397.24 382.2c.34-11.22 9.23-22.5 20.2-25.25 2.72-.55 6.7-1.16 7.89 2.09a4.4 4.4 0 0 1-4.35 6.14c-3.43.48-6.41 2.24-8.97 4.48-3.67 3.46-6.57 8.13-6.96 13.22-1.19 4.8-7.2 4.14-7.78-.66zm-173.71 63.3c-7.28-9.45-20.7-11.58-31.7-8.13-2.93.5-4.59-2.82-3.93-5.3 2.5-6.94 19.63-5.86 25.43-3.88 6.14 1.93 13.03 5.57 15.64 11.77 1 3.19-2.06 7.4-5.46 5.56z"/><path fill="#4c7fac" d="M193.7 478.6c-8.2-1.39-18.25-4.05-20.07-13.5-1.03-2.87-.4-7.46 3.38-7.62 8.88 2.67-4.17 9.31 21.62 12.42 13.8 1.14 26.98-2.92 39.67-7.38 15.3-4.72 29.8-12.47 40.25-24.84a47 47 0 0 0 7.14-10.98c2.35-3.56 2.85-12.58 8.84-10.36 2.08 1.13 2.85 4.09 1.92 6.22-2.34 5.38-4.5 10.87-7.78 15.78-10.36 15.16-26.37 25.92-43.75 31.49-16.3 5.8-33.73 11.86-51.25 8.78z"/><path fill="#fff" d="M284.66 129.71q.26.83 0 0a6 6 0 0 1 0-2.74 4.9 4.9 0 0 1 4.67-3.82c2.45-.14 3.98 2.55 3.98 4.7.19 5-7.28 7.53-8.65 1.86m-16.42 64.91c-4.24-1.76-2.5-6.9-1.55-10.26 1.63-6.17 3.43-12.31 5.14-18.51 2.14-8.3 4.77-16.54 6.46-24.95.19-1.3.87-2.56 2.06-3.22 3.64-1.8 5.88 2.8 5.09 5.88-1.43 7.92-3.62 15.72-5.62 23.5-1.74 6.52-3.64 13-5.38 19.5-.84 3.24-1.42 9.33-6.17 8.04zM165.52 281.5c-3.11-1.53-1.35-7.5 2.19-5.83 3.14 1.5 1.29 7.51-2.2 5.82"/><path fill="#fff" d="M168.82 283.55c-5.15-.02-6.38-7.7-2.2-10.07 6.34-3.22 8.82 9.89 2.2 10.07m9.98-7.51c-.18-2.27.87-4.9 3.35-5.33 4.54-1.1 9.02-2.74 13.5-4.06 4.36-.98 13.38-7.83 14.93-.3-.18 7.66-16.11 9.56-21.97 12.06-3.8 1.5-8.91 3.38-9.83-2.4zm54.7 91.64c-3.45-.9-3.24-5.7-2.19-8.36a24 24 0 0 0 .69-11.02c-.19-2.82-2.38-5.09-2.14-7.91.16-3.2 4.27-5.49 6.6-2.88 4.77 4.8 6.25 30.18-2.96 30.15zm147-91.8c-3.01-2.5-1.46-6.64.76-9.12a27.5 27.5 0 0 0 4.4-12.48c.24-2.71-1-5.77 1.24-7.94 2.03-2.08 5.33-1.08 6.25 1.56 1.77 8.44-1.1 17.46-5.64 24.6-1.3 2.49-4.12 5.55-7.02 3.38"/><path fill="#000" d="M236.64 231.37c-2.59-1.09-3.25-4.65-1.96-7 1.08-3 1.93-6.11 2.85-9.17l3.82-12.42c2.64-8.63 5.25-17.28 7.92-25.9 4.59-15.01 9.18-30.02 13.6-45.1.64-2.14 2.93-3.77 5.15-2.85 2.27.95 3.03 3.8 2.35 5.99-5.33 16.72-10.42 33.52-15.54 50.3q-3.5 11.43-6.99 22.91l-3.27 10.81c-.87 2.9-1.84 5.8-2.58 8.76v.05c-.42 2.03-1.95 3.9-3.96 3.9q-.66.02-1.4-.28"/><path fill="#000" d="M204.98 408.99c-.56-9.16-.06-18.54 2.82-27.3 2.6-8.94 9.7-16.96 8.36-26.74-1.69-9.97-10.95-9.76-18.96-10.66-12.3-1.58-24.9-4.06-35.34-11.1-9.1-6.62-19.26-13.1-23.77-23.87-6.51-15-4.35-34.52 8.18-45.78 9-8.45 21.94-7.13 33.26-9 9.12-.79 16.88-5.98 24.73-10.26 10.19-5.46 19.94-12.58 29.39-18.93 2-1.56 4.32-3.51 6.46-.8 3.1 4.99-3.3 8.7-6.68 11.32-3.45 2.64-6.88 5.27-10.52 7.65-11.76 6.88-23.2 15.14-36.32 19.2-10 2.53-20.67 1.4-30.43 4.88-13.98 6.64-16.88 25.55-10.55 38.53 5.8 10.23 16.67 17.01 26.69 22.6 10.31 4.64 21.65 5.7 32.73 7.15 7.17.18 13.63 4.09 16.64 10.68 9.39 17.75-9.33 33.94-8.91 51.5a107 107 0 0 0 .9 18.84q.08.43.05.87h-.82q-1.64-.01-3.3.05-1.99.05-3.93.21c-.71-2.87-.34-6.25-.74-9.04zm183.19-221.68c-7.84-2.13-16.2-3-24.16-.95-11.5 4.62-21.34 5.94-29.96-4.72-12.3-17.32-11.08-40.77-22.87-58.57-4.35-6.89-12.5-13.77-21.12-11.32-8.7 2.14-13.7 10.2-17.52 17.65-1.74 2.32-2.37 7.62-6.22 6.75-4.17-2.27-1.21-8.18-.18-11.6 5.5-14.88 22.97-29.3 38.66-19.42 23.68 14.32 21.65 46.08 33.52 68.05 7.78 12.26 16.12 6.04 26.95 3.43 12.88-2.17 26.3.9 37.85 6.64 12.53 5.86 21.34 16.35 26.24 28.62q-.65-.15-1.29 0-.68.14-1.32.34c-.42-.1-.9 0-1.21.3q-.36.36-.71.76l-.53.15a6 6 0 0 0-2.37 1.67c-5.44-13-16.54-23.5-33.81-27.78zm39.63 48.98-.02.05zm-45.55 64.28c.9-2.53 3.85-3.14 5.85-4.49a78 78 0 0 0 21.47-17.59c10.34-11.9 15.93-26.77 16.38-41.12q.24.09.48.08.31 0 .6-.15a8 8 0 0 0 2.11-1.59h.56q.28-.09.52-.2c.05 0 .1-.06.13-.06q.46-.15.88-.42a11 11 0 0 0 2.63-2.43c.4 7.18-.37 14.43-2.3 21.28-6.59 23.03-23.6 44.05-45.83 53.25-3.22-.1-4.67-3.82-3.53-6.54z"/><path fill="#000" d="M389.52 355.5c-2.59-15.85-5.88-31.6-7.3-47.6-.2-2.35-.59-4.96.83-7a3.7 3.7 0 0 1 6.36.53c.92 1.4.48 4.22.66 5.51a280 280 0 0 0 1.69 14.09c1.03 7.99 2.5 15.95 4 23.87.32 4.56 4.44 12.52-1.73 14.56-2.35.44-4.28-1.72-4.54-3.96zm-109.29 54.67q-1.79-.35-3.64-.23a22 22 0 0 0-2.63-.4c-.58-4.72 3.9-12.18 4.67-15.9 4.98-12.82 11.44-27.01 23.94-33.97 14.4-7.12 30.62 3.03 36.1 16.9 2.7 4.67-3.34 10.47-6.69 5.12-3.77-10.18-14.9-18.33-25.77-13.71-8.15 4.03-12.55 12.65-16.75 20.3-2.9 6.28-5.06 12.9-7.06 18.83-.27 1.03-.56 2.27-1 3.38q-.6-.16-1.2-.29zm-110.37 79.6c-11.29-8.37-9-25.27 2.53-32.26-1.16-11.79 6.75-23.68 16.83-29.3-.72-5.64 1.76-11.6 6.67-14.66 4.38-2.59 9.84-4.2 14.93-3.86 3 1.03 3.61 5.28 1.84 7.63-1.87 2.42-5.17 1.37-7.75 2.32-15.3 3.9-1.93 10.78-9.15 16.27-8.12 1.37-13.8 9.65-15.48 17.33-.61 3.93 2.24 9.76-2.85 11.68-6.91 3.3-10.18 12.21-3.06 17.22 1.9 1.88 3.66 4.6 3.4 7.34-1.77 2.58-5.75 1.92-7.94.26z"/><path fill="#000" d="M192 496.18c-5.7-1.77-23.48-1.85-21.43-10.44 1.83-5.78 6.84-1.98 10.71-1.14 11.26 2.8 22.79 4.77 34.42 3.46 26.61-2.48 91.41-27.8 84.42-61.43a5 5 0 0 0-.7-1.1c-1.78-2.04-4.1-.74-6.31-.82-2.64-.5-3.46-3.27-4.06-5.57-1.98-3.61-5.52-6.83-9.52-7.96-5.62 1.58-6.57-8.39-1.03-8.84 7.65-.4 14.5 6.12 17.67 12.6 13.82.25 14.4 18.57 10.57 28.39-8.88 22.12-31.33 34.63-52.37 43.25-19.42 8.62-41.25 13.77-62.38 9.57zM388.45 433c-18.54-1.57-58.42-4.8-67.36-22.99-3.48-7.44-1.19-18.04 5.88-22.55.68-4.4 3-8.39 6.22-11.44q-.14.2-.34.4-.06.07-.1.15c3.19-4.62 8.78.45 6.75 4.8-.58 1.37-1.74 2.32-2.75 3.38-3.66 3-.31 11.47-6.7 11.26-17.77 23.07 60.48 29.85 73.06 27.24 18.25-2.1 40.35-3.61 52.64-19.01 3.54-4.75 3.72-14.99-3.8-15.38-2.4.42-4.24-1.74-4.53-3.96-.71-6.85 7.75-6.4 11.5-3.08 9.02 6.04 8.65 19.28 3.3 27.66-15.25 21.23-49.75 22.76-73.8 23.53z"/><path fill="#000" d="M447.94 386.5c-2.77-2.49-1.75-6.84-3.17-10.06-1.98-9.07-12.34-11.89-20.52-12-2.3.14-3.4 1-5.49 1.27-5.5-.74-4.21-8.23-5.53-12.26-6.1 1.37-11.82 2.74-17.62 4.8-2.3.81-4.4-.98-4.96-3.14-.55-2.14.32-5.1 2.66-5.83 5.78-1.8 11.69-3.16 17.6-4.56l1.76.02h-.1q.94.04 1.9.16l1.29.32 1.19.42c.18.1.36.18.55.32q-.08-.04-.13-.1c.13.07.26.18.4.25l.68.77-.05-.05q.52.6 1.05 1.18l-.1-.13.36.5q.21.32.37.64v-.03a11 11 0 0 1 .98 2.66c.05 1.4.18 2.75.58 3.8 8.36-1.16 17.6 1.72 24.19 6.86 4.66 3.06 12.55 24.74 4.8 24.74a8 8 0 0 1-2.7-.64zm-8.95-160.95c-5.17-4.48-11.21-7.78-16.72-11.79-1.11-.76-2.16-1.6-2.64-2.92-1.9-3.83 2.69-9.52 6.36-5.88 3.87 5.64 24.2 11.86 18.64 20.12-1.34 1.8-4.08 2.24-5.64.47"/><path fill="#000" d="M427.45 240.3c-4.2-4.8 2.13-9.31 5.03-12.82q2.69-2.95 5.28-5.96c1.34-1.5 2.85-3.53 5.17-3.06 4.06.8 4.43 6.8 1.21 8.81-.92.92-1.77 1.95-2.64 2.93-2.53 2.95-5.2 5.83-7.78 8.76-1.21 2.4-4.24 3.37-6.25 1.34zm19.25-34.02c-2.92-2.5-5.37-5.33-8.75-7.15-5.57-3.77-.13-9.62 3.11-12.9 1.3-1.4 2.3-3.03 3.67-4.32 2.85-2.24 6.38.84 6.17 4-.03 3.38-3.4 5.31-5.14 7.87l1.63 1.37q.72.63 1.4 1.27c2.3-1.88 3.72-5.6 6.96-5.8 2.61 0 4.14 2.87 3.83 5.19-.61 3.48-4.07 5.51-6.12 8.18-1.64 1.97-4.25 4.27-6.78 2.32z"/><path fill="#000" d="M456.67 196.92c-1.9-1.35-3.33-3.38-5.2-4.85-2.37-2.14-6.2-3.6-6.1-7.31-.05-2.32 1.67-4.8 4.12-4.85a3.9 3.9 0 0 1 3.27 2c3.27 2.59 7.04 5.2 9.18 8.84 1.56 3.21-1.6 8.12-5.27 6.2zm-7.63 64.38c-2.37-1.5-4.14-3.83-6.22-5.7-1.9-2.09-4.49-4.09-4.54-7.15.45-5.22 6.23-7.49 9.18-11.29 3.09-4.16 8.23-4.14 8.7 1.7 0 1.68-.95 3.63-2.5 4.37-1.87 1.77-3.7 3.64-5.6 5.38q1.48 1.51 3.04 2.95c2.9-2 5.04-5.46 8.39-6.6 3.77-.47 5.59 4.23 3.9 7.16-2.03 2.69-5.25 4.64-7.7 7.06-1.77 1.75-4.2 3.62-6.68 2.12z"/><path fill="#000" d="M460.26 251.98c-2.9-.76-3.22-3.38-5.12-5.14-1.71-2.35-4.88-3.59-5.7-6.52a4.83 4.83 0 0 1 3.59-6.12c1.82-.37 3.32.85 4.09 2.4 3.4 3.56 10.65 9.02 6.33 14.27a3.6 3.6 0 0 1-3.2 1.1m-263.12-46.03c-2.42-.45-3.48-3.43-5.27-4.7-4.33-4.64-15.17-8-14-15.5.39-1.88 2.66-3.75 3.66-4.97 3.77-4.22 7.49-8.62 11.9-12.15 5.35-2.38 7.43 5.93 3.77 8.25a101 101 0 0 0-9.66 10c1.85 1.47 3.78 2.84 5.7 4.24a40 40 0 0 1 4.7 3.9c3.87-3.66 7.01-8.46 11.41-11.47 3.56-1.24 6.1 3.4 4.7 6.36-2.64 4.2-6.78 7.33-10 11.1-2.03 1.85-3.77 5.33-6.88 4.9z"/><path fill="#000" d="m208.2 190.61-.1-.1q-.14-.13-.29-.3l-.42-.44-.32-.32-.05-.05q-3-3.07-6.06-6.07-2.03-2-4.1-4c-.97-.96-1.92-1.96-2.92-2.88l-.34-.3a5.3 5.3 0 0 1-.69-6.59c1.32-1.97 3.88-2.47 5.62-.94 0 0 .13.15.21.2l.08.09s.05.05.05.07c4.67 4.8 9.4 9.63 14.06 13.96a5.2 5.2 0 0 1 .95 6.77c-.8 1.22-2 1.85-3.25 1.85a3.6 3.6 0 0 1-2.47-1l.1.1zm16.38-18.44c-3.87-1.84-8.15-6.35-11.31-9.41-5.72-6.62 3.7-12.43 8.02-16.57 1.82-1.42 4.5-.66 5.5 1.38 2.7 5.2-3 7.54-5.82 10.65l.63.58q1.72 1.51 3.51 2.9c2.72-1.98 5.22-6.28 9.05-5.35 1.69.53 2.8 2.56 2.69 4.27.08 3.75-3.72 5.33-6.04 7.62-1.85 1.53-3.48 4.35-6.23 3.93"/><path fill="#000" d="M233.18 161.1s-.18-.19-.26-.3c-3.11-3.21-6.43-6.27-9.65-9.36a5.3 5.3 0 0 1-.6-6.62c1.28-1.87 3.95-2.34 5.6-.66 3.15 3.2 6.42 6.28 9.66 9.4 1.9 1.34 2.22 4.4 1.21 6.35a3.68 3.68 0 0 1-5.93 1.16zm-7.38 67.41c-4.32-.37-6.04-5.3-8.99-7.91-7.28-6.07-.71-12 4.17-16.78 2.9-3.92 7.54-4.14 8.6 1.27.6 4.56-4.67 5.99-6.84 9.31l1.67 1.85q.72.82 1.4 1.66c2.9-2.24 5.03-5.75 8.46-7.15 3.11-.58 5.25 3.25 4.35 5.94-1.92 4.32-6.64 6.75-9.73 10.26-.84.79-1.87 1.63-3.11 1.55z"/><path fill="#000" d="M231.16 216.38c-2.58-3.6-7.51-6.3-7.78-11.1-.05-4.77 5.86-6.65 7.68-1.8 2.4 3.33 6.99 5.78 7.33 10.16.21 4.09-4.83 6.46-7.25 2.77z"/><defs><filter id="crests-talent-filter0_d_23_7047" width="378.55" height="442.84" x="117.53" y="84.87" color-interpolation-filters="sRGB" filterUnits="userSpaceOnUse"><feFlood flood-opacity="0" result="BackgroundImageFix"/><feColorMatrix in="SourceAlpha" result="hardAlpha" values="0 0 0 0 0 0 0 0 0 0 0 0 0 0 0 0 0 0 127 0"/><feOffset dx="13.06" dy="13.06"/><feComposite in2="hardAlpha" operator="out"/><feColorMatrix values="0 0 0 0 0 0 0 0 0 0 0 0 0 0 0 0 0 0 0.4 0"/><feBlend in2="BackgroundImageFix" result="effect1_dropShadow_23_7047"/><feBlend in="SourceGraphic" in2="effect1_dropShadow_23_7047" result="shape"/></filter></defs></svg>