<svg xmlns="http://www.w3.org/2000/svg" fill="none" viewBox="0 0 600 600"><g filter="url(#crests-youtube-filter0_d_35_2049)"><mask id="crests-youtube-path-1-outside-1_35_2049" width="432" height="385" x="87" y="122" fill="#000" maskUnits="userSpaceOnUse"><path fill="#fff" d="M87 122h432v385H87z"/><path d="M410.53 139c1.34.15 2.69.49 3.94 1.1a11 11 0 0 1 3.54 2.64q1.33 1.5 2.13 3.4.64 1.65.85 3.28c.23.57.34 1.21.44 1.8l.6 3.57q.65 3.77 1.33 7.53l2.81 15.85a3528 3528 0 0 0 5.8 32.32c1.97 10.88 3.93 21.73 5.96 32.61q.9 4.94 1.86 9.88c.35 1.8.68 3.64 1.08 5.45l.39-.07c1.78-.4 3.52-.95 4.84-1.47a39 39 0 0 0 4.74-2.3 33 33 0 0 0 3.45-2.37 22 22 0 0 0 2.05-1.9q.45-.51.86-1.05l.2-.33c-.54-.6-1.02-1.25-1.44-1.85-4.06-4.84-4.11-13.13 1.49-16.61-2.59-4.58-1.25-11.49 3.61-13.98q.59-.38 1.27-.63l-.03-.32c-.1-.81-.15-1.64-.25-2.45l-.02-.27-.4-4.04a9 9 0 0 1-.14-1.3l-.1-.75.07.03q0-.97-.08-1.88c-.34-4.5 2.5-9.07 6.92-10.3a9.1 9.1 0 0 1 9.9 3 9 9 0 0 1 6.68-2.1c10.17.18 8.68 10.64 7.24 17.61-.48 1.24-.62 3.19-.85 5.1.86.11 1.7.37 2.41.77 3.67 1.89 5.87 6.21 5.55 10.27 3.1 5.45 2.69 13.13-1 18.2 2.21 7.13-2.15 16.83-10.5 15.9l-.39 1.03a64 64 0 0 1-3.94 8.27c-.92 1.49-2.02 2.83-3.12 4.2a108 108 0 0 1-2.99 3.6 40 40 0 0 1-7.75 6.82 53 53 0 0 1-13.18 6.23c-2.32.76-4.62 1.56-7.01 2.03q-.6.13-1.16.23c2.38 8.67 4.45 19.18-2.68 25.83-.46.34-1 .82-1.58 1.32q-.2.3-.5.57c-12.33 10.5-24.07 21.85-36.6 32a35.5 35.5 0 0 1-13.8 5.62c-2.01-.07-4 .34-5.97.74.79 5.54.2 13.68.05 15.95a41 41 0 0 1-3.88 13.21 3.3 3.3 0 0 1-1.2 2.3l-.15.29c.1 2.9.1 5.91-.96 8.65 10.05 6.36 13.28 19.3 11.79 30.54 5.64 6.13 6.6 16.72 1.24 23.3-6.28 6.23-15.47 7.04-23.86 6.9l-.05-.03c-8.24-.65-16.2-2.32-24.17-4.23q-.06.66-.17 1.31 0 .51-.03.92c2.56 1.88 4.2 5.3 4.79 8.29 1.83 4.03 2.13 8.85-.9 12.4-4.75 5.08-12.35 5.59-18.8 6.79a122 122 0 0 1-24.77 1.34h.05c-16.31-1.4-34.48 1.23-48.7-8.43-5.82-3.99-11.25-9.32-14.36-15.7-2.12-4.25-4.57-7.68-5.6-12.3-4.17-10.75 2.94-22.05 14.85-20.82 1.2-3.33 2.73-6.95 6.06-8.61a94 94 0 0 0-1.37-12.27c-.25-3.8 2.03-8.2 5.92-9.1q.56-.06 1.16-.2c-.5-6.28-1.21-12.85-3.61-18.5-.26-.85-.67-1.7-1.01-2.56l-1.77.26-6.52 1.05q-7.01 1.18-14.06 2.32-7.34 1.21-14.62 2.45c-4.82.8-9.63 1.59-14.45 2.5q-1.73.28-3.47.66c-2.15 2.02-7.56 1.33-10.14 1.11v.02c-4.06-1.2-8.04-3.86-9.1-8.21-.3-1.64-1.49-4.54-2.05-7.22l-1.87.28-6.72 1.02q-7.29 1.13-14.55 2.28l-13.08 2.13q-3 .48-6.01 1c-1.71.3-3.42.56-5.11.98a2.5 2.5 0 0 1-1.6.03l-.46-.03-.03.03c-10.68-.76-9.92-15.58-12.32-23.33-.23-2.54-1-4.87-1.98-7.14q-.34-.54-.52-1.15c-1.68-3.62-3.74-7.12-4.73-11.02-5.28-1.42-9.95-6.94-9.12-12.6.07-1.78 1.45-4.6 3.22-6.56a61 61 0 0 1-1.83-5.93 54 54 0 0 1-1.44-11.69c-.18-9.73 2.98-19.43 8.33-27.52 5.92-8.98 14.5-15.97 24.01-20.88a85 85 0 0 1 12.13-5.01 99 99 0 0 1 10.18-2.71c-1.55-12.25-8.78-25.07-2.27-36.53.76-1 1.67-2.58 2.77-3.72.27-.41.63-.77 1.05-1l.26-.25c1.57-1.34 3.11-2.76 4.65-4.16 1.71-1.51 3.4-3.08 5.11-4.62 3.52-3.18 7.07-6.38 10.56-9.56 2.18-1.98 4.38-3.93 6.5-5.94q1.64-1.5 3.23-3 .74-.67 1.44-1.35c.58-.54 1.19-1 1.92-1.12 3.13-2.55 8.02-4.57 10.76-4.11 1.94-.27 3.87-.6 5.81-.9l9.8-1.54 19.76-3.2q20.18-3.27 40.32-6.68c13.27-2.25 26.57-4.43 39.87-6.68l40.49-6.82c12.96-2.2 25.94-4.33 38.9-6.62l2.37-.44h.2q.17.01.36-.05l.68-.15c.13 0 .25-.05.37-.05.86-.14 1.74-.34 2.6-.51l.6-.1 1.71-.2.17.03.27-.03h-.04l.1-.01h.04-.02q.22-.06.49-.08m-64.78 228.61c-1.97.18-3.91.58-5.86.91l-7.28 1.25-14.96 2.57a921 921 0 0 0-16.77 3.06l-1.27.24.03.12 1.51 5.89 1.44 5.45c4.22-5.3 12.73-6.6 18.26-.71 2.44-1.03 5.3-1 7.82-.34 2.99-2.52 6.31-4.65 9.32-7.17 2.86-1.8 5.57-4.94 9.17-4.84.04-2.12-.57-4.2-1.25-6.2zm-199.73-77.18q0 .37-.07.72.05-.16.07-.33zm264-151.35h-.06.08z"/></mask><path fill="#fff" d="M410.53 139c1.34.15 2.69.49 3.94 1.1a11 11 0 0 1 3.54 2.64q1.33 1.5 2.13 3.4.64 1.65.85 3.28c.23.57.34 1.21.44 1.8l.6 3.57q.65 3.77 1.33 7.53l2.81 15.85a3528 3528 0 0 0 5.8 32.32c1.97 10.88 3.93 21.73 5.96 32.61q.9 4.94 1.86 9.88c.35 1.8.68 3.64 1.08 5.45l.39-.07c1.78-.4 3.52-.95 4.84-1.47a39 39 0 0 0 4.74-2.3 33 33 0 0 0 3.45-2.37 22 22 0 0 0 2.05-1.9q.45-.51.86-1.05l.2-.33c-.54-.6-1.02-1.25-1.44-1.85-4.06-4.84-4.11-13.13 1.49-16.61-2.59-4.58-1.25-11.49 3.61-13.98q.59-.38 1.27-.63l-.03-.32c-.1-.81-.15-1.64-.25-2.45l-.02-.27-.4-4.04a9 9 0 0 1-.14-1.3l-.1-.75.07.03q0-.97-.08-1.88c-.34-4.5 2.5-9.07 6.92-10.3a9.1 9.1 0 0 1 9.9 3 9 9 0 0 1 6.68-2.1c10.17.18 8.68 10.64 7.24 17.61-.48 1.24-.62 3.19-.85 5.1.86.11 1.7.37 2.41.77 3.67 1.89 5.87 6.21 5.55 10.27 3.1 5.45 2.69 13.13-1 18.2 2.21 7.13-2.15 16.83-10.5 15.9l-.39 1.03a64 64 0 0 1-3.94 8.27c-.92 1.49-2.02 2.83-3.12 4.2a108 108 0 0 1-2.99 3.6 40 40 0 0 1-7.75 6.82 53 53 0 0 1-13.18 6.23c-2.32.76-4.62 1.56-7.01 2.03q-.6.13-1.16.23c2.38 8.67 4.45 19.18-2.68 25.83-.46.34-1 .82-1.58 1.32q-.2.3-.5.57c-12.33 10.5-24.07 21.85-36.6 32a35.5 35.5 0 0 1-13.8 5.62c-2.01-.07-4 .34-5.97.74.79 5.54.2 13.68.05 15.95a41 41 0 0 1-3.88 13.21 3.3 3.3 0 0 1-1.2 2.3l-.15.29c.1 2.9.1 5.91-.96 8.65 10.05 6.36 13.28 19.3 11.79 30.54 5.64 6.13 6.6 16.72 1.24 23.3-6.28 6.23-15.47 7.04-23.86 6.9l-.05-.03c-8.24-.65-16.2-2.32-24.17-4.23q-.06.66-.17 1.31 0 .51-.03.92c2.56 1.88 4.2 5.3 4.79 8.29 1.83 4.03 2.13 8.85-.9 12.4-4.75 5.08-12.35 5.59-18.8 6.79a122 122 0 0 1-24.77 1.34h.05c-16.31-1.4-34.48 1.23-48.7-8.43-5.82-3.99-11.25-9.32-14.36-15.7-2.12-4.25-4.57-7.68-5.6-12.3-4.17-10.75 2.94-22.05 14.85-20.82 1.2-3.33 2.73-6.95 6.06-8.61a94 94 0 0 0-1.37-12.27c-.25-3.8 2.03-8.2 5.92-9.1q.56-.06 1.16-.2c-.5-6.28-1.21-12.85-3.61-18.5-.26-.85-.67-1.7-1.01-2.56l-1.77.26-6.52 1.05q-7.01 1.18-14.06 2.32-7.34 1.21-14.62 2.45c-4.82.8-9.63 1.59-14.45 2.5q-1.73.28-3.47.66c-2.15 2.02-7.56 1.33-10.14 1.11v.02c-4.06-1.2-8.04-3.86-9.1-8.21-.3-1.64-1.49-4.54-2.05-7.22l-1.87.28-6.72 1.02q-7.29 1.13-14.55 2.28l-13.08 2.13q-3 .48-6.01 1c-1.71.3-3.42.56-5.11.98a2.5 2.5 0 0 1-1.6.03l-.46-.03-.03.03c-10.68-.76-9.92-15.58-12.32-23.33-.23-2.54-1-4.87-1.98-7.14q-.34-.54-.52-1.15c-1.68-3.62-3.74-7.12-4.73-11.02-5.28-1.42-9.95-6.94-9.12-12.6.07-1.78 1.45-4.6 3.22-6.56a61 61 0 0 1-1.83-5.93 54 54 0 0 1-1.44-11.69c-.18-9.73 2.98-19.43 8.33-27.52 5.92-8.98 14.5-15.97 24.01-20.88a85 85 0 0 1 12.13-5.01 99 99 0 0 1 10.18-2.71c-1.55-12.25-8.78-25.07-2.27-36.53.76-1 1.67-2.58 2.77-3.72.27-.41.63-.77 1.05-1l.26-.25c1.57-1.34 3.11-2.76 4.65-4.16 1.71-1.51 3.4-3.08 5.11-4.62 3.52-3.18 7.07-6.38 10.56-9.56 2.18-1.98 4.38-3.93 6.5-5.94q1.64-1.5 3.23-3 .74-.67 1.44-1.35c.58-.54 1.19-1 1.92-1.12 3.13-2.55 8.02-4.57 10.76-4.11 1.94-.27 3.87-.6 5.81-.9l9.8-1.54 19.76-3.2q20.18-3.27 40.32-6.68c13.27-2.25 26.57-4.43 39.87-6.68l40.49-6.82c12.96-2.2 25.94-4.33 38.9-6.62l2.37-.44h.2q.17.01.36-.05l.68-.15c.13 0 .25-.05.37-.05.86-.14 1.74-.34 2.6-.51l.6-.1 1.71-.2.17.03.27-.03h-.04l.1-.01h.04-.02q.22-.06.49-.08m-64.78 228.61c-1.97.18-3.91.58-5.86.91l-7.28 1.25-14.96 2.57a921 921 0 0 0-16.77 3.06l-1.27.24.03.12 1.51 5.89 1.44 5.45c4.22-5.3 12.73-6.6 18.26-.71 2.44-1.03 5.3-1 7.82-.34 2.99-2.52 6.31-4.65 9.32-7.17 2.86-1.8 5.57-4.94 9.17-4.84.04-2.12-.57-4.2-1.25-6.2zm-199.73-77.18q0 .37-.07.72.05-.16.07-.33zm264-151.35h-.06.08z"/><path fill="#fff" d="m410.53 139 1.84-16.9a17 17 0 0 0-3.72 0zm3.94 1.1-7.49 15.27.55.25zm3.54 2.64 12.77-11.22-.33-.37zm2.13 3.4-15.77 6.37.04.09zm.85 3.28-16.84 2.35a17 17 0 0 0 1.01 3.84zm.44 1.8-16.79 2.69.03.18zm.6 3.57 16.78-2.76-.02-.1zm1.33 7.53-16.75 2.93v.02zm2.81 15.85 16.75-2.93v-.02zm5.8 32.32 16.72-3.05v-.03zm5.96 32.61 16.71-3.1v-.02zm1.86 9.88-16.7 3.21v.01zm1.08 5.45-16.6 3.68a17 17 0 0 0 19.76 13.02zm.39-.07 3.2 16.7.44-.1zm4.84-1.47 6.16 15.85.2-.08zm4.74-2.3 8.44 14.77.4-.24zm3.25-2.22 10.5 13.37q.8-.63 1.52-1.35zm.2-.15 9.43 14.15q.75-.5 1.45-1.09zm2.05-1.9 12.46 11.56.45-.5zm.86-1.05 13.7 10.05q.24-.3.44-.62zm.2-.33 14.32 9.17a17 17 0 0 0-1.75-20.62zm-1.44-1.85 13.92-9.77q-.42-.6-.89-1.15zm1.49-16.61 8.96 14.45a17 17 0 0 0 5.85-22.8zm3.61-13.98 7.75 15.13q.83-.43 1.6-.93zm1.27-.63 5.85 15.96a17 17 0 0 0 11.06-17.67zm-.03-.32 16.9-1.88-.03-.17zm-.25-2.45h-17q0 1.03.12 2.05zm-.02-.27-16.9 1.88q.13 1.13.4 2.24zm-.4-4.04 16.91-1.74q-.08-.78-.23-1.55zm-.14-1.3 16.97-.84a17 17 0 0 0-.24-2.16zm-.1-.75 6.62-15.65a17 17 0 0 0-23.53 17.35zm.07.03-6.6 15.67a17 17 0 0 0 23.6-16.02zm-.08-1.88-16.95 1.29.05.54zm6.92-10.3 4.53 16.4.49-.15zm9.9 3-13.5 10.34a17 17 0 0 0 24.33 2.76zm6.68-2.1-1.56 16.94q.63.06 1.28.07zm7.24 17.61 15.86 6.12q.5-1.3.78-2.67zm-.85 5.1-16.87-2.08a17 17 0 0 0 14.7 18.94zm2.41.77-8.3 14.84.54.29zm5.55 10.27-16.95-1.33a17 17 0 0 0 2.18 9.74zm-1 18.2-13.74-10.03a17 17 0 0 0-2.5 15.07zm-10.5 15.9 1.88-16.9a17 17 0 0 0-17.85 11.06zm-.39 1.03 15.87 6.1.03-.09zm-1.61 3.77 15.4 7.2.04-.1zm-2.33 4.5 14.43 8.98.09-.13zm-3.12 4.2-13.26-10.65-.02.03zm-2.99 3.6-12.8-11.2-.08.1zm-7.75 6.82 9.51 14.09.09-.06zm-13.18 6.23-5.27-16.16zm-7.01 2.03-3.24-16.69-.4.08zm-1.16.23L445.26 279a17 17 0 0 0-13.47 21.25zm-2.68 25.83 10.15 13.64q.75-.57 1.45-1.21zm-1.58 1.32-11.25-12.74q-1.4 1.24-2.49 2.74zm-.5.57 11.02 12.93.06-.04zm-36.6 32 9.42 14.14q.66-.44 1.26-.92zm-13.8 5.62-.6 17q1.65.04 3.29-.21zm-5.97.74-3.41-16.65a17 17 0 0 0-13.42 19.06zm.05 15.95 16.9 1.87.06-.69zM383.23 391l-15.3-7.4a17 17 0 0 0-1.67 6.44zm-1.2 2.3-10.95-13a17 17 0 0 0-3.87 4.68zm-.15.29-14.77-8.43a17 17 0 0 0-2.23 9zm-.96 8.65-15.87-6.1a17 17 0 0 0 6.78 20.47zm11.79 30.54-16.86-2.24a17 17 0 0 0 4.35 13.75zm1.24 23.3 11.98 12.06q.64-.63 1.2-1.33zm-23.86 6.9-7.6 15.2a17 17 0 0 0 7.3 1.79zm-.05-.03 7.6-15.2a17 17 0 0 0-6.26-1.75zm-24.17-4.23 3.97-16.54a17 17 0 0 0-20.9 14.98zm-.17 1.31-16.81-2.52a17 17 0 0 0-.19 2.35zm-.03.92-16.96-1.2a17 17 0 0 0 6.9 14.9zm4.79 8.29-16.68 3.28q.38 1.95 1.2 3.75zm-.9 12.4 12.43 11.59.49-.55zm-18.8 6.79 2.55 16.8.55-.09zm-24.77 1.34v-17a17 17 0 0 0-.9 33.98zm.05 0v17a17 17 0 0 0 1.44-33.94zm-48.7-8.43-9.61 14.02.06.04zm-14.36-15.7 15.29-7.44-.08-.16zm-5.6-12.3 16.6-3.68q-.28-1.26-.75-2.47zm14.85-20.82-1.74 16.9a17 17 0 0 0 17.73-11.14zm6.06-8.61 7.6 15.2a17 17 0 0 0 9.38-16.1zm-1.37-12.27-16.97 1.09q.07 1.02.26 2.03zm5.92-9.1-1.72-16.91q-1.08.1-2.14.35zm1.16-.2 3.4 16.66a17 17 0 0 0 13.55-18.02zm-3.61-18.5-16.27 4.92q.26.88.62 1.72zm-1.01-2.56 15.82-6.22a17 17 0 0 0-18.22-10.6zm-1.77.26-2.55-16.8h-.09zm-6.52 1.05-2.65-16.8-.16.04zm-14.06 2.32-2.71-16.78-.06.01zm-14.62 2.45 2.8 16.76h.06zm-14.45 2.5 2.9 16.74.24-.04zm-3.47.66-3.67-16.6a17 17 0 0 0-7.95 4.2zm-10.14 1.11 1.44-16.94a17 17 0 0 0-18.44 16.94zm0 .02-4.81 16.3a17 17 0 0 0 21.81-16.3zm-9.1-8.21-16.69 3.2q.07.4.17.8zm-2.05-7.22 16.63-3.5a17 17 0 0 0-19.13-13.32zm-1.87.28-2.52-16.81h-.03zm-6.72 1.02 2.53 16.81h.03zm-14.55 2.28-2.63-16.8-.09.02zm-13.08 2.13 2.66 16.79.08-.01zm-6.01 1-2.86-16.76h-.01zm-5.11.98-4.07-16.51q-.88.21-1.74.53zm-.86.14v17zm-.74-.1 4.86-16.3a17 17 0 0 0-4.5-.7zm-.46-.04 1.85-16.9a17 17 0 0 0-14.12 5.13zm-.03.03-1.2 16.95a17 17 0 0 0 13.47-5.18zm-12.32-23.33-16.93 1.52q.16 1.8.7 3.5zm-1.98-7.14 15.6-6.75q-.45-1.05-1.04-2.02zm-.52-1.15 16.31-4.8q-.36-1.2-.88-2.34zm-4.73-11.02 16.47-4.2a17 17 0 0 0-12.06-12.22zm-9.12-12.6 16.82 2.48q.13-.86.16-1.73zm3.22-6.56 12.59 11.43a17 17 0 0 0 3.43-17.11zm-1.83-5.93-16.53 4 .01.03zm-1.44-11.69-17 .3v.02zm8.33-27.52 14.18 9.38.01-.02zm24.01-20.88-7.75-15.13-.05.02zm12.13-5.01-5.2-16.19-.12.04zm8.28-2.28 3.78 16.58.1-.03zm1.9-.43 3.66 16.6a17 17 0 0 0 13.2-18.74zm-2.27-36.53-13.58-10.23q-.66.88-1.2 1.83zm2.77-3.72 12.24 11.8a17 17 0 0 0 1.92-2.39zm1.05-1 8.43 14.75q.51-.3 1.01-.62zm.22-.2-11.95-12.1-.07.08zm.04-.05L150.44 194q-.49.43-.95.88zm4.65-4.16-11.27-12.72-.13.12zm5.11-4.62 11.37 12.64.02-.02zm10.56-9.56 11.44 12.58zm6.5-5.94-11.45-12.56-.2.2zm3.23-3-11.37-12.64-.22.2zm1.44-1.35 11.38 12.64.25-.24zm1.92-1.12 2.9 16.75a17 17 0 0 0 7.84-3.57zm10.76-4.11-2.83 16.76q2.58.43 5.18.08zm5.81-.9 2.61 16.8.03-.01zm9.8-1.54 2.64 16.79h.04zm19.76-3.2-2.71-16.79h-.02zm40.32-6.68 2.84 16.76zm39.87-6.68-2.82-16.76h-.01zm40.49-6.82 2.82 16.77h.02zm38.9-6.62 2.96 16.74.17-.03zm2.37-.44v-17q-1.58 0-3.14.29zm.56-.05-3.69-16.6q-1.35.3-2.62.81zm.68-.15v-17q-1.69 0-3.33.33zm.37-.05v17q1.45 0 2.87-.24zm2.6-.51-1.89-16.9q-.73.08-1.45.23zm.6-.1-2.2-16.86q-.97.13-1.92.37zm1.71-.2 1.66-16.91a17 17 0 0 0-3.76.05zm.17.03-2.36 16.83q2.17.3 4.35.05zm.23-.02-7.58-15.22a17 17 0 0 0 11.7 31.71zm.14-.03 2.11 16.87a17 17 0 0 0-2.1-33.87zm-64.31 228.54 13.57-10.23a17 17 0 0 0-15.13-6.7zm-5.86.91 2.85 16.76h.02zm-7.28 1.25 2.87 16.76zm-14.96 2.57-2.88-16.76-.04.01zm-11.35 2.03-3.12-16.71h-.04zm-5.42 1.02-3.17-16.7-.07.02zm-1.27.25-3.24-16.69a17 17 0 0 0-13.24 20.89zm.03.12 16.49-4.13-.03-.1zm1.51 5.89 16.45-4.3v-.02zm1.44 5.45-16.43 4.35a17 17 0 0 0 29.72 6.25zm18.26-.71-12.4 11.64a17 17 0 0 0 18.98 4.03zm7.82-.34-4.3 16.44a17 17 0 0 0 15.27-3.45zm9.32-7.17-9.09-14.36q-.96.6-1.83 1.33zm9.17-4.84-.47 17a17 17 0 0 0 17.46-16.6zm-1.25-6.2 16.09-5.5a17 17 0 0 0-2.43-4.63zm-182.89-77.4a17 17 0 1 0-34 0zm-17.07.7-16.68-3.3a17 17 0 0 0 33.02 8zm.07-.32 16.83 2.41a17 17 0 0 0 .17-2.4zM410.52 139l-1.83 16.9a5 5 0 0 1-1.7-.53l7.47-15.27 7.49-15.26a29 29 0 0 0-9.58-2.74zm3.94 1.1-6.93 15.52c-1.3-.58-1.93-1.26-1.96-1.29l12.44-11.59 12.44-11.59c-2.04-2.18-5-4.77-9.06-6.57zm3.55 2.64-12.77 11.22c-.2-.22-.56-.7-.87-1.46l15.77-6.36 15.76-6.37a29 29 0 0 0-5.12-8.25zm2.13 3.4-15.73 6.46c-.22-.55-.26-.88-.26-.83l16.84-2.35 16.84-2.35c-.3-2.11-.85-4.67-1.97-7.39zm.85 3.28-15.83 6.2c-.3-.77-.44-1.35-.5-1.59l-.02-.12 16.79-2.69 16.78-2.68c-.08-.55-.42-2.85-1.39-5.32zm.44 1.8-16.76 2.87.61 3.57 16.76-2.87 16.75-2.87-.6-3.56zm.6 3.57-16.76 2.77c.42 2.6.95 5.44 1.34 7.7l16.75-2.94 16.74-2.92c-.48-2.8-.89-4.94-1.29-7.37zm1.33 7.53-16.75 2.95 1.42 7.96 1.4 7.88 16.74-2.94 16.74-2.95-1.41-7.96-1.4-7.88zm2.81 15.85-16.75 2.92a3599 3599 0 0 0 5.82 32.47l16.72-3.07 16.72-3.08q-2.96-16.06-5.76-32.17zm5.8 32.32-16.73 3.04q2.94 16.28 5.98 32.69l16.7-3.12 16.72-3.12c-2.02-10.83-3.96-21.62-5.95-32.54zm5.96 32.61-16.72 3.1 1.88 10 16.7-3.22 16.69-3.22-1.84-9.75zm1.86 9.88-16.7 3.22c.3 1.57.72 3.8 1.19 5.91l16.6-3.68 16.59-3.68c-.34-1.51-.6-2.95-1-5zm1.08 5.45 3.16 16.7h.08l.36-.08-3.21-16.69-3.21-16.7q.06 0-.03.01l-.12.02-.19.04zm.39-.07 3.64 16.6c2.77-.6 5.35-1.44 7.36-2.22l-6.16-15.85-6.16-15.84c-.63.24-1.52.53-2.32.7zm4.84-1.47 6.35 15.77a56 56 0 0 0 6.82-3.3l-8.43-14.76-8.43-14.76q-1.3.74-2.67 1.29zm4.74-2.3 8.84 14.53c1.5-.92 3.2-2.04 4.92-3.38l-10.5-13.37L443.58 239c-.34.27-.84.62-1.59 1.07zm3.25-2.22 12.02 12.02a16 16 0 0 1-1.93 1.66l-.46.32-9.43-14.15-9.43-14.14-.68.47c-.33.24-1.18.87-2.1 1.8zm.2-.15 10.88 13.06c1-.83 2.3-1.96 3.63-3.4l-12.46-11.56-12.46-11.57c.06-.07 0 .03-.48.41zm2.05-1.9 12.9 11.06c.23-.26.95-1.09 1.66-2.06l-13.7-10.05-13.71-10.06.17-.23-.06.08-.07.08-.1.11zm.86-1.05 14.14 9.43.33-.5.03-.06.03-.04-14.33-9.16-14.31-9.16q-.04.04-.06.1l-.05.06-.03.05-.01.02.02-.03.1-.14zm.2-.33 12.57-11.45.14.16q.04.04.01.02 0-.03-.08-.11t-.16-.24l-13.92 9.77-13.92 9.76c.52.74 1.5 2.12 2.8 3.54zm-1.44-1.85 13.03-10.92a4.2 4.2 0 0 1 1.06 3.08 7.5 7.5 0 0 1-3.64 5.68l-8.96-14.45-8.97-14.44c-8.42 5.23-11.94 13.8-12.37 21.26a29.8 29.8 0 0 0 6.81 20.7zm1.49-16.61 14.8-8.35a6 6 0 0 1 .76 4.5 8 8 0 0 1-4.2 5l-7.75-15.13-7.75-15.13c-7.75 3.97-11.87 11.03-13.39 17.41a28 28 0 0 0 2.72 20.05zm3.61-13.98 9.36 14.2q-1.13.71-2.24 1.13l-5.85-15.96-5.86-15.96q-2.47.9-4.77 2.4zm1.27-.63 16.91-1.71v.1-.06l-.05-.53-16.9 1.88-16.89 1.87-.02-.18v-.03.11l.03.25zm-.03-.32 16.87-2.05-.06-.7-.18-1.75-16.88 2.05-16.88 2.05.07.7.18 1.74zm-.25-2.45h17c0-.08.05-2.05-.53-4.39l-16.5 4.12-16.49 4.12q-.36-1.5-.44-2.77c-.05-.67-.04-1.25-.04-1.08zm-.02-.27 16.9-1.87c-.17-1.47-.17-1.82-.39-3.9l-16.9 1.73-16.92 1.73c.06.62.28 2.98.41 4.19zm-.4-4.04 16.68-3.29a10 10 0 0 1 .15 1.15l-16.97.84-16.98.83c.04.89.14 2.22.44 3.76zm-.14-1.3 16.73-3 .09.58v.08-.1l-16.92 1.7-16.91 1.69c.01.15.09 1.03.27 2.04zm-.1-.75-6.62 15.66.07.03.04.02-.02-.01 6.6-15.67 6.6-15.66-.06-.03h-.02v-.01l.03.02zm.07.03 17-.35c0-.2-.01-1.82-.18-3.36l-16.9 1.83-16.9 1.83-.03-.3v-.03.25l.01.21v.28zm-.08-1.88 16.95-1.29a6.7 6.7 0 0 1-1.06 4.24 7.8 7.8 0 0 1-4.44 3.15l-4.53-16.4-4.53-16.38c-13.14 3.63-20.23 16.32-19.34 27.97zm6.92-10.3 5.02 16.25a7.9 7.9 0 0 1-8.61-2.9l13.49-10.35 13.49-10.34a26.1 26.1 0 0 0-28.4-8.9zm9.9 3 10.83 13.1a8 8 0 0 1-5.71 1.74l1.56-16.93 1.56-16.93a26 26 0 0 0-19.07 5.92zm6.68-2.1-.28 17c-.45 0-2.85-.21-5.31-2.38a9.4 9.4 0 0 1-3.09-4.95c-.11-.53 0-.42-.1.7-.1 1.01-.3 2.25-.63 3.8l16.65 3.44 16.64 3.45c.67-3.2 2.26-10.82.75-18.2a24.7 24.7 0 0 0-7.78-13.78c-5-4.4-11.04-5.98-16.56-6.07zm7.24 17.61-15.86-6.12a27 27 0 0 0-1.5 6.06c-.12.92-.34 2.9-.36 3.08l16.87 2.08 16.87 2.09.18-1.6.12-.94c.03-.2.03-.17 0 0a9 9 0 0 1-.46 1.47zm-.85 5.1-2.16 16.87a10 10 0 0 1-3.73-1.26l8.3-14.84 8.3-14.83a24 24 0 0 0-8.55-2.8zm2.41.77-7.76 15.13a7 7 0 0 1-2.99-2.84 6 6 0 0 1-.65-3.35l16.95 1.33 16.95 1.33c.8-10.31-4.47-21.45-14.73-26.72zm5.55 10.27-14.77 8.41-.14-.3-.03-.07.01.09a1 1 0 0 1-.04.44l.05-.1q.04-.1.18-.3l13.74 10.02 13.73 10.02c7.66-10.5 8.44-25.4 2.04-36.62zm-1 18.2-16.24 5.04c-.22-.73-.2-1.21-.17-1.45s.1-.62.42-1.15a7 7 0 0 1 2.5-2.37 8.2 8.2 0 0 1 4.87-1.06l-1.89 16.9-1.88 16.89c12.28 1.37 21.33-5.6 25.8-13.3a31.2 31.2 0 0 0 2.82-24.56zm-10.5 15.9-15.97-5.84-.32.87 15.9 6 15.9 6.01.45-1.2zm-.39 1.03-15.87-6.1c-.3.77-.68 1.66-1.19 2.76l15.45 7.1 15.44 7.11c.62-1.34 1.36-3 2.04-4.76zm-1.61 3.77-15.4-7.2c-.73 1.55-1.1 2.3-1.44 2.84l14.51 8.86 14.52 8.85c1.43-2.34 2.51-4.67 3.2-6.15zm-2.33 4.5-14.42-9c-.28.45-.66.94-1.96 2.55l13.25 10.65 13.26 10.65c.9-1.12 2.72-3.33 4.3-5.87zm-3.12 4.2L467 266.22a90 90 0 0 1-2.5 3.02l12.8 11.2 12.79 11.19c1.26-1.45 2.42-2.87 3.46-4.17zm-2.99 3.6-12.88-11.1a23 23 0 0 1-4.46 3.88l9.6 14.04 9.59 14.03a57 57 0 0 0 11.03-9.76zm-7.75 6.82-9.5-14.1c-2.42 1.63-5.37 3-8.95 4.17l5.27 16.16 5.28 16.16a70 70 0 0 0 17.41-8.3zm-13.18 6.23-5.27-16.16c-2.87.94-3.9 1.29-4.98 1.5l3.24 16.69 3.23 16.69c3.7-.72 7.28-1.98 9.06-2.56zm-7.01 2.03-3.64-16.6-.45.08 2.93 16.75 2.92 16.74q.81-.14 1.87-.36zm-1.16.23-16.4 4.5c1.15 4.17 1.66 6.95 1.63 8.89-.02.81-.13 1.02-.07.85.1-.27.32-.62.56-.84l11.6 12.43L457.1 334c7.93-7.4 10.17-16.71 10.3-24.3.12-7.15-1.6-13.96-2.83-18.47zm-2.68 25.83-10.15-13.64c-1.16.86-2.29 1.88-2.68 2.22l11.25 12.74 11.26 12.75.66-.58-.2.15zm-1.58 1.32-13.74-10a14 14 0 0 1 2.15-2.32l11.08 12.89 11.08 12.88a20 20 0 0 0 3.18-3.44zm-.5.57-11.04-12.94c-13.8 11.78-23.54 21.43-36.26 31.72l10.7 13.22 10.68 13.22c12.36-10 26.1-23.04 36.94-32.3zm-36.6 32-9.44-14.15a19 19 0 0 1-7.04 2.99l2.68 16.78 2.69 16.79a52 52 0 0 0 20.53-8.27zm-13.8 5.62.6-16.99c-4.38-.15-8.38.75-9.98 1.08l3.4 16.65 3.41 16.66 2-.38c.36-.05.3-.02-.03-.03zm-5.97.74-16.83 2.41c.2 1.36.27 3.66.21 6.42-.05 2.57-.21 4.82-.3 5.95l16.97 1.17 16.96 1.18c.12-1.77.91-11.85-.19-19.53zm.05 15.95-16.9-1.86a24 24 0 0 1-2.28 7.66l15.3 7.41 15.3 7.41a58 58 0 0 0 5.48-18.75zM383.23 391l-16.97-.96a13.7 13.7 0 0 1 4.82-9.74l10.96 13 10.95 13a20.3 20.3 0 0 0 7.22-14.33zm-1.2 2.3-14.82-8.32-.11.2-.03.06-.01.02-.01.01q0 .02 0 0l.06-.1 14.77 8.42 14.76 8.42.23-.4.02-.05-.02.05zm-.15.29-17 .57a43 43 0 0 1 0 2.44c-.02.37-.05.12.17-.45l15.87 6.1 15.87 6.09c2.43-6.31 2.17-12.51 2.08-15.32zm-.96 8.65-9.09 14.37c1.16.73 2.37 2.08 3.24 4.61.91 2.64 1.23 5.98.78 9.32l16.86 2.24 16.85 2.23c1.96-14.8-1.7-35.85-19.55-47.13zm11.79 30.54-12.51 11.51c-.07-.07 0-.02.1.22a3 3 0 0 1 .17 1.31v.03s.06-.21.3-.5l13.18 10.73 13.19 10.73c11.32-13.92 8.73-33.97-1.93-45.55zm1.24 23.3L381.98 444c-.33.33-1.07.9-3.03 1.35-2.1.5-4.87.68-8.56.61l-.3 17-.3 17c8.54.15 24.42-.2 36.14-11.82zm-23.86 6.9 7.6-15.21-.05-.03-7.6 15.2-7.6 15.21.05.03zm-.05-.03 1.34-16.95c-6.89-.54-13.8-1.96-21.54-3.82l-3.96 16.54-3.97 16.53c8.2 1.96 17.2 3.89 26.8 4.64zm-24.17-4.23-16.92-1.56.01-.14-.02.16-.02.15-.03.18 16.8 2.52 16.82 2.53c.03-.2.2-1.24.3-2.3zm-.17 1.31-17-.17v.07-.18l16.97 1.2 16.95 1.2c.06-.74.07-1.43.08-1.95zm-.03.92-10.06 13.7a7 7 0 0 1-1.29-1.19q-.35-.44-.42-.6a1 1 0 0 1-.12-.34l16.68-3.28 16.68-3.29c-1.09-5.51-4.26-13.46-11.42-18.71zm4.79 8.29-15.48 7.03c.06.12-.17-.28-.14-1.26a7.5 7.5 0 0 1 1.8-4.43l12.91 11.05 12.93 11.05c9-10.53 6.76-23.2 3.45-30.48zm-.9 12.4-12.44-11.6c.62-.67.9-.42-.86.06-.86.24-1.94.47-3.44.73l-2.38.4c-.85.14-1.81.3-2.79.48l3.1 16.72 3.1 16.71c1.77-.32 7.26-1.1 11.48-2.27 4.84-1.34 11.3-3.9 16.66-9.64zm-18.8 6.79-2.56-16.81a105 105 0 0 1-21.31 1.18l-.9 16.97-.9 16.98c9.62.51 19.05-.12 28.22-1.51zm-24.77 1.34v17h.05v-34h-.05zm.05 0 1.44-16.94c-4.69-.4-9.42-.5-13.52-.6-4.3-.1-8.02-.2-11.58-.51-7.1-.62-11.85-1.97-15.5-4.45l-9.54 14.07-9.55 14.06c10.58 7.19 22.02 9.35 31.64 10.19 4.8.42 9.57.53 13.7.63 4.34.1 8 .2 11.46.5zm-48.7-8.43 9.6-14.03c-4.29-2.94-7.26-6.21-8.67-9.1l-15.29 7.43-15.28 7.44c4.8 9.87 12.68 17.25 20.03 22.28zm-14.36-15.7 15.2-7.6c-.68-1.39-1.38-2.65-1.92-3.65-.6-1.07-1-1.8-1.35-2.5a10 10 0 0 1-.93-2.23l-16.6 3.69-16.59 3.68c.95 4.28 2.5 7.73 3.85 10.35.64 1.25 1.32 2.47 1.82 3.38.54.99.95 1.74 1.32 2.49zm-5.6-12.3 15.85-6.15c-.16-.42.16 0-.42.84a3.4 3.4 0 0 1-1.36 1.13c-.64.3-1.05.26-.96.27l1.73-16.92 1.74-16.9c-12.14-1.25-22.96 4.06-29.22 13.24-6.07 8.87-7.22 20.31-3.2 30.65zm14.85-20.82 15.99 5.76c.25-.7.42-1.13.56-1.46.14-.31.18-.36.11-.25a7.6 7.6 0 0 1-3 2.55l-7.6-15.21-7.6-15.2c-10.14 5.06-13.48 15.32-14.46 18.04zm6.06-8.61 16.97-.9c-.24-4.6-.69-9.47-1.63-14.5l-16.71 3.13-16.71 3.12c.57 3.08.9 6.38 1.1 10.05zm-1.37-12.27 16.96-1.1a7 7 0 0 1-1.02 4.29 9.8 9.8 0 0 1-6.17 4.27l-3.85-16.56-3.86-16.56a24.3 24.3 0 0 0-15.18 11.2 27 27 0 0 0-3.84 15.55zm5.92-9.1 1.71 16.92c1.33-.14 2.5-.39 2.86-.46l-3.4-16.66-3.42-16.65-.14.03h.02q.1-.03.65-.1zm1.16-.2 16.95-1.36c-.5-6.14-1.3-15.29-4.91-23.79l-15.65 6.65-15.65 6.64c1.2 2.81 1.8 6.8 2.32 13.23zm-3.61-18.5 16.27-4.92a30 30 0 0 0-1.06-2.92l-.3-.7-.1-.23v-.01l-15.82 6.22-15.82 6.23.67 1.62.04.08q-.04-.07-.15-.45zm-1.01-2.56-2.4-16.83-1.92.28 2.55 16.81 2.56 16.8 1.61-.23zm-1.77.26-2.64-16.8-3.35.55q-1.63.27-3.18.5l2.65 16.8 2.64 16.8 6.53-1.06zm-6.52 1.05-2.81-16.76q-7 1.17-13.96 2.3l2.7 16.78 2.72 16.79q7.13-1.16 14.16-2.34zm-14.06 2.32-2.77-16.77q-7.35 1.2-14.71 2.46l2.86 16.76 2.86 16.76q7.21-1.24 14.53-2.43zm-14.62 2.45-2.81-16.77c-4.7.79-9.75 1.61-14.78 2.56l3.14 16.7 3.14 16.71c4.6-.86 9.19-1.6 14.12-2.44zm-14.45 2.5-2.9-16.76c-1.25.22-2.72.49-4.24.82l3.68 16.6 3.67 16.6a60 60 0 0 1 2.69-.52zm-3.47.66-11.62-12.4a13 13 0 0 1 3.27-2.26c.89-.43 1.6-.65 2.05-.76.8-.2 1.2-.19.94-.18q-.3.01-1.2-.05l-.97-.07c-.27-.03-.8-.08-1.17-.1l-1.44 16.93-1.44 16.94c.64.05 3.97.42 7.14.34 1.67-.05 3.99-.22 6.5-.86 2.39-.6 6.16-1.93 9.57-5.12zm-10.14 1.11h-17v.02h34v-.02zm0 .02 4.81-16.3c-.32-.1-.12-.11.39.31a7 7 0 0 1 2.23 3.79l-16.52 3.99-16.53 4c3.12 12.9 14.14 18.55 20.8 20.52zm-9.1-8.21 16.7-3.2a29 29 0 0 0-.79-3.14l-.65-2.07a27 27 0 0 1-.68-2.32l-16.63 3.51-16.64 3.5c.49 2.3 1.18 4.47 1.57 5.69.24.74.37 1.13.47 1.48.12.4.05.21-.04-.26zm-2.05-7.22-2.5-16.82-1.89.29 2.52 16.8 2.52 16.82 1.84-.27zm-1.87.28-2.56-16.8-3.37.5-3.35.52 2.56 16.8 2.56 16.81 3.37-.51q1.68-.27 3.35-.51zm-6.72 1.02-2.54-16.8c-4.92.74-9.91 1.54-14.64 2.28l2.63 16.8 2.63 16.8c4.96-.78 9.65-1.54 14.45-2.26zm-14.55 2.28-2.72-16.8-13.1 2.13 2.74 16.78 2.74 16.77 13.06-2.12zm-13.08 2.13-2.66-16.8c-2.12.34-4.22.7-6.21 1.04l2.86 16.76 2.86 16.75c2.02-.34 3.92-.66 5.81-.96zm-6.01 1-2.87-16.76c-1.36.24-3.87.63-6.3 1.23l4.06 16.5 4.07 16.51c.93-.23 1.85-.37 3.91-.73zm-5.11.98-5.81-15.98c1.7-.62 3.37-.88 4.95-.88v34c2.17 0 4.44-.36 6.67-1.17zm-.86.14v-17c1.55 0 2.94.25 4.12.6l-4.86 16.3-4.86 16.28c1.66.5 3.55.82 5.6.82zm-.74-.1.35-17q.44 0 1.04.06l-1.85 16.9-1.85 16.9q1.07.12 1.95.13zm-.46-.04-12.27-11.77-.02.02 12.27 11.78 12.26 11.77.02-.03zm-.03.03 1.2-16.96a8.4 8.4 0 0 1 5.28 2.65c.97 1.06.92 1.63.53.33a49 49 0 0 1-1.15-5.45c-.35-2.08-.94-5.7-1.94-8.92l-16.24 5.02-16.24 5.02c.2.66.42 1.8.93 4.7.4 2.36 1.03 5.97 2.1 9.5 1.05 3.47 2.96 8.37 6.86 12.66a25.7 25.7 0 0 0 17.47 8.4zm-12.32-23.33 16.93-1.52a40 40 0 0 0-3.31-12.37l-15.6 6.75-15.6 6.75c.6 1.42.65 1.89.65 1.92zm-1.98-7.14 14.56-8.77c.4.66.87 1.6 1.23 2.83l-16.3 4.8-16.32 4.8c.6 2.01 1.43 3.72 2.26 5.11zm-.52-1.15 15.43-7.14c-2.64-5.7-3.21-6.2-3.69-8.08l-16.47 4.2-16.48 4.2c1.51 5.92 5.06 12.4 5.79 13.97zm-4.73-11.02 4.4-16.42a4 4 0 0 1 2.27 1.41c.4.53 1.42 2.23 1.03 4.9l-16.82-2.48-16.82-2.48c-1.22 8.31 1.7 15.6 5.56 20.66 3.81 5 9.4 9.06 15.97 10.83zm-9.12-12.6 16.98.75a11 11 0 0 1-.44 2.73q-.22.66-.3.78c-.06.12-.14.29-.44.61l-12.58-11.43-12.59-11.42a32 32 0 0 0-4.92 7.28 26 26 0 0 0-2.7 9.97zm3.22-6.56 16.02-5.68a44 44 0 0 1-1.34-4.27l-16.51 4.02-16.52 4.03a80 80 0 0 0 2.33 7.59zm-1.83-5.93 16.52-4q-.9-3.68-.97-8l-17 .31-17 .32a71 71 0 0 0 1.92 15.37zm-1.44-11.69 17-.3c-.11-5.92 1.84-12.3 5.5-17.84L113.38 277l-14.18-9.38c-7.03 10.63-11.4 23.67-11.15 37.2zm8.33-27.52 14.2 9.36c4-6.08 10.15-11.28 17.61-15.14l-7.8-15.1-7.8-15.1c-11.56 5.97-22.58 14.75-30.4 26.62zm24.01-20.88 7.75 15.13a68 68 0 0 1 9.7-4l-5.32-16.14-5.32-16.15a101 101 0 0 0-14.56 6.03zm12.13-5.01 5.2 16.18a82 82 0 0 1 6.86-1.88l-3.78-16.58-3.78-16.57q-4.9 1.11-9.7 2.66zm8.28-2.28 3.88 16.55 1.67-.38-3.65-16.6-3.65-16.6-2.12.48zm1.9-.43 16.87-2.14c-.54-4.2-1.52-8.2-2.32-11.34-.9-3.47-1.55-5.86-2.01-8.3-.9-4.65-.32-5.83-.03-6.36l-14.78-8.4-14.78-8.4c-6.22 10.95-5.28 21.9-3.8 29.6.72 3.73 1.76 7.55 2.46 10.3a61 61 0 0 1 1.53 7.18zm-2.27-36.53 13.58 10.22c.45-.59.84-1.16 1.06-1.49l.57-.83.18-.25q0 .02-.38.43l-12.24-11.8-12.24-11.8a32 32 0 0 0-3.22 4c-.3.41-.63.91-.75 1.09l-.14.2zm2.77-3.72 14.16 9.41a14 14 0 0 1-4.68 4.34l-8.43-14.76-8.44-14.76a20 20 0 0 0-6.77 6.36zm1.05-1 9.44 14.13a18 18 0 0 0 2.8-2.31l-12.02-12.02-12.02-12.02a16 16 0 0 1 2.36-1.92zm.22-.2 11.94 12.1.04-.04.02-.02.01-.02h.01l.01-.02.04-.03-12.03-12.02-12.02-12.02-.03.03v.01-.01l.02-.02.01-.01.03-.03zm.04-.05 11.09 12.9c1.78-1.54 3.58-3.2 4.97-4.45l-11.4-12.6-11.41-12.61c-1.7 1.53-2.98 2.7-4.32 3.87zm4.65-4.16 11.27 12.73c1.71-1.52 3.83-3.46 5.21-4.71l-11.37-12.64-11.37-12.63c-2.04 1.83-3.3 3.01-5.01 4.53zm5.11-4.62 11.4 12.62 10.6-9.6-11.44-12.58-11.43-12.58-10.52 9.52zm10.56-9.56 11.44 12.58c1.98-1.8 4.46-4 6.72-6.15l-11.65-12.37-11.66-12.37c-1.99 1.87-3.92 3.58-6.3 5.74zm6.5-5.94 11.45 12.57c1.19-1.08 2.49-2.31 3.37-3.14l-11.59-12.44-11.59-12.43c-1.26 1.18-2.07 1.95-3.09 2.88zm3.23-3 11.38 12.63 1.05-.98.39-.36L193 178.26l-11.38-12.63-1.44 1.34zm1.44-1.35 11.63 12.4c-.1.1-.73.69-1.75 1.33a14 14 0 0 1-5.05 1.9l-2.9-16.75-2.91-16.75a20.7 20.7 0 0 0-10.64 5.47zm1.92-1.12 10.74 13.18q-.02 0 .35-.22.38-.21.65-.32c.19-.07.1-.02-.3.06a12 12 0 0 1-3.52-.04l2.84-16.77 2.83-16.76c-5.98-1.02-11.42.74-14.27 1.86-3.44 1.35-7 3.35-10.06 5.83zm10.76-4.11 2.35 16.84c2.09-.3 4.5-.7 6.07-.95l-2.6-16.8-2.62-16.8c-2.31.37-3.76.62-5.55.87zm5.81-.9 2.64 16.79 9.8-1.54-2.63-16.8-2.64-16.79-4.9.77-4.9.77zm9.8-1.54 2.68 16.78 19.82-3.2-2.74-16.79-2.73-16.78c-6.63 1.08-13.13 2.15-19.7 3.2zm19.76-3.2 2.72 16.78q20.23-3.28 40.44-6.7l-2.84-16.76-2.84-16.76a5535 5535 0 0 1-40.2 6.65zm40.32-6.68 2.84 16.76c13.78-2.34 25.94-4.32 39.87-6.67l-2.84-16.77-2.83-16.76c-12.67 2.14-27.11 4.51-39.88 6.68zm39.87-6.68 2.83 16.77 40.48-6.82-2.82-16.77-2.83-16.76-40.48 6.82zm40.49-6.82 2.84 16.76c12.83-2.18 25.99-4.33 39.02-6.64l-2.96-16.74-2.97-16.74c-12.88 2.28-25.69 4.38-38.78 6.6zm38.9-6.62 3.13 16.7 1.13-.2 1.24-.23-3.13-16.71-3.14-16.71-1.13.2-1.24.24zm2.37-.44v17h.2v-34h-.2zm.2 0v17h.14a21 21 0 0 0 1.72-.1c1.19-.11 2.9-.4 4.81-1.17l-6.31-15.78-6.31-15.78c1.8-.72 3.38-.99 4.44-1.1.92-.09 1.7-.07 1.5-.07zm.36-.05 3.69 16.6.09-.03.07-.01.1-.03h.07l-3.34-16.68-3.33-16.67-1.04.22zm.68-.15.01 17a17 17 0 0 0 3.44-.34l.07-.01h-.03l-.7.12a16 16 0 0 1-2.42.18v-34a17 17 0 0 0-3.49.35l.13-.02.56-.1a16 16 0 0 1 2.43-.18zm.37-.05 2.87 16.76c1.15-.2 2.7-.53 3.06-.6l-3.34-16.67-3.33-16.67c-1.36.27-1.57.33-2.13.43zm2.6-.51 1.87 16.9c.22-.03 1.44-.15 2.86-.5l-4.13-16.5-4.12-16.5q.85-.18 1.29-.25l.34-.05zm.6-.1 2.2 16.86.46-.05 1.16-.14-2.1-16.86-2.11-16.87-.57.06-1.24.14zm1.71-.2-1.65 16.92-.54-.06 2.36-16.83 2.37-16.84c-.4-.06-.74-.09-.88-.1zm.17.03 1.99 16.88h-.02.05l.32-.04-2.07-16.87-2.07-16.88h.06-.09l-.15.02zm.27-.03-4.26-16.46c.16-.05.35-.09.25-.06l-.53.13c-.57.16-1.73.5-3.08 1.18l7.58 15.22 7.58 15.22c-1.35.66-2.48 1-3.04 1.16l-.5.13.26-.07zm-.04 0 4.12 16.5-.72.16-.32.06h-.01.08l.47-.1-3.53-16.63-3.53-16.63.49-.1-.04.01-.37.07-.76.17zm.1-.01 2.08 16.87-.28.03h-.01.1l.26-.04-2.1-16.87-2.11-16.86.14-.02.1-.01.05-.01h.02-.09l-.1.02-.16.02zm.04 0v-17l-.85.02.1-.01.46-.01.27 17 .26 17 .47-.02h.12-.23l-.6.01zm-.02 0 3.38 16.65c-.5.1-.87.15-1.01.17l-1.88-16.9-1.88-16.9c-.49.06-1.19.15-2 .32zm-64.3 228.53-1.55-16.93c-2.84.27-5.96.88-7.16 1.09l2.87 16.75 2.86 16.76c2.69-.46 3.45-.64 4.54-.74zm-5.85.91-2.84-16.75q-3.7.62-7.32 1.25l2.88 16.75 2.88 16.76 7.25-1.25zm-7.28 1.25-2.88-16.75-7.48 1.28-7.48 1.28 2.88 16.76 2.87 16.75 7.48-1.28 7.48-1.28zm-14.96 2.57-2.92-16.75q-5.7.98-11.55 2.07l3.12 16.7 3.13 16.72c3.67-.69 7.35-1.33 11.13-2zm-11.35 2.03-3.16-16.7-2.7.5-2.73.52 3.17 16.7 3.16 16.7 2.7-.5 2.72-.52zm-5.42 1.02-3.24-16.68-1.27.24 3.24 16.7 3.24 16.68 1.27-.25zm-1.27.25-16.48 4.2v-.03.01l.02.07.02.1 16.47-4.23 16.46-4.24.01.05v-.04l-.03-.08zm.03.12-16.5 4.12 1.57 6.08 16.44-4.31 16.45-4.32q-.76-2.89-1.47-5.7zm1.51 5.89-16.44 4.3 1.45 5.5 16.43-4.35 16.44-4.35-1.43-5.4zm1.44 5.45 13.3 10.6a4.7 4.7 0 0 1-3.38 1.8 5.2 5.2 0 0 1-4.05-1.47l12.39-11.64 12.4-11.64c-13.44-14.3-34.04-10.69-43.95 1.75zm18.26-.71 6.58 15.67a6 6 0 0 1-2.19.52q-.62 0-.88-.09l4.31-16.44 4.31-16.45c-5.13-1.34-11.97-1.71-18.71 1.12zm7.82-.34 10.97 12.99a68 68 0 0 1 3.75-2.88c1.5-1.1 3.52-2.58 5.51-4.24L338 378.88l-10.92-13.03c-1.01.85-2.15 1.7-3.82 2.92-1.51 1.11-3.55 2.6-5.54 4.29zm9.32-7.17 9.08 14.37a36 36 0 0 0 3.4-2.4l.9-.7.4-.28c.14-.1-.27.2-1.08.51-.9.35-2.29.7-4 .66l.47-17 .46-17c-7.06-.18-12.25 2.88-14.8 4.59-1.28.86-2.48 1.8-3.04 2.23l-.88.66zm9.17-4.84 17 .4c.11-5.39-1.43-9.95-2.16-12.1l-16.09 5.5-16.09 5.49.4 1.28-.03-.19a6 6 0 0 1-.03-.77zm-1.25-6.2 13.66-10.13-.2-.25c0-.02-.04-.06-.04-.06v-.02l-13.58 10.23-13.58 10.24.07.1.02.02.02.02q0 .02 0 0l-.03-.03zm-199.89-77.4h-17c0-1.08.13-1.97.25-2.6l16.68 3.3 16.68 3.3c.21-1.08.4-2.45.4-4zm-.07.7 16.34 4.7c.06-.21.37-1.26.56-2.6l-16.83-2.42-16.83-2.4q.14-.88.27-1.4l.15-.57zm.07-.32h17v-.39h-34v.4zm264-151.74-2.1-16.87.13-.02h.1l.04-.01h.02-.08l-.1.01-.14.02 2.07 16.88 2.07 16.87-.21.02h-.05.08l.25-.03zm-.06 0 4.26 16.46q-1.85.49-3.92.53l-.26-17-.27-17q-2.15.06-4.07.56zm.08 0-3.39-16.67.24-.04.05-.01-.14.03q-.12 0-.32.06l3.53 16.63 3.53 16.63-.3.06-.1.02h-.03.06l.25-.06z" mask="url(#crests-youtube-path-1-outside-1_35_2049)"/></g><path fill="#df3a00" d="M299.01 375.98c4.01 13.25 5.26 27.36 5.4 41.14-.29 6.92-2.51 15-8.46 18.95-4.05 2.7-8.7 4.77-13.54 4.77a15 15 0 0 1-3.74-.44c-6.16-1.5-9.12-8.46-9.34-14.25q.09-.86 0-1.94a3.6 3.6 0 0 1-.54-1.97c1.27-13.55.83-28.07-3.35-41.25l-.44-.34q-.22-1.8-.56-3.57a31 31 0 0 0-1.1-3.94q-.33-.85-.68-1.66c-.25-.49-.6-1.05-1.15-1.2q-.24-.06-.5-.05-1.06-2.06-2.31-4c-1.72-2.92 1.49-7.1 4.44-4.33a64 64 0 0 1 2.67 4.52c3.32-4.6 10.15-6.85 15.62-6.82q2.69.07 5.26.93c.17-4.67 6.72-3.94 6.36.66a79 79 0 0 1 2.4 5.06q.26.3.53.58 0 .33.07.67.1.58.27 1.12.23.84.49 1.64a29 29 0 0 0 1.42 3.67q.33.99.8 1.93l-.07.1zm87.21-9.22c.07 13.6-4.72 27.11-14.13 37.04-3.72 2.71-5.74 7.16-9.83 9.4-4.6 2.53-9.65 3.97-14.86 3.4-9.2-1.26-17.21-10.5-13.42-19.92 1.02-5.82 5.74-6.28 10-8.82 6.3-2.8 10.92-10.1 9.19-16.9-.61-3.81-2-7.38-3.92-10.7-1.98-4.3-1.63-9.59.08-13.92 2.57-7.6 11.69-10.07 18.95-9.07 6.67 2.1 12.66 6.9 15.06 13.65 2.86 4.64 2.61 10.56 2.88 15.86zm104.85-112.7.12-.1q-.02 1.1-.07 2.2-.21 3.45-1.1 6.8a41 41 0 0 1-2.62 6.7 39 39 0 0 1-9.12 11.75 47.2 47.2 0 0 1-30.58 11.79h-.76a52 52 0 0 1-9.46-.96 3 3 0 0 1-1.74-1.12 3.7 3.7 0 0 1-.68-2.72c.2-1.66 1.7-3.37 3.5-2.8l.48.1a16.4 16.4 0 0 1-2.34-11.8c.12-1.17 1.1-2.98 2.47-4.76q-.78.06-1.6.05-1.23 0-2.44-.12h-.22q-.11.01-.22-.05h-.2c-1.75-.27-2.7-2.13-2.56-3.77.15-1.7 1.47-3.1 3.15-2.93h.05s.12 0 .17.02q.1 0 .2.03h.17q.6.08 1.22.12 1.75.07 3.5-.12 2.59-.35 5.1-1.1c1.84-.59 3.63-1.3 5.26-2.08l.25-.12h.05a48 48 0 0 0 4.55-2.74l.1-.05a43 43 0 0 0 3.83-3.15q1.42-1.39 2.67-2.91a30 30 0 0 0 1.73-2.67v-.05c.27-.53.66-1 1.2-1.32q.45-.27.93-.34c5.7-4.72 14.15-5.3 19.5.49q.38.3.74.78c1.27.44 2.3 1.83 2.98 2.89q.3.1.57.31a3.4 3.4 0 0 1 1.2 1.86q.14.49.12.98l-.12.98z"/><path fill="#fff" d="M489.18 258.7c-9.88-2.64-18.07-8.7-27.2-12.94q.45.35.91.5a3.8 3.8 0 0 1-2.22-2.33 7 7 0 0 1-1.71-3.62c-.78-4.79 4.64-8.8 8.92-7.43 7.38 2.32 14.06 6.68 20.93 10.22 3.76 1.88 9.8 5.45 7.68 10.46-.96 3.16-3.77 6-7.26 5.16zM308.86 408.2c2.28 13.02-3.62 26.4-11.7 36.4-2.45 2.59-4.8 5.57-8.05 7.16-3.84 1.22-8.12 2-12.08.78-7.38-2.71-10.9-11.3-11.86-18.58-1.15-7.82 1.15-15.84-.6-23.6-.28-1.58.7-3.49 2.34-3.83 1.4-.95 2.64.27 3.96.64 3.81 1.58 8 1.41 12.05 1.24 4.55-.41 8.93-1.17 13.03-3.22 4.67-3.48 11.7-4.23 12.89 3zm68.93-18.64c2.34.76 2.8 3.67 2.76 5.82-.07 6.26-6.02 10.37-9.93 14.57-6.67 7.6-16.6 10.37-26.38 9.05-4.6-1.37-9.46-3.25-12.54-7.1-3.32-4.61-5.6-11.63-2.96-16.98 1.66-3.4 5.09-5.14 7.95-7.34 3.5-2.98 7.36-5.45 10.68-8.55 1.52-1.4 3.5-.27 4.5 1.2.76 1.1.56 2.44 1.59 3.37 3.81 4.15 9.51 4.89 14.67 6.18 3.23 1.06 6.43-.83 9.66-.2z"/><path fill="#fff" d="M487.4 249.68c-.39-1.54.25-3.7 1.9-4.2 6.05-3.7 3.85-13.62-1.5-17.05-5.78-3.2-16.53-2.86-18.34 4.8 3.76 5.86-5.8 8.7-5.9 1.66-.29-14.08 17.07-18.75 27.36-12.05 5.4 3.59 7.6 10.46 7.85 16.7.51 4.37-7.6 18.04-11.37 10.14"/><path fill="#fff" d="M488.38 248.67a3 3 0 0 1-1.79-1.96c-3.1 1.2-4.5-2.86-3.98-5.33-1.69 2.79-5.53 1.45-5.55-1.66-1.35 1.37-3.74.42-4.33-1.22-2.5 1.59-4.77-1.32-4.28-3.77-2.9-2.2-.9-6.35.5-8.92.73-1.83 2.73-3.86 4.74-2.4 1.22-1.9 4-1.39 4.86.57 1.52-2 4.67-.44 4.99 1.61 1.76-3.52 5.91-1.2 5.67 2.17 4.77-.44 3.52 6.12 3.28 9.15 1.41 1.66.49 3.84.34 5.77-.2 2.47-1.13 6.9-4.48 6.01z"/><path fill="#fff" d="M489.59 242.44a9.5 9.5 0 0 0-2.44-4.96c-2.86-.98-2.57-6.63.9-6.63 3.76.69 5.55 5.14 6.68 8.44 2.07 4.2-3.2 8.28-5.14 3.15m-20.02-16.16q-.04-.27-.05-.52v-.51c-.24-2.37-.44-4.77-.7-7.14-.18-1.47-.38-2.93-.52-4.4q-.21-2.32-.5-4.62c-.06-.64-.09-1.32-.19-1.98q-.14-.51-.14-1.03v-.07c-.05-.64.12-1.3.41-1.86a3 3 0 0 1 1.88-1.54h.03q.59-.1 1.1 0h.05a3 3 0 0 1 1.49 1.03q.36.47.54 1.02.12.32.17.69v.17q.06.37.05.73c.31 3.47.73 6.92.98 9.93q.21 2.41.5 4.79c.15 1.37.25 2.79.5 4.13.3 1.62-.64 3.57-2.32 3.91q-.25.05-.5.05c-1.46 0-2.68-1.37-2.85-2.8z"/><path fill="#fff" d="M474.2 226.77c-.81-3.77-1.55-7.5-2.01-11.35-.25-2.03-.54-4.08-.64-6.13-2.86 1.24-4.99-1.89-4.03-4.5a6.8 6.8 0 0 1 1-4.9c2.57-3.56 9.12-3.02 10.66 1.26 1.15 7.45.05 15.25 1.42 22.76.12 1.3-.3 2.71-1.42 3.44-.9 2.5-4.52 1.98-4.99-.58"/><path fill="#fff" d="M481.72 224.35c-1.9-.22-2.96-2.45-2.57-4.18v-.03l.08-.41q.03-.26.14-.52c.66-2.98 1.2-5.99 1.79-8.97.44-2.22.88-4.45 1.22-6.67q0-.4.12-.76 0-.09.07-.22.07-.2.18-.4l-.15.4c.37-1.1 1.2-2.06 2.47-2.1 1.9-.1 2.98 1.73 3.06 3.44q-.01.63-.18 1.23c-.53 2.12-.9 4.32-1.32 6.47q-.55 2.9-1.07 5.8l-.66 3.47q-.01.23-.05.44c0 .12-.05.22-.07.34v.13c-.3 1.34-1.28 2.56-2.72 2.56h-.32z"/><path fill="#fff" d="M484.17 226.96q-.18-.44-.24-.93c-1.9-.66-2.35-3.03-1.83-4.79.88-4.45 2.12-8.8 3.22-13.18-3.47 0-3.25-4.4-2.22-6.62 2.98-6.87 12.15-3.57 11.4 3.57-.8 6.55-3.65 13.23-4.65 19.66 0 3.54-3.7 6.23-5.68 2.27zm-13.36 7.26a8.67 8.67 0 0 1-6.94-9.56c.2-3.71 3.88-6.87 7.5-4.98 2.03.9 3.67 3.17 2.84 5.42 4.23 2.45 1.78 10.69-3.37 9.12zm-.44-7.11-.1-.07.13.07q0-.07.04-.17a5 5 0 0 1-.78-.66q.23.52.71.83"/><path fill="#fff" d="M481.92 240.78c-7.9-3.57-.5-13.55 4.66-16.19.47-2.15 2.82-2.4 4.55-3 4.75-1.15 7.43 3.74 7.24 7.87-.05 2.74-2.5 4.79-4.5 6.35-2.35 1.6-5.04 2.55-7.38 4.14-1.32.98-2.96 1.49-4.55.83zm4.79-8.44s.17-.1.27-.14c1.1-.61 2.3-1.08 3.37-1.71-1.5-.25-2.69.85-3.62 1.85zM361.74 456.9c-7.92-.85-15.55-3.86-23.22-5.62-7.02-1.56-14.16-3-20.15-7.24-3.37-2.3-4.79-6.43-5.4-10.29-1.17-4.57-2.5-9.53-3.45-14.08a133 133 0 0 1-2.8-14.82c-.65-3.3-1.26-6.62-.37-9.95.83-6.8 7.65-9.87 13.1-5.62 1.3 1.37 3.08 2.76 3.2 4.77.12 4.25-5.18 4.74-6.26.78-.97-.86-2.2-.88-3.42-.7-1.54 1.56-1.54 4.22-1.37 6.3.8 4.57 1.64 9.9 2.44 14.32 1.08 4.75 2.33 9.44 3.48 14.14 1.05 2.95.93 6.43 3.03 8.92 5.16 4.28 11.9 5.28 18.21 6.84 7.9 1.7 15.23 4.75 23.25 5.68 3.8.2 3.67 6.87-.27 6.57"/><path fill="#fff" d="M364.72 457.17c-10.42-1.32-20.63-5.3-30.39-9.1-3.64-1.95-7.9-2.68-11.05-5.5-3.4-2.17-5.4-5.64-7.58-8.94-2.86-7.39-3.27-15.21-4.6-22.89-.63-5.74-1.85-11.83.13-17.4.83-2.23 3.86-2.96 5.35-.93 1.03 1.37 1.35 3.15 1.74 4.79 1.51 10.98.34 22.83 5.16 33.03 8.6 9.58 21.97 12.03 34 14.6.71-5.92 9.2-2.55 12.91-1.77 2.81-.12 5.72-.44 8.36-1.54.5-1.58 2.03-2.25 3.65-1.98a2.5 2.5 0 0 1 2.1.5l.27-.15c-2.72-3.33 1.66-7.83 5.23-5.97 4.3 2.84 6.82 9.12 5.5 14.13-4.28 10.4-21.32 9.12-30.7 9.12z"/><path fill="#ff9cb1" d="M374.69 404.22c14.2 3.47 20.66 19.9 15.42 33.2-.78 2.56-2.88 7.33-5.89 4.91-7.7 1.93-15.57 3.1-23.57 2.79-7.28-.47-14.5-1.05-21.34-3.84-3.4-1.73-15.33-5.01-17.85-9.58a3.7 3.7 0 0 1-.93-1.94c-1.93-9.75-3.83-19.33-5.28-29.11a3.3 3.3 0 0 1-.88-2.79q-.14-.6-.05-1.15c1.3-6.01 10.62-6.11 15.58-6.53 1.07-.07 1.93.57 2.47 1.42a3.44 3.44 0 0 1 1.86 4.99c-4.4 4.84-2.06 13.67 4.47 15.1 2.4.06 5.18-.7 6.94-2.34 1.1-2.69.9-6.4 3.55-8.17 2.03-.95 4.47-1.07 6.7-.97 4.79-.4 9.5-1.27 14.23-2.08 3.96-1.42 7.04 1.27 5.15 5.08q-.36.49-.6 1z"/><path fill="#fff" d="M313.56 484.03c-4.72.25-9.5 0-14.18-.46-7.38-.12-14.89-.17-21.93-2.42a76.5 76.5 0 0 1-28.19-22.05c-7.72-7.02-7.53-24.5 6.29-21.69 1.73.37 3.54 1.25 4.08 3.06 1.15 2.8-1.96 6.2-4.48 3.81a42.5 42.5 0 0 0 10.35 18.24c4.35 3.37 9.56 5.4 14.35 8.02 13.57 5.1 28.21 2.15 42.32 1.86.58-.96 1.66-1.67 2.78-1.23 3.26 1.64 6.97.79 10.47.62 2-.2 4.08-.93 5.43-2.45-1.1-1.69-.86-4.6 1.22-5.4 3.05-.66 5.45 2.25 7.72 3.88 2.99 2.6 3.55 8.1.57 10.88-2.7 1.86-6.12 2.57-9.27 3.13a65 65 0 0 1-27.48 2.23z"/><path fill="#fff" d="M319.38 486.38c-9.61.27-19.22-.5-28.83-.59-8.68-.22-17.06-1.12-24.06-6.8-7.72-5.55-15.74-11.68-20.12-20.36-3.83-6.33-6.2-17.8 2.67-20.93 1.49-.46 3.47-.3 4.94-.24 1.95-.32 3.37 1.34 3.45 3.2.07 1.8-1.23 3.71-3.06 3.5-8.75-1.6-5.55 6.89-2.94 11.46 2.4 4.72 6.26 8.41 10.18 11.71 4.79 3.62 9.36 7.7 15 10.03 8.42 2.3 17.41 1.63 26.04 1.98 8.37.68 16.82.34 25.21.27 5.72-.25 11.86.56 16.9-2.67 3.59-5.43-2.35-5.7-3.06-10.2.83-6.91 6.55-2.07 8.53 1.42 1.69 3.1 2.62 7.02 1.9 10.52-.87 3.03-3.8 4.69-6.74 5.3-8.07 3.57-17.4 1.96-26.01 2.37z"/><path fill="#ff9cb1" d="M340.4 442.16c3.84 7.06 5.5 15.45 4.2 23.42-.26 1.34-.66 3.52-1.49 5.08-.36 3.18-5.74 4.04-8.73 4.3-9.82 1.2-19.72 2.33-29.65 2.06-6.82-.54-13.81-.56-20.39-2.71-9.83-4.09-19.07-10.57-25.67-18.98-1.64-2.34-3.16-4.32-4.77-6.6-.83-1.17-1.64-2.54-1.22-4.06q.24-.8.68-1.44.05-.25.13-.46c2.05-3.94 4.35-7.97 7.28-11.32 1.27-1.35 2.62-3.55 4.7-3.55 1.73 0 2.95 1.25 3.4 2.86.63 3.3.1 6.78.02 10.13.2 1.85-.61 5 1.61 5.79 2.99 1.03 5.19-.83 6.82-3.18 2.89-3.32 2.84-7.28 4.38-11.05-.2-.95-.34-1.9-.61-2.71-.83-2.67-1.79-5.75.15-8.17 3.59-3.18 8.84-3.6 13.3-5.01 4.71-1.25 9.65-3.1 14.57-2.06 5.99 1.2 11.53 2.82 10.46 10.25a10 10 0 0 0-.3 2.54q1.2.06 2.4.25c8.56 1.27 14.4 7.65 18.73 14.62"/><path fill="#ae2d00" d="m411.8 349.43-.05.05zm-.37.24-.1.08zm-.23.3-.05.02zm-.8.58-.07.05s.05-.05.08-.05m-210.87 38.22c-2.6-.88-5.6-1.62-7.34-3.92-.88-1.7-2.25-3.66-2.1-5.62v-.05l-.02-.46c-.27-1.62-.62-3.23-.9-4.84l-1.35-7.46-2.81-15.18-5.73-30.68c-1.93-10.27-3.8-20.54-5.74-30.81-1.93-10.3-3.79-20.6-5.75-30.9a4621 4621 0 0 0-5.99-31.17l-.27-1.32c-.1-.5-.22-1-.22-1.52q0-.9.4-1.71c-.4-3.64-.47-7.31 2-10.34 2.3-2.94 6.94-5.94 10.76-4.9l2.59-.38c2.81-.44 5.62-.93 8.44-1.37l17.87-2.96c12.17-2 24.35-4.08 36.55-6.06a9019 9019 0 0 0 37.5-6.26q18.48-3.08 36.97-6.24l36.67-6.26q5.53-.92 11.05-1.93c3.1-.56 6.26-1.05 9.36-1.76h.08l-.05.03c.05 0 .1-.05.14-.05h.03q.37-.14.78-.12h.3a13 13 0 0 1 4.93.2c2.7.82 4.99 2.78 6.24 5.22q.18.11.29.25.66.67.88 1.56l.3 1.45c0 .1.04.17.04.26v.05q.06.32.05.64c.27 1.61.61 3.23.9 4.84l1.35 7.46 2.81 15.18 5.72 30.68c1.93 10.27 3.82 20.54 5.75 30.8 1.93 10.3 3.79 20.62 5.74 30.9q2.94 15.6 6 31.18l.26 1.32c.1.49.22 1 .22 1.52q0 .9-.39 1.7c.34 3.11.44 6.24-1.08 8.98q-.27.24-.56.41l.13-.1-.22.18s.1-.07.12-.1q-.23.14-.44.32-.07.03-.1.07l.05-.02s-.05.02-.07.05q-.2.11-.4.27l-.5.36.02-.02-.23.17q.08-.03.13-.1l-.9.64q-1.79.77-3.58 1.59a256 256 0 0 0-5.45 2.59l-2.32.36c-2.81.44-5.62.93-8.44 1.37l-17.87 2.96c-12.17 2-24.35 4.08-36.55 6.06q-18.76 3.1-37.5 6.26a9695 9695 0 0 0-36.97 6.24l-36.67 6.26q-5.53.92-11.05 1.93c-3.1.56-6.26 1.05-9.34 1.76h-.19q-.31.11-.66.12c-.76.4-1.62.61-2.47.61q-.66 0-1.28-.17z"/><path fill="#ae2d00" d="M404.74 351.6c-.86-1.39-.78-3.66.61-4.72l.08-.07c.1-.07.14-.14.24-.22.1-.1.2-.14.3-.22 8.7-7.4 17.23-15.06 25.81-22.61a737 737 0 0 0 6.46-5.77c1.51-1.4 3.1-2.74 4.62-4.18.39-.47.88-.83 1.49-.96 1.17-.27 2.3.37 2.9 1.35 1.18 1.9.42 4.86-1.9 5.3h.17q.2-.08.4-.12s.21-.12.33-.17l.27-.2c-1.73 1.32-3.35 2.86-5 4.28-2.36 2-4.65 4.06-6.95 6.09a2265 2265 0 0 0-13.86 12.27c-2.7 2.4-5.38 4.75-8.05 7.14l-.41.32q.08-.05.12-.1l-.22.17s.1-.07.12-.1q-.23.15-.44.32l-.1.08.05-.03-.05.05-.34.25-.05.02-.51.37.02-.03-.02.03-.2.14q.08-.03.13-.1-.47.35-.9.64-1.77.77-3.58 1.59l-.46.22a3 3 0 0 1-1.08-1.03"/><path fill="#ae2d00" d="M409.53 344.37a3.6 3.6 0 0 1-.85-3.25c-1.4-1.74-.47-4.01 1-5.38q-.21-.15-.4-.32-.42-.46-.65-1.05-1.08.66-2.15 1.27c-1.35.76-2.79-.07-3.4-1.32-2.67 2.96-6.33 2.3-5.77-2.1.61-1.93 2.37-4.92 4.72-4.26 5.06-4.4 10.07-8.85 15.42-12.9 2.1-2.1 5.58-2.89 6.38.83 1.72-1.52 4.48-2.62 5.6.12 2.28-2.08 6.12-3.03 6.53 1.1a3 3 0 0 1 .56.41c6.02-4.81 8.98 5.77 2.6 5.92a499 499 0 0 0-19.15 15.23c-2.4 1.96-4.86 3.87-7.11 6-.98.73-2.42.68-3.33-.25z"/><path fill="#df3a00" d="M235.5 345.47c.36.86.38 1.93.07 2.84q-.13.32-.27.6c-.27.47-.61.89-1.08 1.16-1.47 1.44-2.88 3-4.3 4.5q-2.58 2.7-5.16 5.45l-10.37 11c-2.56 2.74-5.15 5.43-7.72 8.19l-3.57 3.81-1.71 1.84c-.71.73-1.35 1.59-2.37 1.85q-.27.08-.52.08c-.93.83-2.3 1.2-3.96.51-2.32-.56-4.23-3.76-4.4-6.6a3 3 0 0 1-.32-1.42l-.17-1.12c-.8-4.94-1.73-9.83-2.61-14.75q-1.32-7.43-2.72-14.86l-5.65-30.75a6664 6664 0 0 0-5.67-30.52q-2.84-15.22-5.7-30.43l-2.73-14.55c-.8-4.26-1.57-8.53-2.45-12.79q-.15-.4-.2-.83c-.46-2.96-1.04-6.2-.7-9.26a3.7 3.7 0 0 1 .78-3.18l.15-.37c0-.73.24-1.44.63-2.05q.25-.39.61-.69l.18-.14.05-.05q.5-.75 1.2-1.03c2.39-2.05 4.71-4.25 7.06-6.36q6.49-5.83 12.93-11.7 5.38-4.89 10.76-9.81l4.99-4.6q.37-.37.78-.73l.78-.73.1-.1.05-.07a3.2 3.2 0 0 1 2.51-1.28c.62 0 1.1.25 1.5.61q.4.29.66.71.32.52.39 1.1.3 1.6-.61 3.04c-.3.46-.71.83-1.13 1.17q-1.42 1.27-2.88 2.54l-2.55 2.28-.39.39c1.98 11.02 3.72 22.05 5.87 33.05 3.96 17.6 9.07 35.1 12.42 52.83 2.4 11.3 3.18 22.96 5.4 34.28 1.42 9.27 3.13 18.6 5.19 27.7a67 67 0 0 1 1.85 9.02l.15-.17c.17-.27.37-.49.4-.51a2.8 2.8 0 0 1 2.2-.88c1.02.1 1.85.85 2.24 1.78"/><path fill="#ff5c23" d="M449.55 304.22c.1.5.22 1 .22 1.52q0 .9-.39 1.71c.4 3.64.47 7.31-2 10.34-2.3 2.94-6.95 5.94-10.76 4.9l-2.6.38c-2.8.44-5.61.93-8.43 1.37q-8.93 1.46-17.87 2.96c-12.17 2-24.35 4.08-36.55 6.06q-18.76 3.1-37.5 6.26a9695 9695 0 0 0-36.97 6.24l-36.67 6.25q-5.53.94-11.05 1.94c-3.1.56-6.26 1.05-9.34 1.76h-.2c-.22.07-.41.12-.66.12a5.2 5.2 0 0 1-3.74.44c-2.59-.88-5.6-1.61-7.33-3.91-.88-1.71-2.25-3.67-2.1-5.63v-.04l-.03-.47c-.27-1.61-.6-3.23-.9-4.84l-1.35-7.46-2.8-15.18-5.73-30.68c-1.93-10.27-3.81-20.54-5.74-30.8-1.94-10.3-3.8-20.62-5.75-30.9a4685 4685 0 0 0-5.99-31.18l-.27-1.32c-.1-.49-.22-1-.22-1.52q-.01-.9.4-1.7c-.4-3.65-.47-7.32 2-10.35 2.3-2.93 6.94-5.94 10.76-4.89l2.59-.39c2.8-.44 5.62-.93 8.43-1.37q8.94-1.47 17.87-2.96c12.18-2 24.35-4.08 36.55-6.06q18.77-3.1 37.5-6.26 18.5-3.08 36.97-6.23l36.68-6.26q5.52-.93 11.05-1.93c3.1-.57 6.25-1.05 9.36-1.76h.07l-.05.02c.05 0 .1-.05.15-.05h.02q.38-.13.79-.12h.29c1.64-.27 3.32-.17 4.94.2a10.6 10.6 0 0 1 6.23 5.23q.19.1.3.24.66.67.88 1.57.17.72.29 1.44c0 .1.05.17.05.27v.05q.06.31.05.63c.27 1.62.6 3.23.9 4.84l1.35 7.46 2.8 15.18 5.73 30.68c1.93 10.27 3.81 20.54 5.75 30.8 1.93 10.3 3.79 20.62 5.74 30.91a4685 4685 0 0 0 5.99 31.17l.27 1.32z"/><path fill="#ffdcd0" d="M359.23 230.78c5.77 3.84 9.17 11.86 5.03 18.07-.48.78-1.1 1.66-1.83 2.4a2.8 2.8 0 0 1-1.54 1.36c-9.97 9-20.9 16.75-32.51 23.45-4.75 3.32-9.83 5.99-14.67 9.1-4.38 2.36-9.22 5.98-14.45 4.56-2.15-.66-4.33-3.05-4.97-5.5a4 4 0 0 1-.41-.98l-.1-.5c0-.13-.05-.28-.05-.45-.17-1.71-.46-3.45-.7-5.16l-1.4-9.95-2.81-19.75q-1.25-8.77-2.52-17.53-.64-4.43-1.3-8.85c-.34-2.28-.63-4.55-1-6.8l-.02-.12c-1.4-3.3-.79-8.04 3.08-9.1 2.59-.92 7.16-.68 9.5 1.25 2.09.88 4.21 1.66 6.32 2.5q4.5 1.8 9.04 3.54l18.46 7.19 15.52 6.01 7 2.7 3.27 1.21c.42.15.86.35 1.27.47q.15.02.25.07.77.1 1.59.74z"/><path fill="#ffdcd0" d="M300.4 294.93c-6.37-3.3-5.12-11.83-6.44-17.87a6602 6602 0 0 1-6.9-37.33c-.66-3.28-.56-6.73-.93-10.03-.78-6.45-2.81-12.83-2.74-19.36.4-4.13 5.75-3.89 5.92.22 1.3 17.53 4.89 36.72 8.12 54.13a217 217 0 0 1 3 17.67c.6 2.08 0 6.53 3.06 6.38 2.69-3.51 6.75 1.32 4.5 4.28a6.1 6.1 0 0 1-7.6 1.94z"/><path fill="#ffdcd0" d="M303.79 295.54c-4.04.24-6.53-3.2-7.41-6.75-1.88-3.3-2.23-7-2.64-10.7-.27-2.82-1.76-7.66 1.88-8.8 2.74-.55 4.65 2.73 3.42 5.08.37 4.89 1.2 9.56 3.38 14 2.52 1.64 4.94-.7 6.52-2.59 4.85-4.18 10.1-7.35 15.26-11.12 9.59-6.14 18.19-13.6 27.46-20.22 2.98-2.25 5.77-4.77 8.58-7.21 2.96-2.44 6.7-5.77 1.76-8.56-2.81-1.59-8.31-2.25-7.48-6.57 1.17-4.75 5.84-1.25 8.46-.13 5.62 2.06 9.26 9.1 6.1 14.57-5.35 7.88-14.54 13.43-21.9 19.1-9.68 8-20.17 14.86-30.41 22.08-4.38 2.64-7.16 8.48-12.96 7.84z"/><path fill="#498ade" d="M124.45 319.84v-.4q0 .5-.12.94v-.05q.08-.25.12-.49m69.2 44.06v.05c-.06.17-.1.29-.13.46v.39q0-.48.12-.93zm5.3-.57a3.9 3.9 0 0 1-.27 3.57q.14.52.14 1.03c0 1.66-1.12 3.23-2.59 3.23l-.51.02h.44q-.77.06-1.54.2-1.9.25-3.81.54l-9 1.34q-9.64 1.43-19.3 2.96l-14.3 2.22-6.67 1.05q-2.47.38-4.94.83-.28.12-.63.15h-.1l-.27.05a2 2 0 0 1-.41.05c-1.18 0-2.1-.93-2.57-2q-.33-.13-.59-.32a3.3 3.3 0 0 1-1.22-2l-.05-.18v-.1q-.07-.37-.17-.7a4 4 0 0 1-.1-.57v-.12q-.09-.31-.1-.54v-.12l-.1-.32-.1-.49c-2.6-13.05-5.4-26.08-8.26-39.11l-1.7-7.8c-.4-1.76-.72-3.57-1.2-5.28-.52-1.1-.4-2.55.26-3.57q-.14-.54-.14-1.03c0-1.66 1.12-3.23 2.59-3.23l.51-.02h-.44q.78-.06 1.54-.2 1.91-.25 3.82-.54l9-1.34q9.63-1.44 19.28-2.96l14.3-2.22 6.68-1.06c1.64-.26 3.3-.5 4.94-.83q.28-.1.63-.14h.1l.27-.05c.12 0 .27-.05.42-.05 1.17 0 2.12.95 2.56 2q.33.11.59.32c.7.52 1.05 1.27 1.22 2q.01.1.05.18v.07q.07.38.17.71.07.29.1.56v.13q.09.31.1.53v.13l.1.31c.04.22.1.44.1.5 2.6 13.05 5.4 26.08 8.26 39.1l1.7 7.8c.4 1.77.72 3.58 1.2 5.29z"/><path fill="#498ade" d="M194.05 368.32c-1.12-1.24-1.22-3.5-.07-4.76 1.51-1.72 3.18-3.33 4.74-5l6.14-6.5 1.02-1.1 3.37-3.62.3-.31 2.67-2.89.24-.26.03-.05.46-.5c.17-.19.37-.38.46-.5l3.03-3.28.27-.27c.57-.59 1.18-1.17 1.4-1.47q.22-.38.56-.68l3.52 5.23q-.08.08-.15.12l-.73.76q-1.02 1.06-2 2.13l-4.4 4.69q-4.5 4.77-8.95 9.54l-.34.36-1.13 1.22c-1.93 2.08-3.81 4.19-5.75 6.26l-.44.47-.17.2a2.7 2.7 0 0 1-2.1 1.04 2.7 2.7 0 0 1-1.98-.88zm26.53-31.95-1.89.73a2.8 2.8 0 0 1 1.89-.73"/><path fill="#498ade" d="M196.27 362.6a3 3 0 0 1-.79-.9 2.5 2.5 0 0 1-2.76-.57 3.4 3.4 0 0 1-.86-3.05 3 3 0 0 1-1.07-.88 4 4 0 0 1-.37-.66c-.7.2-1.46.05-2.1-.42l-.34-.3c-1.25 1.48-3.65 1.43-4.5-.38-1.25 1.68-3.8 2.37-4.94.2-1 1.36-3 1.26-3.98-.08-2.55-4.04 3.32-6.58 5.15-9.58 3.9-4.48 7.68-9.08 11.71-13.43 1.54-1.98 4.63-4.28 6.75-1.76 1.52-1.73 4.75-3.54 6.24-.85 2.17-.96 4.15 1.61 3.71 3.69.93.24 1.6 1.05 1.88 1.98a2.3 2.3 0 0 1 2.2.37q.6.45.89 1.12c.78-.22 1.58 0 2.22.51 4.35-.63 4.28 4.45 2.54 7.14-.6 1.45-2.12 2.42-3.64 1.74-4.99 5.18-9.56 10.8-14.65 15.87-.9.9-2.27 1.05-3.3.26z"/><path fill="#75b1ff" d="M161.15 345.85c.51 1 .51 2.25.07 3.28q-.08.14-.12.27l-.03.05-.24.39-.05.05s-.07.1-.1.12c0 0-.02.05-.05.05 0 0-.17.17-.24.27-1.66 1.88-3.23 3.88-4.8 5.84q-2.82 3.53-5.66 7.04c-2 2.5-4.06 4.99-6.04 7.5-2.06 2.57-4.01 5.19-6.06 7.76a2.7 2.7 0 0 1-2.16 1.05h-.29q-.45.15-.85.14c-1.42 0-2.5-1.3-2.8-2.66-2.27-10.9-4.69-21.78-7.06-32.66a1779 1779 0 0 0-3.62-16.31l-1.66-7.36c-.22-1-.39-2.03-.7-2.98l.14.44a4 4 0 0 1 .41-3.64q.28-.36.62-.64l.07-.1q.13-.17.27-.3 5.17-6.21 10.24-12.5c3.72-4.63 7.53-9.18 11.22-13.82l.62-.78a3 3 0 0 1 2.1-1.52c.93-.12 1.78.3 2.37.98 1.37.66 2.32 2.27 1.4 4.6 2.6 14.32 4.83 28.72 7.08 43.05.9 3.6 1.69 7.5 2.4 11.1 1.34-.61 2.81-.03 3.52 1.34z"/><path fill="#8fc0ff" d="M149.02 290.82v-.39q0 .49-.12.93v-.05zm69.16 44.06v.05q-.08.24-.12.46v.4q0-.49.12-.94zm5.3-.54c.52 1.1.4 2.54-.26 3.57q.15.51.15 1.03c0 1.66-1.13 3.23-2.6 3.23l-.51.02h.44c-.51.02-1.03.12-1.54.2q-1.9.25-3.81.53l-9 1.35q-9.64 1.43-19.3 2.96l-14.3 2.22-6.67 1.05c-1.64.27-3.3.51-4.94.83q-.28.12-.63.15h-.1s-.17.02-.27.05a2 2 0 0 1-.41.05c-1.18 0-2.1-.93-2.57-2q-.33-.13-.59-.32a3.3 3.3 0 0 1-1.22-2.01l-.05-.17v-.1q-.07-.37-.17-.7-.06-.27-.1-.57v-.12q-.09-.31-.1-.54v-.12l-.1-.32-.1-.49c-2.6-13.06-5.4-26.09-8.25-39.12q-.84-3.88-1.72-7.8c-.39-1.76-.7-3.56-1.2-5.28a3.9 3.9 0 0 1 .28-3.57q-.15-.52-.15-1.02c0-1.66 1.12-3.23 2.59-3.23l.51-.02h-.44c.52-.03 1.03-.13 1.54-.2q1.92-.25 3.82-.54l9-1.34q9.63-1.45 19.28-2.96l14.3-2.23 6.68-1.05c1.64-.27 3.3-.51 4.94-.83q.28-.1.63-.14h.1l.27-.05c.12 0 .27-.05.42-.05 1.17 0 2.12.95 2.56 2q.33.1.6.32a3.3 3.3 0 0 1 1.21 2q.01.09.05.18v.07q.07.37.17.7.07.3.1.57v.12q.09.31.1.54v.12l.1.32.1.49c2.61 13.06 5.4 26.09 8.26 39.12l1.7 7.8c.4 1.76.72 3.56 1.2 5.28z"/><path fill="#2962ab" d="M165.03 308.3c-1.62-.95-2.06-3.4-1.05-4.96l.51-1c2.27-4.55 4.42-9.15 6.63-13.72 2.12-4.4 4.27-8.8 6.35-13.22q.72-1.47 1.4-2.94c.66-1.49 2.34-2.42 3.88-1.54 1.47.86 2 3.06 1.27 4.55q-.1.23-.22.41c-1.83 3.67-3.59 7.36-5.37 11.06-2.33 4.84-4.7 9.65-7.02 14.5q-.82 1.67-1.59 3.34c-.27.54-.54 1.1-.7 1.57q0 .07-.06.1l-.12.22v.07a3 3 0 0 1-2.66 1.88q-.63.01-1.25-.34z"/><path fill="#2962ab" d="M182.8 331.97a19 19 0 0 1-6.1-3.06 30 30 0 0 1-4.71-4.28 41 41 0 0 1-5-6.75 34 34 0 0 1-2.95-6.47c-.54-1.67-1.03-3.57-.95-5v-.6c.02-1.62 1.02-3.35 2.83-3.3 2 .05 3.04 2.17 2.94 3.93v.17l.02.42q.06.62.2 1.2c.12.56.3 1.12.46 1.68q.46 1.21.98 2.38a39 39 0 0 0 1.9 3.32l.1.15a41 41 0 0 0 2.42 3.2 37 37 0 0 0 2.94 2.98q1.2 1.06 2.57 1.98.8.52 1.63.93c.42.2.86.34 1.3.5q.37.09.78.16h.59q.2 0 .3-.05.23-.03.53-.04c1.76 0 2.93 1.85 2.96 3.44.02 1.52-.9 3.06-2.4 3.28h-.34l-.86.02q-1.05 0-2.12-.24zm11.57 3.67q-.27-.01-.52-.1-.26-.06-.54-.2h-.05s-.04 0-.04-.02q-.34-.17-.64-.41l-.05-.05-.05-.05q-.04-.03-.07-.1-.27-.3-.44-.7a2.5 2.5 0 0 1 .17-2.3q.47-.92 1.37-1.42.36-.22.8-.37c.06 0 .1-.05.1-.05h.05l.13-.05c5.13-2.52 10.16-5.23 15.23-7.87 4-2.08 8-4.23 11.95-6.36 1.44-.76 3.52-.73 4.5.79.93 1.44.05 3.37-1.4 4.1q-.07.02-.14.07l-.12.08c-.05 0-.08.05-.08.05h.05q.07-.01.13-.05l-.18.07q-6.92 3.47-13.76 7.04l-8 4.16a316 316 0 0 0-5.62 3 3.7 3.7 0 0 1-2.37.84h-.37z"/><path fill="#2962ab" d="M191.99 336c-12.18-.27-26.82-14.7-28.48-26.5-.17-3.77 2.52-6.9 4.45-9.88 3.05-5.92 7.5-8.63 10.02-.61a2.7 2.7 0 0 1 1.44 3.08c1.08 2.13 1.84 4.5 3.57 6.2 1.88-.21 4.11 1.18 3.45 3.26l1.05.93c1.61-.22 3.67 1 3.5 2.74.6.41 1.24.76 1.88 1.15 1.34-.3 2.98.36 3.37 1.76 2.94 1.32 6.14 2.1 8.93 3.69 5.43 4.84-5.01 8.43-8.34 10.44.64 2.5-2.57 4.7-4.86 3.71z"/><path fill="#498ade" d="M238.71 283.7c.96 3.5 1.28 7.17 1.05 10.79q.01.33-.04.7a33 33 0 0 1-1.91 8.9 34.4 34.4 0 0 1-11.2 15.56 33.4 33.4 0 0 1-18.07 6.96q-1.24.09-2.49.1c-5.62 0-11.12-1.4-16.09-4.1a34 34 0 0 1-13.76-14.16 35 35 0 0 1-3.7-19.66 34.2 34.2 0 0 1 22.82-28.78 34 34 0 0 1 17.28-1.24l1.1.22q.48.1.88.34c2.52.66 4.97 1.64 7.26 2.89h.03q.67.12 1.15.5l.78.5a35 35 0 0 1 14.86 20.49z"/><path fill="#c6dfff" d="M230.12 291.14a26 26 0 0 1-.59 6.38 24.3 24.3 0 0 1-11.49 15.68 23.5 23.5 0 0 1-11.78 3.13c-2.3 0-4.62-.35-6.82-1a24 24 0 0 1-8.49-4.68 25.4 25.4 0 0 1-6.6-9.05 24.65 24.65 0 0 1 7.75-29.23q2.25-1.7 4.8-2.79h.02a23 23 0 0 1 7.5-1.86 25 25 0 0 1 5.55.13q.4.07.76.21c.1 0 .17.05.25.05q1.53.33 3 .83.58.1 1.03.32s.05.03.05.05q.3.18.63.32c.05 0 .1.05.13.05l.95.41a24.4 24.4 0 0 1 13.32 21.07z"/><path fill="#043a80" d="M184.31 301.58a24.54 24.54 0 0 1 7.78-29.24 24 24 0 0 1 4.79-2.79h.02a23 23 0 0 1 7.51-1.86l.46-.02q-3.83 7.3-7.62 14.6s-.05.04-.05.1q0-.04.05-.1c0 .02-.05.07-.05.1s-.05.07-.05.1v-.03l-.05.1-.05.1v.04l-7.11 13.6q-2.1 4-4.18 8.01-.78-1.31-1.37-2.74zm6.63 9.07s-.22-.17-.32-.27l4.67-8.78q2.45-4.57 4.87-9.14c4.23-7.97 8.5-15.94 12.7-23.91q.6.16 1.13.37c.37.04.74.17 1.03.31 0 0 .05.03.05.05q.3.18.64.32c.04 0 .1.05.12.05l.95.42q.82.4 1.59.88-.85 1.68-1.71 3.32-6.66 12.97-13.28 25.96l.08-.14-7.17 14a24 24 0 0 1-5.35-3.44m18.06 4.89-.07.15 6.7-13.18-.07.15.8-1.57 6.66-13.08 4.05-8a25 25 0 0 1 3.04 11.16 25 25 0 0 1-.6 6.38 24.3 24.3 0 0 1-11.48 15.67 23.5 23.5 0 0 1-9.34 3l.32-.66z"/><path fill="#df3a00" d="M119.75 328.72a3.1 3.1 0 0 1-1.22-3.13q-.5-.78-.95-1.6a42.2 42.2 0 0 1-5.35-25.38c.6-6.1 2.6-12 5.54-17.37 3-5.5 7.21-10.32 11.93-14.4a59 59 0 0 1 15.82-9.61 63 63 0 0 1 17.77-4.55 61.3 61.3 0 0 1 31.62 4.94h.07q1.25.87 2.62 1.59h.04c-.51.12-1.02.3-1.51.46q-.19-.01-.37.05c-.98.27-1.95.71-2.88 1.13 0 0-.1.05-.13.05a36 36 0 0 0-13.52 11.03 30 30 0 0 0-2.9 4.66 22 22 0 0 0-1.35 2.84l-.15.44-1.27.2h.05q-6.93 1.01-13.81 2.07l.17-.02-8.34 1.24-3.62.54c-.66.1-1.34.17-2 .3-.3.04-.56.22-.73.44-1.45.9-2.43 2.44-3.16 3.9 0-.04.05-.1.07-.14a29 29 0 0 0-2.73 9.88 31 31 0 0 0 .31 10.02q.35 2.83 1.13 5.53c.05 0 .07.05.1.05v.26c.05.76.17 1.52.27 2.28q.17 1.22.41 2.44.18.84.4 1.69c-.37 2.15-.96 4.23-2.65 5.82A17.5 17.5 0 0 1 127.6 331c-2.79 0-5.5-.7-7.73-2.3z"/><path fill="#fff" d="M115.13 333.19c-6.94-4.35 6.36-12 9.53-14.84 5.85-3.38 14.06-12.42 20.88-7 5.26 7.14-6.13 11.6-10.31 15.7-5.11 4.8-13.25 11.66-20.1 6.16z"/><path fill="#fff" d="M118.1 335.58c-3.49-.58-7.42-5.86-3.41-8.3 1.95-1.18 5.28-.06 5.1 2.5 2.7.77 5.6-2.8 7.85-4.12 3.55-2.86 7.56-5.04 10.71-8.39 2.57-2.61 7.85.52 4.84 3.72-3.25 3.44-7.28 5.82-11 8.65-4.06 3.01-8.63 7.14-14.06 5.94z"/><path fill="#fff" d="M143.3 361.97c-11.28-.79-18.7-10.93-21.76-21.03-1.08-2.74-1.91-5.57-2.82-8.39-.53-1.32-.58-3.08.64-4 1.37-1.37 3.62-.52 4.6.9.9 1.27.53 3 1.2 4.3 2.83 9.12 6.81 21.37 18.11 21.81 3.1-1.32 6.23 3.81 3.37 5.8-1.02.65-2.15.68-3.32.6zm4.84-25.84c-4.23-1.57-7.12-5.19-9.98-8.49-2.3-1.17-2.96-5.33 0-6.04l.22-.29c-2.66-2.84.56-7.21 3.8-4.43 2.34 4.01 6.35 4.58 10.38 6.02 8.75 4.42 5.6 16.01-4.4 13.23z"/><path fill="#fff" d="M141.7 359.47c-5.52-2.96-10.17-7.26-13.1-12.84-3.15-5.72-8.43-14.27-3.72-20.31 3.2-2.28 6.04 1.58 6.97 4.4 1.84 4.6 3.67 9.92 6.72 13.74 2.62 3.69 7.46 5.06 9.59 9.19.78 1.32 1.42 3 1.17 4.57-.51 4.06-6.01 5.3-7.63 1.27z"/><path fill="#fff" d="M147.55 354.67c-7.7-2.83-13.72-9.6-17.34-16.82-.85-3.15-6.1-11.68-.26-12.2.17-3.44 4.4-4.4 6.16-1.49 2 3.82 2.42 8.41 5.42 11.74 3.38 4.25 8.9 6.01 12.94 9.5 5.62 5.95.07 12.09-6.92 9.3z"/><path fill="#fff" d="M154.22 347.2c-8.38-1.91-15.35-8.37-19.19-15.95-1-2.66-3.64-6.18-1.56-8.85 1.73-1.66 4.6-.2 5.1 1.9 1.6.08 2.67 1.45 3.65 2.58a30 30 0 0 0 8.29 6.87c2.9 2.59 7.09 3.4 9.53 6.45 3.06 4.33-1.5 7.9-5.82 7"/><path fill="#fff" d="M156.93 344.83a4.2 4.2 0 0 1-2.05-2.64c-3.94-3.6-8.9-5.6-13.3-8.51-5.06-3.16-1.03-9.83 3.27-4.92 4.16 3.55 18.24 8.1 15.77 14.99-.6 1.42-2.42 1.66-3.66 1.05zm120.35-56.3q.44-.16.9-.27-.07.01-.15.05c.08 0 .15-.05.22-.05q-.08.01-.14.05.08 0 .17-.05h.07-.02l.1-.02-.08.02 3.94-1.14q.08-.01.14-.05h-.02q3.89-1.1 7.8-2.06 1.76-.46 3.54-.85c1.71-.4 3.4-.74 5.09-1.13q3.97-.86 7.94-1.61l2.99-.59h.27c.6-.12 1.22-.2 1.83-.34l.68-.17 2.18-.42 2.54-.49.15.15c.2.15.44.2.66.27.32.1.7.05 1.05 0q.27-.04.54-.12v.12c-3.08.73-6.16 1.5-9.27 2.2q-3.56.83-7.11 1.69l-4.84 1.12c-1.27.3-2.55.54-3.84.83h.07l-1.34.3q-3.9.76-7.82 1.49-3.43.6-6.85 1.17h.17l-1.61.22.05-.22zm25.25 37.54a31 31 0 0 1-14.33-6.21 29.7 29.7 0 0 1-9.29-12.28 31.4 31.4 0 0 1-2.15-16.3q1.24-.12 2.45-.35a360 360 0 0 0 10.75-1.9c1.3-.27 2.62-.5 3.92-.79q-.07 0-.18.03 5.06-1.07 10.08-2.25l14.6-3.47c2.58-.61 5.18-1.25 7.77-1.84l7.14-1.61a32 32 0 0 1 4.4 15.13c.05 2.67-.13 5.33-.76 7.92a36 36 0 0 1-2.64 7.36c-3.38 6.97-9.64 12.28-16.65 14.94-3.42 1.27-7 1.88-10.61 1.88q-2.25 0-4.5-.31z"/><path fill="#fff" d="M346.92 317.87a31 31 0 0 1-14.33-6.21 30 30 0 0 1-9.29-12.27 31.4 31.4 0 0 1-2.27-15.43q.12-1.05.32-2.08 2.38-.6 4.81-1.12 3.69-.81 7.36-1.67c.3.08.64.18.95.15q.76.01 1.52-.12a13 13 0 0 0 1.54-.3q.03.12.1.2.18.39.54.61.41.24.88.25c.53 0 1.1-.05 1.63-.13q.93-.16 1.84-.34 1.9-.44 3.79-.95l2.07-.51c.25 0 .52-.08.74-.13l2.35-.46 2.76-.64 3.86-.88q4.03-.87 8.1-1.7 2.22-.42 4.44-.87 1.95-.36 3.89-.68l3.74-.63a32 32 0 0 1 3.84 14.1c.05 2.67-.12 5.33-.76 7.92a36 36 0 0 1-2.64 7.36c-3.37 6.97-9.63 12.28-16.65 14.94a30 30 0 0 1-10.6 1.88q-2.27 0-4.5-.32z"/><path fill="#000" d="M306 316.59h-.07a16.4 16.4 0 0 1-7.21-1.74 18 18 0 0 1-6.19-4.89 19 19 0 0 1-2.34-3.62 19.4 19.4 0 0 1-1.83-10.32q.38-3.55 1.97-6.67l.2-.39.44-.12c.73-.2 1.5-.42 2.22-.66l3.28-1q3.59-1.18 7.16-2.28 1.5-.5 3.01-.95l4.3-1.22q2.31-.65 4.62-1.23a19 19 0 0 1 5.6 5l.08.06c.26.23.46.5.6.71.1.18.2.32.28.5a24 24 0 0 1 2.05 4.93c.44 1.57.66 3.23.66 4.87.05 2.61-.44 5.23-1.47 7.62-1 2.45-2.51 4.7-4.5 6.48a17 17 0 0 1-3.52 2.55l-.04.02-.08.02q-.44.27-.93.5-1.99.95-4.08 1.39l-1 .22q-1.31.25-2.67.24h-.51zm-2.83-6.24c.12.56.61 1 1.2 1h.22q.4-.07.68-.36a2 2 0 0 0 .88-.44c.71-.51 1.32-1.15 1.93-1.76l2.16-2.1q.27-.3.34-.71.15-.15.22-.37c.24-.64-.1-1.32-.71-1.56l-2.86-1.2-.4-.17c-.04 0-.07-.05-.12-.05q-1.03-.45-2.1-.88-.45-.19-.93-.35-.2-.14-.49-.17a1.2 1.2 0 0 0-1.22.76q-.04.14-.05.27-.31.46-.17 1.05 0-.08-.05-.14c.17.95.4 1.88.59 2.83l.85 4.16.05.22zm53.95-12 .05-.05-.03.03zm0 .03-.02.02zm-5.1 10.61h-.08c-2.51 0-4.96-.64-7.2-1.74a18 18 0 0 1-6.2-4.89 19 19 0 0 1-2.34-3.62c-.17-.37-.34-.73-.4-.9a19.4 19.4 0 0 1-1.43-9.41c.24-2.38.93-4.6 1.98-6.68l.2-.4.43-.11q1.12-.3 2.23-.66l3.27-1q3.58-1.19 7.17-2.28 1.5-.5 3-.95l4.3-1.23q2.32-.65 4.63-1.22a19 19 0 0 1 5.6 4.99q.04.02.07.07c.27.22.46.5.61.71q.16.24.27.5a24 24 0 0 1 2.05 4.93c.44 1.56.66 3.23.66 4.86.05 2.62-.44 5.24-1.46 7.63a18 18 0 0 1-4.5 6.48 17 17 0 0 1-3.52 2.54l-.05.03s-.05 0-.07.02q-.46.26-.93.5-2 .95-4.09 1.39l-1 .22q-1.31.25-2.66.24h-.52zm-1.3-5.77c.22.17.52.29.8.29.3 0 .6-.1.82-.32 0 0 .05-.05.07-.1l-.1.1.1-.1c1.49-1.54 3.05-3.05 4.55-4.6l.07-.04.05-.05.02-.02v-.03l.03-.05c.27-.32.34-.73.24-1.12 0-.42-.24-.83-.63-1.05q-.04-.01-.08-.05h.05q-.08-.02-.12-.08l-2.47-1.27-1.78-.93q-.4-.18-.81-.41c-.27-.12-.54-.27-.8-.34a1.2 1.2 0 0 0-1.66.42c-.4.26-.57.75-.5 1.24l.59 3.52q0-.07-.03-.17.29 1.67.56 3.35v-.08l.13.86c.07.39.34.68.68.86.05.04.1.12.15.14z"/><path fill="#498ade" d="M382.67 268.63c6.9.12 8.53 10.63 3.03 13.98-1.73.98-5.03 2.62-7.38 2.37-5.35.66-10.68 1.57-16.01 2.4q-10.01 1.6-20.03 3.23c-13.3 2.15-26.6 4.35-39.9 6.5-7.35 1.2-14.74 2.3-22.05 3.71-.51.1-1.07.08-1.56-.07-.93.1-1.84.1-2.57.07-6.9-.12-8.53-10.63-3.03-13.98 1.73-.95 5.03-2.61 7.38-2.37 5.36-.66 10.69-1.57 16.02-2.4a2834 2834 0 0 0 20.02-3.22c13.3-2.13 26.6-4.33 39.9-6.5 7.36-1.2 14.74-2.3 22.05-3.72.51-.1 1.05-.08 1.54.05.93-.1 1.84-.1 2.6-.08z"/><path fill="#ae2e00" d="M279.37 341.87c-12.52-7.85-5.58-29.56 9.14-28.43 4.52-.22 13.54 3.1 11.56 8.85-.63 1.17-1.44 1.68-2.27 1.73l-.42-.24-.34-.2c-.54-.44-1.15-.8-1.74-1.17l-.36-.22-.27-.17-.05-.03.05.03s.05.02.05.05l-.37-.27q-.16-.14-.37-.2c-2.17-1.49-4.96-1.54-7.5-1.54-5.26.54-8.97 6.4-7.85 11.4.61 2.2 2.67 3.59 4.18 4.98 2.28 1.93.71 6.09-1.76 6.09q-.81.02-1.73-.66z"/><path fill="#ae2e00" d="M290.46 347.81q-3.65-1.36-7.04-3.27-1.35-.77-2.67-1.57c-.44-.27-.9-.53-1.24-.93a3.8 3.8 0 0 1-.93-2.56 3.5 3.5 0 0 1 1.32-2.74c.76-.56 1.56-.61 2.44-.34.35.1.71.36 1 .56a53 53 0 0 0 6.14 3.45 52 52 0 0 0 6.75 2.51q3.67.99 7.4 1.47 3.67.38 7.37.17 3.52-.25 6.97-1.05a45 45 0 0 0 5.54-1.83 32 32 0 0 0 7.8-4.72q.33-.3.64-.61.51-.68 1.37-1c1.3-.44 2.62.29 3.23 1.46.49.93.56 2.08.22 3.08l-.57.69q-.33.45-.7.88l-.18.2-.07.07c-.8.53-1.54 1.2-2.32 1.76q-2.1 1.46-4.33 2.71a39 39 0 0 1-9.56 3.67H319q-.18.02-.3.07a46 46 0 0 1-10.48 1.2 51 51 0 0 1-17.72-3.28z"/><path fill="#ae2e00" d="M331.49 341.38a3.74 3.74 0 0 1 .12-4.7l.12-.14q.01-.06.1-.1l-.07.07-.05.05.15-.17.49-.7.53-1.03.4-1.05c.1-.32.14-.64.21-.96q.07-.47.1-.95l-.02-1.2q-.07-.52-.17-1.05-.12-.48-.27-.95-.2-.54-.47-1.08-.3-.54-.63-1.05l-.74-.93q-.53-.56-1.15-1.05a9 9 0 0 0-1.1-.73q-.72-.4-1.44-.71h-.1a10 10 0 0 0-1.66-.5q-.83-.12-1.66-.14-.85 0-1.66.12-.84.16-1.64.42l-.1.02q-.14-.01-.27.05l-.83.32-1 .44-.71.3a3 3 0 0 0-.78.43 2.7 2.7 0 0 1-2.25-1.34 3.9 3.9 0 0 1-.1-3.67c.66-1.25 2.13-1.95 3.37-2.5a14.6 14.6 0 0 1 11.12-.4 15.3 15.3 0 0 1 8.12 7.16 16.4 16.4 0 0 1 1.5 10.97 16 16 0 0 1-1.4 3.92 23 23 0 0 1-1.12 1.8l-.15.17q-.35.46-.7.88l-.18.2-.22.27q-.44.3-.93.44-.3.07-.58.07c-.79 0-1.55-.39-2.06-1zm-36.79-19.33s.05.02.05.05z"/><path fill="#ae2e00" d="M307.99 326.27c-3.57 0-7.12-.8-10.37-2.35q-.1-.08-.22-.12-.17-.08-.34-.2c-.54-.44-1.15-.8-1.74-1.17l-.36-.22-.25-.17a3 3 0 0 1-.29-.61c-.32-.98 0-2.03.73-2.74a3.8 3.8 0 0 1 4.4-.66l.37.25.15.1q.62.36 1.3.7 1.31.59 2.7.98c.52.12 1.06.22 1.38.3q.12 0 .24.04h.03q.9.14 1.85.2 1.06.01 2.1-.05h.18c.6-.07 1.2-.15 1.56-.22.1 0 .17-.05.27-.05q.74-.18 1.5-.44.65-.25 1.31-.54c.34-.17.71-.39 1.03-.59l.66-.5s.05-.06.05-.08c1.3-1.15 3.3-1.5 4.77-.42a2.6 2.6 0 0 1 .14 4.16q-1.37 1.18-2.93 2.03l-.27.12q-.34.14-.61.34c-1.4.66-2.84 1.13-4.18 1.42q-2.5.51-5.01.51h-.05z"/><path fill="#ff5d23" d="M333.5 330.5q.05.6.02 1.2-.01.48-.1.95-.09.5-.22.96-.17.53-.39 1.05-.25.52-.54 1.02-.22.38-.48.71s-.05.05-.05.08v.02q-.23.24-.44.41a32 32 0 0 1-7.8 4.72 43 43 0 0 1-5.55 1.84q-3.45.8-6.97 1.05a46 46 0 0 1-7.36-.17q-3.75-.44-7.4-1.47a50 50 0 0 1-6.75-2.52q-3.2-1.5-6.14-3.45l-.07-.04q-.19-.23-.4-.42c-1.51-1.4-3.56-2.79-4.18-4.99-1.12-4.98 2.57-10.85 7.85-11.39 2.55 0 5.33.05 7.5 1.54a3 3 0 0 1 .67.42l.05.02q.1.08.2.12l.36.22c.56.37 1.2.74 1.74 1.18l.34.2q.1.07.24.12l.17.1h.05a24 24 0 0 0 10.15 2.24h.05q2.5 0 5-.51 1.94-.4 3.97-1.32h.05l.1-.05.07-.05q.15-.1.3-.17l.31-.15.27-.12q.23-.1.44-.17l1-.44q.4-.2.83-.32l.27-.05q.03 0 .1-.05.82-.26 1.64-.41a10 10 0 0 1 1.66-.12q.83.02 1.66.14.83.17 1.67.47h.1q.73.34 1.44.73.54.34 1.1.73.6.52 1.15 1.06a9 9 0 0 1 1.36 1.97q.26.52.47 1.08.16.46.27.95.1.53.17 1.06z"/><path fill="#ae2e00" d="M294.7 322.05q.02 0 .04.05z"/><path fill="#f3365c" d="M325.07 334.2c.66-.88.88-2.05.56-3.2-.34-1.27-1.4-2.35-2.79-2.35-.76 0-1.34.37-1.88.88l-.22.25c-.17.14-.4.29-.56.44q-.55.34-1.13.63-1.1.47-2.22.83a28 28 0 0 1-3.72.69q-3 .29-6.06.1a39 39 0 0 1-12.2-2.81 24 24 0 0 1-3.57-1.86q-.5-.33-.96-.66c-.73-.57-1.14-.96-2.22-1.03-1-.07-1.93.76-2.37 1.56-.52 1-.56 2.2-.15 3.25a4.4 4.4 0 0 0 1.84 1.96q.98.72 2.05 1.32 2.19 1.24 4.57 2.15a41 41 0 0 0 10 2.5q2.83.38 5.67.39 3.35.01 6.6-.64c1.88-.36 3.72-.93 5.43-1.78a12 12 0 0 0 1.9-1.2q.41-.31.76-.61.26-.16.47-.4l.3-.34zm8.43-3.69q.05.6.02 1.2 0 .47-.1.95-.09.5-.21.95-.19.54-.4 1.06-.25.52-.53 1.02-.23.38-.5.71l-.06.1q-.2.25-.42.42a32 32 0 0 1-7.8 4.71 44 44 0 0 1-5.55 1.84q-3.45.8-6.97 1.05a46 46 0 0 1-7.36-.17q-3.74-.45-7.4-1.47a49 49 0 0 1-6.75-2.52q-3.2-1.5-6.14-3.44l-.1-.05q-.16-.23-.39-.42c-1.51-1.4-3.57-2.79-4.18-4.99-1.12-4.98 2.57-10.85 7.85-11.39 2.57 0 5.33.05 7.5 1.54q.2.08.35.2.14.08.24.17s.05.05.08.05l.22.17.36.22c.56.36 1.2.73 1.74 1.17l.34.2q.11.08.22.12l.17.1h.05a24 24 0 0 0 10.15 2.25h.05q2.5 0 5-.52 1.93-.4 3.97-1.32h.05s.05-.02.07-.05l.07-.05q.15-.1.3-.17l.31-.14.27-.13q.23-.1.44-.17l1-.44q.4-.2.84-.31.13-.05.27-.05l.1-.05q.81-.26 1.63-.42a10 10 0 0 1 1.66-.12q.83.02 1.67.15.83.17 1.66.46h.1q.74.36 1.44.73.55.33 1.1.74.61.5 1.15 1.05a9 9 0 0 1 1.37 1.98q.25.51.46 1.07.16.47.27.96.1.52.17 1.05z"/><path fill="#ad1b39" d="m333.52 331.7-.02-1.2q-.07-.52-.18-1.05l-.26-.95c-.13-.37-.3-.7-.47-1.07q-.3-.55-.63-1.06-.38-.45-.74-.92-.54-.57-1.15-1.06-.5-.39-1.1-.73a20 20 0 0 0-1.44-.7h-.1a10 10 0 0 0-1.66-.5q-.83-.13-1.66-.14-.85 0-1.67.12-.84.15-1.63.41-.06-.01-.1.05-.14-.01-.27.05l-.83.32-1 .44-.44.17-.27.12-.32.15-.3.17-.07.05-.07.05h-.05l-.83.37q-.11.02-.22.1l-.83.29q-1.06.33-2.08.56-2.5.51-5.01.51h-.05a23 23 0 0 1-4.74-.49q-.85-.16-1.71-.39-.6-.16-1.2-.37h-.08q-.62-.2-1.22-.46l-1.22-.51h-.05l-.17-.1q-.11-.08-.22-.12l-.34-.2c-.54-.44-1.15-.8-1.74-1.17l-.37-.22-.22-.17s-.02-.05-.05-.05l-.24-.17a1 1 0 0 0-.34-.2c-2.18-1.49-4.97-1.51-7.5-1.54-5.26.54-8.98 6.4-7.86 11.4.62 2.2 2.67 3.59 4.19 4.98l.39.4.07.04c1.96 1.3 4 2.42 6.14 3.45a52 52 0 0 0 6.74 2.52q3.68 1 7.41 1.46 3.67.38 7.36.18 3.52-.26 6.97-1.06 2.83-.73 5.55-1.83a32 32 0 0 0 7.8-4.72q.23-.2.41-.39l.08-.1q.24-.33.48-.7.3-.53.54-1.03.21-.52.4-1.05c.1-.32.14-.64.21-.96q.07-.48.1-.95zm3.84-8.04a16.4 16.4 0 0 1 1.49 10.98c-.3 1.34-.76 2.69-1.4 3.91-.19.4-.43.73-.65 1.1q-.02.11-.08.22l-.39.44-.02.05-.15.17-.7.88q-.11.1-.18.2l-.22.26q-.25.2-.51.3c-.57.41-1.1.88-1.67 1.27a39 39 0 0 1-13.89 6.38h-.04c-.12 0-.22.05-.3.07a46 46 0 0 1-10.48 1.2 51 51 0 0 1-17.73-3.27q-3.65-1.36-7.04-3.28-1.34-.76-2.66-1.56c-.44-.27-.9-.54-1.25-.93l-.07-.1-.08-.05c-12.51-7.85-5.57-29.56 9.15-28.43 3.22-.18 8.75 1.49 10.92 4.54l.1.05.37.25q.08.07.15.1.62.37 1.3.7 1.31.59 2.7.98c.52.12 1.06.22 1.37.3q.13 0 .25.04h.02q.92.14 1.86.2 1.06.01 2.1-.05h.18c.6-.07 1.2-.15 1.56-.22l.27-.05q.75-.18 1.49-.44.66-.25 1.32-.54.33-.15.66-.36c.73-.93 1.98-1.52 3.03-1.98q1.65-.75 3.4-1.06c2.6-.48 5.23-.24 7.73.67a15.3 15.3 0 0 1 8.11 7.13z"/><path fill="#ad1b39" d="M325.6 331a3.7 3.7 0 0 1-.86 3.56q-.2.25-.47.4-.35.33-.75.6-.88.68-1.91 1.2a21 21 0 0 1-5.43 1.79q-3.24.65-6.6.63a44 44 0 0 1-5.67-.39 40 40 0 0 1-14.57-4.64q-1.07-.62-2.05-1.32a4.6 4.6 0 0 1-1.84-1.96 4 4 0 0 1 .15-3.25c.44-.8 1.37-1.64 2.37-1.57 1.07.1 1.51.5 2.22 1.03q.46.37.96.66a24 24 0 0 0 3.57 1.86 39 39 0 0 0 12.2 2.81q3.05.19 6.06-.1a28 28 0 0 0 3.72-.68q1.13-.33 2.22-.83.59-.3 1.13-.64l.56-.44q.1-.14.22-.24c.54-.5 1.12-.88 1.88-.88 1.4 0 2.44 1.07 2.79 2.34z"/><path fill="#721e00" d="m363.3 249.23.09-.1c.37-.4.83-.7 1.4-.78.82-.8 1.73-1.56 2.22-2.34 1.51-3.5 0-7-2.86-9.05a2 2 0 0 1-.71-.3l.12.08c-.51-.3-1.12-.51-1.54-.68-5.72-2.4-11.51-4.6-17.31-6.87-6.2-2.42-12.4-4.87-18.58-7.26q-9.2-3.57-18.38-7.17-4.48-1.75-8.95-3.47l-4.43-1.69c-.78-.29-1.54-.63-2.35-.9a1 1 0 0 1-.41-.12q-.04 0-.07-.03h-.08q-.22-.08-.44-.2a3 3 0 0 1-.73-.56 4.6 4.6 0 0 0-3.94.42 5 5 0 0 1-1.12 2.98q.06.43.1.61c1.83 12.86 3.88 25.67 5.89 38.51.93 5.92 1.83 11.83 2.78 17.73l1.28 7.84c.17.98.31 1.96.5 2.94.08.34.1.68.18 1.02 0 .08.05.15.05.22q.16.74.02 1.47c-.2 1.15-1 2.2-2.17 2.45q-.29.05-.56.04c-1.89 0-3.1-2.05-3.01-3.88v.58c-.03-.78-.2-1.56-.25-1.83-1.83-13-4-25.94-6.01-38.92q-1.21-7.85-2.47-15.75c-.66-4.13-1.27-8.28-2.08-12.42a4 4 0 0 1 .05-1.78v-.49c.17-6.16 7.24-8.8 12.62-7.58a2 2 0 0 1 .75.17l.2.1q.45.14.88.32.17.07.3.17c5.32 2.2 10.73 4.3 16.1 6.4l18.37 7.24q9.2 3.63 18.4 7.21c5.63 2.2 11.25 4.5 16.95 6.53l.9.32q.37.07.69.24.65.12 1.27.52c2.25 1.44 4.18 2.8 5.48 5.06 3.12 4.96 2.05 12.15-2.82 15.6-.41.51-.93 1-1.49 1.36q-.04.15-.12.3a3 3 0 0 1-1.3 1.34l-.02.03c-1.66 1.17-3.25 2.5-4.84 3.74q-2.84 2.2-5.65 4.45c-3.84 3.05-7.7 6.04-11.51 9.1q-2.38 1.9-4.75 3.83c-.39.32-.78.69-1.22 1-.46.37-1.05.64-1.66.64q-.2.01-.4-.05a3.3 3.3 0 0 1-2.46-2.3 3.6 3.6 0 0 1 1.24-4.06c.81-.58 1.6-1.2 2.38-1.78q2.78-2.12 5.52-4.28l11.66-9.2q2.38-1.87 4.75-3.76c1.2-.95 2.46-1.88 3.54-2.88.02 0 .05-.05.07-.05z"/><path fill="#000" d="M279.5 315.4a33 33 0 0 1-3.22-7.12 45 45 0 0 1-1.56-7.55c0-.15-.05-.3-.05-.44v-.05q2.88.1 5.77.17 0 .3.02.58a24 24 0 0 0 1.13 5.53q0 .08.05.12.58 1.63 1.34 3.18a32 32 0 0 0 1.61 2.79q.34.5.71.97l-.6.27q-.3.1-.55.22l-.22.1c-.9.32-1.8.61-2.66 1.03-.42.2-.93.41-1.32.73l-.08.03zm17.44 10.97s-.07.04-.1.04c.03 0 .08-.05.1-.05m35.24-8.06q-.6-.38-1.2-.7a22 22 0 0 0-1.61-.66q-.8-.34-1.62-.62-.51-.14-1.07-.24l1.2-1.34q1.05-1.32 1.98-2.74a29 29 0 0 0 2.88-6.29c.32-1.1.59-2.22.78-3.15q-.01-.11.05-.22c.15-1.03.27-2.03.3-2.81v-.34q.04-1.5-.03-2.96c-.12-1.2-.3-2.37-.42-3.06-.1-.39-.17-.8-.24-1l-.12-.37c0-.07-.05-.12-.05-.2-.4-1.34-.05-2.93 1.1-3.78 1.25-.93 2.88-.47 3.76.7.4.52.64 1.13.71 1.74v.05l.1.56c.8 3.9 1.08 7.8.56 11.74a33 33 0 0 1-6.57 15.96q-.26-.16-.52-.26z"/><path fill="#000" d="M352.06 323.8a32 32 0 0 1-21.31-8.75c.44-.61.8-1.27 1.2-1.93l1.36-2.25c.34-.56.1-1.34-.46-1.66a1 1 0 0 0-.4-.15l.18-.58c.66.7 1.37 1.41 2.08 2.05q1.43 1.24 3 2.32 1.7 1.07 3.55 1.96a28 28 0 0 0 8.14 2.27q2.33.26 4.67.15a28 28 0 0 0 9.05-2.08 31 31 0 0 0 3.71-1.9 30 30 0 0 0 3.5-2.57l.1-.1h.02a36 36 0 0 0 2.98-3.13q1.08-1.32 2-2.74a29 29 0 0 0 2.9-6.28c.3-1.1.6-2.23.77-3.16q0-.1.03-.22c.14-1.02.24-2.03.3-2.8v-.35q.04-1.5-.06-2.96c-.1-1.2-.3-2.37-.41-3.06-.1-.39-.17-.8-.25-1l-.12-.36c0-.08-.05-.13-.05-.17-.39-1.35-.05-2.96 1.1-3.82 1.25-.93 2.89-.46 3.77.71.39.51.63 1.12.7 1.74v.04l.1.57c.81 3.88 1.08 7.8.57 11.73a33 33 0 0 1-4.16 12.37 32 32 0 0 1-9.75 10.5 32.7 32.7 0 0 1-18.27 5.64h-.63z"/><path fill="#002759" d="M273.47 284.69c-.2-1.64.71-3.45 2.44-3.7q.15 0 .3-.05.08 0 .15-.02.21-.04.44-.05c5.23-.73 10.44-1.59 15.67-2.37 6.7-1 13.4-2.1 20.1-3.15a22210 22210 0 0 0 54.66-8.78c4.2-.69 8.41-1.34 12.57-2.18h.25q.41-.13.92-.12c1.76 0 2.88 1.98 2.86 3.55 0 1.63-1.08 3.1-2.54 3.2-.86.02-1.71.2-2.57.3q-2.34.31-4.7.68l-9.6 1.49c-6.6 1.02-13.2 2.1-19.8 3.15-13.45 2.15-26.9 4.28-40.3 6.5-8.92 1.5-17.87 2.92-26.77 4.48q-.18.06-.41.1c-.15 0-.3.05-.4.05h-.04l-.4.02c-1.53 0-2.68-1.64-2.85-3.06zm3.53 17.33 1.6-3.28-2.29-2.83c.49-.4 1.15-.44 1.76-.54l2.15-.32 4.67-.73q4.8-.77 9.6-1.59 9.47-1.58 18.96-3.06c13.52-2.1 27.01-4.4 40.5-6.67l14.9-2.5c4.76-.8 9.53-1.56 14.27-2.49q.41-.07.79-.17.08-.02.17-.07s-.05 0-.05.02q.44-.14.93-.12c1.76 0 2.86 2 2.83 3.57 0 1.59-1.02 3.03-2.56 3.18h-.28c-.77.05-1.56.2-2.31.31l-4.77.74-9.66 1.54q-9.8 1.6-19.58 3.23a7727 7727 0 0 0-40.56 6.82l-14.8 2.5c-4.93.82-9.87 1.6-14.37 2.44a5 5 0 0 1-1 .12q-.45 0-.88-.17z"/><path fill="#002759" d="M276.4 302.5c-10.3-2.2-10.46-18.82-.32-21.41 3-.79 4.77 3.5 2.96 5.6-.78 1.12-2.4 1.05-3.4 1.93-2.25 1.86-1.83 6.33 1.17 7.16 1.2-.07 2.57-.17 3.38.88a3.8 3.8 0 0 1 .27 4.77c-.98 1.32-2.64 1.02-4.06 1.07m106.38-21.43c-.17-1.64.73-3.45 2.47-3.67.34 0 .63-.17.73-.51.61-2.15-.51-4.6-2.15-5.85a5 5 0 0 0-2.4-.07c-1.66.27-3.15-1.27-3.32-2.84-.83-4.89 5.65-4.71 8.5-2.8 4.36 3.17 6.44 9.4 4.6 14.52-.92 3.86-7.53 6.55-8.38 1.22z"/><path fill="#721e00" d="M206.05 258.99c-2.62-14.2-4.42-28.58-7.53-42.69-1.59-12.7-10-28.48.76-39.16.8-.78 1.88-1.6 3.06-1.52 1.66.12 2.63 1.47 2.85 2.96q-.37.16-.58.46l-.1.13c-.37.41-.68.85-1.05 1.27q-.55.66-1.05 1.34a9 9 0 0 0-1.62 3.13l-.12.59c-2.61 5.4-.12 12.37.98 18.07 1.17 4.98 1.93 10.04 3.13 15 2.64 13.2 4.4 26.66 6.97 39.79.3 2.34-1.22 3.64-2.76 3.64-1.33 0-2.67-.96-2.94-2.99z"/><path fill="#053b80" d="M157.26 351.3c-.05-1.76 1.15-3.42 2.86-3.71 2.66-.25 5.3-.66 7.94-1q4.69-.65 9.37-1.33 9.3-1.31 18.58-2.66 7-1.02 14-2.1 3.2-.51 6.39-.98c1.5-.25 2.98-.44 4.47-.76a3 3 0 0 1 1-.17c1.77 0 2.74 1.79 2.6 3.37-.17 1.67-1.5 3.33-3.25 3.3h-.15c-2.25.2-4.47.57-6.72.86l-8.8 1.22q-9.35 1.33-18.68 2.74l-14.26 2.13q-3.18.48-6.38 1c-1.73.27-3.5.51-5.23.86q-.31.1-.61.14h-.44c-1.54 0-2.64-1.34-2.67-2.88z"/><path fill="#053b80" d="M189.57 375.9c-1.3-.26-2.71.2-3.81-.73-1.47-1.3-1.18-3.55 0-4.91 2.03-2.18 5.3-.27 7.82-1.32 1.66.07 3.5-1.18 4.38-2.25 2.86-2.86 5.64-5.65 8.26-8.12 4.52-4.72 9.24-9.31 13.35-14.4 2.27-3.84 6.92-.66 4.91 3.06-4.6 6.16-10.22 11.39-15.57 16.87-4.91 4.03-8.58 11.07-15.45 11.44-1.62.29-2.5.44-3.87.36z"/><path fill="#721e00" d="M332.93 343.24c.88-.62 1.76-1.25 2.47-2.06q.63-.73 1.15-1.54.4-.66.76-1.32l.36-.68 17.17-2.91c12.78-2.18 25.57-4.4 38.38-6.56 6.23-1.05 12.5-2.15 18.73-3.2 6.01-1.05 12.05-2 18.06-3.05q3.25-.55 6.48-1.15c1.35-.27 2.72-.47 3.57-.66 1.57-.42 3.55-.08 4.11 1.66.59 1.8-1.05 3.7-2.81 3.94l-.27.05c-5.55.73-11.07 1.7-16.6 2.63q-9.06 1.59-18.17 3.01c-12.66 2.03-25.32 4.16-37.99 6.26l-36.13 6.01q.37-.2.73-.46zm-97.83 13.44c.24-1.3 1.24-2.15 2.41-2.51h.13q.37.01.75-.05h.25q.21-.02.44-.08.45-.07.88-.24c5.84-.83 11.66-1.83 17.48-2.79l19-3.15 10.16-1.69q.3.2.64.25l.61.29.42.22q.78.4 1.56.68c.69.3 1.35.6 2.06.83l.1.03h.04l.3.1q1.42.44 2.86.78.6.17 1.2.27l.21.05-6.35 1.1c-12.81 2.2-25.67 4.33-38.49 6.55l-7.08 1.25c-1.79.31-3.57.58-5 .95l-.33.07q-.71.21-1.45.2c-1.64 0-3.05-1.47-2.76-3.1zm-12.39-34.74-.07.05q.02.01.07-.05"/><path fill="#721e00" d="M220.91 339.82c-.83-5.16-2.05-10.34-2.5-15.53q.5-.1.94-.32.53-.21 1.07-.49a9 9 0 0 0 2.47-1.63l.25-.17c.78.8 1.17 2.02 1.02 3.17.47 5.04 1.69 10.13 2.5 15.09.95 3.98 1.22 8.7 4.4 11.64q.14.38.46.6.2.15.4.25.26.23.58.34a13 13 0 0 0 2.76 1.08c.78.17 1.57.3 2.37.3q.4.01.76-.06h.25q.21-.01.44-.07c1.39 1.86.9 5.36-1.74 5.62q-.7.06-1.4.05c-10.68 0-13.66-10.78-15-19.9zm-45.5-82.12c-2.15-2.47-5.6-3.96-8.85-3.25-2.88.66-4.76-3.3-3.1-5.48 1.34-1.76 4-1.44 5.96-1.27 8.59 1.2 14.26 9.07 16.24 17.28l-.1.07c-.59.22-1.05.81-1.5 1.25q-.65.7-1.29 1.44-.54.6-1.12 1.18l-.98 1.1a19 19 0 0 0-5.28-12.35zm-60.81 69.08a3 3 0 0 1-1.85-1.68 4 4 0 0 1-.17-2.81c.31-1.15 1.3-1.74 2.22-2.3q1.4-.84 2.74-1.69l6.19-3.81q2.97-1.87 5.94-3.77c1.9-1.22 3.84-2.42 5.7-3.69.31-.37.7-.66 1.17-.78l.29-.1q.44-.16.98-.1v.03q.82.1 1.49.68c1.22 1.13 1.37 2.89.76 4.35a3 3 0 0 1-.96 1.18l-.24.2q-.04.01-.07.07l-.05.02.05-.05.02-.02a3 3 0 0 1-.76.36q-1.03.61-2.03 1.25l-2.83 1.76c-2.06 1.27-4.11 2.6-6.14 3.89q-3.06 1.94-6.09 3.93l-2.78 1.84c-.52.34-1.03.73-1.57 1-.44.22-.9.4-1.4.4q-.32 0-.65-.1z"/><path fill="#053b80" d="M140.55 366.98c-5.84-1.1-10.7-5.3-14.6-9.56-1.58-1.96-4.37-3.72-4.15-6.53.71-4.13 4.43-3.2 5.94-.34 3.82 4.18 8.07 8.82 13.8 9.9 1.78.22 5.4.86 5.54-1.71a2.3 2.3 0 0 0-.56-1.71c-.93-1.4-.71-3.62.63-4.67 7.2-3.72 10.1 18.8-6.72 14.6l.1.02z"/><path fill="#053b80" d="M152.36 359.4c-2.76-.07-6.16-1.42-6.33-4.6-.15-1.68 1.22-3.81 3.15-3.37.9.1 1.32.86 2.06 1.15 2.05.59 3.83-.4 5.4-1.66v-.47c-3.4-2.2-1.93-7.06 2.25-6.6 1.49-1.74.73-4.72-1.44-5.48q.08.01.17.05c-3.62-.29-4.33-6.48-.4-6.84-1.27-4.8-7.04-6.63-11.1-8.44-2.73-1.73-1.85-5.45.74-6.87.24-3.42-2.28-5.91-5.67-4.74-1.81.44-3.67 1.05-4.84-1-2.91-5.9 5.96-6.72 9.78-5.45 5.06 2.32 7.26 8.48 6.25 13.74 5.77 2.66 12.4 8.7 10.22 15.7 3.9 4 3.77 11.19-.29 15.03 1.25 5.64-4.67 10.22-9.9 9.83z"/><path fill="#053b80" d="M117.4 340.09c-.66-1.13-.76-2.89.1-3.96.66-.81 1.54-1.27 2.4-1.81q1.11-.74 2.22-1.42l4.77-3.06.05-.02h.04a84 84 0 0 1 2.18-1.42c.12-.07.24-.17.34-.22l.66-.44q3.98-2.61 7.97-5.18c2.18-1.42 4.28-2.91 6.31-4.2.2-.13.42-.28.51-.32q.31-.2.54-.37h.03s.12-.1.17-.12q.04-.01.07-.05.24-.15.44-.22h.03q.4-.15.85-.15c1.4 0 2.47 1.2 2.84 2.45.36 1.32.02 3-1.15 3.83q-.22.18-.47.27l-.17.1-.1.05s-.12.07-.17.12c-1.83 1.18-3.69 2.32-5.43 3.45q-.08.06-.17.1c-.22.14-.44.27-.56.36l-.34.22-.8.52-1.25.8-.44.3-.25.14h-.05q-.34.27-.66.44-.8.54-1.59 1.03l-.78.51a866 866 0 0 0-11.44 7.53l-1.61 1.06c-.6.39-1.2.92-1.89 1.1q-.36.1-.73.1a2.8 2.8 0 0 1-2.47-1.52m40.96-1.89c-3.2-.54-6.2-1.93-9.14-3.3-2.05-.86-4.8-2.69-3.45-5.23 2.47-3.4 6.11.78 8.95 1.44 1.44.61 2.94.93 4.45 1.27 3.18 1.13 2.94 6.01-.78 5.84zm-13.12 17.6c-2.64-2.3-14.74-8.9-10.78-12.79 1.49-1.27 3.76-.58 4.89.79 3.23 3.5 7.26 6.03 11.15 8.7 2 1.17 2.4 4.64-.27 5.28-1.9.47-3.52-.93-5.01-2zm11.01-6.28c-3.2-1.47-16.65-5.99-13.3-10.73 3.28-3.01 6.55 2.12 9.68 3.08 2.76 1.86 8.73 1.69 8.41 6.11-.4 2.15-3.18 2.62-4.8 1.56zm-18.78-38.56a3.3 3.3 0 0 1-1.61-1.44 3.8 3.8 0 0 1-.47-2.57c.22-9.5.96-23.86 12.64-25.76 3.7-.32 4.82 6.1 1 6.64-7.48 1.67-7.33 11.35-7.84 17.54.22 2.51-.1 6.74-3.7 5.62z"/><path fill="#053b80" d="M148.44 287.3c-2.16-.78-3.1-3.93-1.47-5.67.66-.68 1.49-.78 2.35-.98l1.39-.29 5.2-1.1c4.21-.93 8.42-1.78 12.62-2.76l.69-.15c.75-.17 1.54-.32 2.25-.56q.51-.22 1.07-.22c1.76 0 3.03 1.8 3.16 3.42.1 1.62-.9 3.18-2.6 3.25q-.36.06-.73.15l-2 .39q-2.68.57-5.3 1.17c-3.72.81-7.47 1.67-11.1 2.5l-.23.05h-.12c-.17.07-.37.12-.47.14h-.1c-.1 0-.19.05-.21.05l-.17.05q-.13.01-.15.03c-.3.07-.59.12-.59.14l-.32.08h-.07s-.15.02-.17.04a1 1 0 0 0-.37.1l-.51.13q-.6.16-1.17.17-.41 0-.86-.15zm-3.89 22.37c-1.37-7-2.96-13.84-3.72-20.93-.76-4.25 4.5-5.3 5.57-1.17.81 7.26 2.35 14.4 3.9 21.54.53 4.47-5.1 4.81-5.73.56zm-10.88 71.13a3.3 3.3 0 0 1-1.12-2.77c.07-.85.44-1.85 1.1-2.5 2.22-3 4.52-5.96 6.7-8.89l2.05-2.79c.78-1.05 1.61-2.5 3.06-2.66a2.5 2.5 0 0 1 1.9.46c.69.54 1 1.35 1.08 2.2.15 1.81-1.2 3.18-2.2 4.53a197 197 0 0 0-2.74 3.61l-1.4 1.94-1.68 2.3-2.42 3.34a3.4 3.4 0 0 1-2.79 1.79q-.77.02-1.49-.52z"/><path fill="#053b80" d="M204.55 329.09a36.6 36.6 0 0 1-18.34-5.92 37.4 37.4 0 0 1-12.93-14.84 37.6 37.6 0 0 1-3.55-18.85 37 37 0 0 1 6.46-18.29 36.6 36.6 0 0 1 15.77-12.76q2.83-1.21 5.89-1.88.37-.23.83-.27.25-.04.51-.05h.05c.95-.12 1.9-.32 2.89-.42q.25 0 .53-.04 1.7-.2 3.35-.2.38.01.74.1.3 0 .58.02a36.4 36.4 0 0 1 17.7 5.6 37.3 37.3 0 0 1 16.56 24.86 38 38 0 0 1 .12 12 36.5 36.5 0 0 1-20.49 27.56 36 36 0 0 1-15.16 3.43q-.8.01-1.59-.05zm4.03-6.58q2.41-.25 4.77-.78a38 38 0 0 0 5.08-1.76 35 35 0 0 0 4.7-2.6 38 38 0 0 0 3.84-3.05q1.54-1.46 2.9-3.1 1.36-1.73 2.52-3.62a41 41 0 0 0 1.89-3.72 43 43 0 0 0 1.05-2.86q.61-2.25.97-4.52.25-1.73.32-3.5 0-1.82-.15-3.64-.2-2.1-.68-4.16a47 47 0 0 0-1-3.3 48 48 0 0 0-1.54-3.47 38 38 0 0 0-1.81-3 35 35 0 0 0-2.4-3.04q-1.39-1.5-2.95-2.88-1.64-1.35-3.43-2.52a38 38 0 0 0-4.18-2.23 37 37 0 0 0-4.47-1.54 37 37 0 0 0-4.9-.88q-1.1-.1-2.2-.12-.28.07-.58.07-1.46-.02-2.9.08-1.56.13-3.06.44-.24.08-.44.12-.33.06-.67.05l-.87.2a37 37 0 0 0-4.92 1.68 38 38 0 0 0-4.57 2.5q-2.02 1.34-3.81 2.98a45 45 0 0 0-2.99 3.15l-.07.1-.05.07a42 42 0 0 0-2.44 3.47 32 32 0 0 0-3.2 7.46 36 36 0 0 0-.77 3.52c-.2 1.35-.29 2.67-.34 3.72v.3q0 1.52.1 3.05.23 1.99.64 3.98.42 1.77 1.02 3.5.68 1.83 1.54 3.54.81 1.51 1.76 2.96a34 34 0 0 0 2.45 3.15l.2.23.04.04a30 30 0 0 0 5.99 5.08l.27.18c1.32.8 2.7 1.54 3.94 2.13q.1.03.22.1h.02q2.33 1 4.7 1.6 2.48.61 5.03.86 2.72.21 5.43 0z"/><path fill="#053b80" d="M189.6 337.38c-12.7-1.47-23.8-12.43-26.98-24.58-1.86-6.5 2-12.32 4.6-17.99.75-1.61 1.75-3.1 2.44-4.74.17-1.05.76-2 1.86-2.37 3.17-.86 4.69 3.32 3.27 5.67-2.34 4.84-5.18 9.46-6.77 14.47-.59 8.46 6.6 15.62 13.1 19.9 12.67 7.29 15.38.12 25.72-5.06 1.72-1 3.62.49 4.09 2.15.44 1.6-.15 3.57-1.81 4.18-1.22.42-2.25 1.2-3.38 1.79-4.91 3.5-9.82 7.6-16.08 6.6z"/><path fill="#002759" d="M194.68 315.32a26 26 0 0 1-9.1-7.6 27 27 0 0 1-5.03-12.1 26.3 26.3 0 0 1 8.12-23.15 26 26 0 0 1 11.3-6c2.59-.63 5.25-.78 7.91-.58h.35q.27 0 .53.07.35.07.69.1l.9.12a8 8 0 0 1 1.35.34q2.39.6 4.62 1.62a26 26 0 0 1 9.6 7.65 26 26 0 0 1 5.22 12.13c.36 2.5.48 5.08.1 7.58a29 29 0 0 1-2.06 7.3 26 26 0 0 1-8.1 10.15 25 25 0 0 1-9.3 4.35 25 25 0 0 1-17.09-2zm12.37-3.81q1.77-.14 3.47-.54 1.69-.42 3.33-1.1c1.2-.51 2.3-1.17 3.4-1.86q1-.69 1.93-1.49 1.28-1.16 2.42-2.47a23 23 0 0 0 2.69-4.32 24 24 0 0 0 1.52-5.04q.15-1.14.2-2.3.02-1.27-.06-2.54c-.07-.71-.22-1.42-.34-2.13-.2-.85-.44-1.69-.59-2.2l-.12-.34q-.4-1.05-.88-2.03-.62-1.18-1.34-2.25a19 19 0 0 0-1.37-1.76 23 23 0 0 0-2.08-2.05q-1.1-.92-2.27-1.7-1.2-.72-2.47-1.31a22 22 0 0 0-2.94-1.05l-.93-.22h-.27q-.54-.17-1.1-.27l-.56-.07h-.27q-.4 0-.75-.13a21 21 0 0 0-9.74 1.6q-1.65.72-3.17 1.7-1.33.93-2.52 1.98-1.06.98-2 2.1-.85 1.05-1.57 2.18c-.51.86-.98 1.76-1.22 2.28l-.1.22a24 24 0 0 0-.83 2.22q-.34 1.2-.56 2.5-.19 1.11-.23 2.22-.02 1.31.08 2.62.11 1.13.37 2.25.28 1.2.68 2.4.45 1.17 1 2.31.56 1.07 1.22 2.06.65.9 1.4 1.78.92 1.04 1.95 1.96 1.02.85 2.1 1.59a24 24 0 0 0 2.74 1.51q1.5.65 3.1 1.1c1.09.27 2.19.5 3.28.61q1.68.16 3.35.05z"/><path fill="#721e00" d="M196.56 390.65a3.84 3.84 0 0 1-.47-4.77c.13-.2.3-.34.47-.51l.2-.22q.18-.2.38-.34l.96-.96 2.96-3a858 858 0 0 0 6.55-6.8c4.28-4.48 8.6-8.9 12.88-13.38q1.84-1.9 3.67-3.86c.9-.95 1.83-1.9 2.69-2.9 0 0 .02-.06.05-.08l.07-.1.12-.15.17-.2.05-.04s.15-.12.22-.2a2.5 2.5 0 0 1 1.72-.66c1.75 0 2.93 1.84 2.98 3.45a3.4 3.4 0 0 1-1.22 2.79l.31-.27-.02.02-.05.05a3 3 0 0 1-.47.4c-1.6 1.49-3.1 3.12-4.64 4.69q-3.27 3.32-6.5 6.72-6.4 6.67-12.79 13.38c-1.88 2-3.81 3.98-5.67 6.03a4 4 0 0 1-.4.47l-.24.24q-.04.07-.1.13l-.02.02a2.7 2.7 0 0 1-1.86.78c-.66 0-1.34-.27-1.9-.8zm151.16-25.53c-.68-1.56.44-3.3 1.98-3.76.49-.15.54-.12.9-.2l.3-.02h.22s.14 0 .22-.03h.07c1.18-.17 2.37-.34 3.38-.5.14 0 .26-.06.41-.06h.27q.19 0 .32-.05.15 0 .2-.02c1.58-.22 3.17-.47 4.27-.61.22-.03.44-.05.52-.08.14 0 .29-.05.41-.05h.15q.18 0 .37-.04h.02l.2-.03 9.55-1.4 1.96-.26q3.65-.51 7.31-1.08l3.37-.51 1.86-.3c.76-.12 1.52-.29 2.32-.14 1.13.22 2.23.95 2.52 2.13.35 1.37-.51 2.51-1.66 3.15-.73.42-1.66.44-2.5.54-.6.1-1.24.17-1.73.22l-.22.02h-.07q-.45.08-.88.13h-.1s-.22.04-.32.04h-.07l-.8.13-3.8.54c-8.07 1.17-16.13 2.4-24.2 3.56-.96.15-1.93.25-2.79.44h-.14c-.13 0-.23.05-.35.05h-.37c-1.27 0-2.56-.6-3.1-1.8m-85.39 12.92c-.1-4.03 5.75-3.2 8.19-3.88 8.85-1.67 17.46-2.01 26.06-4.19 1.96-.66 5.01-1.07 6.06 1.23.42 1.05.2 2.2-.68 2.96-1.66 1.22-3.81 1.12-5.72 1.83-7.92 1.54-16.36 2.25-24.25 3.67-3.06.17-8.6 2.76-9.66-1.62m118.33 15.55c-1.1-.65-1.76-1.93-3.03-2.32-3.72-.78-7.4.4-11.15.15-5.84-.17-20.95-6.14-18.63-13.54 1.3-2.23 5.53-2.15 6.23.51 1.96 4.57 8.02 6.43 12.62 7.29 4.6.21 9.39-1.28 13.84.34q1.74.66 3.15 1.83c5.23 1.83 1.5 8.17-3 5.7z"/><path fill="#df3a00" d="M382.2 407s-.1.02-.15.05q.08-.01.15-.05m-60.81-13.2s-.07.05-.1.1z"/><path fill="#721e00" d="M445.31 293.88v-.1q-.08-.5-.05-1.05v.47q.01.26.05.49c-.14-1.52-.56-3.06-.83-4.55l-1.56-8.36c-1.05-5.65-2.06-11.35-3.28-16.97v-.1q-.1-.3-.12-.58c-.2-1.5.37-3.18 1.9-3.7 1.82-.6 3.26.9 3.72 2.52 0 .1.05.2.05.3 0-.1-.05-.18-.07-.27 0 .1.05.17.07.26.12.93.32 1.84.5 2.77q.4 2.4.87 4.74.84 4.47 1.71 8.9c.88 4.52 1.67 9.07 2.64 13.6l.03.14q0-.08-.03-.15v-.05q.02.13.08.25c.49 1.56-.18 3.62-1.81 4.18q-.39.11-.76.12c-1.52 0-2.94-1.42-3.03-2.93zM488.1 263c-9.17-2.44-17.17-7.7-25.48-12.05-4.35-2.37-.95-7.63 3.06-4.84l-.42-.27c7.65 4.33 15.3 9.1 23.84 11.44 4 1 3.45 6.75-1 5.72"/><path fill="#053b80" d="M495.56 243.51c3.84-.05 5.3 5.82.78 6-10.56-1.84-20.78-6.17-29.92-11.74-2.16-1.62-6.83-2.91-5.21-6.4.44-.64.93-1.01 1.44-1.2a4 4 0 0 1 .17-1.77c2.42-3.52 6.16 1.23 9.27 1.3 1.54.49 4.1.1 4.81-1.4-.17-.92-1.34-1.63-1.73-2.15-1.57-1.31-3.1-2.93-5.14-3.4-2.88-.19-6.77-2.93-4.81-6.08 1.02-1.37 3.1-1.25 4.32-.22 1.86.34 3.62.98 5.19 2.08 3.22 2.37 5.91 4.32 7.72 7.72 2.6 5.55-2.32 9.73-7.5 9.95a85 85 0 0 0 20.63 7.36z"/><path fill="#053b80" d="M499.4 231.02c2.73 2.33.92 5.01-1.45 6.73a11 11 0 0 1-8.19 2.96c-7.77-.4-7.94-10.05-4.62-15.16.7-1.3 1.22-2.72 2.08-3.89.17-1 .83-1.88 1.88-2.1a3.7 3.7 0 0 1 4.01 1.93c.88 1.56.32 3.23-.8 4.52-1.38 2.64-3.2 5.45-3.09 8.49 2.5.1 4.38-1.62 5.9-3.28 1.05-1.4 3.05-1.2 4.3-.17z"/><path fill="#721e00" d="M393.69 432.11c2.88 1.54.83 4.8-.5 6.72-5.6 8.61-16.94 7.78-25.98 8.17h-2.37a99 99 0 0 1-17.7-1.5 30 30 0 0 1 1.76 12.92c-.05.85-.25 1.7-.32 2.54v.34h-.02c-.13 1.3-.86 2.55-2.08 2.96a3.9 3.9 0 0 1 .05 4.35c-.32.5-.84.96-1.4 1.18l-.24.12-.1.05-.2.1h-.02c-7.21 3.8-15.1 6-23.18 7.2-4.3.64-8.65.91-13.03.91l-2.32-.02c-4.89-.1-9.78-.59-14.5-1.44a83 83 0 0 1-13.44-3.57 62 62 0 0 1-9.12-4.14c-7.24-4.06-14.28-10.04-16.63-18.33a19.5 19.5 0 0 1 .69-12.99q.18-.51.44-1c.58-1 1.3-1.68 2.47-1.86 1.1-.17 2.15.71 2.54 1.67.51 1.2.32 2.42-.17 3.57q-.33.78-.59 1.61-.18.7-.3 1.4-.11.75-.12 1.51-.01.8.05 1.59.1.83.27 1.66.22.9.52 1.74.35.87.75 1.7.63 1.2 1.4 2.3.96 1.32 2.03 2.48a38 38 0 0 0 3.44 3.17 45 45 0 0 0 5.53 3.7 62 62 0 0 0 8.78 3.98 83 83 0 0 0 12.51 3.35l.4.07a92 92 0 0 0 15 1.37q7.45 0 14.8-1.15a74 74 0 0 0 10.8-2.66c.08 0 .13-.05.2-.07h.07q3.94-1.38 7.5-3.26c.45-.24.94-.46 1.35-.73.22-.2.52-.34.8-.46a4.2 4.2 0 0 1-.65-2.72v-.24l.12-.44c.17-.98.27-1.96.32-2.74v-.27q.01-1.26-.05-2.37-.16-1.59-.46-3.18a23 23 0 0 0-3.09-7.48h-.1l-.21-.07-.12-.1.17-.22-.3-.44a26 26 0 0 0-4.54-4.87q-1.4-1.09-2.89-2a31 31 0 0 0-3.89-1.86 35 35 0 0 0-3.93-1.1q-2.12-.37-4.16-.44h-.12q-1.25 0-2.47.12v.03h-.07a9 9 0 0 0-1.57.17h-.2l-.38.02q-.3.03-.6.1-.48.11-.92.27l-.47.15c-.05 0-.1.05-.14.05l-.3.12q-.08 0-.12.05-.19.07-.34.1-1.88.61-3.64 1.51a30 30 0 0 0-3.06 1.86q-1.16.85-2.2 1.8-.76.77-1.5 1.57l-.11.15-.03.05h-.02a2.63 2.63 0 0 1-4.09-.1 3.8 3.8 0 0 1 .4-4.96 36 36 0 0 1 5.8-4.9 29 29 0 0 1 9.4-4.05c.81-2.3 1.5-4.62.2-6.58-7.87-5.18-24.99 1.08-32.13 6.21.59 2.76 2.28 4.67 3.18 7.26 1.27 6.4-2.2 17.43-9.68 17.43q-.95 0-1.98-.24c-11.4-4.77-3-13.4-7.72-20.05-.84-.68-2.08-.46-2.84-1.27-1.54-1.49-1.47-4.5.49-5.65 3.4-1.49 7.01 1.98 8.26 4.94 1.96 4.1 1.35 8.7.98 13.08.37 1.52 2.57 3.28 4.1 2.25 2.38-1.95 3.01-5.4 2.94-8.31-2.05-4.01-5.23-8.93-2.47-13.23 5.04-5.5 19.07-11.12 29.88-11.02-.54-1.96-1.5-4.55-1.96-6.87-.34 0-.66-.08-.98-.15-3.96-.4-7.23 2.32-10.49 4.1-4.93 2.67-10.83 2.55-16.23 1.94-2.08-.17-3.89-1.2-5.92-1.62-1.78 0-4-.88-3.88-3 .12-1.71 1.95-2.89 3.57-2.76 6.25 1 13.05 3.8 19.21.53 4.5-2.76 9.37-5.62 14.87-4.84q.6-.19 1.32-.12a4 4 0 0 1 1.51-.25c1.91.42 2.45 2.5 2.55 4.16.6 3.28 1.88 6.4 2.49 9.7q1.83.52 3.3 1.47c-.3-3-.32-5.96-.73-9-.22-4.61-2.4-10.85 1.88-14.22a19 19 0 0 1 5.75-2.37c.73-.71 1.73-1.1 2.73-.79 1.47.52 2 1.84 1.91 3.16-.44 0-.88.27-1.25.51q-.3.2-.56.4a2 2 0 0 0-.34-.25c-.44-.22-.88-.05-1.3.14a10 10 0 0 0-2.56 2.01q-.44.54-.69 1.22c0 .05-.05.12-.05.17-.17.3-.3.62-.3.96-.04 0-.06.05-.09.05.37 6.4 1.1 13.12 1.74 19.43.29.78.27 1.6 0 2.3.12 2.03-.56 4.5-.37 6.23 0 .66-.05 1.45-.15 2.2 2.45.13 4.87.57 7.17 1.3a29.7 29.7 0 0 1 14.45 10.07q.55.73 1.07 1.5c8.95 2.12 18.14 2.66 27.29 2.27 5.18-.5 11.68-.15 15.37-3.99a15 15 0 0 0 2.86-1.98q1.2-1.02 2-2.34.24-.38.2-.79.12-.19.2-.41 0-.07.02-.1a4 4 0 0 1 1.96.46z"/><path fill="#721e00" d="M383.58 403.45a3.9 3.9 0 0 1-.64 3.62q-.42-.14-.83-.12c-1.34 0-2.66.31-3.96.73-1.17.4-2.37.88-3.4 1.61l-.1.1c-7.38 2.84-13.54 9.76-13.88 17.73-.03 2.17-1.66 3.4-3.18 3.4-1.34 0-2.62-.96-2.62-3.13.47-10.13 7.5-19.25 16.55-23.5l1.57-.61q.08-.25.2-.51c-8.59-2.25-16.9-.44-25.28 1.39.26 2.86 1.34 5.84.17 8.63-1.08 3.15-4.23 6.01-7.6 6.01q-1.06 0-2.08-.39c-6.46-1.76-11.96-9.02-8.66-15.6 1.08-2.32 3.57-4.37 2.42-7.18 0-.9-.22-1.81-.76-2.55a4 4 0 0 0-1.24-1.05h-.03a1.2 1.2 0 0 0-1-.68h-.32a1 1 0 0 0-.6-.27c.19-1.27.94-2.44 2.17-2.84 4.57-.88 8.09 4.28 7.8 8.49.04 2.59-.9 5.33-2.45 7.33-.85 1.1-1.59 2.42-.8 3.74 1.07 2.96 8.77 7.17 7.77 1.2-1.93-8.63.37-11.25 8.97-12.15 8.49-1.93 18-2.89 26.19.51 1.44 1.03 1.68 2.55 1.49 4.16 1.83-.15 3.44.3 4.18 1.93z"/><path fill="#000" d="M203.4 176.33c.07-1.71 1.8-3.08 3.47-3.08h.1c2.51-.3 5-.73 7.52-1.12l9.8-1.54 19.76-3.2q20.18-3.26 40.32-6.68c13.27-2.25 26.57-4.43 39.87-6.68l40.49-6.82c12.96-2.2 25.94-4.33 38.9-6.62l2.37-.44h.2q.18.01.36-.05l.68-.15c.13 0 .25-.05.37-.05.86-.14 1.74-.34 2.6-.51q.3-.03.6-.1l1.71-.2c1 .1 1.96.57 2.45 1.52.7 1.4-.1 2.98-1.35 3.74a4 4 0 0 1-1.85.59h-.12l-2.16.32-1.15.17q-.26 0-.5.07l-3.02.47c-3.27.5-6.57 1.05-9.87 1.56l-19.46 3.2c-13.4 2.2-26.82 4.36-40.25 6.58-13.1 2.18-26.18 4.3-39.28 6.5l-40.88 6.8c-13.15 2.2-26.28 4.38-39.41 6.72-2.7.5-5.4.9-8.07 1.5q-.52.15-1 .16c-1.62 0-3.3-.95-3.23-2.76zm235.23 85.11s-.05-.22-.05-.34v-.3s-.02-.17-.05-.27v-.07c-.66-4.65-1.51-9.27-2.32-13.89a12903 12903 0 0 0-8.85-48.7c-1.95-10.63-3.96-21.27-5.94-31.9q-.8-4.33-1.64-8.66l-.66-3.42c0-.4-.12-.76-.17-1.15 0 0 0-.12-.02-.22-.03-.3-.05-.56-.1-.86a5 5 0 0 0-.22-.78q0-1.32.8-2.44c.32-.42.86-.74 1.37-.88.71-.17 1.37 0 1.99.34 1.2.68 1.46 2.1 1.66 3.32l.6 3.57q.65 3.77 1.33 7.53l2.81 15.85q2.82 16.18 5.8 32.32c1.97 10.88 3.93 21.73 5.96 32.61q.9 4.94 1.86 9.88c.41 2.15.8 4.33 1.32 6.48q.1.3.14.58c.35 1.57-.5 3.55-2.15 3.94q-.3.07-.56.07c-1.42 0-2.74-1.27-2.88-2.69z"/><path fill="#000" d="M421.4 154.53c-1 0-1.9-.62-2.4-1.47q0-.13-.04-.27s0-.12-.03-.22a6 6 0 0 0-.49-2.05q-.04-.34-.12-.67-.09-.36-.22-.73l-.27-.59-.27-.44q-.21-.32-.49-.6c-.14-.18-.31-.3-.49-.47q-.26-.2-.56-.4-.43-.26-.95-.46a9 9 0 0 0-2.76-.58h-.54q-.14-.07-.32-.1c-.2-.03-.41 0-.63 0a18 18 0 0 0-2.3 0q-.5 0-.98.17l-.05-.03a3.5 3.5 0 0 1-1.71-3.4q.16-1.3 1.03-2.17l.39-.07c.12 0 .24-.05.36-.05h-.02.05c.83-.15 1.69-.34 2.54-.49l.61-.1 2.32-.27q-.07 0-.14.03.3-.07.6-.1c1.35.15 2.7.49 3.95 1.1a11 11 0 0 1 3.54 2.64q1.34 1.5 2.13 3.4c.56 1.37.83 2.79.95 4.1q.01.15.05.25-.01-.21-.1-.42-.07-.21-.17-.44c.4 1.08.44 2.23-.07 3.28a2.9 2.9 0 0 1-2.35 1.64h-.07zm20.3 110.95c-1.57-.1-2.58-1.57-2.7-3.01-.12-1.47.59-2.94 1.93-3.52.22-.07.61-.2.69-.2h.12c.2 0 .42-.05.61-.07q.96-.12 1.9-.32a34 34 0 0 0 9.6-3.76 33 33 0 0 0 3.44-2.37c.73-.62 1.42-1.23 2.05-1.91q.45-.51.86-1.05.37-.56.7-1.15.21-.66.64-1.18c.96-1.15 2.6-1.41 3.77-.44 1.22 1.03 1.49 2.91.83 4.33q-.22.45-.51.8c-.6.86-1.15 1.7-1.84 2.48a29 29 0 0 1-4.4 4.1 37 37 0 0 1-9.31 5.06 50 50 0 0 1-7.46 2.1h-.05c-.1 0-.2.06-.3.06q-.2.04-.43.05zm6.15 30.72a2.4 2.4 0 0 1-1.44-.53c-1.25-.84-1.67-2.62-1.25-4.01.42-1.42 1.83-2.6 3.25-2.28l.98-.07c1.27-.12 2.57-.37 3.42-.56a71 71 0 0 0 9.27-2.99q3.08-1.25 5.94-2.9 2.83-1.78 5.43-3.87 1.1-.99 2.1-2.05l.34-.37.32-.34a85 85 0 0 0 5.3-6.55c.42-.64.81-1.27.98-1.54q1.45-2.77 2.52-5.67c.27-.79.56-1.57.76-2.35l.07-.49c0-.32.03-.37.15-.78.4-1.57 2.08-2.77 3.67-2.15 1.68.66 2.17 2.66 1.78 4.27q.01-.08.05-.14l.07-.32c-.02.2-.05.27-.1.46-.26 1.15-.7 2.3-1.12 3.4a65 65 0 0 1-3.94 8.27c-.92 1.49-2.02 2.83-3.12 4.2a105 105 0 0 1-2.99 3.6 40 40 0 0 1-7.75 6.82 53 53 0 0 1-13.18 6.23c-2.32.76-4.62 1.56-7.01 2.03q-1.16.25-2.32.42c-.47.07-.96.1-1.4.2q-.34.07-.7.09h-.06z"/><path fill="#000" d="M463.8 250.9c-2.13-.15-3.7-2.18-4.84-3.81-4.28-5.11-4.1-14.06 2.47-17.14.46-1.5 2.08-2.6 3.62-1.98 3.22 1.3 2.71 9.41-1.71 8.29-3.23 1.7-1.05 5.57.73 7.58 1.15.68 2.47 1.27 2.69 2.8.49 1.89-.8 4.38-2.96 4.26"/><path fill="#000" d="M462.84 233.18c-5.4-3.9-4.74-13.62 1.22-16.68 2.15-1.42 5.58-1.61 6.24 1.5.34 1.63-.4 3.59-2.08 4.15-1.86.15-3.65 1.2-3.43 3.28.1.78.32 1.6 1 2.05 2.72 2.08.47 7.6-2.98 5.72z"/><path fill="#000" d="M466.45 220.68c-.76-.98-.88-2-.98-3.18q-.07-.98-.17-1.95c-.1-.81-.15-1.64-.25-2.45l-.02-.27c-.2-1.76-.32-3.54-.54-5.33l-.1-.75q.95.38 1.88.78l3.84-1.42q.02.52-.07 1.05v-.05c0-.17.05-.32.05-.49v-.49c0 .84.15 1.67.22 2.47q.11 1.4.27 2.74l.27 2.84c.1 1.15.26 2.32.31 3.44a4.6 4.6 0 0 1-.39 2.28c-.34.73-1 1.4-1.8 1.61q-.31.08-.62.08c-.73 0-1.47-.32-1.93-.91z"/><path fill="#000" d="M477.8 218.17a3.8 3.8 0 0 1-.9-2.57c-.22-4.35.39-8.8.17-13.1-1.83-3.4-7.97-1.18-7.04 2.73-.05 1.6.98 3.09.17 4.67-.78 1.81-3.1 2.57-4.5 1-1.59-1.56-1.1-3.98-1.32-6-.34-4.5 2.5-9.08 6.92-10.3 5.7-1.76 11.66 2.1 11.61 8.21-.07 4.11-.51 8.39-.24 12.47.46 2.62-2.79 5.19-4.84 2.89z"/><path fill="#000" d="M489.57 224.13a3 3 0 0 1-1.6-1.93 4 4 0 0 1 0-1.96c.18-3.52 5.02-17.53.57-18-2.22-.46-5.2.06-5.18 2.84-.17 1.79-1.64 3.65-3.6 3.25-2.3-.56-2.34-3.4-1.83-5.25a9.36 9.36 0 0 1 9.95-7.58c10.17.17 8.68 10.63 7.24 17.6-1.32 3.43 0 12.18-5.53 11z"/><path fill="#000" d="M490.47 263.35c-4.6.24-3.89-7.41.44-6.73 4.3.81 5.8-2.9 4.87-6.57-2.94-2.52-.25-5.4 1.76-7.41 1.15-2.71 1.41-5.96.27-8.7-1.2-.35-1.81-1.76-1.84-2.89-.15-.95.61-1.66.54-2.52-.37-1.98-1.8-3.74-3.91-3.76-2.47 2-5.26-.27-4.55-3.16.9-3.59 5.75-4.25 8.63-2.64 3.67 1.89 5.87 6.21 5.55 10.27 3.1 5.45 2.69 13.13-1 18.2 2.25 7.23-2.28 17.1-10.86 15.86h.1zm-47.07 59.28a25 25 0 0 0-1.83-2.71q.21-.18.44-.35c.75-.56 1.54-1.12 2.17-1.86q.35-.35.54-.83 0-.04.02-.07.27-.25.5-.49c2.68-2.25 2.17-6.11 2.39-9.17-.22-4.35-1.78-8.46-3.06-12.56-.56-2.47 1.03-5.58 3.82-4.8 1.2.37 1.76 1.64 1.9 2.8 2.62 9.14 6.24 21.5-1.78 28.99-1.05.78-2.47 2.22-3.91 3.25l-1.22-2.2z"/><path fill="#000" d="M384.98 356.32c2.96-1.3 6.21-1.24 9.32-1.9 1.83.02 3.64-.27 5.38-.96 7.11-2.49 12.51-7.58 17.9-12.69a946 946 0 0 1 21.73-19.11q.25-.27.54-.52c.31-.14.6-.39.88-.58l1.32-1c.75-.57 1.54-1.13 2.17-1.86q.06-.08.12-.13c2.7-.58 4.53 3.8 2.08 5.9-12.32 10.5-24.06 21.85-36.6 32a35.5 35.5 0 0 1-13.79 5.62c-3.42-.12-6.77 1.15-10.12 1.42-2.76-.54-3.13-4.74-.9-6.16z"/><path fill="#000" d="M373.04 462.94c-9.9-.79-19.38-3.04-28.97-5.4-1.73-.28-2.52-2.26-2.22-3.82.27-1.54 1.68-3.18 3.42-2.84 2.96.74 5.99 1.23 8.85 2.25 9.9 2.52 42.66 8.44 40.46-8.85a10.3 10.3 0 0 0-4.25-7.55c-1.08-1.44-.64-3.35-.25-4.97.37-3.64.32-7.26-.48-10.8a21.5 21.5 0 0 0-8.15-12.54c-1.24-.52-2.83-.22-3.9-1.1-1.3-1.08-1.5-2.86-.99-4.38.42-1.8 2.03-2.1 2.35-3.79.59-2.37.02-4.42.12-6.6.74-2.54 2.64-4.62 3.38-7.21 3.66-8.44 1.95-18 1.56-26.58.5-1.44 1.69-2.47 3.25-2.3 4.4.25 3.13 17.8 2.89 21.32a41 41 0 0 1-5.23 15.8c.1 2.9.1 5.91-.96 8.65 10.05 6.36 13.28 19.3 11.79 30.54 5.64 6.13 6.6 16.72 1.24 23.3-6.28 6.23-15.47 7.04-23.86 6.9zm-73.98-86.71c-.59-.05-1.1-.2-1.56-.57a3.3 3.3 0 0 1-1.08-1.85c-.3-1.45.32-3.38 1.78-4.01.96-.42 2.08-.47 3.1-.61l3.77-.57q3.75-.56 7.49-1.2 7.47-1.26 14.9-2.56 5.33-.95 10.67-1.88l5.2-.93c1.55-.27 3.09-.54 4.48-.84q.1 0 .2-.04h.04q.2-.07.37-.1c.73-.32 1.64-.3 2.32.1a3.1 3.1 0 0 1 1.5 2.56 3.8 3.8 0 0 1-1.16 3.06c-.56.51-1.36.88-2.15.8-2.03.18-4.03.6-6.04.94l-7.28 1.24-14.96 2.57a915 915 0 0 0-16.77 3.06l-2.64.5-1.2.23c-.27.05-.56.14-.83.14h-.1z"/><path fill="#000" d="M306.32 404.73c-3.91-.44-2.64-6.1-3.22-8.9-1.1-11.6 12.85-17.85 20.75-9.44 2.45-1.03 5.3-1 7.82-.34 2.99-2.52 6.31-4.65 9.32-7.17 2.86-1.8 5.57-4.94 9.17-4.84.05-2.12-.56-4.2-1.25-6.2-1.05-1.42-2.4-2.92-1.66-4.85 3.71-6.99 7.58 2.4 8.26 6.33.8 4.19.83 16.8-6.11 11.37-4.72 2.79-9.12 6.58-13.42 9.76-1.64 1.47-3.62 3.2-5.94 2.05-1.23-.41-2.8-.22-3.96-.1-1.1.52-2.16 1.18-3.43.98-1.59-.17-2.15-1.44-3.03-2.2-2.35-2.32-6.62-2.71-9.22-.61-4.4 3.72 2.6 12.64-4.08 14.1z"/><path fill="#000" d="M303.37 401.38v.17q.02.22.07.46c-.1-.66-.31-1.32-.48-1.95l-.81-3.13-2.47-9.54c-.69-2.59-1.32-5.2-2-7.8q-.52-1.92-1.06-3.83l-.29-1.03a4 4 0 0 1 .4-3.18c.63-1.05 1.95-1.86 3.2-1.37 1.34.51 1.78 1.71 2.07 3l.64 2.58 1.51 5.89q1.45 5.45 2.89 10.95c.61 2.3 1.17 4.62 1.8 6.92q0 .08.06.12v.05-.05q0 .08.05.12l.04.2q.15.51.13 1.08c-.05 1.6-1.23 3.42-3.01 3.42-1.79 0-2.67-1.5-2.76-3.03zm-36.19 3.21c-.54-6.95-1.1-14.43-3.79-20.76-.64-2.1-2.25-4.2-1.22-6.43.56-1.5 2.4-2.37 3.84-1.57 1.44.9 1.7 2.74 2.3 4.23 2.98 6.75 3.56 14.16 4.44 21.37.37 2.47.32 5.38-2.49 6.01-1.66.3-3.06-1.22-3.13-2.86z"/><path fill="#000" d="M309.04 489.76c-16.31-1.39-34.48 1.23-48.7-8.43-5.82-3.99-11.25-9.32-14.35-15.7-2.13-4.25-4.58-7.67-5.6-12.3-4.18-10.75 2.93-22.05 14.84-20.82 1.2-3.33 2.73-6.95 6.06-8.61a94 94 0 0 0-1.37-12.27c-.24-3.8 2.03-8.2 5.92-9.1 1.93-.2 4.42-1.37 5.94.37 1.51 1.83.36 4.89-1.84 5.55-1.2.22-2.46.24-3.66.54-1.3 2.1.44 4.89.39 7.23-.22 3.96 2.88 14.52-3.82 13.82-2.95 2.69-2.2 10.2-7.4 9.78-.86-.2-1.57-.86-2.47-.93-1.76.26-3.55.66-5.14 1.49-6.28 4.64-.63 14.06 2.08 19.31 4.55 10.2 13.91 17.75 24.52 20.95 12.74 2.3 25.67 1.96 38.56 2.62a95 95 0 0 0 18.58-1.12c5.65-1.15 13.1-.84 17.21-5.28.8-1.84-.69-3.65-1.05-5.4-.37-2.62-2-4.53-4.06-6.07-1.88-2.32-.1-5.84-1.5-8.39-1.6-2.1 0-5.74 2.75-5.67 3.42.42 3.93 6.85 3.74 9.6 2.56 1.9 4.2 5.31 4.79 8.3 1.83 4.03 2.13 8.85-.9 12.4-4.75 5.08-12.35 5.6-18.8 6.79a122 122 0 0 1-24.77 1.34zm-111.69-98.11c-4.06-1.2-8.04-3.87-9.1-8.22-.63-3.32-4.83-11.8-.24-13.23 2.52-.41 3.65 2.25 3.82 4.33 1.24 8.75 3.71 12.13 13 10.22 1.72-.42 3.18 1.2 3.5 2.71.95 5.58-7.53 4.45-10.98 4.16z"/><path fill="#000" d="M203.82 390.26a2.6 2.6 0 0 1-1.2-2.13c0-1.71 1.71-3.08 3.35-3.08h.05c.49-.07.98-.12 1-.12 2.25-.27 4.48-.66 6.73-1.05l7.2-1.2c4.95-.8 9.84-1.66 14.78-2.5 4.79-.8 9.58-1.66 14.4-2.46 4.32-.74 8.68-1.47 13-2.3 1.13-.22 2.42-.37 3.43.39.56.44 1 .95 1.14 1.66s-.07 1.4-.46 1.96c-.76 1.12-2.03 1.44-3.28 1.61l-3.35.49-6.52 1.05q-7.01 1.17-14.06 2.32-7.34 1.21-14.62 2.45c-4.82.8-9.63 1.59-14.45 2.5-1.27.21-2.6.46-3.86.75q-.53.19-1.03.2a4 4 0 0 1-2.2-.57zm-41.28-180.09a3.8 3.8 0 0 1 1.7-3.04q.12-.07.23-.2l.05-.04c1.56-1.34 3.1-2.76 4.64-4.16 1.71-1.51 3.4-3.08 5.11-4.62 3.52-3.18 7.07-6.38 10.56-9.56 2.18-1.98 4.38-3.93 6.5-5.94q1.64-1.5 3.23-3l1.45-1.35c.78-.73 1.6-1.3 2.73-1.12 1.76.22 2.45 2.22 2.25 3.74-.22 1.51-1.34 2.34-2.4 3.27l-2.73 2.4a484 484 0 0 0-5.26 4.74l-10.83 9.83c-2.17 2-4.37 3.96-6.55 5.97l-3.2 2.95c-.81.74-1.67 1.47-2.42 2.25a3 3 0 0 1-2.3 1.25c-1.76 0-2.84-1.74-2.76-3.35z"/><path fill="#000" d="M162.95 251.2c-.6-13.09-9.53-27-2.52-39.34 1.57-2.08 3.84-6.66 6.92-4.55 2.84 2.66-.17 5.67-2.05 7.72a14 14 0 0 0-1.88 8.22c1.42 9.1 4.35 17.9 5.28 27.06.36 4.09-5.28 5.5-5.77.9zm32.7-68.07c-4.06-4.47 12.13-13.18 14.72-9.12 1.25 2.06-.59 4.6-2.71 5.01-1.4.22-2.65.59-3.92 1.18-2.59 1.1-5.08 5.67-8.09 2.93m-59.87 199.81c-.8-1-1.05-2.44-.61-3.64q.29-.85.98-1.42c.5-.39 1.1-.56 1.66-.54h.17-.25.18a74 74 0 0 0 6.13-.85q3.5-.55 7-1.13l14.81-2.42q6.27-1.02 12.54-2.12l5.67-.98 2.96-.56a3 3 0 0 1 1.88.27c1.94.92 2.42 4.03.93 5.55q-.72.71-1.76.85-.38.06-.78.1l-2.96.44-6.72 1.02q-7.29 1.13-14.55 2.28l-13.08 2.13q-3 .48-6.01 1c-1.71.3-3.42.56-5.11.98q-.4.14-.86.14c-.85 0-1.68-.44-2.25-1.15z"/><path fill="#000" d="M136.78 383.93c-10.69-.76-9.93-15.58-12.33-23.33-.63-7.06-5.52-12.59-7.23-19.31-5.28-1.42-9.95-6.94-9.12-12.6.17-3.93 6.6-12.85 9.7-6.5a3.5 3.5 0 0 1-1.8 4.48c-1.25 1.25-2.6 2.66-2.13 4.47a6.8 6.8 0 0 0 4.06 3.62c1.07.07 2.1.1 2.95.88 1.23 1.1 1.37 2.69 1.84 4.1l-.1-.36a50 50 0 0 0 3.37 8.22c.93 1.24 2.06 2.4 2.35 4 2.27 8.1 2.64 17.29 6.21 24.82.66.93 1.88.86 2.88.64 4.6.24 4.5 7.4-.63 6.84z"/><path fill="#000" d="m112.25 324.69.03.07.1.2q0-.05-.06-.08l-.07-.17a80 80 0 0 1-2.76-8.5 54 54 0 0 1-1.44-11.7c-.17-9.73 2.98-19.43 8.33-27.52 5.92-8.98 14.5-15.97 24.01-20.88q5.88-2.98 12.13-5.02 4.1-1.3 8.28-2.27c1.57-.36 3.16-.73 4.72-.98q.1 0 .17-.02l.5-.03c1.73 0 2.73 1.72 2.44 3.3a3.8 3.8 0 0 1-2.79 2.99h-.12.12q-.17.02-.39.07-.88.16-1.71.27h-.03.1a80 80 0 0 0-19.17 6.09 69 69 0 0 0-7.7 4.23 70 70 0 0 0-5.8 4.2l-.21.2-.07.07a60 60 0 0 0-4.8 4.55 47 47 0 0 0-6.74 9.26 51 51 0 0 0-2.28 4.82 49 49 0 0 0-1.59 4.87 50 50 0 0 0-1.05 5.74c-.2 1.98-.3 3.99-.27 5.55q.08 3.11.57 6.19c.39 2.32.95 4.6 1.6 6.8v.07l.06.2c.44 1.39.93 2.8 1.44 3.88q.19.3.27.66l-.1-.3v-.09l.05.1c.78 1.56-.4 3.59-1.78 4.37q-.77.41-1.6.42c-1.02 0-2-.5-2.39-1.57z"/><defs><filter id="crests-youtube-filter0_d_35_2049" width="442.31" height="396.91" x="88" y="122" color-interpolation-filters="sRGB" filterUnits="userSpaceOnUse"><feFlood flood-opacity="0" result="BackgroundImageFix"/><feColorMatrix in="SourceAlpha" result="hardAlpha" values="0 0 0 0 0 0 0 0 0 0 0 0 0 0 0 0 0 0 127 0"/><feOffset dx="12" dy="12"/><feComposite in2="hardAlpha" operator="out"/><feColorMatrix values="0 0 0 0 0 0 0 0 0 0 0 0 0 0 0 0 0 0 0.4 0"/><feBlend in2="BackgroundImageFix" result="effect1_dropShadow_35_2049"/><feBlend in="SourceGraphic" in2="effect1_dropShadow_35_2049" result="shape"/></filter></defs></svg>