<svg xmlns="http://www.w3.org/2000/svg" fill="none" viewBox="0 0 1000 1000"><g fill="#000" opacity=".24"><path d="m621.77 841.85-39.28.26a1590 1590 0 0 1-116.2.76c-16.03.1-32.28.79-49.16-.15l-24.64-1.38-26.13-1.43c-28.56-1.56-51.5-1.97-80.13-3.74l-19.9-1.23-44.01-.7c-11.28-.17-30.99-2.31-42.37-3.15l-16.62-1.24c-10.09-.73-19.4-.97-29.52-1.52l-27.75-1.52-20.84-1.73c-13.75-1.14-27.45-2.6-40.09-6.47-7.97-2.43-10.37-6.95-14.48-12.16-4.6-8.29-4.31-17.18 1.45-24.83a45 45 0 0 1 9.78-9.62c11.22 6.18 24.78 9.7 38.02 10.65l22.62 1.64 19.62 1.56c11.02.88 51.77 2.03 58.32 7.27 7.76 6.22 16.4 12.03 26.93 12.07l36.08.16c8.13.03 16.14.73 24.5 1.06l22.54.92c8.36.34 15.2-.2 23.5-.06l58.08.98 63.52 1.35 60.78 1.24 42.86 1.24c4.45.13 7.87-.53 12.24-.36 9.7.38 20.7 1.68 30.66.95l6.3 10.82c3.88 6.66 12.12 9.65 19.79 3.23l13.52 15.13zm151.76-71.38h1.63a273 273 0 0 1 87.55 13.8l2.58 1.97c.62 2.12 3.63 2.5 4.43 6.04 1.77 7.98-1 24.25-10.8 28.1-34.87 13.7-71.49 16.75-108.52 19.87-25.39 2.13-49.94.4-74.61 1.23.83-3.08 4.23-4.07 6.81-6.31 8.34-7.24 11.86-18.27 13.49-28.08 16.86 1.38 7.7-17.93 24.01-6.74 5.2-4.35 10.92-12.33 19.01-11.42 1.87.22 5.99 4.25 8.17 2.88 8.6-5.47 5.33-14.49 12.74-12.42 2.4.67 4.87 1.52 7.07.26 4.6-2.62.6-9.3 6.47-9.2z"/><path d="M865.29 786.24c-19.22-7.53-39.17-12.31-60.73-13.02-7.7-.26-14.86-2.34-23.02-1.03-2.39.4-5.8.2-6.38-1.73 27.66-.18 55.32 1 82.12 10.58 3.3 1.17 7.12 2.13 8.01 5.2M582.5 842.11c.2.6-.55 1.64-1.8 1.65l-112.58.74c-1.25 0-2-1.02-1.82-1.63l116.21-.76z"/></g><path fill="#000" d="m985.83 448.27.04 6.55c-1.13 1.44-4.81 1.75-5.6 4.16-5.71 17.34 3.58 11.9 2.34 17.71-2.06 9.6-10.92-.63-3.72 23.5.53 1.78-9.42 8.81-7.75 19.72.48 3.08 4.98 7.71.73 10.6-2.36 1.6-4.91 1.9-5.9 4.89-.9 2.72.03 4.14 1.72 7.14 3.66 6.46-13.46 6.65-7.54 22.39 2.73 7.28-14.16 2.8-7.71 22.23-12.02.13-9.43 12.22-12.92 17.34-3.74 5.5-13.6 8.64-10.63 18.48-23.02 11.23-7.04 17.23-14.44 22.45-2.36 1.67-5.2 1.75-9-.02-8.35 9.45-6.06 17.32-9.4 17.31l-7.15-.02c-2.54 2.43-.92 6.46-2.2 10.13-9.5-1.21-11.82 8.85-17.83 13.08l-9.53 6.7c-2.5 1.75-1.26 6.96-3.41 8.87-.88.78-13.23 1.12-17.73 11.87-1.11 2.68.6 8.88-4.66 8.99-13.74.22-8.77 10.35-14.74 15.69-1.63 1.45-4.1-.43-6.17.1-6.49 1.7-8.91 8.63-8.64 15.14-5.25 1.4-11.12-.32-14.64 3.83-1.8 2.12-.75 6.19-2.72 7.67-6.15 4.68-13.06-.35-13.09 5.75-.35 10.17-4.9 15.7-15.58 11.8-3.58 9.12-9.56 17.29-19.38 9.86q-9.52 2.77-18.11 11.03-9.19-7-13.42 4.15l-7.7 3.08c-4.05 13.48-8.63 27.26-23.56 31.1-8.1.27-21.65 8.02-35.38 4.43-6.57-1.73-12.41-4.11-18.63-4.07q-8.46-2.38-14.08-10.73c-13.4 7.59-23.72-4.5-26.74-15.78a22000 22000 0 0 1-381.93-8.03l-26.4-13.61a4392 4392 0 0 0-103.74-9.1l-12.74-3.07q-11.37-1.84-14.24-9.51c-12.54-18.37-26.7-44.94-7.2-66.21-9.07-9.75-13.57-21.9-18.23-35.12-3.85-10.96-1.29-24.89 9.3-31.57 9.64-6.07 21.43-5.15 32.13-3.68-8.57-8.9 1.28-16.1-2.87-18.12-3.63-1.76-5.9-2.58-7.14-5.62-1.43-3.54.34-5.55 1.61-8.84 2.57-6.71-8.17-7.77-8.91-13.43-.47-3.62 8.26-11.25.2-15.59-2.95-1.58-4.72-5.17-3.47-6.86l3.65-4.95c2.95-4-5.32-22.35-5.63-20.07 1.17-8.34 8.86-13.41 2.97-18.23-10.04-8.24 7.75-11.38 2.76-22.46-1.39-3.1-3.27-4.87-2.9-8.2.19-1.72 9.67-8.66 6.98-19.13-.67-2.58-3.15-4.15-1.9-6.93.38-.82 10.83-6.93 7.22-13.45-10.84-19.57 11.01.2 9.57-32.7 19.45-17.5 2.7-15.24 16.94-25.94 9-6.77 10.65-19.75 11.34-20.11 1.2-.65 3.77-.73 5.37-2.18 18.84-17.37 4.26-21.04 17.82-22.82 12.7-1.65 1.34-17.81 17.37-16.17 7.03.72 9.17-10.1 13.42-10.99 8.16-1.69 10.9-4.34 16.63-9.57 3.2-2.92 13.37-.28 15.3-7.27.92-3.28 4.65-6 8.3-4.55 7.72 3.09 10.73-4.44 15.42-5.62 7.13-1.78 16.06-.61 20.72-7.94 4.44-.15 10.39 4.18 14.12 1.05 2.13-1.8 2.84-5.2 5.16-5.68a8.9 8.9 0 0 1 7.42 2.14c5.9 5.46 9.34-3.25 12.73-3.39 8.03-.33 17.24 6.16 25.36 1.44 4.66-2.7 8.51.55 13-.12l13.2-1.97c6.32-.94 11.2-.89 17.26-1.49 4.85-.49 13.06 7.27 17.59.8 1.81-2.57 2.13-6.72 6.08-6.55 10.93.44 3.42 7.95 15.87 6.41 2.43-.3 3.73-2.69 5.86-5.08 4.99-5.6 8.07 3.42 18.67 1.63 3.82-.65 2.04-5.87 10.21-7.53 1.45-.29 2.11 2.56 3.7 3.2 9.11 3.66 9.52-13.5 17.25-7.7 2.72 2.05 4.99 1.42 7 .8 5.94-1.82 3.06-10 9.55-10.2 1.72-.04 3.16 1.9 4.8 2.64 7.32 3.28 10.23-4.68 14.4-8.79 4.13.8 8.94.86 12.9-.8 4.72-1.98 3.77-7.13 7.3-10.28 2.87-2.55 8.68-.06 11.62-3.97 2.53-3.37 3.69-6.26 4.47-11.49.69-4.58 7.61-.26 9.93-1.44 13.94-7.16 6.14-11.54 12.04-14.77 5.35-2.94 6.1 7.4 18.37-9.75 7.6-.4 12.75-3.44 18.43-8.1 3.8-3.14 11.87-.82 14.83-6.93 6.02-12.38 15.86 4.3 24.68-13.08 1.49-2.92 5.66 1.83 7.46 1.66 22.2-2.31 15.63-8.91 20.23-9.24 5.42-.4 6.82 4.15 10.86 3 3.15-.91 3.3-7.9 8.4-8.23 1.1-.07 12.14 10.82 19.15 2.22 2.23-2.74 3.92-4.19 6.95-4.11.92.03 10.86 9.45 19.52 4.13 11.28-6.95 4.16 2.69 25.38 1.03 2.06-2.06 4.22-5.74 7.36-5.1 2.51.53 3.1 3.8 4.92 5.83 3.86 4.35 10.72 2.24 14.86-.44 4.95-3.19 7.42 1.5 9.87 5.22 4.28 6.56 15.64-.77 19.51.42 1.76.54 2.46 3.43 3.5 5.2 4.24 7.12 13.6 1.57 17.6 3.82 6.61 3.74 11.8 11.45 20.87 10.83 2.2-.14 4.44-1 6.66 0 1.77.81 2.02 3.8 4 5.33 18.74 14.6 16.22 3.52 20.7 7.63-.03-.03 6.3 13.9 15.56 13.22 3.43-.25 5.42-1.31 7.99.85 1.96 1.62 1.92 3.78 2.1 6.95.17 2.74 5.12 7.65 7.83 6.98 4.15-1.03 7.29-1.5 9.92.73 2.64 2.23-.1 5.6.1 8.5.55 7.67 10.31-.73 14.94 6.05 1.36 2 .4 4.44-.38 7.32-.65 2.4 3.42 6.97 5.77 6.54 4.27-.76 5.49-.08 7.99 2.08 2.93 2.55.77 4.63 1.07 8.34.57 6.85 12.29 9.5 12.95 10.44 3.14 4.58-1.12 16.08 9.45 15.9 7.28-.13.1 8.52 3.66 13.44 4.34 6.03 7.9 3.27 10.73 7.51 1.06 1.56.44 3.44-.25 5.52-3.94 11.8 9.17 8.78 11.05 16.59.61 2.51-1.87 3.92-2.7 6.51-2.57 8.04 10.39 9.41 10.8 11.59 1.17 6.32-4.01 8.14-2.94 12.54 1.44 5.81 6.83 4.22 8.27 10.19.54 2.25-1.65 3.38-2.3 5.46-2.49 7.68 2.54 15.2 9.24 19.03-.89 4.15-4.8 5.92-4.97 9.25-.66 13.62 6.26 13.6 6.7 16.9.43 3.28-2.1 3.92-3.27 6.28-2.99 6.01.17 13.92 6.34 15.77z"/><path fill="#7a4a34" d="M37.98 726.2a7 7 0 0 1 4.44 3.47l42.62 1.74a503 503 0 0 0-7.78-17.2l2.09-4.14c4.4.31 10.43-2.31 13.2.75 11.44 19.7 23.84 31.79 34.96 50.21l-63.02-5.15c-8.55-.7-16.97-2.02-22.74-9.21-4.24-5.3-5.56-14.3-3.77-20.49z"/><path fill="#a16044" d="M79.35 710.05c2.5 8.66 7.83 16.17 11.74 24.87l-52.26-2.11c-.9-2.81-.66-4.68-.85-6.61.15-19.41 29.43-16.99 41.37-16.13z"/><path fill="#7a4a34" d="m31.88 677.09 1.5-3.43 19.38-1.93-7.2-20.8q-5.1.37-6.14-3.63c-3.58-2.42 19.2-.55 20.04-.13 3.66 16.3 11.58 29.55 19.76 43.6-13.77-1.53-26.03-.8-38.16 3.79-4.67-5.42-7.21-11.31-9.18-17.46z"/><path fill="#7a4934" d="M729.29 269.57c4.42-2.3 5.68 1.99 6.47 5.62-.58 7.24 7.3 11.8 8.68 18.86q1.49 6.55 5.98 10.71c-.36 4.93 4.43 8.96 2.63 13.87a6.2 6.2 0 0 0-5.96-2.63c-5.31.67-6.01 8.52-8.8 9.22-1.41.35-8.88-4.26-9.31-5.86-.93-3.45 6.4-9.62 2.63-14.67-1.63-2.2-4.44-1.6-7.7-1.71-1.78-.08-1.91-4.5-1.61-6.07.5-2.67 10.3-3.57 10.34-9.97.03-2.91-1.47-5.32-4.08-5.6-2.6-.28-5.34.64-8.28 2.59-3-3.97-4.38-8.99-6.87-13.93 4.76-2.98 8.08-6.64 6.04-11.52a26 26 0 0 0 9.84 11.1z"/><path fill="#a16044" d="M39.44 647.3c2.16.23 6.89-.47 8.72 1.25l9.4 26-25.68 2.54c-1.64-5.1-5.03-10.12-5.36-16.42-.43-7.82 5.76-14.16 12.92-13.37"/><path fill="#9e5e42" d="M72.65 507.77c-2.93 6.57-5.23 17.76-12.08 15.04-.8-4.62-2.52-8.6-7.9-8.87-.35-4.02.06-7.36 1.24-11.1 11.8-2.8 7.18 3.47 18.73 4.93z"/><path fill="#784833" d="m866.32 465.05 3.61 1.4q-.55 2.8 4.84 5.37c-.98.7-2.52 2.58-2.08 3.6.77 1.66 2.63 3.43 3.52 4.85-2.75-2.72-7.78 2.06-10.64 1.31l-11.93-17.02c3.19-2.89 5.58-4.74 7.48-7.32.2 3.53 3.08 5.38 5.19 7.8z"/><path fill="#794833" d="M815.4 401.9c-4.5-1.65-9.43 2.44-14.3 1.74-2.36-1.36-5.78-8.25-4.66-10.86 1.53-3.6 7.42-3.53 10.14-5.17.53 5.7 4.77 10.69 8.84 14.3z"/><path fill="#784833" d="M833.35 436.4c-3.15.78-4.25 5.34-7.68 6.8-5.2 2.21-18.76-2.92-15.64-5.87 2.33-2.2 9.47.6 13.83-5.94 3.62.62 7 2.3 9.5 5.02zm-11.85-12.08c-3.83-1.41-7.73.82-12.87.38-2.84-.24-5.08-7.53-2.94-8.87 4.2-2.62 9-2.84 12.04-5.7z"/><path fill="#754631" d="m893 492.96-1.13 3.26c-7.64.3-14.22 1.86-18.43 8.52l-1.5.2c-.66-3.46-4.25-8.5-.91-11.82 2.03-2.03 5.97-2.23 6.64-4.6.68-2.36.53-4.63.2-6.77 5.25 4.3-3.85 6.95 15.12 11.23z"/><path fill="#764732" d="M782.1 352.88c-2.24 1.19-4.45 5.25-7.9 4.78s-5.59-5.1-7.77-7.9l7.53-8.37c.61 4.51 4.3 9 8.14 11.49"/><path fill="#a16144" d="M951.13 383.18q-4.17 2.73 0 0l8.18 4.23c6.06 3.13-1.6 11.57.29 16.43 1.88 4.87 9.52 11.94 4.19 17.47-1.95 2.03-7.3 1.77-5.85 6.67.68 2.37 2.07 3.68 5.84 5.18 3.56 1.42 4.8 10.23 1.98 12.66-3.9 3.36-1.21 6.68-2.36 9.5 1.87 1.71 1.44 4.1.9 6.3-1.65 6.63-7.09 20.62-14.42 14.81q-2.04 4.28-9.41 2.78-7.13.35.03 8.48c2.62 7.26-19.17 13.45-19.98 5.24q-10.43.6-21 .13-1.49 5.6-3.01 2.07c-2.6 1.87-4 1-3.52-2.17q-16.72 1.48-14.01-7.8l-1.12-3.43c-.53-.42-1.28-.89-1.65-1.44-7.2-1.4-10.36-7-1.46-8.46q-.69-4.78 8.17-9.38c.32-4.58-3.74-3.12-6.77-1.66q-5.03 4.6-9.84 4.26c-5.49 2.3-8.8-2.99-5.2-7.8-.12-2.22-.75-5.24-2.88-6.39q-16.62 0-13.62-9.85l1.75-3.57c20.74-2.14 15.69-13.12-1.39-3.65l-3.33-1.06q-.08 5.72-2.61 5.24a13.5 13.5 0 0 0-5.68-1.6c-3.26 2.33-9.66-.95-9.5-5 .68-2.7-1.74-4.8-2.33-7.06-5.3-.44-7.98-11.01-3.77-14.2-.66-2.47-.2-6.32-2.34-8.22-6.7-.22-15.38-9.85-8.83-14.3-.25-2.68 3.04-5.4.49-7.86s-5.3-2.99-8.48-2.4c-4.96-.14-11.75-9.43-9.65-14.09 1.4-2.5 2.76-5.9.88-8.76-1.74-2.64-5.74-.4-7.7-1.66-6 3.32-12.32-6.13-8.14-11.48-.34-2.55.23-5.45-1.81-7.17-2.35-1.99-6.14.33-8.19-.38-6.52 4.09-11.47-7.2-9.9-13.25l-1.02-1.96q-8.4-8.77-2.62-13.86l-.81-3.55c11.3-7.42 12.78-21.92-1.16-6.2l-4-.97c-5.42-1.08-15-15.07-8.68-18.86l.19-3.85c18.8-12.25 8.72-19.77-3.1-2.04l-3.58.27q-9.21 3.25-9.84-11.1c-.3-.62-1.2-1.03-1.62-1.6-8.38-.6-16.2-1.7-21.03-9.68 1.01-3.46 3.03-8.27-.41-11.3-2.3-2.02-5.71-1.47-7.02.22l-4 5.2c-4.56.23-8.7-3.07-13.28-4.4-1.16-3.77.78-8-1.61-10.9-2.12-2.58-7.2-2.1-7.98-.33l-3.25 7.53c-1.46 3.35-9.31.59-13.24 1-4.24-9.44-.83-9.8 7.31-7.94l1.37-4.09q-2.58-12.62 5.68-12.3l-.78-3.4c5.95-21.8-7.84-25.2-3.2-.34l-2.74 2.64c.63 3.32-.6 4.2-3.06 5.5q-.81 9.76-6.51 10.15c-.42-3.59-5.1-3.98-7.42-3.03-7.83 3.16 3.32 13.46-8.55 16.34-6.72 1.63-4.45-14.5-13.91-10.43-7.53 3.22 1.11 13.41-1.58 16.64-2.97 3.57-7.3 5.28-10.62 8.28a63 63 0 0 1-5.85-8.03c1.74-7.54-.39-17.25-8-19.36q-5.9-5.66-3.4-.19c-7.86 4.16 3.24 17.04 3.79 21.16.6 4.46-.81 8.53 2.63 12.55 2 2.31 1.28 5.13-.28 7.42-5 7.4-7.45-4.32-13.92-2.24a6.1 6.1 0 0 0-4.11 5.17c-.52 5.72 9.24 8.97 9.33 13.07.03 1.03-1.96 12.9-4.12 13.22-.75.12-8.4-8.18-12.7-2.46-5.19 6.91 6.72 11.24 9.06 16.2l-15.65 9.38c-2.62-2.16-3.85-5.02-6.07-7.65-2.74-3.26-7.41-3.75-9.75-.92-5 6.04 6.04 11.82 4.87 16.02-.48 1.73-9.08 7.72-11.88 7.19-4-.8-4.71-14.1-13.08-10.17-8.37 3.94 3.22 15.22 1.64 18.24a43 43 0 0 1-12.53 8.3c-4.07 1.7-4.8-12.1-13.09-8.1s2.76 13.92.72 16.29c-3.76 4.34-8.83 6.7-12.97 10.03-3.3-4.07-4.94-10.33-10.67-8.13-9.37 3.58 2.7 15.4 2.25 19.09-9.5-8.71-18.76-15.34-31.8-12.92-3.7-4.56-3.88-18.68-11.95-17.47-9.72 1.46-.58 17.5 1.69 23.63-4.67-.09-12.45 1.2-15.77-3.1-3.53-4.6-1.88-12.83-7.67-16.5-2.68-1.7-6.48-.5-7.64 1.93-1.04 2.15-.63 4.44-.38 7.96-9.9-4.26-21.12-6.19-30.67-11.82-2.3-3.37-2.37-9.57-5.84-12.32-3.12-2.48-7-2.73-9.5-.13-2 2.07.1 6.15.95 9.18-3.69 1.92-9.4 1.6-13.32 5.78-1.88-2.8-2.26-5.65-3.77-8.69-1.5-3.03-5.03-3.92-7.87-2.7-6.08 2.57-.19 11.9-.13 16.33-5.06 1.78-9.85 2.5-15.92 3.03.6-5.55-.73-19.62-7.35-20.03-2.42-.17-5.38.96-5.73 4.27-.7 6.57 2.02 11.87 4.5 17.67l-59.5 10.67c-13.19 2.36-24.01 8.57-28.99 21.25-2.47-3.29-4.74-4.91-7.8-4.86-2.31.05-4.31 1.47-5.16 4.4-.5 1.71 1.27 4.56 1.83 6.87-14.4 9.64-17.56 1.21-21.69 3.1-3.72 1.71-3.25 12.64-21.3 10.49-3.38-.4-4.11 4.63-6.29 5.56-10.98 4.67-20.52 10.13-29.55 18.08-2.26 2-7.5 1.03-8.73 3.95-3.8 9.05-9.93 16.44-20.56 16.82 1.68 11.56-8.53 14.93-13.75 21.2-4.74 5.7-5.38 15.24-12.16 20.21-10.24-12.42-9.44.18-20.6-10.08-.56-.51-1.05-12.5 4.6-12.53 4.76-.03 16.18 16.65 21.83 7.73.75-1.18 1.1-4.36.08-6-3.6-5.65-9.75-6.33-14.98-6.83-1.55-2.43-4.6-5.05-6.38-7.21-1.14-1.39.37-6.32 2.12-6.94 2.87-1.02 6.05-.38 7.84-2.2l3.57-.48c17.57 18.8 19.79.25-.25-1.75l-2.94-2.63c.18-2.36-3.84-3.67-4.02-5.82-.28-3.28 1.75-10.63 5.15-11.85 2.98-1.06 6.39 1.16 7.82-1.87.9-1.9 2.15-4.62-.1-6.66-6.56-5.88 2.44-14.09 2.8-14.1 3.63-.01 5.86 5.93 12.68 3.82 2-.62 3.16-4 2.37-6.8-1.27-4.48-8.51-6.12-8.7-8.6-.03-.6 4.96-9.96 7.76-8.7 6.22 2.8 1.86 12.67 13.13 15.79a5.57 5.57 0 0 0 6.7-3.2c2.18-5.32-5.77-9-7.39-11.89-1.17-4.25-1.93-7.9-5.82-11.61 3.54-3.42 5.95-10.45 10.97-11.62 2.97-.69 7.05 3.76 9.19.78 5.8-8.01-3.76-8.93.84-13.62 1.25-1.27 2.83-3.46 4.9-1.94 2.28 1.68 4.44 2.66 6.69 1.84 7.3-2.63-1.24-11.13 3.7-13.83 1.74-.95 4.12-4.6 6.46-1.96s5.01 3.63 7.7 2.62c7.47-2.79-2.38-10.53 4.83-13.25 3.89-1.46 6.55 7.44 12.19 3.89 3.63-2.29 2.04-5.55 1.5-9.43-.44-3.02 8.13-7.1 9.59-4.27 2.24 4.38 3.82 6.97 7.84 6.1 9.6-2.08-1.52-12.32 6.2-14.52 4.98-1.42 4.87 6.24 11.7 3.77 4.43-1.6.52-9.23 6.98-9.47 4.03-.14 2.8 6.31 9.4 5.7 5.97-.57 2.84-8.91 6.78-9.46 6.84-.96 6.04 4.74 11.24 4.31 2.33-.2 3.33-1.93 4.77-4.46 2.2-3.91 9.09-4.66 11.97-1.36 2.1 2.43 3.46 3.29 6.22 2.9 2.2-.29 2.95-2.76 4.72-4.72 2.36-2.6 11.14-3.46 12.93-.55 1.5 2.45.86 6.74 4.22 6.93 12.26.7 2.93-9.8 14.32-9.4 8.15.29 3.12 11.99 12.98 9.22 5.57-1.57 1.2-9.86 6.53-9.84s2.76 6.33 9.81 6.22c2.5-.05 3.11-1.92 4.94-4.67s10.08-3.48 12.2-.49c2.4 3.43 3.13 6.74 7.33 5.91 3.16-.62 3.83-3.28 5.31-6.7 1.66-3.83 9.1-3.87 11.57-.76 2.3 2.89 4.48 3.58 7.53 2.72 2.19-.62 2.12-3.16 3.83-5.64 1.7-2.48 8.87-4.1 11.15-1.92 2.45 2.36 3.55 4.53 6.37 4.1s4.05-2.25 5.2-5.24c2.16-5.58 9.36-6.31 14.08-3.19 6.1 4.06 9.47-12.83 17.63-7.72 2.21 1.39 3.05 4.3 5.83 3.72 10.38-2.14-.12-9.03 10.94-12.5 5.29-1.65 6.58 6.35 12.7 1.12 3.32-2.84-3.08-7.77 14.03-13 2.73 2.05 5.61 4.72 8.72 2.77s2.62-4.98 2.05-9.25c-.4-3.07 5.33-9.26 8.23-8.22 2.6.92 4.01 4.72 7.02 3.83 10.42-3.06-1.05-12.13 5.26-15.9 2.07-1.23 5.51-5.89 7.92-2.2s5.53 5.93 9.33 4.2c7.56-3.43-3.04-12.36.91-15.07 6.54-4.48 7.05 4.16 13.08-.12 3.63-2.58-.77-8.13 5.33-11 4.7-2.21 4.47 5.4 11.17 2.95 5.43-1.98.28-9.35 6.2-11.74 7.27-2.96 5.08 5.25 12.1 3.65 6.64-1.52 1.2-9.71 7.4-11.75 9.63-3.2 7.32 4.42 14.98 1.52 1.72-.65 1.8-3.42 3.24-5.78 1.76-2.9 10.22-6.03 12.27-3.39 2.4 3.13 2.63 6.66 6.62 6.16 10.15-1.28.78-10.23 9.68-11.36 3-.38 3.67 1.26 4.5 4.79.9 3.82 5.2 3.86 7.92 2.76 2.73-1.1 2.15-4.22 2.85-7.83.76-3.91 9.05-4.23 11.41-1.41 2.36 2.81 3.91 4.39 7.7 3.61 2-.4 2.4-2.55 4.24-5 2.01-2.7 11.1-3.41 12.57-.41 2.02 4.14 2.19 6.8 6.25 6.98 4.44.18 4.63-3.16 6.6-6.89 1.5-2.84 10.1-1.72 12.21.7 2.12 2.4 2.53 5.69 5.67 5.96 3.33.3 4.26-1.97 6.88-4.4 2.36-2.19 9.24-1.48 10.83 1.28 1.79 3.1 2.08 5.48 5.18 5.94 2.9.42 4.75-2.5 6.65-3.65 2.64-1.6 10.46-.1 10.77 2.73.44 3.97.79 7.02 4.57 8.09 3.8 1.07 4.98-2.56 7.81-4.82 2.28-1.83 9.85.85 10.65 3.71.87 3.12 1.3 6.35 4.06 7.08 3.82 1.02 5.3-2.11 8.33-2.87 3.3-.82 10.62 2.27 12.22 5.24 1.06 1.96-1.97 6.33.44 8.48 1.45 1.3 3.7 1.89 6.34 1.75 1.69-.09 2.89-3.94 5.11-4.33 3.39-.58 11.07 3.21 11.47 6.57.47 3.99-.62 6.83 2.45 8.6 3.7 2.14 5.47-.96 8.99-2 2.86-.84 8.78 3.82 8.98 6.91.24 3.6-.51 6.47 1.62 8 2.4 1.72 5 .65 8.09-.43 9.25-3.26 7 13.73 13.7 12.85 4.22-.55 10.89 2.81 9.8 7.44-.73 3.11-2.24 5.5-.3 7.82 4.8 5.78 8.68-3.15 13.35 2.86 2.73 3.48-2.21 7.09 1.4 11.53 1.36 1.68 3.42 1.47 6.46 1.24 4.45-.36 8.61 5.4 7.53 9.67-.74 2.87-.77 5.08 1.17 6.85 3.72 3.38 6.77-1.03 10.07 4.68 2.3 4-4.25 6.87-.43 11.92 3.48 4.62 6.63-1.76 10.58 4.35 3.21 4.95-2.39 7.33.09 12.65.6 1.29 2.3 2.2 4.9 2.47 4.05.43 7.59 5.45 5.1 8.95-2.09 2.96-3.12 5.15-1.93 8.56.93 2.71 4.78 1.6 7.51 2.9 5.58 2.64 4.03 10.04 5.25 14.9.93 3.7 7.1 7.4 4.47 11.58-2.1 3.32-4.8 5.5-3.98 9.36z"/><path fill="#0a0604" d="M660.38 209.87c-6.14 2.75.3 9.11-3.85 17.4-1.24 2.48-4.07 2.86-6.38 2.17-1.28-.38-2.55-1.62-4.14-2.78-.9 2.98-.15 5.25 0 7.5-3.7.4-2.84-7.27-1.93-9.75 5.32-14.52 1.15-11.04 9.57-15.65 1.52-4.44 5.02-2.42 6.71 1.09z"/><path fill="#050302" d="m70.96 456.11.4-4.88c9.25-3.43 23.1 6.79 20.11 13.03-4.07 8.52-17.83-3.08-20.51-8.15"/><path fill="#040202" d="M588.15 224.83c-1.04-.3-2.44.24-3.4-.2-5.2-2.27-8.1-6.77-9.26-12.98-.71-3.9.21-7.19 3.66-7.93 8.2-1.77 10.57 13.22 9.67 15.8-.73 2.06-2.44 3.84-.69 5.3z"/><path fill="#784833" d="M798.58 377.37c-2.87 1.34-5.31 3.58-8.84 4.34-3.11-4.67-6.03-8.71-8.34-13.41 2.52-2.4 5.25-3.4 7.53-5.03 3.54 4.15 7.4 8.96 9.65 14.1m46.03 63.66c2.43 5.4 8.44 7.08 13.62 9.85-4.63-1.64-8.01 1.42-12.3 4.07-2.25 1.39-9.07-3.03-8.47-5.6.93-3.9 4.54-7.75 1.55-11.34.66-1.87 1.81-3.5 2.62-5.24 3.53 1.55 6 4.9 2.97 8.28z"/><path fill="#774732" d="M763.95 333.84c-.97 2.25-2.87 6.5-6.5 6.13-4.03-.4-7-4.71-9.14-7.43 2.6-4.49 4.93-7.78 5.73-11.96 2.47 4.78 5.03 10.4 9.91 13.26"/><path fill="#794933" d="M717.83 256.86c-3.65-1.75-7.81 1.57-11.08 2.41-3.38-3.09-10.93-7.05-9.95-12.1 1.64.86 21.66 10.58 21.03 9.69"/><path fill="#020101" d="M851.8 415.1c-5.4 3.51-24.78 11-26.5 2.26-1.94-9.96 9.84-5.29 19.81-12.2 2.89-2 6.4-1.41 8.11.57a6.2 6.2 0 0 1-1.43 9.37m28.71-112.17c2.74-1.62 3.47-.58 1.44 1.87 4.1 5.65-22.16 25.48-27 16.53-1.37-2.54-1.32-6.23 1.33-7.56 14.6-7.34 15.23-13.94 24.23-10.84"/><path fill="#030201" d="M895.79 335.15c-2.81 2.82-20.69 15.15-24.63 7.55-4.25-8.18 8.61-9.37 16.4-15.94 2.61-2.2 5.88-2.67 8.3-.54 2.17 1.91 2.73 6.12-.07 8.92zM486.88 306.2c5.87 4.46 16.27 20.55 9.24 23.95-3.2 1.54-7.02.6-8.62-2.95-5.64-12.6-13.71-14.83-8.72-20.65 1.4-1.67 5.18-2.56 8.1-.35"/><path fill="#020101" d="M864.92 355.24c-3.1 2.41-19.4 13.05-22.75 5.67-3.33-7.38 5.94-8.9 16.35-15.58 3.1-1.98 6.58-2.13 8.88 1.4 1.37 2.1.92 5.86-2.48 8.51"/><path fill="#030201" d="M826.66 263.72c-8.31 6-14.5 17.27-20.35 9.92-1.98-2.47-1.14-6.32 1.84-8.87 3.71-3.16 13.51-16.27 19.51-9.5a5.76 5.76 0 0 1-.99 8.47z"/><path fill="#050302" d="M841.66 276.6c-6.4 6.85-14.91 17.71-20.24 11.22-2.08-2.54-1.48-5.87 1.31-8.65l10.69-10.62a5.8 5.8 0 0 1 7.82-.52c2.63 2.04 3.08 5.7.41 8.57"/><path fill="#040201" d="M172.75 363.85c.15 4.07-2.57 6.1-5.04 6.25-7.79.5-3.4-5.8-11.93-16.8-1.86-2.4-1.7-5.47-.5-7.08a5.6 5.6 0 0 1 7.6-1.31c5.9 4.02 9.59 11.24 9.87 18.92z"/><path fill="#020101" d="M835.76 318.08c-5.83 5.43-16.7 16.63-21.56 10.18a6.1 6.1 0 0 1 1.73-8.67c5.42-3.67 15.15-16.27 20.6-9.33a6.1 6.1 0 0 1-.76 7.8z"/><path fill="#040202" d="M928.57 469.12c.87 8.12-8.63 7.5-21.17 8.55-3.95.34-5.77-2.58-6.04-5.18-.37-3.5 1.94-5.54 5.68-6.24 7.6-1.39 20.78-4.14 21.55 2.87z"/><path fill="#030201" d="M609.73 196.33c1.82 5.31 6.29 22.14-1.09 23.55-3.43.66-6.39-.97-7-5.1-1.32-8.68-5.9-21.73 1.98-22.14 2.14-.11 5.01.48 6.11 3.71z"/><path fill="#020101" d="M843.25 387.5c-6.33 8.16-23.36 14.6-24.91 5.32a5.65 5.65 0 0 1 4.47-6.43c10.43-2.4 13.93-10.88 19.54-6.28 1.5 1.21 2.86 4.86.9 7.39m-313.03-86.4a6.2 6.2 0 0 1-.75 8.1c-2.35 2.09-6.3 1.75-8.47-1.2-3.52-4.82-15.68-17.13-7.93-21.52 4.07-2.31 6.77.3 9.3 3.79z"/><path fill="#030201" d="M918.48 406.37c-5.74 2.57-22.57 8.89-23.3-.81-.48-6.48 7.87-6.4 19.32-9.9 3.09-.94 5.91.37 6.8 2.16 1.52 3 .64 7.02-2.82 8.57zm-59.53-111.04c-4.31 4.63-15.35 15.76-20.16 9.62-1.55-1.98-1.95-5.68.53-7.7 5.34-4.33 15.3-16.48 19.95-9.96 1.5 2.1 1.87 5.68-.3 8.04zm-55.5-9.05c-4.14 6.56-11.28 18.5-18.13 13.54-1.7-1.22-2.92-5.24-.7-7.74 7.06-7.98 9.72-16.97 16.8-13.86 2.55 1.13 3.99 4.95 2.03 8.06M151.68 387.75c6.6 4.95 16.46 19.88 7.97 23.45-2.46 1.03-6.13.47-7.44-2.86-3.73-9.49-10.58-13.03-8.32-18.02 1.16-2.54 4.97-4.68 7.79-2.57"/><path fill="#040202" d="M736.6 225.05c-1.88 6.78-5.59 19.82-12.53 17.64-2.92-.91-5.16-4-3.66-7.64 4.91-11.83 5.4-19.25 12.52-17.58 2.88.67 4.74 3.69 3.66 7.57m214.54 158.13c.7 3.24-1.35 6.87-4.84 8.15-6.63 2.44-20.4 8.06-21.32-.84-.77-7.55 8.1-6.16 16.78-9.96 4.26-1.86 6.46 1.13 9.38 2.65"/><path fill="#040302" d="M869.28 422.08c-3.5.15-5.06-2.95-5.27-4.98-.35-3.43 1.52-5.75 5.05-6.3l14.1-2.22c3.9-.61 6.81.68 7.49 3.67 2.09 9.3-13.07 9.48-21.35 9.84z"/><path fill="#010101" d="M808.5 245.9c-6.95 7.94-10.98 18.73-17.96 12.59-1.79-1.58-2.35-5.17-.05-8.04 4.39-5.43 10.49-18.87 18.19-12.5 1.73 1.42 2.2 5.25-.18 7.95"/><path fill="#040202" d="M544.86 229.51c4.63 4.67 14.44 18.32 6.44 21.24-7.43 2.71-8.04-5.56-15.35-14.08-2.15-2.5-1.19-6.3.81-7.92 2.19-1.77 5.72-1.63 8.1.75zm287.26 138.63c-4 3.52-19.9 11.09-22.7 4.4-1.15-2.73-1-6.68 2.66-7.8 9.26-2.83 16.81-9.77 20.82-4.65a5.95 5.95 0 0 1-.8 8.04z"/><path fill="#030201" d="M818.47 302.63c-8.4 6.3-13.12 13.57-18.38 9.83-8.05-5.71 6.5-15.7 11.93-19.31 2.6-1.74 6.02-.7 7.57 1.26a5.9 5.9 0 0 1-1.12 8.2zm-256.68-86.98c2.98 3.06 12.93 17.73 5.81 20.78-8.5 3.64-9.08-7.53-13.77-11.13-3.37-2.6-4.1-6.6-1.94-9.52 2.15-2.9 6.98-3.12 9.9-.13M937 461.23c-3.56-.3-4.97-3-5.02-5.36-.17-6.88 8.08-6.17 21.07-7.06 3.45-.23 5.13 2.87 5.2 5.39.26 8.21-14.77 7.6-21.24 7.04zM381.47 305.96c4.22 4.54 8.6 23.3.23 24.73s-5.4-7.73-9.46-17.06c-1.15-2.64.49-5.5 1.74-6.85 1.5-1.63 5.44-3.03 7.49-.82m531.48 78.46c-4.26 3.26-20.63 11-22.5 2.79-1.7-7.49 3.95-6.4 16.1-12.25 2.83-1.36 5.88-.62 7.15.77a5.9 5.9 0 0 1-.73 8.68z"/><path fill="#040202" d="M802.22 328.86c-3.58 3.92-15.34 14.93-20.03 8.73-1.58-2.12-1.77-5.84 1.05-8.01 5.42-4.21 12.81-13.15 18.15-9.67 2.63 1.72 3.27 6.28.83 8.95"/><path fill="#030201" d="M836.75 344.89c-2.9 1.43-5.65-.52-6.6-2.15-1.67-2.9-.72-6.35 2.29-8.45l11.7-8.14a5.8 5.8 0 0 1 7.34.59c6.34 7.1-8.43 15.05-14.72 18.15z"/><path fill="#020101" d="M786.73 227.19c-1.83 1.9-5.45 1.23-6.88.3-6.5-4.24 3.14-12.62 4.7-18.57 1.03-3.97 3.92-5.6 7.4-5 9.82 1.76.9 16.86-5.22 23.27"/><path fill="#030201" d="M233.43 320.65c.54 6.49 6.65 14.96-.8 17.35-8.9 2.86-12.33-17.82-11.98-20.35.51-3.67 3.98-4.6 7.1-3.92 2.76.58 5.34 2.78 5.68 6.92m-53.11 56.05c3.46 3.46 10.69 20.53 2.1 22.44-8.57 1.9-6.69-9.7-11.25-15-2.6-3.01-1.85-6.16.48-8.55 2.13-2.17 5.98-1.58 8.66 1.1m-40.22 45.69c-6.63 2.19-6.56-3.6-14.69-14.93a6.2 6.2 0 0 1 .25-7.14c1.3-1.53 5.01-2.63 7.53-.62 7.91 6.28 14.17 20.3 6.89 22.69z"/><path fill="#040202" d="M115.41 413.75c6.87 9.8 13.42 14.46 9.1 19.5-1.82 2.13-5.44 2.64-8.37-.06-4.95-4.6-14.41-14.18-8.33-19.76 1.83-1.67 5.65-2.45 7.6.32"/><path fill="#020101" d="M504.12 297.1c4.5 4.11 16.24 16.2 9.51 20.99-1.86 1.32-5.8 1.43-7.91-1.2l-9.46-11.8c-1.68-2.1-1.07-5.59.15-7.3s5.33-2.85 7.7-.7z"/><path fill="#030201" d="M213.05 354.78c7.34-4.39 20.79 17.37 14.57 22.21-1.93 1.5-6.1 1.74-7.87-.96-4.58-7.06-13.29-17.3-6.7-21.25m-14.85-7.26c1.87 3.67.46 6.96-2.36 8.24-7.41 3.34-12.6-11.05-14.4-17.13-.94-3.15.76-5.62 3.63-6.83 1.95-.83 5.3.23 6.9 3.4l6.24 12.34z"/><path fill="#020101" d="M536.9 253.25c2.37 2.49 1.64 5.91.05 7.92-1.27 1.6-5.24 2.42-7.7.36-5.5-4.64-16.53-13.87-10.05-19.25 2.49-2.06 5.81-1.52 8.5 1.29l9.23 9.68zm281.24 94.45c-5.9 5.32-16.5 14.82-21.08 7.76a5.4 5.4 0 0 1 1.54-7.47l12.33-9.04c2.5-1.83 6.23-.8 7.67 1 1.56 1.97 1.9 5.62-.46 7.75"/><path fill="#030201" d="M434 294.14c2.81 5.22 10.46 20.42 1.78 21.9a5.85 5.85 0 0 1-6.79-3.86l-5.08-13.03c-1.23-3.17.2-6.44 2.23-7.25 2.92-1.16 6.2-.81 7.86 2.26z"/><path fill="#020101" d="M923.12 451.61c-4.28 1.58-21.97 5.33-22.08-3.63-.09-6.94 8.5-6.04 19.39-7.1 3.4-.34 5.87 1.5 6.39 3.8.66 2.93-.49 5.75-3.69 6.93zM771.43 320.96c-2.5 1.85-6.02.83-7.49-1.14-4.36-5.9 3.43-9.55 9.87-17.37a6.2 6.2 0 0 1 8.13-1.18c7.27 5.37-5.46 15.96-10.53 19.7z"/><path fill="#040202" d="M106.34 440.4c2.58 2.43 2.08 5.97.52 7.94-1.21 1.54-4.6 2.88-7.08 1.15-4.81-3.4-17.9-13.13-10.8-18.67a6.1 6.1 0 0 1 7.74.49z"/><path fill="#030201" d="M546.75 288.49c1.57 2.74.94 5.95-1.07 7.53a5.9 5.9 0 0 1-8.35-1.28c-3.83-5.12-12.48-15.16-7.36-19.1 6.82-5.27 13 6.26 16.78 12.85M780.32 244c-1.98 4.98-10.03 17.95-16.62 13.21a5.7 5.7 0 0 1-.92-8.06c6.82-8.1 8.73-16.33 15.23-12.7 2.04 1.16 3.57 4.42 2.31 7.54zm-22.07-13.74c-1.17 4.23-8.62 19.22-15.79 13.82-6.2-4.68 2.94-11.56 4.92-17.88 1.1-3.47 4-4.47 7.03-4.05 3.31.47 4.96 4 3.84 8.1"/><path fill="#020101" d="M361.94 328.77c-1.27 3.7-3.67 4.53-6.14 4.33-7.38-.56-8.93-24.44-1.58-25.69 9.42-1.6 6.83 12.37 7.72 21.36"/><path fill="#040202" d="M881.94 304.8c-.63-.4-.88-1.38-1.44-1.87-.05-6.29 11.35-12.56 16.91-14.98 2.99-1.3 5.8 1.85 6.43 3.73 1.98 5.94-14.1 18.16-21.9 13.12M632.96 191.12c2.06 5 6.24 20.9-2.03 22.95s-10.02-22.5-5.25-24.65c2.12-.96 6.1-1.2 7.28 1.7"/><path fill="#050302" d="M660.38 209.87c-2.22 1.3-4.95-.8-6.72-1.09-1.17-3.94-3.69-21.35 2.69-22.8 2.19-.5 5.69-.51 6.7 2.7 1.38 4.43 3.06 18.61-2.67 21.19"/><path fill="#040202" d="M556.82 258.8c6.84 4.75 14.51 17.35 7.16 20.77-2.63 1.23-6.09.76-7.62-2.55-3.47-7.52-10.9-12.12-7.14-16.8 1.64-2.04 5.03-3.19 7.58-1.42z"/><path fill="#030201" d="M764.46 215.96a6 6 0 0 1-7.68.6c-5.5-4.1 1.74-10.04 3.75-18.32.84-3.44 3.9-4.43 6.68-3.89 7.82 1.5 3.33 15.63-2.75 21.6"/><path fill="#040202" d="M952.42 436.21c-5.15 1.68-20.74 5.48-21.65-1.85-.2-1.55-.37-5 2-5.87 4.26-1.55 20.44-5.97 21.9 1.3.37 1.89.4 5.54-2.25 6.4z"/><path fill="#040201" d="M686.95 183.22c7.6 1.16 5.37 25.3-2.9 24.9-3.2-.16-5.76-2.55-5.4-6.51.65-7.67.49-19.56 8.32-18.37z"/><path fill="#040202" d="M881.03 396.63c-5.26 4.26-20.15 8.68-21.24.66-.4-2.87.75-6.09 4.74-6.69 7.75-1.18 13.94-7.28 17.81-1.79a6.1 6.1 0 0 1-1.3 7.82"/><path fill="#030201" d="M213.28 324.72c2.3 4.91 7.12 16.93 2.92 20.1-1.65 1.24-5.67 1.92-7.47-.54-3.02-4.14-8.93-19.16-3.25-21.58 2.72-1.17 6.36-1.05 7.8 2.04zm647.39-53.07a5.5 5.5 0 0 1-7.55-2.5c-.94-2.2-.9-5.33 1.77-7.05 6.36-4.1 10.44-13.18 16.6-8.48 6.15 4.7-3.5 14.44-10.82 18.05z"/><path fill="#040201" d="M718.8 193.1c-.13 5.04-2.76 18.84-9.74 17.08-7.79-1.96-3.27-9.1-1.63-18.8.61-3.66 2.96-5.12 5.7-5.1 3.53.02 5.79 2.64 5.67 6.82"/><path fill="#030201" d="M450.65 288.84c6.5 4.04 13.26 18.02 5.74 21.05-6.7 2.7-7.03-5.59-13.48-13.27-1.71-2.04-1.21-5.05-.22-6.45 1.6-2.27 5.17-3.06 7.96-1.33"/><path fill="#050302" d="M950.67 411.94c-4.88 2.6-18.96 7.47-19.88-.51-.17-1.56-.27-4.6 2-5.56 5.68-2.43 18.05-7.39 20.46-1.55 1 2.44.55 5.94-2.58 7.62"/><path fill="#040202" d="m509.6 272.38-9.4-8.99a5.86 5.86 0 0 1-.51-7.75c1.47-1.81 4.84-2.67 7.66-1 4.64 2.73 14.94 11.78 9.84 17.72a5.4 5.4 0 0 1-7.6.02"/><path fill="#030201" d="M783.1 274.17c-7.48 4.71-6.97 12.73-14.89 10.07-6.94-2.35-.69-15.24 9.54-20.12a5.3 5.3 0 0 1 6.89 1.94c1.4 2.66 1.2 6.36-1.55 8.1zm-309.74 4.85c4.75 3.5 13.08 18.38 4.16 21.07-2.84.85-5.66-.68-6.93-3.9-2.46-6.25-9.05-13.05-4.35-16.86 1.82-1.49 4.83-2 7.12-.31m-.96 56.52c-2.85.95-6.75-1.77-7.98-4.51-3.25-7.2-9.36-11.41-5.33-16.42 1.27-1.56 4.93-2.63 7.5-.65 4.57 3.52 13.11 16.28 5.83 21.6z"/><path fill="#040202" d="M878.33 445.7c-3.89.96-6.54-.79-7.67-3.55-3.27-7.9 13.37-10.12 18.67-10.58 3.44-.3 5.06 2.9 5.24 5 .27 3.1-1.39 5.47-4.72 6.3zM494.21 286.4c-4.44-6.38-13.56-13.73-9.08-19.18 1.67-2.02 5.71-2.65 8.28-.3 3.76 3.45 12.23 13 8.24 18.1-1.53 1.94-4.01 2.73-7.46 1.4z"/><path fill="#030201" d="M855.96 246.83c-1.9 4-10.46 15.2-16.25 10.75-2.32-1.77-3.12-5.74-.92-8.26 6.53-7.54 9.95-12.85 14.84-10.57 2.61 1.22 3.93 4.77 2.35 8.08z"/><path fill="#040202" d="M266.87 342.75c1.83 4.72 5.71 17.82-1.33 19.39-2.84.64-5.63-.63-6.8-4.16-1.89-5.67-5.53-18.41 2.28-18.86 1.91-.1 4.73.74 5.85 3.62z"/><path fill="#040302" d="M450.08 342.97c-5.95 1.24-5.8-4.93-11.27-12.94-1.5-2.2-.87-5.2.63-7 1.22-1.49 4.5-2.52 7.15-.64a18.6 18.6 0 0 1 7.82 14.68c.07 3.17-1.75 5.36-4.33 5.89z"/><path fill="#020101" d="M273.46 311.73c3.1 5.95 5.88 20-2.86 20.1-1.69 0-4.77-.58-5.25-3.4l-2.51-14.54c-.53-3.07 2.42-4.88 4.42-5.12 2.12-.27 4.81.33 6.2 2.96"/><path fill="#030201" d="M317.55 312.97c1.51 3.32 4.19 17.56-.18 19.83-2.48 1.29-6.98 1.63-8.08-1.6-1.19-3.48-4.7-18.91.65-21 2.43-.96 6.15-.37 7.6 2.78z"/><path fill="#050302" d="M340.68 329.16c-.83 3.4-4.3 3.6-5.97 3.42-5.42-.52-8.7-19.53-5.98-21.45 1.82-1.29 5.48-2.16 7.5-.16 4.3 4.26 6 11.71 4.43 18.19z"/><path fill="#030201" d="M919.13 429.36c-1.88.96-18.6 4.18-18.92-4.37-.32-8.32 18.41-7.13 19.66-6.96 2.69.38 3.34 3.45 3.34 5.23-.02 2.34-1.38 4.71-4.07 6.1z"/><path fill="#040201" d="M735.76 275.17c-3.97.93-4.38-4.28-6.47-5.62.7-3.99 11.88-16.92 17.7-13.65 1.56.87 3.86 3.75 2.51 6.33-3 5.78-8.47 10.15-13.74 12.92z"/><path fill="#030201" d="M750.42 304.75c-3.2.8-6.01-.73-6.92-2.5-1.06-2.05-.85-6.98.96-8.22 5.7-3.95 9.52-12.74 15.48-8.14 6.87 5.33-5.55 15.74-9.52 18.86"/><path fill="#020101" d="M876.17 374.45c-8.45 3.67-16.23 7.65-19.06.72-3.06-7.5 18.92-15.24 21.63-8.53 1.1 2.71.65 6.42-2.57 7.81m65.65-8.63c-5.2 5.48-19.24 9.67-20.6 1.8s5.97-5.7 13.34-10.43c2.77-1.78 5.69-1.1 7 .37 1.94 2.14 2.48 5.9.26 8.26"/><path fill="#040202" d="M289.48 343.32c2.34 2.95 8.38 16.95 1.4 19.95-1.6.68-4.91 1-6.37-1.66-2.09-3.8-8.07-17.9-2.01-19.9 2.27-.75 5.18-.67 7 1.61zm114.64-41.99c3.09 3.63 11.33 16.1 4.88 19.4-2.57 1.32-6.09.96-7.8-1.86-3.66-6.1-8.85-12.97-4.5-17.15 1.8-1.73 5.56-2.58 7.42-.38zm175.15-42.7c-.87 2.87-4.66 2.72-6.14 2.51-1.47-.2-13.52-12.43-10-18.03.73-1.17 3.1-2.56 5.8-1.76 6.67 2.02 12.5 10.02 10.34 17.28"/><path fill="#030201" d="M294.5 311.65c3.44 4.53 5.02 17.07-.1 19.43a6.1 6.1 0 0 1-7.62-1.93c-.2-6.99-5.88-18.5 2.02-19.6 1.9-.26 4.16.07 5.7 2.09zm610.54 48.86c-2.67 2.5-16.3 11.34-19.39 3.8-3.27-8.02 15.9-16.02 19.6-11.43 1.57 1.94 1.94 5.62-.2 7.65zm-60.43 80.52c-1.16-2.58-4.17-4.67-2.97-8.28 1.72-3.7 17.87-9.4 20.77-3.5 1.1 2.23 1.04 5.98-1.8 7.47-5.25 2.75-10.78 3.52-15.98 4.33z"/><path fill="#050302" d="M395.14 333.71c5.3 3.55 7.5 17.2 2.51 19.53-2.05.96-6.24 1.28-7.45-1.5-1.15-2.6-5.34-15-1.89-17.6 1.78-1.35 4.62-1.9 6.83-.43"/><path fill="#040202" d="M928.81 346.35c-4.06 1.7-14.58 7.33-16.72 1.27-.78-2.22-1.21-5.36 1.1-6.9 4.9-3.27 15.73-8.26 18.5-1.84 1.05 2.43.58 6-2.86 7.47z"/><path fill="#030201" d="M151.95 376.88c-1.36 5.07-8.2 3.72-9.87.59-2.35-4.4-8.37-10.77-5.27-15.22 1.07-1.53 4.47-3.44 7.1-1.47 4.2 3.13 9.7 9.92 8.03 16.12zM254 311.17c1.13 5.68 2.95 16.67-3.13 17.56-2.01.3-5.37.09-6.24-2.54-1.72-5.13-4.28-18.13 2.95-18.91 2.38-.26 5.75.62 6.4 3.89z"/><path fill="#040202" d="M708.26 227.13c-1.11 3.33-2.37 5.32-4.73 5.55-2.22.22-6.2-.29-6.6-3.72-.82-6.97 3.52-19.54 10.56-16.62 2.07.85 4.44 3.67 3.48 6.6l-2.71 8.17zm38.37-34.15c1.13 3.51-.97 20.76-9.97 18-7.87-2.4-.74-20.9 4.5-21.04 1.98-.05 4.58.31 5.47 3.04"/><path fill="#060302" d="M836.42 235.67c-4.7 5.09-7.23 10.21-12.4 8-2.99-1.29-4.22-4.8-2.48-8.08 2.6-4.93 8.79-13.1 14.41-8.86 2.8 2.11 3.12 6.07.47 8.94"/><path fill="#020101" d="M874.79 471.83c-2.24 1.13-4.43.82-6.69-.41-2.25-1.23-.81-4.84-1.76-6.37 1.22-3.96 15.6-13.5 19.11-6.32 3.52 7.18-4.74 8.73-10.67 13.1"/><path fill="#050302" d="M424.27 330.28c2.87 4.73 6.64 15.42 1.2 17.8-1.97.86-5.2 1.38-6.64-.94-2.2-3.54-7.64-16.14-1.84-18.76 2.41-1.1 5.6-.86 7.26 1.88z"/><path fill="#040201" d="M689.52 214.57c.83 4.02.11 17.18-7.1 17.38-1.76.04-4.38-.56-5.12-3.11-.87-3 .22-16.17 5.29-17.56 2.61-.73 6.2-.2 6.93 3.29"/><path fill="#050302" d="M462.89 352.45c1.24 3.62 1.66 6.27.15 8.41-1.5 2.14-4.15 2.58-6.81 1.8-1.94-.56-10.98-14.07-5.2-18 5.4-3.7 9.98 2.27 11.86 7.77z"/><path fill="#030201" d="M914.4 317.63c-3.9 3.94-14.13 9.65-17.09 3.58-1.39-2.85-.9-6.6 2.44-8.11 4.24-1.93 10.85-8.14 15.04-2.97a5.66 5.66 0 0 1-.4 7.49zm-704.75 62.69c-.08 3.24-2.95 4.35-4.36 4.56-1.65.25-4-.16-5.31-2.08-3.08-4.48-8.37-15.02-2.4-17.17 8.53-3.08 12.16 10.58 12.07 14.69m32.19-34.1c5.85 2 6.52 16.03 4.78 18.63-1.03 1.55-4.9 3.42-7.36 1.06-3.92-3.73-5.83-11.2-4.2-16.27 1.16-3.6 4.84-4.07 6.78-3.42"/><path fill="#060403" d="M817.68 217.31c4.7 5.91-7.73 15.29-9.46 15.38-2.5.17-5.97-1.35-6.33-4.75-.47-4.34 3.29-7.44 6.08-10.34s7.26-3.37 9.72-.29z"/><path fill="#050302" d="M120.02 372.84c7.5-6.2 13.97 10.41 13.62 12.97-.4 3.01-2.55 4.45-5.1 4.6-5.62.31-14.1-12.96-8.52-17.57"/><path fill="#020101" d="M886.28 283.27c-4.2 2.97-11.11 7.55-14.7 3.1-1.58-1.98-1.9-5.3.32-7.5 2.57-2.55 5.76-4.1 9.1-5.56a5.6 5.6 0 0 1 7.25 2.6c1.27 2.36.78 5.4-1.97 7.35"/><path fill="#040201" d="M472.4 335.54c7.16-2.38 9.3 2.7 11.74 7.86 1.71 3.61 2.12 7.91-1.03 9.44-3.54 1.7-6.66.35-8.73-2.8-3.07-4.67-5.16-10.1-1.98-14.5"/><path fill="#7a4a34" d="M871.94 504.93c.14-1.47.64-1.5 1.5-.2q14.24-.23 23.07-9.6c.66-.87 2.48-1.18 3.01-2.07 4.32 7.21 17.05 7.86 21-.13 6.61 2.08 14.71-1.03 19.99-5.24q.64-4.8 9.72-2.57 2.04-2.5-.35-8.69c5.72 2.17 11.37-15.79 13.52-21.1 8.07 4.02 1.26 13.65-.54 19.67-1.12 3.92 6.65 12.71-.07 15.59-3.06 1.3-8.22-.44-8.68 4.75-.3 3.54 1.44 5.57 5.8 8.15 3.12 1.82 1.47 12.07-2.1 12.8-3.56.72-6.35-.01-7.3 2.37-3.42 8.7 6.18 8.12 5.42 11.81-1.97 9.38-8.2 1.84-10.62 8.9-1.26 3.68 1.7 4.8 3.4 7.53 2.8 4.55-2.1 10.82-6.55 12.53-5.52 2.14.86 7.17-1.74 12.55-1.77 3.65-8.75-1.32-10.51 4.06-2.09 6.37 4.6 6.95 2.43 11.99s-9.58 1.16-10.9 5.86c-1.34 4.7 3.15 7.7.62 11.11-5.29 7.16-7.27-2.91-12.72 2.67-3.46 3.56.54 6.32 1.33 9.63 1.78 7.55-7.82 13-15.25 12.72.12 6.14.06 10.35-2.8 13.28s-7.2 1.44-11.28 2.5c-4.08 1.05-1.2 8.12-3.35 10.13-2.39.6-5.49-.9-7.42-.16-6.9 2.6 2.07 7.94-5.53 14.24-5.93 4.9-13.04-6.12-16.31 1.49-2.92 6.8 6.92 8.12.66 13.67-1.55 1.37-3.2.88-5.63-.6-3.1-1.87-6.13-.3-7.54 2.07-1.58 2.63.94 5.7 1.75 8.45-1 4.03-5.74 6.71-8.52 9.6-2.6-2.92-4.89-4.18-8.06-3.46-1.91.44-3.4 1.78-3.93 4.32-.46 2.15 1.6 4 2.15 6.76.6 2.96-4.8 8.38-8.08 8.14-3.66-.27-8.93-1.94-9.58 3.07-.49 3.74 1.37 7-1.6 9.3-9.26 7.13-10.61-1.18-14.48 3.46-2.63 3.16.24 8.74-3.36 11.15-4.35 2.93-9.25.3-12.04 2.67-1.16.97-1.3 3.23-1.95 5.45-2.15 7.11-11.33 1.76-15.86 3.3-3.23 1.13-.05 11.14-24.13 5.96 1.15-3.69-6.34-20.32-7.7-20.91-2.02-.9-4.97-1.41-6.82.5-2.93 3.03-.74 7.06-1.48 11.24-4.34-2.6-8.71-9.91-4.7-14.46 1.72-1.94 9.4-2.8 7.5-7.18-5.04-11.7 1.8-20.92 3.46-32.14l2.75-18.53c4.18-28.07 9.84-13.45 11.46-20.57 2.48-10.93-8.3-14.61-2.39-22.3 2.35-3.05 5.83-4.9 9.72-7.32 2.62 5.18 4.87 10.69 9.96 14.02 2.4 1.58 5.85.38 6.89-1.04 4.59-6.25-6.43-16.36-10.11-19.54 4.8-3.01 7.22-6.65 10.87-9.62l20.98-17.06c21.07 2.37 39.1-5.02 56.7-14.73 2.1-1.15 8.55 3.44 9.08-.7l.9-7.12c.78-6.12 8.86-10 12.57-15.57 4.56 3.02 9.24 3.09 11.12-1.26 1.12-2.55-.33-6.58-4.59-8.8l6.46-22.9c3.03-1 5.55-.73 8.2-2.04a5.57 5.57 0 0 0 2.66-7.25c-1.31-2.74-5.25-3.62-8.92-3.16-2.19-3.84-.45-7.84-1.14-11.4z"/><path fill="#030201" d="M893 492.96c1.29.5 2.44 1.3 3.51 2.17 1.02 6.15-3.7 8.72-9.57 10.33-5 1.35-10.39 4.04-13.5-.72-4.33-9.31 14.08-12.02 19.54-11.76z"/><path fill="#020101" d="M920.53 492.91c.61 1.65.9 3.51.1 5.25-2.28 4.91-14.48 3.63-18.88 2-3.02-1.12-2.8-4.93-2.22-7.11-.31-4.65 21.16-4.82 21-.14m29.35-16.48c3.22 1.94 5.15 4.08 4.86 7.17-.2 2.13-1.9 4.96-4.93 4.75l-9.3-.66c-4.6-.33-6.91-2.87-6.96-5.57-.1-3.93 2.38-5.9 6.64-6.18 3.66-.22 6.8.23 9.7.48zm-56.33 140.33c2.9 2.33 3.05 5.4 2.22 7.22-4.32 9.6-18.05-4.72-22.37-9.2-1.9-1.95-1-5.36.06-6.82 1.47-2.06 5.4-3.01 7.91-.99l12.2 9.81z"/><path fill="#030201" d="M915.74 520.03c.58 9.9-15.9 4.57-22.58 2.39-3.45-1.12-4.78-4.17-4.27-6.53.67-3.23 3.44-5.13 7.01-4.37l14.8 3.16c3.26.7 4.9 2.95 5.04 5.37zM773.6 643.45c5.49 5.43 15.33 14.6 10.06 19.36-6.33 5.7-13.98-5.9-18.74-12.27a5.6 5.6 0 0 1 .46-7.55c2.42-2.2 5.85-1.89 8.22.46"/><path fill="#020101" d="M811.92 651.59a6.1 6.1 0 0 1 .57 6.95c-1.38 2.07-5.46 3.25-8.08 1.23-4.13-3.2-16.59-16.24-10.37-21.06 2.07-1.6 5.95-1.77 8.01.75l9.87 12.11zm21.03-18.81c2.35 2.1 2.01 5.81.8 7.5-1.6 2.2-5.47 3.15-8 1.22-4.93-3.75-17.32-15.08-10.13-20.36 5.98-4.4 11.09 6.01 17.33 11.62z"/><path fill="#030201" d="M868.36 597.78a6.04 6.04 0 0 1 .53 7.56c-1.67 2.27-5.5 2.77-8.22.64-4.72-3.69-16.61-14.97-9.46-19.76 1.7-1.14 5.38-1.43 7.47.88zm-35.77 60.07c6.99 10.15 13.52 13.06 9.22 18.23-1.46 1.74-4.7 2.6-7.44 1.01-6.1-3.51-15.65-15.41-10.12-20.17 2.4-2.06 6.4-1.89 8.34.93"/><path fill="#020101" d="M813.11 676.09c5.05 4.25 15.05 13.38 8.66 19.17-1.78 1.62-6.1 2.17-7.85-.34-6.36-9.1-12.49-12.87-8.74-17.78 1.5-1.98 5.5-3.12 7.93-1.07z"/><path fill="#030201" d="M944.22 513.62c-7.96-.58-21.57-1.5-19.9-9.87.62-3.08 3.75-4.6 7.48-3.87l12.12 2.32c2.86.56 4.61 2.26 4.87 4.49.33 2.73-.6 5.7-4.57 6.93"/><path fill="#020101" d="M901 565.42c-2.78 6.61-14-.94-18.91-3.82-3.02-1.77-3.67-5.18-2.54-7.9 2.84-6.75 14.69.84 19.39 4 2.71 1.84 3.22 4.98 2.06 7.7zM748.2 747.8c1.72 3.22 1.02 6.73-1.33 8.38-1.94 1.37-6.19 1.52-8.01-1.48-2.96-4.85-11.5-17-3.85-20.1a6.1 6.1 0 0 1 7.63 2.87z"/><path fill="#030201" d="M752.63 691.18c.94.75 12.79 12.4 8.66 17.69-1.85 2.38-5.66 2.9-8.49.36-4.25-3.82-12.71-13.94-7.5-17.8 1.94-1.44 5.2-1.94 7.33-.25m26.56-66.61a6 6 0 0 1 .3 7.7c-1.39 1.75-4.72 2.67-7.46.97-4.47-2.75-14.35-13.52-8.52-18.11a6 6 0 0 1 8.1.83z"/><path fill="#010101" d="M942.08 535.82c-2.45 7.4-24.17-1.86-22.66-9.02 1.9-9.03 15.46-1.21 20.92 2.14 2.46 1.52 2.43 4.83 1.74 6.9z"/><path fill="#020101" d="m867.7 643.76-9.19-10.24c-1.8-2-.92-5.47.42-7.13 1.23-1.57 4.77-2.69 7.32-.79 4.92 3.65 15.22 13.45 9.14 18.57-2.03 1.71-5.5 2.03-7.7-.41"/><path fill="#030201" d="M782.13 710.51c4.12 4.36 12.97 13.55 7.35 17.9-5.98 4.62-12.53-5.36-16.1-10.83-1.91-2.94-1.13-6.02.6-7.54 2.43-2.16 5.86-1.93 8.13.47z"/><path fill="#020101" d="M860.34 656.79c-4.77 6.56-14.4-4.9-17.55-10.44-1.53-2.68-.41-5.32 1.3-6.77a5.4 5.4 0 0 1 7.63.52c5.35 5.64 12.75 11 8.62 16.7zm-126.38 47c2.99 3.94 9.84 15.52 4.4 19.56-7.61 5.65-17.64-16.54-12.58-20.52 2.3-1.8 6.15-1.73 8.18.94z"/><path fill="#030201" d="M776.66 678.26c6.13 6.54 11.1 10.51 8.84 15.18-1.21 2.5-4.86 3.74-8.12 1.88-5.6-3.17-13.62-12.67-8.8-17.06 2-1.83 5.88-2.35 8.08 0m-16.05-10.72c2.25 3.06 1.52 6.8-.84 8.53-1.74 1.3-5.26 1.3-7.52-.93-4.22-4.16-13.08-14.87-5.65-18.44a5.8 5.8 0 0 1 7.38 1.83l6.63 9.03zm140.71-61.76c-6.47-2.63-16.02-8.87-11.38-15.38 3.66-5.14 12.52 2.44 17.83 6.32 2.07 1.52 1.8 4.55 1.4 6.14-.62 2.41-4.06 4.45-7.85 2.92"/><path fill="#020101" d="M766.59 732.35c1.9 3.07 2.1 6.13.5 8.23-1.61 2.1-5.86 3.12-8.34.42-3.44-3.78-12.16-15.9-5.46-19.07 2.84-1.34 6.13-1.15 7.92 1.75l5.36 8.67z"/><path fill="#040202" d="M798.23 694.99c1.7.22 12.23 10.38 11.82 13.7-.26 2.15-2.4 6.12-5.99 5.26-6.14-1.46-13.13-8.55-12.63-15.14.27-3.65 4.72-4.1 6.8-3.82"/><path fill="#030201" d="M935.09 557c-1.93 7.49-13.64 1.57-18.3-1.13-2.9-1.69-3.15-4.92-1.92-7.76 2.41-5.62 13.37.06 17.75 2.29 2.63 1.34 3.13 4.1 2.47 6.6"/><path fill="#020101" d="M884.02 588.98c-4.78 5.4-14.17-4.04-17.18-8.41-1.47-2.14-.8-4.94.29-6.45 4.5-6.28 12.64 3.19 16.85 7.04 2.3 2.1 1.81 5.82.02 7.82zm37.7-3.44c-4.03 4.38-20.95-5.3-18.25-12.94s14.1.56 18.35 4.86c2.25 2.27 1.98 5.83-.1 8.08"/><path fill="#050302" d="M731.03 669.13c4.75.23 13.58 17.32 6.17 20.5-7.91 3.39-13.57-12.55-11.35-18.67.72-1.98 3.64-1.9 5.18-1.83"/><path fill="#030201" d="M844.69 626.45a20.2 20.2 0 0 1-8.26-10.44 5.3 5.3 0 0 1 3.09-6.86 5.75 5.75 0 0 1 6.7 1.88c5.15 6.58 9.3 9.2 6.31 14.02-1.32 2.16-4.74 3.36-7.84 1.41z"/><path fill="#040202" d="M833.6 606.39c1.43 2.9.24 5.51-1.24 6.62-1.49 1.1-4.28 1.78-6.47.37-5.96-3.86-9.62-15.42-4.83-18.01 2.73-1.46 6.5-1.3 8.03 1.81l4.52 9.19z"/><path fill="#020101" d="M897.1 545.47c-6.48 1.04-18.5-1.17-18.59-7.32-.05-3.3 2.29-5.93 6.25-5.66 4.64.3 8.72 1.73 12.75 3.81 2.29 2.53 2.52 6.24-.4 9.17"/><path fill="#040201" d="M804.64 615.38c.95 4.38-2.98 6.03-5.06 6.03-4.96 0-11.86-7.72-11.72-11.97.07-2 2.24-5.8 5.65-5.1 4.39.9 10.02 5.9 11.13 11.03z"/><path fill="#040302" d="M793.94 663.48c1.77.74 8.56 7.75 7.9 12.42-.3 2.2-2.37 5.13-6.07 4.26-5.95-1.4-11.17-9.1-8.56-14.73 1.3-2.8 5-2.66 6.73-1.95"/><path fill="#f3b782" d="M431.8 574.6c1.62-.2 3.29-.02 4.9-.05 7.09-8.3 16.69 8.11 8.49 13.08-3.7.89-7.66 4.84-9.92 8.13-2.12 3.09-1.42 7.11.45 8.75 2.28 2 5.27 1.7 7.72 1.4l3.42 4.88q-.15 29.27-.4 57.85c-6.25 15.85-60.96 43.66-76.35 51.24-24.1 11.9-82.79 37.42-108.8 37.36l-4.71-2.64c-32.11-36.43-57.06-79.22-81.31-121.17-2.02-5.56 2.61-5.73 3.17-.43a34 34 0 0 1 9.82.08c.67-5.37 14.48-4.42 13.1 1.45l13.1-.79 4.52-3.8a320 320 0 0 0 84.33-30.19c14.79-5.7 45.36-16.55 60.38-14.75 2.28.26 4.22 1.51 5.96 2.96a25 25 0 0 1 9.81-1.15l2.29-3.6q23.16-6.02 46.52-11.45l3.49 2.84z"/><path fill="#f6b983" d="M789.18 406.76c3.85 27.56-19.93 53.41-41.47 68.07q-10.38 8.73-19.83 6.5L624 332.33c-6.5-9.32-14.04-14.12-25.96-9.34-13.97 5.59-25.72 15.93-36.15 27.37-13.5 14.8-18.96 35.09-11.33 54.96-21.4 2.18-39.14 8.39-56.56 18.86-7.02-10.12-11.61-21.9-6.87-32.5 1.69-9.4 5.9-16.63 14.21-21.62 26.51-15.9 49.67-35.83 77.27-50.25 29.15-15.24 63.95-15.45 95.56-8.95a157.8 157.8 0 0 1 115 95.9z"/><path fill="#fe5971" d="M242.96 472.79c3.5 16.5 11.99 31.12 21.98 45.15 22.26 31.2 53.68 7.68 72.9 2.66 5.82-1.51 12.65 3.4 19.18-2 1.85-1.56 32.38-14.33 23.07-26.45-4.33-5.65-6.14-12.12-9.37-17.32a3.3 3.3 0 0 1-.27-3.84c1.07-1.68 25.48 5.77 29.52 7.7 3.7 12.74 8.66 23.93 17.24 34.12.82 7.13-5.34 11.22-7.23 3.08-1.13-3.1-6.9-4.92-11.26-4.7-13.51.67-24.77 8.35-26.2 21.43l-4.9 4c-53.03 4.53-99.18 24.59-145.84 48.72l-7.79-2.53c-.99-.63-2.57-.16-2.94-1.4-.38-1.33.78-20.6-5.3-23.21-8.2-3.73-18.86 3.07-25 8.72q-4.5 6.05-9.75-5.5a266 266 0 0 1-12.67-41.98 172 172 0 0 1-20.87-41.26c.03-9.56 4.4-25.28 14.83-18.38 2.72 9.69 10.83 10.98 19.77 13.03 6.76 1.54 10.46 10.57 20.03 7.7 9.57-2.85 22.64-14.6 19.85-26.37-10.65-15.35-30.52-.66-29.46-13.56l.72-3.67q11.04-4.35 22.5-6.14 13.97 20.5 35.29 28.35l1.94 13.65z"/><path fill="#fe5309" d="m226.55 750.95-4.41 3.01c-55.44-5.72-85.01-39.02-114.4-82.68-19-28.24-38.42-60.63-33.07-95.9 4.05-20.75 10.11-40.29 20.86-58.54 8.32 23.56 14.85 44.98 25.79 65.87 14.19 27.13 28.89 52.4 44.58 78.73 18.34 31.95 39.66 60.37 60.65 89.51"/><path fill="#c14456" d="m441.5 745.1 2.75-3.61q52.33 1.71 105.57 3.92l5.65 2.03c4 12 9.87 21.65 11.97 34.54-6.91-7.63-17.25-6.59-26.07-7.05-4.2-4.56-6.97-14.03-13.7-17.18-5.17-2.4-9.14 1.7-12.25 5.06-9.1 9.85-10.88 22.5-2.45 34.19l-124.06-2.56c-5.48-.2-10.48-6.08-14.86-7.54.26-8.29 1.08-17.1-4.25-22.55-3.93-4.01-11.66-.3-15.77 1.56-10.99 4.99-16.67 14.9-14 27.6l-37.06-.6c-2.26-6.15-4.23-11.22-5.37-17.82 10.48-7 22.93-10.55 35.8-12.74 22.07-3.76 41.59-9.9 61.37-21.45 1.32 9.15 8.18 10.58 12.03 15.1 3.84 4.5 3.22 12.23 10.05 15.31 11.56 5.23 28.3.52 34.07-11.65-.04-5.56-5.52-12.7-9.4-14.57z"/><path fill="#b78a62" d="M431.8 574.6c-29.5 3.73-25.81 9-52.3 12.21q-5.11-.4-9.82 1.15c-67.97 2.67-96.7 40.26-155.2 45.8l-13.08.79c-4.22-1.96-8.7-1.29-13.1-1.46l-9.83-.08c-1.03-.25-3.06-1.27-3.17.43-17.13-29.63-36.49-57.93-47.51-91.72-2.76-8.46-25.03-52.28-12-53.76 19.9 33.1 16.56 28.08 26.3 63.83 5.14 18.87 15.41 32.96 27.86 47.56 6.24 7.32 11.51 15.36 23.38 14.51 14.44-1.03 30.42-.85 44.04-6.84l54.66-24c24.73-10.86 50.56-15 77.55-17.57 25.34-2.4 48.31-11.2 71.76-19.93 8.23-3.07 14.1-8.03 20.2-15.04 1.95 3.57 3.34 7.78 2.22 12.16l-3.08 12.01c-6.17-7.9-15.3-9.29-23.68-4.14-4.42 2.71-7.63 6.61-8.6 10.43q-2.2 8.43 3.42 13.63z"/><path fill="#c13f07" d="m226.55 750.95 37.93 40.7c-20.52.04-40.03.94-60.1-1.48-10.12-1.21-17.57-9.93-25.82-15.09-40.55-35-88.37-91.2-104.04-142.71-5.69-18.72-2.65-39.15.13-57.01-1.43 45.82 34.7 95.62 63.42 130.28 11.35 13.69 23.16 25.66 40.11 32.13 15.97 6.1 31.8 12.67 48.37 13.18"/><path fill="#bb8d64" d="m687.4 615.35 1.61-3.7q9.99-.74 19.45-2.17c-.73-3.22-.62-5 3.25-5.34 1.46-2.22 2.9-6.29 4.31-8.91 17.27-7.19 35.04-13.31 48.49-27.54 5.3-5.62 9.29-20.64 4.2-27.92l-40.83-58.46c31.51-12.34 57-40.79 61.3-74.57 7.94 19.77 12.64 39.71 12.44 62.5-.44 52.67-25.06 101.43-68.52 131.4-24.59 16.96-13.03 14.76-45.7 14.7"/><path fill="#7a4a34" d="m640.48 738.61 3 2c-.8 12.25 8.97 26.91 21.67 18.12l24.48-108.25c-1.82-2.84 9.58-18.77 9.23-16.4-.54 3.82-2.32 2.88-3.16-.93 5.27-.25 10.62-2.18 16.7-.2-6.87 14.08-9.28 27.98-12.48 42.47l-16.39 74.47c-4.2 19.08-7.5 37.54-12.41 56.12a23.8 23.8 0 0 1-16.76 16.84c-14.76 3.7-29.5-10.61-31.96-22.9-1.42-7.1-6.17-13.29-7.14-20.51-1.1-8.13 8.15-32.22 22.49-35.54a27 27 0 0 1 2.75-5.29z"/><path fill="#bb8d64" d="M256.6 754.62c14.83-2.18 30.53-3.6 45.14-9.54l35.92-14.6c26.52-10.77 51.3-22.4 75.2-37.94 9.5-6.18 18.49-11.87 26.4-19.47 5.8-5.54 5.32-9.04 4.48-16.66-1.86-17.06.46-34.11-.33-50.5-.13-2.82 5.02-7.9 8.92-6.92 1.2 16.55-1.45 32.56-2.15 49.21-.44 10.33 5.03 17.09 16.58 19.14-17.09 20.16-36.15 36.44-57.31 51.22-58.66 40.94-80.81 24.78-116.53 45.9-12.66 7.49-3.42 18.64-3.36 27.57-13.12-11.07-22.24-25.24-32.98-37.43z"/><path fill="#fe5970" d="M552.06 696.4a99 99 0 0 0 3.4 51.02c-31.8 1.1-63.61-.6-96.25-2.6-6.46-.4-12.23-.52-17.72.25l-10.12-4.89c-1.49-.72-.85-2.66-.31-3.83l.79-3.67a364 364 0 0 0 29.46-27.07l2.44-.01q.22 7.42 1.54 14.65l3.53 1.17c5.35 17.19 18.4 19.84 32.1 8.4 19.93 2.18 25.67-21.77 14-33.92q-12.54.26-22.62 12.95c-2.07.52-21.5-3.15-22.22-6.83-2.27-3.73-.37-6.22 2.17-9.16 2.31-3.4 23-27.52 24.88-28.73 3.13-2 4.51-1.06 7 1.53q1.45 6.86 5.79 11.64a126 126 0 0 1 40.39 14.01l1.75 5.07z"/><path fill="#a16144" d="M695.7 633.14c1.47.38 2.88-.19 5.4.81-6.13 7.7-8.2 16.13-10.37 25.73l-22.37 99.54c-1.02 4.52-8.6 5.59-11.74 5.38-13.33-.88-17.78-18.68-16.14-26l18.4-82.93c4-18.1 21.75-21.85 36.82-22.55z"/><path fill="#c14456" d="M552.06 696.4c-11.36-7.94-24.73-12.43-39.2-14.6-8.03-1.2-9.46-7.92-12.43-16.95-9.24 14.1-22.73 23.6-30.33 37.17q.99 3.3-1.7 7.82.85 7.42-3.11 10.41c-2.98-2.71-.5-7.13-2.03-12.54-8.1 7.3-23.1 25.7-32.19 28.64-.04-5.7-1.6-11.17-2.4-17.33 20.42-15.7 38.01-33.28 54.07-53.35 8.83-11.03 17.35-21.62 29.1-29.72 2.45-1.69 6.67.66 7.78 2.63 3.38 5.99-2.86 13.01 1.54 20.96 3.33 6.02 26.28 5.8 38.16 19.78-2.47 5.7-6.12 11.12-7.26 17.09"/><path fill="#bb8d63" d="M579 539.82c6.51 8.47 15.04 13.45 24.55 9.45 2.8 2.73 4.1 6.63 7.69 8.15 6.45 2.75 12.9-.1 19.34-2.85.46 18.15-1.09 36.57-8.4 53.96L503.3 437.59c15.34-1.28 29.53 3.59 43.27 7.94-5.75 9.15-6.41 12.67 1.33 20.64-6.9 6.51-8.84 15.87-3.42 23.9 11.25 16.7 21.94 33.37 34.5 49.75z"/><path fill="#f6b983" d="M853.25 538.17c-4.53 6.84-9.55 8.52-16.83 10.81-6.85 2.14-19.97 5.53-25.06.7 15.63-5.09 26.23-19.8 27.08-36.16.9-16.65-9.36-31.8-25.47-38.17-.84-7.62-.55-14.56-.47-21.96 18.56 2.95 33.42 16.83 40.52 29.9 11.09 20.38 7.88 37.92.23 54.88M619.83 280.19q-4.36-4.45.8-12.27a59 59 0 0 1 15.25-20.25c19.1-4.2 38.25-2.28 54.5 11.9 13.83 12.08 22.88 30.99 20.81 51.04l-21.31-7.79c-1.7-16.84-12.82-30.06-27.12-34.37-16.38-4.94-31.49.68-42.95 11.72z"/><path fill="#a16144" d="M328.97 370.4q7.8-1.9 6.27 2.73a235 235 0 0 1-5.74 19.64 679 679 0 0 1-91.43 21.28l-4.9-1.36c-4.78-10.77.27-24.57 12.3-26.8l83.52-15.5z"/><path fill="#c14456" d="M410 515.9c.32.62 1.9 1.22 2.53 1.5.92.4 2.52-2.94 1.48-4.08-8.42-9.26-13.63-19.97-16.19-32.74-2.63.25-32.1-9.9-27.1-5.76-4.97-8.06-12.17-14.98-15.37-25.98 24.74 5.73 37.17 14.8 61.8 17-5.1 46.94 22.54 44.07 24.11 52.36s-25.88 18.45-34.48 21.02c3.17-8.5 4.76-15.75 3.22-23.32m-257.69-56.1c-8.08.05-12.42 9.46-11.58 18.11 1.72 17.69 21.15 28.75 24.78 55.31 1.05 7.72 8.8 34.82 15.27 33.68-5.18 4.77-3.93 13.1-5.52 20.66-29.43-30.02-21.11-62.4-42.85-93.4a80 80 0 0 1-11-22.34c10.14-10.79 19.33-21.49 31.1-29.2-.44 7.85-1.6 12.1-.18 17.18z"/><path fill="#7a4a34" d="M233.16 412.7c31.6-5.31 62.3-14.78 94.5-22.14 1.3-7.11 2.6-13.08 4.99-19.41-1.68-.86-2.76-.57-3.66-.77 5.47-1.73 10.6-3.58 16.3-.56-2.42 14.63-8.5 27.5-12.59 41.84l-76.71 13.46c-10.9 1.92-19.13-4.08-22.83-12.42"/><path fill="#c14456" d="M372.54 532.62c-.54 4.9 3.06 9.26 6.98 12.81-46.64 9.07-72.45 5-114.72 28.4a284 284 0 0 1-37.61 17.42L214 582.79c4.08 1.12 7.98-.97 12.2-3.02 63.46-30.87 73.02-36.84 146.33-47.17z"/><path fill="#bb8d63" d="M663.97 567.27c-7.09 15.12-13.98 29.93-28.58 40.51 6.75-27.3 8.87-53.2 3.31-79.6-1.56-8.7-4.59-16.29-8.27-23.97-.67-1.37.91-2.45 1.42-3.1.71-.93 2.98-1.96 4.7-.6l23.7 18.25c-4.34 22.2-7.24 27.77 3.7 48.49z"/><path fill="#fd5870" d="M428.75 394.63c-2.55 1.27-1.3 4.72-1.1 9.68-6.98-8.5-18.53-8.1-29.05-8.88-4.69-4.11-8.27-18.15-17.06-16.73-9.95 1.59-15.62 14.44-16.94 23.07-1.78 5.29-17.23 1.15-14.32-4.6 3.8-16.95 7.42-19.72 5.8-37.83 9.05-1.32 15.33 2.88 22.65 5.35 17.42 5.88 34.56 11.5 49.46 22.66 2 1.49.23 5.6.54 7.3z"/><path fill="#c14456" d="M242.96 472.79c-.54-2.58-3.57-5.35-1.13-10.44-12.18-.11-31.1-18.1-37-28.94l-22.31 7.17c-2.66-3.06-7.25-7.22-9.43-11.56a190 190 0 0 1 45.43-14.45c4.27 16.83 16.48 27.1 33.73 29.29-8.44 8.6-10.9 18.48-9.29 28.93"/><path fill="#c14455" d="M364.6 401.77c-.82 5.33 3.38 11.67 5.84 15.14 3.82 5.4 10.24 2.86 15.39 5.15 5.43 2.42 8.98 8.63 16.01 8.3 8.84-.4 15.73-6.25 20.84-12.67q3.97-.46 3.28-5.75l1.49-.94h1.7c-.24 8.2-.06 28.83-4.95 31.65-7.37 4.25-77.96-13.04-79.34-26.3-.74-7.06 2.41-13.8 5.42-19.2 3.93 3.22 9.45 3.51 14.32 4.6z"/><path fill="#c04355" d="M585.67 761.89q-.31-7.99 9.07-14.38c6.65-.78 13.29.19 17.88-4.2 9.09-8.7 8.61-21.77 3.62-33.57l18.48-.5-5.44 24.98c-20.92 13.8-30.04 38.82-24.05 63.25.47 1.93-.89 4.22-2.36 4.26-5.43.15-15.67-33.85-17.22-39.84z"/><path fill="#f5b983" d="M605.98 456.66c1.05 3.12-3.7 5.11-5.51 3.45-19.51-17.87-59.58-29.16-85.16-34.12 14.69-7.07 29.12-10 43.86-9.1 9.18 14.78 22.85 23.23 40.13 22.87 2.66 5.32 4.47 10.32 6.7 16.9z"/><path fill="#bb8d63" d="M811.36 549.67c14.43-1.45 29.36-3.3 41.9-11.5-12.06 26.76-42.49 41.88-72.6 31.67l11.94-18.28 18.78-1.89z"/><path fill="#fd5870" d="m452.05 428.93-3.43-3.9-1.31-17.89q-6.47-16.92 1.27-30.29c9-3.27 28.65 9.93 24.19 23.54-3.04 9.29-1.5 18.79-1.49 28.46l.02 13.03c-3.08-3.93-12.85-18.62-19.25-12.94z"/><path fill="#c14355" d="M452.05 428.93c-11 9.76-16.7 23.45-9.81 36.12q1.9 5.14-.56 12.38 1.85 8.46-.81 13.65c-2.73 1.18-6.46 4.1-9.54 3.18-6.5-12.5-4.04-27.74 1.52-40.66 17.12-39.73-5.58-49.8 15.76-76.75a24 24 0 0 0-.91 15.44c3.54 12.56 3.93 24.56 4.37 36.65z"/><path fill="#bb8d63" d="M635.88 247.67c-4.84 13.4-12.29 16.01-16.06 32.52-1.19 5.23-6.52 11.5-8.04 16.76-5.91 3.7-14.4 3.22-21.68 5.7 1.13-29.15 21.13-49.54 45.78-54.98"/><path fill="#fd5870" d="M350.36 466.77a109 109 0 0 1 15.74 26.13c-6.21 4.56-11.4 7.87-19 11.25-10.47-17.16-21.64-33.3-29.03-51.17l4.12-1.66c8.1 2.65 20.98 10.73 28.17 15.45"/><path fill="#c04355" d="M576.5 668.73c3.72.06 7.69 1.65 12.05.86 6.65 9.74 18.85 13.03 26.97 5.96q6.04.37 8-6.98c.95-2.64 2.22-8.36 5.44-9.33 5.67-1.73 10.7-1.4 16.62-1.53-3.87 10.8-3 21.95-8.14 30.98-4.57 4.93-16.16 1.9-21.95-.3l-20.43-7.68c-7.22-2.72-14.48-6.11-18.56-12z"/><path fill="#fc5870" d="M267.4 459.13c-5.5 6.71.35 15.22 1.55 21.17 1.42 7.12-3.44 14.5 3.15 20.93a29.4 29.4 0 0 0 33 5.15c2.81-2.46 1.38-8.21 1.7-11.2 1.05-.65 2.47-1.5 3.42-.98 1.92 1.07 13.27 14.3 9.74 17.04-8.28 5.46-18.35 9.56-28.98 8.18-16.12-2.12-29.81-27.68-34.83-41.74-2.52-7.07-2.58-12.03-.07-18.1 3.16-4.64 14.99-7.8 11.32-.45"/><path fill="#bb8d63" d="M629.66 473.53c-.3-1.26-.66-3.06.17-3.64 3.92-2.76 14.83-7.51 19.42-7.57 6.2 5.75 25.02 38.72 13.68 44.28-18.6-15.25-22.8-13.04-33.3-33.08z"/><path fill="#c04355" d="M350.36 466.77c-11.93-1.63-21.53-8.87-32.29-13.79-4.1-6.22-7.37-11.91-9.32-18.76l24.78-2.49z"/><path fill="#f5b983" d="M649.26 462.32c2.4 2.12-17.96 10.47-19.6 11.2-7.87-9.26-14.3-19.2-17.12-32.62 3.92-.65 10.13-3.91 13.73-1.97 9.61 5.76 17.58 14.29 23 23.38z"/><path fill="#f5b883" d="M798.02 539.72c5.3-12.32 8-23.78 11.94-36.56 1.4-4.53 13.41-3.88 15.52.28 4.06 8.02 1.4 17.63-3.16 24.72-4.55 7.08-12.18 12.57-24.3 11.56"/><path fill="#f4b882" d="M662 296.67c-13.83-.55-24.9-1.24-37.32-.62 3.37-10.29 10.91-15.82 18.89-17.6 8.99-2.03 20.3-.6 25.76 7.29 1.98 2.87-3.15 11.1-7.33 10.93"/><path fill="#7a4933" d="M593.16 489.95c8.2 10.23 34.25 36.52 28.2 55.42-.78 2.44-3.26 3.05-5.28 1.67-3.11-2.1 3.46-6.34.9-10.82-2.28-4-8.4-2.29-9.78-5.01-1.94-3.87 1.57-9.97-3.54-12.2-1.3-.55-4.12.43-5.62-.95-3.24-2.96.44-8.93-2.43-12.18-2.25-2.56-7.91-.3-9.6-3.03-1.9-3.08-.12-6.87-.76-9.57-1.28-5.1 4.48-7.25 7.91-3.36z"/><path fill="#b98c63" d="M688.1 470.15c-3.4-17.58-12.35-31.23-26.84-41.68 1.84-4.09 4.62-7.22 7-11.32l34.75 49.8c-4.51 1.66-8.24 1.8-14.93 3.2z"/><path fill="#f4b882" d="M711.72 604.14c-1.25 1.9 1.26 5.84-1.15 7.62-6.03 4.44-7.4-.08-23.17 3.59-7.27 1.68-15.98 1.53-22.86 5.1-5.4-.32-6.03-6.06-2.03-9.2 14.16-10.27 31.87-10.38 49.22-7.1z"/><path fill="#bf4355" d="M587.72 720.19c-3.59-2.93-9.9-3.03-13.77-5.17-3.88-6.59-1.79-16.55 2.23-23.12l31.93 14.91c-7.94 2.5-14.63 5.65-20.39 13.38"/><path fill="#fd5870" d="m568.13 645.64-2.38 4.3a625 625 0 0 0-24.25-6.56l-1.35-3.72c1.18-5 1.26-10.7 3.6-16.41 11.08-1.48 21.05 4.5 29.87 10.72-2.85 4.63-4.52 7.74-5.47 11.67z"/><path fill="#bf4355" d="m319.96 511.22-13.16-16.05c-4.03-4.9-3.44-12.74-9.48-17.1 3.57-4.43 4.78-7.96 7.24-12.02 11.24 16.38 10.76 23.53 23.88 40.04-2.61 3.26-6.05 3.56-8.46 5.13z"/><path fill="#a06043" d="M593.17 489.95c-2.85.58-5.34 2.07-7.92 3.36-.92-3.58-7.84-1.83-8.88-4.7s2.45-7.24-.74-9.66c-1.61-1.21-4.8-1.5-7.92-2.45l.11-9.74c.04-2.68-6.1-1.92-7.15-4.62-.81-2.13-.3-4.46-1.36-5.96s-3.15-1.14-5.65-2.73c4.52-1.78 10.9-1.43 14.67 2.54 9.99 10.5 16.34 23.36 24.84 33.96"/><path fill="#fd5870" d="M440.86 491.07c-3.6-8.15-3.5-18.54 1.36-26.04 3.3 6.07 12.68 6.32 18.07 6.35 1.53 6.62.39 12.57-.12 18.89-7.05-1.05-13.15-.26-19.33.78z"/><path fill="#b98c62" d="M674.83 483.36c-8.54-16.77-16.86-32.87-31.8-45.54 4.61-4.48 8.75-2.56 12.72.62 12.37 10.76 24.96 25.86 19.08 44.92"/><path fill="#ba8d63" d="M445.19 587.64c.14-3.04.22-6.1-1.28-9.7-.93-2.23-4.03-3.44-7.2-3.37 5.72-5 .28-11.4 6.37-14.1 1.56-.7 6.26-1.24 6.48 1 .65 6.45 3.16 6.92 8.46 8.77s1.28 10.3-.84 13.67c-2.94 4.65-7.02 3.36-11.96 3.75z"/><path fill="#bf4355" d="M267.4 459.13c2.47-3.23-10.1 1.27-11.32.45 5.61-13.58 19.64-20.54 34.91-20.86 1.32 3.88 3.7 6.22 4.26 11.04-11.14-2.02-21.22 1.27-27.84 9.37m300.72 186.52c-1.53 6.26-.21 12.62 3.12 18.14.88.34.93.88.27 1.6-11.18-6.93-21.7-15.32-36.13-16.17.06-4.52 3.77-6.51 4.75-9.58l18.3 4.66c3.52.9 6.94 4.11 9.67 1.33z"/><path fill="#a06043" d="M607.02 471.37c6.8-6.74 19.63 17.94 18.22 19.75-3.35 6.66-13.57 2.48-17.41-1.62-4.4-4.72-6.01-12.98-.8-18.13"/><path fill="#ba8c63" d="M664.54 620.46c-7.46 3.88-12.94 10.94-18.15 18.37-4.23-1.28-7.76-5.96-9.14-9.34 5.97-10.04 17.28-12.44 25.26-18.22.22 3.16 1.3 6.15 2.03 9.2z"/><path fill="#bdbdbd" d="M573.57 511.43c-1.77-2.25-1.1-3.52 1.8-2.8 6.9 4.23 9.94 9.26 13.46 15.76 2.7 5 8.95 7.97 9.34 14.7-4.8 4.99-24.7-24.69-24.6-27.65z"/><path fill="#f6f6f6" d="M575.37 508.63a11 11 0 0 1-1.8 2.8c-7.47-7.27-11.76-16.15-17.8-24.4-2.8-3.8-5.45-8.47-.43-11.82 1.74 6.08 5.38 9.13 8.52 13.2 2.23 2.88 1.93 7.42 5.22 9.74 3.8 2.69 5.95 6.36 6.3 10.46z"/><path fill="#b3875f" d="m683.78 590.46-22.65 6.88 10.22-18.47z"/><path fill="#b98931" d="M555.66 787.91c-1.68 5.68-5.6 9.52-11.03 9.75-3.03.13-5.38-1.83-5.94-3.94-.64-2.44.95-4.67 3.53-6.1 4.34-1.73 8.71-1.9 13.42.3z"/><path fill="#edb03f" d="M173.77 454.49c-.3 4.02-5.88 7.42-8.55 4.67-4.93-5.06-1.48-13.18 3.03-16.78 3.94 3.1 5.92 6.47 5.52 12.1"/><path fill="#f4b641" d="M615.84 657.79c-2.85 6.92-9.63 11.57-14.2 8.96-1.45-.82-4.28-3.28-2.95-5.86 3.33-6.37 11.94-6.36 17.15-3.1"/><path fill="#f1b340" d="M199.87 459.34c-3.03 7.6-8.76 11.96-14.87 8.51-1.26-.71-3.2-3.37-1.84-5.55 3.4-5.53 10.98-6.44 16.73-2.96z"/><path fill="#faba42" d="M583.26 657.69c-6.7-.8-5.7-13.39.32-16.22 3.22-1.51 5.28 4.38 5.82 6.87.71 3.28-.24 10.05-6.14 9.35"/><path fill="#bd8d32" d="M361.8 775.49c2.51 3.88 1.26 12.08-2.44 14.58-2.02 1.35-7.4 1.88-8.31-1.53-1.71-6.44 4.99-12.6 10.75-13.05"/><path fill="#ba8a31" d="M415.09 742.5c-2.35 1.68-5.38.84-6.73.03-1.63-.98-1.93-4.33-.78-6.77 1.95-4.2 6.01-6.51 10.45-8.14 2.44 4.53 2.06 11.3-2.93 14.88z"/><path fill="#f6b741" d="M455.88 441.8c4.7 2.49 8.41 11.65 3.47 16.21-1.13 1.04-4.47 2.78-6.27.91-4.64-4.81-2.27-12.4 2.8-17.12"/><path fill="#f7b841" d="M294.65 497.41c-6.31 1.29-12.43-.59-14.77-5.6-1.1-2.35.06-5.16 1.35-6.34 1.37-1.27 3.82-1.39 6.09-.17 4.45 2.4 7.16 6.55 7.33 12.11"/><path fill="#bb8b32" d="M524.1 770.6c5.97 3.44 7.84 14.26 2.39 16.95-1.7.84-4.9 1.5-6.25-.83-3.26-5.69-.52-12.25 3.86-16.1z"/><path fill="#ba8a31" d="M437.17 757.84c-3.22 4.37-13.28 6.63-16.43 1.7-1-1.6-2.06-5.57.24-6.85 5.84-3.23 12.65-.15 16.19 5.15"/><path fill="#b0855e" d="M594.68 611.36c-8.27-6.12-13.55-12-23.59-12.57 2.7-4.77 8.22-5.61 11.88-5.57 4.24 5.03 9.4 10.85 11.71 18.15z"/><path fill="#f8b941" d="M292.08 462.27c1.3 3.13-2.36 7.25-4.3 8.87-2.45 2.06-9.73 2.86-10.52-2-1.2-7.3 10.57-10.95 14.82-6.87"/><path fill="#b2865f" d="M533 614.4c-5.12 3.03-11.03 3.28-17.35 5.88-.83-4.65-.42-7.38.38-11.19 5.26 3.23 9.73 3.08 16.96 5.31"/><path fill="#faba42" d="M607.88 727.29c-.03 4.38-1.47 7.34-4.26 8.05-3.37.84-7.07.47-7.21-3.72-.09-2.57.71-5.95 3.6-7.11 3.2-2.8 7.83-1.94 7.87 2.76z"/><path fill="#f4b641" d="M580.67 743.02c-3.88-5.02-4.06-9.93-5.5-15.34 4.12.16 7.33 2.44 8.8 4.9 1.9 3.18 2.32 7.4-3.3 10.44"/><path fill="#b74051" d="M575.72 797.47c-4.46 1.4-7.46.66-11.75.26 2.04-4.52 4.01-7.75 5.78-13.04 2.26 3.79 3.6 6.92 5.97 12.78"/><path fill="#ba8a31" d="M385.91 529.71q7.41-5.28 12.19-1.9c-.38 3.02-4 10.84-8.93 9.12-2.08-.73-4.46-1.74-4.54-3.77a5.6 5.6 0 0 1 1.28-3.45"/><path fill="#f7b841" d="M197.53 581.13c-2.36 4.2-9.74-.65-7.8-4.92.92-3.12 6.2-7.74 8.22-6.06 3.77 3.1 1.15 8.25-.44 10.98z"/><path fill="#f2b440" d="M398.1 527.82c-3.96 1.02-8.47 3.96-12.19 1.9 2.43-4.92 7.73-7.6 12.44-6.24 1.21.66-.13 3.29-.25 4.34"/><path fill="#b68731" d="M197.53 581.13c-1.68 2.91-2.31 4.63-5.49 4.38-2.17-.19-4.49-.9-4.87-3.74a5.9 5.9 0 0 1 2.57-5.58l7.8 4.93z"/><path fill="#cc7f07" d="M486.02 509.15c-3.1-.39-2.48-10.88 1.41-11.04 3.54-.09 2.8 10.95-1.41 11.04"/><path fill="#f3556c" d="M585.67 761.89c-.67-2.58-3.4-5.76-1.64-7.52l10.7-6.86z"/><path fill="#ab6a04" d="M581.54 616.26c-4.53 2.97-10.07-.07-12.6-4.85 4.52-1.45 8.7-.7 12.6 4.85"/><path fill="#c67b07" d="M482.1 535.42c-3.06.33-3.22-9.03.25-9.09 2.9-.05 3.41 8.68-.25 9.09"/><path fill="#f0546b" d="m615.51 675.56 8-6.97c-.8 2.23 1.04 5.77-1.15 8.25-1.74 1.98-6.11 1.1-6.87-1.28z"/><path fill="#b78731" d="M607.88 727.29c-2.79-.41-5.36-1.55-7.87-2.77 1.83-2.24 4.6-5.66 6.89-4.28 2.28 1.38 1 5.26.98 7.06z"/><path fill="#d18208" d="M479.28 559.87c-1.46-2.28-1.68-8.52 1.7-9.62 2.53 1.08 2.05 8.65-1.7 9.62"/><path fill="#e88f04" d="M555.27 603.8c-3.23 2.36-7.62 1.71-10.87-2.54 3.06-2.23 7.16-1.98 10.87 2.53"/><path fill="#df8c0e" d="M506.5 585.1c-5.6 1.65-8.18-1.64-12.53-3.57 4.08-1.6 9.63-1.06 12.53 3.56"/><path fill="#ef9303" d="M531.92 596.1c-3.45 2.3-8.08.22-10.17-3.62 3.84-.88 6.92-.33 10.17 3.63m-47.84-20.39c-1.17 1.64-2.52 2.35-3.17.26-1.31.13-2.43-.98-2.11-2.49.24-1.11 5.54-3.34 7.1-1.65 1.11 1.19-.97 3.43-1.8 3.88z"/><path fill="#b36e02" d="M600.33 626.28c-2.96 1.76-6.86.21-8.06-3.33 3.25-1.22 5.8-.37 8.06 3.33"/><path fill="#b16d02" d="M491.04 484.9c-2.38-1.15-1.1-8.62 1.55-8.35 1.76 1.51 1.53 8.7-1.55 8.34"/><path fill="#5a3f1d" d="M209.09 593.33c1.54 2.9-3.18 2.95-6.98 2.27-1.77-.31.12-1.86.82-2.43 1-.8 3.27-1.42 6.17.18z"/><path fill="#2b1c08" d="M484.08 575.72a4 4 0 0 1-4.04 3.54c-2.42-.1-4.5.95-5.83-1.12 3.09-.82 5.14-.58 6.7-2.16z"/><path fill="#702731" d="M576.5 668.73c-3.21-.04-2.96-2.07-4.98-3.34-.2-.47-.01-1.17-.28-1.6 2.7.59 3.85 2.9 5.26 4.94"/><path fill="#d4a072" d="M214.49 633.76c-4.06.38-8.62 2.85-13.1.79 3.74-2.48 8.78-.84 13.1-.8m165.01-46.94c-3.21.38-6.27 1-9.82 1.15 2.3-2.82 6.59-1.23 9.81-1.15M188.3 633.1c-3.26.7-6.6.7-9.83-.09 2.7-3.22 6.86-.04 9.82.09"/><path fill="#bb8d63" d="M560.8 593.2c-4.37-6.44-14.15-2.17-18.45-5.18-7.5-5.27-15.71-6.7-23.3-8.54-5.64-1.36-11.22-10.91-18.61-10.17-2.83.28-7-5.82-7.08-8.35l-.57-17.25c-.27-8.05 5.99-15.26-.06-23.78 8.37-7.03 4.76-17.19 7.82-25.77l4.77-13.47 16 23.56c-5.23 1.18-10.74.24-14.92 4.1-2.81 2.6-3.64 6.47-1.34 9.35 4.6 5.78 9.09-3.73 16.28-.19 4.96 2.44.02 11.12 8.1 13.14 2.1.53 4.3-1.66 7.23-4.56l39.04 56.1c-6.4 1.48-10.76 3.53-14.93 11.03z"/><path fill="#020201" d="M509.15 562.21c-5.07.9-8.28-1.2-8.68-5.15-.93-9.17 9.2-3.77 12.16-10.81 1.04-2.5 1.3-7.02-2.59-7.37-2.96-.27-6.04-.24-7.54-2.2-1.27-1.64-1.79-5.33.44-7.36 3.82-3.48 9.57-2.8 13.96-.6 4.14 2.07 7.59 6.7 7.9 12.62.53 9.81-5.34 19.05-15.67 20.87z"/><path fill="#030201" d="M547.93 578.06c-9.8-3.17 1.68-12.68-5.76-14.8-6.17-1.75-2.56 9.13-9.78 9.7-4.45.36-6.56-2.76-6.23-7.24.73-10.32 9.94-16.63 19.55-13.62 8.89 2.77 14.83 13.01 9.38 22.2-1.75 2.94-4.49 4.63-7.16 3.76"/><path fill="#000" d="M428.75 394.63c.68 3.66.52 12.6.4 16.36-.47 1.44-1.04 1.41-1.7.01q-.72-3.92-2.53 6.73l-2.23-.04c3.26 4.55-4.73 10.05-8.75 12.29-12.24 6.76-19.13 3.3-29.42-4.93-10.44.1-21.96-7.01-22.83-18.23-.2-2.62 0-3.8 2.9-5.05-5.02-3.06-.23-11.85 2.47-15.92 11.9-17.87 25.27-10.9 32.87 6.77 8.11-.35 16.73.51 24.04 4.38.06-2.8 2.07-3.26 4.78-2.36z"/><path fill="#eeb13f" d="M387.38 404.82c-1.88 4.18-5.75 5.5-9.19 3.38-3-5.64-1.8-12.04 3.48-16.62 4.06 3.15 6.02 7.55 5.71 13.22z"/><path fill="#efb140" d="M409 415.05c-4.04 2.07-11.32 1.8-10.97-3.77 3.49-5.08 10.88-5.62 14.93-2.28 1 2.38-2.81 4.59-3.97 6.03z"/><path fill="#b98931" d="M409 415.05c-1.37 1.71-6.03 4.98-9.71 2.88-1.65-.94-2.83-2.34-2.63-3.93.1-.93.72-1.9 1.37-2.72 3.34 1.97 7.16 3.08 10.96 3.77"/><path fill="#ef546a" d="M427.44 411.02c-.32 2.2.76 5.15-.4 7.19-.78 1.43-4.24.97-4.36-.5 1.46-1.83 1.17-5.54 3.27-9.09 1.58-2.07 4.2.63 1.5 2.4"/><path fill="#fa9a02" d="m479.1 624.3-3.5 23.36c-.92 1.72-5.06-.79-6.21-1.68-1.71-1.33-2.16-3.62-2.06-6.68l1.48-47.93c10.9-4.48 24.27-1.65 31.19 7.96 2.7 3.76 3.78 8.2 2.8 12.07-1.04 4.09-4.3 8.28-9.16 9.43l-14.56 3.45z"/><path fill="#070401" d="M484.3 599.82c4.54-.4 6.8 3.79 6.51 6.36-.45 3.93-3.08 6.63-5.98 6.93-4.23.45-6.72-2.4-6.9-5.39-.24-3.81 1.78-7.49 6.38-7.9"/><path fill="#010000" d="M465.29 720.25c-2.3-17.1 4.48-17.67 4.8-18.23 7.1.5 14.01 1.32 21.52 4 5.43-6.42 15.69-17.4 25.17-12.87 7.84 3.75 7.94 19.08 6.04 26.04-2.26 8.24-8.5 13.46-16.43 12.99-10.76-.64-15.38 16.43-32.36 3.6-4.19-3.17-7.91-9.2-8.77-15.54z"/><path fill="#f6b741" d="M510.63 705.35c2.17-.08 3.51 9.77-.48 14.18-1.48 1.63-6.74 3.14-8.32 0-3.08-6.1 2.73-13.96 8.8-14.18"/><path fill="#f4b541" d="M488.62 719.07c2.57 2.83 1.62 9.43-2.23 9.55-6.95.25-10.67-7.68-10.12-14.05 4.58-.84 8.79.6 12.35 4.5"/><path fill="#f66f4b" d="M724.9 573.43c-18.38 9.55-38.91 3.61-48.47-14.35-2.26-4.22-8.46-9-8.25-14.5.65-17.87 6.18-35.44 13.68-51.32 3.7-7.84 9.75-12.83 16.96-13.58 8.82-.92 14.93 3.28 20.04 10.25l35.75 49c4.28 5.86 4.14 11.41-1.43 16.54-8.05 7.42-17.84 12.52-28.3 17.96z"/><path fill="#000" d="M726.76 511.2c7.6 12.5 26.51 30.11 10.37 43.56-5.69 4.73-14.07 4.82-21.15.46-9.1 5.58-20 4.06-25.89-4.26-5.88-8.33-3.87-19.28 5.07-25.83-1.53-9.44 1.95-17.72 10.17-21.23 7.33-3.13 16.71-.45 21.43 7.3"/><path fill="#a03626" d="M716.1 515.66c6.29 8.16 20.82 25.3 14.01 30.65-2.31 1.81-6.24 1.77-8.63-1.58-5.78-8.07-20.32-24.78-13.34-29.87 1.79-1.3 6-1.74 7.96.78z"/><path fill="#f1a98d" d="M698.16 533.1a5.2 5.2 0 0 1 6.63 3.3c1.02 3.59-.41 6.6-3.91 7.35-2.12.47-5.32-.54-6.39-3.17-.86-2.15-.56-6.23 3.65-7.48z"/><path fill="#f66f4b" d="M652.7 409.88c-7.79 21.32-54.93 13.83-71.75 9.13-5.17-1.44-7.14-8.25-10.27-11.52-14.64-15.26-13.74-37.64 1.72-51.83 4.3-3.96 31.98-30.4 38.26-21.45l38.33 54.9c4.61 6.6 6.44 13.32 3.72 20.77z"/><path fill="#000" d="M632.56 376.87c4.91 7.43 3.09 16.7-2.18 22.01-5.79 5.85-14.8 6.02-22.46 1.64-8.71 7.26-20.73 5.93-26.94-2.6-6.53-8.95-3.83-21.49 6.67-27.19-1.85-9 .55-16.68 7.92-20.79 17.1-9.56 26.76 11.41 36.99 26.91z"/><path fill="#a03626" d="M607.64 360.39c6.27 7.8 21.53 25.8 14.07 31.36a5.76 5.76 0 0 1-7.79-1.29c-5.6-7.57-20.22-24.76-14.3-29.97 1.76-1.55 6.15-2.43 8.02-.12z"/><path fill="#f2aa8d" d="M589.66 377.9a5.7 5.7 0 0 1 6.44 3.14 5.4 5.4 0 0 1-2.3 7.05c-2.95 1.46-7.23.2-7.83-2.27-.86-3.52-.17-6.96 3.7-7.92"/><path fill="#000" d="M213.97 803.61q-2.12-.68 0-1.64c4.94.3 9.9-1.03 14.88.74-5.5 1.9-10.26.36-14.88.9m309.4 6.15q-2.13-.68-.01-1.63c4.94.29 9.9-1.03 14.88.73-5.5 1.9-10.26.37-14.87.9m-183.36-5.34q2.14.68.01 1.64c-3.83-.47-7.77 1.15-11.6-.81 4.38-1.6 8.06-.6 11.6-.83m62.2 1.23q2.12.68 0 1.63c-3.83-.46-7.76 1.15-11.6-.8 4.39-1.6 8.06-.6 11.6-.83m62.2 1.23q2.13.67.01 1.63c-3.83-.46-7.76 1.15-11.6-.8 4.39-1.6 8.06-.6 11.6-.84m-188.25-2.03q-2.13-.68-.01-1.64c2.72.02 5.66-.77 8.3.8-3.21 1.74-5.87.43-8.29.84"/><path fill="#000" d="m276.17 803.2.01 1.64c-2.72-.4-5.66 1.05-8.3-.85 3.21-1.4 5.87-.8 8.29-.79m72.03 1.17q2.12.67 0 1.63l-8.18.06-.01-1.64c2.7-.18 5.48-.12 8.18-.05m-134.23-2.4v1.64c-2.71-.4-5.65 1.07-8.3-.86 3.2-1.28 5.9-.92 8.3-.78m-81.99-18.17c-2.33 1.18-4.94 1.2-8.27.12 1.74-1.73 3.97-1.55 8.27-.12m391.39 24.33v1.63c-2.71-.39-5.65 1.07-8.3-.86 3.2-1.28 5.9-.92 8.3-.77"/><path fill="#000" d="M348.2 806v-1.63c2.71.06 5.64-.83 8.3.8-3.23 1.58-5.87.82-8.3.83m62.2-.4q2.13.67.01 1.63l-8.18.05-.02-1.63a91 91 0 0 1 8.19-.06"/><path fill="#000" d="m410.41 807.23-.01-1.64c2.72.07 5.64-.82 8.3.82-3.23 1.57-5.87.8-8.29.82m62.19-.41q2.13.68.02 1.64l-8.19.05v-1.63c2.7-.18 5.47-.12 8.18-.06"/><path fill="#000" d="m472.62 808.46-.01-1.64c2.71.07 5.64-.82 8.3.81-3.23 1.58-5.87.81-8.3.83"/><rect width="11.89" height="29.41" x="863.42" y="659.33" fill="#000" rx="5.94" transform="rotate(-39.77 863.42 659.33)"/><rect width="11.89" height="29.41" x="845.2" y="673.43" fill="#000" rx="5.94" transform="rotate(-39.77 845.2 673.43)"/><rect width="11.89" height="29.41" x="832.29" y="688.46" fill="#000" rx="5.94" transform="rotate(-39.77 832.3 688.46)"/><rect width="11.89" height="29.41" x="814.56" y="705" fill="#000" rx="5.94" transform="rotate(-39.77 814.56 705)"/><rect width="11.89" height="29.41" x="797.81" y="722" fill="#000" rx="5.94" transform="rotate(-39.77 797.81 722)"/><rect width="11.89" height="26.51" x="876.84" y="645.74" fill="#000" rx="5.94" transform="rotate(-39.77 876.84 645.74)"/><rect width="11.89" height="26.51" x="892.32" y="632.73" fill="#000" rx="5.94" transform="rotate(-48.44 892.32 632.73)"/><rect width="11.89" height="26.51" x="905.55" y="612.13" fill="#000" rx="5.94" transform="rotate(-48.44 905.55 612.13)"/><rect width="11.89" height="26.51" x="916.95" y="598.13" fill="#000" rx="5.94" transform="rotate(-58.43 916.95 598.13)"/><rect width="11.89" height="26.51" x="926.55" y="579.97" fill="#000" rx="5.94" transform="rotate(-58.43 926.55 579.97)"/><rect width="11.89" height="26.51" x="936.93" y="564.58" fill="#000" rx="5.94" transform="rotate(-64.58 936.93 564.58)"/><rect width="11.89" height="26.51" x="942.7" y="543.35" fill="#000" rx="5.94" transform="rotate(-64.58 942.7 543.35)"/><rect width="11.89" height="26.51" x="958.65" y="409.39" fill="#000" rx="5.94" transform="rotate(-99.48 958.65 409.4)"/><rect width="12.15" height="26.51" x="955.34" y="386.25" fill="#000" rx="6.07" transform="rotate(-109.8 955.34 386.25)"/><rect width="12.15" height="26.51" x="950.41" y="367.72" fill="#000" rx="6.07" transform="rotate(-109.8 950.4 367.72)"/><rect width="12.15" height="26.51" x="931.58" y="328.45" fill="#000" rx="6.07" transform="rotate(-116.2 931.58 328.45)"/><rect width="12.15" height="26.51" x="921.4" y="310.82" fill="#000" rx="6.07" transform="rotate(-116.2 921.4 310.82)"/><rect width="12.15" height="26.51" x="912.64" y="294.4" fill="#000" rx="6.07" transform="rotate(-125.58 912.64 294.4)"/><rect width="12.15" height="26.51" x="897.32" y="276.09" fill="#000" rx="6.07" transform="rotate(-125.58 897.32 276.1)"/><rect width="12.15" height="26.51" x="887.04" y="260.39" fill="#000" rx="6.07" transform="rotate(-135.84 887.04 260.39)"/><rect width="12.15" height="26.51" x="872.25" y="244.71" fill="#000" rx="6.07" transform="rotate(-135.84 872.25 244.71)"/><rect width="12.15" height="26.51" x="854.32" y="230.84" fill="#000" rx="6.07" transform="rotate(-135.84 854.32 230.84)"/><rect width="12.15" height="26.51" x="835.99" y="216.26" fill="#000" rx="6.07" transform="rotate(-145.53 835.99 216.26)"/><rect width="12.15" height="26.51" x="807.98" y="206.15" fill="#000" rx="6.07" transform="rotate(-145.53 807.98 206.15)"/><rect width="12.15" height="26.51" x="787.62" y="197.46" fill="#000" rx="6.07" transform="rotate(-159.2 787.62 197.46)"/><rect width="12.15" height="26.51" x="764.54" y="188.63" fill="#000" rx="6.07" transform="rotate(-159.2 764.54 188.63)"/><rect width="12.15" height="26.51" x="745.23" y="182.3" fill="#000" rx="6.07" transform="rotate(-171.91 745.23 182.3)"/><rect width="12.15" height="26.51" x="720.02" y="178.7" fill="#000" rx="6.07" transform="rotate(-171.91 720.02 178.7)"/><rect width="12.15" height="26.51" x="694.19" y="178.84" fill="#000" rx="6.07" transform="rotate(-171.91 694.19 178.84)"/><rect width="12.15" height="26.51" x="669.87" y="179.06" fill="#000" rx="6.07" transform="rotate(-171.91 669.87 179.06)"/><rect width="12.15" height="26.51" x="630.27" y="183.33" fill="#000" rx="6.07" transform="rotate(166.67 630.27 183.33)"/><rect width="12.15" height="26.51" x="604.98" y="188.75" fill="#000" rx="6.07" transform="rotate(166.67 604.98 188.75)"/><rect width="12.15" height="26.51" x="583.21" y="198.22" fill="#000" rx="6.07" transform="rotate(166.67 583.2 198.22)"/><rect width="12.15" height="26.51" x="565.6" y="203.69" fill="#000" rx="6.07" transform="rotate(152.37 565.6 203.7)"/><rect width="12.15" height="26.51" x="547.74" y="213.45" fill="#000" rx="6.07" transform="rotate(152.37 547.74 213.45)"/><rect width="12.15" height="26.51" x="512.66" y="239.9" fill="#000" rx="6.07" transform="rotate(145.2 512.66 239.9)"/><rect width="12.15" height="26.51" x="494.28" y="256.12" fill="#000" rx="6.07" transform="rotate(145.2 494.28 256.12)"/><rect width="12.15" height="26.51" x="472.01" y="270.44" fill="#000" rx="6.07" transform="rotate(153.06 472.01 270.44)"/><rect width="12.15" height="26.51" x="451.13" y="276.57" fill="#000" rx="6.07" transform="rotate(153.06 451.13 276.57)"/><rect width="12.15" height="26.51" x="430.38" y="286.04" fill="#000" rx="6.07" transform="rotate(161.83 430.38 286.04)"/><rect width="12.15" height="26.51" x="408.64" y="292.84" fill="#000" rx="6.07" transform="rotate(161.83 408.64 292.84)"/><rect width="12.15" height="26.51" x="383.43" y="298.04" fill="#000" rx="6.07" transform="rotate(176.53 383.43 298.04)"/><rect width="12.15" height="26.51" x="360.13" y="300.18" fill="#000" rx="6.07" transform="rotate(176.53 360.13 300.18)"/><rect width="12.15" height="26.51" x="336.99" y="301.77" fill="#000" rx="6.07" transform="rotate(176.53 336.99 301.77)"/><rect width="12.15" height="26.51" x="319.64" y="304.3" fill="#000" rx="6.07" transform="rotate(176.53 319.64 304.3)"/><rect width="12.15" height="26.51" x="295.53" y="304.94" fill="#000" rx="6.07" transform="rotate(176.53 295.53 304.94)"/><rect width="12.15" height="26.51" x="271.41" y="304.61" fill="#000" rx="6.07" transform="rotate(176.53 271.41 304.61)"/><rect width="12.15" height="26.51" x="249.4" y="305.54" fill="#000" rx="6.07" transform="rotate(171.39 249.4 305.54)"/><rect width="12.15" height="26.51" x="230.49" y="311.06" fill="#000" rx="6.07" transform="rotate(165.88 230.5 311.06)"/><rect width="12.15" height="26.51" x="211.4" y="313.93" fill="#000" rx="6.07" transform="rotate(165.88 211.4 313.93)"/><rect width="12.15" height="26.51" x="196.42" y="321.93" fill="#000" rx="6.07" transform="rotate(155.92 196.42 321.93)"/><rect width="12.15" height="26.51" x="174.21" y="331.98" fill="#000" rx="6.07" transform="rotate(155.92 174.21 331.98)"/><rect width="12.15" height="26.51" x="158.85" y="342.2" fill="#000" rx="6.07" transform="rotate(155.92 158.85 342.2)"/><rect width="12.15" height="26.51" x="141.35" y="352.48" fill="#000" rx="6.07" transform="rotate(144.38 141.35 352.48)"/><rect width="12.15" height="26.51" x="126.54" y="365.32" fill="#000" rx="6.07" transform="rotate(137.89 126.54 365.32)"/><rect width="12.15" height="26.51" x="108.15" y="386.75" fill="#000" rx="6.07" transform="rotate(137.89 108.15 386.75)"/><rect width="12.15" height="26.51" x="95.38" y="403.12" fill="#000" rx="6.07" transform="rotate(121.67 95.38 403.12)"/><rect width="12.15" height="26.51" x="84.2" y="425.14" fill="#000" rx="6.07" transform="rotate(116.27 84.2 425.14)"/><rect width="12.15" height="26.51" x="72.28" y="447.49" fill="#000" rx="6.07" transform="rotate(106.49 72.28 447.49)"/><rect width="12.15" height="26.51" x="66.99" y="467.5" fill="#000" rx="6.07" transform="rotate(106.49 67 467.5)"/><rect width="12.15" height="26.51" x="63.79" y="493.56" fill="#000" rx="6.07" transform="rotate(106.49 63.79 493.56)"/><rect width="12.15" height="26.51" x="60.58" y="517.21" fill="#000" rx="6.07" transform="rotate(106.49 60.58 517.2)"/><rect width="11.89" height="26.51" x="948.39" y="529.33" fill="#000" rx="5.94" transform="rotate(-64.58 948.39 529.33)"/><path fill="#fff" stroke="#000" stroke-width="8" d="M756.7 548.1a4.65 4.65 0 0 1 8.63-.53l.09.18 4.06 9.76 10.06 3.27a4.65 4.65 0 0 1 .35 8.72l-9.76 4.06-3.27 10.06a4.65 4.65 0 0 1-8.72.35l-4.06-9.77-10.06-3.27a4.65 4.65 0 0 1-.35-8.7l9.76-4.07z"/></svg>