<svg xmlns="http://www.w3.org/2000/svg" fill="none" viewBox="0 0 1000 1000"><path fill="#000" d="M957.4 765.08a6.3 6.3 0 0 1-.06 4.4c-2.15 5.37-27.34 11.3-33.92 11.14q-49.81 2.68-98.78 10.2a81 81 0 0 1-27.26 13.13l-79.02 2.4q-10.64-.5-20.72.8-136.66 2.75-274.14 7.22c-5.84 10.23-15.64 21.86-28.07 15.13q-7.01 7.3-15.15 10.6c-6.1 0-12.57 2.2-17.93 4.9h-16.3q-8.56-1.43-17.1-2.67l-.84-2.22-7.47-2.29q-11.46-11.8-14.42-29.18-8.07 3.05-13.63-8.56l-4.18.06q-8.25 5.05-14.57-5.48l-9.1-3.16q-10.87 8.65-18.5-8.97c-10.83 2.17-15.95-2.51-17.58-12.54q-4.28-2.99-12.32-2.17-3.41-4.97-6.78-10.17-15.87-.25-14.27-11.56-5.7-5.19-14.78-7.3-1.58-8.06-5.85-12.04c-9.33-.25-11.76-5.81-14.47-13.5q-5.85-7.28-16.09-9.8-2.43-10.8-13.27-16.18l-6.29-9.15q-13.04-1.69-12.81-11.14-10.98.64-14.28-15.6-18.1-.9-14.22-15.3-3.07-5.72-10.06-9.22-3.23-14-14.4-19.28a24.5 24.5 0 0 1-.17-10q-13.26-7.62-10-18.97a33 33 0 0 0-8.72-6.51q3.52-15.16-7.66-22.52-1.2-5.4.52-11.63a26 26 0 0 1-8.1-9.51 34 34 0 0 0 2.79-12.47q-10.39-12.65-4.47-24.02c-5.72-9.76-6.57-15.89-2.32-26.4a21 21 0 0 1-5.52-10.4v-3.26c1.38-2.56 5.18-3.6 7.07-5.48 5.35-5.32-2.6-12.94-1.61-17.33 1.65-7.17 8.5-13.34 2.7-21.79-1.17-1.73-2.2-4-1.6-6.5.4-1.77 2.78-1.7 4.38-3.45 7.61-8.27.47-18.43.75-19.45 1.24-4.69 11.38-8.13 8.18-14.28-1.52-2.93-2.72-5.18-1.9-8.54.58-2.34 3.56-1.85 5.83-3.4 7.32-5.02.33-14.12 2.95-18.93.65-1.21 2.51-.9 4.39-1.46 11.4-3.37.65-18.15 6.83-18.98 4.15-.56 6.22-2 7.97-4.59 2.05-3.03.9-5.57.14-9.34-.97-4.8 12.62-4.18 11.7-12.48-.35-3.1-1.36-5.72.7-7.91 1.38-1.48 14.54-3.36 13.92-12.5-.2-2.96-1.57-4.92.84-6.96 1.33-1.1 3.22-1.39 5.82-1.35 10.14.16 4.72-12.8 10.63-16.6 3.64-2.36 6.6 3.84 10.65-2.39 2.02-3.13-4.22-5.55 2.51-10.67 2.09-1.58 5-.08 7.58 0 5.45.2 8.33-6.8 9.33-11.17 1.45-6.47 6.97-2.92 10.92-3.4 3.13-.37 7.02-5 10.24-6.63 2.13-1.08 1.55-6.5 4.8-6.7 9.19-.6 18.97-3.85 22.63-13.92 11.35 4.11 20.1-4.74 27.57-10.53 21.03 2.64 17.35-7.88 23.4-8.98 2.25-.4 3.93 2.27 6.16 2.45 13.55 1.11 13.07-8.47 15.3-8.66 10.36-.91 5 3.8 15.9 3.38 4.52-.18 5.12-8.84 11.28-8.04 1.34.17 2.73 2.36 3.75 3.13 7.44 5.56 14.61-1.65 21.44-1.3 6.44.35 13.56 6.7 20.09 1.09 1.56-1.36 3.34-3.4 5.52-3.22 4.14.33 12.4 11.97 21.03 4.01 8.2-7.55 10.48 8.26 16.44 5.16 14.57-7.6 1.33 4.5 26.63 6.21 2.5.17 4.62-3.3 6.95-1.73 8.13 5.52 4.48 10.67 20.4 8.2 4.5 7.25 13.95 8.73 20.54 12.53 5.62 3.25 11.55 5.62 17.62 8.52 5.21 2.5 8.98 11.87 17.44 7.7 7.76 8.84 0 7.03 14.58 15.36 3.13.05 5.57-1.25 8.1.57 2.53 1.83 1.25 4.54 1.66 7.23 1.06 6.98 11.89 6.07 14.94 9.54 13.7 21.43 18 1.9 25.21 15.86 5.76 11.14 15.95-8.66 21.5 7.83 2.39 7.06 11.2-.28 14.4.88 4.14 1.48 4.2 7.16 7.2 7.86 6.3 1.45 9.76-6.33 13.74 0 8.23 13.05 17.46-2.35 23.13 3.18 3.03 2.97 10.45 7.58 13.76 3.77 2.84-3.28 3.83-5.39 7.74-5.57 4.26-.2 4.81 2.84 6.59 5.75 4.76 7.8 13.66-.67 18.37.32a75 75 0 0 0 17 1.76l19.47.09c7.53.03 16.25 6.06 24.55.76 10.63-6.8 9.77 9.66 20.46 1.2 2.25-1.77 4.66-1.62 7.32-1.2 1.88.31 2.38 3.3 4.14 5.17 3.72 3.98 10.49-1.09 14.87-.4 4.45 6.24 12.23 6.11 19.65 7.38 4.22.74 8 8.24 14.98 5.57 1.97-.75 7.7.57 8.15 2.56 1.97 9.16 11.8 6.34 16 8.98 6.27 3.97 9.77 8.3 18 10.23 3.72.86 6.23 10.5 12.07 10.24 2.3-.1 8.58-1.46 8.66 2.42.14 6.16 2.25 13.08 9.13 13.73 2.38.23 4.7.1 6.06 1.67.75.86 3.25 19.1 17.84 23.99 1.1 9.25 10.12 16.69 14.72 23.44s2.82 17.66 13.77 19.26c-5.1 29.77 20.97 19.77 10.22 33.44-5.4 6.87 5.55 11.8 6.7 15.9.6 2.09-2.47 3.8-2.47 6.1-.05 20.05 6.42 13.34 7.6 18.42.56 2.48-1.65 3.68-2.5 6.21-5.66 16.83 8.46 15.35 4.68 21.03-10.8 16.21 4.2 13.94-1.35 24.9-10.85 21.36 5.67 20.21-2.34 26.98-3.08 2.61-6.84 7.21-3.76 11.37 2.02 2.73 3.58 6.97-.07 9.12-13.17 7.71 2.1 17.35-8.33 22.67-8.83 4.5 1.29 10.26-4.35 18.43l19.24.41c9.2.2 15.84 6.28 19.72 12.45 5.42 8.58 3.5 16.34.62 25.05-4.04 12.23-8.72 23.24-16.82 33.62 16.22 17.8 7.89 48.56-8.02 64z"/><path fill="#f6b983" d="M825.06 628.39c-24.45 42.91-49.02 84.65-79.63 122.07l-5.19 2.94c-35.08-4.08-68.73-17.85-100.69-32.07-19.69-8.76-75.43-37.03-85.14-54.77-2.12-3.87.24-22.68 1.7-27.72a95 95 0 0 0 12.79-32.05l3.3-2.59c4.48-3.26 7.85-6.57 9.77-11.06 1.59-3.69.07-7.63-3.78-8.5-2.7-.6-5.74 1.36-7.33 4.16-5.47 2.4-5.53-5.4-3.54-9.36 6.4-12.85 25.02-6.3 35.42-1.93q20.7 5.26 42.26 5.49c35.23 5.38 65.06 18.6 97.12 33.34 27.35 12.38 52.77 11.2 80.55 9.18l2.4 2.85zM272.67 481.28c-9.96 2.77-23.14-7.86-30.96-14.55-15.36-13.1-32.75-36.3-31.07-57 19.35-49.76 61.26-87.52 115.42-98.66 31.25-6.42 66.17-6.5 95.08 8.68 27.84 14.63 51.51 34.27 78.23 50.37 7.16 4.3 10.96 10.86 12.4 18.82 5.1 11.55 1.26 24.96-6.7 33.95-17.9-11.18-35.99-16.31-55.96-18.39 7.96-20.53 1.35-41.8-13.58-56.82-10.6-10.66-21.97-20.8-35.9-25.42-11.47-3.8-17.78 1.18-23.73 9.77L272.68 481.26z"/><path fill="#fd5870" d="M815.37 438.38c-.95 1.16.63 5.42-3.35 4.96-7.22-.81-21.27-.63-25.15 7.3-2.7 12.86 10.6 24.87 21.92 26.8 8.2 1.41 11.6-6.68 17.4-7.99 9.37-2.08 17.93-3.78 20.36-14.22 3.59-4.73 9.47 1.8 11.77 5.63 5.4 9 2.58 18.56-1.7 27.4a130 130 0 0 0-18.73 35.9c-1.45 9.48-7.12 36.4-14.91 40.78-1.13.63-2.8-.67-3.88-1.83-5.89-5.35-17.32-11.97-24.88-8.58-8.04 3.6-4.4 22.7-6.13 24.11-.98.8-2.66.21-3.47.8q-4.48 2.35-8.41 1.66c-46.38-24.82-93.84-42.27-146.45-47.46q-2.55-1.96-3.3-6.88c-2.85-11.42-13.77-17.43-26.11-17.57-5.97-.08-11.09 1.84-11.64 7.66-5.05 2.84-6.49-1.63-5.54-6.46 8.02-10.37 12.86-20.73 16.4-33.45 3.8-3.3 25.28-9.59 29.91-5.35-3.36 5.32-5.12 11.97-9.55 17.6s-.2 13.7 4.84 16.62l17.33 10.03c7.56 4.37 13.84.75 19.92 2.32 19.29 4.93 50.85 28.12 72.71-3.78 11.51-16.79 22.47-35.45 22.16-55.67l2.25-3c14.3-3.92 24.2-16.35 32.86-27.69 7.18.1 24.03 1.88 23.37 10.36"/><path fill="#fe5309" d="M925.11 575.87c2.47 42.52-25.58 81.9-50.27 114.48-15.69 20.7-26.6 33.07-49.55 45.31-10.28 5.5-38.21 14.83-49.54 14.08-.9-.06-1.2-2.33-1.13-3.8 21.44-28.04 40.06-56.19 58.02-86.15 15.87-27.42 31.11-53.62 45.5-81.8 10.75-21.03 17.19-42.66 25.1-65.46 11.3 20.37 19.04 41.61 21.89 63.34z"/><path fill="#bb8d64" d="M825.06 628.39c-5.8 1.48-12.29-.38-18.56.75-9.66 1.73-18.46 2.27-28.4.39-20.84-3.93-40.63-10.3-59.74-19.88-24.68-12.37-49.62-19.98-77.42-23.96-17.57.06-34.58-2.34-50.86-9.22-5.33-2.25-17.54-2.14-19.73 4.16-.93 2.67-1.56 5.77.52 8.19-1.53 3.67-6.83 7.58-8.52 4.03l-5.66-11.96c-2.76-5.8-10.63-6.41-16.48-11.53 15.86-2.6 5.83-16.5 17.74-10.54 5.72 2.87-.72 14.4 8.88 13.52 2.2-.2 4.56-1.94 5.33-5.23 2.06-8.93-3.4-15.96-10.77-19.6-7.37-3.66-15.5-2.21-21.77 5.2-2.15-12.96-6.3-12.01-1.22-23.8 6.65 6.47 11.85 11.48 19.68 14.35 23.44 8.61 46.34 17.27 71.65 19.59 27.38 2.51 53.53 6.46 78.64 17.32l53.73 23.25c13.47 5.82 29.22 5.53 43.45 6.68 12.34 1 17.8-7.29 24.29-15.02 12.39-14.78 22.4-29.03 27.36-48.02 8.72-33.39 6.4-31.61 25.48-62.36 12.71-.3-6.9 40.05-8.24 44.39-11.18 36.5-31.12 67.25-49.38 99.3"/><path fill="#c14456" d="M447.06 743.79q54.95-3.29 109.8-4.67l2.5 3.25c-2.67 5.6-10.17 9.15-7.98 16.69.9 3.06 17.28 17.17 33.8 9.1 6.25-3.05 5.76-10.87 9.68-15.17 4.25-4.68 11.08-7.05 11.62-15.15 19.35 11.2 38.83 17.4 60.58 20.87 12.94 2.07 25.55 5.61 36.42 12.53-.91 6.7-3.05 11.5-4.86 17.76l-37.02 1.05c2.82-14.2-5.5-25.55-19.26-29.41-3.42-.97-8.82-2.89-11.4.83-4.59 6.62-3.95 14.76-3.56 22.79l-14.07 7-124.32 3.44c8.36-11.4 6.86-23.98-2.1-33.65-2.94-3.18-6.72-7.67-11.83-5.78-6.93 2.58-9.84 12.28-13.95 17.08-8.72 1.29-18.24.37-26.2 6.28 2.98-13.18 8.46-23.52 12.18-34.87z"/><path fill="#c13f07" d="M774.6 745.94c5.98 4.03 39.72-9.31 49.4-13.28 16.26-6.65 27.31-18.64 38.2-31.8 29-35.09 59.47-79.55 62.91-125 2.27 17.23 5 35.78-.39 52.72-10.64 33.54-29.81 62.34-51.9 89.11-16.34 19.8-32.24 38.05-52.3 53.9-6.69 5.3-14.43 12.62-23.15 13.97-19.9 3.1-39.11 1.93-60.62 2.27l37.86-41.87z"/><path fill="#bb8d64" d="M272.67 481.28a36 36 0 0 1-3.77 7.73c-11.9 17.49-25.5 33.39-36.29 51.6-4.84 8.16.49 18.13 1.97 25.94 1.24.9.98 1.21-.63.97-35.95-43.54-43.63-105.6-23.33-157.78 8.2 32.54 30.5 59.78 62.05 71.56z"/><path fill="#7a4a34" d="M306.92 632.6q-1.12 4.35 3.06 10.39a3302 3302 0 0 1 27.6 114.96c11.89 6.83 19.35-3.48 21.34-14.83l3.82-2.05c10.99 5.2 19.33 13.1 22.23 25.78 4.8 21.04-1.33 14.75-4.95 31.96-2.53 12.03-17.09 26.39-31.89 22.44-7.27-1.94-14.23-8.15-16.63-17.06-4.74-17.67-8.02-35.23-12.14-53.45l-18-79.53c-3-13.23-5.45-25.76-11.94-38.6 6.79-2.54 12.26-.32 17.5 0z"/><path fill="#bb8d64" d="M745.43 750.46a668 668 0 0 1-33.8 38.22c-.5-8.35 7.16-17.5 1.03-23.62-24.5-24.48-58.12-6.12-120.53-48.93-22.85-15.7-43.54-33.55-62.04-55.7 5.38-1.73 12.96-1.11 15.66-6.84 3.52-7.42.33-15.72-.67-24.22 11.04-3.15 17.84-11.53 18.82-22.85 3.37-1 6.32-.85 8.3-2.29.35 23.03-16.36 27.86-14.43 48.51.32 3.59-3.07 8.73-.6 12.15 8.3 11.5 20.16 17.82 31.72 25.4 45.4 29.77 62.52 30.37 109.8 51.69 15.86 3.6 31.17 7.91 46.74 8.51z"/><path fill="#fe5971" d="m531.71 699.73-2.91 3.48-19.81 3.55c-2.84-4.08-18.96-16.4-23.28-14.27-1.94.96-4.84 13.72-4.8 16.92.28 15.38 8.37 17.06 21.74 19 17.44 15.84 32.78-2.06 31.02-21.04l3.23-2.4c1.82-.33 3.8-.47 5.48.4 3.04 1.62 22.15 20.09 25.36 23.85l3.18 6.51c-2.56 2.61-7.46 6.53-11.57 6.67-5.51.2-11.32-.75-17.8-.18-30.1 2.68-59.38 3.31-89.62 3.79-2.48.03-4.58-.13-4.9-2.19 5.01-15.33 5.55-31.36 3.16-47.24l-.07-5.2q17.95-12.62 41.3-16a22 22 0 0 0 5.49-10.93c2.64-3.08 3.78-4.04 7.29-1.74 2.44 1.6 26.91 29.42 27.51 31.41.57 1.9.64 3.74-.01 5.63z"/><path fill="#a16144" d="M306.92 632.6c15.93.94 31.93 4.43 36.16 22.85l19.66 85.62c-1.83 8.31-5 21.15-16.11 22.16-3.13.28-11.25-.3-12.3-4.8l-23.24-99.91c-2.15-9.24-4.22-17.33-10.12-24.9 2.6-1.12 4.22-.68 5.96-1z"/><path fill="#c14456" d="M570.94 735.7c-12.62-8.83-22.24-21-34.04-30.75-4.85 1.93-7.2-.37-5.19-5.22-8.75-13.14-21.27-23.47-31.04-36.53-6.1 21.67-8.62 13.45-29.9 20.96-7.85 2.77-16.66 5.31-20.59 12.4-.98-6.45-5.47-12.58-7.89-18.96 11.6-14.08 35.69-13.95 38.18-20.39 3.15-8.17-2.13-14.9.83-19.87 1.08-1.8 4.91-5.1 7.55-3.34 9.47 6.31 17.6 14.53 24.82 23.67 17.42 22.02 36.22 41.72 59.13 58.72-1.21 7.14-2.92 13.08-1.86 19.33z"/><path fill="#bb8d63" d="M397.09 549.48c4.35-1.88 13.43 6.94 29.44-17l29.44-44.04c5.2-7.78 3.04-17.36-4.04-23.14 3.11-3.37 5.74-6.1 5.89-9.6s-1.75-6.63-4.4-11.2c13.64-4.47 27.32-8.94 43.25-8.5L379.02 607.76c-7.36-18.32-9.19-36.02-8.4-54.24 6.29 3.52 12.09 4.88 18.48 3.35 3.62-.87 4.58-5.93 7.97-7.4z"/><path fill="#f6b983" d="M362.67 247.18c7.52 6.04 18.13 21.29 19.6 30.88.15 1-1.96 1.93-3.4 2.35-11.11-11.96-27.72-16.74-44.32-10.83-13.43 4.78-23.43 18.3-25.06 34.19l-20.83 7.4c-2.17-19.78 6.47-39.15 20.21-50.87 15.72-13.41 34.94-17.16 53.79-13.13zM189.54 550.01l-2.6 3.64c-13.54.52-28.83-2.82-37.85-13.62-8.21-16.86-11.47-35.43-.53-56.03 6.96-13.13 21.82-26.85 40.26-29.9l-.76 22.09c-16.13 6.64-25.83 21.43-24.85 38.36a40.5 40.5 0 0 0 26.35 35.48z"/><path fill="#a16144" d="m764.89 409.84-5.62 1.2a649 649 0 0 1-90.08-20.61 291 291 0 0 0-6.4-19.41l1.6-3.5 84.16 14.54c7.37 1.27 13.81 5.1 15.9 9.6 2.92 6.3 4.12 12.97.44 18.18"/><path fill="#c14456" d="M629.45 471.59c-9.26 1.47-18.37 4.71-27.83 7.45-2.5 11.05-5.92 21.08-13.41 28.99-1.5 1.58-2.68 3.85-2.03 6.03q.48 1.56 2.5 2.78c.5 6.65 1.99 12.59 4.33 20.25-8.54-2.34-36.53-13.14-34.57-20.5 2.34-8.82 29.68-6.21 23.77-53.09 22.97-.95 40.77-12.25 62.03-17.2-3.36 10.45-9.88 17.51-14.77 25.27zm189.62 91.52a5.4 5.4 0 0 0 3.71-2.6c16.16-28.34 4.7-33.41 22.83-60.75 4.82-7.27 10.18-14.76 11.9-23.24 2.03-10.13-2.53-18-10.98-21.29.85-3.65-.03-7.55-.03-11.24-1.27-3.4-1.73-5.98 1.67-3.33 10.6 7.72 19.77 17.33 28.97 27.6-13.39 33.91-18.02 23.28-27.54 63.58-4.58 19.36-11.66 38.27-26.2 52.98-.67-6.87.92-16.93-4.35-21.7z"/><path fill="#7a4a34" d="m921.12 705.18 2.1 3.1-8.96 17.94 45.3-1.63 2.48 3.16c.91 8.81-3.46 15.81-12.36 20.35-11.93 3.27-24.96 3.11-37.92 4.3l-38.9 3.59c12.57-20.05 23.1-30.24 34.63-50.29 3.69-2.57 9.95-.24 13.63-.5zM664.4 367.53c4.16 5.6 5 12.82 6.59 20.65 31.6 7.45 62.6 16.29 93.92 21.66a19.4 19.4 0 0 1-21.24 12.62l-77.9-13.05c-2.46-14.19-11.1-26.39-11.36-40.5-.08-4.9 7.27-1.86 10.01-1.39z"/><path fill="#dd4d62" d="m784.59 579.44-11.64 8.33c-13.47-4.45-25.71-10.63-38.28-17.25-44.13-23.2-65.46-18.47-113.27-27.23 4.68-5.28 6.44-10.74 5.03-16.53.74 2.95 4.47 4.06 7.5 4.56 21.85 3.6 43.06 5.71 64.28 12.32 25.65 7.96 48.7 19.9 72.66 31.51 4.73 2.3 9.09 4.49 13.72 4.3z"/><path fill="#bb8d63" d="M337.37 567.1c10.17-21.98 8.17-25.5 3.25-48.48 6.75-6.86 14.98-11.3 22.02-17.6 1.65-1.47 3.16-1.93 5.09-1.2 5.6 2.18-.98 8.67-4.55 23.23-6.88 28-4.52 55.48 3.08 84.56-13.99-10.69-21.76-25.02-28.89-40.52"/><path fill="#fd5870" d="M649.08 396.22c1.82 4.74-12.31 8.17-14.43 3.7-1.49.15-3.07-.16-3.68-1.45-9.41-19.77-13.62-28.19-28.5-1.58a57 57 0 0 0-24.16 4.14l-4.03-1.48q-2.1 2.58-3.26-4.75c-.1-2.76-1.35-5.63-.85-8.81 14.87-10.39 30.8-16.83 47.8-22.28 8.25-2.64 15.38-7.83 24.75-6.1a62 62 0 0 0 5.13 32.3c.97 2.13.4 4.82 1.23 6.3"/><path fill="#c14455" d="M649.08 396.22c3.2 5.63 5.83 11.58 4.89 18.07-1.98 13.49-65.6 28.45-78.48 27.84-5.8-8.35-4.11-16.49-4.2-24.4 1.78-4.45 3.45-4.6 5.94-.5q4.33-1.95 8.9 3.65 12.42 9.76 26.12-3.77l13.1-3.23a61 61 0 0 1 9.3-13.98l14.43-3.7z"/><path fill="#c14456" d="M815.36 438.38c-5.72-4.65-14-6.23-22.1-7.83-4.11 9.77-26.79 30.98-36.37 28.15-1.14-6.3-6.4-12.16-10.06-18 16.6-1.65 29-12.2 32.86-28.86 16.27 2.3 31.03 7.36 45.88 14.05z"/><path fill="#c14355" d="M412.6 750.46c2.88 1.75 5.16 4.9 4.38 8.48-.33 4.3-13.81 46.03-18.5 40.6-.61-.73-1.69-2.1-1.41-3.34 5.58-24.3-2.6-49.5-23.95-63.05l-6.1-25.28 18.56.07c-2.76 8.66-4.67 16.1-2.06 24.32 2.8 8.77 10.13 14.5 19.53 12.98 5.4-.86 7.18 2.22 9.56 5.22"/><path fill="#f5b983" d="M404.24 455.36c-2.26 1.52-3.11 3.6-4.35 4.14-1.35.6-5.74.53-5.62-1.48.36-6.26 4-11.92 6.3-18.76 17.45.23 31.14-8.48 40.35-23.37 15.25-.59 29.61 2.51 44.09 9.08-28.32 5.6-56.07 13.79-80.78 30.38z"/><path fill="#bb8d64" d="m189.54 550.01 19.17 1.85c5.4 4.74 7.96 12.8 12.3 18.22-30.05 10.2-59.4-4.34-71.92-30.03 12.93 6.2 26.3 12.44 40.45 9.98z"/><path fill="#fd5870" d="M550.22 375.72q8.47 11.64 1.97 28.16l-1.52 20.23-3.58 3.08c-2.42-.47-5.77-1.56-8.04.74l-7.25 7.4c-1.67 2.95-2.61 1.49-3.25-1.52-.71-10.61 2.32-22.01-1.46-32.71-2.74-7.75-2.01-12.76 4.87-18.18 4.27-3.36 12.1-11.53 18.24-7.2z"/><path fill="#bb8d63" d="M378.86 280.41c2.33-7.28-15.49-26.77-16.19-33.23 25.55 5.48 45.53 27.98 46.37 55.18-7.85-2.07-15.26-2.02-21.33-5.1-2.47-5.19-5.93-12.14-8.87-16.85z"/><path fill="#c14455" d="m559.62 489.39-2.8-2.48 1.17-12.35q-2.56-6.54-1.12-11.1c8.2-12.98.72-27.17-9.77-36.27 1.36-11.8.62-23.58 4.34-35.83 1.65-5.42 1.04-11.36-1.2-15.66 16.56 11.63 6.58 46.71 10.28 57.64l9.83 28.99c3.25 9.55 3.8 20.92-2.02 29.7-2.14 2.35-6.5-2.1-8.69-2.66z"/><path fill="#a16144" d="m962.04 727.76-53.3 2.16 12.38-24.72c11.82-.87 22.97-1.83 33.1 2.82 7.54 3.47 8.6 12.69 7.82 19.74"/><path fill="#fd5870" d="M680.31 451.67c-7.28 18.45-18.16 33.69-27.87 50.06-7.18-3.42-13.57-6.67-18.98-11.45 4-9.7 9.75-17.1 14.25-25.33a44 44 0 0 1 17.23-9.5q14.72-10.85 15.39-3.78z"/><path fill="#7a4a34" d="M960.65 642.42q-2.2 3.56-7.28 4.47l-6.84 19.34 18.92 2.5 1.89 3.49c-2.3 5.77-4.01 11.67-8.8 17.22-11.9-4.52-23.84-4.73-37.93-3.9 8.74-14.66 15.74-27.76 19.52-43.65l17.3-.75c1.53-.06 3.48.02 3.24 1.27z"/><path fill="#7a4934" d="m248.26 317.78-1.61.06c1.64-2.93.76-8.33 3.2-11.12q-.48-3.44 4.03-5.76-2.4-4.23-.84-7.22c.97 4.2 14.3-18.71 10.33-17.52 1.3-3.09 3.02-6.92 5.84-8.55 4.04 2.54 6.94-2.14 10-5.1-1.08 3.68 5.58 5.3 5.76 8.18.31 5.04-3.71 10.3-5.72 14.08-3.4-2.51-7-3.47-9.68-2.12-1.73.86-3.1 3.23-2.5 6.08 1.21 5.66 9.62 5.73 10.29 9.14.49 2.46.25 4.84-.9 6.68-3.17-1.46-6.57-1.28-8.03.57-4.05 5.16 3.37 11.49 2.44 15-.3 1.12-7.58 6.83-9.83 5.5-2.12-1.23-3.05-7.6-7.42-8.64a8.6 8.6 0 0 0-5.36.75z"/><path fill="#c04355" d="M378.36 667.5q1.76 7 8.25 7.67c10.17 4.2 19.74 2.33 26.13-6.28 1.73-2.33 6.42.44 8.31-.38 3.44-2.15 3.91-1.1 1.63 2.13-8.65 6.76-18.93 9.6-29.91 13.9-8.24 3.2-19.81 9.11-28.39 3.2-4.79-8.77-4.98-21.4-7.87-31.2 6.59.67 11.75-.36 16.7 1.85 2.68 1.2 4.38 6.65 5.15 9.11"/><path fill="#bb8d63" d="M370.43 473.16c-8.54 19.24-16.95 19.88-32.55 33.1-11.95-6.03 9.08-41.36 14.62-46.24a95 95 0 0 0 17.35 9.24z"/><path fill="#c04355" d="M680.31 451.68c.04-1.21-1.37-.9-2.26-.26a85 85 0 0 1-30.36 13.53l18.05-35.6 24.75 2.5c-3.22 7.82-5.71 14.47-10.2 19.84z"/><path fill="#f5b983" d="m370.43 473.16-15.42-7.36a4.53 4.53 0 0 1-2.51-5.77c6.3-8.26 12.55-16.93 21.63-21.5 3.83-1.9 9.87 1.4 13.67 1.89-3.1 12.92-8.87 23.76-17.37 32.74M203.6 539.87c-9.94 1.9-18.35-3.1-23.37-9.79-5.53-7.37-8.23-17.97-3.9-26.42 1.88-3.66 13.6-4.05 14.92-.28 4.3 12.25 6.49 24.27 12.36 36.49"/><path fill="#a16044" d="M960.65 642.42c4.6-.46 7.83 2.02 10.26 5.69s2.91 7.81 1.07 12.43l-4.64 11.66-25.37-2.84 9.24-26.21c3.72-.72 6.59-.46 9.44-.75z"/><path fill="#7a4933" d="M414.52 492.55c1.09 3.25 2.4 9.57-1.98 10.75-3 .8-6.13-.3-7.76 2.04-3.03 4.32 1.45 8.2-1.92 11.97-1.19 1.34-6.2-.73-8.43 3.31-1.92 3.5 3.4 10.67-4.42 11.76-2.59.36-5.15 1.03-5.87 2.55-2.69 5.69 4.2 9.64 0 11.76-1.09.55-3.81.37-4.46-1.5-6.21-18.14 17.18-43.59 27.06-55.97 3.77-3.94 9.93-2.22 7.8 3.33z"/><path fill="#f5b883" d="M339.98 297.32c-5.44.82-12.3-6.62-9.47-11.42 4.53-7.64 16.38-8.92 24.44-7.35 8.54 1.65 16.23 7.24 19.58 17.49-11.61.1-21.69-.64-34.55 1.28"/><path fill="#b98c63" d="m289.44 603.57 3.6 1.36q-.24 8.16 19.76 5.37c2.37.18 2.68 2.14 2.27 4.52-37.4 1.04-22.97-.28-44.08-12.77-15.3-9.05-26.38-21.65-37.03-34.53q.46-.4.64-.97c14.58 12.7 31.38 21.88 50.75 27.8 1.57 3.23 2.98 6.31 4.1 9.23z"/><path fill="#ba8c63" d="m312.72 470.06-15.1-2.68 34.68-51.4c1.5 4.08 3.5 7.74 7.2 11.8-14.03 10.7-23.8 24.19-26.78 42.28"/><path fill="#f4b883" d="M339.56 610.64c4.04 2.76 2.44 9.95-3.07 8.94-6.57-3-14.48-3.75-21.44-4.76-4.94-4.32-19.3 1.96-24.29-4.08-1.47-1.78-.44-4.84-1.34-7.18 19.58-2.16 32.27-4.7 50.12 7.08z"/><path fill="#fd5870" d="m461.61 639.17-2.57 3.3a74 74 0 0 0-21.16 5.78l-3.69-2.13c-1.37-4.55-3.45-8.42-6.37-13.64 8.5-6.2 17.96-11.64 29.34-11.15 2.32 6.03 3 12.24 4.47 17.84z"/><path fill="#c04355" d="M414.86 718.02c-7.18-5.73-12.95-11.55-21.7-12.38l32.5-15.37c4.6 7.26 4.57 15.32 2.94 23.5-4.4.17-8.95 2.52-13.73 4.25z"/><path fill="#b98c63" d="M506.02 628.06q1.64 6.22-1.84 3.07c-6.69-4.36-12.18-9.5-18.98-13.15-5.7-3.06-12.29-.88-17.54-5.87 27.1-2.28 14.38-13.67 34.58-11.7 1.76 9.92 2.66 18.63 3.78 27.62z"/><path fill="#c04355" d="M693.42 502.43q-6.04-.56-9.24 5.65l-4.11.4c-2.53-1.82-7.57-1.33-8.76-5.5 12.95-15.88 12.72-24.65 23.32-39.33l6.88 12.26c-7.42 7.62-9.64 17.13-8.09 26.54z"/><path fill="#fa576f" d="M693.42 502.44c11.17 8.02 26.56 3.52 36.2-5.96.8-.59 1-.34.68.65-3.47 8.81-11.04 17.25-21.28 19.2-10.24 1.96-21.08-2.12-28.97-7.84 2.89-5.04 7.16-9.04 11.09-13.88.86 3.57-.1 6.11 2.28 7.82"/><path fill="#a06043" d="M414.52 492.55c-1.49-2-5.55-2.8-7.8-3.33 8.7-10.9 15.57-23.45 25.32-34.41 3.3-3.7 9.77-3.92 13.47-2.2-2.5 1.68-4.55 2.1-5.66 4.04-.7 1.22.46 4.39-.6 5.43-1.67 1.65-5.14.93-6.21 2.73-1.24 2.05-.93 4.53-.18 7 1.97 6.45-7.7 2.75-9.88 8.93-.6 1.7 2.02 5.45.97 7.18-1.7 2.87-7.67 1.24-9.43 4.63"/><path fill="#b98c62" d="M357.24 437.11c-13.63 12.44-22.23 28.15-31.57 45.59-9.41-14.63 18.95-56.8 31.57-45.59"/><path fill="#fd5870" d="M559.63 489.39c-4.85-1.23-14.41-1.68-19.8-.92a47 47 0 0 1-.68-18.69c6.75.47 14.17-.73 17.7-6.33 6.28 6.72 4.68 17.27 2.76 25.94z"/><path fill="#fa576f" d="M743.34 457.87c2.02 5.61 2.17 10.69-.72 17.16-3.52 7.88-4.96 17.81-12.3 22.1-.6.33-.8-.1-.7-.65 1.18-6.02 1.98-12.25-.68-19.08 6.7-7.16 5.7-16.07.62-23.34 4.68-4.85 10.34-.67 13.78 3.81"/><path fill="#be4354" d="M743.34 457.87c-4.47-1.7-9.16-2.6-13.78-3.81-6.96-6.48-15.96-8.65-26-7.03l4.1-10.92c15.37.17 30.51 7.4 35.7 21.76z"/><path fill="#c14355" d="M461.61 639.17c.9 2.45 4.14 4.18 4.21 8-13.1 1.8-23.31 8.18-34.76 16.12 1.21-7.03 3.82-11.7 3.13-17.19 9.04-3.16 17.72-7.2 27.42-6.93"/><path fill="#9f5f43" d="M394.04 471.4c4.8 5.95 2.72 13.68-2.41 18.5-4.1 3.83-13.01 6.55-17.19.35 2.33-4.9 12.75-27.35 19.6-18.86"/><path fill="#b88b62" d="M336.5 619.6c2.18-2.51 1.52-6.14 3.07-8.94 7.88 5.2 18.92 8.46 24.3 17.68.03 3.62-5.34 9.07-8.84 9.26-5.22-7.25-10.84-14.5-18.52-18"/><path fill="#9d5e42" d="M938.06 518.17c-3.3 6.74-11.61-11-12.15-14.33 3.13.47 18.33-12.41 19.76-2.27.77 5.45.7 8.63-5.12 10.21-2.31.62-1.42 4.2-2.5 6.41z"/><path fill="#bcbcbc" d="M427.18 510.33c-6.84 9.74-11 23.2-24.1 28.97-1.46-7.87 6.51-11.03 9.02-16.22 3.07-6.36 6.05-11.46 12.25-14.37 2.36-2.31 3.6-1.61 2.83 1.6z"/><path fill="#784833" d="M127.75 479.86c.44-1.3 1.16-2.6.91-4.35-.14-1.08-1.97-1.47-2.78-2.42l1.97-2.98q4.17.29 6.86-4.73c2.28-.79 4.6-3.23 5.87-5.24 1.7 1.37 6.57 3.3 6.4 6.02-3.74 5.43-6.55 11.1-10.67 16.07-1.92 2.33-6.4-2.27-8.56-2.37"/><path fill="#f6f6f6" d="M427.18 510.33a27 27 0 0 0-2.84-1.6c1.06-5.32 3.64-8.89 7.45-11.97 2.99-2.41 2.71-6.92 4.93-9.66 3.3-4.08 6.65-7.35 8.25-13.05 10.87 2.4-17.25 35.53-17.79 36.28"/><path fill="#774832" d="M166.93 437.42c4.37-3.15 9.8-4.6 11.33-10.08-1.01 2.61-1.5 5.68 1.32 7.65 4.7 3.3 10.37 1.01 11.5 2.99 2.62 4.6-12.15 7.66-15.38 6.36-3.65-1.47-4.93-6.79-8.79-6.94z"/><path fill="#784833" d="m188.32 401.71 6.39-12.95c3.39 1.54 7 2 10.32 4.81-1.55 3.32-1.96 9.58-5.86 10.95s-7.64-2.61-10.85-2.8"/><path fill="#b78a61" d="m339.34 595.67-22.93-5.58c5.31-3.49 8.38-7.01 13.53-12.09 3.23 6.33 6.65 10.44 9.4 17.67"/><path fill="#794833" d="M180.07 425.27c-.72-4.93 2.36-9.12 3.57-13.79 3.02 2.16 6.73 2.94 10.9 4.85 2.92 1.34.66 5.45-.04 7.26-1.98 5.05-11-.62-14.43 1.7z"/><path fill="#f3b341" d="M402.42 658.76c1.86 2.73-.36 5.4-1.97 6.38-5.92 3.59-13.27-3.46-14.3-8.63 4.68-3.12 12.45-3.36 16.27 2.25"/><path fill="#794933" d="M161.58 438.97c-2.2 4 1.04 7.84 2.38 11.74-.06 2.5-6.63 6.7-9.01 5.19-4.13-2.6-6.92-5.79-11.22-4.11 5.15-1.99 9.83-5.02 12.85-9.66-3.82-3.45-.23-6.85 3.5-3.2.4-.1 1.2.28 1.5.04"/><path fill="#ba8932" d="M482.04 784.7a5.4 5.4 0 0 1-6.68.45c-5.66-3.58-2.8-13.27 2.43-16.93 5.13 4.36 6.35 10.05 4.25 16.48"/><path fill="#f3b341" d="M815.43 460.4c.44 5.2-5.7 6.43-8.6 4.83-2.88-1.6-7.62-4.65-7.38-8.66 2.8-4.63 15.38-3.23 15.98 3.81z"/><path fill="#bb8932" d="M650.6 783.87c-.1 5.12-6.95 4.7-9.24 2.13-3.39-3.85-4.09-8.61-2.23-13.88 5.28.47 11.64 4.58 11.48 11.75"/><path fill="#ba8932" d="M580.98 756.35c-2.85 5.1-12.01 3.57-16.79-1 3.83-5.95 11.05-8.9 16.8-5.1 1.85 1.22.76 4.73 0 6.1"/><path fill="#f8b842" d="M719.15 488.8c-2.01 5.64-9.23 7.3-14.47 5.56-.26-7.96 8.42-14.97 13.03-12.04 1.06.69 2.53 3.41 1.45 6.48z"/><path fill="#f6b642" d="M419.55 655.94c-4.8 2.15-8.05-3.33-7.84-6 .21-2.68.85-9.56 5.4-9.8 5.21-.27 8.33 13.15 2.44 15.78zm127.98-199.03a5.74 5.74 0 0 1-9.05-3.6c-1.04-5.1.68-9.63 4.83-13.23 4.97 4.34 7.36 10.23 4.2 16.83z"/><path fill="#bc8c32" d="M583.2 724.87c6.1 1.37 14.31 8.68 10.25 14.43-1.06 1.5-4.87 2.08-7.3.43-4.6-3.13-4.9-9.69-2.95-14.86"/><path fill="#f7b742" d="M721.8 466.49c-1.22 4.78-7.82 3.9-9.96 2.3-2.26-1.7-7.09-6.89-4.42-9.45 4.24-4.06 16.1.5 14.38 7.15"/><path fill="#bd8c32" d="M460.11 785.61c3.02 1.32 3.87 3.98 3.28 6.05a5.55 5.55 0 0 1-5.1 3.85c-5.46.21-9.8-3.63-11.7-9.44 4.02-2.42 8.72-2.55 13.52-.46"/><path fill="#b2875f" d="M429.9 597.56c-9.63.83-14.98 5.71-22.75 12.37 1.25-8.34 7.45-11.34 10.58-18.65 3.97 1.85 8.23.23 12.17 6.26z"/><path fill="#734530" d="M129.25 507.16c-.4.12-1-.14-1.35.05l-2-.88q.45-6.79-8.71-8.09-6.9.31-9.16-3.7c.78-4.24 6.2 1.56 14.64-6.56.99 3.83 6.66 4.01 8.77 7.05 2.4 3.47-1.72 8.79-2.17 12.12z"/><path fill="#794933" d="M219.03 354.05a78 78 0 0 1 7.9-9.65c2.57 1.45 5 3.23 6.79 6.33a30 30 0 0 1-7.03 8.17c-3.58-.35-5.82-2.6-7.66-4.85"/><path fill="#f9b942" d="M834.28 445c1.56 4.54 1.92 10.28-2.38 11.37-4.03 1.01-6.79-2.7-7.28-5.82-.4-2.7 1.06-5.86 2.77-8.27q3.12-2.66 6.87 2.73z"/><path fill="#f2b341" d="M394.9 729.39c-1.07-5.2 1.34-10.88 6.46-6.67 2.37 1.33 5.06 4.6 4.52 7.38-.67 3.44-2.92 4.4-6.77 3.89a4.94 4.94 0 0 1-4.2-4.6"/><path fill="#f2b241" d="M426.08 726.44c-.54 3.71-.6 12.23-4.93 13.53-3.65 1.11-5.28-5.5-4.06-7.48 1.54-2.47 2.7-5.66 8.97-6.05z"/><path fill="#b64051" d="M438.12 794.88c-3.47 2.18-7.45 1.46-11.43.83 1.5-4.44 2.76-7.85 5.76-11.63z"/><path fill="#f0af41" d="M808.94 570.9c3.5 5.49-2.74 10.68-7.45 6.47-1.6-2.92-3.49-9.14-.2-10.7 3.66-1.76 5.97 2.98 7.65 4.24z"/><path fill="#bc8a32" d="M614.57 528.45c1.05 3.7-.12 5.58-3.41 6.13-5.1.87-8.17-3.42-8.77-7.7.6-5.6 9.39-1.46 12.18 1.57"/><path fill="#f0af41" d="m614.56 528.45-12.17-1.56c-1.1-1.4-2.37-5.14-1.1-5.53 5.55-1.65 11.79 1.87 13.29 7.07z"/><path fill="#b68532" d="M801.5 577.37c3.13-1.34 7.08-2.71 7.46-6.48 2.38 1.76 4.17 5.55 2.87 8.57-.69 1.6-3.09 2.82-5.99 2.16-1.7-.39-3.42-2.13-4.35-4.25z"/><path fill="#aa6905" d="M432.45 610.12c-3.36 5.53-7.9 6.66-12.69 5.64 1.5-5.07 7.49-7.8 12.69-5.64"/><path fill="#e78e03" d="M514.34 508.71c-4.68-3.47-4.5-8.9-2-13.08 3.92 3.07 4.44 8.34 2 13.08"/><path fill="#eb5268" d="M386.59 675.17c-2.07.72-5.51 2.67-7.24.46-1.73-2.22-1.1-5.47-1-8.13a77 77 0 0 1 8.24 7.67"/><path fill="#b48132" d="M401.36 722.72c-2.7 1.8-6.59 2.93-6.46 6.67-1.3-3.25-2.56-9.07.3-10.65 3.18-1.76 4.55 3.06 6.16 3.98"/><path fill="#e68e06" d="M518.43 533.72c-3.2.78-4.16-8.53-.59-9 2.8-.36 4.16 8.12.59 9"/><path fill="#f3556c" d="M416.98 758.94c-2.56-1.58-6.62-5.64-4.37-8.48 1.51 1.92 6.65-.47 6.18 2.58a21 21 0 0 1-1.8 5.9z"/><path fill="#ee9304" d="M455.42 599.88c1.48 2.57-7.8 5.92-8.77 2.23-.55-2.15 6.44-5.53 8.77-2.23"/><path fill="#e48d06" d="M505.2 579.91a8.6 8.6 0 0 1-10.83 3.04c2.72-3.4 5.98-4.68 10.84-3.04"/><path fill="#d48307" d="M520.9 558.54c-2.93-2.4-4-6.49-1.72-10.73 3.42 2.3 3.65 6.25 1.73 10.74"/><path fill="#ec9105" d="M478.86 591.62c-2.46 3.12-5.9 4.55-9.83 3.48 1.47-3.8 6.15-5.78 9.83-3.48"/><path fill="#de8905" d="M521.58 571.43c1.58 1.78-1.83 3.46-3.5 3.15-1.92-.35-4.17-1.73-3.53-4.98 1.9-.2 4.9-.55 7.03 1.83"/><path fill="#c17700" d="M509.23 483.22c-3.68-1.57-4.06-5.48-1.97-8.78 2.97 2.43 3.8 5.32 1.97 8.78"/><path fill="#b17e31" d="M834.27 445a16 16 0 0 1-6.86-2.72c.91-1.55 1.22-2.36 3.07-3.52 2.4 1.77 3.06 4.1 3.8 6.24"/><path fill="#b06d05" d="M408.35 621.4c2.24.84-2.44 5.08-6.05 4.4-.56-.12-1.1-.77-.9-1.42.65-1.9 4.48-3.93 6.95-2.99"/><path fill="#8c582c" d="M797.76 591.9c-3.54 1.18-5.12-.72-8.32-2.2 2.76-1.7 6.75-1.42 8.32 2.2"/><path fill="#2b2b2b" d="M608.47 803.57c-3.52 1.03-7.01 1.19-11.51-.03 2.95-1.62 6.16-1.54 11.5.03"/><path fill="#4c4c4c" d="M665.58 802.59q-2.11-.7 0-1.63c3.81.21 7.74-.87 11.55.83-4.36 1.81-8.03.33-11.55.8"/><path fill="#000" d="M430.79 808.45c-2.96 1.09-5.97 1.17-9.88 0 2.34-1.67 5.07-1.52 9.88 0"/><path fill="#852f3b" d="m422.67 670.63-1.63-2.12c2.5-1.07 3.3-4.17 6.71-2.56-1.48 2.2-3.3 3.43-5.08 4.7z"/><path fill="#7a2b36" d="M848.17 440.67c-1.68-.33-1.67 2.18-1.67 3.32-1.8-1.51-1.48-4.29-3.37-6.44 3.91-1.84 3.6 2.07 5.03 3.12"/><path fill="#b53f50" d="M531.81 435.35c-1.35 1.38-.9 3.68-2.5 5.22-1.33-2.73-.63-4.83-.76-6.76l3.25 1.52z"/><path fill="#1e1e1e" d="M727.52 799.33v1.63c-2.7-.4-5.64 1.01-8.26-.91 3.2-1.28 5.88-.87 8.26-.72"/><path fill="#1d1d1d" d="M665.57 800.96v1.63c-2.7-.4-5.64 1.01-8.26-.91 3.2-1.27 5.88-.87 8.26-.72"/><path fill="#644c36" d="M504.18 631.13c1.6 0 1.66-1.86 1.84-3.07.28 2.24 3.16 3.72.87 6.64a6.4 6.4 0 0 1-2.71-3.56z"/><path fill="#000" d="M484.58 806.78c-2.33 1.16-4.92 1.16-8.23.07 1.75-1.72 3.96-1.52 8.23-.07"/><path fill="#a16144" d="M925.9 448.36c-3.66-.06-19.32 7.26-15.93 10.96 1.24 1.36 4.35.04 5.78-.75q5.7-5.94 11.76-6.3c1.92 1.77 5.09.56 7.66 2.1 1.55.9 3.28 5.28 1.97 6.67-12.97 13.76-13.56 4.15-20.68 13.44-2.07 2.7-1.75 6.03 1.1 8.3 5.61 4.44 16.75-8.55 17.38-8.9 6.05-3.19 7.91 4.4 7.78 9.5-.28 10.28-16.06 2.8-20.54 12.3-7.58-4.83-7.9-14.9-12.64-19.98-5.8-6.25-15.25-9.97-13.56-20.94-11.13-.17-17.13-8.01-20.62-17l-9.26-3.82c7.89 3.26-36.75-23-36.05-23.1-18.01 2.44-16.45-9.18-20.88-10.2-4.44-1.03-8.4 6.28-21.13-3.07.59-2.53 2.46-6.67.62-9.07-1.17-1.52-4.37-2.45-7.1-1.45-1.5.55-2.75 2.09-4.78 4.37-5.35-12.48-15.52-18.63-28.2-20.8l-61.65-10.53c4.93-4.49 5.45-10.13 6.05-15.87.4-3.87-2.56-5.8-5.36-5.9-7.01-.25-8.76 14.8-7.68 20.1-5.51-.93-10.8-.4-15.49-3.34-1.65-4.18 6.42-11.94-.98-16.05-2.25-1.26-5.48-.49-7.3 2.43-1.83 2.92-1.75 5.99-3.91 8.73-4.32-2.87-8.94-3.94-13.63-5.52 2.41-3.39 2.77-7.93.65-9.4-3.42-2.42-6.64-1.23-9.34 1.1-3.28 2.82-3.05 9.12-5.58 12.04-9.2 5.5-19.95 7.35-30.1 11.74.19-3.13.17-6.8-1.5-9.03-.97-1.3-3.73-2.19-5.98-1-6.14 3.25-5.03 11.01-7.64 16.07-2.61 5.05-10.71 3.85-16.03 3.96 1.98-6.95 10.11-20.03 2.68-23.16-8.35-3.52-10.22 11.25-12.34 17.04-12.56-2.3-21.96 3.4-30.56 11.37-1.82-3.72 8.94-13.14.84-17.04s-8.84 9.59-12.41 6.91c-3.94-2.93-8.51-5-11.51-8.76-1.78-2.21 1.84-5.75 2.58-7.8 1.53-4.35.36-8.4-3.88-9.14-7.42-1.32-7.37 10.93-11.66 8.64-3.88-2.07-8.7-4.32-11.54-7.9-2.84-3.56 9.26-14.05 1.2-18.18-3.4-1.74-6.93-.37-8.83 3.56-.87 1.8-2.12 6.28-4.34 6.39-4.43-.26-9.71-3.78-12.06-7.36-.87-3.49 11.12-11.38 3.73-16.68-6.34-4.55-11.18 6.77-14.72 9.69l-15.8-9.79c3.3-4.01 8.97-6.23 10.26-11.3.96-3.8-2.84-6.89-6.12-6.3-2.5.44-4.5 2.12-8.12 5.3l-4.22-14.84c2.41-2.9 5.17-4.49 7.6-7.1 2.7-2.9 2.9-7.03-.13-9.44-6.57-5.24-11.41 9.53-15.98 1.03-.76-1.44-1.9-4.54-.32-6.45 3.65-4.43 2.4-8.9 3.24-13.57.9-4.9 4.9-9.15 6.1-14.14.81-3.36-1.01-5.72-3.88-6.02q.56-2.01-3.15 0c-6.93 2.9-8.82 11.86-7.06 19.22l-5.56 7.92c-3.63-3.18-8.2-4.78-11.16-8.43-2.07-2.54 6.56-14.34-1.94-16.5-9.77-2.48-5.86 12.6-14.04 10.5-9.37-2.41-1.75-11.48-6.16-15.06-1.98-1.6-4.65-1.58-6.83-.78-4.9 1.81-2.51 11-4.21 12.07.72-.46-12.68 3.25-13.86-1.7-.86-3.63-1.66-6.94-5.05-7.34-2.66-.3-6.46.46-6.47 3.89l-.05 8.6c-4.71.86-9.36 5.36-13.8 4.09-2.03-1.75-3.37-5.97-6.1-6.14-2.9-.16-5.83.87-6.35 3.94-.37 2.2 0 4.79.88 6.96-1.8 8.58-11.3 11.19-19.58 11.47-2.22 1.19-1.68 3.28-3.14 4.7 2.94 6.03-8.58 13.4-10.02 5.1l-3.71.67c-14.46-16.95-17.56-5.47-1.88 4.1l-.23 3.8c2.9-2.16 3.13-1.31 3.77 1.7.49 2.37-9.5 23.26-14.1 15.81l-3.44.91c-14.12-14.94-7.84 3.15 1.25 8.37l-1 3.7c3.2 3.8 1.8 9.68-3.22 11.13q-.01 13.73-8.41 17.94l-2.69-.96c-2.32.52-6.52-1.76-8.67 1.55-1.3 1.97-.2 5.54.08 8.04 2.4 4.1-3.38 11.33-7.9 9.66-2.26.63-6.8-1.34-8.86 2.03-1.2 1.94-.5 5.34.57 8 3.67 7.1-5.35 15.6-13.2 14.22-2.47.83-4.47 1.96-4.65 4.45s.44 4.4 1.8 6c4.21 2.88-1.56 14.06-6.38 12.96-1.39 1.07-3.67 1.79-4.44 3.13-1.15 2.04.15 5.1-.24 6.62 4.4 2.74.28 11.29-3.57 13.78-.38.75-1.58 1.26-1.81 2.1-1.16 7.53-3.08 12.65-11.33 10.07-1.37 1-3.98.26-5.35 1.55-.4 1.29-.91 1.24-1.5-.03l-6.34-5.48c-19.7-6.92-14.02 4.86 1.43 5.09l1.39 3.57c3.33 8.38-6.46 9.2-12.85 9.65-3.61 1.4-3.14 4.96-3.13 8.37 3.09 4.6-1.8 8.97-5.87 5.24l-3.61.8c-9.44-9.48-20.86-5.17-4.68 2.98l-.54 3.93c7.09.75 9 6.2 1.87 6.77-3.55 1.11-5.36 4.49-5.1 8.14q2.76 7.34-12.57 5.58l-2.07.98c1.17 2.64.26 3.36-2.07 1.61-1.42 4.24-2.15 3.82-2.95-.4-8.35-1.98-14.66-1.7-22.97.14-2.45 5.78-21.72-.65-17.46-6.8q-.24-3.06 2.48-5.3-1.22-5-11.17-2.74l-2.89-2.86c-6.4 5.8-12.29-9.59-13.69-15.78-.44-1.96-.83-3.85.86-5.34 3.22-4.06-9.55-16.83-.88-21.89 3.04-1.76 5.99-2.4 6.38-5.6.47-3.78-2.22-4.28-5.82-6.42-3.02-1.8-1.78-10.11.76-12.53 3.27-3.08 5.53-5.43 2.74-9.83-2.36-3.74-1.76-10.77 2.71-12.76 2.7-1.19 5.28-1.45 6.2-4.04 1.07-3.07-2.03-4.94-4.02-7.24-3.26-3.79 2.4-8.34 3.88-12.02 1.94-4.8-.26-12.06 4.91-15.1 2.66-1.56 6.86-.47 8.19-3.58 1.5-3.54-.6-5.27-2.55-8.34-2.74-4.27 2.84-9.13 7.42-9.4 8.92-.55-4.19-16.27 6.37-17.2 2.87-.24 5.38.64 6.75-1.34 3.77-5.44-2.44-8.2.02-12.72 2.7-4.96 6.7-.81 10.1-4.65 2.34-2.64-1.82-16.4 7.67-16.18 2.82.07 4.63.74 6.3-.77 5.11-4.58-1.17-7.45 2.32-12.34 3.5-4.9 8.8 2.4 12.65-2.22 1.93-2.3.72-4.65-.05-7.65-2.52-9.98 14.35-5.16 14.48-12.36.08-5 4.47-10.18 9.69-8.26 2.87 1.06 5.07 1.58 7.48-.13 2.22-1.56.68-4.66 1.03-8.06.3-3 6.53-7.43 9.37-6.36 3.4 1.27 5.3 3.18 8.28 1.88s2.46-4.37 2.79-8.27c.3-3.57 8.6-8.63 11.66-6.82 3.44 2.06 5.2 5.61 9.48 3.46 3.82-1.91 1.7-5.6 2.29-9.5.48-3.29 8.49-6.3 11.73-5.52s4.85 3.63 7.88 2.87c3.32-.85 3.42-2.99 4.55-7.1.83-3 8.44-5.7 10.79-3.55 3.03 2.74 4.4 4.99 6.9 4.6 5.3-.82 4.17-5.1 5.5-8.78.95-2.63 8.47-3.95 10.75-2.2 1.84 1.42 3.32 3.67 5.54 3.57 3.02-.13 4.11-1.86 5.56-5.2 1.62-3.75 8.84-4.52 11.54-1.6 2.17 2.33 3.17 3.83 5.68 3.8 3.34-.05 4.33-2.2 6.14-5.53 1.62-2.97 10.65-3.96 12.34-1.1 2.14 3.61 2.17 6.65 6.12 6.71 4.68.08 4.66-2.79 6.65-6.82 1.51-3.08 10.68-2.54 12.81.15 1.55 1.94 1.93 4.44 3.59 4.81 8.33 1.93 6-5.97 12.76-5.09 2.45.31 6.67-.67 6.96 3.25.25 3.33.22 6.72 3.05 7.65 2.84.93 6.72.65 7.71-3.28.56-2.19 1.06-4.49 3.36-4.5 9.93-.03.7 7.97 8.94 10.97 4.8 1.77 5.78-2.82 8.5-5.88 2.18-2.45 10.5.45 12.17 3.36 1.27 2.22 1.53 5.36 3.76 5.98 6.93 1.94 4.32-4.97 14.46-1.8 5.94 1.84.62 10.92 7.96 11.72 6.57.72 3.75-7.3 11.87-3.54 5.8 2.68-.52 7.76 5.02 11 7.01 4.09 5.44-5.76 13.25-1.75 4.1 2.1-.37 7.97 4.63 10.39 5 2.41 7.06-3.69 10.98-1.3 5.96 3.65-4.54 10.8 1.12 15.13 3.2 2.43 7.17 1.53 9.24-1.96.8-1.33 1.59-2.56 2.66-2.97 1.65-.61 2.95 1.33 4.4 2.13 9.54 5.17-2.21 12.08 5.3 16.62 3.62 2.18 6.02-1.24 8.82-3.02s9.26 5.1 8.54 8.33c-.9 3.97-.8 7.3 2.43 9.12 3.02 1.71 4.83-1.7 8.15-2.58s10.78 3.48 12.28 6.74c1.4 3.05.75 6.02 3.55 6.85s4.49-.37 7.24-2.02c2.99-1.78 9.23.73 9.36 4.6.13 3.65.7 5.84 3.05 7 3.46 1.7 5.17-1.16 7.89-3.2 4.5-3.36 10.22 2.14 12.28 6.2 2.55 5.05 15.29-6.1 19.25 3.36 1.32 3.15 1.95 5.27 4.73 5.92 3.35.8 4.63-1.47 7.22-4.13 2.04-2.09 8.93-.47 10.8 1.7 1.6 1.86 1.46 4.12 2.71 4.97 7.1 4.78 7.9-4.65 13.3-4.06 13.6 1.5 3.89 8.56 13.21 9.56 3.78.4 4.1-2.55 6.16-6.05 1.68-2.86 10.06-2.33 12.23.08 1.92 2.14 1.99 4.71 4.43 4.94 8 .74 4.3-6.4 11.19-6.16 2.02.08 2.3 2 2.46 4.56.26 3.92 2.56 5.61 5.75 5.45 8.96-.46.5-9.43 11.76-9.46 10-.03.24 8.65 12.59 9.15 3.47.15 2.93-3.4 4.54-6.74 1.44-2.95 10.2-2.31 12.56.05 2.65 2.65 4.72 7.3 9.2 4 2.26-1.65 3.7-4.3 6.38-3.98 12.4 1.53 5.51 6.67 11.7 7.5 6.2.83 5.24-4.82 11.14-4.32 4.9.43 1.14 7.85 6.82 9.3 7.27 1.86 5.42-6.58 10.74-5.42 6.1 1.32 1.27 6.89 5.66 8.83 7.38 3.28 7.07-4.5 12.01-3.43 8.12 1.76-3.1 11.26 6.15 14.34 4.15 1.39 5.9-2.06 8.43-6.04 1.82-2.87 9.57 1.4 9.26 4.34-.41 3.84-2.19 6.66 1.28 8.99 6.31 4.24 8.4-5.99 13.32-3.36 5.3 2.82-3 9.25 3.67 12.67 8.25 4.23 3.78-7.47 14.12-.86 5.25 3.36-3.15 10.65 3.7 13.81 5.93 2.75 6.59-5.72 11.75-.13 4.78 5.2-5.72 7.87 1.85 14.3 2.43 2.06 5.5-1.16 8.07-1.59 4.94 1.45 7.25 7.55 10.93 11.17-.3 3.1-3.3 4.3-3.81 6.87-2.38 12.2-9.6 8.14-8.87 16.6.2 2.32 2.9 4.65 6.18 4 12.16-2.46 7.52-14.78 14.48-16.18 1.06-.21 6.88 7.08 6.81 8.8-.1 3.04-11.48 6.01-8.64 12.55 1.78 4.1 5.97 4.26 9.59 2.09 1.55-.93 4.43-4.2 6.11-2.63 2.3 2.14 5.98 7.47 4.65 10.18-1.45 2.94-3.95 4.65-3.57 7.36.62 4.58 4.04 3.8 8.69 4.58 3.32.56 6.14 8.55 5.31 11.76-.77 2.99-4.94 4.08-4.66 6.95z"/><path fill="#030201" d="M925.9 448.36c1.3 1.2.14 3.95 1.6 3.9-4.52 5-9.93 11.25-17.07 10.78-3.69-.24-4.26-4.39-3.74-6.92.33-1.6 12.12-14.3 19.22-7.76z"/><path fill="#040302" d="M412.89 225.18c-.87.4-2.24-.28-3.15 0 3.4-6.67-3.44-1.5 2.38-16.9 1.45-3.82 4.84-5.45 7.86-4.3 3.37 1.28 3.44 4.68 3 7.95-.95 6.97-4.65 10.62-10.08 13.26z"/><path fill="#7a4933" d="M197.54 378.3c7.3-2.46 8.56-7.02 13.21-14.22 2.85 1.59 6.36 2.4 8.25 5.84-3.46 4.68-5.14 9.51-9.1 12.89-4.22-2.77-8.17-4.62-12.36-4.5"/><path fill="#794933" d="M248.26 317.77c-4.41 4.69.04 9 2.58 14.42 1.43 3.07-5.14 8.2-8.1 9.02-3.1.09-5.5-4.25-7.2-6.4 6.38-2.98 7.75-11.03 11.1-16.97.5-.13 1.17.15 1.62-.06"/><path fill="#744631" d="M282.37 257.85c6.65-3.54 14.9-5.61 19.57-11.47.36.87 2.14 1.24 1.57 2.42-1.47 3.06-7.94 9.65-10.71 11.3-3.4-.75-7.06-3.52-10.43-2.24z"/><path fill="#040202" d="M172.07 422.6c-8.01.14-28.63-4.45-25.73-13.24 1.01-3.03 4.68-5.6 8.1-3.62 12.73 7.34 20.31 3.72 21.21 9.82.36 2.45 0 5.14-3.59 7.05"/><path fill="#020101" d="M119.38 311.73q-6.29-8.08 1.09-6.95c6.86-3.79 10.3 3.96 23.31 10.47 3.3 1.66 2.84 5.41 1.78 7.3-4.81 8.49-22.04-5.5-26.2-10.82z"/><path fill="#030201" d="M123.3 346.83c-6.81-2.47-25.87-9.56-18.99-18.48 1.24-1.62 4.94-2.62 7.43-.69 9.72 7.5 20.06 8.5 18.34 15.04-.66 2.58-3.47 5.33-6.78 4.13"/><path fill="#020101" d="M141.58 346.57c11.35 6.88 18.81 7.84 17.07 14.74-2.3 9.04-18.26-1.4-23.43-4.99-2.7-1.88-3.06-5.42-2.23-7.73 1.1-3.12 5.36-4 8.59-2.04z"/><path fill="#030201" d="M519.46 313.94c-8.48 8.35-6.87 16.79-14.43 16.08-10.29-.96-.57-18.88 7.24-24.88 2.77-2.14 6.35-1.02 8 .81 1.9 2.14 1.53 5.68-.8 7.98z"/><path fill="#020101" d="M172.26 311.02c4.17 2.76 16.8 12.02 14.62 17.06-4.1 9.61-16.95-3.68-22.58-8.93-2.23-2.1-1.9-5.5-.83-7.07 1.78-2.57 5.82-3.01 8.79-1.07z"/><path fill="#040202" d="M193.14 275.53c-5.23 6.52-12.4-5.07-19.51-9.98-2.77-1.91-3.57-5.04-2.35-7.3 1.65-2.98 5.22-4.17 8.6-2.37 2.8 1.46 18.7 12.85 13.25 19.63z"/><path fill="#020101" d="M842.35 349.66c-9.12 13.43-4.86 17.11-11.38 17.28-3.54.08-5.77-2.16-5.7-6.48.24-10.42 9.23-23.36 16.25-18.45 1.84 1.3 2.55 5.13.83 7.65M399.58 199.08c-1 9.5-1.61 21.66-8.56 21.19-8.46-.57-4.35-15.87-2.52-22.7.85-3.17 3.24-4.66 5.64-4.69 3.16-.03 5.85 2.2 5.43 6.2z"/><path fill="#050302" d="M98.62 412.28c-7.68-1.47-21.4-2.95-19.38-11.42.62-2.62 3.52-4.51 7.04-3.59l15.11 3.99c3.77.99 5.09 3.96 4.44 7.09-.66 3.13-3.43 4.65-7.21 3.93"/><path fill="#030201" d="M130.95 423.37c-7.68-.65-22.35-.42-20.62-9.49.57-3.02 3.42-4.5 7.09-3.96l14.11 2.1c3.88.57 5.87 2.8 5.56 6.33a5.5 5.5 0 0 1-6.14 5.02"/><path fill="#020101" d="M177.56 290.37c-5.16 4.08-13.88-6.63-19.5-12.54-2.53-2.64-1.55-6.82 1.24-8.6 1.82-1.15 5.1-1.27 7.76 1.28 7.25 6.94 17.3 14.48 10.5 19.85z"/><path fill="#030201" d="M165.7 381.34c11.55 7.75 16.57 5.8 16.78 11.3a5.66 5.66 0 0 1-6.14 5.8c-7.83-.33-24.33-8.32-18.47-16.68 1.28-1.84 5.13-2.23 7.82-.44z"/><path fill="#020101" d="M485.16 285.56c9.13 4.13-7.47 26.57-14.09 24-3.32-1.3-4.52-5.8-2.33-8.9l7.92-11.3c2.28-3.26 5.1-5.33 8.5-3.8M93.68 479l-16.14-1.8c-3.08-.34-4.45-3.16-4.58-5.19-.57-8.87 14.07-5.74 22.32-4.25 3.42.62 5.08 3.05 4.9 6.03s-2.52 5.68-6.5 5.24zm105.1-240c2.1 1.46 16.42 16.53 10.18 21.08-2.37 1.72-6.33 1.93-8.29-.58l-9.92-12.71c-1.65-2.1-1.28-5.37-.2-6.88 1.5-2.12 5.6-2.76 8.25-.92zm646.81 166.58c-1.27 3.15-5.13 3.13-7.71 1.89-7.42-3.54 1.9-17.55 8.07-22.84 2.33-2 6.06-.6 7.33.95 4.39 5.38-3.43 9.48-7.7 20z"/><path fill="#040202" d="M191.6 371.13c-1.25 10.68-17.55 2.1-22.67-1.3-2.67-1.8-2.85-5.32-1.7-7.8 1.13-2.48 5.01-3.33 8.26-1.73 10.95 5.41 16.74 5.2 16.1 10.83"/><path fill="#030201" d="M872.3 404.47c-8.17 10.39-6.53 15.95-13.46 14.63-8.25-1.56-2.26-15.79 5.43-22.5a6.16 6.16 0 0 1 7.6-.24c2.17 1.63 2.6 5.34.42 8.1zm-706.61-57.38c-6.3-2.96-23.2-11.24-17.13-18.57 1.53-1.85 4.98-2.77 7.5-1l11.3 7.86c2.49 1.74 4.15 3.5 3.82 6.1-.3 2.4-1.9 4.37-5.49 5.6m327.49-30.9c-2.24 2.83-6.23 2.43-8.3.84-6.03-4.6 9.78-26.63 17-20.4 1.57 1.35 2.87 4.88.93 7.34z"/><path fill="#040302" d="M105.67 392.43c-7.28-.44-23.64-5.64-19.3-13.78 1.15-2.17 4.5-3.57 7.54-2.2 11.48 5.18 17.4 5.05 16.89 10.97-.16 1.88-1.43 5.22-5.13 5z"/><path fill="#030201" d="M218.38 337.94c-3.42 8.07-15.34-3.36-19.94-7.44a6.5 6.5 0 0 1-1.56-7.49c4.09-8.6 16.46 4.88 20.59 8.16 2.12 1.68 1.77 4.76.9 6.78zM626 312.62c-3.92 10.57-1.44 15.76-7.11 16.46-2.47.3-6.2-.73-6.5-4.7-.48-6.69.27-14.06 4.03-19.54 1.76-2.56 6.13-1.38 7.65 0a7.1 7.1 0 0 1 1.9 7.78z"/><path fill="#050302" d="M72.2 396.92c-5.2.39-23.48-2.86-22.16-10.56.46-2.7 3.62-5.48 7.1-4.48l15.63 4.45c2.3.65 3.03 3.04 3.2 4.44.22 1.8-.5 5.9-3.78 6.16z"/><path fill="#030201" d="M214.62 209.96c2.4 7.93 10.18 12.54 6.06 17.9-1.22 1.58-4.99 3.04-7.35 1.04-5.77-4.86-15.7-20.46-6.4-23.34 3.6-1.11 6.53.65 7.67 4.4z"/><path fill="#020101" d="M215.6 293.8c2 2.44.76 5.58-.66 6.82-6.6 5.77-13.68-5.66-18.15-12.53-1.76-2.7-1.48-6.44.9-8.14 6.6-4.71 11.56 6.02 17.92 13.83z"/><path fill="#080503" d="M648.62 311.9c.2 7.47.44 19.46-6.63 19.45-3.36 0-5.74-2.45-5.51-6.68.47-8.69-.97-19.65 7.04-19.05 2.84.22 5 2.53 5.1 6.27z"/><path fill="#020101" d="M180.75 295.45c4.84-6.25 26 10.14 20.36 17.19-4.77 5.97-11.73-2.56-19.95-9.12-2.4-1.9-2.02-6-.4-8.07M447.2 221.8c-7.9 11.24-10.15 17.85-16.48 14.32-1.99-1.1-3.24-4.43-1.61-7.73 3.06-6.16 8.26-19 16.05-14 1.8 1.15 3.98 4.62 2.04 7.4zm-173.64.69c3.4 10.29 9.44 17.8 2.12 21.02-1.95.87-5.3.5-7.04-2.7-3.13-5.72-10.82-20.97-1.66-22.45a5.76 5.76 0 0 1 6.58 4.13"/><path fill="#040201" d="M779.14 372.35a5.96 5.96 0 0 1-7.84 2.3c-7.78-3.86 3.38-17.48 7.03-21.87 1.87-2.25 5.54-1.6 7.22-.46 1.97 1.34 2.87 4.67 1.32 7.25z"/><path fill="#030201" d="M827.25 380.5c-5.15 6.42-3.03 15.11-9.4 15.54-2.73.18-5.86-.8-5.94-4.54-.21-9.57 5.66-23.49 13.17-19.88 3.15 1.5 4.71 5.72 2.19 8.89zm-678.12-91.87c3.8 2.6 15.3 11.33 13.15 16.16-1.35 3.04-4.92 4.8-8.02 2.8-5.46-3.5-18.34-12.05-13.68-18.26 2-2.66 5.7-2.64 8.53-.7z"/><path fill="#040202" d="M96.7 454.41c-5.8 1.21-22.27 1.3-22.22-6.6.01-2.92 2.08-5.65 5.83-5.35 9.36.72 19.13.08 19.86 5.58.26 2-.18 5.69-3.49 6.37z"/><path fill="#030201" d="M69.68 456.47c1.93 9.15-16.17 6.86-21.81 5.18a5.96 5.96 0 0 1-4.42-7c.62-3.03 3.5-4.72 7.13-4.07 10.87 1.99 17.62-1.17 19.1 5.89m155.99-153.41c7.09 8.32 14.67 11.58 10.12 18.01s-15.9-6.36-18.73-10.58c-1.78-2.63-1.13-6.42.45-7.67 2.12-1.68 6.1-2.19 8.16.24"/><path fill="#040302" d="M120.48 304.78c-1.48 2-1.4 4.55-1.09 6.94-1.01-1.3-1.3-3.4-2.5-3.78-1.4-.44-3.71.25-5.28-.1-2.62-.57-18.8-8.12-14.42-15.51 1.02-1.75 4.04-3.77 6.65-2.23 8.82 5.18 14.43 7.38 16.64 14.68"/><path fill="#030201" d="M201.37 348.65c2.89 1.75 3.1 4.98 2.16 7.47-3.28 8.75-16.52-3.34-20.77-6.77a5.5 5.5 0 0 1-1.36-7.5c5-7.13 11.63 1.76 19.96 6.8z"/><path fill="#040302" d="M816.47 335.55c-1.97 6.12-6.81 20.3-14.11 17.4-3.02-1.18-4.3-4.97-2.74-8.12l5.98-12.05c1.52-3.05 4.16-4.74 6.81-3.98 2.51.74 5.12 3.48 4.06 6.74z"/><path fill="#030201" d="M462.84 235.91c-7.13 9.72-8.35 16.18-14.6 14.9-9.68-1.97.9-17.04 5.82-21.78 2.24-2.16 5.68-1.96 7.28-.79 2.21 1.62 3.35 5.16 1.5 7.69z"/><path fill="#020101" d="M773.32 310.94c8.76 2.12.5 25.9-7.27 24.63-2.95-.49-5.05-3.73-4.07-7.29l3.9-14.16c.77-2.82 5.44-3.67 7.46-3.18z"/><path fill="#030201" d="M881.68 429.78a6.1 6.1 0 0 1-7.61.26c-5.8-4.27 3.49-12.08 8.74-20.19 1.58-2.45 5.67-1.58 7.16-.42 6.71 5.26-3.3 15.9-8.29 20.35M480.19 250.15c-4.68 5.79-12.35 15.17-17.86 11.14-6.83-5 5.9-15.8 10.93-19.95 2.33-1.92 5.5-.34 6.7 1.06 1.32 1.55 2 5.53.23 7.75m-104.56-54.41c-.27 7.14-.36 19.55-7.33 18.79-8.4-.93-4.71-13.15-3.77-20.13.48-3.5 2.95-4.98 5.19-5.09 3.86-.21 6.08 2.14 5.91 6.43m193.84 115.54c-1.2 3.5-4.58 4.13-7.02 3.46-1.96-.54-4.23-3.21-3.69-6.05 1.18-6.25 4.97-20.96 12.85-18.32 7.09 2.38.54 13.17-2.14 20.91"/><path fill="#040202" d="M251.6 226.73c3.46 8.25 11.06 13.71 5.66 18.1-2.53 2.06-6.26 2.04-8.43-.63-3.57-4.38-12.58-16.54-5.59-20.15 3.4-1.76 6.88-.86 8.36 2.7z"/><path fill="#030201" d="M229.76 240.48c5.4 9.05 10.99 11.87 7.19 16.8-1.5 1.94-5.02 3.21-7.55 1.17-6.15-4.94-15.68-17.16-7.39-20.96 2.65-1.2 5.9-.11 7.75 2.99"/><path fill="#040302" d="M233.08 284.37c-7.35 5.84-9.58-4.53-16.62-9.28-2.66-1.78-2.89-4.88-1.57-7.49 1.14-2.26 4.63-3.72 7.9-1.94 7.38 4.05 15.23 14.78 10.31 18.7z"/><path fill="#040202" d="M130.67 442.87c-1.17 8.23-23.4 2-23.91-3.3-.28-2.74.76-6.52 4.63-6.54 5.47-.02 20.46 1.63 19.3 9.84z"/><path fill="#020101" d="M468.35 274.88c6.11 4.22-6.62 23.9-13.63 21.6-8.74-2.9 2.43-17.04 6.6-21.16 2.09-2.07 5.48-1.5 7.03-.43z"/><path fill="#030201" d="M238.95 200.16c2.89 9.59 7.81 11.8 4.65 16.52-1.84 2.74-6.26 3.03-8.85.54-4.88-4.72-10.96-19.02-3.28-21.32 3.57-1.06 6.38.65 7.47 4.26zm81.21 4.69c-1.14 3.53-3.65 4.02-5.89 4.08-6.44.18-6.6-12.18-6.9-19.5-.16-3.61 2.68-5.1 5.37-5.26 7.45-.45 6.96 12.7 7.44 20.67z"/><path fill="#020101" d="M344.8 210.12c-1.3 4.34-3.07 4.59-5.28.56-6.94 1.3-4.98-17.75-4.09-20.91 1.01-3.58 5.28-3.72 7.55-2.9 5.32 1.9 3.62 20.74 1.83 23.27z"/><path fill="#040202" d="M68.8 439.64c-6.85.88-22.53 1.2-22.35-6.51.23-9.51 14.28-4.3 21.98-3.44 2.92 2.46 3 6.49.37 9.95m840.52-12.37c6.84 6-11.16 22.22-16.76 18.3-2.84-1.97-3.41-6.34-.82-8.82l9.95-9.51c2.13-2.04 5.49-1.84 7.63.03"/><path fill="#030201" d="M513.02 266.14c5.67 4.86-8 22.3-13.83 19.88-2.33-.96-4.25-3.9-3.06-6.84 2.08-5.13 10.19-18.82 16.89-13.06zm42.45 29.66c-6.4 8.36-6.41 14.72-12.3 13.25-3.08-.77-4.92-3.3-4.12-6.98 1.75-8.06 8.89-18.94 15.62-14.11 2.2 1.58 2.82 5.2.78 7.86z"/><path fill="#040201" d="M442.77 276.26c-1.26 2.94-4 4.03-6.1 3.64-3.26-.59-5.35-3.73-4.43-7.52 1.32-5.53 9.3-18.46 16.28-13.49 6.05 4.34-3.16 11.37-5.73 17.36z"/><path fill="#030201" d="M142.69 273.82c-7.62-.31-20.6-12.6-14.41-18.06 6.17-5.46 10.62 4.06 15.6 7.03 2.34 1.4 3.53 3.44 3.44 5.51-.07 1.59-.74 5.68-4.62 5.52z"/><path fill="#040302" d="M498.1 263.02c-5.7 5.48-10.39 12.18-15.1 9.88-2.62-1.27-4.35-4.94-2.4-7.9 3.7-5.63 12.95-16.64 18.57-9.47 1.44 1.83 1.57 4.96-1.07 7.49"/><path fill="#040202" d="M735.09 310.2c-.07-.61 0 18.62-6.83 19.3-3.21.33-6.05-1.58-6.4-5.41-.58-5.96.95-18.24 8.13-17.62 1.58.13 4.79.9 5.1 3.74"/><path fill="#040201" d="M689.27 328.57c-1.1 4.16-8.56 4.16-9.8.44-1.9-5.64-.75-11.82.86-17.25 1.03-3.48 4.27-4.28 7.17-3.72 5.86 1.12 3.44 14.24 1.78 20.53z"/><path fill="#040202" d="M67.7 416.9c-6.45 1.76-12.41-.92-17.38-3.38-3.15-1.57-3-5.14-2.07-7.67 2.18-5.82 18.29.74 20.67 2.07 2.59 1.47 2.31 8-1.23 8.98"/><path fill="#020101" d="M139.16 402.56c-7.6 1.13-15.1-.5-20.2-5.55-1.93-1.92-1.15-5.56-.2-7.04 2.55-4.01 11.84.05 19.6 2.72 3.46 1.2 3.54 6.46.8 9.87"/><path fill="#030201" d="M790.23 340.2c-1.26 2.73-4.11 3.13-6.28 2.78-7.9-1.3-2-13.9.33-20.46 1-2.82 4.1-3.4 6-3.25 8.67.77 2.44 15.52-.05 20.92zm-258.3-7.68q-4.15.45-4.76 3.5l-2.05-3.16c-4.93-4.38 2.1-15.66 6.8-19.73 2.3-1.98 5.42-1.55 7.38.06 5.44 4.52-6.25 18.34-7.37 19.33M76.66 373.23c-6.47 1.5-13.14-1.29-17.77-5.74-1.78-1.71-1.45-5.02-.5-6.7.88-1.58 3.58-3.7 6.16-2.43 11.15 5.53 15.42 3.88 15.29 9.56-.03 1.7-.52 4.7-3.2 5.33z"/><path fill="#040202" d="M741.99 342.62c-.15 5.66-1.65 18.04-8.6 17.17-7.48-.91-4.23-11.79-2.36-18.56.88-3.18 3.1-4.45 5.48-4.52 3.16-.08 5.56 2 5.46 5.9z"/><path fill="#040201" d="M98.65 430.73c-4.63 1.9-17.88 3.44-20.33-4.37-.52-1.65-.2-6.2 2.55-6.44 5.6-.5 11.54.16 17.25 1.38 3.97.87 3.9 8.03.52 9.41z"/><path fill="#030201" d="M527.76 295.87c-1.42 2.79-4.11 3.88-5.86 3.5-3.52-.74-5.33-3.56-4.46-7.35 1.61-7.13 7.61-18.74 14.47-13.86 1.93 1.37 2.68 4.35 1.3 7.04zm-258.55-28.22a8 8 0 0 1-.81 6.23c-.85 1.42-3.09 2.16-5.03 2.33-4.22-2.85-19.41-13.32-11.36-18.95 5.75-4.03 13.7 6.38 17.2 10.4M153.8 242.84c3.89 5.9 12.36 9.7 6.82 15.97-1.27 1.44-4.35 2.33-7.03.48-4.63-3.22-14.21-12.57-8.78-17.69 2.98-2.82 6.9-1.94 9 1.24"/><path fill="#020101" d="M294.43 205.56c.67 3.03-1.92 4.68-3.44 5.17-2.04.63-5.54.44-6.73-1.93-2.94-5.87-7.62-20.11.65-21.43a5.6 5.6 0 0 1 6.47 4.58z"/><path fill="#030201" d="M253.06 293.72c2.31 2.47 4.82 4.84 3.93 8.18-.9 3.35-4.88 3.38-7.11 4.8-3.02-3.74-17.74-14.58-9.74-20.03 5.94-4.05 11.37 5.4 12.92 7.05m-116.31 86.46c-6.05-1-16.27-4.14-15.22-10.47.56-3.47 3.65-5.07 7.44-4.22 6.97 1.56 15.7 4.28 14.76 10.58-.4 2.56-2.7 4.81-6.98 4.11"/><path fill="#040202" d="M435.47 249.61c-6.38 7.67-7.21 13.36-13.32 11.26-2.22-.77-3.54-3.3-3.05-6.43.9-5.8 4.66-11.04 10.17-13.03a5.55 5.55 0 0 1 6.62 2.09 5.6 5.6 0 0 1-.44 6.11z"/><path fill="#030201" d="M667.78 308.27c6.16 1.82.6 21.35-3.4 22.26-2.14.5-5.76.23-6.6-2.92-1.64-6.23-.32-13.39 3.82-18.17 1.71-1.99 4.5-1.66 6.16-1.17z"/><path fill="#050302" d="M160.08 438.93c-1.66.46-2.62 1.83-3.5 3.2-5.9-1.29-20.19-1.81-18.4-10.28 1.77-8.46 18.5-.94 20.43.36 2.17 1.46 1.3 5.1 1.47 6.74z"/><path fill="#040302" d="M108.3 368.75c-5.49-1.7-16.72-6.25-13.62-12.68 3.8-7.84 21.76 2.22 20.88 8.32-.47 3.26-3.46 5.52-7.26 4.34zM715 357.27c-1.12 3.55-4.02 4.38-6.04 4.1-8.64-1.22-3.44-16.17.23-20.7 1.72-2.13 4.82-1.92 7.12-.92 1.76.75 3.05 3.65 2.09 6.72z"/><path fill="#070403" d="M560.08 328.57c-4.82 8-5.84 14-10.61 13.26-2.74-.42-5.12-2.5-5-5.83.22-6.06 3.1-11.67 8.01-14.96 2.12-1.42 4.91-.74 6.36.4a5.66 5.66 0 0 1 1.24 7.17z"/><path fill="#050302" d="M712.04 323.42c-.62 4.1-2.66 5.9-5 6.08-2.97.22-5.5-1.25-6.09-4.7-.88-5.02-.24-10.35 2.3-14.75a5.8 5.8 0 0 1 6.42-2.53c1.91.54 4.37 2.59 3.97 5.25z"/><path fill="#020101" d="M596.9 317.9c-1.64 2.47-4.8 2.55-6.8 1.74-6.98-2.86.14-13.75 3.13-18.45 1.7-2.71 4.93-2.94 7.25-1.84 6.9 3.27-.2 13.44-3.57 18.56z"/><path fill="#040202" d="M265.87 208.05c-.18 4.86-7.39 5.7-9.46 2.54-2.52-3.83-7.55-16.16-1.73-18.88 2.3-1.08 5.76-.98 7.21 1.94 2 4.04 4.19 8.58 3.98 14.4M88.92 348.75c-2.7 6.6-10.24 2.19-16.32-.16-3.24-1.26-4.27-3.93-3.73-6.77 1.45-7.77 13.12-2.8 18.39.55 2.59 1.63 2.34 4.75 1.68 6.4z"/><path fill="#030201" d="M608.93 349.4c-.93 3.76-7.86 4.1-9.35.79-2.64-5.9-.99-13.4 3.4-17.68 2.03-2 5.36-1.28 7.02-.23 1.66 1.04 2.2 3.95 1.53 6.64z"/><path fill="#050302" d="M753.1 323.97c-.97 2.68-4.45 2.7-6.47 2.22-6.05-1.42-3.3-15.69-1.95-18.95 1.41-3.44 8.21-3.23 9.52.39 1.89 5.27.78 11.24-1.1 16.34m-618.39 141.4c1.11 2.58.41 5.55-1.24 6.77-2.26 1.67-5.67 1.37-7.6.95-3.9-4.47-13.47-5.7-10.2-12.63 3.7-7.8 16.35 1.11 19.04 4.91"/><path fill="#060403" d="M319.91 215.62c1.8 5.87 4.52 15.14-1.39 16.83-1.74.5-4.98.44-6.42-2.25-2.25-4.2-5.85-16.72.72-18.19 3.06-.68 6.05.2 7.1 3.6"/><path fill="#030201" d="M861.01 365.2c-3.21 7.04-6.85 13.58-12.86 11.08-6.77-2.82.26-13.68 4.32-17.94 2.13-2.23 5.48-1.9 7.33-.52 1.86 1.37 2.48 4.55 1.2 7.37z"/><path fill="#040201" d="M584.32 332.8c-.37 4.52-2.69 15.33-9.2 14.47-7.83-1.05-3.8-14.7.35-19.53 1.53-1.78 4.13-1.32 5.82-.9 2.04.51 3.3 2.9 3.03 5.94z"/><path fill="#040202" d="M297.7 214.74c2.73 2.43 7.3 14.39 2.75 17.83-1.78 1.34-6.23 1.87-7.93-1.03-2.67-4.62-7.12-14.55-1.45-18.06 1.83-1.12 4.45-.65 6.62 1.26"/><path fill="#050302" d="M169.91 227.82c2.04.83 10.34 9.41 8.95 13.75a6.1 6.1 0 0 1-5.05 4.18c-3.33.45-15.59-10.13-11.02-16.43 1.64-2.28 4.95-2.4 7.12-1.5"/><path fill="#040202" d="M98.74 325.57c-6.02-.34-13.54-4.53-14.19-10.03-.39-3.3 3.07-5.24 4.97-5.43 2.71-.28 14.09 5.09 14.51 9.12.23 2.18-1.09 6.57-5.3 6.34"/><path fill="#030201" d="M762.1 345.37c3.8 4.52-.55 15.61-2.2 17.3-1.73 1.75-6.65 2.6-8.15-.43-2.33-4.72-.83-13.2 2.6-17.3 2.54-3.04 6.33-1.25 7.75.43m36.7 33.65c-1.99 3.18-5.23 3.48-7.82 2.2-5.66-2.77-.75-11.41 1.61-15.82 1.65-3.06 5.07-4.25 8.17-2.5 5.12 2.9 1.32 10.89-1.94 16.12z"/><path fill="#040202" d="M531.93 332.52c-1.08.93-3.21 1.44-4.42 2.74 1.34 5.06-.03 10.1-3.26 14.32-2.35 3.09-6.1 3.92-8.7 2-5.03-3.73 1.45-18.3 9.56-18.72z"/><path fill="#080503" d="M344.8 210.12c2.49.38 5.24 1.21 6.22 2.86 1.48 2.5 1.48 6.08 1.8 8.87.61 5.03-1.25 8.48-5.86 8.4-9.85-.18-3.26-15.3-7.45-19.59 1.71-.1 3.55-.81 5.28-.55z"/><path fill="#050302" d="M129.63 283.56c1.24 3.36-1.78 5.69-3.52 6.18-4.57 1.27-13.4-4.8-14.32-7.18-.76-1.97-.62-6.08 2.68-7.2 5.07-1.7 13.12 2.68 15.16 8.2"/><path fill="#020101" d="M544.5 360.17c-1.44 2.18-4.5 1.87-6.23 1.25-6.13-2.15-2.25-13.3 2.75-17.78 1.81-1.61 4.23-1.54 6.02-.86 6.4 2.45.26 13.13-2.54 17.39"/><path fill="#040202" d="M194.66 222.32c2.31 2.73 3.55 5.14 2.72 8.2-.49 1.77-2.38 3.5-5.1 3.74s-15.88-10.16-9.57-16.03c4.03-3.75 8.8.4 11.95 4.1"/><path fill="#010101" d="M873.22 385.63c-2.1 2.02-5.2 1.61-7.09.23-4.7-3.46 1.14-12.61 4.29-16.1a5.6 5.6 0 0 1 6.16-1.34c6 2.32 2.4 11.7-3.36 17.2"/><path fill="#7a4a34" d="M50.97 478.21q.46 3.77-.33 8.03 10.06-1.67 11.92 2.85c4.17 5.04 11.31 5.32 17.46 6.8 7.17 5.01 15.24 5.13 22.97-.14l2.95.4c4.14 6.32 11.12 9.14 19.1 8.67l2.86 2.4c.2-.86.68-.79 1.35-.06-.34 2.58 2.28 8.67-1.84 9.71-4.32 1.1-8.36 1.2-8.1 6.03.5 9.29 11.49 1.8 12.57 11.26.71 6.34 5.31 11.84 4.9 18.06-1.53 2.2-4.63 4.42-4.45 6.65.3 3.44 1.73 5.02 4.2 5.77 1.8.54 6.1-2.43 7.26-1.32 20.68 19.56 9.17 17.2 14.92 23 1.7 1.7 5.97-1.66 7.9-.62 17.25 9.37 35 16.74 55.78 14.18l20.38 15.8c4.23 3.28 6.68 7.3 12.32 10.62-5.46 4.45-15.71 15.09-9.59 20.05 6.72 5.44 13.05-7.05 16.23-13.67 3.14 2.51 7.51 4.1 9.8 7.52 5.3 7.94-9.7 20.6.19 24.12 3.38 1.2 5.28 1.53 5.48 4.78q.75 5.48-6.23 2.74c-11.84 16.3-1.73 21.61 3.77 1.55l3.97.18c1.36 9.54 5.22 18.66 4.01 28.93 13.01 15.96 2 28.34 5.63 34.54.86 1.46 4.48 1.2 6.1 3.03 4.27 4.81 0 11.19-4.36 14.83-.8-2.34.4-4.68.13-7.6-.36-4.2-3.6-5.55-6.86-5.06-4.16.63-8.85 17.2-9.76 21.8-26.58 6.29-19.26-9.39-27.13-6.26-3.91 1.55-10.16 2.17-12.21-2.69-.92-2.17-.62-4.83-2.25-5.84-2.7-1.7-14.27.98-13.78-6.36.25-3.59.46-6.4-2.6-8-2.3-1.23-4.62.8-7.31.96-2.7.14-7.92-4.4-7.86-7.15.08-3.49 1.2-6.6-1.32-8.3-2.09-1.4-4.25-.46-7.45-.05-3.37.42-9.23-4.85-8.31-8.42 1.06-4.12 3-7.29-.17-9.98s-6.11.4-9.57 1.47c-3.01.6-8.95-5.35-8.62-8.55.24-2.33 2.95-5.8 1.12-8.46-5.1-7.46-9.1 3.78-14.18-2.16-4.12-4.83 5.63-7 1.57-12.83-5.19-7.46-10.08 5.1-16.49-1.5-6.4-6.61.98-8.9-3.66-12.8-3.56-2.98-8.24 1.13-9.8-1.35-.64-1.02 1.45-6.96-1.18-8.77-2.3-1.58-16.43.77-15.2-9.74.32-2.84.29-5.17-1.36-6.4-1.76-1.31-3.77-.58-6.36-1.35-3.45-1-9.55-7.55-8.05-10.88 1.5-3.32 4.37-5.35 2.56-8.64-4.03-7.36-9.96 2.36-13.76-3.9-3.36-5.53 3.62-7.16.36-11.94-2.55-3.72-8.25-.14-10.78-5.17-2.52-5.02 5.07-6.07 2.77-11.5s-8.47-1.61-9.84-3.1c-4.16-4.52 2.16-11.38-2-13.3-4.88-2.23-10.47-7.53-7-13.17 1.5-2.45 4.22-3.69 3.23-6.87-2.01-6.4-9.95-1.58-10.81-8.63-.6-5.07 8.3-3.01 5.56-12.02-.93-3.03-5.45-1.73-7.85-2.72-3.1-1.3-5.21-10.5-2.4-12.33 3.74-2.4 6.77-4.3 6.24-8.6-.62-4.9-5.7-3.3-8.87-4.86-6.59-3.26 1.14-11.51-.12-15.12-2.25-6.5-8.5-15.33-.7-19.65 3.31 4.45 5.6 19.72 12.83 21.1z"/><path fill="#040202" d="M277.23 669.12c.08 1.25 1.3 3 1.52 4.45-2.35.05-4.66 20.42-14.07 15.3-6.75-3.67 1.86-18.17 4.9-19.84 2.8-1.54 5.75 1.82 7.67.09z"/><path fill="#040302" d="M127.89 507.21c-6.23 3.48-20.37-2.82-21.8-5.17-.87-1.4-1.37-4.19-.16-5.88.39-.54 1.41-1.54 2.07-1.62 6.39-.81 13.6.57 19.3 4.88 2.46 1.87 1.14 5.8.59 7.78z"/><path fill="#020101" d="M102.97 495.75c.75 9.33-16.53 7.26-19.32 6.08-1.86-.78-3.3-3.26-3.65-5.94.72-6.9 23.08-6.9 22.97-.14"/><path fill="#030201" d="M62.54 489.1c-4.92-.09-8.78 1.48-12.92.14-2.5-.82-2.84-4.8-2.1-6.6.58-1.48 1.64-3.66 3.45-4.43 4.27-.76 7.68-.91 11.41-.62 4.03.33 6.55 3.3 5.8 6.92-.47 2.23-3.06 4.14-5.62 4.58z"/><path fill="#020101" d="M129.2 614.93c-3.74 4.52-16.31 17.65-21.61 11.1-1.62-2-1.93-5.98.44-7.84 9.06-7.1 15.14-14.8 20.33-10.12 1.37 1.23 2.85 4.45.84 6.86m-19.98-91.65c-4.86 1.96-22 7.46-22.92-.52-.33-2.73.9-6 4.46-6.77l15.74-3.38a5.25 5.25 0 0 1 6.34 4.05 5.7 5.7 0 0 1-3.59 6.62zm98.32 115.09c8.3 4-9.06 26.87-16.37 21.51-2.23-1.64-2.82-5.56-.73-8.18l9.29-11.68c1.92-2.41 4.97-2.99 7.8-1.63zm30.03 11.43c-4.11 6.12-12.23 17.98-18.6 13.2-1.77-1.32-2.84-5.4-.79-7.8 6.25-7.29 12.18-17.1 18.15-12.8a5.54 5.54 0 0 1 1.22 7.4zm-49.97-20c-3.25 4.56-13.27 18.16-18.59 11.2-1.35-1.76-1.92-5.2-.03-7.33L179 622.48a5.96 5.96 0 0 1 7.88-.86c2.42 1.8 2.75 5.37.75 8.19z"/><path fill="#030201" d="M151.4 587.16c6.9 5.13-10.5 24.72-16.88 19.85-2.06-1.57-3.25-5.36-1.26-7.69 6.13-7.16 12.05-16.7 18.15-12.18z"/><path fill="#050302" d="M74.67 511.47c-3.34 1.81-20.4 7.73-21.55-1.76-.4-3.25 1.73-5.4 5.36-6.1l12.2-2.38c3.01-.59 5.46.5 6.3 2.48 1.12 2.64.74 6.13-2.3 7.78z"/><path fill="#020101" d="M179.34 663.75c-2.5 6.92-12.75 19.41-18.62 12.24-1.67-2.06-1.76-5.01.76-7.48 8.6-8.38 8.61-14.95 15.5-12.26 2.39.93 3.53 4.27 2.36 7.5"/><path fill="#030201" d="M270.61 740.38c-.28 1.86-5.53 17.53-13.07 15.82-3.08-.7-4.93-4.39-3.38-8.07 2.45-5.78 6.93-15.97 12.2-14.65 3.18.8 4.77 3.38 4.25 6.9M120.29 562.23c-5.38 3.55-15 9.74-18.78 4.81a5.9 5.9 0 0 1 1.2-7.94c3.82-2.9 16.63-11.23 19.5-4.86 1.34 2.97.88 6.15-1.92 7.99"/><path fill="#010101" d="M188.64 694.8c-2.1 2.8-6.04 1.97-8 .09-5.85-5.6 3.63-14.24 8.33-18.55 2.72-2.5 6.68-1.46 8.66 1.4 2.85 4.18-2.34 8.24-8.99 17.05z"/><path fill="#030201" d="M79.53 534.27c-4.8 2.38-17.26 10.33-19.66 2.58-.57-1.8-.46-5.4 2.17-6.83 6.9-3.79 16.9-10.25 20.36-2.71.88 1.92.34 5.37-2.87 6.95zm63.4 101.02c-7.33 7.13-8.26 12.25-14.3 10.3-2.52-.81-4.1-4.27-2.67-7.6 2.17-5.03 6.36-9.13 10.83-12.15 2.54-1.71 5.67-.34 7.06 1.58 1.54 2.16 1.6 5.42-.92 7.88z"/><path fill="#050302" d="M239.82 621.3c-2.14 5.25-10.55 16.71-16.7 11.36-1.77-1.55-2.83-5.04-.63-7.58l8.25-9.55c1.68-1.95 4.6-1.86 6.26-1.32 2.5.82 4.06 4 2.82 7.08"/><path fill="#030201" d="M271.51 721.5c-1.68 2.49-4.76 2.4-6.5 1.64-6.98-3.1-.31-14.32 3.2-19.69 1.65-2.51 4.67-2.79 6.76-2.1 7.53 2.5-.33 15.5-3.48 20.14z"/><path fill="#020101" d="M229.45 716.76c-3.18 5.53-10.34 16.18-16.34 11.1-5.23-4.44 3.34-13.19 7.65-17.91 2.1-2.32 5.5-2.1 7.45-.67 2.04 1.48 2.82 4.74 1.24 7.48m-69.94-69.74c-2.64 4.77-10.9 15.34-16.7 10.66-5.78-4.68 3.66-12.69 8.32-17.51 2.28-2.37 5.07-1.64 6.64-.64 2.44 1.55 3.3 4.66 1.74 7.49"/><path fill="#030201" d="M225 695.07c-3.17 1.8-6.1.67-7.52-1.23a5.6 5.6 0 0 1 .83-7.64c5.66-5.16 8.32-11.65 13.35-9.6 2.37.97 4.34 3.7 3.28 6.84-1.6 4.73-5.17 8.9-9.96 11.64z"/><path fill="#010101" d="M257.85 697.99c-2.24 5.12-9.96 15.82-15.5 11.56-2.17-1.66-3.23-5.04-1.44-7.45l7.55-10.15a6.1 6.1 0 0 1 6.93-2c2.9 1.04 3.94 4.64 2.46 8.04"/><path fill="#020101" d="M244.43 740.1c-1.63 2.25-4.6 2.3-6.52 1.67-8.36-2.74 1.75-15.1 3.16-18.06 1.54-3.2 5.04-3.57 7.7-2.55 7.64 2.96-1.2 14.65-4.34 18.96zm13.42-76.4c-1.96 4.88-9.31 16.5-15.54 11.81-6.23-4.7 3.56-13 6.86-18.6 2.58-1.36 5.25-1.48 7.18-.17 1.92 1.3 2.59 4.22 1.5 6.96"/><path fill="#030201" d="M111.84 599.17c-4.1 4.08-13.92 11.83-17.83 6.06-4.55-6.7 4.82-10.35 10.79-14.67 2.79-2.02 5.9-1.19 7.78 1.1 1.58 1.92 1.8 4.99-.74 7.51m23.64-18.49c-1.66 3.52-10.92 13.7-16.56 9.56-2.5-1.83-3.23-5.47-.93-7.93 4.61-4.94 10.8-11.8 15.9-8.48 1.67 1.1 2.78 4.3 1.59 6.85m-37.02-7.67c4.53 6.79-12.4 17.28-17.17 14.06a5.42 5.42 0 0 1-1-8.25c3.7-3.98 14.06-11.94 18.17-5.8"/><path fill="#020101" d="M211.35 701.25c-1.68 5.15-10.74 15.98-16.3 11.61-2.51-1.97-3.16-5.87-.8-8.4 6.34-6.77 8.61-11.14 13.6-9.47 1.82.6 4.47 3.32 3.52 6.26zM85.61 556.8c-4.9 2.95-16.27 8.64-18.37 1.71-.62-2.05-.54-5.25 2.17-6.73 5.08-2.81 15.53-8.2 18.13-2.06.94 2.25.83 5.43-1.93 7.1z"/><path fill="#030201" d="M165.6 617.23c-2.63 5.76-9.06 13.54-14.68 9.48s1.8-11 5.4-15.6c1.85-2.4 4.74-2.18 6.71-1.33 2.66 1.14 4.01 4.24 2.56 7.45m11.5-4.11a5.56 5.56 0 0 1-6.77.54 5.4 5.4 0 0 1-1.86-6.62l3.72-7.88c1.04-2.2 2.36-3.57 3.7-3.98 2.22-.69 5.95-.4 6.78 2.54 1.52 5.42-.98 11.44-5.56 15.42z"/><path fill="#020101" d="M122.98 540.85c-3.23 5.07-11.76 6.72-17.62 5.46-2.53-.54-2.74-4-2.58-5.41.72-6.15 15.88-9.27 19.04-5.88 1 1.08 2.64 3.51 1.16 5.84zm90.82 70.74c-1.65 4.63-8.98 12.64-14.4 8.97-1.87-1.26-2.85-4.3-1.45-6.93 1.8-3.4 8.92-12 13.81-8.34 1.66 1.26 2.95 3.75 2.04 6.31z"/><path fill="#040202" d="M213.65 663.75c6.13 4.49-1.61 14.3-4.58 15.64-2.4 1.08-6.03 1.3-7.61-1.43-2.53-4.39 1.12-8.1 3.47-11.4s6.16-4.68 8.7-2.82z"/><path fill="#bb8d63" d="M459.15 586.01c-4.06 2.74-14.74 2.22-19.3 4-4.08-2.47-7.97-9.51-14.6-8.86l39.12-57.7c1.61 3.96 3.08 6.1 6.4 5.68 8.48-1.07 3.15-11.1 8.58-13.24 7.25-2.85 9.94 4.86 14.62 1.37 2.97-2.22 3.23-6.12 1.03-9.02-3.54-4.7-9.32-4.45-16.04-5.07 4.6-7.78 9.2-14.65 15.52-22.58.75 4.47 4.97 8.14 5.17 11.62-.5 9.4-1.05 18.84 7.64 25.74-5.08 8.57 1.03 16.06.62 24.15l-.8 15.92c-.16 3.1-4.12 10.1-7.15 9.89-8.41-.6-12.16 8.22-17.64 9.87-7.96 2.38-14.89 2.64-23.17 8.22z"/><path fill="#020201" d="M498.83 532.54c-.24 8.32-14.2-.08-11.18 11.55 1.99 7.67 13.01 1.7 12.24 11.4-.27 3.44-2.9 5.75-7.28 5.3-12.04-1.2-19.8-13.68-15.95-25.36a14.34 14.34 0 0 1 19.34-8.7c2.74 1.2 2.88 3.84 2.83 5.81"/><path fill="#020101" d="M470.16 571.56c-7.34 1.73-6.38-8.87-9.46-9.56-10.37-2.28.96 11.1-6.97 14.42-2.37 1-5.66.26-7.57-2.72-3.6-5.67-3.37-12.48 1.03-17.65 3.55-4.2 9.47-7.16 16.12-5.62 5.74 1.33 10.84 6.76 11.22 14.1.18 3.62-1.18 6.28-4.39 7.03z"/><path fill="#fb9a02" d="M528.77 619.17c-4.6 4.4 2.23 17.5-.97 24.23-1.32 1.74-7.89-.25-8.26-2.92l-7.39-51.74c9.38-5.12 20.54-5.34 29.18.59 5.56 3.8 8.64 9.73 6.83 16.42-2.73 10.15-16.4 10.54-19.4 13.42"/><path fill="#be7503" d="m523.83 598.63 3.2 1.37c-1.57 8.5 9.33 4.24 4.31-1.96l.4-3.9c6.33-.47 9.28 3.9 8.88 9.52-.35 4.62-3.13 8.23-6.7 9.09-3.91.96-8.43.1-10.32-3.28s-2.76-8.32.21-10.86z"/><path fill="#090602" d="M531.75 594.15c3.32 2.25 5.18 5.9 3.91 9.14-1.73 4.42-6.18 6.21-10.2 3.28-2.53-1.85-1.65-5.6-1.64-7.93 2.03-3.4 5.03-4.27 7.93-4.49"/><path fill="#010000" d="M531.72 699.73c1.27 1.91 3.42 3.77 5.18 5.22.37 16.2-2.82 29.48-20.4 33.06-6.94 1.42-9.94-4.87-15.7-6.83-6.37-2.15-13.82-.3-18.34-6.69-7.3-10.3-6-24.77 1.93-34.72 11-.2 19.22 5.69 25.28 14.24 7.22-2.99 14.64-3.87 22.06-4.3z"/><path fill="#f4b441" d="M525.18 714.69c-.49 6.92-5.22 12.95-10.96 11.22-2.95-.88-3.06-4.9-2.64-6.6 1.3-5.17 14.06-11.26 13.58-4.62z"/><path fill="#f9b842" d="M500.16 716.7c-1.18 3.84-7.75 2.78-9.25.04-2.62-4.82-3.11-9.68.03-14.1 5.73 2.1 11.33 7.1 9.21 14.07z"/><path fill="#f66f4b" d="M277.54 573.57c-6.72-3.4-40.69-19.77-33.53-29.87l37.74-53.32c4.95-7 10.95-11.37 19.41-10.8 7.52.5 13.8 5.22 17.58 13.02 7.73 16.02 13.56 33.76 14.08 51.87.15 5.32-5.64 9.6-7.7 13.58-9.15 17.74-29.19 24.77-47.55 15.5z"/><path fill="#000" d="M285.53 554.96c-7.22 4.5-15.73 4.6-21.65-.54-14.98-12.99 1.76-29.83 11.28-44.33 5.23-7.96 14.28-8.62 21.93-5.83 9.18 3.36 6.81 13.15 10.17 19.82 4.32 8.55 10.97 16.18 4.53 25.7-5.6 8.3-16.22 11.69-26.26 5.18"/><path fill="#a03626" d="M279.38 545.14c-1.84 2.54-5.05 2.46-6.76 1.8-10.1-3.92 6.98-24 12.78-31.7 1.8-2.38 6.21-1.53 7.92-.06 6.02 5.18-8.31 22.16-13.95 29.96z"/><path fill="#eea68a" d="M300.92 532.64a5.25 5.25 0 0 1 5.84 3.7c.84 3.66-.7 6.61-3.93 7.12-3.05.47-6.21-.72-6.74-4.47a5.54 5.54 0 0 1 4.85-6.33z"/><path fill="#f66f4b" d="M429.8 405.99c-3.7 4.06-5.81 11.02-11.08 12.5-16.74 4.64-62.65 12.22-71.11-8.26-3.34-8.08-.93-14.85 3.73-21.6l37.84-54.88c10.03-5.42 30.23 14.66 37.53 21.17 14.98 13.34 17.26 35.44 3.1 51.08z"/><path fill="#000" d="M391.7 401.84c-6.14-1.77-15.07 5.26-21.66-2.6-12.5-14.95-1.24-25.53 12.15-44.7 5.44-7.8 14.08-7.6 21.16-5.38 10.1 3.18 6.73 14.35 10.3 20.13 5.37 8.67 12.91 16.44 6.23 26.83s-16.97 8.94-28.17 5.7z"/><path fill="#a03627" d="M386.46 389.46c-2.1 3-5.48 3.4-7.42 2.42-3.59-1.81-4.55-5.71-2.41-9.19a260 260 0 0 1 15.05-22.13c1.89-2.48 6.14-1.96 8.02-.57 6.49 4.81-7.94 21.9-13.22 29.47z"/><path fill="#f2a98d" d="M406.84 377.67c3.08-.91 5.92.47 6.76 2.46 1.34 3.12.3 6.53-2.18 7.64-3.02 1.35-6.6.27-7.7-2.34-1.2-2.87-.4-6.72 3.13-7.76z"/><path fill="#f0546b" d="M574.28 399.55a83 83 0 0 0 5.36 14.17l-2.41 3.5q-3 .05-5.93.51l-.28-22.93z"/><path fill="#010000" d="M634.65 399.92c1 4.96-3.82 11.27-5.86 14.88-2.64 4.68-11.94 3.52-15.71 5.5-6.1 3.24-9.77 9.22-17.38 8.21s-13.4-6.15-18.47-11.27c-1.43-7.5-7.3-9.3-2.95-17.7 8.02-4.89 17.09-6.2 26.83-5.21 3.02-6 7.63-17.65 15.75-17.3 10.06.46 16.04 14.23 17.77 22.87z"/><path fill="#f2b341" d="M622.57 401.76c-.28 3.09-1.97 5.24-3.77 5.52-1.68.24-4.72-.05-5.87-2.22-2.91-5.6-.17-12.27 4.7-15.25 3.24 3.73 5.36 7.16 4.94 11.97z"/><path fill="#edad40" d="M601.73 409.74c-.55 5.58-8.5 5.99-12.71 2.8-.7-.62-3.78-3.91-2.74-4.92 4.56-4.47 12.65-2.77 15.44 2.13z"/><path fill="#b68431" d="M589.02 412.54c4.43.72 8.57-1.35 12.71-2.8 1.7 2.97.74 5.37-2.57 6.75-3.93 1.63-8.12-.9-10.13-3.95z"/><path fill="#000" d="M727.53 800.96q-2.11-.7 0-1.63c3.81.2 7.74-.87 11.55.83-4.37 1.8-8.03.33-11.55.8m-184.23 4.89q-2.1-.68 0-1.63c3.27.13 6.69-.81 9.92.85-3.8 1.78-6.95.34-9.91.78m246.16-8.15q2.11.68 0 1.63c-2.7-.41-5.64 1-8.26-.9 3.21-1.37 5.85-.77 8.26-.73"/><path fill="#000" d="M789.48 799.33v-1.63c2.7.03 5.64-.74 8.26.84-3.21 1.72-5.85.4-8.26.79m-246.18 4.89v1.63c-2.7-.4-5.63 1.01-8.26-.9 3.2-1.3 5.87-.83 8.26-.73"/><g fill="#000" opacity=".24"><path d="M380.28 840.1c4.6-4.82 9-12.03 15.39-14.4 10.85 8.72 21.22-5.83 25.97-14.72 13.29-1.06 26.18-.52 39.55-.95l53.45-1.71 60.6-1.57 63.26-1.71 59.27-1.12c2.61-.05 5.56-2.32 8.04-1.06 4.47 2.23 7.94.4 12.32.27l42.88-1.27c11.66-.34 23.18-.25 34.79-1.03 11.07-.73 18.37-8.61 27.49-12.97 9.1-4.35 53.3-6.47 67.24-7.66l19.55-1.68c16.37-1.42 35.36-1.83 47.28-13.4 7.92 8.78 18.27 12.04 16.28 28.24-2.54 20.72-36.32 25.05-53.34 26.31l-15.2 1.11c-29.29 2.15-56.94 2.92-84.88 5.8l-17.69 1.82c-8.43.86-16.17 1.38-24.48 1.56l-43.84.97-19.81 1.35c-28.45 1.96-51.39 2.54-79.78 4.24l-25.98 1.55-26.36 1.75-202.03.32zm-52.17.01c-24.5-.69-49.18 1.13-74.15-.75l-21.45-1.62c-29.02-2.18-57-7.12-84.72-15.96-4.11-1.32-4.76-4.44-7.16-6.14-5.48-9.18-11.6-24.15 0-30.99 1.27-.26 2.15-1.27 3.26-1.63 26.75-10.78 56.24-12.02 84.77-13.05 5.04-.24 4.72 7.98 8.07 9.28 4.1 1.6 8.53-1.7 11.79.92 2.94 2.35 3.77 5.07 5.28 8.84 2.15 5.38 7.76.13 10.8-.69 15.04 3.26 10.72 4.44 17.94 11.29 3.64-3.62 12.44-4.55 14.61.26 1.73 3.87 1.58 6.57 5.79 6.3 3.01-.2 3.45-1.44 5-5.39 4 16.28 5.55 29.05 20.2 39.31z"/><path d="M228.66 769.97c-28.36 2.74-57 4.01-84.77 13.05 6.06-6.41 38.1-10.8 49.38-12.46 12-1.78 23.9.11 35.4-.59m-88.04 14.68c-4.6 4.23-7.1 9.84-4.89 16.4l4.89 14.6c-6.7-4.72-13.16-28.24 0-31"/></g><rect width="11.95" height="29.56" fill="#000" rx="5.97" transform="rotate(-140.59 187 305.06)scale(1 -1)skewX(-.03)"/><rect width="11.95" height="29.56" fill="#000" rx="5.97" transform="rotate(39.38 -862.9 555)scale(-1 1)skewY(-.03)"/><rect width="11.95" height="29.56" fill="#000" rx="5.97" transform="rotate(39.38 -877.36 580.77)scale(-1 1)skewY(-.03)"/><rect width="11.95" height="29.56" fill="#000" rx="5.97" transform="rotate(-140.59 219.86 319)scale(1 -1)skewX(-.03)"/><rect width="11.95" height="29.56" fill="#000" rx="5.97" transform="matrix(-.77262 -.63487 -.63446 .77296 204.14 722)"/><rect width="11.95" height="26.64" fill="#000" rx="5.97" transform="rotate(39.38 -840.29 496.5)scale(-1 1)skewY(-.03)"/><rect width="11.95" height="26.64" fill="#000" rx="5.97" transform="rotate(48.05 -655.6 438.24)scale(-1 1)skewY(-.03)"/><rect width="11.95" height="26.64" fill="#000" rx="5.97" transform="rotate(48.05 -639.2 412.87)scale(-1 1)skewY(-.03)"/><rect width="11.95" height="26.64" fill="#000" rx="5.97" transform="rotate(58.04 -497.4 374.5)scale(-1 1)skewY(-.03)"/><rect width="11.95" height="26.64" fill="#000" rx="5.97" transform="rotate(58.04 -485.87 356.6)scale(-1 1)skewY(-.03)"/><rect width="11.95" height="26.64" fill="#000" rx="5.97" transform="matrix(-.43503 -.90042 -.90024 .4354 63.3 564.69)"/><rect width="11.95" height="26.64" fill="#000" rx="5.97" transform="matrix(-.43507 -.9004 -.90024 .43539 57.38 543.4)"/><rect width="11.95" height="26.64" fill="#000" rx="5.98" transform="rotate(-80.9 263.2 180.96)scale(1 -1)"/><rect width="12.21" height="26.64" fill="#000" rx="6.11" transform="matrix(.33249 -.9431 -.943 -.33282 46.06 388.92)"/><rect width="12.21" height="26.64" fill="#000" rx="6.11" transform="matrix(.33249 -.9431 -.943 -.33282 50.9 370.27)"/><rect width="12.21" height="26.64" fill="#000" rx="6.11" transform="rotate(-64.18 298.43 109.87)scale(1 -1)skewX(.02)"/><rect width="12.21" height="26.64" fill="#000" rx="6.11" transform="rotate(-64.18 289.3 92.9)scale(1 -1)skewX(.02)"/><rect width="12.21" height="26.64" fill="#000" rx="6.1" transform="rotate(125.23 -32.57 171)scale(-1 1)skewY(.03)"/><rect width="12.21" height="26.64" fill="#000" rx="6.1" transform="rotate(-54.8 319.71 38.95)scale(1 -1)skewX(.03)"/><rect width="12.21" height="26.64" fill="#000" rx="6.1" transform="rotate(-44.56 376.6 -7.99)scale(1 -1)skewX(.03)"/><rect width="12.21" height="26.64" fill="#000" rx="6.1" transform="rotate(135.47 13.94 149.36)scale(-1 1)skewY(.03)"/><rect width="12.21" height="26.64" fill="#000" rx="6.1" transform="rotate(135.47 25.78 146)scale(-1 1)skewY(.03)"/><rect width="12.21" height="26.65" fill="#000" rx="6.1" transform="rotate(214.42 278.8 45.34)scale(-1 1)skewY(-.03)"/><rect width="12.21" height="26.65" fill="#000" rx="6.1" transform="rotate(214.42 290.59 50.55)scale(-1 1)skewY(-.03)"/><rect width="12.21" height="26.65" fill="#000" rx="6.1" transform="matrix(.89435 .44737 .447 -.89454 524.2 270.74)"/><rect width="12.21" height="26.65" fill="#000" rx="6.1" transform="matrix(.89435 .44737 .447 -.89454 545.23 276.77)"/><rect width="12.21" height="26.65" fill="#000" rx="6.1" transform="rotate(197.78 305.45 98.8)scale(-1 1)skewY(-.02)"/><rect width="12.21" height="26.65" fill="#000" rx="6.1" transform="rotate(17.8 -641.08 2024.1)scale(1 -1)skewX(-.02)"/><rect width="12.2" height="26.65" fill="#000" rx="6.1" transform="rotate(183.1 310.72 140.67)scale(-1 1)"/><rect width="12.2" height="26.65" fill="#000" rx="6.1" transform="rotate(183.1 322.47 141.35)scale(-1 1)"/><rect width="12.2" height="26.65" fill="#000" rx="6.1" transform="rotate(183.1 334.12 141.77)scale(-1 1)"/><rect width="12.2" height="26.65" fill="#000" rx="6.1" transform="rotate(183.1 342.88 142.74)scale(-1 1)"/><rect width="12.2" height="26.65" fill="#000" rx="6.1" transform="rotate(183.1 355 142.66)scale(-1 1)"/><rect width="12.2" height="26.65" fill="#000" rx="6.1" transform="rotate(3.1 -5256.01 13581)scale(1 -1)"/><rect width="12.21" height="26.65" fill="#000" rx="6.1" transform="rotate(8.24 -1739.67 5344.4)scale(1 -1)"/><rect width="12.21" height="26.65" fill="#000" rx="6.1" transform="matrix(.97135 .23765 .23742 -.9714 767.17 310)"/><rect width="12.21" height="26.65" fill="#000" rx="6.1" transform="matrix(.97135 .23765 .23742 -.9714 786.38 312.75)"/><rect width="12.21" height="26.65" fill="#000" rx="6.1" transform="rotate(203.7 434.38 76.28)scale(-1 1)skewY(-.02)"/><rect width="12.21" height="26.65" fill="#000" rx="6.1" transform="rotate(203.7 446.61 78.91)scale(-1 1)skewY(-.02)"/><rect width="12.21" height="26.65" fill="#000" rx="6.1" transform="rotate(203.7 455.43 82.37)scale(-1 1)skewY(-.02)"/><rect width="12.21" height="26.64" fill="#000" rx="6.1" transform="matrix(.8166 .5772 .5768 -.81688 857.02 351.05)"/><rect width="12.21" height="26.64" fill="#000" rx="6.1" transform="matrix(.74606 .66588 .6655 -.7464 872 363.84)"/><rect width="12.21" height="26.64" fill="#000" rx="6.1" transform="matrix(.74605 .6659 .66551 -.74639 890.6 385.28)"/><rect width="12.21" height="26.64" fill="#000" rx="6.1" transform="rotate(237.94 563 -49.27)scale(-1 1)skewY(-.03)"/><rect width="12.21" height="26.64" fill="#000" rx="6.1" transform="rotate(243.35 588.2 -70.4)scale(-1 1)skewY(-.02)"/><rect width="12.21" height="26.64" fill="#000" rx="6.11" transform="rotate(73.14 162.87 847.84)scale(1 -1)skewX(-.02)"/><rect width="12.21" height="26.64" fill="#000" rx="6.11" transform="matrix(.28998 .95703 .95695 -.29026 932.5 466.2)"/><rect width="12.21" height="26.64" fill="#000" rx="6.11" transform="rotate(73.14 136.1 876.93)scale(1 -1)skewX(-.02)"/><rect width="12.21" height="26.64" fill="#000" rx="6.11" transform="rotate(73.14 121.8 891.09)scale(1 -1)skewX(-.02)"/><rect width="11.95" height="26.64" fill="#000" rx="5.97" transform="rotate(-115.79 189.73 247.8)scale(1 -1)skewX(-.02)"/><path fill="#fff" stroke="#000" stroke-width="9.55" d="M395.43 307.8a5.43 5.43 0 0 0-10.1.2l-.07.23-3.24 10.04-9.73 4.07a5.43 5.43 0 0 0 .43 10.18l10.04 3.24 4.07 9.73a5.43 5.43 0 0 0 10.18-.43l3.24-10.05 9.72-4.07a5.43 5.43 0 0 0-.43-10.18l-10.03-3.24zm-10.87 28.54Z"/></svg>